<?xml version="1.0" encoding="UTF-8" standalone="no"?>
<!DOCTYPE svg PUBLIC "-//W3C//DTD SVG 1.1//EN"
"http://www.w3.org/Graphics/SVG/1.1/DTD/svg11.dtd">
<svg viewBox="0 0 714 1017" version="1.1" xmlns="http://www.w3.org/2000/svg" xmlns:xlink="http://www.w3.org/1999/xlink">
<defs>
<clipPath id="c0_277"><path d="M254.1 443.9V271.2H438.5V443.9Z"/></clipPath>
<clipPath id="c1_277"><path d="M254.1 443.9V269.7H438.9V443.9Z"/></clipPath>
<style type="text/css"><![CDATA[
.g0_277{
fill: #FFF;
}
.g1_277{
fill: none;
stroke: #000;
stroke-width: 1.145;
stroke-miterlimit: 10;
}
.g2_277{
fill: none;
stroke: #000;
stroke-width: 0.608;
stroke-miterlimit: 10;
}
]]></style>
</defs>
<path d="M0 1017.7H717.2V-3.7H0V1017.7Z" class="g0_277"/>
<g clip-path="url(#c1_277)">
<g clip-path="url(#c0_277)">
<path d="M254.1 271.2H438.5v173H254.1v-173Z" class="g0_277"/>
<path d="M403.6 329.1c0 1.9 -.1 3.7 -.3 5.6c-.2 1.9 -.4 3.7 -.8 5.6c-.4 1.8 -.8 3.6 -1.4 5.4c-.5 1.8 -1.2 3.6 -1.9 5.3c-.7 1.7 -1.5 3.4 -2.4 5.1c-.9 1.6 -1.8 3.2 -2.9 4.8c-1 1.6 -2.1 3.1 -3.3 4.5c-1.2 1.5 -2.5 2.9 -3.8 4.2c-1.3 1.3 -2.7 2.6 -4.2 3.8c-1.4 1.2 -2.9 2.3 -4.5 3.3c-1.5 1.1 -3.1 2 -4.8 2.9c-1.7 .9 -3.3 1.7 -5.1 2.4c-1.7 .7 -3.5 1.4 -5.3 1.9c-1.8 .5 -3.6 1 -5.4 1.4c-1.9 .3 -3.7 .6 -5.6 .8c-1.9 .2 -3.7 .3 -5.6 .3c-1.9 0 -3.8 -.1 -5.6 -.3c-1.9 -.2 -3.7 -.5 -5.6 -.8c-1.8 -.4 -3.6 -.9 -5.4 -1.4c-1.8 -.5 -3.6 -1.2 -5.3 -1.9c-1.8 -.7 -3.5 -1.5 -5.1 -2.4c-1.7 -.9 -3.3 -1.8 -4.8 -2.9c-1.6 -1 -3.1 -2.1 -4.5 -3.3c-1.5 -1.2 -2.9 -2.5 -4.2 -3.8c-1.3 -1.3 -2.6 -2.7 -3.8 -4.2c-1.2 -1.4 -2.3 -2.9 -3.3 -4.5c-1.1 -1.6 -2 -3.2 -2.9 -4.8c-.9 -1.7 -1.7 -3.4 -2.4 -5.1c-.8 -1.7 -1.4 -3.5 -1.9 -5.3c-.6 -1.8 -1 -3.6 -1.4 -5.4c-.4 -1.9 -.6 -3.7 -.8 -5.6c-.2 -1.9 -.3 -3.7 -.3 -5.6c0 -1.9 .1 -3.8 .3 -5.6c.2 -1.9 .4 -3.8 .8 -5.6c.4 -1.8 .8 -3.7 1.4 -5.5c.5 -1.7 1.1 -3.5 1.9 -5.2c.7 -1.8 1.5 -3.5 2.4 -5.1c.9 -1.7 1.8 -3.3 2.9 -4.9c1 -1.5 2.1 -3 3.3 -4.5c1.2 -1.4 2.5 -2.8 3.8 -4.1c1.3 -1.4 2.7 -2.6 4.2 -3.8c1.4 -1.2 2.9 -2.3 4.5 -3.4c1.5 -1 3.1 -2 4.8 -2.8c1.6 -.9 3.3 -1.7 5.1 -2.5c1.7 -.7 3.5 -1.3 5.3 -1.8c1.8 -.6 3.6 -1 5.4 -1.4c1.9 -.4 3.7 -.7 5.6 -.8c1.8 -.2 3.7 -.3 5.6 -.3c1.9 0 3.7 .1 5.6 .3c1.9 .1 3.7 .4 5.6 .8c1.8 .4 3.6 .8 5.4 1.4c1.8 .5 3.6 1.1 5.3 1.8c1.8 .8 3.4 1.6 5.1 2.5c1.7 .8 3.3 1.8 4.8 2.8c1.6 1.1 3.1 2.2 4.5 3.4c1.5 1.2 2.9 2.4 4.2 3.8c1.3 1.3 2.6 2.7 3.8 4.1c1.2 1.5 2.3 3 3.3 4.5c1.1 1.6 2 3.2 2.9 4.9c.9 1.6 1.7 3.3 2.4 5.1c.7 1.7 1.4 3.5 1.9 5.2c.6 1.8 1 3.7 1.4 5.5c.4 1.8 .6 3.7 .8 5.6c.2 1.8 .3 3.7 .3 5.6ZM438 386.4c0 1.8 -.1 3.7 -.3 5.6c-.2 1.9 -.5 3.7 -.8 5.5c-.4 1.9 -.9 3.7 -1.4 5.5c-.5 1.8 -1.2 3.6 -1.9 5.3c-.7 1.7 -1.5 3.4 -2.4 5.1c-.9 1.6 -1.8 3.2 -2.9 4.8c-1 1.6 -2.2 3.1 -3.3 4.5c-1.2 1.5 -2.5 2.9 -3.8 4.2c-1.3 1.3 -2.7 2.6 -4.2 3.8c-1.4 1.1 -2.9 2.3 -4.5 3.3c-1.6 1 -3.2 2 -4.8 2.9c-1.7 .9 -3.4 1.7 -5.1 2.4c-1.7 .7 -3.5 1.3 -5.3 1.9c-1.8 .5 -3.6 1 -5.5 1.4c-1.8 .3 -3.6 .6 -5.5 .8c-1.9 .2 -3.8 .3 -5.6 .3c-1.9 0 -3.8 -.1 -5.6 -.3c-1.9 -.2 -3.8 -.5 -5.6 -.8c-1.8 -.4 -3.7 -.9 -5.5 -1.4c-1.8 -.6 -3.5 -1.2 -5.3 -1.9c-1.7 -.7 -3.4 -1.5 -5 -2.4C352 436 350.4 435 348.8 434c-1.5 -1 -3 -2.2 -4.5 -3.3c-1.4 -1.2 -2.8 -2.5 -4.1 -3.8c-1.4 -1.3 -2.6 -2.7 -3.8 -4.2c-1.2 -1.4 -2.3 -2.9 -3.4 -4.5c-1 -1.6 -2 -3.2 -2.9 -4.8c-.8 -1.7 -1.6 -3.4 -2.4 -5.1c-.7 -1.7 -1.3 -3.5 -1.9 -5.3c-.5 -1.8 -1 -3.6 -1.3 -5.5c-.4 -1.8 -.7 -3.6 -.8 -5.5c-.2 -1.9 -.3 -3.8 -.3 -5.6c0 -1.9 .1 -3.8 .3 -5.6c.1 -1.9 .4 -3.8 .8 -5.6c.3 -1.8 .8 -3.7 1.3 -5.5c.6 -1.8 1.2 -3.5 1.9 -5.3c.8 -1.7 1.6 -3.4 2.4 -5c.9 -1.7 1.9 -3.3 2.9 -4.9c1.1 -1.5 2.2 -3 3.4 -4.5c1.2 -1.4 2.4 -2.8 3.8 -4.1c1.3 -1.4 2.7 -2.6 4.1 -3.8c1.5 -1.2 3 -2.3 4.5 -3.4c1.6 -1 3.2 -2 4.9 -2.9c1.6 -.8 3.3 -1.6 5 -2.4c1.8 -.7 3.5 -1.3 5.3 -1.9c1.8 -.5 3.7 -1 5.5 -1.3c1.8 -.4 3.7 -.7 5.6 -.8c1.8 -.2 3.7 -.3 5.6 -.3c1.8 0 3.7 .1 5.6 .3c1.9 .1 3.7 .4 5.5 .8c1.9 .3 3.7 .8 5.5 1.3c1.8 .6 3.6 1.2 5.3 1.9c1.7 .8 3.4 1.6 5.1 2.4c1.6 .9 3.2 1.9 4.8 2.9c1.6 1.1 3.1 2.2 4.5 3.4c1.5 1.2 2.9 2.4 4.2 3.8c1.3 1.3 2.6 2.7 3.8 4.1c1.1 1.5 2.3 3 3.3 4.5c1.1 1.6 2 3.2 2.9 4.9c.9 1.6 1.7 3.3 2.4 5c.7 1.8 1.4 3.5 1.9 5.3c.5 1.8 1 3.7 1.4 5.5c.3 1.8 .6 3.7 .8 5.6c.2 1.8 .3 3.7 .3 5.6Zm-68.8 0c0 1.8 -.1 3.7 -.3 5.6c-.1 1.9 -.4 3.7 -.8 5.5c-.4 1.9 -.8 3.7 -1.4 5.5c-.5 1.8 -1.1 3.6 -1.8 5.3c-.8 1.7 -1.6 3.4 -2.5 5.1c-.8 1.6 -1.8 3.2 -2.8 4.8c-1.1 1.6 -2.2 3.1 -3.4 4.5c-1.2 1.5 -2.4 2.9 -3.8 4.2c-1.3 1.3 -2.7 2.6 -4.1 3.8c-1.5 1.1 -3 2.3 -4.5 3.3c-1.6 1 -3.2 2 -4.9 2.9c-1.6 .9 -3.3 1.7 -5.1 2.4c-1.7 .7 -3.5 1.3 -5.2 1.9c-1.8 .5 -3.7 1 -5.5 1.4c-1.8 .3 -3.7 .6 -5.6 .8c-1.8 .2 -3.7 .3 -5.6 .3c-1.9 0 -3.7 -.1 -5.6 -.3c-1.9 -.2 -3.7 -.5 -5.6 -.8c-1.8 -.4 -3.6 -.9 -5.4 -1.4c-1.8 -.6 -3.6 -1.2 -5.3 -1.9c-1.7 -.7 -3.4 -1.5 -5.1 -2.4c-1.6 -.9 -3.2 -1.9 -4.8 -2.9c-1.6 -1 -3.1 -2.2 -4.5 -3.3c-1.5 -1.2 -2.9 -2.5 -4.2 -3.8c-1.3 -1.3 -2.6 -2.7 -3.8 -4.2c-1.2 -1.4 -2.3 -2.9 -3.3 -4.5c-1.1 -1.6 -2 -3.2 -2.9 -4.8c-.9 -1.7 -1.7 -3.4 -2.4 -5.1c-.7 -1.7 -1.4 -3.5 -1.9 -5.3c-.5 -1.8 -1 -3.6 -1.4 -5.5c-.3 -1.8 -.6 -3.6 -.8 -5.5c-.2 -1.9 -.3 -3.8 -.3 -5.6c0 -1.9 .1 -3.8 .3 -5.6c.2 -1.9 .5 -3.8 .8 -5.6c.4 -1.8 .9 -3.7 1.4 -5.5c.5 -1.8 1.2 -3.5 1.9 -5.3c.7 -1.7 1.5 -3.4 2.4 -5c.9 -1.7 1.8 -3.3 2.9 -4.9c1 -1.5 2.1 -3 3.3 -4.5c1.2 -1.4 2.5 -2.8 3.8 -4.1c1.3 -1.4 2.7 -2.6 4.2 -3.8c1.4 -1.2 2.9 -2.3 4.5 -3.4c1.6 -1 3.2 -2 4.8 -2.9c1.7 -.8 3.4 -1.6 5.1 -2.4c1.7 -.7 3.5 -1.3 5.3 -1.9c1.8 -.5 3.6 -1 5.4 -1.3c1.9 -.4 3.7 -.7 5.6 -.8c1.9 -.2 3.7 -.3 5.6 -.3c1.9 0 3.8 .1 5.6 .3c1.9 .1 3.8 .4 5.6 .8c1.8 .3 3.7 .8 5.5 1.3c1.7 .6 3.5 1.2 5.2 1.9c1.8 .8 3.5 1.6 5.1 2.4c1.7 .9 3.3 1.9 4.9 2.9c1.5 1.1 3 2.2 4.5 3.4c1.4 1.2 2.8 2.4 4.1 3.8c1.4 1.3 2.6 2.7 3.8 4.1c1.2 1.5 2.3 3 3.4 4.5c1 1.6 2 3.2 2.8 4.9c.9 1.6 1.7 3.3 2.5 5c.7 1.8 1.3 3.5 1.8 5.3c.6 1.8 1 3.7 1.4 5.5c.4 1.8 .7 3.7 .8 5.6c.2 1.8 .3 3.7 .3 5.6Z" class="g1_277"/>
</g>
</g>
<path d="M65 849.8H174.6" class="g2_277"/>
</svg>