<?xml version="1.0" encoding="UTF-8" standalone="no"?>
<!DOCTYPE svg PUBLIC "-//W3C//DTD SVG 1.1//EN"
"http://www.w3.org/Graphics/SVG/1.1/DTD/svg11.dtd">
<svg viewBox="0 0 714 1017" version="1.1" xmlns="http://www.w3.org/2000/svg" xmlns:xlink="http://www.w3.org/1999/xlink">
<defs>
<clipPath id="c0_136"><path d="M201.6 822.5V637.7H534.7V822.5Z"/></clipPath>
<style type="text/css"><![CDATA[
.g0_136{
fill: #FFF;
}
.g1_136{
fill: none;
stroke: #000;
stroke-width: 1.145;
stroke-miterlimit: 10;
}
.g2_136{
fill: #CCC;
}
.g3_136{
fill: none;
stroke: #000;
stroke-width: 2.291;
stroke-miterlimit: 10;
}
.g4_136{
fill: #000;
}
.g5_136{
fill: none;
stroke: #000;
stroke-width: 0.608;
stroke-miterlimit: 10;
}
]]></style>
</defs>
<path d="M0 1017.7H717.2V-3.7H0V1017.7Z" class="g0_136"/>
<g clip-path="url(#c0_136)">
<path d="M201.6 637.7H533.9V822.2H201.6V637.7Z" class="g0_136"/>
<path d="M202.2 752.3h34.4v34.4H202.2V752.3Z" class="g0_136"/>
<path d="M202.2 752.3h34.4v34.4H202.2V752.3Z" class="g1_136"/>
<path d="M236.6 752.3H271v34.4H236.6V752.3Z" class="g0_136"/>
<path d="M236.6 752.3H271v34.4H236.6V752.3Z" class="g1_136"/>
<path d="M269.8 752.9h33.8v33.8H269.8V752.9Z" class="g2_136"/>
<path d="M269.8 752.9h33.8v33.8H269.8V752.9Z" class="g3_136"/>
<path d="M304.2 752.9H338v33.8H304.2V752.9Z" class="g2_136"/>
<path d="M304.2 752.9H338v33.8H304.2V752.9Z" class="g3_136"/>
<path d="M338.6 752.9h33.8v33.8H338.6V752.9Z" class="g2_136"/>
<path d="M338.6 752.9h33.8v33.8H338.6V752.9Z" class="g3_136"/>
<path d="M371.8 752.9h33.8v33.8H371.8V752.9Z" class="g2_136"/>
<path d="M371.8 752.9h33.8v33.8H371.8V752.9Z" class="g3_136"/>
<path d="M406.2 752.9H440v33.8H406.2V752.9Z" class="g2_136"/>
<path d="M406.2 752.9H440v33.8H406.2V752.9Z" class="g3_136"/>
<path d="M439.4 752.9h33.8v33.8H439.4V752.9Z" class="g2_136"/>
<path d="M439.4 752.9h33.8v33.8H439.4V752.9Z" class="g3_136"/>
<path d="M251.5 638.3h106v34.4h-106V638.3Z" class="g0_136"/>
<path d="M251.5 638.3h106v34.4h-106V638.3Zm10.3 0v34.4m85.4 -34.4v34.4m-69.2 0l.2 72.9" class="g1_136"/>
<path d="M278.3 751.6l-2.7 -8l2.6 2l2.7 -2l-2.6 8Z" class="g4_136"/>
<path d="M278.3 751.6l-2.7 -8l2.6 2l2.7 -2l-2.6 8Z" class="g1_136"/>
<path d="M256.1 700.2h45.8v17.2H256.1V700.2Z" class="g0_136"/>
<path d="M473.8 752.9h33.8v33.8H473.8V752.9Z" class="g0_136"/>
<path d="M473.8 752.9h33.8v33.8H473.8V752.9Z" class="g1_136"/>
<path d="M294.6 752.9v-3.5h1.1l.1 3.5h-1.2Zm0 -6.9v-3.4h1.1V746h-1.1Zm.1 -7.1c.2 -1.2 .5 -2.4 .9 -3.4l1 .5c-.3 .9 -.6 1.9 -.7 3l-1.2 -.1Zm2.9 -6.4c.8 -.9 1.8 -1.5 3 -2l.4 1c-1 .4 -1.9 1 -2.6 1.8l-.8 -.8Zm6.3 -2.9c.9 -.2 1.8 -.2 2.7 -.2h1v1.1h-1c-.9 0 -1.7 .1 -2.5 .2l-.2 -1.1Zm7.1 -.2h3.5v1.1H311v-1.1Zm6.9 0h3.5v1.1h-3.5v-1.1Zm6.9 0h3.4v1.1h-3.4v-1.1Zm6.9 0h3.4v1.1h-3.4v-1.1Zm6.8 0H342v1.1h-3.5v-1.1Zm6.9 0h3.5v1.1h-3.5v-1.1Zm6.9 0h3.4v1.1h-3.4v-1.1Zm6.9 0h3.4v1.1h-3.4v-1.1Zm6.8 0h3.5v1.1H366v-1.1Zm6.9 0h3.5v1.1h-3.5v-1.1Zm6.9 0h3.4v1.1h-3.4v-1.1Zm6.9 0h3.4v1.1h-3.4v-1.1Zm6.8 0H397v1.1h-3.5v-1.1Zm6.9 0h3.5v1.1h-3.5v-1.1Zm6.9 0h3.4v1.1h-3.4v-1.1Zm6.9 0h3.4v1.1h-3.4v-1.1Zm6.8 0h3.5v1.1H421v-1.1Zm6.9 0h3.5v1.1h-3.5v-1.1Zm6.9 0h3.4v1.1h-3.4v-1.1Zm6.9 0h3.4v1.1h-3.4v-1.1Zm6.8 0H452v1.1h-3.5v-1.1Zm6.9 0h3.5v1.1h-3.5v-1.1Zm6.9 0h3.4v1.1h-3.4v-1.1Zm6.9 0h1.6c.7 0 1.4 0 2 .1l-.1 1.1c-.6 0 -1.2 -.1 -1.9 -.1h-1.6v-1.1Zm7 .5c1.3 .4 2.4 .8 3.3 1.4l-.6 1c-.8 -.5 -1.8 -.9 -3 -1.2l.3 -1.2Zm5.8 4.2c.5 1 .8 2.2 .8 3.6h-1.1c0 -1.2 -.3 -2.2 -.7 -3.1l1 -.5Zm.8 7v3.5h-1.1v-3.5h1.1Z" class="g4_136"/>
<path d="M482.2 751.6l-2.6 -8l2.6 2l2.7 -2l-2.7 8Z" class="g4_136"/>
<path d="M482.2 751.6l-2.6 -8l2.6 2l2.7 -2l-2.7 8Z" class="g1_136"/>
<path d="M346.6 720.8h84.8V738H346.6V720.8Z" class="g0_136"/>
<path d="M499.1 752.9V724.2c0 -7.6 -3.8 -11.4 -11.5 -11.4H342.5C334.8 712.8 331 709 331 701.3V680" class="g1_136"/>
<path d="M331 674l2.7 8L331 680l-2.7 2l2.7 -8Z" class="g4_136"/>
<path d="M331 674l2.7 8L331 680l-2.7 2l2.7 -8Z" class="g1_136"/>
<path d="M375.2 703.6h81.4v17.2H375.2V703.6Z" class="g0_136"/>
<path d="M271 809.9l148.6 .3" class="g3_136"/>
<path d="M426.5 810.2l-9.1 4.5l2.2 -4.5l-2.2 -4.6l9.1 4.6Z" class="g4_136"/>
<path d="M426.5 810.2l-9.1 4.5l2.2 -4.5l-2.2 -4.6l9.1 4.6Z" class="g3_136"/>
</g>
<path d="M86.6 849.8H196.2" class="g5_136"/>
</svg>