<?xml version="1.0" encoding="UTF-8" standalone="no"?>
<!DOCTYPE svg PUBLIC "-//W3C//DTD SVG 1.1//EN"
"http://www.w3.org/Graphics/SVG/1.1/DTD/svg11.dtd">
<svg viewBox="0 0 714 1017" version="1.1" xmlns="http://www.w3.org/2000/svg" xmlns:xlink="http://www.w3.org/1999/xlink">
<defs>
<clipPath id="c0_244"><path d="M229.9 324.8V257.5H506.4v67.3Z"/></clipPath>
<clipPath id="c1_244"><path d="M229.9 491V390.1H506.4V491Z"/></clipPath>
<style type="text/css"><![CDATA[
.g0_244{
fill: #FFF;
}
.g1_244{
fill: none;
stroke: #000;
stroke-width: 1.145;
stroke-miterlimit: 10;
}
.g2_244{
fill: #000;
}
]]></style>
</defs>
<path d="M0 1017.7H717.2V-3.7H0V1017.7Z" class="g0_244"/>
<g clip-path="url(#c0_244)">
<path d="M229.9 257.7H506v66.4H229.9V257.7Z" class="g0_244"/>
<path d="M322.1 306.4c0 .5 -.1 1.1 -.2 1.6c-.2 .6 -.4 1.2 -.7 1.7c-.3 .6 -.6 1.1 -1.1 1.6c-.4 .6 -.9 1.1 -1.5 1.6c-.5 .6 -1.2 1.1 -1.9 1.6c-.7 .5 -1.5 .9 -2.3 1.4c-.8 .5 -1.7 .9 -2.7 1.4c-.9 .4 -1.9 .8 -3 1.2c-1.1 .4 -2.2 .8 -3.3 1.1c-1.2 .4 -2.4 .7 -3.7 1c-1.2 .4 -2.5 .6 -3.8 .9c-1.3 .3 -2.7 .5 -4.1 .7c-1.4 .3 -2.8 .4 -4.2 .6c-1.4 .2 -2.9 .3 -4.4 .4c-1.4 .1 -2.9 .2 -4.4 .3c-1.5 0 -3 0 -4.5 0c-1.5 0 -3 0 -4.5 0c-1.5 -.1 -3 -.2 -4.5 -.3c-1.4 -.1 -2.9 -.2 -4.3 -.4c-1.5 -.2 -2.9 -.3 -4.3 -.6c-1.3 -.2 -2.7 -.4 -4 -.7c-1.3 -.3 -2.6 -.5 -3.9 -.9c-1.2 -.3 -2.4 -.6 -3.6 -1c-1.2 -.3 -2.3 -.7 -3.3 -1.1c-1.1 -.4 -2.1 -.8 -3 -1.2c-1 -.5 -1.9 -.9 -2.7 -1.4c-.9 -.5 -1.6 -.9 -2.3 -1.4c-.7 -.5 -1.4 -1 -2 -1.6c-.5 -.5 -1 -1 -1.5 -1.6c-.4 -.5 -.8 -1 -1.1 -1.6c-.3 -.5 -.5 -1.1 -.6 -1.7c-.2 -.5 -.3 -1.1 -.3 -1.6c0 -.6 .1 -1.2 .3 -1.7c.1 -.6 .3 -1.1 .6 -1.7c.3 -.5 .7 -1.1 1.1 -1.6c.5 -.6 1 -1.1 1.5 -1.6c.6 -.5 1.3 -1 2 -1.5c.7 -.5 1.4 -1 2.3 -1.5c.8 -.5 1.7 -.9 2.7 -1.3c.9 -.5 1.9 -.9 3 -1.3c1 -.4 2.1 -.8 3.3 -1.1c1.2 -.4 2.4 -.7 3.6 -1c1.3 -.3 2.6 -.6 3.9 -.9c1.3 -.3 2.7 -.5 4 -.7c1.4 -.2 2.8 -.4 4.3 -.6c1.4 -.2 2.9 -.3 4.3 -.4c1.5 -.1 3 -.2 4.5 -.2c1.5 -.1 3 -.1 4.5 -.1c1.5 0 3 0 4.5 .1c1.5 0 3 .1 4.4 .2c1.5 .1 3 .2 4.4 .4c1.4 .2 2.8 .4 4.2 .6c1.4 .2 2.8 .4 4.1 .7c1.3 .3 2.6 .6 3.8 .9c1.3 .3 2.5 .6 3.7 1c1.1 .3 2.2 .7 3.3 1.1c1.1 .4 2.1 .8 3 1.3c1 .4 1.9 .8 2.7 1.3c.8 .5 1.6 1 2.3 1.5c.7 .5 1.4 1 1.9 1.5c.6 .5 1.1 1 1.5 1.6c.5 .5 .8 1.1 1.1 1.6c.3 .6 .5 1.1 .7 1.7c.1 .5 .2 1.1 .2 1.7Zm183.3 0c0 .5 0 1.1 -.2 1.6c-.1 .6 -.3 1.2 -.6 1.7c-.3 .6 -.7 1.1 -1.1 1.6c-.5 .6 -1 1.1 -1.5 1.6c-.6 .6 -1.3 1.1 -2 1.6c-.7 .5 -1.4 .9 -2.3 1.4c-.8 .5 -1.7 .9 -2.7 1.4c-.9 .4 -1.9 .8 -3 1.2c-1 .4 -2.1 .8 -3.3 1.1c-1.2 .4 -2.4 .7 -3.6 1c-1.3 .4 -2.6 .6 -3.9 .9c-1.3 .3 -2.7 .5 -4 .7c-1.4 .3 -2.8 .4 -4.3 .6c-1.4 .2 -2.9 .3 -4.3 .4c-1.5 .1 -3 .2 -4.5 .3c-1.5 0 -3 0 -4.5 0c-1.5 0 -3 0 -4.5 0c-1.5 -.1 -3 -.2 -4.4 -.3c-1.5 -.1 -3 -.2 -4.4 -.4c-1.4 -.2 -2.8 -.3 -4.2 -.6c-1.4 -.2 -2.8 -.4 -4.1 -.7c-1.3 -.3 -2.6 -.5 -3.8 -.9c-1.3 -.3 -2.5 -.6 -3.7 -1c-1.1 -.3 -2.2 -.7 -3.3 -1.1c-1.1 -.4 -2.1 -.8 -3 -1.2c-1 -.5 -1.9 -.9 -2.7 -1.4c-.8 -.5 -1.6 -.9 -2.3 -1.4c-.7 -.5 -1.4 -1 -1.9 -1.6c-.6 -.5 -1.1 -1 -1.5 -1.6c-.5 -.5 -.8 -1 -1.1 -1.6c-.3 -.5 -.5 -1.1 -.7 -1.7c-.1 -.5 -.2 -1.1 -.2 -1.6c0 -.6 .1 -1.2 .2 -1.7c.2 -.6 .4 -1.1 .7 -1.7c.3 -.5 .6 -1.1 1.1 -1.6c.4 -.6 .9 -1.1 1.5 -1.6c.5 -.5 1.2 -1 1.9 -1.5c.7 -.5 1.5 -1 2.3 -1.5c.8 -.5 1.7 -.9 2.7 -1.3c.9 -.5 1.9 -.9 3 -1.3c1.1 -.4 2.2 -.8 3.3 -1.1c1.2 -.4 2.4 -.7 3.7 -1c1.2 -.3 2.5 -.6 3.8 -.9c1.3 -.3 2.7 -.5 4.1 -.7c1.4 -.2 2.8 -.4 4.2 -.6c1.4 -.2 2.9 -.3 4.4 -.4c1.4 -.1 2.9 -.2 4.4 -.2c1.5 -.1 3 -.1 4.5 -.1c1.5 0 3 0 4.5 .1c1.5 0 3 .1 4.5 .2c1.4 .1 2.9 .2 4.3 .4c1.5 .2 2.9 .4 4.3 .6c1.3 .2 2.7 .4 4 .7c1.3 .3 2.6 .6 3.9 .9c1.2 .3 2.4 .6 3.6 1c1.2 .3 2.3 .7 3.3 1.1c1.1 .4 2.1 .8 3 1.3c1 .4 1.9 .8 2.7 1.3c.9 .5 1.6 1 2.3 1.5c.7 .5 1.4 1 2 1.5c.5 .5 1 1 1.5 1.6c.4 .5 .8 1.1 1.1 1.6c.3 .6 .5 1.1 .6 1.7c.2 .5 .2 1.1 .2 1.7ZM459.6 289.2V277.7c0 -7.6 -3.8 -11.4 -11.4 -11.4H287.7c-7.6 0 -11.4 2.6 -11.4 7.8v7.8" class="g1_244"/>
<path d="M276.3 287.9l-2.7 -8l2.7 2l2.7 -2l-2.7 8Z" class="g2_244"/>
<path d="M276.3 287.9l-2.7 -8l2.7 2l2.7 -2l-2.7 8Z" class="g1_244"/>
</g>
<g clip-path="url(#c1_244)">
<path d="M229.9 391.6H506v98.6H229.9V391.6Z" class="g0_244"/>
<path d="M322.1 440.3c0 .6 -.1 1.1 -.2 1.7c-.2 .6 -.4 1.1 -.7 1.7c-.3 .5 -.6 1.1 -1.1 1.6c-.4 .5 -.9 1.1 -1.5 1.6c-.5 .5 -1.2 1 -1.9 1.5c-.7 .5 -1.5 1 -2.3 1.5c-.8 .4 -1.7 .9 -2.7 1.3c-.9 .5 -1.9 .9 -3 1.3c-1.1 .4 -2.2 .7 -3.3 1.1c-1.2 .4 -2.4 .7 -3.7 1c-1.2 .3 -2.5 .6 -3.8 .9c-1.3 .2 -2.7 .5 -4.1 .7c-1.4 .2 -2.8 .4 -4.2 .6c-1.4 .1 -2.9 .3 -4.4 .4c-1.4 .1 -2.9 .2 -4.4 .2c-1.5 .1 -3 .1 -4.5 .1c-1.5 0 -3 0 -4.5 -.1c-1.5 0 -3 -.1 -4.5 -.2c-1.4 -.1 -2.9 -.3 -4.3 -.4c-1.5 -.2 -2.9 -.4 -4.3 -.6c-1.3 -.2 -2.7 -.5 -4 -.7c-1.3 -.3 -2.6 -.6 -3.9 -.9c-1.2 -.3 -2.4 -.6 -3.6 -1c-1.2 -.4 -2.3 -.7 -3.3 -1.1c-1.1 -.4 -2.1 -.8 -3 -1.3c-1 -.4 -1.9 -.9 -2.7 -1.3c-.9 -.5 -1.6 -1 -2.3 -1.5c-.7 -.5 -1.4 -1 -2 -1.5c-.5 -.5 -1 -1.1 -1.5 -1.6c-.4 -.5 -.8 -1.1 -1.1 -1.6c-.3 -.6 -.5 -1.1 -.6 -1.7c-.2 -.6 -.3 -1.1 -.3 -1.7c0 -.5 .1 -1.1 .3 -1.7c.1 -.5 .3 -1.1 .6 -1.6c.3 -.6 .7 -1.1 1.1 -1.7c.5 -.5 1 -1 1.5 -1.6c.6 -.5 1.3 -1 2 -1.5c.7 -.5 1.4 -1 2.3 -1.4c.8 -.5 1.7 -1 2.7 -1.4c.9 -.4 1.9 -.8 3 -1.2c1 -.4 2.1 -.8 3.3 -1.2c1.2 -.3 2.4 -.7 3.6 -1c1.3 -.3 2.6 -.6 3.9 -.8c1.3 -.3 2.7 -.6 4 -.8c1.4 -.2 2.8 -.4 4.3 -.5c1.4 -.2 2.9 -.3 4.3 -.4c1.5 -.2 3 -.2 4.5 -.3c1.5 0 3 -.1 4.5 -.1c1.5 0 3 .1 4.5 .1c1.5 .1 3 .1 4.4 .3c1.5 .1 3 .2 4.4 .4c1.4 .1 2.8 .3 4.2 .5c1.4 .2 2.8 .5 4.1 .8c1.3 .2 2.6 .5 3.8 .8c1.3 .3 2.5 .7 3.7 1c1.1 .4 2.2 .8 3.3 1.2c1.1 .4 2.1 .8 3 1.2c1 .4 1.9 .9 2.7 1.4c.8 .4 1.6 .9 2.3 1.4c.7 .5 1.4 1 1.9 1.5c.6 .6 1.1 1.1 1.5 1.6c.5 .6 .8 1.1 1.1 1.7c.3 .5 .5 1.1 .7 1.6c.1 .6 .2 1.2 .2 1.7Zm183.3 0c0 .6 0 1.1 -.2 1.7c-.1 .6 -.3 1.1 -.6 1.7c-.3 .5 -.7 1.1 -1.1 1.6c-.5 .5 -1 1.1 -1.5 1.6c-.6 .5 -1.3 1 -2 1.5c-.7 .5 -1.4 1 -2.3 1.5c-.8 .4 -1.7 .9 -2.7 1.3c-.9 .5 -1.9 .9 -3 1.3c-1 .4 -2.1 .7 -3.3 1.1c-1.2 .4 -2.4 .7 -3.6 1c-1.3 .3 -2.6 .6 -3.9 .9c-1.3 .2 -2.7 .5 -4 .7c-1.4 .2 -2.8 .4 -4.3 .6c-1.4 .1 -2.9 .3 -4.3 .4c-1.5 .1 -3 .2 -4.5 .2c-1.5 .1 -3 .1 -4.5 .1c-1.5 0 -3 0 -4.5 -.1c-1.5 0 -3 -.1 -4.4 -.2c-1.5 -.1 -3 -.3 -4.4 -.4c-1.4 -.2 -2.8 -.4 -4.2 -.6c-1.4 -.2 -2.8 -.5 -4.1 -.7c-1.3 -.3 -2.6 -.6 -3.8 -.9c-1.3 -.3 -2.5 -.6 -3.7 -1c-1.1 -.4 -2.2 -.7 -3.3 -1.1c-1.1 -.4 -2.1 -.8 -3 -1.3c-1 -.4 -1.9 -.9 -2.7 -1.3c-.8 -.5 -1.6 -1 -2.3 -1.5c-.7 -.5 -1.4 -1 -1.9 -1.5c-.6 -.5 -1.1 -1.1 -1.5 -1.6c-.5 -.5 -.8 -1.1 -1.1 -1.6c-.3 -.6 -.5 -1.1 -.7 -1.7c-.1 -.6 -.2 -1.1 -.2 -1.7c0 -.5 .1 -1.1 .2 -1.7c.2 -.5 .4 -1.1 .7 -1.6c.3 -.6 .6 -1.1 1.1 -1.7c.4 -.5 .9 -1 1.5 -1.6c.5 -.5 1.2 -1 1.9 -1.5c.7 -.5 1.5 -1 2.3 -1.4c.8 -.5 1.7 -1 2.7 -1.4c.9 -.4 1.9 -.8 3 -1.2c1.1 -.4 2.2 -.8 3.3 -1.2c1.2 -.3 2.4 -.7 3.7 -1c1.2 -.3 2.5 -.6 3.8 -.8c1.3 -.3 2.7 -.6 4.1 -.8c1.4 -.2 2.8 -.4 4.2 -.5c1.4 -.2 2.9 -.3 4.4 -.4c1.4 -.2 2.9 -.2 4.4 -.3c1.5 0 3 -.1 4.5 -.1c1.5 0 3 .1 4.5 .1c1.5 .1 3 .1 4.5 .3c1.4 .1 2.9 .2 4.3 .4c1.5 .1 2.9 .3 4.3 .5c1.3 .2 2.7 .5 4 .8c1.3 .2 2.6 .5 3.9 .8c1.2 .3 2.4 .7 3.6 1c1.2 .4 2.3 .8 3.3 1.2c1.1 .4 2.1 .8 3 1.2c1 .4 1.9 .9 2.7 1.4c.9 .4 1.6 .9 2.3 1.4c.7 .5 1.4 1 2 1.5c.5 .6 1 1.1 1.5 1.6c.4 .6 .8 1.1 1.1 1.7c.3 .5 .5 1.1 .6 1.6c.2 .6 .2 1.2 .2 1.7ZM459.6 423.1V411.7c0 -7.7 -3.8 -11.5 -11.4 -11.5H287.7c-7.6 0 -11.4 2.6 -11.4 7.8v7.8" class="g1_244"/>
<path d="M276.3 421.8l-2.7 -8l2.7 2l2.7 -2l-2.7 8Z" class="g2_244"/>
<path d="M276.3 421.8l-2.7 -8l2.7 2l2.7 -2l-2.7 8Zm0 35.7V469c0 7.6 3.8 11.4 11.4 11.4H448.2c7.6 0 11.4 -2.6 11.4 -7.8v-7.8" class="g1_244"/>
<path d="M459.6 458.8l2.7 8l-2.7 -2l-2.7 2l2.7 -8Z" class="g2_244"/>
<path d="M459.6 458.8l2.7 8l-2.7 -2l-2.7 2l2.7 -8Z" class="g1_244"/>
</g>
</svg>