<?xml version="1.0" encoding="UTF-8" standalone="no"?>
<!DOCTYPE svg PUBLIC "-//W3C//DTD SVG 1.1//EN"
"http://www.w3.org/Graphics/SVG/1.1/DTD/svg11.dtd">
<svg viewBox="0 0 714 1017" version="1.1" xmlns="http://www.w3.org/2000/svg" xmlns:xlink="http://www.w3.org/1999/xlink">
<defs>
<clipPath id="c0_34"><path d="M229.9 178V97H506v81Z"/></clipPath>
<clipPath id="c1_34"><path d="M184 322.3v-81H551.9v81Z"/></clipPath>
<clipPath id="c2_34"><path d="M229.9 178V95.5H506.4V178Z"/></clipPath>
<clipPath id="c3_34"><path d="M184 322.3V239.8H552.2v82.5Z"/></clipPath>
<style type="text/css"><![CDATA[
.g0_34{
fill: #FFF;
}
.g1_34{
fill: none;
stroke: #000;
stroke-width: 1.145;
stroke-miterlimit: 10;
}
.g2_34{
fill: #000;
}
.g3_34{
fill: none;
stroke: #000;
stroke-width: 1.217;
stroke-miterlimit: 10;
}
.g4_34{
fill: none;
stroke: #000;
stroke-width: 1.156;
stroke-miterlimit: 10;
}
.g5_34{
fill: none;
stroke: #000;
stroke-width: 0.76;
stroke-miterlimit: 10;
}
]]></style>
</defs>
<path d="M0 1017.7H717.2V-3.7H0V1017.7Z" class="g0_34"/>
<g clip-path="url(#c2_34)">
<path clip-path="url(#c0_34)" d="M229.9 97H506v81.4H229.9V97Z" class="g0_34"/>
<path d="M230.4 97.6h91.7v80.2H230.4V97.6Z" class="g0_34"/>
<path clip-path="url(#c0_34)" d="M230.4 97.6h91.7v80.2H230.4V97.6Z" class="g1_34"/>
<path d="M231.6 97.6h90.5v22.9H231.6V97.6Z" class="g2_34"/>
<path d="M231.6 97.6h90.5v22.9H231.6V97.6Zm-1.2 22.9h91.7v22.9H230.4V120.5Z" class="g1_34"/>
<path d="M413.8 97.6h91.6v80.2H413.8V97.6Z" class="g0_34"/>
<path clip-path="url(#c0_34)" d="M413.8 97.6h91.6v80.2H413.8V97.6Z" class="g1_34"/>
<path d="M414.9 97.6h90.5v22.9H414.9V97.6Z" class="g2_34"/>
<path d="M414.9 97.6h90.5v22.9H414.9V97.6Zm-1.1 22.9h91.6v22.9H413.8V120.5Zm0 22.9H322.1m91.7 -6.9L400 143.4l13.8 6.9m-91.7 0l13.8 -6.9l-13.8 -6.9" class="g1_34"/>
</g>
<g clip-path="url(#c3_34)">
<path clip-path="url(#c1_34)" d="M184 241.3H551.9v81.4H184V241.3Z" class="g0_34"/>
<path d="M334.1 241.9h67.7c.7 0 1.5 .1 2.3 .2c.8 .2 1.5 .4 2.3 .7c.7 .3 1.4 .7 2 1.1c.7 .5 1.3 .9 1.9 1.5c.5 .6 1 1.2 1.5 1.8c.4 .7 .8 1.4 1.1 2.1c.3 .7 .5 1.5 .7 2.3c.1 .7 .2 1.5 .2 2.3v56.2c0 .8 -.1 1.5 -.2 2.3c-.2 .8 -.4 1.5 -.7 2.3c-.3 .7 -.7 1.4 -1.1 2c-.5 .7 -1 1.3 -1.5 1.9c-.6 .5 -1.2 1 -1.9 1.5c-.6 .4 -1.3 .8 -2 1.1c-.8 .3 -1.5 .5 -2.3 .7c-.8 .1 -1.6 .2 -2.3 .2H334.1c-.7 0 -1.5 -.1 -2.3 -.2c-.8 -.2 -1.5 -.4 -2.3 -.7c-.7 -.3 -1.4 -.7 -2 -1.1c-.7 -.5 -1.3 -1 -1.9 -1.5c-.5 -.6 -1 -1.2 -1.5 -1.9c-.4 -.6 -.8 -1.3 -1.1 -2c-.3 -.8 -.5 -1.5 -.7 -2.3c-.1 -.8 -.2 -1.5 -.2 -2.3V253.9c0 -.8 .1 -1.6 .2 -2.3c.2 -.8 .4 -1.6 .7 -2.3c.3 -.7 .7 -1.4 1.1 -2.1c.5 -.6 1 -1.2 1.5 -1.8c.6 -.6 1.2 -1 1.9 -1.5c.6 -.4 1.3 -.8 2 -1.1c.8 -.3 1.5 -.5 2.3 -.7c.8 -.1 1.6 -.2 2.3 -.2Z" class="g0_34"/>
<path clip-path="url(#c1_34)" d="M334.1 241.9h67.7c.7 0 1.5 .1 2.3 .2c.8 .2 1.5 .4 2.3 .7c.7 .3 1.4 .7 2 1.1c.7 .5 1.3 .9 1.9 1.5c.5 .6 1 1.2 1.5 1.8c.4 .7 .8 1.4 1.1 2.1c.3 .7 .5 1.5 .7 2.3c.1 .7 .2 1.5 .2 2.3v56.2c0 .8 -.1 1.5 -.2 2.3c-.2 .8 -.4 1.5 -.7 2.3c-.3 .7 -.7 1.4 -1.1 2c-.5 .7 -1 1.3 -1.5 1.9c-.6 .5 -1.2 1 -1.9 1.5c-.6 .4 -1.3 .8 -2 1.1c-.8 .3 -1.5 .5 -2.3 .7c-.8 .1 -1.6 .2 -2.3 .2H334.1c-.7 0 -1.5 -.1 -2.3 -.2c-.8 -.2 -1.5 -.4 -2.3 -.7c-.7 -.3 -1.4 -.7 -2 -1.1c-.7 -.5 -1.3 -1 -1.9 -1.5c-.5 -.6 -1 -1.2 -1.5 -1.9c-.4 -.6 -.8 -1.3 -1.1 -2c-.3 -.8 -.5 -1.5 -.7 -2.3c-.1 -.8 -.2 -1.5 -.2 -2.3V253.9c0 -.8 .1 -1.6 .2 -2.3c.2 -.8 .4 -1.6 .7 -2.3c.3 -.7 .7 -1.4 1.1 -2.1c.5 -.6 1 -1.2 1.5 -1.8c.6 -.6 1.2 -1 1.9 -1.5c.6 -.4 1.3 -.8 2 -1.1c.8 -.3 1.5 -.5 2.3 -.7c.8 -.1 1.6 -.2 2.3 -.2Z" class="g1_34"/>
<path d="M322.2 253.3h91.6v11.5H322.2V253.3Z" class="g2_34"/>
<path d="M322.2 253.3h91.6v11.5H322.2V253.3Z" class="g1_34"/>
<path d="M184.6 241.9h91.7v80.2H184.6V241.9Z" class="g0_34"/>
<path clip-path="url(#c1_34)" d="M184.6 241.9h91.7v80.2H184.6V241.9ZM276.3 282h45.8m-13.7 6.9V275.1m13.7 0L308.4 282l13.7 6.9" class="g1_34"/>
<path d="M185.8 241.9h90.5v22.9H185.8V241.9Z" class="g2_34"/>
<path d="M185.8 241.9h90.5v22.9H185.8V241.9Z" class="g1_34"/>
<path d="M330.2 241.9h75.5c.6 0 1.1 0 1.6 .1c.5 .1 1 .3 1.5 .5c.5 .2 1 .4 1.4 .7c.4 .3 .8 .7 1.2 1c.4 .4 .7 .8 1 1.2c.3 .5 .5 .9 .7 1.4c.3 .5 .4 1 .5 1.5c.1 .6 .2 1.1 .2 1.6v6.9c0 .5 -.1 1 -.2 1.5c-.1 .6 -.2 1.1 -.5 1.5c-.2 .5 -.4 1 -.7 1.4c-.3 .5 -.6 .9 -1 1.3c-.4 .3 -.8 .7 -1.2 .9c-.4 .3 -.9 .6 -1.4 .8c-.5 .2 -1 .3 -1.5 .4c-.5 .1 -1 .2 -1.6 .2H330.2c-.5 0 -1 -.1 -1.6 -.2c-.5 -.1 -1 -.2 -1.5 -.4c-.4 -.2 -.9 -.5 -1.3 -.8c-.5 -.2 -.9 -.6 -1.3 -.9c-.3 -.4 -.7 -.8 -1 -1.3c-.3 -.4 -.5 -.9 -.7 -1.4c-.2 -.4 -.4 -.9 -.5 -1.5c-.1 -.5 -.1 -1 -.1 -1.5v-6.9c0 -.5 0 -1 .1 -1.6c.1 -.5 .3 -1 .5 -1.5c.2 -.5 .4 -.9 .7 -1.4c.3 -.4 .7 -.8 1 -1.2c.4 -.3 .8 -.7 1.3 -1c.4 -.3 .9 -.5 1.3 -.7c.5 -.2 1 -.4 1.5 -.5c.6 -.1 1.1 -.1 1.6 -.1Z" class="g2_34"/>
<path d="M330.2 241.9h75.5c.6 0 1.1 0 1.6 .1c.5 .1 1 .3 1.5 .5c.5 .2 1 .4 1.4 .7c.4 .3 .8 .7 1.2 1c.4 .4 .7 .8 1 1.2c.3 .5 .5 .9 .7 1.4c.3 .5 .4 1 .5 1.5c.1 .6 .2 1.1 .2 1.6v6.9c0 .5 -.1 1 -.2 1.5c-.1 .6 -.2 1.1 -.5 1.5c-.2 .5 -.4 1 -.7 1.4c-.3 .5 -.6 .9 -1 1.3c-.4 .3 -.8 .7 -1.2 .9c-.4 .3 -.9 .6 -1.4 .8c-.5 .2 -1 .3 -1.5 .4c-.5 .1 -1 .2 -1.6 .2H330.2c-.5 0 -1 -.1 -1.6 -.2c-.5 -.1 -1 -.2 -1.5 -.4c-.4 -.2 -.9 -.5 -1.3 -.8c-.5 -.2 -.9 -.6 -1.3 -.9c-.3 -.4 -.7 -.8 -1 -1.3c-.3 -.4 -.5 -.9 -.7 -1.4c-.2 -.4 -.4 -.9 -.5 -1.5c-.1 -.5 -.1 -1 -.1 -1.5v-6.9c0 -.5 0 -1 .1 -1.6c.1 -.5 .3 -1 .5 -1.5c.2 -.5 .4 -.9 .7 -1.4c.3 -.4 .7 -.8 1 -1.2c.4 -.3 .8 -.7 1.3 -1c.4 -.3 .9 -.5 1.3 -.7c.5 -.2 1 -.4 1.5 -.5c.6 -.1 1.1 -.1 1.6 -.1ZM184.6 264.8h91.7v22.9H184.6V264.8Zm137.5 0h91.7v34.4H322.1V264.8Z" class="g1_34"/>
<path d="M459.6 241.9h91.7v80.2H459.6V241.9Z" class="g0_34"/>
<path clip-path="url(#c1_34)" d="M459.6 241.9h91.7v80.2H459.6V241.9Z" class="g1_34"/>
<path d="M460.8 241.9h90.5v22.9H460.8V241.9Z" class="g2_34"/>
<path d="M460.8 241.9h90.5v22.9H460.8V241.9Zm-1.2 22.9h91.7v22.9H459.6V264.8Zm0 17.2H413.8m13.7 -6.9v13.8m-13.7 0L427.5 282l-13.7 -6.9" class="g1_34"/>
</g>
<path d="M104.9 625.6H632.6" class="g3_34"/>
<path d="M104.9 652.6H632.6" class="g4_34"/>
<path d="M104.9 771.6H632.6" class="g5_34"/>
<path d="M104.9 890.6H632.6" class="g3_34"/>
</svg>