<?xml version="1.0" encoding="UTF-8" standalone="no"?>
<!DOCTYPE svg PUBLIC "-//W3C//DTD SVG 1.1//EN"
"http://www.w3.org/Graphics/SVG/1.1/DTD/svg11.dtd">
<svg viewBox="0 0 714 1017" version="1.1" xmlns="http://www.w3.org/2000/svg" xmlns:xlink="http://www.w3.org/1999/xlink">
<defs>
<clipPath id="c0_37"><path d="M224.9 511.5V363.7H467.8V511.5Z"/></clipPath>
<clipPath id="c1_37"><path d="M224.9 511.8V363.7H469.4V511.8Z"/></clipPath>
<style type="text/css"><![CDATA[
.g0_37{
fill: #FFF;
}
.g1_37{
fill: none;
stroke: #000;
stroke-width: 1.145;
stroke-miterlimit: 10;
}
.g2_37{
fill: #000;
}
.g3_37{
fill: none;
stroke: #000;
stroke-width: 1.217;
stroke-miterlimit: 10;
}
.g4_37{
fill: none;
stroke: #000;
stroke-width: 1.156;
stroke-miterlimit: 10;
}
.g5_37{
fill: none;
stroke: #000;
stroke-width: 0.76;
stroke-miterlimit: 10;
}
]]></style>
</defs>
<path d="M0 1017.7H717.2V-3.7H0V1017.7Z" class="g0_37"/>
<g clip-path="url(#c1_37)">
<path d="M224.9 363.7H467.8V511.5H224.9V363.7Z" class="g0_37"/>
<path clip-path="url(#c0_37)" d="M225.4 396.7H340v82.1H225.4V396.7Zm13.3 43.2h90.5v22.9H238.7V439.9ZM375 364.3h90.5v22.9H375V364.3ZM375 488h90.5v23H375V488Zm.6 -41.2h90.5v22.9H375.6V446.8Zm-64.3 32v10.3c0 6.9 3.8 10.4 11.5 10.4h44.9" class="g1_37"/>
<path d="M373.7 499.5l-8 2.7l2 -2.7l-2 -2.7l8 2.7Z" class="g2_37"/>
<path d="M373.7 499.5l-8 2.7l2 -2.7l-2 -2.7l8 2.7Zm1.3 -94h90.5v23H375v-23Zm-35 11.7l27.7 -.2" class="g1_37"/>
<path d="M373.7 417l-8 2.7l2 -2.7l-2 -2.6l8 2.6Z" class="g2_37"/>
<path d="M373.7 417l-8 2.7l2 -2.7l-2 -2.6l8 2.6Zm46.5 11.5l.3 11" class="g1_37"/>
<path d="M420.6 445.5l-2.8 -8l2.7 2l2.6 -2.1l-2.5 8.1Z" class="g2_37"/>
<path d="M420.6 445.5l-2.8 -8l2.7 2l2.6 -2.1l-2.5 8.1ZM311.3 396.7V386.2c0 -7 3.8 -10.5 11.5 -10.5h44.9" class="g1_37"/>
<path d="M373.7 375.7l-8 2.7l2 -2.7l-2 -2.6l8 2.6Z" class="g2_37"/>
<path d="M373.7 375.7l-8 2.7l2 -2.7l-2 -2.6l8 2.6ZM340 458.3h28.3" class="g1_37"/>
<path d="M374.3 458.3l-8 2.6l2 -2.6l-2 -2.7l8 2.7Z" class="g2_37"/>
<path d="M374.3 458.3l-8 2.6l2 -2.6l-2 -2.7l8 2.7Z" class="g1_37"/>
</g>
<path d="M83.2 707.6h401" class="g3_37"/>
<path d="M83.2 751.9h401" class="g4_37"/>
<path d="M83.2 778.7h401m-401 26.5h401m-401 26.5h401" class="g5_37"/>
<path d="M83.2 858.5h401" class="g3_37"/>
</svg>