<?xml version="1.0" encoding="UTF-8" standalone="no"?>
<!DOCTYPE svg PUBLIC "-//W3C//DTD SVG 1.1//EN"
"http://www.w3.org/Graphics/SVG/1.1/DTD/svg11.dtd">
<svg viewBox="0 0 714 1017" version="1.1" xmlns="http://www.w3.org/2000/svg" xmlns:xlink="http://www.w3.org/1999/xlink">
<defs>
<clipPath id="c0_143"><path d="M122.6 883.6V727.8h448V883.6Z"/></clipPath>
<clipPath id="c1_143"><path d="M122.6 883.6V727.8H571.8V883.6Z"/></clipPath>
<style type="text/css"><![CDATA[
.g0_143{
fill: #FFF;
}
.g1_143{
fill: none;
stroke: #000;
stroke-width: 1.145;
stroke-miterlimit: 10;
}
.g2_143{
fill: #000;
}
]]></style>
</defs>
<path d="M0 1017.7H717.2V-3.7H0V1017.7Z" class="g0_143"/>
<g clip-path="url(#c1_143)">
<path clip-path="url(#c0_143)" d="M122.6 727.8h448V883.6h-448V727.8Z" class="g0_143"/>
<path d="M123.2 759.3h68.7v45.8H123.2V759.3Z" class="g0_143"/>
<path d="M123.2 759.3h68.7v45.8H123.2V759.3Z" class="g1_143"/>
<path d="M386.7 759.3v45.8H345.5c5.5 -7.6 5.5 -15.2 0 -22.9c-5.5 -7.6 -5.5 -15.3 0 -22.9h41.2Z" class="g0_143"/>
<path d="M386.7 759.3v45.8H345.5c5.5 -7.6 5.5 -15.2 0 -22.9c-5.5 -7.6 -5.5 -15.3 0 -22.9h41.2Z" class="g1_143"/>
<path d="M283.6 805.1V759.3h41.2c-5.5 7.6 -5.5 15.3 0 22.9c5.5 7.7 5.5 15.3 0 22.9H283.6Z" class="g0_143"/>
<path d="M283.6 805.1V759.3h41.2c-5.5 7.6 -5.5 15.3 0 22.9c5.5 7.7 5.5 15.3 0 22.9H283.6Z" class="g1_143"/>
<path d="M432.6 759.3H570.1v45.8H432.6V759.3Z" class="g0_143"/>
<path d="M432.6 759.3H570.1v45.8H432.6V759.3Z" class="g1_143"/>
<path d="M180.5 770.8c0 .7 -.2 1.5 -.5 2.2c-.3 .7 -.7 1.3 -1.2 1.8c-.5 .6 -1.2 1 -1.9 1.3c-.7 .3 -1.4 .4 -2.2 .4c-.7 0 -1.4 -.1 -2.1 -.4c-.8 -.3 -1.4 -.7 -1.9 -1.3c-.5 -.5 -1 -1.1 -1.3 -1.8c-.2 -.7 -.4 -1.5 -.4 -2.2c0 -.8 .2 -1.5 .4 -2.2c.3 -.7 .8 -1.3 1.3 -1.9c.5 -.5 1.1 -.9 1.9 -1.2c.7 -.3 1.4 -.5 2.1 -.5c.8 0 1.5 .2 2.2 .5c.7 .3 1.4 .7 1.9 1.2c.5 .6 .9 1.2 1.2 1.9c.3 .7 .5 1.4 .5 2.2Z" class="g2_143"/>
<path d="M180.5 770.8c0 .7 -.2 1.5 -.5 2.2c-.3 .7 -.7 1.3 -1.2 1.8c-.5 .6 -1.2 1 -1.9 1.3c-.7 .3 -1.4 .4 -2.2 .4c-.7 0 -1.4 -.1 -2.1 -.4c-.8 -.3 -1.4 -.7 -1.9 -1.3c-.5 -.5 -1 -1.1 -1.3 -1.8c-.2 -.7 -.4 -1.5 -.4 -2.2c0 -.8 .2 -1.5 .4 -2.2c.3 -.7 .8 -1.3 1.3 -1.9c.5 -.5 1.1 -.9 1.9 -1.2c.7 -.3 1.4 -.5 2.1 -.5c.8 0 1.5 .2 2.2 .5c.7 .3 1.4 .7 1.9 1.2c.5 .6 .9 1.2 1.2 1.9c.3 .7 .5 1.4 .5 2.2ZM174.7 765V747.9c0 -7.7 3.9 -11.5 11.5 -11.5H421.1c7.6 0 11.5 2.6 11.5 7.8V752" class="g1_143"/>
<path d="M432.6 758l-2.7 -8l2.7 2l2.6 -2l-2.6 8Z" class="g2_143"/>
<path d="M432.6 758l-2.7 -8l2.7 2l2.6 -2l-2.6 8Z" class="g1_143"/>
<path d="M191.9 759.3h45.9v45.8H191.9V759.3Z" class="g0_143"/>
<path d="M191.9 759.3h45.9v45.8H191.9V759.3Z" class="g1_143"/>
<path d="M237.8 759.3h45.8v45.8H237.8V759.3Z" class="g0_143"/>
<path d="M237.8 759.3h45.8v45.8H237.8V759.3Z" class="g1_143"/>
<path d="M386.7 759.3h45.9v45.8H386.7V759.3Z" class="g0_143"/>
<path d="M386.7 759.3h45.9v45.8H386.7V759.3Z" class="g1_143"/>
<path d="M455.5 793.7c0 .7 -.2 1.5 -.5 2.2c-.3 .7 -.7 1.3 -1.2 1.8c-.5 .6 -1.2 1 -1.9 1.3c-.7 .3 -1.4 .4 -2.2 .4c-.7 0 -1.4 -.1 -2.1 -.4c-.8 -.3 -1.4 -.7 -1.9 -1.3c-.5 -.5 -1 -1.1 -1.3 -1.8c-.2 -.7 -.4 -1.5 -.4 -2.2c0 -.8 .2 -1.5 .4 -2.2c.3 -.7 .8 -1.3 1.3 -1.9c.5 -.5 1.1 -.9 1.9 -1.2c.7 -.3 1.4 -.4 2.1 -.4c.8 0 1.5 .1 2.2 .4c.7 .3 1.4 .7 1.9 1.2c.5 .6 .9 1.2 1.2 1.9c.3 .7 .5 1.4 .5 2.2Z" class="g2_143"/>
<path d="M455.5 793.7c0 .7 -.2 1.5 -.5 2.2c-.3 .7 -.7 1.3 -1.2 1.8c-.5 .6 -1.2 1 -1.9 1.3c-.7 .3 -1.4 .4 -2.2 .4c-.7 0 -1.4 -.1 -2.1 -.4c-.8 -.3 -1.4 -.7 -1.9 -1.3c-.5 -.5 -1 -1.1 -1.3 -1.8c-.2 -.7 -.4 -1.5 -.4 -2.2c0 -.8 .2 -1.5 .4 -2.2c.3 -.7 .8 -1.3 1.3 -1.9c.5 -.5 1.1 -.9 1.9 -1.2c.7 -.3 1.4 -.4 2.1 -.4c.8 0 1.5 .1 2.2 .4c.7 .3 1.4 .7 1.9 1.2c.5 .6 .9 1.2 1.2 1.9c.3 .7 .5 1.4 .5 2.2Z" class="g1_143"/>
<path d="M478.4 793.7c0 .7 -.2 1.5 -.4 2.2c-.3 .7 -.8 1.3 -1.3 1.8c-.5 .6 -1.1 1 -1.8 1.3c-.8 .3 -1.5 .4 -2.2 .4c-.8 0 -1.5 -.1 -2.2 -.4c-.7 -.3 -1.4 -.7 -1.9 -1.3c-.5 -.5 -.9 -1.1 -1.2 -1.8c-.3 -.7 -.5 -1.5 -.5 -2.2c0 -.8 .2 -1.5 .5 -2.2c.3 -.7 .7 -1.3 1.2 -1.9c.5 -.5 1.2 -.9 1.9 -1.2c.7 -.3 1.4 -.4 2.2 -.4c.7 0 1.4 .1 2.2 .4c.7 .3 1.3 .7 1.8 1.2c.5 .6 1 1.2 1.3 1.9c.2 .7 .4 1.4 .4 2.2Z" class="g2_143"/>
<path d="M478.4 793.7c0 .7 -.2 1.5 -.4 2.2c-.3 .7 -.8 1.3 -1.3 1.8c-.5 .6 -1.1 1 -1.8 1.3c-.8 .3 -1.5 .4 -2.2 .4c-.8 0 -1.5 -.1 -2.2 -.4c-.7 -.3 -1.4 -.7 -1.9 -1.3c-.5 -.5 -.9 -1.1 -1.2 -1.8c-.3 -.7 -.5 -1.5 -.5 -2.2c0 -.8 .2 -1.5 .5 -2.2c.3 -.7 .7 -1.3 1.2 -1.9c.5 -.5 1.2 -.9 1.9 -1.2c.7 -.3 1.4 -.4 2.2 -.4c.7 0 1.4 .1 2.2 .4c.7 .3 1.3 .7 1.8 1.2c.5 .6 1 1.2 1.3 1.9c.2 .7 .4 1.4 .4 2.2Z" class="g1_143"/>
<path d="M501.3 793.7c0 .7 -.1 1.5 -.4 2.2c-.3 .7 -.7 1.3 -1.3 1.8c-.5 .6 -1.1 1 -1.8 1.3c-.7 .3 -1.5 .4 -2.2 .4c-.8 0 -1.5 -.1 -2.2 -.4c-.7 -.3 -1.3 -.7 -1.9 -1.3c-.5 -.5 -.9 -1.1 -1.2 -1.8c-.3 -.7 -.5 -1.5 -.5 -2.2c0 -.8 .2 -1.5 .5 -2.2c.3 -.7 .7 -1.3 1.2 -1.9c.6 -.5 1.2 -.9 1.9 -1.2c.7 -.3 1.4 -.4 2.2 -.4c.7 0 1.5 .1 2.2 .4c.7 .3 1.3 .7 1.8 1.2c.6 .6 1 1.2 1.3 1.9c.3 .7 .4 1.4 .4 2.2Z" class="g2_143"/>
<path d="M501.3 793.7c0 .7 -.1 1.5 -.4 2.2c-.3 .7 -.7 1.3 -1.3 1.8c-.5 .6 -1.1 1 -1.8 1.3c-.7 .3 -1.5 .4 -2.2 .4c-.8 0 -1.5 -.1 -2.2 -.4c-.7 -.3 -1.3 -.7 -1.9 -1.3c-.5 -.5 -.9 -1.1 -1.2 -1.8c-.3 -.7 -.5 -1.5 -.5 -2.2c0 -.8 .2 -1.5 .5 -2.2c.3 -.7 .7 -1.3 1.2 -1.9c.6 -.5 1.2 -.9 1.9 -1.2c.7 -.3 1.4 -.4 2.2 -.4c.7 0 1.5 .1 2.2 .4c.7 .3 1.3 .7 1.8 1.2c.6 .6 1 1.2 1.3 1.9c.3 .7 .4 1.4 .4 2.2Z" class="g1_143"/>
<path d="M524.2 793.7c0 .7 -.1 1.5 -.4 2.2c-.3 .7 -.7 1.3 -1.3 1.8c-.5 .6 -1.1 1 -1.8 1.3c-.7 .3 -1.4 .4 -2.2 .4c-.8 0 -1.5 -.1 -2.2 -.4c-.7 -.3 -1.3 -.7 -1.9 -1.3c-.5 -.5 -.9 -1.1 -1.2 -1.8c-.3 -.7 -.4 -1.5 -.4 -2.2c0 -.8 .1 -1.5 .4 -2.2c.3 -.7 .7 -1.3 1.2 -1.9c.6 -.5 1.2 -.9 1.9 -1.2c.7 -.3 1.4 -.4 2.2 -.4c.8 0 1.5 .1 2.2 .4c.7 .3 1.3 .7 1.8 1.2c.6 .6 1 1.2 1.3 1.9c.3 .7 .4 1.4 .4 2.2Z" class="g2_143"/>
<path d="M524.2 793.7c0 .7 -.1 1.5 -.4 2.2c-.3 .7 -.7 1.3 -1.3 1.8c-.5 .6 -1.1 1 -1.8 1.3c-.7 .3 -1.4 .4 -2.2 .4c-.8 0 -1.5 -.1 -2.2 -.4c-.7 -.3 -1.3 -.7 -1.9 -1.3c-.5 -.5 -.9 -1.1 -1.2 -1.8c-.3 -.7 -.4 -1.5 -.4 -2.2c0 -.8 .1 -1.5 .4 -2.2c.3 -.7 .7 -1.3 1.2 -1.9c.6 -.5 1.2 -.9 1.9 -1.2c.7 -.3 1.4 -.4 2.2 -.4c.8 0 1.5 .1 2.2 .4c.7 .3 1.3 .7 1.8 1.2c.6 .6 1 1.2 1.3 1.9c.3 .7 .4 1.4 .4 2.2Z" class="g1_143"/>
<path d="M547.1 793.7c0 .7 -.1 1.5 -.4 2.2c-.3 .7 -.7 1.3 -1.2 1.8c-.6 .6 -1.2 1 -1.9 1.3c-.7 .3 -1.4 .4 -2.2 .4c-.8 0 -1.5 -.1 -2.2 -.4c-.7 -.3 -1.3 -.7 -1.8 -1.3c-.6 -.5 -1 -1.1 -1.3 -1.8c-.3 -.7 -.4 -1.5 -.4 -2.2c0 -.8 .1 -1.5 .4 -2.2c.3 -.7 .7 -1.3 1.3 -1.9c.5 -.5 1.1 -.9 1.8 -1.2c.7 -.3 1.4 -.4 2.2 -.4c.8 0 1.5 .1 2.2 .4c.7 .3 1.3 .7 1.9 1.2c.5 .6 .9 1.2 1.2 1.9c.3 .7 .4 1.4 .4 2.2Z" class="g2_143"/>
<path d="M547.1 793.7c0 .7 -.1 1.5 -.4 2.2c-.3 .7 -.7 1.3 -1.2 1.8c-.6 .6 -1.2 1 -1.9 1.3c-.7 .3 -1.4 .4 -2.2 .4c-.8 0 -1.5 -.1 -2.2 -.4c-.7 -.3 -1.3 -.7 -1.8 -1.3c-.6 -.5 -1 -1.1 -1.3 -1.8c-.3 -.7 -.4 -1.5 -.4 -2.2c0 -.8 .1 -1.5 .4 -2.2c.3 -.7 .7 -1.3 1.3 -1.9c.5 -.5 1.1 -.9 1.8 -1.2c.7 -.3 1.4 -.4 2.2 -.4c.8 0 1.5 .1 2.2 .4c.7 .3 1.3 .7 1.9 1.2c.5 .6 .9 1.2 1.2 1.9c.3 .7 .4 1.4 .4 2.2Zm-97.4 5.7v63c0 7.7 -3.8 11.5 -11.4 11.5H203.4c-7.7 0 -11.5 -3.8 -11.5 -11.5v-50" class="g1_143"/>
<path d="M191.9 806.4l2.7 8l-2.7 -2l-2.6 2l2.6 -8Z" class="g2_143"/>
<path d="M191.9 806.4l2.7 8l-2.7 -2l-2.6 2l2.6 -8Zm280.8 -7V851c0 7.6 -3.3 11.4 -9.8 11.4h-9.7m-6.9 0H249.2c-7.6 0 -11.4 -3.8 -11.4 -11.4V812.4" class="g1_143"/>
<path d="M237.8 806.4l2.6 8l-2.6 -2l-2.7 2l2.7 -8Z" class="g2_143"/>
<path d="M237.8 806.4l2.6 8l-2.6 -2l-2.7 2l2.7 -8Zm257.8 -7v40.1c0 7.7 -3.3 11.5 -9.8 11.5h-9.7m-6.9 0h-16m-6.9 0H295.1c-7.7 0 -11.5 -3.8 -11.5 -11.5V812.4" class="g1_143"/>
<path d="M283.6 806.4l2.7 8l-2.7 -2l-2.7 2l2.7 -8Z" class="g2_143"/>
<path d="M283.6 806.4l2.7 8l-2.7 -2l-2.7 2l2.7 -8Zm234.9 -7v28.7c0 7.6 -3.3 11.4 -9.7 11.4H499m-6.9 0h-16m-6.9 0h-16m-6.9 0H398.2c-7.7 0 -11.5 -3.8 -11.5 -11.4V812.4" class="g1_143"/>
<path d="M386.7 806.4l2.7 8l-2.7 -2l-2.6 2l2.6 -8Z" class="g2_143"/>
<path d="M386.7 806.4l2.7 8l-2.7 -2l-2.6 2l2.6 -8Zm154.7 -7v17.2c0 7.6 -3.2 11.5 -9.7 11.5h-9.8m-6.8 0H499m-6.9 0h-16m-6.9 0h-16m-6.9 0h-6.9c-4.6 0 -6.8 -2.6 -6.8 -7.9v-7.8" class="g1_143"/>
<path d="M432.6 806.4l2.6 8l-2.6 -2l-2.7 2l2.7 -8Z" class="g2_143"/>
<path d="M432.6 806.4l2.6 8l-2.6 -2l-2.7 2l2.7 -8Z" class="g1_143"/>
</g>
</svg>