<?xml version="1.0" encoding="UTF-8" standalone="no"?>
<!DOCTYPE svg PUBLIC "-//W3C//DTD SVG 1.1//EN"
"http://www.w3.org/Graphics/SVG/1.1/DTD/svg11.dtd">
<svg viewBox="0 0 714 1017" version="1.1" xmlns="http://www.w3.org/2000/svg" xmlns:xlink="http://www.w3.org/1999/xlink">
<defs>
<clipPath id="c0_330"><path d="M166.4 544.9V280.5H569.8V544.9Z"/></clipPath>
<clipPath id="c1_330"><path d="M166.4 544.9V279H569.8V544.9Z"/></clipPath>
<style type="text/css"><![CDATA[
.g0_330{
fill: #FFF;
}
.g1_330{
fill: none;
stroke: #000;
stroke-width: 1.145;
stroke-miterlimit: 10;
}
.g2_330{
fill: #000;
}
]]></style>
</defs>
<path d="M0 1017.7H717.2V-3.7H0V1017.7Z" class="g0_330"/>
<g clip-path="url(#c1_330)">
<g clip-path="url(#c0_330)">
<path d="M166.4 280.5H569.8V545.2H166.4V280.5Z" class="g0_330"/>
<path d="M167.1 326.9h80.2V544.6H167.1V326.9Zm9.1 11.5h61.9c.5 0 .9 0 1.3 .2c.4 .2 .8 .4 1.1 .8c.4 .3 .6 .7 .8 1.1c.2 .4 .2 .8 .2 1.3v16c0 .5 0 .9 -.2 1.4c-.2 .4 -.4 .7 -.8 1.1c-.3 .3 -.7 .5 -1.1 .7c-.4 .2 -.8 .3 -1.3 .3H176.2c-.4 0 -.9 -.1 -1.3 -.3c-.4 -.2 -.8 -.4 -1.1 -.7c-.3 -.4 -.6 -.7 -.7 -1.1c-.2 -.5 -.3 -.9 -.3 -1.4v-16c0 -.5 .1 -.9 .3 -1.3c.1 -.4 .4 -.8 .7 -1.1c.3 -.4 .7 -.6 1.1 -.8c.4 -.2 .9 -.2 1.3 -.2Zm8.6 52.7h44.8c.6 0 1.2 0 1.9 .2c.6 .1 1.2 .3 1.8 .5c.6 .2 1.1 .5 1.6 .9c.6 .3 1 .7 1.5 1.2c.4 .4 .8 .9 1.2 1.4c.3 .6 .6 1.1 .9 1.7c.2 .6 .4 1.2 .5 1.8c.1 .6 .2 1.2 .2 1.9v46.2c0 .6 -.1 1.2 -.2 1.8c-.1 .7 -.3 1.3 -.5 1.8c-.3 .6 -.6 1.2 -.9 1.7c-.4 .5 -.8 1 -1.2 1.5c-.5 .4 -.9 .8 -1.5 1.2c-.5 .3 -1 .6 -1.6 .8c-.6 .3 -1.2 .5 -1.8 .6c-.7 .1 -1.3 .2 -1.9 .2H184.8c-.7 0 -1.3 -.1 -1.9 -.2c-.6 -.1 -1.2 -.3 -1.8 -.6c-.6 -.2 -1.2 -.5 -1.7 -.8c-.5 -.4 -1 -.8 -1.4 -1.2c-.5 -.5 -.9 -1 -1.2 -1.5c-.4 -.5 -.7 -1.1 -.9 -1.7c-.3 -.5 -.5 -1.1 -.6 -1.8c-.1 -.6 -.2 -1.2 -.2 -1.8V400.7c0 -.7 .1 -1.3 .2 -1.9c.1 -.6 .3 -1.2 .6 -1.8c.2 -.6 .5 -1.1 .9 -1.7c.3 -.5 .7 -1 1.2 -1.4c.4 -.5 .9 -.9 1.4 -1.2c.5 -.4 1.1 -.7 1.7 -.9c.6 -.2 1.2 -.4 1.8 -.5c.6 -.2 1.2 -.2 1.9 -.2Zm-5.7 87.7c0 -4.2 12.6 -7.5 28.1 -7.5c7.4 0 14.6 .8 19.8 2.2c5.3 1.4 8.2 3.3 8.2 5.3v35.4c0 2 -2.9 3.9 -8.2 5.3c-5.2 1.4 -12.4 2.2 -19.8 2.2c-7.5 0 -14.6 -.8 -19.9 -2.2c-5.3 -1.4 -8.2 -3.3 -8.2 -5.3V478.8Zm56.1 0c0 2 -2.9 3.9 -8.2 5.3c-5.2 1.4 -12.4 2.2 -19.8 2.2c-7.5 0 -14.6 -.8 -19.9 -2.2c-5.3 -1.4 -8.2 -3.3 -8.2 -5.3m12.3 -12.6c0 -4.6 0 -8.9 -.1 -13" class="g1_330"/>
</g>
<path d="M191.4 470.7l-1.5 -4.5H193l-1.6 4.5Z" class="g2_330"/>
<path d="M191.4 470.7l-1.5 -4.5H193l-1.6 4.5Z" class="g1_330"/>
<path d="M191.2 448.7l1.6 4.5l-3.1 .1l1.5 -4.6Z" class="g2_330"/>
<path d="M191.2 448.7l1.6 4.5l-3.1 .1l1.5 -4.6Zm32.3 17.9c0 -4.8 0 -9.3 -.1 -13.4" class="g1_330"/>
<path d="M223.6 471.1L222 466.6h3.1l-1.5 4.5Z" class="g2_330"/>
<path d="M223.6 471.1L222 466.6h3.1l-1.5 4.5Z" class="g1_330"/>
<path d="M223.2 448.7l1.7 4.5l-3.1 .1l1.4 -4.6Z" class="g2_330"/>
<path clip-path="url(#c0_330)" d="M223.2 448.7l1.7 4.5l-3.1 .1l1.4 -4.6Zm87 -121.8h80.3V544.6H310.2V326.9Zm9.3 11.5h61.8c.5 0 .9 0 1.3 .2c.5 .2 .8 .4 1.2 .8c.3 .3 .5 .7 .7 1.1c.2 .4 .3 .8 .3 1.3v16c0 .5 -.1 .9 -.3 1.4c-.2 .4 -.4 .7 -.7 1.1c-.4 .3 -.7 .5 -1.2 .7c-.4 .2 -.8 .3 -1.3 .3H319.5c-.5 0 -.9 -.1 -1.4 -.3c-.4 -.2 -.8 -.4 -1.1 -.7c-.3 -.4 -.5 -.7 -.7 -1.1c-.2 -.5 -.3 -.9 -.3 -1.4v-16c0 -.5 .1 -.9 .3 -1.3c.2 -.4 .4 -.8 .7 -1.1c.3 -.4 .7 -.6 1.1 -.8c.5 -.2 .9 -.2 1.4 -.2Zm8.5 52.7h44.8c.7 0 1.3 0 1.9 .2c.6 .1 1.2 .3 1.8 .5c.6 .2 1.1 .5 1.7 .9c.5 .3 1 .7 1.4 1.2c.5 .4 .9 .9 1.2 1.4c.4 .6 .7 1.1 .9 1.7c.2 .6 .4 1.2 .5 1.8c.2 .6 .2 1.2 .2 1.9v46.2c0 .6 0 1.2 -.2 1.8c-.1 .7 -.3 1.3 -.5 1.8c-.2 .6 -.5 1.2 -.9 1.7c-.3 .5 -.7 1 -1.2 1.5c-.4 .4 -.9 .8 -1.4 1.2c-.6 .3 -1.1 .6 -1.7 .8c-.6 .3 -1.2 .5 -1.8 .6c-.6 .1 -1.2 .2 -1.9 .2H328c-.6 0 -1.3 -.1 -1.9 -.2c-.6 -.1 -1.2 -.3 -1.8 -.6c-.6 -.2 -1.1 -.5 -1.7 -.8c-.5 -.4 -1 -.8 -1.4 -1.2c-.5 -.5 -.9 -1 -1.2 -1.5c-.4 -.5 -.7 -1.1 -.9 -1.7c-.2 -.5 -.4 -1.1 -.5 -1.8c-.2 -.6 -.2 -1.2 -.2 -1.8V400.7c0 -.7 0 -1.3 .2 -1.9c.1 -.6 .3 -1.2 .5 -1.8c.2 -.6 .5 -1.1 .9 -1.7c.3 -.5 .7 -1 1.2 -1.4c.4 -.5 .9 -.9 1.4 -1.2c.6 -.4 1.1 -.7 1.7 -.9c.6 -.2 1.2 -.4 1.8 -.5c.6 -.2 1.3 -.2 1.9 -.2Zm-5.6 87.7c0 -4.2 12.5 -7.5 28 -7.5c7.4 0 14.5 .8 19.8 2.2c5.2 1.4 8.2 3.3 8.2 5.3v35.4c0 2 -3 3.9 -8.2 5.3c-5.3 1.4 -12.4 2.2 -19.8 2.2c-7.4 0 -14.5 -.8 -19.8 -2.2c-5.2 -1.4 -8.2 -3.3 -8.2 -5.3V478.8Zm56 0c0 2 -3 3.9 -8.2 5.3c-5.3 1.4 -12.4 2.2 -19.8 2.2c-7.4 0 -14.5 -.8 -19.8 -2.2c-5.2 -1.4 -8.2 -3.3 -8.2 -5.3m11.9 -11.9c0 0 0 -4.5 0 -13.7" class="g1_330"/>
<path d="M334.3 471.5l-1.5 -4.6h3l-1.5 4.6Z" class="g2_330"/>
<path d="M334.3 471.5l-1.5 -4.6h3l-1.5 4.6Z" class="g1_330"/>
<path d="M334.4 448.7l1.5 4.5h-3.1l1.6 -4.5Z" class="g2_330"/>
<path d="M334.4 448.7l1.5 4.5h-3.1l1.6 -4.5Zm32 17.1c0 0 0 -4.2 0 -12.6" class="g1_330"/>
<path d="M366.4 470.4l-1.5 -4.6h3l-1.5 4.6Z" class="g2_330"/>
<path d="M366.4 470.4l-1.5 -4.6h3l-1.5 4.6Z" class="g1_330"/>
<path d="M366.4 448.7l1.5 4.5h-3l1.5 -4.5Z" class="g2_330"/>
<path clip-path="url(#c0_330)" d="M366.4 448.7l1.5 4.5h-3l1.5 -4.5Zm87 -121.8h80.2V544.6H453.4V326.9Zm9.2 11.5h61.9c.4 0 .9 0 1.3 .2c.4 .2 .8 .4 1.1 .8c.3 .3 .6 .7 .7 1.1c.2 .4 .3 .8 .3 1.3v16c0 .5 -.1 .9 -.3 1.4c-.1 .4 -.4 .7 -.7 1.1c-.3 .3 -.7 .5 -1.1 .7c-.4 .2 -.9 .3 -1.3 .3H462.6c-.5 0 -.9 -.1 -1.3 -.3c-.4 -.2 -.8 -.4 -1.1 -.7c-.4 -.4 -.6 -.7 -.8 -1.1c-.2 -.5 -.2 -.9 -.2 -1.4v-16c0 -.5 0 -.9 .2 -1.3c.2 -.4 .4 -.8 .8 -1.1c.3 -.4 .7 -.6 1.1 -.8c.4 -.2 .8 -.2 1.3 -.2Zm8.5 52.7H516c.6 0 1.2 0 1.8 .2c.7 .1 1.3 .3 1.8 .5c.6 .2 1.2 .5 1.7 .9c.5 .3 1 .7 1.5 1.2c.4 .4 .8 .9 1.2 1.4c.3 .6 .6 1.1 .8 1.7c.3 .6 .5 1.2 .6 1.8c.1 .6 .2 1.2 .2 1.9v46.2c0 .6 -.1 1.2 -.2 1.8c-.1 .7 -.3 1.3 -.6 1.8c-.2 .6 -.5 1.2 -.8 1.7c-.4 .5 -.8 1 -1.2 1.5c-.5 .4 -1 .8 -1.5 1.2c-.5 .3 -1.1 .6 -1.7 .8c-.5 .3 -1.1 .5 -1.8 .6c-.6 .1 -1.2 .2 -1.8 .2H471.1c-.6 0 -1.2 -.1 -1.9 -.2c-.6 -.1 -1.2 -.3 -1.8 -.6c-.5 -.2 -1.1 -.5 -1.6 -.8c-.5 -.4 -1 -.8 -1.5 -1.2c-.4 -.5 -.8 -1 -1.2 -1.5c-.3 -.5 -.6 -1.1 -.9 -1.7c-.2 -.5 -.4 -1.1 -.5 -1.8c-.1 -.6 -.2 -1.2 -.2 -1.8V400.7c0 -.7 .1 -1.3 .2 -1.9c.1 -.6 .3 -1.2 .5 -1.8c.3 -.6 .6 -1.1 .9 -1.7c.4 -.5 .8 -1 1.2 -1.4c.5 -.5 1 -.9 1.5 -1.2c.5 -.4 1.1 -.7 1.6 -.9c.6 -.2 1.2 -.4 1.8 -.5c.7 -.2 1.3 -.2 1.9 -.2Zm-5.5 87.7c0 -4.2 12.5 -7.5 27.9 -7.5c7.4 0 14.6 .8 19.8 2.2c5.3 1.4 8.2 3.3 8.2 5.3v35.4c0 2 -2.9 3.9 -8.2 5.3c-5.2 1.4 -12.4 2.2 -19.8 2.2c-7.4 0 -14.5 -.8 -19.7 -2.2c-5.3 -1.4 -8.2 -3.3 -8.2 -5.3V478.8Zm55.9 0c0 2 -2.9 3.9 -8.2 5.3c-5.2 1.4 -12.4 2.2 -19.8 2.2c-7.4 0 -14.5 -.8 -19.7 -2.2c-5.3 -1.4 -8.2 -3.3 -8.2 -5.3m11.9 -11.9c0 0 0 -4.5 0 -13.7" class="g1_330"/>
<path d="M477.5 471.5L476 466.9h3.1l-1.6 4.6Z" class="g2_330"/>
<path d="M477.5 471.5L476 466.9h3.1l-1.6 4.6Z" class="g1_330"/>
<path d="M477.5 448.7l1.5 4.5h-3l1.5 -4.5Z" class="g2_330"/>
<path d="M477.5 448.7l1.5 4.5h-3l1.5 -4.5ZM510 466.9c0 -5 -.1 -9.6 -.2 -13.7" class="g1_330"/>
<path d="M510 471.5l-1.6 -4.6h3.1l-1.5 4.6Z" class="g2_330"/>
<path d="M510 471.5l-1.6 -4.6h3.1l-1.5 4.6Z" class="g1_330"/>
<path d="M509.6 448.7l1.7 4.5l-3.1 .1l1.4 -4.6Z" class="g2_330"/>
<path d="M509.6 448.7l1.7 4.5l-3.1 .1l1.4 -4.6ZM224.4 361.3l248.4 29.2" class="g1_330"/>
<path d="M476.2 390.9l-4.7 1l1.3 -1.4l-.9 -1.6l4.3 2Z" class="g2_330"/>
<path d="M476.2 390.9l-4.7 1l1.3 -1.4l-.9 -1.6l4.3 2Zm-269 -29.6L329.8 390" class="g1_330"/>
<path d="M333.1 390.8l-4.8 .4l1.5 -1.2l-.8 -1.8l4.1 2.6Z" class="g2_330"/>
<path d="M333.1 390.8l-4.8 .4l1.5 -1.2l-.8 -1.8l4.1 2.6ZM190 361.3l1 25.1" class="g1_330"/>
<path d="M191.1 389.8l-1.7 -4.5l1.6 1.1l1.4 -1.3l-1.3 4.7Z" class="g2_330"/>
<path d="M191.1 389.8l-1.7 -4.5l1.6 1.1l1.4 -1.3l-1.3 4.7ZM350.4 361.3v25" class="g1_330"/>
<path d="M350.4 389.8l-1.5 -4.6l1.5 1.1l1.5 -1.1l-1.5 4.6Z" class="g2_330"/>
<path d="M350.4 389.8l-1.5 -4.6l1.5 1.1l1.5 -1.1l-1.5 4.6ZM333.2 361.3L211.8 390" class="g1_330"/>
<path d="M208.4 390.8l4.1 -2.6l-.7 1.8l1.4 1.2l-4.8 -.4Z" class="g2_330"/>
<path d="M208.4 390.8l4.1 -2.6l-.7 1.8l1.4 1.2l-4.8 -.4ZM367.6 361.3L488.9 390" class="g1_330"/>
<path d="M492.3 390.8l-4.8 .4l1.4 -1.2l-.7 -1.8l4.1 2.6Z" class="g2_330"/>
<path d="M492.3 390.8l-4.8 .4l1.4 -1.2l-.7 -1.8l4.1 2.6Zm-16 -29.5L227.9 390.5" class="g1_330"/>
<path d="M224.5 390.9l4.3 -2l-.9 1.6l1.3 1.4l-4.7 -1Z" class="g2_330"/>
<path d="M224.5 390.9l4.3 -2l-.9 1.6l1.3 1.4l-4.7 -1Zm269 -29.6L371 390" class="g1_330"/>
<path d="M367.7 390.8l4.1 -2.6L371 390l1.5 1.2l-4.8 -.4Z" class="g2_330"/>
<path d="M367.7 390.8l4.1 -2.6L371 390l1.5 1.2l-4.8 -.4Zm143 -29.5l-1 25.1" class="g1_330"/>
<path d="M509.6 389.8l-1.3 -4.7l1.4 1.3l1.6 -1.1l-1.7 4.5Z" class="g2_330"/>
<path d="M509.6 389.8l-1.3 -4.7l1.4 1.3l1.6 -1.1l-1.7 4.5Zm-269 17.4h76.3" class="g1_330"/>
<path d="M233.7 407.2l6.9 -2.3v4.6l-6.9 -2.3Z" class="g2_330"/>
<path d="M233.7 407.2l6.9 -2.3v4.6l-6.9 -2.3Z" class="g1_330"/>
<path d="M323.8 407.2l-6.9 2.3v-4.6l6.9 2.3Z" class="g2_330"/>
<path d="M323.8 407.2l-6.9 2.3v-4.6l6.9 2.3Zm-83.2 30.9h76.3" class="g1_330"/>
<path d="M233.7 438.1l6.9 -2.3v4.6l-6.9 -2.3Z" class="g2_330"/>
<path d="M233.7 438.1l6.9 -2.3v4.6l-6.9 -2.3Z" class="g1_330"/>
<path d="M323.8 438.1l-6.9 2.3v-4.6l6.9 2.3Z" class="g2_330"/>
<path d="M323.8 438.1l-6.9 2.3v-4.6l6.9 2.3Zm60 0h76.3" class="g1_330"/>
<path d="M377 438.1l6.8 -2.3v4.6L377 438.1Z" class="g2_330"/>
<path d="M377 438.1l6.8 -2.3v4.6L377 438.1Z" class="g1_330"/>
<path d="M467 438.1l-6.9 2.3v-4.6l6.9 2.3Z" class="g2_330"/>
<path d="M467 438.1l-6.9 2.3v-4.6l6.9 2.3ZM383.8 407.2h76.3" class="g1_330"/>
<path d="M377 407.2l6.8 -2.3v4.6L377 407.2Z" class="g2_330"/>
<path d="M377 407.2l6.8 -2.3v4.6L377 407.2Z" class="g1_330"/>
<path d="M467 407.2l-6.9 2.3v-4.6l6.9 2.3Z" class="g2_330"/>
<path clip-path="url(#c0_330)" d="M467 407.2l-6.9 2.3v-4.6l6.9 2.3ZM170.4 281.1h73.4c.5 0 .9 .1 1.3 .2c.5 .2 .8 .4 1.2 .8c.3 .3 .5 .7 .7 1.1c.2 .4 .3 .8 .3 1.3v16c0 .5 -.1 .9 -.3 1.4c-.2 .4 -.4 .8 -.7 1.1c-.4 .3 -.7 .5 -1.2 .7c-.4 .2 -.8 .3 -1.3 .3H170.4c-.5 0 -.9 -.1 -1.3 -.3c-.4 -.2 -.8 -.4 -1.1 -.7c-.4 -.3 -.6 -.7 -.8 -1.1c-.2 -.5 -.2 -.9 -.2 -1.4v-16c0 -.5 0 -.9 .2 -1.3c.2 -.4 .4 -.8 .8 -1.1c.3 -.4 .7 -.6 1.1 -.8c.4 -.1 .8 -.2 1.3 -.2Zm286.4 0h73.4c.4 0 .9 .1 1.3 .2c.4 .2 .8 .4 1.1 .8c.3 .3 .6 .7 .8 1.1c.1 .4 .2 .8 .2 1.3v16c0 .5 -.1 .9 -.2 1.4c-.2 .4 -.5 .8 -.8 1.1c-.3 .3 -.7 .5 -1.1 .7c-.4 .2 -.9 .3 -1.3 .3H456.8c-.5 0 -.9 -.1 -1.4 -.3c-.4 -.2 -.7 -.4 -1.1 -.7c-.3 -.3 -.5 -.7 -.7 -1.1c-.2 -.5 -.3 -.9 -.3 -1.4v-16c0 -.5 .1 -.9 .3 -1.3c.2 -.4 .4 -.8 .7 -1.1c.4 -.4 .7 -.6 1.1 -.8c.5 -.1 .9 -.2 1.4 -.2Zm-143.2 0h73.5c.4 0 .8 .1 1.3 .2c.4 .2 .8 .4 1.1 .8c.3 .3 .6 .7 .7 1.1c.2 .4 .3 .8 .3 1.3v16c0 .5 -.1 .9 -.3 1.4c-.1 .4 -.4 .8 -.7 1.1c-.3 .3 -.7 .5 -1.1 .7c-.5 .2 -.9 .3 -1.3 .3H313.6c-.4 0 -.9 -.1 -1.3 -.3c-.4 -.2 -.8 -.4 -1.1 -.7c-.3 -.3 -.6 -.7 -.7 -1.1c-.2 -.5 -.3 -.9 -.3 -1.4v-16c0 -.5 .1 -.9 .3 -1.3c.1 -.4 .4 -.8 .7 -1.1c.3 -.4 .7 -.6 1.1 -.8c.4 -.1 .9 -.2 1.3 -.2ZM207.2 333.6l-.1 -24.9" class="g1_330"/>
<path d="M207.2 337.1l-2.3 -4.6l2.3 1.1l2.2 -1.1l-2.2 4.6Z" class="g2_330"/>
<path d="M207.2 337.1l-2.3 -4.6l2.3 1.1l2.2 -1.1l-2.2 4.6Z" class="g1_330"/>
<path d="M207.1 305.3l2.3 4.5l-2.3 -1.1l-2.3 1.1l2.3 -4.5Z" class="g2_330"/>
<path d="M207.1 305.3l2.3 4.5l-2.3 -1.1l-2.3 1.1l2.3 -4.5Zm143.3 28.3V308.7" class="g1_330"/>
<path d="M350.4 337.1l-2.3 -4.6l2.3 1.1l2.3 -1.1l-2.3 4.6Z" class="g2_330"/>
<path d="M350.4 337.1l-2.3 -4.6l2.3 1.1l2.3 -1.1l-2.3 4.6Z" class="g1_330"/>
<path d="M350.3 305.3l2.3 4.5l-2.2 -1.1l-2.3 1.1l2.2 -4.5Z" class="g2_330"/>
<path d="M350.3 305.3l2.3 4.5l-2.2 -1.1l-2.3 1.1l2.2 -4.5Zm143.2 28.3V308.7" class="g1_330"/>
<path d="M493.5 337.1l-2.3 -4.6l2.3 1.1l2.3 -1.1l-2.3 4.6Z" class="g2_330"/>
<path d="M493.5 337.1l-2.3 -4.6l2.3 1.1l2.3 -1.1l-2.3 4.6Z" class="g1_330"/>
<path d="M493.5 305.3l2.3 4.5l-2.3 -1.1l-2.3 1.1l2.3 -4.5Z" class="g2_330"/>
<path d="M493.5 305.3l2.3 4.5l-2.3 -1.1l-2.3 1.1l2.3 -4.5ZM181.9 397.9h18.5v18.5H181.9V397.9Zm32.1 0h18.5v18.5H214V397.9Zm0 31h18.5v18.5H214V428.9Zm-32.1 0h18.5v18.5H181.9V428.9Zm18.5 -26.3H214m13.8 26.3V416.4m-27.4 26.4H214M186.5 428.9V416.4M325.1 397.9h18.5v18.5H325.1V397.9Zm32.1 0h18.5v18.5H357.2V397.9Zm0 31h18.5v18.5H357.2V428.9Zm-32.1 0h18.5v18.5H325.1V428.9Zm18.5 -26.3h13.6m13.9 26.3V416.4m-27.5 26.4h13.6M329.7 428.9V416.4M468.2 397.9h18.5v18.5H468.2V397.9Zm32.1 0h18.5v18.5H500.3V397.9Zm0 31h18.5v18.5H500.3V428.9Zm-32.1 0h18.5v18.5H468.2V428.9Zm18.5 -26.3h13.6m13.9 26.3V416.4m-27.5 26.4h13.6M472.9 428.9V416.4" class="g1_330"/>
<path d="M246.5 423.2c1.2 0 2.3 -.1 3.5 -.2l.1 1.2c-1.2 .1 -2.4 .1 -3.6 .1v-1.1Zm6.8 -.7c1.1 -.2 2.1 -.5 3.2 -.9l.4 1.1c-1.1 .3 -2.2 .7 -3.4 .9l-.2 -1.1Zm6.3 -2.2c1 -.5 1.9 -1.1 2.9 -1.7l.6 .9c-1 .7 -2 1.3 -3 1.8l-.5 -1Zm5.5 -3.8c.8 -.7 1.6 -1.5 2.4 -2.4l.9 .7c-.8 .9 -1.7 1.8 -2.6 2.6l-.7 -.9Zm4.4 -5c.7 -.9 1.3 -1.8 1.9 -2.8l1 .5c-.6 1.1 -1.3 2.1 -1.9 3l-1 -.7Zm3.5 -5.8c.5 -1 1 -2 1.4 -3.1l1.1 .5c-.5 1.1 -1 2.1 -1.4 3.1l-1.1 -.5Zm2.6 -6.3c.4 -1.1 .7 -2.1 1.1 -3.2l1.1 .3c-.4 1.1 -.7 2.2 -1.1 3.3l-1.1 -.4Zm1.9 -6.5c.3 -1.1 .6 -2.2 .8 -3.3l1.1 .2c-.2 1.2 -.5 2.3 -.8 3.4l-1.1 -.3Zm1.5 -6.8c.1 -1.1 .3 -2.1 .5 -3.2l1.1 .1c-.2 1.1 -.3 2.2 -.5 3.3l-1.1 -.2Zm.9 -6.6c.1 -1.1 .3 -2.3 .4 -3.5l1.1 .1c-.1 1.2 -.2 2.4 -.4 3.5l-1.1 -.1Zm.7 -7c0 -1.1 .1 -2.2 .2 -3.3l1.1 .1c-.1 1.1 -.1 2.2 -.2 3.3l-1.1 -.1Zm.3 -6.7c0 -1.1 .1 -2.3 .1 -3.4h1.1c0 1.2 0 2.3 -.1 3.5l-1.1 -.1Zm.1 -7v-.7c0 -1 0 -2 0 -2.9l1.2 -.1c0 1 0 2 0 3v.7H281Zm0 -7.2c-.1 -1.1 -.1 -2.3 -.1 -3.4H282c0 1.1 .1 2.2 .1 3.4H281Zm-.3 -6.7c0 -1.1 -.1 -2.3 -.2 -3.4l1.2 -.1c0 1.2 .1 2.3 .2 3.4l-1.2 .1Zm-.4 -6.9c-.1 -1.2 -.2 -2.3 -.4 -3.5l1.2 -.1c.1 1.1 .2 2.3 .3 3.5l-1.1 .1Zm-.7 -6.8c-.2 -1.1 -.3 -2.2 -.5 -3.3l1.1 -.2c.2 1.1 .4 2.2 .5 3.4l-1.1 .1Zm-1.1 -6.8c-.2 -1.2 -.4 -2.3 -.6 -3.3l1.1 -.3c.2 1.1 .5 2.2 .7 3.4l-1.2 .2Zm-1.4 -6.5c-.3 -1.2 -.6 -2.4 -.9 -3.5l1.1 -.3c.3 1.1 .6 2.3 .9 3.5l-1.1 .3Zm-2 -6.7c-.4 -1 -.8 -2.1 -1.2 -3.1l1 -.4c.5 1 .9 2 1.3 3.1l-1.1 .4ZM272.4 305c-.6 -1 -1.1 -1.9 -1.7 -2.8l.9 -.6c.6 .9 1.2 1.8 1.8 2.9l-1 .5Zm-3.8 -5.5c-.8 -.8 -1.6 -1.6 -2.4 -2.3l.8 -.9c.8 .8 1.6 1.6 2.4 2.4l-.8 .8Zm-5.2 -4.2c-.9 -.5 -1.9 -1 -3 -1.3l.4 -1.1c1.1 .4 2.2 .8 3.2 1.4l-.6 1Zm-6.2 -2c-.8 -.1 -1.7 -.2 -2.6 -.2V292c.9 0 1.9 0 2.8 .1l-.2 1.2Z" class="g2_330"/>
<path d="M240.5 423.8l8 -2.7l-2 2.7l2 2.6l-8 -2.6Z" class="g2_330"/>
<path d="M240.5 423.8l8 -2.7l-2 2.7l2 2.6l-8 -2.6Z" class="g1_330"/>
<path d="M248.5 292.5l8.1 -2.6l-2 2.6l2 2.7l-8.1 -2.7Z" class="g2_330"/>
<path d="M248.5 292.5l8.1 -2.6l-2 2.6l2 2.7l-8.1 -2.7Z" class="g1_330"/>
<path d="M389.7 423.2c1.2 0 2.4 -.1 3.5 -.1l.1 1.1c-1.1 .1 -2.3 .1 -3.6 .1v-1.1Zm6.9 -.5c1.1 -.2 2.2 -.4 3.2 -.7l.3 1.1c-1.1 .3 -2.2 .5 -3.3 .7l-.2 -1.1Zm6.5 -1.7c1.1 -.4 2.1 -.8 3.1 -1.3l.5 1c-1 .5 -2.1 1 -3.2 1.4l-.4 -1.1Zm6 -2.9c1 -.6 1.9 -1.3 2.8 -2l.7 .9c-.9 .8 -1.9 1.4 -2.9 2.1l-.6 -1Zm5.3 -4.2c.8 -.8 1.6 -1.6 2.3 -2.4l.9 .7c-.8 .9 -1.6 1.7 -2.4 2.5l-.8 -.8Zm4.3 -5.2c.7 -.9 1.3 -1.8 1.9 -2.8l1 .5c-.6 1.1 -1.3 2.1 -1.9 3l-1 -.7Zm3.4 -5.8c.5 -1 1 -2 1.4 -3.1l1.1 .4c-.5 1.1 -.9 2.2 -1.5 3.2l-1 -.5Zm2.7 -6.3c.3 -1 .6 -2.1 1 -3.2l1.1 .4c-.4 1.1 -.7 2.1 -1.1 3.2l-1 -.4Zm1.9 -6.5c.3 -1.1 .5 -2.3 .8 -3.5l1.1 .3c-.3 1.2 -.5 2.3 -.8 3.5l-1.1 -.3Zm1.4 -6.7c.2 -1.1 .3 -2.2 .5 -3.3l1.1 .2c-.1 1.1 -.3 2.2 -.5 3.3l-1.1 -.2Zm.9 -6.8c.2 -1.1 .3 -2.3 .4 -3.5l1.1 .1c-.1 1.2 -.2 2.4 -.3 3.6l-1.2 -.2Zm.6 -6.8c.1 -1.1 .2 -2.2 .2 -3.3H431c-.1 1.2 -.2 2.3 -.2 3.4l-1.2 -.1Zm.3 -6.8c.1 -1.2 .1 -2.3 .1 -3.5h1.1c0 1.2 0 2.4 0 3.5h-1.2Zm.1 -7.2c0 -1.2 -.1 -2.4 -.1 -3.5h1.2c0 1.1 0 2.3 0 3.5H430Zm-.2 -7c0 -1.1 -.1 -2.2 -.2 -3.3l1.2 -.1c.1 1.1 .1 2.3 .2 3.4h-1.2Zm-.4 -6.6c-.1 -1.2 -.2 -2.4 -.3 -3.6l1.2 -.1c.1 1.2 .2 2.4 .3 3.6l-1.2 .1Zm-.6 -7c-.2 -1.1 -.3 -2.2 -.5 -3.3l1.1 -.2c.2 1.1 .4 2.2 .5 3.4l-1.1 .1Zm-1 -6.6c-.2 -1.2 -.4 -2.4 -.7 -3.5l1.1 -.2c.3 1.1 .5 2.3 .7 3.5l-1.1 .2Zm-1.5 -6.8c-.2 -1.1 -.5 -2.1 -.8 -3.2l1.1 -.3c.3 1 .6 2.1 .9 3.2l-1.2 .3Zm-1.9 -6.5c-.4 -1.1 -.8 -2.2 -1.2 -3.2l1 -.5c.5 1.1 .9 2.2 1.3 3.3l-1.1 .4Zm-2.6 -6.2c-.5 -1.1 -1.1 -2.1 -1.7 -3.1l1 -.6c.6 1 1.2 2.1 1.8 3.2l-1.1 .5Zm-3.6 -5.8c-.6 -.9 -1.4 -1.8 -2.1 -2.6l.8 -.8c.8 .9 1.5 1.7 2.3 2.7l-1 .7Zm-4.6 -4.9c-.9 -.7 -1.8 -1.3 -2.7 -1.9l.6 -1c1 .6 1.9 1.3 2.8 2l-.7 .9ZM407.9 295c-1 -.4 -2.1 -.8 -3.2 -1.1l.3 -1.1c1.2 .3 2.3 .7 3.4 1.2l-.5 1Zm-6.4 -1.7c-1.1 -.1 -2.3 -.2 -3.5 -.2V292c1.3 0 2.5 0 3.6 .2l-.1 1.1Z" class="g2_330"/>
<path d="M383.7 423.8l8 -2.7l-2 2.7l2 2.6l-8 -2.6Z" class="g2_330"/>
<path d="M383.7 423.8l8 -2.7l-2 2.7l2 2.6l-8 -2.6Z" class="g1_330"/>
<path d="M391.8 292.5l8 -2.6l-2 2.6l2 2.7l-8 -2.7Z" class="g2_330"/>
<path d="M391.8 292.5l8 -2.6l-2 2.6l2 2.7l-8 -2.7Z" class="g1_330"/>
<path d="M532.9 423.2c1.2 0 2.3 -.1 3.4 -.2l.2 1.2c-1.2 .1 -2.4 .1 -3.6 .1v-1.1Zm6.7 -.7c1.1 -.2 2.2 -.5 3.3 -.9l.3 1.1c-1 .4 -2.2 .7 -3.3 .9l-.3 -1.1Zm6.4 -2.2c.9 -.5 1.9 -1.1 2.8 -1.7l.7 .9c-1 .7 -2 1.3 -3 1.8l-.5 -1Zm5.5 -3.8c.8 -.7 1.6 -1.5 2.4 -2.4l.9 .8c-.9 .9 -1.7 1.7 -2.6 2.5l-.7 -.9Zm4.4 -4.9c.7 -.9 1.3 -1.9 1.9 -2.9l1 .6c-.6 1 -1.3 2 -1.9 2.9l-1 -.6Zm3.5 -5.9c.5 -.9 1 -1.9 1.4 -3l1.1 .4c-.5 1.1 -.9 2.1 -1.4 3.1l-1.1 -.5Zm2.7 -6.3c.3 -1 .7 -2.1 1 -3.2l1.1 .3c-.3 1.2 -.7 2.3 -1.1 3.3l-1 -.4ZM564 393c.2 -1.1 .5 -2.2 .7 -3.4l1.2 .3c-.3 1.1 -.6 2.3 -.8 3.4L564 393Zm1.4 -6.9c.2 -1 .3 -2.1 .5 -3.2l1.1 .2c-.1 1.1 -.3 2.2 -.5 3.2l-1.1 -.2Zm.9 -6.5c.2 -1.2 .3 -2.3 .4 -3.5l1.2 .1c-.2 1.2 -.3 2.3 -.4 3.5l-1.2 -.1Zm.7 -7c.1 -1.1 .1 -2.2 .2 -3.3h1.1c0 1.2 -.1 2.3 -.2 3.3H567Zm.4 -6.7c0 -1.1 0 -2.3 0 -3.5l1.2 .1c0 1.1 -.1 2.3 -.1 3.5l-1.1 -.1Zm.1 -7.1v-.7c0 -1 0 -1.9 0 -2.9h1.1c0 1 0 1.9 0 2.9v.7h-1.1Zm-.1 -7.1c0 -1.2 0 -2.3 -.1 -3.4l1.2 -.1c0 1.2 0 2.3 .1 3.5h-1.2Zm-.2 -6.7c-.1 -1.2 -.1 -2.3 -.2 -3.4l1.1 -.1c.1 1.1 .2 2.3 .2 3.4l-1.1 .1Zm-.5 -7c-.1 -1.1 -.2 -2.3 -.3 -3.4l1.1 -.1c.2 1.1 .3 2.3 .4 3.4l-1.2 .1Zm-.7 -6.7c-.1 -1.1 -.3 -2.3 -.4 -3.4l1.1 -.1c.2 1.1 .3 2.2 .5 3.4l-1.2 .1Zm-1 -6.9c-.2 -1.1 -.4 -2.2 -.7 -3.3l1.2 -.2c.2 1.1 .4 2.2 .6 3.3l-1.1 .2Zm-1.4 -6.5c-.3 -1.2 -.6 -2.3 -1 -3.4l1.1 -.3c.4 1.1 .7 2.2 1 3.5l-1.1 .2Zm-2 -6.6c-.4 -1.1 -.8 -2.1 -1.3 -3.1l1.1 -.5c.4 1 .9 2.1 1.3 3.2l-1.1 .4Zm-2.8 -6.2c-.5 -1 -1.1 -1.9 -1.7 -2.8l1 -.6c.6 .8 1.2 1.8 1.7 2.8l-1 .6ZM555 299.6c-.7 -.9 -1.5 -1.6 -2.3 -2.3l.7 -.9c.9 .7 1.7 1.5 2.5 2.4l-.9 .8Zm-5.1 -4.2c-.9 -.6 -1.9 -1 -3 -1.4l.4 -1.1c1.1 .4 2.2 .9 3.2 1.5l-.6 1Zm-6.2 -2.1c-.9 -.1 -1.8 -.2 -2.8 -.2V292c1 0 2 0 3 .1l-.2 1.2Z" class="g2_330"/>
<path d="M526.8 423.8l8.1 -2.7l-2 2.7l2 2.6l-8.1 -2.6Z" class="g2_330"/>
<path d="M526.8 423.8l8.1 -2.7l-2 2.7l2 2.6l-8.1 -2.6Z" class="g1_330"/>
<path d="M534.9 292.5l8 -2.6l-2 2.6l2 2.7l-8 -2.7Z" class="g2_330"/>
<path d="M534.9 292.5l8 -2.6l-2 2.6l2 2.7l-8 -2.7Z" class="g1_330"/>
</g>
</svg>