<?xml version="1.0" encoding="UTF-8" standalone="no"?>
<!DOCTYPE svg PUBLIC "-//W3C//DTD SVG 1.1//EN"
"http://www.w3.org/Graphics/SVG/1.1/DTD/svg11.dtd">
<svg viewBox="0 0 714 1017" version="1.1" xmlns="http://www.w3.org/2000/svg" xmlns:xlink="http://www.w3.org/1999/xlink">
<defs>
<clipPath id="c0_469"><path d="M139.5 300V218.9H553.1V300Z"/></clipPath>
<clipPath id="c1_469"><path d="M139.5 300V217.5h414V300Z"/></clipPath>
<style type="text/css"><![CDATA[
.g0_469{
fill: #FFF;
}
.g1_469{
fill: #000;
}
.g2_469{
fill: none;
stroke: #000;
stroke-width: 1.145;
stroke-miterlimit: 10;
}
]]></style>
</defs>
<path d="M0 1017.7H717.2V-3.7H0V1017.7Z" class="g0_469"/>
<g clip-path="url(#c1_469)">
<path clip-path="url(#c0_469)" d="M139.5 218.9H553.1v81.4H139.5V218.9Z" class="g0_469"/>
<path d="M156.7 258.7c-9.3 0 -16.9 -7.6 -16.9 -16.9c0 -9.3 7.6 -16.8 16.9 -16.8c9.2 0 16.8 7.5 16.8 16.8c0 9.3 -7.6 16.9 -16.8 16.9ZM167.1 253c-.9 -.5 -1.9 -.8 -3.3 -1.1c-1.7 -.4 -3.9 -.7 -3.7 -2.6c-1.3 1.1 -3.5 1.6 -5.3 .8c-.5 -.2 -.9 -.7 -1.3 -.6c.1 1.8 -2.2 2 -3.7 2.4c-1.5 .3 -2.5 .6 -3.4 1.2c2.7 2.5 6.3 4 10.3 4c4 0 7.6 -1.6 10.4 -4.1Zm-9.3 -20.6c-5.1 -.5 -7.6 3 -6.9 8.2c-.2 .1 -.5 .1 -.5 .3c0 1.5 .3 2.8 1.4 3.2c.6 2.5 2.3 5.5 5.5 5.1c2.6 -.3 4 -2.8 4.5 -5.1c1.1 -.4 1.5 -1.9 1.4 -3.3c0 -.2 -.4 -.1 -.5 -.2c.9 -4 -1.4 -7.9 -4.9 -8.2Zm-1.1 -5.8c-8.5 0 -15.3 6.8 -15.3 15.2c0 4 1.5 7.6 4 10.3c.3 -.2 .6 -.4 .9 -.6c1.7 -.9 3.8 -.7 5.8 -1.7c0 -.6 0 -1.2 0 -1.8c-.8 -.7 -.9 -1.9 -1.5 -2.9c-.3 -.6 -.8 -.9 -1.1 -1.5c-.3 -.7 -.6 -1.6 -.5 -2.6c.1 -.6 .4 -.9 .4 -1.4c.1 -.6 0 -1.3 0 -1.9c.4 -3.5 3 -6.2 6.4 -6.7c.7 0 1.4 0 2.1 0c3.6 .6 6.1 3.3 6.3 7.2c0 .5 -.1 1 -.1 1.5c.1 .5 .5 .9 .5 1.4c.1 1.7 -.6 3 -1.6 4c-.3 1.2 -.9 2 -1.5 2.9c0 .6 0 1.1 0 1.7c1.7 1 4 .9 5.6 1.7c.4 .2 .6 .4 .9 .6c2.4 -2.7 3.9 -6.3 3.9 -10.2c0 -8.4 -6.8 -15.2 -15.2 -15.2Z" class="g1_469"/>
<path d="M231.7 219.5h91.7v45.8H231.7V219.5Zm-57.3 22.9h50" class="g2_469"/>
<path d="M230.4 242.4l-8 2.7l2 -2.7l-2 -2.7l8 2.7Z" class="g1_469"/>
<path d="M230.4 242.4l-8 2.7l2 -2.7l-2 -2.7l8 2.7Z" class="g2_469"/>
<path d="M198.5 235.5h10.3v17.2H198.5V235.5Z" class="g0_469"/>
<path d="M415 219.5H552.5v45.8H415V219.5ZM157.2 259.6v17.2c0 7.6 3.9 11.4 11.5 11.4H478.1c7.6 0 11.4 -2.8 11.4 -8.3l.1 -8.4" class="g2_469"/>
<path d="M489.6 265.5l2.6 8l-2.6 -2l-2.7 2l2.7 -8Z" class="g1_469"/>
<path d="M489.6 265.5l2.6 8l-2.6 -2l-2.7 2l2.7 -8Z" class="g2_469"/>
<path d="M316.5 281.4h10.3v17.2H316.5V281.4Z" class="g0_469"/>
<path d="M415 253.9H330.7" class="g2_469"/>
<path d="M324.7 253.9l8 -2.7l-2 2.7l2 2.6l-8 -2.6Z" class="g1_469"/>
<path d="M324.7 253.9l8 -2.7l-2 2.7l2 2.6l-8 -2.6Z" class="g2_469"/>
<path d="M364.6 247h10.3v17.2H364.6V247Z" class="g0_469"/>
<path d="M415 230.9H330.7" class="g2_469"/>
<path d="M324.7 230.9l8 -2.6l-2 2.6l2 2.7l-8 -2.7Z" class="g1_469"/>
<path d="M324.7 230.9l8 -2.6l-2 2.6l2 2.7l-8 -2.7Z" class="g2_469"/>
<path d="M364.6 224.1h10.3v17.2H364.6V224.1Z" class="g0_469"/>
</g>
</svg>