<?xml version="1.0" encoding="UTF-8" standalone="no"?>
<!DOCTYPE svg PUBLIC "-//W3C//DTD SVG 1.1//EN"
"http://www.w3.org/Graphics/SVG/1.1/DTD/svg11.dtd">
<svg viewBox="0 0 714 1017" version="1.1" xmlns="http://www.w3.org/2000/svg" xmlns:xlink="http://www.w3.org/1999/xlink">
<defs>
<clipPath id="c0_107"><path d="M154.6 359.2V237.1H575.1V359.2Z"/></clipPath>
<clipPath id="c1_107"><path d="M76 872V676.6H616.9V872Z"/></clipPath>
<clipPath id="c2_107"><path d="M154.6 359.2V237H576.3V359.2Z"/></clipPath>
<clipPath id="c3_107"><path d="M76 872V676.5H616.9V872Z"/></clipPath>
<style type="text/css"><![CDATA[
.g0_107{
fill: #FFF;
}
.g1_107{
fill: #000;
}
.g2_107{
fill: none;
stroke: #000;
stroke-width: 1.145;
stroke-miterlimit: 10;
}
.g3_107{
fill: none;
stroke: #000;
stroke-width: 2.291;
stroke-miterlimit: 10;
}
]]></style>
</defs>
<path d="M0 1017.7H717.2V-3.7H0V1017.7Z" class="g0_107"/>
<g clip-path="url(#c2_107)">
<path clip-path="url(#c0_107)" d="M154.6 237.1H575.1V359.7H154.6V237.1Z" class="g0_107"/>
<path d="M170.1 237.1h3.4v1.1h-3.4v-1.1Zm6.9 0h3.4v1.1H177v-1.1Zm6.8 0h3.5v1.1h-3.5v-1.1Zm6.9 0h3.5v1.1h-3.5v-1.1Zm6.9 0H201v1.1h-3.4v-1.1Zm6.9 0h3.4v1.1h-3.4v-1.1Zm6.8 0h3.5v1.1h-3.5v-1.1Zm6.9 0h3.5v1.1h-3.5v-1.1Zm6.9 0h3.4v1.1h-3.4v-1.1Zm6.9 0h3.4v1.1H232v-1.1Zm6.8 0h3.5v1.1h-3.5v-1.1Zm6.9 0h3.5v1.1h-3.5v-1.1Zm6.9 0H256v1.1h-3.4v-1.1Zm6.9 0h3.4v1.1h-3.4v-1.1Zm6.8 0h3.5v1.1h-3.5v-1.1Zm6.9 0h3.5v1.1h-3.5v-1.1Zm6.9 0h3.4v1.1h-3.4v-1.1Zm6.9 0h3.4v1.1H287v-1.1Zm6.8 0h2.3c.4 0 .8 0 1.2 .1l-.1 1.1c-.4 0 -.7 -.1 -1.1 -.1h-2.3v-1.1Zm7 1.4c1.1 .7 1.9 1.5 2.6 2.6l-1 .6c-.6 -.9 -1.3 -1.7 -2.2 -2.3l.6 -.9Zm3.9 6.1c0 .4 0 .7 0 1.1v2.4h-1.1v-2.4c0 -.3 0 -.6 -.1 -1l1.2 -.1Zm0 6.9v3.4h-1.1v-3.4h1.1Zm0 6.9v3.4h-1.1v-3.4h1.1Zm0 6.9v3.4h-1.1v-3.4h1.1Zm0 6.8v3.5h-1.1v-3.5h1.1Zm0 6.9v3.4h-1.1V279h1.1Zm0 6.9v3.4h-1.1v-3.4h1.1Zm0 6.9v3.4h-1.1v-3.4h1.1Zm0 6.8v3.5h-1.1v-3.5h1.1Zm0 6.9v3.4h-1.1v-3.4h1.1Zm-.8 7c-.5 1.2 -1.3 2.1 -2.3 3l-.7 -.9c.8 -.7 1.5 -1.6 2 -2.6l1 .5Zm-5.5 4.7c-.8 .2 -1.5 .3 -2.3 .3h-1.3v-1.2h1.3c.7 0 1.3 -.1 2 -.2l.3 1.1Zm-7 .3h-3.5v-1.2h3.5v1.2Zm-6.9 0h-3.4v-1.2h3.4v1.2Zm-6.9 0h-3.4v-1.2h3.4v1.2Zm-6.8 0h-3.5v-1.2h3.5v1.2Zm-6.9 0h-3.5v-1.2h3.5v1.2Zm-6.9 0h-3.4v-1.2H257v1.2Zm-6.9 0h-3.4v-1.2h3.4v1.2Zm-6.8 0h-3.5v-1.2h3.5v1.2Zm-6.9 0h-3.5v-1.2h3.5v1.2Zm-6.9 0h-3.4v-1.2h3.4v1.2Zm-6.9 0h-3.4v-1.2h3.4v1.2Zm-6.8 0h-3.5v-1.2h3.5v1.2Zm-6.9 0h-3.5v-1.2h3.5v1.2Zm-6.9 0h-3.4v-1.2H202v1.2Zm-6.9 0h-3.4v-1.2h3.4v1.2Zm-6.8 0h-3.5v-1.2h3.5v1.2Zm-6.9 0h-3.5v-1.2h3.5v1.2Zm-6.9 0h-3.4v-1.2h3.4v1.2Zm-6.9 0h-3.4v-1.2h3.4v1.2Zm-7 -.4c-1.2 -.4 -2.2 -1 -3.2 -1.9l.8 -.8c.8 .7 1.7 1.2 2.8 1.6l-.4 1.1Zm-5.3 -4.9c-.5 -1.1 -.7 -2.2 -.7 -3.3v-.3h1.2v.3c0 1 .2 1.9 .6 2.8l-1.1 .5Zm-.7 -7v-3.5h1.2v3.5h-1.2Zm0 -6.9v-3.5h1.2v3.5h-1.2Zm0 -6.9V289h1.2v3.4h-1.2Zm0 -6.9v-3.4h1.2v3.4h-1.2Zm0 -6.8v-3.5h1.2v3.5h-1.2Zm0 -6.9v-3.5h1.2v3.5h-1.2Zm0 -6.9v-3.4h1.2v3.4h-1.2Zm0 -6.9v-3.4h1.2V258h-1.2Zm0 -6.8v-3.5h1.2v3.5h-1.2Zm.1 -7c.3 -1.2 .7 -2.4 1.4 -3.4l1 .7c-.6 .9 -1 1.8 -1.2 2.9l-1.2 -.2Zm4.2 -5.9c1.1 -.7 2.2 -1 3.5 -1.2l.1 1.2c-1.1 .1 -2.1 .4 -3 1l-.6 -1Zm4.3 -1.2h3.5v1.1h-3.5v-1.1Z" class="g1_107"/>
<path d="M160.9 266.3h34.4v45.8H160.9V266.3Zm34.4 0h34.4v45.8H195.3V266.3Zm34.4 0H264v45.8H229.7V266.3Zm34.3 0h34.4v45.8H264V266.3Zm34.4 0h34.4v45.8H298.4V266.3Zm34.4 0h34.4v45.8H332.8V266.3Zm34.4 0h34.3v45.8H367.2V266.3Zm34.3 0h34.4v45.8H401.5V266.3Zm34.4 0h34.4v45.8H435.9V266.3Zm34.4 0h34.4v45.8H470.3V266.3Zm34.4 0H539v45.8H504.7V266.3Zm34.3 0h34.4v45.8H539V266.3Z" class="g2_107"/>
<path d="M160.9 277.8H275.5v22.9H160.9V277.8Z" class="g0_107"/>
<path d="M160.9 277.8H275.5v22.9H160.9V277.8Z" class="g2_107"/>
<path d="M435.9 277.8H573.4v22.9H435.9V277.8Z" class="g0_107"/>
<path d="M435.9 277.8H573.4v22.9H435.9V277.8Zm-275 34.3h34.4V358H160.9V312.1Zm34.4 0h34.4V358H195.3V312.1Zm34.4 0H264V358H229.7V312.1Zm34.3 0h34.4V358H264V312.1Zm34.4 0h34.4V358H298.4V312.1Zm34.4 0h34.4V358H332.8V312.1Zm34.4 0h34.3V358H367.2V312.1Zm34.3 0h34.4V358H401.5V312.1Zm34.4 0h34.4V358H435.9V312.1Zm34.4 0h34.4V358H470.3V312.1Zm34.4 0H539V358H504.7V312.1Zm34.3 0h34.4V358H539V312.1Z" class="g2_107"/>
<path d="M160.9 266.3H298.4v45.8H160.9V266.3Zm275 0H573.4v45.8H435.9V266.3Zm0 45.8H573.4V358H435.9V312.1Z" class="g3_107"/>
<path d="M298.4 323.6h57.3v22.9H298.4V323.6Z" class="g0_107"/>
<path d="M298.4 323.6h57.3v22.9H298.4V323.6Z" class="g2_107"/>
<path d="M160.9 323.6H298.4v22.9H160.9V323.6Z" class="g0_107"/>
<path d="M160.9 323.6H298.4v22.9H160.9V323.6Z" class="g2_107"/>
<path d="M298.4 312.1H435.9V358H298.4V312.1Zm-137.5 0H298.4V358H160.9V312.1Z" class="g3_107"/>
<path d="M298.4 277.8H435.9v22.9H298.4V277.8Z" class="g0_107"/>
<path d="M298.4 277.8H435.9v22.9H298.4V277.8Z" class="g2_107"/>
<path d="M298.4 266.3H435.9v45.8H298.4V266.3Z" class="g3_107"/>
</g>
<g clip-path="url(#c3_107)">
<path clip-path="url(#c1_107)" d="M76 676.6H616.9V872.5H76V676.6Z" class="g0_107"/>
<path d="M76.6 810.5c0 -4 7.7 -7.3 17.2 -7.3c4.6 0 8.9 .8 12.2 2.1c3.2 1.4 5 3.2 5 5.2v19.8c0 4 -7.7 7.3 -17.2 7.3c-9.5 0 -17.2 -3.3 -17.2 -7.3V810.5Zm34.4 0c0 4 -7.7 7.2 -17.2 7.2c-9.5 0 -17.2 -3.2 -17.2 -7.2" class="g2_107"/>
<path d="M77.8 791.2h1.1v1.1H77.8m5.7 -1.1h1.1v1.1H83.5m5.7 -1.1h1.2v1.1H89.2m5.7 -1.1h1.2v1.1H94.9m5.8 -1.1h1.1v1.1h-1.1m5.7 -1.1h1.2v1.1h-1.2m5.7 -1.1h1.2v1.1h-1.2m5.8 -1.1H119v1.1h-1.1m5.7 -1.1h1.1v1.1h-1.1m5.7 -1.1h1.2v1.1h-1.2m5.8 -1.1h1.1v1.1h-1.1m5.7 -1.1h1.1v1.1h-1.1m5.7 -1.1h1.2v1.1h-1.2m5.7 -1.1h1.2v1.1h-1.2m5.8 -1.1h1.1v1.1H158m5.7 -1.1h1.1v1.1h-1.1m5.7 -1.1h1.2v1.1h-1.2m5.8 -1.1h1.1v1.1h-1.1m5.7 -1.1H182v1.1h-1.1m5.7 -1.1h1.2v1.1h-1.2m5.7 -1.1h1.2v1.1h-1.2m5.8 -1.1h1.1v1.1h-1.1m5.7 -1.1h1.1v1.1h-1.1m5.7 -1.1h1.2v1.1h-1.2m5.8 -1.1h1.1v1.1h-1.1m5.7 -1.1h1.1v1.1H221m5.7 -1.1h1.2v1.1h-1.2m5.7 -1.1h1.2v1.1h-1.2m5.8 -1.1h1.1v1.1h-1.1m5.7 -1.1h1.2v1.1h-1.2m5.7 -1.1h1.2v1.1h-1.2m5.8 -1.1h1.1v1.1h-1.1m5.7 -1.1h1.1v1.1h-1.1m5.7 -1.1H268v1.1h-1.2m5.8 -1.1h1.1v1.1h-1.1m5.7 -1.1h1.1v1.1h-1.1m5.7 -1.1h1.2v1.1H284m5.7 -1.1h1.2v1.1h-1.2m5.8 -1.1h1.1v1.1h-1.1m5.7 -1.1h1.1v1.1h-1.1m5.7 -1.1h1.2v1.1h-1.2m5.8 -1.1h1.1v1.1h-1.1m5.7 -1.1h1.1v1.1h-1.1m5.7 -1.1h1.2v1.1h-1.2m5.7 -1.1H331v1.1h-1.2m5.8 -1.1h1.1v1.1h-1.1m5.7 -1.1h1.1v1.1h-1.1m5.7 -1.1h1.2v1.1H347m5.8 -1.1h1.1v1.1h-1.1m5.7 -1.1h1.1v1.1h-1.1m5.7 -1.1h1.2v1.1h-1.2m5.7 -1.1h1.2v1.1h-1.2m5.8 -1.1h1.1v1.1h-1.1m5.7 -1.1h1.2v1.1h-1.2m5.7 -1.1h1.2v1.1h-1.2m5.8 -1.1H394v1.1h-1.1m5.7 -1.1h1.1v1.1h-1.1m5.7 -1.1h1.2v1.1h-1.2m5.8 -1.1h1.1v1.1h-1.1m5.7 -1.1h1.1v1.1h-1.1m5.7 -1.1h1.2v1.1h-1.2m5.7 -1.1h1.2v1.1h-1.2m5.8 -1.1h1.1v1.1H433m5.7 -1.1h1.1v1.1h-1.1m5.7 -1.1h1.2v1.1h-1.2m5.8 -1.1h1.1v1.1h-1.1m5.7 -1.1H457v1.1h-1.1m5.7 -1.1h1.2v1.1h-1.2m5.7 -1.1h1.2v1.1h-1.2m5.8 -1.1h1.1v1.1h-1.1m5.7 -1.1h1.1v1.1h-1.1m5.7 -1.1h1.2v1.1h-1.2m5.8 -1.1h1.1v1.1h-1.1m5.7 -1.1h1.1v1.1H496m5.7 -1.1h1.2v1.1h-1.2m5.7 -1.1h1.2v1.1h-1.2m5.8 -1.1h1.1v1.1h-1.1m5.7 -1.1h1.2v1.1h-1.2m5.7 -1.1h1.2v1.1h-1.2m5.8 -1.1h1.1v1.1h-1.1m5.7 -1.1h1.1v1.1h-1.1m5.7 -1.1H543v1.1h-1.2m5.8 -1.1h1.1v1.1h-1.1m5.7 -1.1h1.1v1.1h-1.1m5.7 -1.1h1.2v1.1H559m5.7 -1.1h1.2v1.1h-1.2m5.8 -1.1h1.1v1.1h-1.1m5.7 -1.1h1.1v1.1h-1.1m5.7 -1.1h1.2v1.1h-1.2m5.8 -1.1h1.1v1.1h-1.1m5.7 -1.1h1.1v1.1h-1.1m5.7 -1.1h1.2v1.1h-1.2m5.7 -1.1H606v1.1h-1.2m5.8 -1.1h1.1v1.1h-1.1Z" class="g1_107"/>
<path clip-path="url(#c1_107)" d="M82.3 751.6h23v23h-23v-23Zm5.8 0v-5.7m5.7 0v5.7m5.7 -5.7v5.7M88.1 780.3v-5.7m5.7 0v5.7m5.7 -5.7v5.7m5.8 -22.9H111m0 5.7h-5.7m5.7 5.7h-5.7M76.6 757.4h5.7m0 5.7H76.6m5.7 5.7H76.6m91.7 34.4H317.2v22.9H168.3V803.2Zm0 22.9H317.2V849H168.3V826.1ZM466.2 803.2h149v22.9h-149V803.2ZM317.2 849h149v23h-149V849Zm0 -45.8h149v22.9h-149V803.2Zm0 22.9h149V849h-149V826.1Zm149 0h149V849h-149V826.1ZM168.3 849H317.2v23H168.3V849Zm297.9 0h149v23h-149V849ZM168.3 711.5H317.2v23H168.3v-23Zm0 45.9H317.2v22.9H168.3V757.4Zm0 -22.9H317.2v22.9H168.3V734.5Zm263.5 0H603.7v22.9H431.8V734.5Zm0 22.9H615.2v22.9H431.8V757.4Z" class="g2_107"/>
</g>
</svg>