<?xml version="1.0" encoding="UTF-8" standalone="no"?>
<!DOCTYPE svg PUBLIC "-//W3C//DTD SVG 1.1//EN"
"http://www.w3.org/Graphics/SVG/1.1/DTD/svg11.dtd">
<svg viewBox="0 0 714 1017" version="1.1" xmlns="http://www.w3.org/2000/svg" xmlns:xlink="http://www.w3.org/1999/xlink">
<defs>
<style type="text/css"><![CDATA[
.g0_370{
fill: #FFF;
}
.g1_370{
fill: none;
stroke: #000;
stroke-width: 1.217;
stroke-miterlimit: 10;
}
.g2_370{
fill: none;
stroke: #000;
stroke-width: 1.156;
stroke-miterlimit: 10;
}
.g3_370{
fill: none;
stroke: #000;
stroke-width: 0.76;
stroke-miterlimit: 10;
}
]]></style>
</defs>
<path d="M0 1017.7H717.2V-3.7H0V1017.7Z" class="g0_370"/>
<path d="M104.9 247.7H466" class="g1_370"/>
<path d="M104.9 274.7H466" class="g2_370"/>
<path d="M104.9 301.4H466M104.9 327.9H466" class="g3_370"/>
<path d="M104.9 354.7H466" class="g1_370"/>
<path d="M88.8 410.5v-5.4c0 -2.4 1.9 -4.4 4.3 -4.4h550c2.4 0 4.3 2 4.3 4.4v5.4c0 2.4 -1.9 4.4 -4.3 4.4H93.1c-2.4 0 -4.3 -2 -4.3 -4.4Z" class="g0_370"/>
<path d="M86.6 398.6V417" class="g1_370"/>
<path d="M88.8 499.4V481.3c0 -2.4 1.9 -4.4 4.3 -4.4h550c2.4 0 4.3 2 4.3 4.4v18.1c0 2.4 -1.9 4.3 -4.3 4.3H93.1c-2.4 0 -4.3 -1.9 -4.3 -4.3Z" class="g0_370"/>
<path d="M86.6 474.8v31.1" class="g1_370"/>
</svg>