<?xml version="1.0" encoding="UTF-8" standalone="no"?>
<!DOCTYPE svg PUBLIC "-//W3C//DTD SVG 1.1//EN"
"http://www.w3.org/Graphics/SVG/1.1/DTD/svg11.dtd">
<svg viewBox="0 0 714 1017" version="1.1" xmlns="http://www.w3.org/2000/svg" xmlns:xlink="http://www.w3.org/1999/xlink">
<defs>
<clipPath id="c0_402"><path d="M86.6 422.4V307.8H657.2V422.4Z"/></clipPath>
<clipPath id="c1_402"><path d="M86.6 422.6V306.4H658V422.6Z"/></clipPath>
<clipPath id="c2_402"><path d="M175.6 799.2V573.1h385V799.2Z"/></clipPath>
<style type="text/css"><![CDATA[
.g0_402{
fill: #FFF;
}
.g1_402{
fill: none;
stroke: #000;
stroke-width: 1.145;
stroke-miterlimit: 10;
}
.g2_402{
fill: #000;
}
]]></style>
</defs>
<path d="M0 1017.7H717.2V-3.7H0V1017.7Z" class="g0_402"/>
<g clip-path="url(#c1_402)">
<g clip-path="url(#c0_402)">
<path d="M86.6 307.8H657.2V422.4H86.6V307.8Z" class="g0_402"/>
<path d="M87.2 308.4H657.8V423H87.2V308.4Z" class="g0_402"/>
</g>
<path d="M96.4 308.4h68.7v34.3H96.4V308.4Zm68.7 0h68.6v34.3H165.1V308.4Zm68.8 0h68.5v34.3H233.9V308.4Zm68.7 0h68.6v34.3H302.6V308.4Zm68.8 0h68.5v34.3H371.4V308.4Zm68.7 0h68.6v34.3H440.1V308.4Zm68.8 0h68.5v34.3H508.9V308.4Zm68.9 0h68.6v34.3H577.8V308.4ZM96.4 342.7v68.8m206 -68.8v45.8m344 -45.8v68.8M440.1 342.7v22.9M103.7 411.5H639.1" class="g1_402"/>
<path d="M97.6 411.5l8.1 -2.7l-2 2.7l2 2.7l-8.1 -2.7Z" class="g2_402"/>
<path d="M97.6 411.5l8.1 -2.7l-2 2.7l2 2.7l-8.1 -2.7Z" class="g1_402"/>
<path d="M645.1 411.5l-8.1 2.7l2.1 -2.7L637 408.8l8.1 2.7Z" class="g2_402"/>
<path d="M645.1 411.5l-8.1 2.7l2.1 -2.7L637 408.8l8.1 2.7Z" class="g1_402"/>
<path d="M313.5 402.9H429.2v17.2H313.5V402.9Z" class="g0_402"/>
<path d="M309.9 388.6H639.1" class="g1_402"/>
<path d="M303.9 388.6l8 -2.7l-2 2.7l2 2.6l-8 -2.6Z" class="g2_402"/>
<path d="M303.9 388.6l8 -2.7l-2 2.7l2 2.6l-8 -2.6Z" class="g1_402"/>
<path d="M645.1 388.6l-8.1 2.6l2.1 -2.6L637 385.9l8.1 2.7Z" class="g2_402"/>
<path d="M645.1 388.6l-8.1 2.6l2.1 -2.6L637 385.9l8.1 2.7Z" class="g1_402"/>
<path d="M402.9 380H546.1v17.2H402.9V380Z" class="g0_402"/>
<path d="M447.4 365.7H639.1" class="g1_402"/>
<path d="M441.4 365.7l8 -2.7l-2 2.7l2 2.6l-8 -2.6Z" class="g2_402"/>
<path d="M441.4 365.7l8 -2.7l-2 2.7l2 2.6l-8 -2.6Z" class="g1_402"/>
<path d="M645.1 365.7l-8.1 2.6l2.1 -2.6L637 363l8.1 2.7Z" class="g2_402"/>
<path d="M645.1 365.7l-8.1 2.6l2.1 -2.6L637 363l8.1 2.7Z" class="g1_402"/>
<path d="M486.5 357.1H599.9v17.2H486.5V357.1Z" class="g0_402"/>
</g>
<g clip-path="url(#c2_402)">
<path d="M175.6 574.4h385V799h-385V574.4Z" class="g0_402"/>
<path d="M184.2 789.2V590.3" class="g1_402"/>
<path d="M184.2 584.3l2.7 8l-2.7 -2l-2.7 2l2.7 -8Z" class="g2_402"/>
<path d="M184.2 584.3l2.7 8l-2.7 -2l-2.7 2l2.7 -8Zm0 204.9H543.6" class="g1_402"/>
<path d="M549.6 789.2l-8 2.7l2 -2.7l-2 -2.6l8 2.6Z" class="g2_402"/>
<path d="M549.6 789.2l-8 2.7l2 -2.7l-2 -2.6l8 2.6ZM195.7 777.8c22.9 -45.8 42 -78.3 57.3 -97.4c15.2 -19.1 34.3 -32.5 57.2 -40.1c23 -7.6 99.4 -12.6 229.2 -14.9" class="g1_402"/>
</g>
</svg>