<?xml version="1.0" encoding="UTF-8" standalone="no"?>
<!DOCTYPE svg PUBLIC "-//W3C//DTD SVG 1.1//EN"
"http://www.w3.org/Graphics/SVG/1.1/DTD/svg11.dtd">
<svg viewBox="0 0 714 1017" version="1.1" xmlns="http://www.w3.org/2000/svg" xmlns:xlink="http://www.w3.org/1999/xlink">
<defs>
<clipPath id="c0_124"><path d="M185.4 883.3V653H586.5V883.3Z"/></clipPath>
<clipPath id="c1_124"><path d="M185.4 883.6V652.9H588.8V883.6Z"/></clipPath>
<style type="text/css"><![CDATA[
.g0_124{
fill: #FFF;
}
.g1_124{
fill: none;
stroke: #000;
stroke-width: 1.145;
stroke-miterlimit: 10;
}
.g2_124{
fill: #000;
}
]]></style>
</defs>
<path d="M0 1017.7H717.2V-3.7H0V1017.7Z" class="g0_124"/>
<g clip-path="url(#c1_124)">
<path d="M185.4 653H586.5V883.3H185.4V653Z" class="g0_124"/>
<path d="M203.3 720.4c54.6 0 81.9 2.2 81.9 6.7c0 4.4 25.7 6.7 77.1 6.7" class="g1_124"/>
<path d="M365.8 733.8l-4.6 1.5l1.1 -1.5l-1.1 -1.5l4.6 1.5Z" class="g2_124"/>
<path d="M365.8 733.8l-4.6 1.5l1.1 -1.5l-1.1 -1.5l4.6 1.5Z" class="g1_124"/>
<path d="M203.3 720.4c0 .4 0 .9 -.1 1.3c-.1 .5 -.2 .9 -.4 1.4c-.2 .4 -.4 .8 -.7 1.2c-.2 .3 -.5 .7 -.8 1c-.4 .3 -.7 .6 -1.1 .9c-.4 .2 -.8 .5 -1.2 .6c-.4 .2 -.9 .3 -1.3 .4c-.5 .1 -.9 .2 -1.4 .2c-.4 0 -.9 -.1 -1.3 -.2c-.5 -.1 -.9 -.2 -1.3 -.4c-.5 -.1 -.9 -.4 -1.3 -.6c-.3 -.3 -.7 -.6 -1 -.9c-.3 -.3 -.6 -.7 -.9 -1c-.2 -.4 -.5 -.8 -.6 -1.2c-.2 -.5 -.3 -.9 -.4 -1.4c-.1 -.4 -.2 -.9 -.2 -1.3c0 -.5 .1 -.9 .2 -1.4c.1 -.4 .2 -.9 .4 -1.3c.1 -.4 .4 -.8 .6 -1.2c.3 -.4 .6 -.7 .9 -1.1c.3 -.3 .7 -.6 1 -.8c.4 -.3 .8 -.5 1.3 -.7c.4 -.2 .8 -.3 1.3 -.4c.4 -.1 .9 -.1 1.3 -.1c.5 0 .9 0 1.4 .1c.4 .1 .9 .2 1.3 .4c.4 .2 .8 .4 1.2 .7c.4 .2 .7 .5 1.1 .8c.3 .4 .6 .7 .8 1.1c.3 .4 .5 .8 .7 1.2c.2 .4 .3 .9 .4 1.3c.1 .5 .1 .9 .1 1.4Z" class="g2_124"/>
<path d="M221.8 706.4c48.4 0 72.6 10.3 72.6 30.9c0 20.6 22.7 30.9 67.9 30.9" class="g1_124"/>
<path d="M365.8 768.2l-4.6 1.5l1.1 -1.5l-1.1 -1.6l4.6 1.6Z" class="g2_124"/>
<path d="M365.8 768.2l-4.6 1.5l1.1 -1.5l-1.1 -1.6l4.6 1.6Z" class="g1_124"/>
<path d="M221.8 706.4c0 .5 -.1 .9 -.2 1.4c-.1 .4 -.2 .8 -.4 1.3c-.1 .4 -.4 .8 -.6 1.2c-.3 .4 -.6 .7 -.9 1c-.3 .4 -.7 .7 -1 .9c-.4 .3 -.8 .5 -1.3 .7c-.4 .1 -.8 .3 -1.3 .4c-.4 0 -.9 .1 -1.3 .1c-.5 0 -.9 -.1 -1.4 -.1c-.4 -.1 -.9 -.3 -1.3 -.4c-.4 -.2 -.8 -.4 -1.2 -.7c-.4 -.2 -.7 -.5 -1.1 -.9c-.3 -.3 -.6 -.6 -.8 -1c-.3 -.4 -.5 -.8 -.7 -1.2c-.2 -.5 -.3 -.9 -.4 -1.3c-.1 -.5 -.1 -.9 -.1 -1.4c0 -.5 0 -.9 .1 -1.4c.1 -.4 .2 -.9 .4 -1.3c.2 -.4 .4 -.8 .7 -1.2c.2 -.4 .5 -.7 .8 -1c.4 -.4 .7 -.7 1.1 -.9c.4 -.3 .8 -.5 1.2 -.7c.4 -.1 .9 -.3 1.3 -.4c.5 -.1 .9 -.1 1.4 -.1c.4 0 .9 0 1.3 .1c.5 .1 .9 .3 1.3 .4c.5 .2 .9 .4 1.3 .7c.3 .2 .7 .5 1 .9c.3 .3 .6 .6 .9 1c.2 .4 .5 .8 .6 1.2c.2 .4 .3 .9 .4 1.3c.1 .5 .2 .9 .2 1.4Z" class="g2_124"/>
<path d="M275.6 746.5c30.5 0 45.7 14.1 45.7 42.3c0 28.3 13.7 42.4 41 42.4" class="g1_124"/>
<path d="M365.8 831.2l-4.6 1.5l1.1 -1.5l-1.1 -1.5l4.6 1.5Z" class="g2_124"/>
<path d="M365.8 831.2l-4.6 1.5l1.1 -1.5l-1.1 -1.5l4.6 1.5Z" class="g1_124"/>
<path d="M275.6 746.5c0 .5 0 .9 -.1 1.4c-.1 .4 -.2 .9 -.4 1.3c-.2 .4 -.4 .8 -.7 1.2c-.2 .4 -.5 .7 -.8 1c-.4 .4 -.7 .7 -1.1 .9c-.4 .3 -.8 .5 -1.2 .7c-.4 .1 -.9 .3 -1.3 .4c-.5 0 -.9 .1 -1.4 .1c-.4 0 -.9 -.1 -1.3 -.1c-.5 -.1 -.9 -.3 -1.3 -.4c-.5 -.2 -.9 -.4 -1.3 -.7c-.3 -.2 -.7 -.5 -1 -.9c-.3 -.3 -.6 -.6 -.9 -1c-.2 -.4 -.5 -.8 -.6 -1.2c-.2 -.4 -.3 -.9 -.4 -1.3c-.1 -.5 -.2 -.9 -.2 -1.4c0 -.5 .1 -.9 .2 -1.4c.1 -.4 .2 -.9 .4 -1.3c.1 -.4 .4 -.8 .6 -1.2c.3 -.4 .6 -.7 .9 -1c.3 -.4 .7 -.7 1 -.9c.4 -.3 .8 -.5 1.3 -.7c.4 -.1 .8 -.3 1.3 -.4c.4 0 .9 -.1 1.3 -.1c.5 0 .9 .1 1.4 .1c.4 .1 .9 .3 1.3 .4c.4 .2 .8 .4 1.2 .7c.4 .2 .7 .5 1.1 .9c.3 .3 .6 .6 .8 1c.3 .4 .5 .8 .7 1.2c.2 .4 .3 .9 .4 1.3c.1 .5 .1 .9 .1 1.4Z" class="g2_124"/>
<path d="M221.8 752.2c48.4 0 72.6 14.1 72.6 42.4c0 28.2 22.7 42.3 67.9 42.3" class="g1_124"/>
<path d="M365.8 836.9l-4.6 1.5l1.1 -1.5l-1.1 -1.5l4.6 1.5Z" class="g2_124"/>
<path d="M365.8 836.9l-4.6 1.5l1.1 -1.5l-1.1 -1.5l4.6 1.5Z" class="g1_124"/>
<path d="M221.8 752.2c0 .5 -.1 .9 -.2 1.4c-.1 .4 -.2 .9 -.4 1.3c-.1 .4 -.4 .8 -.6 1.2c-.3 .4 -.6 .7 -.9 1.1c-.3 .3 -.7 .6 -1 .8c-.4 .3 -.8 .5 -1.3 .7c-.4 .2 -.8 .3 -1.3 .4c-.4 .1 -.9 .1 -1.3 .1c-.5 0 -.9 0 -1.4 -.1c-.4 -.1 -.9 -.2 -1.3 -.4c-.4 -.2 -.8 -.4 -1.2 -.7c-.4 -.2 -.7 -.5 -1.1 -.8c-.3 -.4 -.6 -.7 -.8 -1.1c-.3 -.4 -.5 -.8 -.7 -1.2c-.2 -.4 -.3 -.9 -.4 -1.3c-.1 -.5 -.1 -.9 -.1 -1.4c0 -.4 0 -.9 .1 -1.3c.1 -.5 .2 -.9 .4 -1.3c.2 -.5 .4 -.9 .7 -1.3c.2 -.3 .5 -.7 .8 -1c.4 -.3 .7 -.6 1.1 -.9c.4 -.2 .8 -.5 1.2 -.6c.4 -.2 .9 -.3 1.3 -.4c.5 -.1 .9 -.2 1.4 -.2c.4 0 .9 .1 1.3 .2c.5 .1 .9 .2 1.3 .4c.5 .1 .9 .4 1.3 .6c.3 .3 .7 .6 1 .9c.3 .3 .6 .7 .9 1c.2 .4 .5 .8 .6 1.3c.2 .4 .3 .8 .4 1.3c.1 .4 .2 .9 .2 1.3Z" class="g2_124"/>
<path d="M221.8 798.1c48.4 0 72.6 11.2 72.6 33.8c0 22.6 22.7 33.9 67.9 33.9" class="g1_124"/>
<path d="M365.8 865.8l-4.6 1.5l1.1 -1.5l-1.1 -1.5l4.6 1.5Z" class="g2_124"/>
<path d="M365.8 865.8l-4.6 1.5l1.1 -1.5l-1.1 -1.5l4.6 1.5Z" class="g1_124"/>
<path d="M221.8 798.1c0 .4 -.1 .9 -.2 1.3c-.1 .5 -.2 .9 -.4 1.3c-.1 .5 -.4 .9 -.6 1.2c-.3 .4 -.6 .8 -.9 1.1c-.3 .3 -.7 .6 -1 .9c-.4 .2 -.8 .4 -1.3 .6c-.4 .2 -.8 .3 -1.3 .4c-.4 .1 -.9 .2 -1.3 .2c-.5 0 -.9 -.1 -1.4 -.2c-.4 -.1 -.9 -.2 -1.3 -.4c-.4 -.2 -.8 -.4 -1.2 -.6c-.4 -.3 -.7 -.6 -1.1 -.9c-.3 -.3 -.6 -.7 -.8 -1.1c-.3 -.3 -.5 -.7 -.7 -1.2c-.2 -.4 -.3 -.8 -.4 -1.3c-.1 -.4 -.1 -.9 -.1 -1.3c0 -.5 0 -1 .1 -1.4c.1 -.5 .2 -.9 .4 -1.3c.2 -.4 .4 -.8 .7 -1.2c.2 -.4 .5 -.8 .8 -1.1c.4 -.3 .7 -.6 1.1 -.9c.4 -.2 .8 -.4 1.2 -.6c.4 -.2 .9 -.3 1.3 -.4c.5 -.1 .9 -.1 1.4 -.1c.4 0 .9 0 1.3 .1c.5 .1 .9 .2 1.3 .4c.5 .2 .9 .4 1.3 .6c.3 .3 .7 .6 1 .9c.3 .3 .6 .7 .9 1.1c.2 .4 .5 .8 .6 1.2c.2 .4 .3 .8 .4 1.3c.1 .4 .2 .9 .2 1.4Z" class="g2_124"/>
<path d="M279.1 786.6c29.3 0 44 -14.5 44 -43.6c0 -29.1 13 -43.6 39.2 -43.6" class="g1_124"/>
<path d="M365.8 699.4l-4.6 1.5l1.1 -1.5l-1.1 -1.5l4.6 1.5Z" class="g2_124"/>
<path d="M365.8 699.4l-4.6 1.5l1.1 -1.5l-1.1 -1.5l4.6 1.5Z" class="g1_124"/>
<path d="M279.1 786.6c0 .5 -.1 .9 -.2 1.4c-.1 .4 -.2 .9 -.4 1.3c-.2 .4 -.4 .8 -.6 1.2c-.3 .4 -.6 .7 -.9 1c-.3 .4 -.7 .7 -1.1 .9c-.3 .3 -.7 .5 -1.2 .7c-.4 .1 -.8 .3 -1.3 .4c-.4 .1 -.9 .1 -1.3 .1c-.5 0 -.9 0 -1.4 -.1c-.4 -.1 -.9 -.3 -1.3 -.4c-.4 -.2 -.8 -.4 -1.2 -.7c-.4 -.2 -.8 -.5 -1.1 -.9c-.3 -.3 -.6 -.6 -.8 -1c-.3 -.4 -.5 -.8 -.7 -1.2c-.2 -.4 -.3 -.9 -.4 -1.3c-.1 -.5 -.1 -.9 -.1 -1.4c0 -.5 0 -.9 .1 -1.4c.1 -.4 .2 -.8 .4 -1.3c.2 -.4 .4 -.8 .7 -1.2c.2 -.4 .5 -.7 .8 -1c.3 -.4 .7 -.7 1.1 -.9c.4 -.3 .8 -.5 1.2 -.7c.4 -.1 .9 -.3 1.3 -.4c.5 0 .9 -.1 1.4 -.1c.4 0 .9 .1 1.3 .1c.5 .1 .9 .3 1.3 .4c.5 .2 .9 .4 1.2 .7c.4 .2 .8 .5 1.1 .9c.3 .3 .6 .6 .9 1c.2 .4 .4 .8 .6 1.2c.2 .5 .3 .9 .4 1.3c.1 .5 .2 .9 .2 1.4Z" class="g2_124"/>
<path d="M256.1 821c37 0 55.5 8.4 55.5 25.2c0 16.9 16.9 25.3 50.7 25.3" class="g1_124"/>
<path d="M365.8 871.5l-4.6 1.5l1.1 -1.5L361.2 870l4.6 1.5Z" class="g2_124"/>
<path d="M365.8 871.5l-4.6 1.5l1.1 -1.5L361.2 870l4.6 1.5Z" class="g1_124"/>
<path d="M256.1 821c0 .4 0 .9 -.1 1.3c-.1 .5 -.2 .9 -.4 1.4c-.2 .4 -.4 .8 -.6 1.2c-.3 .3 -.6 .7 -.9 1c-.3 .3 -.7 .6 -1.1 .9c-.3 .2 -.8 .5 -1.2 .6c-.4 .2 -.8 .3 -1.3 .4c-.4 .1 -.9 .2 -1.3 .2c-.5 0 -1 -.1 -1.4 -.2c-.5 -.1 -.9 -.2 -1.3 -.4c-.4 -.1 -.9 -.4 -1.2 -.6c-.4 -.3 -.8 -.6 -1.1 -.9c-.3 -.3 -.6 -.7 -.9 -1c-.2 -.4 -.4 -.8 -.6 -1.2c-.2 -.5 -.3 -.9 -.4 -1.4c-.1 -.4 -.1 -.9 -.1 -1.3c0 -.5 0 -.9 .1 -1.4c.1 -.4 .2 -.9 .4 -1.3c.2 -.4 .4 -.8 .6 -1.2c.3 -.4 .6 -.7 .9 -1.1c.3 -.3 .7 -.6 1.1 -.8c.3 -.3 .8 -.5 1.2 -.7c.4 -.2 .8 -.3 1.3 -.4c.4 -.1 .9 -.1 1.4 -.1c.4 0 .9 0 1.3 .1c.5 .1 .9 .2 1.3 .4c.4 .2 .9 .4 1.2 .7c.4 .2 .8 .5 1.1 .8c.3 .4 .6 .7 .9 1.1c.2 .4 .4 .8 .6 1.2c.2 .4 .3 .9 .4 1.3c.1 .5 .1 .9 .1 1.4Z" class="g2_124"/>
<path d="M203.4 843.9c54.6 0 81.8 -13.6 81.8 -40.7c0 -27.2 25.7 -40.8 77.1 -40.8" class="g1_124"/>
<path d="M365.8 762.4l-4.6 1.6l1.1 -1.6l-1.1 -1.5l4.6 1.5Z" class="g2_124"/>
<path d="M365.8 762.4l-4.6 1.6l1.1 -1.6l-1.1 -1.5l4.6 1.5Z" class="g1_124"/>
<path d="M203.4 843.9c0 .5 0 .9 -.1 1.4c-.1 .4 -.2 .8 -.4 1.3c-.2 .4 -.4 .8 -.6 1.2c-.3 .4 -.6 .7 -.9 1c-.3 .4 -.7 .7 -1.1 .9c-.4 .3 -.8 .5 -1.2 .7c-.4 .1 -.8 .3 -1.3 .4c-.4 0 -.9 .1 -1.4 .1c-.4 0 -.9 -.1 -1.3 -.1c-.5 -.1 -.9 -.3 -1.3 -.4c-.5 -.2 -.9 -.4 -1.2 -.7c-.4 -.2 -.8 -.5 -1.1 -.9c-.3 -.3 -.6 -.6 -.9 -1c-.2 -.4 -.4 -.8 -.6 -1.2c-.2 -.5 -.3 -.9 -.4 -1.3c-.1 -.5 -.1 -.9 -.1 -1.4c0 -.5 0 -.9 .1 -1.4c.1 -.4 .2 -.9 .4 -1.3c.2 -.4 .4 -.8 .6 -1.2c.3 -.4 .6 -.7 .9 -1c.3 -.4 .7 -.7 1.1 -.9c.3 -.3 .7 -.5 1.2 -.7c.4 -.1 .8 -.3 1.3 -.4c.4 -.1 .9 -.1 1.3 -.1c.5 0 1 0 1.4 .1c.5 .1 .9 .3 1.3 .4c.4 .2 .8 .4 1.2 .7c.4 .2 .8 .5 1.1 .9c.3 .3 .6 .6 .9 1c.2 .4 .4 .8 .6 1.2c.2 .4 .3 .9 .4 1.3c.1 .5 .1 .9 .1 1.4Z" class="g2_124"/>
<path d="M247 772.9c40 0 60 -5.6 60 -16.7c0 -11.1 18.5 -16.7 55.3 -16.7" class="g1_124"/>
<path d="M365.8 739.5l-4.6 1.5l1.1 -1.5L361.2 738l4.6 1.5Z" class="g2_124"/>
<path d="M365.8 739.5l-4.6 1.5l1.1 -1.5L361.2 738l4.6 1.5Z" class="g1_124"/>
<path d="M247 772.9c0 .4 -.1 .9 -.2 1.3c-.1 .5 -.2 .9 -.4 1.3c-.1 .5 -.4 .9 -.6 1.2c-.3 .4 -.5 .8 -.9 1.1c-.3 .3 -.7 .6 -1 .9c-.4 .2 -.8 .4 -1.2 .6c-.5 .2 -.9 .3 -1.4 .4c-.4 .1 -.9 .1 -1.3 .1c-.5 0 -.9 0 -1.4 -.1c-.4 -.1 -.9 -.2 -1.3 -.4c-.4 -.2 -.8 -.4 -1.2 -.6c-.4 -.3 -.7 -.6 -1.1 -.9c-.3 -.3 -.6 -.7 -.8 -1.1c-.3 -.3 -.5 -.7 -.7 -1.2c-.1 -.4 -.3 -.8 -.4 -1.3c-.1 -.4 -.1 -.9 -.1 -1.3c0 -.5 0 -1 .1 -1.4c.1 -.5 .3 -.9 .4 -1.3c.2 -.4 .4 -.8 .7 -1.2c.2 -.4 .5 -.8 .8 -1.1c.4 -.3 .7 -.6 1.1 -.9c.4 -.2 .8 -.4 1.2 -.6c.4 -.2 .9 -.3 1.3 -.4c.5 -.1 .9 -.1 1.4 -.1c.4 0 .9 0 1.3 .1c.5 .1 .9 .2 1.4 .4c.4 .2 .8 .4 1.2 .6c.3 .3 .7 .6 1 .9c.4 .3 .6 .7 .9 1.1c.2 .4 .5 .8 .6 1.2c.2 .4 .3 .8 .4 1.3c.1 .4 .2 .9 .2 1.4Z" class="g2_124"/>
<path d="M256.1 694.9c37 0 55.5 -.2 55.5 -.6c0 -.4 16.9 -.6 50.7 -.6" class="g1_124"/>
<path d="M365.8 693.7l-4.6 1.5l1.1 -1.5l-1.1 -1.5l4.6 1.5Z" class="g2_124"/>
<path d="M365.8 693.7l-4.6 1.5l1.1 -1.5l-1.1 -1.5l4.6 1.5Z" class="g1_124"/>
<path d="M256.1 694.9c0 .5 0 1 -.1 1.4c-.1 .5 -.2 .9 -.4 1.3c-.2 .4 -.4 .8 -.6 1.2c-.3 .4 -.6 .8 -.9 1.1c-.3 .3 -.7 .6 -1.1 .9c-.3 .2 -.8 .4 -1.2 .6c-.4 .2 -.8 .3 -1.3 .4c-.4 .1 -.9 .1 -1.3 .1c-.5 0 -1 0 -1.4 -.1c-.5 -.1 -.9 -.2 -1.3 -.4c-.4 -.2 -.9 -.4 -1.2 -.6c-.4 -.3 -.8 -.6 -1.1 -.9c-.3 -.3 -.6 -.7 -.9 -1.1c-.2 -.4 -.4 -.8 -.6 -1.2c-.2 -.4 -.3 -.8 -.4 -1.3c-.1 -.4 -.1 -.9 -.1 -1.4c0 -.4 0 -.9 .1 -1.3c.1 -.5 .2 -.9 .4 -1.3c.2 -.5 .4 -.9 .6 -1.2c.3 -.4 .6 -.8 .9 -1.1c.3 -.3 .7 -.6 1.1 -.9c.3 -.2 .8 -.4 1.2 -.6c.4 -.2 .8 -.3 1.3 -.4c.4 -.1 .9 -.2 1.4 -.2c.4 0 .9 .1 1.3 .2c.5 .1 .9 .2 1.3 .4c.4 .2 .9 .4 1.2 .6c.4 .3 .8 .6 1.1 .9c.3 .3 .6 .7 .9 1.1c.2 .3 .4 .7 .6 1.2c.2 .4 .3 .8 .4 1.3c.1 .4 .1 .9 .1 1.3Z" class="g2_124"/>
<path d="M256.1 733.9c37 0 55.5 11.4 55.5 34.3c0 22.9 16.9 34.3 50.7 34.3" class="g1_124"/>
<path d="M365.8 802.5l-4.6 1.6l1.1 -1.6L361.2 801l4.6 1.5Z" class="g2_124"/>
<path d="M365.8 802.5l-4.6 1.6l1.1 -1.6L361.2 801l4.6 1.5Z" class="g1_124"/>
<path d="M256.1 733.9c0 .5 0 .9 -.1 1.4c-.1 .4 -.2 .8 -.4 1.3c-.2 .4 -.4 .8 -.6 1.2c-.3 .4 -.6 .7 -.9 1c-.3 .4 -.7 .7 -1.1 .9c-.3 .3 -.8 .5 -1.2 .7c-.4 .1 -.8 .3 -1.3 .4c-.4 0 -.9 .1 -1.3 .1c-.5 0 -1 -.1 -1.4 -.1c-.5 -.1 -.9 -.3 -1.3 -.4c-.4 -.2 -.9 -.4 -1.2 -.7c-.4 -.2 -.8 -.5 -1.1 -.9c-.3 -.3 -.6 -.6 -.9 -1c-.2 -.4 -.4 -.8 -.6 -1.2c-.2 -.5 -.3 -.9 -.4 -1.3c-.1 -.5 -.1 -.9 -.1 -1.4c0 -.5 0 -.9 .1 -1.4c.1 -.4 .2 -.9 .4 -1.3c.2 -.4 .4 -.8 .6 -1.2c.3 -.4 .6 -.7 .9 -1c.3 -.4 .7 -.7 1.1 -.9c.3 -.3 .8 -.5 1.2 -.7c.4 -.1 .8 -.3 1.3 -.4c.4 -.1 .9 -.1 1.4 -.1c.4 0 .9 0 1.3 .1c.5 .1 .9 .3 1.3 .4c.4 .2 .9 .4 1.2 .7c.4 .2 .8 .5 1.1 .9c.3 .3 .6 .6 .9 1c.2 .4 .4 .8 .6 1.2c.2 .4 .3 .9 .4 1.3c.1 .5 .1 .9 .1 1.4Z" class="g2_124"/>
<path d="M221.8 832.4c48.4 0 72.6 -5.9 72.6 -17.8c0 -11.9 22.7 -17.8 67.9 -17.8" class="g1_124"/>
<path d="M365.8 796.8l-4.6 1.5l1.1 -1.5l-1.1 -1.5l4.6 1.5Z" class="g2_124"/>
<path d="M365.8 796.8l-4.6 1.5l1.1 -1.5l-1.1 -1.5l4.6 1.5Z" class="g1_124"/>
<path d="M221.8 832.4c0 .5 -.1 1 -.2 1.4c-.1 .5 -.2 .9 -.4 1.3c-.1 .4 -.4 .8 -.6 1.2c-.3 .4 -.6 .8 -.9 1.1c-.3 .3 -.7 .6 -1 .9c-.4 .2 -.8 .4 -1.3 .6c-.4 .2 -.8 .3 -1.3 .4c-.4 .1 -.9 .1 -1.3 .1c-.5 0 -.9 0 -1.4 -.1c-.4 -.1 -.9 -.2 -1.3 -.4c-.4 -.2 -.8 -.4 -1.2 -.6c-.4 -.3 -.7 -.6 -1.1 -.9c-.3 -.3 -.6 -.7 -.8 -1.1c-.3 -.4 -.5 -.8 -.7 -1.2c-.2 -.4 -.3 -.8 -.4 -1.3c-.1 -.4 -.1 -.9 -.1 -1.4c0 -.4 0 -.9 .1 -1.3c.1 -.5 .2 -.9 .4 -1.3c.2 -.5 .4 -.9 .7 -1.2c.2 -.4 .5 -.8 .8 -1.1c.4 -.3 .7 -.6 1.1 -.9c.4 -.2 .8 -.4 1.2 -.6c.4 -.2 .9 -.3 1.3 -.4c.5 -.1 .9 -.2 1.4 -.2c.4 0 .9 .1 1.3 .2c.5 .1 .9 .2 1.3 .4c.5 .2 .9 .4 1.3 .6c.3 .3 .7 .6 1 .9c.3 .3 .6 .7 .9 1.1c.2 .3 .5 .7 .6 1.2c.2 .4 .3 .8 .4 1.3c.1 .4 .2 .9 .2 1.3Z" class="g2_124"/>
<path d="M202.3 809.5c54.9 0 82.4 -5.9 82.4 -17.8c0 -11.9 25.9 -17.8 77.6 -17.8" class="g1_124"/>
<path d="M365.8 773.9l-4.6 1.5l1.1 -1.5l-1.1 -1.5l4.6 1.5Z" class="g2_124"/>
<path d="M365.8 773.9l-4.6 1.5l1.1 -1.5l-1.1 -1.5l4.6 1.5Z" class="g1_124"/>
<path d="M202.3 809.5c0 .5 -.1 .9 -.1 1.4c-.1 .4 -.3 .9 -.4 1.3c-.2 .4 -.4 .8 -.7 1.2c-.2 .4 -.5 .7 -.9 1.1c-.3 .3 -.6 .6 -1 .8c-.4 .3 -.8 .5 -1.2 .7c-.5 .2 -.9 .3 -1.3 .4c-.5 .1 -.9 .1 -1.4 .1c-.5 0 -.9 0 -1.4 -.1c-.4 -.1 -.9 -.2 -1.3 -.4c-.4 -.2 -.8 -.4 -1.2 -.7c-.4 -.2 -.7 -.5 -1 -.8c-.4 -.4 -.7 -.7 -.9 -1.1c-.3 -.4 -.5 -.8 -.7 -1.2c-.1 -.4 -.3 -.9 -.4 -1.3c0 -.5 -.1 -.9 -.1 -1.4c0 -.4 .1 -.9 .1 -1.3c.1 -.5 .3 -.9 .4 -1.4c.2 -.4 .4 -.8 .7 -1.2c.2 -.3 .5 -.7 .9 -1c.3 -.3 .6 -.6 1 -.9c.4 -.2 .8 -.5 1.2 -.6c.4 -.2 .9 -.3 1.3 -.4c.5 -.1 .9 -.2 1.4 -.2c.5 0 .9 .1 1.4 .2c.4 .1 .8 .2 1.3 .4c.4 .1 .8 .4 1.2 .6c.4 .3 .7 .6 1 .9c.4 .3 .7 .7 .9 1c.3 .4 .5 .8 .7 1.2c.1 .5 .3 .9 .4 1.4c0 .4 .1 .9 .1 1.3Z" class="g2_124"/>
<path d="M200 764.8c55.7 0 83.5 -6.1 83.5 -18.4c0 -12.2 26.3 -18.3 78.8 -18.3" class="g1_124"/>
<path d="M365.8 728.1l-4.6 1.5l1.1 -1.5l-1.1 -1.6l4.6 1.6Z" class="g2_124"/>
<path d="M365.8 728.1l-4.6 1.5l1.1 -1.5l-1.1 -1.6l4.6 1.6Z" class="g1_124"/>
<path d="M200 764.8c0 .5 -.1 .9 -.1 1.4c-.1 .4 -.3 .9 -.4 1.3c-.2 .4 -.4 .8 -.7 1.2c-.2 .4 -.5 .8 -.9 1.1c-.3 .3 -.6 .6 -1 .8c-.4 .3 -.8 .5 -1.2 .7c-.4 .2 -.9 .3 -1.3 .4c-.5 .1 -.9 .1 -1.4 .1c-.5 0 -.9 0 -1.4 -.1c-.4 -.1 -.8 -.2 -1.3 -.4c-.4 -.2 -.8 -.4 -1.2 -.7c-.4 -.2 -.7 -.5 -1 -.8c-.4 -.3 -.7 -.7 -.9 -1.1c-.3 -.4 -.5 -.8 -.7 -1.2c-.1 -.4 -.3 -.9 -.4 -1.3c0 -.5 -.1 -.9 -.1 -1.4c0 -.4 .1 -.9 .1 -1.3c.1 -.5 .3 -.9 .4 -1.3c.2 -.5 .4 -.9 .7 -1.3c.2 -.3 .5 -.7 .9 -1c.3 -.3 .6 -.6 1 -.9c.4 -.2 .8 -.5 1.2 -.6c.5 -.2 .9 -.3 1.3 -.4c.5 -.1 .9 -.2 1.4 -.2c.5 0 .9 .1 1.4 .2c.4 .1 .9 .2 1.3 .4c.4 .1 .8 .4 1.2 .6c.4 .3 .7 .6 1 .9c.4 .3 .7 .7 .9 1c.3 .4 .5 .8 .7 1.3c.1 .4 .3 .8 .4 1.3c0 .4 .1 .9 .1 1.3Z" class="g2_124"/>
<path d="M412.9 699.4l74 -.5" class="g1_124"/>
<path d="M493 698.8l-8 2.8l1.9 -2.7l-2 -2.7l8.1 2.6Z" class="g2_124"/>
<path d="M493 698.8l-8 2.8l1.9 -2.7l-2 -2.7l8.1 2.6ZM367.1 687.9h45.8v23H367.1v-23Zm45.8 45.9l74.1 -12" class="g1_124"/>
<path d="M493 720.8l-7.5 3.9l1.5 -2.9l-2.4 -2.4l8.4 1.4Z" class="g2_124"/>
<path d="M493 720.8l-7.5 3.9l1.5 -2.9l-2.4 -2.4l8.4 1.4Zm-125.9 1.5h45.8v22.9H367.1V722.3Zm45.8 45.9L487 775" class="g1_124"/>
<path d="M493 775.6l-8.3 1.9L487 775l-1.8 -2.8l7.8 3.4Z" class="g2_124"/>
<path d="M493 775.6l-8.3 1.9L487 775l-1.8 -2.8l7.8 3.4ZM367.1 756.7h45.8v22.9H367.1V756.7Zm45.8 45.8L487 797.9" class="g1_124"/>
<path d="M493 797.6l-7.9 3.1l1.9 -2.8l-2.2 -2.5l8.2 2.2Z" class="g2_124"/>
<path d="M493 797.6l-7.9 3.1l1.9 -2.8l-2.2 -2.5l8.2 2.2ZM367.1 791.1h45.8V814H367.1V791.1Zm45.8 45.8L487 849.1" class="g1_124"/>
<path d="M493 850.1l-8.4 1.3l2.4 -2.3l-1.5 -2.9l7.5 3.9Z" class="g2_124"/>
<path d="M493 850.1l-8.4 1.3l2.4 -2.3l-1.5 -2.9l7.5 3.9ZM367.1 825.4h45.8v23H367.1v-23Zm45.8 46.1l74 .5" class="g1_124"/>
<path d="M493 872.1l-8.1 2.6l2 -2.7L485 869.3l8 2.8Z" class="g2_124"/>
<path clip-path="url(#c0_124)" d="M493 872.1l-8.1 2.6l2 -2.7L485 869.3l8 2.8Zm-125.9 -12h45.8V883H367.1V860.1ZM268.7 832.4c32.8 0 49.2 -21.2 49.2 -63.6c0 -42.4 14.8 -63.7 44.4 -63.7" class="g1_124"/>
<path d="M365.8 705.1l-4.6 1.6l1.1 -1.6l-1.1 -1.5l4.6 1.5Z" class="g2_124"/>
<path d="M365.8 705.1l-4.6 1.6l1.1 -1.6l-1.1 -1.5l4.6 1.5Z" class="g1_124"/>
<path d="M268.7 832.4c0 .5 0 1 -.1 1.4c-.1 .5 -.2 .9 -.4 1.3c-.2 .4 -.4 .8 -.6 1.2c-.3 .4 -.6 .8 -.9 1.1c-.3 .3 -.7 .6 -1.1 .9c-.3 .2 -.7 .4 -1.2 .6c-.4 .2 -.8 .3 -1.3 .4c-.4 .1 -.9 .1 -1.3 .1c-.5 0 -1 0 -1.4 -.1c-.5 -.1 -.9 -.2 -1.3 -.4c-.4 -.2 -.8 -.4 -1.2 -.6c-.4 -.3 -.8 -.6 -1.1 -.9c-.3 -.3 -.6 -.7 -.9 -1.1c-.2 -.4 -.4 -.8 -.6 -1.2c-.2 -.4 -.3 -.8 -.4 -1.3c-.1 -.4 -.1 -.9 -.1 -1.4c0 -.4 0 -.9 .1 -1.3c.1 -.5 .2 -.9 .4 -1.3c.2 -.5 .4 -.9 .6 -1.2c.3 -.4 .6 -.8 .9 -1.1c.3 -.3 .7 -.6 1.1 -.9c.4 -.2 .8 -.4 1.2 -.6c.4 -.2 .8 -.3 1.3 -.4c.4 -.1 .9 -.2 1.4 -.2c.4 0 .9 .1 1.3 .2c.5 .1 .9 .2 1.3 .4c.5 .2 .9 .4 1.2 .6c.4 .3 .8 .6 1.1 .9c.3 .3 .6 .7 .9 1.1c.2 .3 .4 .7 .6 1.2c.2 .4 .3 .8 .4 1.3c.1 .4 .1 .9 .1 1.3Z" class="g2_124"/>
<path d="M256.1 855.4c37 0 55.5 3.6 55.5 10.9c0 7.3 16.9 10.9 50.7 10.9" class="g1_124"/>
<path d="M365.8 877.2l-4.6 1.6l1.1 -1.6l-1.1 -1.5l4.6 1.5Z" class="g2_124"/>
<path d="M365.8 877.2l-4.6 1.6l1.1 -1.6l-1.1 -1.5l4.6 1.5Z" class="g1_124"/>
<path d="M256.1 855.4c0 .4 0 .9 -.1 1.3c-.1 .5 -.2 .9 -.4 1.3c-.2 .5 -.4 .9 -.6 1.2c-.3 .4 -.6 .8 -.9 1.1c-.3 .3 -.7 .6 -1.1 .9c-.3 .2 -.8 .4 -1.2 .6c-.4 .2 -.8 .3 -1.3 .4c-.4 .1 -.9 .1 -1.3 .1c-.5 0 -1 0 -1.4 -.1c-.5 -.1 -.9 -.2 -1.3 -.4c-.4 -.2 -.9 -.4 -1.2 -.6c-.4 -.3 -.8 -.6 -1.1 -.9c-.3 -.3 -.6 -.7 -.9 -1.1c-.2 -.3 -.4 -.7 -.6 -1.2c-.2 -.4 -.3 -.8 -.4 -1.3c-.1 -.4 -.1 -.9 -.1 -1.3c0 -.5 0 -1 .1 -1.4c.1 -.5 .2 -.9 .4 -1.3c.2 -.4 .4 -.8 .6 -1.2c.3 -.4 .6 -.8 .9 -1.1c.3 -.3 .7 -.6 1.1 -.9c.3 -.2 .8 -.4 1.2 -.6c.4 -.2 .8 -.3 1.3 -.4c.4 -.1 .9 -.1 1.4 -.1c.4 0 .9 0 1.3 .1c.5 .1 .9 .2 1.3 .4c.4 .2 .9 .4 1.2 .6c.4 .3 .8 .6 1.1 .9c.3 .3 .6 .7 .9 1.1c.2 .4 .4 .8 .6 1.2c.2 .4 .3 .8 .4 1.3c.1 .4 .1 .9 .1 1.4Z" class="g2_124"/>
<path d="M221.8 866.8c48.4 0 72.6 -4 72.6 -12.1c0 -8 22.7 -12.1 67.9 -12.1" class="g1_124"/>
<path d="M365.8 842.6l-4.6 1.6l1.1 -1.6l-1.1 -1.5l4.6 1.5Z" class="g2_124"/>
<path d="M365.8 842.6l-4.6 1.6l1.1 -1.6l-1.1 -1.5l4.6 1.5Z" class="g1_124"/>
<path d="M221.8 866.8c0 .5 -.1 .9 -.2 1.4c-.1 .4 -.2 .9 -.4 1.3c-.1 .4 -.4 .8 -.6 1.2c-.3 .4 -.6 .7 -.9 1.1c-.3 .3 -.7 .6 -1 .8c-.4 .3 -.8 .5 -1.3 .7c-.4 .1 -.8 .3 -1.3 .4c-.4 .1 -.9 .1 -1.3 .1c-.5 0 -.9 0 -1.4 -.1c-.4 -.1 -.9 -.3 -1.3 -.4c-.4 -.2 -.8 -.4 -1.2 -.7c-.4 -.2 -.7 -.5 -1.1 -.8c-.3 -.4 -.6 -.7 -.8 -1.1c-.3 -.4 -.5 -.8 -.7 -1.2c-.2 -.4 -.3 -.9 -.4 -1.3c-.1 -.5 -.1 -.9 -.1 -1.4c0 -.4 0 -.9 .1 -1.4c.1 -.4 .2 -.8 .4 -1.3c.2 -.4 .4 -.8 .7 -1.2c.2 -.4 .5 -.7 .8 -1c.4 -.4 .7 -.6 1.1 -.9c.4 -.3 .8 -.5 1.2 -.6c.4 -.2 .9 -.4 1.3 -.4c.5 -.1 .9 -.2 1.4 -.2c.4 0 .9 .1 1.3 .2c.5 0 .9 .2 1.3 .4c.5 .1 .9 .3 1.3 .6c.3 .3 .7 .5 1 .9c.3 .3 .6 .6 .9 1c.2 .4 .5 .8 .6 1.2c.2 .5 .3 .9 .4 1.3c.1 .5 .2 1 .2 1.4Z" class="g2_124"/>
<path d="M219.2 775.1c49.3 0 74 5.6 74 16.6c0 11 23 16.6 69.1 16.6" class="g1_124"/>
<path d="M365.8 808.3l-4.6 1.5l1.1 -1.5l-1.1 -1.6l4.6 1.6Z" class="g2_124"/>
<path d="M365.8 808.3l-4.6 1.5l1.1 -1.5l-1.1 -1.6l4.6 1.6Z" class="g1_124"/>
<path d="M219.2 775.1c0 .5 0 1 -.1 1.4c-.1 .5 -.2 .9 -.4 1.3c-.2 .4 -.4 .8 -.6 1.2c-.3 .4 -.6 .8 -.9 1.1c-.3 .3 -.7 .6 -1.1 .9c-.3 .2 -.7 .4 -1.2 .6c-.4 .2 -.8 .3 -1.3 .4c-.4 .1 -.9 .1 -1.3 .1c-.5 0 -1 0 -1.4 -.1c-.5 -.1 -.9 -.2 -1.3 -.4c-.4 -.2 -.8 -.4 -1.2 -.6c-.4 -.3 -.8 -.6 -1.1 -.9c-.3 -.3 -.6 -.7 -.9 -1.1c-.2 -.4 -.4 -.8 -.6 -1.2c-.2 -.4 -.3 -.8 -.4 -1.3c-.1 -.4 -.1 -.9 -.1 -1.4c0 -.4 0 -.9 .1 -1.3c.1 -.5 .2 -.9 .4 -1.3c.2 -.5 .4 -.9 .6 -1.2c.3 -.4 .6 -.8 .9 -1.1c.3 -.3 .7 -.6 1.1 -.9c.4 -.2 .8 -.4 1.2 -.6c.4 -.2 .8 -.3 1.3 -.4c.4 -.1 .9 -.1 1.4 -.1c.4 0 .9 0 1.3 .1c.5 .1 .9 .2 1.3 .4c.5 .2 .9 .4 1.2 .6c.4 .3 .8 .6 1.1 .9c.3 .3 .6 .7 .9 1.1c.2 .3 .4 .7 .6 1.2c.2 .4 .3 .8 .4 1.3c.1 .4 .1 .9 .1 1.3Z" class="g2_124"/>
<path clip-path="url(#c0_124)" d="M500.8 687.9h78.6c.4 0 .8 .1 1.3 .2c.4 .1 .8 .2 1.2 .3c.4 .2 .8 .4 1.1 .6c.4 .3 .7 .6 1 .9c.3 .3 .6 .6 .8 1c.2 .3 .4 .7 .6 1.1c.2 .4 .3 .8 .4 1.2c.1 .4 .1 .9 .1 1.3V725c0 .4 0 .8 -.1 1.2c-.1 .5 -.2 .9 -.4 1.3c-.2 .4 -.4 .7 -.6 1.1c-.2 .3 -.5 .7 -.8 1c-.3 .3 -.6 .6 -1 .8c-.3 .2 -.7 .4 -1.1 .6c-.4 .2 -.8 .3 -1.2 .4c-.5 0 -.9 .1 -1.3 .1H500.8c-.5 0 -.9 -.1 -1.3 -.1c-.4 -.1 -.8 -.2 -1.2 -.4c-.4 -.2 -.8 -.4 -1.2 -.6c-.3 -.2 -.6 -.5 -.9 -.8c-.3 -.3 -.6 -.7 -.9 -1c-.2 -.4 -.4 -.7 -.6 -1.1c-.1 -.4 -.2 -.8 -.3 -1.3c-.1 -.4 -.2 -.8 -.2 -1.2V694.5c0 -.4 .1 -.9 .2 -1.3c.1 -.4 .2 -.8 .3 -1.2c.2 -.4 .4 -.8 .6 -1.1c.3 -.4 .6 -.7 .9 -1c.3 -.3 .6 -.6 .9 -.9c.4 -.2 .8 -.4 1.2 -.6c.4 -.1 .8 -.2 1.2 -.3c.4 -.1 .8 -.2 1.3 -.2Zm0 76.9h78.6c.4 0 .8 .1 1.3 .2c.4 0 .8 .2 1.2 .3c.4 .2 .8 .4 1.1 .6c.4 .3 .7 .5 1 .8c.3 .3 .6 .7 .8 1c.2 .4 .4 .8 .6 1.2c.2 .4 .3 .8 .4 1.2c.1 .4 .1 .8 .1 1.3v30.4c0 .5 0 .9 -.1 1.3c-.1 .4 -.2 .8 -.4 1.2c-.2 .4 -.4 .8 -.6 1.2c-.2 .3 -.5 .7 -.8 1c-.3 .3 -.6 .5 -1 .8c-.3 .2 -.7 .4 -1.1 .6c-.4 .1 -.8 .3 -1.2 .3c-.5 .1 -.9 .2 -1.3 .2H500.8c-.5 0 -.9 -.1 -1.3 -.2c-.4 0 -.8 -.2 -1.2 -.3c-.4 -.2 -.8 -.4 -1.2 -.6c-.3 -.3 -.6 -.5 -.9 -.8c-.3 -.3 -.6 -.7 -.9 -1c-.2 -.4 -.4 -.8 -.6 -1.2c-.1 -.4 -.2 -.8 -.3 -1.2c-.1 -.4 -.2 -.8 -.2 -1.3V771.4c0 -.5 .1 -.9 .2 -1.3c.1 -.4 .2 -.8 .3 -1.2c.2 -.4 .4 -.8 .6 -1.2c.3 -.3 .6 -.7 .9 -1c.3 -.3 .6 -.5 .9 -.8c.4 -.2 .8 -.4 1.2 -.6c.4 -.1 .8 -.3 1.2 -.3c.4 -.1 .8 -.2 1.3 -.2Zm0 74.6h78.6c.4 0 .8 .1 1.3 .2c.4 0 .8 .2 1.2 .3c.4 .2 .8 .4 1.1 .6c.4 .3 .7 .5 1 .8c.3 .3 .6 .7 .8 1c.2 .4 .4 .8 .6 1.2c.2 .4 .3 .8 .4 1.2c.1 .4 .1 .8 .1 1.3v30.4c0 .5 0 .9 -.1 1.3c-.1 .4 -.2 .8 -.4 1.2c-.2 .4 -.4 .8 -.6 1.2c-.2 .3 -.5 .7 -.8 1c-.3 .3 -.6 .5 -1 .8c-.3 .2 -.7 .4 -1.1 .6c-.4 .1 -.8 .3 -1.2 .3c-.5 .1 -.9 .2 -1.3 .2H500.8c-.5 0 -.9 -.1 -1.3 -.2c-.4 0 -.8 -.2 -1.2 -.3c-.4 -.2 -.8 -.4 -1.2 -.6c-.3 -.3 -.6 -.5 -.9 -.8c-.3 -.3 -.6 -.7 -.9 -1c-.2 -.4 -.4 -.8 -.6 -1.2c-.1 -.4 -.2 -.8 -.3 -1.2c-.1 -.4 -.2 -.8 -.2 -1.3V846c0 -.5 .1 -.9 .2 -1.3c.1 -.4 .2 -.8 .3 -1.2c.2 -.4 .4 -.8 .6 -1.2c.3 -.3 .6 -.7 .9 -1c.3 -.3 .6 -.5 .9 -.8c.4 -.2 .8 -.4 1.2 -.6c.4 -.1 .8 -.3 1.2 -.3c.4 -.1 .8 -.2 1.3 -.2Z" class="g1_124"/>
</g>
</svg>