<?xml version="1.0" encoding="UTF-8" standalone="no"?>
<!DOCTYPE svg PUBLIC "-//W3C//DTD SVG 1.1//EN"
"http://www.w3.org/Graphics/SVG/1.1/DTD/svg11.dtd">
<svg viewBox="0 0 714 1017" version="1.1" xmlns="http://www.w3.org/2000/svg" xmlns:xlink="http://www.w3.org/1999/xlink">
<defs>
<clipPath id="c0_242"><path d="M229.9 681.2V588H506.4v93.2Z"/></clipPath>
<clipPath id="c1_242"><path d="M229.9 883.6V790.4H506.4v93.2Z"/></clipPath>
<style type="text/css"><![CDATA[
.g0_242{
fill: #FFF;
}
.g1_242{
fill: none;
stroke: #000;
stroke-width: 1.145;
stroke-miterlimit: 10;
}
.g2_242{
fill: #000;
}
]]></style>
</defs>
<path d="M0 1017.7H717.2V-3.7H0V1017.7Z" class="g0_242"/>
<g clip-path="url(#c0_242)">
<path d="M229.9 588H506v92.8H229.9V588Z" class="g0_242"/>
<path d="M322.1 605.8c0 .6 -.1 1.1 -.2 1.7c-.2 .5 -.4 1.1 -.7 1.6c-.3 .6 -.6 1.1 -1.1 1.7c-.4 .5 -.9 1 -1.5 1.6c-.5 .5 -1.2 1 -1.9 1.5c-.7 .5 -1.5 1 -2.3 1.4c-.8 .5 -1.7 1 -2.7 1.4c-.9 .4 -1.9 .8 -3 1.2c-1.1 .4 -2.2 .8 -3.3 1.2c-1.2 .3 -2.4 .7 -3.7 1c-1.2 .3 -2.5 .6 -3.8 .8c-1.3 .3 -2.7 .6 -4.1 .8c-1.4 .2 -2.8 .4 -4.2 .5c-1.4 .2 -2.9 .3 -4.4 .4c-1.4 .2 -2.9 .2 -4.4 .3c-1.5 0 -3 .1 -4.5 .1c-1.5 0 -3 -.1 -4.5 -.1c-1.5 -.1 -3 -.1 -4.5 -.3c-1.4 -.1 -2.9 -.2 -4.3 -.4c-1.5 -.1 -2.9 -.3 -4.3 -.5c-1.3 -.2 -2.7 -.5 -4 -.8c-1.3 -.2 -2.6 -.5 -3.9 -.8c-1.2 -.3 -2.4 -.7 -3.6 -1c-1.2 -.4 -2.3 -.8 -3.3 -1.2c-1.1 -.4 -2.1 -.8 -3 -1.2c-1 -.4 -1.9 -.9 -2.7 -1.4c-.9 -.4 -1.6 -.9 -2.3 -1.4c-.7 -.5 -1.4 -1 -2 -1.5c-.5 -.6 -1 -1.1 -1.5 -1.6c-.4 -.6 -.8 -1.1 -1.1 -1.7c-.3 -.5 -.5 -1.1 -.6 -1.6c-.2 -.6 -.3 -1.1 -.3 -1.7c0 -.6 .1 -1.1 .3 -1.7c.1 -.6 .3 -1.1 .6 -1.7c.3 -.5 .7 -1.1 1.1 -1.6c.5 -.5 1 -1.1 1.5 -1.6c.6 -.5 1.3 -1 2 -1.5c.7 -.5 1.4 -1 2.3 -1.5c.8 -.4 1.7 -.9 2.7 -1.3c.9 -.4 1.9 -.9 3 -1.3c1 -.4 2.1 -.7 3.3 -1.1c1.2 -.4 2.4 -.7 3.6 -1c1.3 -.3 2.6 -.6 3.9 -.9c1.3 -.2 2.7 -.5 4 -.7c1.4 -.2 2.8 -.4 4.3 -.6c1.4 -.1 2.9 -.3 4.3 -.4c1.5 -.1 3 -.2 4.5 -.2c1.5 -.1 3 -.1 4.5 -.1c1.5 0 3 0 4.5 .1c1.5 0 3 .1 4.4 .2c1.5 .1 3 .3 4.4 .4c1.4 .2 2.8 .4 4.2 .6c1.4 .2 2.8 .5 4.1 .7c1.3 .3 2.6 .6 3.8 .9c1.3 .3 2.5 .6 3.7 1c1.1 .4 2.2 .7 3.3 1.1c1.1 .4 2.1 .9 3 1.3c1 .4 1.9 .9 2.7 1.3c.8 .5 1.6 1 2.3 1.5c.7 .5 1.4 1 1.9 1.5c.6 .5 1.1 1.1 1.5 1.6c.5 .5 .8 1.1 1.1 1.6c.3 .6 .5 1.1 .7 1.7c.1 .6 .2 1.1 .2 1.7Zm183.3 0c0 .6 0 1.1 -.2 1.7c-.1 .5 -.3 1.1 -.6 1.6c-.3 .6 -.7 1.1 -1.1 1.7c-.5 .5 -1 1 -1.5 1.6c-.6 .5 -1.3 1 -2 1.5c-.7 .5 -1.4 1 -2.3 1.4c-.8 .5 -1.7 1 -2.7 1.4c-.9 .4 -1.9 .8 -3 1.2c-1 .4 -2.1 .8 -3.3 1.2c-1.2 .3 -2.4 .7 -3.6 1c-1.3 .3 -2.6 .6 -3.9 .8c-1.3 .3 -2.7 .6 -4 .8c-1.4 .2 -2.8 .4 -4.3 .5c-1.4 .2 -2.9 .3 -4.3 .4c-1.5 .2 -3 .2 -4.5 .3c-1.5 0 -3 .1 -4.5 .1c-1.5 0 -3 -.1 -4.5 -.1c-1.5 -.1 -3 -.1 -4.4 -.3c-1.5 -.1 -3 -.2 -4.4 -.4c-1.4 -.1 -2.8 -.3 -4.2 -.5c-1.4 -.2 -2.8 -.5 -4.1 -.8c-1.3 -.2 -2.6 -.5 -3.8 -.8c-1.3 -.3 -2.5 -.7 -3.7 -1c-1.1 -.4 -2.2 -.8 -3.3 -1.2c-1.1 -.4 -2.1 -.8 -3 -1.2c-1 -.4 -1.9 -.9 -2.7 -1.4c-.8 -.4 -1.6 -.9 -2.3 -1.4c-.7 -.5 -1.4 -1 -1.9 -1.5c-.6 -.6 -1.1 -1.1 -1.5 -1.6c-.5 -.6 -.8 -1.1 -1.1 -1.7c-.3 -.5 -.5 -1.1 -.7 -1.6c-.1 -.6 -.2 -1.1 -.2 -1.7c0 -.6 .1 -1.1 .2 -1.7c.2 -.6 .4 -1.1 .7 -1.7c.3 -.5 .6 -1.1 1.1 -1.6c.4 -.5 .9 -1.1 1.5 -1.6c.5 -.5 1.2 -1 1.9 -1.5c.7 -.5 1.5 -1 2.3 -1.5c.8 -.4 1.7 -.9 2.7 -1.3c.9 -.4 1.9 -.9 3 -1.3c1.1 -.4 2.2 -.7 3.3 -1.1c1.2 -.4 2.4 -.7 3.7 -1c1.2 -.3 2.5 -.6 3.8 -.9c1.3 -.2 2.7 -.5 4.1 -.7c1.4 -.2 2.8 -.4 4.2 -.6c1.4 -.1 2.9 -.3 4.4 -.4c1.4 -.1 2.9 -.2 4.4 -.2c1.5 -.1 3 -.1 4.5 -.1c1.5 0 3 0 4.5 .1c1.5 0 3 .1 4.5 .2c1.4 .1 2.9 .3 4.3 .4c1.5 .2 2.9 .4 4.3 .6c1.3 .2 2.7 .5 4 .7c1.3 .3 2.6 .6 3.9 .9c1.2 .3 2.4 .6 3.6 1c1.2 .4 2.3 .7 3.3 1.1c1.1 .4 2.1 .9 3 1.3c1 .4 1.9 .9 2.7 1.3c.9 .5 1.6 1 2.3 1.5c.7 .5 1.4 1 2 1.5c.5 .5 1 1.1 1.5 1.6c.4 .5 .8 1.1 1.1 1.6c.3 .6 .5 1.1 .6 1.7c.2 .6 .2 1.1 .2 1.7Zm-252 40.1h45.8v34.4H253.4V645.9Zm183.3 0h45.8v34.4H436.7V645.9Zm-160.4 0V630.3" class="g1_242"/>
<path d="M276.3 624.3l2.7 8l-2.7 -2l-2.7 2l2.7 -8Z" class="g2_242"/>
<path d="M276.3 624.3l2.7 8l-2.7 -2l-2.7 2l2.7 -8Zm183.3 21.6V630.3" class="g1_242"/>
<path d="M459.6 624.3l2.7 8l-2.7 -2l-2.7 2l2.7 -8Z" class="g2_242"/>
<path d="M459.6 624.3l2.7 8l-2.7 -2l-2.7 2l2.7 -8Z" class="g1_242"/>
</g>
<g clip-path="url(#c1_242)">
<path d="M229.9 790.5H506v92.8H229.9V790.5Z" class="g0_242"/>
<path d="M322.1 808.3c0 .5 -.1 1.1 -.2 1.6c-.2 .6 -.4 1.2 -.7 1.7c-.3 .6 -.6 1.1 -1.1 1.6c-.4 .6 -.9 1.1 -1.5 1.6c-.5 .6 -1.2 1.1 -1.9 1.6c-.7 .5 -1.5 .9 -2.3 1.4c-.8 .5 -1.7 .9 -2.7 1.4c-.9 .4 -1.9 .8 -3 1.2c-1.1 .4 -2.2 .8 -3.3 1.1c-1.2 .4 -2.4 .7 -3.7 1.1c-1.2 .3 -2.5 .6 -3.8 .8c-1.3 .3 -2.7 .5 -4.1 .7c-1.4 .3 -2.8 .4 -4.2 .6c-1.4 .2 -2.9 .3 -4.4 .4c-1.4 .1 -2.9 .2 -4.4 .3c-1.5 0 -3 0 -4.5 0c-1.5 0 -3 0 -4.5 0c-1.5 -.1 -3 -.2 -4.5 -.3c-1.4 -.1 -2.9 -.2 -4.3 -.4c-1.5 -.2 -2.9 -.3 -4.3 -.6c-1.3 -.2 -2.7 -.4 -4 -.7c-1.3 -.2 -2.6 -.5 -3.9 -.8c-1.2 -.4 -2.4 -.7 -3.6 -1.1c-1.2 -.3 -2.3 -.7 -3.3 -1.1c-1.1 -.4 -2.1 -.8 -3 -1.2c-1 -.5 -1.9 -.9 -2.7 -1.4c-.9 -.5 -1.6 -.9 -2.3 -1.4c-.7 -.5 -1.4 -1 -2 -1.6c-.5 -.5 -1 -1 -1.5 -1.6c-.4 -.5 -.8 -1 -1.1 -1.6c-.3 -.5 -.5 -1.1 -.6 -1.7c-.2 -.5 -.3 -1.1 -.3 -1.6c0 -.6 .1 -1.2 .3 -1.7c.1 -.6 .3 -1.1 .6 -1.7c.3 -.5 .7 -1.1 1.1 -1.6c.5 -.6 1 -1.1 1.5 -1.6c.6 -.5 1.3 -1 2 -1.5c.7 -.5 1.4 -1 2.3 -1.5c.8 -.5 1.7 -.9 2.7 -1.3c.9 -.5 1.9 -.9 3 -1.3c1 -.4 2.1 -.8 3.3 -1.1c1.2 -.4 2.4 -.7 3.6 -1c1.3 -.3 2.6 -.6 3.9 -.9c1.3 -.3 2.7 -.5 4 -.7c1.4 -.2 2.8 -.4 4.3 -.6c1.4 -.2 2.9 -.3 4.3 -.4c1.5 -.1 3 -.2 4.5 -.2c1.5 -.1 3 -.1 4.5 -.1c1.5 0 3 0 4.5 .1c1.5 0 3 .1 4.4 .2c1.5 .1 3 .2 4.4 .4c1.4 .2 2.8 .4 4.2 .6c1.4 .2 2.8 .4 4.1 .7c1.3 .3 2.6 .6 3.8 .9c1.3 .3 2.5 .6 3.7 1c1.1 .3 2.2 .7 3.3 1.1c1.1 .4 2.1 .8 3 1.3c1 .4 1.9 .8 2.7 1.3c.8 .5 1.6 1 2.3 1.5c.7 .5 1.4 1 1.9 1.5c.6 .5 1.1 1 1.5 1.6c.5 .5 .8 1.1 1.1 1.6c.3 .6 .5 1.1 .7 1.7c.1 .5 .2 1.1 .2 1.7Zm183.3 0c0 .5 0 1.1 -.2 1.6c-.1 .6 -.3 1.2 -.6 1.7c-.3 .6 -.7 1.1 -1.1 1.6c-.5 .6 -1 1.1 -1.5 1.6c-.6 .6 -1.3 1.1 -2 1.6c-.7 .5 -1.4 .9 -2.3 1.4c-.8 .5 -1.7 .9 -2.7 1.4c-.9 .4 -1.9 .8 -3 1.2c-1 .4 -2.1 .8 -3.3 1.1c-1.2 .4 -2.4 .7 -3.6 1.1c-1.3 .3 -2.6 .6 -3.9 .8c-1.3 .3 -2.7 .5 -4 .7c-1.4 .3 -2.8 .4 -4.3 .6c-1.4 .2 -2.9 .3 -4.3 .4c-1.5 .1 -3 .2 -4.5 .3c-1.5 0 -3 0 -4.5 0c-1.5 0 -3 0 -4.5 0c-1.5 -.1 -3 -.2 -4.4 -.3c-1.5 -.1 -3 -.2 -4.4 -.4c-1.4 -.2 -2.8 -.3 -4.2 -.6c-1.4 -.2 -2.8 -.4 -4.1 -.7c-1.3 -.2 -2.6 -.5 -3.8 -.8c-1.3 -.4 -2.5 -.7 -3.7 -1.1c-1.1 -.3 -2.2 -.7 -3.3 -1.1c-1.1 -.4 -2.1 -.8 -3 -1.2c-1 -.5 -1.9 -.9 -2.7 -1.4c-.8 -.5 -1.6 -.9 -2.3 -1.4c-.7 -.5 -1.4 -1 -1.9 -1.6c-.6 -.5 -1.1 -1 -1.5 -1.6c-.5 -.5 -.8 -1 -1.1 -1.6c-.3 -.5 -.5 -1.1 -.7 -1.7c-.1 -.5 -.2 -1.1 -.2 -1.6c0 -.6 .1 -1.2 .2 -1.7c.2 -.6 .4 -1.1 .7 -1.7c.3 -.5 .6 -1.1 1.1 -1.6c.4 -.6 .9 -1.1 1.5 -1.6c.5 -.5 1.2 -1 1.9 -1.5c.7 -.5 1.5 -1 2.3 -1.5c.8 -.5 1.7 -.9 2.7 -1.3c.9 -.5 1.9 -.9 3 -1.3c1.1 -.4 2.2 -.8 3.3 -1.1c1.2 -.4 2.4 -.7 3.7 -1c1.2 -.3 2.5 -.6 3.8 -.9c1.3 -.3 2.7 -.5 4.1 -.7c1.4 -.2 2.8 -.4 4.2 -.6c1.4 -.2 2.9 -.3 4.4 -.4c1.4 -.1 2.9 -.2 4.4 -.2c1.5 -.1 3 -.1 4.5 -.1c1.5 0 3 0 4.5 .1c1.5 0 3 .1 4.5 .2c1.4 .1 2.9 .2 4.3 .4c1.5 .2 2.9 .4 4.3 .6c1.3 .2 2.7 .4 4 .7c1.3 .3 2.6 .6 3.9 .9c1.2 .3 2.4 .6 3.6 1c1.2 .3 2.3 .7 3.3 1.1c1.1 .4 2.1 .8 3 1.3c1 .4 1.9 .8 2.7 1.3c.9 .5 1.6 1 2.3 1.5c.7 .5 1.4 1 2 1.5c.5 .5 1 1 1.5 1.6c.4 .5 .8 1.1 1.1 1.6c.3 .6 .5 1.1 .6 1.7c.2 .5 .2 1.1 .2 1.7Zm-252 40.1h45.8v34.3H253.4V848.4Zm183.3 0h45.8v34.3H436.7V848.4Zm-160.4 0V832.7" class="g1_242"/>
<path d="M276.3 826.7l2.7 8.1l-2.7 -2.1l-2.7 2.1l2.7 -8.1Z" class="g2_242"/>
<path d="M276.3 826.7l2.7 8.1l-2.7 -2.1l-2.7 2.1l2.7 -8.1Zm183.3 21.7V832.7" class="g1_242"/>
<path d="M459.6 826.7l2.7 8.1l-2.7 -2.1l-2.7 2.1l2.7 -8.1Z" class="g2_242"/>
<path d="M459.6 826.7l2.7 8.1l-2.7 -2.1l-2.7 2.1l2.7 -8.1Zm-32.4 -6.3L306.1 863.1" class="g1_242"/>
<path d="M300.4 865.1l6.7 -5.2l-1 3.2l2.8 1.9l-8.5 .1Z" class="g2_242"/>
<path d="M300.4 865.1l6.7 -5.2l-1 3.2l2.8 1.9l-8.5 .1Zm8.3 -44.7l121.1 42.7" class="g1_242"/>
<path d="M435.5 865.1L427 865l2.8 -1.9l-1 -3.2l6.7 5.2Z" class="g2_242"/>
<path d="M435.5 865.1L427 865l2.8 -1.9l-1 -3.2l6.7 5.2Z" class="g1_242"/>
</g>
</svg>