<?xml version="1.0" encoding="UTF-8" standalone="no"?>
<!DOCTYPE svg PUBLIC "-//W3C//DTD SVG 1.1//EN"
"http://www.w3.org/Graphics/SVG/1.1/DTD/svg11.dtd">
<svg viewBox="0 0 714 1017" version="1.1" xmlns="http://www.w3.org/2000/svg" xmlns:xlink="http://www.w3.org/1999/xlink">
<defs>
<clipPath id="c0_224"><path d="M86.6 701V528.3H650.4V701Z"/></clipPath>
<clipPath id="c1_224"><path d="M86.6 701V526.9H651.9V701Z"/></clipPath>
<style type="text/css"><![CDATA[
.g0_224{
fill: #FFF;
}
.g1_224{
fill: none;
stroke: #000;
stroke-width: 1.145;
stroke-miterlimit: 10;
}
.g2_224{
fill: #000;
}
]]></style>
</defs>
<path d="M0 1017.7H717.2V-3.7H0V1017.7Z" class="g0_224"/>
<g clip-path="url(#c1_224)">
<g clip-path="url(#c0_224)">
<path d="M86.6 528.3H650.4v173H86.6v-173Z" class="g0_224"/>
<path d="M87.2 673.6c0 -4 7.7 -7.2 17.2 -7.2c4.5 0 8.9 .8 12.1 2.1c3.3 1.4 5.1 3.2 5.1 5.1v19.9c0 4 -7.7 7.3 -17.2 7.3c-9.5 0 -17.2 -3.3 -17.2 -7.3V673.6Zm34.4 0c0 4.1 -7.7 7.3 -17.2 7.3c-9.5 0 -17.2 -3.2 -17.2 -7.3" class="g1_224"/>
</g>
<path d="M87.2 642.9h3.4V644H87.2m6.9 -1.1h3.4V644H94.1m6.8 -1.1h3.5V644h-3.5m6.9 -1.1h3.4V644h-3.4m6.9 -1.1h3.4V644h-3.4m6.9 -1.1H125V644h-3.4m6.8 -1.1h3.5V644h-3.5m6.9 -1.1h3.4V644h-3.4m6.9 -1.1h3.4V644h-3.4m6.9 -1.1h3.4V644h-3.4m6.8 -1.1h3.5V644h-3.5m6.9 -1.1h3.4V644h-3.4m6.9 -1.1h3.4V644h-3.4m6.9 -1.1H180V644h-3.4m6.8 -1.1h3.5V644h-3.5m6.9 -1.1h3.4V644h-3.4m6.9 -1.1h3.4V644h-3.4m6.9 -1.1h3.4V644h-3.4m6.8 -1.1h3.5V644h-3.5m6.9 -1.1h3.4V644h-3.4m6.9 -1.1h3.4V644h-3.4m6.9 -1.1H235V644h-3.4m6.8 -1.1h3.5V644h-3.5m6.9 -1.1h3.4V644h-3.4m6.9 -1.1h3.4V644h-3.4m6.9 -1.1h3.4V644h-3.4m6.8 -1.1h3.5V644h-3.5m6.9 -1.1h3.4V644h-3.4m6.9 -1.1h3.4V644h-3.4m6.9 -1.1H290V644h-3.4m6.8 -1.1h3.5V644h-3.5m6.9 -1.1h3.4V644h-3.4m6.9 -1.1h3.4V644h-3.4m6.9 -1.1h3.4V644h-3.4m6.8 -1.1h3.5V644h-3.5m6.9 -1.1h3.4V644h-3.4m6.9 -1.1h3.4V644h-3.4m6.9 -1.1H345V644h-3.4m6.8 -1.1h3.5V644h-3.5m6.9 -1.1h3.4V644h-3.4m6.9 -1.1h3.4V644h-3.4m6.9 -1.1h3.4V644h-3.4m6.8 -1.1h3.5V644h-3.5m6.9 -1.1h3.4V644h-3.4m6.9 -1.1h3.4V644h-3.4m6.9 -1.1H400V644h-3.4m6.8 -1.1h3.5V644h-3.5m6.9 -1.1h3.4V644h-3.4m6.9 -1.1h3.4V644h-3.4m6.9 -1.1h3.4V644h-3.4m6.8 -1.1h3.5V644h-3.5m6.9 -1.1h3.4V644h-3.4m6.9 -1.1h3.4V644h-3.4m6.9 -1.1H455V644h-3.4m6.8 -1.1h3.5V644h-3.5m6.9 -1.1h3.4V644h-3.4m6.9 -1.1h3.4V644h-3.4m6.9 -1.1h3.4V644h-3.4m6.8 -1.1h3.5V644h-3.5m6.9 -1.1h3.4V644h-3.4m6.9 -1.1h3.4V644h-3.4m6.9 -1.1H510V644h-3.4m6.8 -1.1h3.5V644h-3.5m6.9 -1.1h3.4V644h-3.4m6.9 -1.1h3.4V644h-3.4m6.9 -1.1h3.4V644h-3.4m6.8 -1.1h3.5V644h-3.5m6.9 -1.1h3.4V644h-3.4m6.9 -1.1h3.4V644h-3.4m6.9 -1.1H565V644h-3.4m6.8 -1.1h3.5V644h-3.5m6.9 -1.1h3.4V644h-3.4m6.9 -1.1h3.4V644h-3.4m6.9 -1.1h3.4V644h-3.4m6.8 -1.1h3.5V644h-3.5m6.9 -1.1h3.4V644h-3.4m6.9 -1.1h3.4V644h-3.4m6.9 -1.1H620V644h-3.4m6.8 -1.1h3.5V644h-3.5m6.9 -1.1h3.4V644h-3.4m6.9 -1.1h3.4V644h-3.4m6.9 -1.1h3.4V644h-3.4Z" class="g2_224"/>
<path d="M92.9 591.9h22.9v22.9H92.9V591.9Zm5.7 0v-5.7m5.8 0v5.7m5.7 -5.7v5.7M98.6 620.6v-5.8m5.8 0v5.8m5.7 -5.8v5.8m5.7 -23h5.8m0 5.8h-5.8m5.8 5.7h-5.8M87.2 597.6h5.7m0 5.8H87.2m5.7 5.7H87.2" class="g1_224"/>
<path d="M259.1 586.2h68.7v34.4H259.1V586.2Z" class="g0_224"/>
<path d="M259.1 586.2h68.7v34.4H259.1V586.2Z" class="g1_224"/>
<path d="M466.5 586.2h80.2v34.4H466.5V586.2Z" class="g0_224"/>
<path d="M466.5 586.2h80.2v34.4H466.5V586.2Z" class="g1_224"/>
<path d="M362.2 620.6l10.3 -34.4h58.4l-10.3 34.4H362.2Z" class="g0_224"/>
<path d="M362.2 620.6l10.3 -34.4h58.4l-10.3 34.4H362.2Z" class="g1_224"/>
<path d="M396 562.4c-9.3 0 -16.9 -7.6 -16.9 -16.9c0 -9.3 7.6 -16.8 16.9 -16.8c9.3 0 16.8 7.5 16.8 16.8c0 9.3 -7.5 16.9 -16.8 16.9Zm10.4 -5.7c-.9 -.6 -1.9 -.8 -3.3 -1.1c-1.6 -.5 -3.9 -.8 -3.7 -2.7c-1.2 1.2 -3.4 1.6 -5.2 .9c-.6 -.2 -1 -.7 -1.4 -.7c.1 1.9 -2.1 2.1 -3.7 2.4c-1.4 .4 -2.5 .7 -3.4 1.3c2.8 2.5 6.3 4 10.3 4c4 0 7.7 -1.6 10.4 -4.1Zm-9.3 -20.6c-5.1 -.5 -7.6 3 -6.8 8.2c-.3 0 -.5 0 -.6 .3c0 1.5 .3 2.8 1.4 3.2c.6 2.5 2.4 5.5 5.5 5.1c2.6 -.3 4 -2.8 4.6 -5.1c1.1 -.4 1.4 -1.9 1.3 -3.3c0 -.2 -.4 -.1 -.5 -.2c.9 -4.1 -1.4 -7.9 -4.9 -8.2ZM396 530.2c-8.4 0 -15.3 6.9 -15.3 15.3c0 4 1.6 7.6 4.1 10.3c.2 -.2 .5 -.4 .9 -.6c1.6 -.9 3.7 -.8 5.7 -1.8c0 -.5 0 -1.1 0 -1.7c-.8 -.7 -.9 -1.9 -1.5 -2.9c-.3 -.6 -.8 -.9 -1.1 -1.6c-.3 -.7 -.6 -1.6 -.5 -2.6c.1 -.5 .4 -.8 .5 -1.3c0 -.6 -.1 -1.3 0 -1.9c.3 -3.5 2.9 -6.3 6.3 -6.7c.7 0 1.4 0 2.1 0c3.6 .6 6.1 3.3 6.3 7.2c.1 .5 -.1 1 0 1.5c0 .5 .4 .9 .5 1.4c.1 1.6 -.7 3 -1.7 4c-.3 1.2 -.9 2 -1.4 2.9c0 .6 0 1.1 0 1.7c1.6 1 3.9 .9 5.6 1.7c.3 .2 .6 .4 .8 .6c2.5 -2.7 4 -6.3 4 -10.2c0 -8.4 -6.9 -15.3 -15.3 -15.3Z" class="g2_224"/>
<path d="M259.1 603.4H226.3" class="g1_224"/>
<path d="M220.2 603.4l8.1 -2.7l-2 2.7l2 2.6l-8.1 -2.6Z" class="g2_224"/>
<path d="M220.2 603.4l8.1 -2.7l-2 2.7l2 2.6l-8.1 -2.6Zm205.6 0h33.4" class="g1_224"/>
<path d="M465.2 603.4l-8 2.6l2 -2.6l-2 -2.7l8 2.7Z" class="g2_224"/>
<path d="M465.2 603.4l-8 2.6l2 -2.6l-2 -2.7l8 2.7Zm-97.9 0H335.1" class="g1_224"/>
<path d="M329.1 603.4l8 -2.7l-2 2.7l2 2.6l-8 -2.6Z" class="g2_224"/>
<path d="M329.1 603.4l8 -2.7l-2 2.7l2 2.6l-8 -2.6Zm67.5 -40.1v15.6" class="g1_224"/>
<path d="M396.6 584.9l-2.7 -8l2.7 2l2.6 -2l-2.6 8Z" class="g2_224"/>
<path d="M396.6 584.9l-2.7 -8l2.7 2l2.6 -2l-2.6 8Z" class="g1_224"/>
<path d="M155.9 620.6l11.5 -34.4h57.3l-11.5 34.4H155.9Z" class="g0_224"/>
<path d="M155.9 620.6l11.5 -34.4h57.3l-11.5 34.4H155.9Z" class="g1_224"/>
<path d="M579.9 620.6l10.3 -34.4h58.4l-10.3 34.4H579.9Z" class="g0_224"/>
<path d="M579.9 620.6l10.3 -34.4h58.4l-10.3 34.4H579.9ZM546.7 603.4h31.1" class="g1_224"/>
<path d="M583.8 603.4l-8.1 2.6l2.1 -2.6l-2.1 -2.7l8.1 2.7Z" class="g2_224"/>
<path d="M583.8 603.4l-8.1 2.6l2.1 -2.6l-2.1 -2.7l8.1 2.7ZM190.3 620.6v38.5" class="g1_224"/>
<path d="M190.3 665.1l-2.7 -8l2.7 2l2.7 -2l-2.7 8Z" class="g2_224"/>
<path d="M190.3 665.1l-2.7 -8l2.7 2l2.7 -2l-2.7 8Zm424 -44.5v38.5" class="g1_224"/>
<path d="M614.3 665.1l-2.7 -8l2.7 2l2.6 -2l-2.6 8Z" class="g2_224"/>
<path d="M614.3 665.1l-2.7 -8l2.7 2l2.6 -2l-2.6 8Z" class="g1_224"/>
<path d="M161.1 666.4h58.4c.7 0 1.4 .1 2 .4c.6 .2 1.2 .6 1.7 1.1c.5 .5 .8 1 1.1 1.7c.3 .6 .4 1.3 .4 1.9v24.1c0 .7 -.1 1.4 -.4 2c-.3 .6 -.6 1.2 -1.1 1.7c-.5 .4 -1.1 .8 -1.7 1.1c-.6 .2 -1.3 .4 -2 .4H161.1c-.7 0 -1.3 -.2 -2 -.4c-.6 -.3 -1.2 -.7 -1.7 -1.1c-.4 -.5 -.8 -1.1 -1.1 -1.7c-.2 -.6 -.4 -1.3 -.4 -2V671.5c0 -.6 .2 -1.3 .4 -1.9c.3 -.7 .7 -1.2 1.1 -1.7c.5 -.5 1.1 -.9 1.7 -1.1c.7 -.3 1.3 -.4 2 -.4Z" class="g0_224"/>
<path clip-path="url(#c0_224)" d="M161.1 666.4h58.4c.7 0 1.4 .1 2 .4c.6 .2 1.2 .6 1.7 1.1c.5 .5 .8 1 1.1 1.7c.3 .6 .4 1.3 .4 1.9v24.1c0 .7 -.1 1.4 -.4 2c-.3 .6 -.6 1.2 -1.1 1.7c-.5 .4 -1.1 .8 -1.7 1.1c-.6 .2 -1.3 .4 -2 .4H161.1c-.7 0 -1.3 -.2 -2 -.4c-.6 -.3 -1.2 -.7 -1.7 -1.1c-.4 -.5 -.8 -1.1 -1.1 -1.7c-.2 -.6 -.4 -1.3 -.4 -2V671.5c0 -.6 .2 -1.3 .4 -1.9c.3 -.7 .7 -1.2 1.1 -1.7c.5 -.5 1.1 -.9 1.7 -1.1c.7 -.3 1.3 -.4 2 -.4Z" class="g1_224"/>
<path d="M585.1 666.4h58.4c.7 0 1.3 .1 2 .4c.6 .2 1.2 .6 1.6 1.1c.5 .5 .9 1 1.2 1.7c.2 .6 .3 1.3 .3 1.9v24.1c0 .7 -.1 1.4 -.3 2c-.3 .6 -.7 1.2 -1.2 1.7c-.4 .4 -1 .8 -1.6 1.1c-.7 .2 -1.3 .4 -2 .4H585.1c-.7 0 -1.4 -.2 -2 -.4c-.7 -.3 -1.2 -.7 -1.7 -1.1c-.5 -.5 -.9 -1.1 -1.1 -1.7c-.3 -.6 -.4 -1.3 -.4 -2V671.5c0 -.6 .1 -1.3 .4 -1.9c.2 -.7 .6 -1.2 1.1 -1.7c.5 -.5 1 -.9 1.7 -1.1c.6 -.3 1.3 -.4 2 -.4Z" class="g0_224"/>
<path clip-path="url(#c0_224)" d="M585.1 666.4h58.4c.7 0 1.3 .1 2 .4c.6 .2 1.2 .6 1.6 1.1c.5 .5 .9 1 1.2 1.7c.2 .6 .3 1.3 .3 1.9v24.1c0 .7 -.1 1.4 -.3 2c-.3 .6 -.7 1.2 -1.2 1.7c-.4 .4 -1 .8 -1.6 1.1c-.7 .2 -1.3 .4 -2 .4H585.1c-.7 0 -1.4 -.2 -2 -.4c-.7 -.3 -1.2 -.7 -1.7 -1.1c-.5 -.5 -.9 -1.1 -1.1 -1.7c-.3 -.6 -.4 -1.3 -.4 -2V671.5c0 -.6 .1 -1.3 .4 -1.9c.2 -.7 .6 -1.2 1.1 -1.7c.5 -.5 1 -.9 1.7 -1.1c.6 -.3 1.3 -.4 2 -.4Z" class="g1_224"/>
</g>
</svg>