<?xml version="1.0" encoding="UTF-8" standalone="no"?>
<!DOCTYPE svg PUBLIC "-//W3C//DTD SVG 1.1//EN"
"http://www.w3.org/Graphics/SVG/1.1/DTD/svg11.dtd">
<svg viewBox="0 0 714 1017" version="1.1" xmlns="http://www.w3.org/2000/svg" xmlns:xlink="http://www.w3.org/1999/xlink">
<defs>
<clipPath id="c0_53"><path d="M70.7 339.5V109.2H621.9V339.5Z"/></clipPath>
<clipPath id="c1_53"><path d="M70.7 339.8V109.1H622.3V339.8Z"/></clipPath>
<style type="text/css"><![CDATA[
.g0_53{
fill: #FFF;
}
.g1_53{
fill: none;
stroke: #000;
stroke-width: 1.145;
stroke-miterlimit: 10;
}
.g2_53{
fill: #000;
}
]]></style>
</defs>
<path d="M0 1017.7H717.2V-3.7H0V1017.7Z" class="g0_53"/>
<g clip-path="url(#c1_53)">
<path clip-path="url(#c0_53)" d="M70.7 109.2H621.9V339.5H70.7V109.2Z" class="g0_53"/>
<path d="M71.3 144.1h550V338.9H71.3V144.1Z" class="g1_53"/>
<path d="M88.3 109.2h1.1v1.1H88.3v-1.1Zm5.7 0h1.1v1.1H94v-1.1Zm5.7 0h1.2v1.1H99.7v-1.1Zm5.7 0h1.2v1.1h-1.2v-1.1Zm5.8 0h1.1v1.1h-1.1v-1.1Zm5.7 0H118v1.1h-1.1v-1.1Zm5.7 0h1.2v1.1h-1.2v-1.1Zm5.8 0h1.1v1.1h-1.1v-1.1Zm5.7 0h1.1v1.1h-1.1v-1.1Zm5.7 0H141v1.1h-1.2v-1.1Zm5.7 0h1.2v1.1h-1.2v-1.1Zm5.8 0h1.1v1.1h-1.1v-1.1Zm5.7 0h1.2v1.1H157v-1.1Zm5.7 0h1.2v1.1h-1.2v-1.1Zm5.8 0h1.1v1.1h-1.1v-1.1Zm5.7 0h1.1v1.1h-1.1v-1.1Zm5.7 0h1.2v1.1h-1.2v-1.1Zm5.8 0h1.1v1.1h-1.1v-1.1Zm5.7 0h1.1v1.1h-1.1v-1.1Zm5.7 0h1.2v1.1h-1.2v-1.1Zm5.7 0H204v1.1h-1.2v-1.1Zm5.8 0h1.1v1.1h-1.1v-1.1Zm5.7 0h1.1v1.1h-1.1v-1.1Zm5.7 0h1.2v1.1H220v-1.1Zm5.8 0h1.1v1.1h-1.1v-1.1Zm5.7 0h1.1v1.1h-1.1v-1.1Zm5.7 0h1.2v1.1h-1.2v-1.1Zm5.7 0h1.2v1.1h-1.2v-1.1Zm5.8 0h1.1v1.1h-1.1v-1.1Zm5.7 0h1.1v1.1h-1.1v-1.1Zm5.7 0h1.2v1.1h-1.2v-1.1Zm5.8 0H267v1.1h-1.1v-1.1Zm5.7 0h1.1v1.1h-1.1v-1.1Zm5.7 0h1.2v1.1h-1.2v-1.1Zm5.7 0h1.2v1.1H283v-1.1Zm5.8 0h1.1v1.1h-1.1v-1.1Zm5.7 0h1.2v1.1h-1.2v-1.1Zm5.7 0h1.2v1.1h-1.2v-1.1Zm5.8 0h1.1v1.1H306v-1.1Zm5.7 0h1.1v1.1h-1.1v-1.1Zm5.7 0h1.2v1.1h-1.2v-1.1Zm5.8 0h1.1v1.1h-1.1v-1.1Zm5.7 0H330v1.1h-1.1v-1.1Zm5.7 0h1.2v1.1h-1.2v-1.1Zm5.7 0h1.2v1.1h-1.2v-1.1Zm5.8 0h1.1v1.1h-1.1v-1.1Zm5.7 0h1.1v1.1h-1.1v-1.1Zm5.7 0h1.2v1.1h-1.2v-1.1Zm5.8 0c.4 .1 .8 .2 1.2 .3l-.4 1.1c-.3 -.1 -.6 -.2 -1 -.2l.2 -1.2Zm4.9 4c.2 .4 .3 .8 .3 1.2l-1.1 .2c-.1 -.4 -.1 -.7 -.3 -1l1.1 -.4Zm.4 5.8v1.2h-1.2V119h1.2Zm0 5.8v1.1h-1.2v-1.1h1.2Zm0 5.7v1.1h-1.2v-1.1h1.2Zm0 5.7v1.2h-1.2v-1.2h1.2Zm0 5.8v1.1h-1.2V142h1.2Zm0 5.7v1.1h-1.2v-1.1h1.2Zm0 5.7v1.2h-1.2v-1.2h1.2Zm0 5.7v1.2h-1.2v-1.2h1.2Zm0 5.8V166h-1.2v-1.1h1.2Zm0 5.7v1.2h-1.2v-1.2h1.2Zm0 5.7v1.2h-1.2v-1.2h1.2Zm0 5.8v1.1h-1.2v-1.1h1.2Zm0 5.7v1.1h-1.2v-1.1h1.2Zm0 5.7v1.2h-1.2v-1.2h1.2Zm-1.1 5.9c-.3 .4 -.6 .7 -.9 1l-.8 -.8c.3 -.3 .5 -.5 .7 -.8l1 .6Zm-5.6 2.6h-1.2v-1.2h1.2V202Zm-5.8 0H355v-1.2h1.1V202Zm-5.7 0h-1.2v-1.2h1.2V202Zm-5.7 0h-1.2v-1.2h1.2V202Zm-5.8 0h-1.1v-1.2h1.1V202Zm-5.7 0h-1.1v-1.2h1.1V202Zm-5.7 0h-1.2v-1.2h1.2V202Zm-5.8 0h-1.1v-1.2h1.1V202Zm-5.7 0h-1.1v-1.2H316V202Zm-5.7 0h-1.2v-1.2h1.2V202Zm-5.7 0h-1.2v-1.2h1.2V202Zm-5.8 0h-1.1v-1.2h1.1V202Zm-5.7 0H292v-1.2h1.1V202Zm-5.7 0h-1.2v-1.2h1.2V202Zm-5.8 0h-1.1v-1.2h1.1V202Zm-5.7 0h-1.1v-1.2h1.1V202Zm-5.7 0H269v-1.2h1.2V202Zm-5.7 0h-1.2v-1.2h1.2V202Zm-5.8 0h-1.1v-1.2h1.1V202Zm-5.7 0h-1.1v-1.2H253V202Zm-5.7 0h-1.2v-1.2h1.2V202Zm-5.8 0h-1.1v-1.2h1.1V202Zm-5.7 0h-1.1v-1.2h1.1V202Zm-5.7 0h-1.2v-1.2h1.2V202Zm-5.7 0h-1.2v-1.2h1.2V202Zm-5.8 0h-1.1v-1.2h1.1V202Zm-5.7 0h-1.2v-1.2h1.2V202Zm-5.7 0H206v-1.2h1.2V202Zm-5.8 0h-1.1v-1.2h1.1V202Zm-5.7 0h-1.1v-1.2h1.1V202Zm-5.7 0h-1.2v-1.2H190V202Zm-5.8 0h-1.1v-1.2h1.1V202Zm-5.7 0h-1.1v-1.2h1.1V202Zm-5.7 0h-1.2v-1.2h1.2V202Zm-5.7 0h-1.2v-1.2h1.2V202Zm-5.8 0h-1.1v-1.2h1.1V202Zm-5.7 0h-1.1v-1.2h1.1V202Zm-5.7 0h-1.2v-1.2h1.2V202Zm-5.8 0H143v-1.2h1.1V202Zm-5.7 0h-1.1v-1.2h1.1V202Zm-5.7 0h-1.2v-1.2h1.2V202Zm-5.7 0h-1.2v-1.2H127V202Zm-5.8 0h-1.1v-1.2h1.1V202Zm-5.7 0h-1.1v-1.2h1.1V202Zm-5.7 0h-1.2v-1.2h1.2V202Zm-5.8 0h-1.1v-1.2H104V202Zm-5.7 0H97.2v-1.2h1.1V202Zm-5.7 0H91.4v-1.2h1.2V202Zm-5.7 0H85.7v-1.2h1.2V202ZM81 201.8c-.4 -.1 -.8 -.3 -1.2 -.4l.5 -1.1c.3 .2 .7 .3 1 .4l-.3 1.1Zm-4.4 -4.5c-.1 -.4 -.1 -.8 -.1 -1.2l1.1 -.1c0 .4 0 .7 .1 1l-1.1 .3Zm-.1 -5.8v-1.2h1.1v1.2H76.5Zm0 -5.8v-1.1h1.1v1.1H76.5Zm0 -5.7v-1.1h1.1V180H76.5Zm0 -5.7v-1.2h1.1v1.2H76.5Zm0 -5.7v-1.2h1.1v1.2H76.5Zm0 -5.8v-1.1h1.1v1.1H76.5Zm0 -5.7V156h1.1v1.1H76.5Zm0 -5.7v-1.2h1.1v1.2H76.5Zm0 -5.8v-1.1h1.1v1.1H76.5Zm0 -5.7v-1.1h1.1v1.1H76.5Zm0 -5.7V133h1.1v1.2H76.5Zm0 -5.7v-1.2h1.1v1.2H76.5Zm0 -5.8v-1.1h1.1v1.1H76.5Zm0 -5.7v-1.2h1.1V117H76.5ZM78 111.1c.4 -.3 .7 -.6 1.1 -.8l.6 .9c-.3 .2 -.6 .4 -.8 .7l-.9 -.8Zm4.5 -1.9h1.2v1.1H82.5v-1.1Z" class="g2_53"/>
<path d="M277.1 150.4h3.4v1.2h-3.4v-1.2Zm6.9 0h3.4v1.2H284v-1.2Zm6.8 0h3.5v1.2h-3.5v-1.2Zm6.9 0h3.5v1.2h-3.5v-1.2Zm6.9 0H308v1.2h-3.4v-1.2Zm6.9 0h3.4v1.2h-3.4v-1.2Zm6.8 0h3.5v1.2h-3.5v-1.2Zm6.9 0h3.5v1.2h-3.5v-1.2Zm6.9 0h3.4v1.2h-3.4v-1.2Zm6.9 0h3.4v1.2H339v-1.2Zm6.8 0h3.5v1.2h-3.5v-1.2Zm6.9 0h3.5v1.2h-3.5v-1.2Zm6.9 0H363v1.2h-3.4v-1.2Zm6.9 0h3.4v1.2h-3.4v-1.2Zm6.8 0h3.5v1.2h-3.5v-1.2Zm6.9 0h3.5v1.2h-3.5v-1.2Zm6.9 0h3.4v1.2h-3.4v-1.2Zm6.9 0h3.4v1.2H394v-1.2Zm6.8 0h3.5v1.2h-3.5v-1.2Zm6.9 0h3.5v1.2h-3.5v-1.2Zm6.9 0H418v1.2h-3.4v-1.2Zm6.9 0h3.4v1.2h-3.4v-1.2Zm6.8 0h1c.9 0 1.7 .2 2.6 .5l-.4 1.1c-.7 -.3 -1.5 -.4 -2.2 -.4h-1v-1.2Zm6.7 3c.7 1.1 1.1 2.3 1.2 3.6l-1.1 .1c-.1 -1.1 -.4 -2.1 -1.1 -3l1 -.7Zm1.2 7v3.5h-1.1v-3.5h1.1Zm0 6.9v3.4h-1.1v-3.4h1.1Zm0 6.9v3.4h-1.1v-3.4h1.1Zm0 6.9v3.4h-1.1v-3.4h1.1Zm0 6.8v3.5h-1.1v-3.5h1.1Zm0 6.9v3.4h-1.1v-3.4h1.1Zm0 6.9v3.4h-1.1v-3.4h1.1Zm0 6.9V212h-1.1v-3.4h1.1Zm0 6.8v3.5h-1.1v-3.5h1.1Zm0 6.9v3.4h-1.1v-3.4h1.1Zm0 6.9v3.4h-1.1v-3.4h1.1Zm0 6.9v3.4h-1.1v-3.4h1.1Zm0 6.8v3.5h-1.1v-3.5h1.1Zm0 6.9v3.4h-1.1v-3.4h1.1Zm0 6.9v3.4h-1.1v-3.4h1.1Zm0 6.9V267h-1.1v-3.4h1.1Zm0 6.8v3.5h-1.1v-3.5h1.1Zm0 6.9v3.4h-1.1v-3.4h1.1Zm0 6.9v3.4h-1.1v-3.4h1.1Zm0 6.9v3.4h-1.1v-3.4h1.1Zm0 6.8v3.5h-1.1v-3.5h1.1Zm0 6.9v.2c0 1.2 -.2 2.3 -.8 3.4l-1 -.6c.5 -.9 .7 -1.8 .7 -2.8v-.2h1.1Zm-3.7 6.4c-1 .5 -2.1 .8 -3.2 .8H429v-1.2h.3c.9 0 1.8 -.2 2.7 -.6l.5 1Zm-7 .8h-3.4v-1.2h3.4V312Zm-6.9 0h-3.4v-1.2h3.4V312Zm-6.8 0h-3.5v-1.2h3.5V312Zm-6.9 0h-3.4v-1.2h3.4V312Zm-6.9 0h-3.4v-1.2H398V312Zm-6.9 0h-3.4v-1.2h3.4V312Zm-6.8 0h-3.5v-1.2h3.5V312Zm-6.9 0H374v-1.2h3.4V312Zm-6.9 0h-3.4v-1.2h3.4V312Zm-6.9 0h-3.4v-1.2h3.4V312Zm-6.8 0h-3.5v-1.2h3.5V312Zm-6.9 0h-3.4v-1.2h3.4V312Zm-6.9 0h-3.4v-1.2H343V312Zm-6.9 0h-3.4v-1.2h3.4V312Zm-6.8 0h-3.5v-1.2h3.5V312Zm-6.9 0H319v-1.2h3.4V312Zm-6.9 0h-3.4v-1.2h3.4V312Zm-6.9 0h-3.4v-1.2h3.4V312Zm-6.8 0h-3.5v-1.2h3.5V312Zm-6.9 0h-3.4v-1.2h3.4V312Zm-6.9 0h-3.4v-1.2H288V312Zm-6.9 0h-3.4v-1.2h3.4V312Zm-6.8 0h-3.5v-1.2h3.5V312Zm-7 -.7c-1.3 -.5 -2.3 -1.4 -3 -2.6l1 -.6c.6 1 1.4 1.7 2.4 2.2l-.4 1Zm-4.1 -6.2c0 0 0 -.1 0 -.1v-3.3h1.2V305c0 0 0 .1 0 .1h-1.2Zm0 -6.8v-3.5h1.2v3.5h-1.2Zm0 -6.9v-3.5h1.2v3.5h-1.2Zm0 -6.9v-3.4h1.2v3.4h-1.2Zm0 -6.9v-3.4h1.2v3.4h-1.2Zm0 -6.8v-3.5h1.2v3.5h-1.2Zm0 -6.9v-3.5h1.2v3.5h-1.2Zm0 -6.9v-3.4h1.2V257h-1.2Zm0 -6.9v-3.4h1.2v3.4h-1.2Zm0 -6.8v-3.5h1.2v3.5h-1.2Zm0 -6.9v-3.5h1.2v3.5h-1.2Zm0 -6.9v-3.4h1.2v3.4h-1.2Zm0 -6.9v-3.4h1.2v3.4h-1.2Zm0 -6.8v-3.5h1.2v3.5h-1.2Zm0 -6.9v-3.5h1.2v3.5h-1.2Zm0 -6.9v-3.4h1.2V202h-1.2Zm0 -6.9v-3.4h1.2v3.4h-1.2Zm0 -6.8v-3.5h1.2v3.5h-1.2Zm0 -6.9v-3.5h1.2v3.5h-1.2Zm0 -6.9v-3.4h1.2v3.4h-1.2Zm0 -6.9v-3.4h1.2v3.4h-1.2Zm0 -6.8v-3.5h1.2q0 .1 0 .1v3.4h-1.2Zm1.1 -7.1c.7 -1.1 1.7 -2 2.9 -2.6l.5 1c-1 .5 -1.8 1.3 -2.5 2.2l-.9 -.6Zm5.9 -3.3h3.5v1.2h-3.5v-1.2Z" class="g2_53"/>
<path d="M86.8 155.6h71c.7 0 1.3 .1 2 .4c.6 .2 1.2 .6 1.7 1.1c.4 .5 .8 1 1.1 1.7c.2 .6 .4 1.3 .4 1.9v24.1c0 .7 -.2 1.3 -.4 2c-.3 .6 -.7 1.2 -1.1 1.6c-.5 .5 -1.1 .9 -1.7 1.2c-.7 .2 -1.3 .4 -2 .4h-71c-.7 0 -1.4 -.2 -2 -.4c-.6 -.3 -1.2 -.7 -1.7 -1.2c-.5 -.4 -.8 -1 -1.1 -1.6c-.3 -.7 -.4 -1.3 -.4 -2V160.7c0 -.6 .1 -1.3 .4 -1.9c.3 -.7 .6 -1.2 1.1 -1.7c.5 -.5 1.1 -.9 1.7 -1.1c.6 -.3 1.3 -.4 2 -.4Z" class="g0_53"/>
<path d="M86.8 155.6h71c.7 0 1.3 .1 2 .4c.6 .2 1.2 .6 1.7 1.1c.4 .5 .8 1 1.1 1.7c.2 .6 .4 1.3 .4 1.9v24.1c0 .7 -.2 1.3 -.4 2c-.3 .6 -.7 1.2 -1.1 1.6c-.5 .5 -1.1 .9 -1.7 1.2c-.7 .2 -1.3 .4 -2 .4h-71c-.7 0 -1.4 -.2 -2 -.4c-.6 -.3 -1.2 -.7 -1.7 -1.2c-.5 -.4 -.8 -1 -1.1 -1.6c-.3 -.7 -.4 -1.3 -.4 -2V160.7c0 -.6 .1 -1.3 .4 -1.9c.3 -.7 .6 -1.2 1.1 -1.7c.5 -.5 1.1 -.9 1.7 -1.1c.6 -.3 1.3 -.4 2 -.4Z" class="g1_53"/>
<path d="M86.8 270.2h70.9c.6 0 1.3 .1 1.9 .4c.7 .2 1.2 .6 1.7 1.1c.5 .5 .9 1 1.1 1.6c.3 .7 .4 1.3 .4 2v24.1c0 .7 -.1 1.3 -.4 2c-.2 .6 -.6 1.1 -1.1 1.6c-.5 .5 -1 .9 -1.7 1.1c-.6 .3 -1.3 .4 -1.9 .4H86.8c-.7 0 -1.4 -.1 -2 -.4c-.6 -.2 -1.2 -.6 -1.7 -1.1c-.5 -.5 -.8 -1 -1.1 -1.6c-.3 -.7 -.4 -1.3 -.4 -2V275.3c0 -.7 .1 -1.3 .4 -2c.3 -.6 .6 -1.1 1.1 -1.6c.5 -.5 1.1 -.9 1.7 -1.1c.6 -.3 1.3 -.4 2 -.4Z" class="g0_53"/>
<path d="M86.8 270.2h70.9c.6 0 1.3 .1 1.9 .4c.7 .2 1.2 .6 1.7 1.1c.5 .5 .9 1 1.1 1.6c.3 .7 .4 1.3 .4 2v24.1c0 .7 -.1 1.3 -.4 2c-.2 .6 -.6 1.1 -1.1 1.6c-.5 .5 -1 .9 -1.7 1.1c-.6 .3 -1.3 .4 -1.9 .4H86.8c-.7 0 -1.4 -.1 -2 -.4c-.6 -.2 -1.2 -.6 -1.7 -1.1c-.5 -.5 -.8 -1 -1.1 -1.6c-.3 -.7 -.4 -1.3 -.4 -2V275.3c0 -.7 .1 -1.3 .4 -2c.3 -.6 .6 -1.1 1.1 -1.6c.5 -.5 1.1 -.9 1.7 -1.1c.6 -.3 1.3 -.4 2 -.4ZM122.3 190l-.1 72.9" class="g1_53"/>
<path d="M122.2 268.9l-2.6 -8l2.6 2l2.7 -2l-2.7 8Z" class="g2_53"/>
<path d="M122.2 268.9l-2.6 -8l2.6 2l2.7 -2l-2.7 8Zm92.3 -21.7v15.7" class="g1_53"/>
<path d="M214.5 268.9l-2.6 -8l2.6 2l2.7 -2l-2.7 8Z" class="g2_53"/>
<path d="M214.5 268.9l-2.6 -8l2.6 2l2.7 -2l-2.7 8Z" class="g1_53"/>
<path d="M179.6 212.9h69.9c.7 0 1.3 .1 1.9 .4c.7 .2 1.2 .6 1.7 1.1c.5 .5 .9 1 1.1 1.7c.3 .6 .4 1.2 .4 1.9v24.1c0 .7 -.1 1.3 -.4 2c-.2 .6 -.6 1.2 -1.1 1.6c-.5 .5 -1 .9 -1.7 1.2c-.6 .2 -1.2 .3 -1.9 .3H179.6c-.7 0 -1.4 -.1 -2 -.3c-.6 -.3 -1.2 -.7 -1.7 -1.2c-.5 -.4 -.8 -1 -1.1 -1.6c-.2 -.7 -.4 -1.3 -.4 -2V218c0 -.7 .2 -1.3 .4 -1.9c.3 -.7 .6 -1.2 1.1 -1.7c.5 -.5 1.1 -.9 1.7 -1.1c.6 -.3 1.3 -.4 2 -.4Z" class="g0_53"/>
<path d="M179.6 212.9h69.9c.7 0 1.3 .1 1.9 .4c.7 .2 1.2 .6 1.7 1.1c.5 .5 .9 1 1.1 1.7c.3 .6 .4 1.2 .4 1.9v24.1c0 .7 -.1 1.3 -.4 2c-.2 .6 -.6 1.2 -1.1 1.6c-.5 .5 -1 .9 -1.7 1.2c-.6 .2 -1.2 .3 -1.9 .3H179.6c-.7 0 -1.4 -.1 -2 -.3c-.6 -.3 -1.2 -.7 -1.7 -1.2c-.5 -.4 -.8 -1 -1.1 -1.6c-.2 -.7 -.4 -1.3 -.4 -2V218c0 -.7 .2 -1.3 .4 -1.9c.3 -.7 .6 -1.2 1.1 -1.7c.5 -.5 1.1 -.9 1.7 -1.1c.6 -.3 1.3 -.4 2 -.4Z" class="g1_53"/>
<path d="M179.6 270.2h69.3c.7 0 1.3 .1 2 .4c.6 .2 1.2 .6 1.6 1.1c.5 .5 .9 1 1.2 1.6c.2 .7 .4 1.3 .4 2v24.1c0 .7 -.2 1.3 -.4 2c-.3 .6 -.7 1.1 -1.2 1.6c-.4 .5 -1 .9 -1.6 1.1c-.7 .3 -1.3 .4 -2 .4H179.6c-.7 0 -1.4 -.1 -2 -.4c-.6 -.2 -1.2 -.6 -1.7 -1.1c-.5 -.5 -.8 -1 -1.1 -1.6c-.2 -.7 -.4 -1.3 -.4 -2V275.3c0 -.7 .2 -1.3 .4 -2c.3 -.6 .6 -1.1 1.1 -1.6c.5 -.5 1.1 -.9 1.7 -1.1c.6 -.3 1.3 -.4 2 -.4Z" class="g0_53"/>
<path d="M179.6 270.2h69.3c.7 0 1.3 .1 2 .4c.6 .2 1.2 .6 1.6 1.1c.5 .5 .9 1 1.2 1.6c.2 .7 .4 1.3 .4 2v24.1c0 .7 -.2 1.3 -.4 2c-.3 .6 -.7 1.1 -1.2 1.6c-.4 .5 -1 .9 -1.6 1.1c-.7 .3 -1.3 .4 -2 .4H179.6c-.7 0 -1.4 -.1 -2 -.4c-.6 -.2 -1.2 -.6 -1.7 -1.1c-.5 -.5 -.8 -1 -1.1 -1.6c-.2 -.7 -.4 -1.3 -.4 -2V275.3c0 -.7 .2 -1.3 .4 -2c.3 -.6 .6 -1.1 1.1 -1.6c.5 -.5 1.1 -.9 1.7 -1.1c.6 -.3 1.3 -.4 2 -.4Z" class="g1_53"/>
<path d="M275.8 155.6h81.4c.7 0 1.3 .1 2 .4c.6 .2 1.1 .6 1.6 1.1c.5 .5 .9 1 1.1 1.7c.3 .6 .4 1.3 .4 1.9v24.1c0 .7 -.1 1.3 -.4 2c-.2 .6 -.6 1.2 -1.1 1.6c-.5 .5 -1 .9 -1.6 1.2c-.7 .2 -1.3 .4 -2 .4H275.8c-.7 0 -1.3 -.2 -1.9 -.4c-.7 -.3 -1.2 -.7 -1.7 -1.2c-.5 -.4 -.9 -1 -1.1 -1.6c-.3 -.7 -.4 -1.3 -.4 -2V160.7c0 -.6 .1 -1.3 .4 -1.9c.2 -.7 .6 -1.2 1.1 -1.7c.5 -.5 1 -.9 1.7 -1.1c.6 -.3 1.2 -.4 1.9 -.4Z" class="g0_53"/>
<path d="M275.8 155.6h81.4c.7 0 1.3 .1 2 .4c.6 .2 1.1 .6 1.6 1.1c.5 .5 .9 1 1.1 1.7c.3 .6 .4 1.3 .4 1.9v24.1c0 .7 -.1 1.3 -.4 2c-.2 .6 -.6 1.2 -1.1 1.6c-.5 .5 -1 .9 -1.6 1.2c-.7 .2 -1.3 .4 -2 .4H275.8c-.7 0 -1.3 -.2 -1.9 -.4c-.7 -.3 -1.2 -.7 -1.7 -1.2c-.5 -.4 -.9 -1 -1.1 -1.6c-.3 -.7 -.4 -1.3 -.4 -2V160.7c0 -.6 .1 -1.3 .4 -1.9c.2 -.7 .6 -1.2 1.1 -1.7c.5 -.5 1 -.9 1.7 -1.1c.6 -.3 1.2 -.4 1.9 -.4Z" class="g1_53"/>
<path d="M275.8 270.2h81.4c.7 0 1.3 .1 2 .4c.6 .2 1.1 .6 1.6 1.1c.5 .5 .9 1 1.1 1.6c.3 .7 .4 1.3 .4 2v24.1c0 .7 -.1 1.3 -.4 2c-.2 .6 -.6 1.1 -1.1 1.6c-.5 .5 -1 .9 -1.6 1.1c-.7 .3 -1.3 .4 -2 .4H275.8c-.7 0 -1.3 -.1 -1.9 -.4c-.7 -.2 -1.2 -.6 -1.7 -1.1c-.5 -.5 -.9 -1 -1.1 -1.6c-.3 -.7 -.4 -1.3 -.4 -2V275.3c0 -.7 .1 -1.3 .4 -2c.2 -.6 .6 -1.1 1.1 -1.6c.5 -.5 1 -.9 1.7 -1.1c.6 -.3 1.2 -.4 1.9 -.4Z" class="g0_53"/>
<path d="M275.8 270.2h81.4c.7 0 1.3 .1 2 .4c.6 .2 1.1 .6 1.6 1.1c.5 .5 .9 1 1.1 1.6c.3 .7 .4 1.3 .4 2v24.1c0 .7 -.1 1.3 -.4 2c-.2 .6 -.6 1.1 -1.1 1.6c-.5 .5 -1 .9 -1.6 1.1c-.7 .3 -1.3 .4 -2 .4H275.8c-.7 0 -1.3 -.1 -1.9 -.4c-.7 -.2 -1.2 -.6 -1.7 -1.1c-.5 -.5 -.9 -1 -1.1 -1.6c-.3 -.7 -.4 -1.3 -.4 -2V275.3c0 -.7 .1 -1.3 .4 -2c.2 -.6 .6 -1.1 1.1 -1.6c.5 -.5 1 -.9 1.7 -1.1c.6 -.3 1.2 -.4 1.9 -.4ZM316.5 190v72.9" class="g1_53"/>
<path d="M316.5 268.9l-2.7 -8l2.7 2l2.7 -2l-2.7 8Z" class="g2_53"/>
<path d="M316.5 268.9l-2.7 -8l2.7 2l2.7 -2l-2.7 8Z" class="g1_53"/>
<path d="M379 155.6h46.9c.7 0 1.4 .1 2 .4c.6 .2 1.2 .6 1.7 1.1c.5 .5 .8 1 1.1 1.7c.3 .6 .4 1.3 .4 1.9v24.1c0 .7 -.1 1.3 -.4 2c-.3 .6 -.6 1.2 -1.1 1.6c-.5 .5 -1.1 .9 -1.7 1.2c-.6 .2 -1.3 .4 -2 .4H379c-.7 0 -1.4 -.2 -2 -.4c-.7 -.3 -1.2 -.7 -1.7 -1.2c-.5 -.4 -.8 -1 -1.1 -1.6c-.3 -.7 -.4 -1.3 -.4 -2V160.7c0 -.6 .1 -1.3 .4 -1.9c.3 -.7 .6 -1.2 1.1 -1.7c.5 -.5 1 -.9 1.7 -1.1c.6 -.3 1.3 -.4 2 -.4Z" class="g0_53"/>
<path d="M379 155.6h46.9c.7 0 1.4 .1 2 .4c.6 .2 1.2 .6 1.7 1.1c.5 .5 .8 1 1.1 1.7c.3 .6 .4 1.3 .4 1.9v24.1c0 .7 -.1 1.3 -.4 2c-.3 .6 -.6 1.2 -1.1 1.6c-.5 .5 -1.1 .9 -1.7 1.2c-.6 .2 -1.3 .4 -2 .4H379c-.7 0 -1.4 -.2 -2 -.4c-.7 -.3 -1.2 -.7 -1.7 -1.2c-.5 -.4 -.8 -1 -1.1 -1.6c-.3 -.7 -.4 -1.3 -.4 -2V160.7c0 -.6 .1 -1.3 .4 -1.9c.3 -.7 .6 -1.2 1.1 -1.7c.5 -.5 1 -.9 1.7 -1.1c.6 -.3 1.3 -.4 2 -.4Z" class="g1_53"/>
<path d="M379 270.2h46.9c.7 0 1.4 .1 2 .4c.6 .2 1.2 .6 1.7 1.1c.5 .5 .8 1 1.1 1.6c.3 .7 .4 1.3 .4 2v24.1c0 .7 -.1 1.3 -.4 2c-.3 .6 -.6 1.1 -1.1 1.6c-.5 .5 -1.1 .9 -1.7 1.1c-.6 .3 -1.3 .4 -2 .4H379c-.7 0 -1.4 -.1 -2 -.4c-.7 -.2 -1.2 -.6 -1.7 -1.1c-.5 -.5 -.8 -1 -1.1 -1.6c-.3 -.7 -.4 -1.3 -.4 -2V275.3c0 -.7 .1 -1.3 .4 -2c.3 -.6 .6 -1.1 1.1 -1.6c.5 -.5 1 -.9 1.7 -1.1c.6 -.3 1.3 -.4 2 -.4Z" class="g0_53"/>
<path d="M379 270.2h46.9c.7 0 1.4 .1 2 .4c.6 .2 1.2 .6 1.7 1.1c.5 .5 .8 1 1.1 1.6c.3 .7 .4 1.3 .4 2v24.1c0 .7 -.1 1.3 -.4 2c-.3 .6 -.6 1.1 -1.1 1.6c-.5 .5 -1.1 .9 -1.7 1.1c-.6 .3 -1.3 .4 -2 .4H379c-.7 0 -1.4 -.1 -2 -.4c-.7 -.2 -1.2 -.6 -1.7 -1.1c-.5 -.5 -.8 -1 -1.1 -1.6c-.3 -.7 -.4 -1.3 -.4 -2V275.3c0 -.7 .1 -1.3 .4 -2c.3 -.6 .6 -1.1 1.1 -1.6c.5 -.5 1 -.9 1.7 -1.1c.6 -.3 1.3 -.4 2 -.4ZM402.4 190v72.9" class="g1_53"/>
<path d="M402.4 268.9l-2.6 -8l2.6 2l2.7 -2l-2.7 8Z" class="g2_53"/>
<path d="M402.4 268.9l-2.6 -8l2.6 2l2.7 -2l-2.7 8Z" class="g1_53"/>
<path d="M455.8 150.4h3.5v1.2h-3.5v-1.2Zm6.9 0h3.5v1.2h-3.5v-1.2Zm6.9 0H473v1.2h-3.4v-1.2Zm6.9 0h3.4v1.2h-3.4v-1.2Zm6.8 0h3.5v1.2h-3.5v-1.2Zm6.9 0h3.5v1.2h-3.5v-1.2Zm6.9 0h3.4v1.2h-3.4v-1.2Zm6.9 0h3.4v1.2H504v-1.2Zm6.8 0h3.5v1.2h-3.5v-1.2Zm6.9 0h3.5v1.2h-3.5v-1.2Zm6.9 0H528v1.2h-3.4v-1.2Zm6.9 0h3.4v1.2h-3.4v-1.2Zm6.8 0h3.5v1.2h-3.5v-1.2Zm6.9 0h3.5v1.2h-3.5v-1.2Zm6.9 0h3.4v1.2h-3.4v-1.2Zm6.9 0h3.4v1.2H559v-1.2Zm6.8 0h3.5v1.2h-3.5v-1.2Zm6.9 0h3.5v1.2h-3.5v-1.2Zm6.9 0H583v1.2h-3.4v-1.2Zm6.9 0h3.4v1.2h-3.4v-1.2Zm6.8 0h3.5v1.2h-3.5v-1.2Zm6.9 0h3.5v1.2h-3.5v-1.2Zm6.9 0h.9c.9 0 1.8 .2 2.6 .5l-.4 1.1c-.7 -.3 -1.4 -.4 -2.2 -.4h-.9v-1.2Zm6.6 3c.8 1.1 1.2 2.3 1.3 3.6l-1.2 .1c0 -1.1 -.4 -2.1 -1 -3l.9 -.7Zm1.3 7v3.5h-1.2v-3.5H615Zm0 6.9v3.4h-1.2v-3.4H615Zm0 6.9v3.4h-1.2v-3.4H615Zm0 6.9v3.4h-1.2v-3.4H615Zm0 6.8v3.5h-1.2v-3.5H615Zm0 6.9v3.4h-1.2v-3.4H615Zm0 6.9v3.4h-1.2v-3.4H615Zm0 6.9V212h-1.2v-3.4H615Zm0 6.8v3.5h-1.2v-3.5H615Zm0 6.9v3.4h-1.2v-3.4H615Zm0 6.9v3.4h-1.2v-3.4H615Zm0 6.9v3.4h-1.2v-3.4H615Zm0 6.8v3.5h-1.2v-3.5H615Zm0 6.9v3.4h-1.2v-3.4H615Zm0 6.9v3.4h-1.2v-3.4H615Zm0 6.9V267h-1.2v-3.4H615Zm0 6.8v3.5h-1.2v-3.5H615Zm0 6.9v3.4h-1.2v-3.4H615Zm0 6.9v3.4h-1.2v-3.4H615Zm0 6.9v3.4h-1.2v-3.4H615Zm0 6.8v3.5h-1.2v-3.5H615Zm0 6.9v.2c0 1.2 -.3 2.3 -.9 3.4l-1 -.6c.5 -.9 .7 -1.8 .7 -2.8v-.2H615Zm-3.7 6.4c-1 .5 -2.1 .8 -3.3 .8h-.3v-1.2h.3c1 0 1.9 -.2 2.8 -.6l.5 1Zm-7 .8h-3.5v-1.2h3.5V312Zm-6.9 0H594v-1.2h3.4V312Zm-6.9 0h-3.4v-1.2h3.4V312Zm-6.9 0h-3.4v-1.2h3.4V312Zm-6.8 0h-3.5v-1.2h3.5V312Zm-6.9 0h-3.4v-1.2h3.4V312Zm-6.9 0h-3.4v-1.2H563V312Zm-6.9 0h-3.4v-1.2h3.4V312Zm-6.8 0h-3.5v-1.2h3.5V312Zm-6.9 0H539v-1.2h3.4V312Zm-6.9 0h-3.4v-1.2h3.4V312Zm-6.9 0h-3.4v-1.2h3.4V312Zm-6.8 0h-3.5v-1.2h3.5V312Zm-6.9 0h-3.4v-1.2h3.4V312Zm-6.9 0h-3.4v-1.2H508V312Zm-6.9 0h-3.4v-1.2h3.4V312Zm-6.8 0h-3.5v-1.2h3.5V312Zm-6.9 0H484v-1.2h3.4V312Zm-6.9 0h-3.4v-1.2h3.4V312Zm-6.9 0h-3.4v-1.2h3.4V312Zm-6.8 0h-3.5v-1.2h3.5V312Zm-6.9 0h-3.4v-1.2h3.4V312Zm-6.9 0h-3.4v-1.2H453V312Zm-7 -.7c-1.2 -.5 -2.2 -1.4 -3 -2.6l1 -.6c.6 1 1.5 1.7 2.5 2.2l-.5 1Zm-4 -6.2c0 0 0 -.1 0 -.1v-3.3h1.1V305c0 0 0 .1 0 .1H442Zm0 -6.8v-3.5h1.1v3.5H442Zm0 -6.9v-3.5h1.1v3.5H442Zm0 -6.9v-3.4h1.1v3.4H442Zm0 -6.9v-3.4h1.1v3.4H442Zm0 -6.8v-3.5h1.1v3.5H442Zm0 -6.9v-3.5h1.1v3.5H442Zm0 -6.9v-3.4h1.1V257H442Zm0 -6.9v-3.4h1.1v3.4H442Zm0 -6.8v-3.5h1.1v3.5H442Zm0 -6.9v-3.5h1.1v3.5H442Zm0 -6.9v-3.4h1.1v3.4H442Zm0 -6.9v-3.4h1.1v3.4H442Zm0 -6.8v-3.5h1.1v3.5H442Zm0 -6.9v-3.5h1.1v3.5H442Zm0 -6.9v-3.4h1.1V202H442Zm0 -6.9v-3.4h1.1v3.4H442Zm0 -6.8v-3.5h1.1v3.5H442Zm0 -6.9v-3.5h1.1v3.5H442Zm0 -6.9v-3.4h1.1v3.4H442Zm0 -6.9v-3.4h1.1v3.4H442Zm0 -6.8v-3.5h1.1q0 .1 0 .1v3.4H442Zm1 -7.1c.7 -1.1 1.7 -2 3 -2.6l.5 1c-1.1 .5 -1.9 1.3 -2.5 2.2l-1 -.6Zm6 -3.3h3.4v1.2H449v-1.2Z" class="g2_53"/>
<path d="M454.6 155.6h81.3c.7 0 1.4 .1 2 .4c.6 .2 1.2 .6 1.7 1.1c.5 .5 .8 1 1.1 1.7c.3 .6 .4 1.3 .4 1.9v24.1c0 .7 -.1 1.3 -.4 2c-.3 .6 -.6 1.2 -1.1 1.6c-.5 .5 -1.1 .9 -1.7 1.2c-.6 .2 -1.3 .4 -2 .4H454.6c-.7 0 -1.4 -.2 -2 -.4c-.6 -.3 -1.2 -.7 -1.7 -1.2c-.5 -.4 -.8 -1 -1.1 -1.6c-.2 -.7 -.4 -1.3 -.4 -2V160.7c0 -.6 .2 -1.3 .4 -1.9c.3 -.7 .6 -1.2 1.1 -1.7c.5 -.5 1.1 -.9 1.7 -1.1c.6 -.3 1.3 -.4 2 -.4Z" class="g0_53"/>
<path d="M454.6 155.6h81.3c.7 0 1.4 .1 2 .4c.6 .2 1.2 .6 1.7 1.1c.5 .5 .8 1 1.1 1.7c.3 .6 .4 1.3 .4 1.9v24.1c0 .7 -.1 1.3 -.4 2c-.3 .6 -.6 1.2 -1.1 1.6c-.5 .5 -1.1 .9 -1.7 1.2c-.6 .2 -1.3 .4 -2 .4H454.6c-.7 0 -1.4 -.2 -2 -.4c-.6 -.3 -1.2 -.7 -1.7 -1.2c-.5 -.4 -.8 -1 -1.1 -1.6c-.2 -.7 -.4 -1.3 -.4 -2V160.7c0 -.6 .2 -1.3 .4 -1.9c.3 -.7 .6 -1.2 1.1 -1.7c.5 -.5 1.1 -.9 1.7 -1.1c.6 -.3 1.3 -.4 2 -.4Z" class="g1_53"/>
<path d="M454.6 270.2h81.3c.7 0 1.4 .1 2 .4c.6 .2 1.2 .6 1.7 1.1c.5 .5 .8 1 1.1 1.6c.3 .7 .4 1.3 .4 2v24.1c0 .7 -.1 1.3 -.4 2c-.3 .6 -.6 1.1 -1.1 1.6c-.5 .5 -1.1 .9 -1.7 1.1c-.6 .3 -1.3 .4 -2 .4H454.6c-.7 0 -1.4 -.1 -2 -.4c-.6 -.2 -1.2 -.6 -1.7 -1.1c-.5 -.5 -.8 -1 -1.1 -1.6c-.2 -.7 -.4 -1.3 -.4 -2V275.3c0 -.7 .2 -1.3 .4 -2c.3 -.6 .6 -1.1 1.1 -1.6c.5 -.5 1.1 -.9 1.7 -1.1c.6 -.3 1.3 -.4 2 -.4Z" class="g0_53"/>
<path d="M454.6 270.2h81.3c.7 0 1.4 .1 2 .4c.6 .2 1.2 .6 1.7 1.1c.5 .5 .8 1 1.1 1.6c.3 .7 .4 1.3 .4 2v24.1c0 .7 -.1 1.3 -.4 2c-.3 .6 -.6 1.1 -1.1 1.6c-.5 .5 -1.1 .9 -1.7 1.1c-.6 .3 -1.3 .4 -2 .4H454.6c-.7 0 -1.4 -.1 -2 -.4c-.6 -.2 -1.2 -.6 -1.7 -1.1c-.5 -.5 -.8 -1 -1.1 -1.6c-.2 -.7 -.4 -1.3 -.4 -2V275.3c0 -.7 .2 -1.3 .4 -2c.3 -.6 .6 -1.1 1.1 -1.6c.5 -.5 1.1 -.9 1.7 -1.1c.6 -.3 1.3 -.4 2 -.4ZM495.3 190v72.9" class="g1_53"/>
<path d="M495.3 268.9l-2.7 -8l2.7 2l2.6 -2l-2.6 8Z" class="g2_53"/>
<path d="M495.3 268.9l-2.7 -8l2.7 2l2.6 -2l-2.6 8Z" class="g1_53"/>
<path d="M557.7 155.6h47c.7 0 1.3 .1 2 .4c.6 .2 1.1 .6 1.6 1.1c.5 .5 .9 1 1.1 1.7c.3 .6 .4 1.3 .4 1.9v24.1c0 .7 -.1 1.3 -.4 2c-.2 .6 -.6 1.2 -1.1 1.6c-.5 .5 -1 .9 -1.6 1.2c-.7 .2 -1.3 .4 -2 .4h-47c-.7 0 -1.3 -.2 -2 -.4c-.6 -.3 -1.2 -.7 -1.6 -1.2c-.5 -.4 -.9 -1 -1.2 -1.6c-.2 -.7 -.4 -1.3 -.4 -2V160.7c0 -.6 .2 -1.3 .4 -1.9c.3 -.7 .7 -1.2 1.2 -1.7c.4 -.5 1 -.9 1.6 -1.1c.7 -.3 1.3 -.4 2 -.4Z" class="g0_53"/>
<path d="M557.7 155.6h47c.7 0 1.3 .1 2 .4c.6 .2 1.1 .6 1.6 1.1c.5 .5 .9 1 1.1 1.7c.3 .6 .4 1.3 .4 1.9v24.1c0 .7 -.1 1.3 -.4 2c-.2 .6 -.6 1.2 -1.1 1.6c-.5 .5 -1 .9 -1.6 1.2c-.7 .2 -1.3 .4 -2 .4h-47c-.7 0 -1.3 -.2 -2 -.4c-.6 -.3 -1.2 -.7 -1.6 -1.2c-.5 -.4 -.9 -1 -1.2 -1.6c-.2 -.7 -.4 -1.3 -.4 -2V160.7c0 -.6 .2 -1.3 .4 -1.9c.3 -.7 .7 -1.2 1.2 -1.7c.4 -.5 1 -.9 1.6 -1.1c.7 -.3 1.3 -.4 2 -.4Z" class="g1_53"/>
<path d="M557.7 270.2h47c.7 0 1.3 .1 2 .4c.6 .2 1.1 .6 1.6 1.1c.5 .5 .9 1 1.1 1.6c.3 .7 .4 1.3 .4 2v24.1c0 .7 -.1 1.3 -.4 2c-.2 .6 -.6 1.1 -1.1 1.6c-.5 .5 -1 .9 -1.6 1.1c-.7 .3 -1.3 .4 -2 .4h-47c-.7 0 -1.3 -.1 -2 -.4c-.6 -.2 -1.2 -.6 -1.6 -1.1c-.5 -.5 -.9 -1 -1.2 -1.6c-.2 -.7 -.4 -1.3 -.4 -2V275.3c0 -.7 .2 -1.3 .4 -2c.3 -.6 .7 -1.1 1.2 -1.6c.4 -.5 1 -.9 1.6 -1.1c.7 -.3 1.3 -.4 2 -.4Z" class="g0_53"/>
<path d="M557.7 270.2h47c.7 0 1.3 .1 2 .4c.6 .2 1.1 .6 1.6 1.1c.5 .5 .9 1 1.1 1.6c.3 .7 .4 1.3 .4 2v24.1c0 .7 -.1 1.3 -.4 2c-.2 .6 -.6 1.1 -1.1 1.6c-.5 .5 -1 .9 -1.6 1.1c-.7 .3 -1.3 .4 -2 .4h-47c-.7 0 -1.3 -.1 -2 -.4c-.6 -.2 -1.2 -.6 -1.6 -1.1c-.5 -.5 -.9 -1 -1.2 -1.6c-.2 -.7 -.4 -1.3 -.4 -2V275.3c0 -.7 .2 -1.3 .4 -2c.3 -.6 .7 -1.1 1.2 -1.6c.4 -.5 1 -.9 1.6 -1.1c.7 -.3 1.3 -.4 2 -.4ZM581.2 190v72.9" class="g1_53"/>
<path d="M581.2 268.9l-2.7 -8l2.7 2l2.7 -2l-2.7 8Z" class="g2_53"/>
<path d="M581.2 268.9l-2.7 -8l2.7 2l2.7 -2l-2.7 8Z" class="g1_53"/>
</g>
</svg>