<?xml version="1.0" encoding="UTF-8" standalone="no"?>
<!DOCTYPE svg PUBLIC "-//W3C//DTD SVG 1.1//EN"
"http://www.w3.org/Graphics/SVG/1.1/DTD/svg11.dtd">
<svg viewBox="0 0 714 1017" version="1.1" xmlns="http://www.w3.org/2000/svg" xmlns:xlink="http://www.w3.org/1999/xlink">
<defs>
<clipPath id="c0_169"><path d="M65.4 474V97H627.6V474Z"/></clipPath>
<clipPath id="c1_169"><path d="M65.4 474.3V96.9H627.6V474.3Z"/></clipPath>
<style type="text/css"><![CDATA[
.g0_169{
fill: #FFF;
}
.g1_169{
fill: none;
stroke: #000;
stroke-width: 1.145;
stroke-miterlimit: 10;
}
.g2_169{
fill: #000;
}
.g3_169{
fill: #333;
}
.g4_169{
fill: #666;
}
.g5_169{
fill: #999;
}
.g6_169{
fill: #CCC;
}
]]></style>
</defs>
<path d="M0 1017.7H717.2V-3.7H0V1017.7Z" class="g0_169"/>
<g clip-path="url(#c1_169)">
<path clip-path="url(#c0_169)" d="M65.4 97H628V474H65.4V97Z" class="g0_169"/>
<path d="M250.2 143.4H502.3v57.3H250.2V143.4ZM207.5 244.2V231.1c0 -7.7 3.8 -11.5 11.4 -11.5h48.5c7.7 0 11.5 -2.9 11.5 -8.7v-8.6" class="g1_169"/>
<path d="M278.9 196.3l2.6 8l-2.6 -2l-2.7 2l2.7 -8Z" class="g2_169"/>
<path d="M278.9 196.3l2.6 8l-2.6 -2l-2.7 2l2.7 -8Zm-105 47.9V223.6c0 -7.6 3.8 -11.4 11.5 -11.4H256c7.6 0 11.4 -1.7 11.4 -5v-4.9" class="g1_169"/>
<path d="M267.4 196.3l2.7 8l-2.7 -2l-2.7 2l2.7 -8Z" class="g2_169"/>
<path d="M267.4 196.3l2.7 8l-2.7 -2l-2.7 2l2.7 -8Zm-190 60.9c0 -4 7.7 -7.2 17.2 -7.2c4.6 0 9 .7 12.2 2.1c3.2 1.4 5 3.2 5 5.1v19.9c0 4 -7.7 7.2 -17.2 7.2c-9.5 0 -17.2 -3.2 -17.2 -7.2V257.2Zm34.4 0c0 4 -7.7 7.3 -17.2 7.3c-9.5 0 -17.2 -3.3 -17.2 -7.3m5.8 -97.8h22.9v23H83.2v-23Zm5.7 0v-5.7m5.7 0v5.7m5.8 -5.7v5.7M88.9 188.1v-5.7m5.7 0v5.7m5.8 -5.7v5.7m5.7 -22.9h5.7m0 5.7h-5.7m5.7 5.7h-5.7M77.4 165.2h5.8m0 5.7H77.4m5.8 5.7H77.4" class="g1_169"/>
<path d="M66 234.5h3.4v1.1H66m6.9 -1.1h3.4v1.1H72.9m6.8 -1.1h3.5v1.1H79.7m6.9 -1.1H90v1.1H86.6m6.9 -1.1h3.4v1.1H93.5m6.9 -1.1h3.4v1.1h-3.4m6.8 -1.1h3.5v1.1h-3.5m6.9 -1.1h3.4v1.1h-3.4m6.9 -1.1h3.4v1.1H121m6.9 -1.1h3.4v1.1h-3.4m6.8 -1.1h3.5v1.1h-3.5m6.9 -1.1H145v1.1h-3.4m6.9 -1.1h3.4v1.1h-3.4m6.9 -1.1h3.4v1.1h-3.4m6.8 -1.1h3.5v1.1h-3.5m6.9 -1.1h3.4v1.1h-3.4m6.9 -1.1h3.4v1.1H176m6.9 -1.1h3.4v1.1h-3.4m6.8 -1.1h3.5v1.1h-3.5m6.9 -1.1H200v1.1h-3.4m6.9 -1.1h3.4v1.1h-3.4m6.9 -1.1h3.4v1.1h-3.4m6.8 -1.1h3.5v1.1h-3.5m6.9 -1.1h3.4v1.1h-3.4m6.9 -1.1h3.4v1.1H231m6.9 -1.1h3.4v1.1h-3.4m6.8 -1.1h3.5v1.1h-3.5m6.9 -1.1H255v1.1h-3.4m6.9 -1.1h3.4v1.1h-3.4m6.9 -1.1h3.4v1.1h-3.4m6.8 -1.1h3.5v1.1h-3.5m6.9 -1.1h3.4v1.1h-3.4m6.9 -1.1h3.4v1.1H286m6.9 -1.1h3.4v1.1h-3.4m6.8 -1.1h3.5v1.1h-3.5m6.9 -1.1H310v1.1h-3.4m6.9 -1.1h3.4v1.1h-3.4m6.9 -1.1h3.4v1.1h-3.4m6.8 -1.1h3.5v1.1h-3.5m6.9 -1.1h3.4v1.1h-3.4m6.9 -1.1h3.4v1.1H341m6.9 -1.1h3.4v1.1h-3.4m6.8 -1.1h3.5v1.1h-3.5m6.9 -1.1H365v1.1h-3.4m6.9 -1.1h3.4v1.1h-3.4m6.9 -1.1h3.4v1.1h-3.4m6.8 -1.1h3.5v1.1h-3.5m6.9 -1.1h3.4v1.1h-3.4m6.9 -1.1h3.4v1.1H396m6.9 -1.1h3.4v1.1h-3.4m6.8 -1.1h3.5v1.1h-3.5m6.9 -1.1H420v1.1h-3.4m6.9 -1.1h3.4v1.1h-3.4m6.9 -1.1h3.4v1.1h-3.4m6.8 -1.1h3.5v1.1h-3.5m6.9 -1.1h3.4v1.1h-3.4m6.9 -1.1h3.4v1.1H451m6.9 -1.1h3.4v1.1h-3.4m6.8 -1.1h3.5v1.1h-3.5m6.9 -1.1H475v1.1h-3.4m6.9 -1.1h3.4v1.1h-3.4m6.9 -1.1h3.4v1.1h-3.4m6.8 -1.1h3.5v1.1h-3.5m6.9 -1.1h3.4v1.1h-3.4m6.9 -1.1h3.4v1.1H506m6.9 -1.1h3.4v1.1h-3.4m6.8 -1.1h3.5v1.1h-3.5m6.9 -1.1H530v1.1h-3.4m6.9 -1.1h3.4v1.1h-3.4m6.9 -1.1h3.4v1.1h-3.4m6.8 -1.1h3.5v1.1h-3.5m6.9 -1.1h3.4v1.1h-3.4m6.9 -1.1h3.4v1.1H561m6.9 -1.1h3.4v1.1h-3.4m6.8 -1.1h3.5v1.1h-3.5m6.9 -1.1H585v1.1h-3.4m6.9 -1.1h3.4v1.1h-3.4m6.9 -1.1h3.4v1.1h-3.4m6.8 -1.1h3.5v1.1h-3.5m6.9 -1.1h3.4v1.1h-3.4Z" class="g2_169"/>
<path d="M261.7 149.1h11.4V195H261.7V149.1Z" class="g0_169"/>
<path d="M261.7 149.1h11.4V195H261.7V149.1Z" class="g1_169"/>
<path d="M273.1 149.1h11.5V195H273.1V149.1Z" class="g0_169"/>
<path d="M273.1 149.1h11.5V195H273.1V149.1Z" class="g1_169"/>
<path d="M284.6 149.1h11.5V195H284.6V149.1Z" class="g0_169"/>
<path d="M284.6 149.1h11.5V195H284.6V149.1Zm-21.1 95.1v-8.6c0 -5.7 3.8 -8.5 11.5 -8.5h7.7c5.1 0 7.6 -3.9 7.6 -11.5V202.3" class="g1_169"/>
<path d="M290.3 196.3l2.7 8l-2.7 -2l-2.6 2l2.6 -8Z" class="g2_169"/>
<path d="M290.3 196.3l2.7 8l-2.7 -2l-2.6 2l2.6 -8Z" class="g1_169"/>
<path d="M341.9 149.1h11.5V195H341.9V149.1Z" class="g0_169"/>
<path d="M341.9 149.1h11.5V195H341.9V149.1Z" class="g1_169"/>
<path d="M353.4 149.1h11.4V195H353.4V149.1Z" class="g0_169"/>
<path d="M353.4 149.1h11.4V195H353.4V149.1Z" class="g1_169"/>
<path d="M364.8 149.1h11.5V195H364.8V149.1Z" class="g0_169"/>
<path d="M364.8 149.1h11.5V195H364.8V149.1ZM241.1 358.5V334.8c0 -7.7 3.8 -11.5 11.4 -11.5h7c4.7 0 10.8 0 18.5 0h81.1c7.6 0 11.4 -3.8 11.4 -11.5V202.3" class="g1_169"/>
<path d="M370.5 196.3l2.7 8l-2.7 -2l-2.6 2l2.6 -8Z" class="g2_169"/>
<path d="M370.5 196.3l2.7 8l-2.7 -2l-2.6 2l2.6 -8ZM218.7 358.5V323.3c0 -7.6 3.8 -11.5 11.5 -11.5h6.7c4.4 0 10.5 0 18.1 0h92.6c7.7 0 11.5 -3.8 11.5 -11.4V202.3" class="g1_169"/>
<path d="M359.1 196.3l2.7 8l-2.7 -2l-2.7 2l2.7 -8Z" class="g2_169"/>
<path d="M359.1 196.3l2.7 8l-2.7 -2l-2.7 2l2.7 -8ZM140.3 358.5V311.8c0 -7.6 3.9 -11.4 11.5 -11.4H336.2c7.6 0 11.4 -3.8 11.4 -11.5V202.3" class="g1_169"/>
<path d="M347.6 196.3l2.7 8l-2.7 -2l-2.6 2l2.6 -8Z" class="g2_169"/>
<path d="M347.6 196.3l2.7 8l-2.7 -2l-2.6 2l2.6 -8ZM319 103.3c0 .8 -.2 1.5 -.5 2.2c-.2 .7 -.7 1.3 -1.2 1.9c-.5 .5 -1.2 .9 -1.9 1.2c-.7 .3 -1.4 .4 -2.1 .4c-.8 0 -1.5 -.1 -2.2 -.4c-.7 -.3 -1.4 -.7 -1.9 -1.2c-.5 -.6 -1 -1.2 -1.2 -1.9c-.3 -.7 -.5 -1.4 -.5 -2.2c0 -.8 .2 -1.5 .5 -2.2c.2 -.7 .7 -1.3 1.2 -1.8c.5 -.6 1.2 -1 1.9 -1.3c.7 -.3 1.4 -.4 2.2 -.4c.7 0 1.4 .1 2.1 .4c.7 .3 1.4 .7 1.9 1.3c.5 .5 1 1.1 1.2 1.8c.3 .7 .5 1.4 .5 2.2Zm28.6 45.8v-10c0 -6.7 -3.8 -10 -11.4 -10h-9.5c-6.3 0 -9.4 -2.4 -9.4 -7.2v-7.3" class="g1_169"/>
<path d="M317.3 108.6l2.7 8.1l-2.7 -2.1l-2.7 2.1l2.7 -8.1Z" class="g2_169"/>
<path d="M317.3 108.6l2.7 8.1l-2.7 -2.1l-2.7 2.1l2.7 -8.1Zm-49.9 40.5v-10c0 -6.7 3.8 -10 11.5 -10h18.9c7.6 0 11.4 -2.4 11.4 -7.2v-7.3" class="g1_169"/>
<path d="M309.2 108.6l2.7 8.1l-2.7 -2.1l-2.7 2.1l2.7 -8.1Z" class="g2_169"/>
<path d="M309.2 108.6l2.7 8.1l-2.7 -2.1l-2.7 2.1l2.7 -8.1Z" class="g1_169"/>
<path d="M376.3 149.1h11.4V195H376.3V149.1Z" class="g0_169"/>
<path d="M376.3 149.1h11.4V195H376.3V149.1ZM352.9 358.5V348.4c0 -6.8 3.8 -10.2 11.5 -10.2h8.8c5.9 0 8.8 -3.8 8.8 -11.5V202.3" class="g1_169"/>
<path d="M382 196.3l2.7 8l-2.7 -2l-2.7 2l2.7 -8Z" class="g2_169"/>
<path d="M382 196.3l2.7 8l-2.7 -2l-2.7 2l2.7 -8Z" class="g1_169"/>
<path d="M168.3 244.2h11.2v46.2H168.3V244.2Z" class="g0_169"/>
<path d="M168.3 244.2h11.2v46.2H168.3V244.2Z" class="g1_169"/>
<path d="M145.9 244.2h11.2v46.2H145.9V244.2Z" class="g3_169"/>
<path d="M145.9 244.2h11.2v46.2H145.9V244.2Z" class="g1_169"/>
<path d="M213.1 244.2h11.2v46.2H213.1V244.2Z" class="g4_169"/>
<path d="M213.1 244.2h11.2v46.2H213.1V244.2Z" class="g1_169"/>
<path d="M157.1 244.2h11.2v46.2H157.1V244.2Z" class="g5_169"/>
<path d="M157.1 244.2h11.2v46.2H157.1V244.2Z" class="g1_169"/>
<path d="M134.7 244.2h11.2v46.2H134.7V244.2Z" class="g6_169"/>
<path d="M134.7 244.2h11.2v46.2H134.7V244.2Z" class="g1_169"/>
<path d="M224.3 244.2h11.2v46.2H224.3V244.2Z" class="g2_169"/>
<path d="M224.3 244.2h11.2v46.2H224.3V244.2Z" class="g1_169"/>
<path d="M201.9 244.2h11.2v46.2H201.9V244.2Z" class="g0_169"/>
<path d="M201.9 244.2h11.2v46.2H201.9V244.2Z" class="g1_169"/>
<path d="M246.7 244.2h11.2v46.2H246.7V244.2Z" class="g3_169"/>
<path d="M246.7 244.2h11.2v46.2H246.7V244.2Z" class="g1_169"/>
<path d="M235.5 244.2h11.2v46.2H235.5V244.2Z" class="g4_169"/>
<path d="M235.5 244.2h11.2v46.2H235.5V244.2Z" class="g1_169"/>
<path d="M280.3 244.2h11.2v46.2H280.3V244.2Z" class="g5_169"/>
<path d="M280.3 244.2h11.2v46.2H280.3V244.2Z" class="g1_169"/>
<path d="M190.7 244.2h11.2v46.2H190.7V244.2Z" class="g6_169"/>
<path d="M190.7 244.2h11.2v46.2H190.7V244.2Z" class="g1_169"/>
<path d="M179.5 244.2h11.2v46.2H179.5V244.2Z" class="g2_169"/>
<path d="M179.5 244.2h11.2v46.2H179.5V244.2Z" class="g1_169"/>
<path d="M257.9 244.2h11.2v46.2H257.9V244.2Z" class="g0_169"/>
<path d="M257.9 244.2h11.2v46.2H257.9V244.2Z" class="g1_169"/>
<path d="M269.1 244.2h11.2v46.2H269.1V244.2Z" class="g3_169"/>
<path d="M269.1 244.2h11.2v46.2H269.1V244.2Z" class="g1_169"/>
<path d="M302.7 244.2h11.2v46.2H302.7V244.2Z" class="g4_169"/>
<path d="M302.7 244.2h11.2v46.2H302.7V244.2Z" class="g1_169"/>
<path d="M325.1 244.2h11.2v46.2H325.1V244.2Z" class="g5_169"/>
<path d="M325.1 244.2h11.2v46.2H325.1V244.2Z" class="g1_169"/>
<path d="M313.9 244.2h11.2v46.2H313.9V244.2Z" class="g6_169"/>
<path d="M313.9 244.2h11.2v46.2H313.9V244.2Z" class="g1_169"/>
<path d="M291.5 244.2h11.2v46.2H291.5V244.2Z" class="g2_169"/>
<path d="M291.5 244.2h11.2v46.2H291.5V244.2Z" class="g1_169"/>
<path d="M526.7 244.2h11.2v46.2H526.7V244.2Z" class="g3_169"/>
<path d="M526.7 244.2h11.2v46.2H526.7V244.2Z" class="g1_169"/>
<path d="M481.9 244.2h11.2v46.2H481.9V244.2Z" class="g4_169"/>
<path d="M481.9 244.2h11.2v46.2H481.9V244.2Z" class="g1_169"/>
<path d="M448.3 244.2h11.2v46.2H448.3V244.2Z" class="g5_169"/>
<path d="M448.3 244.2h11.2v46.2H448.3V244.2Z" class="g1_169"/>
<path d="M403.5 244.2h11.2v46.2H403.5V244.2Z" class="g6_169"/>
<path d="M403.5 244.2h11.2v46.2H403.5V244.2Z" class="g1_169"/>
<path d="M582.6 244.2h11.2v46.2H582.6V244.2Z" class="g2_169"/>
<path d="M582.6 244.2h11.2v46.2H582.6V244.2Z" class="g1_169"/>
<path d="M537.9 244.2h11.2v46.2H537.9V244.2Z" class="g3_169"/>
<path d="M537.9 244.2h11.2v46.2H537.9V244.2Z" class="g1_169"/>
<path d="M493.1 244.2h11.2v46.2H493.1V244.2Z" class="g4_169"/>
<path d="M493.1 244.2h11.2v46.2H493.1V244.2Z" class="g1_169"/>
<path d="M459.5 244.2h11.2v46.2H459.5V244.2Z" class="g5_169"/>
<path d="M459.5 244.2h11.2v46.2H459.5V244.2Z" class="g1_169"/>
<path d="M414.7 244.2h11.2v46.2H414.7V244.2Z" class="g6_169"/>
<path d="M414.7 244.2h11.2v46.2H414.7V244.2Z" class="g1_169"/>
<path d="M571.5 244.2h11.1v46.2H571.5V244.2Z" class="g2_169"/>
<path d="M571.5 244.2h11.1v46.2H571.5V244.2Z" class="g1_169"/>
<path d="M549.1 244.2h11.1v46.2H549.1V244.2Z" class="g3_169"/>
<path d="M549.1 244.2h11.1v46.2H549.1V244.2Z" class="g1_169"/>
<path d="M504.3 244.2h11.2v46.2H504.3V244.2Z" class="g4_169"/>
<path d="M504.3 244.2h11.2v46.2H504.3V244.2Z" class="g1_169"/>
<path d="M437.1 244.2h11.2v46.2H437.1V244.2Z" class="g5_169"/>
<path d="M437.1 244.2h11.2v46.2H437.1V244.2Z" class="g1_169"/>
<path d="M392.3 244.2h11.2v46.2H392.3V244.2Z" class="g6_169"/>
<path d="M392.3 244.2h11.2v46.2H392.3V244.2Z" class="g1_169"/>
<path d="M593.8 244.2H605v46.2H593.8V244.2Z" class="g2_169"/>
<path d="M593.8 244.2H605v46.2H593.8V244.2Z" class="g1_169"/>
<path d="M134.7 358.5h11.2v46.2H134.7V358.5Z" class="g0_169"/>
<path d="M134.7 358.5h11.2v46.2H134.7V358.5Z" class="g1_169"/>
<path d="M302.7 358.5h11.2v46.2H302.7V358.5Z" class="g3_169"/>
<path d="M302.7 358.5h11.2v46.2H302.7V358.5Z" class="g1_169"/>
<path d="M157.1 358.5h11.2v46.2H157.1V358.5Z" class="g5_169"/>
<path d="M157.1 358.5h11.2v46.2H157.1V358.5Z" class="g1_169"/>
<path d="M145.9 358.5h11.2v46.2H145.9V358.5Z" class="g6_169"/>
<path d="M145.9 358.5h11.2v46.2H145.9V358.5Z" class="g1_169"/>
<path d="M235.5 358.5h11.2v46.2H235.5V358.5Z" class="g0_169"/>
<path d="M235.5 358.5h11.2v46.2H235.5V358.5Z" class="g1_169"/>
<path d="M224.3 358.5h11.2v46.2H224.3V358.5Z" class="g3_169"/>
<path d="M224.3 358.5h11.2v46.2H224.3V358.5Z" class="g1_169"/>
<path d="M280.3 358.5h11.2v46.2H280.3V358.5Z" class="g4_169"/>
<path d="M280.3 358.5h11.2v46.2H280.3V358.5Z" class="g1_169"/>
<path d="M257.9 358.5h11.2v46.2H257.9V358.5Z" class="g5_169"/>
<path d="M257.9 358.5h11.2v46.2H257.9V358.5Z" class="g1_169"/>
<path d="M179.5 358.5h11.2v46.2H179.5V358.5Z" class="g6_169"/>
<path d="M179.5 358.5h11.2v46.2H179.5V358.5Z" class="g1_169"/>
<path d="M213.1 358.5h11.2v46.2H213.1V358.5Z" class="g0_169"/>
<path d="M213.1 358.5h11.2v46.2H213.1V358.5Z" class="g1_169"/>
<path d="M246.7 358.5h11.2v46.2H246.7V358.5Z" class="g3_169"/>
<path d="M246.7 358.5h11.2v46.2H246.7V358.5Z" class="g1_169"/>
<path d="M201.9 358.5h11.2v46.2H201.9V358.5Z" class="g4_169"/>
<path d="M201.9 358.5h11.2v46.2H201.9V358.5Z" class="g1_169"/>
<path d="M269.1 358.5h11.2v46.2H269.1V358.5Z" class="g5_169"/>
<path d="M269.1 358.5h11.2v46.2H269.1V358.5Z" class="g1_169"/>
<path d="M291.5 358.5h11.2v46.2H291.5V358.5Z" class="g6_169"/>
<path d="M291.5 358.5h11.2v46.2H291.5V358.5Z" class="g1_169"/>
<path d="M190.7 358.5h11.2v46.2H190.7V358.5Z" class="g2_169"/>
<path d="M190.7 358.5h11.2v46.2H190.7V358.5Z" class="g1_169"/>
<path d="M526.7 358.5h11.2v46.2H526.7V358.5Z" class="g4_169"/>
<path d="M526.7 358.5h11.2v46.2H526.7V358.5Z" class="g1_169"/>
<path d="M470.7 358.5h11.2v46.2H470.7V358.5Z" class="g5_169"/>
<path d="M470.7 358.5h11.2v46.2H470.7V358.5Z" class="g1_169"/>
<path d="M393.2 358.5h11.2v46.2H393.2V358.5Z" class="g6_169"/>
<path d="M393.2 358.5h11.2v46.2H393.2V358.5Z" class="g1_169"/>
<path d="M605 358.5h11.2v46.2H605V358.5Z" class="g2_169"/>
<path d="M605 358.5h11.2v46.2H605V358.5Z" class="g1_169"/>
<path d="M537.9 358.5h11.2v46.2H537.9V358.5Z" class="g4_169"/>
<path d="M537.9 358.5h11.2v46.2H537.9V358.5Z" class="g1_169"/>
<path d="M404.4 358.5h11.2v46.2H404.4V358.5Z" class="g6_169"/>
<path d="M404.4 358.5h11.2v46.2H404.4V358.5Z" class="g1_169"/>
<path d="M593.8 358.5H605v46.2H593.8V358.5Z" class="g2_169"/>
<path d="M593.8 358.5H605v46.2H593.8V358.5Z" class="g1_169"/>
<path d="M459.5 358.5h11.2v46.2H459.5V358.5Z" class="g5_169"/>
<path d="M459.5 358.5h11.2v46.2H459.5V358.5Z" class="g1_169"/>
<path d="M382 358.5h11.2v46.2H382V358.5Z" class="g6_169"/>
<path d="M382 358.5h11.2v46.2H382V358.5Z" class="g1_169"/>
<path d="M616.2 358.5h11.2v46.2H616.2V358.5Z" class="g2_169"/>
<path d="M616.2 358.5h11.2v46.2H616.2V358.5Z" class="g1_169"/>
<path d="M168.3 358.5h11.2v46.2H168.3V358.5Z" class="g2_169"/>
<path d="M168.3 358.5h11.2v46.2H168.3V358.5Z" class="g1_169"/>
<path d="M313.9 358.5h11.2v46.2H313.9V358.5Z" class="g6_169"/>
<path d="M313.9 358.5h11.2v46.2H313.9V358.5Z" class="g1_169"/>
<path d="M347.3 358.5h11.2v46.2H347.3V358.5Z" class="g0_169"/>
<path d="M347.3 358.5h11.2v46.2H347.3V358.5Z" class="g1_169"/>
<path d="M336.3 358.5h11.2v46.2H336.3V358.5Z" class="g4_169"/>
<path d="M336.3 358.5h11.2v46.2H336.3V358.5Z" class="g1_169"/>
<path d="M325.1 358.5h11.2v46.2H325.1V358.5Z" class="g2_169"/>
<path d="M325.1 358.5h11.2v46.2H325.1V358.5Z" class="g1_169"/>
<path d="M560.2 358.5h11.2v46.2H560.2V358.5Z" class="g3_169"/>
<path d="M560.2 358.5h11.2v46.2H560.2V358.5Z" class="g1_169"/>
<path d="M571.5 358.5h11.1v46.2H571.5V358.5Z" class="g3_169"/>
<path d="M571.5 358.5h11.1v46.2H571.5V358.5Z" class="g1_169"/>
<path d="M493.1 358.5h11.2v46.2H493.1V358.5Z" class="g4_169"/>
<path d="M493.1 358.5h11.2v46.2H493.1V358.5Z" class="g1_169"/>
<path d="M504.3 358.5h11.2v46.2H504.3V358.5Z" class="g4_169"/>
<path d="M504.3 358.5h11.2v46.2H504.3V358.5Z" class="g1_169"/>
<path d="M515.5 358.5h11.2v46.2H515.5V358.5Z" class="g4_169"/>
<path d="M515.5 358.5h11.2v46.2H515.5V358.5Z" class="g1_169"/>
<path d="M448.3 358.5h11.2v46.2H448.3V358.5Z" class="g5_169"/>
<path d="M448.3 358.5h11.2v46.2H448.3V358.5Z" class="g1_169"/>
<path d="M415.6 358.5h11.2v46.2H415.6V358.5Z" class="g6_169"/>
<path d="M415.6 358.5h11.2v46.2H415.6V358.5Z" class="g1_169"/>
<path d="M426.8 358.5H438v46.2H426.8V358.5Z" class="g6_169"/>
<path d="M426.8 358.5H438v46.2H426.8V358.5ZM162.7 404.7v36.6c0 7.7 3.8 11.5 11.4 11.5H453.6c7.7 0 11.5 -3.8 11.5 -11.5V412" class="g1_169"/>
<path d="M465.1 405.9l2.6 8.1l-2.6 -2l-2.7 2l2.7 -8.1Z" class="g2_169"/>
<path d="M465.1 405.9l2.6 8.1l-2.6 -2l-2.7 2l2.7 -8.1ZM151.5 404.7l.1 48.1c0 7.6 3.8 11.4 11.4 11.4H376.2c7.6 0 11.4 -3.8 11.4 -11.4V412" class="g1_169"/>
<path d="M387.6 405.9l2.7 8.1l-2.7 -2l-2.7 2l2.7 -8.1Z" class="g2_169"/>
<path d="M387.6 405.9l2.7 8.1l-2.7 -2l-2.7 2l2.7 -8.1ZM173.9 404.7v25.2c0 7.6 3.8 11.4 11.5 11.4H384.2m6.8 0h70.6m6.9 0H588c7.7 0 11.5 -3.8 11.5 -11.4L599.4 412" class="g1_169"/>
<path d="M599.4 405.9l2.7 8.1l-2.7 -2l-2.6 2l2.6 -8.1Z" class="g2_169"/>
<path d="M599.4 405.9l2.7 8.1l-2.7 -2l-2.6 2l2.6 -8.1ZM341.9 404.7v13.7c0 7.6 3.8 11.5 11.5 11.5h30.8m6.8 0h70.6m6.9 0h29.9c7.7 0 11.5 -3 11.5 -9V412" class="g1_169"/>
<path d="M509.9 405.9l2.6 8.1l-2.6 -2l-2.7 2l2.7 -8.1Z" class="g2_169"/>
<path d="M509.9 405.9l2.6 8.1l-2.6 -2l-2.7 2l2.7 -8.1Z" class="g1_169"/>
</g>
</svg>