<?xml version="1.0" encoding="UTF-8" standalone="no"?>
<!DOCTYPE svg PUBLIC "-//W3C//DTD SVG 1.1//EN"
"http://www.w3.org/Graphics/SVG/1.1/DTD/svg11.dtd">
<svg viewBox="0 0 714 1017" version="1.1" xmlns="http://www.w3.org/2000/svg" xmlns:xlink="http://www.w3.org/1999/xlink">
<defs>
<style type="text/css"><![CDATA[
.g0_67{
fill: #FFF;
}
.g1_67{
fill: none;
stroke: #000;
stroke-width: 0.608;
stroke-miterlimit: 10;
}
.g2_67{
fill: #000;
stroke: #000;
stroke-width: 0.608;
stroke-miterlimit: 10;
}
.g3_67{
fill: none;
stroke: #A9A9A9;
stroke-width: 0.456;
stroke-miterlimit: 10;
}
.g4_67{
fill: none;
stroke: #7F7F7F;
stroke-width: 0.304;
stroke-miterlimit: 10;
}
]]></style>
</defs>
<path d="M0 1017.7H717.2V-3.7H0V1017.7Z" class="g0_67"/>
<path d="M100 639.8V306.7" class="g1_67"/>
<path d="M100 302.9l-2 5.4l2 -1.8l2.1 1.8Z" class="g2_67"/>
<path d="M100 622.7H624.8M100 597.8H624.8M100 572.9H624.8M100 548H624.8M100 523.1H624.8M100 498.1H624.8M100 473.2H624.8M100 448.3H624.8M100 423.4H624.8M100 398.5H624.8M100 373.6H624.8M100 348.7H624.8M100 323.8H624.8" class="g3_67"/>
<path d="M130.1 639.8v-6.5m34.2 6.5v-6.5m34.1 6.5v-6.5m34.2 6.5v-6.5m34.2 6.5v-6.5m34.1 6.5v-6.5m34.2 6.5v-6.5m34.2 6.5v-6.5m34.1 6.5v-6.5m34.2 6.5v-6.5m34.2 6.5v-6.5m34.1 6.5v-6.5m34.2 6.5v-6.5m34.2 6.5v-6.5m34.1 6.5v-6.5M100 622.7h4.4M100 615.2h4.4M100 610.8h4.4M100 607.7h4.4M100 605.3h4.4m-4.4 -2h4.4M100 601.6h4.4M100 600.2h4.4M100 598.9h4.4M100 597.8h4.4M100 590.3h4.4M100 585.9h4.4M100 582.8h4.4M100 580.4h4.4m-4.4 -2h4.4M100 576.7h4.4M100 575.3h4.4M100 574h4.4M100 572.9h4.4M100 565.4h4.4M100 561h4.4M100 557.9h4.4M100 555.5h4.4m-4.4 -2h4.4M100 551.8h4.4M100 550.4h4.4M100 549.1h4.4M100 548h4.4M100 540.5h4.4M100 536.1h4.4M100 533h4.4M100 530.6h4.4m-4.4 -2h4.4M100 526.9h4.4M100 525.5h4.4M100 524.2h4.4M100 523.1h4.4M100 515.6h4.4M100 511.2h4.4M100 508.1h4.4M100 505.6h4.4M100 503.7h4.4M100 502h4.4M100 500.6h4.4M100 499.3h4.4M100 498.1h4.4M100 490.6h4.4M100 486.3h4.4M100 483.2h4.4M100 480.7h4.4M100 478.8h4.4M100 477.1h4.4M100 475.7h4.4M100 474.4h4.4M100 473.2h4.4M100 465.7h4.4M100 461.4h4.4M100 458.2h4.4M100 455.8h4.4M100 453.9h4.4M100 452.2h4.4M100 450.7h4.4M100 449.5h4.4M100 448.3h4.4M100 440.8h4.4M100 436.4h4.4M100 433.3h4.4M100 430.9h4.4m-4.4 -2h4.4M100 427.3h4.4M100 425.8h4.4M100 424.6h4.4M100 423.4h4.4M100 415.9h4.4M100 411.5h4.4M100 408.4h4.4M100 406h4.4M100 404h4.4M100 402.4h4.4M100 400.9h4.4M100 399.6h4.4M100 398.5h4.4M100 391h4.4M100 386.6h4.4M100 383.5h4.4M100 381.1h4.4m-4.4 -2h4.4M100 377.5h4.4M100 376h4.4M100 374.7h4.4M100 373.6h4.4M100 366.1h4.4M100 361.7h4.4M100 358.6h4.4M100 356.2h4.4m-4.4 -2h4.4M100 352.5h4.4M100 351.1h4.4M100 349.8h4.4M100 348.7h4.4M100 341.2h4.4M100 336.8h4.4M100 333.7h4.4M100 331.3h4.4m-4.4 -2h4.4M100 327.6h4.4M100 326.2h4.4M100 324.9h4.4M100 622.7h6.5M100 597.8h6.5M100 572.9h6.5M100 548h6.5M100 523.1h6.5m-6.5 -25h6.5M100 473.2h6.5M100 448.3h6.5M100 423.4h6.5M100 398.5h6.5M100 373.6h6.5M100 348.7h6.5M100 323.8h6.5" class="g4_67"/>
<path d="M100 639.8H624.8m-524.8 0V305.5" class="g1_67"/>
<path d="M145.3 333.4c0 -.8 -.7 -1.5 -1.5 -1.5c-.9 0 -1.6 .7 -1.6 1.5c0 .8 .7 1.5 1.6 1.5c.8 0 1.5 -.7 1.5 -1.5Z" class="g2_67"/>
<path d="M159 352.9c0 -.9 -.7 -1.6 -1.6 -1.6c-.8 0 -1.5 .7 -1.5 1.6c0 .8 .7 1.5 1.5 1.5c.9 0 1.6 -.7 1.6 -1.5Z" class="g2_67"/>
<path d="M165.8 380.6c0 -.9 -.7 -1.5 -1.5 -1.5c-.9 0 -1.6 .6 -1.6 1.5c0 .8 .7 1.5 1.6 1.5c.8 0 1.5 -.7 1.5 -1.5Z" class="g2_67"/>
<path d="M200 388c0 -.8 -.7 -1.5 -1.6 -1.5c-.8 0 -1.5 .7 -1.5 1.5c0 .8 .7 1.5 1.5 1.5c.9 0 1.6 -.7 1.6 -1.5Z" class="g2_67"/>
<path d="M234.1 401.9c0 -.9 -.7 -1.6 -1.5 -1.6c-.8 0 -1.5 .7 -1.5 1.6c0 .8 .7 1.5 1.5 1.5c.8 0 1.5 -.7 1.5 -1.5Z" class="g2_67"/>
<path d="M254.6 408.4c0 -.8 -.7 -1.5 -1.5 -1.5c-.8 0 -1.5 .7 -1.5 1.5c0 .9 .7 1.6 1.5 1.6c.8 0 1.5 -.7 1.5 -1.6Z" class="g2_67"/>
<path d="M261.5 411c0 -.8 -.7 -1.5 -1.6 -1.5c-.8 0 -1.5 .7 -1.5 1.5c0 .9 .7 1.5 1.5 1.5c.9 0 1.6 -.6 1.6 -1.5Z" class="g2_67"/>
<path d="M268.3 407.8c0 -.8 -.7 -1.5 -1.5 -1.5c-.9 0 -1.6 .7 -1.6 1.5c0 .9 .7 1.6 1.6 1.6c.8 0 1.5 -.7 1.5 -1.6Z" class="g2_67"/>
<path d="M268.3 417c0 -.8 -.7 -1.5 -1.5 -1.5c-.9 0 -1.6 .7 -1.6 1.5c0 .9 .7 1.6 1.6 1.6c.8 0 1.5 -.7 1.5 -1.6Z" class="g2_67"/>
<path d="M268.3 427.7c0 -.9 -.7 -1.6 -1.5 -1.6c-.9 0 -1.6 .7 -1.6 1.6c0 .8 .7 1.5 1.6 1.5c.8 0 1.5 -.7 1.5 -1.5Z" class="g2_67"/>
<path d="M275.1 430.9c0 -.8 -.7 -1.5 -1.5 -1.5c-.8 0 -1.5 .7 -1.5 1.5c0 .9 .7 1.6 1.5 1.6c.8 0 1.5 -.7 1.5 -1.6Z" class="g2_67"/>
<path d="M275.1 433.1c0 -.8 -.7 -1.5 -1.5 -1.5c-.8 0 -1.5 .7 -1.5 1.5c0 .9 .7 1.6 1.5 1.6c.8 0 1.5 -.7 1.5 -1.6Z" class="g2_67"/>
<path d="M275.1 431.1c0 -.8 -.7 -1.5 -1.5 -1.5c-.8 0 -1.5 .7 -1.5 1.5c0 .9 .7 1.6 1.5 1.6c.8 0 1.5 -.7 1.5 -1.6Z" class="g2_67"/>
<path d="M275.1 439.3c0 -.8 -.7 -1.5 -1.5 -1.5c-.8 0 -1.5 .7 -1.5 1.5c0 .8 .7 1.5 1.5 1.5c.8 0 1.5 -.7 1.5 -1.5Z" class="g2_67"/>
<path d="M282 435.7c0 -.8 -.7 -1.5 -1.6 -1.5c-.8 0 -1.5 .7 -1.5 1.5c0 .9 .7 1.6 1.5 1.6c.9 0 1.6 -.7 1.6 -1.6Z" class="g2_67"/>
<path d="M282 434.2c0 -.8 -.7 -1.5 -1.6 -1.5c-.8 0 -1.5 .7 -1.5 1.5c0 .9 .7 1.6 1.5 1.6c.9 0 1.6 -.7 1.6 -1.6Z" class="g2_67"/>
<path d="M288.8 437.2c0 -.9 -.7 -1.5 -1.5 -1.5c-.9 0 -1.6 .6 -1.6 1.5c0 .8 .7 1.5 1.6 1.5c.8 0 1.5 -.7 1.5 -1.5Z" class="g2_67"/>
<path d="M288.8 436.6c0 -.8 -.7 -1.5 -1.5 -1.5c-.9 0 -1.6 .7 -1.6 1.5c0 .9 .7 1.6 1.6 1.6c.8 0 1.5 -.7 1.5 -1.6Z" class="g2_67"/>
<path d="M288.8 441.3c0 -.9 -.7 -1.5 -1.5 -1.5c-.9 0 -1.6 .6 -1.6 1.5c0 .8 .7 1.5 1.6 1.5c.8 0 1.5 -.7 1.5 -1.5Z" class="g2_67"/>
<path d="M295.6 438.9c0 -.9 -.7 -1.6 -1.5 -1.6c-.8 0 -1.5 .7 -1.5 1.6c0 .8 .7 1.5 1.5 1.5c.8 0 1.5 -.7 1.5 -1.5Z" class="g2_67"/>
<path d="M295.6 443.2c0 -.8 -.7 -1.5 -1.5 -1.5c-.8 0 -1.5 .7 -1.5 1.5c0 .9 .7 1.6 1.5 1.6c.8 0 1.5 -.7 1.5 -1.6Z" class="g2_67"/>
<path d="M295.6 443.8c0 -.8 -.7 -1.5 -1.5 -1.5c-.8 0 -1.5 .7 -1.5 1.5c0 .8 .7 1.5 1.5 1.5c.8 0 1.5 -.7 1.5 -1.5Z" class="g2_67"/>
<path d="M295.6 447.8c0 -.9 -.7 -1.6 -1.5 -1.6c-.8 0 -1.5 .7 -1.5 1.6c0 .8 .7 1.5 1.5 1.5c.8 0 1.5 -.7 1.5 -1.5Z" class="g2_67"/>
<path d="M302.5 452.7c0 -.9 -.7 -1.6 -1.6 -1.6c-.8 0 -1.5 .7 -1.5 1.6c0 .8 .7 1.5 1.5 1.5c.9 0 1.6 -.7 1.6 -1.5Z" class="g2_67"/>
<path d="M302.5 453c0 -.8 -.7 -1.5 -1.6 -1.5c-.8 0 -1.5 .7 -1.5 1.5c0 .9 .7 1.5 1.5 1.5c.9 0 1.6 -.6 1.6 -1.5Z" class="g2_67"/>
<path d="M309.3 449.7c0 -.8 -.7 -1.5 -1.5 -1.5c-.9 0 -1.6 .7 -1.6 1.5c0 .9 .7 1.5 1.6 1.5c.8 0 1.5 -.6 1.5 -1.5Z" class="g2_67"/>
<path d="M316.1 457c0 -.8 -.7 -1.5 -1.5 -1.5c-.8 0 -1.5 .7 -1.5 1.5c0 .9 .7 1.5 1.5 1.5c.8 0 1.5 -.6 1.5 -1.5Z" class="g2_67"/>
<path d="M316.1 459.6c0 -.8 -.7 -1.5 -1.5 -1.5c-.8 0 -1.5 .7 -1.5 1.5c0 .9 .7 1.5 1.5 1.5c.8 0 1.5 -.6 1.5 -1.5Z" class="g2_67"/>
<path d="M316.1 457.1c0 -.9 -.7 -1.6 -1.5 -1.6c-.8 0 -1.5 .7 -1.5 1.6c0 .8 .7 1.5 1.5 1.5c.8 0 1.5 -.7 1.5 -1.5Z" class="g2_67"/>
<path d="M323 465.8c0 -.8 -.7 -1.5 -1.6 -1.5c-.8 0 -1.5 .7 -1.5 1.5c0 .9 .7 1.6 1.5 1.6c.9 0 1.6 -.7 1.6 -1.6Z" class="g2_67"/>
<path d="M323 463.8c0 -.9 -.7 -1.5 -1.6 -1.5c-.8 0 -1.5 .6 -1.5 1.5c0 .8 .7 1.5 1.5 1.5c.9 0 1.6 -.7 1.6 -1.5Z" class="g2_67"/>
<path d="M329.8 465.8c0 -.8 -.7 -1.5 -1.5 -1.5c-.9 0 -1.6 .7 -1.6 1.5c0 .9 .7 1.6 1.6 1.6c.8 0 1.5 -.7 1.5 -1.6Z" class="g2_67"/>
<path d="M329.8 469.8c0 -.9 -.7 -1.6 -1.5 -1.6c-.9 0 -1.6 .7 -1.6 1.6c0 .8 .7 1.5 1.6 1.5c.8 0 1.5 -.7 1.5 -1.5Z" class="g2_67"/>
<path d="M336.6 470.1c0 -.8 -.7 -1.5 -1.5 -1.5c-.8 0 -1.5 .7 -1.5 1.5c0 .9 .7 1.6 1.5 1.6c.8 0 1.5 -.7 1.5 -1.6Z" class="g2_67"/>
<path d="M336.6 474.6c0 -.8 -.7 -1.5 -1.5 -1.5c-.8 0 -1.5 .7 -1.5 1.5c0 .9 .7 1.5 1.5 1.5c.8 0 1.5 -.6 1.5 -1.5Z" class="g2_67"/>
<path d="M336.6 476.8c0 -.8 -.7 -1.5 -1.5 -1.5c-.8 0 -1.5 .7 -1.5 1.5c0 .8 .7 1.5 1.5 1.5c.8 0 1.5 -.7 1.5 -1.5Z" class="g2_67"/>
<path d="M336.6 479.7c0 -.8 -.7 -1.5 -1.5 -1.5c-.8 0 -1.5 .7 -1.5 1.5c0 .8 .7 1.5 1.5 1.5c.8 0 1.5 -.7 1.5 -1.5Z" class="g2_67"/>
<path d="M343.5 482.6c0 -.8 -.7 -1.5 -1.6 -1.5c-.8 0 -1.5 .7 -1.5 1.5c0 .9 .7 1.5 1.5 1.5c.9 0 1.6 -.6 1.6 -1.5Z" class="g2_67"/>
<path d="M343.5 484.6c0 -.8 -.7 -1.5 -1.6 -1.5c-.8 0 -1.5 .7 -1.5 1.5c0 .8 .7 1.5 1.5 1.5c.9 0 1.6 -.7 1.6 -1.5Z" class="g2_67"/>
<path d="M343.5 486.3c0 -.9 -.7 -1.6 -1.6 -1.6c-.8 0 -1.5 .7 -1.5 1.6c0 .8 .7 1.5 1.5 1.5c.9 0 1.6 -.7 1.6 -1.5Z" class="g2_67"/>
<path d="M343.5 486.3c0 -.9 -.7 -1.6 -1.6 -1.6c-.8 0 -1.5 .7 -1.5 1.6c0 .8 .7 1.5 1.5 1.5c.9 0 1.6 -.7 1.6 -1.5Z" class="g2_67"/>
<path d="M343.5 486.3c0 -.9 -.7 -1.6 -1.6 -1.6c-.8 0 -1.5 .7 -1.5 1.6c0 .8 .7 1.5 1.5 1.5c.9 0 1.6 -.7 1.6 -1.5Z" class="g2_67"/>
<path d="M343.5 486.3c0 -.9 -.7 -1.6 -1.6 -1.6c-.8 0 -1.5 .7 -1.5 1.6c0 .8 .7 1.5 1.5 1.5c.9 0 1.6 -.7 1.6 -1.5Z" class="g2_67"/>
<path d="M343.5 486.3c0 -.9 -.7 -1.6 -1.6 -1.6c-.8 0 -1.5 .7 -1.5 1.6c0 .8 .7 1.5 1.5 1.5c.9 0 1.6 -.7 1.6 -1.5Z" class="g2_67"/>
<path d="M343.5 486.3c0 -.9 -.7 -1.6 -1.6 -1.6c-.8 0 -1.5 .7 -1.5 1.6c0 .8 .7 1.5 1.5 1.5c.9 0 1.6 -.7 1.6 -1.5Z" class="g2_67"/>
<path d="M343.5 486.3c0 -.9 -.7 -1.6 -1.6 -1.6c-.8 0 -1.5 .7 -1.5 1.6c0 .8 .7 1.5 1.5 1.5c.9 0 1.6 -.7 1.6 -1.5Z" class="g2_67"/>
<path d="M343.5 491.2c0 -.8 -.7 -1.5 -1.6 -1.5c-.8 0 -1.5 .7 -1.5 1.5c0 .8 .7 1.5 1.5 1.5c.9 0 1.6 -.7 1.6 -1.5Z" class="g2_67"/>
<path d="M343.5 491.2c0 -.8 -.7 -1.5 -1.6 -1.5c-.8 0 -1.5 .7 -1.5 1.5c0 .8 .7 1.5 1.5 1.5c.9 0 1.6 -.7 1.6 -1.5Z" class="g2_67"/>
<path d="M350.3 491.2c0 -.8 -.7 -1.5 -1.5 -1.5c-.9 0 -1.6 .7 -1.6 1.5c0 .8 .7 1.5 1.6 1.5c.8 0 1.5 -.7 1.5 -1.5Z" class="g2_67"/>
<path d="M350.3 491.2c0 -.8 -.7 -1.5 -1.5 -1.5c-.9 0 -1.6 .7 -1.6 1.5c0 .8 .7 1.5 1.6 1.5c.8 0 1.5 -.7 1.5 -1.5Z" class="g2_67"/>
<path d="M350.3 491.2c0 -.8 -.7 -1.5 -1.5 -1.5c-.9 0 -1.6 .7 -1.6 1.5c0 .8 .7 1.5 1.6 1.5c.8 0 1.5 -.7 1.5 -1.5Z" class="g2_67"/>
<path d="M350.3 491.2c0 -.8 -.7 -1.5 -1.5 -1.5c-.9 0 -1.6 .7 -1.6 1.5c0 .8 .7 1.5 1.6 1.5c.8 0 1.5 -.7 1.5 -1.5Z" class="g2_67"/>
<path d="M350.3 491.2c0 -.8 -.7 -1.5 -1.5 -1.5c-.9 0 -1.6 .7 -1.6 1.5c0 .8 .7 1.5 1.6 1.5c.8 0 1.5 -.7 1.5 -1.5Z" class="g2_67"/>
<path d="M350.3 492c0 -.8 -.7 -1.5 -1.5 -1.5c-.9 0 -1.6 .7 -1.6 1.5c0 .9 .7 1.6 1.6 1.6c.8 0 1.5 -.7 1.5 -1.6Z" class="g2_67"/>
<path d="M350.3 492c0 -.8 -.7 -1.5 -1.5 -1.5c-.9 0 -1.6 .7 -1.6 1.5c0 .9 .7 1.6 1.6 1.6c.8 0 1.5 -.7 1.5 -1.6Z" class="g2_67"/>
<path d="M350.3 493.3c0 -.9 -.7 -1.6 -1.5 -1.6c-.9 0 -1.6 .7 -1.6 1.6c0 .8 .7 1.5 1.6 1.5c.8 0 1.5 -.7 1.5 -1.5Z" class="g2_67"/>
<path d="M350.3 493.5c0 -.9 -.7 -1.5 -1.5 -1.5c-.9 0 -1.6 .6 -1.6 1.5c0 .8 .7 1.5 1.6 1.5c.8 0 1.5 -.7 1.5 -1.5Z" class="g2_67"/>
<path d="M350.3 493.5c0 -.9 -.7 -1.5 -1.5 -1.5c-.9 0 -1.6 .6 -1.6 1.5c0 .8 .7 1.5 1.6 1.5c.8 0 1.5 -.7 1.5 -1.5Z" class="g2_67"/>
<path d="M350.3 493.5c0 -.9 -.7 -1.5 -1.5 -1.5c-.9 0 -1.6 .6 -1.6 1.5c0 .8 .7 1.5 1.6 1.5c.8 0 1.5 -.7 1.5 -1.5Z" class="g2_67"/>
<path d="M357.1 493.5c0 -.9 -.7 -1.5 -1.5 -1.5c-.8 0 -1.5 .6 -1.5 1.5c0 .8 .7 1.5 1.5 1.5c.8 0 1.5 -.7 1.5 -1.5Z" class="g2_67"/>
<path d="M357.1 493.5c0 -.9 -.7 -1.5 -1.5 -1.5c-.8 0 -1.5 .6 -1.5 1.5c0 .8 .7 1.5 1.5 1.5c.8 0 1.5 -.7 1.5 -1.5Z" class="g2_67"/>
<path d="M357.1 492.9c0 -.9 -.7 -1.6 -1.5 -1.6c-.8 0 -1.5 .7 -1.5 1.6c0 .8 .7 1.5 1.5 1.5c.8 0 1.5 -.7 1.5 -1.5Z" class="g2_67"/>
<path d="M357.1 495.1c0 -.9 -.7 -1.6 -1.5 -1.6c-.8 0 -1.5 .7 -1.5 1.6c0 .8 .7 1.5 1.5 1.5c.8 0 1.5 -.7 1.5 -1.5Z" class="g2_67"/>
<path d="M357.1 492.9c0 -.9 -.7 -1.6 -1.5 -1.6c-.8 0 -1.5 .7 -1.5 1.6c0 .8 .7 1.5 1.5 1.5c.8 0 1.5 -.7 1.5 -1.5Z" class="g2_67"/>
<path d="M357.1 492.9c0 -.9 -.7 -1.6 -1.5 -1.6c-.8 0 -1.5 .7 -1.5 1.6c0 .8 .7 1.5 1.5 1.5c.8 0 1.5 -.7 1.5 -1.5Z" class="g2_67"/>
<path d="M357.1 492.9c0 -.9 -.7 -1.6 -1.5 -1.6c-.8 0 -1.5 .7 -1.5 1.6c0 .8 .7 1.5 1.5 1.5c.8 0 1.5 -.7 1.5 -1.5Z" class="g2_67"/>
<path d="M357.1 491.7c0 -.9 -.7 -1.6 -1.5 -1.6c-.8 0 -1.5 .7 -1.5 1.6c0 .8 .7 1.5 1.5 1.5c.8 0 1.5 -.7 1.5 -1.5Z" class="g2_67"/>
<path d="M357.1 490.7c0 -.8 -.7 -1.5 -1.5 -1.5c-.8 0 -1.5 .7 -1.5 1.5c0 .8 .7 1.5 1.5 1.5c.8 0 1.5 -.7 1.5 -1.5Z" class="g2_67"/>
<path d="M357.1 490.7c0 -.8 -.7 -1.5 -1.5 -1.5c-.8 0 -1.5 .7 -1.5 1.5c0 .8 .7 1.5 1.5 1.5c.8 0 1.5 -.7 1.5 -1.5Z" class="g2_67"/>
<path d="M357.1 490.7c0 -.8 -.7 -1.5 -1.5 -1.5c-.8 0 -1.5 .7 -1.5 1.5c0 .8 .7 1.5 1.5 1.5c.8 0 1.5 -.7 1.5 -1.5Z" class="g2_67"/>
<path d="M364 480.6c0 -.8 -.7 -1.5 -1.6 -1.5c-.8 0 -1.5 .7 -1.5 1.5c0 .9 .7 1.6 1.5 1.6c.9 0 1.6 -.7 1.6 -1.6Z" class="g2_67"/>
<path d="M364 480.6c0 -.8 -.7 -1.5 -1.6 -1.5c-.8 0 -1.5 .7 -1.5 1.5c0 .9 .7 1.6 1.5 1.6c.9 0 1.6 -.7 1.6 -1.6Z" class="g2_67"/>
<path d="M364 480.6c0 -.8 -.7 -1.5 -1.6 -1.5c-.8 0 -1.5 .7 -1.5 1.5c0 .9 .7 1.6 1.5 1.6c.9 0 1.6 -.7 1.6 -1.6Z" class="g2_67"/>
<path d="M364 480.6c0 -.8 -.7 -1.5 -1.6 -1.5c-.8 0 -1.5 .7 -1.5 1.5c0 .9 .7 1.6 1.5 1.6c.9 0 1.6 -.7 1.6 -1.6Z" class="g2_67"/>
<path d="M364 480.6c0 -.8 -.7 -1.5 -1.6 -1.5c-.8 0 -1.5 .7 -1.5 1.5c0 .9 .7 1.6 1.5 1.6c.9 0 1.6 -.7 1.6 -1.6Z" class="g2_67"/>
<path d="M364 480.6c0 -.8 -.7 -1.5 -1.6 -1.5c-.8 0 -1.5 .7 -1.5 1.5c0 .9 .7 1.6 1.5 1.6c.9 0 1.6 -.7 1.6 -1.6Z" class="g2_67"/>
<path d="M364 480.6c0 -.8 -.7 -1.5 -1.6 -1.5c-.8 0 -1.5 .7 -1.5 1.5c0 .9 .7 1.6 1.5 1.6c.9 0 1.6 -.7 1.6 -1.6Z" class="g2_67"/>
<path d="M364 480.6c0 -.8 -.7 -1.5 -1.6 -1.5c-.8 0 -1.5 .7 -1.5 1.5c0 .9 .7 1.6 1.5 1.6c.9 0 1.6 -.7 1.6 -1.6Z" class="g2_67"/>
<path d="M364 480.6c0 -.8 -.7 -1.5 -1.6 -1.5c-.8 0 -1.5 .7 -1.5 1.5c0 .9 .7 1.6 1.5 1.6c.9 0 1.6 -.7 1.6 -1.6Z" class="g2_67"/>
<path d="M364 480.6c0 -.8 -.7 -1.5 -1.6 -1.5c-.8 0 -1.5 .7 -1.5 1.5c0 .9 .7 1.6 1.5 1.6c.9 0 1.6 -.7 1.6 -1.6Z" class="g2_67"/>
<path d="M364 484.8c0 -.9 -.7 -1.5 -1.6 -1.5c-.8 0 -1.5 .6 -1.5 1.5c0 .8 .7 1.5 1.5 1.5c.9 0 1.6 -.7 1.6 -1.5Z" class="g2_67"/>
<path d="M370.8 490.8c0 -.8 -.7 -1.5 -1.5 -1.5c-.9 0 -1.6 .7 -1.6 1.5c0 .9 .7 1.5 1.6 1.5c.8 0 1.5 -.6 1.5 -1.5Z" class="g2_67"/>
<path d="M370.8 491.3c0 -.8 -.7 -1.5 -1.5 -1.5c-.9 0 -1.6 .7 -1.6 1.5c0 .9 .7 1.5 1.6 1.5c.8 0 1.5 -.6 1.5 -1.5Z" class="g2_67"/>
<path d="M370.8 491.3c0 -.8 -.7 -1.5 -1.5 -1.5c-.9 0 -1.6 .7 -1.6 1.5c0 .9 .7 1.5 1.6 1.5c.8 0 1.5 -.6 1.5 -1.5Z" class="g2_67"/>
<path d="M370.8 495.5c0 -.9 -.7 -1.5 -1.5 -1.5c-.9 0 -1.6 .6 -1.6 1.5c0 .8 .7 1.5 1.6 1.5c.8 0 1.5 -.7 1.5 -1.5Z" class="g2_67"/>
<path d="M370.8 496.4c0 -.8 -.7 -1.5 -1.5 -1.5c-.9 0 -1.6 .7 -1.6 1.5c0 .9 .7 1.6 1.6 1.6c.8 0 1.5 -.7 1.5 -1.6Z" class="g2_67"/>
<path d="M370.8 496.8c0 -.8 -.7 -1.5 -1.5 -1.5c-.9 0 -1.6 .7 -1.6 1.5c0 .9 .7 1.5 1.6 1.5c.8 0 1.5 -.6 1.5 -1.5Z" class="g2_67"/>
<path d="M370.8 497.5c0 -.8 -.7 -1.5 -1.5 -1.5c-.9 0 -1.6 .7 -1.6 1.5c0 .9 .7 1.5 1.6 1.5c.8 0 1.5 -.6 1.5 -1.5Z" class="g2_67"/>
<path d="M370.8 498.3c0 -.8 -.7 -1.5 -1.5 -1.5c-.9 0 -1.6 .7 -1.6 1.5c0 .9 .7 1.6 1.6 1.6c.8 0 1.5 -.7 1.5 -1.6Z" class="g2_67"/>
<path d="M370.8 498.3c0 -.8 -.7 -1.5 -1.5 -1.5c-.9 0 -1.6 .7 -1.6 1.5c0 .9 .7 1.6 1.6 1.6c.8 0 1.5 -.7 1.5 -1.6Z" class="g2_67"/>
<path d="M370.8 499.3c0 -.8 -.7 -1.5 -1.5 -1.5c-.9 0 -1.6 .7 -1.6 1.5c0 .9 .7 1.6 1.6 1.6c.8 0 1.5 -.7 1.5 -1.6Z" class="g2_67"/>
<path d="M377.6 500.2c0 -.9 -.7 -1.5 -1.5 -1.5c-.8 0 -1.5 .6 -1.5 1.5c0 .8 .7 1.5 1.5 1.5c.8 0 1.5 -.7 1.5 -1.5Z" class="g2_67"/>
<path d="M377.6 500.4c0 -.8 -.7 -1.5 -1.5 -1.5c-.8 0 -1.5 .7 -1.5 1.5c0 .9 .7 1.5 1.5 1.5c.8 0 1.5 -.6 1.5 -1.5Z" class="g2_67"/>
<path d="M377.6 501.8c0 -.9 -.7 -1.5 -1.5 -1.5c-.8 0 -1.5 .6 -1.5 1.5c0 .8 .7 1.5 1.5 1.5c.8 0 1.5 -.7 1.5 -1.5Z" class="g2_67"/>
<path d="M377.6 503.9c0 -.9 -.7 -1.6 -1.5 -1.6c-.8 0 -1.5 .7 -1.5 1.6c0 .8 .7 1.5 1.5 1.5c.8 0 1.5 -.7 1.5 -1.5Z" class="g2_67"/>
<path d="M377.6 505.4c0 -.8 -.7 -1.5 -1.5 -1.5c-.8 0 -1.5 .7 -1.5 1.5c0 .9 .7 1.6 1.5 1.6c.8 0 1.5 -.7 1.5 -1.6Z" class="g2_67"/>
<path d="M377.6 506.7c0 -.9 -.7 -1.6 -1.5 -1.6c-.8 0 -1.5 .7 -1.5 1.6c0 .8 .7 1.5 1.5 1.5c.8 0 1.5 -.7 1.5 -1.5Z" class="g2_67"/>
<path d="M377.6 506.9c0 -.8 -.7 -1.5 -1.5 -1.5c-.8 0 -1.5 .7 -1.5 1.5c0 .8 .7 1.5 1.5 1.5c.8 0 1.5 -.7 1.5 -1.5Z" class="g2_67"/>
<path d="M377.6 506.9c0 -.8 -.7 -1.5 -1.5 -1.5c-.8 0 -1.5 .7 -1.5 1.5c0 .8 .7 1.5 1.5 1.5c.8 0 1.5 -.7 1.5 -1.5Z" class="g2_67"/>
<path d="M377.6 506.8c0 -.9 -.7 -1.5 -1.5 -1.5c-.8 0 -1.5 .6 -1.5 1.5c0 .8 .7 1.5 1.5 1.5c.8 0 1.5 -.7 1.5 -1.5Z" class="g2_67"/>
<path d="M377.6 506.8c0 -.9 -.7 -1.5 -1.5 -1.5c-.8 0 -1.5 .6 -1.5 1.5c0 .8 .7 1.5 1.5 1.5c.8 0 1.5 -.7 1.5 -1.5Z" class="g2_67"/>
<path d="M377.6 506.8c0 -.9 -.7 -1.5 -1.5 -1.5c-.8 0 -1.5 .6 -1.5 1.5c0 .8 .7 1.5 1.5 1.5c.8 0 1.5 -.7 1.5 -1.5Z" class="g2_67"/>
<path d="M377.6 507.1c0 -.9 -.7 -1.5 -1.5 -1.5c-.8 0 -1.5 .6 -1.5 1.5c0 .8 .7 1.5 1.5 1.5c.8 0 1.5 -.7 1.5 -1.5Z" class="g2_67"/>
<path d="M384.5 507.1c0 -.9 -.7 -1.5 -1.6 -1.5c-.8 0 -1.5 .6 -1.5 1.5c0 .8 .7 1.5 1.5 1.5c.9 0 1.6 -.7 1.6 -1.5Z" class="g2_67"/>
<path d="M384.5 507.7c0 -.8 -.7 -1.5 -1.6 -1.5c-.8 0 -1.5 .7 -1.5 1.5c0 .9 .7 1.5 1.5 1.5c.9 0 1.6 -.6 1.6 -1.5Z" class="g2_67"/>
<path d="M384.5 506.5c0 -.9 -.7 -1.5 -1.6 -1.5c-.8 0 -1.5 .6 -1.5 1.5c0 .8 .7 1.5 1.5 1.5c.9 0 1.6 -.7 1.6 -1.5Z" class="g2_67"/>
<path d="M384.5 506.8c0 -.9 -.7 -1.5 -1.6 -1.5c-.8 0 -1.5 .6 -1.5 1.5c0 .8 .7 1.5 1.5 1.5c.9 0 1.6 -.7 1.6 -1.5Z" class="g2_67"/>
<path d="M384.5 508.1c0 -.8 -.7 -1.5 -1.6 -1.5c-.8 0 -1.5 .7 -1.5 1.5c0 .9 .7 1.5 1.5 1.5c.9 0 1.6 -.6 1.6 -1.5Z" class="g2_67"/>
<path d="M384.5 508.1c0 -.8 -.7 -1.5 -1.6 -1.5c-.8 0 -1.5 .7 -1.5 1.5c0 .9 .7 1.5 1.5 1.5c.9 0 1.6 -.6 1.6 -1.5Z" class="g2_67"/>
<path d="M384.5 509.1c0 -.8 -.7 -1.5 -1.6 -1.5c-.8 0 -1.5 .7 -1.5 1.5c0 .9 .7 1.5 1.5 1.5c.9 0 1.6 -.6 1.6 -1.5Z" class="g2_67"/>
<path d="M384.5 509.1c0 -.8 -.7 -1.5 -1.6 -1.5c-.8 0 -1.5 .7 -1.5 1.5c0 .9 .7 1.5 1.5 1.5c.9 0 1.6 -.6 1.6 -1.5Z" class="g2_67"/>
<path d="M384.5 509.1c0 -.8 -.7 -1.5 -1.6 -1.5c-.8 0 -1.5 .7 -1.5 1.5c0 .9 .7 1.5 1.5 1.5c.9 0 1.6 -.6 1.6 -1.5Z" class="g2_67"/>
<path d="M384.5 509.6c0 -.9 -.7 -1.6 -1.6 -1.6c-.8 0 -1.5 .7 -1.5 1.6c0 .8 .7 1.5 1.5 1.5c.9 0 1.6 -.7 1.6 -1.5Z" class="g2_67"/>
<path d="M384.5 511.2c0 -.9 -.7 -1.5 -1.6 -1.5c-.8 0 -1.5 .6 -1.5 1.5c0 .8 .7 1.5 1.5 1.5c.9 0 1.6 -.7 1.6 -1.5Z" class="g2_67"/>
<path d="M384.5 510.3c0 -.8 -.7 -1.5 -1.6 -1.5c-.8 0 -1.5 .7 -1.5 1.5c0 .8 .7 1.5 1.5 1.5c.9 0 1.6 -.7 1.6 -1.5Z" class="g2_67"/>
<path d="M391.3 510c0 -.9 -.7 -1.5 -1.5 -1.5c-.9 0 -1.6 .6 -1.6 1.5c0 .8 .7 1.5 1.6 1.5c.8 0 1.5 -.7 1.5 -1.5Z" class="g2_67"/>
<path d="M391.3 510.8c0 -.8 -.7 -1.5 -1.5 -1.5c-.9 0 -1.6 .7 -1.6 1.5c0 .9 .7 1.5 1.6 1.5c.8 0 1.5 -.6 1.5 -1.5Z" class="g2_67"/>
<path d="M391.3 512.1c0 -.8 -.7 -1.5 -1.5 -1.5c-.9 0 -1.6 .7 -1.6 1.5c0 .9 .7 1.5 1.6 1.5c.8 0 1.5 -.6 1.5 -1.5Z" class="g2_67"/>
<path d="M391.3 512.6c0 -.8 -.7 -1.5 -1.5 -1.5c-.9 0 -1.6 .7 -1.6 1.5c0 .8 .7 1.5 1.6 1.5c.8 0 1.5 -.7 1.5 -1.5Z" class="g2_67"/>
<path d="M391.3 512.6c0 -.8 -.7 -1.5 -1.5 -1.5c-.9 0 -1.6 .7 -1.6 1.5c0 .8 .7 1.5 1.6 1.5c.8 0 1.5 -.7 1.5 -1.5Z" class="g2_67"/>
<path d="M391.3 512.6c0 -.8 -.7 -1.5 -1.5 -1.5c-.9 0 -1.6 .7 -1.6 1.5c0 .8 .7 1.5 1.6 1.5c.8 0 1.5 -.7 1.5 -1.5Z" class="g2_67"/>
<path d="M391.3 510.1c0 -.8 -.7 -1.5 -1.5 -1.5c-.9 0 -1.6 .7 -1.6 1.5c0 .8 .7 1.5 1.6 1.5c.8 0 1.5 -.7 1.5 -1.5Z" class="g2_67"/>
<path d="M391.3 512.1c0 -.8 -.7 -1.5 -1.5 -1.5c-.9 0 -1.6 .7 -1.6 1.5c0 .9 .7 1.5 1.6 1.5c.8 0 1.5 -.6 1.5 -1.5Z" class="g2_67"/>
<path d="M391.3 512.1c0 -.8 -.7 -1.5 -1.5 -1.5c-.9 0 -1.6 .7 -1.6 1.5c0 .9 .7 1.5 1.6 1.5c.8 0 1.5 -.6 1.5 -1.5Z" class="g2_67"/>
<path d="M391.3 512.1c0 -.8 -.7 -1.5 -1.5 -1.5c-.9 0 -1.6 .7 -1.6 1.5c0 .9 .7 1.5 1.6 1.5c.8 0 1.5 -.6 1.5 -1.5Z" class="g2_67"/>
<path d="M391.3 512.1c0 -.8 -.7 -1.5 -1.5 -1.5c-.9 0 -1.6 .7 -1.6 1.5c0 .9 .7 1.5 1.6 1.5c.8 0 1.5 -.6 1.5 -1.5Z" class="g2_67"/>
<path d="M391.3 511.2c0 -.9 -.7 -1.5 -1.5 -1.5c-.9 0 -1.6 .6 -1.6 1.5c0 .8 .7 1.5 1.6 1.5c.8 0 1.5 -.7 1.5 -1.5Z" class="g2_67"/>
<path d="M398.1 511.2c0 -.9 -.7 -1.5 -1.5 -1.5c-.8 0 -1.5 .6 -1.5 1.5c0 .8 .7 1.5 1.5 1.5c.8 0 1.5 -.7 1.5 -1.5Z" class="g2_67"/>
<path d="M398.1 511.2c0 -.9 -.7 -1.5 -1.5 -1.5c-.8 0 -1.5 .6 -1.5 1.5c0 .8 .7 1.5 1.5 1.5c.8 0 1.5 -.7 1.5 -1.5Z" class="g2_67"/>
<path d="M398.1 511.2c0 -.9 -.7 -1.5 -1.5 -1.5c-.8 0 -1.5 .6 -1.5 1.5c0 .8 .7 1.5 1.5 1.5c.8 0 1.5 -.7 1.5 -1.5Z" class="g2_67"/>
<path d="M398.1 509.2c0 -.8 -.7 -1.5 -1.5 -1.5c-.8 0 -1.5 .7 -1.5 1.5c0 .8 .7 1.5 1.5 1.5c.8 0 1.5 -.7 1.5 -1.5Z" class="g2_67"/>
<path d="M398.1 508.1c0 -.8 -.7 -1.5 -1.5 -1.5c-.8 0 -1.5 .7 -1.5 1.5c0 .9 .7 1.5 1.5 1.5c.8 0 1.5 -.6 1.5 -1.5Z" class="g2_67"/>
<path d="M398.1 509.3c0 -.9 -.7 -1.6 -1.5 -1.6c-.8 0 -1.5 .7 -1.5 1.6c0 .8 .7 1.5 1.5 1.5c.8 0 1.5 -.7 1.5 -1.5Z" class="g2_67"/>
<path d="M398.1 509.3c0 -.9 -.7 -1.6 -1.5 -1.6c-.8 0 -1.5 .7 -1.5 1.6c0 .8 .7 1.5 1.5 1.5c.8 0 1.5 -.7 1.5 -1.5Z" class="g2_67"/>
<path d="M398.1 509.3c0 -.9 -.7 -1.6 -1.5 -1.6c-.8 0 -1.5 .7 -1.5 1.6c0 .8 .7 1.5 1.5 1.5c.8 0 1.5 -.7 1.5 -1.5Z" class="g2_67"/>
<path d="M398.1 509.2c0 -.8 -.7 -1.5 -1.5 -1.5c-.8 0 -1.5 .7 -1.5 1.5c0 .8 .7 1.5 1.5 1.5c.8 0 1.5 -.7 1.5 -1.5Z" class="g2_67"/>
<path d="M398.1 508.8c0 -.8 -.7 -1.5 -1.5 -1.5c-.8 0 -1.5 .7 -1.5 1.5c0 .9 .7 1.5 1.5 1.5c.8 0 1.5 -.6 1.5 -1.5Z" class="g2_67"/>
<path d="M398.1 508.8c0 -.8 -.7 -1.5 -1.5 -1.5c-.8 0 -1.5 .7 -1.5 1.5c0 .9 .7 1.5 1.5 1.5c.8 0 1.5 -.6 1.5 -1.5Z" class="g2_67"/>
<path d="M398.1 508.8c0 -.8 -.7 -1.5 -1.5 -1.5c-.8 0 -1.5 .7 -1.5 1.5c0 .9 .7 1.5 1.5 1.5c.8 0 1.5 -.6 1.5 -1.5Z" class="g2_67"/>
<path d="M405 508.5c0 -.9 -.7 -1.5 -1.6 -1.5c-.8 0 -1.5 .6 -1.5 1.5c0 .8 .7 1.5 1.5 1.5c.9 0 1.6 -.7 1.6 -1.5Z" class="g2_67"/>
<path d="M405 508.9c0 -.8 -.7 -1.5 -1.6 -1.5c-.8 0 -1.5 .7 -1.5 1.5c0 .8 .7 1.5 1.5 1.5c.9 0 1.6 -.7 1.6 -1.5Z" class="g2_67"/>
<path d="M405 509.8c0 -.8 -.7 -1.5 -1.6 -1.5c-.8 0 -1.5 .7 -1.5 1.5c0 .9 .7 1.5 1.5 1.5c.9 0 1.6 -.6 1.6 -1.5Z" class="g2_67"/>
<path d="M405 510c0 -.9 -.7 -1.5 -1.6 -1.5c-.8 0 -1.5 .6 -1.5 1.5c0 .8 .7 1.5 1.5 1.5c.9 0 1.6 -.7 1.6 -1.5Z" class="g2_67"/>
<path d="M405 510.4c0 -.9 -.7 -1.5 -1.6 -1.5c-.8 0 -1.5 .6 -1.5 1.5c0 .8 .7 1.5 1.5 1.5c.9 0 1.6 -.7 1.6 -1.5Z" class="g2_67"/>
<path d="M405 510.4c0 -.9 -.7 -1.5 -1.6 -1.5c-.8 0 -1.5 .6 -1.5 1.5c0 .8 .7 1.5 1.5 1.5c.9 0 1.6 -.7 1.6 -1.5Z" class="g2_67"/>
<path d="M405 510.4c0 -.9 -.7 -1.5 -1.6 -1.5c-.8 0 -1.5 .6 -1.5 1.5c0 .8 .7 1.5 1.5 1.5c.9 0 1.6 -.7 1.6 -1.5Z" class="g2_67"/>
<path d="M405 510.5c0 -.9 -.7 -1.5 -1.6 -1.5c-.8 0 -1.5 .6 -1.5 1.5c0 .8 .7 1.5 1.5 1.5c.9 0 1.6 -.7 1.6 -1.5Z" class="g2_67"/>
<path d="M405 510.5c0 -.9 -.7 -1.5 -1.6 -1.5c-.8 0 -1.5 .6 -1.5 1.5c0 .8 .7 1.5 1.5 1.5c.9 0 1.6 -.7 1.6 -1.5Z" class="g2_67"/>
<path d="M405 510.7c0 -.8 -.7 -1.5 -1.6 -1.5c-.8 0 -1.5 .7 -1.5 1.5c0 .9 .7 1.6 1.5 1.6c.9 0 1.6 -.7 1.6 -1.6Z" class="g2_67"/>
<path d="M405 510.7c0 -.8 -.7 -1.5 -1.6 -1.5c-.8 0 -1.5 .7 -1.5 1.5c0 .9 .7 1.6 1.5 1.6c.9 0 1.6 -.7 1.6 -1.6Z" class="g2_67"/>
<path d="M405 510.8c0 -.9 -.7 -1.5 -1.6 -1.5c-.8 0 -1.5 .6 -1.5 1.5c0 .8 .7 1.5 1.5 1.5c.9 0 1.6 -.7 1.6 -1.5Z" class="g2_67"/>
<path d="M411.8 510.7c0 -.8 -.7 -1.5 -1.5 -1.5c-.9 0 -1.6 .7 -1.6 1.5c0 .9 .7 1.6 1.6 1.6c.8 0 1.5 -.7 1.5 -1.6Z" class="g2_67"/>
<path d="M411.8 511c0 -.9 -.7 -1.6 -1.5 -1.6c-.9 0 -1.6 .7 -1.6 1.6c0 .8 .7 1.5 1.6 1.5c.8 0 1.5 -.7 1.5 -1.5Z" class="g2_67"/>
<path d="M411.8 510.1c0 -.8 -.7 -1.5 -1.5 -1.5c-.9 0 -1.6 .7 -1.6 1.5c0 .8 .7 1.5 1.6 1.5c.8 0 1.5 -.7 1.5 -1.5Z" class="g2_67"/>
<path d="M411.8 510.1c0 -.8 -.7 -1.5 -1.5 -1.5c-.9 0 -1.6 .7 -1.6 1.5c0 .8 .7 1.5 1.6 1.5c.8 0 1.5 -.7 1.5 -1.5Z" class="g2_67"/>
<path d="M411.8 510.9c0 -.9 -.7 -1.6 -1.5 -1.6c-.9 0 -1.6 .7 -1.6 1.6c0 .8 .7 1.5 1.6 1.5c.8 0 1.5 -.7 1.5 -1.5Z" class="g2_67"/>
<path d="M411.8 510.9c0 -.9 -.7 -1.6 -1.5 -1.6c-.9 0 -1.6 .7 -1.6 1.6c0 .8 .7 1.5 1.6 1.5c.8 0 1.5 -.7 1.5 -1.5Z" class="g2_67"/>
<path d="M411.8 511.2c0 -.8 -.7 -1.5 -1.5 -1.5c-.9 0 -1.6 .7 -1.6 1.5c0 .8 .7 1.5 1.6 1.5c.8 0 1.5 -.7 1.5 -1.5Z" class="g2_67"/>
<path d="M411.8 511.6c0 -.8 -.7 -1.5 -1.5 -1.5c-.9 0 -1.6 .7 -1.6 1.5c0 .9 .7 1.5 1.6 1.5c.8 0 1.5 -.6 1.5 -1.5Z" class="g2_67"/>
<path d="M411.8 512.7c0 -.9 -.7 -1.5 -1.5 -1.5c-.9 0 -1.6 .6 -1.6 1.5c0 .8 .7 1.5 1.6 1.5c.8 0 1.5 -.7 1.5 -1.5Z" class="g2_67"/>
<path d="M411.8 513.3c0 -.9 -.7 -1.5 -1.5 -1.5c-.9 0 -1.6 .6 -1.6 1.5c0 .8 .7 1.5 1.6 1.5c.8 0 1.5 -.7 1.5 -1.5Z" class="g2_67"/>
<path d="M411.8 517.2c0 -.8 -.7 -1.5 -1.5 -1.5c-.9 0 -1.6 .7 -1.6 1.5c0 .8 .7 1.5 1.6 1.5c.8 0 1.5 -.7 1.5 -1.5Z" class="g2_67"/>
<path d="M411.8 518.7c0 -.8 -.7 -1.5 -1.5 -1.5c-.9 0 -1.6 .7 -1.6 1.5c0 .9 .7 1.6 1.6 1.6c.8 0 1.5 -.7 1.5 -1.6Z" class="g2_67"/>
<path d="M418.6 521.7c0 -.8 -.7 -1.5 -1.5 -1.5c-.8 0 -1.5 .7 -1.5 1.5c0 .9 .7 1.6 1.5 1.6c.8 0 1.5 -.7 1.5 -1.6Z" class="g2_67"/>
<path d="M418.6 524.1c0 -.8 -.7 -1.5 -1.5 -1.5c-.8 0 -1.5 .7 -1.5 1.5c0 .9 .7 1.5 1.5 1.5c.8 0 1.5 -.6 1.5 -1.5Z" class="g2_67"/>
<path d="M418.6 524.9c0 -.8 -.7 -1.5 -1.5 -1.5c-.8 0 -1.5 .7 -1.5 1.5c0 .8 .7 1.5 1.5 1.5c.8 0 1.5 -.7 1.5 -1.5Z" class="g2_67"/>
<path d="M418.6 525.5c0 -.9 -.7 -1.6 -1.5 -1.6c-.8 0 -1.5 .7 -1.5 1.6c0 .8 .7 1.5 1.5 1.5c.8 0 1.5 -.7 1.5 -1.5Z" class="g2_67"/>
<path d="M418.6 530c0 -.8 -.7 -1.5 -1.5 -1.5c-.8 0 -1.5 .7 -1.5 1.5c0 .9 .7 1.5 1.5 1.5c.8 0 1.5 -.6 1.5 -1.5Z" class="g2_67"/>
<path d="M418.6 530c0 -.8 -.7 -1.5 -1.5 -1.5c-.8 0 -1.5 .7 -1.5 1.5c0 .9 .7 1.5 1.5 1.5c.8 0 1.5 -.6 1.5 -1.5Z" class="g2_67"/>
<path d="M418.6 531.4c0 -.9 -.7 -1.5 -1.5 -1.5c-.8 0 -1.5 .6 -1.5 1.5c0 .8 .7 1.5 1.5 1.5c.8 0 1.5 -.7 1.5 -1.5Z" class="g2_67"/>
<path d="M418.6 534c0 -.8 -.7 -1.5 -1.5 -1.5c-.8 0 -1.5 .7 -1.5 1.5c0 .9 .7 1.5 1.5 1.5c.8 0 1.5 -.6 1.5 -1.5Z" class="g2_67"/>
<path d="M418.6 536.1c0 -.9 -.7 -1.5 -1.5 -1.5c-.8 0 -1.5 .6 -1.5 1.5c0 .8 .7 1.5 1.5 1.5c.8 0 1.5 -.7 1.5 -1.5Z" class="g2_67"/>
<path d="M418.6 536.1c0 -.9 -.7 -1.5 -1.5 -1.5c-.8 0 -1.5 .6 -1.5 1.5c0 .8 .7 1.5 1.5 1.5c.8 0 1.5 -.7 1.5 -1.5Z" class="g2_67"/>
<path d="M418.6 536.1c0 -.9 -.7 -1.5 -1.5 -1.5c-.8 0 -1.5 .6 -1.5 1.5c0 .8 .7 1.5 1.5 1.5c.8 0 1.5 -.7 1.5 -1.5Z" class="g2_67"/>
<path d="M418.6 533.8c0 -.8 -.7 -1.5 -1.5 -1.5c-.8 0 -1.5 .7 -1.5 1.5c0 .9 .7 1.6 1.5 1.6c.8 0 1.5 -.7 1.5 -1.6Z" class="g2_67"/>
<path d="M425.5 533c0 -.9 -.7 -1.6 -1.6 -1.6c-.8 0 -1.5 .7 -1.5 1.6c0 .8 .7 1.5 1.5 1.5c.9 0 1.6 -.7 1.6 -1.5Z" class="g2_67"/>
<path d="M425.5 532.6c0 -.8 -.7 -1.5 -1.6 -1.5c-.8 0 -1.5 .7 -1.5 1.5c0 .9 .7 1.5 1.5 1.5c.9 0 1.6 -.6 1.6 -1.5Z" class="g2_67"/>
<path d="M425.5 534c0 -.8 -.7 -1.5 -1.6 -1.5c-.8 0 -1.5 .7 -1.5 1.5c0 .9 .7 1.5 1.5 1.5c.9 0 1.6 -.6 1.6 -1.5Z" class="g2_67"/>
<path d="M425.5 534.7c0 -.8 -.7 -1.5 -1.6 -1.5c-.8 0 -1.5 .7 -1.5 1.5c0 .8 .7 1.5 1.5 1.5c.9 0 1.6 -.7 1.6 -1.5Z" class="g2_67"/>
<path d="M425.5 535.2c0 -.8 -.7 -1.5 -1.6 -1.5c-.8 0 -1.5 .7 -1.5 1.5c0 .9 .7 1.5 1.5 1.5c.9 0 1.6 -.6 1.6 -1.5Z" class="g2_67"/>
<path d="M425.5 539.6c0 -.8 -.7 -1.5 -1.6 -1.5c-.8 0 -1.5 .7 -1.5 1.5c0 .9 .7 1.6 1.5 1.6c.9 0 1.6 -.7 1.6 -1.6Z" class="g2_67"/>
<path d="M425.5 539.6c0 -.8 -.7 -1.5 -1.6 -1.5c-.8 0 -1.5 .7 -1.5 1.5c0 .9 .7 1.6 1.5 1.6c.9 0 1.6 -.7 1.6 -1.6Z" class="g2_67"/>
<path d="M425.5 549c0 -.9 -.7 -1.5 -1.6 -1.5c-.8 0 -1.5 .6 -1.5 1.5c0 .8 .7 1.5 1.5 1.5c.9 0 1.6 -.7 1.6 -1.5Z" class="g2_67"/>
<path d="M425.5 548.3c0 -.8 -.7 -1.5 -1.6 -1.5c-.8 0 -1.5 .7 -1.5 1.5c0 .8 .7 1.5 1.5 1.5c.9 0 1.6 -.7 1.6 -1.5Z" class="g2_67"/>
<path d="M425.5 545.8c0 -.8 -.7 -1.5 -1.6 -1.5c-.8 0 -1.5 .7 -1.5 1.5c0 .9 .7 1.5 1.5 1.5c.9 0 1.6 -.6 1.6 -1.5Z" class="g2_67"/>
<path d="M425.5 546.1c0 -.9 -.7 -1.5 -1.6 -1.5c-.8 0 -1.5 .6 -1.5 1.5c0 .8 .7 1.5 1.5 1.5c.9 0 1.6 -.7 1.6 -1.5Z" class="g2_67"/>
<path d="M425.5 548.3c0 -.8 -.7 -1.5 -1.6 -1.5c-.8 0 -1.5 .7 -1.5 1.5c0 .8 .7 1.5 1.5 1.5c.9 0 1.6 -.7 1.6 -1.5Z" class="g2_67"/>
<path d="M432.3 547.6c0 -.8 -.7 -1.5 -1.5 -1.5c-.9 0 -1.6 .7 -1.6 1.5c0 .9 .7 1.6 1.6 1.6c.8 0 1.5 -.7 1.5 -1.6Z" class="g2_67"/>
<path d="M432.3 548.3c0 -.8 -.7 -1.5 -1.5 -1.5c-.9 0 -1.6 .7 -1.6 1.5c0 .8 .7 1.5 1.6 1.5c.8 0 1.5 -.7 1.5 -1.5Z" class="g2_67"/>
<path d="M432.3 546.4c0 -.9 -.7 -1.6 -1.5 -1.6c-.9 0 -1.6 .7 -1.6 1.6c0 .8 .7 1.5 1.6 1.5c.8 0 1.5 -.7 1.5 -1.5Z" class="g2_67"/>
<path d="M432.3 549.9c0 -.9 -.7 -1.6 -1.5 -1.6c-.9 0 -1.6 .7 -1.6 1.6c0 .8 .7 1.5 1.6 1.5c.8 0 1.5 -.7 1.5 -1.5Z" class="g2_67"/>
<path d="M432.3 549.9c0 -.9 -.7 -1.6 -1.5 -1.6c-.9 0 -1.6 .7 -1.6 1.6c0 .8 .7 1.5 1.6 1.5c.8 0 1.5 -.7 1.5 -1.5Z" class="g2_67"/>
<path d="M432.3 544c0 -.8 -.7 -1.5 -1.5 -1.5c-.9 0 -1.6 .7 -1.6 1.5c0 .9 .7 1.5 1.6 1.5c.8 0 1.5 -.6 1.5 -1.5Z" class="g2_67"/>
<path d="M432.3 549.9c0 -.9 -.7 -1.6 -1.5 -1.6c-.9 0 -1.6 .7 -1.6 1.6c0 .8 .7 1.5 1.6 1.5c.8 0 1.5 -.7 1.5 -1.5Z" class="g2_67"/>
<path d="M432.3 545.6c0 -.9 -.7 -1.6 -1.5 -1.6c-.9 0 -1.6 .7 -1.6 1.6c0 .8 .7 1.5 1.6 1.5c.8 0 1.5 -.7 1.5 -1.5Z" class="g2_67"/>
<path d="M432.3 545.6c0 -.9 -.7 -1.6 -1.5 -1.6c-.9 0 -1.6 .7 -1.6 1.6c0 .8 .7 1.5 1.6 1.5c.8 0 1.5 -.7 1.5 -1.5Z" class="g2_67"/>
<path d="M432.3 549.6c0 -.8 -.7 -1.5 -1.5 -1.5c-.9 0 -1.6 .7 -1.6 1.5c0 .8 .7 1.5 1.6 1.5c.8 0 1.5 -.7 1.5 -1.5Z" class="g2_67"/>
<path d="M439.1 550.7c0 -.9 -.7 -1.6 -1.5 -1.6c-.8 0 -1.5 .7 -1.5 1.6c0 .8 .7 1.5 1.5 1.5c.8 0 1.5 -.7 1.5 -1.5Z" class="g2_67"/>
<path d="M439.1 549.5c0 -.9 -.7 -1.5 -1.5 -1.5c-.8 0 -1.5 .6 -1.5 1.5c0 .8 .7 1.5 1.5 1.5c.8 0 1.5 -.7 1.5 -1.5Z" class="g2_67"/>
<path d="M439.1 547.5c0 -.8 -.7 -1.5 -1.5 -1.5c-.8 0 -1.5 .7 -1.5 1.5c0 .9 .7 1.6 1.5 1.6c.8 0 1.5 -.7 1.5 -1.6Z" class="g2_67"/>
<path d="M439.1 544.8c0 -.8 -.7 -1.5 -1.5 -1.5c-.8 0 -1.5 .7 -1.5 1.5c0 .8 .7 1.5 1.5 1.5c.8 0 1.5 -.7 1.5 -1.5Z" class="g2_67"/>
<path d="M439.1 538.7c0 -.8 -.7 -1.5 -1.5 -1.5c-.8 0 -1.5 .7 -1.5 1.5c0 .9 .7 1.5 1.5 1.5c.8 0 1.5 -.6 1.5 -1.5Z" class="g2_67"/>
<path d="M439.1 543.2c0 -.9 -.7 -1.6 -1.5 -1.6c-.8 0 -1.5 .7 -1.5 1.6c0 .8 .7 1.5 1.5 1.5c.8 0 1.5 -.7 1.5 -1.5Z" class="g2_67"/>
<path d="M439.1 543.7c0 -.8 -.7 -1.5 -1.5 -1.5c-.8 0 -1.5 .7 -1.5 1.5c0 .9 .7 1.5 1.5 1.5c.8 0 1.5 -.6 1.5 -1.5Z" class="g2_67"/>
<path d="M439.1 547.1c0 -.8 -.7 -1.5 -1.5 -1.5c-.8 0 -1.5 .7 -1.5 1.5c0 .9 .7 1.6 1.5 1.6c.8 0 1.5 -.7 1.5 -1.6Z" class="g2_67"/>
<path d="M439.1 549.9c0 -.9 -.7 -1.6 -1.5 -1.6c-.8 0 -1.5 .7 -1.5 1.6c0 .8 .7 1.5 1.5 1.5c.8 0 1.5 -.7 1.5 -1.5Z" class="g2_67"/>
<path d="M439.1 551.8c0 -.8 -.7 -1.5 -1.5 -1.5c-.8 0 -1.5 .7 -1.5 1.5c0 .9 .7 1.5 1.5 1.5c.8 0 1.5 -.6 1.5 -1.5Z" class="g2_67"/>
<path d="M439.1 549.1c0 -.8 -.7 -1.5 -1.5 -1.5c-.8 0 -1.5 .7 -1.5 1.5c0 .8 .7 1.5 1.5 1.5c.8 0 1.5 -.7 1.5 -1.5Z" class="g2_67"/>
<path d="M446 550.8c0 -.8 -.7 -1.5 -1.6 -1.5c-.8 0 -1.5 .7 -1.5 1.5c0 .8 .7 1.5 1.5 1.5c.9 0 1.6 -.7 1.6 -1.5Z" class="g2_67"/>
<path d="M446 549.9c0 -.9 -.7 -1.6 -1.6 -1.6c-.8 0 -1.5 .7 -1.5 1.6c0 .8 .7 1.5 1.5 1.5c.9 0 1.6 -.7 1.6 -1.5Z" class="g2_67"/>
<path d="M446 547.2c0 -.8 -.7 -1.5 -1.6 -1.5c-.8 0 -1.5 .7 -1.5 1.5c0 .9 .7 1.6 1.5 1.6c.9 0 1.6 -.7 1.6 -1.6Z" class="g2_67"/>
<path d="M446 546.7c0 -.8 -.7 -1.5 -1.6 -1.5c-.8 0 -1.5 .7 -1.5 1.5c0 .9 .7 1.6 1.5 1.6c.9 0 1.6 -.7 1.6 -1.6Z" class="g2_67"/>
<path d="M446 546.7c0 -.8 -.7 -1.5 -1.6 -1.5c-.8 0 -1.5 .7 -1.5 1.5c0 .9 .7 1.6 1.5 1.6c.9 0 1.6 -.7 1.6 -1.6Z" class="g2_67"/>
<path d="M446 549.1c0 -.8 -.7 -1.5 -1.6 -1.5c-.8 0 -1.5 .7 -1.5 1.5c0 .8 .7 1.5 1.5 1.5c.9 0 1.6 -.7 1.6 -1.5Z" class="g2_67"/>
<path d="M446 551.1c0 -.9 -.7 -1.5 -1.6 -1.5c-.8 0 -1.5 .6 -1.5 1.5c0 .8 .7 1.5 1.5 1.5c.9 0 1.6 -.7 1.6 -1.5Z" class="g2_67"/>
<path d="M446 556.3c0 -.9 -.7 -1.5 -1.6 -1.5c-.8 0 -1.5 .6 -1.5 1.5c0 .8 .7 1.5 1.5 1.5c.9 0 1.6 -.7 1.6 -1.5Z" class="g2_67"/>
<path d="M446 556.3c0 -.9 -.7 -1.5 -1.6 -1.5c-.8 0 -1.5 .6 -1.5 1.5c0 .8 .7 1.5 1.5 1.5c.9 0 1.6 -.7 1.6 -1.5Z" class="g2_67"/>
<path d="M446 558.4c0 -.9 -.7 -1.6 -1.6 -1.6c-.8 0 -1.5 .7 -1.5 1.6c0 .8 .7 1.5 1.5 1.5c.9 0 1.6 -.7 1.6 -1.5Z" class="g2_67"/>
<path d="M446 558.2c0 -.8 -.7 -1.5 -1.6 -1.5c-.8 0 -1.5 .7 -1.5 1.5c0 .9 .7 1.6 1.5 1.6c.9 0 1.6 -.7 1.6 -1.6Z" class="g2_67"/>
<path d="M446 560.8c0 -.8 -.7 -1.5 -1.6 -1.5c-.8 0 -1.5 .7 -1.5 1.5c0 .9 .7 1.5 1.5 1.5c.9 0 1.6 -.6 1.6 -1.5Z" class="g2_67"/>
<path d="M452.8 559.3c0 -.9 -.7 -1.6 -1.5 -1.6c-.9 0 -1.6 .7 -1.6 1.6c0 .8 .7 1.5 1.6 1.5c.8 0 1.5 -.7 1.5 -1.5Z" class="g2_67"/>
<path d="M452.8 562.1c0 -.8 -.7 -1.5 -1.5 -1.5c-.9 0 -1.6 .7 -1.6 1.5c0 .9 .7 1.6 1.6 1.6c.8 0 1.5 -.7 1.5 -1.6Z" class="g2_67"/>
<path d="M452.8 565.9c0 -.9 -.7 -1.5 -1.5 -1.5c-.9 0 -1.6 .6 -1.6 1.5c0 .8 .7 1.5 1.6 1.5c.8 0 1.5 -.7 1.5 -1.5Z" class="g2_67"/>
<path d="M452.8 565.9c0 -.9 -.7 -1.5 -1.5 -1.5c-.9 0 -1.6 .6 -1.6 1.5c0 .8 .7 1.5 1.6 1.5c.8 0 1.5 -.7 1.5 -1.5Z" class="g2_67"/>
<path d="M452.8 567.2c0 -.8 -.7 -1.5 -1.5 -1.5c-.9 0 -1.6 .7 -1.6 1.5c0 .8 .7 1.5 1.6 1.5c.8 0 1.5 -.7 1.5 -1.5Z" class="g2_67"/>
<path d="M452.8 568.6c0 -.8 -.7 -1.5 -1.5 -1.5c-.9 0 -1.6 .7 -1.6 1.5c0 .9 .7 1.6 1.6 1.6c.8 0 1.5 -.7 1.5 -1.6Z" class="g2_67"/>
<path d="M452.8 569.7c0 -.8 -.7 -1.5 -1.5 -1.5c-.9 0 -1.6 .7 -1.6 1.5c0 .9 .7 1.5 1.6 1.5c.8 0 1.5 -.6 1.5 -1.5Z" class="g2_67"/>
<path d="M452.8 565c0 -.8 -.7 -1.5 -1.5 -1.5c-.9 0 -1.6 .7 -1.6 1.5c0 .8 .7 1.5 1.6 1.5c.8 0 1.5 -.7 1.5 -1.5Z" class="g2_67"/>
<path d="M452.8 565.8c0 -.9 -.7 -1.6 -1.5 -1.6c-.9 0 -1.6 .7 -1.6 1.6c0 .8 .7 1.5 1.6 1.5c.8 0 1.5 -.7 1.5 -1.5Z" class="g2_67"/>
<path d="M452.8 565.8c0 -.9 -.7 -1.6 -1.5 -1.6c-.9 0 -1.6 .7 -1.6 1.6c0 .8 .7 1.5 1.6 1.5c.8 0 1.5 -.7 1.5 -1.5Z" class="g2_67"/>
<path d="M452.8 560c0 -.9 -.7 -1.6 -1.5 -1.6c-.9 0 -1.6 .7 -1.6 1.6c0 .8 .7 1.5 1.6 1.5c.8 0 1.5 -.7 1.5 -1.5Z" class="g2_67"/>
<path d="M459.6 565.8c0 -.9 -.7 -1.6 -1.5 -1.6c-.8 0 -1.5 .7 -1.5 1.6c0 .8 .7 1.5 1.5 1.5c.8 0 1.5 -.7 1.5 -1.5Z" class="g2_67"/>
<path d="M459.6 565.8c0 -.9 -.7 -1.6 -1.5 -1.6c-.8 0 -1.5 .7 -1.5 1.6c0 .8 .7 1.5 1.5 1.5c.8 0 1.5 -.7 1.5 -1.5Z" class="g2_67"/>
<path d="M459.6 566.8c0 -.9 -.7 -1.6 -1.5 -1.6c-.8 0 -1.5 .7 -1.5 1.6c0 .8 .7 1.5 1.5 1.5c.8 0 1.5 -.7 1.5 -1.5Z" class="g2_67"/>
<path d="M459.6 575.8c0 -.8 -.7 -1.5 -1.5 -1.5c-.8 0 -1.5 .7 -1.5 1.5c0 .9 .7 1.6 1.5 1.6c.8 0 1.5 -.7 1.5 -1.6Z" class="g2_67"/>
<path d="M459.6 570.4c0 -.9 -.7 -1.5 -1.5 -1.5c-.8 0 -1.5 .6 -1.5 1.5c0 .8 .7 1.5 1.5 1.5c.8 0 1.5 -.7 1.5 -1.5Z" class="g2_67"/>
<path d="M459.6 571.4c0 -.9 -.7 -1.6 -1.5 -1.6c-.8 0 -1.5 .7 -1.5 1.6c0 .8 .7 1.5 1.5 1.5c.8 0 1.5 -.7 1.5 -1.5Z" class="g2_67"/>
<path d="M466.5 569.8c0 -.8 -.7 -1.5 -1.6 -1.5c-.8 0 -1.5 .7 -1.5 1.5c0 .8 .7 1.5 1.5 1.5c.9 0 1.6 -.7 1.6 -1.5Z" class="g2_67"/>
<path d="M466.5 570.1c0 -.8 -.7 -1.5 -1.6 -1.5c-.8 0 -1.5 .7 -1.5 1.5c0 .9 .7 1.5 1.5 1.5c.9 0 1.6 -.6 1.6 -1.5Z" class="g2_67"/>
<path d="M466.5 569c0 -.8 -.7 -1.5 -1.6 -1.5c-.8 0 -1.5 .7 -1.5 1.5c0 .8 .7 1.5 1.5 1.5c.9 0 1.6 -.7 1.6 -1.5Z" class="g2_67"/>
<path d="M466.5 568.6c0 -.8 -.7 -1.5 -1.6 -1.5c-.8 0 -1.5 .7 -1.5 1.5c0 .9 .7 1.6 1.5 1.6c.9 0 1.6 -.7 1.6 -1.6Z" class="g2_67"/>
<path d="M466.5 567.8c0 -.8 -.7 -1.5 -1.6 -1.5c-.8 0 -1.5 .7 -1.5 1.5c0 .8 .7 1.5 1.5 1.5c.9 0 1.6 -.7 1.6 -1.5Z" class="g2_67"/>
<path d="M466.5 567.4c0 -.8 -.7 -1.5 -1.6 -1.5c-.8 0 -1.5 .7 -1.5 1.5c0 .8 .7 1.5 1.5 1.5c.9 0 1.6 -.7 1.6 -1.5Z" class="g2_67"/>
<path d="M466.5 566.9c0 -.9 -.7 -1.5 -1.6 -1.5c-.8 0 -1.5 .6 -1.5 1.5c0 .8 .7 1.5 1.5 1.5c.9 0 1.6 -.7 1.6 -1.5Z" class="g2_67"/>
<path d="M466.5 568.6c0 -.8 -.7 -1.5 -1.6 -1.5c-.8 0 -1.5 .7 -1.5 1.5c0 .9 .7 1.6 1.5 1.6c.9 0 1.6 -.7 1.6 -1.6Z" class="g2_67"/>
<path d="M466.5 568.8c0 -.9 -.7 -1.5 -1.6 -1.5c-.8 0 -1.5 .6 -1.5 1.5c0 .8 .7 1.5 1.5 1.5c.9 0 1.6 -.7 1.6 -1.5Z" class="g2_67"/>
<path d="M466.5 568.1c0 -.9 -.7 -1.6 -1.6 -1.6c-.8 0 -1.5 .7 -1.5 1.6c0 .8 .7 1.5 1.5 1.5c.9 0 1.6 -.7 1.6 -1.5Z" class="g2_67"/>
<path d="M466.5 565.2c0 -.8 -.7 -1.5 -1.6 -1.5c-.8 0 -1.5 .7 -1.5 1.5c0 .9 .7 1.5 1.5 1.5c.9 0 1.6 -.6 1.6 -1.5Z" class="g2_67"/>
<path d="M473.3 566.8c0 -.9 -.7 -1.6 -1.5 -1.6c-.9 0 -1.5 .7 -1.5 1.6c0 .8 .6 1.5 1.5 1.5c.8 0 1.5 -.7 1.5 -1.5Z" class="g2_67"/>
<path d="M473.3 566.2c0 -.8 -.7 -1.5 -1.5 -1.5c-.9 0 -1.5 .7 -1.5 1.5c0 .9 .6 1.5 1.5 1.5c.8 0 1.5 -.6 1.5 -1.5Z" class="g2_67"/>
<path d="M473.3 568.6c0 -.9 -.7 -1.6 -1.5 -1.6c-.9 0 -1.5 .7 -1.5 1.6c0 .8 .6 1.5 1.5 1.5c.8 0 1.5 -.7 1.5 -1.5Z" class="g2_67"/>
<path d="M480.1 571.3c0 -.9 -.7 -1.6 -1.5 -1.6c-.8 0 -1.5 .7 -1.5 1.6c0 .8 .7 1.5 1.5 1.5c.8 0 1.5 -.7 1.5 -1.5Z" class="g2_67"/>
<path d="M480.1 566.2c0 -.8 -.7 -1.5 -1.5 -1.5c-.8 0 -1.5 .7 -1.5 1.5c0 .9 .7 1.5 1.5 1.5c.8 0 1.5 -.6 1.5 -1.5Z" class="g2_67"/>
<path d="M480.1 571.7c0 -.9 -.7 -1.6 -1.5 -1.6c-.8 0 -1.5 .7 -1.5 1.6c0 .8 .7 1.5 1.5 1.5c.8 0 1.5 -.7 1.5 -1.5Z" class="g2_67"/>
<path d="M480.1 576.3c0 -.9 -.7 -1.5 -1.5 -1.5c-.8 0 -1.5 .6 -1.5 1.5c0 .8 .7 1.5 1.5 1.5c.8 0 1.5 -.7 1.5 -1.5Z" class="g2_67"/>
<path d="M487 575c0 -.8 -.7 -1.5 -1.6 -1.5c-.8 0 -1.5 .7 -1.5 1.5c0 .9 .7 1.5 1.5 1.5c.9 0 1.6 -.6 1.6 -1.5Z" class="g2_67"/>
<path d="M487 576.3c0 -.9 -.7 -1.5 -1.6 -1.5c-.8 0 -1.5 .6 -1.5 1.5c0 .8 .7 1.5 1.5 1.5c.9 0 1.6 -.7 1.6 -1.5Z" class="g2_67"/>
<path d="M487 574.3c0 -.9 -.7 -1.6 -1.6 -1.6c-.8 0 -1.5 .7 -1.5 1.6c0 .8 .7 1.5 1.5 1.5c.9 0 1.6 -.7 1.6 -1.5Z" class="g2_67"/>
<path d="M487 573.1c0 -.8 -.7 -1.5 -1.6 -1.5c-.8 0 -1.5 .7 -1.5 1.5c0 .8 .7 1.5 1.5 1.5c.9 0 1.6 -.7 1.6 -1.5Z" class="g2_67"/>
<path d="M487 573.8c0 -.9 -.7 -1.5 -1.6 -1.5c-.8 0 -1.5 .6 -1.5 1.5c0 .8 .7 1.5 1.5 1.5c.9 0 1.6 -.7 1.6 -1.5Z" class="g2_67"/>
<path d="M487 575c0 -.8 -.7 -1.5 -1.6 -1.5c-.8 0 -1.5 .7 -1.5 1.5c0 .9 .7 1.5 1.5 1.5c.9 0 1.6 -.6 1.6 -1.5Z" class="g2_67"/>
<path d="M487 575.6c0 -.9 -.7 -1.6 -1.6 -1.6c-.8 0 -1.5 .7 -1.5 1.6c0 .8 .7 1.5 1.5 1.5c.9 0 1.6 -.7 1.6 -1.5Z" class="g2_67"/>
<path d="M487 577.4c0 -.9 -.7 -1.5 -1.6 -1.5c-.8 0 -1.5 .6 -1.5 1.5c0 .8 .7 1.5 1.5 1.5c.9 0 1.6 -.7 1.6 -1.5Z" class="g2_67"/>
<path d="M487 581.2c0 -.9 -.7 -1.5 -1.6 -1.5c-.8 0 -1.5 .6 -1.5 1.5c0 .8 .7 1.5 1.5 1.5c.9 0 1.6 -.7 1.6 -1.5Z" class="g2_67"/>
<path d="M493.8 583.2c0 -.9 -.7 -1.5 -1.5 -1.5c-.9 0 -1.5 .6 -1.5 1.5c0 .8 .6 1.5 1.5 1.5c.8 0 1.5 -.7 1.5 -1.5Z" class="g2_67"/>
<path d="M493.8 584.2c0 -.8 -.7 -1.5 -1.5 -1.5c-.9 0 -1.5 .7 -1.5 1.5c0 .8 .6 1.5 1.5 1.5c.8 0 1.5 -.7 1.5 -1.5Z" class="g2_67"/>
<path d="M493.8 585.1c0 -.8 -.7 -1.5 -1.5 -1.5c-.9 0 -1.5 .7 -1.5 1.5c0 .9 .6 1.6 1.5 1.6c.8 0 1.5 -.7 1.5 -1.6Z" class="g2_67"/>
<path d="M493.8 588.1c0 -.8 -.7 -1.5 -1.5 -1.5c-.9 0 -1.5 .7 -1.5 1.5c0 .9 .6 1.6 1.5 1.6c.8 0 1.5 -.7 1.5 -1.6Z" class="g2_67"/>
<path d="M493.8 588.1c0 -.8 -.7 -1.5 -1.5 -1.5c-.9 0 -1.5 .7 -1.5 1.5c0 .9 .6 1.6 1.5 1.6c.8 0 1.5 -.7 1.5 -1.6Z" class="g2_67"/>
<path d="M493.8 588.7c0 -.9 -.7 -1.5 -1.5 -1.5c-.9 0 -1.5 .6 -1.5 1.5c0 .8 .6 1.5 1.5 1.5c.8 0 1.5 -.7 1.5 -1.5Z" class="g2_67"/>
<path d="M493.8 589.3c0 -.9 -.7 -1.6 -1.5 -1.6c-.9 0 -1.5 .7 -1.5 1.6c0 .8 .6 1.5 1.5 1.5c.8 0 1.5 -.7 1.5 -1.5Z" class="g2_67"/>
<path d="M493.8 589.3c0 -.9 -.7 -1.6 -1.5 -1.6c-.9 0 -1.5 .7 -1.5 1.6c0 .8 .6 1.5 1.5 1.5c.8 0 1.5 -.7 1.5 -1.5Z" class="g2_67"/>
<path d="M500.6 589.9c0 -.8 -.7 -1.5 -1.5 -1.5c-.8 0 -1.5 .7 -1.5 1.5c0 .9 .7 1.5 1.5 1.5c.8 0 1.5 -.6 1.5 -1.5Z" class="g2_67"/>
<path d="M500.6 591.7c0 -.9 -.7 -1.6 -1.5 -1.6c-.8 0 -1.5 .7 -1.5 1.6c0 .8 .7 1.5 1.5 1.5c.8 0 1.5 -.7 1.5 -1.5Z" class="g2_67"/>
<path d="M500.6 593.7c0 -.8 -.7 -1.5 -1.5 -1.5c-.8 0 -1.5 .7 -1.5 1.5c0 .8 .7 1.5 1.5 1.5c.8 0 1.5 -.7 1.5 -1.5Z" class="g2_67"/>
<path d="M500.6 596.8c0 -.9 -.7 -1.6 -1.5 -1.6c-.8 0 -1.5 .7 -1.5 1.6c0 .8 .7 1.5 1.5 1.5c.8 0 1.5 -.7 1.5 -1.5Z" class="g2_67"/>
<path d="M500.6 598c0 -.8 -.7 -1.5 -1.5 -1.5c-.8 0 -1.5 .7 -1.5 1.5c0 .8 .7 1.5 1.5 1.5c.8 0 1.5 -.7 1.5 -1.5Z" class="g2_67"/>
<path d="M500.6 598c0 -.8 -.7 -1.5 -1.5 -1.5c-.8 0 -1.5 .7 -1.5 1.5c0 .8 .7 1.5 1.5 1.5c.8 0 1.5 -.7 1.5 -1.5Z" class="g2_67"/>
<path d="M500.6 597.1c0 -.9 -.7 -1.6 -1.5 -1.6c-.8 0 -1.5 .7 -1.5 1.6c0 .8 .7 1.5 1.5 1.5c.8 0 1.5 -.7 1.5 -1.5Z" class="g2_67"/>
<path d="M500.6 597.3c0 -.9 -.7 -1.6 -1.5 -1.6c-.8 0 -1.5 .7 -1.5 1.6c0 .8 .7 1.5 1.5 1.5c.8 0 1.5 -.7 1.5 -1.5Z" class="g2_67"/>
<path d="M500.6 596.3c0 -.9 -.7 -1.5 -1.5 -1.5c-.8 0 -1.5 .6 -1.5 1.5c0 .8 .7 1.5 1.5 1.5c.8 0 1.5 -.7 1.5 -1.5Z" class="g2_67"/>
<path d="M507.5 596.8c0 -.9 -.7 -1.6 -1.6 -1.6c-.8 0 -1.5 .7 -1.5 1.6c0 .8 .7 1.5 1.5 1.5c.9 0 1.6 -.7 1.6 -1.5Z" class="g2_67"/>
<path d="M507.5 595.2c0 -.8 -.7 -1.5 -1.6 -1.5c-.8 0 -1.5 .7 -1.5 1.5c0 .8 .7 1.5 1.5 1.5c.9 0 1.6 -.7 1.6 -1.5Z" class="g2_67"/>
<path d="M507.5 591.3c0 -.9 -.7 -1.6 -1.6 -1.6c-.8 0 -1.5 .7 -1.5 1.6c0 .8 .7 1.5 1.5 1.5c.9 0 1.6 -.7 1.6 -1.5Z" class="g2_67"/>
<path d="M507.5 590c0 -.8 -.7 -1.5 -1.6 -1.5c-.8 0 -1.5 .7 -1.5 1.5c0 .9 .7 1.5 1.5 1.5c.9 0 1.6 -.6 1.6 -1.5Z" class="g2_67"/>
<path d="M507.5 590.8c0 -.8 -.7 -1.5 -1.6 -1.5c-.8 0 -1.5 .7 -1.5 1.5c0 .9 .7 1.6 1.5 1.6c.9 0 1.6 -.7 1.6 -1.6Z" class="g2_67"/>
<path d="M507.5 590.2c0 -.9 -.7 -1.5 -1.6 -1.5c-.8 0 -1.5 .6 -1.5 1.5c0 .8 .7 1.5 1.5 1.5c.9 0 1.6 -.7 1.6 -1.5Z" class="g2_67"/>
<path d="M507.5 590.6c0 -.9 -.7 -1.6 -1.6 -1.6c-.8 0 -1.5 .7 -1.5 1.6c0 .8 .7 1.5 1.5 1.5c.9 0 1.6 -.7 1.6 -1.5Z" class="g2_67"/>
<path d="M507.5 588.2c0 -.8 -.7 -1.5 -1.6 -1.5c-.8 0 -1.5 .7 -1.5 1.5c0 .9 .7 1.5 1.5 1.5c.9 0 1.6 -.6 1.6 -1.5Z" class="g2_67"/>
<path d="M514.3 589.8c0 -.9 -.7 -1.6 -1.5 -1.6c-.9 0 -1.5 .7 -1.5 1.6c0 .8 .6 1.5 1.5 1.5c.8 0 1.5 -.7 1.5 -1.5Z" class="g2_67"/>
<path d="M514.3 589.3c0 -.9 -.7 -1.6 -1.5 -1.6c-.9 0 -1.5 .7 -1.5 1.6c0 .8 .6 1.5 1.5 1.5c.8 0 1.5 -.7 1.5 -1.5Z" class="g2_67"/>
<path d="M514.3 592c0 -.9 -.7 -1.5 -1.5 -1.5c-.9 0 -1.5 .6 -1.5 1.5c0 .8 .6 1.5 1.5 1.5c.8 0 1.5 -.7 1.5 -1.5Z" class="g2_67"/>
<path d="M514.3 593.7c0 -.8 -.7 -1.5 -1.5 -1.5c-.9 0 -1.5 .7 -1.5 1.5c0 .8 .6 1.5 1.5 1.5c.8 0 1.5 -.7 1.5 -1.5Z" class="g2_67"/>
<path d="M514.3 595.6c0 -.8 -.7 -1.5 -1.5 -1.5c-.9 0 -1.5 .7 -1.5 1.5c0 .9 .6 1.6 1.5 1.6c.8 0 1.5 -.7 1.5 -1.6Z" class="g2_67"/>
<path d="M514.3 597.8c0 -.9 -.7 -1.5 -1.5 -1.5c-.9 0 -1.5 .6 -1.5 1.5c0 .8 .6 1.5 1.5 1.5c.8 0 1.5 -.7 1.5 -1.5Z" class="g2_67"/>
<path d="M514.3 597.5c0 -.9 -.7 -1.6 -1.5 -1.6c-.9 0 -1.5 .7 -1.5 1.6c0 .8 .6 1.5 1.5 1.5c.8 0 1.5 -.7 1.5 -1.5Z" class="g2_67"/>
<path d="M514.3 597.8c0 -.9 -.7 -1.5 -1.5 -1.5c-.9 0 -1.5 .6 -1.5 1.5c0 .8 .6 1.5 1.5 1.5c.8 0 1.5 -.7 1.5 -1.5Z" class="g2_67"/>
<path d="M514.3 599.5c0 -.8 -.7 -1.5 -1.5 -1.5c-.9 0 -1.5 .7 -1.5 1.5c0 .9 .6 1.6 1.5 1.6c.8 0 1.5 -.7 1.5 -1.6Z" class="g2_67"/>
<path d="M521.1 604.5c0 -.9 -.7 -1.6 -1.5 -1.6c-.8 0 -1.5 .7 -1.5 1.6c0 .8 .7 1.5 1.5 1.5c.8 0 1.5 -.7 1.5 -1.5Z" class="g2_67"/>
<path d="M521.1 605.1c0 -.9 -.7 -1.6 -1.5 -1.6c-.8 0 -1.5 .7 -1.5 1.6c0 .8 .7 1.5 1.5 1.5c.8 0 1.5 -.7 1.5 -1.5Z" class="g2_67"/>
<path d="M521.1 605.5c0 -.8 -.7 -1.5 -1.5 -1.5c-.8 0 -1.5 .7 -1.5 1.5c0 .8 .7 1.5 1.5 1.5c.8 0 1.5 -.7 1.5 -1.5Z" class="g2_67"/>
<path d="M521.1 605.5c0 -.8 -.7 -1.5 -1.5 -1.5c-.8 0 -1.5 .7 -1.5 1.5c0 .8 .7 1.5 1.5 1.5c.8 0 1.5 -.7 1.5 -1.5Z" class="g2_67"/>
<path d="M521.1 605.3c0 -.9 -.7 -1.5 -1.5 -1.5c-.8 0 -1.5 .6 -1.5 1.5c0 .8 .7 1.5 1.5 1.5c.8 0 1.5 -.7 1.5 -1.5Z" class="g2_67"/>
<path d="M521.1 605.5c0 -.8 -.7 -1.5 -1.5 -1.5c-.8 0 -1.5 .7 -1.5 1.5c0 .8 .7 1.5 1.5 1.5c.8 0 1.5 -.7 1.5 -1.5Z" class="g2_67"/>
<path d="M528 605.7c0 -.8 -.7 -1.5 -1.6 -1.5c-.8 0 -1.5 .7 -1.5 1.5c0 .9 .7 1.5 1.5 1.5c.9 0 1.6 -.6 1.6 -1.5Z" class="g2_67"/>
<path d="M528 607.7c0 -.8 -.7 -1.5 -1.6 -1.5c-.8 0 -1.5 .7 -1.5 1.5c0 .8 .7 1.5 1.5 1.5c.9 0 1.6 -.7 1.6 -1.5Z" class="g2_67"/>
<path d="M528 608.5c0 -.8 -.7 -1.5 -1.6 -1.5c-.8 0 -1.5 .7 -1.5 1.5c0 .9 .7 1.6 1.5 1.6c.9 0 1.6 -.7 1.6 -1.6Z" class="g2_67"/>
<path d="M528 606.9c0 -.8 -.7 -1.5 -1.6 -1.5c-.8 0 -1.5 .7 -1.5 1.5c0 .9 .7 1.5 1.5 1.5c.9 0 1.6 -.6 1.6 -1.5Z" class="g2_67"/>
<path d="M528 604.5c0 -.9 -.7 -1.6 -1.6 -1.6c-.8 0 -1.5 .7 -1.5 1.6c0 .8 .7 1.5 1.5 1.5c.9 0 1.6 -.7 1.6 -1.5Z" class="g2_67"/>
<path d="M528 602.1c0 -.8 -.7 -1.5 -1.6 -1.5c-.8 0 -1.5 .7 -1.5 1.5c0 .9 .7 1.5 1.5 1.5c.9 0 1.6 -.6 1.6 -1.5Z" class="g2_67"/>
<path d="M528 603.1c0 -.8 -.7 -1.5 -1.6 -1.5c-.8 0 -1.5 .7 -1.5 1.5c0 .9 .7 1.6 1.5 1.6c.9 0 1.6 -.7 1.6 -1.6Z" class="g2_67"/>
<path d="M534.8 601.2c0 -.8 -.7 -1.5 -1.5 -1.5c-.9 0 -1.5 .7 -1.5 1.5c0 .8 .6 1.5 1.5 1.5c.8 0 1.5 -.7 1.5 -1.5Z" class="g2_67"/>
<path d="M534.8 602.4c0 -.8 -.7 -1.5 -1.5 -1.5c-.9 0 -1.5 .7 -1.5 1.5c0 .9 .6 1.6 1.5 1.6c.8 0 1.5 -.7 1.5 -1.6Z" class="g2_67"/>
<path d="M534.8 599.9c0 -.8 -.7 -1.5 -1.5 -1.5c-.9 0 -1.5 .7 -1.5 1.5c0 .9 .6 1.6 1.5 1.6c.8 0 1.5 -.7 1.5 -1.6Z" class="g2_67"/>
<path d="M534.8 599.5c0 -.8 -.7 -1.5 -1.5 -1.5c-.9 0 -1.5 .7 -1.5 1.5c0 .9 .6 1.6 1.5 1.6c.8 0 1.5 -.7 1.5 -1.6Z" class="g2_67"/>
<path d="M534.8 600.3c0 -.8 -.7 -1.5 -1.5 -1.5c-.9 0 -1.5 .7 -1.5 1.5c0 .9 .6 1.6 1.5 1.6c.8 0 1.5 -.7 1.5 -1.6Z" class="g2_67"/>
<path d="M534.8 598.3c0 -.8 -.7 -1.5 -1.5 -1.5c-.9 0 -1.5 .7 -1.5 1.5c0 .9 .6 1.6 1.5 1.6c.8 0 1.5 -.7 1.5 -1.6Z" class="g2_67"/>
<path d="M534.8 600.3c0 -.8 -.7 -1.5 -1.5 -1.5c-.9 0 -1.5 .7 -1.5 1.5c0 .9 .6 1.6 1.5 1.6c.8 0 1.5 -.7 1.5 -1.6Z" class="g2_67"/>
<path d="M534.8 601.2c0 -.8 -.7 -1.5 -1.5 -1.5c-.9 0 -1.5 .7 -1.5 1.5c0 .8 .6 1.5 1.5 1.5c.8 0 1.5 -.7 1.5 -1.5Z" class="g2_67"/>
<path d="M534.8 600.3c0 -.8 -.7 -1.5 -1.5 -1.5c-.9 0 -1.5 .7 -1.5 1.5c0 .9 .6 1.6 1.5 1.6c.8 0 1.5 -.7 1.5 -1.6Z" class="g2_67"/>
<path d="M541.6 599.5c0 -.8 -.7 -1.5 -1.5 -1.5c-.8 0 -1.5 .7 -1.5 1.5c0 .9 .7 1.6 1.5 1.6c.8 0 1.5 -.7 1.5 -1.6Z" class="g2_67"/>
<path d="M541.6 599.5c0 -.8 -.7 -1.5 -1.5 -1.5c-.8 0 -1.5 .7 -1.5 1.5c0 .9 .7 1.6 1.5 1.6c.8 0 1.5 -.7 1.5 -1.6Z" class="g2_67"/>
<path d="M541.6 599.5c0 -.8 -.7 -1.5 -1.5 -1.5c-.8 0 -1.5 .7 -1.5 1.5c0 .9 .7 1.6 1.5 1.6c.8 0 1.5 -.7 1.5 -1.6Z" class="g2_67"/>
<path d="M541.6 600.5c0 -.9 -.7 -1.5 -1.5 -1.5c-.8 0 -1.5 .6 -1.5 1.5c0 .8 .7 1.5 1.5 1.5c.8 0 1.5 -.7 1.5 -1.5Z" class="g2_67"/>
<path d="M541.6 601.2c0 -.8 -.7 -1.5 -1.5 -1.5c-.8 0 -1.5 .7 -1.5 1.5c0 .8 .7 1.5 1.5 1.5c.8 0 1.5 -.7 1.5 -1.5Z" class="g2_67"/>
<path d="M541.6 603.1c0 -.8 -.7 -1.5 -1.5 -1.5c-.8 0 -1.5 .7 -1.5 1.5c0 .9 .7 1.6 1.5 1.6c.8 0 1.5 -.7 1.5 -1.6Z" class="g2_67"/>
<path d="M541.6 604.1c0 -.9 -.7 -1.6 -1.5 -1.6c-.8 0 -1.5 .7 -1.5 1.6c0 .8 .7 1.5 1.5 1.5c.8 0 1.5 -.7 1.5 -1.5Z" class="g2_67"/>
<path d="M548.5 605.5c0 -.8 -.7 -1.5 -1.6 -1.5c-.8 0 -1.5 .7 -1.5 1.5c0 .8 .7 1.5 1.5 1.5c.9 0 1.6 -.7 1.6 -1.5Z" class="g2_67"/>
<path d="M548.5 606.4c0 -.8 -.7 -1.5 -1.6 -1.5c-.8 0 -1.5 .7 -1.5 1.5c0 .9 .7 1.5 1.5 1.5c.9 0 1.6 -.6 1.6 -1.5Z" class="g2_67"/>
<path d="M548.5 606.9c0 -.8 -.7 -1.5 -1.6 -1.5c-.8 0 -1.5 .7 -1.5 1.5c0 .9 .7 1.5 1.5 1.5c.9 0 1.6 -.6 1.6 -1.5Z" class="g2_67"/>
<path d="M548.5 607.2c0 -.9 -.7 -1.6 -1.6 -1.6c-.8 0 -1.5 .7 -1.5 1.6c0 .8 .7 1.5 1.5 1.5c.9 0 1.6 -.7 1.6 -1.5Z" class="g2_67"/>
<path d="M548.5 608.3c0 -.9 -.7 -1.6 -1.6 -1.6c-.8 0 -1.5 .7 -1.5 1.6c0 .8 .7 1.5 1.5 1.5c.9 0 1.6 -.7 1.6 -1.5Z" class="g2_67"/>
<path d="M548.5 608.5c0 -.8 -.7 -1.5 -1.6 -1.5c-.8 0 -1.5 .7 -1.5 1.5c0 .9 .7 1.6 1.5 1.6c.9 0 1.6 -.7 1.6 -1.6Z" class="g2_67"/>
<path d="M548.5 608.8c0 -.8 -.7 -1.5 -1.6 -1.5c-.8 0 -1.5 .7 -1.5 1.5c0 .9 .7 1.6 1.5 1.6c.9 0 1.6 -.7 1.6 -1.6Z" class="g2_67"/>
<path d="M548.5 610.5c0 -.9 -.7 -1.6 -1.6 -1.6c-.8 0 -1.5 .7 -1.5 1.6c0 .8 .7 1.5 1.5 1.5c.9 0 1.6 -.7 1.6 -1.5Z" class="g2_67"/>
<path d="M548.5 610.8c0 -.8 -.7 -1.5 -1.6 -1.5c-.8 0 -1.5 .7 -1.5 1.5c0 .9 .7 1.5 1.5 1.5c.9 0 1.6 -.6 1.6 -1.5Z" class="g2_67"/>
<path d="M548.5 612c0 -.9 -.7 -1.6 -1.6 -1.6c-.8 0 -1.5 .7 -1.5 1.6c0 .8 .7 1.5 1.5 1.5c.9 0 1.6 -.7 1.6 -1.5Z" class="g2_67"/>
<path d="M555.3 610.5c0 -.9 -.7 -1.6 -1.5 -1.6c-.9 0 -1.5 .7 -1.5 1.6c0 .8 .6 1.5 1.5 1.5c.8 0 1.5 -.7 1.5 -1.5Z" class="g2_67"/>
<path d="M555.3 609.1c0 -.8 -.7 -1.5 -1.5 -1.5c-.9 0 -1.5 .7 -1.5 1.5c0 .9 .6 1.6 1.5 1.6c.8 0 1.5 -.7 1.5 -1.6Z" class="g2_67"/>
<path d="M555.3 609.1c0 -.8 -.7 -1.5 -1.5 -1.5c-.9 0 -1.5 .7 -1.5 1.5c0 .9 .6 1.6 1.5 1.6c.8 0 1.5 -.7 1.5 -1.6Z" class="g2_67"/>
<path d="M555.3 607.4c0 -.8 -.7 -1.5 -1.5 -1.5c-.9 0 -1.5 .7 -1.5 1.5c0 .9 .6 1.6 1.5 1.6c.8 0 1.5 -.7 1.5 -1.6Z" class="g2_67"/>
<path d="M555.3 606.2c0 -.9 -.7 -1.5 -1.5 -1.5c-.9 0 -1.5 .6 -1.5 1.5c0 .8 .6 1.5 1.5 1.5c.8 0 1.5 -.7 1.5 -1.5Z" class="g2_67"/>
<path d="M555.3 605.5c0 -.8 -.7 -1.5 -1.5 -1.5c-.9 0 -1.5 .7 -1.5 1.5c0 .8 .6 1.5 1.5 1.5c.8 0 1.5 -.7 1.5 -1.5Z" class="g2_67"/>
<path d="M555.3 604.3c0 -.9 -.7 -1.6 -1.5 -1.6c-.9 0 -1.5 .7 -1.5 1.6c0 .8 .6 1.5 1.5 1.5c.8 0 1.5 -.7 1.5 -1.5Z" class="g2_67"/>
<path d="M555.3 603.9c0 -.9 -.7 -1.6 -1.5 -1.6c-.9 0 -1.5 .7 -1.5 1.6c0 .8 .6 1.5 1.5 1.5c.8 0 1.5 -.7 1.5 -1.5Z" class="g2_67"/>
<path d="M555.3 604.3c0 -.9 -.7 -1.6 -1.5 -1.6c-.9 0 -1.5 .7 -1.5 1.6c0 .8 .6 1.5 1.5 1.5c.8 0 1.5 -.7 1.5 -1.5Z" class="g2_67"/>
<path d="M562.1 603.5c0 -.8 -.7 -1.5 -1.5 -1.5c-.8 0 -1.5 .7 -1.5 1.5c0 .8 .7 1.5 1.5 1.5c.8 0 1.5 -.7 1.5 -1.5Z" class="g2_67"/>
<path d="M562.1 603.1c0 -.8 -.7 -1.5 -1.5 -1.5c-.8 0 -1.5 .7 -1.5 1.5c0 .9 .7 1.6 1.5 1.6c.8 0 1.5 -.7 1.5 -1.6Z" class="g2_67"/>
<path d="M562.1 602.1c0 -.8 -.7 -1.5 -1.5 -1.5c-.8 0 -1.5 .7 -1.5 1.5c0 .9 .7 1.5 1.5 1.5c.8 0 1.5 -.6 1.5 -1.5Z" class="g2_67"/>
<path d="M562.1 601.5c0 -.8 -.7 -1.5 -1.5 -1.5c-.8 0 -1.5 .7 -1.5 1.5c0 .8 .7 1.5 1.5 1.5c.8 0 1.5 -.7 1.5 -1.5Z" class="g2_67"/>
<path d="M562.1 602.1c0 -.8 -.7 -1.5 -1.5 -1.5c-.8 0 -1.5 .7 -1.5 1.5c0 .9 .7 1.5 1.5 1.5c.8 0 1.5 -.6 1.5 -1.5Z" class="g2_67"/>
<path d="M562.1 601.6c0 -.8 -.7 -1.5 -1.5 -1.5c-.8 0 -1.5 .7 -1.5 1.5c0 .9 .7 1.6 1.5 1.6c.8 0 1.5 -.7 1.5 -1.6Z" class="g2_67"/>
<path d="M562.1 602c0 -.9 -.7 -1.6 -1.5 -1.6c-.8 0 -1.5 .7 -1.5 1.6c0 .8 .7 1.5 1.5 1.5c.8 0 1.5 -.7 1.5 -1.5Z" class="g2_67"/>
<path d="M562.1 602.6c0 -.8 -.7 -1.5 -1.5 -1.5c-.8 0 -1.5 .7 -1.5 1.5c0 .9 .7 1.5 1.5 1.5c.8 0 1.5 -.6 1.5 -1.5Z" class="g2_67"/>
<path d="M569 602c0 -.9 -.7 -1.6 -1.6 -1.6c-.8 0 -1.5 .7 -1.5 1.6c0 .8 .7 1.5 1.5 1.5c.9 0 1.6 -.7 1.6 -1.5Z" class="g2_67"/>
<path d="M569 603c0 -.9 -.7 -1.6 -1.6 -1.6c-.8 0 -1.5 .7 -1.5 1.6c0 .8 .7 1.5 1.5 1.5c.9 0 1.6 -.7 1.6 -1.5Z" class="g2_67"/>
<path d="M569 604.3c0 -.9 -.7 -1.6 -1.6 -1.6c-.8 0 -1.5 .7 -1.5 1.6c0 .8 .7 1.5 1.5 1.5c.9 0 1.6 -.7 1.6 -1.5Z" class="g2_67"/>
<path d="M569 605.1c0 -.9 -.7 -1.6 -1.6 -1.6c-.8 0 -1.5 .7 -1.5 1.6c0 .8 .7 1.5 1.5 1.5c.9 0 1.6 -.7 1.6 -1.5Z" class="g2_67"/>
<path d="M569 606.2c0 -.9 -.7 -1.5 -1.6 -1.5c-.8 0 -1.5 .6 -1.5 1.5c0 .8 .7 1.5 1.5 1.5c.9 0 1.6 -.7 1.6 -1.5Z" class="g2_67"/>
<path d="M569 606.9c0 -.8 -.7 -1.5 -1.6 -1.5c-.8 0 -1.5 .7 -1.5 1.5c0 .9 .7 1.5 1.5 1.5c.9 0 1.6 -.6 1.6 -1.5Z" class="g2_67"/>
<path d="M569 606.9c0 -.8 -.7 -1.5 -1.6 -1.5c-.8 0 -1.5 .7 -1.5 1.5c0 .9 .7 1.5 1.5 1.5c.9 0 1.6 -.6 1.6 -1.5Z" class="g2_67"/>
<path d="M569 607.2c0 -.9 -.7 -1.6 -1.6 -1.6c-.8 0 -1.5 .7 -1.5 1.6c0 .8 .7 1.5 1.5 1.5c.9 0 1.6 -.7 1.6 -1.5Z" class="g2_67"/>
<path d="M569 608.5c0 -.8 -.7 -1.5 -1.6 -1.5c-.8 0 -1.5 .7 -1.5 1.5c0 .9 .7 1.6 1.5 1.6c.9 0 1.6 -.7 1.6 -1.6Z" class="g2_67"/>
<path d="M569 609.5c0 -.9 -.7 -1.6 -1.6 -1.6c-.8 0 -1.5 .7 -1.5 1.6c0 .8 .7 1.5 1.5 1.5c.9 0 1.6 -.7 1.6 -1.5Z" class="g2_67"/>
<path d="M569 610.1c0 -.8 -.7 -1.5 -1.6 -1.5c-.8 0 -1.5 .7 -1.5 1.5c0 .9 .7 1.5 1.5 1.5c.9 0 1.6 -.6 1.6 -1.5Z" class="g2_67"/>
<path d="M575.8 612c0 -.9 -.7 -1.6 -1.5 -1.6c-.9 0 -1.5 .7 -1.5 1.6c0 .8 .6 1.5 1.5 1.5c.8 0 1.5 -.7 1.5 -1.5Z" class="g2_67"/>
<path d="M575.8 612c0 -.9 -.7 -1.6 -1.5 -1.6c-.9 0 -1.5 .7 -1.5 1.6c0 .8 .6 1.5 1.5 1.5c.8 0 1.5 -.7 1.5 -1.5Z" class="g2_67"/>
<path d="M575.8 609.8c0 -.9 -.7 -1.5 -1.5 -1.5c-.9 0 -1.5 .6 -1.5 1.5c0 .8 .6 1.5 1.5 1.5c.8 0 1.5 -.7 1.5 -1.5Z" class="g2_67"/>
<path d="M575.8 610.5c0 -.9 -.7 -1.6 -1.5 -1.6c-.9 0 -1.5 .7 -1.5 1.6c0 .8 .6 1.5 1.5 1.5c.8 0 1.5 -.7 1.5 -1.5Z" class="g2_67"/>
<path d="M575.8 611.2c0 -.9 -.7 -1.5 -1.5 -1.5c-.9 0 -1.5 .6 -1.5 1.5c0 .8 .6 1.5 1.5 1.5c.8 0 1.5 -.7 1.5 -1.5Z" class="g2_67"/>
<path d="M575.8 611.6c0 -.9 -.7 -1.6 -1.5 -1.6c-.9 0 -1.5 .7 -1.5 1.6c0 .8 .6 1.5 1.5 1.5c.8 0 1.5 -.7 1.5 -1.5Z" class="g2_67"/>
<path d="M575.8 611.2c0 -.9 -.7 -1.5 -1.5 -1.5c-.9 0 -1.5 .6 -1.5 1.5c0 .8 .6 1.5 1.5 1.5c.8 0 1.5 -.7 1.5 -1.5Z" class="g2_67"/>
<path d="M575.8 610.5c0 -.9 -.7 -1.6 -1.5 -1.6c-.9 0 -1.5 .7 -1.5 1.6c0 .8 .6 1.5 1.5 1.5c.8 0 1.5 -.7 1.5 -1.5Z" class="g2_67"/>
<path d="M575.8 609.1c0 -.8 -.7 -1.5 -1.5 -1.5c-.9 0 -1.5 .7 -1.5 1.5c0 .9 .6 1.6 1.5 1.6c.8 0 1.5 -.7 1.5 -1.6Z" class="g2_67"/>
<path d="M575.8 609.1c0 -.8 -.7 -1.5 -1.5 -1.5c-.9 0 -1.5 .7 -1.5 1.5c0 .9 .6 1.6 1.5 1.6c.8 0 1.5 -.7 1.5 -1.6Z" class="g2_67"/>
<path d="M575.8 609.1c0 -.8 -.7 -1.5 -1.5 -1.5c-.9 0 -1.5 .7 -1.5 1.5c0 .9 .6 1.6 1.5 1.6c.8 0 1.5 -.7 1.5 -1.6Z" class="g2_67"/>
<path d="M575.8 610.1c0 -.8 -.7 -1.5 -1.5 -1.5c-.9 0 -1.5 .7 -1.5 1.5c0 .9 .6 1.5 1.5 1.5c.8 0 1.5 -.6 1.5 -1.5Z" class="g2_67"/>
<path d="M582.6 611.2c0 -.9 -.7 -1.5 -1.5 -1.5c-.8 0 -1.5 .6 -1.5 1.5c0 .8 .7 1.5 1.5 1.5c.8 0 1.5 -.7 1.5 -1.5Z" class="g2_67"/>
<path d="M582.6 612c0 -.9 -.7 -1.6 -1.5 -1.6c-.8 0 -1.5 .7 -1.5 1.6c0 .8 .7 1.5 1.5 1.5c.8 0 1.5 -.7 1.5 -1.5Z" class="g2_67"/>
<path d="M582.6 611.6c0 -.9 -.7 -1.6 -1.5 -1.6c-.8 0 -1.5 .7 -1.5 1.6c0 .8 .7 1.5 1.5 1.5c.8 0 1.5 -.7 1.5 -1.5Z" class="g2_67"/>
<path d="M582.6 612c0 -.9 -.7 -1.6 -1.5 -1.6c-.8 0 -1.5 .7 -1.5 1.6c0 .8 .7 1.5 1.5 1.5c.8 0 1.5 -.7 1.5 -1.5Z" class="g2_67"/>
<path d="M582.6 611.2c0 -.9 -.7 -1.5 -1.5 -1.5c-.8 0 -1.5 .6 -1.5 1.5c0 .8 .7 1.5 1.5 1.5c.8 0 1.5 -.7 1.5 -1.5Z" class="g2_67"/>
<path d="M582.6 610.8c0 -.8 -.7 -1.5 -1.5 -1.5c-.8 0 -1.5 .7 -1.5 1.5c0 .9 .7 1.5 1.5 1.5c.8 0 1.5 -.6 1.5 -1.5Z" class="g2_67"/>
<path d="M582.6 609.5c0 -.9 -.7 -1.6 -1.5 -1.6c-.8 0 -1.5 .7 -1.5 1.6c0 .8 .7 1.5 1.5 1.5c.8 0 1.5 -.7 1.5 -1.5Z" class="g2_67"/>
</svg>