<?xml version="1.0" encoding="UTF-8" standalone="no"?>
<!DOCTYPE svg PUBLIC "-//W3C//DTD SVG 1.1//EN"
"http://www.w3.org/Graphics/SVG/1.1/DTD/svg11.dtd">
<svg viewBox="0 0 714 1017" version="1.1" xmlns="http://www.w3.org/2000/svg" xmlns:xlink="http://www.w3.org/1999/xlink">
<defs>
<clipPath id="c0_253"><path d="M93.6 498.3V359.6H599V498.3Z"/></clipPath>
<clipPath id="c1_253"><path d="M93.6 498.6v-139H599.3v139Z"/></clipPath>
<style type="text/css"><![CDATA[
.g0_253{
fill: #FFF;
}
.g1_253{
fill: #000;
}
.g2_253{
fill: none;
stroke: #000;
stroke-width: 1.145;
stroke-miterlimit: 10;
}
]]></style>
</defs>
<path d="M0 1017.7H717.2V-3.7H0V1017.7Z" class="g0_253"/>
<g clip-path="url(#c1_253)">
<path clip-path="url(#c0_253)" d="M93.6 359.6H599V498.3H93.6V359.6Z" class="g0_253"/>
<path d="M432.2 359.6h3.5v1.2h-3.5v-1.2Zm6.9 0h3.4v1.2h-3.4v-1.2Zm6.9 0h3.4v1.2H446v-1.2Zm6.9 0h3.4v1.2h-3.4v-1.2Zm6.8 0h3.5v1.2h-3.5v-1.2Zm6.9 0H470v1.2h-3.4v-1.2Zm6.9 0h3.4v1.2h-3.4v-1.2Zm6.9 0h3.4v1.2h-3.4v-1.2Zm6.8 0h3.5v1.2h-3.5v-1.2Zm6.9 0h3.4v1.2h-3.4v-1.2Zm6.9 0h3.4v1.2H501v-1.2Zm6.9 0h3.4v1.2h-3.4v-1.2Zm6.8 0h3.5v1.2h-3.5v-1.2Zm6.9 0H525v1.2h-3.4v-1.2Zm6.9 0h3.4v1.2h-3.4v-1.2Zm6.9 0h3.4v1.2h-3.4v-1.2Zm6.8 0h3.5v1.2h-3.5v-1.2Zm6.9 0h3.4v1.2h-3.4v-1.2Zm6.9 0h3.4v1.2H556v-1.2Zm6.9 0h3.4v1.2h-3.4v-1.2Zm6.8 0h3.5v1.2h-3.5v-1.2Zm6.9 0H580v1.2h-3.4v-1.2Zm6.9 0h3.4v1.2h-3.4v-1.2Zm6.9 0h3.4v1.2h-3.4v-1.2Zm6.8 0H599v2.9h-1.2v-2.3h.6v.6h-1.2v-1.2Zm1.8 6.3v3.5h-1.2v-3.5H599Zm0 6.9v3.4h-1.2v-3.4H599Zm0 6.9v3.4h-1.2v-3.4H599Zm0 6.9V390h-1.2v-3.4H599Zm0 6.8v3.5h-1.2v-3.5H599Zm0 6.9v3.4h-1.2v-3.4H599Zm0 6.9v3.4h-1.2v-3.4H599Zm0 6.9v3.4h-1.2v-3.4H599Zm0 6.8v3.5h-1.2v-3.5H599Zm0 6.9v3.4h-1.2v-3.4H599Zm0 6.9v3.4h-1.2v-3.4H599Zm0 6.9V445h-1.2v-3.4H599Zm0 6.8v3.5h-1.2v-3.5H599Zm0 6.9v3.4h-1.2v-3.4H599Zm0 6.9v3.4h-1.2v-3.4H599Zm0 6.9v3.4h-1.2v-3.4H599Zm0 6.8v3.5h-1.2v-3.5H599Zm0 6.9v3.4h-1.2v-3.4H599Zm0 6.9v3.4h-1.2v-3.4H599Zm0 6.9v1.7h-2.9v-1.2h2.3v.6h-.6v-1.1H599Zm-6.3 1.7h-3.5v-1.2h3.5v1.2Zm-6.9 0h-3.5v-1.2h3.5v1.2Zm-6.9 0h-3.4v-1.2h3.4v1.2Zm-6.9 0h-3.4v-1.2H572v1.2Zm-6.8 0h-3.5v-1.2h3.5v1.2Zm-6.9 0h-3.5v-1.2h3.5v1.2Zm-6.9 0H548v-1.2h3.4v1.2Zm-6.9 0h-3.4v-1.2h3.4v1.2Zm-6.8 0h-3.5v-1.2h3.5v1.2Zm-6.9 0h-3.5v-1.2h3.5v1.2Zm-6.9 0h-3.4v-1.2h3.4v1.2Zm-6.9 0h-3.4v-1.2H517v1.2Zm-6.8 0h-3.5v-1.2h3.5v1.2Zm-6.9 0h-3.5v-1.2h3.5v1.2Zm-6.9 0H493v-1.2h3.4v1.2Zm-6.9 0h-3.4v-1.2h3.4v1.2Zm-6.8 0h-3.5v-1.2h3.5v1.2Zm-6.9 0h-3.5v-1.2h3.5v1.2Zm-6.9 0h-3.4v-1.2h3.4v1.2Zm-6.9 0h-3.4v-1.2H462v1.2Zm-6.8 0h-3.5v-1.2h3.5v1.2Zm-6.9 0h-3.5v-1.2h3.5v1.2Zm-6.9 0H438v-1.2h3.4v1.2Zm-6.9 0h-3.4v-1.2h3.4v1.2Zm-6.8 0h-2.9v-1.7h1.1v1.1h-.5v-.6h2.3v1.2Zm-2.9 -5.2v-3.4h1.1v3.4h-1.1Zm0 -6.9v-3.4h1.1v3.4h-1.1Zm0 -6.8v-3.5h1.1v3.5h-1.1Zm0 -6.9v-3.4h1.1v3.4h-1.1Zm0 -6.9v-3.4h1.1v3.4h-1.1Zm0 -6.9v-3.4h1.1v3.4h-1.1Zm0 -6.8v-3.5h1.1v3.5h-1.1Zm0 -6.9v-3.4h1.1V445h-1.1Zm0 -6.9v-3.4h1.1v3.4h-1.1Zm0 -6.9v-3.4h1.1v3.4h-1.1Zm0 -6.8v-3.5h1.1v3.5h-1.1Zm0 -6.9v-3.4h1.1v3.4h-1.1Zm0 -6.9v-3.4h1.1v3.4h-1.1Zm0 -6.9v-3.4h1.1v3.4h-1.1Zm0 -6.8v-3.5h1.1v3.5h-1.1Zm0 -6.9v-3.4h1.1V390h-1.1Zm0 -6.9v-3.4h1.1v3.4h-1.1Zm0 -6.9v-3.4h1.1v3.4h-1.1Zm0 -6.8v-3.5h1.1v3.5h-1.1Zm0 -6.9v-2.9h4v1.2h-3.4v-.6h.5v2.3h-1.1Z" class="g1_253"/>
<path d="M181.3 359.6h3.4v1.2h-3.4v-1.2Zm6.9 0h3.4v1.2h-3.4v-1.2Zm6.8 0h3.5v1.2H195v-1.2Zm6.9 0h3.5v1.2h-3.5v-1.2Zm6.9 0h3.4v1.2h-3.4v-1.2Zm6.9 0h3.4v1.2h-3.4v-1.2Zm6.8 0H226v1.2h-3.5v-1.2Zm6.9 0h3.5v1.2h-3.5v-1.2Zm6.9 0h3.4v1.2h-3.4v-1.2Zm6.9 0h3.4v1.2h-3.4v-1.2Zm6.8 0h3.5v1.2H250v-1.2Zm6.9 0h3.5v1.2h-3.5v-1.2Zm6.9 0h3.4v1.2h-3.4v-1.2Zm6.9 0h3.4v1.2h-3.4v-1.2Zm6.8 0H281v1.2h-3.5v-1.2Zm6.9 0h3.5v1.2h-3.5v-1.2Zm6.9 0h3.4v1.2h-3.4v-1.2Zm6.9 0h3.4v1.2h-3.4v-1.2Zm6.8 0h3.5v1.2H305v-1.2Zm6.9 0h3.5v1.2h-3.5v-1.2Zm6.9 0h3.4v1.2h-3.4v-1.2Zm6.9 0h3.4v1.2h-3.4v-1.2Zm6.8 0H336v1.2h-3.5v-1.2Zm6.9 0h3.5v1.2h-3.5v-1.2Zm6.9 0h3.4v1.2h-3.4v-1.2Zm6.9 0h3.4v1.2h-3.4v-1.2Zm6.8 0h3.5v1.2H360v-1.2Zm6.9 0h3.5v1.2h-3.5v-1.2Zm6.9 0h3.4v1.2h-3.4v-1.2Zm6.9 0h3.4v1.2h-3.4v-1.2Zm6.8 0H391v1.2h-3.5v-1.2Zm6.9 0h3.5v1.2h-3.5v-1.2Zm6.9 0h2.9v1.8H403v-1.2h.6v.6h-2.3v-1.2Zm2.9 5.2v3.4H403v-3.4h1.2Zm0 6.9v3.4H403v-3.4h1.2Zm0 6.8V382H403v-3.5h1.2Zm0 6.9v3.5H403v-3.5h1.2Zm0 6.9v3.4H403v-3.4h1.2Zm0 6.9v3.4H403v-3.4h1.2Zm0 6.8v3.5H403V406h1.2Zm0 6.9v3.5H403v-3.5h1.2Zm0 6.9v3.4H403v-3.4h1.2Zm0 6.9v3.4H403v-3.4h1.2Zm0 6.8V437H403v-3.5h1.2Zm0 6.9v3.5H403v-3.5h1.2Zm0 6.9v3.4H403v-3.4h1.2Zm0 6.9v3.4H403v-3.4h1.2Zm0 6.8v3.5H403V461h1.2Zm0 6.9v3.5H403v-3.5h1.2Zm0 6.9v3.4H403v-3.4h1.2Zm0 6.9v3.4H403v-3.4h1.2Zm0 6.8V492H403v-3.5h1.2Zm0 6.9v2.9h-1.8v-1.2h1.2v.6H403v-2.3h1.2Zm-5.2 2.9h-3.4v-1.2H399v1.2Zm-6.9 0h-3.4v-1.2h3.4v1.2Zm-6.8 0h-3.5v-1.2h3.5v1.2Zm-6.9 0h-3.5v-1.2h3.5v1.2Zm-6.9 0h-3.4v-1.2h3.4v1.2Zm-6.9 0h-3.4v-1.2h3.4v1.2Zm-6.8 0h-3.5v-1.2h3.5v1.2Zm-6.9 0h-3.5v-1.2h3.5v1.2Zm-6.9 0h-3.4v-1.2H344v1.2Zm-6.9 0h-3.4v-1.2h3.4v1.2Zm-6.8 0h-3.5v-1.2h3.5v1.2Zm-6.9 0h-3.5v-1.2h3.5v1.2Zm-6.9 0h-3.4v-1.2h3.4v1.2Zm-6.9 0h-3.4v-1.2h3.4v1.2Zm-6.8 0h-3.5v-1.2h3.5v1.2Zm-6.9 0h-3.5v-1.2h3.5v1.2Zm-6.9 0h-3.4v-1.2H289v1.2Zm-6.9 0h-3.4v-1.2h3.4v1.2Zm-6.8 0h-3.5v-1.2h3.5v1.2Zm-6.9 0h-3.5v-1.2h3.5v1.2Zm-6.9 0h-3.4v-1.2h3.4v1.2Zm-6.9 0h-3.4v-1.2h3.4v1.2Zm-6.8 0h-3.5v-1.2h3.5v1.2Zm-6.9 0h-3.5v-1.2h3.5v1.2Zm-6.9 0h-3.4v-1.2H234v1.2Zm-6.9 0h-3.4v-1.2h3.4v1.2Zm-6.8 0h-3.5v-1.2h3.5v1.2Zm-6.9 0h-3.5v-1.2h3.5v1.2Zm-6.9 0h-3.4v-1.2h3.4v1.2Zm-6.9 0h-3.4v-1.2h3.4v1.2Zm-6.8 0h-3.5v-1.2h3.5v1.2Zm-6.9 0h-3.5v-1.2h3.5v1.2Zm-6.9 0h-3.4v-1.2H179v1.2Zm-5.2 -2.9V492H175v3.4h-1.2Zm0 -6.9v-3.4H175v3.4h-1.2Zm0 -6.8v-3.5H175v3.5h-1.2Zm0 -6.9v-3.4H175v3.4h-1.2Zm0 -6.9v-3.4H175v3.4h-1.2Zm0 -6.9v-3.4H175V461h-1.2Zm0 -6.8v-3.5H175v3.5h-1.2Zm0 -6.9v-3.4H175v3.4h-1.2Zm0 -6.9V437H175v3.4h-1.2Zm0 -6.9v-3.4H175v3.4h-1.2Zm0 -6.8v-3.5H175v3.5h-1.2Zm0 -6.9v-3.4H175v3.4h-1.2Zm0 -6.9v-3.4H175v3.4h-1.2Zm0 -6.9v-3.4H175V406h-1.2Zm0 -6.8v-3.5H175v3.5h-1.2Zm0 -6.9v-3.4H175v3.4h-1.2Zm0 -6.9V382H175v3.4h-1.2Zm0 -6.9v-3.4H175v3.4h-1.2Zm0 -6.8v-3.5H175v3.5h-1.2Zm0 -6.9v-3.4H175v3.4h-1.2Zm.6 -5.2h3.5v1.2h-3.5v-1.2Z" class="g1_253"/>
<path d="M94.2 394.6H140v22.9H94.2V394.6Zm0 34.4H140v22.9H94.2V429Zm0 34.3H140v22.9H94.2V463.3ZM197.3 394.6h80.2v22.9H197.3V394.6Zm103.2 0h80.2v22.9H300.5V394.6Zm147.8 0h91.6v22.9H448.3V394.6ZM197.3 429h80.2v22.9H197.3V429Zm251 34.3h91.6v22.9H448.3V463.3ZM140 406h50" class="g2_253"/>
<path d="M196.1 406l-8.1 2.7l2 -2.7l-2 -2.6l8.1 2.6Z" class="g1_253"/>
<path d="M196.1 406l-8.1 2.7l2 -2.7l-2 -2.6l8.1 2.6Zm252.2 23h91.6v22.9H448.3V429ZM277.5 406h15.7" class="g2_253"/>
<path d="M299.2 406l-8 2.7l2 -2.7l-2 -2.6l8 2.6Z" class="g1_253"/>
<path d="M299.2 406l-8 2.7l2 -2.7l-2 -2.6l8 2.6Zm81.5 0H441" class="g2_253"/>
<path d="M447 406l-8 2.7l2 -2.7l-2 -2.6l8 2.6Z" class="g1_253"/>
<path d="M447 406l-8 2.7l2 -2.7l-2 -2.6l8 2.6ZM140 440.4h50" class="g2_253"/>
<path d="M196.1 440.4l-8.1 2.7l2 -2.7l-2 -2.7l8.1 2.7Z" class="g1_253"/>
<path d="M196.1 440.4l-8.1 2.7l2 -2.7l-2 -2.7l8.1 2.7Zm81.4 0H441" class="g2_253"/>
<path d="M447 440.4l-8 2.7l2 -2.7l-2 -2.7l8 2.7Z" class="g1_253"/>
<path d="M447 440.4l-8 2.7l2 -2.7l-2 -2.7l8 2.7ZM140 474.8H441" class="g2_253"/>
<path d="M447 474.8l-8 2.7l2 -2.7l-2 -2.7l8 2.7Z" class="g1_253"/>
<path d="M447 474.8l-8 2.7l2 -2.7l-2 -2.7l8 2.7Z" class="g2_253"/>
</g>
</svg>