<?xml version="1.0" encoding="UTF-8" standalone="no"?>
<!DOCTYPE svg PUBLIC "-//W3C//DTD SVG 1.1//EN"
"http://www.w3.org/Graphics/SVG/1.1/DTD/svg11.dtd">
<svg viewBox="0 0 714 1017" version="1.1" xmlns="http://www.w3.org/2000/svg" xmlns:xlink="http://www.w3.org/1999/xlink">
<defs>
<style type="text/css"><![CDATA[
.g0_165{
fill: #FFF;
}
.g1_165{
fill: none;
stroke: #000;
stroke-width: 1.217;
stroke-miterlimit: 10;
}
.g2_165{
fill: none;
stroke: #000;
stroke-width: 0.608;
stroke-miterlimit: 10;
}
]]></style>
</defs>
<path d="M0 1017.7H717.2V-3.7H0V1017.7Z" class="g0_165"/>
<path d="M67.1 313.9V279.5c0 -2.4 2 -4.4 4.4 -4.4h550c2.4 0 4.3 2 4.3 4.4v34.4c0 2.4 -1.9 4.3 -4.3 4.3H71.5c-2.4 0 -4.4 -1.9 -4.4 -4.3Z" class="g0_165"/>
<path d="M65 273v47.4" class="g1_165"/>
<path d="M67.1 763.5V698c0 -2.4 2 -4.3 4.4 -4.3h550c2.4 0 4.3 1.9 4.3 4.3v65.5c0 2.4 -1.9 4.3 -4.3 4.3H71.5c-2.4 0 -4.4 -1.9 -4.4 -4.3Z" class="g0_165"/>
<path d="M65 691.5V770" class="g1_165"/>
<path d="M65 867.2H174.6" class="g2_165"/>
</svg>