<?xml version="1.0" encoding="UTF-8" standalone="no"?>
<!DOCTYPE svg PUBLIC "-//W3C//DTD SVG 1.1//EN"
"http://www.w3.org/Graphics/SVG/1.1/DTD/svg11.dtd">
<svg viewBox="0 0 714 1017" version="1.1" xmlns="http://www.w3.org/2000/svg" xmlns:xlink="http://www.w3.org/1999/xlink">
<defs>
<clipPath id="c0_204"><path d="M125.9 883.3V653H609.5V883.3Z"/></clipPath>
<clipPath id="c1_204"><path d="M125.9 883.6V652.9H611.8V883.6Z"/></clipPath>
<style type="text/css"><![CDATA[
.g0_204{
fill: #FFF;
}
.g1_204{
fill: none;
stroke: #000;
stroke-width: 1.156;
stroke-miterlimit: 10;
}
.g2_204{
fill: none;
stroke: #000;
stroke-width: 0.76;
stroke-miterlimit: 10;
}
.g3_204{
fill: none;
stroke: #000;
stroke-width: 1.145;
stroke-miterlimit: 10;
}
.g4_204{
fill: none;
stroke: #000;
stroke-width: 2.291;
stroke-miterlimit: 10;
}
.g5_204{
fill: #000;
}
.g6_204{
fill: none;
stroke: #000;
stroke-width: 1.217;
stroke-miterlimit: 10;
}
]]></style>
</defs>
<path d="M0 1017.7H717.2V-3.7H0V1017.7Z" class="g0_204"/>
<path d="M86.6 121H628.9" class="g1_204"/>
<path d="M86.6 147.7H628.9" class="g2_204"/>
<path d="M86.6 174.4H628.9" class="g6_204"/>
<g clip-path="url(#c1_204)">
<path clip-path="url(#c0_204)" d="M125.9 653H609.5V883.3H125.9V653Z" class="g0_204"/>
<path d="M127.9 653.6H241.4v57.3H127.9V653.6Z" class="g3_204"/>
<path d="M126.5 795.7c0 -2.6 25.7 -4.6 57.3 -4.6c15.2 0 29.8 .5 40.5 1.3c10.7 .9 16.8 2 16.8 3.3v82.5c0 2.5 -25.7 4.5 -57.3 4.5c-31.6 0 -57.3 -2 -57.3 -4.5V795.7Z" class="g0_204"/>
<path d="M126.5 795.7c0 -2.6 25.7 -4.6 57.3 -4.6c15.2 0 29.8 .5 40.5 1.3c10.7 .9 16.8 2 16.8 3.3v82.5c0 2.5 -25.7 4.5 -57.3 4.5c-31.6 0 -57.3 -2 -57.3 -4.5V795.7Zm114.6 0c0 2.5 -25.7 4.5 -57.3 4.5c-31.6 0 -57.3 -2 -57.3 -4.5" class="g3_204"/>
<path d="M184.7 710.9l-.9 93.6" class="g4_204"/>
<path d="M183.7 811.4l-2.9 -9.2l3 2.3l3.1 -2.2l-3.2 9.1Z" class="g5_204"/>
<path d="M183.7 811.4l-2.9 -9.2l3 2.3l3.1 -2.2l-3.2 9.1Z" class="g4_204"/>
<path d="M171.2 754.4h26.3v17.2H171.2V754.4Z" class="g0_204"/>
<path d="M201.6 865.5c0 .2 -.2 .3 -.5 .5c-.3 .1 -.8 .2 -1.4 .3c-.6 .1 -1.3 .2 -2 .3c-.8 0 -1.6 .1 -2.4 .1c-.9 0 -1.7 -.1 -2.5 -.1c-.7 -.1 -1.4 -.2 -2 -.3c-.6 -.1 -1.1 -.2 -1.4 -.3c-.3 -.2 -.5 -.3 -.5 -.5c0 -.1 .2 -.3 .5 -.4c.3 -.1 .8 -.3 1.4 -.4c.6 -.1 1.3 -.2 2 -.2c.8 -.1 1.6 -.1 2.5 -.1c.8 0 1.6 0 2.4 .1c.7 0 1.4 .1 2 .2c.6 .1 1.1 .3 1.4 .4c.3 .1 .5 .3 .5 .4Z" class="g0_204"/>
<path d="M137.9 836.9V814h91.7v22.9Z" class="g0_204"/>
<path d="M137.9 836.9V814h91.7v22.9m-91.7 0v34.4h91.7V836.9m-91.7 0h91.7m-91.7 11.5h91.7m-91.7 11.4h91.7M167.7 836.9v34.4m32.1 -34.4v34.4M310.7 653.6H424.1v34.3H310.7V653.6Z" class="g3_204"/>
<path d="M309.8 715.4c0 -2.5 25.7 -4.5 57.3 -4.5c15.2 0 29.8 .4 40.5 1.3c10.8 .9 16.8 2 16.8 3.2V878.2c0 2.5 -25.6 4.5 -57.3 4.5c-31.6 0 -57.3 -2 -57.3 -4.5V715.4Z" class="g0_204"/>
<path d="M309.8 715.4c0 -2.5 25.7 -4.5 57.3 -4.5c15.2 0 29.8 .4 40.5 1.3c10.8 .9 16.8 2 16.8 3.2V878.2c0 2.5 -25.6 4.5 -57.3 4.5c-31.6 0 -57.3 -2 -57.3 -4.5V715.4Zm114.6 0c0 2.6 -25.6 4.6 -57.3 4.6c-31.6 0 -57.3 -2 -57.3 -4.6" class="g3_204"/>
<path d="M367.4 687.9l-.2 47.9" class="g4_204"/>
<path d="M367.1 742.7l-3 -9.2l3.1 2.3l3 -2.3l-3.1 9.2Z" class="g5_204"/>
<path d="M367.1 742.7l-3 -9.2l3.1 2.3l3 -2.3l-3.1 9.2Z" class="g4_204"/>
<path d="M373.4 865.5c0 .2 -.1 .3 -.5 .5c-.3 .1 -.7 .2 -1.3 .3c-.6 .1 -1.3 .2 -2.1 .3c-.7 0 -1.5 .1 -2.4 .1c-.8 0 -1.6 -.1 -2.4 -.1c-.8 -.1 -1.4 -.2 -2 -.3c-.6 -.1 -1.1 -.2 -1.4 -.3c-.3 -.2 -.5 -.3 -.5 -.5c0 -.1 .2 -.3 .5 -.4c.3 -.1 .8 -.3 1.4 -.4c.6 -.1 1.2 -.2 2 -.2c.8 -.1 1.6 -.1 2.4 -.1c.9 0 1.7 0 2.4 .1c.8 0 1.5 .1 2.1 .2c.6 .1 1 .3 1.3 .4c.4 .1 .5 .3 .5 .4Z" class="g0_204"/>
<path d="M321.2 836.9V814h91.7v22.9Z" class="g0_204"/>
<path d="M321.2 836.9V814h91.7v22.9m-91.7 0v34.4h91.7V836.9m-91.7 0h91.7m-91.7 11.5h91.7m-91.7 11.4h91.7M352.2 836.9v34.4M382 836.9v34.4" class="g3_204"/>
<path d="M321.3 745.2H413v34.4H321.3V745.2Z" class="g0_204"/>
<path d="M321.3 745.2H413v34.4H321.3V745.2Zm9.2 0v34.4m73.3 -34.4v34.4" class="g3_204"/>
<path d="M367.1 789.1v15.4" class="g4_204"/>
<path d="M367.1 782.2l3.1 9.1l-3.1 -2.2l-3.1 2.2l3.1 -9.1Z" class="g5_204"/>
<path d="M367.1 782.2l3.1 9.1l-3.1 -2.2l-3.1 2.2l3.1 -9.1Z" class="g4_204"/>
<path d="M367.1 811.4L364 802.3l3.1 2.2l3 -2.2l-3 9.1Z" class="g5_204"/>
<path d="M367.1 811.4L364 802.3l3.1 2.2l3 -2.2l-3 9.1Z" class="g4_204"/>
<path d="M493.6 653.6H607.9v34.3H493.6V653.6Z" class="g3_204"/>
<path d="M493.3 795.7c0 -2.6 25.7 -4.6 57.3 -4.6c15.2 0 29.8 .5 40.5 1.3c10.8 .9 16.8 2 16.8 3.3v82.5c0 2.5 -25.7 4.5 -57.3 4.5c-31.6 0 -57.3 -2 -57.3 -4.5V795.7Z" class="g0_204"/>
<path d="M493.3 795.7c0 -2.6 25.7 -4.6 57.3 -4.6c15.2 0 29.8 .5 40.5 1.3c10.8 .9 16.8 2 16.8 3.3v82.5c0 2.5 -25.7 4.5 -57.3 4.5c-31.6 0 -57.3 -2 -57.3 -4.5V795.7Zm114.6 0c0 2.5 -25.7 4.5 -57.3 4.5c-31.6 0 -57.3 -2 -57.3 -4.5" class="g3_204"/>
<path d="M550.8 687.9l-.1 30.7" class="g4_204"/>
<path d="M550.7 725.5l-3.1 -9.2l3.1 2.3l3 -2.3l-3 9.2Z" class="g5_204"/>
<path d="M550.7 725.5l-3.1 -9.2l3.1 2.3l3 -2.3l-3 9.2Z" class="g4_204"/>
<path d="M540.1 692.5h21.8v17.2H540.1V692.5Z" class="g0_204"/>
<path d="M556.9 865.5c0 .2 -.2 .3 -.5 .5c-.3 .1 -.7 .2 -1.3 .3c-.6 .1 -1.3 .2 -2.1 .3c-.8 0 -1.6 .1 -2.4 .1c-.8 0 -1.6 -.1 -2.4 -.1c-.8 -.1 -1.5 -.2 -2 -.3c-.6 -.1 -1.1 -.2 -1.4 -.3c-.3 -.2 -.5 -.3 -.5 -.5c0 -.1 .2 -.3 .5 -.4c.3 -.1 .8 -.3 1.4 -.4c.5 -.1 1.2 -.2 2 -.2c.8 -.1 1.6 -.1 2.4 -.1c.8 0 1.6 0 2.4 .1c.8 0 1.5 .1 2.1 .2c.6 .1 1 .3 1.3 .4c.3 .1 .5 .3 .5 .4Z" class="g0_204"/>
<path d="M504.7 836.9V814h91.7v22.9Z" class="g0_204"/>
<path d="M504.7 836.9V814h91.7v22.9m-91.7 0v34.4h91.7V836.9m-91.7 0h91.7m-91.7 11.5h91.7m-91.7 11.4h91.7M535.6 836.9v34.4m29.8 -34.4v34.4M493.5 728.1H607.7v34.3H493.5V728.1Z" class="g3_204"/>
<path d="M550.6 771.9l-.1 32.6" class="g4_204"/>
<path d="M550.6 765l3 9.2l-3 -2.3l-3.1 2.2l3.1 -9.1Z" class="g5_204"/>
<path d="M550.6 765l3 9.2l-3 -2.3l-3.1 2.2l3.1 -9.1Z" class="g4_204"/>
<path d="M550.5 811.4l-3 -9.1l3 2.2l3.1 -2.2l-3.1 9.1Z" class="g5_204"/>
<path d="M550.5 811.4l-3 -9.1l3 2.2l3.1 -2.2l-3.1 9.1Z" class="g4_204"/>
<path d="M537.9 777.3h26.3v17.2H537.9V777.3Z" class="g0_204"/>
</g>
</svg>