<?xml version="1.0" encoding="UTF-8" standalone="no"?>
<!DOCTYPE svg PUBLIC "-//W3C//DTD SVG 1.1//EN"
"http://www.w3.org/Graphics/SVG/1.1/DTD/svg11.dtd">
<svg viewBox="0 0 714 1017" version="1.1" xmlns="http://www.w3.org/2000/svg" xmlns:xlink="http://www.w3.org/1999/xlink">
<defs>
<clipPath id="c0_283"><path d="M117.3 532V286H575.6V532Z"/></clipPath>
<clipPath id="c1_283"><path d="M117.3 532V284.5H575.6V532Z"/></clipPath>
<style type="text/css"><![CDATA[
.g0_283{
fill: #FFF;
}
.g1_283{
fill: none;
stroke: #000;
stroke-width: 1.145;
stroke-miterlimit: 10;
}
.g2_283{
fill: none;
stroke: #000;
stroke-width: 2.291;
stroke-miterlimit: 10;
}
.g3_283{
fill: #000;
}
]]></style>
</defs>
<path d="M0 1017.7H717.2V-3.7H0V1017.7Z" class="g0_283"/>
<g clip-path="url(#c1_283)">
<path clip-path="url(#c0_283)" d="M117.3 286H575.6V532.4H117.3V286Z" class="g0_283"/>
<path d="M344.8 406.9l-.1 -74.5m-34.2 91.7H117.9m330 66.4c0 -1.9 7.7 -3.4 17.2 -3.4c4.5 0 8.9 .4 12.1 1c3.2 .6 5 1.5 5 2.4v16.1c0 1.9 -7.7 3.4 -17.1 3.4c-9.5 0 -17.2 -1.5 -17.2 -3.4V490.5Zm34.3 0c0 1.9 -7.7 3.5 -17.1 3.5c-9.5 0 -17.2 -1.6 -17.2 -3.5M332.1 381.7c1.9 0 3.5 5.1 3.5 11.4c0 3.1 -.4 6 -1 8.1c-.7 2.2 -1.5 3.4 -2.5 3.4H293.2c-1.9 0 -3.5 -5.1 -3.5 -11.5c0 -6.3 1.6 -11.4 3.5 -11.4h38.9Zm0 22.9c-1.9 0 -3.4 -5.1 -3.4 -11.5c0 -6.3 1.5 -11.4 3.4 -11.4m0 61.9c1.9 0 3.5 5.1 3.5 11.4c0 3.1 -.4 6 -1 8.1c-.7 2.2 -1.5 3.4 -2.5 3.4H293.2c-1.9 0 -3.5 -5.2 -3.5 -11.5c0 -6.3 1.6 -11.4 3.5 -11.4h38.9Zm0 22.9c-1.9 0 -3.4 -5.2 -3.4 -11.5c0 -6.3 1.5 -11.4 3.4 -11.4m68.8 -61.9c1.9 0 3.4 5.1 3.4 11.4c0 3.1 -.3 6 -1 8.1c-.6 2.2 -1.5 3.4 -2.4 3.4h-39c-1.9 0 -3.4 -5.1 -3.4 -11.5c0 -6.3 1.5 -11.4 3.4 -11.4h39Zm0 22.9c-1.9 0 -3.5 -5.1 -3.5 -11.5c0 -6.3 1.6 -11.4 3.5 -11.4m0 61.9c1.9 0 3.4 5.1 3.4 11.4c0 3.1 -.3 6 -1 8.1c-.6 2.2 -1.5 3.4 -2.4 3.4h-39c-1.9 0 -3.4 -5.2 -3.4 -11.5c0 -6.3 1.5 -11.4 3.4 -11.4h39Zm0 22.9c-1.9 0 -3.5 -5.2 -3.5 -11.5c0 -6.3 1.6 -11.4 3.5 -11.4m-56.2 72.1l.1 -74.4" class="g1_283"/>
<path d="M323.9 406.9h41.9c.9 0 1.8 .1 2.6 .2c.9 .2 1.7 .5 2.5 .8c.8 .3 1.6 .8 2.3 1.3c.8 .4 1.5 1 2.1 1.6c.6 .6 1.2 1.3 1.6 2c.5 .8 .9 1.6 1.3 2.4c.3 .8 .6 1.6 .7 2.5c.2 .8 .3 1.7 .3 2.6v7.6c0 .8 -.1 1.7 -.3 2.6c-.1 .8 -.4 1.7 -.7 2.5c-.4 .8 -.8 1.6 -1.3 2.3c-.4 .7 -1 1.4 -1.6 2c-.6 .7 -1.3 1.2 -2.1 1.7c-.7 .5 -1.5 .9 -2.3 1.2c-.8 .4 -1.6 .6 -2.5 .8c-.8 .2 -1.7 .3 -2.6 .3H323.9c-.9 0 -1.8 -.1 -2.7 -.3c-.8 -.2 -1.7 -.4 -2.5 -.8c-.8 -.3 -1.6 -.7 -2.3 -1.2c-.7 -.5 -1.4 -1 -2 -1.7c-.6 -.6 -1.2 -1.3 -1.7 -2c-.5 -.7 -.9 -1.5 -1.2 -2.3c-.4 -.8 -.6 -1.7 -.8 -2.5c-.2 -.9 -.2 -1.8 -.2 -2.6v-7.6c0 -.9 0 -1.8 .2 -2.6c.2 -.9 .4 -1.7 .8 -2.5c.3 -.8 .7 -1.6 1.2 -2.4c.5 -.7 1.1 -1.4 1.7 -2c.6 -.6 1.3 -1.2 2 -1.6c.7 -.5 1.5 -1 2.3 -1.3c.8 -.3 1.7 -.6 2.5 -.8c.9 -.1 1.8 -.2 2.7 -.2Z" class="g0_283"/>
<path d="M573.9 424.1H379.2" class="g1_283"/>
<path d="M302.9 443.6v-39m31.7 58.6h24.9M334.6 385h24.9m31.6 58.6v-39" class="g2_283"/>
<path d="M493.7 490.5c0 -1.9 7.7 -3.4 17.2 -3.4c4.5 0 8.9 .4 12.1 1c3.3 .6 5.1 1.5 5.1 2.4v16.1c0 1.9 -7.7 3.4 -17.2 3.4c-9.5 0 -17.2 -1.5 -17.2 -3.4V490.5Zm34.4 0c0 1.9 -7.7 3.5 -17.2 3.5c-9.5 0 -17.2 -1.6 -17.2 -3.5m45.8 0c0 -1.9 7.7 -3.4 17.2 -3.4c4.6 0 8.9 .4 12.2 1c3.2 .6 5 1.5 5 2.4v16.1c0 1.9 -7.7 3.4 -17.2 3.4c-9.5 0 -17.2 -1.5 -17.2 -3.4V490.5Zm34.4 0c0 1.9 -7.7 3.5 -17.2 3.5c-9.5 0 -17.2 -1.6 -17.2 -3.5m-421.6 0c0 -1.9 7.7 -3.4 17.2 -3.4c4.5 0 8.9 .4 12.1 1c3.2 .6 5 1.5 5 2.4v16.1c0 1.9 -7.7 3.4 -17.1 3.4c-9.5 0 -17.2 -1.5 -17.2 -3.4V490.5Zm34.3 0c0 1.9 -7.7 3.5 -17.1 3.5c-9.5 0 -17.2 -1.6 -17.2 -3.5m45.8 0c0 -1.9 7.7 -3.4 17.2 -3.4c4.5 0 8.9 .4 12.1 1c3.3 .6 5.1 1.5 5.1 2.4v16.1c0 1.9 -7.7 3.4 -17.2 3.4c-9.5 0 -17.2 -1.5 -17.2 -3.4V490.5Zm34.4 0c0 1.9 -7.7 3.5 -17.2 3.5c-9.5 0 -17.2 -1.6 -17.2 -3.5m45.8 0c0 -1.9 7.7 -3.4 17.2 -3.4c4.6 0 8.9 .4 12.2 1c3.2 .6 5 1.5 5 2.4v16.1c0 1.9 -7.7 3.4 -17.2 3.4c-9.5 0 -17.2 -1.5 -17.2 -3.4V490.5Zm34.4 0c0 1.9 -7.7 3.5 -17.2 3.5c-9.5 0 -17.2 -1.6 -17.2 -3.5M117.9 335.8c0 -1.9 7.7 -3.4 17.2 -3.4c4.5 0 8.9 .4 12.1 1c3.2 .7 5 1.5 5 2.4v16.1c0 1.9 -7.7 3.4 -17.1 3.4c-9.5 0 -17.2 -1.5 -17.2 -3.4V335.8Zm34.3 0c0 2 -7.7 3.5 -17.1 3.5c-9.5 0 -17.2 -1.5 -17.2 -3.5m45.8 0c0 -1.9 7.7 -3.4 17.2 -3.4c4.5 0 8.9 .4 12.1 1c3.3 .7 5.1 1.5 5.1 2.4v16.1c0 1.9 -7.7 3.4 -17.2 3.4c-9.5 0 -17.2 -1.5 -17.2 -3.4V335.8Zm34.4 0c0 2 -7.7 3.5 -17.2 3.5c-9.5 0 -17.2 -1.5 -17.2 -3.5m45.8 0c0 -1.9 7.7 -3.4 17.2 -3.4c4.6 0 8.9 .4 12.2 1c3.2 .7 5 1.5 5 2.4v16.1c0 1.9 -7.7 3.4 -17.2 3.4c-9.5 0 -17.2 -1.5 -17.2 -3.4V335.8Zm34.4 0c0 2 -7.7 3.5 -17.2 3.5c-9.5 0 -17.2 -1.5 -17.2 -3.5m238.4 0c0 -1.9 7.7 -3.4 17.2 -3.4c4.5 0 8.9 .4 12.1 1c3.2 .7 5 1.5 5 2.4v16.1c0 1.9 -7.7 3.4 -17.1 3.4c-9.5 0 -17.2 -1.5 -17.2 -3.4V335.8Zm34.3 0c0 2 -7.7 3.5 -17.1 3.5c-9.5 0 -17.2 -1.5 -17.2 -3.5m45.8 0c0 -1.9 7.7 -3.4 17.2 -3.4c4.5 0 8.9 .4 12.1 1c3.3 .7 5.1 1.5 5.1 2.4v16.1c0 1.9 -7.7 3.4 -17.2 3.4c-9.5 0 -17.2 -1.5 -17.2 -3.4V335.8Zm34.4 0c0 2 -7.7 3.5 -17.2 3.5c-9.5 0 -17.2 -1.5 -17.2 -3.5m45.8 0c0 -1.9 7.7 -3.4 17.2 -3.4c4.6 0 8.9 .4 12.2 1c3.2 .7 5 1.5 5 2.4v16.1c0 1.9 -7.7 3.4 -17.2 3.4c-9.5 0 -17.2 -1.5 -17.2 -3.4V335.8Zm34.4 0c0 2 -7.7 3.5 -17.2 3.5c-9.5 0 -17.2 -1.5 -17.2 -3.5" class="g1_283"/>
<path d="M312.1 320c-9.3 0 -16.9 -7.5 -16.9 -16.8c0 -9.3 7.6 -16.9 16.9 -16.9c9.3 0 16.8 7.6 16.8 16.9c0 9.3 -7.5 16.8 -16.8 16.8Zm10.4 -5.6c-.9 -.6 -1.9 -.8 -3.3 -1.2c-1.7 -.4 -3.9 -.7 -3.7 -2.6c-1.3 1.2 -3.5 1.6 -5.2 .9c-.6 -.2 -1 -.7 -1.4 -.7c.1 1.9 -2.1 2.1 -3.7 2.4c-1.5 .4 -2.5 .7 -3.4 1.3c2.7 2.4 6.3 4 10.3 4c4 0 7.6 -1.6 10.4 -4.1Zm-9.3 -20.7c-5.1 -.4 -7.6 3.1 -6.9 8.2c-.2 .1 -.5 .1 -.5 .4c0 1.5 .3 2.8 1.4 3.2c.6 2.5 2.4 5.5 5.5 5.1c2.6 -.3 4 -2.8 4.6 -5.1c1 -.5 1.4 -1.9 1.3 -3.3c0 -.3 -.4 -.1 -.5 -.3c.9 -4 -1.4 -7.9 -4.9 -8.2Zm-1.1 -5.8c-8.4 0 -15.3 6.9 -15.3 15.3c0 4 1.5 7.6 4 10.3c.3 -.2 .6 -.5 1 -.6c1.6 -.9 3.7 -.8 5.7 -1.8c0 -.6 0 -1.1 0 -1.7c-.8 -.7 -.9 -1.9 -1.5 -2.9c-.3 -.6 -.8 -1 -1.1 -1.6c-.3 -.7 -.6 -1.6 -.5 -2.6c.1 -.5 .4 -.8 .5 -1.3c0 -.6 -.1 -1.3 0 -1.9c.3 -3.5 2.9 -6.3 6.3 -6.7c.7 0 1.4 0 2.1 0c3.6 .6 6.1 3.2 6.3 7.2c.1 .4 -.1 1 0 1.5c0 .5 .4 .9 .5 1.4c0 1.6 -.7 3 -1.7 4c-.3 1.2 -.9 2 -1.4 2.9c0 .5 0 1.1 0 1.7c1.6 1 3.9 .9 5.5 1.7c.4 .2 .7 .4 .9 .6c2.5 -2.7 4 -6.3 4 -10.2c0 -8.4 -6.9 -15.3 -15.3 -15.3Z" class="g3_283"/>
<path d="M312.7 321v51.2" class="g2_283"/>
<path d="M312.7 379.1l-3.1 -9.2l3.1 2.3l3 -2.3l-3 9.2Z" class="g3_283"/>
<path d="M312.7 379.1l-3.1 -9.2l3.1 2.3l3 -2.3l-3 9.2ZM404.3 455h141c7.6 0 11.4 3.8 11.4 11.3v11.4" class="g2_283"/>
<path d="M556.7 484.5l-3 -9.1l3 2.3l3.1 -2.3l-3.1 9.1Z" class="g3_283"/>
<path d="M556.7 484.5l-3 -9.1l3 2.3l3.1 -2.3l-3.1 9.1Z" class="g2_283"/>
<path d="M404.3 392h2.3v2.3h-2.3V392Zm4.6 0h2.3v2.3h-2.3V392Zm4.6 0h2.3v2.3h-2.3V392Zm4.6 0h2.3v2.3h-2.3V392Zm4.6 0h2.2v2.3h-2.2V392Zm4.5 0h2.3v2.3h-2.3V392Zm4.6 0h2.3v2.3h-2.3V392Zm4.6 0h2.3v2.3h-2.3V392Zm4.6 0h2.3v2.3H441V392Zm4.6 0h2.3v2.3h-2.3V392Zm4.6 0h2.2v2.3h-2.2V392Zm4.6 0c.7 -.1 1.5 -.2 2.1 -.3l.5 2.2c-.8 .2 -1.6 .3 -2.5 .3l-.1 -2.2Zm4 -.9c.7 -.2 1.3 -.6 1.8 -1L462 392c-.7 .5 -1.5 .9 -2.3 1.2l-.9 -2.1Zm3.2 -2.3c.4 -.5 .7 -1.1 1 -1.7l2.1 .9c-.4 .8 -.8 1.5 -1.3 2.2L462 388.8Zm1.6 -3.7c.1 -.6 .2 -1.3 .3 -2.1l2.2 .2c0 .8 -.1 1.7 -.3 2.4l-2.2 -.5Zm.3 -4.4v-2.3h2.3v2.3h-2.3Zm0 -4.6v-2.3h2.3v2.3h-2.3Zm0 -4.6v-2.3h2.3v2.3h-2.3Zm0 -4.6v-2.1h2.3v2.1h-2.3Z" class="g3_283"/>
<path d="M465.1 357.9l3 9.2l-3 -2.3l-3.1 2.3l3.1 -9.2Z" class="g3_283"/>
<path d="M465.1 357.9l3 9.2l-3 -2.3l-3.1 2.3l3.1 -9.2Z" class="g2_283"/>
<path d="M289.7 456.2h-2.3v-2.3h2.3v2.3Zm-4.5 0h-2.3v-2.3h2.3v2.3Zm-4.6 0h-2.3v-2.3h2.3v2.3Zm-4.6 0h-2.3v-2.3H276v2.3Zm-4.6 0h-2.3v-2.3h2.3v2.3Zm-4.6 0h-2.3v-2.3h2.3v2.3Zm-4.6 0h-2.3v-2.3h2.3v2.3Zm-4.5 0h-2.3v-2.3h2.3v2.3Zm-4.6 0h-2.3v-2.3h2.3v2.3Zm-4.6 0h-2.3v-2.3h2.3v2.3Zm-4.6 0h-2.3v-2.3h2.3v2.3Zm-4.6 0h-1.1c-.4 0 -.8 0 -1.2 0l-.2 -2.3c.5 0 .9 0 1.4 0h1.1v2.3Zm-4.5 .3c-.7 .1 -1.3 .3 -1.9 .5l-.8 -2.1c.7 -.3 1.5 -.5 2.3 -.7l.4 2.3Zm-3.6 1.5c-.6 .4 -1 .8 -1.4 1.3L228 457.9c.5 -.6 1.1 -1.2 1.8 -1.7l1.4 1.8Zm-2.4 3.1c-.3 .6 -.5 1.2 -.6 1.9l-2.3 -.5c.2 -.8 .5 -1.6 .8 -2.3l2.1 .9Zm-.9 4c0 .4 0 .8 0 1.2v1.1h-2.3v-1.1c0 -.4 0 -.9 0 -1.3l2.3 .1Zm0 4.6V472h-2.3v-2.3h2.3Zm0 4.6v2.3h-2.3v-2.3h2.3Z" class="g3_283"/>
<path d="M226.7 484.5l-3 -9.1l3 2.3l3.1 -2.3l-3.1 9.1Z" class="g3_283"/>
<path d="M226.7 484.5l-3 -9.1l3 2.3l3.1 -2.3l-3.1 9.1Z" class="g2_283"/>
<path d="M289.7 394.3h-2.3V392h2.3v2.3Zm-4.5 0h-2.3V392h2.3v2.3Zm-4.6 0h-2.3V392h2.3v2.3Zm-4.6 0h-2.3V392H276v2.3Zm-4.6 0h-2.3V392h2.3v2.3Zm-4.6 0h-2.3V392h2.3v2.3Zm-4.6 0h-2.3V392h2.3v2.3Zm-4.5 0h-2.3V392h2.3v2.3Zm-4.6 0h-2.3V392h2.3v2.3Zm-4.6 0h-2.3V392h2.3v2.3Zm-4.6 0h-2.3V392h2.3v2.3Zm-4.6 0H237V392h2.3v2.3Zm-4.6 0h-2.3V392h2.3v2.3Zm-4.5 0h-2.3V392h2.3v2.3Zm-4.6 0h-2.3V392h2.3v2.3Zm-4.6 0h-2.3V392H221v2.3Zm-4.6 0h-2.3V392h2.3v2.3Zm-4.6 0h-2.3V392h2.3v2.3Zm-4.6 0h-2.3V392h2.3v2.3Zm-4.5 0h-2.3V392h2.3v2.3Zm-4.6 0h-2.3V392h2.3v2.3Zm-4.6 0h-1.2c-.4 0 -.9 0 -1.3 -.1l.2 -2.2c.3 0 .7 0 1.1 0h1.2v2.3Zm-4.9 -.4c-.9 -.1 -1.7 -.4 -2.4 -.7l.9 -2.1c.6 .3 1.2 .4 1.9 .6l-.4 2.2ZM184 392c-.7 -.5 -1.3 -1.1 -1.8 -1.8l1.8 -1.4c.4 .5 .8 .9 1.3 1.3L184 392Zm-3.1 -4c-.4 -.8 -.6 -1.5 -.8 -2.4l2.3 -.5c.1 .7 .3 1.4 .6 2l-2.1 .9Zm-1.1 -4.8c0 -.5 -.1 -1 -.1 -1.5v-1H182v1c0 .4 0 .9 .1 1.3l-2.3 .2Zm-.1 -4.8v-2.3H182v2.3h-2.3Zm0 -4.6v-2.3H182v2.3h-2.3Zm0 -4.6v-2.3H182v2.3h-2.3Z" class="g3_283"/>
<path d="M180.9 357.9l3 9.2l-3 -2.3l-3.1 2.3l3.1 -9.2Z" class="g3_283"/>
<path d="M180.9 357.9l3 9.2l-3 -2.3l-3.1 2.3l3.1 -9.2Z" class="g2_283"/>
</g>
</svg>