<?xml version="1.0" encoding="UTF-8" standalone="no"?>
<!DOCTYPE svg PUBLIC "-//W3C//DTD SVG 1.1//EN"
"http://www.w3.org/Graphics/SVG/1.1/DTD/svg11.dtd">
<svg viewBox="0 0 714 1017" version="1.1" xmlns="http://www.w3.org/2000/svg" xmlns:xlink="http://www.w3.org/1999/xlink">
<defs>
<clipPath id="c0_298"><path d="M195.4 248.1v-139H542.2v139Z"/></clipPath>
<style type="text/css"><![CDATA[
.g0_298{
fill: #FFF;
}
.g1_298{
fill: none;
stroke: #000;
stroke-width: 1.145;
stroke-miterlimit: 10;
}
.g2_298{
fill: #000;
}
.g3_298{
fill: none;
stroke: #000;
stroke-width: 2.291;
stroke-miterlimit: 10;
}
]]></style>
</defs>
<path d="M0 1017.7H717.2V-3.7H0V1017.7Z" class="g0_298"/>
<g clip-path="url(#c0_298)">
<path d="M195.4 109.2H540.3V247.8H195.4V109.2Z" class="g0_298"/>
<path d="M196 207c0 -3.1 15.4 -5.6 34.4 -5.6c9.1 0 17.8 .6 24.3 1.7c6.4 1 10 2.4 10 3.9v34.6c0 3.1 -15.4 5.6 -34.3 5.6c-9.2 0 -17.9 -.5 -24.3 -1.6c-6.5 -1 -10.1 -2.5 -10.1 -4V207Zm68.7 0c0 3.1 -15.4 5.6 -34.3 5.6c-9.2 0 -17.9 -.6 -24.3 -1.6C199.6 209.9 196 208.5 196 207M333.5 172.7c0 -3.1 15.4 -5.7 34.4 -5.7c9.1 0 17.8 .6 24.3 1.7c6.4 1 10 2.5 10 4v34.6c0 3.1 -15.4 5.6 -34.3 5.6c-9.2 0 -17.9 -.6 -24.3 -1.7c-6.5 -1 -10.1 -2.5 -10.1 -3.9V172.7Zm68.7 0c0 3 -15.4 5.6 -34.3 5.6c-9.2 0 -17.9 -.6 -24.3 -1.7c-6.5 -1 -10.1 -2.5 -10.1 -3.9M471 207c0 -3.1 15.4 -5.6 34.4 -5.6c9.1 0 17.8 .6 24.3 1.7c6.4 1 10 2.4 10 3.9v34.6c0 3.1 -15.4 5.6 -34.3 5.6c-9.2 0 -17.9 -.5 -24.3 -1.6c-6.5 -1 -10.1 -2.5 -10.1 -4V207Zm68.7 0c0 3.1 -15.4 5.6 -34.3 5.6c-9.2 0 -17.9 -.6 -24.3 -1.6C474.6 209.9 471 208.5 471 207" class="g1_298"/>
<path d="M322 109.7h91.7v34.4H322V109.7Z" class="g0_298"/>
<path d="M322 109.7h91.7v34.4H322V109.7Zm22.9 34.4v5.8c0 3.8 -3.8 5.7 -11.4 5.7H241.8c-7.6 0 -11.4 3.8 -11.4 11.4v27.1" class="g1_298"/>
<path d="M230.4 200.1l-2.7 -8l2.7 2l2.6 -2l-2.6 8Z" class="g2_298"/>
<path d="M230.4 200.1l-2.7 -8l2.7 2l2.6 -2l-2.6 8Zm160.4 -56v5.8c0 3.8 3.8 5.7 11.4 5.7h91.7c7.6 0 11.5 3.8 11.5 11.4v27.1" class="g1_298"/>
<path d="M505.4 200.1l-2.7 -8l2.7 2l2.6 -2l-2.6 8Z" class="g2_298"/>
<path d="M505.4 200.1l-2.7 -8l2.7 2l2.6 -2l-2.6 8Zm-137.5 -56v15.6" class="g1_298"/>
<path d="M367.9 165.8l-2.7 -8.1l2.7 2l2.6 -2l-2.6 8.1Z" class="g2_298"/>
<path d="M367.9 165.8l-2.7 -8.1l2.7 2l2.6 -2l-2.6 8.1Z" class="g1_298"/>
<path d="M273.6 212.4l51 -19.1" class="g3_298"/>
<path d="M267.1 214.8l7.5 -6.1l-1 3.7l3.2 2l-9.7 .4Z" class="g2_298"/>
<path d="M267.1 214.8l7.5 -6.1l-1 3.7l3.2 2l-9.7 .4Z" class="g3_298"/>
<path d="M331.1 190.9l-7.5 6l1 -3.6l-3.2 -2.1l9.7 -.3Z" class="g2_298"/>
<path d="M331.1 190.9l-7.5 6l1 -3.6l-3.2 -2.1l9.7 -.3ZM274.2 233H461.5" class="g3_298"/>
<path d="M267.3 233l9.2 -3.1l-2.3 3.1l2.3 3l-9.2 -3Z" class="g2_298"/>
<path d="M267.3 233l9.2 -3.1l-2.3 3.1l2.3 3l-9.2 -3Z" class="g3_298"/>
<path d="M468.4 233l-9.1 3l2.2 -3l-2.2 -3.1l9.1 3.1Z" class="g2_298"/>
<path d="M468.4 233l-9.1 3l2.2 -3l-2.2 -3.1l9.1 3.1ZM411.1 193.3l51 19.1" class="g3_298"/>
<path d="M404.6 190.9l9.7 .3l-3.2 2.1l1 3.6l-7.5 -6Z" class="g2_298"/>
<path d="M404.6 190.9l9.7 .3l-3.2 2.1l1 3.6l-7.5 -6Z" class="g3_298"/>
<path d="M468.6 214.8l-9.7 -.4l3.2 -2l-1 -3.7l7.5 6.1Z" class="g2_298"/>
<path d="M468.6 214.8l-9.7 -.4l3.2 -2l-1 -3.7l7.5 6.1Z" class="g3_298"/>
</g>
</svg>