<?xml version="1.0" encoding="UTF-8" standalone="no"?>
<!DOCTYPE svg PUBLIC "-//W3C//DTD SVG 1.1//EN"
"http://www.w3.org/Graphics/SVG/1.1/DTD/svg11.dtd">
<svg viewBox="0 0 714 1017" version="1.1" xmlns="http://www.w3.org/2000/svg" xmlns:xlink="http://www.w3.org/1999/xlink">
<defs>
<clipPath id="c0_122"><path d="M119.9 214.7V97H616V214.7Z"/></clipPath>
<clipPath id="c1_122"><path d="M91.6 554.2V461.4H643.9v92.8Z"/></clipPath>
<clipPath id="c2_122"><path d="M119.9 214.7V95.5H616.4V214.7Z"/></clipPath>
<clipPath id="c3_122"><path d="M91.6 554.5V461.3H644.7v93.2Z"/></clipPath>
<style type="text/css"><![CDATA[
.g0_122{
fill: #FFF;
}
.g1_122{
fill: none;
stroke: #000;
stroke-width: 2.291;
stroke-miterlimit: 10;
}
.g2_122{
fill: none;
stroke: #000;
stroke-width: 1.145;
stroke-miterlimit: 10;
}
.g3_122{
fill: #000;
}
.g4_122{
fill: none;
stroke: #000;
stroke-width: 3.437;
stroke-miterlimit: 10;
}
]]></style>
</defs>
<path d="M0 1017.7H717.2V-3.7H0V1017.7Z" class="g0_122"/>
<g clip-path="url(#c2_122)">
<g clip-path="url(#c0_122)">
<path d="M119.9 97H616V215H119.9V97Z" class="g0_122"/>
<path d="M409.2 168.6H605.1v45.8H409.2V168.6Z" class="g1_122"/>
<path d="M409.2 168.6h58.4v45.8H409.2V168.6Zm58.4 0h45.9v45.8H467.6V168.6Zm46.2 0h34v45.8h-34V168.6Zm34 0h57.3v45.8H547.8V168.6Z" class="g2_122"/>
<path d="M144.5 168.6H316.4v45.8H144.5V168.6Z" class="g1_122"/>
</g>
<path d="M187.5 168.6L139 121.6m48.5 47l-2.7 -47m88.6 47l48.9 -47m-91.9 47l46.1 -47m-46.1 47l.2 -47m207.8 47L414 121.6m39 47l6.8 -47m30.8 47l15 -47m25.2 47l20.7 -47m25 47l20.8 -47" class="g2_122"/>
<path d="M304.3 171c-.3 .3 -.5 .5 -.9 .7l-.6 -.9c.2 -.2 .5 -.4 .7 -.6l.8 .8Zm-1.8 1.3c-.4 .2 -.7 .4 -1.1 .6l-.5 -1c.3 -.2 .7 -.4 1 -.6l.6 1Zm-2.4 1.1c-.3 .2 -.6 .3 -.9 .4l-.4 -1.1c.3 -.1 .6 -.2 .9 -.3l.4 1Zm-1.9 .8c-.4 .1 -.7 .2 -1.1 .3l-.3 -1.1c.3 -.1 .7 -.2 1 -.3l.4 1.1Zm-2.3 .7c-.4 .1 -.8 .2 -1.2 .3l-.3 -1.1c.4 -.1 .8 -.2 1.2 -.3l.3 1.1Zm-2.4 .6c-.3 .1 -.7 .2 -1 .3l-.3 -1.1c.4 -.1 .7 -.2 1 -.3l.3 1.1Zm-2.1 .5c-.3 .1 -.7 .2 -1 .3l-.3 -1.2c.4 0 .7 -.1 1.1 -.2l.2 1.1Zm-2.2 .5c-.4 .1 -.7 .1 -1.1 .2l-.2 -1.1c.3 -.1 .7 -.2 1.1 -.2l.2 1.1Zm-2.3 .4c-.4 .1 -.8 .2 -1.3 .3l-.2 -1.2c.5 0 .9 -.1 1.3 -.2l.2 1.1Zm-2.4 .5l-1.1 .1l-.2 -1.1l1.1 -.2l.2 1.2Zm-2.2 .3l-1.1 .2l-.2 -1.2l1.1 -.1l.2 1.1Zm-2.2 .3l-1.2 .2l-.1 -1.2l1.1 -.1l.2 1.1Zm-2.3 .3l-1.2 .2l-.1 -1.2l1.1 -.1l.2 1.1Zm-2.4 .3l-1.2 .1l-.1 -1.1l1.2 -.1l.1 1.1Zm-2.3 .3L272 179l-.2 -1.2l1.1 -.1l.2 1.2Zm-2.3 .2l-1.1 .1l-.1 -1.1l1.1 -.2l.1 1.2Zm-2.2 .2l-1.2 .1l-.1 -1.1l1.2 -.1l.1 1.1Zm-2.3 .2l-1.2 .1l-.1 -1.2l1.2 -.1l.1 1.2Zm-2.4 .2l-1.1 .1l-.1 -1.2l1.2 -.1v1.2Zm-2.3 .1l-1.2 .1v-1.1l1.1 -.1l.1 1.1Zm-2.3 .2h-1.2v-1.1l1.1 -.1l.1 1.2Zm-2.3 .1l-1.2 .1l-.1 -1.2h1.2l.1 1.1Zm-2.4 .1l-1.1 .1l-.1 -1.2h1.2v1.1Zm-2.3 .1l-1.1 .1l-.1 -1.2h1.2v1.1Zm-2.3 .1l-1.2 .1v-1.2H250v1.1Zm-2.3 .1h-1.2v-1.1l1.1 -.1l.1 1.2Zm-2.3 0l-1.2 .1v-1.2h1.1l.1 1.1Zm-2.3 .1H242l-.1 -1.1l1.2 -.1v1.2Zm-2.3 0h-1.1v-1.1h1.1v1.1Zm-2.2 0h-1.1v-1.1h1.1v1.1Zm-2.2 0h-1.2l.1 -1.1h1.1v1.1Zm-2.3 0H233v-1.1h1.1v1.1Zm-2.2 0h-1.1v-1.1h1.1v1.1Zm-2.3 0h-1.1v-1.2h1.2l-.1 1.2Zm-2.3 0l-1.1 -.1v-1.1h1.2l-.1 1.2Zm-2.3 -.1h-1.1v-1.2h1.2l-.1 1.2Zm-2.3 -.1h-1.1v-1.2l1.2 .1l-.1 1.1Zm-2.3 -.1h-1.2l.1 -1.2l1.2 .1l-.1 1.1Zm-2.3 -.1h-1.2L217 179l1.1 .1v1.1Zm-2.3 -.1h-1.2l.1 -1.2l1.1 .1v1.1Zm-2.4 -.1l-1.1 -.1l.1 -1.1l1.1 .1l-.1 1.1Zm-2.3 -.1l-1.1 -.1v-1.2l1.2 .1l-.1 1.2Zm-2.3 -.2l-1.2 -.1l.1 -1.1l1.2 .1l-.1 1.1Zm-2.3 -.2l-1.2 -.1l.1 -1.1l1.1 .1v1.1Zm-2.4 -.2l-1.1 -.1l.1 -1.1l1.2 .1l-.2 1.1Zm-2.2 -.2l-1.1 -.1l.1 -1.1l1.1 .1l-.1 1.1Zm-2.3 -.2l-1.1 -.1l.2 -1.2l1.1 .2l-.2 1.1Zm-2.3 -.3l-1.2 -.1l.2 -1.1l1.2 .1l-.2 1.1Zm-2.4 -.2l-1.1 -.2l.1 -1.1l1.2 .1l-.2 1.2Zm-2.3 -.3l-1.1 -.2l.2 -1.1l1.1 .1l-.2 1.2Zm-2.2 -.4l-1.1 -.1l.2 -1.2l1.1 .2l-.2 1.1Zm-2.2 -.3l-1.1 -.2l.2 -1.1l1.1 .2l-.2 1.1Zm-2.3 -.4c-.4 -.1 -.8 -.1 -1.2 -.2l.2 -1.1c.4 0 .8 .1 1.2 .2l-.2 1.1Zm-2.4 -.4c-.4 -.1 -.8 -.2 -1.1 -.3l.2 -1.1c.4 .1 .7 .2 1.1 .2l-.2 1.2Zm-2.2 -.5c-.4 -.1 -.8 -.2 -1.1 -.2l.2 -1.2c.4 .1 .7 .2 1.1 .3l-.2 1.1Zm-2.1 -.5c-.4 -.1 -.8 -.2 -1.1 -.3l.3 -1.1c.3 .1 .7 .2 1 .3l-.2 1.1Zm-2.4 -.6c-.4 -.1 -.8 -.2 -1.2 -.4l.4 -1.1c.3 .2 .7 .3 1.1 .4l-.3 1.1Zm-2.3 -.7c-.4 -.1 -.7 -.3 -1 -.4l.4 -1.1c.3 .2 .6 .3 1 .4l-.4 1.1Zm-2 -.7c-.4 -.2 -.7 -.4 -1.1 -.5l.5 -1.1c.3 .2 .7 .3 1 .5l-.4 1.1Zm-2.3 -1.1c-.4 -.2 -.7 -.4 -1 -.6l.6 -1c.3 .2 .6 .4 .9 .6l-.5 1Zm-1.8 -1.2c-.4 -.4 -.8 -.7 -1 -1.1l1 -.6c.1 .3 .4 .5 .7 .8l-.7 .9ZM166.9 169c0 -.1 0 -.3 0 -.4c0 -.3 0 -.6 .1 -.9l1.1 .4c-.1 .2 -.1 .4 -.1 .5c0 .1 0 .2 0 .2l-1.1 .2Zm.8 -2.4c.3 -.3 .6 -.6 .9 -.9l.7 .9c-.2 .3 -.5 .5 -.7 .7l-.9 -.7Zm1.8 -1.5c.4 -.2 .7 -.4 1.1 -.6l.5 1c-.3 .2 -.7 .4 -1 .6l-.6 -1Zm2.4 -1.2c.3 -.1 .6 -.2 1 -.4l.4 1.1c-.4 .1 -.7 .3 -1 .4l-.4 -1.1Zm1.9 -.7c.4 -.1 .7 -.3 1.1 -.4l.4 1.1c-.4 .1 -.7 .2 -1.1 .4l-.4 -1.1Zm2.2 -.7c.4 -.2 .8 -.3 1.3 -.4l.3 1.1c-.4 .1 -.8 .2 -1.2 .4l-.4 -1.1Zm2.5 -.7c.4 -.1 .7 -.2 1 -.3l.3 1.1c-.3 .1 -.7 .2 -1 .3l-.3 -1.1Zm2.1 -.5c.3 -.1 .7 -.2 1.1 -.3l.2 1.2c-.4 0 -.7 .1 -1.1 .2l-.2 -1.1Zm2.2 -.5c.3 -.1 .7 -.1 1.1 -.2l.2 1.1c-.3 .1 -.7 .2 -1.1 .2l-.2 -1.1Zm2.3 -.4c.4 -.1 .8 -.2 1.2 -.3l.2 1.2c-.4 0 -.8 .1 -1.2 .2l-.2 -1.1Zm2.5 -.5l1 -.1l.2 1.1l-1 .2l-.2 -1.2Zm2.1 -.3l1.1 -.2l.2 1.2l-1.1 .1l-.2 -1.1Zm2.2 -.3l1.2 -.2l.1 1.1l-1.1 .2l-.2 -1.1Zm2.3 -.3l1.2 -.2l.1 1.2l-1.1 .1l-.2 -1.1Zm2.4 -.3l1.2 -.2l.1 1.2l-1.2 .1l-.1 -1.1Zm2.3 -.3l1.2 -.1l.1 1.1l-1.1 .1l-.2 -1.1Zm2.3 -.2l1.1 -.1l.1 1.1l-1.1 .1l-.1 -1.1Zm2.2 -.2l1.2 -.1l.1 1.1l-1.2 .1l-.1 -1.1Zm2.3 -.2l1.2 -.1l.1 1.1l-1.2 .1l-.1 -1.1Zm2.3 -.2l1.2 -.1l.1 1.1l-1.2 .1l-.1 -1.1Zm2.4 -.2l1.2 -.1v1.2l-1.1 .1l-.1 -1.2Zm2.3 -.1l1.2 -.1v1.1l-1.1 .1l-.1 -1.1Zm2.3 -.2h1.2v1.1l-1.1 .1l-.1 -1.2Zm2.4 -.1h1.1l.1 1.1l-1.2 .1V157Zm2.3 -.1h1.1l.1 1.1l-1.2 .1v-1.2Zm2.3 -.1h1.2v1.1L222 158v-1.2Zm2.3 0l1.2 -.1v1.2h-1.2v-1.1Zm2.3 -.1h1.2v1.1h-1.2v-1.1Zm2.3 -.1H230l.1 1.2h-1.2v-1.2Zm2.3 0h1.1v1.1l-1.1 .1v-1.2Zm2.2 0h1.1l.1 1.1h-1.2v-1.1Zm2.3 0h1.1v1.1h-1.1v-1.1Zm2.2 0H239v1.1h-1.1v-1.1Zm2.2 0h1.1v1.2l-1.1 -.1v-1.1Zm2.3 0h1.1v1.2h-1.2l.1 -1.2Zm2.3 .1h1.1v1.1h-1.2l.1 -1.1Zm2.2 0l1.2 .1v1.1h-1.2v-1.2Zm2.4 .1h1.1V158l-1.2 -.1l.1 -1.1Zm2.3 .1h1.1v1.2l-1.2 -.1l.1 -1.1Zm2.3 .1h1.2l-.1 1.2l-1.1 -.1V157Zm2.3 .1h1.2l-.1 1.2l-1.1 -.1v-1.1Zm2.4 .1l1.1 .1l-.1 1.1h-1.1l.1 -1.2Zm2.3 .1l1.1 .1v1.2l-1.2 -.1l.1 -1.2Zm2.3 .2l1.2 .1l-.1 1.1l-1.2 -.1l.1 -1.1Zm2.3 .2l1.2 .1l-.1 1.1l-1.2 -.1l.1 -1.1Zm2.3 .2l1.2 .1l-.1 1.1l-1.2 -.1l.1 -1.1Zm2.3 .2l1.1 .1l-.1 1.1l-1.1 -.1l.1 -1.1Zm2.3 .2l1.1 .1l-.2 1.2l-1.1 -.2l.2 -1.1Zm2.2 .2l1.2 .2l-.1 1.1l-1.2 -.1l.1 -1.2Zm2.4 .3l1.2 .2l-.1 1.1l-1.2 -.1l.1 -1.2Zm2.4 .3l1.1 .2l-.2 1.1l-1.1 -.1l.2 -1.2Zm2.2 .3l1.1 .2l-.2 1.1l-1.1 -.1l.2 -1.2Zm2.2 .4l1 .1l-.1 1.2l-1.1 -.2l.2 -1.1Zm2.3 .4c.4 0 .8 .1 1.2 .2l-.2 1.1c-.4 -.1 -.8 -.1 -1.2 -.2l.2 -1.1Zm2.4 .4c.4 .1 .8 .2 1.1 .2l-.2 1.1c-.4 0 -.7 -.1 -1.1 -.2l.2 -1.1Zm2.3 .5c.3 0 .7 .1 1 .2l-.2 1.1c-.4 -.1 -.7 -.1 -1.1 -.2l.3 -1.1Zm2.1 .4c.3 .1 .6 .2 1 .3l-.3 1.1c-.3 -.1 -.7 -.2 -1 -.2l.3 -1.2Zm2.3 .6c.4 .1 .8 .3 1.2 .4l-.4 1.1c-.3 -.1 -.7 -.2 -1.1 -.4l.3 -1.1Zm2.3 .7c.4 .2 .7 .3 1.1 .4l-.4 1.1c-.3 -.1 -.7 -.3 -1 -.4l.3 -1.1Zm2.1 .8c.3 .1 .6 .2 .9 .4l-.4 1c-.3 -.1 -.6 -.2 -1 -.4l.5 -1Zm2.2 .9c.4 .2 .7 .4 1.1 .6l-.6 1c-.3 -.2 -.7 -.3 -1 -.5l.5 -1.1Zm2 1.3c.3 .2 .6 .5 .9 .8l-.9 .8c-.2 -.3 -.5 -.5 -.8 -.7l.8 -.9Zm1.6 2c.1 .3 .1 .5 .1 .8c0 .4 -.1 .9 -.3 1.3l-1 -.6c.1 -.2 .2 -.4 .2 -.7c0 -.1 -.1 -.3 -.1 -.4l1.1 -.4Z" class="g3_122"/>
<path d="M462.1 170.9c-.2 .4 -.3 .8 -.5 1.2l-1 -.5c.1 -.3 .3 -.7 .4 -1l1.1 .3Zm-1.2 2.4c-.2 .2 -.5 .5 -.7 .8l-.9 -.8c.2 -.2 .4 -.5 .6 -.7l1 .7Zm-1.5 1.6c-.3 .3 -.6 .5 -.9 .8l-.7 -.9c.3 -.2 .5 -.5 .8 -.7l.8 .8Zm-2 1.5c-.3 .3 -.7 .5 -1.1 .7l-.6 -1c.4 -.2 .8 -.4 1.1 -.6l.6 .9Zm-2.1 1.3c-.3 .1 -.7 .3 -1 .4l-.5 -1c.3 -.2 .7 -.3 1 -.5l.5 1.1Zm-2.1 .9c-.4 .1 -.7 .3 -1.1 .4l-.4 -1.1c.4 -.1 .7 -.3 1.1 -.4l.4 1.1Zm-2.3 .7c-.4 .2 -.7 .3 -1.1 .4l-.3 -1.2c.4 -.1 .7 -.2 1.1 -.3l.3 1.1Zm-2.3 .6c-.4 .1 -.8 .2 -1.2 .2l-.2 -1.1c.4 -.1 .8 -.1 1.1 -.2l.3 1.1Zm-2.4 .4c-.4 .1 -.7 .1 -1.1 .2l-.2 -1.2c.4 0 .8 -.1 1.2 -.1l.1 1.1Zm-2.3 .3c-.4 0 -.8 0 -1.2 0v-1.1c.4 0 .7 -.1 1.1 -.1l.1 1.2Zm-2.3 0h-.3c-.3 0 -.5 0 -.8 0v-1.1c.3 0 .5 0 .8 0h.3v1.1Zm-2.2 0c-.4 0 -.8 0 -1.2 -.1l.1 -1.1c.4 0 .7 0 1.1 .1v1.1Zm-2.4 -.2c-.4 0 -.7 -.1 -1.1 -.1l.1 -1.2c.4 .1 .8 .1 1.2 .2l-.2 1.1Zm-2.3 -.3c-.4 -.1 -.8 -.2 -1.2 -.3l.3 -1.1c.3 .1 .7 .2 1.1 .2l-.2 1.2Zm-2.4 -.6c-.4 -.1 -.7 -.2 -1.1 -.3l.3 -1.1c.4 .1 .8 .2 1.1 .3l-.3 1.1Zm-2.3 -.7c-.3 -.1 -.7 -.2 -1.1 -.4l.5 -1.1c.3 .2 .7 .3 1 .4l-.4 1.1Zm-2.1 -.8c-.4 -.2 -.7 -.4 -1 -.5l.5 -1.1c.3 .2 .6 .4 1 .5l-.5 1.1Zm-2.1 -1.1c-.4 -.3 -.7 -.5 -1.1 -.8l.7 -.9c.3 .2 .6 .5 1 .7l-.6 1Zm-2.1 -1.5c-.3 -.3 -.6 -.5 -.8 -.8l.8 -.8c.2 .2 .5 .5 .8 .7l-.8 .9Zm-1.6 -1.6c-.3 -.3 -.5 -.7 -.7 -1l1 -.6c.2 .3 .4 .6 .6 .8l-.9 .8Zm-1.3 -2.1c-.2 -.4 -.4 -.8 -.5 -1.2l1.1 -.3c.1 .3 .3 .6 .4 1l-1 .5Zm-.7 -2.4c0 -.2 0 -.5 0 -.7c0 -.1 0 -.3 0 -.4h1.1c0 .2 0 .3 0 .4c0 .2 0 .4 .1 .6l-1.2 .1Zm.2 -2.3c.1 -.4 .2 -.8 .4 -1.2l1 .5c-.1 .3 -.2 .6 -.3 1l-1.1 -.3Zm1 -2.4c.2 -.3 .4 -.6 .7 -1l.9 .7c-.3 .3 -.5 .6 -.7 .9l-.9 -.6Zm1.4 -1.8c.3 -.3 .5 -.5 .8 -.8l.8 .9c-.3 .2 -.5 .4 -.8 .7l-.8 -.8Zm1.8 -1.6c.3 -.2 .7 -.5 1.1 -.7l.6 1c-.4 .2 -.7 .4 -1 .7l-.7 -1Zm2.2 -1.3c.3 -.2 .6 -.4 1 -.5l.5 1c-.4 .2 -.7 .3 -1 .5l-.5 -1Zm2 -1c.4 -.1 .7 -.3 1.1 -.4l.4 1.1c-.4 .1 -.7 .2 -1 .4l-.5 -1.1Zm2.2 -.8c.4 -.1 .8 -.2 1.2 -.3l.3 1.1c-.4 .1 -.7 .2 -1.1 .3l-.4 -1.1Zm2.4 -.6c.4 -.1 .8 -.2 1.2 -.3l.2 1.1c-.4 .1 -.8 .2 -1.2 .3l-.2 -1.1Zm2.3 -.5c.4 0 .8 -.1 1.2 -.1l.1 1.1c-.3 0 -.7 .1 -1.1 .1l-.2 -1.1Zm2.4 -.3c.4 0 .7 0 1.1 -.1l.1 1.2c-.4 0 -.8 0 -1.1 .1l-.1 -1.2Zm2.3 -.1c.3 0 .6 0 1 0h.1v1.1h-.1c-.3 0 -.7 0 -1 0v-1.1Zm2.2 0c.4 0 .8 0 1.2 .1l-.1 1.1c-.4 0 -.7 0 -1.1 -.1v-1.1Zm2.3 .2c.4 0 .8 0 1.2 .1l-.2 1.1c-.3 0 -.7 -.1 -1.1 -.1l.1 -1.1Zm2.4 .3c.4 0 .8 .1 1.1 .2l-.2 1.1c-.4 -.1 -.7 -.2 -1.1 -.2l.2 -1.1Zm2.3 .4c.4 .1 .8 .2 1.2 .3l-.3 1.1c-.4 -.1 -.8 -.2 -1.1 -.3l.2 -1.1Zm2.4 .7c.3 .1 .7 .2 1.1 .4l-.4 1c-.4 -.1 -.7 -.2 -1.1 -.3l.4 -1.1Zm2.2 .8c.3 .1 .7 .3 1 .5l-.5 1c-.3 -.2 -.7 -.3 -1 -.5l.5 -1Zm2 1c.4 .2 .8 .4 1.1 .7l-.6 .9c-.3 -.2 -.7 -.4 -1.1 -.6l.6 -1Zm2.2 1.4c.3 .2 .6 .5 .9 .8l-.8 .8c-.2 -.2 -.5 -.5 -.8 -.7l.7 -.9ZM460 163c.3 .2 .5 .5 .7 .8l-.9 .7c-.2 -.3 -.4 -.5 -.6 -.8l.8 -.7Zm1.4 1.9c.3 .4 .4 .7 .6 1.1l-1.1 .5c-.1 -.4 -.3 -.7 -.5 -1.1l1 -.5Zm.9 2.3c.1 .4 .2 .8 .2 1.2h-1.2c0 -.3 0 -.6 -.1 -.9l1.1 -.3Zm.2 1.4c0 .4 -.1 .8 -.1 1.2l-1.1 -.2c0 -.3 0 -.7 0 -1h1.2Z" class="g3_122"/>
<path d="M350.8 168.6h38.1m-6.5 5.2l10.4 -5.2l-10.4 -5.1" class="g4_122"/>
<path d="M121.6 98.7h34.7v22.9H121.6V98.7Z" class="g1_122"/>
<path d="M153.6 110.2c0 .4 -.1 .9 -.3 1.3c-.2 .4 -.4 .8 -.7 1.1c-.3 .3 -.7 .5 -1.1 .7c-.4 .2 -.9 .3 -1.3 .3c-.5 0 -.9 -.1 -1.3 -.3c-.4 -.2 -.8 -.4 -1.1 -.7c-.3 -.3 -.6 -.7 -.7 -1.1c-.2 -.4 -.3 -.9 -.3 -1.3c0 -.5 .1 -.9 .3 -1.3c.1 -.4 .4 -.8 .7 -1.1c.3 -.3 .7 -.6 1.1 -.7c.4 -.2 .8 -.3 1.3 -.3c.4 0 .9 .1 1.3 .3c.4 .1 .8 .4 1.1 .7c.3 .3 .5 .7 .7 1.1c.2 .4 .3 .8 .3 1.3Z" class="g3_122"/>
<path d="M145.5 110.2c0 .4 0 .9 -.2 1.3c-.2 .4 -.4 .8 -.7 1.1c-.4 .3 -.7 .5 -1.1 .7c-.5 .2 -.9 .3 -1.3 .3c-.5 0 -.9 -.1 -1.3 -.3c-.4 -.2 -.8 -.4 -1.1 -.7c-.3 -.3 -.6 -.7 -.8 -1.1c-.1 -.4 -.2 -.9 -.2 -1.3c0 -.5 .1 -.9 .2 -1.3c.2 -.4 .5 -.8 .8 -1.1c.3 -.3 .7 -.6 1.1 -.7c.4 -.2 .8 -.3 1.3 -.3c.4 0 .8 .1 1.3 .3c.4 .1 .7 .4 1.1 .7c.3 .3 .5 .7 .7 1.1c.2 .4 .2 .8 .2 1.3Z" class="g3_122"/>
<path d="M137.6 110.2c0 .4 -.1 .9 -.3 1.3c-.1 .4 -.4 .8 -.7 1.1c-.3 .3 -.7 .5 -1.1 .7c-.4 .2 -.9 .3 -1.3 .3c-.4 0 -.9 -.1 -1.3 -.3c-.4 -.2 -.8 -.4 -1.1 -.7c-.3 -.3 -.6 -.7 -.7 -1.1c-.2 -.4 -.3 -.9 -.3 -1.3c0 -.5 .1 -.9 .3 -1.3c.1 -.4 .4 -.8 .7 -1.1c.3 -.3 .7 -.6 1.1 -.7c.4 -.2 .9 -.3 1.3 -.3c.4 0 .9 .1 1.3 .3c.4 .1 .8 .4 1.1 .7c.3 .3 .6 .7 .7 1.1c.2 .4 .3 .8 .3 1.3Z" class="g3_122"/>
<path d="M167.4 98.7h34.8v22.9H167.4V98.7Z" class="g1_122"/>
<path d="M199.4 110.2c0 .4 -.1 .9 -.3 1.3c-.1 .4 -.4 .8 -.7 1.1c-.3 .3 -.7 .5 -1.1 .7c-.4 .2 -.8 .3 -1.3 .3c-.4 0 -.9 -.1 -1.3 -.3c-.4 -.2 -.8 -.4 -1.1 -.7c-.3 -.3 -.5 -.7 -.7 -1.1c-.2 -.4 -.3 -.9 -.3 -1.3c0 -.5 .1 -.9 .3 -1.3c.2 -.4 .4 -.8 .7 -1.1c.3 -.3 .7 -.6 1.1 -.7c.4 -.2 .9 -.3 1.3 -.3c.5 0 .9 .1 1.3 .3c.4 .1 .8 .4 1.1 .7c.3 .3 .6 .7 .7 1.1c.2 .4 .3 .8 .3 1.3Z" class="g3_122"/>
<path d="M191.4 110.2c0 .4 -.1 .9 -.3 1.3c-.2 .4 -.4 .8 -.7 1.1c-.3 .3 -.7 .5 -1.1 .7c-.4 .2 -.9 .3 -1.3 .3c-.5 0 -.9 -.1 -1.3 -.3c-.4 -.2 -.8 -.4 -1.1 -.7c-.3 -.3 -.6 -.7 -.7 -1.1c-.2 -.4 -.3 -.9 -.3 -1.3c0 -.5 .1 -.9 .3 -1.3c.1 -.4 .4 -.8 .7 -1.1c.3 -.3 .7 -.6 1.1 -.7c.4 -.2 .8 -.3 1.3 -.3c.4 0 .9 .1 1.3 .3c.4 .1 .8 .4 1.1 .7c.3 .3 .5 .7 .7 1.1c.2 .4 .3 .8 .3 1.3Z" class="g3_122"/>
<path d="M183.4 110.2c0 .4 -.1 .9 -.2 1.3c-.2 .4 -.5 .8 -.8 1.1c-.3 .3 -.7 .5 -1.1 .7c-.4 .2 -.8 .3 -1.3 .3c-.4 0 -.8 -.1 -1.3 -.3c-.4 -.2 -.7 -.4 -1.1 -.7c-.3 -.3 -.5 -.7 -.7 -1.1c-.2 -.4 -.2 -.9 -.2 -1.3c0 -.5 0 -.9 .2 -1.3c.2 -.4 .4 -.8 .7 -1.1c.4 -.3 .7 -.6 1.1 -.7c.5 -.2 .9 -.3 1.3 -.3c.5 0 .9 .1 1.3 .3c.4 .1 .8 .4 1.1 .7c.3 .3 .6 .7 .8 1.1c.1 .4 .2 .8 .2 1.3Z" class="g3_122"/>
<path d="M213.3 98.7H248v22.9H213.3V98.7Z" class="g1_122"/>
<path d="M245.2 110.2c0 .4 -.1 .9 -.2 1.3c-.2 .4 -.4 .8 -.8 1.1c-.3 .3 -.6 .5 -1.1 .7c-.4 .2 -.8 .3 -1.2 .3c-.5 0 -.9 -.1 -1.3 -.3c-.5 -.2 -.8 -.4 -1.1 -.7c-.4 -.3 -.6 -.7 -.8 -1.1c-.1 -.4 -.2 -.9 -.2 -1.3c0 -.5 .1 -.9 .2 -1.3c.2 -.4 .4 -.8 .8 -1.1c.3 -.3 .6 -.6 1.1 -.7c.4 -.2 .8 -.3 1.3 -.3c.4 0 .8 .1 1.2 .3c.5 .1 .8 .4 1.1 .7c.4 .3 .6 .7 .8 1.1c.1 .4 .2 .8 .2 1.3Z" class="g3_122"/>
<path d="M237.2 110.2c0 .4 -.1 .9 -.2 1.3c-.2 .4 -.5 .8 -.8 1.1c-.3 .3 -.7 .5 -1.1 .7c-.4 .2 -.8 .3 -1.3 .3c-.4 0 -.8 -.1 -1.3 -.3c-.4 -.2 -.7 -.4 -1.1 -.7c-.3 -.3 -.5 -.7 -.7 -1.1c-.2 -.4 -.3 -.9 -.3 -1.3c0 -.5 .1 -.9 .3 -1.3c.2 -.4 .4 -.8 .7 -1.1c.4 -.3 .7 -.6 1.1 -.7c.5 -.2 .9 -.3 1.3 -.3c.5 0 .9 .1 1.3 .3c.4 .1 .8 .4 1.1 .7c.3 .3 .6 .7 .8 1.1c.1 .4 .2 .8 .2 1.3Z" class="g3_122"/>
<path d="M229.2 110.2c0 .4 0 .9 -.2 1.3c-.2 .4 -.4 .8 -.7 1.1c-.4 .3 -.7 .5 -1.1 .7c-.5 .2 -.9 .3 -1.3 .3c-.5 0 -.9 -.1 -1.3 -.3c-.4 -.2 -.8 -.4 -1.1 -.7c-.3 -.3 -.6 -.7 -.8 -1.1c-.1 -.4 -.2 -.9 -.2 -1.3c0 -.5 .1 -.9 .2 -1.3c.2 -.4 .5 -.8 .8 -1.1c.3 -.3 .7 -.6 1.1 -.7c.4 -.2 .8 -.3 1.3 -.3c.4 0 .8 .1 1.3 .3c.4 .1 .7 .4 1.1 .7c.3 .3 .5 .7 .7 1.1c.2 .4 .2 .8 .2 1.3Z" class="g3_122"/>
<path d="M259.1 98.7h34.7v22.9H259.1V98.7Z" class="g1_122"/>
<path d="M291.1 110.2c0 .4 -.1 .9 -.3 1.3c-.2 .4 -.4 .8 -.7 1.1c-.3 .3 -.7 .5 -1.1 .7c-.4 .2 -.9 .3 -1.3 .3c-.5 0 -.9 -.1 -1.3 -.3c-.4 -.2 -.8 -.4 -1.1 -.7c-.3 -.3 -.6 -.7 -.7 -1.1c-.2 -.4 -.3 -.9 -.3 -1.3c0 -.5 .1 -.9 .3 -1.3c.1 -.4 .4 -.8 .7 -1.1c.3 -.3 .7 -.6 1.1 -.7c.4 -.2 .8 -.3 1.3 -.3c.4 0 .9 .1 1.3 .3c.4 .1 .8 .4 1.1 .7c.3 .3 .5 .7 .7 1.1c.2 .4 .3 .8 .3 1.3Z" class="g3_122"/>
<path d="M283 110.2c0 .4 0 .9 -.2 1.3c-.2 .4 -.4 .8 -.7 1.1c-.4 .3 -.7 .5 -1.1 .7c-.5 .2 -.9 .3 -1.3 .3c-.5 0 -.9 -.1 -1.3 -.3c-.4 -.2 -.8 -.4 -1.1 -.7c-.3 -.3 -.6 -.7 -.8 -1.1c-.1 -.4 -.2 -.9 -.2 -1.3c0 -.5 .1 -.9 .2 -1.3c.2 -.4 .5 -.8 .8 -1.1c.3 -.3 .7 -.6 1.1 -.7c.4 -.2 .8 -.3 1.3 -.3c.4 0 .8 .1 1.3 .3c.4 .1 .7 .4 1.1 .7c.3 .3 .5 .7 .7 1.1c.2 .4 .2 .8 .2 1.3Z" class="g3_122"/>
<path d="M275.1 110.2c0 .4 -.1 .9 -.3 1.3c-.1 .4 -.4 .8 -.7 1.1c-.3 .3 -.7 .5 -1.1 .7c-.4 .2 -.9 .3 -1.3 .3c-.4 0 -.9 -.1 -1.3 -.3c-.4 -.2 -.8 -.4 -1.1 -.7c-.3 -.3 -.6 -.7 -.7 -1.1c-.2 -.4 -.3 -.9 -.3 -1.3c0 -.5 .1 -.9 .3 -1.3c.1 -.4 .4 -.8 .7 -1.1c.3 -.3 .7 -.6 1.1 -.7c.4 -.2 .9 -.3 1.3 -.3c.4 0 .9 .1 1.3 .3c.4 .1 .8 .4 1.1 .7c.3 .3 .6 .7 .7 1.1c.2 .4 .3 .8 .3 1.3Z" class="g3_122"/>
<path d="M304.9 98.7h34.8v22.9H304.9V98.7Z" class="g1_122"/>
<path d="M336.9 110.2c0 .4 -.1 .9 -.3 1.3c-.1 .4 -.4 .8 -.7 1.1c-.3 .3 -.7 .5 -1.1 .7c-.4 .2 -.8 .3 -1.3 .3c-.4 0 -.9 -.1 -1.3 -.3c-.4 -.2 -.8 -.4 -1.1 -.7c-.3 -.3 -.5 -.7 -.7 -1.1c-.2 -.4 -.3 -.9 -.3 -1.3c0 -.5 .1 -.9 .3 -1.3c.2 -.4 .4 -.8 .7 -1.1c.3 -.3 .7 -.6 1.1 -.7c.4 -.2 .9 -.3 1.3 -.3c.5 0 .9 .1 1.3 .3c.4 .1 .8 .4 1.1 .7c.3 .3 .6 .7 .7 1.1c.2 .4 .3 .8 .3 1.3Z" class="g3_122"/>
<path d="M328.9 110.2c0 .4 -.1 .9 -.3 1.3c-.2 .4 -.4 .8 -.7 1.1c-.3 .3 -.7 .5 -1.1 .7c-.4 .2 -.9 .3 -1.3 .3c-.5 0 -.9 -.1 -1.3 -.3c-.4 -.2 -.8 -.4 -1.1 -.7c-.3 -.3 -.6 -.7 -.7 -1.1c-.2 -.4 -.3 -.9 -.3 -1.3c0 -.5 .1 -.9 .3 -1.3c.1 -.4 .4 -.8 .7 -1.1c.3 -.3 .7 -.6 1.1 -.7c.4 -.2 .8 -.3 1.3 -.3c.4 0 .9 .1 1.3 .3c.4 .1 .8 .4 1.1 .7c.3 .3 .5 .7 .7 1.1c.2 .4 .3 .8 .3 1.3Z" class="g3_122"/>
<path d="M320.9 110.2c0 .4 -.1 .9 -.2 1.3c-.2 .4 -.5 .8 -.8 1.1c-.3 .3 -.7 .5 -1.1 .7c-.4 .2 -.8 .3 -1.3 .3c-.4 0 -.8 -.1 -1.3 -.3c-.4 -.2 -.7 -.4 -1.1 -.7c-.3 -.3 -.5 -.7 -.7 -1.1c-.2 -.4 -.2 -.9 -.2 -1.3c0 -.5 0 -.9 .2 -1.3c.2 -.4 .4 -.8 .7 -1.1c.4 -.3 .7 -.6 1.1 -.7c.5 -.2 .9 -.3 1.3 -.3c.5 0 .9 .1 1.3 .3c.4 .1 .8 .4 1.1 .7c.3 .3 .6 .7 .8 1.1c.1 .4 .2 .8 .2 1.3Z" class="g3_122"/>
<path d="M396.6 98.7h34.7v22.9H396.6V98.7Z" class="g1_122"/>
<path d="M428.6 110.2c0 .4 -.1 .9 -.3 1.3c-.2 .4 -.4 .8 -.7 1.1c-.3 .3 -.7 .5 -1.1 .7c-.4 .2 -.9 .3 -1.3 .3c-.5 0 -.9 -.1 -1.3 -.3c-.4 -.2 -.8 -.4 -1.1 -.7c-.3 -.3 -.6 -.7 -.7 -1.1c-.2 -.4 -.3 -.9 -.3 -1.3c0 -.5 .1 -.9 .3 -1.3c.1 -.4 .4 -.8 .7 -1.1c.3 -.3 .7 -.6 1.1 -.7c.4 -.2 .8 -.3 1.3 -.3c.4 0 .9 .1 1.3 .3c.4 .1 .8 .4 1.1 .7c.3 .3 .5 .7 .7 1.1c.2 .4 .3 .8 .3 1.3Z" class="g3_122"/>
<path d="M420.5 110.2c0 .4 0 .9 -.2 1.3c-.2 .4 -.4 .8 -.7 1.1c-.4 .3 -.7 .5 -1.1 .7c-.5 .2 -.9 .3 -1.3 .3c-.5 0 -.9 -.1 -1.3 -.3c-.4 -.2 -.8 -.4 -1.1 -.7c-.3 -.3 -.6 -.7 -.8 -1.1c-.1 -.4 -.2 -.9 -.2 -1.3c0 -.5 .1 -.9 .2 -1.3c.2 -.4 .5 -.8 .8 -1.1c.3 -.3 .7 -.6 1.1 -.7c.4 -.2 .8 -.3 1.3 -.3c.4 0 .8 .1 1.3 .3c.4 .1 .7 .4 1.1 .7c.3 .3 .5 .7 .7 1.1c.2 .4 .2 .8 .2 1.3Z" class="g3_122"/>
<path d="M412.6 110.2c0 .4 -.1 .9 -.3 1.3c-.1 .4 -.4 .8 -.7 1.1c-.3 .3 -.7 .5 -1.1 .7c-.4 .2 -.9 .3 -1.3 .3c-.4 0 -.9 -.1 -1.3 -.3c-.4 -.2 -.8 -.4 -1.1 -.7c-.3 -.3 -.6 -.7 -.7 -1.1c-.2 -.4 -.3 -.9 -.3 -1.3c0 -.5 .1 -.9 .3 -1.3c.1 -.4 .4 -.8 .7 -1.1c.3 -.3 .7 -.6 1.1 -.7c.4 -.2 .9 -.3 1.3 -.3c.4 0 .9 .1 1.3 .3c.4 .1 .8 .4 1.1 .7c.3 .3 .6 .7 .7 1.1c.2 .4 .3 .8 .3 1.3Z" class="g3_122"/>
<path d="M442.4 98.7h34.8v22.9H442.4V98.7Z" class="g1_122"/>
<path d="M474.4 110.2c0 .4 -.1 .9 -.3 1.3c-.1 .4 -.4 .8 -.7 1.1c-.3 .3 -.7 .5 -1.1 .7c-.4 .2 -.8 .3 -1.3 .3c-.4 0 -.9 -.1 -1.3 -.3c-.4 -.2 -.8 -.4 -1.1 -.7c-.3 -.3 -.5 -.7 -.7 -1.1c-.2 -.4 -.3 -.9 -.3 -1.3c0 -.5 .1 -.9 .3 -1.3c.2 -.4 .4 -.8 .7 -1.1c.3 -.3 .7 -.6 1.1 -.7c.4 -.2 .9 -.3 1.3 -.3c.5 0 .9 .1 1.3 .3c.4 .1 .8 .4 1.1 .7c.3 .3 .6 .7 .7 1.1c.2 .4 .3 .8 .3 1.3Z" class="g3_122"/>
<path d="M466.4 110.2c0 .4 -.1 .9 -.3 1.3c-.2 .4 -.4 .8 -.7 1.1c-.3 .3 -.7 .5 -1.1 .7c-.4 .2 -.9 .3 -1.3 .3c-.5 0 -.9 -.1 -1.3 -.3c-.4 -.2 -.8 -.4 -1.1 -.7c-.3 -.3 -.6 -.7 -.7 -1.1c-.2 -.4 -.3 -.9 -.3 -1.3c0 -.5 .1 -.9 .3 -1.3c.1 -.4 .4 -.8 .7 -1.1c.3 -.3 .7 -.6 1.1 -.7c.4 -.2 .8 -.3 1.3 -.3c.4 0 .9 .1 1.3 .3c.4 .1 .8 .4 1.1 .7c.3 .3 .5 .7 .7 1.1c.2 .4 .3 .8 .3 1.3Z" class="g3_122"/>
<path d="M458.4 110.2c0 .4 -.1 .9 -.2 1.3c-.2 .4 -.5 .8 -.8 1.1c-.3 .3 -.7 .5 -1.1 .7c-.4 .2 -.8 .3 -1.3 .3c-.4 0 -.8 -.1 -1.3 -.3c-.4 -.2 -.7 -.4 -1.1 -.7c-.3 -.3 -.5 -.7 -.7 -1.1c-.2 -.4 -.2 -.9 -.2 -1.3c0 -.5 0 -.9 .2 -1.3c.2 -.4 .4 -.8 .7 -1.1c.4 -.3 .7 -.6 1.1 -.7c.5 -.2 .9 -.3 1.3 -.3c.5 0 .9 .1 1.3 .3c.4 .1 .8 .4 1.1 .7c.3 .3 .6 .7 .8 1.1c.1 .4 .2 .8 .2 1.3Z" class="g3_122"/>
<path d="M488.3 98.7H523v22.9H488.3V98.7Z" class="g1_122"/>
<path d="M520.2 110.2c0 .4 -.1 .9 -.2 1.3c-.2 .4 -.4 .8 -.8 1.1c-.3 .3 -.6 .5 -1.1 .7c-.4 .2 -.8 .3 -1.2 .3c-.5 0 -.9 -.1 -1.3 -.3c-.5 -.2 -.8 -.4 -1.1 -.7c-.4 -.3 -.6 -.7 -.8 -1.1c-.1 -.4 -.2 -.9 -.2 -1.3c0 -.5 .1 -.9 .2 -1.3c.2 -.4 .4 -.8 .8 -1.1c.3 -.3 .6 -.6 1.1 -.7c.4 -.2 .8 -.3 1.3 -.3c.4 0 .8 .1 1.2 .3c.5 .1 .8 .4 1.1 .7c.4 .3 .6 .7 .8 1.1c.1 .4 .2 .8 .2 1.3Z" class="g3_122"/>
<path d="M512.2 110.2c0 .4 -.1 .9 -.2 1.3c-.2 .4 -.5 .8 -.8 1.1c-.3 .3 -.7 .5 -1.1 .7c-.4 .2 -.8 .3 -1.3 .3c-.4 0 -.8 -.1 -1.3 -.3c-.4 -.2 -.7 -.4 -1.1 -.7c-.3 -.3 -.5 -.7 -.7 -1.1c-.2 -.4 -.3 -.9 -.3 -1.3c0 -.5 .1 -.9 .3 -1.3c.2 -.4 .4 -.8 .7 -1.1c.4 -.3 .7 -.6 1.1 -.7c.5 -.2 .9 -.3 1.3 -.3c.5 0 .9 .1 1.3 .3c.4 .1 .8 .4 1.1 .7c.3 .3 .6 .7 .8 1.1c.1 .4 .2 .8 .2 1.3Z" class="g3_122"/>
<path d="M504.2 110.2c0 .4 0 .9 -.2 1.3c-.2 .4 -.4 .8 -.7 1.1c-.4 .3 -.7 .5 -1.1 .7c-.5 .2 -.9 .3 -1.3 .3c-.5 0 -.9 -.1 -1.3 -.3c-.4 -.2 -.8 -.4 -1.1 -.7c-.3 -.3 -.6 -.7 -.8 -1.1c-.1 -.4 -.2 -.9 -.2 -1.3c0 -.5 .1 -.9 .2 -1.3c.2 -.4 .5 -.8 .8 -1.1c.3 -.3 .7 -.6 1.1 -.7c.4 -.2 .8 -.3 1.3 -.3c.4 0 .8 .1 1.3 .3c.4 .1 .7 .4 1.1 .7c.3 .3 .5 .7 .7 1.1c.2 .4 .2 .8 .2 1.3Z" class="g3_122"/>
<path d="M534.1 98.7h34.7v22.9H534.1V98.7Z" class="g1_122"/>
<path d="M566.1 110.2c0 .4 -.1 .9 -.3 1.3c-.2 .4 -.4 .8 -.7 1.1c-.3 .3 -.7 .5 -1.1 .7c-.4 .2 -.9 .3 -1.3 .3c-.5 0 -.9 -.1 -1.3 -.3c-.4 -.2 -.8 -.4 -1.1 -.7c-.3 -.3 -.6 -.7 -.7 -1.1c-.2 -.4 -.3 -.9 -.3 -1.3c0 -.5 .1 -.9 .3 -1.3c.1 -.4 .4 -.8 .7 -1.1c.3 -.3 .7 -.6 1.1 -.7c.4 -.2 .8 -.3 1.3 -.3c.4 0 .9 .1 1.3 .3c.4 .1 .8 .4 1.1 .7c.3 .3 .5 .7 .7 1.1c.2 .4 .3 .8 .3 1.3Z" class="g3_122"/>
<path d="M558 110.2c0 .4 0 .9 -.2 1.3c-.2 .4 -.4 .8 -.7 1.1c-.4 .3 -.7 .5 -1.1 .7c-.5 .2 -.9 .3 -1.3 .3c-.5 0 -.9 -.1 -1.3 -.3c-.4 -.2 -.8 -.4 -1.1 -.7c-.3 -.3 -.6 -.7 -.8 -1.1c-.1 -.4 -.2 -.9 -.2 -1.3c0 -.5 .1 -.9 .2 -1.3c.2 -.4 .5 -.8 .8 -1.1c.3 -.3 .7 -.6 1.1 -.7c.4 -.2 .8 -.3 1.3 -.3c.4 0 .8 .1 1.3 .3c.4 .1 .7 .4 1.1 .7c.3 .3 .5 .7 .7 1.1c.2 .4 .2 .8 .2 1.3Z" class="g3_122"/>
<path d="M550.1 110.2c0 .4 -.1 .9 -.3 1.3c-.1 .4 -.4 .8 -.7 1.1c-.3 .3 -.7 .5 -1.1 .7c-.4 .2 -.9 .3 -1.3 .3c-.4 0 -.9 -.1 -1.3 -.3c-.4 -.2 -.8 -.4 -1.1 -.7c-.3 -.3 -.6 -.7 -.7 -1.1c-.2 -.4 -.3 -.9 -.3 -1.3c0 -.5 .1 -.9 .3 -1.3c.1 -.4 .4 -.8 .7 -1.1c.3 -.3 .7 -.6 1.1 -.7c.4 -.2 .9 -.3 1.3 -.3c.4 0 .9 .1 1.3 .3c.4 .1 .8 .4 1.1 .7c.3 .3 .6 .7 .7 1.1c.2 .4 .3 .8 .3 1.3Z" class="g3_122"/>
<path d="M579.9 98.7h34.8v22.9H579.9V98.7Z" class="g1_122"/>
<path d="M611.9 110.2c0 .4 -.1 .9 -.3 1.3c-.1 .4 -.4 .8 -.7 1.1c-.3 .3 -.7 .5 -1.1 .7c-.4 .2 -.8 .3 -1.3 .3c-.4 0 -.9 -.1 -1.3 -.3c-.4 -.2 -.8 -.4 -1.1 -.7c-.3 -.3 -.5 -.7 -.7 -1.1c-.2 -.4 -.3 -.9 -.3 -1.3c0 -.5 .1 -.9 .3 -1.3c.2 -.4 .4 -.8 .7 -1.1c.3 -.3 .7 -.6 1.1 -.7c.4 -.2 .9 -.3 1.3 -.3c.5 0 .9 .1 1.3 .3c.4 .1 .8 .4 1.1 .7c.3 .3 .6 .7 .7 1.1c.2 .4 .3 .8 .3 1.3Z" class="g3_122"/>
<path d="M603.9 110.2c0 .4 -.1 .9 -.3 1.3c-.2 .4 -.4 .8 -.7 1.1c-.3 .3 -.7 .5 -1.1 .7c-.4 .2 -.9 .3 -1.3 .3c-.5 0 -.9 -.1 -1.3 -.3c-.4 -.2 -.8 -.4 -1.1 -.7c-.3 -.3 -.6 -.7 -.7 -1.1c-.2 -.4 -.3 -.9 -.3 -1.3c0 -.5 .1 -.9 .3 -1.3c.1 -.4 .4 -.8 .7 -1.1c.3 -.3 .7 -.6 1.1 -.7c.4 -.2 .8 -.3 1.3 -.3c.4 0 .9 .1 1.3 .3c.4 .1 .8 .4 1.1 .7c.3 .3 .5 .7 .7 1.1c.2 .4 .3 .8 .3 1.3Z" class="g3_122"/>
<path d="M595.9 110.2c0 .4 -.1 .9 -.2 1.3c-.2 .4 -.5 .8 -.8 1.1c-.3 .3 -.7 .5 -1.1 .7c-.4 .2 -.8 .3 -1.3 .3c-.4 0 -.8 -.1 -1.3 -.3c-.4 -.2 -.7 -.4 -1.1 -.7c-.3 -.3 -.5 -.7 -.7 -1.1c-.2 -.4 -.2 -.9 -.2 -1.3c0 -.5 0 -.9 .2 -1.3c.2 -.4 .4 -.8 .7 -1.1c.4 -.3 .7 -.6 1.1 -.7c.5 -.2 .9 -.3 1.3 -.3c.5 0 .9 .1 1.3 .3c.4 .1 .8 .4 1.1 .7c.3 .3 .6 .7 .8 1.1c.1 .4 .2 .8 .2 1.3Z" class="g3_122"/>
</g>
<g clip-path="url(#c3_122)">
<path clip-path="url(#c1_122)" d="M91.6 461.4H643.9v92.8H91.6V461.4Z" class="g0_122"/>
<path d="M93.4 463.1h550v34.3H93.4V463.1Z" class="g1_122"/>
<path d="M93.4 463.1h57.3v34.3H93.4V463.1Zm57.3 0h57.2v34.3H150.7V463.1Zm57.2 0h45.9v34.3H207.9V463.1Zm45.9 0h45.9v34.3H253.8V463.1Zm45.9 0h68.7v34.3H299.7V463.1Zm68.7 0h45.8v34.3H368.4V463.1Zm45.8 0H460v34.3H414.2V463.1Zm45.8 0h80.2v34.3H460V463.1Zm80.2 0H643.4v34.3H540.2V463.1Zm-126 34.4c0 6.3 -5.1 11.4 -11.5 11.4H265.2c-6.3 0 -11.4 5.2 -11.4 11.5c0 -6.3 -5.2 -11.5 -11.5 -11.5H104.8c-6.3 0 -11.4 -5.1 -11.4 -11.4m550 0c0 6.3 -5.2 11.4 -11.5 11.4H540.2c-6.3 0 -11.4 5.2 -11.4 11.5c0 -6.3 -5.2 -11.5 -11.5 -11.5H425.7c-6.4 0 -11.5 -5.1 -11.5 -11.4" class="g2_122"/>
</g>
</svg>