<?xml version="1.0" encoding="UTF-8" standalone="no"?>
<!DOCTYPE svg PUBLIC "-//W3C//DTD SVG 1.1//EN"
"http://www.w3.org/Graphics/SVG/1.1/DTD/svg11.dtd">
<svg viewBox="0 0 714 1017" version="1.1" xmlns="http://www.w3.org/2000/svg" xmlns:xlink="http://www.w3.org/1999/xlink">
<defs>
<clipPath id="c0_339"><path d="M70 258.6V97H622.3V258.6Z"/></clipPath>
<clipPath id="c1_339"><path d="M70 259.1V95.6H623V259.1Z"/></clipPath>
<clipPath id="c2_339"><path d="M167.7 883.6V747.7H525.2V883.6Z"/></clipPath>
<style type="text/css"><![CDATA[
.g0_339{
fill: #FFF;
}
.g1_339{
fill: none;
stroke: #000;
stroke-width: 1.145;
stroke-miterlimit: 10;
}
.g2_339{
fill: #000;
}
.g3_339{
fill: none;
stroke: #000;
stroke-width: 2.291;
stroke-miterlimit: 10;
}
]]></style>
</defs>
<path d="M0 1017.7H717.2V-3.7H0V1017.7Z" class="g0_339"/>
<g clip-path="url(#c1_339)">
<path clip-path="url(#c0_339)" d="M70 97H622.3V258.6H70V97Z" class="g0_339"/>
<path d="M88.8 235.1l8.6 -22.9" class="g1_339"/>
<path d="M74 235.1H95.1c.5 0 .9 .1 1.3 .2c.4 .2 .8 .5 1.1 .8c.3 .3 .6 .7 .8 1.1c.1 .4 .2 .9 .2 1.3v16.1c0 .4 -.1 .8 -.2 1.3c-.2 .4 -.5 .8 -.8 1.1c-.3 .3 -.7 .6 -1.1 .7c-.4 .2 -.8 .3 -1.3 .3H74c-.5 0 -.9 -.1 -1.3 -.3c-.4 -.1 -.8 -.4 -1.1 -.7c-.4 -.3 -.6 -.7 -.8 -1.1c-.1 -.5 -.2 -.9 -.2 -1.3V238.5c0 -.4 .1 -.9 .2 -1.3c.2 -.4 .4 -.8 .8 -1.1c.3 -.3 .7 -.6 1.1 -.8c.4 -.1 .8 -.2 1.3 -.2Z" class="g0_339"/>
<path d="M74 235.1H95.1c.5 0 .9 .1 1.3 .2c.4 .2 .8 .5 1.1 .8c.3 .3 .6 .7 .8 1.1c.1 .4 .2 .9 .2 1.3v16.1c0 .4 -.1 .8 -.2 1.3c-.2 .4 -.5 .8 -.8 1.1c-.3 .3 -.7 .6 -1.1 .7c-.4 .2 -.8 .3 -1.3 .3H74c-.5 0 -.9 -.1 -1.3 -.3c-.4 -.1 -.8 -.4 -1.1 -.7c-.4 -.3 -.6 -.7 -.8 -1.1c-.1 -.5 -.2 -.9 -.2 -1.3V238.5c0 -.4 .1 -.9 .2 -1.3c.2 -.4 .4 -.8 .8 -1.1c.3 -.3 .7 -.6 1.1 -.8c.4 -.1 .8 -.2 1.3 -.2Zm39.7 0l-8 -22.9" class="g1_339"/>
<path d="M107.2 235.1h21.1c.5 0 .9 .1 1.3 .2c.5 .2 .8 .5 1.2 .8c.3 .3 .5 .7 .7 1.1c.2 .4 .3 .9 .3 1.3v16.1c0 .4 -.1 .8 -.3 1.3c-.2 .4 -.4 .8 -.7 1.1c-.4 .3 -.7 .6 -1.2 .7c-.4 .2 -.8 .3 -1.3 .3H107.2c-.4 0 -.9 -.1 -1.3 -.3c-.4 -.1 -.8 -.4 -1.1 -.7c-.3 -.3 -.6 -.7 -.7 -1.1c-.2 -.5 -.3 -.9 -.3 -1.3V238.5c0 -.4 .1 -.9 .3 -1.3c.1 -.4 .4 -.8 .7 -1.1c.3 -.3 .7 -.6 1.1 -.8c.4 -.1 .9 -.2 1.3 -.2Z" class="g0_339"/>
<path d="M107.2 235.1h21.1c.5 0 .9 .1 1.3 .2c.5 .2 .8 .5 1.2 .8c.3 .3 .5 .7 .7 1.1c.2 .4 .3 .9 .3 1.3v16.1c0 .4 -.1 .8 -.3 1.3c-.2 .4 -.4 .8 -.7 1.1c-.4 .3 -.7 .6 -1.2 .7c-.4 .2 -.8 .3 -1.3 .3H107.2c-.4 0 -.9 -.1 -1.3 -.3c-.4 -.1 -.8 -.4 -1.1 -.7c-.3 -.3 -.6 -.7 -.7 -1.1c-.2 -.5 -.3 -.9 -.3 -1.3V238.5c0 -.4 .1 -.9 .3 -1.3c.1 -.4 .4 -.8 .7 -1.1c.3 -.3 .7 -.6 1.1 -.8c.4 -.1 .9 -.2 1.3 -.2Zm48.9 0l8.1 -22.9" class="g1_339"/>
<path d="M141.6 235.1h21.1c.5 0 .9 .1 1.3 .2c.4 .2 .8 .5 1.1 .8c.4 .3 .6 .7 .8 1.1c.2 .4 .2 .9 .2 1.3v16.1c0 .4 0 .8 -.2 1.3c-.2 .4 -.4 .8 -.8 1.1c-.3 .3 -.7 .6 -1.1 .7c-.4 .2 -.8 .3 -1.3 .3H141.6c-.5 0 -.9 -.1 -1.3 -.3c-.4 -.1 -.8 -.4 -1.1 -.7c-.3 -.3 -.6 -.7 -.8 -1.1c-.1 -.5 -.2 -.9 -.2 -1.3V238.5c0 -.4 .1 -.9 .2 -1.3c.2 -.4 .5 -.8 .8 -1.1c.3 -.3 .7 -.6 1.1 -.8c.4 -.1 .8 -.2 1.3 -.2Z" class="g0_339"/>
<path d="M141.6 235.1h21.1c.5 0 .9 .1 1.3 .2c.4 .2 .8 .5 1.1 .8c.4 .3 .6 .7 .8 1.1c.2 .4 .2 .9 .2 1.3v16.1c0 .4 0 .8 -.2 1.3c-.2 .4 -.4 .8 -.8 1.1c-.3 .3 -.7 .6 -1.1 .7c-.4 .2 -.8 .3 -1.3 .3H141.6c-.5 0 -.9 -.1 -1.3 -.3c-.4 -.1 -.8 -.4 -1.1 -.7c-.3 -.3 -.6 -.7 -.8 -1.1c-.1 -.5 -.2 -.9 -.2 -1.3V238.5c0 -.4 .1 -.9 .2 -1.3c.2 -.4 .5 -.8 .8 -1.1c.3 -.3 .7 -.6 1.1 -.8c.4 -.1 .8 -.2 1.3 -.2Zm39.5 0l-8.6 -22.9" class="g1_339"/>
<path d="M174.8 235.1h21.1c.5 0 .9 .1 1.3 .2c.5 .2 .8 .5 1.2 .8c.3 .3 .5 .7 .7 1.1c.2 .4 .3 .9 .3 1.3v16.1c0 .4 -.1 .8 -.3 1.3c-.2 .4 -.4 .8 -.7 1.1c-.4 .3 -.7 .6 -1.2 .7c-.4 .2 -.8 .3 -1.3 .3H174.8c-.4 0 -.9 -.1 -1.3 -.3c-.4 -.1 -.8 -.4 -1.1 -.7c-.3 -.3 -.6 -.7 -.7 -1.1c-.2 -.5 -.3 -.9 -.3 -1.3V238.5c0 -.4 .1 -.9 .3 -1.3c.1 -.4 .4 -.8 .7 -1.1c.3 -.3 .7 -.6 1.1 -.8c.4 -.1 .9 -.2 1.3 -.2Z" class="g0_339"/>
<path d="M174.8 235.1h21.1c.5 0 .9 .1 1.3 .2c.5 .2 .8 .5 1.2 .8c.3 .3 .5 .7 .7 1.1c.2 .4 .3 .9 .3 1.3v16.1c0 .4 -.1 .8 -.3 1.3c-.2 .4 -.4 .8 -.7 1.1c-.4 .3 -.7 .6 -1.2 .7c-.4 .2 -.8 .3 -1.3 .3H174.8c-.4 0 -.9 -.1 -1.3 -.3c-.4 -.1 -.8 -.4 -1.1 -.7c-.3 -.3 -.6 -.7 -.7 -1.1c-.2 -.5 -.3 -.9 -.3 -1.3V238.5c0 -.4 .1 -.9 .3 -1.3c.1 -.4 .4 -.8 .7 -1.1c.3 -.3 .7 -.6 1.1 -.8c.4 -.1 .9 -.2 1.3 -.2Zm48.1 0l8.6 -22.9" class="g1_339"/>
<path d="M208.1 235.1h21.1c.4 0 .9 .1 1.3 .2c.4 .2 .8 .5 1.1 .8c.3 .3 .6 .7 .7 1.1c.2 .4 .3 .9 .3 1.3v16.1c0 .4 -.1 .8 -.3 1.3c-.1 .4 -.4 .8 -.7 1.1c-.3 .3 -.7 .6 -1.1 .7c-.4 .2 -.9 .3 -1.3 .3H208.1c-.5 0 -.9 -.1 -1.4 -.3c-.4 -.1 -.7 -.4 -1.1 -.7c-.3 -.3 -.5 -.7 -.7 -1.1c-.2 -.5 -.3 -.9 -.3 -1.3V238.5c0 -.4 .1 -.9 .3 -1.3c.2 -.4 .4 -.8 .7 -1.1c.4 -.3 .7 -.6 1.1 -.8c.5 -.1 .9 -.2 1.4 -.2Z" class="g0_339"/>
<path d="M208.1 235.1h21.1c.4 0 .9 .1 1.3 .2c.4 .2 .8 .5 1.1 .8c.3 .3 .6 .7 .7 1.1c.2 .4 .3 .9 .3 1.3v16.1c0 .4 -.1 .8 -.3 1.3c-.1 .4 -.4 .8 -.7 1.1c-.3 .3 -.7 .6 -1.1 .7c-.4 .2 -.9 .3 -1.3 .3H208.1c-.5 0 -.9 -.1 -1.4 -.3c-.4 -.1 -.7 -.4 -1.1 -.7c-.3 -.3 -.5 -.7 -.7 -1.1c-.2 -.5 -.3 -.9 -.3 -1.3V238.5c0 -.4 .1 -.9 .3 -1.3c.2 -.4 .4 -.8 .7 -1.1c.4 -.3 .7 -.6 1.1 -.8c.5 -.1 .9 -.2 1.4 -.2Zm39.7 0l-8 -22.9" class="g1_339"/>
<path d="M241.3 235.1h21.1c.4 0 .9 .1 1.3 .2c.4 .2 .8 .5 1.1 .8c.3 .3 .6 .7 .8 1.1c.1 .4 .2 .9 .2 1.3v16.1c0 .4 -.1 .8 -.2 1.3c-.2 .4 -.5 .8 -.8 1.1c-.3 .3 -.7 .6 -1.1 .7c-.4 .2 -.9 .3 -1.3 .3H241.3c-.5 0 -.9 -.1 -1.3 -.3c-.4 -.1 -.8 -.4 -1.1 -.7c-.4 -.3 -.6 -.7 -.8 -1.1c-.2 -.5 -.2 -.9 -.2 -1.3V238.5c0 -.4 0 -.9 .2 -1.3c.2 -.4 .4 -.8 .8 -1.1c.3 -.3 .7 -.6 1.1 -.8c.4 -.1 .8 -.2 1.3 -.2Z" class="g0_339"/>
<path d="M241.3 235.1h21.1c.4 0 .9 .1 1.3 .2c.4 .2 .8 .5 1.1 .8c.3 .3 .6 .7 .8 1.1c.1 .4 .2 .9 .2 1.3v16.1c0 .4 -.1 .8 -.2 1.3c-.2 .4 -.5 .8 -.8 1.1c-.3 .3 -.7 .6 -1.1 .7c-.4 .2 -.9 .3 -1.3 .3H241.3c-.5 0 -.9 -.1 -1.3 -.3c-.4 -.1 -.8 -.4 -1.1 -.7c-.4 -.3 -.6 -.7 -.8 -1.1c-.2 -.5 -.2 -.9 -.2 -1.3V238.5c0 -.4 0 -.9 .2 -1.3c.2 -.4 .4 -.8 .8 -1.1c.3 -.3 .7 -.6 1.1 -.8c.4 -.1 .8 -.2 1.3 -.2Zm48.9 0l8.1 -22.9" class="g1_339"/>
<path d="M275.7 235.1h21.1c.4 0 .9 .1 1.3 .2c.4 .2 .8 .5 1.1 .8c.3 .3 .6 .7 .7 1.1c.2 .4 .3 .9 .3 1.3v16.1c0 .4 -.1 .8 -.3 1.3c-.1 .4 -.4 .8 -.7 1.1c-.3 .3 -.7 .6 -1.1 .7c-.4 .2 -.9 .3 -1.3 .3H275.7c-.5 0 -.9 -.1 -1.3 -.3c-.5 -.1 -.8 -.4 -1.2 -.7c-.3 -.3 -.5 -.7 -.7 -1.1c-.2 -.5 -.3 -.9 -.3 -1.3V238.5c0 -.4 .1 -.9 .3 -1.3c.2 -.4 .4 -.8 .7 -1.1c.4 -.3 .7 -.6 1.2 -.8c.4 -.1 .8 -.2 1.3 -.2Z" class="g2_339"/>
<path d="M275.7 235.1h21.1c.4 0 .9 .1 1.3 .2c.4 .2 .8 .5 1.1 .8c.3 .3 .6 .7 .7 1.1c.2 .4 .3 .9 .3 1.3v16.1c0 .4 -.1 .8 -.3 1.3c-.1 .4 -.4 .8 -.7 1.1c-.3 .3 -.7 .6 -1.1 .7c-.4 .2 -.9 .3 -1.3 .3H275.7c-.5 0 -.9 -.1 -1.3 -.3c-.5 -.1 -.8 -.4 -1.2 -.7c-.3 -.3 -.5 -.7 -.7 -1.1c-.2 -.5 -.3 -.9 -.3 -1.3V238.5c0 -.4 .1 -.9 .3 -1.3c.2 -.4 .4 -.8 .7 -1.1c.4 -.3 .7 -.6 1.2 -.8c.4 -.1 .8 -.2 1.3 -.2Zm39.5 0l-8.6 -22.9" class="g1_339"/>
<path d="M308.9 235.1H330c.4 0 .9 .1 1.3 .2c.4 .2 .8 .5 1.1 .8c.3 .3 .6 .7 .8 1.1c.1 .4 .2 .9 .2 1.3v16.1c0 .4 -.1 .8 -.2 1.3c-.2 .4 -.5 .8 -.8 1.1c-.3 .3 -.7 .6 -1.1 .7c-.4 .2 -.9 .3 -1.3 .3H308.9c-.5 0 -.9 -.1 -1.3 -.3c-.4 -.1 -.8 -.4 -1.1 -.7c-.4 -.3 -.6 -.7 -.8 -1.1c-.2 -.5 -.2 -.9 -.2 -1.3V238.5c0 -.4 0 -.9 .2 -1.3c.2 -.4 .4 -.8 .8 -1.1c.3 -.3 .7 -.6 1.1 -.8c.4 -.1 .8 -.2 1.3 -.2Z" class="g0_339"/>
<path d="M308.9 235.1H330c.4 0 .9 .1 1.3 .2c.4 .2 .8 .5 1.1 .8c.3 .3 .6 .7 .8 1.1c.1 .4 .2 .9 .2 1.3v16.1c0 .4 -.1 .8 -.2 1.3c-.2 .4 -.5 .8 -.8 1.1c-.3 .3 -.7 .6 -1.1 .7c-.4 .2 -.9 .3 -1.3 .3H308.9c-.5 0 -.9 -.1 -1.3 -.3c-.4 -.1 -.8 -.4 -1.1 -.7c-.4 -.3 -.6 -.7 -.8 -1.1c-.2 -.5 -.2 -.9 -.2 -1.3V238.5c0 -.4 0 -.9 .2 -1.3c.2 -.4 .4 -.8 .8 -1.1c.3 -.3 .7 -.6 1.1 -.8c.4 -.1 .8 -.2 1.3 -.2ZM109.7 189.2l15.9 -22.9" class="g1_339"/>
<path d="M74 189.2h55.4c.4 0 .9 .1 1.3 .3c.4 .2 .8 .4 1.1 .7c.3 .4 .6 .7 .8 1.2c.1 .4 .2 .8 .2 1.3v16c0 .5 -.1 .9 -.2 1.3c-.2 .5 -.5 .8 -.8 1.1c-.3 .4 -.7 .6 -1.1 .8c-.4 .2 -.9 .3 -1.3 .3H74c-.5 0 -.9 -.1 -1.3 -.3c-.4 -.2 -.8 -.4 -1.1 -.8c-.4 -.3 -.6 -.6 -.8 -1.1c-.1 -.4 -.2 -.8 -.2 -1.3v-16c0 -.5 .1 -.9 .2 -1.3c.2 -.5 .4 -.8 .8 -1.2c.3 -.3 .7 -.5 1.1 -.7c.4 -.2 .8 -.3 1.3 -.3Z" class="g0_339"/>
<path d="M74 189.2h55.4c.4 0 .9 .1 1.3 .3c.4 .2 .8 .4 1.1 .7c.3 .4 .6 .7 .8 1.2c.1 .4 .2 .8 .2 1.3v16c0 .5 -.1 .9 -.2 1.3c-.2 .5 -.5 .8 -.8 1.1c-.3 .4 -.7 .6 -1.1 .8c-.4 .2 -.9 .3 -1.3 .3H74c-.5 0 -.9 -.1 -1.3 -.3c-.4 -.2 -.8 -.4 -1.1 -.8c-.4 -.3 -.6 -.6 -.8 -1.1c-.1 -.4 -.2 -.8 -.2 -1.3v-16c0 -.5 .1 -.9 .2 -1.3c.2 -.5 .4 -.8 .8 -1.2c.3 -.3 .7 -.5 1.1 -.7c.4 -.2 .8 -.3 1.3 -.3Zm85.5 0L142.2 166.3" class="g1_339"/>
<path d="M140.5 189.2h55.3c.5 0 .9 .1 1.4 .3c.4 .2 .7 .4 1.1 .7c.3 .4 .5 .7 .7 1.2c.2 .4 .3 .8 .3 1.3v16c0 .5 -.1 .9 -.3 1.3c-.2 .5 -.4 .8 -.7 1.1c-.4 .4 -.7 .6 -1.1 .8c-.5 .2 -.9 .3 -1.4 .3H140.5c-.5 0 -.9 -.1 -1.4 -.3c-.4 -.2 -.7 -.4 -1.1 -.8c-.3 -.3 -.5 -.6 -.7 -1.1c-.2 -.4 -.3 -.8 -.3 -1.3v-16c0 -.5 .1 -.9 .3 -1.3c.2 -.5 .4 -.8 .7 -1.2c.4 -.3 .7 -.5 1.1 -.7c.5 -.2 .9 -.3 1.4 -.3Z" class="g0_339"/>
<path d="M140.5 189.2h55.3c.5 0 .9 .1 1.4 .3c.4 .2 .7 .4 1.1 .7c.3 .4 .5 .7 .7 1.2c.2 .4 .3 .8 .3 1.3v16c0 .5 -.1 .9 -.3 1.3c-.2 .5 -.4 .8 -.7 1.1c-.4 .4 -.7 .6 -1.1 .8c-.5 .2 -.9 .3 -1.4 .3H140.5c-.5 0 -.9 -.1 -1.4 -.3c-.4 -.2 -.7 -.4 -1.1 -.8c-.3 -.3 -.5 -.6 -.7 -1.1c-.2 -.4 -.3 -.8 -.3 -1.3v-16c0 -.5 .1 -.9 .3 -1.3c.2 -.5 .4 -.8 .7 -1.2c.4 -.3 .7 -.5 1.1 -.7c.5 -.2 .9 -.3 1.4 -.3Zm103.9 0l17.4 -22.9" class="g1_339"/>
<path d="M208.1 189.2h55.3c.5 0 .9 .1 1.4 .3c.4 .2 .7 .4 1.1 .7c.3 .4 .5 .7 .7 1.2c.2 .4 .3 .8 .3 1.3v16c0 .5 -.1 .9 -.3 1.3c-.2 .5 -.4 .8 -.7 1.1c-.4 .4 -.7 .6 -1.1 .8c-.5 .2 -.9 .3 -1.4 .3H208.1c-.5 0 -.9 -.1 -1.4 -.3c-.4 -.2 -.7 -.4 -1.1 -.8c-.3 -.3 -.5 -.6 -.7 -1.1c-.2 -.4 -.3 -.8 -.3 -1.3v-16c0 -.5 .1 -.9 .3 -1.3c.2 -.5 .4 -.8 .7 -1.2c.4 -.3 .7 -.5 1.1 -.7c.5 -.2 .9 -.3 1.4 -.3Z" class="g0_339"/>
<path d="M208.1 189.2h55.3c.5 0 .9 .1 1.4 .3c.4 .2 .7 .4 1.1 .7c.3 .4 .5 .7 .7 1.2c.2 .4 .3 .8 .3 1.3v16c0 .5 -.1 .9 -.3 1.3c-.2 .5 -.4 .8 -.7 1.1c-.4 .4 -.7 .6 -1.1 .8c-.5 .2 -.9 .3 -1.4 .3H208.1c-.5 0 -.9 -.1 -1.4 -.3c-.4 -.2 -.7 -.4 -1.1 -.8c-.3 -.3 -.5 -.6 -.7 -1.1c-.2 -.4 -.3 -.8 -.3 -1.3v-16c0 -.5 .1 -.9 .3 -1.3c.2 -.5 .4 -.8 .7 -1.2c.4 -.3 .7 -.5 1.1 -.7c.5 -.2 .9 -.3 1.4 -.3Zm86.3 0L278.5 166.3" class="g1_339"/>
<path d="M274.6 189.2H330c.4 0 .9 .1 1.3 .3c.4 .2 .8 .4 1.1 .7c.3 .4 .6 .7 .8 1.2c.1 .4 .2 .8 .2 1.3v16c0 .5 -.1 .9 -.2 1.3c-.2 .5 -.5 .8 -.8 1.1c-.3 .4 -.7 .6 -1.1 .8c-.4 .2 -.9 .3 -1.3 .3H274.6c-.4 0 -.9 -.1 -1.3 -.3c-.4 -.2 -.8 -.4 -1.1 -.8c-.3 -.3 -.6 -.6 -.8 -1.1c-.1 -.4 -.2 -.8 -.2 -1.3v-16c0 -.5 .1 -.9 .2 -1.3c.2 -.5 .5 -.8 .8 -1.2c.3 -.3 .7 -.5 1.1 -.7c.4 -.2 .9 -.3 1.3 -.3Z" class="g2_339"/>
<path d="M274.6 189.2H330c.4 0 .9 .1 1.3 .3c.4 .2 .8 .4 1.1 .7c.3 .4 .6 .7 .8 1.2c.1 .4 .2 .8 .2 1.3v16c0 .5 -.1 .9 -.2 1.3c-.2 .5 -.5 .8 -.8 1.1c-.3 .4 -.7 .6 -1.1 .8c-.4 .2 -.9 .3 -1.3 .3H274.6c-.4 0 -.9 -.1 -1.3 -.3c-.4 -.2 -.8 -.4 -1.1 -.8c-.3 -.3 -.6 -.6 -.8 -1.1c-.1 -.4 -.2 -.8 -.2 -1.3v-16c0 -.5 .1 -.9 .2 -1.3c.2 -.5 .5 -.8 .8 -1.2c.3 -.3 .7 -.5 1.1 -.7c.4 -.2 .9 -.3 1.3 -.3ZM150.8 143.4l34.3 -22.9" class="g1_339"/>
<path d="M74 143.4H193.2c.4 0 .9 .1 1.3 .3c.4 .1 .8 .4 1.1 .7c.3 .3 .6 .7 .7 1.1c.2 .4 .3 .9 .3 1.3v16.1c0 .4 -.1 .9 -.3 1.3c-.1 .4 -.4 .8 -.7 1.1c-.3 .3 -.7 .6 -1.1 .8c-.4 .1 -.9 .2 -1.3 .2H74c-.5 0 -.9 -.1 -1.3 -.2c-.4 -.2 -.8 -.5 -1.1 -.8c-.4 -.3 -.6 -.7 -.8 -1.1c-.1 -.4 -.2 -.9 -.2 -1.3V146.8c0 -.4 .1 -.9 .2 -1.3c.2 -.4 .4 -.8 .8 -1.1c.3 -.3 .7 -.6 1.1 -.7c.4 -.2 .8 -.3 1.3 -.3Z" class="g0_339"/>
<path d="M74 143.4H193.2c.4 0 .9 .1 1.3 .3c.4 .1 .8 .4 1.1 .7c.3 .3 .6 .7 .7 1.1c.2 .4 .3 .9 .3 1.3v16.1c0 .4 -.1 .9 -.3 1.3c-.1 .4 -.4 .8 -.7 1.1c-.3 .3 -.7 .6 -1.1 .8c-.4 .1 -.9 .2 -1.3 .2H74c-.5 0 -.9 -.1 -1.3 -.2c-.4 -.2 -.8 -.5 -1.1 -.8c-.4 -.3 -.6 -.7 -.8 -1.1c-.1 -.4 -.2 -.9 -.2 -1.3V146.8c0 -.4 .1 -.9 .2 -1.3c.2 -.4 .4 -.8 .8 -1.1c.3 -.3 .7 -.6 1.1 -.7c.4 -.2 .8 -.3 1.3 -.3Z" class="g1_339"/>
<path d="M211 143.4H330c.4 0 .9 .1 1.3 .3c.4 .1 .8 .4 1.1 .7c.3 .3 .6 .7 .8 1.1c.1 .4 .2 .9 .2 1.3v16.1c0 .4 -.1 .9 -.2 1.3c-.2 .4 -.5 .8 -.8 1.1c-.3 .3 -.7 .6 -1.1 .8c-.4 .1 -.9 .2 -1.3 .2H211c-.4 0 -.9 -.1 -1.3 -.2c-.4 -.2 -.8 -.5 -1.1 -.8c-.3 -.3 -.6 -.7 -.8 -1.1c-.1 -.4 -.2 -.9 -.2 -1.3V146.8c0 -.4 .1 -.9 .2 -1.3c.2 -.4 .5 -.8 .8 -1.1c.3 -.3 .7 -.6 1.1 -.7c.4 -.2 .9 -.3 1.3 -.3Z" class="g2_339"/>
<path d="M211 143.4H330c.4 0 .9 .1 1.3 .3c.4 .1 .8 .4 1.1 .7c.3 .3 .6 .7 .8 1.1c.1 .4 .2 .9 .2 1.3v16.1c0 .4 -.1 .9 -.2 1.3c-.2 .4 -.5 .8 -.8 1.1c-.3 .3 -.7 .6 -1.1 .8c-.4 .1 -.9 .2 -1.3 .2H211c-.4 0 -.9 -.1 -1.3 -.2c-.4 -.2 -.8 -.5 -1.1 -.8c-.3 -.3 -.6 -.7 -.8 -1.1c-.1 -.4 -.2 -.9 -.2 -1.3V146.8c0 -.4 .1 -.9 .2 -1.3c.2 -.4 .5 -.8 .8 -1.1c.3 -.3 .7 -.6 1.1 -.7c.4 -.2 .9 -.3 1.3 -.3Zm8.3 -22.9l34.1 22.9" class="g1_339"/>
<path d="M74 97.6H330.6c.4 0 .9 .1 1.3 .2c.4 .2 .8 .5 1.1 .8c.3 .3 .6 .7 .8 1.1c.1 .4 .2 .9 .2 1.3v16.1c0 .4 -.1 .8 -.2 1.3c-.2 .4 -.5 .8 -.8 1.1c-.3 .3 -.7 .6 -1.1 .7c-.4 .2 -.9 .3 -1.3 .3H74c-.5 0 -.9 -.1 -1.3 -.3c-.4 -.1 -.8 -.4 -1.1 -.7c-.4 -.3 -.6 -.7 -.8 -1.1c-.1 -.5 -.2 -.9 -.2 -1.3V101c0 -.4 .1 -.9 .2 -1.3c.2 -.4 .4 -.8 .8 -1.1c.3 -.3 .7 -.6 1.1 -.8c.4 -.1 .8 -.2 1.3 -.2Z" class="g2_339"/>
<path d="M74 97.6H330.6c.4 0 .9 .1 1.3 .2c.4 .2 .8 .5 1.1 .8c.3 .3 .6 .7 .8 1.1c.1 .4 .2 .9 .2 1.3v16.1c0 .4 -.1 .8 -.2 1.3c-.2 .4 -.5 .8 -.8 1.1c-.3 .3 -.7 .6 -1.1 .7c-.4 .2 -.9 .3 -1.3 .3H74c-.5 0 -.9 -.1 -1.3 -.3c-.4 -.1 -.8 -.4 -1.1 -.7c-.4 -.3 -.6 -.7 -.8 -1.1c-.1 -.5 -.2 -.9 -.2 -1.3V101c0 -.4 .1 -.9 .2 -1.3c.2 -.4 .4 -.8 .8 -1.1c.3 -.3 .7 -.6 1.1 -.8c.4 -.1 .8 -.2 1.3 -.2ZM376 235.1l8.5 -22.9" class="g1_339"/>
<path d="M361.1 235.1h21.1c.5 0 .9 .1 1.3 .2c.5 .2 .8 .5 1.2 .8c.3 .3 .5 .7 .7 1.1c.2 .4 .3 .9 .3 1.3v16.1c0 .4 -.1 .8 -.3 1.3c-.2 .4 -.4 .8 -.7 1.1c-.4 .3 -.7 .6 -1.2 .7c-.4 .2 -.8 .3 -1.3 .3H361.1c-.4 0 -.9 -.1 -1.3 -.3c-.4 -.1 -.8 -.4 -1.1 -.7c-.3 -.3 -.6 -.7 -.7 -1.1c-.2 -.5 -.3 -.9 -.3 -1.3V238.5c0 -.4 .1 -.9 .3 -1.3c.1 -.4 .4 -.8 .7 -1.1c.3 -.3 .7 -.6 1.1 -.8c.4 -.1 .9 -.2 1.3 -.2Z" class="g0_339"/>
<path d="M361.1 235.1h21.1c.5 0 .9 .1 1.3 .2c.5 .2 .8 .5 1.2 .8c.3 .3 .5 .7 .7 1.1c.2 .4 .3 .9 .3 1.3v16.1c0 .4 -.1 .8 -.3 1.3c-.2 .4 -.4 .8 -.7 1.1c-.4 .3 -.7 .6 -1.2 .7c-.4 .2 -.8 .3 -1.3 .3H361.1c-.4 0 -.9 -.1 -1.3 -.3c-.4 -.1 -.8 -.4 -1.1 -.7c-.3 -.3 -.6 -.7 -.7 -1.1c-.2 -.5 -.3 -.9 -.3 -1.3V238.5c0 -.4 .1 -.9 .3 -1.3c.1 -.4 .4 -.8 .7 -1.1c.3 -.3 .7 -.6 1.1 -.8c.4 -.1 .9 -.2 1.3 -.2Zm39.8 0l-8 -22.9" class="g1_339"/>
<path d="M394.4 235.1h21.1c.4 0 .9 .1 1.3 .2c.4 .2 .8 .5 1.1 .8c.3 .3 .6 .7 .7 1.1c.2 .4 .3 .9 .3 1.3v16.1c0 .4 -.1 .8 -.3 1.3c-.1 .4 -.4 .8 -.7 1.1c-.3 .3 -.7 .6 -1.1 .7c-.4 .2 -.9 .3 -1.3 .3H394.4c-.5 0 -.9 -.1 -1.4 -.3c-.4 -.1 -.7 -.4 -1.1 -.7c-.3 -.3 -.5 -.7 -.7 -1.1c-.2 -.5 -.3 -.9 -.3 -1.3V238.5c0 -.4 .1 -.9 .3 -1.3c.2 -.4 .4 -.8 .7 -1.1c.4 -.3 .7 -.6 1.1 -.8c.5 -.1 .9 -.2 1.4 -.2Z" class="g0_339"/>
<path d="M394.4 235.1h21.1c.4 0 .9 .1 1.3 .2c.4 .2 .8 .5 1.1 .8c.3 .3 .6 .7 .7 1.1c.2 .4 .3 .9 .3 1.3v16.1c0 .4 -.1 .8 -.3 1.3c-.1 .4 -.4 .8 -.7 1.1c-.3 .3 -.7 .6 -1.1 .7c-.4 .2 -.9 .3 -1.3 .3H394.4c-.5 0 -.9 -.1 -1.4 -.3c-.4 -.1 -.7 -.4 -1.1 -.7c-.3 -.3 -.5 -.7 -.7 -1.1c-.2 -.5 -.3 -.9 -.3 -1.3V238.5c0 -.4 .1 -.9 .3 -1.3c.2 -.4 .4 -.8 .7 -1.1c.4 -.3 .7 -.6 1.1 -.8c.5 -.1 .9 -.2 1.4 -.2Zm48.9 0l8 -22.9" class="g1_339"/>
<path d="M428.7 235.1h21.1c.5 0 .9 .1 1.3 .2c.5 .2 .8 .5 1.2 .8c.3 .3 .5 .7 .7 1.1c.2 .4 .3 .9 .3 1.3v16.1c0 .4 -.1 .8 -.3 1.3c-.2 .4 -.4 .8 -.7 1.1c-.4 .3 -.7 .6 -1.2 .7c-.4 .2 -.8 .3 -1.3 .3H428.7c-.4 0 -.9 -.1 -1.3 -.3c-.4 -.1 -.8 -.4 -1.1 -.7c-.3 -.3 -.6 -.7 -.7 -1.1c-.2 -.5 -.3 -.9 -.3 -1.3V238.5c0 -.4 .1 -.9 .3 -1.3c.1 -.4 .4 -.8 .7 -1.1c.3 -.3 .7 -.6 1.1 -.8c.4 -.1 .9 -.2 1.3 -.2Z" class="g0_339"/>
<path d="M428.7 235.1h21.1c.5 0 .9 .1 1.3 .2c.5 .2 .8 .5 1.2 .8c.3 .3 .5 .7 .7 1.1c.2 .4 .3 .9 .3 1.3v16.1c0 .4 -.1 .8 -.3 1.3c-.2 .4 -.4 .8 -.7 1.1c-.4 .3 -.7 .6 -1.2 .7c-.4 .2 -.8 .3 -1.3 .3H428.7c-.4 0 -.9 -.1 -1.3 -.3c-.4 -.1 -.8 -.4 -1.1 -.7c-.3 -.3 -.6 -.7 -.7 -1.1c-.2 -.5 -.3 -.9 -.3 -1.3V238.5c0 -.4 .1 -.9 .3 -1.3c.1 -.4 .4 -.8 .7 -1.1c.3 -.3 .7 -.6 1.1 -.8c.4 -.1 .9 -.2 1.3 -.2Zm39.5 0l-8.6 -22.9" class="g1_339"/>
<path d="M462 235.1h21.1c.4 0 .9 .1 1.3 .2c.4 .2 .8 .5 1.1 .8c.3 .3 .6 .7 .7 1.1c.2 .4 .3 .9 .3 1.3v16.1c0 .4 -.1 .8 -.3 1.3c-.1 .4 -.4 .8 -.7 1.1c-.3 .3 -.7 .6 -1.1 .7c-.4 .2 -.9 .3 -1.3 .3H462c-.5 0 -.9 -.1 -1.3 -.3c-.5 -.1 -.8 -.4 -1.2 -.7c-.3 -.3 -.5 -.7 -.7 -1.1c-.2 -.5 -.3 -.9 -.3 -1.3V238.5c0 -.4 .1 -.9 .3 -1.3c.2 -.4 .4 -.8 .7 -1.1c.4 -.3 .7 -.6 1.2 -.8c.4 -.1 .8 -.2 1.3 -.2Z" class="g0_339"/>
<path d="M462 235.1h21.1c.4 0 .9 .1 1.3 .2c.4 .2 .8 .5 1.1 .8c.3 .3 .6 .7 .7 1.1c.2 .4 .3 .9 .3 1.3v16.1c0 .4 -.1 .8 -.3 1.3c-.1 .4 -.4 .8 -.7 1.1c-.3 .3 -.7 .6 -1.1 .7c-.4 .2 -.9 .3 -1.3 .3H462c-.5 0 -.9 -.1 -1.3 -.3c-.5 -.1 -.8 -.4 -1.2 -.7c-.3 -.3 -.5 -.7 -.7 -1.1c-.2 -.5 -.3 -.9 -.3 -1.3V238.5c0 -.4 .1 -.9 .3 -1.3c.2 -.4 .4 -.8 .7 -1.1c.4 -.3 .7 -.6 1.2 -.8c.4 -.1 .8 -.2 1.3 -.2Zm48 0l8.6 -22.9" class="g1_339"/>
<path d="M495.2 235.1h21.1c.4 0 .9 .1 1.3 .2c.4 .2 .8 .5 1.1 .8c.3 .3 .6 .7 .8 1.1c.1 .4 .2 .9 .2 1.3v16.1c0 .4 -.1 .8 -.2 1.3c-.2 .4 -.5 .8 -.8 1.1c-.3 .3 -.7 .6 -1.1 .7c-.4 .2 -.9 .3 -1.3 .3H495.2c-.5 0 -.9 -.1 -1.3 -.3c-.4 -.1 -.8 -.4 -1.1 -.7c-.4 -.3 -.6 -.7 -.8 -1.1c-.2 -.5 -.2 -.9 -.2 -1.3V238.5c0 -.4 0 -.9 .2 -1.3c.2 -.4 .4 -.8 .8 -1.1c.3 -.3 .7 -.6 1.1 -.8c.4 -.1 .8 -.2 1.3 -.2Z" class="g0_339"/>
<path d="M495.2 235.1h21.1c.4 0 .9 .1 1.3 .2c.4 .2 .8 .5 1.1 .8c.3 .3 .6 .7 .8 1.1c.1 .4 .2 .9 .2 1.3v16.1c0 .4 -.1 .8 -.2 1.3c-.2 .4 -.5 .8 -.8 1.1c-.3 .3 -.7 .6 -1.1 .7c-.4 .2 -.9 .3 -1.3 .3H495.2c-.5 0 -.9 -.1 -1.3 -.3c-.4 -.1 -.8 -.4 -1.1 -.7c-.4 -.3 -.6 -.7 -.8 -1.1c-.2 -.5 -.2 -.9 -.2 -1.3V238.5c0 -.4 0 -.9 .2 -1.3c.2 -.4 .4 -.8 .8 -1.1c.3 -.3 .7 -.6 1.1 -.8c.4 -.1 .8 -.2 1.3 -.2Zm39.7 0l-8 -22.9" class="g1_339"/>
<path d="M528.4 235.1h21.1c.5 0 .9 .1 1.3 .2c.5 .2 .8 .5 1.2 .8c.3 .3 .5 .7 .7 1.1c.2 .4 .3 .9 .3 1.3v16.1c0 .4 -.1 .8 -.3 1.3c-.2 .4 -.4 .8 -.7 1.1c-.4 .3 -.7 .6 -1.2 .7c-.4 .2 -.8 .3 -1.3 .3H528.4c-.4 0 -.9 -.1 -1.3 -.3c-.4 -.1 -.8 -.4 -1.1 -.7c-.3 -.3 -.6 -.7 -.7 -1.1c-.2 -.5 -.3 -.9 -.3 -1.3V238.5c0 -.4 .1 -.9 .3 -1.3c.1 -.4 .4 -.8 .7 -1.1c.3 -.3 .7 -.6 1.1 -.8c.4 -.1 .9 -.2 1.3 -.2Z" class="g0_339"/>
<path d="M528.4 235.1h21.1c.5 0 .9 .1 1.3 .2c.5 .2 .8 .5 1.2 .8c.3 .3 .5 .7 .7 1.1c.2 .4 .3 .9 .3 1.3v16.1c0 .4 -.1 .8 -.3 1.3c-.2 .4 -.4 .8 -.7 1.1c-.4 .3 -.7 .6 -1.2 .7c-.4 .2 -.8 .3 -1.3 .3H528.4c-.4 0 -.9 -.1 -1.3 -.3c-.4 -.1 -.8 -.4 -1.1 -.7c-.3 -.3 -.6 -.7 -.7 -1.1c-.2 -.5 -.3 -.9 -.3 -1.3V238.5c0 -.4 .1 -.9 .3 -1.3c.1 -.4 .4 -.8 .7 -1.1c.3 -.3 .7 -.6 1.1 -.8c.4 -.1 .9 -.2 1.3 -.2Zm49 0l8 -22.9" class="g1_339"/>
<path d="M562.8 235.1h21.1c.5 0 .9 .1 1.3 .2c.4 .2 .8 .5 1.1 .8c.3 .3 .6 .7 .8 1.1c.1 .4 .2 .9 .2 1.3v16.1c0 .4 -.1 .8 -.2 1.3c-.2 .4 -.5 .8 -.8 1.1c-.3 .3 -.7 .6 -1.1 .7c-.4 .2 -.8 .3 -1.3 .3H562.8c-.5 0 -.9 -.1 -1.3 -.3c-.4 -.1 -.8 -.4 -1.1 -.7c-.4 -.3 -.6 -.7 -.8 -1.1c-.1 -.5 -.2 -.9 -.2 -1.3V238.5c0 -.4 .1 -.9 .2 -1.3c.2 -.4 .4 -.8 .8 -1.1c.3 -.3 .7 -.6 1.1 -.8c.4 -.1 .8 -.2 1.3 -.2Z" class="g2_339"/>
<path d="M562.8 235.1h21.1c.5 0 .9 .1 1.3 .2c.4 .2 .8 .5 1.1 .8c.3 .3 .6 .7 .8 1.1c.1 .4 .2 .9 .2 1.3v16.1c0 .4 -.1 .8 -.2 1.3c-.2 .4 -.5 .8 -.8 1.1c-.3 .3 -.7 .6 -1.1 .7c-.4 .2 -.8 .3 -1.3 .3H562.8c-.5 0 -.9 -.1 -1.3 -.3c-.4 -.1 -.8 -.4 -1.1 -.7c-.4 -.3 -.6 -.7 -.8 -1.1c-.1 -.5 -.2 -.9 -.2 -1.3V238.5c0 -.4 .1 -.9 .2 -1.3c.2 -.4 .4 -.8 .8 -1.1c.3 -.3 .7 -.6 1.1 -.8c.4 -.1 .8 -.2 1.3 -.2Zm39.5 0l-8.6 -22.9" class="g1_339"/>
<path d="M596 235.1h21.1c.5 0 .9 .1 1.3 .2c.5 .2 .8 .5 1.2 .8c.3 .3 .5 .7 .7 1.1c.2 .4 .3 .9 .3 1.3v16.1c0 .4 -.1 .8 -.3 1.3c-.2 .4 -.4 .8 -.7 1.1c-.4 .3 -.7 .6 -1.2 .7c-.4 .2 -.8 .3 -1.3 .3H596c-.4 0 -.9 -.1 -1.3 -.3c-.4 -.1 -.8 -.4 -1.1 -.7c-.3 -.3 -.6 -.7 -.7 -1.1c-.2 -.5 -.3 -.9 -.3 -1.3V238.5c0 -.4 .1 -.9 .3 -1.3c.1 -.4 .4 -.8 .7 -1.1c.3 -.3 .7 -.6 1.1 -.8c.4 -.1 .9 -.2 1.3 -.2Z" class="g0_339"/>
<path d="M596 235.1h21.1c.5 0 .9 .1 1.3 .2c.5 .2 .8 .5 1.2 .8c.3 .3 .5 .7 .7 1.1c.2 .4 .3 .9 .3 1.3v16.1c0 .4 -.1 .8 -.3 1.3c-.2 .4 -.4 .8 -.7 1.1c-.4 .3 -.7 .6 -1.2 .7c-.4 .2 -.8 .3 -1.3 .3H596c-.4 0 -.9 -.1 -1.3 -.3c-.4 -.1 -.8 -.4 -1.1 -.7c-.3 -.3 -.6 -.7 -.7 -1.1c-.2 -.5 -.3 -.9 -.3 -1.3V238.5c0 -.4 .1 -.9 .3 -1.3c.1 -.4 .4 -.8 .7 -1.1c.3 -.3 .7 -.6 1.1 -.8c.4 -.1 .9 -.2 1.3 -.2ZM396.8 189.2l15.9 -22.9" class="g1_339"/>
<path d="M361.1 189.2h55.4c.5 0 .9 .1 1.3 .3c.5 .2 .8 .4 1.1 .7c.4 .4 .6 .7 .8 1.2c.2 .4 .3 .8 .3 1.3v16c0 .5 -.1 .9 -.3 1.3c-.2 .5 -.4 .8 -.8 1.1c-.3 .4 -.6 .6 -1.1 .8c-.4 .2 -.8 .3 -1.3 .3H361.1c-.4 0 -.9 -.1 -1.3 -.3c-.4 -.2 -.8 -.4 -1.1 -.8c-.3 -.3 -.6 -.6 -.7 -1.1c-.2 -.4 -.3 -.8 -.3 -1.3v-16c0 -.5 .1 -.9 .3 -1.3c.1 -.5 .4 -.8 .7 -1.2c.3 -.3 .7 -.5 1.1 -.7c.4 -.2 .9 -.3 1.3 -.3Z" class="g0_339"/>
<path d="M361.1 189.2h55.4c.5 0 .9 .1 1.3 .3c.5 .2 .8 .4 1.1 .7c.4 .4 .6 .7 .8 1.2c.2 .4 .3 .8 .3 1.3v16c0 .5 -.1 .9 -.3 1.3c-.2 .5 -.4 .8 -.8 1.1c-.3 .4 -.6 .6 -1.1 .8c-.4 .2 -.8 .3 -1.3 .3H361.1c-.4 0 -.9 -.1 -1.3 -.3c-.4 -.2 -.8 -.4 -1.1 -.8c-.3 -.3 -.6 -.6 -.7 -1.1c-.2 -.4 -.3 -.8 -.3 -1.3v-16c0 -.5 .1 -.9 .3 -1.3c.1 -.5 .4 -.8 .7 -1.2c.3 -.3 .7 -.5 1.1 -.7c.4 -.2 .9 -.3 1.3 -.3Zm85.5 0L429.3 166.3" class="g1_339"/>
<path d="M427.6 189.2H483c.4 0 .9 .1 1.3 .3c.4 .2 .8 .4 1.1 .7c.3 .4 .6 .7 .7 1.2c.2 .4 .3 .8 .3 1.3v16c0 .5 -.1 .9 -.3 1.3c-.1 .5 -.4 .8 -.7 1.1c-.3 .4 -.7 .6 -1.1 .8c-.4 .2 -.9 .3 -1.3 .3H427.6c-.5 0 -.9 -.1 -1.3 -.3c-.4 -.2 -.8 -.4 -1.1 -.8c-.4 -.3 -.6 -.6 -.8 -1.1c-.2 -.4 -.2 -.8 -.2 -1.3v-16c0 -.5 0 -.9 .2 -1.3c.2 -.5 .4 -.8 .8 -1.2c.3 -.3 .7 -.5 1.1 -.7c.4 -.2 .8 -.3 1.3 -.3Z" class="g0_339"/>
<path d="M427.6 189.2H483c.4 0 .9 .1 1.3 .3c.4 .2 .8 .4 1.1 .7c.3 .4 .6 .7 .7 1.2c.2 .4 .3 .8 .3 1.3v16c0 .5 -.1 .9 -.3 1.3c-.1 .5 -.4 .8 -.7 1.1c-.3 .4 -.7 .6 -1.1 .8c-.4 .2 -.9 .3 -1.3 .3H427.6c-.5 0 -.9 -.1 -1.3 -.3c-.4 -.2 -.8 -.4 -1.1 -.8c-.4 -.3 -.6 -.6 -.8 -1.1c-.2 -.4 -.2 -.8 -.2 -1.3v-16c0 -.5 0 -.9 .2 -1.3c.2 -.5 .4 -.8 .8 -1.2c.3 -.3 .7 -.5 1.1 -.7c.4 -.2 .8 -.3 1.3 -.3Zm104 0l17.3 -22.9" class="g1_339"/>
<path d="M495.2 189.2h55.4c.4 0 .9 .1 1.3 .3c.4 .2 .8 .4 1.1 .7c.3 .4 .6 .7 .8 1.2c.1 .4 .2 .8 .2 1.3v16c0 .5 -.1 .9 -.2 1.3c-.2 .5 -.5 .8 -.8 1.1c-.3 .4 -.7 .6 -1.1 .8c-.4 .2 -.9 .3 -1.3 .3H495.2c-.5 0 -.9 -.1 -1.3 -.3c-.4 -.2 -.8 -.4 -1.1 -.8c-.4 -.3 -.6 -.6 -.8 -1.1c-.2 -.4 -.2 -.8 -.2 -1.3v-16c0 -.5 0 -.9 .2 -1.3c.2 -.5 .4 -.8 .8 -1.2c.3 -.3 .7 -.5 1.1 -.7c.4 -.2 .8 -.3 1.3 -.3Z" class="g0_339"/>
<path d="M495.2 189.2h55.4c.4 0 .9 .1 1.3 .3c.4 .2 .8 .4 1.1 .7c.3 .4 .6 .7 .8 1.2c.1 .4 .2 .8 .2 1.3v16c0 .5 -.1 .9 -.2 1.3c-.2 .5 -.5 .8 -.8 1.1c-.3 .4 -.7 .6 -1.1 .8c-.4 .2 -.9 .3 -1.3 .3H495.2c-.5 0 -.9 -.1 -1.3 -.3c-.4 -.2 -.8 -.4 -1.1 -.8c-.4 -.3 -.6 -.6 -.8 -1.1c-.2 -.4 -.2 -.8 -.2 -1.3v-16c0 -.5 0 -.9 .2 -1.3c.2 -.5 .4 -.8 .8 -1.2c.3 -.3 .7 -.5 1.1 -.7c.4 -.2 .8 -.3 1.3 -.3Zm86.3 0L565.6 166.3" class="g1_339"/>
<path d="M561.7 189.2h55.4c.5 0 .9 .1 1.3 .3c.5 .2 .8 .4 1.2 .7c.3 .4 .5 .7 .7 1.2c.2 .4 .3 .8 .3 1.3v16c0 .5 -.1 .9 -.3 1.3c-.2 .5 -.4 .8 -.7 1.1c-.4 .4 -.7 .6 -1.2 .8c-.4 .2 -.8 .3 -1.3 .3H561.7c-.4 0 -.8 -.1 -1.3 -.3c-.4 -.2 -.8 -.4 -1.1 -.8c-.3 -.3 -.6 -.6 -.7 -1.1c-.2 -.4 -.3 -.8 -.3 -1.3v-16c0 -.5 .1 -.9 .3 -1.3c.1 -.5 .4 -.8 .7 -1.2c.3 -.3 .7 -.5 1.1 -.7c.5 -.2 .9 -.3 1.3 -.3Z" class="g2_339"/>
<path d="M561.7 189.2h55.4c.5 0 .9 .1 1.3 .3c.5 .2 .8 .4 1.2 .7c.3 .4 .5 .7 .7 1.2c.2 .4 .3 .8 .3 1.3v16c0 .5 -.1 .9 -.3 1.3c-.2 .5 -.4 .8 -.7 1.1c-.4 .4 -.7 .6 -1.2 .8c-.4 .2 -.8 .3 -1.3 .3H561.7c-.4 0 -.8 -.1 -1.3 -.3c-.4 -.2 -.8 -.4 -1.1 -.8c-.3 -.3 -.6 -.6 -.7 -1.1c-.2 -.4 -.3 -.8 -.3 -1.3v-16c0 -.5 .1 -.9 .3 -1.3c.1 -.5 .4 -.8 .7 -1.2c.3 -.3 .7 -.5 1.1 -.7c.5 -.2 .9 -.3 1.3 -.3Zm-124 -45.8l34.1 -22.9" class="g1_339"/>
<path d="M361.1 143.4h119c.5 0 .9 .1 1.3 .3c.5 .1 .8 .4 1.1 .7c.4 .3 .6 .7 .8 1.1c.2 .4 .3 .9 .3 1.3v16.1c0 .4 -.1 .9 -.3 1.3c-.2 .4 -.4 .8 -.8 1.1c-.3 .3 -.6 .6 -1.1 .8c-.4 .1 -.8 .2 -1.3 .2h-119c-.4 0 -.9 -.1 -1.3 -.2c-.4 -.2 -.8 -.5 -1.1 -.8c-.3 -.3 -.6 -.7 -.7 -1.1c-.2 -.4 -.3 -.9 -.3 -1.3V146.8c0 -.4 .1 -.9 .3 -1.3c.1 -.4 .4 -.8 .7 -1.1c.3 -.3 .7 -.6 1.1 -.7c.4 -.2 .9 -.3 1.3 -.3Z" class="g0_339"/>
<path d="M361.1 143.4h119c.5 0 .9 .1 1.3 .3c.5 .1 .8 .4 1.1 .7c.4 .3 .6 .7 .8 1.1c.2 .4 .3 .9 .3 1.3v16.1c0 .4 -.1 .9 -.3 1.3c-.2 .4 -.4 .8 -.8 1.1c-.3 .3 -.6 .6 -1.1 .8c-.4 .1 -.8 .2 -1.3 .2h-119c-.4 0 -.9 -.1 -1.3 -.2c-.4 -.2 -.8 -.5 -1.1 -.8c-.3 -.3 -.6 -.7 -.7 -1.1c-.2 -.4 -.3 -.9 -.3 -1.3V146.8c0 -.4 .1 -.9 .3 -1.3c.1 -.4 .4 -.8 .7 -1.1c.3 -.3 .7 -.6 1.1 -.7c.4 -.2 .9 -.3 1.3 -.3Z" class="g1_339"/>
<path d="M498.1 143.4h119c.5 0 .9 .1 1.3 .3c.5 .1 .8 .4 1.2 .7c.3 .3 .5 .7 .7 1.1c.2 .4 .3 .9 .3 1.3v16.1c0 .4 -.1 .9 -.3 1.3c-.2 .4 -.4 .8 -.7 1.1c-.4 .3 -.7 .6 -1.2 .8c-.4 .1 -.8 .2 -1.3 .2h-119c-.4 0 -.9 -.1 -1.3 -.2c-.4 -.2 -.8 -.5 -1.1 -.8c-.3 -.3 -.6 -.7 -.7 -1.1c-.2 -.4 -.3 -.9 -.3 -1.3V146.8c0 -.4 .1 -.9 .3 -1.3c.1 -.4 .4 -.8 .7 -1.1c.3 -.3 .7 -.6 1.1 -.7c.4 -.2 .9 -.3 1.3 -.3Z" class="g2_339"/>
<path d="M498.1 143.4h119c.5 0 .9 .1 1.3 .3c.5 .1 .8 .4 1.2 .7c.3 .3 .5 .7 .7 1.1c.2 .4 .3 .9 .3 1.3v16.1c0 .4 -.1 .9 -.3 1.3c-.2 .4 -.4 .8 -.7 1.1c-.4 .3 -.7 .6 -1.2 .8c-.4 .1 -.8 .2 -1.3 .2h-119c-.4 0 -.9 -.1 -1.3 -.2c-.4 -.2 -.8 -.5 -1.1 -.8c-.3 -.3 -.6 -.7 -.7 -1.1c-.2 -.4 -.3 -.9 -.3 -1.3V146.8c0 -.4 .1 -.9 .3 -1.3c.1 -.4 .4 -.8 .7 -1.1c.3 -.3 .7 -.6 1.1 -.7c.4 -.2 .9 -.3 1.3 -.3ZM506 120.5l34.4 22.9" class="g1_339"/>
<path d="M360.6 97.6H617.1c.5 0 .9 .1 1.3 .2c.5 .2 .8 .5 1.2 .8c.3 .3 .5 .7 .7 1.1c.2 .4 .3 .9 .3 1.3v16.1c0 .4 -.1 .8 -.3 1.3c-.2 .4 -.4 .8 -.7 1.1c-.4 .3 -.7 .6 -1.2 .7c-.4 .2 -.8 .3 -1.3 .3H360.6c-.5 0 -.9 -.1 -1.4 -.3c-.4 -.1 -.8 -.4 -1.1 -.7c-.3 -.3 -.6 -.7 -.7 -1.1c-.2 -.5 -.3 -.9 -.3 -1.3V101c0 -.4 .1 -.9 .3 -1.3c.1 -.4 .4 -.8 .7 -1.1c.3 -.3 .7 -.6 1.1 -.8c.5 -.1 .9 -.2 1.4 -.2Z" class="g2_339"/>
<path d="M360.6 97.6H617.1c.5 0 .9 .1 1.3 .2c.5 .2 .8 .5 1.2 .8c.3 .3 .5 .7 .7 1.1c.2 .4 .3 .9 .3 1.3v16.1c0 .4 -.1 .8 -.3 1.3c-.2 .4 -.4 .8 -.7 1.1c-.4 .3 -.7 .6 -1.2 .7c-.4 .2 -.8 .3 -1.3 .3H360.6c-.5 0 -.9 -.1 -1.4 -.3c-.4 -.1 -.8 -.4 -1.1 -.7c-.3 -.3 -.6 -.7 -.7 -1.1c-.2 -.5 -.3 -.9 -.3 -1.3V101c0 -.4 .1 -.9 .3 -1.3c.1 -.4 .4 -.8 .7 -1.1c.3 -.3 .7 -.6 1.1 -.8c.5 -.1 .9 -.2 1.4 -.2Z" class="g1_339"/>
</g>
<g clip-path="url(#c2_339)">
<path d="M167.7 749.1H525.2v134H167.7v-134Z" class="g0_339"/>
<path d="M201.5 797.9h322m-322 34.3h322M202.7 764.6H523.5" class="g1_339"/>
<path d="M168.3 822.7c0 -3.6 5.1 -6.6 11.4 -6.6c3.1 0 6 .7 8.1 1.9c2.2 1.3 3.4 3 3.4 4.7v21.1c0 1.8 -1.2 3.5 -3.4 4.7c-2.1 1.3 -5 2 -8.1 2c-6.3 0 -11.4 -3 -11.4 -6.7V822.7Z" class="g0_339"/>
<path d="M168.3 822.7c0 -3.6 5.1 -6.6 11.4 -6.6c3.1 0 6 .7 8.1 1.9c2.2 1.3 3.4 3 3.4 4.7v21.1c0 1.8 -1.2 3.5 -3.4 4.7c-2.1 1.3 -5 2 -8.1 2c-6.3 0 -11.4 -3 -11.4 -6.7V822.7Zm22.9 0c0 1.8 -1.2 3.5 -3.4 4.7c-2.1 1.3 -5 2 -8.1 2c-6.3 0 -11.4 -3 -11.4 -6.7" class="g1_339"/>
<path d="M213 832.2h81.3v45.9H213V832.2Z" class="g0_339"/>
<path d="M213 832.2h81.3v45.9H213V832.2Z" class="g1_339"/>
<path d="M235 830.7l66.2 -60.9" class="g3_339"/>
<path d="M235.6 832.2c0 .3 -.1 .6 -.2 .9c-.1 .3 -.3 .5 -.5 .8c-.2 .2 -.4 .3 -.7 .4c-.3 .2 -.6 .2 -.9 .2c-.3 0 -.6 0 -.9 -.2c-.3 -.1 -.5 -.2 -.7 -.4c-.2 -.3 -.4 -.5 -.5 -.8c-.1 -.3 -.2 -.6 -.2 -.9c0 -.3 .1 -.6 .2 -.8c.1 -.3 .3 -.6 .5 -.8c.2 -.2 .4 -.4 .7 -.5c.3 -.1 .6 -.2 .9 -.2c.3 0 .6 .1 .9 .2c.3 .1 .5 .3 .7 .5c.2 .2 .4 .5 .5 .8c.1 .2 .2 .5 .2 .8Z" class="g2_339"/>
<path d="M235.6 832.2c0 .3 -.1 .6 -.2 .9c-.1 .3 -.3 .5 -.5 .8c-.2 .2 -.4 .3 -.7 .4c-.3 .2 -.6 .2 -.9 .2c-.3 0 -.6 0 -.9 -.2c-.3 -.1 -.5 -.2 -.7 -.4c-.2 -.3 -.4 -.5 -.5 -.8c-.1 -.3 -.2 -.6 -.2 -.9c0 -.3 .1 -.6 .2 -.8c.1 -.3 .3 -.6 .5 -.8c.2 -.2 .4 -.4 .7 -.5c.3 -.1 .6 -.2 .9 -.2c.3 0 .6 .1 .9 .2c.3 .1 .5 .3 .7 .5c.2 .2 .4 .5 .5 .8c.1 .2 .2 .5 .2 .8Z" class="g3_339"/>
<path d="M305 766.3l-3.5 6.4l-.3 -2.9l-2.8 -.5l6.6 -3Z" class="g2_339"/>
<path d="M305 766.3l-3.5 6.4l-.3 -2.9l-2.8 -.5l6.6 -3Zm-49.7 64.4L285.2 803" class="g3_339"/>
<path d="M255.9 832.2c0 .3 0 .6 -.1 .9c-.2 .3 -.3 .5 -.5 .8c-.2 .2 -.5 .3 -.8 .4c-.3 .2 -.6 .2 -.9 .2c-.3 0 -.6 0 -.8 -.2c-.3 -.1 -.6 -.2 -.8 -.4c-.2 -.3 -.4 -.5 -.5 -.8c-.1 -.3 -.1 -.6 -.1 -.9c0 -.3 0 -.6 .1 -.8c.1 -.3 .3 -.6 .5 -.8c.2 -.2 .5 -.4 .8 -.5c.2 -.1 .5 -.2 .8 -.2c.3 0 .6 .1 .9 .2c.3 .1 .6 .3 .8 .5c.2 .2 .3 .5 .5 .8c.1 .2 .1 .5 .1 .8Z" class="g2_339"/>
<path d="M255.9 832.2c0 .3 0 .6 -.1 .9c-.2 .3 -.3 .5 -.5 .8c-.2 .2 -.5 .3 -.8 .4c-.3 .2 -.6 .2 -.9 .2c-.3 0 -.6 0 -.8 -.2c-.3 -.1 -.6 -.2 -.8 -.4c-.2 -.3 -.4 -.5 -.5 -.8c-.1 -.3 -.1 -.6 -.1 -.9c0 -.3 0 -.6 .1 -.8c.1 -.3 .3 -.6 .5 -.8c.2 -.2 .5 -.4 .8 -.5c.2 -.1 .5 -.2 .8 -.2c.3 0 .6 .1 .9 .2c.3 .1 .6 .3 .8 .5c.2 .2 .3 .5 .5 .8c.1 .2 .1 .5 .1 .8Z" class="g3_339"/>
<path d="M289 799.5l-3.5 6.4l-.3 -2.9l-2.8 -.5l6.6 -3Z" class="g2_339"/>
<path d="M289 799.5l-3.5 6.4l-.3 -2.9l-2.8 -.5l6.6 -3Z" class="g3_339"/>
<path d="M311.4 749.6h60.9c.6 0 1.2 .2 1.8 .4c.5 .2 1 .5 1.4 1c.4 .4 .8 .9 1 1.4c.2 .6 .3 1.1 .3 1.7V775c0 .6 -.1 1.2 -.3 1.8c-.2 .5 -.6 1 -1 1.4c-.4 .4 -.9 .8 -1.4 1c-.6 .2 -1.2 .3 -1.8 .3H311.4c-.6 0 -1.2 -.1 -1.7 -.3c-.6 -.2 -1 -.6 -1.5 -1c-.4 -.4 -.7 -.9 -.9 -1.4c-.3 -.6 -.4 -1.2 -.4 -1.8V754.1c0 -.6 .1 -1.1 .4 -1.7c.2 -.5 .5 -1 .9 -1.4c.5 -.5 .9 -.8 1.5 -1c.5 -.2 1.1 -.4 1.7 -.4Z" class="g0_339"/>
<path d="M311.4 749.6h60.9c.6 0 1.2 .2 1.8 .4c.5 .2 1 .5 1.4 1c.4 .4 .8 .9 1 1.4c.2 .6 .3 1.1 .3 1.7V775c0 .6 -.1 1.2 -.3 1.8c-.2 .5 -.6 1 -1 1.4c-.4 .4 -.9 .8 -1.4 1c-.6 .2 -1.2 .3 -1.8 .3H311.4c-.6 0 -1.2 -.1 -1.7 -.3c-.6 -.2 -1 -.6 -1.5 -1c-.4 -.4 -.7 -.9 -.9 -1.4c-.3 -.6 -.4 -1.2 -.4 -1.8V754.1c0 -.6 .1 -1.1 .4 -1.7c.2 -.5 .5 -1 .9 -1.4c.5 -.5 .9 -.8 1.5 -1c.5 -.2 1.1 -.4 1.7 -.4Z" class="g1_339"/>
<path d="M295.4 782.8h65.5c.6 0 1.1 .1 1.7 .4c.5 .2 1 .5 1.5 .9c.4 .5 .7 .9 .9 1.5c.2 .5 .4 1.1 .4 1.7v20.9c0 .6 -.2 1.2 -.4 1.7c-.2 .6 -.5 1.1 -.9 1.5c-.5 .4 -1 .7 -1.5 1c-.6 .2 -1.1 .3 -1.7 .3H295.4c-.6 0 -1.2 -.1 -1.7 -.3c-.6 -.3 -1.1 -.6 -1.5 -1c-.4 -.4 -.7 -.9 -1 -1.5c-.2 -.5 -.3 -1.1 -.3 -1.7V787.3c0 -.6 .1 -1.2 .3 -1.7c.3 -.6 .6 -1 1 -1.5c.4 -.4 .9 -.7 1.5 -.9c.5 -.3 1.1 -.4 1.7 -.4Z" class="g0_339"/>
<path d="M295.4 782.8h65.5c.6 0 1.1 .1 1.7 .4c.5 .2 1 .5 1.5 .9c.4 .5 .7 .9 .9 1.5c.2 .5 .4 1.1 .4 1.7v20.9c0 .6 -.2 1.2 -.4 1.7c-.2 .6 -.5 1.1 -.9 1.5c-.5 .4 -1 .7 -1.5 1c-.6 .2 -1.1 .3 -1.7 .3H295.4c-.6 0 -1.2 -.1 -1.7 -.3c-.6 -.3 -1.1 -.6 -1.5 -1c-.4 -.4 -.7 -.9 -1 -1.5c-.2 -.5 -.3 -1.1 -.3 -1.7V787.3c0 -.6 .1 -1.2 .3 -1.7c.3 -.6 .6 -1 1 -1.5c.4 -.4 .9 -.7 1.5 -.9c.5 -.3 1.1 -.4 1.7 -.4Z" class="g1_339"/>
<path d="M363.1 832.2h80.2v45.9H363.1V832.2Z" class="g0_339"/>
<path d="M363.1 832.2h80.2v45.9H363.1V832.2Z" class="g1_339"/>
<path d="M367.1 799.3L397.5 827" class="g3_339"/>
<path d="M367.7 797.8c0 .3 -.1 .6 -.2 .8c-.1 .3 -.3 .6 -.5 .8c-.2 .2 -.5 .4 -.8 .5c-.2 .1 -.5 .2 -.8 .2c-.3 0 -.6 -.1 -.9 -.2c-.3 -.1 -.5 -.3 -.8 -.5c-.2 -.2 -.3 -.5 -.5 -.8c-.1 -.2 -.1 -.5 -.1 -.8c0 -.3 0 -.6 .1 -.9c.2 -.3 .3 -.5 .5 -.8c.3 -.2 .5 -.3 .8 -.5c.3 -.1 .6 -.1 .9 -.1c.3 0 .6 0 .8 .1c.3 .2 .6 .3 .8 .5c.2 .3 .4 .5 .5 .8c.1 .3 .2 .6 .2 .9Z" class="g2_339"/>
<path d="M367.7 797.8c0 .3 -.1 .6 -.2 .8c-.1 .3 -.3 .6 -.5 .8c-.2 .2 -.5 .4 -.8 .5c-.2 .1 -.5 .2 -.8 .2c-.3 0 -.6 -.1 -.9 -.2c-.3 -.1 -.5 -.3 -.8 -.5c-.2 -.2 -.3 -.5 -.5 -.8c-.1 -.2 -.1 -.5 -.1 -.8c0 -.3 0 -.6 .1 -.9c.2 -.3 .3 -.5 .5 -.8c.3 -.2 .5 -.3 .8 -.5c.3 -.1 .6 -.1 .9 -.1c.3 0 .6 0 .8 .1c.3 .2 .6 .3 .8 .5c.2 .3 .4 .5 .5 .8c.1 .3 .2 .6 .2 .9Z" class="g3_339"/>
<path d="M401.3 830.5l-6.6 -2.9l2.8 -.6l.2 -2.8l3.6 6.3Z" class="g2_339"/>
<path d="M401.3 830.5l-6.6 -2.9l2.8 -.6l.2 -2.8l3.6 6.3Z" class="g3_339"/>
<path d="M453.6 832.2h71v45.9h-71V832.2Z" class="g0_339"/>
<path d="M453.6 832.2h71v45.9h-71V832.2Z" class="g1_339"/>
<path d="M378.8 765.8l103.7 62.4" class="g3_339"/>
<path d="M379.1 764.6c0 .3 0 .6 -.2 .9c-.1 .2 -.2 .5 -.5 .7c-.2 .2 -.4 .4 -.7 .5c-.3 .1 -.6 .2 -.9 .2c-.3 0 -.6 -.1 -.9 -.2c-.2 -.1 -.5 -.3 -.7 -.5c-.2 -.2 -.4 -.5 -.5 -.7c-.1 -.3 -.2 -.6 -.2 -.9c0 -.3 .1 -.6 .2 -.9c.1 -.3 .3 -.5 .5 -.7c.2 -.3 .5 -.4 .7 -.5c.3 -.2 .6 -.2 .9 -.2c.3 0 .6 0 .9 .2c.3 .1 .5 .2 .7 .5c.3 .2 .4 .4 .5 .7c.2 .3 .2 .6 .2 .9Z" class="g2_339"/>
<path d="M379.1 764.6c0 .3 0 .6 -.2 .9c-.1 .2 -.2 .5 -.5 .7c-.2 .2 -.4 .4 -.7 .5c-.3 .1 -.6 .2 -.9 .2c-.3 0 -.6 -.1 -.9 -.2c-.2 -.1 -.5 -.3 -.7 -.5c-.2 -.2 -.4 -.5 -.5 -.7c-.1 -.3 -.2 -.6 -.2 -.9c0 -.3 .1 -.6 .2 -.9c.1 -.3 .3 -.5 .5 -.7c.2 -.3 .5 -.4 .7 -.5c.3 -.2 .6 -.2 .9 -.2c.3 0 .6 0 .9 .2c.3 .1 .5 .2 .7 .5c.3 .2 .4 .4 .5 .7c.2 .3 .2 .6 .2 .9Z" class="g3_339"/>
<path d="M486.9 830.9l-7.1 -1.6l2.7 -1.1l-.3 -2.8l4.7 5.5Z" class="g2_339"/>
<path d="M486.9 830.9l-7.1 -1.6l2.7 -1.1l-.3 -2.8l4.7 5.5Z" class="g3_339"/>
</g>
</svg>