<?xml version="1.0" encoding="UTF-8" standalone="no"?>
<!DOCTYPE svg PUBLIC "-//W3C//DTD SVG 1.1//EN"
"http://www.w3.org/Graphics/SVG/1.1/DTD/svg11.dtd">
<svg viewBox="0 0 714 1017" version="1.1" xmlns="http://www.w3.org/2000/svg" xmlns:xlink="http://www.w3.org/1999/xlink">
<defs>
<clipPath id="c0_248"><path d="M86.6 346.7V162.3H658V346.7Z"/></clipPath>
<clipPath id="c1_248"><path d="M86.6 347.1V162.2H658V347.1Z"/></clipPath>
<style type="text/css"><![CDATA[
.g0_248{
fill: #FFF;
}
.g1_248{
fill: none;
stroke: #000;
stroke-width: 1.145;
stroke-miterlimit: 10;
}
.g2_248{
fill: #000;
}
.g3_248{
fill: none;
stroke: #000;
stroke-width: 2.291;
stroke-miterlimit: 10;
}
.g4_248{
fill: none;
stroke: #000;
stroke-width: 0.608;
stroke-miterlimit: 10;
}
]]></style>
</defs>
<path d="M0 1017.7H717.2V-3.7H0V1017.7Z" class="g0_248"/>
<g clip-path="url(#c1_248)">
<path clip-path="url(#c0_248)" d="M86.6 162.3H658.4V346.7H86.6V162.3Z" class="g0_248"/>
<path d="M166.8 162.8H625.7v91.7H166.8V162.8Zm0 103.2H625.7v80.2H166.8V266ZM184 191.5h45.8v22.9H184V191.5Zm45.8 0h68.8v22.9H229.8V191.5Zm110.6 0h45.8v22.9H340.4V191.5Zm45.8 0H455v22.9H386.2V191.5Zm107.8 0h45.8v22.9H494V191.5Zm45.8 0h68.7v22.9H539.8V191.5ZM340.4 288.9h45.8v22.9H340.4V288.9Zm45.8 0H455v22.9H386.2V288.9Z" class="g1_248"/>
<path d="M352.3 189v-2.6c0 -3.7 -3 -6.7 -6.7 -6.7c-3.6 0 -6.6 3 -6.6 6.7V189h-.2c-1.4 0 -2.6 1.2 -2.6 2.6v7.9c0 1.5 1.2 2.6 2.6 2.6h13.5c1.5 0 2.7 -1.2 2.7 -2.6v-7.9c0 -1.4 -1.2 -2.6 -2.7 -2.6Zm-9.6 -2.6c0 -1.6 1.3 -3 2.9 -3c1.6 0 3 1.4 3 3V189h-5.9v-2.6Zm3.9 10.4c.2 .7 .4 1.1 0 1.1h-2c-.5 0 -.3 -.4 0 -1.1l.4 -1.2c-.4 -.3 -.7 -.7 -.7 -1.2c0 -.7 .6 -1.2 1.3 -1.2c.7 0 1.2 .5 1.2 1.2c0 .5 -.2 .9 -.6 1.2l.4 1.2Z" class="g2_248"/>
<path d="M144.5 220.1H639.2" class="g3_248"/>
<path d="M646.1 220.1l-9.2 3.1l2.3 -3.1l-2.3 -3l9.2 3Z" class="g2_248"/>
<path d="M646.1 220.1l-9.2 3.1l2.3 -3.1l-2.3 -3l9.2 3ZM144.5 232.7H316.4c7.6 0 11.4 3.9 11.4 11.5v67.6c0 7.6 3.8 11.5 11.5 11.5h126c7.7 0 11.5 -3.9 11.5 -11.5V244.2c0 -7.6 3.8 -11.5 11.4 -11.5h151" class="g3_248"/>
<path d="M646.1 232.7l-9.2 3.1l2.3 -3.1l-2.3 -3l9.2 3Z" class="g2_248"/>
<path d="M646.1 232.7l-9.2 3.1l2.3 -3.1l-2.3 -3l9.2 3Z" class="g3_248"/>
<path d="M184 214.4h45.8v22.9H184V214.4Z" class="g0_248"/>
<path d="M184 214.4h45.8v22.9H184V214.4Z" class="g1_248"/>
<path d="M229.8 214.4h68.8v22.9H229.8V214.4Z" class="g0_248"/>
<path d="M229.8 214.4h68.8v22.9H229.8V214.4Z" class="g1_248"/>
<path d="M340.4 214.4h45.8v22.9H340.4V214.4Z" class="g0_248"/>
<path d="M340.4 214.4h45.8v22.9H340.4V214.4Z" class="g1_248"/>
<path d="M386.2 214.4H455v22.9H386.2V214.4Z" class="g0_248"/>
<path d="M386.2 214.4H455v22.9H386.2V214.4Z" class="g1_248"/>
<path d="M494 214.4h45.8v22.9H494V214.4Z" class="g0_248"/>
<path d="M494 214.4h45.8v22.9H494V214.4Z" class="g1_248"/>
<path d="M539.8 214.4h68.7v22.9H539.8V214.4Z" class="g0_248"/>
<path d="M539.8 214.4h68.7v22.9H539.8V214.4Z" class="g1_248"/>
<path d="M340.4 311.8h45.8v22.9H340.4V311.8Z" class="g0_248"/>
<path d="M340.4 311.8h45.8v22.9H340.4V311.8Z" class="g1_248"/>
<path d="M386.2 311.8H455v22.9H386.2V311.8Z" class="g0_248"/>
<path d="M386.2 311.8H455v22.9H386.2V311.8Z" class="g1_248"/>
</g>
<path d="M86.6 797.8H196.2" class="g4_248"/>
</svg>