<?xml version="1.0" encoding="UTF-8" standalone="no"?>
<!DOCTYPE svg PUBLIC "-//W3C//DTD SVG 1.1//EN"
"http://www.w3.org/Graphics/SVG/1.1/DTD/svg11.dtd">
<svg viewBox="0 0 714 1017" version="1.1" xmlns="http://www.w3.org/2000/svg" xmlns:xlink="http://www.w3.org/1999/xlink">
<defs>
<clipPath id="c0_269"><path d="M117.3 677.4V518.6H575.6V677.4Z"/></clipPath>
<style type="text/css"><![CDATA[
.g0_269{
fill: #FFF;
}
.g1_269{
fill: none;
stroke: #000;
stroke-width: 1.145;
stroke-miterlimit: 10;
}
.g2_269{
fill: #BBB;
}
.g3_269{
fill: none;
stroke: #000;
stroke-width: 2.291;
stroke-miterlimit: 10;
}
.g4_269{
fill: #DDD;
}
]]></style>
</defs>
<path d="M0 1017.7H717.2V-3.7H0V1017.7Z" class="g0_269"/>
<g clip-path="url(#c0_269)">
<path d="M117.3 518.7H575.6V676.8H117.3V518.7Z" class="g0_269"/>
<path d="M140.8 530.7H255.4v34.4H140.8V530.7Z" class="g0_269"/>
<path d="M140.8 530.7H255.4v34.4H140.8V530.7Z" class="g1_269"/>
<path d="M278.3 530.7H392.9v34.4H278.3V530.7Z" class="g0_269"/>
<path d="M278.3 530.7H392.9v34.4H278.3V530.7Z" class="g1_269"/>
<path d="M415.8 530.7H530.4v34.4H415.8V530.7Z" class="g0_269"/>
<path d="M415.8 530.7H530.4v34.4H415.8V530.7Z" class="g1_269"/>
<path d="M152.2 640.3c0 -5.5 20.6 -9.9 45.9 -9.9c12.1 0 23.8 1 32.4 2.9c8.6 1.9 13.4 4.4 13.4 7v26c0 5.5 -20.5 9.9 -45.8 9.9c-25.3 0 -45.9 -4.4 -45.9 -9.9v-26Z" class="g2_269"/>
<path d="M152.2 640.3c0 -5.5 20.6 -9.9 45.9 -9.9c12.1 0 23.8 1 32.4 2.9c8.6 1.9 13.4 4.4 13.4 7v26c0 5.5 -20.5 9.9 -45.8 9.9c-25.3 0 -45.9 -4.4 -45.9 -9.9v-26Zm91.7 0c0 5.5 -20.5 10 -45.8 10c-25.3 0 -45.9 -4.5 -45.9 -10" class="g1_269"/>
<path d="M289.7 640.3c0 -5.5 20.6 -9.9 45.9 -9.9c12.1 0 23.8 1 32.4 2.9c8.6 1.9 13.4 4.4 13.4 7v26c0 5.5 -20.5 9.9 -45.8 9.9c-25.3 0 -45.9 -4.4 -45.9 -9.9v-26Z" class="g2_269"/>
<path d="M289.7 640.3c0 -5.5 20.6 -9.9 45.9 -9.9c12.1 0 23.8 1 32.4 2.9c8.6 1.9 13.4 4.4 13.4 7v26c0 5.5 -20.5 9.9 -45.8 9.9c-25.3 0 -45.9 -4.4 -45.9 -9.9v-26Zm91.7 0c0 5.5 -20.5 10 -45.8 10c-25.3 0 -45.9 -4.5 -45.9 -10" class="g1_269"/>
<path d="M427.2 640.3c0 -5.5 20.6 -9.9 45.9 -9.9c12.1 0 23.8 1 32.4 2.9c8.6 1.9 13.4 4.4 13.4 7v26c0 5.5 -20.5 9.9 -45.8 9.9c-25.3 0 -45.9 -4.4 -45.9 -9.9v-26Z" class="g2_269"/>
<path d="M427.2 640.3c0 -5.5 20.6 -9.9 45.9 -9.9c12.1 0 23.8 1 32.4 2.9c8.6 1.9 13.4 4.4 13.4 7v26c0 5.5 -20.5 9.9 -45.8 9.9c-25.3 0 -45.9 -4.4 -45.9 -9.9v-26Zm91.7 0c0 5.5 -20.5 10 -45.8 10c-25.3 0 -45.9 -4.5 -45.9 -10" class="g1_269"/>
<path d="M198.1 580V565.1M335.6 580V565.1M473.1 580V565.1" class="g3_269"/>
<path d="M140.8 547.9H129.3c-7.6 0 -11.4 -3.8 -11.4 -11.5v-8.6c0 -5.7 3.8 -8.5 11.4 -8.5H541.8c7.7 0 11.5 3.8 11.5 11.4v8.6c0 5.7 -3.8 8.6 -11.5 8.6H530.4m-275 0h22.9m114.6 0h22.9" class="g1_269"/>
<path d="M152.2 615.1c0 -5.5 20.6 -9.9 45.9 -9.9c12.1 0 23.8 1 32.4 2.9c8.6 1.9 13.4 4.4 13.4 7v26c0 5.5 -20.5 9.9 -45.8 9.9c-25.3 0 -45.9 -4.4 -45.9 -9.9v-26Z" class="g0_269"/>
<path d="M152.2 615.1c0 -5.5 20.6 -9.9 45.9 -9.9c12.1 0 23.8 1 32.4 2.9c8.6 1.9 13.4 4.4 13.4 7v26c0 5.5 -20.5 9.9 -45.8 9.9c-25.3 0 -45.9 -4.4 -45.9 -9.9v-26Zm91.7 0c0 5.5 -20.5 9.9 -45.8 9.9c-25.3 0 -45.9 -4.4 -45.9 -9.9" class="g1_269"/>
<path d="M289.7 615.1c0 -5.5 20.6 -9.9 45.9 -9.9c12.1 0 23.8 1 32.4 2.9c8.6 1.9 13.4 4.4 13.4 7v26c0 5.5 -20.5 9.9 -45.8 9.9c-25.3 0 -45.9 -4.4 -45.9 -9.9v-26Z" class="g0_269"/>
<path d="M289.7 615.1c0 -5.5 20.6 -9.9 45.9 -9.9c12.1 0 23.8 1 32.4 2.9c8.6 1.9 13.4 4.4 13.4 7v26c0 5.5 -20.5 9.9 -45.8 9.9c-25.3 0 -45.9 -4.4 -45.9 -9.9v-26Zm91.7 0c0 5.5 -20.5 9.9 -45.8 9.9c-25.3 0 -45.9 -4.4 -45.9 -9.9" class="g1_269"/>
<path d="M427.2 615.1c0 -5.5 20.6 -9.9 45.9 -9.9c12.1 0 23.8 1 32.4 2.9c8.6 1.9 13.4 4.4 13.4 7v26c0 5.5 -20.5 9.9 -45.8 9.9c-25.3 0 -45.9 -4.4 -45.9 -9.9v-26Z" class="g0_269"/>
<path d="M427.2 615.1c0 -5.5 20.6 -9.9 45.9 -9.9c12.1 0 23.8 1 32.4 2.9c8.6 1.9 13.4 4.4 13.4 7v26c0 5.5 -20.5 9.9 -45.8 9.9c-25.3 0 -45.9 -4.4 -45.9 -9.9v-26Zm91.7 0c0 5.5 -20.5 9.9 -45.8 9.9c-25.3 0 -45.9 -4.4 -45.9 -9.9" class="g1_269"/>
<path d="M289.7 589.9c0 -5.5 20.6 -9.9 45.9 -9.9c12.1 0 23.8 1 32.4 2.9c8.6 1.8 13.4 4.4 13.4 7v26c0 5.5 -20.5 9.9 -45.8 9.9c-25.3 0 -45.9 -4.4 -45.9 -9.9v-26Z" class="g4_269"/>
<path d="M289.7 589.9c0 -5.5 20.6 -9.9 45.9 -9.9c12.1 0 23.8 1 32.4 2.9c8.6 1.8 13.4 4.4 13.4 7v26c0 5.5 -20.5 9.9 -45.8 9.9c-25.3 0 -45.9 -4.4 -45.9 -9.9v-26Zm91.7 0c0 5.5 -20.5 9.9 -45.8 9.9c-25.3 0 -45.9 -4.4 -45.9 -9.9" class="g1_269"/>
<path d="M427.2 589.9c0 -5.5 20.6 -9.9 45.9 -9.9c12.1 0 23.8 1 32.4 2.9c8.6 1.8 13.4 4.4 13.4 7v26c0 5.5 -20.5 9.9 -45.8 9.9c-25.3 0 -45.9 -4.4 -45.9 -9.9v-26Z" class="g4_269"/>
<path d="M427.2 589.9c0 -5.5 20.6 -9.9 45.9 -9.9c12.1 0 23.8 1 32.4 2.9c8.6 1.8 13.4 4.4 13.4 7v26c0 5.5 -20.5 9.9 -45.8 9.9c-25.3 0 -45.9 -4.4 -45.9 -9.9v-26Zm91.7 0c0 5.5 -20.5 9.9 -45.8 9.9c-25.3 0 -45.9 -4.4 -45.9 -9.9" class="g1_269"/>
<path d="M152.2 589.9c0 -5.5 20.6 -9.9 45.9 -9.9c12.1 0 23.8 1 32.4 2.9c8.6 1.8 13.4 4.4 13.4 7v26c0 5.5 -20.5 9.9 -45.8 9.9c-25.3 0 -45.9 -4.4 -45.9 -9.9v-26Z" class="g4_269"/>
<path d="M152.2 589.9c0 -5.5 20.6 -9.9 45.9 -9.9c12.1 0 23.8 1 32.4 2.9c8.6 1.8 13.4 4.4 13.4 7v26c0 5.5 -20.5 9.9 -45.8 9.9c-25.3 0 -45.9 -4.4 -45.9 -9.9v-26Zm91.7 0c0 5.5 -20.5 9.9 -45.8 9.9c-25.3 0 -45.9 -4.4 -45.9 -9.9" class="g1_269"/>
<path d="M242.7 589.7c0 .3 -.1 .6 -.2 .8c-.1 .3 -.4 .6 -.6 .9c-.3 .2 -.7 .5 -1.1 .8c-.4 .3 -.9 .5 -1.5 .8c-.6 .2 -1.2 .5 -1.9 .7c-.7 .3 -1.4 .5 -2.2 .8c-.8 .2 -1.7 .4 -2.6 .6c-1 .3 -1.9 .5 -3 .7c-1 .2 -2.1 .3 -3.2 .5c-1.1 .2 -2.3 .4 -3.5 .5c-1.3 .2 -2.5 .3 -3.8 .5c-1.3 .1 -2.6 .2 -4 .3c-1.3 .1 -2.7 .2 -4.1 .3c-1.4 .1 -2.8 .2 -4.2 .2c-1.5 .1 -2.9 .1 -4.4 .1c-1.4 .1 -2.9 .1 -4.4 .1c-1.4 0 -2.9 0 -4.3 -.1c-1.5 0 -2.9 0 -4.4 -.1c-1.4 0 -2.8 -.1 -4.2 -.2c-1.4 -.1 -2.8 -.2 -4.1 -.3c-1.4 -.1 -2.7 -.2 -4 -.3c-1.3 -.2 -2.5 -.3 -3.8 -.5c-1.2 -.1 -2.4 -.3 -3.5 -.5c-1.1 -.2 -2.2 -.3 -3.2 -.5c-1.1 -.2 -2 -.4 -3 -.7c-.9 -.2 -1.8 -.4 -2.6 -.6c-.8 -.3 -1.5 -.5 -2.2 -.8c-.7 -.2 -1.4 -.5 -1.9 -.7c-.6 -.3 -1.1 -.5 -1.5 -.8c-.4 -.3 -.8 -.6 -1.1 -.8c-.2 -.3 -.5 -.6 -.6 -.9c-.1 -.2 -.2 -.5 -.2 -.8c0 -.3 .1 -.6 .2 -.8c.1 -.3 .4 -.6 .6 -.9c.3 -.2 .7 -.5 1.1 -.8c.4 -.3 .9 -.5 1.5 -.8c.5 -.2 1.2 -.5 1.9 -.7c.7 -.3 1.4 -.5 2.2 -.8c.8 -.2 1.7 -.4 2.6 -.6c1 -.3 1.9 -.5 3 -.7c1 -.2 2.1 -.3 3.2 -.5c1.1 -.2 2.3 -.4 3.5 -.5c1.3 -.2 2.5 -.3 3.8 -.5c1.3 -.1 2.6 -.2 4 -.3c1.3 -.1 2.7 -.2 4.1 -.3c1.4 -.1 2.8 -.2 4.2 -.2c1.5 -.1 2.9 -.1 4.4 -.1c1.4 -.1 2.9 -.1 4.3 -.1c1.5 0 3 0 4.4 .1c1.5 0 2.9 0 4.4 .1c1.4 0 2.8 .1 4.2 .2c1.4 .1 2.8 .2 4.1 .3c1.4 .1 2.7 .2 4 .3c1.3 .2 2.5 .3 3.8 .5c1.2 .1 2.4 .3 3.5 .5c1.1 .2 2.2 .3 3.2 .5c1.1 .2 2 .4 3 .7c.9 .2 1.8 .4 2.6 .6c.8 .3 1.5 .5 2.2 .8c.7 .2 1.3 .5 1.9 .7c.6 .3 1.1 .5 1.5 .8c.4 .3 .8 .6 1.1 .8c.2 .3 .5 .6 .6 .9c.1 .2 .2 .5 .2 .8Z" class="g4_269"/>
<path d="M380.2 589.7c0 .3 -.1 .6 -.2 .8c-.1 .3 -.4 .6 -.6 .9c-.3 .2 -.7 .5 -1.1 .8c-.4 .3 -.9 .5 -1.5 .8c-.6 .2 -1.2 .5 -1.9 .7c-.7 .3 -1.4 .5 -2.2 .8c-.8 .2 -1.7 .4 -2.6 .6c-1 .3 -1.9 .5 -3 .7c-1 .2 -2.1 .3 -3.2 .5c-1.1 .2 -2.3 .4 -3.5 .5c-1.3 .2 -2.5 .3 -3.8 .5c-1.3 .1 -2.6 .2 -4 .3c-1.3 .1 -2.7 .2 -4.1 .3c-1.4 .1 -2.8 .2 -4.2 .2c-1.5 .1 -2.9 .1 -4.4 .1c-1.4 .1 -2.9 .1 -4.4 .1c-1.4 0 -2.9 0 -4.3 -.1c-1.5 0 -2.9 0 -4.4 -.1c-1.4 0 -2.8 -.1 -4.2 -.2c-1.4 -.1 -2.8 -.2 -4.1 -.3c-1.4 -.1 -2.7 -.2 -4 -.3c-1.3 -.2 -2.5 -.3 -3.8 -.5c-1.2 -.1 -2.4 -.3 -3.5 -.5c-1.1 -.2 -2.2 -.3 -3.2 -.5c-1.1 -.2 -2 -.4 -3 -.7c-.9 -.2 -1.8 -.4 -2.6 -.6c-.8 -.3 -1.5 -.5 -2.2 -.8c-.7 -.2 -1.4 -.5 -1.9 -.7c-.6 -.3 -1.1 -.5 -1.5 -.8c-.4 -.3 -.8 -.6 -1.1 -.8c-.2 -.3 -.5 -.6 -.6 -.9c-.1 -.2 -.2 -.5 -.2 -.8c0 -.3 .1 -.6 .2 -.8c.1 -.3 .4 -.6 .6 -.9c.3 -.2 .7 -.5 1.1 -.8c.4 -.3 .9 -.5 1.5 -.8c.5 -.2 1.2 -.5 1.9 -.7c.7 -.3 1.4 -.5 2.2 -.8c.8 -.2 1.7 -.4 2.6 -.6c1 -.3 1.9 -.5 3 -.7c1 -.2 2.1 -.3 3.2 -.5c1.1 -.2 2.3 -.4 3.5 -.5c1.3 -.2 2.5 -.3 3.8 -.5c1.3 -.1 2.6 -.2 4 -.3c1.3 -.1 2.7 -.2 4.1 -.3c1.4 -.1 2.8 -.2 4.2 -.2c1.5 -.1 2.9 -.1 4.4 -.1c1.4 -.1 2.9 -.1 4.3 -.1c1.5 0 3 0 4.4 .1c1.5 0 2.9 0 4.4 .1c1.4 0 2.8 .1 4.2 .2c1.4 .1 2.8 .2 4.1 .3c1.4 .1 2.7 .2 4 .3c1.3 .2 2.5 .3 3.8 .5c1.2 .1 2.4 .3 3.5 .5c1.1 .2 2.2 .3 3.2 .5c1.1 .2 2 .4 3 .7c.9 .2 1.8 .4 2.6 .6c.8 .3 1.5 .5 2.2 .8c.7 .2 1.3 .5 1.9 .7c.6 .3 1.1 .5 1.5 .8c.4 .3 .8 .6 1.1 .8c.2 .3 .5 .6 .6 .9c.1 .2 .2 .5 .2 .8Z" class="g4_269"/>
<path d="M517.8 589.7c0 .3 -.1 .6 -.2 .8c-.2 .3 -.4 .6 -.7 .9c-.3 .2 -.6 .5 -1.1 .8c-.4 .3 -.9 .5 -1.4 .8c-.6 .2 -1.2 .5 -1.9 .7c-.7 .3 -1.4 .5 -2.3 .8c-.8 .2 -1.6 .4 -2.6 .6c-.9 .3 -1.9 .5 -2.9 .7c-1 .2 -2.1 .3 -3.3 .5c-1.1 .2 -2.3 .4 -3.5 .5c-1.2 .2 -2.5 .3 -3.7 .5c-1.3 .1 -2.7 .2 -4 .3c-1.4 .1 -2.7 .2 -4.1 .3c-1.4 .1 -2.8 .2 -4.3 .2c-1.4 .1 -2.9 .1 -4.3 .1c-1.5 .1 -2.9 .1 -4.4 .1c-1.5 0 -2.9 0 -4.4 -.1c-1.4 0 -2.9 0 -4.3 -.1c-1.4 0 -2.9 -.1 -4.3 -.2c-1.4 -.1 -2.7 -.2 -4.1 -.3c-1.3 -.1 -2.7 -.2 -3.9 -.3c-1.3 -.2 -2.6 -.3 -3.8 -.5c-1.2 -.1 -2.4 -.3 -3.5 -.5c-1.2 -.2 -2.2 -.3 -3.3 -.5c-1 -.2 -2 -.4 -2.9 -.7c-.9 -.2 -1.8 -.4 -2.6 -.6c-.8 -.3 -1.6 -.5 -2.3 -.8c-.7 -.2 -1.3 -.5 -1.9 -.7c-.5 -.3 -1 -.5 -1.4 -.8c-.5 -.3 -.8 -.6 -1.1 -.8c-.3 -.3 -.5 -.6 -.6 -.9c-.2 -.2 -.3 -.5 -.3 -.8c0 -.3 .1 -.6 .3 -.8c.1 -.3 .3 -.6 .6 -.9c.3 -.2 .6 -.5 1.1 -.8c.4 -.3 .9 -.5 1.4 -.8c.6 -.2 1.2 -.5 1.9 -.7c.7 -.3 1.5 -.5 2.3 -.8c.8 -.2 1.7 -.4 2.6 -.6c.9 -.3 1.9 -.5 2.9 -.7c1.1 -.2 2.1 -.3 3.3 -.5c1.1 -.2 2.3 -.4 3.5 -.5c1.2 -.2 2.5 -.3 3.8 -.5c1.2 -.1 2.6 -.2 3.9 -.3c1.4 -.1 2.7 -.2 4.1 -.3c1.4 -.1 2.9 -.2 4.3 -.2c1.4 -.1 2.9 -.1 4.3 -.1c1.5 -.1 2.9 -.1 4.4 -.1c1.5 0 2.9 0 4.4 .1c1.4 0 2.9 0 4.3 .1c1.5 0 2.9 .1 4.3 .2c1.4 .1 2.7 .2 4.1 .3c1.3 .1 2.7 .2 4 .3c1.2 .2 2.5 .3 3.7 .5c1.2 .1 2.4 .3 3.5 .5c1.2 .2 2.3 .3 3.3 .5c1 .2 2 .4 2.9 .7c1 .2 1.8 .4 2.6 .6c.9 .3 1.6 .5 2.3 .8c.7 .2 1.3 .5 1.9 .7c.5 .3 1 .5 1.4 .8c.5 .3 .8 .6 1.1 .8c.3 .3 .5 .6 .7 .9c.1 .2 .2 .5 .2 .8Z" class="g4_269"/>
</g>
</svg>