<?xml version="1.0" encoding="UTF-8" standalone="no"?>
<!DOCTYPE svg PUBLIC "-//W3C//DTD SVG 1.1//EN"
"http://www.w3.org/Graphics/SVG/1.1/DTD/svg11.dtd">
<svg viewBox="0 0 714 1017" version="1.1" xmlns="http://www.w3.org/2000/svg" xmlns:xlink="http://www.w3.org/1999/xlink">
<defs>
<clipPath id="c0_301"><path d="M283.8 591.7v-139H410.6v139Z"/></clipPath>
<style type="text/css"><![CDATA[
.g0_301{
fill: #FFF;
}
.g1_301{
fill: none;
stroke: #000;
stroke-width: 1.145;
stroke-miterlimit: 10;
}
]]></style>
</defs>
<path d="M0 1017.7H717.2V-3.7H0V1017.7Z" class="g0_301"/>
<g clip-path="url(#c0_301)">
<path d="M283.8 452.8H408.7V591.4H283.8V452.8Z" class="g0_301"/>
<path d="M357.7 464.8c0 -.7 -.1 -1.5 -.3 -2.2c-.1 -.8 -.3 -1.5 -.6 -2.2c-.3 -.7 -.6 -1.3 -1.1 -2c-.4 -.6 -.9 -1.2 -1.4 -1.7c-.5 -.5 -1.1 -1 -1.7 -1.4c-.7 -.4 -1.3 -.8 -2 -1.1c-.7 -.3 -1.4 -.5 -2.2 -.6c-.7 -.2 -1.4 -.2 -2.2 -.2c-.7 0 -1.5 0 -2.2 .2c-.8 .1 -1.5 .3 -2.2 .6c-.7 .3 -1.3 .7 -2 1.1c-.6 .4 -1.2 .9 -1.7 1.4c-.5 .5 -1 1.1 -1.4 1.7c-.4 .7 -.8 1.3 -1.1 2c-.3 .7 -.5 1.4 -.6 2.2c-.2 .7 -.3 1.5 -.3 2.2c0 .8 .1 1.5 .3 2.2c.1 .8 .3 1.5 .6 2.2c.3 .7 .7 1.4 1.1 2c.4 .6 .9 1.2 1.4 1.7c.5 .5 1.1 1 1.7 1.4c.7 .5 1.3 .8 2 1.1c.7 .3 1.4 .5 2.2 .7c.7 .1 1.5 .2 2.2 .2c.8 0 1.5 -.1 2.2 -.2c.8 -.2 1.5 -.4 2.2 -.7c.7 -.3 1.3 -.6 2 -1.1c.6 -.4 1.2 -.9 1.7 -1.4c.5 -.5 1 -1.1 1.4 -1.7c.5 -.6 .8 -1.3 1.1 -2c.3 -.7 .5 -1.4 .6 -2.2c.2 -.7 .3 -1.4 .3 -2.2Z" class="g0_301"/>
<path d="M357.7 464.8c0 -.7 -.1 -1.5 -.3 -2.2c-.1 -.8 -.3 -1.5 -.6 -2.2c-.3 -.7 -.6 -1.3 -1.1 -2c-.4 -.6 -.9 -1.2 -1.4 -1.7c-.5 -.5 -1.1 -1 -1.7 -1.4c-.7 -.4 -1.3 -.8 -2 -1.1c-.7 -.3 -1.4 -.5 -2.2 -.6c-.7 -.2 -1.4 -.2 -2.2 -.2c-.7 0 -1.5 0 -2.2 .2c-.8 .1 -1.5 .3 -2.2 .6c-.7 .3 -1.3 .7 -2 1.1c-.6 .4 -1.2 .9 -1.7 1.4c-.5 .5 -1 1.1 -1.4 1.7c-.4 .7 -.8 1.3 -1.1 2c-.3 .7 -.5 1.4 -.6 2.2c-.2 .7 -.3 1.5 -.3 2.2c0 .8 .1 1.5 .3 2.2c.1 .8 .3 1.5 .6 2.2c.3 .7 .7 1.4 1.1 2c.4 .6 .9 1.2 1.4 1.7c.5 .5 1.1 1 1.7 1.4c.7 .5 1.3 .8 2 1.1c.7 .3 1.4 .5 2.2 .7c.7 .1 1.5 .2 2.2 .2c.8 0 1.5 -.1 2.2 -.2c.8 -.2 1.5 -.4 2.2 -.7c.7 -.3 1.3 -.6 2 -1.1c.6 -.4 1.2 -.9 1.7 -1.4c.5 -.5 1 -1.1 1.4 -1.7c.5 -.6 .8 -1.3 1.1 -2c.3 -.7 .5 -1.4 .6 -2.2c.2 -.7 .3 -1.4 .3 -2.2Z" class="g1_301"/>
<path d="M385.2 496.9c0 .7 0 1.5 .2 2.2c.1 .8 .3 1.5 .6 2.2c.3 .7 .7 1.3 1.1 2c.4 .6 .9 1.2 1.4 1.7c.6 .5 1.1 1 1.8 1.4c.6 .4 1.2 .8 1.9 1.1c.7 .3 1.4 .5 2.2 .6c.7 .2 1.5 .3 2.2 .3c.8 0 1.5 -.1 2.3 -.3c.7 -.1 1.4 -.3 2.1 -.6c.7 -.3 1.4 -.7 2 -1.1c.6 -.4 1.2 -.9 1.7 -1.4c.6 -.5 1 -1.1 1.4 -1.7c.5 -.7 .8 -1.3 1.1 -2c.3 -.7 .5 -1.4 .7 -2.2c.1 -.7 .2 -1.5 .2 -2.2c0 -.8 -.1 -1.5 -.2 -2.2c-.2 -.8 -.4 -1.5 -.7 -2.2c-.3 -.7 -.6 -1.3 -1.1 -2c-.4 -.6 -.8 -1.2 -1.4 -1.7c-.5 -.5 -1.1 -1 -1.7 -1.4c-.6 -.4 -1.3 -.8 -2 -1.1c-.7 -.3 -1.4 -.5 -2.1 -.6c-.8 -.2 -1.5 -.3 -2.3 -.3c-.7 0 -1.5 .1 -2.2 .3c-.8 .1 -1.5 .3 -2.2 .6c-.7 .3 -1.3 .7 -1.9 1.1c-.7 .4 -1.2 .9 -1.8 1.4c-.5 .5 -1 1.1 -1.4 1.7c-.4 .7 -.8 1.3 -1.1 2c-.3 .7 -.5 1.4 -.6 2.2c-.2 .7 -.2 1.4 -.2 2.2Z" class="g0_301"/>
<path d="M385.2 496.9c0 .7 0 1.5 .2 2.2c.1 .8 .3 1.5 .6 2.2c.3 .7 .7 1.3 1.1 2c.4 .6 .9 1.2 1.4 1.7c.6 .5 1.1 1 1.8 1.4c.6 .4 1.2 .8 1.9 1.1c.7 .3 1.4 .5 2.2 .6c.7 .2 1.5 .3 2.2 .3c.8 0 1.5 -.1 2.3 -.3c.7 -.1 1.4 -.3 2.1 -.6c.7 -.3 1.4 -.7 2 -1.1c.6 -.4 1.2 -.9 1.7 -1.4c.6 -.5 1 -1.1 1.4 -1.7c.5 -.7 .8 -1.3 1.1 -2c.3 -.7 .5 -1.4 .7 -2.2c.1 -.7 .2 -1.5 .2 -2.2c0 -.8 -.1 -1.5 -.2 -2.2c-.2 -.8 -.4 -1.5 -.7 -2.2c-.3 -.7 -.6 -1.3 -1.1 -2c-.4 -.6 -.8 -1.2 -1.4 -1.7c-.5 -.5 -1.1 -1 -1.7 -1.4c-.6 -.4 -1.3 -.8 -2 -1.1c-.7 -.3 -1.4 -.5 -2.1 -.6c-.8 -.2 -1.5 -.3 -2.3 -.3c-.7 0 -1.5 .1 -2.2 .3c-.8 .1 -1.5 .3 -2.2 .6c-.7 .3 -1.3 .7 -1.9 1.1c-.7 .4 -1.2 .9 -1.8 1.4c-.5 .5 -1 1.1 -1.4 1.7c-.4 .7 -.8 1.3 -1.1 2c-.3 .7 -.5 1.4 -.6 2.2c-.2 .7 -.2 1.4 -.2 2.2Z" class="g1_301"/>
<path d="M284.3 496.9c0 .7 .1 1.5 .3 2.2c.1 .8 .3 1.5 .6 2.2c.3 .7 .6 1.3 1.1 2c.4 .6 .9 1.2 1.4 1.7c.5 .5 1.1 1 1.7 1.4c.6 .4 1.3 .8 2 1.1c.7 .3 1.4 .5 2.2 .6c.7 .2 1.4 .3 2.2 .3c.7 0 1.5 -.1 2.2 -.3c.8 -.1 1.5 -.3 2.2 -.6c.7 -.3 1.3 -.7 2 -1.1c.6 -.4 1.2 -.9 1.7 -1.4c.5 -.5 1 -1.1 1.4 -1.7c.4 -.7 .8 -1.3 1.1 -2c.3 -.7 .5 -1.4 .6 -2.2c.2 -.7 .2 -1.5 .2 -2.2c0 -.8 0 -1.5 -.2 -2.2c-.1 -.8 -.3 -1.5 -.6 -2.2c-.3 -.7 -.7 -1.3 -1.1 -2c-.4 -.6 -.9 -1.2 -1.4 -1.7c-.5 -.5 -1.1 -1 -1.7 -1.4c-.7 -.4 -1.3 -.8 -2 -1.1c-.7 -.3 -1.4 -.5 -2.2 -.6c-.7 -.2 -1.5 -.3 -2.2 -.3c-.8 0 -1.5 .1 -2.2 .3c-.8 .1 -1.5 .3 -2.2 .6c-.7 .3 -1.4 .7 -2 1.1c-.6 .4 -1.2 .9 -1.7 1.4c-.5 .5 -1 1.1 -1.4 1.7c-.5 .7 -.8 1.3 -1.1 2c-.3 .7 -.5 1.4 -.6 2.2c-.2 .7 -.3 1.4 -.3 2.2Z" class="g0_301"/>
<path d="M284.3 496.9c0 .7 .1 1.5 .3 2.2c.1 .8 .3 1.5 .6 2.2c.3 .7 .6 1.3 1.1 2c.4 .6 .9 1.2 1.4 1.7c.5 .5 1.1 1 1.7 1.4c.6 .4 1.3 .8 2 1.1c.7 .3 1.4 .5 2.2 .6c.7 .2 1.4 .3 2.2 .3c.7 0 1.5 -.1 2.2 -.3c.8 -.1 1.5 -.3 2.2 -.6c.7 -.3 1.3 -.7 2 -1.1c.6 -.4 1.2 -.9 1.7 -1.4c.5 -.5 1 -1.1 1.4 -1.7c.4 -.7 .8 -1.3 1.1 -2c.3 -.7 .5 -1.4 .6 -2.2c.2 -.7 .2 -1.5 .2 -2.2c0 -.8 0 -1.5 -.2 -2.2c-.1 -.8 -.3 -1.5 -.6 -2.2c-.3 -.7 -.7 -1.3 -1.1 -2c-.4 -.6 -.9 -1.2 -1.4 -1.7c-.5 -.5 -1.1 -1 -1.7 -1.4c-.7 -.4 -1.3 -.8 -2 -1.1c-.7 -.3 -1.4 -.5 -2.2 -.6c-.7 -.2 -1.5 -.3 -2.2 -.3c-.8 0 -1.5 .1 -2.2 .3c-.8 .1 -1.5 .3 -2.2 .6c-.7 .3 -1.4 .7 -2 1.1c-.6 .4 -1.2 .9 -1.7 1.4c-.5 .5 -1 1.1 -1.4 1.7c-.5 .7 -.8 1.3 -1.1 2c-.3 .7 -.5 1.4 -.6 2.2c-.2 .7 -.3 1.4 -.3 2.2Z" class="g1_301"/>
<path d="M307.2 548.5c0 .7 0 1.5 -.2 2.2c-.1 .7 -.3 1.4 -.6 2.1c-.3 .7 -.7 1.4 -1.1 2c-.4 .6 -.9 1.2 -1.4 1.8c-.5 .5 -1.1 1 -1.7 1.4c-.7 .4 -1.3 .8 -2 1c-.7 .3 -1.4 .5 -2.2 .7c-.7 .1 -1.5 .2 -2.2 .2c-.8 0 -1.5 -.1 -2.2 -.2c-.8 -.2 -1.5 -.4 -2.2 -.7c-.7 -.2 -1.4 -.6 -2 -1c-.6 -.4 -1.2 -.9 -1.7 -1.4c-.5 -.6 -1 -1.2 -1.4 -1.8c-.5 -.6 -.8 -1.3 -1.1 -2c-.3 -.7 -.5 -1.4 -.6 -2.1c-.2 -.7 -.3 -1.5 -.3 -2.2c0 -.8 .1 -1.5 .3 -2.3c.1 -.7 .3 -1.4 .6 -2.1c.3 -.7 .6 -1.4 1.1 -2c.4 -.6 .9 -1.2 1.4 -1.7c.5 -.6 1.1 -1.1 1.7 -1.5c.6 -.4 1.3 -.7 2 -1c.7 -.3 1.4 -.5 2.2 -.7c.7 -.1 1.4 -.2 2.2 -.2c.7 0 1.5 .1 2.2 .2c.8 .2 1.5 .4 2.2 .7c.7 .3 1.3 .6 2 1c.6 .4 1.2 .9 1.7 1.5c.5 .5 1 1.1 1.4 1.7c.4 .6 .8 1.3 1.1 2c.3 .7 .5 1.4 .6 2.1c.2 .8 .2 1.5 .2 2.3Z" class="g0_301"/>
<path d="M307.2 548.5c0 .7 0 1.5 -.2 2.2c-.1 .7 -.3 1.4 -.6 2.1c-.3 .7 -.7 1.4 -1.1 2c-.4 .6 -.9 1.2 -1.4 1.8c-.5 .5 -1.1 1 -1.7 1.4c-.7 .4 -1.3 .8 -2 1c-.7 .3 -1.4 .5 -2.2 .7c-.7 .1 -1.5 .2 -2.2 .2c-.8 0 -1.5 -.1 -2.2 -.2c-.8 -.2 -1.5 -.4 -2.2 -.7c-.7 -.2 -1.4 -.6 -2 -1c-.6 -.4 -1.2 -.9 -1.7 -1.4c-.5 -.6 -1 -1.2 -1.4 -1.8c-.5 -.6 -.8 -1.3 -1.1 -2c-.3 -.7 -.5 -1.4 -.6 -2.1c-.2 -.7 -.3 -1.5 -.3 -2.2c0 -.8 .1 -1.5 .3 -2.3c.1 -.7 .3 -1.4 .6 -2.1c.3 -.7 .6 -1.4 1.1 -2c.4 -.6 .9 -1.2 1.4 -1.7c.5 -.6 1.1 -1.1 1.7 -1.5c.6 -.4 1.3 -.7 2 -1c.7 -.3 1.4 -.5 2.2 -.7c.7 -.1 1.4 -.2 2.2 -.2c.7 0 1.5 .1 2.2 .2c.8 .2 1.5 .4 2.2 .7c.7 .3 1.3 .6 2 1c.6 .4 1.2 .9 1.7 1.5c.5 .5 1 1.1 1.4 1.7c.4 .6 .8 1.3 1.1 2c.3 .7 .5 1.4 .6 2.1c.2 .8 .2 1.5 .2 2.3Z" class="g1_301"/>
<path d="M357.7 579.4c0 -.8 -.1 -1.5 -.3 -2.2c-.1 -.8 -.3 -1.5 -.6 -2.2c-.3 -.7 -.6 -1.3 -1.1 -2c-.4 -.6 -.9 -1.2 -1.4 -1.7c-.5 -.5 -1.1 -1 -1.7 -1.4c-.7 -.4 -1.3 -.8 -2 -1.1c-.7 -.3 -1.4 -.5 -2.2 -.6c-.7 -.2 -1.4 -.3 -2.2 -.3c-.7 0 -1.5 .1 -2.2 .3c-.8 .1 -1.5 .3 -2.2 .6c-.7 .3 -1.3 .7 -2 1.1c-.6 .4 -1.2 .9 -1.7 1.4c-.5 .5 -1 1.1 -1.4 1.7c-.4 .7 -.8 1.3 -1.1 2c-.3 .7 -.5 1.4 -.6 2.2c-.2 .7 -.3 1.4 -.3 2.2c0 .7 .1 1.5 .3 2.2c.1 .8 .3 1.5 .6 2.2c.3 .7 .7 1.3 1.1 2c.4 .6 .9 1.2 1.4 1.7c.5 .5 1.1 1 1.7 1.4c.7 .4 1.3 .8 2 1.1c.7 .3 1.4 .5 2.2 .6c.7 .2 1.5 .3 2.2 .3c.8 0 1.5 -.1 2.2 -.3c.8 -.1 1.5 -.3 2.2 -.6c.7 -.3 1.3 -.7 2 -1.1c.6 -.4 1.2 -.9 1.7 -1.4c.5 -.5 1 -1.1 1.4 -1.7c.5 -.7 .8 -1.3 1.1 -2c.3 -.7 .5 -1.4 .6 -2.2c.2 -.7 .3 -1.5 .3 -2.2Z" class="g0_301"/>
<path d="M357.7 579.4c0 -.8 -.1 -1.5 -.3 -2.2c-.1 -.8 -.3 -1.5 -.6 -2.2c-.3 -.7 -.6 -1.3 -1.1 -2c-.4 -.6 -.9 -1.2 -1.4 -1.7c-.5 -.5 -1.1 -1 -1.7 -1.4c-.7 -.4 -1.3 -.8 -2 -1.1c-.7 -.3 -1.4 -.5 -2.2 -.6c-.7 -.2 -1.4 -.3 -2.2 -.3c-.7 0 -1.5 .1 -2.2 .3c-.8 .1 -1.5 .3 -2.2 .6c-.7 .3 -1.3 .7 -2 1.1c-.6 .4 -1.2 .9 -1.7 1.4c-.5 .5 -1 1.1 -1.4 1.7c-.4 .7 -.8 1.3 -1.1 2c-.3 .7 -.5 1.4 -.6 2.2c-.2 .7 -.3 1.4 -.3 2.2c0 .7 .1 1.5 .3 2.2c.1 .8 .3 1.5 .6 2.2c.3 .7 .7 1.3 1.1 2c.4 .6 .9 1.2 1.4 1.7c.5 .5 1.1 1 1.7 1.4c.7 .4 1.3 .8 2 1.1c.7 .3 1.4 .5 2.2 .6c.7 .2 1.5 .3 2.2 .3c.8 0 1.5 -.1 2.2 -.3c.8 -.1 1.5 -.3 2.2 -.6c.7 -.3 1.3 -.7 2 -1.1c.6 -.4 1.2 -.9 1.7 -1.4c.5 -.5 1 -1.1 1.4 -1.7c.5 -.7 .8 -1.3 1.1 -2c.3 -.7 .5 -1.4 .6 -2.2c.2 -.7 .3 -1.5 .3 -2.2Z" class="g1_301"/>
<path d="M408.1 548.5c0 .7 -.1 1.5 -.2 2.2c-.2 .7 -.4 1.4 -.7 2.1c-.3 .7 -.6 1.4 -1.1 2c-.4 .6 -.8 1.2 -1.4 1.8c-.5 .5 -1.1 1 -1.7 1.4c-.6 .4 -1.3 .8 -2 1c-.7 .3 -1.4 .5 -2.1 .7c-.8 .1 -1.5 .2 -2.3 .2c-.7 0 -1.5 -.1 -2.2 -.2c-.8 -.2 -1.5 -.4 -2.2 -.7c-.7 -.2 -1.3 -.6 -1.9 -1c-.7 -.4 -1.2 -.9 -1.8 -1.4c-.5 -.6 -1 -1.2 -1.4 -1.8c-.4 -.6 -.8 -1.3 -1.1 -2c-.3 -.7 -.5 -1.4 -.6 -2.1c-.2 -.7 -.2 -1.5 -.2 -2.2c0 -.8 0 -1.5 .2 -2.3c.1 -.7 .3 -1.4 .6 -2.1c.3 -.7 .7 -1.4 1.1 -2c.4 -.6 .9 -1.2 1.4 -1.7c.6 -.6 1.1 -1.1 1.8 -1.5c.6 -.4 1.2 -.7 1.9 -1c.7 -.3 1.4 -.5 2.2 -.7c.7 -.1 1.5 -.2 2.2 -.2c.8 0 1.5 .1 2.3 .2c.7 .2 1.4 .4 2.1 .7c.7 .3 1.4 .6 2 1c.6 .4 1.2 .9 1.7 1.5c.6 .5 1 1.1 1.4 1.7c.5 .6 .8 1.3 1.1 2c.3 .7 .5 1.4 .7 2.1c.1 .8 .2 1.5 .2 2.3Z" class="g0_301"/>
<path d="M408.1 548.5c0 .7 -.1 1.5 -.2 2.2c-.2 .7 -.4 1.4 -.7 2.1c-.3 .7 -.6 1.4 -1.1 2c-.4 .6 -.8 1.2 -1.4 1.8c-.5 .5 -1.1 1 -1.7 1.4c-.6 .4 -1.3 .8 -2 1c-.7 .3 -1.4 .5 -2.1 .7c-.8 .1 -1.5 .2 -2.3 .2c-.7 0 -1.5 -.1 -2.2 -.2c-.8 -.2 -1.5 -.4 -2.2 -.7c-.7 -.2 -1.3 -.6 -1.9 -1c-.7 -.4 -1.2 -.9 -1.8 -1.4c-.5 -.6 -1 -1.2 -1.4 -1.8c-.4 -.6 -.8 -1.3 -1.1 -2c-.3 -.7 -.5 -1.4 -.6 -2.1c-.2 -.7 -.2 -1.5 -.2 -2.2c0 -.8 0 -1.5 .2 -2.3c.1 -.7 .3 -1.4 .6 -2.1c.3 -.7 .7 -1.4 1.1 -2c.4 -.6 .9 -1.2 1.4 -1.7c.6 -.6 1.1 -1.1 1.8 -1.5c.6 -.4 1.2 -.7 1.9 -1c.7 -.3 1.4 -.5 2.2 -.7c.7 -.1 1.5 -.2 2.2 -.2c.8 0 1.5 .1 2.3 .2c.7 .2 1.4 .4 2.1 .7c.7 .3 1.4 .6 2 1c.6 .4 1.2 .9 1.7 1.5c.6 .5 1 1.1 1.4 1.7c.5 .6 .8 1.3 1.1 2c.3 .7 .5 1.4 .7 2.1c.1 .8 .2 1.5 .2 2.3Zm-21.8 -5L356.4 528.4m-10.2 39.5V534.7m-40.1 8.8L336 528.4M356.4 518l30.1 -15.8m-80.7 .2l35.8 19.7m4.6 -45.8v35.5" class="g1_301"/>
<path d="M334.7 523.3c0 -.8 .1 -1.5 .3 -2.3c.1 -.7 .3 -1.4 .6 -2.1c.3 -.7 .7 -1.4 1.1 -2c.4 -.6 .9 -1.2 1.4 -1.8c.5 -.5 1.1 -1 1.7 -1.4c.7 -.4 1.3 -.7 2 -1c.7 -.3 1.4 -.5 2.2 -.7c.7 -.1 1.5 -.2 2.2 -.2c.8 0 1.5 .1 2.2 .2c.8 .2 1.5 .4 2.2 .7c.7 .3 1.3 .6 2 1c.6 .4 1.2 .9 1.7 1.4c.5 .6 1 1.2 1.4 1.8c.5 .6 .8 1.3 1.1 2c.3 .7 .5 1.4 .6 2.1c.2 .8 .3 1.5 .3 2.3c0 .7 -.1 1.4 -.3 2.2c-.1 .7 -.3 1.4 -.6 2.1c-.3 .7 -.6 1.4 -1.1 2c-.4 .6 -.9 1.2 -1.4 1.8c-.5 .5 -1.1 1 -1.7 1.4c-.7 .4 -1.3 .7 -2 1c-.7 .3 -1.4 .5 -2.2 .7c-.7 .1 -1.4 .2 -2.2 .2c-.7 0 -1.5 -.1 -2.2 -.2c-.8 -.2 -1.5 -.4 -2.2 -.7c-.7 -.3 -1.3 -.6 -2 -1c-.6 -.4 -1.2 -.9 -1.7 -1.4c-.5 -.6 -1 -1.2 -1.4 -1.8c-.4 -.6 -.8 -1.3 -1.1 -2c-.3 -.7 -.5 -1.4 -.6 -2.1c-.2 -.8 -.3 -1.5 -.3 -2.2Z" class="g0_301"/>
<path d="M334.7 523.3c0 -.8 .1 -1.5 .3 -2.3c.1 -.7 .3 -1.4 .6 -2.1c.3 -.7 .7 -1.4 1.1 -2c.4 -.6 .9 -1.2 1.4 -1.8c.5 -.5 1.1 -1 1.7 -1.4c.7 -.4 1.3 -.7 2 -1c.7 -.3 1.4 -.5 2.2 -.7c.7 -.1 1.5 -.2 2.2 -.2c.8 0 1.5 .1 2.2 .2c.8 .2 1.5 .4 2.2 .7c.7 .3 1.3 .6 2 1c.6 .4 1.2 .9 1.7 1.4c.5 .6 1 1.2 1.4 1.8c.5 .6 .8 1.3 1.1 2c.3 .7 .5 1.4 .6 2.1c.2 .8 .3 1.5 .3 2.3c0 .7 -.1 1.4 -.3 2.2c-.1 .7 -.3 1.4 -.6 2.1c-.3 .7 -.6 1.4 -1.1 2c-.4 .6 -.9 1.2 -1.4 1.8c-.5 .5 -1.1 1 -1.7 1.4c-.7 .4 -1.3 .7 -2 1c-.7 .3 -1.4 .5 -2.2 .7c-.7 .1 -1.4 .2 -2.2 .2c-.7 0 -1.5 -.1 -2.2 -.2c-.8 -.2 -1.5 -.4 -2.2 -.7c-.7 -.3 -1.3 -.6 -2 -1c-.6 -.4 -1.2 -.9 -1.7 -1.4c-.5 -.6 -1 -1.2 -1.4 -1.8c-.4 -.6 -.8 -1.3 -1.1 -2c-.3 -.7 -.5 -1.4 -.6 -2.1c-.2 -.8 -.3 -1.5 -.3 -2.2Z" class="g1_301"/>
</g>
</svg>