<?xml version="1.0" encoding="UTF-8" standalone="no"?>
<!DOCTYPE svg PUBLIC "-//W3C//DTD SVG 1.1//EN"
"http://www.w3.org/Graphics/SVG/1.1/DTD/svg11.dtd">
<svg viewBox="0 0 714 1017" version="1.1" xmlns="http://www.w3.org/2000/svg" xmlns:xlink="http://www.w3.org/1999/xlink">
<defs>
<clipPath id="c0_249"><path d="M65 593V431.4H636.3V593Z"/></clipPath>
<clipPath id="c1_249"><path d="M65 593.5V430H636.3V593.5Z"/></clipPath>
<style type="text/css"><![CDATA[
.g0_249{
fill: #FFF;
}
.g1_249{
fill: none;
stroke: #000;
stroke-width: 1.145;
stroke-miterlimit: 10;
}
.g2_249{
fill: none;
stroke: #000;
stroke-width: 2.291;
stroke-miterlimit: 10;
}
.g3_249{
fill: #000;
}
.g4_249{
fill: none;
stroke: #000;
stroke-width: 1.217;
stroke-miterlimit: 10;
}
.g5_249{
fill: none;
stroke: #000;
stroke-width: 1.156;
stroke-miterlimit: 10;
}
.g6_249{
fill: none;
stroke: #000;
stroke-width: 0.76;
stroke-miterlimit: 10;
}
.g7_249{
fill: none;
stroke: #000;
stroke-width: 0.608;
stroke-miterlimit: 10;
}
]]></style>
</defs>
<path d="M0 1017.7H717.2V-3.7H0V1017.7Z" class="g0_249"/>
<g clip-path="url(#c1_249)">
<path clip-path="url(#c0_249)" d="M65 431.4H636.7V593H65V431.4Z" class="g0_249"/>
<path d="M145.7 432H604.1V592.4H145.7V432Zm12.6 34.4h33.3v22.9H158.3V466.4Zm33.3 0h57.3v22.9H191.6V466.4Zm81.3 0h33.3v22.9H272.9V466.4Zm33.3 0h57.3v22.9H306.2V466.4Zm194.8 0h34.3v22.9H501V466.4Zm34.3 0h57.3v22.9H535.3V466.4Zm-148.9 0h34.3v22.9H386.4V466.4Zm34.3 0H478v22.9H420.7V466.4Z" class="g1_249"/>
<path d="M122.8 493.9H248.9c7.6 0 11.4 -3.9 11.4 -11.5V460.6c0 -7.6 3.8 -11.4 11.5 -11.4h91.7c7.6 0 11.4 3.8 11.4 11.4v21.8c0 7.6 3.8 11.5 11.5 11.5H617.6" class="g2_249"/>
<path d="M624.4 493.9l-9.1 3l2.3 -3l-2.3 -3.1l9.1 3.1Z" class="g3_249"/>
<path d="M624.4 493.9l-9.1 3l2.3 -3l-2.3 -3.1l9.1 3.1Z" class="g2_249"/>
<path d="M165.2 511.6h3.5v1.2h-3.5v-1.2Zm6.9 0h3.4v1.2h-3.4v-1.2Zm6.9 0h3.4v1.2H179v-1.2Zm6.8 0h3.5v1.2h-3.5v-1.2Zm6.9 0h3.5v1.2h-3.5v-1.2Zm6.9 0H203v1.2h-3.4v-1.2Zm6.9 0h3.4v1.2h-3.4v-1.2Zm6.8 0h3.5v1.2h-3.5v-1.2Zm6.9 0h3.5v1.2h-3.5v-1.2Zm6.9 0h3.4v1.2h-3.4v-1.2Zm6.9 0h3.4v1.2H234v-1.2Zm6.8 0h3.5v1.2h-3.5v-1.2Zm6.9 0h1.7v2.9h-1.1v-2.3h.6v.6h-1.2v-1.2Zm1.7 6.3v3.5h-1.1v-3.5h1.1Zm0 6.9v3.4h-1.1v-3.4h1.1Zm0 6.9v3.4h-1.1v-3.4h1.1Zm-4 4H242v-1.2h3.4v1.2Zm-6.8 0h-3.5v-1.2h3.5v1.2Zm-6.9 0h-3.5v-1.2h3.5v1.2Zm-6.9 0h-3.4v-1.2h3.4v1.2Zm-6.9 0h-3.4v-1.2h3.4v1.2Zm-6.8 0h-3.5v-1.2h3.5v1.2Zm-6.9 0h-3.5v-1.2h3.5v1.2Zm-6.9 0h-3.4v-1.2h3.4v1.2Zm-6.9 0H187v-1.2h3.4v1.2Zm-6.8 0h-3.5v-1.2h3.5v1.2Zm-6.9 0h-3.5v-1.2h3.5v1.2Zm-6.9 0h-3.4v-1.2h3.4v1.2Zm-6.9 0h-3.4v-1.2h3.4v1.2Zm-5.1 -2.9v-3.4h1.1v3.4h-1.1Zm0 -6.9v-3.4h1.1v3.4h-1.1Zm0 -6.8v-3.5h1.1v3.5h-1.1Zm.5 -7.5h3.5v1.2h-3.5v-1.2Z" class="g3_249"/>
<path d="M165.2 534.5h3.5v1.2h-3.5v-1.2Zm6.9 0h3.4v1.2h-3.4v-1.2Zm6.9 0h3.4v1.2H179v-1.2Zm6.8 0h3.5v1.2h-3.5v-1.2Zm6.9 0h3.5v1.2h-3.5v-1.2Zm6.9 0H203v1.2h-3.4v-1.2Zm6.9 0h3.4v1.2h-3.4v-1.2Zm6.8 0h3.5v1.2h-3.5v-1.2Zm6.9 0h3.5v1.2h-3.5v-1.2Zm6.9 0h3.4v1.2h-3.4v-1.2Zm6.9 0h3.4v1.2H234v-1.2Zm6.8 0h3.5v1.2h-3.5v-1.2Zm6.9 0h1.7v2.9h-1.1v-2.3h.6v.6h-1.2v-1.2Zm1.7 6.3v3.5h-1.1v-3.5h1.1Zm0 6.9v3.4h-1.1v-3.4h1.1Zm0 6.9V558h-1.1v-3.4h1.1Zm-4 4H242v-1.2h3.4v1.2Zm-6.8 0h-3.5v-1.2h3.5v1.2Zm-6.9 0h-3.5v-1.2h3.5v1.2Zm-6.9 0h-3.4v-1.2h3.4v1.2Zm-6.9 0h-3.4v-1.2h3.4v1.2Zm-6.8 0h-3.5v-1.2h3.5v1.2Zm-6.9 0h-3.5v-1.2h3.5v1.2Zm-6.9 0h-3.4v-1.2h3.4v1.2Zm-6.9 0H187v-1.2h3.4v1.2Zm-6.8 0h-3.5v-1.2h3.5v1.2Zm-6.9 0h-3.5v-1.2h3.5v1.2Zm-6.9 0h-3.4v-1.2h3.4v1.2Zm-6.9 0h-3.4v-1.2h3.4v1.2Zm-5.1 -2.9v-3.4h1.1v3.4h-1.1Zm0 -6.8v-3.5h1.1v3.5h-1.1Zm0 -6.9v-3.5h1.1V542h-1.1Zm.5 -7.5h3.5v1.2h-3.5v-1.2Z" class="g3_249"/>
<path d="M279.8 511.6h3.4v1.2h-3.4v-1.2Zm6.9 0h3.4v1.2h-3.4v-1.2Zm6.9 0H297v1.2h-3.4v-1.2Zm6.8 0h3.5v1.2h-3.5v-1.2Zm6.9 0h3.4v1.2h-3.4v-1.2Zm6.9 0h3.4v1.2h-3.4v-1.2Zm6.9 0h3.4v1.2h-3.4v-1.2Zm6.8 0h3.5v1.2h-3.5v-1.2Zm6.9 0h3.4v1.2h-3.4v-1.2Zm6.9 0h3.4v1.2h-3.4v-1.2Zm6.9 0H352v1.2h-3.4v-1.2Zm6.8 0h3.5v1.2h-3.5v-1.2Zm6.9 0H364v2.9h-1.1v-2.3h.6v.6h-1.2v-1.2Zm1.7 6.3v3.5h-1.1v-3.5H364Zm0 6.9v3.4h-1.1v-3.4H364Zm0 6.9v3.4h-1.1v-3.4H364Zm-4 4h-3.4v-1.2H360v1.2Zm-6.9 0h-3.4v-1.2h3.4v1.2Zm-6.8 0h-3.5v-1.2h3.5v1.2Zm-6.9 0H336v-1.2h3.4v1.2Zm-6.9 0h-3.4v-1.2h3.4v1.2Zm-6.9 0h-3.4v-1.2h3.4v1.2Zm-6.8 0h-3.5v-1.2h3.5v1.2Zm-6.9 0h-3.4v-1.2h3.4v1.2Zm-6.9 0h-3.4v-1.2H305v1.2Zm-6.9 0h-3.4v-1.2h3.4v1.2Zm-6.8 0h-3.5v-1.2h3.5v1.2Zm-6.9 0H281v-1.2h3.4v1.2Zm-6.9 0h-3.4v-1.2h3.4v1.2Zm-5.1 -2.9v-3.4h1.1v3.4h-1.1Zm0 -6.9v-3.4h1.1v3.4h-1.1Zm0 -6.8v-3.5h1.1v3.5h-1.1Zm.5 -7.5h3.5v1.2h-3.5v-1.2Z" class="g3_249"/>
<path d="M279.8 534.5h3.4v1.2h-3.4v-1.2Zm6.9 0h3.4v1.2h-3.4v-1.2Zm6.9 0H297v1.2h-3.4v-1.2Zm6.8 0h3.5v1.2h-3.5v-1.2Zm6.9 0h3.4v1.2h-3.4v-1.2Zm6.9 0h3.4v1.2h-3.4v-1.2Zm6.9 0h3.4v1.2h-3.4v-1.2Zm6.8 0h3.5v1.2h-3.5v-1.2Zm6.9 0h3.4v1.2h-3.4v-1.2Zm6.9 0h3.4v1.2h-3.4v-1.2Zm6.9 0H352v1.2h-3.4v-1.2Zm6.8 0h3.5v1.2h-3.5v-1.2Zm6.9 0H364v2.9h-1.1v-2.3h.6v.6h-1.2v-1.2Zm1.7 6.3v3.5h-1.1v-3.5H364Zm0 6.9v3.4h-1.1v-3.4H364Zm0 6.9V558h-1.1v-3.4H364Zm-4 4h-3.4v-1.2H360v1.2Zm-6.9 0h-3.4v-1.2h3.4v1.2Zm-6.8 0h-3.5v-1.2h3.5v1.2Zm-6.9 0H336v-1.2h3.4v1.2Zm-6.9 0h-3.4v-1.2h3.4v1.2Zm-6.9 0h-3.4v-1.2h3.4v1.2Zm-6.8 0h-3.5v-1.2h3.5v1.2Zm-6.9 0h-3.4v-1.2h3.4v1.2Zm-6.9 0h-3.4v-1.2H305v1.2Zm-6.9 0h-3.4v-1.2h3.4v1.2Zm-6.8 0h-3.5v-1.2h3.5v1.2Zm-6.9 0H281v-1.2h3.4v1.2Zm-6.9 0h-3.4v-1.2h3.4v1.2Zm-5.1 -2.9v-3.4h1.1v3.4h-1.1Zm0 -6.8v-3.5h1.1v3.5h-1.1Zm0 -6.9v-3.5h1.1V542h-1.1Zm.5 -7.5h3.5v1.2h-3.5v-1.2Z" class="g3_249"/>
<path d="M393.2 511.6h3.5v1.2h-3.5v-1.2Zm6.9 0h3.5v1.2h-3.5v-1.2Zm6.9 0h3.4v1.2H407v-1.2Zm6.9 0h3.4v1.2h-3.4v-1.2Zm6.8 0h3.5v1.2h-3.5v-1.2Zm6.9 0h3.5v1.2h-3.5v-1.2Zm6.9 0h3.4v1.2h-3.4v-1.2Zm6.9 0h3.4v1.2h-3.4v-1.2Zm6.8 0h3.5v1.2h-3.5v-1.2Zm6.9 0h3.5v1.2h-3.5v-1.2Zm6.9 0h3.4v1.2H462v-1.2Zm6.9 0h3.4v1.2h-3.4v-1.2Zm6.8 0h2.9v1.7h-1.1v-1.1h.5v.6h-2.3v-1.2Zm2.9 5.2v3.4h-1.1v-3.4h1.1Zm0 6.8v3.5h-1.1v-3.5h1.1Zm0 6.9V534h-1.1v-3.5h1.1Zm-2.9 5.2h-3.4v-1.2h3.4v1.2Zm-6.8 0h-3.5v-1.2h3.5v1.2Zm-6.9 0h-3.4v-1.2H462v1.2Zm-6.9 0h-3.4v-1.2h3.4v1.2Zm-6.9 0h-3.4v-1.2h3.4v1.2Zm-6.8 0h-3.5v-1.2h3.5v1.2Zm-6.9 0h-3.4v-1.2h3.4v1.2Zm-6.9 0h-3.4v-1.2h3.4v1.2Zm-6.9 0h-3.4v-1.2h3.4v1.2Zm-6.8 0h-3.5v-1.2h3.5v1.2Zm-6.9 0h-3.4v-1.2H407v1.2Zm-6.9 0h-3.4v-1.2h3.4v1.2Zm-6.9 0h-3.4v-1.2h3.4v1.2Zm-7.4 -.6v-3.4h1.1v3.4h-1.1Zm0 -6.9v-3.4h1.1v3.4h-1.1Zm0 -6.8v-3.5h1.1v3.5h-1.1Zm0 -6.9v-2.9h4v1.2h-3.4v-.6h.5v2.3h-1.1Z" class="g3_249"/>
<path d="M393.2 534.5h3.5v1.2h-3.5v-1.2Zm6.9 0h3.5v1.2h-3.5v-1.2Zm6.9 0h3.4v1.2H407v-1.2Zm6.9 0h3.4v1.2h-3.4v-1.2Zm6.8 0h3.5v1.2h-3.5v-1.2Zm6.9 0h3.5v1.2h-3.5v-1.2Zm6.9 0h3.4v1.2h-3.4v-1.2Zm6.9 0h3.4v1.2h-3.4v-1.2Zm6.8 0h3.5v1.2h-3.5v-1.2Zm6.9 0h3.5v1.2h-3.5v-1.2Zm6.9 0h3.4v1.2H462v-1.2Zm6.9 0h3.4v1.2h-3.4v-1.2Zm6.8 0h2.9v1.7h-1.1v-1.1h.5v.6h-2.3v-1.2Zm2.9 5.2v3.4h-1.1v-3.4h1.1Zm0 6.9V550h-1.1v-3.4h1.1Zm0 6.8v3.5h-1.1v-3.5h1.1Zm-2.9 5.2h-3.4v-1.2h3.4v1.2Zm-6.8 0h-3.5v-1.2h3.5v1.2Zm-6.9 0h-3.4v-1.2H462v1.2Zm-6.9 0h-3.4v-1.2h3.4v1.2Zm-6.9 0h-3.4v-1.2h3.4v1.2Zm-6.8 0h-3.5v-1.2h3.5v1.2Zm-6.9 0h-3.4v-1.2h3.4v1.2Zm-6.9 0h-3.4v-1.2h3.4v1.2Zm-6.9 0h-3.4v-1.2h3.4v1.2Zm-6.8 0h-3.5v-1.2h3.5v1.2Zm-6.9 0h-3.4v-1.2H407v1.2Zm-6.9 0h-3.4v-1.2h3.4v1.2Zm-6.9 0h-3.4v-1.2h3.4v1.2Zm-7.4 -.6v-3.4h1.1V558h-1.1Zm0 -6.9v-3.4h1.1v3.4h-1.1Zm0 -6.8v-3.5h1.1v3.5h-1.1Zm0 -6.9v-2.9h4v1.2h-3.4v-.6h.5v2.3h-1.1Z" class="g3_249"/>
<path d="M507.8 511.6h3.5v1.2h-3.5v-1.2Zm6.9 0h3.4v1.2h-3.4v-1.2Zm6.9 0H525v1.2h-3.4v-1.2Zm6.9 0h3.4v1.2h-3.4v-1.2Zm6.8 0h3.5v1.2h-3.5v-1.2Zm6.9 0h3.4v1.2h-3.4v-1.2Zm6.9 0h3.4v1.2h-3.4v-1.2Zm6.9 0h3.4v1.2H556v-1.2Zm6.8 0h3.5v1.2h-3.5v-1.2Zm6.9 0h3.4v1.2h-3.4v-1.2Zm6.9 0H580v1.2h-3.4v-1.2Zm6.9 0h3.4v1.2h-3.4v-1.2Zm6.8 0h2.9v1.7H592v-1.1h.6v.6h-2.3v-1.2Zm2.9 5.2v3.4H592v-3.4h1.2Zm0 6.8v3.5H592v-3.5h1.2Zm0 6.9V534H592v-3.5h1.2Zm-2.9 5.2h-3.4v-1.2h3.4v1.2Zm-6.8 0H580v-1.2h3.5v1.2Zm-6.9 0h-3.5v-1.2h3.5v1.2Zm-6.9 0h-3.4v-1.2h3.4v1.2Zm-6.9 0h-3.4v-1.2h3.4v1.2Zm-6.8 0h-3.5v-1.2H556v1.2Zm-6.9 0h-3.5v-1.2h3.5v1.2Zm-6.9 0h-3.4v-1.2h3.4v1.2Zm-6.9 0h-3.4v-1.2h3.4v1.2Zm-6.8 0H525v-1.2h3.5v1.2Zm-6.9 0h-3.5v-1.2h3.5v1.2Zm-6.9 0h-3.4v-1.2h3.4v1.2Zm-6.9 0h-3.4v-1.2h3.4v1.2Zm-7.4 -.6v-3.4h1.1v3.4h-1.1Zm0 -6.9v-3.4h1.1v3.4h-1.1Zm0 -6.8v-3.5h1.1v3.5h-1.1Zm0 -6.9v-2.9h4v1.2H501v-.6h.5v2.3h-1.1Z" class="g3_249"/>
<path d="M507.8 534.5h3.5v1.2h-3.5v-1.2Zm6.9 0h3.4v1.2h-3.4v-1.2Zm6.9 0H525v1.2h-3.4v-1.2Zm6.9 0h3.4v1.2h-3.4v-1.2Zm6.8 0h3.5v1.2h-3.5v-1.2Zm6.9 0h3.4v1.2h-3.4v-1.2Zm6.9 0h3.4v1.2h-3.4v-1.2Zm6.9 0h3.4v1.2H556v-1.2Zm6.8 0h3.5v1.2h-3.5v-1.2Zm6.9 0h3.4v1.2h-3.4v-1.2Zm6.9 0H580v1.2h-3.4v-1.2Zm6.9 0h3.4v1.2h-3.4v-1.2Zm6.8 0h2.9v1.7H592v-1.1h.6v.6h-2.3v-1.2Zm2.9 5.2v3.4H592v-3.4h1.2Zm0 6.9V550H592v-3.4h1.2Zm0 6.8v3.5H592v-3.5h1.2Zm-2.9 5.2h-3.4v-1.2h3.4v1.2Zm-6.8 0H580v-1.2h3.5v1.2Zm-6.9 0h-3.5v-1.2h3.5v1.2Zm-6.9 0h-3.4v-1.2h3.4v1.2Zm-6.9 0h-3.4v-1.2h3.4v1.2Zm-6.8 0h-3.5v-1.2H556v1.2Zm-6.9 0h-3.5v-1.2h3.5v1.2Zm-6.9 0h-3.4v-1.2h3.4v1.2Zm-6.9 0h-3.4v-1.2h3.4v1.2Zm-6.8 0H525v-1.2h3.5v1.2Zm-6.9 0h-3.5v-1.2h3.5v1.2Zm-6.9 0h-3.4v-1.2h3.4v1.2Zm-6.9 0h-3.4v-1.2h3.4v1.2Zm-7.4 -.6v-3.4h1.1V558h-1.1Zm0 -6.9v-3.4h1.1v3.4h-1.1Zm0 -6.8v-3.5h1.1v3.5h-1.1Zm0 -6.9v-2.9h4v1.2H501v-.6h.5v2.3h-1.1Z" class="g3_249"/>
<path d="M122.8 507.6H363.5c7.6 0 11.4 3.8 11.4 11.5v44.6c0 7.7 3.8 11.5 11.5 11.5H478c7.7 0 11.5 -3.8 11.5 -11.5V519.1c0 -7.7 3.8 -11.5 11.5 -11.5H617.6" class="g2_249"/>
<path d="M624.4 507.6l-9.1 3.1l2.3 -3.1l-2.3 -3.1l9.1 3.1Z" class="g3_249"/>
<path d="M624.4 507.6l-9.1 3.1l2.3 -3.1l-2.3 -3.1l9.1 3.1Z" class="g2_249"/>
<path d="M158.3 489.3h33.3v22.9H158.3V489.3Z" class="g0_249"/>
<path d="M158.3 489.3h33.3v22.9H158.3V489.3Z" class="g1_249"/>
<path d="M191.6 489.3h57.3v22.9H191.6V489.3Z" class="g0_249"/>
<path d="M191.6 489.3h57.3v22.9H191.6V489.3Z" class="g1_249"/>
<path d="M272.9 489.3h33.3v22.9H272.9V489.3Z" class="g0_249"/>
<path d="M272.9 489.3h33.3v22.9H272.9V489.3Z" class="g1_249"/>
<path d="M306.2 489.3h57.3v22.9H306.2V489.3Z" class="g0_249"/>
<path d="M306.2 489.3h57.3v22.9H306.2V489.3Z" class="g1_249"/>
<path d="M501 489.3h34.3v22.9H501V489.3Z" class="g0_249"/>
<path d="M501 489.3h34.3v22.9H501V489.3Z" class="g1_249"/>
<path d="M535.3 489.3h57.3v22.9H535.3V489.3Z" class="g0_249"/>
<path d="M535.3 489.3h57.3v22.9H535.3V489.3Z" class="g1_249"/>
<path d="M386.4 489.3h34.3v22.9H386.4V489.3Z" class="g0_249"/>
<path d="M386.4 489.3h34.3v22.9H386.4V489.3Z" class="g1_249"/>
<path d="M420.7 489.3H478v22.9H420.7V489.3Z" class="g0_249"/>
<path d="M420.7 489.3H478v22.9H420.7V489.3Z" class="g1_249"/>
</g>
<path d="M65 736.2H599.8" class="g4_249"/>
<path d="M65 763.2H599.8" class="g5_249"/>
<path d="M65 789.9H599.8" class="g6_249"/>
<path d="M65 832.5H174.6" class="g7_249"/>
</svg>