<?xml version="1.0" encoding="UTF-8" standalone="no"?>
<!DOCTYPE svg PUBLIC "-//W3C//DTD SVG 1.1//EN"
"http://www.w3.org/Graphics/SVG/1.1/DTD/svg11.dtd">
<svg viewBox="0 0 714 1017" version="1.1" xmlns="http://www.w3.org/2000/svg" xmlns:xlink="http://www.w3.org/1999/xlink">
<defs>
<clipPath id="c0_342"><path d="M226.8 480.8V297.4H510.9V480.8Z"/></clipPath>
<style type="text/css"><![CDATA[
.g0_342{
fill: #FFF;
}
.g1_342{
fill: none;
stroke: #000;
stroke-width: 1.145;
stroke-miterlimit: 10;
}
.g2_342{
fill: none;
stroke: #000;
stroke-width: 2.291;
stroke-miterlimit: 10;
}
.g3_342{
fill: #000;
}
]]></style>
</defs>
<path d="M0 1017.7H717.2V-3.7H0V1017.7Z" class="g0_342"/>
<g clip-path="url(#c0_342)">
<path d="M226.8 297.4H508.6V480.8H226.8V297.4Z" class="g0_342"/>
<path d="M254.8 416.1H506.9M345.4 348.4l161.5 .1" class="g1_342"/>
<path d="M227.3 403.3c0 -3.7 5.2 -6.7 11.5 -6.7c3 0 5.9 .7 8.1 2c2.1 1.2 3.4 2.9 3.4 4.7v21.1c0 1.7 -1.3 3.4 -3.4 4.7c-2.2 1.2 -5.1 1.9 -8.1 1.9c-6.3 0 -11.5 -3 -11.5 -6.6V403.3Z" class="g0_342"/>
<path d="M227.3 403.3c0 -3.7 5.2 -6.7 11.5 -6.7c3 0 5.9 .7 8.1 2c2.1 1.2 3.4 2.9 3.4 4.7v21.1c0 1.7 -1.3 3.4 -3.4 4.7c-2.2 1.2 -5.1 1.9 -8.1 1.9c-6.3 0 -11.5 -3 -11.5 -6.6V403.3Zm23 0c0 1.7 -1.3 3.4 -3.4 4.7c-2.2 1.2 -5.1 1.9 -8.1 1.9c-6.3 0 -11.5 -2.9 -11.5 -6.6" class="g1_342"/>
<path d="M293.8 416.2h37.8v32H293.8v-32Z" class="g0_342"/>
<path d="M293.8 416.2h37.8v32H293.8v-32Zm14.9 -34.4l198.2 -.1" class="g1_342"/>
<path d="M274.2 366.8h30c.6 0 1.2 .2 1.7 .4c.6 .2 1.1 .5 1.5 1c.4 .4 .7 .9 .9 1.4c.3 .6 .4 1.1 .4 1.7v21c0 .5 -.1 1.1 -.4 1.7c-.2 .5 -.5 1 -.9 1.4c-.4 .4 -.9 .8 -1.5 1c-.5 .2 -1.1 .3 -1.7 .3h-30c-.6 0 -1.2 -.1 -1.7 -.3c-.6 -.2 -1 -.6 -1.5 -1c-.4 -.4 -.7 -.9 -.9 -1.4c-.3 -.6 -.4 -1.2 -.4 -1.7v-21c0 -.6 .1 -1.1 .4 -1.7c.2 -.5 .5 -1 .9 -1.4c.5 -.5 .9 -.8 1.5 -1c.5 -.2 1.1 -.4 1.7 -.4Z" class="g0_342"/>
<path d="M274.2 366.8h30c.6 0 1.2 .2 1.7 .4c.6 .2 1.1 .5 1.5 1c.4 .4 .7 .9 .9 1.4c.3 .6 .4 1.1 .4 1.7v21c0 .5 -.1 1.1 -.4 1.7c-.2 .5 -.5 1 -.9 1.4c-.4 .4 -.9 .8 -1.5 1c-.5 .2 -1.1 .3 -1.7 .3h-30c-.6 0 -1.2 -.1 -1.7 -.3c-.6 -.2 -1 -.6 -1.5 -1c-.4 -.4 -.7 -.9 -.9 -1.4c-.3 -.6 -.4 -1.2 -.4 -1.7v-21c0 -.6 .1 -1.1 .4 -1.7c.2 -.5 .5 -1 .9 -1.4c.5 -.5 .9 -.8 1.5 -1c.5 -.2 1.1 -.4 1.7 -.4Zm-19.4 14.9h14.9" class="g1_342"/>
<path d="M310.9 333.5h30c.6 0 1.1 .1 1.7 .3c.5 .2 1 .6 1.4 1c.5 .4 .8 .9 1 1.4c.2 .6 .4 1.2 .4 1.8v20.9c0 .6 -.2 1.1 -.4 1.7c-.2 .5 -.5 1 -1 1.5c-.4 .4 -.9 .7 -1.4 .9c-.6 .2 -1.1 .4 -1.7 .4h-30c-.6 0 -1.2 -.2 -1.7 -.4c-.6 -.2 -1.1 -.5 -1.5 -.9c-.4 -.5 -.7 -1 -1 -1.5c-.2 -.6 -.3 -1.1 -.3 -1.7V338c0 -.6 .1 -1.2 .3 -1.8c.3 -.5 .6 -1 1 -1.4c.4 -.4 .9 -.8 1.5 -1c.5 -.2 1.1 -.3 1.7 -.3Z" class="g0_342"/>
<path d="M310.9 333.5h30c.6 0 1.1 .1 1.7 .3c.5 .2 1 .6 1.4 1c.5 .4 .8 .9 1 1.4c.2 .6 .4 1.2 .4 1.8v20.9c0 .6 -.2 1.1 -.4 1.7c-.2 .5 -.5 1 -1 1.5c-.4 .4 -.9 .7 -1.4 .9c-.6 .2 -1.1 .4 -1.7 .4h-30c-.6 0 -1.2 -.2 -1.7 -.4c-.6 -.2 -1.1 -.5 -1.5 -.9c-.4 -.5 -.7 -1 -1 -1.5c-.2 -.6 -.3 -1.1 -.3 -1.7V338c0 -.6 .1 -1.2 .3 -1.8c.3 -.5 .6 -1 1 -1.4c.4 -.4 .9 -.8 1.5 -1c.5 -.2 1.1 -.3 1.7 -.3Zm-56.1 15l51.6 -.1" class="g1_342"/>
<path d="M290.5 398.6l8.2 11.4" class="g2_342"/>
<path d="M291.5 396.7c0 .3 -.1 .6 -.2 .9c-.1 .3 -.3 .5 -.5 .8c-.2 .2 -.4 .3 -.7 .4c-.3 .2 -.6 .2 -.9 .2c-.3 0 -.6 0 -.9 -.2c-.2 -.1 -.5 -.2 -.7 -.4c-.2 -.3 -.4 -.5 -.5 -.8c-.1 -.3 -.2 -.6 -.2 -.9c0 -.3 .1 -.6 .2 -.8c.1 -.3 .3 -.6 .5 -.8c.2 -.2 .5 -.4 .7 -.5c.3 -.1 .6 -.2 .9 -.2c.3 0 .6 .1 .9 .2c.3 .1 .5 .3 .7 .5c.2 .2 .4 .5 .5 .8c.1 .2 .2 .5 .2 .8Z" class="g3_342"/>
<path d="M291.5 396.7c0 .3 -.1 .6 -.2 .9c-.1 .3 -.3 .5 -.5 .8c-.2 .2 -.4 .3 -.7 .4c-.3 .2 -.6 .2 -.9 .2c-.3 0 -.6 0 -.9 -.2c-.2 -.1 -.5 -.2 -.7 -.4c-.2 -.3 -.4 -.5 -.5 -.8c-.1 -.3 -.2 -.6 -.2 -.9c0 -.3 .1 -.6 .2 -.8c.1 -.3 .3 -.6 .5 -.8c.2 -.2 .5 -.4 .7 -.5c.3 -.1 .6 -.2 .9 -.2c.3 0 .6 .1 .9 .2c.3 .1 .5 .3 .7 .5c.2 .2 .4 .5 .5 .8c.1 .2 .2 .5 .2 .8Z" class="g2_342"/>
<path d="M301.7 414.1l-5.8 -4.2l2.8 .1l.9 -2.8l2.1 6.9Z" class="g3_342"/>
<path d="M301.7 414.1l-5.8 -4.2l2.8 .1l.9 -2.8l2.1 6.9Z" class="g2_342"/>
<path d="M341.3 416.2h37.9v32H341.3v-32Z" class="g0_342"/>
<path d="M341.3 416.2h37.9v32H341.3v-32Z" class="g1_342"/>
<path d="M341.3 448.2h37.9v32H341.3v-32Z" class="g0_342"/>
<path d="M341.3 448.2h37.9v32H341.3v-32Z" class="g1_342"/>
<path d="M326.8 365.4l20.7 43.8" class="g2_342"/>
<path d="M328.2 363.4c0 .3 -.1 .6 -.2 .8c-.1 .3 -.3 .6 -.5 .8c-.2 .2 -.5 .4 -.7 .5c-.3 .1 -.6 .2 -.9 .2c-.3 0 -.6 -.1 -.9 -.2c-.3 -.1 -.5 -.3 -.7 -.5c-.3 -.2 -.4 -.5 -.5 -.8c-.2 -.2 -.2 -.5 -.2 -.8c0 -.3 0 -.6 .2 -.9c.1 -.3 .2 -.5 .5 -.8c.2 -.2 .4 -.3 .7 -.5c.3 -.1 .6 -.1 .9 -.1c.3 0 .6 0 .9 .1c.2 .2 .5 .3 .7 .5c.2 .3 .4 .5 .5 .8c.1 .3 .2 .6 .2 .9Z" class="g3_342"/>
<path d="M328.2 363.4c0 .3 -.1 .6 -.2 .8c-.1 .3 -.3 .6 -.5 .8c-.2 .2 -.5 .4 -.7 .5c-.3 .1 -.6 .2 -.9 .2c-.3 0 -.6 -.1 -.9 -.2c-.3 -.1 -.5 -.3 -.7 -.5c-.3 -.2 -.4 -.5 -.5 -.8c-.2 -.2 -.2 -.5 -.2 -.8c0 -.3 0 -.6 .2 -.9c.1 -.3 .2 -.5 .5 -.8c.2 -.2 .4 -.3 .7 -.5c.3 -.1 .6 -.1 .9 -.1c.3 0 .6 0 .9 .1c.2 .2 .5 .3 .7 .5c.2 .3 .4 .5 .5 .8c.1 .3 .2 .6 .2 .9Z" class="g2_342"/>
<path d="M349.7 413.9l-5 -5.3l2.8 .6l1.3 -2.5l.9 7.2Z" class="g3_342"/>
<path d="M349.7 413.9l-5 -5.3l2.8 .6l1.3 -2.5l.9 7.2Z" class="g2_342"/>
<path d="M394.6 312.9H506.9" class="g1_342"/>
<path d="M360.1 298h30c.6 0 1.2 .1 1.8 .3c.5 .3 1 .6 1.4 1c.4 .4 .8 .9 1 1.5c.2 .5 .3 1.1 .3 1.7v20.9c0 .6 -.1 1.2 -.3 1.7c-.2 .6 -.6 1.1 -1 1.5c-.4 .4 -.9 .7 -1.4 .9c-.6 .3 -1.2 .4 -1.8 .4h-30c-.5 0 -1.1 -.1 -1.7 -.4c-.5 -.2 -1 -.5 -1.4 -.9c-.4 -.4 -.8 -.9 -1 -1.5c-.2 -.5 -.3 -1.1 -.3 -1.7V302.5c0 -.6 .1 -1.2 .3 -1.7c.2 -.6 .6 -1.1 1 -1.5c.4 -.4 .9 -.7 1.4 -1c.6 -.2 1.2 -.3 1.7 -.3Z" class="g0_342"/>
<path d="M360.1 298h30c.6 0 1.2 .1 1.8 .3c.5 .3 1 .6 1.4 1c.4 .4 .8 .9 1 1.5c.2 .5 .3 1.1 .3 1.7v20.9c0 .6 -.1 1.2 -.3 1.7c-.2 .6 -.6 1.1 -1 1.5c-.4 .4 -.9 .7 -1.4 .9c-.6 .3 -1.2 .4 -1.8 .4h-30c-.5 0 -1.1 -.1 -1.7 -.4c-.5 -.2 -1 -.5 -1.4 -.9c-.4 -.4 -.8 -.9 -1 -1.5c-.2 -.5 -.3 -1.1 -.3 -1.7V302.5c0 -.6 .1 -1.2 .3 -1.7c.2 -.6 .6 -1.1 1 -1.5c.4 -.4 .9 -.7 1.4 -1c.6 -.2 1.2 -.3 1.7 -.3ZM254.8 312.9H355.7" class="g1_342"/>
<path d="M323.3 414.3l47.9 -79.8" class="g2_342"/>
<path d="M324.4 416.2c0 .3 0 .6 -.1 .9c-.1 .3 -.3 .5 -.5 .7c-.2 .2 -.5 .4 -.8 .5c-.3 .1 -.5 .2 -.8 .2c-.4 0 -.6 -.1 -.9 -.2c-.3 -.1 -.6 -.3 -.8 -.5c-.2 -.2 -.3 -.4 -.5 -.7c-.1 -.3 -.1 -.6 -.1 -.9c0 -.3 0 -.6 .1 -.9c.2 -.2 .3 -.5 .5 -.7c.2 -.2 .5 -.4 .8 -.5c.3 -.1 .5 -.2 .9 -.2c.3 0 .5 .1 .8 .2c.3 .1 .6 .3 .8 .5c.2 .2 .4 .5 .5 .7c.1 .3 .1 .6 .1 .9Z" class="g3_342"/>
<path d="M324.4 416.2c0 .3 0 .6 -.1 .9c-.1 .3 -.3 .5 -.5 .7c-.2 .2 -.5 .4 -.8 .5c-.3 .1 -.5 .2 -.8 .2c-.4 0 -.6 -.1 -.9 -.2c-.3 -.1 -.6 -.3 -.8 -.5c-.2 -.2 -.3 -.4 -.5 -.7c-.1 -.3 -.1 -.6 -.1 -.9c0 -.3 0 -.6 .1 -.9c.2 -.2 .3 -.5 .5 -.7c.2 -.2 .5 -.4 .8 -.5c.3 -.1 .5 -.2 .9 -.2c.3 0 .5 .1 .8 .2c.3 .1 .6 .3 .8 .5c.2 .2 .4 .5 .5 .7c.1 .3 .1 .6 .1 .9Z" class="g2_342"/>
<path d="M373.8 330.1l-1.5 7.1l-1.1 -2.7l-2.9 .3l5.5 -4.7Z" class="g3_342"/>
<path d="M373.8 330.1l-1.5 7.1l-1.1 -2.7l-2.9 .3l5.5 -4.7Z" class="g2_342"/>
<path d="M404.8 298h30c.6 0 1.2 .1 1.7 .3c.6 .3 1.1 .6 1.5 1c.4 .4 .7 .9 1 1.5c.2 .5 .3 1.1 .3 1.7v20.9c0 .6 -.1 1.2 -.3 1.7c-.3 .6 -.6 1.1 -1 1.5c-.4 .4 -.9 .7 -1.5 .9c-.5 .3 -1.1 .4 -1.7 .4h-30c-.6 0 -1.1 -.1 -1.7 -.4c-.5 -.2 -1 -.5 -1.4 -.9c-.5 -.4 -.8 -.9 -1 -1.5c-.2 -.5 -.3 -1.1 -.3 -1.7V302.5c0 -.6 .1 -1.2 .3 -1.7c.2 -.6 .5 -1.1 1 -1.5c.4 -.4 .9 -.7 1.4 -1c.6 -.2 1.1 -.3 1.7 -.3Z" class="g0_342"/>
<path d="M404.8 298h30c.6 0 1.2 .1 1.7 .3c.6 .3 1.1 .6 1.5 1c.4 .4 .7 .9 1 1.5c.2 .5 .3 1.1 .3 1.7v20.9c0 .6 -.1 1.2 -.3 1.7c-.3 .6 -.6 1.1 -1 1.5c-.4 .4 -.9 .7 -1.5 .9c-.5 .3 -1.1 .4 -1.7 .4h-30c-.6 0 -1.1 -.1 -1.7 -.4c-.5 -.2 -1 -.5 -1.4 -.9c-.5 -.4 -.8 -.9 -1 -1.5c-.2 -.5 -.3 -1.1 -.3 -1.7V302.5c0 -.6 .1 -1.2 .3 -1.7c.2 -.6 .5 -1.1 1 -1.5c.4 -.4 .9 -.7 1.4 -1c.6 -.2 1.1 -.3 1.7 -.3Z" class="g1_342"/>
<path d="M427.3 416.2h37.8v32H427.3v-32Z" class="g0_342"/>
<path d="M427.3 416.2h37.8v32H427.3v-32Z" class="g1_342"/>
<path d="M420.3 330.1l15 78.5" class="g2_342"/>
<path d="M422.1 327.9c0 .3 0 .6 -.1 .9c-.2 .2 -.3 .5 -.5 .7c-.3 .2 -.5 .4 -.8 .5c-.3 .1 -.6 .2 -.9 .2c-.3 0 -.6 -.1 -.8 -.2c-.3 -.1 -.6 -.3 -.8 -.5c-.2 -.2 -.4 -.5 -.5 -.7c-.1 -.3 -.2 -.6 -.2 -.9c0 -.3 .1 -.6 .2 -.9c.1 -.3 .3 -.5 .5 -.7c.2 -.2 .5 -.4 .8 -.5c.2 -.1 .5 -.2 .8 -.2c.3 0 .6 .1 .9 .2c.3 .1 .5 .3 .8 .5c.2 .2 .3 .4 .5 .7c.1 .3 .1 .6 .1 .9Z" class="g3_342"/>
<path d="M422.1 327.9c0 .3 0 .6 -.1 .9c-.2 .2 -.3 .5 -.5 .7c-.3 .2 -.5 .4 -.8 .5c-.3 .1 -.6 .2 -.9 .2c-.3 0 -.6 -.1 -.8 -.2c-.3 -.1 -.6 -.3 -.8 -.5c-.2 -.2 -.4 -.5 -.5 -.7c-.1 -.3 -.2 -.6 -.2 -.9c0 -.3 .1 -.6 .2 -.9c.1 -.3 .3 -.5 .5 -.7c.2 -.2 .5 -.4 .8 -.5c.2 -.1 .5 -.2 .8 -.2c.3 0 .6 .1 .9 .2c.3 .1 .5 .3 .8 .5c.2 .2 .3 .4 .5 .7c.1 .3 .1 .6 .1 .9Z" class="g2_342"/>
<path d="M436.3 413.7l-3.6 -6.3l2.6 1.2l1.9 -2.1l-.9 7.2Z" class="g3_342"/>
<path d="M436.3 413.7l-3.6 -6.3l2.6 1.2l1.9 -2.1l-.9 7.2Z" class="g2_342"/>
</g>
</svg>