<?xml version="1.0" encoding="UTF-8" standalone="no"?>
<!DOCTYPE svg PUBLIC "-//W3C//DTD SVG 1.1//EN"
"http://www.w3.org/Graphics/SVG/1.1/DTD/svg11.dtd">
<svg viewBox="0 0 714 1017" version="1.1" xmlns="http://www.w3.org/2000/svg" xmlns:xlink="http://www.w3.org/1999/xlink">
<defs>
<clipPath id="c0_157"><path d="M70.7 536.5V350.9H621.9V536.5Z"/></clipPath>
<clipPath id="c1_157"><path d="M70.7 537.1V350.8H622.3V537.1Z"/></clipPath>
<style type="text/css"><![CDATA[
.g0_157{
fill: #FFF;
}
.g1_157{
fill: none;
stroke: #000;
stroke-width: 1.145;
stroke-miterlimit: 10;
}
.g2_157{
fill: #000;
}
.g3_157{
fill: none;
stroke: #000;
stroke-width: 0.608;
stroke-miterlimit: 10;
}
]]></style>
</defs>
<path d="M0 1017.7H717.2V-3.7H0V1017.7Z" class="g0_157"/>
<g clip-path="url(#c1_157)">
<path clip-path="url(#c0_157)" d="M70.7 350.9H621.9V536.5H70.7V350.9Z" class="g0_157"/>
<path d="M111.4 374.4h11.5v11.4H111.4V374.4Z" class="g0_157"/>
<path d="M111.4 374.4h11.5v11.4H111.4V374.4Z" class="g1_157"/>
<path d="M88.5 397.3H99.9v11.4H88.5V397.3Z" class="g0_157"/>
<path d="M88.5 397.3H99.9v11.4H88.5V397.3Z" class="g1_157"/>
<path d="M111.4 397.3h11.5v11.4H111.4V397.3Z" class="g0_157"/>
<path d="M111.4 397.3h11.5v11.4H111.4V397.3Z" class="g1_157"/>
<path d="M134.3 397.3h11.5v11.4H134.3V397.3Z" class="g0_157"/>
<path d="M134.3 397.3h11.5v11.4H134.3V397.3Zm-40.1 0l20.1 -11.5m2.8 11.5V385.8M140 397.3L120 385.8" class="g1_157"/>
<path d="M190.2 374.4h11.4v11.4H190.2V374.4Z" class="g0_157"/>
<path d="M190.2 374.4h11.4v11.4H190.2V374.4Z" class="g1_157"/>
<path d="M167.3 397.3h11.4v11.4H167.3V397.3Z" class="g0_157"/>
<path d="M167.3 397.3h11.4v11.4H167.3V397.3Z" class="g1_157"/>
<path d="M190.2 397.3h11.4v11.4H190.2V397.3Z" class="g0_157"/>
<path d="M190.2 397.3h11.4v11.4H190.2V397.3Z" class="g1_157"/>
<path d="M213.1 397.3h11.5v11.4H213.1V397.3Z" class="g0_157"/>
<path d="M213.1 397.3h11.5v11.4H213.1V397.3Zm-40.1 0l20 -11.5m2.9 11.5V385.8m22.9 11.5l-20 -11.5" class="g1_157"/>
<path d="M71.3 454.6h80.2v45.8H71.3V454.6Z" class="g0_157"/>
<path d="M71.3 454.6h80.2v45.8H71.3V454.6Z" class="g1_157"/>
<path d="M151.5 454.6h80.2v45.8H151.5V454.6Z" class="g0_157"/>
<path d="M151.5 454.6h80.2v45.8H151.5V454.6Z" class="g1_157"/>
<path d="M340 351.5h11.5v11.4H340V351.5Z" class="g0_157"/>
<path d="M340 351.5h11.5v11.4H340V351.5Z" class="g1_157"/>
<path d="M283.8 374.4h11.5v11.4H283.8V374.4Z" class="g0_157"/>
<path d="M283.8 374.4h11.5v11.4H283.8V374.4Z" class="g1_157"/>
<path d="M340 374.4h11.5v11.4H340V374.4Z" class="g0_157"/>
<path d="M340 374.4h11.5v11.4H340V374.4Z" class="g1_157"/>
<path d="M397.3 374.4h11.4v11.4H397.3V374.4Z" class="g0_157"/>
<path d="M397.3 374.4h11.4v11.4H397.3V374.4Zm-107.7 0l53.3 -11.5m2.8 11.5V362.9M403 374.4L348.6 362.9" class="g1_157"/>
<path d="M265.5 454.6h81.4v45.8H265.5V454.6Z" class="g0_157"/>
<path d="M265.5 454.6h81.4v45.8H265.5V454.6Z" class="g1_157"/>
<path d="M346.9 454.6h80.2v45.8H346.9V454.6Z" class="g0_157"/>
<path d="M346.9 454.6h80.2v45.8H346.9V454.6Z" class="g1_157"/>
<path d="M495.3 374.4h11.4v11.4H495.3V374.4Z" class="g0_157"/>
<path d="M495.3 374.4h11.4v11.4H495.3V374.4Z" class="g1_157"/>
<path d="M472.3 397.3h11.5v11.4H472.3V397.3Z" class="g0_157"/>
<path d="M472.3 397.3h11.5v11.4H472.3V397.3Z" class="g1_157"/>
<path d="M495.3 397.3h11.4v11.4H495.3V397.3Z" class="g0_157"/>
<path d="M495.3 397.3h11.4v11.4H495.3V397.3Z" class="g1_157"/>
<path d="M518.2 397.3h11.4v11.4H518.2V397.3Z" class="g0_157"/>
<path d="M518.2 397.3h11.4v11.4H518.2V397.3Zm-40.1 0l20 -11.5m2.9 11.5V385.8m22.9 11.5L503.8 385.8" class="g1_157"/>
<path d="M575.5 374.4h11.4v11.4H575.5V374.4Z" class="g0_157"/>
<path d="M575.5 374.4h11.4v11.4H575.5V374.4Z" class="g1_157"/>
<path d="M552.5 397.3H564v11.4H552.5V397.3Z" class="g0_157"/>
<path d="M552.5 397.3H564v11.4H552.5V397.3Z" class="g1_157"/>
<path d="M575.5 397.3h11.4v11.4H575.5V397.3Z" class="g0_157"/>
<path d="M575.5 397.3h11.4v11.4H575.5V397.3Z" class="g1_157"/>
<path d="M598.4 397.3h11.4v11.4H598.4V397.3Z" class="g0_157"/>
<path d="M598.4 397.3h11.4v11.4H598.4V397.3Zm-40.1 0l20 -11.5m2.9 11.5V385.8m22.9 11.5l-20 -11.5" class="g1_157"/>
<path d="M460.9 454.6h80.2v45.8H460.9V454.6Z" class="g0_157"/>
<path d="M460.9 454.6h80.2v45.8H460.9V454.6Z" class="g1_157"/>
<path d="M541.1 454.6h80.2v45.8H541.1V454.6Z" class="g0_157"/>
<path d="M541.1 454.6h80.2v45.8H541.1V454.6Z" class="g1_157"/>
<path d="M265.5 397.3H277v11.4H265.5V397.3Z" class="g0_157"/>
<path d="M265.5 397.3H277v11.4H265.5V397.3Z" class="g1_157"/>
<path d="M283.8 397.3h11.5v11.4H283.8V397.3Z" class="g0_157"/>
<path d="M283.8 397.3h11.5v11.4H283.8V397.3Z" class="g1_157"/>
<path d="M302.2 397.3h11.4v11.4H302.2V397.3Z" class="g0_157"/>
<path d="M302.2 397.3h11.4v11.4H302.2V397.3Z" class="g1_157"/>
<path d="M328.5 397.3H340v11.4H328.5V397.3Z" class="g0_157"/>
<path d="M328.5 397.3H340v11.4H328.5V397.3Z" class="g1_157"/>
<path d="M351.5 397.3h11.4v11.4H351.5V397.3Z" class="g0_157"/>
<path d="M351.5 397.3h11.4v11.4H351.5V397.3Z" class="g1_157"/>
<path d="M379 397.3h11.4v11.4H379V397.3Z" class="g0_157"/>
<path d="M379 397.3h11.4v11.4H379V397.3Z" class="g1_157"/>
<path d="M397.3 397.3h11.4v11.4H397.3V397.3Z" class="g0_157"/>
<path d="M397.3 397.3h11.4v11.4H397.3V397.3Z" class="g1_157"/>
<path d="M415.6 397.3h11.5v11.4H415.6V397.3Z" class="g0_157"/>
<path d="M415.6 397.3h11.5v11.4H415.6V397.3Zm-144.4 0l15.5 -11.5m2.9 11.5V385.8m18.3 11.5L292.4 385.8m41.9 11.5l8.6 -11.5m14.3 11.5l-8.6 -11.5m36.1 11.5l15.5 -11.5m2.8 11.5V385.8m18.3 11.5L405.9 385.8M94.2 408.7L91.7 449" class="g1_157"/>
<path d="M91.4 453.3l-1.5 -5.8l1.8 1.5l2 -1.3l-2.3 5.6Z" class="g2_157"/>
<path d="M91.4 453.3l-1.5 -5.8l1.8 1.5l2 -1.3l-2.3 5.6Zm25.7 -44.6l12.7 40.6" class="g1_157"/>
<path d="M131.1 453.4l-3.6 -4.9l2.3 .8l1.4 -2l-.1 6.1Z" class="g2_157"/>
<path d="M131.1 453.4l-3.6 -4.9l2.3 .8l1.4 -2l-.1 6.1ZM140 408.7l-25.6 41.1" class="g1_157"/>
<path d="M112.1 453.5l1.4 -5.9l.9 2.2l2.3 -.1l-4.6 3.8Z" class="g2_157"/>
<path d="M112.1 453.5l1.4 -5.9l.9 2.2l2.3 -.1l-4.6 3.8ZM173 408.7l35.1 41.6" class="g1_157"/>
<path d="M210.8 453.6l-5.1 -3.1l2.4 -.2l.5 -2.3l2.2 5.6Z" class="g2_157"/>
<path d="M210.8 453.6l-5.1 -3.1l2.4 -.2l.5 -2.3l2.2 5.6ZM195.9 408.7l-21.7 41" class="g1_157"/>
<path d="M172.2 453.4l1 -5.9l1 2.2l2.3 -.4l-4.3 4.1Z" class="g2_157"/>
<path d="M172.2 453.4l1 -5.9l1 2.2l2.3 -.4l-4.3 4.1Zm46.6 -44.7l-24.3 41.1" class="g1_157"/>
<path d="M192.3 453.5l1.2 -5.9l1 2.2l2.3 -.3l-4.5 4Z" class="g2_157"/>
<path d="M192.3 453.5l1.2 -5.9l1 2.2l2.3 -.3l-4.5 4ZM478.1 408.7l78.2 43.2" class="g1_157"/>
<path d="M560 454l-5.9 -1.1l2.2 -1l-.4 -2.4L560 454Z" class="g2_157"/>
<path d="M560 454l-5.9 -1.1l2.2 -1l-.4 -2.4L560 454ZM523.9 408.7L521.4 449" class="g1_157"/>
<path d="M521.1 453.3l-1.5 -5.8l1.8 1.5l2 -1.3l-2.3 5.6Z" class="g2_157"/>
<path d="M521.1 453.3l-1.5 -5.8l1.8 1.5l2 -1.3l-2.3 5.6ZM501 408.7l-17.8 40.8" class="g1_157"/>
<path d="M481.4 453.4l.6 -6l1.2 2.1l2.3 -.6l-4.1 4.5Z" class="g2_157"/>
<path d="M481.4 453.4l.6 -6l1.2 2.1l2.3 -.6l-4.1 4.5Zm99.8 -44.7l-75.4 43.1" class="g1_157"/>
<path d="M502.1 453.9l4 -4.5l-.3 2.4l2.2 1l-5.9 1.1Z" class="g2_157"/>
<path d="M502.1 453.9l4 -4.5l-.3 2.4l2.2 1l-5.9 1.1Zm56.2 -45.2l20.4 40.9" class="g1_157"/>
<path d="M580.6 453.4l-4.3 -4.2l2.4 .4l1.1 -2.1l.8 5.9Z" class="g2_157"/>
<path d="M580.6 453.4l-4.3 -4.2l2.4 .4l1.1 -2.1l.8 5.9Zm23.5 -44.7L601.6 449" class="g1_157"/>
<path d="M601.3 453.3l-1.5 -5.8l1.8 1.5l2 -1.3l-2.3 5.6Z" class="g2_157"/>
<path d="M601.3 453.3l-1.5 -5.8l1.8 1.5l2 -1.3l-2.3 5.6ZM271.2 408.7l31.6 41.4" class="g1_157"/>
<path d="M305.4 453.6l-5 -3.4l2.4 -.1l.7 -2.3l1.9 5.8Z" class="g2_157"/>
<path d="M305.4 453.6l-5 -3.4l2.4 -.1l.7 -2.3l1.9 5.8ZM289.6 408.7l72.5 43" class="g1_157"/>
<path d="M365.8 453.9l-5.9 -1.3l2.2 -.9l-.2 -2.3l3.9 4.5Z" class="g2_157"/>
<path d="M365.8 453.9l-5.9 -1.3l2.2 -.9l-.2 -2.3l3.9 4.5ZM307.9 408.7l-38.6 41.8" class="g1_157"/>
<path d="M266.4 453.6l2.5 -5.5l.4 2.4l2.4 .2l-5.3 2.9Z" class="g2_157"/>
<path d="M266.4 453.6l2.5 -5.5l.4 2.4l2.4 .2l-5.3 2.9Zm67.9 -44.9l87.8 43.4" class="g1_157"/>
<path d="M425.9 454l-5.9 -.8l2.1 -1.1l-.5 -2.3l4.3 4.2Z" class="g2_157"/>
<path d="M425.9 454l-5.9 -.8l2.1 -1.1l-.5 -2.3l4.3 4.2ZM357.2 408.7l26.7 41.2" class="g1_157"/>
<path d="M386.3 453.5l-4.7 -3.8l2.3 .2l.9 -2.2l1.5 5.8Z" class="g2_157"/>
<path d="M386.3 453.5l-4.7 -3.8l2.3 .2l.9 -2.2l1.5 5.8ZM403 408.7l3.5 40.3" class="g1_157"/>
<path d="M406.9 453.3l-2.4 -5.5l2 1.2l1.8 -1.6l-1.4 5.9Z" class="g2_157"/>
<path d="M406.9 453.3l-2.4 -5.5l2 1.2l1.8 -1.6l-1.4 5.9ZM384.7 408.7l-93.8 43.5" class="g1_157"/>
<path d="M287 454l4.4 -4.1l-.5 2.3l2.1 1.2l-6 .6Z" class="g2_157"/>
<path d="M287 454l4.4 -4.1l-.5 2.3l2.1 1.2l-6 .6ZM421.3 408.7l-89.8 43.5" class="g1_157"/>
<path d="M327.7 454l4.3 -4.2l-.5 2.4l2.2 1.1l-6 .7Z" class="g2_157"/>
<path d="M327.7 454l4.3 -4.2l-.5 2.4l2.2 1.1l-6 .7Z" class="g1_157"/>
</g>
<path d="M65 797.8H174.6" class="g3_157"/>
</svg>