<?xml version="1.0" encoding="UTF-8" standalone="no"?>
<!DOCTYPE svg PUBLIC "-//W3C//DTD SVG 1.1//EN"
"http://www.w3.org/Graphics/SVG/1.1/DTD/svg11.dtd">
<svg viewBox="0 0 714 1017" version="1.1" xmlns="http://www.w3.org/2000/svg" xmlns:xlink="http://www.w3.org/1999/xlink">
<defs>
<clipPath id="c0_473"><path d="M82.1 354.7V218.6H610.3V354.7Z"/></clipPath>
<clipPath id="c1_473"><path d="M82.1 354.7V217.2H612.2V354.7Z"/></clipPath>
<style type="text/css"><![CDATA[
.g0_473{
fill: #FFF;
}
.g1_473{
fill: #000;
}
.g2_473{
fill: none;
stroke: #000;
stroke-width: 1.145;
stroke-miterlimit: 10;
}
]]></style>
</defs>
<path d="M0 1017.7H717.2V-3.7H0V1017.7Z" class="g0_473"/>
<g clip-path="url(#c1_473)">
<path clip-path="url(#c0_473)" d="M82.1 218.6H610.3V355H82.1V218.6Z" class="g0_473"/>
<path d="M99.3 269.9C90 269.9 82.4 262.3 82.4 253c0 -9.3 7.6 -16.8 16.9 -16.8c9.3 0 16.8 7.5 16.8 16.8c0 9.3 -7.5 16.9 -16.8 16.9Zm10.4 -5.7c-.9 -.6 -1.9 -.8 -3.3 -1.1c-1.7 -.5 -3.9 -.8 -3.7 -2.7c-1.3 1.2 -3.5 1.6 -5.2 .9c-.6 -.2 -1 -.7 -1.4 -.7c.1 1.9 -2.1 2.1 -3.7 2.4c-1.5 .4 -2.5 .7 -3.4 1.3c2.7 2.5 6.3 4 10.3 4c4 0 7.6 -1.6 10.4 -4.1Zm-9.3 -20.6c-5.1 -.5 -7.6 3 -6.9 8.2c-.2 0 -.5 0 -.5 .3c0 1.5 .3 2.8 1.4 3.2c.6 2.5 2.4 5.5 5.5 5.1c2.6 -.3 4 -2.8 4.6 -5.1c1 -.4 1.4 -1.9 1.3 -3.3c0 -.2 -.4 -.1 -.5 -.2c.9 -4.1 -1.4 -7.9 -4.9 -8.2Zm-1.1 -5.9C90.9 237.7 84 244.6 84 253c0 4 1.5 7.6 4 10.3c.3 -.2 .6 -.4 .9 -.6c1.7 -.9 3.8 -.8 5.8 -1.8c0 -.5 0 -1.1 0 -1.7c-.8 -.7 -.9 -1.9 -1.5 -2.9c-.3 -.6 -.8 -.9 -1.1 -1.6c-.3 -.7 -.6 -1.6 -.5 -2.6c.1 -.5 .4 -.8 .4 -1.3c.1 -.6 0 -1.3 0 -1.9c.4 -3.5 3 -6.2 6.4 -6.7c.7 0 1.4 0 2.1 0c3.6 .6 6.1 3.3 6.3 7.2c.1 .5 -.1 1 0 1.5c0 .5 .4 .9 .5 1.4c0 1.6 -.7 3 -1.7 4c-.3 1.2 -.9 2 -1.4 2.9c0 .6 0 1.1 0 1.7c1.6 1 3.9 .9 5.5 1.7c.4 .2 .7 .4 .9 .6c2.5 -2.7 4 -6.3 4 -10.2c0 -8.4 -6.9 -15.3 -15.3 -15.3Z" class="g1_473"/>
<path d="M243.1 224.9H346.2v57.3H243.1V224.9ZM117 253.6H235.8" class="g2_473"/>
<path d="M241.8 253.6l-8 2.7l2 -2.7l-2 -2.7l8 2.7Z" class="g1_473"/>
<path d="M241.8 253.6l-8 2.7l2 -2.7l-2 -2.7l8 2.7Z" class="g2_473"/>
<path d="M157.1 246.7h48.2v17.2H157.1V246.7Z" class="g0_473"/>
<path d="M472.2 219.2H609.7V288H472.2V219.2Zm-126 34.4H464.9" class="g2_473"/>
<path d="M471 253.6l-8.1 2.7l2 -2.7l-2 -2.7l8.1 2.7Z" class="g1_473"/>
<path d="M471 253.6l-8.1 2.7l2 -2.7l-2 -2.7l8.1 2.7Z" class="g2_473"/>
<path d="M378.3 237.5h63v34.4h-63V237.5Z" class="g0_473"/>
<path d="M380.6 317.7c0 -3.7 19.2 -6.8 42.9 -6.8c11.4 0 22.4 .7 30.4 2c8.1 1.3 12.6 3 12.6 4.8v29.8c0 3.8 -19.2 6.9 -43 6.9c-23.7 0 -42.9 -3.1 -42.9 -6.9V317.7Z" class="g0_473"/>
<path clip-path="url(#c0_473)" d="M380.6 317.7c0 -3.7 19.2 -6.8 42.9 -6.8c11.4 0 22.4 .7 30.4 2c8.1 1.3 12.6 3 12.6 4.8v29.8c0 3.8 -19.2 6.9 -43 6.9c-23.7 0 -42.9 -3.1 -42.9 -6.9V317.7Zm85.9 0c0 3.8 -19.2 6.9 -43 6.9c-23.7 0 -42.9 -3.1 -42.9 -6.9M320.4 282.2v39c0 7.6 3.8 11.4 11.5 11.4h41.4" class="g2_473"/>
<path d="M379.3 332.6l-8 2.7l2 -2.7l-2 -2.6l8 2.6Z" class="g1_473"/>
<path d="M379.3 332.6l-8 2.7l2 -2.7l-2 -2.6l8 2.6Z" class="g2_473"/>
<path d="M300.4 293.7h41.2v34.4H300.4V293.7Z" class="g0_473"/>
<path clip-path="url(#c0_473)" d="M143.4 310.9h91.7v43.5H143.4V310.9ZM268.9 289.5v31.7c0 7.6 -3.9 11.4 -11.5 11.4h-15" class="g2_473"/>
<path d="M268.9 283.5l2.6 8l-2.6 -2l-2.7 2l2.7 -8Z" class="g1_473"/>
<path d="M268.9 283.5l2.6 8l-2.6 -2l-2.7 2l2.7 -8Z" class="g2_473"/>
<path d="M236.3 332.6l8.1 -2.6l-2 2.6l2 2.7l-8.1 -2.7Z" class="g1_473"/>
<path d="M236.3 332.6l8.1 -2.6l-2 2.6l2 2.7l-8.1 -2.7Z" class="g2_473"/>
<path d="M250 302.9h40.1V320H250V302.9Z" class="g0_473"/>
</g>
</svg>