<?xml version="1.0" encoding="UTF-8" standalone="no"?>
<!DOCTYPE svg PUBLIC "-//W3C//DTD SVG 1.1//EN"
"http://www.w3.org/Graphics/SVG/1.1/DTD/svg11.dtd">
<svg viewBox="0 0 714 1017" version="1.1" xmlns="http://www.w3.org/2000/svg" xmlns:xlink="http://www.w3.org/1999/xlink">
<defs>
<clipPath id="c0_343"><path d="M172.3 330.9V95.7H520.6V330.9Z"/></clipPath>
<style type="text/css"><![CDATA[
.g0_343{
fill: #FFF;
}
.g1_343{
fill: none;
stroke: #000;
stroke-width: 1.145;
stroke-miterlimit: 10;
}
.g2_343{
fill: none;
stroke: #000;
stroke-width: 2.291;
stroke-miterlimit: 10;
}
.g3_343{
fill: #000;
}
]]></style>
</defs>
<path d="M0 1017.7H717.2V-3.7H0V1017.7Z" class="g0_343"/>
<g clip-path="url(#c0_343)">
<path d="M172.3 97H520.6V330.8H172.3V97Z" class="g0_343"/>
<path d="M200.4 266.1L518.9 266m-228 -67.6h228" class="g1_343"/>
<path d="M172.9 253.3c0 -3.7 5.1 -6.7 11.4 -6.7c3.1 0 6 .7 8.1 2c2.2 1.2 3.4 2.9 3.4 4.7v21.1c0 1.7 -1.2 3.4 -3.4 4.7c-2.1 1.2 -5 1.9 -8.1 1.9c-6.3 0 -11.4 -3 -11.4 -6.6V253.3Z" class="g0_343"/>
<path d="M172.9 253.3c0 -3.7 5.1 -6.7 11.4 -6.7c3.1 0 6 .7 8.1 2c2.2 1.2 3.4 2.9 3.4 4.7v21.1c0 1.7 -1.2 3.4 -3.4 4.7c-2.1 1.2 -5 1.9 -8.1 1.9c-6.3 0 -11.4 -3 -11.4 -6.6V253.3Zm22.9 0c0 1.7 -1.2 3.4 -3.4 4.7c-2.1 1.2 -5 1.9 -8.1 1.9c-6.3 0 -11.4 -3 -11.4 -6.6" class="g1_343"/>
<path d="M239.3 266.2h37.8v32H239.3v-32Z" class="g0_343"/>
<path d="M239.3 266.2h37.8v32H239.3v-32Zm14.9 -34.4l264.7 -.2" class="g1_343"/>
<path d="M219.7 216.8h30c.6 0 1.2 .1 1.8 .4c.5 .2 1 .5 1.4 .9c.4 .5 .7 .9 1 1.5c.2 .5 .3 1.1 .3 1.7v20.9c0 .6 -.1 1.2 -.3 1.7c-.3 .6 -.6 1.1 -1 1.5c-.4 .4 -.9 .7 -1.4 1c-.6 .2 -1.2 .3 -1.8 .3h-30c-.6 0 -1.1 -.1 -1.7 -.3c-.5 -.3 -1 -.6 -1.4 -1c-.4 -.4 -.8 -.9 -1 -1.5c-.2 -.5 -.3 -1.1 -.3 -1.7V221.3c0 -.6 .1 -1.2 .3 -1.7c.2 -.6 .6 -1 1 -1.5c.4 -.4 .9 -.7 1.4 -.9c.6 -.3 1.1 -.4 1.7 -.4Z" class="g0_343"/>
<path d="M219.7 216.8h30c.6 0 1.2 .1 1.8 .4c.5 .2 1 .5 1.4 .9c.4 .5 .7 .9 1 1.5c.2 .5 .3 1.1 .3 1.7v20.9c0 .6 -.1 1.2 -.3 1.7c-.3 .6 -.6 1.1 -1 1.5c-.4 .4 -.9 .7 -1.4 1c-.6 .2 -1.2 .3 -1.8 .3h-30c-.6 0 -1.1 -.1 -1.7 -.3c-.5 -.3 -1 -.6 -1.4 -1c-.4 -.4 -.8 -.9 -1 -1.5c-.2 -.5 -.3 -1.1 -.3 -1.7V221.3c0 -.6 .1 -1.2 .3 -1.7c.2 -.6 .6 -1 1 -1.5c.4 -.4 .9 -.7 1.4 -.9c.6 -.3 1.1 -.4 1.7 -.4Zm-19.3 14.9h14.9" class="g1_343"/>
<path d="M256.4 183.5h30c.6 0 1.2 .1 1.7 .3c.6 .2 1.1 .6 1.5 1c.4 .4 .7 .9 .9 1.4c.3 .6 .4 1.2 .4 1.7v21c0 .6 -.1 1.1 -.4 1.7c-.2 .5 -.5 1 -.9 1.4c-.4 .5 -.9 .8 -1.5 1c-.5 .2 -1.1 .3 -1.7 .3h-30c-.6 0 -1.2 -.1 -1.7 -.3c-.6 -.2 -1 -.5 -1.5 -1c-.4 -.4 -.7 -.9 -.9 -1.4c-.3 -.6 -.4 -1.1 -.4 -1.7v-21c0 -.5 .1 -1.1 .4 -1.7c.2 -.5 .5 -1 .9 -1.4c.5 -.4 .9 -.8 1.5 -1c.5 -.2 1.1 -.3 1.7 -.3Z" class="g0_343"/>
<path d="M256.4 183.5h30c.6 0 1.2 .1 1.7 .3c.6 .2 1.1 .6 1.5 1c.4 .4 .7 .9 .9 1.4c.3 .6 .4 1.2 .4 1.7v21c0 .6 -.1 1.1 -.4 1.7c-.2 .5 -.5 1 -.9 1.4c-.4 .5 -.9 .8 -1.5 1c-.5 .2 -1.1 .3 -1.7 .3h-30c-.6 0 -1.2 -.1 -1.7 -.3c-.6 -.2 -1 -.5 -1.5 -1c-.4 -.4 -.7 -.9 -.9 -1.4c-.3 -.6 -.4 -1.1 -.4 -1.7v-21c0 -.5 .1 -1.1 .4 -1.7c.2 -.5 .5 -1 .9 -1.4c.5 -.4 .9 -.8 1.5 -1c.5 -.2 1.1 -.3 1.7 -.3Zm-56 15l51.5 -.1" class="g1_343"/>
<path d="M236.1 248.6l8.2 11.3" class="g2_343"/>
<path d="M237 246.7c0 .3 0 .6 -.1 .9c-.2 .3 -.3 .5 -.5 .7c-.3 .3 -.5 .4 -.8 .5c-.3 .1 -.6 .2 -.9 .2c-.3 0 -.6 -.1 -.8 -.2c-.3 -.1 -.6 -.2 -.8 -.5c-.2 -.2 -.4 -.4 -.5 -.7c-.1 -.3 -.2 -.6 -.2 -.9c0 -.3 .1 -.6 .2 -.9c.1 -.2 .3 -.5 .5 -.7c.2 -.2 .5 -.4 .8 -.5c.2 -.1 .5 -.2 .8 -.2c.3 0 .6 .1 .9 .2c.3 .1 .5 .3 .8 .5c.2 .2 .3 .5 .5 .7c.1 .3 .1 .6 .1 .9Z" class="g3_343"/>
<path d="M237 246.7c0 .3 0 .6 -.1 .9c-.2 .3 -.3 .5 -.5 .7c-.3 .3 -.5 .4 -.8 .5c-.3 .1 -.6 .2 -.9 .2c-.3 0 -.6 -.1 -.8 -.2c-.3 -.1 -.6 -.2 -.8 -.5c-.2 -.2 -.4 -.4 -.5 -.7c-.1 -.3 -.2 -.6 -.2 -.9c0 -.3 .1 -.6 .2 -.9c.1 -.2 .3 -.5 .5 -.7c.2 -.2 .5 -.4 .8 -.5c.2 -.1 .5 -.2 .8 -.2c.3 0 .6 .1 .9 .2c.3 .1 .5 .3 .8 .5c.2 .2 .3 .5 .5 .7c.1 .3 .1 .6 .1 .9Z" class="g2_343"/>
<path d="M247.3 264.1l-5.9 -4.2h2.9l.8 -2.7l2.2 6.9Z" class="g3_343"/>
<path d="M247.3 264.1l-5.9 -4.2h2.9l.8 -2.7l2.2 6.9Z" class="g2_343"/>
<path d="M286.9 266.2h37.8v32H286.9v-32Z" class="g0_343"/>
<path d="M286.9 266.2h37.8v32H286.9v-32Z" class="g1_343"/>
<path d="M286.9 298.2h37.8v32H286.9v-32Z" class="g0_343"/>
<path d="M286.9 298.2h37.8v32H286.9v-32Z" class="g1_343"/>
<path d="M272.4 215.4L293 259.2" class="g2_343"/>
<path d="M273.7 213.3c0 .4 -.1 .6 -.2 .9c-.1 .3 -.3 .6 -.5 .8c-.2 .2 -.4 .3 -.7 .5c-.3 .1 -.6 .1 -.9 .1c-.3 0 -.6 0 -.9 -.1c-.3 -.2 -.5 -.3 -.7 -.5c-.2 -.2 -.4 -.5 -.5 -.8c-.1 -.3 -.2 -.5 -.2 -.9c0 -.3 .1 -.5 .2 -.8c.1 -.3 .3 -.6 .5 -.8c.2 -.2 .4 -.4 .7 -.5c.3 -.1 .6 -.1 .9 -.1c.3 0 .6 0 .9 .1c.3 .1 .5 .3 .7 .5c.2 .2 .4 .5 .5 .8c.1 .3 .2 .5 .2 .8Z" class="g3_343"/>
<path d="M273.7 213.3c0 .4 -.1 .6 -.2 .9c-.1 .3 -.3 .6 -.5 .8c-.2 .2 -.4 .3 -.7 .5c-.3 .1 -.6 .1 -.9 .1c-.3 0 -.6 0 -.9 -.1c-.3 -.2 -.5 -.3 -.7 -.5c-.2 -.2 -.4 -.5 -.5 -.8c-.1 -.3 -.2 -.5 -.2 -.9c0 -.3 .1 -.5 .2 -.8c.1 -.3 .3 -.6 .5 -.8c.2 -.2 .4 -.4 .7 -.5c.3 -.1 .6 -.1 .9 -.1c.3 0 .6 0 .9 .1c.3 .1 .5 .3 .7 .5c.2 .2 .4 .5 .5 .8c.1 .3 .2 .5 .2 .8Z" class="g2_343"/>
<path d="M295.2 263.9l-5 -5.3l2.8 .6l1.4 -2.5l.8 7.2Z" class="g3_343"/>
<path d="M295.2 263.9l-5 -5.3l2.8 .6l1.4 -2.5l.8 7.2Z" class="g2_343"/>
<path d="M340.2 162.9H518.9" class="g1_343"/>
<path d="M305.7 148h30c.6 0 1.1 .1 1.7 .3c.5 .3 1 .6 1.4 1c.5 .4 .8 .9 1 1.5c.2 .5 .4 1.1 .4 1.7v20.9c0 .6 -.2 1.2 -.4 1.7c-.2 .6 -.5 1 -1 1.5c-.4 .4 -.9 .7 -1.4 .9c-.6 .3 -1.1 .4 -1.7 .4h-30c-.6 0 -1.2 -.1 -1.7 -.4c-.6 -.2 -1.1 -.5 -1.5 -.9c-.4 -.5 -.7 -.9 -1 -1.5c-.2 -.5 -.3 -1.1 -.3 -1.7V152.5c0 -.6 .1 -1.2 .3 -1.7c.3 -.6 .6 -1.1 1 -1.5c.4 -.4 .9 -.7 1.5 -1c.5 -.2 1.1 -.3 1.7 -.3Z" class="g0_343"/>
<path d="M305.7 148h30c.6 0 1.1 .1 1.7 .3c.5 .3 1 .6 1.4 1c.5 .4 .8 .9 1 1.5c.2 .5 .4 1.1 .4 1.7v20.9c0 .6 -.2 1.2 -.4 1.7c-.2 .6 -.5 1 -1 1.5c-.4 .4 -.9 .7 -1.4 .9c-.6 .3 -1.1 .4 -1.7 .4h-30c-.6 0 -1.2 -.1 -1.7 -.4c-.6 -.2 -1.1 -.5 -1.5 -.9c-.4 -.5 -.7 -.9 -1 -1.5c-.2 -.5 -.3 -1.1 -.3 -1.7V152.5c0 -.6 .1 -1.2 .3 -1.7c.3 -.6 .6 -1.1 1 -1.5c.4 -.4 .9 -.7 1.5 -1c.5 -.2 1.1 -.3 1.7 -.3ZM200.4 162.9H301.2" class="g1_343"/>
<path d="M268.9 264.2l47.8 -79.7" class="g2_343"/>
<path d="M270 266.2c0 .3 -.1 .6 -.2 .9c-.1 .3 -.3 .5 -.5 .7c-.2 .2 -.5 .4 -.7 .5c-.3 .1 -.6 .2 -.9 .2c-.3 0 -.6 -.1 -.9 -.2c-.3 -.1 -.5 -.3 -.7 -.5c-.3 -.2 -.4 -.4 -.5 -.7c-.2 -.3 -.2 -.6 -.2 -.9c0 -.3 0 -.6 .2 -.9c.1 -.3 .2 -.5 .5 -.7c.2 -.2 .4 -.4 .7 -.5c.3 -.1 .6 -.2 .9 -.2c.3 0 .6 .1 .9 .2c.2 .1 .5 .3 .7 .5c.2 .2 .4 .4 .5 .7c.1 .3 .2 .6 .2 .9Z" class="g3_343"/>
<path d="M270 266.2c0 .3 -.1 .6 -.2 .9c-.1 .3 -.3 .5 -.5 .7c-.2 .2 -.5 .4 -.7 .5c-.3 .1 -.6 .2 -.9 .2c-.3 0 -.6 -.1 -.9 -.2c-.3 -.1 -.5 -.3 -.7 -.5c-.3 -.2 -.4 -.4 -.5 -.7c-.2 -.3 -.2 -.6 -.2 -.9c0 -.3 0 -.6 .2 -.9c.1 -.3 .2 -.5 .5 -.7c.2 -.2 .4 -.4 .7 -.5c.3 -.1 .6 -.2 .9 -.2c.3 0 .6 .1 .9 .2c.2 .1 .5 .3 .7 .5c.2 .2 .4 .4 .5 .7c.1 .3 .2 .6 .2 .9Z" class="g2_343"/>
<path d="M319.4 180.1l-1.6 7l-1.1 -2.6l-2.8 .3l5.5 -4.7Z" class="g3_343"/>
<path d="M319.4 180.1l-1.6 7l-1.1 -2.6l-2.8 .3l5.5 -4.7Z" class="g2_343"/>
<path d="M350.4 148h30c.6 0 1.1 .1 1.7 .3c.5 .3 1 .6 1.4 1c.5 .4 .8 .9 1 1.5c.2 .5 .3 1.1 .3 1.7v20.9c0 .6 -.1 1.2 -.3 1.7c-.2 .6 -.5 1 -1 1.5c-.4 .4 -.9 .7 -1.4 .9c-.6 .3 -1.1 .4 -1.7 .4h-30c-.6 0 -1.2 -.1 -1.8 -.4c-.5 -.2 -1 -.5 -1.4 -.9c-.4 -.5 -.7 -.9 -1 -1.5c-.2 -.5 -.3 -1.1 -.3 -1.7V152.5c0 -.6 .1 -1.2 .3 -1.7c.3 -.6 .6 -1.1 1 -1.5c.4 -.4 .9 -.7 1.4 -1c.6 -.2 1.2 -.3 1.8 -.3Z" class="g0_343"/>
<path d="M350.4 148h30c.6 0 1.1 .1 1.7 .3c.5 .3 1 .6 1.4 1c.5 .4 .8 .9 1 1.5c.2 .5 .3 1.1 .3 1.7v20.9c0 .6 -.1 1.2 -.3 1.7c-.2 .6 -.5 1 -1 1.5c-.4 .4 -.9 .7 -1.4 .9c-.6 .3 -1.1 .4 -1.7 .4h-30c-.6 0 -1.2 -.1 -1.8 -.4c-.5 -.2 -1 -.5 -1.4 -.9c-.4 -.5 -.7 -.9 -1 -1.5c-.2 -.5 -.3 -1.1 -.3 -1.7V152.5c0 -.6 .1 -1.2 .3 -1.7c.3 -.6 .6 -1.1 1 -1.5c.4 -.4 .9 -.7 1.4 -1c.6 -.2 1.2 -.3 1.8 -.3Z" class="g1_343"/>
<path d="M372.8 266.2h37.8v32H372.8v-32Z" class="g0_343"/>
<path d="M372.8 266.2h37.8v32H372.8v-32Z" class="g1_343"/>
<path d="M365.8 180.1l15 78.5" class="g2_343"/>
<path d="M367.7 177.9c0 .3 -.1 .6 -.2 .9c-.1 .2 -.3 .5 -.5 .7c-.2 .2 -.5 .4 -.8 .5c-.2 .1 -.5 .2 -.8 .2c-.3 0 -.6 -.1 -.9 -.2c-.3 -.1 -.5 -.3 -.8 -.5c-.2 -.2 -.3 -.5 -.5 -.7c-.1 -.3 -.1 -.6 -.1 -.9c0 -.3 0 -.6 .1 -.9c.2 -.3 .3 -.5 .5 -.7c.3 -.3 .5 -.4 .8 -.5c.3 -.2 .6 -.2 .9 -.2c.3 0 .6 0 .8 .2c.3 .1 .6 .2 .8 .5c.2 .2 .4 .4 .5 .7c.1 .3 .2 .6 .2 .9Z" class="g3_343"/>
<path d="M367.7 177.9c0 .3 -.1 .6 -.2 .9c-.1 .2 -.3 .5 -.5 .7c-.2 .2 -.5 .4 -.8 .5c-.2 .1 -.5 .2 -.8 .2c-.3 0 -.6 -.1 -.9 -.2c-.3 -.1 -.5 -.3 -.8 -.5c-.2 -.2 -.3 -.5 -.5 -.7c-.1 -.3 -.1 -.6 -.1 -.9c0 -.3 0 -.6 .1 -.9c.2 -.3 .3 -.5 .5 -.7c.3 -.3 .5 -.4 .8 -.5c.3 -.2 .6 -.2 .9 -.2c.3 0 .6 0 .8 .2c.3 .1 .6 .2 .8 .5c.2 .2 .4 .4 .5 .7c.1 .3 .2 .6 .2 .9Z" class="g2_343"/>
<path d="M381.8 263.7l-3.6 -6.3l2.6 1.2l1.9 -2.1l-.9 7.2Z" class="g3_343"/>
<path d="M381.8 263.7l-3.6 -6.3l2.6 1.2l1.9 -2.1l-.9 7.2Z" class="g2_343"/>
<path d="M372.8 298.2h37.8v32H372.8v-32Z" class="g0_343"/>
<path d="M372.8 298.2h37.8v32H372.8v-32ZM200.4 125.1H518.9" class="g1_343"/>
<path d="M415.8 119.3h28.6c.7 0 1.4 .2 2 .4c.6 .3 1.2 .7 1.7 1.2c.5 .4 .8 1 1.1 1.6c.3 .7 .4 1.3 .4 2v24.1c0 .6 -.1 1.3 -.4 1.9c-.3 .7 -.6 1.2 -1.1 1.7c-.5 .5 -1.1 .9 -1.7 1.1c-.6 .3 -1.3 .4 -2 .4H415.8c-.7 0 -1.4 -.1 -2 -.4c-.6 -.2 -1.2 -.6 -1.7 -1.1c-.4 -.5 -.8 -1 -1.1 -1.7c-.2 -.6 -.4 -1.3 -.4 -1.9V124.5c0 -.7 .2 -1.3 .4 -2c.3 -.6 .7 -1.2 1.1 -1.6c.5 -.5 1.1 -.9 1.7 -1.2c.6 -.2 1.3 -.4 2 -.4Z" class="g0_343"/>
<path d="M415.8 119.3h28.6c.7 0 1.4 .2 2 .4c.6 .3 1.2 .7 1.7 1.2c.5 .4 .8 1 1.1 1.6c.3 .7 .4 1.3 .4 2v24.1c0 .6 -.1 1.3 -.4 1.9c-.3 .7 -.6 1.2 -1.1 1.7c-.5 .5 -1.1 .9 -1.7 1.1c-.6 .3 -1.3 .4 -2 .4H415.8c-.7 0 -1.4 -.1 -2 -.4c-.6 -.2 -1.2 -.6 -1.7 -1.1c-.4 -.5 -.8 -1 -1.1 -1.7c-.2 -.6 -.4 -1.3 -.4 -1.9V124.5c0 -.7 .2 -1.3 .4 -2c.3 -.6 .7 -1.2 1.1 -1.6c.5 -.5 1.1 -.9 1.7 -1.2c.6 -.2 1.3 -.4 2 -.4Z" class="g1_343"/>
<path d="M401.7 264L428.2 161.2" class="g2_343"/>
<path d="M403.5 266.2c0 .3 -.1 .6 -.2 .9c-.1 .3 -.3 .5 -.5 .7c-.2 .2 -.5 .4 -.8 .5c-.2 .1 -.5 .2 -.8 .2c-.3 0 -.6 -.1 -.9 -.2c-.3 -.1 -.5 -.3 -.7 -.5c-.3 -.2 -.4 -.4 -.5 -.7c-.2 -.3 -.2 -.6 -.2 -.9c0 -.3 0 -.6 .2 -.9c.1 -.3 .2 -.5 .5 -.7c.2 -.2 .4 -.4 .7 -.5c.3 -.1 .6 -.2 .9 -.2c.3 0 .6 .1 .8 .2c.3 .1 .6 .3 .8 .5c.2 .2 .4 .4 .5 .7c.1 .3 .2 .6 .2 .9Z" class="g3_343"/>
<path d="M403.5 266.2c0 .3 -.1 .6 -.2 .9c-.1 .3 -.3 .5 -.5 .7c-.2 .2 -.5 .4 -.8 .5c-.2 .1 -.5 .2 -.8 .2c-.3 0 -.6 -.1 -.9 -.2c-.3 -.1 -.5 -.3 -.7 -.5c-.3 -.2 -.4 -.4 -.5 -.7c-.2 -.3 -.2 -.6 -.2 -.9c0 -.3 0 -.6 .2 -.9c.1 -.3 .2 -.5 .5 -.7c.2 -.2 .4 -.4 .7 -.5c.3 -.1 .6 -.2 .9 -.2c.3 0 .6 .1 .8 .2c.3 .1 .6 .3 .8 .5c.2 .2 .4 .4 .5 .7c.1 .3 .2 .6 .2 .9Z" class="g2_343"/>
<path d="M429.5 156.2l.5 7.2l-1.8 -2.2l-2.7 1.1l4 -6.1Z" class="g3_343"/>
<path d="M429.5 156.2l.5 7.2l-1.8 -2.2l-2.7 1.1l4 -6.1Z" class="g2_343"/>
<path d="M461.5 110.1h30c.6 0 1.2 .1 1.7 .4c.6 .2 1.1 .5 1.5 .9c.4 .5 .7 .9 .9 1.5c.3 .5 .4 1.1 .4 1.7v20.9c0 .6 -.1 1.2 -.4 1.7c-.2 .6 -.5 1.1 -.9 1.5c-.4 .4 -.9 .7 -1.5 1c-.5 .2 -1.1 .3 -1.7 .3h-30c-.6 0 -1.2 -.1 -1.7 -.3c-.6 -.3 -1 -.6 -1.5 -1c-.4 -.4 -.7 -.9 -.9 -1.5c-.3 -.5 -.4 -1.1 -.4 -1.7V114.6c0 -.6 .1 -1.2 .4 -1.7c.2 -.6 .5 -1 .9 -1.5c.5 -.4 .9 -.7 1.5 -.9c.5 -.3 1.1 -.4 1.7 -.4Z" class="g0_343"/>
<path d="M461.5 110.1h30c.6 0 1.2 .1 1.7 .4c.6 .2 1.1 .5 1.5 .9c.4 .5 .7 .9 .9 1.5c.3 .5 .4 1.1 .4 1.7v20.9c0 .6 -.1 1.2 -.4 1.7c-.2 .6 -.5 1.1 -.9 1.5c-.4 .4 -.9 .7 -1.5 1c-.5 .2 -1.1 .3 -1.7 .3h-30c-.6 0 -1.2 -.1 -1.7 -.3c-.6 -.3 -1 -.6 -1.5 -1c-.4 -.4 -.7 -.9 -.9 -1.5c-.3 -.5 -.4 -1.1 -.4 -1.7V114.6c0 -.6 .1 -1.2 .4 -1.7c.2 -.6 .5 -1 .9 -1.5c.5 -.4 .9 -.7 1.5 -.9c.5 -.3 1.1 -.4 1.7 -.4Z" class="g1_343"/>
<path d="M473.1 266.2h37.8v32H473.1v-32Z" class="g0_343"/>
<path d="M473.1 266.2h37.8v32H473.1v-32Z" class="g1_343"/>
<path d="M476.6 142.3l5.6 116.2" class="g2_343"/>
<path d="M478.8 140c0 .3 -.1 .6 -.2 .9c-.1 .3 -.3 .5 -.5 .7c-.2 .3 -.4 .4 -.7 .5c-.3 .1 -.6 .2 -.9 .2c-.3 0 -.6 -.1 -.9 -.2c-.2 -.1 -.5 -.2 -.7 -.5c-.2 -.2 -.4 -.4 -.5 -.7c-.1 -.3 -.2 -.6 -.2 -.9c0 -.3 .1 -.6 .2 -.9c.1 -.2 .3 -.5 .5 -.7c.2 -.2 .5 -.4 .7 -.5c.3 -.1 .6 -.2 .9 -.2c.3 0 .6 .1 .9 .2c.3 .1 .5 .3 .7 .5c.2 .2 .4 .5 .5 .7c.1 .3 .2 .6 .2 .9Z" class="g3_343"/>
<path d="M478.8 140c0 .3 -.1 .6 -.2 .9c-.1 .3 -.3 .5 -.5 .7c-.2 .3 -.4 .4 -.7 .5c-.3 .1 -.6 .2 -.9 .2c-.3 0 -.6 -.1 -.9 -.2c-.2 -.1 -.5 -.2 -.7 -.5c-.2 -.2 -.4 -.4 -.5 -.7c-.1 -.3 -.2 -.6 -.2 -.9c0 -.3 .1 -.6 .2 -.9c.1 -.2 .3 -.5 .5 -.7c.2 -.2 .5 -.4 .7 -.5c.3 -.1 .6 -.2 .9 -.2c.3 0 .6 .1 .9 .2c.3 .1 .5 .3 .7 .5c.2 .2 .4 .5 .5 .7c.1 .3 .2 .6 .2 .9Z" class="g2_343"/>
<path d="M482.4 263.6l-2.6 -6.7l2.4 1.6l2.2 -1.8l-2 6.9Z" class="g3_343"/>
<path d="M482.4 263.6l-2.6 -6.7l2.4 1.6l2.2 -1.8l-2 6.9Z" class="g2_343"/>
<path d="M415 97.6h30.3c.5 0 1.1 .1 1.6 .3c.5 .2 1 .5 1.4 .9c.4 .4 .7 .9 1 1.4c.2 .6 .3 1.1 .3 1.7v20.2c0 .6 -.1 1.1 -.3 1.7c-.3 .5 -.6 1 -1 1.4c-.4 .4 -.9 .7 -1.4 .9c-.5 .2 -1.1 .3 -1.6 .3H415c-.6 0 -1.2 -.1 -1.7 -.3c-.5 -.2 -1 -.5 -1.4 -.9c-.4 -.4 -.7 -.9 -.9 -1.4c-.3 -.6 -.4 -1.1 -.4 -1.7V101.9c0 -.6 .1 -1.1 .4 -1.7c.2 -.5 .5 -1 .9 -1.4c.4 -.4 .9 -.7 1.4 -.9c.5 -.2 1.1 -.3 1.7 -.3Z" class="g0_343"/>
<path d="M415 97.6h30.3c.5 0 1.1 .1 1.6 .3c.5 .2 1 .5 1.4 .9c.4 .4 .7 .9 1 1.4c.2 .6 .3 1.1 .3 1.7v20.2c0 .6 -.1 1.1 -.3 1.7c-.3 .5 -.6 1 -1 1.4c-.4 .4 -.9 .7 -1.4 .9c-.5 .2 -1.1 .3 -1.6 .3H415c-.6 0 -1.2 -.1 -1.7 -.3c-.5 -.2 -1 -.5 -1.4 -.9c-.4 -.4 -.7 -.9 -.9 -1.4c-.3 -.6 -.4 -1.1 -.4 -1.7V101.9c0 -.6 .1 -1.1 .4 -1.7c.2 -.5 .5 -1 .9 -1.4c.4 -.4 .9 -.7 1.4 -.9c.5 -.2 1.1 -.3 1.7 -.3Z" class="g1_343"/>
</g>
</svg>