<?xml version="1.0" encoding="UTF-8" standalone="no"?>
<!DOCTYPE svg PUBLIC "-//W3C//DTD SVG 1.1//EN"
"http://www.w3.org/Graphics/SVG/1.1/DTD/svg11.dtd">
<svg viewBox="0 0 714 1017" version="1.1" xmlns="http://www.w3.org/2000/svg" xmlns:xlink="http://www.w3.org/1999/xlink">
<defs>
<clipPath id="c0_252"><path d="M86.6 511.4V182.8H652.7V511.4Z"/></clipPath>
<clipPath id="c1_252"><path d="M86.6 511.4v-330H654.9v330Z"/></clipPath>
<style type="text/css"><![CDATA[
.g0_252{
fill: #FFF;
}
.g1_252{
fill: none;
stroke: #000;
stroke-width: 1.145;
stroke-miterlimit: 10;
}
.g2_252{
fill: #000;
}
]]></style>
</defs>
<path d="M0 1017.7H717.2V-3.7H0V1017.7Z" class="g0_252"/>
<g clip-path="url(#c1_252)">
<g clip-path="url(#c0_252)">
<path d="M86.6 182.8H652.7V511.7H86.6V182.8Z" class="g0_252"/>
<path d="M155.9 395.4c0 -5.7 64.2 -10.3 143.3 -10.3c38 0 74.4 1.1 101.2 3c26.9 1.9 42 4.5 42 7.3V500.8c0 5.7 -64.1 10.3 -143.2 10.3c-79.1 0 -143.3 -4.6 -143.3 -10.3V395.4Zm286.5 0c0 5.7 -64.1 10.3 -143.2 10.3c-79.1 0 -143.3 -4.6 -143.3 -10.3M193.7 247.6H622.3c.4 0 .9 0 1.3 .2c.4 .2 .8 .4 1.1 .8c.3 .3 .6 .7 .8 1.1c.1 .4 .2 .8 .2 1.3v16c0 .5 -.1 .9 -.2 1.4c-.2 .4 -.5 .8 -.8 1.1c-.3 .3 -.7 .5 -1.1 .7c-.4 .2 -.9 .3 -1.3 .3H193.7c-.4 0 -.8 -.1 -1.3 -.3c-.4 -.2 -.8 -.4 -1.1 -.7c-.3 -.3 -.6 -.7 -.7 -1.1c-.2 -.5 -.3 -.9 -.3 -1.4V251c0 -.5 .1 -.9 .3 -1.3c.1 -.4 .4 -.8 .7 -1.1c.3 -.4 .7 -.6 1.1 -.8c.5 -.2 .9 -.2 1.3 -.2Zm59.6 34.3H412.6c.5 0 .9 .1 1.3 .3c.4 .2 .8 .4 1.1 .7c.4 .4 .6 .7 .8 1.2c.2 .4 .2 .8 .2 1.3v16c0 .5 0 .9 -.2 1.3c-.2 .5 -.4 .8 -.8 1.1c-.3 .4 -.7 .6 -1.1 .8c-.4 .2 -.8 .3 -1.3 .3H253.3c-.4 0 -.9 -.1 -1.3 -.3c-.4 -.2 -.8 -.4 -1.1 -.8c-.3 -.3 -.6 -.6 -.7 -1.1c-.2 -.4 -.3 -.8 -.3 -1.3v-16c0 -.5 .1 -.9 .3 -1.3c.1 -.5 .4 -.8 .7 -1.2c.3 -.3 .7 -.5 1.1 -.7c.4 -.2 .9 -.3 1.3 -.3ZM110.1 196L623 194.9" class="g1_252"/>
</g>
<path d="M629 194.9l-8 2.6l2 -2.6l-2 -2.7l8 2.7Z" class="g2_252"/>
<path d="M629 194.9l-8 2.6l2 -2.6l-2 -2.7l8 2.7ZM196 412.6H379.4v34.3H196V412.6Zm0 45.8H379.4v34.4H196V458.4ZM333 304.9l.5 100.4" class="g1_252"/>
<path d="M333.5 411.3l-2.7 -8l2.7 2l2.7 -2.1l-2.7 8.1Z" class="g2_252"/>
<path d="M333.5 411.3l-2.7 -8l2.7 2l2.7 -2.1l-2.7 8.1ZM465.3 339.2v79.1c0 7.6 -3.8 11.5 -11.4 11.5H386.7" class="g1_252"/>
<path d="M380.7 429.8l8 -2.7l-2 2.7l2 2.6l-8 -2.6Z" class="g2_252"/>
<path d="M380.7 429.8l8 -2.7l-2 2.7l2 2.6l-8 -2.6ZM147.9 213.2H278.5c.5 0 .9 .1 1.4 .2c.4 .2 .7 .5 1.1 .8c.3 .3 .5 .7 .7 1.1c.2 .4 .3 .9 .3 1.3v16.1c0 .4 -.1 .9 -.3 1.3c-.2 .4 -.4 .8 -.7 1.1c-.4 .3 -.7 .6 -1.1 .7c-.5 .2 -.9 .3 -1.4 .3H147.9c-.4 0 -.9 -.1 -1.3 -.3c-.4 -.1 -.8 -.4 -1.1 -.7c-.3 -.3 -.6 -.7 -.8 -1.1c-.1 -.4 -.2 -.9 -.2 -1.3V216.6c0 -.4 .1 -.9 .2 -1.3c.2 -.4 .5 -.8 .8 -1.1c.3 -.3 .7 -.6 1.1 -.8c.4 -.1 .9 -.2 1.3 -.2Zm31 22.9v228c0 7.7 1.6 11.5 4.9 11.5h4.9" class="g1_252"/>
<path d="M194.8 475.6l-8.1 2.7l2 -2.7l-2 -2.7l8.1 2.7Z" class="g2_252"/>
<path d="M194.8 475.6l-8.1 2.7l2 -2.7l-2 -2.7l8.1 2.7Zm188 -159.3h165c.5 0 .9 .1 1.3 .3c.4 .1 .8 .4 1.1 .7c.4 .3 .6 .7 .8 1.1c.2 .5 .2 .9 .2 1.4v16c0 .4 0 .9 -.2 1.3c-.2 .4 -.4 .8 -.8 1.1c-.3 .3 -.7 .6 -1.1 .8c-.4 .1 -.8 .2 -1.3 .2h-165c-.4 0 -.9 -.1 -1.3 -.2c-.4 -.2 -.8 -.5 -1.1 -.8c-.3 -.3 -.6 -.7 -.8 -1.1c-.1 -.4 -.2 -.9 -.2 -1.3v-16c0 -.5 .1 -.9 .2 -1.4c.2 -.4 .5 -.8 .8 -1.1c.3 -.3 .7 -.6 1.1 -.7c.4 -.2 .9 -.3 1.3 -.3ZM569.1 269.9V464.1c0 7.7 -3.8 11.5 -11.4 11.5h-171" class="g1_252"/>
<path d="M380.7 475.6l8 -2.7l-2 2.7l2 2.7l-8 -2.7Z" class="g2_252"/>
<path d="M380.7 475.6l8 -2.7l-2 2.7l2 2.7l-8 -2.7Z" class="g1_252"/>
</g>
</svg>