<?xml version="1.0" encoding="UTF-8" standalone="no"?>
<!DOCTYPE svg PUBLIC "-//W3C//DTD SVG 1.1//EN"
"http://www.w3.org/Graphics/SVG/1.1/DTD/svg11.dtd">
<svg viewBox="0 0 714 1017" version="1.1" xmlns="http://www.w3.org/2000/svg" xmlns:xlink="http://www.w3.org/1999/xlink">
<defs>
<clipPath id="c0_195"><path d="M70 734.7V481.5H622.3V734.7Z"/></clipPath>
<clipPath id="c1_195"><path d="M70 735.2V480.1H623V735.2Z"/></clipPath>
<style type="text/css"><![CDATA[
.g0_195{
fill: #FFF;
}
.g1_195{
fill: none;
stroke: #000;
stroke-width: 1.145;
stroke-miterlimit: 10;
}
.g2_195{
fill: #000;
}
]]></style>
</defs>
<path d="M0 1017.7H717.2V-3.7H0V1017.7Z" class="g0_195"/>
<g clip-path="url(#c1_195)">
<path clip-path="url(#c0_195)" d="M70 481.5H622.3V734.7H70V481.5Z" class="g0_195"/>
<path d="M151.9 585.2H368.5v126H151.9v-126Zm260.1 0H538.1v80.2H412V585.2Z" class="g1_195"/>
<path d="M151.9 711.2H368.5v23H151.9v-23Z" class="g2_195"/>
<path d="M151.9 711.2H368.5v23H151.9v-23Z" class="g1_195"/>
<path d="M70.6 561.7h1.1v1.2H70.6m5.7 -1.2h1.1v1.2H76.3M82 561.7h1.2v1.2H82m5.8 -1.2h1.1v1.2H87.8m5.7 -1.2h1.1v1.2H93.5m5.7 -1.2h1.2v1.2H99.2m5.7 -1.2h1.2v1.2h-1.2m5.8 -1.2h1.1v1.2h-1.1m5.7 -1.2h1.1v1.2h-1.1m5.7 -1.2h1.2v1.2h-1.2m5.8 -1.2H129v1.2h-1.1m5.7 -1.2h1.1v1.2h-1.1m5.7 -1.2h1.2v1.2h-1.2m5.7 -1.2h1.2v1.2H145m5.8 -1.2h1.1v1.2h-1.1m5.7 -1.2h1.1v1.2h-1.1m5.7 -1.2h1.2v1.2h-1.2m5.8 -1.2h1.1v1.2H168m5.7 -1.2h1.1v1.2h-1.1m5.7 -1.2h1.2v1.2h-1.2m5.7 -1.2h1.2v1.2h-1.2m5.8 -1.2H192v1.2h-1.1m5.7 -1.2h1.2v1.2h-1.2m5.7 -1.2h1.2v1.2h-1.2m5.8 -1.2h1.1v1.2h-1.1m5.7 -1.2h1.1v1.2h-1.1m5.7 -1.2h1.2v1.2h-1.2m5.8 -1.2h1.1v1.2h-1.1m5.7 -1.2h1.1v1.2H231m5.7 -1.2h1.2v1.2h-1.2m5.7 -1.2h1.2v1.2h-1.2m5.8 -1.2h1.1v1.2h-1.1m5.7 -1.2H255v1.2h-1.1m5.7 -1.2h1.2v1.2h-1.2m5.8 -1.2h1.1v1.2h-1.1m5.7 -1.2h1.1v1.2h-1.1m5.7 -1.2H278v1.2h-1.2m5.7 -1.2h1.2v1.2h-1.2m5.8 -1.2h1.1v1.2h-1.1m5.7 -1.2h1.1v1.2H294m5.7 -1.2h1.2v1.2h-1.2m5.8 -1.2h1.1v1.2h-1.1m5.7 -1.2h1.1v1.2h-1.1m5.7 -1.2h1.2v1.2h-1.2m5.7 -1.2h1.2v1.2h-1.2m5.8 -1.2h1.1v1.2h-1.1m5.7 -1.2h1.2v1.2h-1.2m5.7 -1.2H341v1.2h-1.2m5.8 -1.2h1.1v1.2h-1.1m5.7 -1.2h1.1v1.2h-1.1m5.7 -1.2h1.2v1.2H357m5.8 -1.2h1.1v1.2h-1.1m5.7 -1.2h1.1v1.2h-1.1m5.7 -1.2h1.2v1.2h-1.2m5.7 -1.2h1.2v1.2h-1.2m5.8 -1.2h1.1v1.2h-1.1m5.7 -1.2h1.1v1.2h-1.1m5.7 -1.2h1.2v1.2h-1.2m5.8 -1.2H404v1.2h-1.1m5.7 -1.2h1.1v1.2h-1.1m5.7 -1.2h1.2v1.2h-1.2m5.7 -1.2h1.2v1.2H420m5.8 -1.2h1.1v1.2h-1.1m5.7 -1.2h1.1v1.2h-1.1m5.7 -1.2h1.2v1.2h-1.2m5.8 -1.2h1.1v1.2H443m5.7 -1.2h1.1v1.2h-1.1m5.7 -1.2h1.2v1.2h-1.2m5.7 -1.2h1.2v1.2h-1.2m5.8 -1.2H467v1.2h-1.1m5.7 -1.2h1.2v1.2h-1.2m5.7 -1.2h1.2v1.2h-1.2m5.8 -1.2h1.1v1.2h-1.1m5.7 -1.2h1.1v1.2h-1.1m5.7 -1.2h1.2v1.2h-1.2m5.8 -1.2h1.1v1.2h-1.1m5.7 -1.2h1.1v1.2H506m5.7 -1.2h1.2v1.2h-1.2m5.7 -1.2h1.2v1.2h-1.2m5.8 -1.2h1.1v1.2h-1.1m5.7 -1.2H530v1.2h-1.1m5.7 -1.2h1.2v1.2h-1.2m5.8 -1.2h1.1v1.2h-1.1m5.7 -1.2h1.1v1.2h-1.1m5.7 -1.2H553v1.2h-1.2m5.7 -1.2h1.2v1.2h-1.2m5.8 -1.2h1.1v1.2h-1.1m5.7 -1.2h1.1v1.2H569m5.7 -1.2h1.2v1.2h-1.2m5.8 -1.2h1.1v1.2h-1.1m5.7 -1.2h1.1v1.2h-1.1m5.7 -1.2h1.2v1.2h-1.2m5.7 -1.2h1.2v1.2h-1.2m5.8 -1.2h1.1v1.2h-1.1m5.7 -1.2h1.2v1.2h-1.2m5.7 -1.2H616v1.2h-1.2Z" class="g2_195"/>
<path d="M259.6 585.2v-3.4h1.2v3.4m-1.2 -6.9v-3.4h1.2v3.4m-1.2 -6.9V568h1.2v3.4m-1.2 -6.8v-3.5h1.2v3.5m-1.2 -6.9v-3.4h1.2v3.4m-1.2 -6.9v-3.4h1.2v3.4m-1.2 -6.9v-3.4h1.2v3.4Z" class="g2_195"/>
<path d="M271.7 527.9c0 .8 -.1 1.5 -.3 2.2c-.1 .8 -.3 1.5 -.6 2.2c-.3 .7 -.7 1.3 -1.1 2c-.4 .6 -.9 1.2 -1.4 1.7c-.5 .5 -1.1 1 -1.7 1.4c-.7 .5 -1.3 .8 -2 1.1c-.7 .3 -1.4 .5 -2.2 .6c-.7 .2 -1.4 .3 -2.2 .3c-.8 0 -1.5 -.1 -2.2 -.3c-.8 -.1 -1.5 -.3 -2.2 -.6c-.7 -.3 -1.3 -.6 -2 -1.1c-.6 -.4 -1.2 -.9 -1.7 -1.4c-.5 -.5 -1 -1.1 -1.4 -1.7c-.4 -.7 -.8 -1.3 -1.1 -2c-.3 -.7 -.5 -1.4 -.6 -2.2c-.2 -.7 -.3 -1.4 -.3 -2.2c0 -.7 .1 -1.5 .3 -2.2c.1 -.8 .3 -1.5 .6 -2.2c.3 -.7 .7 -1.3 1.1 -2c.4 -.6 .9 -1.2 1.4 -1.7c.5 -.5 1.1 -1 1.7 -1.4c.7 -.4 1.3 -.8 2 -1.1c.7 -.3 1.4 -.5 2.2 -.6c.7 -.2 1.4 -.3 2.2 -.3c.8 0 1.5 .1 2.2 .3c.8 .1 1.5 .3 2.2 .6c.7 .3 1.3 .7 2 1.1c.6 .4 1.2 .9 1.7 1.4c.5 .5 1 1.1 1.4 1.7c.4 .7 .8 1.3 1.1 2c.3 .7 .5 1.4 .6 2.2c.2 .7 .3 1.5 .3 2.2Z" class="g1_195"/>
<path d="M225.8 493.5h68.8v22.9H225.8V493.5Z" class="g2_195"/>
<path d="M225.8 493.5h68.8v22.9H225.8V493.5Zm46.4 200.6c0 .5 0 1 -.1 1.5c-.1 .5 -.3 1 -.5 1.5c-.2 .5 -.4 1 -.7 1.4c-.3 .4 -.6 .9 -1 1.2c-.4 .4 -.8 .7 -1.2 1c-.5 .3 -.9 .6 -1.4 .8c-.5 .2 -1 .3 -1.5 .4c-.5 .1 -1.1 .2 -1.6 .2c-.5 0 -1 -.1 -1.6 -.2c-.5 -.1 -1 -.2 -1.5 -.4c-.4 -.2 -.9 -.5 -1.3 -.8c-.5 -.3 -.9 -.6 -1.3 -1c-.3 -.3 -.7 -.8 -1 -1.2c-.3 -.4 -.5 -.9 -.7 -1.4c-.2 -.5 -.4 -1 -.5 -1.5c-.1 -.5 -.1 -1 -.1 -1.5c0 -.6 0 -1.1 .1 -1.6c.1 -.5 .3 -1 .5 -1.5c.2 -.5 .4 -1 .7 -1.4c.3 -.4 .7 -.8 1 -1.2c.4 -.4 .8 -.7 1.3 -1c.4 -.3 .9 -.6 1.3 -.8c.5 -.2 1 -.3 1.5 -.4c.6 -.1 1.1 -.2 1.6 -.2c.5 0 1.1 .1 1.6 .2c.5 .1 1 .2 1.5 .4c.5 .2 .9 .5 1.4 .8c.4 .3 .8 .6 1.2 1c.4 .4 .7 .8 1 1.2c.3 .4 .5 .9 .7 1.4c.2 .5 .4 1 .5 1.5c.1 .5 .1 1 .1 1.6ZM312.3 516.4h88.3c.7 0 1.5 .1 2.2 .3c.7 .1 1.5 .3 2.1 .6c.7 .3 1.4 .7 2 1.1c.7 .4 1.2 .9 1.8 1.4c.5 .5 1 1.1 1.4 1.7c.4 .7 .8 1.3 1 2c.3 .7 .6 1.4 .7 2.2c.1 .7 .2 1.5 .2 2.2c0 .8 -.1 1.5 -.2 2.2c-.1 .8 -.4 1.5 -.7 2.2c-.2 .7 -.6 1.3 -1 2c-.4 .6 -.9 1.2 -1.4 1.7c-.6 .5 -1.1 1 -1.8 1.4c-.6 .5 -1.3 .8 -2 1.1c-.6 .3 -1.4 .5 -2.1 .6c-.7 .2 -1.5 .3 -2.2 .3H312.3c-.7 0 -1.5 -.1 -2.2 -.3c-.7 -.1 -1.5 -.3 -2.2 -.6c-.6 -.3 -1.3 -.6 -1.9 -1.1c-.7 -.4 -1.2 -.9 -1.8 -1.4c-.5 -.5 -1 -1.1 -1.4 -1.7c-.4 -.7 -.8 -1.3 -1.1 -2c-.2 -.7 -.5 -1.4 -.6 -2.2c-.2 -.7 -.2 -1.4 -.2 -2.2c0 -.7 0 -1.5 .2 -2.2c.1 -.8 .4 -1.5 .6 -2.2c.3 -.7 .7 -1.3 1.1 -2c.4 -.6 .9 -1.2 1.4 -1.7c.6 -.5 1.1 -1 1.8 -1.4c.6 -.4 1.3 -.8 1.9 -1.1c.7 -.3 1.5 -.5 2.2 -.6c.7 -.2 1.5 -.3 2.2 -.3Z" class="g1_195"/>
<path d="M300.9 493.5H412v22.9H300.9V493.5Z" class="g2_195"/>
<path d="M300.9 493.5H412v22.9H300.9V493.5Z" class="g1_195"/>
<path d="M272.2 693.5h3.5v1.1h-3.5v-1.1Zm6.9 0h3.4v1.1h-3.4v-1.1Zm6.9 0h3.4v1.1H286v-1.1Zm6.9 0h3.4v1.1h-3.4v-1.1Zm6.8 0h3.5v1.1h-3.5v-1.1Zm6.9 0H310v1.1h-3.4v-1.1Zm6.9 0h3.4v1.1h-3.4v-1.1Zm6.9 0h3.4v1.1h-3.4v-1.1Zm6.8 0h3.5v1.1h-3.5v-1.1Zm6.9 0h3.4v1.1h-3.4v-1.1Zm6.9 0h3.4v1.1H341v-1.1Zm6.9 0h3.4v1.1h-3.4v-1.1Zm6.8 0h3.5v1.1h-3.5v-1.1Zm6.9 0H365v1.1h-3.4v-1.1Zm6.9 0h3.4v1.1h-3.4v-1.1Zm6.9 -.2c1.2 -.2 2.2 -.4 3.1 -.8l.5 1c-1 .5 -2.2 .8 -3.4 .9l-.2 -1.1Zm5.7 -2.6c.7 -.8 1.3 -1.7 1.7 -2.7l1.1 .4c-.5 1.2 -1.1 2.2 -2 3.1l-.8 -.8Zm2.5 -5.8c.1 -.7 .1 -1.5 .1 -2.3v-1.2h1.2v1.2c0 .9 -.1 1.7 -.2 2.4l-1.1 -.1Zm.1 -7v-3.4h1.2v3.4h-1.2Zm0 -6.8v-3.5h1.2v3.5h-1.2Zm0 -6.9v-3.5h1.2v3.5h-1.2Zm0 -6.9v-3.4h1.2v3.4h-1.2Zm0 -6.9V647h1.2v3.4h-1.2Zm0 -6.8v-3.5h1.1v3.5h-1.1Zm0 -6.9v-3.5h1.1v3.5h-1.1Zm0 -6.9v-3.4h1.1v3.4h-1.1Zm0 -6.9v-3.4h1.1v3.4h-1.1Zm0 -6.8v-3.5h1.1v3.5h-1.1Zm0 -6.9v-3.5h1.1v3.5h-1.1Zm0 -6.9v-3.4h1.1v3.4h-1.1Zm0 -6.9V592h1.1v3.4h-1.1Zm0 -6.8v-3.5h1.1v3.5h-1.1Zm0 -6.9v-3.5h1.1v3.5h-1.1Zm0 -6.9v-3.4h1.1v3.4h-1.1Zm0 -6.9v-3.4h1.1v3.4h-1.1Zm0 -6.8v-3.5h1.1v3.5h-1.1Zm0 -6.9v-3.5h1.1v3.5h-1.1Zm0 -6.9v-3.4h1.1v3.4h-1.1Zm0 -6.9v-1h1.1v1h-1.1Z" class="g2_195"/>
<path d="M412 665.4H538.1v22.9H412V665.4Z" class="g2_195"/>
<path d="M412 665.4H538.1v22.9H412V665.4Z" class="g1_195"/>
<path d="M402.9 623l11.4 8.6l-11.4 8.6V623Z" class="g2_195"/>
<path d="M402.9 623l11.4 8.6l-11.4 8.6V623Z" class="g1_195"/>
<path d="M417.8 493.5h68.7v22.9H417.8V493.5Z" class="g2_195"/>
<path d="M417.8 493.5h68.7v22.9H417.8V493.5Zm37.8 34.4c0 .8 -.1 1.5 -.3 2.2c-.1 .8 -.3 1.5 -.6 2.2c-.3 .7 -.6 1.3 -1.1 2c-.4 .6 -.9 1.2 -1.4 1.7c-.5 .5 -1.1 1 -1.7 1.4c-.7 .5 -1.3 .8 -2 1.1c-.7 .3 -1.4 .5 -2.2 .6c-.7 .2 -1.4 .3 -2.2 .3c-.7 0 -1.5 -.1 -2.2 -.3c-.8 -.1 -1.5 -.3 -2.2 -.6c-.7 -.3 -1.3 -.6 -2 -1.1c-.6 -.4 -1.2 -.9 -1.7 -1.4c-.5 -.5 -1 -1.1 -1.4 -1.7c-.4 -.7 -.8 -1.3 -1.1 -2c-.3 -.7 -.5 -1.4 -.6 -2.2c-.2 -.7 -.3 -1.4 -.3 -2.2c0 -.7 .1 -1.5 .3 -2.2c.1 -.8 .3 -1.5 .6 -2.2c.3 -.7 .7 -1.3 1.1 -2c.4 -.6 .9 -1.2 1.4 -1.7c.5 -.5 1.1 -1 1.7 -1.4c.7 -.4 1.3 -.8 2 -1.1c.7 -.3 1.4 -.5 2.2 -.6c.7 -.2 1.5 -.3 2.2 -.3c.8 0 1.5 .1 2.2 .3c.8 .1 1.5 .3 2.2 .6c.7 .3 1.3 .7 2 1.1c.6 .4 1.2 .9 1.7 1.4c.5 .5 1 1.1 1.4 1.7c.5 .7 .8 1.3 1.1 2c.3 .7 .5 1.4 .6 2.2c.2 .7 .3 1.5 .3 2.2Z" class="g1_195"/>
<path d="M443 585.2v-3.4h1.1v3.4M443 578.3l.1 -3.4h1.1v3.4m-1.1 -6.9l.1 -3.4h1.1v3.5m-1.1 -6.9l.1 -3.5h1.1v3.5m-1.1 -6.9v-3.4h1.2l-.1 3.4m-1 -6.9v-3.4h1.2l-.1 3.4m-1 -6.9v-3.4h1.2l-.1 3.5Z" class="g2_195"/>
<path d="M492.2 493.5H620.6v22.9H492.2V493.5Z" class="g2_195"/>
<path d="M492.2 493.5H620.6v22.9H492.2V493.5Zm11.5 22.9H609.1c.8 0 1.5 .1 2.2 .3c.8 .1 1.5 .3 2.2 .6c.7 .3 1.3 .7 2 1.1c.6 .4 1.2 .9 1.7 1.4c.5 .5 1 1.1 1.4 1.7c.5 .7 .8 1.3 1.1 2c.3 .7 .5 1.4 .6 2.2c.2 .7 .3 1.5 .3 2.2c0 .8 -.1 1.5 -.3 2.2c-.1 .8 -.3 1.5 -.6 2.2c-.3 .7 -.6 1.3 -1.1 2c-.4 .6 -.9 1.2 -1.4 1.7c-.5 .5 -1.1 1 -1.7 1.4c-.7 .5 -1.3 .8 -2 1.1c-.7 .3 -1.4 .5 -2.2 .6c-.7 .2 -1.4 .3 -2.2 .3H503.7c-.8 0 -1.5 -.1 -2.2 -.3c-.8 -.1 -1.5 -.3 -2.2 -.6c-.7 -.3 -1.4 -.6 -2 -1.1c-.6 -.4 -1.2 -.9 -1.7 -1.4c-.5 -.5 -1 -1.1 -1.4 -1.7c-.5 -.7 -.8 -1.3 -1.1 -2c-.3 -.7 -.5 -1.4 -.6 -2.2c-.2 -.7 -.3 -1.4 -.3 -2.2c0 -.7 .1 -1.5 .3 -2.2c.1 -.8 .3 -1.5 .6 -2.2c.3 -.7 .6 -1.3 1.1 -2c.4 -.6 .9 -1.2 1.4 -1.7c.5 -.5 1.1 -1 1.7 -1.4c.6 -.4 1.3 -.8 2 -1.1c.7 -.3 1.4 -.5 2.2 -.6c.7 -.2 1.4 -.3 2.2 -.3Z" class="g1_195"/>
<path d="M534.1 631h3.4v1.2h-3.4V631Zm6.8 0h3.5v1.2h-3.5V631Zm6.9 0h3.4v1.2h-3.4V631Zm6.9 0h3.4v1.2h-3.4V631Zm6.9 0H565v1.2h-3.4V631Zm6.8 0h3.5v1.2h-3.5V631Zm6.9 0H577c.7 0 1.3 0 1.8 0l.1 1.1c-.6 0 -1.2 .1 -1.9 .1h-1.7V631Zm6.6 -.7c1.1 -.4 2.1 -.9 2.9 -1.6l.7 .9c-.9 .8 -1.9 1.4 -3.2 1.8l-.4 -1.1Zm4.8 -4.1c.4 -.8 .8 -1.9 1 -3l1.1 .2c-.2 1.3 -.6 2.4 -1.1 3.4l-1 -.6Zm1.2 -6.5v-3.4h1.2v3.4h-1.2Zm0 -6.9v-3.4h1.2v3.4h-1.2Zm0 -6.8v-3.5h1.2V606h-1.2Zm0 -6.9v-3.4h1.2v3.4h-1.2Zm0 -6.9v-3.4h1.2v3.4h-1.2Zm0 -6.9v-3.4h1.2v3.4h-1.2Zm0 -6.8V575h1.2v3.5h-1.2Zm0 -6.9v-3.4h1.2v3.4h-1.2Zm0 -6.9v-3.4h1.2v3.4h-1.2Zm0 -6.9v-3.4h1.2v3.4h-1.2Zm0 -6.8v-3.5h1.2V551h-1.2Zm0 -6.9v-3.4h1.2v3.4h-1.2Z" class="g2_195"/>
<path d="M426.9 622.4h1.2v1.2h-1.2v-1.2Zm3.5 0h1.1v1.2h-1.1v-1.2Zm3.4 0h1.1v1.2h-1.1v-1.2Zm3.4 0h1.2v1.2h-1.2v-1.2Zm3.5 0h1.1v1.2h-1.1v-1.2Zm3.4 0h1.2v1.2h-1.2v-1.2Zm3.4 0h1.2v1.2h-1.2v-1.2Zm3.5 0h1.1v1.2H451v-1.2Zm3.4 0h1.2v1.2h-1.2v-1.2Zm3.5 0H459v1.2h-1.1v-1.2Zm3.4 0h1.1v1.2h-1.1v-1.2Zm3.4 0h1.2v1.2h-1.2v-1.2Zm3.5 0h1.1v1.2h-1.1v-1.2Zm3.4 0h1.2v1.2h-1.2v-1.2Zm3.4 0h1.2v1.2H475v-1.2Zm3.5 0h1.1v1.2h-1.1v-1.2Zm3.4 0h1.2v1.2h-1.2v-1.2Zm3.5 0h1.1v1.2h-1.1v-1.2Zm3.4 0h1.1v1.2h-1.1v-1.2Zm3.4 0h1.2v1.2h-1.2v-1.2Zm3.5 0h1.1v1.2h-1.1v-1.2Zm3.4 0h1.2v1.2h-1.2v-1.2Zm3.4 0h1.2v1.2h-1.2v-1.2Zm3.5 0h1.1v1.2H506v-1.2Zm3.4 0h1.2v1.2h-1.2v-1.2Zm3.5 0H514v1.2h-1.1v-1.2Zm3.4 0h1.1v1.2h-1.1v-1.2Zm3.4 0h1.2v1.2h-1.2v-1.2Zm3.5 0h1.1v1.2h-1.1v-1.2Zm3.4 .1c.4 .1 .9 .1 1.3 .3l-.3 1.1c-.4 -.1 -.8 -.2 -1.1 -.2l.1 -1.2Zm3.5 1.2c.4 .2 .7 .5 1 .7l-.7 .9c-.2 -.2 -.5 -.4 -.9 -.6l.6 -1Zm2.8 2.5c.2 .3 .4 .7 .6 1l-1 .6c-.2 -.3 -.3 -.6 -.6 -.9l1 -.7Zm1.5 3.4c.1 .4 .2 .8 .2 1.2l-1.2 .1c0 -.4 0 -.7 -.1 -1.1l1.1 -.2Zm.1 3.5c-.1 .5 -.2 .9 -.3 1.3l-1.1 -.4c.1 -.3 .2 -.7 .3 -1.1l1.1 .2Zm-1.3 3.5c-.3 .3 -.5 .7 -.8 1l-.9 -.8c.3 -.2 .5 -.5 .7 -.8l1 .6Zm-2.6 2.6c-.4 .3 -.7 .5 -1.1 .6l-.5 -1c.3 -.2 .6 -.3 .9 -.5l.7 .9Zm-3.5 1.4c-.4 .1 -.8 .1 -1.2 .2v-1.2c.3 0 .7 0 1 -.1l.2 1.1Zm-3.5 .2h-1.1v-1.2h1.1v1.2Zm-3.4 0h-1.1v-1.2h1.1v1.2Zm-3.4 0h-1.2v-1.2h1.2v1.2Zm-3.5 0h-1.1v-1.2h1.1v1.2Zm-3.4 0h-1.2v-1.2h1.2v1.2Zm-3.5 0h-1.1v-1.2h1.1v1.2Zm-3.4 0h-1.1v-1.2H503v1.2Zm-3.4 0h-1.2v-1.2h1.2v1.2Zm-3.5 0H495v-1.2h1.1v1.2Zm-3.4 0h-1.1v-1.2h1.1v1.2Zm-3.4 0h-1.2v-1.2h1.2v1.2Zm-3.5 0h-1.1v-1.2h1.1v1.2Zm-3.4 0h-1.2v-1.2h1.2v1.2Zm-3.5 0h-1.1v-1.2h1.1v1.2Zm-3.4 0h-1.1v-1.2h1.1v1.2Zm-3.4 0h-1.2v-1.2h1.2v1.2Zm-3.5 0h-1.1v-1.2h1.1v1.2Zm-3.4 0h-1.1v-1.2h1.1v1.2Zm-3.4 0h-1.2v-1.2h1.2v1.2Zm-3.5 0h-1.1v-1.2h1.1v1.2Zm-3.4 0h-1.2v-1.2h1.2v1.2Zm-3.5 0h-1.1v-1.2h1.1v1.2Zm-3.4 0h-1.1v-1.2H448v1.2Zm-3.4 0h-1.2v-1.2h1.2v1.2Zm-3.5 0H440v-1.2h1.1v1.2Zm-3.4 0h-1.1v-1.2h1.1v1.2Zm-3.4 0h-1.2v-1.2h1.2v1.2Zm-3.5 0h-1.1v-1.2h1.1v1.2Zm-3.4 0h-1.2v-1.2h1.2v1.2Zm-3.5 0h-.4c-.3 0 -.5 0 -.7 -.1l.1 -1.1c.2 0 .4 0 .6 0h.4v1.2Zm-3.5 -.6c-.4 -.1 -.8 -.3 -1.2 -.5l.6 -1c.3 .2 .6 .3 1 .5l-.4 1Zm-3.2 -1.9c-.3 -.3 -.6 -.6 -.8 -.9l.9 -.7c.2 .3 .4 .5 .7 .8l-.8 .8Zm-2.1 -3c-.2 -.4 -.3 -.8 -.4 -1.2l1.1 -.3c.1 .4 .2 .7 .3 1.1l-1 .4Zm-.8 -3.6c0 0 0 -.1 0 -.1c0 -.3 0 -.7 .1 -1l1.1 .1c0 .3 0 .6 0 .9c0 0 0 .1 0 .1h-1.2Zm.7 -3.6c.1 -.3 .3 -.7 .5 -1l1 .5c-.2 .3 -.3 .7 -.4 1l-1.1 -.5Zm2 -3c.3 -.3 .6 -.6 1 -.8l.7 .9c-.3 .2 -.6 .5 -.9 .7l-.8 -.8Zm3.1 -2c.4 -.2 .8 -.3 1.2 -.4l.3 1.1c-.4 .1 -.7 .2 -1.1 .4l-.4 -1.1Zm3.4 -.7h1.1v1.2h-1.1v-1.2Z" class="g2_195"/>
</g>
</svg>