<?xml version="1.0" encoding="UTF-8" standalone="no"?>
<!DOCTYPE svg PUBLIC "-//W3C//DTD SVG 1.1//EN"
"http://www.w3.org/Graphics/SVG/1.1/DTD/svg11.dtd">
<svg viewBox="0 0 714 1017" version="1.1" xmlns="http://www.w3.org/2000/svg" xmlns:xlink="http://www.w3.org/1999/xlink">
<defs>
<clipPath id="c0_260"><path d="M86.6 412.3V171.7H654.9V412.3Z"/></clipPath>
<clipPath id="c1_260"><path d="M86.6 412.9V171.5H654.9V412.9Z"/></clipPath>
<style type="text/css"><![CDATA[
.g0_260{
fill: #FFF;
}
.g1_260{
fill: none;
stroke: #000;
stroke-width: 1.145;
stroke-miterlimit: 10;
}
.g2_260{
fill: #CCC;
}
.g3_260{
fill: #000;
}
]]></style>
</defs>
<path d="M0 1017.7H717.2V-3.7H0V1017.7Z" class="g0_260"/>
<g clip-path="url(#c1_260)">
<path clip-path="url(#c0_260)" d="M86.6 171.7H654.9V412.3H86.6V171.7Z" class="g0_260"/>
<path d="M121.6 206.6h22.9v22.9H121.6V206.6Zm22.9 0h22.9v22.9H144.5V206.6Zm22.9 0h22.9v22.9H167.4V206.6Zm22.9 0h22.9v22.9H190.3V206.6Zm22.9 0h22.9v22.9H213.2V206.6Zm22.9 0h23v22.9h-23V206.6Zm23 0H282v22.9H259.1V206.6Zm22.9 0h22.9v22.9H282V206.6Zm22.9 0h22.9v22.9H304.9V206.6Zm22.9 0h22.9v22.9H327.8V206.6Zm22.9 0h22.9v22.9H350.7V206.6Zm22.9 0h23v22.9h-23V206.6Zm23 0h22.9v22.9H396.6V206.6Zm22.9 0h22.9v22.9H419.5V206.6Zm22.9 0h22.9v22.9H442.4V206.6Zm22.9 0h22.9v22.9H465.3V206.6ZM121.6 229.5h22.9v22.9H121.6V229.5Zm22.9 0h22.9v22.9H144.5V229.5Zm22.9 0h22.9v22.9H167.4V229.5Zm22.9 0h22.9v22.9H190.3V229.5Zm22.9 0h22.9v22.9H213.2V229.5Zm22.9 0h23v22.9h-23V229.5Zm23 0H282v22.9H259.1V229.5Zm22.9 0h22.9v22.9H282V229.5Zm22.9 0h22.9v22.9H304.9V229.5Zm22.9 0h22.9v22.9H327.8V229.5Zm22.9 0h22.9v22.9H350.7V229.5Zm22.9 0h23v22.9h-23V229.5Zm23 0h22.9v22.9H396.6V229.5Zm22.9 0h22.9v22.9H419.5V229.5Zm22.9 0h22.9v22.9H442.4V229.5Zm22.9 0h22.9v22.9H465.3V229.5ZM121.6 252.4h22.9v23H121.6v-23Zm22.9 0h22.9v23H144.5v-23Zm22.9 0h22.9v23H167.4v-23Zm22.9 0h22.9v23H190.3v-23Zm22.9 0h22.9v23H213.2v-23Zm22.9 0h23v23h-23v-23Zm23 0H282v23H259.1v-23Zm22.9 0h22.9v23H282v-23Zm22.9 0h22.9v23H304.9v-23Zm22.9 0h22.9v23H327.8v-23Zm22.9 0h22.9v23H350.7v-23Zm22.9 0h23v23h-23v-23Zm23 0h22.9v23H396.6v-23Zm22.9 0h22.9v23H419.5v-23Zm22.9 0h22.9v23H442.4v-23Zm22.9 0h22.9v23H465.3v-23Zm-343.7 23h22.9v22.9H121.6V275.4Zm22.9 0h22.9v22.9H144.5V275.4Zm22.9 0h22.9v22.9H167.4V275.4Zm22.9 0h22.9v22.9H190.3V275.4Zm22.9 0h22.9v22.9H213.2V275.4Zm22.9 0h23v22.9h-23V275.4Zm23 0H282v22.9H259.1V275.4Zm22.9 0h22.9v22.9H282V275.4Zm22.9 0h22.9v22.9H304.9V275.4Zm22.9 0h22.9v22.9H327.8V275.4Zm22.9 0h22.9v22.9H350.7V275.4Zm22.9 0h23v22.9h-23V275.4Zm23 0h22.9v22.9H396.6V275.4Zm22.9 0h22.9v22.9H419.5V275.4Zm22.9 0h22.9v22.9H442.4V275.4Zm22.9 0h22.9v22.9H465.3V275.4Z" class="g1_260"/>
<path d="M579.9 206.6h34.4v22.9H579.9V206.6Z" class="g2_260"/>
<path d="M579.9 229.5h34.4v22.9H579.9V229.5Z" class="g2_260"/>
<path d="M579.9 252.4h34.4v23H579.9v-23Z" class="g2_260"/>
<path d="M579.9 275.4h34.4v22.9H579.9V275.4Z" class="g2_260"/>
<path d="M557 206.6h22.9v22.9H557V206.6Zm0 22.9h22.9v22.9H557V229.5Zm0 22.9h22.9v23H557v-23Zm0 23h22.9v22.9H557V275.4Z" class="g1_260"/>
<path d="M202.3 290.3v3.4h-1.1v-3.4h1.1Zm0 6.8V300c0 .2 0 .4 .1 .6l-1.2 .1c0 -.3 0 -.5 0 -.7v-2.9h1.1Zm.6 6.7c.4 1.1 1 2 1.7 2.7l-.8 .8c-.9 -.9 -1.5 -1.9 -2 -3.1l1.1 -.4Zm4.3 4.4c.9 .4 2 .6 3.2 .8l-.2 1.1c-1.3 -.2 -2.4 -.4 -3.4 -.9l.4 -1Zm6.7 1h3.4v1.1h-3.4v-1.1Zm6.8 0h3.5v1.1h-3.5v-1.1Zm6.9 0h3.5v1.1h-3.5v-1.1Zm6.9 0h3.4v1.1h-3.4v-1.1Zm6.9 0h3.4v1.1h-3.4v-1.1Zm6.8 0h3.5v1.1h-3.5v-1.1Zm6.9 0h3.5v1.1h-3.5v-1.1Zm6.9 0h3.4v1.1H262v-1.1Zm6.9 0h3.4v1.1h-3.4v-1.1Zm6.8 0h3.5v1.1h-3.5v-1.1Zm6.9 0h3.5v1.1h-3.5v-1.1Zm6.9 0h3.4v1.1h-3.4v-1.1Zm6.9 0h3.4v1.1h-3.4v-1.1Zm6.8 0h3.5v1.1h-3.5v-1.1Zm6.9 0h3.5v1.1h-3.5v-1.1Zm6.9 0h3.4v1.1H317v-1.1Zm6.9 0h3.4v1.1h-3.4v-1.1Zm6.8 0h3.5v1.1h-3.5v-1.1Zm6.9 0h3.5v1.1h-3.5v-1.1Zm6.9 0h3.4v1.1h-3.4v-1.1Zm6.9 0h3.4v1.1h-3.4v-1.1Zm6.8 0h3.5v1.1h-3.5v-1.1Zm6.9 0h3.5v1.1h-3.5v-1.1Zm6.9 0h3.4v1.1H372v-1.1Zm6.9 0h3.4v1.1h-3.4v-1.1Zm6.8 0h3.5v1.1h-3.5v-1.1Zm6.9 0h3.5v1.1h-3.5v-1.1Zm6.9 0h3.4v1.1h-3.4v-1.1Zm6.9 0h3.4v1.1h-3.4v-1.1Zm6.8 0h3.5v1.1h-3.5v-1.1Zm6.9 0h3.5v1.1h-3.5v-1.1Zm6.9 0h3.4v1.1H427v-1.1Zm6.9 0h3.4v1.1h-3.4v-1.1Zm6.8 0h3.5v1.1h-3.5v-1.1Zm6.9 0h3.5v1.1h-3.5v-1.1Zm6.9 0h3.4v1.1h-3.4v-1.1Zm6.9 0h3.4v1.1h-3.4v-1.1Zm6.8 0h3.5v1.1h-3.5v-1.1Zm6.9 0h3.5v1.1h-3.5v-1.1Zm6.9 0h3.4v1.1H482v-1.1Zm6.9 0c1.2 -.1 2.3 -.2 3.3 -.5l.3 1.1c-1.1 .3 -2.2 .5 -3.5 .5l-.1 -1.1Zm6.3 -1.7c.9 -.6 1.6 -1.4 2.2 -2.2l1 .6c-.7 1 -1.6 1.8 -2.6 2.5l-.6 -.9Zm3.5 -5.2c.2 -1 .4 -2.1 .4 -3.3h1.1c0 1.3 -.2 2.5 -.4 3.6l-1.1 -.3Zm.4 -6.8V292h1.2v3.5h-1.2Zm0 -6.9v-3.4h1.2v3.4h-1.2Zm0 -6.9v-3.4h1.2v3.4h-1.2Zm0 -6.8v-3.5h1.2v3.5h-1.2Zm0 -6.9v-3.5h1.2V268h-1.2Zm0 -6.9v-3.4h1.2v3.4h-1.2Zm0 -6.9v-3.4h1.2v3.4h-1.2Zm0 -6.8v-3.5h1.2v3.5h-1.2Zm0 -6.9V237h1.2v3.5h-1.2Zm0 -6.9v-3.4h1.2v3.4h-1.2Zm.2 -7.1c.2 -1.3 .6 -2.4 1 -3.4l1.1 .5c-.4 .9 -.7 1.9 -.9 3.1l-1.2 -.2Zm3.2 -6.3c.8 -.8 1.9 -1.4 3.1 -1.8l.4 1c-1.1 .4 -2 1 -2.8 1.7l-.7 -.9Zm6.5 -2.6c.7 -.1 1.4 -.1 2.1 -.1h1.5v1.1h-1.5c-.7 0 -1.3 .1 -2 .1l-.1 -1.1Zm7.1 -.1h3.4v1.1h-3.4v-1.1Zm6.9 0h3.4v1.1H523v-1.1Zm6.8 0h3.5v1.1h-3.5v-1.1Zm6.9 0h3.4v1.1h-3.4v-1.1Zm6.9 0H547v1.1h-3.4v-1.1Z" class="g3_260"/>
<path d="M205.2 286.8c0 .5 -.1 .9 -.3 1.3c-.1 .5 -.4 .8 -.7 1.1c-.3 .4 -.7 .6 -1.1 .8c-.4 .2 -.9 .3 -1.3 .3c-.5 0 -.9 -.1 -1.3 -.3c-.5 -.2 -.8 -.4 -1.2 -.8c-.3 -.3 -.5 -.6 -.7 -1.1c-.2 -.4 -.3 -.8 -.3 -1.3c0 -.4 .1 -.9 .3 -1.3c.2 -.4 .4 -.8 .7 -1.1c.4 -.3 .7 -.6 1.2 -.8c.4 -.1 .8 -.2 1.3 -.2c.4 0 .9 .1 1.3 .2c.4 .2 .8 .5 1.1 .8c.3 .3 .6 .7 .7 1.1c.2 .4 .3 .9 .3 1.3Z" class="g3_260"/>
<path d="M205.2 286.8c0 .5 -.1 .9 -.3 1.3c-.1 .5 -.4 .8 -.7 1.1c-.3 .4 -.7 .6 -1.1 .8c-.4 .2 -.9 .3 -1.3 .3c-.5 0 -.9 -.1 -1.3 -.3c-.5 -.2 -.8 -.4 -1.2 -.8c-.3 -.3 -.5 -.6 -.7 -1.1c-.2 -.4 -.3 -.8 -.3 -1.3c0 -.4 .1 -.9 .3 -1.3c.2 -.4 .4 -.8 .7 -1.1c.4 -.3 .7 -.6 1.2 -.8c.4 -.1 .8 -.2 1.3 -.2c.4 0 .9 .1 1.3 .2c.4 .2 .8 .5 1.1 .8c.3 .3 .6 .7 .7 1.1c.2 .4 .3 .9 .3 1.3Z" class="g1_260"/>
<path d="M555.7 218.1l-8 2.6l2 -2.6l-2 -2.7l8 2.7Z" class="g3_260"/>
<path d="M555.7 218.1l-8 2.6l2 -2.6l-2 -2.7l8 2.7Z" class="g1_260"/>
<path d="M362.8 244.4v3.5h-1.2v-3.5h1.2Zm0 6.9v3.4h-1.2v-3.4h1.2Zm0 6.9v3.4h-1.2v-3.4h1.2Zm0 6.8v3.5h-1.2V265h1.2Zm0 6.9v3.5h-1.2v-3.5h1.2Zm0 6.9v3.4h-1.2v-3.4h1.2Zm0 6.9v3.4h-1.2v-3.4h1.2Zm0 6.8V296h-1.2v-3.5h1.2Zm0 6.9v3.5h-1.2v-3.5h1.2Zm0 6.9v3.4h-1.2v-3.4h1.2Zm.3 6.9c.2 1.1 .6 2.1 1.1 3l-1 .6c-.6 -1 -1 -2.1 -1.2 -3.4l1.1 -.2Zm3.1 5.4c.8 .6 1.8 1.1 2.9 1.4l-.3 1.1c-1.3 -.4 -2.4 -.9 -3.3 -1.6l.7 -.9Zm6.1 2c.4 0 .9 0 1.3 0h2.2v1.2h-2.2c-.5 0 -.9 0 -1.4 -.1l.1 -1.1Zm6.9 0h3.5v1.2h-3.5v-1.2Zm6.9 0h3.4v1.2h-3.4v-1.2Zm6.9 0h3.4v1.2H393v-1.2Zm6.9 0h3.4v1.2h-3.4v-1.2Zm6.8 0h3.5v1.2h-3.5v-1.2Zm6.9 0H417v1.2h-3.4v-1.2Zm6.9 0h3.4v1.2h-3.4v-1.2Zm6.9 0h3.4v1.2h-3.4v-1.2Zm6.8 0h3.5v1.2h-3.5v-1.2Zm6.9 0h3.4v1.2h-3.4v-1.2Zm6.9 0h3.4v1.2H448v-1.2Zm6.9 0h3.4v1.2h-3.4v-1.2Zm6.8 0h3.5v1.2h-3.5v-1.2Zm6.9 0H472v1.2h-3.4v-1.2Zm6.9 0h3.4v1.2h-3.4v-1.2Zm6.9 0h3.4v1.2h-3.4v-1.2Zm6.8 0h3.5v1.2h-3.5v-1.2Zm6.9 0h3.4v1.2h-3.4v-1.2Zm6.9 -.3c1.1 -.2 2.1 -.5 3 -1l.6 1c-1 .5 -2.1 .9 -3.4 1.2l-.2 -1.2Zm5.4 -3c.7 -.8 1.2 -1.8 1.5 -2.9l1.1 .4c-.4 1.2 -.9 2.3 -1.7 3.2l-.9 -.7Zm2.1 -6c.1 -.5 .1 -1 .1 -1.6v-2h1.1v2c0 .6 0 1.1 0 1.6h-1.2Zm.1 -7v-3.4h1.1v3.4h-1.1Zm0 -6.9V294h1.1v3.4h-1.1Zm0 -6.9v-3.4h1.1v3.4h-1.1Zm0 -6.8v-3.5h1.1v3.5h-1.1Zm0 -6.9v-3.4h1.1v3.4h-1.1Zm0 -6.9v-3.4h1.1v3.4h-1.1Zm0 -6.9v-3.4h1.1V263h-1.1Zm0 -6.8v-3.5h1.1v3.5h-1.1Zm.3 -7.1c.2 -1.3 .6 -2.4 1.1 -3.4l1 .5c-.5 .9 -.8 1.9 -1 3.1l-1.1 -.2Zm3.3 -6.2c.9 -.8 2 -1.3 3.2 -1.8l.4 1.1c-1.1 .4 -2.1 .9 -2.9 1.6l-.7 -.9Zm6.6 -2.4c.6 -.1 1.2 -.1 1.8 -.1h1.9v1.2h-1.9c-.6 0 -1.1 0 -1.7 0l-.1 -1.1Zm7.1 -.1h3.4v1.2h-3.4v-1.2Zm6.9 0h3.4v1.2h-3.4v-1.2Zm6.8 0h3.5v1.2h-3.5v-1.2Zm6.9 0h1.2v1.2h-1.2v-1.2Z" class="g3_260"/>
<path d="M365.6 241c0 .4 -.1 .9 -.2 1.3c-.2 .4 -.5 .8 -.8 1.1c-.3 .3 -.7 .6 -1.1 .8c-.4 .1 -.9 .2 -1.3 .2c-.5 0 -.9 -.1 -1.3 -.2c-.4 -.2 -.8 -.5 -1.1 -.8c-.4 -.3 -.6 -.7 -.8 -1.1c-.2 -.4 -.3 -.9 -.3 -1.3c0 -.5 .1 -.9 .3 -1.3c.2 -.5 .4 -.8 .8 -1.1c.3 -.4 .7 -.6 1.1 -.8c.4 -.2 .8 -.3 1.3 -.3c.4 0 .9 .1 1.3 .3c.4 .2 .8 .4 1.1 .8c.3 .3 .6 .6 .8 1.1c.1 .4 .2 .8 .2 1.3Z" class="g3_260"/>
<path d="M365.6 241c0 .4 -.1 .9 -.2 1.3c-.2 .4 -.5 .8 -.8 1.1c-.3 .3 -.7 .6 -1.1 .8c-.4 .1 -.9 .2 -1.3 .2c-.5 0 -.9 -.1 -1.3 -.2c-.4 -.2 -.8 -.5 -1.1 -.8c-.4 -.3 -.6 -.7 -.8 -1.1c-.2 -.4 -.3 -.9 -.3 -1.3c0 -.5 .1 -.9 .3 -1.3c.2 -.5 .4 -.8 .8 -1.1c.3 -.4 .7 -.6 1.1 -.8c.4 -.2 .8 -.3 1.3 -.3c.4 0 .9 .1 1.3 .3c.4 .2 .8 .4 1.1 .8c.3 .3 .6 .6 .8 1.1c.1 .4 .2 .8 .2 1.3Z" class="g1_260"/>
<path d="M555.7 241l-8 2.7l2 -2.7l-2 -2.7l8 2.7Z" class="g3_260"/>
<path d="M555.7 241l-8 2.7l2 -2.7l-2 -2.7l8 2.7Z" class="g1_260"/>
<path d="M156.5 244.4v3.5h-1.1v-3.5h1.1Zm0 6.9v3.4h-1.1v-3.4h1.1Zm0 6.9v3.4h-1.1v-3.4h1.1Zm0 6.8v3.5h-1.1V265h1.1Zm0 6.9v3.5h-1.1v-3.5h1.1Zm0 6.9v3.4h-1.1v-3.4h1.1Zm0 6.9v3.4h-1.1v-3.4h1.1Zm0 6.8V296h-1.1v-3.5h1.1Zm0 6.9v3.5h-1.1v-3.5h1.1Zm0 6.9v3.4h-1.1v-3.4h1.1Zm0 6.9v3.4h-1.1v-3.4h1.1Zm0 6.8v1.2c0 .8 .1 1.6 .2 2.4l-1.2 .1c-.1 -.8 -.1 -1.6 -.1 -2.5V320h1.1Zm.9 6.7c.5 1 1 1.9 1.8 2.6l-.9 .8c-.8 -.8 -1.4 -1.8 -1.9 -3l1 -.4Zm4.4 4.4c.9 .4 1.9 .7 3.1 .8l-.2 1.2c-1.2 -.2 -2.3 -.5 -3.3 -.9l.4 -1.1Zm6.6 1h3.4v1.1h-3.4v-1.1Zm6.9 0h3.4v1.1h-3.4v-1.1Zm6.8 0h3.5v1.1h-3.5v-1.1Zm6.9 0h3.5v1.1H189v-1.1Zm6.9 0h3.4v1.1h-3.4v-1.1Zm6.9 0h3.4v1.1h-3.4v-1.1Zm6.8 0h3.5v1.1h-3.5v-1.1Zm6.9 0H220v1.1h-3.5v-1.1Zm6.9 0h3.4v1.1h-3.4v-1.1Zm6.9 0h3.4v1.1h-3.4v-1.1Zm6.8 0h3.5v1.1h-3.5v-1.1Zm6.9 0h3.5v1.1H244v-1.1Zm6.9 0h3.4v1.1h-3.4v-1.1Zm6.9 0h3.4v1.1h-3.4v-1.1Zm6.8 0h3.5v1.1h-3.5v-1.1Zm6.9 0H275v1.1h-3.5v-1.1Zm6.9 0h3.4v1.1h-3.4v-1.1Zm6.9 0h3.4v1.1h-3.4v-1.1Zm6.8 0h3.5v1.1h-3.5v-1.1Zm6.9 0h3.5v1.1H299v-1.1Zm6.9 0h3.4v1.1h-3.4v-1.1Zm6.9 0h3.4v1.1h-3.4v-1.1Zm6.8 0h3.5v1.1h-3.5v-1.1Zm6.9 0H330v1.1h-3.5v-1.1Zm6.9 0h3.4v1.1h-3.4v-1.1Zm6.9 0h3.4v1.1h-3.4v-1.1Zm6.8 0h3.5v1.1h-3.5v-1.1Zm6.9 0h3.5v1.1H354v-1.1Zm6.9 0h3.4v1.1h-3.4v-1.1Zm6.9 0h3.4v1.1h-3.4v-1.1Zm6.8 0h3.5v1.1h-3.5v-1.1Zm6.9 0H385v1.1h-3.5v-1.1Zm6.9 0h3.4v1.1h-3.4v-1.1Zm6.9 0h3.4v1.1h-3.4v-1.1Zm6.8 0h3.5v1.1h-3.5v-1.1Zm6.9 0h3.5v1.1H409v-1.1Zm6.9 0h3.4v1.1h-3.4v-1.1Zm6.9 0h3.4v1.1h-3.4v-1.1Zm6.8 0h3.5v1.1h-3.5v-1.1Zm6.9 0H440v1.1h-3.5v-1.1Zm6.9 0h3.4v1.1h-3.4v-1.1Zm6.9 0h3.4v1.1h-3.4v-1.1Zm6.8 0h3.5v1.1h-3.5v-1.1Zm6.9 0h3.5v1.1H464v-1.1Zm6.9 0h3.4v1.1h-3.4v-1.1Zm6.9 0h3.4v1.1h-3.4v-1.1Zm6.8 0h3.5v1.1h-3.5v-1.1Zm6.9 0H495v1.1h-3.5v-1.1Zm6.9 0h3.4v1.1h-3.4v-1.1Zm6.9 0h3.4v1.1h-3.4v-1.1Zm6.9 0c1.2 -.1 2.3 -.3 3.3 -.5l.3 1.1c-1.1 .2 -2.2 .4 -3.5 .5l-.1 -1.1Zm6.2 -1.9c.8 -.6 1.5 -1.4 2.1 -2.3l1 .6c-.7 1 -1.5 1.9 -2.4 2.6l-.7 -.9Zm3.3 -5.3c.2 -1 .3 -2.1 .3 -3.4h1.2c0 1.3 -.2 2.6 -.4 3.7l-1.1 -.3ZM522 318v-3.4h1.2V318H522Zm0 -6.8v-3.5h1.2v3.5H522Zm0 -6.9v-3.4h1.2v3.4H522Zm0 -6.9V294h1.2v3.4H522Zm0 -6.9v-3.4h1.2v3.4H522Zm0 -6.8v-3.5h1.2v3.5H522Zm0 -6.9v-1.4c0 -.8 .1 -1.6 .1 -2.3l1.2 .2c-.1 .6 -.1 1.3 -.1 2.1v1.4H522Zm.9 -7c.5 -1.2 1.1 -2.3 1.9 -3.2l.8 .8c-.7 .8 -1.2 1.7 -1.6 2.8l-1.1 -.4Zm4.8 -5.3c1 -.4 2.1 -.8 3.4 -1l.2 1.2c-1.2 .2 -2.2 .5 -3.1 .9l-.5 -1.1Zm7.1 -1.2h3.4v1.2h-3.4v-1.2Zm6.8 0h3.5v1.2h-3.5v-1.2Zm6.9 0h1.2v1.2h-1.2v-1.2Z" class="g3_260"/>
<path d="M159.4 241c0 .4 -.1 .9 -.3 1.3c-.2 .4 -.4 .8 -.7 1.1c-.4 .3 -.7 .6 -1.1 .8c-.5 .1 -.9 .2 -1.4 .2c-.4 0 -.9 -.1 -1.3 -.2c-.4 -.2 -.8 -.5 -1.1 -.8c-.3 -.3 -.6 -.7 -.7 -1.1c-.2 -.4 -.3 -.9 -.3 -1.3c0 -.5 .1 -.9 .3 -1.3c.1 -.5 .4 -.8 .7 -1.1c.3 -.4 .7 -.6 1.1 -.8c.4 -.2 .9 -.3 1.3 -.3c.5 0 .9 .1 1.4 .3c.4 .2 .7 .4 1.1 .8c.3 .3 .5 .6 .7 1.1c.2 .4 .3 .8 .3 1.3Z" class="g3_260"/>
<path d="M159.4 241c0 .4 -.1 .9 -.3 1.3c-.2 .4 -.4 .8 -.7 1.1c-.4 .3 -.7 .6 -1.1 .8c-.5 .1 -.9 .2 -1.4 .2c-.4 0 -.9 -.1 -1.3 -.2c-.4 -.2 -.8 -.5 -1.1 -.8c-.3 -.3 -.6 -.7 -.7 -1.1c-.2 -.4 -.3 -.9 -.3 -1.3c0 -.5 .1 -.9 .3 -1.3c.1 -.5 .4 -.8 .7 -1.1c.3 -.4 .7 -.6 1.1 -.8c.4 -.2 .9 -.3 1.3 -.3c.5 0 .9 .1 1.4 .3c.4 .2 .7 .4 1.1 .8c.3 .3 .5 .6 .7 1.1c.2 .4 .3 .8 .3 1.3Z" class="g1_260"/>
<path d="M555.7 263.9l-8 2.7l2 -2.7l-2 -2.7l8 2.7Z" class="g3_260"/>
<path d="M555.7 263.9l-8 2.7l2 -2.7l-2 -2.7l8 2.7Z" class="g1_260"/>
<path d="M454.4 267.3v3.5h-1.1v-3.5h1.1Zm0 6.9v3.5h-1.1v-3.5h1.1Zm0 6.9v3.4h-1.1v-3.4h1.1Zm0 6.9v3.4h-1.1V288h1.1Zm0 6.8v3.5h-1.1v-3.5h1.1Zm0 6.9v3.5h-1.1v-3.5h1.1Zm0 6.9V312h-1.1v-3.4h1.1Zm0 6.9v3.4h-1.1v-3.4h1.1Zm0 6.8v3.5h-1.1v-3.5h1.1Zm0 6.9v3.5h-1.1v-3.5h1.1Zm.3 6.9c.3 1.1 .6 2.1 1.1 3l-1 .6c-.5 -1 -.9 -2.1 -1.2 -3.4l1.1 -.2Zm3.2 5.4c.8 .6 1.7 1.1 2.9 1.4l-.4 1.1c-1.2 -.3 -2.3 -.9 -3.2 -1.6l.7 -.9Zm6 2c.5 0 .9 0 1.4 0h2.2v1.2h-2.2c-.5 0 -1 0 -1.4 -.1v-1.1Zm7 0h3.4v1.2h-3.4v-1.2Zm6.9 0h3.4v1.2h-3.4v-1.2Zm6.8 0h3.5v1.2h-3.5v-1.2Zm6.9 0H495v1.2h-3.5v-1.2Zm6.9 0h3.4v1.2h-3.4v-1.2Zm6.9 0h3.4v1.2h-3.4v-1.2Zm6.8 0h3.5v1.2h-3.5v-1.2Zm6.9 0h3.5v1.2H519v-1.2Zm6.9 -.3c1.2 -.2 2.2 -.5 3 -1l.6 1c-1 .5 -2.1 .9 -3.4 1.2l-.2 -1.2Zm5.5 -3c.6 -.8 1.1 -1.8 1.5 -2.9l1 .4c-.4 1.2 -.9 2.3 -1.7 3.2l-.8 -.7Zm2 -6c.1 -.5 .1 -1 .1 -1.5v-2h1.1v2c0 .5 0 1 0 1.6l-1.2 -.1Zm.1 -7v-3.4h1.1v3.4h-1.1Zm0 -6.9v-3.4h1.1v3.4h-1.1Zm0 -6.8V310h1.1v3.5h-1.1Zm0 -6.9v-3.4h1.1v3.4h-1.1Zm0 -6.9v-1.4c0 -.8 0 -1.5 .1 -2.2l1.1 .1c0 .6 -.1 1.3 -.1 2.1v1.4h-1.1Zm.6 -7c.3 -1.3 .8 -2.4 1.4 -3.3l1 .6c-.6 .8 -1 1.8 -1.3 3l-1.1 -.3Zm4.2 -5.7c1.1 -.5 2.2 -.8 3.6 -.8h.1v1.2h-.1c-1.2 0 -2.2 .2 -3.1 .6l-.5 -1Zm7.1 -.8h3.4v1.2h-3.4v-1.2Z" class="g3_260"/>
<path d="M457.3 263.9c0 .5 -.1 .9 -.3 1.3c-.1 .4 -.4 .8 -.7 1.1c-.3 .4 -.7 .6 -1.1 .8c-.5 .2 -.9 .2 -1.3 .2c-.5 0 -.9 0 -1.4 -.2c-.4 -.2 -.8 -.4 -1.1 -.8c-.3 -.3 -.5 -.7 -.7 -1.1c-.2 -.4 -.3 -.8 -.3 -1.3c0 -.5 .1 -.9 .3 -1.3c.2 -.4 .4 -.8 .7 -1.1c.3 -.4 .7 -.6 1.1 -.8c.5 -.1 .9 -.2 1.4 -.2c.4 0 .8 .1 1.3 .2c.4 .2 .8 .4 1.1 .8c.3 .3 .6 .7 .7 1.1c.2 .4 .3 .8 .3 1.3Z" class="g3_260"/>
<path d="M457.3 263.9c0 .5 -.1 .9 -.3 1.3c-.1 .4 -.4 .8 -.7 1.1c-.3 .4 -.7 .6 -1.1 .8c-.5 .2 -.9 .2 -1.3 .2c-.5 0 -.9 0 -1.4 -.2c-.4 -.2 -.8 -.4 -1.1 -.8c-.3 -.3 -.5 -.7 -.7 -1.1c-.2 -.4 -.3 -.8 -.3 -1.3c0 -.5 .1 -.9 .3 -1.3c.2 -.4 .4 -.8 .7 -1.1c.3 -.4 .7 -.6 1.1 -.8c.5 -.1 .9 -.2 1.4 -.2c.4 0 .8 .1 1.3 .2c.4 .2 .8 .4 1.1 .8c.3 .3 .6 .7 .7 1.1c.2 .4 .3 .8 .3 1.3Z" class="g1_260"/>
<path d="M555.7 286.8l-8 2.7l2 -2.7l-2 -2.7l8 2.7Z" class="g3_260"/>
<path d="M555.7 286.8l-8 2.7l2 -2.7l-2 -2.7l8 2.7Zm-67.5 74.5v4.3c0 2.9 -3.8 4.3 -11.4 4.3H316.4c-7.7 0 -11.5 1.4 -11.5 4.3v2.1c0 1.5 0 .8 0 -2.1V372c0 -1.4 -3.8 -2.1 -11.5 -2.1H133c-7.6 0 -11.4 -1.4 -11.4 -4.3v-4.3m527 0v4.3c0 2.9 -3.8 4.3 -11.4 4.3H614.3c-7.7 0 -11.5 1.4 -11.5 4.3v2.1c0 1.5 0 .8 0 -2.1V372c0 -1.4 -3.8 -2.1 -11.4 -2.1h-23c-7.6 0 -11.4 -1.4 -11.4 -4.3v-4.3" class="g1_260"/>
</g>
</svg>