<?xml version="1.0" encoding="UTF-8" standalone="no"?>
<!DOCTYPE svg PUBLIC "-//W3C//DTD SVG 1.1//EN"
"http://www.w3.org/Graphics/SVG/1.1/DTD/svg11.dtd">
<svg viewBox="0 0 714 1017" version="1.1" xmlns="http://www.w3.org/2000/svg" xmlns:xlink="http://www.w3.org/1999/xlink">
<defs>
<clipPath id="c0_452"><path d="M224.6 461.1V288.4H511.8V461.1Z"/></clipPath>
<clipPath id="c1_452"><path d="M224.6 461.1V286.9H511.8V461.1Z"/></clipPath>
<style type="text/css"><![CDATA[
.g0_452{
fill: #FFF;
}
.g1_452{
fill: none;
stroke: #000;
stroke-width: 1.145;
stroke-miterlimit: 10;
}
.g2_452{
fill: #000;
}
.g3_452{
fill: none;
stroke: #000;
stroke-width: 0.608;
stroke-miterlimit: 10;
}
]]></style>
</defs>
<path d="M0 1017.7H717.2V-3.7H0V1017.7Z" class="g0_452"/>
<g clip-path="url(#c1_452)">
<g clip-path="url(#c0_452)">
<path d="M224.6 288.4H512.2v173H224.6v-173Z" class="g0_452"/>
<path d="M225.1 289H511.5V460.9H225.1V289Zm11.4 34.4H362.6v80.2H236.5V323.4Zm137.5 0H500.1v80.2H374V323.4Z" class="g1_452"/>
</g>
<path d="M253.2 448.5c-9.3 0 -16.9 -7.6 -16.9 -16.9c0 -9.2 7.6 -16.8 16.9 -16.8c9.2 0 16.8 7.6 16.8 16.8c0 9.3 -7.6 16.9 -16.8 16.9Zm10.4 -5.7c-.9 -.5 -1.9 -.8 -3.3 -1.1c-1.7 -.4 -3.9 -.7 -3.7 -2.6c-1.3 1.2 -3.5 1.6 -5.3 .8c-.5 -.2 -.9 -.7 -1.3 -.6c.1 1.8 -2.2 2 -3.7 2.4c-1.5 .3 -2.5 .6 -3.4 1.2c2.7 2.5 6.3 4 10.3 4c4 0 7.6 -1.6 10.4 -4.1Zm-9.3 -20.6c-5.1 -.4 -7.6 3.1 -6.9 8.2c-.2 .1 -.5 .1 -.5 .3c0 1.5 .3 2.8 1.4 3.2c.6 2.6 2.3 5.5 5.5 5.1c2.6 -.3 4 -2.8 4.5 -5.1c1.1 -.4 1.5 -1.8 1.4 -3.3c0 -.2 -.4 -.1 -.5 -.2c.9 -4 -1.4 -7.9 -4.9 -8.2Zm-1.1 -5.8c-8.5 0 -15.3 6.8 -15.3 15.2c0 4 1.5 7.6 4 10.4c.3 -.3 .6 -.5 .9 -.7c1.7 -.9 3.8 -.7 5.8 -1.7c0 -.6 0 -1.2 0 -1.8c-.8 -.7 -.9 -1.9 -1.5 -2.9c-.3 -.6 -.8 -.9 -1.1 -1.5c-.3 -.7 -.6 -1.6 -.5 -2.6c.1 -.6 .4 -.9 .4 -1.3c.1 -.7 0 -1.4 0 -2c.4 -3.5 3 -6.2 6.4 -6.7c.7 0 1.4 0 2.1 0c3.6 .6 6.1 3.3 6.3 7.2c0 .5 -.1 1 -.1 1.5c.1 .5 .5 .9 .5 1.4c.1 1.7 -.6 3 -1.6 4c-.3 1.2 -.9 2 -1.5 2.9c0 .6 0 1.2 0 1.7c1.7 1 4 .9 5.6 1.7c.4 .2 .6 .4 .9 .6c2.4 -2.7 3.9 -6.2 3.9 -10.2c0 -8.4 -6.8 -15.2 -15.2 -15.2Z" class="g2_452"/>
<path d="M390.7 448.5c-9.3 0 -16.9 -7.6 -16.9 -16.9c0 -9.2 7.6 -16.8 16.9 -16.8c9.2 0 16.8 7.6 16.8 16.8c0 9.3 -7.6 16.9 -16.8 16.9Zm10.4 -5.7c-.9 -.5 -1.9 -.8 -3.3 -1.1c-1.7 -.4 -3.9 -.7 -3.7 -2.6c-1.3 1.2 -3.5 1.6 -5.3 .8c-.5 -.2 -.9 -.7 -1.3 -.6c.1 1.8 -2.2 2 -3.7 2.4c-1.5 .3 -2.5 .6 -3.4 1.2c2.7 2.5 6.3 4 10.3 4c4 0 7.6 -1.6 10.4 -4.1Zm-9.3 -20.6c-5.1 -.4 -7.6 3.1 -6.9 8.2c-.2 .1 -.5 .1 -.5 .3c0 1.5 .3 2.8 1.4 3.2c.6 2.6 2.3 5.5 5.5 5.1c2.6 -.3 4 -2.8 4.5 -5.1c1.1 -.4 1.5 -1.8 1.4 -3.3c0 -.2 -.4 -.1 -.5 -.2c.9 -4 -1.4 -7.9 -4.9 -8.2Zm-1.1 -5.8c-8.5 0 -15.3 6.8 -15.3 15.2c0 4 1.5 7.6 4 10.4c.3 -.3 .6 -.5 .9 -.7c1.7 -.9 3.8 -.7 5.8 -1.7c0 -.6 0 -1.2 0 -1.8c-.8 -.7 -.9 -1.9 -1.5 -2.9c-.3 -.6 -.8 -.9 -1.1 -1.5c-.3 -.7 -.6 -1.6 -.5 -2.6c.1 -.6 .4 -.9 .4 -1.3c.1 -.7 0 -1.4 0 -2c.4 -3.5 3 -6.2 6.4 -6.7c.7 0 1.4 0 2.1 0c3.6 .6 6.1 3.3 6.3 7.2c0 .5 -.1 1 -.1 1.5c.1 .5 .5 .9 .5 1.4c.1 1.7 -.6 3 -1.6 4c-.3 1.2 -.9 2 -1.5 2.9c0 .6 0 1.2 0 1.7c1.7 1 4 .9 5.6 1.7c.4 .2 .6 .4 .9 .6c2.4 -2.7 3.9 -6.2 3.9 -10.2c0 -8.4 -6.8 -15.2 -15.2 -15.2Z" class="g2_452"/>
<path d="M259.5 346.3h68.7v34.3H259.5V346.3Z" class="g1_452"/>
<path d="M270.9 352h68.8v34.4H270.9V352Z" class="g0_452"/>
<path d="M270.9 352h68.8v34.4H270.9V352Z" class="g1_452"/>
<path d="M282.4 357.7h68.7v34.4H282.4V357.7Z" class="g0_452"/>
<path d="M282.4 357.7h68.7v34.4H282.4V357.7Z" class="g1_452"/>
<path d="M296.2 368h47v17.2h-47V368Z" class="g0_452"/>
<path d="M397 346.3h68.7v34.3H397V346.3Z" class="g1_452"/>
<path d="M408.4 352h68.8v34.4H408.4V352Z" class="g0_452"/>
<path d="M408.4 352h68.8v34.4H408.4V352Z" class="g1_452"/>
<path d="M419.9 357.7h68.7v34.4H419.9V357.7Z" class="g0_452"/>
<path d="M419.9 357.7h68.7v34.4H419.9V357.7Z" class="g1_452"/>
<path d="M433.7 368h47v17.2h-47V368Z" class="g0_452"/>
</g>
<path d="M86.6 763.1H196.2" class="g3_452"/>
</svg>