<?xml version="1.0" encoding="UTF-8" standalone="no"?>
<!DOCTYPE svg PUBLIC "-//W3C//DTD SVG 1.1//EN"
"http://www.w3.org/Graphics/SVG/1.1/DTD/svg11.dtd">
<svg viewBox="0 0 714 1017" version="1.1" xmlns="http://www.w3.org/2000/svg" xmlns:xlink="http://www.w3.org/1999/xlink">
<defs>
<clipPath id="c0_125"><path d="M90.5 593.2V294.1H602.7V593.2Z"/></clipPath>
<clipPath id="c1_125"><path d="M90.5 593.7v-301H603.9v301Z"/></clipPath>
<style type="text/css"><![CDATA[
.g0_125{
fill: #FFF;
}
.g1_125{
fill: none;
stroke: #000;
stroke-width: 1.145;
stroke-miterlimit: 10;
}
.g2_125{
fill: none;
stroke: #000;
stroke-width: 2.291;
stroke-miterlimit: 10;
}
.g3_125{
fill: #000;
}
]]></style>
</defs>
<path d="M0 1017.7H717.2V-3.7H0V1017.7Z" class="g0_125"/>
<g clip-path="url(#c1_125)">
<path clip-path="url(#c0_125)" d="M90.5 294.1H602.7V593.2H90.5V294.1Z" class="g0_125"/>
<path d="M189.6 294.7h91.7v22.9H189.6V294.7Z" class="g0_125"/>
<path d="M189.6 294.7h91.7v22.9H189.6V294.7Z" class="g1_125"/>
<path d="M281.3 294.7H602.1v22.9H281.3V294.7Z" class="g0_125"/>
<path d="M281.3 294.7H602.1v22.9H281.3V294.7Z" class="g1_125"/>
<path d="M189.6 317.6h91.7v22.9H189.6V317.6Z" class="g0_125"/>
<path d="M189.6 317.6h91.7v22.9H189.6V317.6Z" class="g1_125"/>
<path d="M281.3 317.6H602.1v22.9H281.3V317.6Z" class="g0_125"/>
<path d="M281.3 317.6H602.1v22.9H281.3V317.6Z" class="g1_125"/>
<path d="M189.6 340.5h91.7v22.9H189.6V340.5Z" class="g0_125"/>
<path d="M189.6 340.5h91.7v22.9H189.6V340.5Z" class="g1_125"/>
<path d="M281.3 340.5H602.1v22.9H281.3V340.5Z" class="g0_125"/>
<path d="M281.3 340.5H602.1v22.9H281.3V340.5Z" class="g1_125"/>
<path d="M189.6 363.4h91.7v22.9H189.6V363.4Z" class="g0_125"/>
<path d="M189.6 363.4h91.7v22.9H189.6V363.4Z" class="g1_125"/>
<path d="M281.3 363.4H602.1v22.9H281.3V363.4Z" class="g0_125"/>
<path d="M281.3 363.4H602.1v22.9H281.3V363.4Z" class="g1_125"/>
<path d="M189.6 386.3h91.7v23H189.6v-23Z" class="g0_125"/>
<path d="M189.6 386.3h91.7v23H189.6v-23Z" class="g1_125"/>
<path d="M281.3 386.3H602.1v23H281.3v-23Z" class="g0_125"/>
<path d="M281.3 386.3H602.1v23H281.3v-23Z" class="g1_125"/>
<path d="M100.1 523.8H549" class="g2_125"/>
<path d="M555.8 523.8l-9.1 3.1l2.3 -3.1l-2.3 -3l9.1 3Z" class="g3_125"/>
<path d="M555.8 523.8l-9.1 3.1l2.3 -3.1l-2.3 -3l9.1 3Z" class="g2_125"/>
<path d="M100.1 523.8V512.4m91.6 11.4V512.4m91.7 11.4V512.4m91.7 11.4V512.4m91.6 11.4V512.4m-275 11.4v5.8c0 3.8 -3.8 5.7 -11.4 5.7H157.4c-7.7 0 -11.5 1.9 -11.5 5.7v2.9c0 1.9 0 1 0 -2.9v-2.8c0 -1.9 -3.8 -2.9 -11.5 -2.9H111.5c-7.6 0 -11.4 -1.9 -11.4 -5.7v-5.8m183.3 0v5.8c0 3.8 -3.8 5.7 -11.5 5.7H249c-7.6 0 -11.4 1.9 -11.4 5.7v2.9c0 1.9 0 1 0 -2.9v-2.8c0 -1.9 -3.9 -2.9 -11.5 -2.9H203.2c-7.6 0 -11.5 -1.9 -11.5 -5.7v-5.8m183.4 0v5.8c0 3.8 -3.9 5.7 -11.5 5.7H340.7c-7.6 0 -11.5 1.9 -11.5 5.7v2.9c0 1.9 0 1 0 -2.9v-2.8c0 -1.9 -3.8 -2.9 -11.4 -2.9H294.9c-7.7 0 -11.5 -1.9 -11.5 -5.7v-5.8m183.3 0v5.8c0 3.8 -3.8 5.7 -11.4 5.7H432.4c-7.7 0 -11.5 1.9 -11.5 5.7v2.9c0 1.9 0 1 0 -2.9v-2.8c0 -1.9 -3.8 -2.9 -11.5 -2.9H386.5c-7.6 0 -11.4 -1.9 -11.4 -5.7v-5.8M99.7 581.1V562.9" class="g1_125"/>
<path d="M99.7 559.5l1.5 4.6l-1.5 -1.2l-1.5 1.2l1.5 -4.6Z" class="g3_125"/>
<path d="M99.7 559.5l1.5 4.6l-1.5 -1.2l-1.5 1.2l1.5 -4.6Zm92 21.6V562.9" class="g1_125"/>
<path d="M191.7 559.5l1.6 4.6l-1.6 -1.2l-1.5 1.2l1.5 -4.6Z" class="g3_125"/>
<path d="M191.7 559.5l1.6 4.6l-1.6 -1.2l-1.5 1.2l1.5 -4.6Zm91.7 21.6V562.9" class="g1_125"/>
<path d="M283.4 559.5l1.5 4.6l-1.5 -1.2l-1.5 1.2l1.5 -4.6Z" class="g3_125"/>
<path d="M283.4 559.5l1.5 4.6l-1.5 -1.2l-1.5 1.2l1.5 -4.6Zm91.1 21.6V562.9" class="g1_125"/>
<path d="M374.5 559.5l1.5 4.6l-1.5 -1.2l-1.5 1.2l1.5 -4.6Z" class="g3_125"/>
<path d="M374.5 559.5l1.5 4.6l-1.5 -1.2l-1.5 1.2l1.5 -4.6Zm92.2 21.6V562.9" class="g1_125"/>
<path d="M466.7 559.5l1.6 4.6l-1.6 -1.2l-1.5 1.2l1.5 -4.6Z" class="g3_125"/>
<path d="M466.7 559.5l1.6 4.6l-1.6 -1.2l-1.5 1.2l1.5 -4.6Z" class="g1_125"/>
<path d="M99.7 420.7h80.2v22.9H99.7V420.7Z" class="g0_125"/>
<path d="M99.7 420.7h80.2v22.9H99.7V420.7Zm6.9 0v22.9M173 420.7v22.9M107.6 420.9V340.5c0 -7.6 3.8 -11.4 11.5 -11.4h70.5m-69.9 91.6V363.4c0 -7.6 3.9 -11.4 11.5 -11.4h58.4m-49.8 68.7V386.3c0 -7.6 3.8 -11.4 11.5 -11.4h38.3m-29.8 45.8V409.3c0 -7.7 3.9 -11.5 11.5 -11.5h18.3m-80 46.7l-.1 33.5c0 7.7 3.9 11.5 11.5 11.5H292.8c7.6 0 11.4 3.8 11.4 11.4v15.7" class="g1_125"/>
<path d="M304.2 522.6l-2.6 -8.1l2.6 2.1l2.7 -2.1l-2.7 8.1Z" class="g3_125"/>
<path d="M304.2 522.6l-2.6 -8.1l2.6 2.1l2.7 -2.1l-2.7 8.1Zm-184.5 -79v23c0 7.6 3.9 11.4 11.5 11.4H407.3c7.7 0 11.5 3.8 11.5 11.5v27.1" class="g1_125"/>
<path d="M418.8 522.6l-2.7 -8.1l2.7 2.1l2.7 -2.1l-2.7 8.1Z" class="g3_125"/>
<path d="M418.8 522.6l-2.7 -8.1l2.7 2.1l2.7 -2.1l-2.7 8.1Zm-279 -79v11.5c0 7.6 3.8 11.5 11.5 11.5H258.4c7.6 0 11.4 1.3 11.4 4v4m0 6.9V486m0 6.9v23.7" class="g1_125"/>
<path d="M269.8 522.6l-2.6 -8.1l2.6 2.1l2.7 -2.1l-2.7 8.1Z" class="g3_125"/>
<path d="M269.8 522.6l-2.6 -8.1l2.6 2.1l2.7 -2.1l-2.7 8.1Zm-110 -79v5.8c0 3.8 3.9 5.7 11.5 5.7H224c7.7 0 11.5 1.3 11.5 4v4m0 6.9v4.6m0 6.9V486m0 6.9v23.7" class="g1_125"/>
<path d="M235.5 522.6l-2.7 -8.1l2.7 2.1l2.6 -2.1l-2.6 8.1Z" class="g3_125"/>
<path d="M235.5 522.6l-2.7 -8.1l2.7 2.1l2.6 -2.1l-2.6 8.1Z" class="g1_125"/>
</g>
</svg>