<?xml version="1.0" encoding="UTF-8" standalone="no"?>
<!DOCTYPE svg PUBLIC "-//W3C//DTD SVG 1.1//EN"
"http://www.w3.org/Graphics/SVG/1.1/DTD/svg11.dtd">
<svg viewBox="0 0 714 1017" version="1.1" xmlns="http://www.w3.org/2000/svg" xmlns:xlink="http://www.w3.org/1999/xlink">
<defs>
<clipPath id="c0_160"><path d="M171.8 620.8V505H563.6V620.8Z"/></clipPath>
<clipPath id="c1_160"><path d="M171.8 621.3V503.6H565.9V621.3Z"/></clipPath>
<style type="text/css"><![CDATA[
.g0_160{
fill: #FFF;
}
.g1_160{
fill: none;
stroke: #000;
stroke-width: 1.145;
stroke-miterlimit: 10;
}
.g2_160{
fill: #000;
}
.g3_160{
fill: none;
stroke: #000;
stroke-width: 2.291;
stroke-miterlimit: 10;
}
.g4_160{
fill: none;
stroke: #000;
stroke-width: 0.608;
stroke-miterlimit: 10;
}
]]></style>
</defs>
<path d="M0 1017.7H717.2V-3.7H0V1017.7Z" class="g0_160"/>
<g clip-path="url(#c1_160)">
<path clip-path="url(#c0_160)" d="M171.8 505H563.6V620.8H171.8V505Z" class="g0_160"/>
<path d="M355.7 505.6h23v22.9h-23V505.6Z" class="g0_160"/>
<path d="M355.7 505.6h23v22.9h-23V505.6Z" class="g1_160"/>
<path d="M218.1 551.5h23v22.9h-23V551.5Z" class="g0_160"/>
<path d="M218.1 551.5h23v22.9h-23V551.5Z" class="g1_160"/>
<path d="M355.7 551.5h23v22.9h-23V551.5Z" class="g0_160"/>
<path d="M355.7 551.5h23v22.9h-23V551.5Z" class="g1_160"/>
<path d="M493.2 551.5h23v22.9h-23V551.5Z" class="g0_160"/>
<path d="M493.2 551.5h23v22.9h-23V551.5Z" class="g1_160"/>
<path d="M229 551.4v-1.1h1.2v1.2l-1.2 -.1Zm0 -3.4v-1.1h1.2V548H229Zm.2 -3.6c.1 -.4 .3 -.8 .5 -1.2l1 .6c-.2 .2 -.3 .5 -.4 .9l-1.1 -.3Zm2.2 -3c.3 -.2 .7 -.4 1.1 -.6l.5 1c-.4 .2 -.7 .4 -1 .6l-.6 -1Zm3.3 -1.4c.4 -.1 .8 -.1 1.3 -.2l.2 1.1c-.5 .1 -.9 .2 -1.2 .3l-.3 -1.2Zm3.4 -.5c.4 0 .8 0 1.2 0l.1 1.1c-.4 0 -.8 0 -1.2 .1l-.1 -1.2Zm3.7 -.1h1.1v1.2h-1.1v-1.2Zm3.4 0h1.2v1.2h-1.2v-1.2Zm3.5 0h1.1v1.2h-1.1v-1.2Zm3.4 0h1.2v1.2h-1.2v-1.2Zm3.4 0h1.2v1.2h-1.2v-1.2Zm3.5 0h1.1v1.2H259v-1.2Zm3.4 0h1.2v1.2h-1.2v-1.2Zm3.5 0H267v1.2h-1.1v-1.2Zm3.4 0h1.1v1.2h-1.1v-1.2Zm3.4 0h1.2v1.2h-1.2v-1.2Zm3.5 0h1.1v1.2h-1.1v-1.2Zm3.4 0h1.2v1.2h-1.2v-1.2Zm3.4 0h1.2v1.2H283v-1.2Zm3.5 0h1.1v1.2h-1.1v-1.2Zm3.4 0h1.2v1.2h-1.2v-1.2Zm3.5 0h1.1v1.2h-1.1v-1.2Zm3.4 0h1.1v1.2h-1.1v-1.2Zm3.4 0h1.2v1.2h-1.2v-1.2Zm3.5 0h1.1v1.2h-1.1v-1.2Zm3.4 0h1.2v1.2h-1.2v-1.2Zm3.4 0h1.2v1.2h-1.2v-1.2Zm3.5 0h1.1v1.2H314v-1.2Zm3.4 0h1.2v1.2h-1.2v-1.2Zm3.5 0H322v1.2h-1.1v-1.2Zm3.4 0h1.1v1.2h-1.1v-1.2Zm3.4 0h1.2v1.2h-1.2v-1.2Zm3.5 0h1.1v1.2h-1.1v-1.2Zm3.4 0h1.2v1.2h-1.2v-1.2Zm3.4 0h1.2v1.2H338v-1.2Zm3.5 0h1.1v1.2h-1.1v-1.2Zm3.4 0h1.2v1.2h-1.2v-1.2Zm3.5 0h1.1v1.2h-1.1v-1.2Zm3.5 0c.4 0 .8 -.1 1.2 -.1l.1 1.1c-.4 .1 -.8 .1 -1.2 .1l-.1 -1.1Zm3.3 -.4c.4 -.1 .8 -.1 1.1 -.2l.3 1.1c-.4 .1 -.8 .2 -1.2 .2l-.2 -1.1Zm3.1 -.9c.3 -.2 .6 -.4 .9 -.6l.7 .9c-.3 .2 -.7 .5 -1.1 .7l-.5 -1Zm2.2 -2.1c.1 -.3 .2 -.6 .3 -.9l1.1 .2c-.1 .4 -.2 .8 -.4 1.2l-1 -.5Zm.3 -3.2v-1.1H362v1.1h-1.2Zm0 -3.4v-.9H362v.9h-1.2Z" class="g2_160"/>
<path d="M366.6 551.5v-1.2h1.1v1.2M366.6 548v-1.1h1.1V548m-1.1 -3.4v-1.2h1.1v1.2m-1.1 -3.5V540h1.1v1.1m-1.1 -3.4v-1.1h1.1v1.1m-1.1 -3.4v-1.2h1.1v1.2m-1.1 -3.5v-1.1h1.1v1.1Z" class="g2_160"/>
<path d="M504.1 551.5v-1.2h1.1v1.1l-1.1 .1Zm0 -3.5v-1.1h1.1V548h-1.1Zm-.2 -3.3c0 -.4 -.2 -.7 -.3 -.9l1 -.6c.2 .4 .4 .8 .5 1.2l-1.2 .3Zm-1.7 -2.3c-.3 -.2 -.6 -.4 -.9 -.6l.5 -1c.4 .2 .7 .4 1.1 .6l-.7 1Zm-2.9 -1.2c-.4 -.1 -.8 -.2 -1.2 -.3l.2 -1.1c.4 .1 .8 .1 1.3 .2l-.3 1.2Zm-3.3 -.5c-.4 -.1 -.7 -.1 -1.1 -.1v-1.1c.4 0 .8 0 1.2 0l-.1 1.2Zm-3.5 -.1h-1.2v-1.2h1.2v1.2Zm-3.5 0h-1.1v-1.2H489v1.2Zm-3.4 0h-1.2v-1.2h1.2v1.2Zm-3.5 0H481v-1.2h1.1v1.2Zm-3.4 0h-1.1v-1.2h1.1v1.2Zm-3.4 0h-1.2v-1.2h1.2v1.2Zm-3.5 0h-1.1v-1.2h1.1v1.2Zm-3.4 0h-1.2v-1.2h1.2v1.2Zm-3.4 0h-1.2v-1.2H465v1.2Zm-3.5 0h-1.1v-1.2h1.1v1.2Zm-3.4 0h-1.2v-1.2h1.2v1.2Zm-3.5 0h-1.1v-1.2h1.1v1.2Zm-3.4 0h-1.1v-1.2h1.1v1.2Zm-3.4 0h-1.2v-1.2h1.2v1.2Zm-3.5 0h-1.1v-1.2h1.1v1.2Zm-3.4 0h-1.2v-1.2h1.2v1.2Zm-3.4 0h-1.2v-1.2h1.2v1.2Zm-3.5 0h-1.1v-1.2H434v1.2Zm-3.4 0h-1.2v-1.2h1.2v1.2Zm-3.5 0H426v-1.2h1.1v1.2Zm-3.4 0h-1.1v-1.2h1.1v1.2Zm-3.4 0h-1.2v-1.2h1.2v1.2Zm-3.5 0h-1.1v-1.2h1.1v1.2Zm-3.4 0h-1.2v-1.2h1.2v1.2Zm-3.4 0h-1.2v-1.2H410v1.2Zm-3.5 0h-1.1v-1.2h1.1v1.2Zm-3.4 0h-1.2v-1.2h1.2v1.2Zm-3.5 0h-1.1v-1.2h1.1v1.2Zm-3.4 0h-1.1v-1.2h1.1v1.2Zm-3.4 0h-1.2v-1.2h1.2v1.2Zm-3.5 0h-1.1v-1.2h1.1v1.2Zm-3.4 0h-1.2v-1.2h1.2v1.2Zm-3.6 -.1c-.4 0 -.8 0 -1.2 -.1l.1 -1.1c.4 0 .7 0 1.1 .1v1.1Zm-3.4 -.4c-.5 -.1 -.9 -.2 -1.3 -.3l.3 -1.1c.4 .1 .8 .2 1.2 .3l-.2 1.1ZM375.5 539c-.4 -.2 -.8 -.4 -1.1 -.7l.7 -.9c.2 .2 .6 .4 .9 .6l-.5 1Zm-2.7 -2.6c-.2 -.4 -.3 -.8 -.4 -1.3l1.2 -.1c0 .3 .1 .6 .3 .9l-1.1 .5Zm-.4 -3.7v-1.1h1.1v1.1h-1.1Zm0 -3.4v-.8h1.1v.8h-1.1Z" class="g2_160"/>
<path d="M172.3 597.3h23v22.9h-23V597.3Z" class="g0_160"/>
<path d="M172.3 597.3h23v22.9h-23V597.3Z" class="g1_160"/>
<path d="M218.1 597.3h23v22.9h-23V597.3Z" class="g0_160"/>
<path d="M218.1 597.3h23v22.9h-23V597.3Z" class="g1_160"/>
<path d="M264.1 597.3h23v22.9h-23V597.3Z" class="g0_160"/>
<path d="M264.1 597.3h23v22.9h-23V597.3Z" class="g1_160"/>
<path d="M309.8 597.3h23v22.9h-23V597.3Z" class="g0_160"/>
<path d="M309.8 597.3h23v22.9h-23V597.3Z" class="g1_160"/>
<path d="M355.7 597.3h23v22.9h-23V597.3Z" class="g0_160"/>
<path d="M355.7 597.3h23v22.9h-23V597.3Z" class="g1_160"/>
<path d="M401.5 597.3h23v22.9h-23V597.3Z" class="g0_160"/>
<path d="M401.5 597.3h23v22.9h-23V597.3Z" class="g1_160"/>
<path d="M447.3 597.3h23v22.9h-23V597.3Z" class="g0_160"/>
<path d="M447.3 597.3h23v22.9h-23V597.3Z" class="g1_160"/>
<path d="M493.2 597.3h23v22.9h-23V597.3Z" class="g0_160"/>
<path d="M493.2 597.3h23v22.9h-23V597.3Z" class="g1_160"/>
<path d="M539 597.3h23v22.9H539V597.3Z" class="g0_160"/>
<path d="M539 597.3h23v22.9H539V597.3Z" class="g1_160"/>
<path d="M229 597.3v-1.2h1.2v1.2M229 593.8v-1.1h1.2v1.1M229 590.4v-1.1h1.2v1.1M229 587v-1.2h1.2V587M229 583.5v-1.1h1.2v1.1M229 580.1V579h1.2v1.1M229 576.7v-1.2h1.2v1.2Z" class="g2_160"/>
<path d="M504.1 597.3v-1.2h1.1v1.2m-1.1 -3.5v-1.1h1.1v1.1m-1.1 -3.4v-1.1h1.1v1.1M504.1 587v-1.2h1.1V587m-1.1 -3.5v-1.1h1.1v1.1m-1.1 -3.4V579h1.1v1.1m-1.1 -3.4v-1.2h1.1v1.2Z" class="g2_160"/>
<path d="M366.6 597.3v-1.2h1.1v1.2m-1.1 -3.5v-1.1h1.1v1.1m-1.1 -3.4v-1.1h1.1v1.1M366.6 587v-1.2h1.1V587m-1.1 -3.5v-1.1h1.1v1.1m-1.1 -3.4V579h1.1v1.1m-1.1 -3.4v-1.2h1.1v1.2Z" class="g2_160"/>
<path d="M549.9 597.3v-1.2h1.2v1.2h-1.2Zm0 -3.5v-1.1h1.2v1.1h-1.2Zm-.1 -3.3c-.1 -.3 -.2 -.6 -.4 -.9l1 -.6c.2 .4 .4 .8 .5 1.2l-1.1 .3Zm-1.7 -2.3c-.3 -.2 -.6 -.4 -1 -.5l.5 -1.1c.4 .2 .8 .4 1.1 .6l-.6 1Zm-3 -1.2c-.4 -.1 -.8 -.2 -1.2 -.3l.2 -1.1c.4 .1 .9 .2 1.3 .3l-.3 1.1Zm-3.3 -.5c-.3 0 -.7 0 -1.1 -.1l.1 -1.1c.4 0 .8 0 1.1 .1l-.1 1.1Zm-3.5 -.1h-1.2v-1.1h1.2v1.1Zm-3.5 0h-1.1v-1.1h1.1v1.1Zm-3.4 0h-1.1v-1.1h1.1v1.1Zm-3.4 0h-1.2v-1.1H528v1.1Zm-3.5 0h-1.1v-1.1h1.1v1.1Zm-3.5 0c-.4 0 -.8 0 -1.2 -.1v-1.1c.4 0 .8 0 1.2 0v1.2Zm-3.5 -.3c-.4 0 -.8 -.1 -1.1 -.1l.2 -1.2c.3 .1 .7 .2 1.1 .2l-.2 1.1Zm-3.5 -.8c-.4 -.1 -.7 -.3 -1 -.4l.5 -1.1c.3 .2 .6 .3 .9 .4l-.4 1.1Zm-3 -2c-.3 -.3 -.5 -.7 -.7 -1.1l1.1 -.4c.1 .2 .2 .5 .5 .8l-.9 .7Zm-1.1 -3.6v-1.1H511v1.1h-1.1Zm0 -3.4v-1.2H511v1.2h-1.1Z" class="g2_160"/>
<path d="M458.3 597.3v-1.2h1.1v1.2h-1.1Zm0 -3.5l-.1 -1.1h1.2v1.1h-1.1Zm.1 -3.6c.1 -.4 .3 -.8 .5 -1.2l1 .6c-.2 .3 -.3 .6 -.4 .9l-1.1 -.3Zm2.2 -3c.3 -.2 .7 -.4 1.1 -.6l.5 1.1c-.4 .1 -.7 .3 -1 .5l-.6 -1Zm3.3 -1.3c.4 -.1 .8 -.2 1.3 -.3l.2 1.1c-.5 .1 -.9 .2 -1.2 .3l-.3 -1.1Zm3.4 -.5c.4 -.1 .8 -.1 1.2 -.1l.1 1.1c-.4 0 -.8 .1 -1.2 .1l-.1 -1.1Zm3.7 -.1h1.1v1.1H471v-1.1Zm3.4 0h1.2v1.1h-1.2v-1.1Zm3.5 0H479v1.1h-1.1v-1.1Zm3.4 0h1.2v1.1h-1.2v-1.1Zm3.4 0h1.2v1.1h-1.2v-1.1Zm3.6 -.1c.4 0 .8 0 1.2 0v1.1c-.4 .1 -.8 .1 -1.2 .1v-1.2Zm3.3 -.2c.4 0 .7 -.1 1.1 -.2l.2 1.2c-.4 0 -.7 .1 -1.1 .1l-.2 -1.1Zm3.3 -.7c.3 -.2 .6 -.3 .9 -.4l.5 1c-.3 .2 -.7 .3 -1 .4l-.4 -1Zm2.6 -1.7c.2 -.2 .3 -.5 .5 -.8l1 .5c-.2 .4 -.4 .7 -.7 1.1l-.8 -.8Zm.8 -2.8v-1.2h1.2v1.2h-1.2Zm0 -3.5v-1.1h1.2v1.1h-1.2Z" class="g2_160"/>
<path d="M412.4 597.3v-1.2h1.2v1.2h-1.2Zm0 -3.5v-1.1h1.2v1.1h-1.2Zm-.1 -3.3c-.1 -.3 -.2 -.6 -.4 -.9l1 -.6c.2 .4 .4 .8 .5 1.2l-1.1 .3Zm-1.7 -2.3c-.3 -.2 -.6 -.4 -1 -.5l.5 -1.1c.4 .2 .8 .4 1.1 .6l-.6 1Zm-3 -1.2c-.4 -.1 -.8 -.2 -1.2 -.3l.2 -1.1c.4 .1 .9 .2 1.3 .3l-.3 1.1Zm-3.3 -.5c-.3 0 -.7 0 -1.1 -.1l.1 -1.1c.4 0 .8 0 1.1 .1l-.1 1.1Zm-3.5 -.1h-1.2v-1.1h1.2v1.1Zm-3.5 0h-1.1v-1.1h1.1v1.1Zm-3.4 0h-1.1v-1.1h1.1v1.1Zm-3.4 0h-1.2v-1.1h1.2v1.1Zm-3.5 0h-1.1v-1.1H387v1.1Zm-3.5 0c-.4 0 -.8 0 -1.2 -.1v-1.1c.4 0 .8 0 1.2 0v1.2Zm-3.5 -.3c-.4 0 -.8 -.1 -1.1 -.1l.2 -1.2c.3 .1 .7 .2 1.1 .2l-.2 1.1Zm-3.5 -.8c-.4 -.1 -.7 -.3 -1 -.4l.5 -1.1c.3 .2 .6 .3 .9 .4l-.4 1.1Zm-3 -2c-.3 -.3 -.5 -.7 -.7 -1.1l1.1 -.4c.1 .2 .2 .5 .5 .8l-.9 .7Zm-1.1 -3.6v-1.1h1.1v1.1h-1.1Zm0 -3.4v-1.2h1.1v1.2h-1.1Z" class="g2_160"/>
<path d="M320.8 597.3v-1.2h1.1v1.2h-1.1Zm0 -3.5l-.1 -1.1h1.2v1.1h-1.1Zm.1 -3.6c.1 -.4 .3 -.8 .5 -1.2l1 .6c-.2 .3 -.3 .6 -.4 .9l-1.1 -.3Zm2.2 -3c.3 -.2 .7 -.4 1.1 -.6l.5 1.1c-.4 .1 -.7 .3 -1 .5l-.6 -1Zm3.3 -1.3c.4 -.1 .8 -.2 1.3 -.3l.2 1.1c-.5 .1 -.9 .2 -1.2 .3l-.3 -1.1Zm3.4 -.5c.4 -.1 .8 -.1 1.2 -.1l.1 1.1c-.4 0 -.8 .1 -1.2 .1l-.1 -1.1Zm3.7 -.1h1.1v1.1h-1.1v-1.1Zm3.4 0h1.2v1.1h-1.2v-1.1Zm3.5 0h1.1v1.1h-1.1v-1.1Zm3.4 0H345v1.1h-1.2v-1.1Zm3.4 0h1.2v1.1h-1.2v-1.1Zm3.6 -.1c.4 0 .8 0 1.2 0v1.1c-.4 .1 -.8 .1 -1.2 .1v-1.2Zm3.3 -.2c.4 0 .7 -.1 1.1 -.2l.2 1.2c-.4 0 -.7 .1 -1.1 .1l-.2 -1.1Zm3.3 -.7c.3 -.2 .6 -.3 .9 -.4l.5 1c-.3 .2 -.7 .3 -1 .4l-.4 -1Zm2.6 -1.7c.2 -.2 .3 -.5 .5 -.8l1 .5c-.2 .4 -.4 .7 -.7 1.1l-.8 -.8Zm.8 -2.8v-1.2H362v1.2h-1.2Zm0 -3.5v-1.1H362v1.1h-1.2Z" class="g2_160"/>
<path d="M183.3 597.3v-1.2h1.1v1.2h-1.1Zm0 -3.5l-.1 -1.1h1.2v1.1h-1.1Zm.1 -3.6c.1 -.4 .3 -.8 .5 -1.2l1 .6c-.2 .3 -.3 .6 -.4 .9l-1.1 -.3Zm2.2 -3c.3 -.2 .7 -.4 1.1 -.6l.5 1.1c-.4 .1 -.7 .3 -1 .5l-.6 -1Zm3.3 -1.3c.4 -.1 .8 -.2 1.3 -.3l.2 1.1c-.5 .1 -.9 .2 -1.2 .3l-.3 -1.1Zm3.4 -.5c.4 -.1 .8 -.1 1.2 -.1l.1 1.1c-.4 0 -.8 .1 -1.2 .1l-.1 -1.1Zm3.7 -.1h1.1v1.1H196v-1.1Zm3.4 0h1.2v1.1h-1.2v-1.1Zm3.5 0H204v1.1h-1.1v-1.1Zm3.4 0h1.2v1.1h-1.2v-1.1Zm3.4 0h1.2v1.1h-1.2v-1.1Zm3.6 -.1c.4 0 .8 0 1.2 0v1.1c-.4 .1 -.8 .1 -1.2 .1v-1.2Zm3.3 -.2c.4 -.1 .8 -.1 1.1 -.2l.2 1.1c-.4 .1 -.7 .2 -1.1 .2l-.2 -1.1Zm3.3 -.8c.3 -.1 .6 -.2 .9 -.4l.5 1c-.3 .2 -.7 .4 -1 .5l-.4 -1.1Zm2.5 -1.7c.2 -.2 .4 -.5 .5 -.8l1.1 .5c-.2 .4 -.4 .7 -.7 1.1l-.9 -.8Zm.8 -2.8v-1.2h1.2v1.2h-1.2Zm0 -3.5l.1 -1.1h1.1v1.1h-1.2Z" class="g2_160"/>
<path d="M275 597.3v-1.2h1.2v1.2H275Zm0 -3.5v-1.1h1.2v1.1H275Zm-.1 -3.3c-.1 -.3 -.2 -.6 -.4 -.9l1 -.6c.2 .4 .4 .8 .5 1.2l-1.1 .3Zm-1.7 -2.3c-.3 -.2 -.6 -.4 -1 -.5l.5 -1.1c.4 .2 .8 .4 1.1 .6l-.6 1Zm-3 -1.2c-.4 -.1 -.8 -.2 -1.2 -.3l.2 -1.1c.5 .1 .9 .2 1.3 .3l-.3 1.1Zm-3.2 -.5c-.4 0 -.8 0 -1.2 -.1l.1 -1.1c.4 0 .8 0 1.1 .1v1.1Zm-3.6 -.1h-1.2v-1.1h1.2v1.1Zm-3.4 0h-1.2v-1.1H260v1.1Zm-3.5 0h-1.1v-1.1h1.1v1.1Zm-3.4 0h-1.2v-1.1h1.2v1.1Zm-3.5 0h-1.1v-1.1h1.1v1.1Zm-3.5 0c-.4 0 -.8 0 -1.2 0v-1.2c.4 0 .8 0 1.2 0v1.2Zm-3.5 -.2c-.4 -.1 -.7 -.1 -1.1 -.2l.2 -1.1c.3 0 .7 .1 1 .1l-.1 1.2Zm-3.5 -.8c-.4 -.1 -.7 -.3 -1 -.4l.5 -1.1c.3 .2 .6 .3 .9 .4l-.4 1.1ZM236 583.5c-.3 -.4 -.5 -.7 -.7 -1.1l1 -.5c.2 .3 .3 .6 .6 .8l-.9 .8Zm-1.2 -3.6v-1.1h1.1v1.1h-1.1Zm0 -3.4v-1.2h1.1v1.2h-1.1Z" class="g2_160"/>
<path d="M355.7 517.1H241.1c-7.7 0 -11.5 3.8 -11.5 11.4v17.8" class="g3_160"/>
<path d="M229.6 548.9l-1.2 -3.5l1.2 .9l1.1 -.8l-1.1 3.4Z" class="g2_160"/>
<path d="M229.6 548.9l-1.2 -3.5l1.2 .9l1.1 -.8l-1.1 3.4Zm-11.5 14H195.3c-7.7 0 -11.5 3.8 -11.5 11.5v17.7" class="g3_160"/>
<path d="M183.8 594.7l-1.1 -3.4l1.1 .8l1.2 -.8l-1.2 3.4Z" class="g2_160"/>
<path d="M183.8 594.7l-1.1 -3.4l1.1 .8l1.2 -.8l-1.2 3.4Zm5.8 14h350" class="g3_160"/>
<path d="M542.2 608.7l-3.4 1.2l.8 -1.2l-.8 -1.1l3.4 1.1Z" class="g2_160"/>
<path d="M542.2 608.7l-3.4 1.2l.8 -1.2l-.8 -1.1l3.4 1.1Z" class="g3_160"/>
<path d="M189.6 608.7c0 .8 -.2 1.5 -.5 2.2c-.3 .7 -.7 1.4 -1.2 1.9c-.5 .5 -1.2 .9 -1.9 1.2c-.7 .3 -1.4 .5 -2.2 .5c-.7 0 -1.5 -.2 -2.2 -.5c-.7 -.3 -1.3 -.7 -1.8 -1.2c-.6 -.5 -1 -1.2 -1.3 -1.9c-.2 -.7 -.4 -1.4 -.4 -2.2c0 -.7 .2 -1.4 .4 -2.1c.3 -.8 .7 -1.4 1.3 -1.9c.5 -.5 1.1 -1 1.8 -1.3c.7 -.2 1.5 -.4 2.2 -.4c.8 0 1.5 .2 2.2 .4c.7 .3 1.4 .8 1.9 1.3c.5 .5 .9 1.1 1.2 1.9c.3 .7 .5 1.4 .5 2.1Z" class="g2_160"/>
<path d="M556.2 608.7c0 .8 -.1 1.5 -.4 2.2c-.3 .7 -.7 1.4 -1.2 1.9c-.6 .5 -1.2 .9 -1.9 1.2c-.7 .3 -1.4 .5 -2.2 .5c-.8 0 -1.5 -.2 -2.2 -.5c-.7 -.3 -1.3 -.7 -1.8 -1.2c-.6 -.5 -1 -1.2 -1.3 -1.9c-.3 -.7 -.4 -1.4 -.4 -2.2c0 -.7 .1 -1.4 .4 -2.1c.3 -.8 .7 -1.4 1.3 -1.9c.5 -.5 1.1 -1 1.8 -1.3c.7 -.2 1.4 -.4 2.2 -.4c.8 0 1.5 .2 2.2 .4c.7 .3 1.3 .8 1.9 1.3c.5 .5 .9 1.1 1.2 1.9c.3 .7 .4 1.4 .4 2.1Z" class="g2_160"/>
</g>
<path d="M86.6 849.8H196.2" class="g4_160"/>
</svg>