<?xml version="1.0" encoding="UTF-8" standalone="no"?>
<!DOCTYPE svg PUBLIC "-//W3C//DTD SVG 1.1//EN"
"http://www.w3.org/Graphics/SVG/1.1/DTD/svg11.dtd">
<svg viewBox="0 0 714 1017" version="1.1" xmlns="http://www.w3.org/2000/svg" xmlns:xlink="http://www.w3.org/1999/xlink">
<defs>
<clipPath id="c0_234"><path d="M87.1 421.2V179.9H649.3V421.2Z"/></clipPath>
<clipPath id="c1_234"><path d="M87.1 421.2V179.8H649.3V421.2Z"/></clipPath>
<style type="text/css"><![CDATA[
.g0_234{
fill: #FFF;
}
.g1_234{
fill: none;
stroke: #000;
stroke-width: 1.145;
stroke-miterlimit: 10;
}
.g2_234{
fill: none;
stroke: #000;
stroke-width: 0.608;
stroke-miterlimit: 10;
}
]]></style>
</defs>
<path d="M0 1017.7H717.2V-3.7H0V1017.7Z" class="g0_234"/>
<g clip-path="url(#c1_234)">
<g clip-path="url(#c0_234)">
<path d="M87.1 179.9H649.7V421.7H87.1V179.9Z" class="g0_234"/>
<path d="M368 180.5h81c.7 0 1.4 .1 2 .4c.7 .3 1.2 .6 1.7 1.1c.5 .5 .9 1.1 1.2 1.8c.3 .6 .4 1.3 .4 2v24.9c0 .7 -.1 1.4 -.4 2c-.3 .7 -.7 1.2 -1.2 1.7c-.5 .5 -1 .9 -1.7 1.2c-.6 .3 -1.3 .4 -2 .4H368c-.7 0 -1.4 -.1 -2.1 -.4c-.6 -.3 -1.2 -.7 -1.7 -1.2c-.5 -.5 -.9 -1 -1.2 -1.7c-.2 -.6 -.4 -1.3 -.4 -2V185.8c0 -.7 .2 -1.4 .4 -2c.3 -.7 .7 -1.3 1.2 -1.8c.5 -.5 1.1 -.8 1.7 -1.1c.7 -.3 1.4 -.4 2.1 -.4ZM213.3 248.1H317.2c.7 0 1.4 .1 2 .4c.7 .3 1.3 .6 1.8 1.1c.5 .5 .9 1.1 1.1 1.8c.3 .6 .4 1.3 .4 2v24.9c0 .7 -.1 1.4 -.4 2c-.2 .7 -.6 1.2 -1.1 1.7c-.5 .5 -1.1 .9 -1.8 1.2c-.6 .3 -1.3 .4 -2 .4H213.3c-.7 0 -1.4 -.1 -2.1 -.4c-.6 -.3 -1.2 -.7 -1.7 -1.2c-.5 -.5 -.9 -1 -1.1 -1.7c-.3 -.6 -.5 -1.3 -.5 -2V253.4c0 -.7 .2 -1.4 .5 -2c.2 -.7 .6 -1.3 1.1 -1.8c.5 -.5 1.1 -.8 1.7 -1.1c.7 -.3 1.4 -.4 2.1 -.4Zm315.1 0h69.5c.7 0 1.4 .1 2.1 .4c.6 .3 1.2 .6 1.7 1.1c.5 .5 .9 1.1 1.2 1.8c.2 .6 .4 1.3 .4 2v24.9c0 .7 -.2 1.4 -.4 2c-.3 .7 -.7 1.2 -1.2 1.7c-.5 .5 -1.1 .9 -1.7 1.2c-.7 .3 -1.4 .4 -2.1 .4H528.4c-.7 0 -1.4 -.1 -2.1 -.4c-.6 -.3 -1.2 -.7 -1.7 -1.2c-.5 -.5 -.9 -1 -1.1 -1.7c-.3 -.6 -.5 -1.3 -.5 -2V253.4c0 -.7 .2 -1.4 .5 -2c.2 -.7 .6 -1.3 1.1 -1.8c.5 -.5 1.1 -.8 1.7 -1.1c.7 -.3 1.4 -.4 2.1 -.4ZM224.7 318h81c.7 0 1.4 .1 2.1 .4c.6 .3 1.2 .6 1.7 1.1c.5 .5 .9 1.1 1.2 1.8c.2 .6 .4 1.3 .4 2v24.9c0 .7 -.2 1.4 -.4 2c-.3 .7 -.7 1.2 -1.2 1.7c-.5 .5 -1.1 .9 -1.7 1.2c-.7 .3 -1.4 .4 -2.1 .4h-81c-.7 0 -1.4 -.1 -2 -.4c-.7 -.3 -1.2 -.7 -1.7 -1.2c-.5 -.5 -.9 -1 -1.2 -1.7c-.3 -.6 -.4 -1.3 -.4 -2V323.3c0 -.7 .1 -1.4 .4 -2c.3 -.7 .7 -1.3 1.2 -1.8c.5 -.5 1 -.8 1.7 -1.1c.6 -.3 1.3 -.4 2 -.4Zm103.2 0h81c.7 0 1.4 .1 2 .4c.7 .3 1.2 .6 1.7 1.1c.5 .5 .9 1.1 1.2 1.8c.3 .6 .4 1.3 .4 2v24.9c0 .7 -.1 1.4 -.4 2c-.3 .7 -.7 1.2 -1.2 1.7c-.5 .5 -1 .9 -1.7 1.2c-.6 .3 -1.3 .4 -2 .4h-81c-.7 0 -1.4 -.1 -2.1 -.4c-.6 -.3 -1.2 -.7 -1.7 -1.2c-.5 -.5 -.9 -1 -1.2 -1.7c-.2 -.6 -.4 -1.3 -.4 -2V323.3c0 -.7 .2 -1.4 .4 -2c.3 -.7 .7 -1.3 1.2 -1.8c.5 -.5 1.1 -.8 1.7 -1.1c.7 -.3 1.4 -.4 2.1 -.4Zm153.3 0h24.1c.7 0 1.3 .1 2 .4c.6 .2 1.2 .6 1.6 1.1c.5 .5 .9 1 1.2 1.7c.2 .6 .3 1.3 .3 1.9v25.2c0 .7 -.1 1.4 -.3 2c-.3 .7 -.7 1.2 -1.2 1.7c-.4 .5 -1 .8 -1.6 1.1c-.7 .3 -1.3 .4 -2 .4H481.2c-.7 0 -1.3 -.1 -1.9 -.4c-.7 -.3 -1.2 -.6 -1.7 -1.1c-.5 -.5 -.9 -1 -1.1 -1.7c-.3 -.6 -.4 -1.3 -.4 -2V323.1c0 -.6 .1 -1.3 .4 -1.9c.2 -.7 .6 -1.2 1.1 -1.7c.5 -.5 1 -.9 1.7 -1.1c.6 -.3 1.2 -.4 1.9 -.4Zm47 0h24.1c.7 0 1.3 .1 1.9 .4c.7 .2 1.2 .6 1.7 1.1c.5 .5 .9 1 1.1 1.7c.3 .6 .4 1.3 .4 1.9v25.2c0 .7 -.1 1.4 -.4 2c-.2 .7 -.6 1.2 -1.1 1.7c-.5 .5 -1 .8 -1.7 1.1c-.6 .3 -1.2 .4 -1.9 .4H528.2c-.7 0 -1.3 -.1 -2 -.4c-.6 -.3 -1.2 -.6 -1.6 -1.1c-.5 -.5 -.9 -1 -1.2 -1.7c-.2 -.6 -.4 -1.3 -.4 -2V323.1c0 -.6 .2 -1.3 .4 -1.9c.3 -.7 .7 -1.2 1.2 -1.7c.4 -.5 1 -.9 1.6 -1.1c.7 -.3 1.3 -.4 2 -.4Zm91.7 0h24c.7 0 1.4 .1 2 .4c.6 .2 1.2 .6 1.7 1.1c.5 .5 .8 1 1.1 1.7c.3 .6 .4 1.3 .4 1.9v25.2c0 .7 -.1 1.4 -.4 2c-.3 .7 -.6 1.2 -1.1 1.7c-.5 .5 -1.1 .8 -1.7 1.1c-.6 .3 -1.3 .4 -2 .4h-24c-.7 0 -1.4 -.1 -2 -.4c-.6 -.3 -1.2 -.6 -1.7 -1.1c-.5 -.5 -.8 -1 -1.1 -1.7c-.3 -.6 -.4 -1.3 -.4 -2V323.1c0 -.6 .1 -1.3 .4 -1.9c.3 -.7 .6 -1.2 1.1 -1.7c.5 -.5 1.1 -.9 1.7 -1.1c.6 -.3 1.3 -.4 2 -.4Zm-509.8 0h92.5c.7 0 1.4 .1 2.1 .4c.6 .3 1.2 .6 1.7 1.1c.5 .5 .9 1.1 1.1 1.8c.3 .6 .4 1.3 .4 2v24.9c0 .7 -.1 1.4 -.4 2c-.2 .7 -.6 1.2 -1.1 1.7c-.5 .5 -1.1 .9 -1.7 1.2c-.7 .3 -1.4 .4 -2.1 .4H110.1c-.7 0 -1.3 -.1 -2 -.4c-.6 -.3 -1.2 -.7 -1.7 -1.2c-.5 -.5 -.9 -1 -1.2 -1.7c-.2 -.6 -.4 -1.3 -.4 -2V323.3c0 -.7 .2 -1.4 .4 -2c.3 -.7 .7 -1.3 1.2 -1.8c.5 -.5 1.1 -.8 1.7 -1.1c.7 -.3 1.3 -.4 2 -.4ZM92.8 386.7h69.9c.7 0 1.3 .2 2 .4c.6 .3 1.1 .7 1.6 1.1c.5 .5 .9 1.1 1.1 1.7c.3 .6 .4 1.3 .4 2v24c0 .7 -.1 1.4 -.4 2c-.2 .7 -.6 1.2 -1.1 1.7c-.5 .5 -1 .9 -1.6 1.1c-.7 .3 -1.3 .4 -2 .4H92.8c-.7 0 -1.4 -.1 -2 -.4c-.6 -.2 -1.2 -.6 -1.7 -1.1c-.4 -.5 -.8 -1 -1.1 -1.7c-.2 -.6 -.4 -1.3 -.4 -2v-24c0 -.7 .2 -1.4 .4 -2c.3 -.6 .7 -1.2 1.1 -1.7c.5 -.4 1.1 -.8 1.7 -1.1c.6 -.2 1.3 -.4 2 -.4Zm91.7 0h69.9c.6 0 1.3 .2 1.9 .4c.7 .3 1.2 .7 1.7 1.1c.5 .5 .9 1.1 1.1 1.7c.3 .6 .4 1.3 .4 2v24c0 .7 -.1 1.4 -.4 2c-.2 .7 -.6 1.2 -1.1 1.7c-.5 .5 -1 .9 -1.7 1.1c-.6 .3 -1.3 .4 -1.9 .4H184.5c-.7 0 -1.4 -.1 -2 -.4c-.6 -.2 -1.2 -.6 -1.7 -1.1c-.5 -.5 -.8 -1 -1.1 -1.7c-.3 -.6 -.4 -1.3 -.4 -2v-24c0 -.7 .1 -1.4 .4 -2c.3 -.6 .6 -1.2 1.1 -1.7c.5 -.4 1.1 -.8 1.7 -1.1c.6 -.2 1.3 -.4 2 -.4Zm91.6 0H346c.7 0 1.4 .2 2 .4c.6 .3 1.2 .7 1.7 1.1c.4 .5 .8 1.1 1.1 1.7c.2 .6 .4 1.3 .4 2v24c0 .7 -.2 1.4 -.4 2c-.3 .7 -.7 1.2 -1.1 1.7c-.5 .5 -1.1 .9 -1.7 1.1c-.6 .3 -1.3 .4 -2 .4H276.1c-.7 0 -1.3 -.1 -2 -.4c-.6 -.2 -1.1 -.6 -1.6 -1.1c-.5 -.5 -.9 -1 -1.1 -1.7c-.3 -.6 -.4 -1.3 -.4 -2v-24c0 -.7 .1 -1.4 .4 -2c.2 -.6 .6 -1.2 1.1 -1.7c.5 -.4 1 -.8 1.6 -1.1c.7 -.2 1.3 -.4 2 -.4ZM265.2 248.1L385.6 216m177.6 32.1L431.4 216m61.9 102l49.8 -34.4M540.2 318l23 -34.4M631.9 318L583.2 283.6M156.4 318l71.8 -34.4m37 34.4V283.6M368.4 318l-68 -34.4M127.7 386.7l91.7 -34m0 34l29.9 -33.2m61.8 33.2L281.2 353.5m86.6 33.2h69.9c.7 0 1.3 .2 2 .4c.6 .3 1.1 .7 1.6 1.1c.5 .5 .9 1.1 1.1 1.7c.3 .6 .4 1.3 .4 2v24c0 .7 -.1 1.4 -.4 2c-.2 .7 -.6 1.2 -1.1 1.7c-.5 .5 -1 .9 -1.6 1.1c-.7 .3 -1.3 .4 -2 .4H367.8c-.7 0 -1.4 -.1 -2 -.4c-.6 -.2 -1.2 -.6 -1.7 -1.1c-.4 -.5 -.8 -1 -1.1 -1.7c-.2 -.6 -.4 -1.3 -.4 -2v-24c0 -.7 .2 -1.4 .4 -2c.3 -.6 .7 -1.2 1.1 -1.7c.5 -.4 1.1 -.8 1.7 -1.1c.6 -.2 1.3 -.4 2 -.4Zm34.9 0l-91.6 -34" class="g1_234"/>
</g>
</g>
<path d="M86.6 832.5H196.2" class="g2_234"/>
</svg>