<?xml version="1.0" encoding="UTF-8" standalone="no"?>
<!DOCTYPE svg PUBLIC "-//W3C//DTD SVG 1.1//EN"
"http://www.w3.org/Graphics/SVG/1.1/DTD/svg11.dtd">
<svg viewBox="0 0 714 1017" version="1.1" xmlns="http://www.w3.org/2000/svg" xmlns:xlink="http://www.w3.org/1999/xlink">
<defs>
<clipPath id="c0_428"><path d="M106.9 390.4V325.1H629.4v65.3Z"/></clipPath>
<clipPath id="c1_428"><path d="M106.9 390.7V325H629.4v65.7Z"/></clipPath>
<style type="text/css"><![CDATA[
.g0_428{
fill: #FFF;
}
.g1_428{
fill: none;
stroke: #000;
stroke-width: 1.145;
stroke-miterlimit: 10;
}
.g2_428{
fill: #000;
}
.g3_428{
fill: none;
stroke: #000;
stroke-width: 0.81;
stroke-miterlimit: 10;
}
]]></style>
</defs>
<path d="M0 1017.7H717.2V-3.7H0V1017.7Z" class="g0_428"/>
<g clip-path="url(#c1_428)">
<path clip-path="url(#c0_428)" d="M106.9 325.1H629.4v65.3H106.9V325.1Z" class="g0_428"/>
<path d="M115.5 344H612.3" class="g1_428"/>
<path d="M618.3 344l-8 2.6l2 -2.6l-2 -2.7l8 2.7Z" class="g2_428"/>
<path d="M618.3 344l-8 2.6l2 -2.6l-2 -2.7l8 2.7Z" class="g1_428"/>
<path d="M338.5 333.3l7 7l7 -7.1l3.5 3.5l-7 7l7 7l-3.5 3.5l-7 -7l-7 7L335 350.8l7 -7.1l-7 -6.9l3.5 -3.5Z" class="g2_428"/>
<path d="M338.5 333.3l7 7l7 -7.1l3.5 3.5l-7 7l7 7l-3.5 3.5l-7 -7l-7 7L335 350.8l7 -7.1l-7 -6.9l3.5 -3.5Z" class="g3_428"/>
<path d="M344.6 344v5.7c0 3.8 -3.8 5.7 -11.4 5.7H264.4c-7.6 0 -11.4 1.9 -11.4 5.8V364c0 1.9 0 1 0 -2.8v-2.9c0 -1.9 -3.9 -2.9 -11.5 -2.9H172.7c-7.6 0 -11.4 -1.9 -11.4 -5.7V344M528 344v5.7c0 3.8 -3.9 5.7 -11.5 5.7H447.7c-7.6 0 -11.4 1.9 -11.4 5.8V364c0 1.9 0 1 0 -2.8v-2.9c0 -1.9 -3.8 -2.9 -11.5 -2.9H356.1c-7.7 0 -11.5 -1.9 -11.5 -5.7V344" class="g1_428"/>
</g>
</svg>