<?xml version="1.0" encoding="UTF-8" standalone="no"?>
<!DOCTYPE svg PUBLIC "-//W3C//DTD SVG 1.1//EN"
"http://www.w3.org/Graphics/SVG/1.1/DTD/svg11.dtd">
<svg viewBox="0 0 714 1017" version="1.1" xmlns="http://www.w3.org/2000/svg" xmlns:xlink="http://www.w3.org/1999/xlink">
<defs>
<clipPath id="c0_385"><path d="M65 661.9V503.8H639V661.9Z"/></clipPath>
<clipPath id="c1_385"><path d="M65 662.5V503.7H640.9V662.5Z"/></clipPath>
<style type="text/css"><![CDATA[
.g0_385{
fill: #FFF;
}
.g1_385{
fill: none;
stroke: #000;
stroke-width: 2.291;
stroke-miterlimit: 10;
}
.g2_385{
fill: #000;
}
.g3_385{
fill: none;
stroke: #000;
stroke-width: 1.145;
stroke-miterlimit: 10;
}
]]></style>
</defs>
<path d="M0 1017.7H717.2V-3.7H0V1017.7Z" class="g0_385"/>
<g clip-path="url(#c1_385)">
<path clip-path="url(#c0_385)" d="M65 503.8H639V661.9H65V503.8Z" class="g0_385"/>
<path d="M77 620.1H615.8" class="g1_385"/>
<path d="M624.4 620.1L613 623.9l2.8 -3.8L613 616.3l11.4 3.8Z" class="g2_385"/>
<path d="M624.4 620.1L613 623.9l2.8 -3.8L613 616.3l11.4 3.8ZM99.9 616.6V528.4c0 -7.6 3.8 -11.5 11.5 -11.5l263.5 -1.1" class="g1_385"/>
<path d="M103.3 620.1c0 .4 0 .9 -.2 1.3c-.2 .4 -.4 .8 -.8 1.1c-.3 .3 -.7 .6 -1.1 .8c-.4 .1 -.8 .2 -1.3 .2c-.4 0 -.9 -.1 -1.3 -.2c-.4 -.2 -.8 -.5 -1.1 -.8c-.3 -.3 -.6 -.7 -.8 -1.1c-.1 -.4 -.2 -.9 -.2 -1.3c0 -.5 .1 -.9 .2 -1.3c.2 -.5 .5 -.8 .8 -1.1c.3 -.4 .7 -.6 1.1 -.8c.4 -.2 .9 -.3 1.3 -.3c.5 0 .9 .1 1.3 .3c.4 .2 .8 .4 1.1 .8c.4 .3 .6 .6 .8 1.1c.2 .4 .2 .8 .2 1.3Z" class="g2_385"/>
<path d="M103.3 620.1c0 .4 0 .9 -.2 1.3c-.2 .4 -.4 .8 -.8 1.1c-.3 .3 -.7 .6 -1.1 .8c-.4 .1 -.8 .2 -1.3 .2c-.4 0 -.9 -.1 -1.3 -.2c-.4 -.2 -.8 -.5 -1.1 -.8c-.3 -.3 -.6 -.7 -.8 -1.1c-.1 -.4 -.2 -.9 -.2 -1.3c0 -.5 .1 -.9 .2 -1.3c.2 -.5 .5 -.8 .8 -1.1c.3 -.4 .7 -.6 1.1 -.8c.4 -.2 .9 -.3 1.3 -.3c.5 0 .9 .1 1.3 .3c.4 .2 .8 .4 1.1 .8c.4 .3 .6 .6 .8 1.1c.2 .4 .2 .8 .2 1.3Zm13.8 -3.5V557.1c0 -7.7 3.8 -11.5 11.5 -11.5H346.3" class="g1_385"/>
<path d="M120.5 620.1c0 .4 -.1 .9 -.2 1.3c-.2 .4 -.5 .8 -.8 1.1c-.3 .3 -.7 .6 -1.1 .8c-.4 .1 -.8 .2 -1.3 .2c-.5 0 -.9 -.1 -1.3 -.2c-.4 -.2 -.8 -.5 -1.1 -.8c-.4 -.3 -.6 -.7 -.8 -1.1c-.2 -.4 -.2 -.9 -.2 -1.3c0 -.5 0 -.9 .2 -1.3c.2 -.5 .4 -.8 .8 -1.1c.3 -.4 .7 -.6 1.1 -.8c.4 -.2 .8 -.3 1.3 -.3c.5 0 .9 .1 1.3 .3c.4 .2 .8 .4 1.1 .8c.3 .3 .6 .6 .8 1.1c.1 .4 .2 .8 .2 1.3Z" class="g2_385"/>
<path d="M120.5 620.1c0 .4 -.1 .9 -.2 1.3c-.2 .4 -.5 .8 -.8 1.1c-.3 .3 -.7 .6 -1.1 .8c-.4 .1 -.8 .2 -1.3 .2c-.5 0 -.9 -.1 -1.3 -.2c-.4 -.2 -.8 -.5 -1.1 -.8c-.4 -.3 -.6 -.7 -.8 -1.1c-.2 -.4 -.2 -.9 -.2 -1.3c0 -.5 0 -.9 .2 -1.3c.2 -.5 .4 -.8 .8 -1.1c.3 -.4 .7 -.6 1.1 -.8c.4 -.2 .8 -.3 1.3 -.3c.5 0 .9 .1 1.3 .3c.4 .2 .8 .4 1.1 .8c.3 .3 .6 .6 .8 1.1c.1 .4 .2 .8 .2 1.3Zm221.2 -3.5V585.7c0 -7.6 3.8 -11.5 11.4 -11.5h23" class="g1_385"/>
<path d="M345.1 620.1c0 .4 -.1 .9 -.2 1.3c-.2 .4 -.5 .8 -.8 1.1c-.3 .3 -.7 .6 -1.1 .8c-.4 .1 -.9 .2 -1.3 .2c-.5 0 -.9 -.1 -1.3 -.2c-.5 -.2 -.8 -.5 -1.2 -.8c-.3 -.3 -.5 -.7 -.7 -1.1c-.2 -.4 -.3 -.9 -.3 -1.3c0 -.5 .1 -.9 .3 -1.3c.2 -.5 .4 -.8 .7 -1.1c.4 -.4 .7 -.6 1.2 -.8c.4 -.2 .8 -.3 1.3 -.3c.4 0 .9 .1 1.3 .3c.4 .2 .8 .4 1.1 .8c.3 .3 .6 .6 .8 1.1c.1 .4 .2 .8 .2 1.3Z" class="g2_385"/>
<path d="M345.1 620.1c0 .4 -.1 .9 -.2 1.3c-.2 .4 -.5 .8 -.8 1.1c-.3 .3 -.7 .6 -1.1 .8c-.4 .1 -.9 .2 -1.3 .2c-.5 0 -.9 -.1 -1.3 -.2c-.5 -.2 -.8 -.5 -1.2 -.8c-.3 -.3 -.5 -.7 -.7 -1.1c-.2 -.4 -.3 -.9 -.3 -1.3c0 -.5 .1 -.9 .3 -1.3c.2 -.5 .4 -.8 .7 -1.1c.4 -.4 .7 -.6 1.2 -.8c.4 -.2 .8 -.3 1.3 -.3c.4 0 .9 .1 1.3 .3c.4 .2 .8 .4 1.1 .8c.3 .3 .6 .6 .8 1.1c.1 .4 .2 .8 .2 1.3Zm17.2 -3.5v-9.7c0 -6.5 3.8 -9.7 11.5 -9.7h11.4" class="g1_385"/>
<path d="M365.7 620.1c0 .4 0 .9 -.2 1.3c-.2 .4 -.4 .8 -.8 1.1c-.3 .3 -.7 .6 -1.1 .8c-.4 .1 -.8 .2 -1.3 .2c-.5 0 -.9 -.1 -1.3 -.2c-.4 -.2 -.8 -.5 -1.1 -.8c-.3 -.3 -.6 -.7 -.8 -1.1c-.1 -.4 -.2 -.9 -.2 -1.3c0 -.5 .1 -.9 .2 -1.3c.2 -.5 .5 -.8 .8 -1.1c.3 -.4 .7 -.6 1.1 -.8c.4 -.2 .8 -.3 1.3 -.3c.5 0 .9 .1 1.3 .3c.4 .2 .8 .4 1.1 .8c.4 .3 .6 .6 .8 1.1c.2 .4 .2 .8 .2 1.3Z" class="g2_385"/>
<path d="M365.7 620.1c0 .4 0 .9 -.2 1.3c-.2 .4 -.4 .8 -.8 1.1c-.3 .3 -.7 .6 -1.1 .8c-.4 .1 -.8 .2 -1.3 .2c-.5 0 -.9 -.1 -1.3 -.2c-.4 -.2 -.8 -.5 -1.1 -.8c-.3 -.3 -.6 -.7 -.8 -1.1c-.1 -.4 -.2 -.9 -.2 -1.3c0 -.5 .1 -.9 .2 -1.3c.2 -.5 .5 -.8 .8 -1.1c.3 -.4 .7 -.6 1.1 -.8c.4 -.2 .8 -.3 1.3 -.3c.5 0 .9 .1 1.3 .3c.4 .2 .8 .4 1.1 .8c.4 .3 .6 .6 .8 1.1c.2 .4 .2 .8 .2 1.3Z" class="g1_385"/>
<path d="M99.9 642.3V619.4m241.9 22.9V619.4M107.2 642.3l228.3 -.4" class="g3_385"/>
<path d="M101.2 642.3l8 -2.6l-2 2.6l2 2.7l-8 -2.7Z" class="g2_385"/>
<path d="M101.2 642.3l8 -2.6l-2 2.6l2 2.7l-8 -2.7Z" class="g3_385"/>
<path d="M341.5 641.9l-8 2.6l2 -2.6l-2 -2.7l8 2.7Z" class="g2_385"/>
<path d="M341.5 641.9l-8 2.6l2 -2.6l-2 -2.7l8 2.7Z" class="g3_385"/>
<path d="M150.3 635H293.6v17.2H150.3V635Z" class="g0_385"/>
<path d="M362.8 642.3V619.4m-21.1 22.5h21.8m6.1 -.1h14.5" class="g3_385"/>
<path d="M363.6 641.8l8 -2.7l-2 2.7l2 2.6l-8 -2.6Z" class="g2_385"/>
<path d="M363.6 641.8l8 -2.7l-2 2.7l2 2.6l-8 -2.6Z" class="g3_385"/>
</g>
</svg>