<?xml version="1.0" encoding="UTF-8" standalone="no"?>
<!DOCTYPE svg PUBLIC "-//W3C//DTD SVG 1.1//EN"
"http://www.w3.org/Graphics/SVG/1.1/DTD/svg11.dtd">
<svg viewBox="0 0 714 1017" version="1.1" xmlns="http://www.w3.org/2000/svg" xmlns:xlink="http://www.w3.org/1999/xlink">
<defs>
<clipPath id="c0_113"><path d="M66.1 833.7V629.1H626.5V833.7Z"/></clipPath>
<clipPath id="c1_113"><path d="M228.8 546.3V428.6H465.6V546.3Z"/></clipPath>
<clipPath id="c2_113"><path d="M66.1 833.7V629H626.8V833.7Z"/></clipPath>
<style type="text/css"><![CDATA[
.g0_113{
fill: #FFF;
}
.g1_113{
fill: none;
stroke: #000;
stroke-width: 1.145;
stroke-miterlimit: 10;
}
.g2_113{
fill: #000;
}
]]></style>
</defs>
<path d="M0 1017.7H717.2V-3.7H0V1017.7Z" class="g0_113"/>
<g clip-path="url(#c1_113)">
<path d="M228.8 430H463.7V545.8H228.8V430Z" class="g0_113"/>
<path d="M269.3 499.3H424v23H269.3v-23Zm0 -22.9H424v22.9H269.3V476.4Zm0 45.9H424v22.9H269.3V522.3Zm0 -68.8H424v22.9H269.3V453.5Z" class="g1_113"/>
</g>
<g clip-path="url(#c2_113)">
<path clip-path="url(#c0_113)" d="M66.1 629.1H626.5V834.2H66.1V629.1Z" class="g0_113"/>
<path d="M370.4 744.2H553.7v23H370.4v-23Zm0 -22.9H553.7v22.9H370.4V721.3Zm0 45.9H553.7v22.9H370.4V767.2Zm0 -68.8H553.7v22.9H370.4V698.4Zm0 -22.9H553.7v22.9H370.4V675.5Zm0 -22.9H553.7v22.9H370.4V652.6ZM146.9 675.5h34.4v68.7H146.9V675.5Zm34.4 0h34.4v68.7H181.3V675.5ZM164.1 790.1V813c0 7.6 3.8 11.4 11.5 11.4H605.3c7.6 0 11.4 -3.8 11.4 -11.4V675.5c0 -7.7 -3.8 -11.5 -11.4 -11.5H589.6" class="g1_113"/>
<path d="M583.6 664l8 -2.6l-2 2.6l2 2.7l-8 -2.7Z" class="g2_113"/>
<path d="M583.6 664l8 -2.6l-2 2.6l2 2.7l-8 -2.7ZM198.5 790.1v11.4c0 7.7 3.8 11.5 11.4 11.5H593.8c7.6 0 11.5 -3.8 11.5 -11.5V698.4c0 -7.6 -2.6 -11.5 -7.9 -11.5h-7.8" class="g1_113"/>
<path d="M583.6 686.9l8 -2.6l-2 2.6l2 2.7l-8 -2.7Z" class="g2_113"/>
<path d="M583.6 686.9l8 -2.6l-2 2.6l2 2.7l-8 -2.7Z" class="g1_113"/>
</g>
</svg>