<?xml version="1.0" encoding="UTF-8" standalone="no"?>
<!DOCTYPE svg PUBLIC "-//W3C//DTD SVG 1.1//EN"
"http://www.w3.org/Graphics/SVG/1.1/DTD/svg11.dtd">
<svg viewBox="0 0 714 1017" version="1.1" xmlns="http://www.w3.org/2000/svg" xmlns:xlink="http://www.w3.org/1999/xlink">
<defs>
<clipPath id="c0_131"><path d="M111.2 564.5V150.9H581.8V564.5Z"/></clipPath>
<clipPath id="c1_131"><path d="M111.2 564.9V150.8H581.8V564.9Z"/></clipPath>
<style type="text/css"><![CDATA[
.g0_131{
fill: #FFF;
}
.g1_131{
fill: #000;
}
.g2_131{
fill: none;
stroke: #000;
stroke-width: 1.145;
stroke-miterlimit: 10;
}
]]></style>
</defs>
<path d="M0 1017.7H717.2V-3.7H0V1017.7Z" class="g0_131"/>
<g clip-path="url(#c1_131)">
<path clip-path="url(#c0_131)" d="M111.2 150.9h471V564.5h-471V150.9Z" class="g0_131"/>
<path d="M539.1 364.5c0 1.2 -.1 2.3 -.2 3.5l-1.1 -.1c.1 -1.1 .1 -2.3 .1 -3.4h1.2Zm-.4 6.9c0 1.2 -.1 2.4 -.2 3.5l-1.2 -.1c.1 -1.1 .2 -2.3 .3 -3.4h1.1Zm-.6 6.9c-.1 1.2 -.2 2.3 -.4 3.4l-1.1 -.1c.1 -1.1 .3 -2.3 .4 -3.4l1.1 .1Zm-.8 6.8c-.2 1.2 -.3 2.3 -.5 3.5l-1.1 -.2c.1 -1.1 .3 -2.3 .5 -3.4l1.1 .1Zm-1.1 6.9c-.2 1.1 -.4 2.3 -.6 3.4l-1.1 -.2c.2 -1.1 .4 -2.3 .6 -3.4l1.1 .2Zm-1.3 6.8c-.2 1.1 -.5 2.2 -.7 3.3l-1.2 -.2c.3 -1.2 .5 -2.3 .8 -3.4l1.1 .3Zm-1.5 6.7c-.3 1.1 -.6 2.2 -.9 3.3l-1.1 -.3c.3 -1.1 .6 -2.2 .8 -3.3l1.2 .3Zm-1.8 6.7c-.4 1.1 -.7 2.2 -1 3.3l-1.1 -.4c.3 -1.1 .6 -2.1 1 -3.2l1.1 .3Zm-2 6.5c-.4 1.1 -.8 2.2 -1.1 3.3l-1.1 -.4c.4 -1.1 .7 -2.1 1.1 -3.2l1.1 .3Zm-2.3 6.6c-.4 1.1 -.8 2.1 -1.2 3.2l-1.1 -.4c.4 -1.1 .8 -2.1 1.2 -3.2l1.1 .4Zm-2.5 6.4c-.4 1.1 -.8 2.1 -1.3 3.2l-1 -.4c.4 -1.1 .8 -2.1 1.3 -3.2l1 .4Zm-2.7 6.4c-.4 1 -.9 2 -1.4 3.1l-1 -.5c.5 -1 .9 -2.1 1.4 -3.1l1 .5Zm-2.9 6.2c-.5 1.1 -1 2.1 -1.5 3.1l-1 -.5c.5 -1 1 -2.1 1.5 -3.1l1 .5Zm-3.1 6.2c-.5 1 -1.1 2 -1.6 3l-1 -.6c.5 -1 1 -2 1.6 -3l1 .6Zm-3.3 6c-.6 1 -1.2 2 -1.8 3l-1 -.6c.6 -1 1.2 -2 1.8 -3l1 .6Zm-3.6 5.9c-.6 1 -1.2 2 -1.9 2.9l-.9 -.6c.6 -.9 1.2 -1.9 1.8 -2.9l1 .6Zm-3.8 5.8c-.6 1 -1.3 1.9 -1.9 2.9l-.9 -.7c.6 -.9 1.3 -1.9 1.9 -2.8l.9 .6Zm-3.9 5.7c-.7 .9 -1.4 1.8 -2.1 2.7l-.9 -.7c.7 -.9 1.4 -1.8 2.1 -2.7l.9 .7Zm-4.2 5.5c-.7 .9 -1.4 1.8 -2.1 2.7l-.9 -.7c.7 -.9 1.4 -1.8 2.1 -2.7l.9 .7Zm-4.3 5.3c-.7 .9 -1.5 1.8 -2.2 2.7l-.9 -.8c.7 -.8 1.5 -1.7 2.2 -2.6l.9 .7Zm-4.5 5.2c-.8 .9 -1.6 1.7 -2.4 2.6l-.8 -.8c.8 -.8 1.6 -1.7 2.3 -2.5l.9 .7Zm-4.7 5.1c-.8 .8 -1.6 1.6 -2.5 2.5l-.8 -.9c.8 -.8 1.6 -1.6 2.4 -2.4l.9 .8Zm-4.9 4.9c-.8 .8 -1.7 1.6 -2.5 2.4l-.8 -.9c.8 -.8 1.7 -1.6 2.5 -2.3l.8 .8Zm-5.1 4.7c-.8 .8 -1.7 1.5 -2.5 2.3l-.8 -.9c.9 -.7 1.7 -1.5 2.6 -2.3l.7 .9Zm-5.2 4.5c-.8 .7 -1.7 1.5 -2.6 2.2l-.7 -.9c.8 -.7 1.7 -1.4 2.6 -2.2l.7 .9Zm-5.3 4.4c-.9 .7 -1.9 1.4 -2.8 2.1l-.7 -1c1 -.6 1.9 -1.3 2.8 -2l.7 .9Zm-5.5 4.1c-1 .7 -1.9 1.4 -2.9 2l-.6 -.9c.9 -.7 1.9 -1.3 2.8 -2l.7 .9Zm-5.7 4c-.9 .6 -1.9 1.2 -2.9 1.9l-.6 -1c1 -.6 1.9 -1.2 2.9 -1.9l.6 1Zm-5.8 3.7c-1 .6 -1.9 1.2 -2.9 1.8l-.6 -.9c1 -.6 1.9 -1.2 2.9 -1.8l.6 .9Zm-5.9 3.6c-1 .6 -2 1.1 -3 1.7l-.6 -1c1 -.6 2 -1.1 3 -1.7l.6 1Zm-6 3.3c-1 .6 -2.1 1.1 -3.1 1.6l-.5 -1c1 -.5 2 -1.1 3 -1.6l.6 1Zm-6.2 3.2c-1 .5 -2.1 1 -3.1 1.5l-.5 -1.1c1 -.5 2.1 -1 3.1 -1.5l.5 1.1Zm-6.2 2.9c-1.1 .4 -2.1 .9 -3.2 1.4l-.4 -1.1c1 -.4 2.1 -.9 3.1 -1.4l.5 1.1Zm-6.4 2.7c-1 .4 -2.1 .8 -3.2 1.2l-.4 -1c1.1 -.4 2.1 -.9 3.2 -1.3l.4 1.1Zm-6.4 2.5c-1.1 .3 -2.2 .7 -3.3 1.1l-.4 -1.1c1.1 -.3 2.2 -.7 3.3 -1.1l.4 1.1Zm-6.6 2.2c-1 .4 -2.1 .7 -3.2 1l-.4 -1.1c1.1 -.3 2.2 -.6 3.3 -1l.3 1.1Zm-6.5 2c-1.1 .3 -2.2 .6 -3.4 .9l-.3 -1.1c1.2 -.3 2.3 -.6 3.4 -.9l.3 1.1Zm-6.7 1.8c-1.1 .3 -2.3 .6 -3.4 .8l-.2 -1.1c1.1 -.3 2.2 -.5 3.3 -.8l.3 1.1Zm-6.7 1.6c-1.2 .2 -2.3 .4 -3.4 .6l-.2 -1.1c1.1 -.2 2.2 -.4 3.3 -.7l.3 1.2Zm-6.8 1.3c-1.1 .2 -2.3 .4 -3.4 .5l-.2 -1.1c1.1 -.2 2.3 -.4 3.4 -.6l.2 1.2Zm-6.8 1.1c-1.2 .1 -2.3 .3 -3.5 .4l-.1 -1.1c1.1 -.2 2.3 -.3 3.4 -.5l.2 1.2Zm-6.9 .8c-1.1 .1 -2.2 .2 -3.4 .3l-.1 -1.1c1.2 -.1 2.3 -.2 3.4 -.3l.1 1.1Zm-6.8 .6c-1.2 .1 -2.3 .1 -3.5 .2l-.1 -1.1c1.2 -.1 2.3 -.2 3.5 -.2l.1 1.1Zm-6.9 .4c-1.2 0 -2.3 0 -3.5 0v-1.1c1.1 0 2.3 0 3.4 -.1l.1 1.2Zm-6.9 .1v0c-1.2 0 -2.3 0 -3.4 -.1v-1.1c1.2 0 2.3 0 3.4 0v1.2Zm-6.8 -.1c-1.1 -.1 -2.3 -.1 -3.4 -.2V554c1.2 0 2.3 .1 3.4 .1v1.2Zm-6.9 -.4c-1.2 -.1 -2.3 -.2 -3.5 -.3l.1 -1.1c1.2 .1 2.3 .2 3.5 .3l-.1 1.1Zm-6.9 -.6c-1.1 -.1 -2.3 -.2 -3.4 -.4l.2 -1.1c1.1 .1 2.2 .2 3.3 .4l-.1 1.1Zm-6.8 -.8c-1.1 -.2 -2.3 -.4 -3.4 -.5l.2 -1.2c1.1 .2 2.2 .4 3.4 .5l-.2 1.2Zm-6.9 -1.1c-1.1 -.2 -2.2 -.4 -3.4 -.6l.3 -1.2c1.1 .3 2.2 .5 3.3 .7l-.2 1.1Zm-6.7 -1.3c-1.1 -.3 -2.2 -.5 -3.4 -.8l.3 -1.1c1.1 .3 2.2 .5 3.3 .8l-.2 1.1Zm-6.7 -1.6c-1.1 -.2 -2.3 -.5 -3.4 -.8l.3 -1.1c1.1 .3 2.2 .6 3.4 .8l-.3 1.1Zm-6.7 -1.8c-1.1 -.3 -2.2 -.6 -3.3 -.9l.3 -1.1c1.1 .3 2.2 .6 3.3 .9l-.3 1.1Zm-6.6 -2c-1.1 -.3 -2.2 -.7 -3.3 -1l.4 -1.1c1.1 .3 2.2 .7 3.3 1.1l-.4 1Zm-6.5 -2.2c-1.1 -.4 -2.2 -.8 -3.3 -1.2l.4 -1.1c1.1 .4 2.2 .8 3.3 1.2l-.4 1.1ZM267.6 541c-1 -.4 -2.1 -.8 -3.2 -1.3l.5 -1c1 .4 2.1 .8 3.1 1.3l-.4 1Zm-6.3 -2.7c-1.1 -.4 -2.1 -.9 -3.1 -1.4l.4 -1c1.1 .5 2.1 .9 3.2 1.4l-.5 1ZM255 535.4c-1 -.5 -2 -1 -3.1 -1.5l.5 -1c1.1 .5 2.1 1 3.1 1.5l-.5 1Zm-6.1 -3.1c-1 -.5 -2.1 -1.1 -3.1 -1.6l.6 -1c1 .5 2 1 3 1.6l-.5 1ZM242.8 529c-1 -.6 -1.9 -1.2 -2.9 -1.8l.6 -1c.9 .6 1.9 1.2 2.9 1.8l-.6 1Zm-5.9 -3.6c-1 -.6 -1.9 -1.2 -2.9 -1.9l.6 -.9c1 .6 2 1.2 2.9 1.8l-.6 1Zm-5.8 -3.7c-.9 -.7 -1.9 -1.3 -2.8 -2l.6 -.9c1 .6 1.9 1.3 2.9 1.9l-.7 1Zm-5.6 -4c-1 -.7 -1.9 -1.4 -2.8 -2l.7 -1c.9 .7 1.8 1.4 2.8 2.1l-.7 .9ZM220 513.6c-.9 -.8 -1.8 -1.5 -2.7 -2.2l.7 -.9c.9 .7 1.8 1.4 2.7 2.1l-.7 1Zm-5.4 -4.4c-.9 -.7 -1.8 -1.5 -2.6 -2.2l.7 -.9c.9 .8 1.8 1.5 2.6 2.2l-.7 .9Zm-5.2 -4.5c-.9 -.8 -1.7 -1.6 -2.6 -2.3l.8 -.9c.9 .8 1.7 1.6 2.6 2.3l-.8 .9ZM204.3 500c-.8 -.8 -1.6 -1.6 -2.4 -2.4l.8 -.8c.8 .8 1.6 1.6 2.4 2.4l-.8 .8Zm-4.8 -4.9c-.8 -.8 -1.6 -1.7 -2.4 -2.5l.8 -.8c.8 .9 1.6 1.7 2.4 2.5l-.8 .8Zm-4.8 -5c-.7 -.9 -1.5 -1.8 -2.2 -2.6l.8 -.8c.8 .9 1.5 1.7 2.3 2.6l-.9 .8Zm-4.5 -5.2c-.7 -.9 -1.5 -1.8 -2.2 -2.7l.9 -.7c.7 .9 1.5 1.7 2.2 2.6l-.9 .8Zm-4.3 -5.4c-.7 -.9 -1.4 -1.8 -2.1 -2.7l.9 -.7c.7 .9 1.4 1.8 2.1 2.7l-.9 .7ZM181.7 474c-.7 -.9 -1.3 -1.9 -2 -2.8l.9 -.7c.7 1 1.4 1.9 2 2.8l-.9 .7Zm-3.9 -5.7c-.7 -.9 -1.3 -1.9 -1.9 -2.8l.9 -.7c.6 1 1.3 2 1.9 2.9l-.9 .6ZM174 462.6c-.6 -1 -1.2 -2 -1.8 -3l1 -.6c.6 1 1.1 2 1.8 2.9l-1 .7Zm-3.6 -6c-.5 -1 -1.1 -2 -1.7 -3l1 -.5c.6 1 1.1 2 1.7 3l-1 .5Zm-3.3 -6c-.6 -1 -1.1 -2 -1.6 -3l1 -.6c.5 1.1 1.1 2.1 1.6 3.1l-1 .5Zm-3.2 -6.1c-.5 -1.1 -1 -2.1 -1.4 -3.2l1 -.5c.5 1.1 1 2.1 1.5 3.2l-1.1 .5ZM161 438.2c-.4 -1.1 -.9 -2.1 -1.4 -3.2l1.1 -.4c.4 1 .9 2.1 1.4 3.1l-1.1 .5Zm-2.7 -6.3c-.4 -1.1 -.8 -2.2 -1.2 -3.2l1 -.4c.4 1 .9 2.1 1.3 3.1l-1.1 .5Zm-2.5 -6.5c-.3 -1.1 -.7 -2.2 -1.1 -3.3l1.1 -.3c.3 1.1 .7 2.1 1.1 3.2l-1.1 .4Zm-2.2 -6.5c-.4 -1.1 -.7 -2.2 -1 -3.3l1.1 -.3c.3 1.1 .6 2.1 1 3.2l-1.1 .4Zm-2 -6.6c-.3 -1.1 -.6 -2.2 -.9 -3.3l1.1 -.3c.3 1.1 .6 2.2 .9 3.3l-1.1 .3Zm-1.8 -6.7c-.3 -1.1 -.6 -2.2 -.8 -3.3l1.1 -.3c.3 1.1 .5 2.2 .8 3.3l-1.1 .3Zm-1.6 -6.7c-.2 -1.1 -.4 -2.2 -.6 -3.3l1.1 -.3c.2 1.1 .4 2.3 .7 3.4l-1.2 .2Zm-1.3 -6.7c-.2 -1.2 -.4 -2.3 -.6 -3.5l1.2 -.2c.2 1.2 .3 2.3 .5 3.5l-1.1 .2Zm-1.1 -6.9c-.1 -1.1 -.3 -2.3 -.4 -3.4l1.1 -.2c.2 1.2 .3 2.3 .5 3.4l-1.2 .2Zm-.8 -6.8c-.1 -1.1 -.2 -2.3 -.3 -3.4l1.1 -.1c.1 1.1 .2 2.2 .3 3.4l-1.1 .1Zm-.6 -6.9c-.1 -1.1 -.2 -2.3 -.2 -3.5h1.1c.1 1.1 .1 2.3 .2 3.4l-1.1 .1Zm-.4 -6.9c0 -1.1 -.1 -2.3 -.1 -3.4h1.2c0 1.1 0 2.2 .1 3.4H144Zm-.1 -6.8v-.2c0 -1.1 0 -2.1 0 -3.2h1.2c0 1.1 -.1 2.1 -.1 3.2v.2h-1.1Zm.1 -6.8c0 -1.2 .1 -2.3 .2 -3.5l1.1 .1c-.1 1.1 -.1 2.3 -.1 3.4H144Zm.4 -7c0 -1.1 .1 -2.3 .2 -3.4l1.2 .1c-.1 1.1 -.2 2.3 -.3 3.4l-1.1 -.1Zm.6 -6.8c.1 -1.2 .2 -2.3 .3 -3.4l1.2 .1c-.2 1.1 -.3 2.2 -.4 3.4l-1.1 -.1Zm.8 -6.9c.1 -1.1 .3 -2.2 .5 -3.4l1.1 .2c-.2 1.1 -.3 2.3 -.5 3.4l-1.1 -.2Zm1.1 -6.8c.2 -1.1 .4 -2.3 .6 -3.4l1.1 .2c-.2 1.1 -.4 2.3 -.6 3.4l-1.1 -.2Zm1.3 -6.8c.2 -1.1 .5 -2.2 .7 -3.3l1.1 .2c-.2 1.2 -.5 2.3 -.7 3.4l-1.1 -.3Zm1.5 -6.7c.3 -1.1 .6 -2.2 .9 -3.3l1.1 .3c-.3 1.1 -.6 2.2 -.9 3.3l-1.1 -.3Zm1.8 -6.7c.3 -1.1 .6 -2.2 1 -3.3l1.1 .4c-.4 1 -.7 2.1 -1 3.2l-1.1 -.3Zm2 -6.5c.4 -1.1 .7 -2.2 1.1 -3.3l1.1 .4c-.4 1 -.8 2.1 -1.1 3.2l-1.1 -.3Zm2.2 -6.6c.4 -1.1 .8 -2.1 1.3 -3.2l1 .4c-.4 1.1 -.8 2.1 -1.2 3.2l-1.1 -.4Zm2.5 -6.4c.4 -1.1 .9 -2.2 1.3 -3.2l1.1 .4c-.5 1.1 -.9 2.1 -1.3 3.2l-1.1 -.4Zm2.7 -6.4c.5 -1 .9 -2.1 1.4 -3.1l1.1 .5c-.5 1 -1 2 -1.5 3.1l-1 -.5Zm2.9 -6.2c.5 -1.1 1 -2.1 1.6 -3.1l1 .5c-.5 1 -1.1 2 -1.6 3.1l-1 -.5Zm3.1 -6.2c.6 -1 1.1 -2 1.7 -3l1 .5c-.6 1 -1.1 2 -1.6 3l-1.1 -.5Zm3.4 -6c.5 -1 1.1 -2 1.7 -3l1 .6c-.6 1 -1.2 2 -1.7 3l-1 -.6Zm3.5 -5.9c.6 -1 1.3 -2 1.9 -3l.9 .7c-.6 .9 -1.2 1.9 -1.8 2.9l-1 -.6Zm3.8 -5.8c.6 -1 1.3 -1.9 1.9 -2.9l1 .7c-.7 .9 -1.3 1.8 -2 2.8l-.9 -.6Zm3.9 -5.7c.7 -.9 1.4 -1.8 2.1 -2.8l.9 .7c-.7 .9 -1.4 1.9 -2 2.8l-1 -.7Zm4.2 -5.5c.7 -.9 1.4 -1.8 2.1 -2.7l.9 .7c-.7 .9 -1.4 1.8 -2.1 2.7l-.9 -.7Zm4.3 -5.4c.8 -.9 1.5 -1.7 2.2 -2.6l.9 .7c-.7 .9 -1.5 1.8 -2.2 2.7l-.9 -.8Zm4.5 -5.2c.8 -.8 1.6 -1.7 2.4 -2.5l.8 .7c-.8 .9 -1.6 1.7 -2.3 2.6l-.9 -.8Zm4.7 -5c.8 -.9 1.6 -1.7 2.5 -2.5l.8 .8c-.8 .8 -1.6 1.6 -2.4 2.5l-.9 -.8Zm4.9 -4.9c.8 -.8 1.7 -1.6 2.5 -2.4l.8 .8c-.8 .8 -1.7 1.6 -2.5 2.4l-.8 -.8Zm5.1 -4.7c.8 -.8 1.7 -1.6 2.5 -2.3l.8 .8c-.9 .8 -1.7 1.5 -2.6 2.3l-.7 -.8Zm5.2 -4.6c.8 -.7 1.7 -1.4 2.6 -2.2l.7 .9c-.9 .7 -1.7 1.5 -2.6 2.2l-.7 -.9Zm5.3 -4.3c.9 -.7 1.8 -1.4 2.8 -2.1l.6 .9c-.9 .7 -1.8 1.4 -2.7 2.1l-.7 -.9Zm5.5 -4.2c1 -.7 1.9 -1.3 2.8 -2l.7 1c-.9 .6 -1.9 1.3 -2.8 1.9l-.7 -.9Zm5.7 -3.9c.9 -.7 1.9 -1.3 2.8 -1.9l.7 .9c-1 .6 -1.9 1.3 -2.9 1.9l-.6 -.9Zm5.8 -3.8c.9 -.6 1.9 -1.2 2.9 -1.8l.6 1c-1 .6 -2 1.2 -2.9 1.8l-.6 -1Zm5.9 -3.6c1 -.5 2 -1.1 3 -1.7l.5 1c-1 .6 -2 1.2 -3 1.7l-.5 -1Zm6 -3.3c1 -.5 2 -1.1 3 -1.6l.6 1c-1.1 .5 -2.1 1.1 -3.1 1.6l-.5 -1Zm6.1 -3.2c1.1 -.5 2.1 -1 3.2 -1.4l.5 1c-1.1 .5 -2.1 1 -3.2 1.5l-.5 -1.1Zm6.3 -2.9c1.1 -.4 2.1 -.9 3.2 -1.4l.4 1.1c-1 .4 -2.1 .9 -3.1 1.4l-.5 -1.1Zm6.3 -2.7c1.1 -.4 2.2 -.8 3.2 -1.2l.4 1c-1 .4 -2.1 .9 -3.1 1.3l-.5 -1.1Zm6.5 -2.5c1.1 -.4 2.2 -.7 3.3 -1.1l.3 1.1c-1.1 .3 -2.1 .7 -3.2 1.1l-.4 -1.1Zm6.5 -2.2c1.1 -.4 2.2 -.7 3.3 -1l.3 1c-1.1 .4 -2.1 .7 -3.2 1.1l-.4 -1.1Zm6.6 -2c1.1 -.3 2.2 -.7 3.3 -1l.3 1.2c-1.1 .3 -2.2 .6 -3.3 .9l-.3 -1.1Zm6.7 -1.8c1.1 -.3 2.2 -.6 3.3 -.8l.3 1.1c-1.1 .2 -2.2 .5 -3.3 .8l-.3 -1.1Zm6.7 -1.6c1.1 -.2 2.2 -.4 3.3 -.7l.3 1.2c-1.1 .2 -2.3 .4 -3.4 .6l-.2 -1.1Zm6.7 -1.3c1.2 -.2 2.3 -.4 3.5 -.6l.1 1.2c-1.1 .1 -2.2 .3 -3.4 .5l-.2 -1.1Zm6.9 -1.1c1.1 -.2 2.3 -.3 3.4 -.4l.1 1.1c-1.1 .1 -2.2 .3 -3.3 .4l-.2 -1.1Zm6.8 -.8c1.1 -.2 2.3 -.3 3.4 -.4l.1 1.2c-1.1 .1 -2.2 .2 -3.4 .3l-.1 -1.1Zm6.9 -.6c1.1 -.1 2.3 -.2 3.5 -.3v1.2c-1.1 0 -2.3 .1 -3.4 .2l-.1 -1.1Zm6.9 -.4c1.1 -.1 2.3 -.1 3.4 -.1v1.1c-1.1 .1 -2.2 .1 -3.4 .1v-1.1Zm6.8 -.1h.3c1 0 2.1 0 3.1 0v1.1c-1 0 -2.1 0 -3.1 0h-.3v-1.1Zm6.8 .1c1.2 0 2.3 .1 3.5 .1l-.1 1.2c-1.1 -.1 -2.3 -.1 -3.4 -.2v-1.1Zm6.9 .3c1.2 .1 2.4 .2 3.5 .3l-.1 1.1c-1.1 -.1 -2.3 -.2 -3.4 -.2v-1.2Zm6.9 .6c1.2 .1 2.3 .3 3.4 .4l-.1 1.1c-1.1 -.1 -2.3 -.2 -3.4 -.3l.1 -1.2Zm6.9 .8c1.1 .2 2.2 .4 3.4 .6l-.2 1.1c-1.1 -.2 -2.3 -.4 -3.4 -.5l.2 -1.2Zm6.8 1.1c1.1 .2 2.3 .4 3.4 .6l-.2 1.2c-1.1 -.2 -2.3 -.5 -3.4 -.7l.2 -1.1Zm6.8 1.3c1.1 .3 2.2 .5 3.3 .8l-.2 1.1c-1.2 -.3 -2.3 -.5 -3.4 -.8l.3 -1.1Zm6.7 1.6c1.1 .2 2.2 .5 3.3 .8l-.3 1.1c-1.1 -.3 -2.2 -.6 -3.3 -.8l.3 -1.1Zm6.7 1.8c1.1 .3 2.2 .6 3.3 .9l-.4 1.1c-1 -.3 -2.1 -.6 -3.2 -.9l.3 -1.1Zm6.5 1.9c1.1 .4 2.2 .8 3.3 1.1l-.4 1.1c-1 -.4 -2.1 -.7 -3.2 -1.1l.3 -1.1Zm6.6 2.3c1.1 .4 2.1 .8 3.2 1.2l-.4 1.1c-1.1 -.4 -2.1 -.8 -3.2 -1.2l.4 -1.1Zm6.5 2.5c1 .4 2.1 .8 3.1 1.3l-.4 1c-1.1 -.4 -2.1 -.9 -3.2 -1.3l.5 -1Zm6.3 2.6c1 .5 2.1 1 3.1 1.5l-.5 1c-1 -.5 -2 -1 -3.1 -1.4l.5 -1.1Zm6.2 2.9c1.1 .5 2.1 1.1 3.1 1.6l-.5 1c-1 -.5 -2 -1 -3.1 -1.5l.5 -1.1Zm6.2 3.2c1 .5 2 1.1 3 1.6l-.5 1c-1 -.5 -2 -1.1 -3 -1.6l.5 -1Zm6 3.3c1 .6 2 1.2 3 1.7l-.6 1c-1 -.6 -2 -1.1 -2.9 -1.7l.5 -1Zm6 3.5c.9 .7 1.9 1.3 2.9 1.9l-.6 1c-1 -.7 -2 -1.3 -3 -1.9l.7 -1Zm5.8 3.8c.9 .6 1.8 1.3 2.8 1.9l-.7 1c-.9 -.7 -1.8 -1.3 -2.8 -1.9l.7 -1Zm5.6 3.9c.9 .7 1.9 1.4 2.8 2.1l-.7 .9c-.9 -.7 -1.8 -1.4 -2.8 -2l.7 -1Zm5.5 4.2c.9 .7 1.8 1.4 2.7 2.1l-.7 .9c-.9 -.7 -1.8 -1.4 -2.7 -2.1l.7 -.9Zm5.4 4.3c.9 .8 1.8 1.5 2.6 2.3l-.7 .8c-.9 -.7 -1.8 -1.5 -2.6 -2.2l.7 -.9Zm5.2 4.5c.9 .8 1.7 1.6 2.6 2.4l-.8 .8c-.9 -.8 -1.7 -1.5 -2.6 -2.3l.8 -.9Zm5.1 4.7c.8 .8 1.6 1.7 2.4 2.5l-.8 .8c-.8 -.8 -1.6 -1.6 -2.4 -2.4l.8 -.9Zm4.8 4.9c.8 .8 1.6 1.7 2.4 2.5l-.8 .8c-.8 -.8 -1.6 -1.7 -2.4 -2.5l.8 -.8Zm4.8 5.1c.7 .8 1.5 1.7 2.2 2.5l-.8 .8c-.8 -.9 -1.5 -1.7 -2.3 -2.6l.9 -.7Zm4.5 5.2c.7 .8 1.5 1.7 2.2 2.6l-.9 .7c-.7 -.8 -1.4 -1.7 -2.2 -2.6l.9 -.7Zm4.3 5.3c.8 .9 1.5 1.8 2.2 2.8l-1 .6c-.7 -.9 -1.4 -1.8 -2.1 -2.7l.9 -.7Zm4.2 5.5c.7 1 1.4 1.9 2 2.8l-.9 .7c-.7 -.9 -1.3 -1.9 -2 -2.8l.9 -.7Zm4 5.7c.6 .9 1.2 1.9 1.9 2.8l-1 .7c-.6 -1 -1.2 -1.9 -1.9 -2.9l1 -.6Zm3.7 5.8c.6 .9 1.3 1.9 1.8 2.9l-.9 .6c-.6 -1 -1.2 -2 -1.8 -2.9l.9 -.6Zm3.6 5.9c.6 1 1.1 2 1.7 3l-1 .5c-.6 -1 -1.1 -2 -1.7 -3l1 -.5Zm3.3 6c.6 1 1.1 2 1.6 3l-1 .6c-.5 -1.1 -1 -2.1 -1.6 -3.1l1 -.5Zm3.2 6.1c.5 1.1 1 2.1 1.5 3.2l-1.1 .5c-.4 -1.1 -.9 -2.1 -1.4 -3.2l1 -.5Zm2.9 6.3c.5 1.1 .9 2.1 1.4 3.2l-1.1 .4c-.4 -1 -.9 -2.1 -1.3 -3.1l1 -.5Zm2.7 6.3c.4 1.1 .9 2.2 1.3 3.2l-1.1 .4c-.4 -1 -.8 -2.1 -1.2 -3.1l1 -.5Zm2.5 6.5c.4 1.1 .8 2.2 1.2 3.2l-1.1 .4c-.4 -1.1 -.8 -2.1 -1.2 -3.2l1.1 -.4Zm2.3 6.5c.3 1.1 .7 2.2 1 3.3l-1.1 .3c-.3 -1.1 -.7 -2.2 -1 -3.2l1.1 -.4Zm2 6.6c.3 1.1 .6 2.2 .9 3.3l-1.1 .3c-.3 -1.1 -.6 -2.2 -.9 -3.3l1.1 -.3Zm1.8 6.7c.3 1.1 .5 2.2 .8 3.3l-1.1 .3c-.3 -1.1 -.6 -2.2 -.8 -3.4l1.1 -.2Zm1.5 6.7c.3 1.1 .5 2.2 .7 3.3l-1.1 .3c-.2 -1.2 -.4 -2.3 -.7 -3.4l1.1 -.2Zm1.4 6.7c.2 1.2 .4 2.3 .5 3.5l-1.1 .1c-.2 -1.1 -.4 -2.2 -.6 -3.4l1.2 -.2Zm1.1 6.9c.1 1.1 .3 2.3 .4 3.4l-1.1 .1c-.2 -1.1 -.3 -2.2 -.5 -3.4l1.2 -.1Zm.8 6.8c.1 1.1 .2 2.3 .3 3.4l-1.1 .1c-.1 -1.1 -.2 -2.3 -.3 -3.4l1.1 -.1Zm.6 6.9c.1 1.1 .2 2.3 .2 3.4l-1.1 .1c-.1 -1.1 -.2 -2.3 -.2 -3.4l1.1 -.1Zm.4 6.9c0 1.1 .1 2.3 .1 3.4H538c0 -1.1 0 -2.2 -.1 -3.4h1.2Zm.1 6.8v.3c0 1.2 0 2.3 0 3.4H538c.1 -1.1 .1 -2.3 .1 -3.4v-.3h1.1Z" class="g1_131"/>
<path d="M502.4 364.6c-.1 1.1 -.1 2.3 -.2 3.4l-1.1 -.1c0 -1.1 .1 -2.2 .2 -3.4l1.1 .1Zm-.4 6.9c-.1 1.1 -.3 2.3 -.4 3.4l-1.1 -.1c.1 -1.1 .2 -2.3 .3 -3.4l1.2 .1Zm-.8 6.8c-.1 1.2 -.3 2.3 -.5 3.4l-1.1 -.1c.2 -1.2 .3 -2.3 .5 -3.4l1.1 .1Zm-1 6.9c-.2 1.1 -.4 2.2 -.6 3.4l-1.2 -.3c.3 -1.1 .5 -2.2 .7 -3.3l1.1 .2Zm-1.3 6.7c-.3 1.1 -.5 2.3 -.8 3.4L497 395c.3 -1.1 .5 -2.2 .7 -3.3l1.2 .2Zm-1.6 6.7c-.3 1.2 -.6 2.3 -1 3.4l-1.1 -.3c.3 -1.1 .7 -2.2 .9 -3.3l1.2 .2Zm-1.9 6.7c-.4 1.1 -.7 2.2 -1.1 3.3l-1.1 -.4c.4 -1.1 .7 -2.2 1.1 -3.3l1.1 .4Zm-2.2 6.5c-.4 1.1 -.8 2.2 -1.2 3.3l-1.1 -.4c.4 -1.1 .8 -2.2 1.2 -3.3l1.1 .4Zm-2.5 6.5c-.4 1.1 -.9 2.1 -1.3 3.2l-1.1 -.5c.5 -1 .9 -2.1 1.3 -3.1l1.1 .4Zm-2.7 6.3c-.5 1.1 -1 2.1 -1.5 3.1l-1 -.5c.5 -1 1 -2 1.4 -3.1l1.1 .5Zm-3 6.3c-.5 1 -1.1 2 -1.6 3l-1 -.5c.5 -1 1 -2 1.6 -3.1l1 .6Zm-3.3 6c-.6 1 -1.1 2 -1.7 3l-1 -.6c.6 -1 1.2 -2 1.7 -2.9l1 .5Zm-3.5 6c-.6 .9 -1.2 1.9 -1.9 2.9l-.9 -.6c.6 -1 1.2 -2 1.8 -2.9l1 .6Zm-3.8 5.7c-.6 1 -1.3 1.9 -2 2.9l-.9 -.7c.7 -.9 1.3 -1.9 2 -2.8l.9 .6Zm-4 5.7c-.7 .9 -1.4 1.8 -2.1 2.7l-.9 -.7c.7 -.9 1.4 -1.8 2.1 -2.7l.9 .7Zm-4.3 5.4c-.7 .9 -1.4 1.8 -2.2 2.6l-.9 -.7c.8 -.9 1.5 -1.7 2.2 -2.6l.9 .7Zm-4.5 5.2c-.7 .9 -1.5 1.7 -2.3 2.6l-.8 -.8c.8 -.8 1.5 -1.7 2.3 -2.5l.8 .7Zm-4.7 5.1c-.8 .8 -1.6 1.6 -2.4 2.4l-.8 -.8c.8 -.8 1.6 -1.6 2.4 -2.4l.8 .8Zm-4.9 4.8c-.8 .8 -1.7 1.6 -2.5 2.4l-.8 -.9c.9 -.7 1.7 -1.5 2.5 -2.3l.8 .8Zm-5.1 4.7c-.9 .7 -1.8 1.5 -2.6 2.2l-.8 -.9c.9 -.7 1.8 -1.5 2.6 -2.2l.8 .9Zm-5.3 4.4c-.9 .7 -1.8 1.4 -2.8 2.1l-.7 -.9c1 -.7 1.9 -1.4 2.8 -2.1l.7 .9Zm-5.5 4.1c-1 .7 -1.9 1.4 -2.8 2l-.7 -.9c.9 -.7 1.9 -1.3 2.8 -2l.7 .9Zm-5.7 4c-1 .6 -1.9 1.2 -2.9 1.8l-.6 -.9c1 -.6 1.9 -1.3 2.9 -1.9l.6 1Zm-5.8 3.7c-1 .6 -2 1.1 -3 1.7l-.6 -1c1 -.5 2 -1.1 3 -1.7l.6 1Zm-6 3.4c-1 .5 -2 1.1 -3.1 1.6l-.5 -1c1 -.5 2 -1.1 3 -1.6l.6 1Zm-6.2 3.2c-1 .5 -2 1 -3.1 1.5l-.5 -1.1c1.1 -.5 2.1 -1 3.1 -1.5l.5 1.1Zm-6.2 2.9c-1.1 .4 -2.1 .9 -3.2 1.3l-.4 -1c1 -.5 2.1 -.9 3.1 -1.4l.5 1.1Zm-6.4 2.6c-1.1 .4 -2.2 .8 -3.3 1.2l-.3 -1.1c1 -.3 2.1 -.8 3.2 -1.2l.4 1.1Zm-6.5 2.4c-1.1 .3 -2.2 .7 -3.3 1l-.3 -1c1.1 -.4 2.1 -.7 3.2 -1.1l.4 1.1Zm-6.6 2c-1.1 .4 -2.2 .7 -3.3 1l-.3 -1.1c1.1 -.3 2.2 -.6 3.3 -1l.3 1.1ZM380 514c-1.1 .3 -2.2 .6 -3.3 .8l-.3 -1.1c1.1 -.2 2.3 -.5 3.4 -.8l.2 1.1Zm-6.7 1.5c-1.1 .3 -2.2 .5 -3.4 .7l-.2 -1.1c1.2 -.2 2.3 -.5 3.4 -.7l.2 1.1Zm-6.8 1.3c-1.1 .1 -2.3 .3 -3.4 .5l-.2 -1.2c1.2 -.1 2.3 -.3 3.4 -.5l.2 1.2Zm-6.8 .9c-1.2 .1 -2.3 .2 -3.4 .3l-.1 -1.1c1.1 -.1 2.2 -.2 3.3 -.4l.2 1.2Zm-6.9 .6c-1.2 .1 -2.3 .2 -3.5 .2v-1.1c1.1 -.1 2.3 -.1 3.4 -.2l.1 1.1Zm-6.9 .4c-1.1 0 -2.3 0 -3.4 0v-1.1c1.1 0 2.2 -.1 3.4 -.1v1.2Zm-6.8 0c-1.2 0 -2.3 -.1 -3.4 -.1v-1.1c1.1 0 2.3 0 3.4 0v1.2Zm-6.9 -.3c-1.1 0 -2.3 -.1 -3.5 -.2l.1 -1.1c1.2 0 2.3 .1 3.5 .2l-.1 1.1Zm-6.9 -.5c-1.1 -.1 -2.3 -.3 -3.4 -.4l.1 -1.1c1.2 .1 2.3 .2 3.4 .3l-.1 1.2Zm-6.8 -.9c-1.2 -.1 -2.3 -.3 -3.5 -.5l.2 -1.1c1.2 .2 2.3 .3 3.4 .5l-.1 1.1Zm-6.9 -1.1c-1.1 -.2 -2.2 -.4 -3.3 -.7l.2 -1.1c1.1 .2 2.2 .5 3.3 .7l-.2 1.1Zm-6.7 -1.4c-1.1 -.3 -2.2 -.6 -3.3 -.8l.2 -1.1c1.1 .2 2.3 .5 3.4 .8l-.3 1.1Zm-6.7 -1.7c-1.1 -.3 -2.2 -.7 -3.3 -1l.3 -1.1c1.1 .3 2.2 .7 3.3 1l-.3 1.1Zm-6.6 -2c-1.1 -.4 -2.2 -.8 -3.3 -1.1l.4 -1.1c1.1 .4 2.2 .7 3.3 1.1l-.4 1.1Zm-6.5 -2.3c-1.1 -.4 -2.2 -.8 -3.3 -1.3l.5 -1c1 .4 2.1 .8 3.2 1.2l-.4 1.1Zm-6.4 -2.6c-1.1 -.4 -2.1 -.9 -3.2 -1.4l.5 -1c1 .5 2.1 .9 3.1 1.4l-.4 1Zm-6.3 -2.8c-1.1 -.5 -2.1 -1 -3.1 -1.5l.5 -1.1c1 .6 2 1.1 3.1 1.6l-.5 1ZM266.2 500c-1 -.6 -2 -1.1 -3 -1.7l.5 -1c1 .6 2 1.1 3 1.7l-.5 1Zm-6 -3.4c-1 -.5 -2 -1.1 -3 -1.7l.6 -1c1 .6 2 1.2 3 1.7l-.6 1ZM254.3 493c-1 -.6 -1.9 -1.3 -2.9 -1.9l.7 -.9c.9 .6 1.8 1.2 2.8 1.8l-.6 1Zm-5.7 -3.9c-1 -.6 -1.9 -1.3 -2.8 -2l.7 -.9c.9 .7 1.8 1.4 2.7 2l-.6 .9ZM243 485c-.9 -.7 -1.8 -1.4 -2.7 -2.1l.7 -.9c.9 .7 1.8 1.4 2.7 2.1l-.7 .9Zm-5.3 -4.3c-.9 -.7 -1.8 -1.5 -2.7 -2.3l.8 -.8c.9 .7 1.7 1.5 2.6 2.2l-.7 .9Zm-5.2 -4.6c-.9 -.8 -1.7 -1.5 -2.5 -2.3l.8 -.9c.8 .8 1.6 1.6 2.5 2.4l-.8 .8Zm-5 -4.8c-.8 -.8 -1.6 -1.6 -2.4 -2.4l.8 -.8c.8 .8 1.6 1.6 2.4 2.4l-.8 .8Zm-4.8 -5c-.7 -.8 -1.5 -1.7 -2.3 -2.5l.9 -.8c.7 .9 1.5 1.7 2.3 2.6l-.9 .7Zm-4.5 -5.1c-.8 -.9 -1.5 -1.8 -2.2 -2.7l.9 -.7c.7 .9 1.4 1.7 2.2 2.6l-.9 .8Zm-4.3 -5.4c-.7 -1 -1.4 -1.9 -2.1 -2.8l.9 -.7c.7 .9 1.4 1.9 2.1 2.8l-.9 .7Zm-4.1 -5.6c-.7 -.9 -1.3 -1.9 -2 -2.8l1 -.7c.6 1 1.3 1.9 1.9 2.8l-.9 .7Zm-3.9 -5.7c-.6 -1 -1.2 -2 -1.8 -3l1 -.6c.6 1 1.2 2 1.8 3l-1 .6Zm-3.6 -5.9c-.5 -1 -1.1 -2 -1.7 -3l1 -.6c.6 1 1.1 2 1.7 3l-1 .6ZM199 432.5c-.5 -1 -1.1 -2 -1.6 -3l1.1 -.6c.5 1.1 1 2.1 1.5 3.1l-1 .5Zm-3.1 -6.2c-.5 -1 -1 -2.1 -1.4 -3.1l1 -.5c.5 1.1 1 2.1 1.5 3.1l-1.1 .5ZM193.1 420c-.4 -1 -.9 -2.1 -1.3 -3.1l1.1 -.5c.4 1.1 .8 2.1 1.3 3.2l-1.1 .4Zm-2.5 -6.4c-.4 -1.1 -.8 -2.2 -1.2 -3.3l1.1 -.3c.4 1.1 .8 2.1 1.2 3.2l-1.1 .4Zm-2.3 -6.5c-.3 -1.1 -.7 -2.2 -1 -3.3l1.1 -.3c.3 1.1 .7 2.1 1 3.2l-1.1 .4Zm-2 -6.6c-.3 -1.1 -.6 -2.3 -.8 -3.4l1.1 -.3c.3 1.2 .5 2.3 .9 3.4l-1.2 .3Zm-1.7 -6.7c-.2 -1.2 -.5 -2.3 -.7 -3.4l1.1 -.2c.3 1.1 .5 2.2 .8 3.3l-1.2 .3Zm-1.3 -6.7c-.3 -1.2 -.5 -2.3 -.6 -3.5l1.1 -.2c.2 1.2 .4 2.3 .6 3.4l-1.1 .3Zm-1.2 -6.9c-.1 -1.1 -.3 -2.3 -.4 -3.4l1.1 -.2c.2 1.2 .3 2.3 .5 3.4l-1.2 .2Zm-.8 -6.8c-.1 -1.2 -.2 -2.3 -.3 -3.5l1.2 -.1c.1 1.2 .2 2.3 .3 3.5l-1.2 .1Zm-.5 -7c-.1 -1.1 -.1 -2.2 -.1 -3.4h1.1c0 1.1 .1 2.2 .1 3.4h-1.1Zm-.2 -6.8c0 -.6 0 -1.3 0 -1.9c0 -.5 0 -1 0 -1.5h1.1c0 .5 0 1 0 1.5c0 .6 0 1.3 0 1.9h-1.1Zm0 -6.8c.1 -1.2 .1 -2.3 .2 -3.5l1.1 .1c0 1.1 -.1 2.3 -.1 3.4h-1.2Zm.4 -6.9c.1 -1.2 .2 -2.4 .3 -3.5l1.1 .1c-.1 1.1 -.2 2.3 -.3 3.4H181Zm.7 -6.9c.1 -1.1 .2 -2.3 .4 -3.4l1.1 .1c-.1 1.2 -.3 2.3 -.4 3.4l-1.1 -.1Zm.9 -6.8c.2 -1.2 .4 -2.3 .6 -3.5l1.1 .2c-.2 1.2 -.4 2.3 -.6 3.4l-1.1 -.1Zm1.2 -6.8c.3 -1.2 .5 -2.3 .8 -3.4l1.1 .3c-.3 1.1 -.5 2.2 -.7 3.3l-1.2 -.2Zm1.6 -6.8c.3 -1.1 .6 -2.2 .9 -3.3l1.1 .3c-.3 1.1 -.6 2.2 -.9 3.3l-1.1 -.3Zm1.8 -6.6c.3 -1.1 .7 -2.2 1 -3.3l1.1 .3c-.3 1.1 -.7 2.2 -1 3.3l-1.1 -.3Zm2.1 -6.6c.4 -1.1 .8 -2.2 1.2 -3.3l1 .4c-.4 1.1 -.7 2.2 -1.1 3.3l-1.1 -.4Zm2.4 -6.5c.4 -1.1 .8 -2.1 1.3 -3.2l1 .5c-.4 1 -.8 2.1 -1.2 3.1l-1.1 -.4Zm2.6 -6.3c.5 -1.1 1 -2.1 1.5 -3.2l1 .5c-.5 1 -.9 2.1 -1.4 3.1l-1.1 -.4Zm3 -6.3c.5 -1 1 -2.1 1.6 -3.1l1 .5c-.6 1 -1.1 2.1 -1.6 3.1l-1 -.5Zm3.2 -6.1c.5 -1 1.1 -2 1.7 -3l1 .5c-.6 1 -1.2 2 -1.7 3l-1 -.5Zm3.4 -6c.6 -1 1.2 -2 1.9 -2.9l.9 .6c-.6 .9 -1.2 1.9 -1.8 2.9l-1 -.6Zm3.7 -5.8c.7 -1 1.3 -1.9 2 -2.9l.9 .7c-.6 .9 -1.3 1.8 -1.9 2.8l-1 -.6Zm4 -5.7c.7 -.9 1.4 -1.8 2.1 -2.8l.9 .7c-.7 .9 -1.4 1.9 -2.1 2.8l-.9 -.7Zm4.2 -5.5c.7 -.9 1.4 -1.8 2.2 -2.7l.9 .8c-.8 .9 -1.5 1.7 -2.2 2.6l-.9 -.7Zm4.4 -5.3c.8 -.8 1.5 -1.7 2.3 -2.6l.9 .8c-.8 .9 -1.6 1.7 -2.3 2.6l-.9 -.8Zm4.7 -5.1c.8 -.8 1.6 -1.6 2.4 -2.5l.8 .8c-.8 .9 -1.6 1.7 -2.4 2.5l-.8 -.8Zm4.8 -4.9c.9 -.8 1.7 -1.6 2.5 -2.4l.8 .9c-.8 .8 -1.7 1.5 -2.5 2.3l-.8 -.8Zm5.1 -4.7c.9 -.7 1.7 -1.5 2.6 -2.2l.7 .8c-.8 .8 -1.7 1.5 -2.5 2.3l-.8 -.9Zm5.3 -4.4c.8 -.8 1.7 -1.5 2.7 -2.2l.7 .9c-.9 .7 -1.8 1.4 -2.7 2.1l-.7 -.8Zm5.4 -4.3c.9 -.7 1.9 -1.3 2.8 -2l.7 .9c-1 .7 -1.9 1.4 -2.8 2l-.7 -.9Zm5.6 -4c1 -.6 1.9 -1.3 2.9 -1.9l.6 1c-.9 .6 -1.9 1.2 -2.8 1.9l-.7 -1Zm5.8 -3.7c1 -.6 2 -1.2 3 -1.8l.6 1c-1 .5 -2 1.1 -3 1.7l-.6 -.9Zm6 -3.5c1 -.6 2 -1.2 3 -1.7l.5 1c-1 .6 -2 1.1 -3 1.7l-.5 -1ZM269 214c1 -.5 2 -1 3.1 -1.5l.5 1c-1.1 .5 -2.1 1 -3.1 1.5l-.5 -1Zm6.2 -3c1.1 -.4 2.1 -.9 3.2 -1.4l.4 1.1c-1 .4 -2.1 .9 -3.1 1.4l-.5 -1.1Zm6.3 -2.7c1.1 -.4 2.2 -.8 3.3 -1.2l.4 1c-1.1 .5 -2.2 .9 -3.2 1.3l-.5 -1.1Zm6.5 -2.4c1.1 -.4 2.2 -.8 3.3 -1.1l.4 1.1c-1.1 .3 -2.2 .7 -3.3 1.1l-.4 -1.1Zm6.6 -2.2c1.1 -.3 2.2 -.6 3.3 -.9l.3 1.1c-1.1 .3 -2.2 .6 -3.3 .9l-.3 -1.1Zm6.6 -1.8c1.1 -.3 2.3 -.6 3.4 -.9l.3 1.1c-1.2 .3 -2.3 .6 -3.4 .9l-.3 -1.1Zm6.7 -1.6c1.2 -.3 2.3 -.5 3.4 -.7l.2 1.1c-1.1 .2 -2.2 .5 -3.3 .7l-.3 -1.1Zm6.8 -1.3c1.2 -.2 2.3 -.4 3.4 -.6l.2 1.2c-1.1 .1 -2.3 .3 -3.4 .5l-.2 -1.1Zm6.9 -1c1.1 -.2 2.2 -.3 3.4 -.4l.1 1.1c-1.1 .1 -2.3 .3 -3.4 .4l-.1 -1.1Zm6.8 -.7c1.2 -.1 2.3 -.2 3.5 -.3v1.2c-1.1 0 -2.3 .1 -3.4 .2l-.1 -1.1Zm6.9 -.4c1.2 -.1 2.3 -.1 3.5 -.1v1.1c-1.2 0 -2.3 .1 -3.4 .1l-.1 -1.1Zm6.9 -.2c1.1 0 2.2 .1 3.4 .1l-.1 1.1c-1.1 0 -2.2 0 -3.3 0v-1.2Zm6.8 .2c1.2 .1 2.3 .1 3.5 .2l-.1 1.1c-1.2 0 -2.3 -.1 -3.5 -.2l.1 -1.1Zm6.9 .5c1.2 .1 2.3 .2 3.4 .3l-.1 1.2c-1.1 -.2 -2.2 -.3 -3.4 -.4l.1 -1.1Zm6.9 .7c1.1 .2 2.2 .3 3.4 .5l-.2 1.2c-1.1 -.2 -2.3 -.4 -3.4 -.5l.2 -1.2Zm6.8 1.1c1.1 .2 2.3 .4 3.4 .6l-.2 1.2c-1.1 -.3 -2.3 -.5 -3.4 -.7l.2 -1.1Zm6.7 1.3c1.2 .3 2.3 .5 3.4 .8l-.3 1.1c-1.1 -.2 -2.2 -.5 -3.3 -.7l.2 -1.2Zm6.8 1.7c1.1 .3 2.2 .6 3.3 .9l-.3 1.1c-1.1 -.3 -2.2 -.6 -3.3 -.9l.3 -1.1Zm6.6 1.9c1.1 .3 2.2 .7 3.3 1.1l-.4 1c-1.1 -.3 -2.2 -.7 -3.2 -1l.3 -1.1Zm6.5 2.2c1.1 .4 2.2 .8 3.3 1.2l-.4 1.1c-1.1 -.4 -2.2 -.8 -3.3 -1.2l.4 -1.1Zm6.5 2.5c1.1 .4 2.1 .9 3.2 1.3l-.5 1.1c-1 -.5 -2.1 -.9 -3.1 -1.3l.4 -1.1Zm6.3 2.7c1.1 .5 2.1 1 3.1 1.5l-.5 1.1c-1 -.5 -2 -1 -3.1 -1.5l.5 -1.1Zm6.2 3.1c1.1 .5 2.1 1 3.1 1.6l-.6 1c-1 -.5 -2 -1.1 -3 -1.6l.5 -1Zm6.1 3.3c1 .5 2 1.1 3 1.7l-.6 1c-1 -.6 -2 -1.2 -3 -1.7l.6 -1Zm5.9 3.5c1 .6 2 1.3 2.9 1.9l-.6 .9c-1 -.6 -1.9 -1.2 -2.9 -1.8l.6 -1Zm5.8 3.8c.9 .7 1.9 1.3 2.8 2l-.7 .9c-.9 -.6 -1.8 -1.3 -2.8 -1.9l.7 -1Zm5.6 4.1c.9 .6 1.8 1.3 2.7 2.1l-.7 .9c-.9 -.7 -1.8 -1.4 -2.7 -2.1l.7 -.9Zm5.4 4.2c.9 .8 1.8 1.5 2.6 2.3l-.7 .8c-.9 -.7 -1.7 -1.5 -2.6 -2.2l.7 -.9Zm5.2 4.5c.9 .8 1.7 1.6 2.6 2.4l-.8 .8c-.8 -.8 -1.7 -1.5 -2.5 -2.3l.7 -.9Zm5.1 4.8c.8 .8 1.6 1.6 2.4 2.4l-.8 .8c-.8 -.8 -1.6 -1.6 -2.4 -2.4l.8 -.8Zm4.8 4.9c.8 .8 1.6 1.7 2.3 2.6l-.8 .7c-.8 -.8 -1.6 -1.7 -2.3 -2.5l.8 -.8Zm4.6 5.1c.7 .9 1.5 1.8 2.2 2.7l-.9 .7c-.7 -.9 -1.4 -1.7 -2.2 -2.6l.9 -.8Zm4.4 5.4c.7 .9 1.4 1.8 2.1 2.7l-.9 .7c-.7 -.9 -1.4 -1.8 -2.1 -2.7l.9 -.7Zm4.1 5.5c.7 .9 1.4 1.9 2 2.8l-.9 .7c-.7 -1 -1.3 -1.9 -2 -2.8l.9 -.7Zm3.9 5.7c.7 .9 1.3 1.9 1.9 2.9l-1 .6c-.6 -1 -1.2 -1.9 -1.8 -2.9l.9 -.6Zm3.7 5.8c.6 1 1.2 2 1.8 3l-1 .6c-.6 -1 -1.2 -2 -1.8 -3l1 -.6Zm3.4 6c.6 1.1 1.1 2.1 1.6 3.1l-1 .5c-.5 -1 -1.1 -2 -1.6 -3l1 -.6Zm3.2 6.2c.5 1 1 2.1 1.4 3.1l-1 .5c-.5 -1 -1 -2.1 -1.5 -3.1l1.1 -.5Zm2.9 6.3c.4 1 .9 2.1 1.3 3.1l-1.1 .5c-.4 -1.1 -.8 -2.1 -1.3 -3.2l1.1 -.4Zm2.6 6.3c.4 1.1 .8 2.2 1.2 3.3l-1.1 .4c-.4 -1.1 -.8 -2.2 -1.2 -3.2l1.1 -.5Zm2.3 6.6c.4 1.1 .7 2.1 1.1 3.2l-1.1 .4c-.4 -1.1 -.7 -2.2 -1.1 -3.3l1.1 -.3Zm2 6.5c.4 1.1 .7 2.3 1 3.4l-1.1 .3c-.3 -1.1 -.6 -2.3 -1 -3.4l1.1 -.3Zm1.8 6.7c.3 1.1 .5 2.3 .8 3.4l-1.1 .2c-.3 -1.1 -.5 -2.2 -.8 -3.3l1.1 -.3Zm1.5 6.7c.2 1.2 .4 2.3 .6 3.4l-1.1 .2c-.2 -1.1 -.4 -2.2 -.6 -3.3l1.1 -.3Zm1.2 6.9c.2 1.1 .3 2.3 .5 3.4l-1.2 .1c-.1 -1.1 -.3 -2.2 -.4 -3.4l1.1 -.1Zm.9 6.8c.1 1.1 .2 2.3 .3 3.4l-1.1 .1c-.1 -1.1 -.2 -2.2 -.4 -3.4l1.2 -.1Zm.6 6.9c.1 1.1 .1 2.3 .2 3.4l-1.2 .1c0 -1.1 -.1 -2.3 -.2 -3.4l1.2 -.1Zm.3 6.9c0 1.1 0 2.3 0 3.4h-1.1c0 -1.1 0 -2.3 0 -3.4h1.1Zm0 3.7c0 1.2 0 2.3 0 3.4h-1.1c0 -1.1 0 -2.3 0 -3.4h1.1Z" class="g1_131"/>
<path d="M324.4 181.3h34.3v34.3H324.4V181.3Z" class="g0_131"/>
<path d="M324.4 181.3h34.3v34.3H324.4V181.3Z" class="g2_131"/>
<path d="M409.2 208.8h34.3v34.3H409.2V208.8Z" class="g0_131"/>
<path d="M409.2 208.8h34.3v34.3H409.2V208.8Z" class="g2_131"/>
<path d="M469.9 268.3h34.4v34.4H469.9V268.3Z" class="g0_131"/>
<path d="M469.9 268.3h34.4v34.4H469.9V268.3Z" class="g2_131"/>
<path d="M482.5 340.5h34.4v34.4H482.5V340.5Z" class="g0_131"/>
<path d="M482.5 340.5h34.4v34.4H482.5V340.5Z" class="g2_131"/>
<path d="M409.2 473.4h34.3v34.4H409.2V473.4Z" class="g0_131"/>
<path d="M409.2 473.4h34.3v34.4H409.2V473.4Z" class="g2_131"/>
<path d="M324.4 499.8h34.3v34.4H324.4V499.8Z" class="g0_131"/>
<path d="M324.4 499.8h34.3v34.4H324.4V499.8Z" class="g2_131"/>
<path d="M469.9 412.7h34.4v34.4H469.9V412.7Z" class="g0_131"/>
<path d="M469.9 412.7h34.4v34.4H469.9V412.7Z" class="g2_131"/>
<path d="M181.1 412.7h34.4v34.4H181.1V412.7Z" class="g0_131"/>
<path d="M181.1 412.7h34.4v34.4H181.1V412.7Z" class="g2_131"/>
<path d="M165.1 340.5h34.4v34.4H165.1V340.5Z" class="g0_131"/>
<path d="M165.1 340.5h34.4v34.4H165.1V340.5Z" class="g2_131"/>
<path d="M181.1 268.3h34.4v34.4H181.1V268.3Z" class="g0_131"/>
<path d="M181.1 268.3h34.4v34.4H181.1V268.3Z" class="g2_131"/>
<path d="M239.6 208.8h34.3v34.3H239.6V208.8Z" class="g0_131"/>
<path d="M239.6 208.8h34.3v34.3H239.6V208.8Z" class="g2_131"/>
<path d="M239.6 473.4h34.3v34.4H239.6V473.4Z" class="g0_131"/>
<path d="M239.6 473.4h34.3v34.4H239.6V473.4Z" class="g2_131"/>
<path d="M381.7 151.5h24c.7 0 1.4 .1 2 .4c.6 .2 1.2 .6 1.7 1.1c.4 .5 .8 1 1.1 1.7c.2 .6 .4 1.2 .4 1.9v24.1c0 .7 -.2 1.3 -.4 2c-.3 .6 -.7 1.2 -1.1 1.6c-.5 .5 -1.1 .9 -1.7 1.2c-.6 .2 -1.3 .3 -2 .3h-24c-.7 0 -1.4 -.1 -2 -.3c-.6 -.3 -1.2 -.7 -1.7 -1.2c-.5 -.4 -.8 -1 -1.1 -1.6c-.3 -.7 -.4 -1.3 -.4 -2V156.6c0 -.7 .1 -1.3 .4 -1.9c.3 -.7 .6 -1.2 1.1 -1.7c.5 -.5 1.1 -.9 1.7 -1.1c.6 -.3 1.3 -.4 2 -.4Z" class="g1_131"/>
<path d="M381.7 151.5h24c.7 0 1.4 .1 2 .4c.6 .2 1.2 .6 1.7 1.1c.4 .5 .8 1 1.1 1.7c.2 .6 .4 1.2 .4 1.9v24.1c0 .7 -.2 1.3 -.4 2c-.3 .6 -.7 1.2 -1.1 1.6c-.5 .5 -1.1 .9 -1.7 1.2c-.6 .2 -1.3 .3 -2 .3h-24c-.7 0 -1.4 -.1 -2 -.3c-.6 -.3 -1.2 -.7 -1.7 -1.2c-.5 -.4 -.8 -1 -1.1 -1.6c-.3 -.7 -.4 -1.3 -.4 -2V156.6c0 -.7 .1 -1.3 .4 -1.9c.3 -.7 .6 -1.2 1.1 -1.7c.5 -.5 1.1 -.9 1.7 -1.1c.6 -.3 1.3 -.4 2 -.4Z" class="g2_131"/>
<path d="M139.3 387.5h24.1c.7 0 1.3 .1 1.9 .4c.7 .3 1.2 .6 1.7 1.1c.5 .5 .9 1.1 1.1 1.7c.3 .6 .4 1.3 .4 2v24c0 .7 -.1 1.4 -.4 2c-.2 .6 -.6 1.2 -1.1 1.7c-.5 .5 -1 .8 -1.7 1.1c-.6 .3 -1.2 .4 -1.9 .4H139.3c-.7 0 -1.3 -.1 -2 -.4c-.6 -.3 -1.1 -.6 -1.6 -1.1c-.5 -.5 -.9 -1.1 -1.2 -1.7c-.2 -.6 -.3 -1.3 -.3 -2v-24c0 -.7 .1 -1.4 .3 -2c.3 -.6 .7 -1.2 1.2 -1.7c.5 -.5 1 -.8 1.6 -1.1c.7 -.3 1.3 -.4 2 -.4Z" class="g1_131"/>
<path d="M139.3 387.5h24.1c.7 0 1.3 .1 1.9 .4c.7 .3 1.2 .6 1.7 1.1c.5 .5 .9 1.1 1.1 1.7c.3 .6 .4 1.3 .4 2v24c0 .7 -.1 1.4 -.4 2c-.2 .6 -.6 1.2 -1.1 1.7c-.5 .5 -1 .8 -1.7 1.1c-.6 .3 -1.2 .4 -1.9 .4H139.3c-.7 0 -1.3 -.1 -2 -.4c-.6 -.3 -1.1 -.6 -1.6 -1.1c-.5 -.5 -.9 -1.1 -1.2 -1.7c-.2 -.6 -.3 -1.3 -.3 -2v-24c0 -.7 .1 -1.4 .3 -2c.3 -.6 .7 -1.2 1.2 -1.7c.5 -.5 1 -.8 1.6 -1.1c.7 -.3 1.3 -.4 2 -.4Z" class="g2_131"/>
<path d="M472.8 208.8h24c.7 0 1.4 .1 2 .4c.6 .2 1.2 .6 1.7 1.1c.4 .5 .8 1 1.1 1.6c.2 .7 .4 1.3 .4 2V238c0 .7 -.2 1.3 -.4 2c-.3 .6 -.7 1.1 -1.1 1.6c-.5 .5 -1.1 .9 -1.7 1.1c-.6 .3 -1.3 .4 -2 .4h-24c-.7 0 -1.4 -.1 -2 -.4c-.7 -.2 -1.2 -.6 -1.7 -1.1c-.5 -.5 -.9 -1 -1.1 -1.6c-.3 -.7 -.4 -1.3 -.4 -2V213.9c0 -.7 .1 -1.3 .4 -2c.2 -.6 .6 -1.1 1.1 -1.6c.5 -.5 1 -.9 1.7 -1.1c.6 -.3 1.3 -.4 2 -.4Z" class="g1_131"/>
<path d="M472.8 208.8h24c.7 0 1.4 .1 2 .4c.6 .2 1.2 .6 1.7 1.1c.4 .5 .8 1 1.1 1.6c.2 .7 .4 1.3 .4 2V238c0 .7 -.2 1.3 -.4 2c-.3 .6 -.7 1.1 -1.1 1.6c-.5 .5 -1.1 .9 -1.7 1.1c-.6 .3 -1.3 .4 -2 .4h-24c-.7 0 -1.4 -.1 -2 -.4c-.7 -.2 -1.2 -.6 -1.7 -1.1c-.5 -.5 -.9 -1 -1.1 -1.6c-.3 -.7 -.4 -1.3 -.4 -2V213.9c0 -.7 .1 -1.3 .4 -2c.2 -.6 .6 -1.1 1.1 -1.6c.5 -.5 1 -.9 1.7 -1.1c.6 -.3 1.3 -.4 2 -.4Z" class="g2_131"/>
<path d="M135.9 302.7h24c.7 0 1.4 .2 2 .4c.6 .3 1.2 .6 1.7 1.1c.5 .5 .8 1.1 1.1 1.7c.3 .6 .4 1.3 .4 2v24c0 .7 -.1 1.4 -.4 2c-.3 .6 -.6 1.2 -1.1 1.7c-.5 .5 -1.1 .8 -1.7 1.1c-.6 .3 -1.3 .4 -2 .4h-24c-.7 0 -1.4 -.1 -2 -.4c-.6 -.3 -1.2 -.6 -1.7 -1.1c-.5 -.5 -.8 -1.1 -1.1 -1.7c-.2 -.6 -.4 -1.3 -.4 -2v-24c0 -.7 .2 -1.4 .4 -2c.3 -.6 .6 -1.2 1.1 -1.7c.5 -.5 1.1 -.8 1.7 -1.1c.6 -.2 1.3 -.4 2 -.4Z" class="g1_131"/>
<path d="M135.9 302.7h24c.7 0 1.4 .2 2 .4c.6 .3 1.2 .6 1.7 1.1c.5 .5 .8 1.1 1.1 1.7c.3 .6 .4 1.3 .4 2v24c0 .7 -.1 1.4 -.4 2c-.3 .6 -.6 1.2 -1.1 1.7c-.5 .5 -1.1 .8 -1.7 1.1c-.6 .3 -1.3 .4 -2 .4h-24c-.7 0 -1.4 -.1 -2 -.4c-.6 -.3 -1.2 -.6 -1.7 -1.1c-.5 -.5 -.8 -1.1 -1.1 -1.7c-.2 -.6 -.4 -1.3 -.4 -2v-24c0 -.7 .2 -1.4 .4 -2c.3 -.6 .6 -1.2 1.1 -1.7c.5 -.5 1.1 -.8 1.7 -1.1c.6 -.2 1.3 -.4 2 -.4Z" class="g2_131"/>
<path d="M271.7 529.6h24c.7 0 1.4 .1 2 .4c.6 .2 1.2 .6 1.7 1.1c.4 .5 .8 1 1.1 1.7c.2 .6 .4 1.3 .4 2v24c0 .7 -.2 1.4 -.4 2c-.3 .6 -.7 1.2 -1.1 1.7c-.5 .4 -1.1 .8 -1.7 1.1c-.6 .2 -1.3 .4 -2 .4h-24c-.7 0 -1.4 -.2 -2 -.4c-.6 -.3 -1.2 -.7 -1.7 -1.1c-.5 -.5 -.8 -1.1 -1.1 -1.7c-.3 -.6 -.4 -1.3 -.4 -2v-24c0 -.7 .1 -1.4 .4 -2c.3 -.7 .6 -1.2 1.1 -1.7c.5 -.5 1.1 -.9 1.7 -1.1c.6 -.3 1.3 -.4 2 -.4Z" class="g1_131"/>
<path d="M271.7 529.6h24c.7 0 1.4 .1 2 .4c.6 .2 1.2 .6 1.7 1.1c.4 .5 .8 1 1.1 1.7c.2 .6 .4 1.3 .4 2v24c0 .7 -.2 1.4 -.4 2c-.3 .6 -.7 1.2 -1.1 1.7c-.5 .4 -1.1 .8 -1.7 1.1c-.6 .2 -1.3 .4 -2 .4h-24c-.7 0 -1.4 -.2 -2 -.4c-.6 -.3 -1.2 -.7 -1.7 -1.1c-.5 -.5 -.8 -1.1 -1.1 -1.7c-.3 -.6 -.4 -1.3 -.4 -2v-24c0 -.7 .1 -1.4 .4 -2c.3 -.7 .6 -1.2 1.1 -1.7c.5 -.5 1.1 -.9 1.7 -1.1c.6 -.3 1.3 -.4 2 -.4Z" class="g2_131"/>
<path d="M185.1 207.6h24.1c.7 0 1.4 .1 2 .4c.6 .3 1.2 .6 1.7 1.1c.4 .5 .8 1.1 1.1 1.7c.2 .6 .4 1.3 .4 2v24c0 .7 -.2 1.4 -.4 2c-.3 .6 -.7 1.2 -1.1 1.7c-.5 .5 -1.1 .8 -1.7 1.1c-.6 .3 -1.3 .4 -2 .4H185.1c-.6 0 -1.3 -.1 -1.9 -.4c-.7 -.3 -1.2 -.6 -1.7 -1.1c-.5 -.5 -.9 -1.1 -1.1 -1.7c-.3 -.6 -.4 -1.3 -.4 -2v-24c0 -.7 .1 -1.4 .4 -2c.2 -.6 .6 -1.2 1.1 -1.7c.5 -.5 1 -.8 1.7 -1.1c.6 -.3 1.3 -.4 1.9 -.4Z" class="g1_131"/>
<path d="M185.1 207.6h24.1c.7 0 1.4 .1 2 .4c.6 .3 1.2 .6 1.7 1.1c.4 .5 .8 1.1 1.1 1.7c.2 .6 .4 1.3 .4 2v24c0 .7 -.2 1.4 -.4 2c-.3 .6 -.7 1.2 -1.1 1.7c-.5 .5 -1.1 .8 -1.7 1.1c-.6 .3 -1.3 .4 -2 .4H185.1c-.6 0 -1.3 -.1 -1.9 -.4c-.7 -.3 -1.2 -.6 -1.7 -1.1c-.5 -.5 -.9 -1.1 -1.1 -1.7c-.3 -.6 -.4 -1.3 -.4 -2v-24c0 -.7 .1 -1.4 .4 -2c.2 -.6 .6 -1.2 1.1 -1.7c.5 -.5 1 -.8 1.7 -1.1c.6 -.3 1.3 -.4 1.9 -.4Z" class="g2_131"/>
<path d="M524.9 302.7h24c.7 0 1.4 .2 2 .4c.7 .3 1.2 .6 1.7 1.1c.5 .5 .9 1.1 1.1 1.7c.3 .6 .4 1.3 .4 2v24c0 .7 -.1 1.4 -.4 2c-.2 .6 -.6 1.2 -1.1 1.7c-.5 .5 -1 .8 -1.7 1.1c-.6 .3 -1.3 .4 -2 .4h-24c-.7 0 -1.4 -.1 -2 -.4c-.6 -.3 -1.2 -.6 -1.7 -1.1c-.4 -.5 -.8 -1.1 -1.1 -1.7c-.2 -.6 -.4 -1.3 -.4 -2v-24c0 -.7 .2 -1.4 .4 -2c.3 -.6 .7 -1.2 1.1 -1.7c.5 -.5 1.1 -.8 1.7 -1.1c.6 -.2 1.3 -.4 2 -.4Z" class="g1_131"/>
<path d="M524.9 302.7h24c.7 0 1.4 .2 2 .4c.7 .3 1.2 .6 1.7 1.1c.5 .5 .9 1.1 1.1 1.7c.3 .6 .4 1.3 .4 2v24c0 .7 -.1 1.4 -.4 2c-.2 .6 -.6 1.2 -1.1 1.7c-.5 .5 -1 .8 -1.7 1.1c-.6 .3 -1.3 .4 -2 .4h-24c-.7 0 -1.4 -.1 -2 -.4c-.6 -.3 -1.2 -.6 -1.7 -1.1c-.4 -.5 -.8 -1.1 -1.1 -1.7c-.2 -.6 -.4 -1.3 -.4 -2v-24c0 -.7 .2 -1.4 .4 -2c.3 -.6 .7 -1.2 1.1 -1.7c.5 -.5 1.1 -.8 1.7 -1.1c.6 -.2 1.3 -.4 2 -.4Z" class="g2_131"/>
<path d="M175.4 473.4h24.1c.7 0 1.3 .2 1.9 .4c.7 .3 1.2 .7 1.7 1.2c.5 .4 .9 1 1.1 1.6c.3 .7 .4 1.3 .4 2v24.1c0 .7 -.1 1.3 -.4 1.9c-.2 .7 -.6 1.2 -1.1 1.7c-.5 .5 -1 .9 -1.7 1.1c-.6 .3 -1.2 .4 -1.9 .4H175.4c-.7 0 -1.3 -.1 -2 -.4c-.6 -.2 -1.2 -.6 -1.6 -1.1c-.5 -.5 -.9 -1 -1.2 -1.7c-.2 -.6 -.3 -1.2 -.3 -1.9V478.6c0 -.7 .1 -1.3 .3 -2c.3 -.6 .7 -1.2 1.2 -1.6c.4 -.5 1 -.9 1.6 -1.2c.7 -.2 1.3 -.4 2 -.4Z" class="g1_131"/>
<path d="M175.4 473.4h24.1c.7 0 1.3 .2 1.9 .4c.7 .3 1.2 .7 1.7 1.2c.5 .4 .9 1 1.1 1.6c.3 .7 .4 1.3 .4 2v24.1c0 .7 -.1 1.3 -.4 1.9c-.2 .7 -.6 1.2 -1.1 1.7c-.5 .5 -1 .9 -1.7 1.1c-.6 .3 -1.2 .4 -1.9 .4H175.4c-.7 0 -1.3 -.1 -2 -.4c-.6 -.2 -1.2 -.6 -1.6 -1.1c-.5 -.5 -.9 -1 -1.2 -1.7c-.2 -.6 -.3 -1.2 -.3 -1.9V478.6c0 -.7 .1 -1.3 .3 -2c.3 -.6 .7 -1.2 1.2 -1.6c.4 -.5 1 -.9 1.6 -1.2c.7 -.2 1.3 -.4 2 -.4Z" class="g2_131"/>
<path d="M477.9 473.4H502c.7 0 1.3 .2 1.9 .4c.7 .3 1.2 .7 1.7 1.2c.5 .4 .9 1 1.1 1.6c.3 .7 .4 1.3 .4 2v24.1c0 .7 -.1 1.3 -.4 1.9c-.2 .7 -.6 1.2 -1.1 1.7c-.5 .5 -1 .9 -1.7 1.1c-.6 .3 -1.2 .4 -1.9 .4H477.9c-.7 0 -1.3 -.1 -2 -.4c-.6 -.2 -1.2 -.6 -1.6 -1.1c-.5 -.5 -.9 -1 -1.2 -1.7c-.2 -.6 -.3 -1.2 -.3 -1.9V478.6c0 -.7 .1 -1.3 .3 -2c.3 -.6 .7 -1.2 1.2 -1.6c.4 -.5 1 -.9 1.6 -1.2c.7 -.2 1.3 -.4 2 -.4Z" class="g1_131"/>
<path d="M477.9 473.4H502c.7 0 1.3 .2 1.9 .4c.7 .3 1.2 .7 1.7 1.2c.5 .4 .9 1 1.1 1.6c.3 .7 .4 1.3 .4 2v24.1c0 .7 -.1 1.3 -.4 1.9c-.2 .7 -.6 1.2 -1.1 1.7c-.5 .5 -1 .9 -1.7 1.1c-.6 .3 -1.2 .4 -1.9 .4H477.9c-.7 0 -1.3 -.1 -2 -.4c-.6 -.2 -1.2 -.6 -1.6 -1.1c-.5 -.5 -.9 -1 -1.2 -1.7c-.2 -.6 -.3 -1.2 -.3 -1.9V478.6c0 -.7 .1 -1.3 .3 -2c.3 -.6 .7 -1.2 1.2 -1.6c.4 -.5 1 -.9 1.6 -1.2c.7 -.2 1.3 -.4 2 -.4Z" class="g2_131"/>
<path d="M277.4 151.5h24c.7 0 1.4 .1 2 .4c.7 .2 1.2 .6 1.7 1.1c.5 .5 .9 1 1.1 1.7c.3 .6 .4 1.2 .4 1.9v24.1c0 .7 -.1 1.3 -.4 2c-.2 .6 -.6 1.2 -1.1 1.6c-.5 .5 -1 .9 -1.7 1.2c-.6 .2 -1.3 .3 -2 .3h-24c-.7 0 -1.4 -.1 -2 -.3c-.6 -.3 -1.2 -.7 -1.7 -1.2c-.4 -.4 -.8 -1 -1.1 -1.6c-.2 -.7 -.4 -1.3 -.4 -2V156.6c0 -.7 .2 -1.3 .4 -1.9c.3 -.7 .7 -1.2 1.1 -1.7c.5 -.5 1.1 -.9 1.7 -1.1c.6 -.3 1.3 -.4 2 -.4Z" class="g1_131"/>
<path d="M277.4 151.5h24c.7 0 1.4 .1 2 .4c.7 .2 1.2 .6 1.7 1.1c.5 .5 .9 1 1.1 1.7c.3 .6 .4 1.2 .4 1.9v24.1c0 .7 -.1 1.3 -.4 2c-.2 .6 -.6 1.2 -1.1 1.6c-.5 .5 -1 .9 -1.7 1.2c-.6 .2 -1.3 .3 -2 .3h-24c-.7 0 -1.4 -.1 -2 -.3c-.6 -.3 -1.2 -.7 -1.7 -1.2c-.4 -.4 -.8 -1 -1.1 -1.6c-.2 -.7 -.4 -1.3 -.4 -2V156.6c0 -.7 .2 -1.3 .4 -1.9c.3 -.7 .7 -1.2 1.1 -1.7c.5 -.5 1.1 -.9 1.7 -1.1c.6 -.3 1.3 -.4 2 -.4Z" class="g2_131"/>
<path d="M373.6 529.6h24.1c.7 0 1.3 .1 2 .4c.6 .2 1.2 .6 1.6 1.1c.5 .5 .9 1 1.2 1.7c.2 .6 .4 1.3 .4 2v24c0 .7 -.2 1.4 -.4 2c-.3 .6 -.7 1.2 -1.2 1.7c-.4 .4 -1 .8 -1.6 1.1c-.7 .2 -1.3 .4 -2 .4H373.6c-.6 0 -1.3 -.2 -1.9 -.4c-.7 -.3 -1.2 -.7 -1.7 -1.1c-.5 -.5 -.9 -1.1 -1.1 -1.7c-.3 -.6 -.4 -1.3 -.4 -2v-24c0 -.7 .1 -1.4 .4 -2c.2 -.7 .6 -1.2 1.1 -1.7c.5 -.5 1 -.9 1.7 -1.1c.6 -.3 1.3 -.4 1.9 -.4Z" class="g1_131"/>
<path d="M373.6 529.6h24.1c.7 0 1.3 .1 2 .4c.6 .2 1.2 .6 1.6 1.1c.5 .5 .9 1 1.2 1.7c.2 .6 .4 1.3 .4 2v24c0 .7 -.2 1.4 -.4 2c-.3 .6 -.7 1.2 -1.2 1.7c-.4 .4 -1 .8 -1.6 1.1c-.7 .2 -1.3 .4 -2 .4H373.6c-.6 0 -1.3 -.2 -1.9 -.4c-.7 -.3 -1.2 -.7 -1.7 -1.1c-.5 -.5 -.9 -1.1 -1.1 -1.7c-.3 -.6 -.4 -1.3 -.4 -2v-24c0 -.7 .1 -1.4 .4 -2c.2 -.7 .6 -1.2 1.1 -1.7c.5 -.5 1 -.9 1.7 -1.1c.6 -.3 1.3 -.4 1.9 -.4Z" class="g2_131"/>
<path d="M524.9 378.3h24c.7 0 1.4 .2 2 .4c.7 .3 1.2 .7 1.7 1.2c.5 .4 .9 1 1.1 1.6c.3 .7 .4 1.3 .4 2v24.1c0 .6 -.1 1.3 -.4 1.9c-.2 .7 -.6 1.2 -1.1 1.7c-.5 .5 -1 .9 -1.7 1.1c-.6 .3 -1.3 .4 -2 .4h-24c-.7 0 -1.4 -.1 -2 -.4c-.6 -.2 -1.2 -.6 -1.7 -1.1c-.4 -.5 -.8 -1 -1.1 -1.7c-.2 -.6 -.4 -1.3 -.4 -1.9V383.5c0 -.7 .2 -1.3 .4 -2c.3 -.6 .7 -1.2 1.1 -1.6c.5 -.5 1.1 -.9 1.7 -1.2c.6 -.2 1.3 -.4 2 -.4Z" class="g1_131"/>
<path d="M524.9 378.3h24c.7 0 1.4 .2 2 .4c.7 .3 1.2 .7 1.7 1.2c.5 .4 .9 1 1.1 1.6c.3 .7 .4 1.3 .4 2v24.1c0 .6 -.1 1.3 -.4 1.9c-.2 .7 -.6 1.2 -1.1 1.7c-.5 .5 -1 .9 -1.7 1.1c-.6 .3 -1.3 .4 -2 .4h-24c-.7 0 -1.4 -.1 -2 -.4c-.6 -.2 -1.2 -.6 -1.7 -1.1c-.4 -.5 -.8 -1 -1.1 -1.7c-.2 -.6 -.4 -1.3 -.4 -1.9V383.5c0 -.7 .2 -1.3 .4 -2c.3 -.6 .7 -1.2 1.1 -1.6c.5 -.5 1.1 -.9 1.7 -1.2c.6 -.2 1.3 -.4 2 -.4Z" class="g2_131"/>
<path clip-path="url(#c0_131)" d="M504.3 429.3h3.6v1.2h-3.6v-1.2Zm7.1 0l3.5 -.1v1.2h-3.5v-1.1Zm6.8 -.1l3.3 -.1v1.1l-3.3 .1v-1.1ZM525 429l3.6 -.2V430l-3.5 .1L525 429Zm7 -.3c1.1 -.1 2.2 -.2 3.3 -.2l.1 1.1c-1.1 .1 -2.2 .1 -3.3 .2l-.1 -1.1Zm6.6 -.5c1.2 -.1 2.5 -.2 3.6 -.3l.1 1.2c-1.2 .1 -2.4 .2 -3.6 .3l-.1 -1.2Zm7.1 -.6c1.1 -.1 2.2 -.3 3.3 -.4l.1 1.2c-1.1 .1 -2.2 .2 -3.3 .3l-.1 -1.1Zm6.6 -.8c1.2 -.2 2.4 -.4 3.6 -.6l.2 1.2c-1.2 .2 -2.4 .4 -3.6 .5l-.2 -1.1Zm6.9 -1.1c1.1 -.2 2.1 -.5 3.1 -.7l.3 1.1c-1 .3 -2.1 .5 -3.2 .7l-.2 -1.1Zm6.7 -1.6c1.1 -.3 2.2 -.6 3.2 -.9l.3 1.1c-1 .3 -2.1 .6 -3.2 .9l-.3 -1.1Zm6.4 -2.1c1.1 -.5 2.1 -1 3 -1.5l.5 1c-.9 .5 -1.9 1 -3.1 1.5l-.4 -1Zm5.7 -3.4c.9 -.8 1.5 -1.5 2 -2.4l1 .6c-.5 .9 -1.3 1.8 -2.2 2.7l-.8 -.9Zm3 -5.4c0 -.2 0 -.3 0 -.5c0 -1.1 0 -2.1 -.1 -3l1.1 -.2c.1 1 .2 2.1 .2 3.2c0 .2 0 .4 0 .6l-1.2 -.1Zm-.8 -6.7c-.4 -1.1 -.8 -2.1 -1.3 -3l1 -.6c.5 1 1 2.1 1.4 3.2l-1.1 .4Zm-3.3 -5.6c-.8 -.7 -1.6 -1.4 -2.6 -1.9l.6 -1c1.1 .6 2 1.3 2.8 2.1l-.8 .8Zm-5.6 -3.4c-1 -.3 -2 -.6 -3.2 -.8l.3 -1.1c1.1 .2 2.2 .5 3.3 .9l-.4 1Zm-6.5 -1.3c-1.1 0 -2.2 -.1 -3.4 -.1V395c1.2 0 2.4 0 3.5 .1l-.1 1.1Z" class="g1_131"/>
<path d="M555.4 395.5l8 -2.6l-2 2.6l2 2.7l-8 -2.7Z" class="g1_131"/>
<path d="M555.4 395.5l8 -2.6l-2 2.6l2 2.7l-8 -2.7Z" class="g2_131"/>
<path d="M181.1 286.1h-3.6V285h3.6v1.1Zm-7.1 .1h-3.4v-1.1L174 285v1.2Zm-6.7 .1l-3.4 .1v-1.1l3.3 -.1l.1 1.1Zm-7 .3c-1.2 0 -2.3 .1 -3.4 .2l-.1 -1.2c1.1 -.1 2.3 -.1 3.5 -.2v1.2Zm-6.8 .4c-1.1 .1 -2.2 .1 -3.3 .2l-.1 -1.1c1.1 -.1 2.2 -.2 3.3 -.3l.1 1.2Zm-6.9 .6c-1.1 .1 -2.3 .2 -3.4 .3l-.1 -1.1c1.1 -.1 2.2 -.3 3.4 -.4l.1 1.2Zm-6.6 .8c-1.2 .1 -2.4 .3 -3.5 .5l-.2 -1.1c1.1 -.2 2.3 -.4 3.5 -.6l.2 1.2Zm-6.9 1.1c-1.1 .3 -2.2 .5 -3.2 .7l-.3 -1.1c1.1 -.2 2.1 -.5 3.2 -.7l.3 1.1Zm-6.6 1.6c-1.2 .4 -2.2 .7 -3.2 1.1l-.4 -1.1c1 -.4 2.1 -.7 3.2 -1.1l.4 1.1Zm-6.3 2.4c-1.1 .5 -2.1 1.1 -2.9 1.6l-.7 -.9c.9 -.6 1.9 -1.2 3.1 -1.7l.5 1Zm-5.5 3.7c-.8 .9 -1.4 1.7 -1.7 2.6l-1.1 -.4c.4 -1 1.1 -2 2 -2.9l.8 .7Zm-2.3 5.8c0 1.3 .1 2.5 .2 3.6l-1.2 .1c-.1 -1.1 -.2 -2.3 -.2 -3.7h1.2Zm.6 6.8c.3 1.2 .6 2.3 1 3.3l-1 .4c-.5 -1 -.8 -2.2 -1.1 -3.5l1.1 -.2Zm2.6 6c.7 .9 1.5 1.6 2.4 2.2l-.6 1c-1 -.6 -1.9 -1.5 -2.7 -2.5l.9 -.7Zm5.3 3.3c.8 .2 1.6 .2 2.5 .2v1.2c-.9 0 -1.9 -.1 -2.7 -.3l.2 -1.1Z" class="g1_131"/>
<path d="M129.4 319.9l-8 2.7l2 -2.7l-2 -2.7l8 2.7Z" class="g1_131"/>
<path d="M129.4 319.9l-8 2.7l2 -2.7l-2 -2.7l8 2.7Z" class="g2_131"/>
</g>
</svg>