<?xml version="1.0" encoding="UTF-8" standalone="no"?>
<!DOCTYPE svg PUBLIC "-//W3C//DTD SVG 1.1//EN"
"http://www.w3.org/Graphics/SVG/1.1/DTD/svg11.dtd">
<svg viewBox="0 0 714 1017" version="1.1" xmlns="http://www.w3.org/2000/svg" xmlns:xlink="http://www.w3.org/1999/xlink">
<defs>
<clipPath id="c0_300"><path d="M305.4 832.3v-139H432.2v139Z"/></clipPath>
<style type="text/css"><![CDATA[
.g0_300{
fill: #FFF;
}
.g1_300{
fill: none;
stroke: #000;
stroke-width: 1.145;
stroke-miterlimit: 10;
}
.g2_300{
fill: none;
stroke: #000;
stroke-width: 0.608;
stroke-miterlimit: 10;
}
]]></style>
</defs>
<path d="M0 1017.7H717.2V-3.7H0V1017.7Z" class="g0_300"/>
<g clip-path="url(#c0_300)">
<path d="M305.4 693.4H430.3V832H305.4V693.4Z" class="g0_300"/>
<path d="M379.3 705.4c0 .7 -.1 1.5 -.2 2.2c-.2 .8 -.4 1.5 -.7 2.2c-.2 .7 -.6 1.3 -1 2c-.4 .6 -.9 1.2 -1.4 1.7c-.6 .5 -1.2 1 -1.8 1.4c-.6 .4 -1.3 .8 -2 1.1c-.7 .3 -1.4 .5 -2.1 .6c-.7 .2 -1.5 .2 -2.2 .2c-.8 0 -1.5 0 -2.3 -.2c-.7 -.1 -1.4 -.3 -2.1 -.6c-.7 -.3 -1.4 -.7 -2 -1.1c-.6 -.4 -1.2 -.9 -1.7 -1.4c-.6 -.5 -1.1 -1.1 -1.5 -1.7c-.4 -.7 -.7 -1.3 -1 -2c-.3 -.7 -.5 -1.4 -.7 -2.2c-.1 -.7 -.2 -1.5 -.2 -2.2c0 -.8 .1 -1.5 .2 -2.3c.2 -.7 .4 -1.4 .7 -2.1c.3 -.7 .6 -1.4 1 -2c.4 -.6 .9 -1.2 1.5 -1.7c.5 -.6 1.1 -1 1.7 -1.4c.6 -.5 1.3 -.8 2 -1.1c.7 -.3 1.4 -.5 2.1 -.7c.8 -.1 1.5 -.2 2.3 -.2c.7 0 1.5 .1 2.2 .2c.7 .2 1.4 .4 2.1 .7c.7 .3 1.4 .6 2 1.1c.6 .4 1.2 .8 1.8 1.4c.5 .5 1 1.1 1.4 1.7c.4 .6 .8 1.3 1 2c.3 .7 .5 1.4 .7 2.1c.1 .8 .2 1.5 .2 2.3Z" class="g0_300"/>
<path d="M379.3 705.4c0 .7 -.1 1.5 -.2 2.2c-.2 .8 -.4 1.5 -.7 2.2c-.2 .7 -.6 1.3 -1 2c-.4 .6 -.9 1.2 -1.4 1.7c-.6 .5 -1.2 1 -1.8 1.4c-.6 .4 -1.3 .8 -2 1.1c-.7 .3 -1.4 .5 -2.1 .6c-.7 .2 -1.5 .2 -2.2 .2c-.8 0 -1.5 0 -2.3 -.2c-.7 -.1 -1.4 -.3 -2.1 -.6c-.7 -.3 -1.4 -.7 -2 -1.1c-.6 -.4 -1.2 -.9 -1.7 -1.4c-.6 -.5 -1.1 -1.1 -1.5 -1.7c-.4 -.7 -.7 -1.3 -1 -2c-.3 -.7 -.5 -1.4 -.7 -2.2c-.1 -.7 -.2 -1.5 -.2 -2.2c0 -.8 .1 -1.5 .2 -2.3c.2 -.7 .4 -1.4 .7 -2.1c.3 -.7 .6 -1.4 1 -2c.4 -.6 .9 -1.2 1.5 -1.7c.5 -.6 1.1 -1 1.7 -1.4c.6 -.5 1.3 -.8 2 -1.1c.7 -.3 1.4 -.5 2.1 -.7c.8 -.1 1.5 -.2 2.3 -.2c.7 0 1.5 .1 2.2 .2c.7 .2 1.4 .4 2.1 .7c.7 .3 1.4 .6 2 1.1c.6 .4 1.2 .8 1.8 1.4c.5 .5 1 1.1 1.4 1.7c.4 .6 .8 1.3 1 2c.3 .7 .5 1.4 .7 2.1c.1 .8 .2 1.5 .2 2.3Z" class="g1_300"/>
<path d="M429.7 737.5c0 .7 0 1.5 -.2 2.2c-.1 .7 -.4 1.5 -.6 2.2c-.3 .6 -.7 1.3 -1.1 1.9c-.4 .7 -.9 1.2 -1.4 1.8c-.6 .5 -1.1 1 -1.8 1.4c-.6 .4 -1.2 .8 -1.9 1.1c-.7 .2 -1.5 .5 -2.2 .6c-.7 .2 -1.5 .2 -2.2 .2c-.8 0 -1.5 0 -2.3 -.2c-.7 -.1 -1.4 -.4 -2.1 -.6c-.7 -.3 -1.4 -.7 -2 -1.1c-.6 -.4 -1.2 -.9 -1.7 -1.4c-.6 -.6 -1 -1.1 -1.5 -1.8c-.4 -.6 -.7 -1.3 -1 -1.9c-.3 -.7 -.5 -1.5 -.7 -2.2c-.1 -.7 -.2 -1.5 -.2 -2.2c0 -.8 .1 -1.5 .2 -2.3c.2 -.7 .4 -1.4 .7 -2.1c.3 -.7 .6 -1.4 1 -2c.5 -.6 .9 -1.2 1.5 -1.7c.5 -.6 1.1 -1 1.7 -1.5c.6 -.4 1.3 -.7 2 -1c.7 -.3 1.4 -.5 2.1 -.7c.8 -.1 1.5 -.2 2.3 -.2c.7 0 1.5 .1 2.2 .2c.7 .2 1.5 .4 2.2 .7c.7 .3 1.3 .6 1.9 1c.7 .5 1.2 .9 1.8 1.5c.5 .5 1 1.1 1.4 1.7c.4 .6 .8 1.3 1.1 2c.2 .7 .5 1.4 .6 2.1c.2 .8 .2 1.5 .2 2.3Z" class="g0_300"/>
<path d="M429.7 737.5c0 .7 0 1.5 -.2 2.2c-.1 .7 -.4 1.5 -.6 2.2c-.3 .6 -.7 1.3 -1.1 1.9c-.4 .7 -.9 1.2 -1.4 1.8c-.6 .5 -1.1 1 -1.8 1.4c-.6 .4 -1.2 .8 -1.9 1.1c-.7 .2 -1.5 .5 -2.2 .6c-.7 .2 -1.5 .2 -2.2 .2c-.8 0 -1.5 0 -2.3 -.2c-.7 -.1 -1.4 -.4 -2.1 -.6c-.7 -.3 -1.4 -.7 -2 -1.1c-.6 -.4 -1.2 -.9 -1.7 -1.4c-.6 -.6 -1 -1.1 -1.5 -1.8c-.4 -.6 -.7 -1.3 -1 -1.9c-.3 -.7 -.5 -1.5 -.7 -2.2c-.1 -.7 -.2 -1.5 -.2 -2.2c0 -.8 .1 -1.5 .2 -2.3c.2 -.7 .4 -1.4 .7 -2.1c.3 -.7 .6 -1.4 1 -2c.5 -.6 .9 -1.2 1.5 -1.7c.5 -.6 1.1 -1 1.7 -1.5c.6 -.4 1.3 -.7 2 -1c.7 -.3 1.4 -.5 2.1 -.7c.8 -.1 1.5 -.2 2.3 -.2c.7 0 1.5 .1 2.2 .2c.7 .2 1.5 .4 2.2 .7c.7 .3 1.3 .6 1.9 1c.7 .5 1.2 .9 1.8 1.5c.5 .5 1 1.1 1.4 1.7c.4 .6 .8 1.3 1.1 2c.2 .7 .5 1.4 .6 2.1c.2 .8 .2 1.5 .2 2.3Z" class="g1_300"/>
<path d="M328.9 737.5c0 .7 -.1 1.5 -.2 2.2c-.2 .7 -.4 1.5 -.7 2.2c-.3 .6 -.6 1.3 -1 1.9c-.4 .7 -.9 1.2 -1.5 1.8c-.5 .5 -1.1 1 -1.7 1.4c-.6 .4 -1.3 .8 -2 1.1c-.7 .2 -1.4 .5 -2.1 .6c-.8 .2 -1.5 .2 -2.3 .2c-.7 0 -1.5 0 -2.2 -.2c-.7 -.1 -1.4 -.4 -2.1 -.6c-.7 -.3 -1.4 -.7 -2 -1.1c-.6 -.4 -1.2 -.9 -1.8 -1.4c-.5 -.6 -1 -1.1 -1.4 -1.8c-.4 -.6 -.8 -1.3 -1 -1.9c-.3 -.7 -.5 -1.5 -.7 -2.2c-.1 -.7 -.2 -1.5 -.2 -2.2c0 -.8 .1 -1.5 .2 -2.3c.2 -.7 .4 -1.4 .7 -2.1c.2 -.7 .6 -1.4 1 -2c.4 -.6 .9 -1.2 1.4 -1.7c.6 -.6 1.2 -1 1.8 -1.5c.6 -.4 1.3 -.7 2 -1c.7 -.3 1.4 -.5 2.1 -.7c.7 -.1 1.5 -.2 2.2 -.2c.8 0 1.5 .1 2.3 .2c.7 .2 1.4 .4 2.1 .7c.7 .3 1.4 .6 2 1c.6 .5 1.2 .9 1.7 1.5c.6 .5 1.1 1.1 1.5 1.7c.4 .6 .7 1.3 1 2c.3 .7 .5 1.4 .7 2.1c.1 .8 .2 1.5 .2 2.3Z" class="g0_300"/>
<path d="M328.9 737.5c0 .7 -.1 1.5 -.2 2.2c-.2 .7 -.4 1.5 -.7 2.2c-.3 .6 -.6 1.3 -1 1.9c-.4 .7 -.9 1.2 -1.5 1.8c-.5 .5 -1.1 1 -1.7 1.4c-.6 .4 -1.3 .8 -2 1.1c-.7 .2 -1.4 .5 -2.1 .6c-.8 .2 -1.5 .2 -2.3 .2c-.7 0 -1.5 0 -2.2 -.2c-.7 -.1 -1.4 -.4 -2.1 -.6c-.7 -.3 -1.4 -.7 -2 -1.1c-.6 -.4 -1.2 -.9 -1.8 -1.4c-.5 -.6 -1 -1.1 -1.4 -1.8c-.4 -.6 -.8 -1.3 -1 -1.9c-.3 -.7 -.5 -1.5 -.7 -2.2c-.1 -.7 -.2 -1.5 -.2 -2.2c0 -.8 .1 -1.5 .2 -2.3c.2 -.7 .4 -1.4 .7 -2.1c.2 -.7 .6 -1.4 1 -2c.4 -.6 .9 -1.2 1.4 -1.7c.6 -.6 1.2 -1 1.8 -1.5c.6 -.4 1.3 -.7 2 -1c.7 -.3 1.4 -.5 2.1 -.7c.7 -.1 1.5 -.2 2.2 -.2c.8 0 1.5 .1 2.3 .2c.7 .2 1.4 .4 2.1 .7c.7 .3 1.4 .6 2 1c.6 .5 1.2 .9 1.7 1.5c.6 .5 1.1 1.1 1.5 1.7c.4 .6 .7 1.3 1 2c.3 .7 .5 1.4 .7 2.1c.1 .8 .2 1.5 .2 2.3Z" class="g1_300"/>
<path d="M328.9 789c0 .8 -.1 1.5 -.2 2.3c-.2 .7 -.4 1.4 -.7 2.1c-.3 .7 -.6 1.4 -1 2c-.4 .6 -.9 1.2 -1.5 1.7c-.5 .6 -1.1 1 -1.7 1.5c-.6 .4 -1.3 .7 -2 1c-.7 .3 -1.4 .5 -2.1 .7c-.8 .1 -1.5 .2 -2.3 .2c-.7 0 -1.5 -.1 -2.2 -.2c-.7 -.2 -1.4 -.4 -2.1 -.7c-.7 -.3 -1.4 -.6 -2 -1c-.6 -.5 -1.2 -.9 -1.8 -1.5c-.5 -.5 -1 -1.1 -1.4 -1.7c-.4 -.6 -.8 -1.3 -1 -2c-.3 -.7 -.5 -1.4 -.7 -2.1c-.1 -.8 -.2 -1.5 -.2 -2.3c0 -.7 .1 -1.5 .2 -2.2c.2 -.7 .4 -1.5 .7 -2.2c.2 -.6 .6 -1.3 1 -1.9c.4 -.7 .9 -1.2 1.4 -1.8c.6 -.5 1.2 -1 1.8 -1.4c.6 -.4 1.3 -.8 2 -1.1c.7 -.2 1.4 -.5 2.1 -.6c.7 -.2 1.5 -.2 2.2 -.2c.8 0 1.5 0 2.3 .2c.7 .1 1.4 .4 2.1 .6c.7 .3 1.4 .7 2 1.1c.6 .4 1.2 .9 1.7 1.4c.6 .6 1.1 1.1 1.5 1.8c.4 .6 .7 1.3 1 1.9c.3 .7 .5 1.5 .7 2.2c.1 .7 .2 1.5 .2 2.2Z" class="g0_300"/>
<path d="M328.9 789c0 .8 -.1 1.5 -.2 2.3c-.2 .7 -.4 1.4 -.7 2.1c-.3 .7 -.6 1.4 -1 2c-.4 .6 -.9 1.2 -1.5 1.7c-.5 .6 -1.1 1 -1.7 1.5c-.6 .4 -1.3 .7 -2 1c-.7 .3 -1.4 .5 -2.1 .7c-.8 .1 -1.5 .2 -2.3 .2c-.7 0 -1.5 -.1 -2.2 -.2c-.7 -.2 -1.4 -.4 -2.1 -.7c-.7 -.3 -1.4 -.6 -2 -1c-.6 -.5 -1.2 -.9 -1.8 -1.5c-.5 -.5 -1 -1.1 -1.4 -1.7c-.4 -.6 -.8 -1.3 -1 -2c-.3 -.7 -.5 -1.4 -.7 -2.1c-.1 -.8 -.2 -1.5 -.2 -2.3c0 -.7 .1 -1.5 .2 -2.2c.2 -.7 .4 -1.5 .7 -2.2c.2 -.6 .6 -1.3 1 -1.9c.4 -.7 .9 -1.2 1.4 -1.8c.6 -.5 1.2 -1 1.8 -1.4c.6 -.4 1.3 -.8 2 -1.1c.7 -.2 1.4 -.5 2.1 -.6c.7 -.2 1.5 -.2 2.2 -.2c.8 0 1.5 0 2.3 .2c.7 .1 1.4 .4 2.1 .6c.7 .3 1.4 .7 2 1.1c.6 .4 1.2 .9 1.7 1.4c.6 .6 1.1 1.1 1.5 1.8c.4 .6 .7 1.3 1 1.9c.3 .7 .5 1.5 .7 2.2c.1 .7 .2 1.5 .2 2.2Z" class="g1_300"/>
<path d="M379.3 820c0 .7 -.1 1.5 -.2 2.2c-.2 .7 -.4 1.5 -.7 2.2c-.2 .6 -.6 1.3 -1 1.9c-.4 .7 -.9 1.2 -1.4 1.8c-.6 .5 -1.2 1 -1.8 1.4c-.6 .4 -1.3 .8 -2 1.1c-.7 .2 -1.4 .5 -2.1 .6c-.7 .2 -1.5 .2 -2.2 .2c-.8 0 -1.5 0 -2.3 -.2c-.7 -.1 -1.4 -.4 -2.1 -.6c-.7 -.3 -1.4 -.7 -2 -1.1c-.6 -.4 -1.2 -.9 -1.7 -1.4c-.6 -.6 -1.1 -1.1 -1.5 -1.8c-.4 -.6 -.7 -1.3 -1 -1.9c-.3 -.7 -.5 -1.5 -.7 -2.2c-.1 -.7 -.2 -1.5 -.2 -2.2c0 -.8 .1 -1.5 .2 -2.3c.2 -.7 .4 -1.4 .7 -2.1c.3 -.7 .6 -1.4 1 -2c.4 -.6 .9 -1.2 1.5 -1.7c.5 -.6 1.1 -1 1.7 -1.5c.6 -.4 1.3 -.7 2 -1c.7 -.3 1.4 -.5 2.1 -.7c.8 -.1 1.5 -.2 2.3 -.2c.7 0 1.5 .1 2.2 .2c.7 .2 1.4 .4 2.1 .7c.7 .3 1.4 .6 2 1c.6 .5 1.2 .9 1.8 1.5c.5 .5 1 1.1 1.4 1.7c.4 .6 .8 1.3 1 2c.3 .7 .5 1.4 .7 2.1c.1 .8 .2 1.5 .2 2.3Z" class="g0_300"/>
<path d="M379.3 820c0 .7 -.1 1.5 -.2 2.2c-.2 .7 -.4 1.5 -.7 2.2c-.2 .6 -.6 1.3 -1 1.9c-.4 .7 -.9 1.2 -1.4 1.8c-.6 .5 -1.2 1 -1.8 1.4c-.6 .4 -1.3 .8 -2 1.1c-.7 .2 -1.4 .5 -2.1 .6c-.7 .2 -1.5 .2 -2.2 .2c-.8 0 -1.5 0 -2.3 -.2c-.7 -.1 -1.4 -.4 -2.1 -.6c-.7 -.3 -1.4 -.7 -2 -1.1c-.6 -.4 -1.2 -.9 -1.7 -1.4c-.6 -.6 -1.1 -1.1 -1.5 -1.8c-.4 -.6 -.7 -1.3 -1 -1.9c-.3 -.7 -.5 -1.5 -.7 -2.2c-.1 -.7 -.2 -1.5 -.2 -2.2c0 -.8 .1 -1.5 .2 -2.3c.2 -.7 .4 -1.4 .7 -2.1c.3 -.7 .6 -1.4 1 -2c.4 -.6 .9 -1.2 1.5 -1.7c.5 -.6 1.1 -1 1.7 -1.5c.6 -.4 1.3 -.7 2 -1c.7 -.3 1.4 -.5 2.1 -.7c.8 -.1 1.5 -.2 2.3 -.2c.7 0 1.5 .1 2.2 .2c.7 .2 1.4 .4 2.1 .7c.7 .3 1.4 .6 2 1c.6 .5 1.2 .9 1.8 1.5c.5 .5 1 1.1 1.4 1.7c.4 .6 .8 1.3 1 2c.3 .7 .5 1.4 .7 2.1c.1 .8 .2 1.5 .2 2.3Z" class="g1_300"/>
<path d="M429.7 789c0 .8 0 1.5 -.2 2.3c-.1 .7 -.4 1.4 -.6 2.1c-.3 .7 -.7 1.4 -1.1 2c-.4 .6 -.9 1.2 -1.4 1.7c-.6 .6 -1.1 1 -1.8 1.5c-.6 .4 -1.2 .7 -1.9 1c-.7 .3 -1.5 .5 -2.2 .7c-.7 .1 -1.5 .2 -2.2 .2c-.8 0 -1.5 -.1 -2.3 -.2c-.7 -.2 -1.4 -.4 -2.1 -.7c-.7 -.3 -1.4 -.6 -2 -1c-.6 -.5 -1.2 -.9 -1.7 -1.5c-.6 -.5 -1 -1.1 -1.5 -1.7c-.4 -.6 -.7 -1.3 -1 -2c-.3 -.7 -.5 -1.4 -.7 -2.1c-.1 -.8 -.2 -1.5 -.2 -2.3c0 -.7 .1 -1.5 .2 -2.2c.2 -.7 .4 -1.5 .7 -2.2c.3 -.6 .6 -1.3 1 -1.9c.5 -.7 .9 -1.2 1.5 -1.8c.5 -.5 1.1 -1 1.7 -1.4c.6 -.4 1.3 -.8 2 -1.1c.7 -.2 1.4 -.5 2.1 -.6c.8 -.2 1.5 -.2 2.3 -.2c.7 0 1.5 0 2.2 .2c.7 .1 1.5 .4 2.2 .6c.7 .3 1.3 .7 1.9 1.1c.7 .4 1.2 .9 1.8 1.4c.5 .6 1 1.1 1.4 1.8c.4 .6 .8 1.3 1.1 1.9c.2 .7 .5 1.5 .6 2.2c.2 .7 .2 1.5 .2 2.2Z" class="g0_300"/>
<path d="M429.7 789c0 .8 0 1.5 -.2 2.3c-.1 .7 -.4 1.4 -.6 2.1c-.3 .7 -.7 1.4 -1.1 2c-.4 .6 -.9 1.2 -1.4 1.7c-.6 .6 -1.1 1 -1.8 1.5c-.6 .4 -1.2 .7 -1.9 1c-.7 .3 -1.5 .5 -2.2 .7c-.7 .1 -1.5 .2 -2.2 .2c-.8 0 -1.5 -.1 -2.3 -.2c-.7 -.2 -1.4 -.4 -2.1 -.7c-.7 -.3 -1.4 -.6 -2 -1c-.6 -.5 -1.2 -.9 -1.7 -1.5c-.6 -.5 -1 -1.1 -1.5 -1.7c-.4 -.6 -.7 -1.3 -1 -2c-.3 -.7 -.5 -1.4 -.7 -2.1c-.1 -.8 -.2 -1.5 -.2 -2.3c0 -.7 .1 -1.5 .2 -2.2c.2 -.7 .4 -1.5 .7 -2.2c.3 -.6 .6 -1.3 1 -1.9c.5 -.7 .9 -1.2 1.5 -1.8c.5 -.5 1.1 -1 1.7 -1.4c.6 -.4 1.3 -.8 2 -1.1c.7 -.2 1.4 -.5 2.1 -.6c.8 -.2 1.5 -.2 2.3 -.2c.7 0 1.5 0 2.2 .2c.7 .1 1.5 .4 2.2 .6c.7 .3 1.3 .7 1.9 1.1c.7 .4 1.2 .9 1.8 1.4c.5 .6 1 1.1 1.4 1.8c.4 .6 .8 1.3 1.1 1.9c.2 .7 .5 1.5 .6 2.2c.2 .7 .2 1.5 .2 2.2Zm-102 -5.1l80.4 -41.2m-81 -11.3l31.1 -19.9m50.4 19.9L377.5 711.5m-54.2 67.7l38.6 -64m50.5 64l-38.6 -64m-5.9 93.3V716.8m-40.2 25.8l80.4 41.2M328.9 737.5h77.9m-47 74.4l-42.4 -63m56.4 61.3l38.5 -63m-94.9 30.4V748.9m100.9 28.7V748.9M328.9 789h77.9m-79.5 5.9L358.1 814m19.6 .1L408.5 795" class="g1_300"/>
</g>
<path d="M86.6 849.8H196.2" class="g2_300"/>
</svg>