<?xml version="1.0" encoding="UTF-8" standalone="no"?>
<!DOCTYPE svg PUBLIC "-//W3C//DTD SVG 1.1//EN"
"http://www.w3.org/Graphics/SVG/1.1/DTD/svg11.dtd">
<svg viewBox="0 0 714 1017" version="1.1" xmlns="http://www.w3.org/2000/svg" xmlns:xlink="http://www.w3.org/1999/xlink">
<defs>
<clipPath id="c0_78"><path d="M194.7 682.7v-136H543v136Z"/></clipPath>
<style type="text/css"><![CDATA[
.g0_78{
fill: #FFF;
}
.g1_78{
fill: none;
stroke: #000;
stroke-width: 2.291;
stroke-miterlimit: 10;
}
.g2_78{
fill: #000;
}
.g3_78{
fill: none;
stroke: #000;
stroke-width: 1.145;
stroke-miterlimit: 10;
}
]]></style>
</defs>
<path d="M0 1017.7H717.2V-3.7H0V1017.7Z" class="g0_78"/>
<g clip-path="url(#c0_78)">
<path d="M194.7 548.1h346V682.2h-346V548.1Z" class="g0_78"/>
<path d="M277.2 674.7L346 557.9l68.7 116.8H277.2Z" class="g1_78"/>
<path d="M310.4 658.7c0 .8 -.1 1.5 -.4 2.2c-.3 .7 -.7 1.3 -1.2 1.9c-.6 .5 -1.2 .9 -1.9 1.2c-.7 .3 -1.4 .4 -2.2 .4c-.8 0 -1.5 -.1 -2.2 -.4c-.7 -.3 -1.3 -.7 -1.9 -1.2c-.5 -.6 -.9 -1.2 -1.2 -1.9c-.3 -.7 -.4 -1.4 -.4 -2.2c0 -.8 .1 -1.5 .4 -2.2c.3 -.7 .7 -1.3 1.2 -1.8c.6 -.6 1.2 -1 1.9 -1.3c.7 -.3 1.4 -.4 2.2 -.4c.8 0 1.5 .1 2.2 .4c.7 .3 1.3 .7 1.9 1.3c.5 .5 .9 1.1 1.2 1.8c.3 .7 .4 1.4 .4 2.2Z" class="g2_78"/>
<path d="M321.9 632.4c0 .7 -.2 1.4 -.4 2.1c-.3 .7 -.8 1.4 -1.3 1.9c-.5 .5 -1.1 1 -1.8 1.2c-.8 .3 -1.5 .5 -2.2 .5c-.8 0 -1.5 -.2 -2.2 -.5c-.7 -.2 -1.4 -.7 -1.9 -1.2c-.5 -.5 -.9 -1.2 -1.2 -1.9c-.3 -.7 -.5 -1.4 -.5 -2.1c0 -.8 .2 -1.5 .5 -2.2c.3 -.7 .7 -1.4 1.2 -1.9c.5 -.5 1.2 -1 1.9 -1.2c.7 -.3 1.4 -.5 2.2 -.5c.7 0 1.4 .2 2.2 .5c.7 .2 1.3 .7 1.8 1.2c.5 .5 1 1.2 1.3 1.9c.2 .7 .4 1.4 .4 2.2Z" class="g2_78"/>
<path d="M339.1 632.4c0 .7 -.2 1.4 -.5 2.1c-.3 .7 -.7 1.4 -1.2 1.9c-.6 .5 -1.2 1 -1.9 1.2c-.7 .3 -1.4 .5 -2.2 .5c-.7 0 -1.5 -.2 -2.2 -.5c-.7 -.2 -1.3 -.7 -1.8 -1.2c-.6 -.5 -1 -1.2 -1.3 -1.9c-.3 -.7 -.4 -1.4 -.4 -2.1c0 -.8 .1 -1.5 .4 -2.2c.3 -.7 .7 -1.4 1.3 -1.9c.5 -.5 1.1 -1 1.8 -1.2c.7 -.3 1.5 -.5 2.2 -.5c.8 0 1.5 .2 2.2 .5c.7 .2 1.3 .7 1.9 1.2c.5 .5 .9 1.2 1.2 1.9c.3 .7 .5 1.4 .5 2.2Z" class="g2_78"/>
<path d="M339.1 609.4c0 .8 -.2 1.5 -.5 2.2c-.3 .7 -.7 1.3 -1.2 1.9c-.6 .5 -1.2 .9 -1.9 1.2c-.7 .3 -1.4 .5 -2.2 .5c-.7 0 -1.5 -.2 -2.2 -.5c-.7 -.3 -1.3 -.7 -1.8 -1.2c-.6 -.6 -1 -1.2 -1.3 -1.9c-.3 -.7 -.4 -1.4 -.4 -2.2c0 -.7 .1 -1.5 .4 -2.2c.3 -.7 .7 -1.3 1.3 -1.8c.5 -.6 1.1 -1 1.8 -1.3c.7 -.3 1.5 -.4 2.2 -.4c.8 0 1.5 .1 2.2 .4c.7 .3 1.3 .7 1.9 1.3c.5 .5 .9 1.1 1.2 1.8c.3 .7 .5 1.5 .5 2.2Z" class="g2_78"/>
<path d="M351.7 598c0 .7 -.2 1.5 -.5 2.2c-.2 .7 -.7 1.3 -1.2 1.8c-.5 .6 -1.2 1 -1.9 1.3c-.7 .3 -1.4 .4 -2.1 .4c-.8 0 -1.5 -.1 -2.2 -.4c-.7 -.3 -1.4 -.7 -1.9 -1.3c-.5 -.5 -1 -1.1 -1.2 -1.8c-.3 -.7 -.5 -1.5 -.5 -2.2c0 -.8 .2 -1.5 .5 -2.2c.2 -.7 .7 -1.3 1.2 -1.9c.5 -.5 1.2 -.9 1.9 -1.2c.7 -.3 1.4 -.5 2.2 -.5c.7 0 1.4 .2 2.1 .5c.7 .3 1.4 .7 1.9 1.2c.5 .6 1 1.2 1.2 1.9c.3 .7 .5 1.4 .5 2.2Z" class="g2_78"/>
<path d="M363.1 616.3c0 .7 -.1 1.5 -.4 2.2c-.3 .7 -.7 1.3 -1.2 1.8c-.6 .6 -1.2 1 -1.9 1.3c-.7 .3 -1.4 .4 -2.2 .4c-.8 0 -1.5 -.1 -2.2 -.4c-.7 -.3 -1.3 -.7 -1.8 -1.3c-.6 -.5 -1 -1.1 -1.3 -1.8c-.3 -.7 -.4 -1.5 -.4 -2.2c0 -.8 .1 -1.5 .4 -2.2c.3 -.7 .7 -1.3 1.3 -1.9c.5 -.5 1.1 -.9 1.8 -1.2c.7 -.3 1.4 -.4 2.2 -.4c.8 0 1.5 .1 2.2 .4c.7 .3 1.3 .7 1.9 1.2c.5 .6 .9 1.2 1.2 1.9c.3 .7 .4 1.4 .4 2.2Z" class="g2_78"/>
<path d="M374.6 632.4c0 .7 -.1 1.4 -.4 2.1c-.3 .7 -.7 1.4 -1.3 1.9c-.5 .5 -1.1 1 -1.8 1.2c-.7 .3 -1.5 .5 -2.2 .5c-.8 0 -1.5 -.2 -2.2 -.5c-.7 -.2 -1.3 -.7 -1.9 -1.2c-.5 -.5 -.9 -1.2 -1.2 -1.9c-.3 -.7 -.5 -1.4 -.5 -2.1c0 -.8 .2 -1.5 .5 -2.2c.3 -.7 .7 -1.4 1.2 -1.9c.6 -.5 1.2 -1 1.9 -1.2c.7 -.3 1.4 -.5 2.2 -.5c.7 0 1.5 .2 2.2 .5c.7 .2 1.3 .7 1.8 1.2c.6 .5 1 1.2 1.3 1.9c.3 .7 .4 1.4 .4 2.2Z" class="g2_78"/>
<path d="M352.8 647.2c0 .8 -.1 1.5 -.4 2.2c-.3 .7 -.7 1.4 -1.3 1.9c-.5 .5 -1.1 .9 -1.8 1.2c-.7 .3 -1.4 .5 -2.2 .5c-.8 0 -1.5 -.2 -2.2 -.5c-.7 -.3 -1.3 -.7 -1.9 -1.2c-.5 -.5 -.9 -1.2 -1.2 -1.9c-.3 -.7 -.4 -1.4 -.4 -2.2c0 -.7 .1 -1.4 .4 -2.1c.3 -.7 .7 -1.4 1.2 -1.9c.6 -.5 1.2 -1 1.9 -1.2c.7 -.3 1.4 -.5 2.2 -.5c.8 0 1.5 .2 2.2 .5c.7 .2 1.3 .7 1.8 1.2c.6 .5 1 1.2 1.3 1.9c.3 .7 .4 1.4 .4 2.1Z" class="g2_78"/>
<path d="M368.9 658.7c0 .8 -.2 1.5 -.5 2.2c-.3 .7 -.7 1.3 -1.2 1.9c-.5 .5 -1.2 .9 -1.9 1.2c-.7 .3 -1.4 .4 -2.2 .4c-.7 0 -1.5 -.1 -2.2 -.4c-.7 -.3 -1.3 -.7 -1.8 -1.2c-.6 -.6 -1 -1.2 -1.3 -1.9c-.2 -.7 -.4 -1.4 -.4 -2.2c0 -.8 .2 -1.5 .4 -2.2c.3 -.7 .7 -1.3 1.3 -1.8c.5 -.6 1.1 -1 1.8 -1.3c.7 -.3 1.5 -.4 2.2 -.4c.8 0 1.5 .1 2.2 .4c.7 .3 1.4 .7 1.9 1.3c.5 .5 .9 1.1 1.2 1.8c.3 .7 .5 1.4 .5 2.2Z" class="g2_78"/>
<path d="M386.1 647.2c0 .8 -.2 1.5 -.5 2.2c-.3 .7 -.7 1.4 -1.2 1.9c-.6 .5 -1.2 .9 -1.9 1.2c-.7 .3 -1.4 .5 -2.2 .5c-.7 0 -1.5 -.2 -2.2 -.5c-.7 -.3 -1.3 -.7 -1.8 -1.2c-.6 -.5 -1 -1.2 -1.3 -1.9c-.3 -.7 -.4 -1.4 -.4 -2.2c0 -.7 .1 -1.4 .4 -2.1c.3 -.7 .7 -1.4 1.3 -1.9c.5 -.5 1.1 -1 1.8 -1.2c.7 -.3 1.5 -.5 2.2 -.5c.8 0 1.5 .2 2.2 .5c.7 .2 1.3 .7 1.9 1.2c.5 .5 .9 1.2 1.2 1.9c.3 .7 .5 1.4 .5 2.1Z" class="g2_78"/>
<path d="M393.9 664.4c0 .8 -.1 1.5 -.4 2.2c-.3 .7 -.7 1.3 -1.3 1.9c-.5 .5 -1.1 .9 -1.8 1.2c-.7 .3 -1.5 .5 -2.2 .5c-.8 0 -1.5 -.2 -2.2 -.5c-.7 -.3 -1.3 -.7 -1.9 -1.2c-.5 -.6 -.9 -1.2 -1.2 -1.9c-.3 -.7 -.5 -1.4 -.5 -2.2c0 -.7 .2 -1.5 .5 -2.2c.3 -.7 .7 -1.3 1.2 -1.8c.6 -.6 1.2 -1 1.9 -1.3c.7 -.3 1.4 -.4 2.2 -.4c.7 0 1.5 .1 2.2 .4c.7 .3 1.3 .7 1.8 1.3c.6 .5 1 1.1 1.3 1.8c.3 .7 .4 1.5 .4 2.2Z" class="g2_78"/>
<path d="M333.3 653c0 .7 -.1 1.5 -.4 2.2c-.3 .7 -.7 1.3 -1.2 1.8c-.6 .6 -1.2 1 -1.9 1.3c-.7 .3 -1.4 .4 -2.2 .4c-.7 0 -1.5 -.1 -2.2 -.4c-.7 -.3 -1.3 -.7 -1.8 -1.3c-.6 -.5 -1 -1.1 -1.3 -1.8c-.3 -.7 -.4 -1.5 -.4 -2.2c0 -.8 .1 -1.5 .4 -2.2c.3 -.7 .7 -1.3 1.3 -1.9c.5 -.5 1.1 -.9 1.8 -1.2c.7 -.3 1.5 -.5 2.2 -.5c.8 0 1.5 .2 2.2 .5c.7 .3 1.3 .7 1.9 1.2c.5 .6 .9 1.2 1.2 1.9c.3 .7 .4 1.4 .4 2.2Z" class="g2_78"/>
<path d="M351.7 597.4L472 584.8M362 616.2L472 593.4M368.8 632.2L472 602" class="g3_78"/>
</g>
</svg>