<?xml version="1.0" encoding="UTF-8" standalone="no"?>
<!DOCTYPE svg PUBLIC "-//W3C//DTD SVG 1.1//EN"
"http://www.w3.org/Graphics/SVG/1.1/DTD/svg11.dtd">
<svg viewBox="0 0 714 1017" version="1.1" xmlns="http://www.w3.org/2000/svg" xmlns:xlink="http://www.w3.org/1999/xlink">
<defs>
<clipPath id="c0_137"><path d="M70 862.5V499.3H622.3V862.5Z"/></clipPath>
<clipPath id="c1_137"><path d="M70 863V497.9H623V863Z"/></clipPath>
<style type="text/css"><![CDATA[
.g0_137{
fill: #FFF;
}
.g1_137{
fill: #000;
}
.g2_137{
fill: none;
stroke: #000;
stroke-width: 2.291;
stroke-miterlimit: 10;
}
.g3_137{
fill: none;
stroke: #000;
stroke-width: 1.145;
stroke-miterlimit: 10;
}
]]></style>
</defs>
<path d="M0 1017.7H717.2V-3.7H0V1017.7Z" class="g0_137"/>
<g clip-path="url(#c1_137)">
<path clip-path="url(#c0_137)" d="M70 499.3H622.3V862.5H70V499.3Z" class="g0_137"/>
<path d="M76.3 499.9h2.3v2.3H76.3v-2.3Zm4.6 0h2.3v2.3H80.9v-2.3Zm4.6 0h2.3v2.3H85.5v-2.3Zm4.5 0h2.3v2.3H90v-2.3Zm4.6 0h2.3v2.3H94.6v-2.3Zm4.6 0h2.3v2.3H99.2v-2.3Zm4.6 0h2.3v2.3h-2.3v-2.3Zm4.6 0h2.3v2.3h-2.3v-2.3Zm4.6 0h2.3v2.3H113v-2.3Zm4.5 0h2.3v2.3h-2.3v-2.3Zm4.6 0h2.3v2.3h-2.3v-2.3Zm4.6 0H129v2.3h-2.3v-2.3Zm4.6 0h2.3v2.3h-2.3v-2.3Zm4.6 0h2.3v2.3h-2.3v-2.3Zm4.6 0h2.3v2.3h-2.3v-2.3Zm4.5 0h2.3v2.3H145v-2.3Zm4.6 0h2.3v2.3h-2.3v-2.3Zm4.6 0h2.3v2.3h-2.3v-2.3Zm4.6 0h2.3v2.3h-2.3v-2.3Zm4.6 0h2.3v2.3h-2.3v-2.3Zm4.6 0h2.3v2.3H168v-2.3Zm4.5 0h2.3v2.3h-2.3v-2.3Zm4.6 0h2.3v2.3h-2.3v-2.3Zm4.6 0H184v2.3h-2.3v-2.3Zm4.6 0h2.3v2.3h-2.3v-2.3Zm4.6 0h2.3v2.3h-2.3v-2.3Zm4.6 0h2.3v2.3h-2.3v-2.3Zm4.5 0h2.3v2.3H200v-2.3Zm4.6 0h2.3v2.3h-2.3v-2.3Zm4.6 0h2.3v2.3h-2.3v-2.3Zm4.6 0h2.3v2.3h-2.3v-2.3Zm4.6 0h2.3v2.3h-2.3v-2.3Zm4.6 0h2.3v2.3H223v-2.3Zm4.5 0h2.3v2.3h-2.3v-2.3Zm4.6 0h2.3v2.3h-2.3v-2.3Zm4.6 0H239v2.3h-2.3v-2.3Zm4.6 0h2.3v2.3h-2.3v-2.3Zm4.6 0h2.3v2.3h-2.3v-2.3Zm4.6 0h2.3v2.3h-2.3v-2.3Zm4.5 0h2.3v2.3H255v-2.3Zm4.6 0h2.3v2.3h-2.3v-2.3Zm4.6 0h2.3v2.3h-2.3v-2.3Zm4.6 0h2.3v2.3h-2.3v-2.3Zm4.6 0h2.3v2.3h-2.3v-2.3Zm4.6 0h2.3v2.3H278v-2.3Zm4.5 0h2.3v2.3h-2.3v-2.3Zm4.6 0h2.3v2.3h-2.3v-2.3Zm4.6 0H294v2.3h-2.3v-2.3Zm4.6 0h2.3v2.3h-2.3v-2.3Zm4.6 0h2.3v2.3h-2.3v-2.3Zm4.6 0h2.3v2.3h-2.3v-2.3Zm4.5 0h2.3v2.3H310v-2.3Zm4.6 0h2.3v2.3h-2.3v-2.3Zm4.6 0h2.3v2.3h-2.3v-2.3Zm4.6 0h2.3v2.3h-2.3v-2.3Zm4.6 0h2.3v2.3h-2.3v-2.3Zm4.6 0h2.3v2.3H333v-2.3Zm4.5 0h2.3v2.3h-2.3v-2.3Zm4.6 0h2.3v2.3h-2.3v-2.3Zm4.6 0H349v2.3h-2.3v-2.3Zm4.6 0h2.3v2.3h-2.3v-2.3Zm4.6 0h2.3v2.3h-2.3v-2.3Zm4.6 0h2.3v2.3h-2.3v-2.3Zm4.5 0h2.3v2.3H365v-2.3Zm4.6 0h2.3v2.3h-2.3v-2.3Zm4.6 0h2.3v2.3h-2.3v-2.3Zm4.6 0h2.3v2.3h-2.3v-2.3Zm4.6 0h2.3v2.3h-2.3v-2.3Zm4.6 0h2.3v2.3H388v-2.3Zm4.5 0h2.3v2.3h-2.3v-2.3Zm4.6 0h2.3v2.3h-2.3v-2.3Zm4.6 0H404v2.3h-2.3v-2.3Zm4.6 0h2.3v2.3h-2.3v-2.3Zm4.6 0h2.3v2.3h-2.3v-2.3Zm4.6 0h2.3v2.3h-2.3v-2.3Zm4.5 0h2.3v2.3H420v-2.3Zm4.6 0h2.3v2.3h-2.3v-2.3Zm4.6 0h2.3v2.3h-2.3v-2.3Zm4.6 0h2.3v2.3h-2.3v-2.3Zm4.6 0h2.3v2.3h-2.3v-2.3Zm4.6 0h2.3v2.3H443v-2.3Zm4.5 0h2.3v2.3h-2.3v-2.3Zm4.6 0h2.3v2.3h-2.3v-2.3Zm4.6 0H459v2.3h-2.3v-2.3Zm4.6 0h2.3v2.3h-2.3v-2.3Zm4.6 0h2.3v2.3h-2.3v-2.3Zm4.6 0h2.3v2.3h-2.3v-2.3Zm4.5 0h2.3v2.3H475v-2.3Zm4.6 0h2.3v2.3h-2.3v-2.3Zm4.6 0h2.3v2.3h-2.3v-2.3Zm4.6 0h2.3v2.3h-2.3v-2.3Zm4.6 0h2.3v2.3h-2.3v-2.3Zm4.6 0h2.3v2.3H498v-2.3Zm4.5 0h2.3v2.3h-2.3v-2.3Zm4.6 0h2.3v2.3h-2.3v-2.3Zm4.6 0H514v2.3h-2.3v-2.3Zm4.6 0h2.3v2.3h-2.3v-2.3Zm3.4 3.4v2.3h-2.3v-2.3h2.3Zm0 4.6v2.3h-2.3v-2.3h2.3Zm0 4.6v2.3h-2.3v-2.3h2.3Zm0 4.6v2.3h-2.3v-2.3h2.3Zm0 4.5v2.3h-2.3v-2.3h2.3Zm0 4.6v2.3h-2.3v-2.3h2.3Zm0 4.6v2.3h-2.3v-2.3h2.3Zm0 4.6v2.3h-2.3v-2.3h2.3Zm0 4.6v2.3h-2.3V540h2.3Zm0 4.6v2.3h-2.3v-2.3h2.3Zm0 4.5v2.3h-2.3v-2.3h2.3Zm0 4.6V556h-2.3v-2.3h2.3Zm0 4.6v2.3h-2.3v-2.3h2.3Zm0 4.6v2.3h-2.3v-2.3h2.3Zm0 4.6v2.3h-2.3v-2.3h2.3Zm0 4.6v2.3h-2.3v-2.3h2.3Zm0 4.5v2.3h-2.3v-2.3h2.3Zm0 4.6v2.3h-2.3v-2.3h2.3Zm0 4.6v2.3h-2.3v-2.3h2.3Zm0 4.6v2.3h-2.3v-2.3h2.3Zm0 4.6v2.3h-2.3V595h2.3Zm0 4.6v2.3h-2.3v-2.3h2.3Zm0 4.5v2.3h-2.3v-2.3h2.3Zm0 4.6V611h-2.3v-2.3h2.3Zm0 4.6v2.3h-2.3v-2.3h2.3Zm0 4.6v2.3h-2.3v-2.3h2.3Zm0 4.6v2.3h-2.3v-2.3h2.3Zm0 4.6v2.3h-2.3v-2.3h2.3Zm0 4.5v2.3h-2.3v-2.3h2.3Zm0 4.6v2.3h-2.3v-2.3h2.3Zm0 4.6v2.3h-2.3v-2.3h2.3Zm0 4.6v2.3h-2.3v-2.3h2.3Zm0 4.6v2.3h-2.3V650h2.3Zm0 4.6v2.3h-2.3v-2.3h2.3Zm0 4.5v2.3h-2.3v-2.3h2.3Zm0 4.6V666h-2.3v-2.3h2.3Zm0 4.6v2.3h-2.3v-2.3h2.3Zm0 4.6v2.3h-2.3v-2.3h2.3Zm0 4.6v2.3h-2.3v-2.3h2.3Zm0 4.6v2.3h-2.3v-2.3h2.3Zm0 4.5v2.3h-2.3v-2.3h2.3Zm0 4.6v2.3h-2.3v-2.3h2.3Zm0 4.6v2.3h-2.3v-2.3h2.3Zm0 4.6v2.3h-2.3v-2.3h2.3Zm0 4.6v2.3h-2.3V705h2.3Zm0 4.6v2.3h-2.3v-2.3h2.3Zm0 4.5v2.3h-2.3v-2.3h2.3Zm0 4.6V721h-2.3v-2.3h2.3Zm0 4.6v2.3h-2.3v-2.3h2.3Zm0 4.6v2.3h-2.3v-2.3h2.3Zm0 4.6v2.3h-2.3v-2.3h2.3Zm0 4.6v2.3h-2.3v-2.3h2.3Zm0 4.5v2.3h-2.3v-2.3h2.3Zm0 4.6v2.3h-2.3v-2.3h2.3Zm0 4.6v2.3h-2.3v-2.3h2.3Zm0 4.6v2.3h-2.3v-2.3h2.3Zm0 4.6v2.3h-2.3V760h2.3Zm0 4.6v2.3h-2.3v-2.3h2.3Zm0 4.5v2.3h-2.3v-2.3h2.3Zm0 4.6V776h-2.3v-2.3h2.3Zm0 4.6v2.3h-2.3v-2.3h2.3Zm0 4.6v2.3h-2.3v-2.3h2.3Zm0 4.6v2.3h-2.3v-2.3h2.3Zm0 4.6v2.3h-2.3v-2.3h2.3Zm0 4.5v2.3h-2.3v-2.3h2.3Zm-3.4 3.5H514v-2.3h2.3v2.3Zm-4.6 0h-2.3v-2.3h2.3v2.3Zm-4.6 0h-2.3v-2.3h2.3v2.3Zm-4.6 0h-2.2v-2.3h2.2v2.3Zm-4.5 0h-2.3v-2.3H498v2.3Zm-4.6 0h-2.3v-2.3h2.3v2.3Zm-4.6 0h-2.3v-2.3h2.3v2.3Zm-4.6 0h-2.3v-2.3h2.3v2.3Zm-4.6 0h-2.3v-2.3h2.3v2.3Zm-4.6 0h-2.2v-2.3H475v2.3Zm-4.5 0h-2.3v-2.3h2.3v2.3Zm-4.6 0h-2.3v-2.3h2.3v2.3Zm-4.6 0H459v-2.3h2.3v2.3Zm-4.6 0h-2.3v-2.3h2.3v2.3Zm-4.6 0h-2.3v-2.3h2.3v2.3Zm-4.6 0h-2.2v-2.3h2.2v2.3Zm-4.5 0h-2.3v-2.3H443v2.3Zm-4.6 0h-2.3v-2.3h2.3v2.3Zm-4.6 0h-2.3v-2.3h2.3v2.3Zm-4.6 0h-2.3v-2.3h2.3v2.3Zm-4.6 0h-2.3v-2.3h2.3v2.3Zm-4.6 0h-2.2v-2.3H420v2.3Zm-4.5 0h-2.3v-2.3h2.3v2.3Zm-4.6 0h-2.3v-2.3h2.3v2.3Zm-4.6 0H404v-2.3h2.3v2.3Zm-4.6 0h-2.3v-2.3h2.3v2.3Zm-4.6 0h-2.3v-2.3h2.3v2.3Zm-4.6 0h-2.2v-2.3h2.2v2.3Zm-4.5 0h-2.3v-2.3H388v2.3Zm-4.6 0h-2.3v-2.3h2.3v2.3Zm-4.6 0h-2.3v-2.3h2.3v2.3Zm-4.6 0h-2.3v-2.3h2.3v2.3Zm-4.6 0h-2.3v-2.3h2.3v2.3Zm-4.6 0h-2.2v-2.3H365v2.3Zm-4.5 0h-2.3v-2.3h2.3v2.3Zm-4.6 0h-2.3v-2.3h2.3v2.3Zm-4.6 0H349v-2.3h2.3v2.3Zm-4.6 0h-2.3v-2.3h2.3v2.3Zm-4.6 0h-2.3v-2.3h2.3v2.3Zm-4.6 0h-2.2v-2.3h2.2v2.3Zm-4.5 0h-2.3v-2.3H333v2.3Zm-4.6 0h-2.3v-2.3h2.3v2.3Zm-4.6 0h-2.3v-2.3h2.3v2.3Zm-4.6 0h-2.3v-2.3h2.3v2.3Zm-4.6 0h-2.3v-2.3h2.3v2.3Zm-4.6 0h-2.2v-2.3H310v2.3Zm-4.5 0h-2.3v-2.3h2.3v2.3Zm-4.6 0h-2.3v-2.3h2.3v2.3Zm-4.6 0H294v-2.3h2.3v2.3Zm-4.6 0h-2.3v-2.3h2.3v2.3Zm-4.6 0h-2.3v-2.3h2.3v2.3Zm-4.6 0h-2.2v-2.3h2.2v2.3Zm-4.5 0h-2.3v-2.3H278v2.3Zm-4.6 0h-2.3v-2.3h2.3v2.3Zm-4.6 0h-2.3v-2.3h2.3v2.3Zm-4.6 0h-2.3v-2.3h2.3v2.3Zm-4.6 0h-2.3v-2.3h2.3v2.3Zm-4.6 0h-2.2v-2.3H255v2.3Zm-4.5 0h-2.3v-2.3h2.3v2.3Zm-4.6 0h-2.3v-2.3h2.3v2.3Zm-4.6 0H239v-2.3h2.3v2.3Zm-4.6 0h-2.3v-2.3h2.3v2.3Zm-4.6 0h-2.3v-2.3h2.3v2.3Zm-4.6 0h-2.2v-2.3h2.2v2.3Zm-4.5 0h-2.3v-2.3H223v2.3Zm-4.6 0h-2.3v-2.3h2.3v2.3Zm-4.6 0h-2.3v-2.3h2.3v2.3Zm-4.6 0h-2.3v-2.3h2.3v2.3Zm-4.6 0h-2.3v-2.3h2.3v2.3Zm-4.6 0h-2.2v-2.3H200v2.3Zm-4.5 0h-2.3v-2.3h2.3v2.3Zm-4.6 0h-2.3v-2.3h2.3v2.3Zm-4.6 0H184v-2.3h2.3v2.3Zm-4.6 0h-2.3v-2.3h2.3v2.3Zm-4.6 0h-2.3v-2.3h2.3v2.3Zm-4.6 0h-2.2v-2.3h2.2v2.3Zm-4.5 0h-2.3v-2.3H168v2.3Zm-4.6 0h-2.3v-2.3h2.3v2.3Zm-4.6 0h-2.3v-2.3h2.3v2.3Zm-4.6 0h-2.3v-2.3h2.3v2.3Zm-4.6 0h-2.3v-2.3h2.3v2.3Zm-4.6 0h-2.2v-2.3H145v2.3Zm-4.5 0h-2.3v-2.3h2.3v2.3Zm-4.6 0h-2.3v-2.3h2.3v2.3Zm-4.6 0H129v-2.3h2.3v2.3Zm-4.6 0h-2.3v-2.3h2.3v2.3Zm-4.6 0h-2.3v-2.3h2.3v2.3Zm-4.6 0h-2.2v-2.3h2.2v2.3Zm-4.5 0h-2.3v-2.3H113v2.3Zm-4.6 0h-2.3v-2.3h2.3v2.3Zm-4.6 0h-2.3v-2.3h2.3v2.3Zm-4.6 0H96.9v-2.3h2.3v2.3Zm-4.6 0H92.3v-2.3h2.3v2.3Zm-4.6 0H87.8v-2.3H90v2.3Zm-4.5 0H83.2v-2.3h2.3v2.3Zm-4.6 0H78.6v-2.3h2.3v2.3Zm-4.6 0H74v-2.3h2.3v2.3Zm-5.7 -1.2v-2.3h2.3v2.3H70.6Zm0 -4.5v-2.3h2.3v2.3H70.6Zm0 -4.6v-2.3h2.3v2.3H70.6Zm0 -4.6v-2.3h2.3v2.3H70.6Zm0 -4.6v-2.3h2.3v2.3H70.6Zm0 -4.6v-2.3h2.3V776H70.6Zm0 -4.6v-2.3h2.3v2.3H70.6Zm0 -4.5v-2.3h2.3v2.3H70.6Zm0 -4.6V760h2.3v2.3H70.6Zm0 -4.6v-2.3h2.3v2.3H70.6Zm0 -4.6v-2.3h2.3v2.3H70.6Zm0 -4.6v-2.3h2.3v2.3H70.6Zm0 -4.6v-2.3h2.3v2.3H70.6Zm0 -4.5v-2.3h2.3v2.3H70.6Zm0 -4.6v-2.3h2.3v2.3H70.6Zm0 -4.6v-2.3h2.3v2.3H70.6Zm0 -4.6v-2.3h2.3v2.3H70.6Zm0 -4.6v-2.3h2.3V721H70.6Zm0 -4.6v-2.3h2.3v2.3H70.6Zm0 -4.5v-2.3h2.3v2.3H70.6Zm0 -4.6V705h2.3v2.3H70.6Zm0 -4.6v-2.3h2.3v2.3H70.6Zm0 -4.6v-2.3h2.3v2.3H70.6Zm0 -4.6v-2.3h2.3v2.3H70.6Zm0 -4.6v-2.3h2.3v2.3H70.6Zm0 -4.5v-2.3h2.3v2.3H70.6Zm0 -4.6v-2.3h2.3v2.3H70.6Zm0 -4.6v-2.3h2.3v2.3H70.6Zm0 -4.6v-2.3h2.3v2.3H70.6Zm0 -4.6v-2.3h2.3V666H70.6Zm0 -4.6v-2.3h2.3v2.3H70.6Zm0 -4.5v-2.3h2.3v2.3H70.6Zm0 -4.6V650h2.3v2.3H70.6Zm0 -4.6v-2.3h2.3v2.3H70.6Zm0 -4.6v-2.3h2.3v2.3H70.6Zm0 -4.6v-2.3h2.3v2.3H70.6Zm0 -4.6v-2.3h2.3v2.3H70.6Zm0 -4.5v-2.3h2.3v2.3H70.6Zm0 -4.6v-2.3h2.3v2.3H70.6Zm0 -4.6v-2.3h2.3v2.3H70.6Zm0 -4.6v-2.3h2.3v2.3H70.6Zm0 -4.6v-2.3h2.3V611H70.6Zm0 -4.6v-2.3h2.3v2.3H70.6Zm0 -4.5v-2.3h2.3v2.3H70.6Zm0 -4.6V595h2.3v2.3H70.6Zm0 -4.6v-2.3h2.3v2.3H70.6Zm0 -4.6v-2.3h2.3v2.3H70.6Zm0 -4.6v-2.3h2.3v2.3H70.6Zm0 -4.6v-2.3h2.3v2.3H70.6Zm0 -4.5v-2.3h2.3v2.3H70.6Zm0 -4.6v-2.3h2.3v2.3H70.6Zm0 -4.6v-2.3h2.3v2.3H70.6Zm0 -4.6v-2.3h2.3v2.3H70.6Zm0 -4.6v-2.3h2.3V556H70.6Zm0 -4.6v-2.3h2.3v2.3H70.6Zm0 -4.5v-2.3h2.3v2.3H70.6Zm0 -4.6V540h2.3v2.3H70.6Zm0 -4.6v-2.3h2.3v2.3H70.6Zm0 -4.6v-2.3h2.3v2.3H70.6Zm0 -4.6v-2.3h2.3v2.3H70.6Zm0 -4.6v-2.3h2.3v2.3H70.6Zm0 -4.5v-2.3h2.3v2.3H70.6Zm0 -4.6v-2.3h2.3v2.3H70.6Zm0 -4.6v-2.3h2.3v2.3H70.6Zm0 -4.6v-2.3h2.3v2.3H70.6Zm1.1 -5.7H74v2.3H71.7v-2.3Z" class="g1_137"/>
<path d="M83.2 535.4h275V776H83.2V535.4Z" class="g2_137"/>
<path d="M129 569.8H335.3v22.9H129V569.8Zm0 22.9H335.3V707.3H129V592.7Zm0 114.6H335.3v34.3H129V707.3Zm0 34.3H335.3v23H129v-23Zm0 -126h22.9v22.9H129V615.6Zm22.9 0h22.9v22.9H151.9V615.6Zm22.9 0h23v22.9h-23V615.6Zm23 0h22.9v22.9H197.8V615.6Zm22.9 0h22.9v22.9H220.7V615.6Zm22.9 0h22.9v22.9H243.6V615.6Zm22.9 0h22.9v22.9H266.5V615.6Zm22.9 0h22.9v22.9H289.4V615.6Zm22.9 0h23v22.9h-23V615.6ZM129 661.4h22.9v23H129v-23Zm22.9 0h22.9v23H151.9v-23Zm22.9 0h23v23h-23v-23Zm23 0h22.9v23H197.8v-23Zm22.9 0h22.9v23H220.7v-23Zm22.9 0h22.9v23H243.6v-23Zm22.9 0h22.9v23H266.5v-23Zm22.9 0h22.9v23H289.4v-23Zm22.9 0h23v23h-23v-23Z" class="g3_137"/>
<path d="M283.7 816.5c0 -3 7.7 -5.5 17.2 -5.5c4.5 0 8.9 .6 12.1 1.6c3.3 1 5.1 2.5 5.1 3.9v23.3c0 1.5 -1.8 2.9 -5.1 3.9c-3.2 1.1 -7.6 1.6 -12.1 1.6c-4.6 0 -9 -.5 -12.2 -1.6c-3.2 -1 -5 -2.4 -5 -3.9V816.5Z" class="g0_137"/>
<path d="M283.7 816.5c0 -3 7.7 -5.5 17.2 -5.5c4.5 0 8.9 .6 12.1 1.6c3.3 1 5.1 2.5 5.1 3.9v23.3c0 1.5 -1.8 2.9 -5.1 3.9c-3.2 1.1 -7.6 1.6 -12.1 1.6c-4.6 0 -9 -.5 -12.2 -1.6c-3.2 -1 -5 -2.4 -5 -3.9V816.5Zm34.4 0c0 1.5 -1.8 2.9 -5.1 4c-3.2 1 -7.6 1.6 -12.1 1.6c-4.6 0 -9 -.6 -12.2 -1.6c-3.2 -1.1 -5 -2.5 -5 -4" class="g3_137"/>
<path d="M314.6 825.1c0 -3.1 7.7 -5.5 17.2 -5.5c4.6 0 8.9 .5 12.2 1.6c3.2 1 5 2.5 5 3.9v23.3c0 1.4 -1.8 2.9 -5 3.9c-3.3 1.1 -7.6 1.6 -12.2 1.6c-4.5 0 -8.9 -.5 -12.1 -1.6c-3.3 -1 -5.1 -2.5 -5.1 -3.9V825.1Z" class="g0_137"/>
<path d="M314.6 825.1c0 -3.1 7.7 -5.5 17.2 -5.5c4.6 0 8.9 .5 12.2 1.6c3.2 1 5 2.5 5 3.9v23.3c0 1.4 -1.8 2.9 -5 3.9c-3.3 1.1 -7.6 1.6 -12.2 1.6c-4.5 0 -8.9 -.5 -12.1 -1.6c-3.3 -1 -5.1 -2.5 -5.1 -3.9V825.1Zm34.4 0c0 1.5 -1.8 2.9 -5 4c-3.3 1 -7.6 1.6 -12.2 1.6c-4.5 0 -8.9 -.6 -12.1 -1.6c-3.3 -1.1 -5.1 -2.5 -5.1 -4" class="g3_137"/>
<path d="M344.4 833.2c0 -3.1 7.7 -5.6 17.2 -5.6c4.6 0 8.9 .6 12.2 1.6c3.2 1.1 5 2.5 5 4v23.2c0 1.5 -1.8 2.9 -5 3.9c-3.3 1.1 -7.6 1.7 -12.2 1.7c-4.6 0 -8.9 -.6 -12.2 -1.7c-3.2 -1 -5 -2.4 -5 -3.9V833.2Z" class="g0_137"/>
<path clip-path="url(#c0_137)" d="M344.4 833.2c0 -3.1 7.7 -5.6 17.2 -5.6c4.6 0 8.9 .6 12.2 1.6c3.2 1.1 5 2.5 5 4v23.2c0 1.5 -1.8 2.9 -5 3.9c-3.3 1.1 -7.6 1.7 -12.2 1.7c-4.6 0 -8.9 -.6 -12.2 -1.7c-3.2 -1 -5 -2.4 -5 -3.9V833.2Zm34.4 0c0 1.4 -1.8 2.8 -5 3.9c-3.3 1 -7.6 1.6 -12.2 1.6c-4.6 0 -8.9 -.6 -12.2 -1.6c-3.2 -1.1 -5 -2.5 -5 -3.9M283.7 764.6V776c0 7.7 2.9 11.5 8.6 11.5h4.3c2.8 0 4.3 2.7 4.3 8.1v8.1" class="g3_137"/>
<path d="M300.9 809.7l-2.7 -8l2.7 2l2.6 -2l-2.6 8Z" class="g1_137"/>
<path d="M300.9 809.7l-2.7 -8l2.7 2l2.6 -2l-2.6 8ZM283.7 764.6V776c0 7.7 3.8 11.5 11.4 11.5h25.3c7.6 0 11.4 3.8 11.4 11.4v13.4" class="g3_137"/>
<path d="M331.8 818.3l-2.7 -8l2.7 2l2.7 -2l-2.7 8Z" class="g1_137"/>
<path d="M331.8 818.3l-2.7 -8l2.7 2l2.7 -2l-2.7 8ZM283.7 764.6V776c0 7.7 3.8 11.5 11.4 11.5h55c7.7 0 11.5 3.8 11.5 11.4v21.4" class="g3_137"/>
<path d="M361.6 826.3l-2.7 -8l2.7 2l2.7 -2l-2.7 8Z" class="g1_137"/>
<path d="M361.6 826.3l-2.7 -8l2.7 2l2.7 -2l-2.7 8Z" class="g3_137"/>
<path d="M71.7 825.1c0 -3.1 15.4 -5.5 34.4 -5.5c9.1 0 17.8 .5 24.3 1.6c6.4 1 10.1 2.5 10.1 3.9v23.3c0 1.4 -3.7 2.9 -10.1 3.9c-6.5 1.1 -15.2 1.6 -24.3 1.6c-9.1 0 -17.9 -.5 -24.3 -1.6c-6.5 -1 -10.1 -2.5 -10.1 -3.9V825.1Z" class="g0_137"/>
<path d="M71.7 825.1c0 -3.1 15.4 -5.5 34.4 -5.5c9.1 0 17.8 .5 24.3 1.6c6.4 1 10.1 2.5 10.1 3.9v23.3c0 1.4 -3.7 2.9 -10.1 3.9c-6.5 1.1 -15.2 1.6 -24.3 1.6c-9.1 0 -17.9 -.5 -24.3 -1.6c-6.5 -1 -10.1 -2.5 -10.1 -3.9V825.1Zm68.8 0c0 1.5 -3.7 2.9 -10.1 4c-6.5 1 -15.2 1.6 -24.3 1.6c-9.1 0 -17.9 -.6 -24.3 -1.6c-6.5 -1.1 -10.1 -2.5 -10.1 -4" class="g3_137"/>
<path d="M151.9 833.2c0 -3.1 15.4 -5.6 34.4 -5.6c9.1 0 17.9 .6 24.3 1.6c6.4 1.1 10.1 2.5 10.1 4v23.2c0 1.5 -3.7 2.9 -10.1 3.9c-6.4 1.1 -15.2 1.7 -24.3 1.7c-9.1 0 -17.9 -.6 -24.3 -1.7c-6.5 -1 -10.1 -2.4 -10.1 -3.9V833.2Z" class="g0_137"/>
<path clip-path="url(#c0_137)" d="M151.9 833.2c0 -3.1 15.4 -5.6 34.4 -5.6c9.1 0 17.9 .6 24.3 1.6c6.4 1.1 10.1 2.5 10.1 4v23.2c0 1.5 -3.7 2.9 -10.1 3.9c-6.4 1.1 -15.2 1.7 -24.3 1.7c-9.1 0 -17.9 -.6 -24.3 -1.7c-6.5 -1 -10.1 -2.4 -10.1 -3.9V833.2Zm68.8 0c0 1.4 -3.7 2.8 -10.1 3.9c-6.4 1 -15.2 1.6 -24.3 1.6c-9.1 0 -17.9 -.6 -24.3 -1.6c-6.5 -1.1 -10.1 -2.5 -10.1 -3.9M129 569.8h-2.9c-1.9 0 -2.8 3.8 -2.8 11.4v45.9c0 7.6 -1 11.4 -2.9 11.4H119c-1 0 -.5 0 1.4 0h1.4c1 0 1.5 3.8 1.5 11.5v45.8c0 7.7 .9 11.5 2.8 11.5H129M118.7 638.5h-6.3c-4.2 0 -6.3 3.8 -6.3 11.5V798.9c0 7.7 0 11.8 0 12.4v1" class="g3_137"/>
<path d="M106.1 818.3l-2.7 -8l2.7 2l2.7 -2l-2.7 8Z" class="g1_137"/>
<path d="M106.1 818.3l-2.7 -8l2.7 2l2.7 -2l-2.7 8ZM118.7 638.5h-6.3c-4.2 0 -6.3 3.8 -6.3 11.5V776c0 7.7 3.8 11.5 11.4 11.5h57.3c7.7 0 11.5 3.8 11.5 11.4v21.4" class="g3_137"/>
<path d="M186.3 826.3l-2.7 -8l2.7 2l2.7 -2l-2.7 8Z" class="g1_137"/>
<path d="M186.3 826.3l-2.7 -8l2.7 2l2.7 -2l-2.7 8Z" class="g3_137"/>
<path d="M390.3 621.7h91.6V586.9H390.3v34.8Z" class="g0_137"/>
<path d="M390.3 621.7h91.6V586.9H390.3v34.8Zm9.1 0V586.9m73.4 34.8V586.9" class="g2_137"/>
<path d="M404 643.5h89.4V611H404v32.5Z" class="g0_137"/>
<path d="M404 643.5h89.4V611H404v32.5Zm9.2 0V611m71 32.5V611" class="g2_137"/>
<path d="M417.8 667.5h87V632.8h-87v34.7Z" class="g0_137"/>
<path d="M417.8 667.5h87V632.8h-87v34.7Zm9.1 0V632.8m68.8 34.7V632.8" class="g2_137"/>
<path d="M341 603.9l45.4 .4" class="g3_137"/>
<path d="M338.4 603.9l3.4 -1.1l-.8 1.1l.8 1.2l-3.4 -1.2Z" class="g1_137"/>
<path d="M338.4 603.9l3.4 -1.1l-.8 1.1l.8 1.2l-3.4 -1.2Z" class="g3_137"/>
<path d="M389 604.3l-3.5 1.1l.9 -1.1l-.9 -1.2l3.5 1.2Z" class="g1_137"/>
<path d="M389 604.3l-3.5 1.1l.9 -1.1l-.9 -1.2l3.5 1.2Zm-49.9 22.8l61 .2" class="g3_137"/>
<path d="M336.5 627.1l3.5 -1.2l-.9 1.2l.9 1.1l-3.5 -1.1Z" class="g1_137"/>
<path d="M336.5 627.1l3.5 -1.2l-.9 1.2l.9 1.1l-3.5 -1.1Z" class="g3_137"/>
<path d="M402.7 627.3l-3.4 1.1l.8 -1.1l-.8 -1.2l3.4 1.2Z" class="g1_137"/>
<path d="M402.7 627.3l-3.4 1.1l.8 -1.1l-.8 -1.2l3.4 1.2ZM339.1 650l74.8 .1" class="g3_137"/>
<path d="M336.5 650l3.5 -1.2l-.9 1.2l.9 1.1L336.5 650Z" class="g1_137"/>
<path d="M336.5 650l3.5 -1.2l-.9 1.2l.9 1.1L336.5 650Z" class="g3_137"/>
<path d="M416.5 650.1l-3.5 1.2l.9 -1.2L413 649l3.5 1.1Z" class="g1_137"/>
<path d="M416.5 650.1l-3.5 1.2l.9 -1.2L413 649l3.5 1.1Z" class="g3_137"/>
<path d="M543.8 604.1h77.9V650H543.8V604.1Z" class="g0_137"/>
<path d="M543.8 604.1h77.9V650H543.8V604.1Zm-44.4 23.1l38.4 -.1" class="g2_137"/>
<path d="M495.9 627.3l4.6 -1.6l-1.1 1.5l1.1 1.6l-4.6 -1.5Z" class="g1_137"/>
<path d="M495.9 627.3l4.6 -1.6l-1.1 1.5l1.1 1.6l-4.6 -1.5Z" class="g2_137"/>
<path d="M541.2 627.1l-4.5 1.5l1.1 -1.5l-1.2 -1.5l4.6 1.5Z" class="g1_137"/>
<path d="M541.2 627.1l-4.5 1.5l1.1 -1.5l-1.2 -1.5l4.6 1.5Z" class="g2_137"/>
<path d="M404 695.8H504.8v57.3H404V695.8Z" class="g0_137"/>
<path d="M404 695.8H504.8v57.3H404V695.8ZM341.3 672.9h28.3c7.7 0 11.5 3.8 11.5 11.5V713c0 7.6 2.8 11.5 8.4 11.5H398" class="g2_137"/>
<path d="M337.8 672.9l4.6 -1.5l-1.1 1.5l1.1 1.5l-4.6 -1.5Z" class="g1_137"/>
<path d="M337.8 672.9l4.6 -1.5l-1.1 1.5l1.1 1.5l-4.6 -1.5Z" class="g2_137"/>
<path d="M401.4 724.5l-4.5 1.5l1.1 -1.5l-1.1 -1.6l4.5 1.6Z" class="g1_137"/>
<path d="M401.4 724.5l-4.5 1.5l1.1 -1.5l-1.1 -1.6l4.5 1.6Z" class="g2_137"/>
<path d="M129 592.7h34.4v22.9H129V592.7Z" class="g0_137"/>
<path d="M129 592.7h34.4v22.9H129V592.7Z" class="g3_137"/>
<path d="M163.4 592.9h34.4v22.9H163.4V592.9Z" class="g0_137"/>
<path d="M163.4 592.9h34.4v22.9H163.4V592.9Z" class="g3_137"/>
<path d="M197.8 592.9h34.3v22.9H197.8V592.9Z" class="g0_137"/>
<path d="M197.8 592.9h34.3v22.9H197.8V592.9Z" class="g3_137"/>
<path d="M232.1 592.7h34.4v22.9H232.1V592.7Z" class="g0_137"/>
<path d="M232.1 592.7h34.4v22.9H232.1V592.7Z" class="g3_137"/>
<path d="M266.5 592.7h34.4v22.9H266.5V592.7Z" class="g0_137"/>
<path d="M266.5 592.7h34.4v22.9H266.5V592.7Z" class="g3_137"/>
<path d="M300.9 592.9h34.4v22.9H300.9V592.9Z" class="g0_137"/>
<path d="M300.9 592.9h34.4v22.9H300.9V592.9Z" class="g3_137"/>
<path d="M129 638.5h45.8v22.9H129V638.5Z" class="g0_137"/>
<path d="M129 638.5h45.8v22.9H129V638.5Z" class="g3_137"/>
<path d="M220.7 638.5h45.8v22.9H220.7V638.5Z" class="g0_137"/>
<path d="M220.7 638.5h45.8v22.9H220.7V638.5Z" class="g3_137"/>
<path d="M266.5 638.5h68.8v22.9H266.5V638.5Z" class="g0_137"/>
<path d="M266.5 638.5h68.8v22.9H266.5V638.5Z" class="g3_137"/>
<path d="M129 684.2h34.4v22.9H129V684.2Z" class="g0_137"/>
<path d="M129 684.2h34.4v22.9H129V684.2Z" class="g3_137"/>
<path d="M163.4 684.4h34.4v22.9H163.4V684.4Z" class="g0_137"/>
<path d="M163.4 684.4h34.4v22.9H163.4V684.4Z" class="g3_137"/>
<path d="M197.8 684.4h34.3v22.9H197.8V684.4Z" class="g0_137"/>
<path d="M197.8 684.4h34.3v22.9H197.8V684.4Z" class="g3_137"/>
<path d="M232.1 684.2h34.4v22.9H232.1V684.2Z" class="g0_137"/>
<path d="M232.1 684.2h34.4v22.9H232.1V684.2Z" class="g3_137"/>
<path d="M266.5 684.2h34.4v22.9H266.5V684.2Z" class="g0_137"/>
<path d="M266.5 684.2h34.4v22.9H266.5V684.2Z" class="g3_137"/>
<path d="M300.9 684.4h34.4v22.9H300.9V684.4Z" class="g0_137"/>
<path d="M300.9 684.4h34.4v22.9H300.9V684.4Z" class="g3_137"/>
<path d="M175.4 633.9H291.1c.7 0 1.4 .2 2 .4c.6 .3 1.2 .7 1.7 1.1c.5 .5 .8 1.1 1.1 1.7c.3 .7 .4 1.3 .4 2v24.1c0 .6 -.1 1.3 -.4 1.9c-.3 .7 -.6 1.2 -1.1 1.7c-.5 .5 -1.1 .9 -1.7 1.1c-.6 .3 -1.3 .4 -2 .4H175.4c-.7 0 -1.3 -.1 -2 -.4c-.6 -.2 -1.2 -.6 -1.6 -1.1c-.5 -.5 -.9 -1 -1.2 -1.7c-.2 -.6 -.3 -1.3 -.3 -1.9V639.1c0 -.7 .1 -1.3 .3 -2c.3 -.6 .7 -1.2 1.2 -1.7c.4 -.4 1 -.8 1.6 -1.1c.7 -.2 1.3 -.4 2 -.4Z" class="g0_137"/>
</g>
</svg>