<?xml version="1.0" encoding="UTF-8" standalone="no"?>
<!DOCTYPE svg PUBLIC "-//W3C//DTD SVG 1.1//EN"
"http://www.w3.org/Graphics/SVG/1.1/DTD/svg11.dtd">
<svg viewBox="0 0 714 1017" version="1.1" xmlns="http://www.w3.org/2000/svg" xmlns:xlink="http://www.w3.org/1999/xlink">
<defs>
<clipPath id="c0_341"><path d="M70 869.4v-236H622.3v236Z"/></clipPath>
<clipPath id="c1_341"><path d="M70 870.2V631.9H623V870.2Z"/></clipPath>
<style type="text/css"><![CDATA[
.g0_341{
fill: #FFF;
}
.g1_341{
fill: none;
stroke: #000;
stroke-width: 1.145;
stroke-miterlimit: 10;
}
.g2_341{
fill: none;
stroke: #000;
stroke-width: 2.291;
stroke-miterlimit: 10;
}
.g3_341{
fill: #000;
}
]]></style>
</defs>
<path d="M0 1017.7H717.2V-3.7H0V1017.7Z" class="g0_341"/>
<g clip-path="url(#c1_341)">
<path clip-path="url(#c0_341)" d="M70 633.4H622.3v236H70v-236Z" class="g0_341"/>
<path d="M371.3 770.3l249.3 .1M93.5 804.7H620.6M182.8 736l437.8 1.1" class="g1_341"/>
<path d="M70.6 794.1c0 -3.6 5.1 -6.6 11.4 -6.6c3.1 0 6 .7 8.1 1.9c2.2 1.3 3.4 3 3.4 4.7v21.1c0 1.8 -1.2 3.5 -3.4 4.7c-2.1 1.3 -5 2 -8.1 2c-6.3 0 -11.4 -3 -11.4 -6.7V794.1Z" class="g0_341"/>
<path d="M70.6 794.1c0 -3.6 5.1 -6.6 11.4 -6.6c3.1 0 6 .7 8.1 1.9c2.2 1.3 3.4 3 3.4 4.7v21.1c0 1.8 -1.2 3.5 -3.4 4.7c-2.1 1.3 -5 2 -8.1 2c-6.3 0 -11.4 -3 -11.4 -6.7V794.1Zm22.9 0c0 1.8 -1.2 3.5 -3.4 4.7c-2.1 1.3 -5 2 -8.1 2c-6.3 0 -11.4 -3 -11.4 -6.7" class="g1_341"/>
<path d="M104.9 804.8h29.8v32H104.9v-32Z" class="g0_341"/>
<path d="M104.9 804.8h29.8v32H104.9v-32ZM390.3 701.5H620.6" class="g1_341"/>
<path d="M97.9 651.1h20.9c.6 0 1.1 .2 1.7 .4c.5 .2 1 .5 1.4 1c.5 .4 .8 .9 1 1.4c.2 .6 .3 1.1 .3 1.7v23.1c0 .6 -.1 1.2 -.3 1.7c-.2 .6 -.5 1 -1 1.5c-.4 .4 -.9 .7 -1.4 .9c-.6 .3 -1.1 .4 -1.7 .4H97.9c-.5 0 -1.1 -.1 -1.7 -.4c-.5 -.2 -1 -.5 -1.4 -.9c-.4 -.5 -.8 -.9 -1 -1.5c-.2 -.5 -.3 -1.1 -.3 -1.7V655.6c0 -.6 .1 -1.1 .3 -1.7c.2 -.5 .6 -1 1 -1.4c.4 -.5 .9 -.8 1.4 -1c.6 -.2 1.2 -.4 1.7 -.4Z" class="g0_341"/>
<path d="M97.9 651.1h20.9c.6 0 1.1 .2 1.7 .4c.5 .2 1 .5 1.4 1c.5 .4 .8 .9 1 1.4c.2 .6 .3 1.1 .3 1.7v23.1c0 .6 -.1 1.2 -.3 1.7c-.2 .6 -.5 1 -1 1.5c-.4 .4 -.9 .7 -1.4 .9c-.6 .3 -1.1 .4 -1.7 .4H97.9c-.5 0 -1.1 -.1 -1.7 -.4c-.5 -.2 -1 -.5 -1.4 -.9c-.4 -.5 -.8 -.9 -1 -1.5c-.2 -.5 -.3 -1.1 -.3 -1.7V655.6c0 -.6 .1 -1.1 .3 -1.7c.2 -.5 .6 -1 1 -1.4c.4 -.5 .9 -.8 1.4 -1c.6 -.2 1.2 -.4 1.7 -.4Z" class="g1_341"/>
<path d="M101 684.3l10.7 112.8" class="g2_341"/>
<path d="M102.1 683.2c0 .3 -.1 .6 -.4 .8c-.2 .2 -.5 .3 -.8 .3c-.3 0 -.6 -.1 -.8 -.3c-.2 -.2 -.3 -.5 -.3 -.8c0 -.3 .1 -.6 .3 -.8c.2 -.2 .5 -.4 .8 -.4c.3 0 .6 .2 .8 .4c.3 .2 .4 .5 .4 .8Z" class="g3_341"/>
<path d="M102.1 683.2c0 .3 -.1 .6 -.4 .8c-.2 .2 -.5 .3 -.8 .3c-.3 0 -.6 -.1 -.8 -.3c-.2 -.2 -.3 -.5 -.3 -.8c0 -.3 .1 -.6 .3 -.8c.2 -.2 .5 -.4 .8 -.4c.3 0 .6 .2 .8 .4c.3 .2 .4 .5 .4 .8Z" class="g2_341"/>
<path d="M112.1 802.2l-2.9 -6.6l2.5 1.5l2.1 -2l-1.7 7.1Z" class="g3_341"/>
<path d="M112.1 802.2l-2.9 -6.6l2.5 1.5l2.1 -2l-1.7 7.1Z" class="g2_341"/>
<path d="M127.7 685.5h20.9c.6 0 1.1 .1 1.7 .4c.5 .2 1 .5 1.4 .9c.5 .5 .8 .9 1 1.5c.2 .5 .3 1.1 .3 1.7v23.1c0 .6 -.1 1.1 -.3 1.7c-.2 .5 -.5 1 -1 1.4c-.4 .5 -.9 .8 -1.4 1c-.6 .2 -1.1 .3 -1.7 .3H127.7c-.6 0 -1.1 -.1 -1.7 -.3c-.5 -.2 -1 -.5 -1.4 -1c-.4 -.4 -.8 -.9 -1 -1.4c-.2 -.6 -.3 -1.1 -.3 -1.7V690c0 -.6 .1 -1.2 .3 -1.7c.2 -.6 .6 -1 1 -1.5c.4 -.4 .9 -.7 1.4 -.9c.6 -.3 1.1 -.4 1.7 -.4Z" class="g0_341"/>
<path d="M127.7 685.5h20.9c.6 0 1.1 .1 1.7 .4c.5 .2 1 .5 1.4 .9c.5 .5 .8 .9 1 1.5c.2 .5 .3 1.1 .3 1.7v23.1c0 .6 -.1 1.1 -.3 1.7c-.2 .5 -.5 1 -1 1.4c-.4 .5 -.9 .8 -1.4 1c-.6 .2 -1.1 .3 -1.7 .3H127.7c-.6 0 -1.1 -.1 -1.7 -.3c-.5 -.2 -1 -.5 -1.4 -1c-.4 -.4 -.8 -.9 -1 -1.4c-.2 -.6 -.3 -1.1 -.3 -1.7V690c0 -.6 .1 -1.2 .3 -1.7c.2 -.6 .6 -1 1 -1.5c.4 -.4 .9 -.7 1.4 -.9c.6 -.3 1.1 -.4 1.7 -.4Zm-34.2 16h29.8" class="g1_341"/>
<path d="M157.5 719.9h20.9c.6 0 1.1 .1 1.7 .3c.5 .3 1 .6 1.4 1c.4 .4 .8 .9 1 1.5c.2 .5 .3 1.1 .3 1.7v23.1c0 .5 -.1 1.1 -.3 1.7c-.2 .5 -.6 1 -1 1.4c-.4 .4 -.9 .8 -1.4 1c-.6 .2 -1.1 .3 -1.7 .3H157.5c-.6 0 -1.1 -.1 -1.7 -.3c-.5 -.2 -1 -.6 -1.4 -1c-.4 -.4 -.8 -.9 -1 -1.4c-.2 -.6 -.3 -1.2 -.3 -1.7V724.4c0 -.6 .1 -1.2 .3 -1.7c.2 -.6 .6 -1.1 1 -1.5c.4 -.4 .9 -.7 1.4 -1c.6 -.2 1.1 -.3 1.7 -.3Z" class="g0_341"/>
<path d="M157.5 719.9h20.9c.6 0 1.1 .1 1.7 .3c.5 .3 1 .6 1.4 1c.4 .4 .8 .9 1 1.5c.2 .5 .3 1.1 .3 1.7v23.1c0 .5 -.1 1.1 -.3 1.7c-.2 .5 -.6 1 -1 1.4c-.4 .4 -.9 .8 -1.4 1c-.6 .2 -1.1 .3 -1.7 .3H157.5c-.6 0 -1.1 -.1 -1.7 -.3c-.5 -.2 -1 -.6 -1.4 -1c-.4 -.4 -.8 -.9 -1 -1.4c-.2 -.6 -.3 -1.2 -.3 -1.7V724.4c0 -.6 .1 -1.2 .3 -1.7c.2 -.6 .6 -1.1 1 -1.5c.4 -.4 .9 -.7 1.4 -1c.6 -.2 1.1 -.3 1.7 -.3Zm-64 16h59.6" class="g1_341"/>
<path d="M120.1 803.6l16.5 -78.5" class="g2_341"/>
<path d="M121 804.8c0 .3 -.1 .5 -.4 .8c-.2 .2 -.5 .3 -.8 .3c-.3 0 -.6 -.1 -.8 -.3c-.2 -.3 -.3 -.5 -.3 -.8c0 -.4 .1 -.6 .3 -.9c.2 -.2 .5 -.3 .8 -.3c.3 0 .6 .1 .8 .3c.3 .3 .4 .5 .4 .9Z" class="g3_341"/>
<path d="M121 804.8c0 .3 -.1 .5 -.4 .8c-.2 .2 -.5 .3 -.8 .3c-.3 0 -.6 -.1 -.8 -.3c-.2 -.3 -.3 -.5 -.3 -.8c0 -.4 .1 -.6 .3 -.9c.2 -.2 .5 -.3 .8 -.3c.3 0 .6 .1 .8 .3c.3 .3 .4 .5 .4 .9Z" class="g2_341"/>
<path d="M137.6 720.1l.9 7.2l-1.9 -2.2l-2.6 1.2l3.6 -6.2Z" class="g3_341"/>
<path d="M137.6 720.1l.9 7.2l-1.9 -2.2l-2.6 1.2l3.6 -6.2ZM128 803.9L163.2 758" class="g2_341"/>
<path d="M128.4 804.8c0 .3 -.1 .5 -.3 .8c-.2 .2 -.5 .3 -.8 .3c-.3 0 -.6 -.1 -.8 -.3c-.3 -.3 -.4 -.5 -.4 -.8c0 -.4 .1 -.6 .4 -.9c.2 -.2 .5 -.3 .8 -.3c.3 0 .6 .1 .8 .3c.2 .3 .3 .5 .3 .9Z" class="g3_341"/>
<path d="M128.4 804.8c0 .3 -.1 .5 -.3 .8c-.2 .2 -.5 .3 -.8 .3c-.3 0 -.6 -.1 -.8 -.3c-.3 -.3 -.4 -.5 -.4 -.8c0 -.4 .1 -.6 .4 -.9c.2 -.2 .5 -.3 .8 -.3c.3 0 .6 .1 .8 .3c.2 .3 .3 .5 .3 .9Z" class="g2_341"/>
<path d="M166.4 754l-2.4 6.8l-.8 -2.8h-2.8l6 -4Z" class="g3_341"/>
<path d="M166.4 754l-2.4 6.8l-.8 -2.8h-2.8l6 -4Z" class="g2_341"/>
<path d="M187.7 719.9h43.1c.7 0 1.3 .1 1.9 .4c.6 .2 1.1 .6 1.5 1c.5 .5 .8 1 1.1 1.6c.2 .6 .3 1.2 .3 1.8v22.4c0 .7 -.1 1.3 -.3 1.9c-.3 .5 -.6 1.1 -1.1 1.5c-.4 .5 -.9 .8 -1.5 1.1c-.6 .2 -1.2 .3 -1.9 .3H187.7c-.7 0 -1.3 -.1 -1.9 -.3c-.6 -.3 -1.1 -.6 -1.5 -1.1c-.5 -.4 -.8 -1 -1.1 -1.5c-.2 -.6 -.3 -1.2 -.3 -1.9V724.7c0 -.6 .1 -1.2 .3 -1.8c.3 -.6 .6 -1.1 1.1 -1.6c.4 -.4 .9 -.8 1.5 -1c.6 -.3 1.2 -.4 1.9 -.4Z" class="g0_341"/>
<path d="M187.7 719.9h43.1c.7 0 1.3 .1 1.9 .4c.6 .2 1.1 .6 1.5 1c.5 .5 .8 1 1.1 1.6c.2 .6 .3 1.2 .3 1.8v22.4c0 .7 -.1 1.3 -.3 1.9c-.3 .5 -.6 1.1 -1.1 1.5c-.4 .5 -.9 .8 -1.5 1.1c-.6 .2 -1.2 .3 -1.9 .3H187.7c-.7 0 -1.3 -.1 -1.9 -.3c-.6 -.3 -1.1 -.6 -1.5 -1.1c-.5 -.4 -.8 -1 -1.1 -1.5c-.2 -.6 -.3 -1.2 -.3 -1.9V724.7c0 -.6 .1 -1.2 .3 -1.8c.3 -.6 .6 -1.1 1.1 -1.6c.4 -.4 .9 -.8 1.5 -1c.6 -.3 1.2 -.4 1.9 -.4Z" class="g1_341"/>
<path d="M204.6 804.8h57.3v32H204.6v-32Z" class="g0_341"/>
<path d="M204.6 804.8h57.3v32H204.6v-32Z" class="g1_341"/>
<path d="M196.5 753l19.4 44.7" class="g2_341"/>
<path d="M197.2 751.9c0 .4 -.1 .6 -.3 .8c-.3 .3 -.5 .4 -.8 .4c-.4 0 -.6 -.1 -.9 -.4c-.2 -.2 -.3 -.4 -.3 -.8c0 -.3 .1 -.6 .3 -.8c.3 -.2 .5 -.3 .9 -.3c.3 0 .5 .1 .8 .3c.2 .2 .3 .5 .3 .8Z" class="g3_341"/>
<path d="M197.2 751.9c0 .4 -.1 .6 -.3 .8c-.3 .3 -.5 .4 -.8 .4c-.4 0 -.6 -.1 -.9 -.4c-.2 -.2 -.3 -.4 -.3 -.8c0 -.3 .1 -.6 .3 -.8c.3 -.2 .5 -.3 .9 -.3c.3 0 .5 .1 .8 .3c.2 .2 .3 .5 .3 .8Z" class="g2_341"/>
<path d="M217.9 802.4L213.1 797l2.8 .7l1.4 -2.5l.6 7.2Z" class="g3_341"/>
<path d="M217.9 802.4L213.1 797l2.8 .7l1.4 -2.5l.6 7.2Z" class="g2_341"/>
<path d="M240.4 754.3h43.1c.7 0 1.3 .1 1.9 .3c.6 .3 1.1 .6 1.5 1.1c.5 .4 .8 .9 1.1 1.5c.2 .6 .3 1.2 .3 1.9v22.4c0 .6 -.1 1.2 -.3 1.8c-.3 .6 -.6 1.1 -1.1 1.6c-.4 .4 -.9 .8 -1.5 1c-.6 .3 -1.2 .4 -1.9 .4H240.4c-.7 0 -1.3 -.1 -1.9 -.4c-.6 -.2 -1.1 -.6 -1.5 -1c-.5 -.5 -.8 -1 -1.1 -1.6c-.2 -.6 -.3 -1.2 -.3 -1.8V759.1c0 -.7 .1 -1.3 .3 -1.9c.3 -.6 .6 -1.1 1.1 -1.5c.4 -.5 .9 -.8 1.5 -1.1c.6 -.2 1.2 -.3 1.9 -.3Z" class="g0_341"/>
<path d="M240.4 754.3h43.1c.7 0 1.3 .1 1.9 .3c.6 .3 1.1 .6 1.5 1.1c.5 .4 .8 .9 1.1 1.5c.2 .6 .3 1.2 .3 1.9v22.4c0 .6 -.1 1.2 -.3 1.8c-.3 .6 -.6 1.1 -1.1 1.6c-.4 .4 -.9 .8 -1.5 1c-.6 .3 -1.2 .4 -1.9 .4H240.4c-.7 0 -1.3 -.1 -1.9 -.4c-.6 -.2 -1.1 -.6 -1.5 -1c-.5 -.5 -.8 -1 -1.1 -1.6c-.2 -.6 -.3 -1.2 -.3 -1.8V759.1c0 -.7 .1 -1.3 .3 -1.9c.3 -.6 .6 -1.1 1.1 -1.5c.4 -.5 .9 -.8 1.5 -1.1c.6 -.2 1.2 -.3 1.9 -.3Zm-146.9 16H235.6" class="g1_341"/>
<path d="M248.3 803.9l8.9 -11.5" class="g2_341"/>
<path d="M248.7 804.8c0 .3 -.1 .5 -.3 .8c-.2 .2 -.5 .3 -.8 .3c-.3 0 -.6 -.1 -.8 -.3c-.2 -.3 -.4 -.5 -.4 -.8c0 -.4 .2 -.6 .4 -.9c.2 -.2 .5 -.3 .8 -.3c.3 0 .6 .1 .8 .3c.2 .3 .3 .5 .3 .9Z" class="g3_341"/>
<path d="M248.7 804.8c0 .3 -.1 .5 -.3 .8c-.2 .2 -.5 .3 -.8 .3c-.3 0 -.6 -.1 -.8 -.3c-.2 -.3 -.4 -.5 -.4 -.8c0 -.4 .2 -.6 .4 -.9c.2 -.2 .5 -.3 .8 -.3c.3 0 .6 .1 .8 .3c.2 .3 .3 .5 .3 .9Z" class="g2_341"/>
<path d="M260.4 788.3l-2.4 6.9l-.8 -2.8l-2.8 -.1l6 -4Z" class="g3_341"/>
<path d="M260.4 788.3l-2.4 6.9l-.8 -2.8l-2.8 -.1l6 -4Z" class="g2_341"/>
<path d="M293.1 754.3h73.4c.6 0 1.2 .1 1.8 .4c.6 .2 1.1 .5 1.6 1c.4 .4 .8 1 1 1.5c.3 .6 .4 1.2 .4 1.9v22.4c0 .6 -.1 1.3 -.4 1.8c-.2 .6 -.6 1.2 -1 1.6c-.5 .5 -1 .8 -1.6 1c-.6 .3 -1.2 .4 -1.8 .4H293.1c-.7 0 -1.3 -.1 -1.9 -.4c-.6 -.2 -1.1 -.5 -1.5 -1c-.5 -.4 -.8 -1 -1.1 -1.6c-.2 -.5 -.3 -1.2 -.3 -1.8V759.1c0 -.7 .1 -1.3 .3 -1.9c.3 -.5 .6 -1.1 1.1 -1.5c.4 -.5 .9 -.8 1.5 -1c.6 -.3 1.2 -.4 1.9 -.4Z" class="g0_341"/>
<path d="M293.1 754.3h73.4c.6 0 1.2 .1 1.8 .4c.6 .2 1.1 .5 1.6 1c.4 .4 .8 1 1 1.5c.3 .6 .4 1.2 .4 1.9v22.4c0 .6 -.1 1.3 -.4 1.8c-.2 .6 -.6 1.2 -1 1.6c-.5 .5 -1 .8 -1.6 1c-.6 .3 -1.2 .4 -1.8 .4H293.1c-.7 0 -1.3 -.1 -1.9 -.4c-.6 -.2 -1.1 -.5 -1.5 -1c-.5 -.4 -.8 -1 -1.1 -1.6c-.2 -.5 -.3 -1.2 -.3 -1.8V759.1c0 -.7 .1 -1.3 .3 -1.9c.3 -.5 .6 -1.1 1.1 -1.5c.4 -.5 .9 -.8 1.5 -1c.6 -.3 1.2 -.4 1.9 -.4Z" class="g1_341"/>
<path d="M346.7 804.8h87.5v32H346.7v-32Z" class="g0_341"/>
<path d="M346.7 804.8h87.5v32H346.7v-32Z" class="g1_341"/>
<path d="M351.3 787.1l11.9 12.1" class="g2_341"/>
<path d="M351.7 786.3c0 .3 -.1 .6 -.4 .8c-.2 .2 -.5 .4 -.8 .4c-.3 0 -.6 -.2 -.8 -.4c-.2 -.2 -.3 -.5 -.3 -.8c0 -.3 .1 -.6 .3 -.8c.2 -.2 .5 -.3 .8 -.3c.3 0 .6 .1 .8 .3c.3 .2 .4 .5 .4 .8Z" class="g3_341"/>
<path d="M351.7 786.3c0 .3 -.1 .6 -.4 .8c-.2 .2 -.5 .4 -.8 .4c-.3 0 -.6 -.2 -.8 -.4c-.2 -.2 -.3 -.5 -.3 -.8c0 -.3 .1 -.6 .3 -.8c.2 -.2 .5 -.3 .8 -.3c.3 0 .6 .1 .8 .3c.3 .2 .4 .5 .4 .8Z" class="g2_341"/>
<path d="M366.8 802.9l-6.5 -3.3l2.9 -.4l.4 -2.8l3.2 6.5Z" class="g3_341"/>
<path d="M366.8 802.9l-6.5 -3.3l2.9 -.4l.4 -2.8l3.2 6.5Z" class="g2_341"/>
<path d="M342.3 685.5h43.2c.7 0 1.3 .1 1.9 .4c.5 .2 1.1 .6 1.5 1c.5 .5 .8 1 1.1 1.6c.2 .6 .3 1.2 .3 1.8v22.4c0 .7 -.1 1.3 -.3 1.9c-.3 .6 -.6 1.1 -1.1 1.5c-.4 .5 -1 .8 -1.5 1.1c-.6 .2 -1.2 .3 -1.9 .3H342.3c-.6 0 -1.2 -.1 -1.8 -.3c-.6 -.3 -1.1 -.6 -1.6 -1.1c-.4 -.4 -.7 -.9 -1 -1.5c-.2 -.6 -.4 -1.2 -.4 -1.9V690.3c0 -.6 .2 -1.2 .4 -1.8c.3 -.6 .6 -1.1 1 -1.6c.5 -.4 1 -.8 1.6 -1c.6 -.3 1.2 -.4 1.8 -.4Z" class="g0_341"/>
<path d="M342.3 685.5h43.2c.7 0 1.3 .1 1.9 .4c.5 .2 1.1 .6 1.5 1c.5 .5 .8 1 1.1 1.6c.2 .6 .3 1.2 .3 1.8v22.4c0 .7 -.1 1.3 -.3 1.9c-.3 .6 -.6 1.1 -1.1 1.5c-.4 .5 -1 .8 -1.5 1.1c-.6 .2 -1.2 .3 -1.9 .3H342.3c-.6 0 -1.2 -.1 -1.8 -.3c-.6 -.3 -1.1 -.6 -1.6 -1.1c-.4 -.4 -.7 -.9 -1 -1.5c-.2 -.6 -.4 -1.2 -.4 -1.9V690.3c0 -.6 .2 -1.2 .4 -1.8c.3 -.6 .6 -1.1 1 -1.6c.5 -.4 1 -.8 1.6 -1c.6 -.3 1.2 -.4 1.8 -.4ZM153 701.5H337.5" class="g1_341"/>
<path d="M364.3 718.6l23.9 78.8" class="g2_341"/>
<path d="M365.1 717.5c0 .4 -.1 .6 -.4 .9c-.2 .2 -.5 .3 -.8 .3c-.3 0 -.6 -.1 -.8 -.3c-.2 -.3 -.3 -.5 -.3 -.9c0 -.3 .1 -.5 .3 -.8c.2 -.2 .5 -.3 .8 -.3c.3 0 .6 .1 .8 .3c.3 .3 .4 .5 .4 .8Z" class="g3_341"/>
<path d="M365.1 717.5c0 .4 -.1 .6 -.4 .9c-.2 .2 -.5 .3 -.8 .3c-.3 0 -.6 -.1 -.8 -.3c-.2 -.3 -.3 -.5 -.3 -.9c0 -.3 .1 -.5 .3 -.8c.2 -.2 .5 -.3 .8 -.3c.3 0 .6 .1 .8 .3c.3 .3 .4 .5 .4 .8Z" class="g2_341"/>
<path d="M389.7 802.3l-4.2 -5.9l2.7 1l1.7 -2.3l-.2 7.2Z" class="g3_341"/>
<path d="M389.7 802.3l-4.2 -5.9l2.7 1l1.7 -2.3l-.2 7.2Z" class="g2_341"/>
<path d="M346.7 836.8h87.5v31.9H346.7V836.8Z" class="g0_341"/>
<path d="M346.7 836.8h87.5v31.9H346.7V836.8Z" class="g1_341"/>
<path d="M412.7 803.7l31.6 -99.5" class="g2_341"/>
<path d="M413.5 804.8c0 .3 -.1 .5 -.3 .8c-.3 .2 -.5 .3 -.9 .3c-.3 0 -.5 -.1 -.8 -.3c-.2 -.3 -.3 -.5 -.3 -.8c0 -.4 .1 -.6 .3 -.9c.3 -.2 .5 -.3 .8 -.3c.4 0 .6 .1 .9 .3c.2 .3 .3 .5 .3 .9Z" class="g3_341"/>
<path d="M413.5 804.8c0 .3 -.1 .5 -.3 .8c-.3 .2 -.5 .3 -.9 .3c-.3 0 -.5 -.1 -.8 -.3c-.2 -.3 -.3 -.5 -.3 -.8c0 -.4 .1 -.6 .3 -.9c.3 -.2 .5 -.3 .8 -.3c.4 0 .6 .1 .9 .3c.2 .3 .3 .5 .3 .9Z" class="g2_341"/>
<path d="M445.9 699.3l.1 7.2l-1.7 -2.3l-2.7 1l4.3 -5.9Z" class="g3_341"/>
<path d="M445.9 699.3l.1 7.2l-1.7 -2.3l-2.7 1l4.3 -5.9Z" class="g2_341"/>
<path d="M494.7 651.1H598.8c.7 0 1.3 .2 1.9 .4c.5 .3 1.1 .6 1.5 1.1c.5 .4 .8 .9 1.1 1.5c.2 .6 .3 1.2 .3 1.8v22.5c0 .6 -.1 1.2 -.3 1.8c-.3 .6 -.6 1.1 -1.1 1.6c-.4 .4 -1 .8 -1.5 1c-.6 .3 -1.2 .4 -1.9 .4H494.7c-.6 0 -1.2 -.1 -1.8 -.4c-.6 -.2 -1.1 -.6 -1.6 -1c-.4 -.5 -.8 -1 -1 -1.6c-.2 -.6 -.4 -1.2 -.4 -1.8V655.9c0 -.6 .2 -1.2 .4 -1.8c.2 -.6 .6 -1.1 1 -1.5c.5 -.5 1 -.8 1.6 -1.1c.6 -.2 1.2 -.4 1.8 -.4Z" class="g0_341"/>
<path d="M494.7 651.1H598.8c.7 0 1.3 .2 1.9 .4c.5 .3 1.1 .6 1.5 1.1c.5 .4 .8 .9 1.1 1.5c.2 .6 .3 1.2 .3 1.8v22.5c0 .6 -.1 1.2 -.3 1.8c-.3 .6 -.6 1.1 -1.1 1.6c-.4 .4 -1 .8 -1.5 1c-.6 .3 -1.2 .4 -1.9 .4H494.7c-.6 0 -1.2 -.1 -1.8 -.4c-.6 -.2 -1.1 -.6 -1.6 -1c-.4 -.5 -.8 -1 -1 -1.6c-.2 -.6 -.4 -1.2 -.4 -1.8V655.9c0 -.6 .2 -1.2 .4 -1.8c.2 -.6 .6 -1.1 1 -1.5c.5 -.5 1 -.8 1.6 -1.1c.6 -.2 1.2 -.4 1.8 -.4ZM123.2 667.2H489.9" class="g1_341"/>
<path d="M506 804.8H620.6v32H506v-32Z" class="g0_341"/>
<path d="M506 804.8H620.6v32H506v-32Z" class="g1_341"/>
<path d="M518.8 684.3l41.8 113.2" class="g2_341"/>
<path d="M519.5 683.2c0 .3 -.1 .6 -.3 .8c-.3 .2 -.5 .3 -.8 .3c-.4 0 -.6 -.1 -.9 -.3c-.2 -.2 -.3 -.5 -.3 -.8c0 -.3 .1 -.6 .3 -.8c.3 -.2 .5 -.4 .9 -.4c.3 0 .5 .2 .8 .4c.2 .2 .3 .5 .3 .8Z" class="g3_341"/>
<path d="M519.5 683.2c0 .3 -.1 .6 -.3 .8c-.3 .2 -.5 .3 -.8 .3c-.4 0 -.6 -.1 -.9 -.3c-.2 -.2 -.3 -.5 -.3 -.8c0 -.3 .1 -.6 .3 -.8c.3 -.2 .5 -.4 .9 -.4c.3 0 .5 .2 .8 .4c.2 .2 .3 .5 .3 .8Z" class="g2_341"/>
<path d="M562.4 802.4l-4.5 -5.7l2.7 .8l1.5 -2.4l.3 7.3Z" class="g3_341"/>
<path d="M562.4 802.4l-4.5 -5.7l2.7 .8l1.5 -2.4l.3 7.3Z" class="g2_341"/>
<path d="M409.5 633.9h74.3c.7 0 1.4 .2 2.1 .5c.6 .2 1.2 .6 1.8 1.1c.5 .6 .9 1.2 1.1 1.8c.3 .7 .5 1.4 .5 2.1v25.7c0 .7 -.2 1.4 -.5 2.1c-.2 .6 -.6 1.2 -1.1 1.8c-.6 .5 -1.2 .9 -1.8 1.1c-.7 .3 -1.4 .5 -2.1 .5H409.5c-.7 0 -1.4 -.2 -2.1 -.5c-.7 -.2 -1.3 -.6 -1.8 -1.1c-.5 -.6 -.9 -1.2 -1.2 -1.8c-.3 -.7 -.4 -1.4 -.4 -2.1V639.4c0 -.7 .1 -1.4 .4 -2.1c.3 -.6 .7 -1.2 1.2 -1.8c.5 -.5 1.1 -.9 1.8 -1.1c.7 -.3 1.4 -.5 2.1 -.5Z" class="g0_341"/>
<path d="M409.5 633.9h74.3c.7 0 1.4 .2 2.1 .5c.6 .2 1.2 .6 1.8 1.1c.5 .6 .9 1.2 1.1 1.8c.3 .7 .5 1.4 .5 2.1v25.7c0 .7 -.2 1.4 -.5 2.1c-.2 .6 -.6 1.2 -1.1 1.8c-.6 .5 -1.2 .9 -1.8 1.1c-.7 .3 -1.4 .5 -2.1 .5H409.5c-.7 0 -1.4 -.2 -2.1 -.5c-.7 -.2 -1.3 -.6 -1.8 -1.1c-.5 -.6 -.9 -1.2 -1.2 -1.8c-.3 -.7 -.4 -1.4 -.4 -2.1V639.4c0 -.7 .1 -1.4 .4 -2.1c.3 -.6 .7 -1.2 1.2 -1.8c.5 -.5 1.1 -.9 1.8 -1.1c.7 -.3 1.4 -.5 2.1 -.5Z" class="g1_341"/>
<path d="M408.8 664.8h75.7c.6 0 1.2 .2 1.8 .4c.6 .2 1.1 .6 1.6 1c.4 .5 .8 1 1 1.6c.2 .6 .4 1.2 .4 1.8v22.5c0 .6 -.2 1.2 -.4 1.8c-.2 .6 -.6 1.1 -1 1.5c-.5 .5 -1 .8 -1.6 1.1c-.6 .2 -1.2 .4 -1.8 .4H408.8c-.6 0 -1.2 -.2 -1.8 -.4c-.6 -.3 -1.1 -.6 -1.6 -1.1c-.4 -.4 -.8 -.9 -1 -1.5c-.3 -.6 -.4 -1.2 -.4 -1.8V669.6c0 -.6 .1 -1.2 .4 -1.8c.2 -.6 .6 -1.1 1 -1.6c.5 -.4 1 -.8 1.6 -1c.6 -.2 1.2 -.4 1.8 -.4Z" class="g0_341"/>
<path d="M408.8 664.8h75.7c.6 0 1.2 .2 1.8 .4c.6 .2 1.1 .6 1.6 1c.4 .5 .8 1 1 1.6c.2 .6 .4 1.2 .4 1.8v22.5c0 .6 -.2 1.2 -.4 1.8c-.2 .6 -.6 1.1 -1 1.5c-.5 .5 -1 .8 -1.6 1.1c-.6 .2 -1.2 .4 -1.8 .4H408.8c-.6 0 -1.2 -.2 -1.8 -.4c-.6 -.3 -1.1 -.6 -1.6 -1.1c-.4 -.4 -.8 -.9 -1 -1.5c-.3 -.6 -.4 -1.2 -.4 -1.8V669.6c0 -.6 .1 -1.2 .4 -1.8c.2 -.6 .6 -1.1 1 -1.6c.5 -.4 1 -.8 1.6 -1c.6 -.2 1.2 -.4 1.8 -.4Zm211.8 2.4h-17" class="g1_341"/>
</g>
</svg>