<?xml version="1.0" encoding="UTF-8" standalone="no"?>
<!DOCTYPE svg PUBLIC "-//W3C//DTD SVG 1.1//EN"
"http://www.w3.org/Graphics/SVG/1.1/DTD/svg11.dtd">
<svg viewBox="0 0 714 1017" version="1.1" xmlns="http://www.w3.org/2000/svg" xmlns:xlink="http://www.w3.org/1999/xlink">
<defs>
<clipPath id="c0_321"><path d="M74.6 337.6V97H617.7V337.6Z"/></clipPath>
<clipPath id="c1_321"><path d="M74.6 338.3V96.9H618.5V338.3Z"/></clipPath>
<style type="text/css"><![CDATA[
.g0_321{
fill: #FFF;
}
.g1_321{
fill: none;
stroke: #000;
stroke-width: 1.145;
stroke-miterlimit: 10;
}
.g2_321{
fill: #000;
}
]]></style>
</defs>
<path d="M0 1017.7H717.2V-3.7H0V1017.7Z" class="g0_321"/>
<g clip-path="url(#c1_321)">
<path clip-path="url(#c0_321)" d="M74.6 97H617.7V337.6H74.6V97Z" class="g0_321"/>
<path d="M75.1 131.9h34.3v91.7H75.1V131.9Z" class="g0_321"/>
<path d="M75.1 131.9h34.3v91.7H75.1V131.9Z" class="g1_321"/>
<path d="M109.5 131.9h34.3v91.7H109.5V131.9Z" class="g0_321"/>
<path d="M109.5 131.9h34.3v91.7H109.5V131.9Z" class="g1_321"/>
<path d="M143.9 131.9h34.3v91.7H143.9V131.9Z" class="g0_321"/>
<path d="M143.9 131.9h34.3v91.7H143.9V131.9Z" class="g1_321"/>
<path d="M178.3 131.9h34.3v91.7H178.3V131.9Z" class="g0_321"/>
<path d="M178.3 131.9h34.3v91.7H178.3V131.9Z" class="g1_321"/>
<path d="M212.6 131.9h34.3v91.7H212.6V131.9Z" class="g0_321"/>
<path d="M212.6 131.9h34.3v91.7H212.6V131.9Z" class="g1_321"/>
<path d="M247 131.9h34.3v91.7H247V131.9Z" class="g0_321"/>
<path d="M247 131.9h34.3v91.7H247V131.9Z" class="g1_321"/>
<path d="M280.3 131.9h34.2v91.7H280.3V131.9Z" class="g0_321"/>
<path d="M280.3 131.9h34.2v91.7H280.3V131.9Z" class="g1_321"/>
<path d="M314.6 131.9h34.3v91.7H314.6V131.9Z" class="g0_321"/>
<path d="M314.6 131.9h34.3v91.7H314.6V131.9Z" class="g1_321"/>
<path d="M349 131.9h34.3v91.7H349V131.9Z" class="g0_321"/>
<path d="M349 131.9h34.3v91.7H349V131.9Z" class="g1_321"/>
<path d="M383.4 131.9h34.3v91.7H383.4V131.9Z" class="g0_321"/>
<path d="M383.4 131.9h34.3v91.7H383.4V131.9Z" class="g1_321"/>
<path d="M417.8 131.9H452v91.7H417.8V131.9Z" class="g0_321"/>
<path d="M417.8 131.9H452v91.7H417.8V131.9Z" class="g1_321"/>
<path d="M452.1 131.9h34.3v91.7H452.1V131.9Z" class="g0_321"/>
<path d="M452.1 131.9h34.3v91.7H452.1V131.9ZM154.2 258H286c7.6 0 11.4 -3.8 11.4 -11.5V230.9" class="g1_321"/>
<path d="M297.4 224.9l4 8l-4 -2l-4 2l4 -8Z" class="g2_321"/>
<path d="M297.4 224.9l4 8l-4 -2l-4 2l4 -8Zm-143.2 56H423.5c7.6 0 11.4 -3.8 11.4 -11.5V230.9" class="g1_321"/>
<path d="M434.9 224.9l4 8l-4 -2l-4 2l4 -8Z" class="g2_321"/>
<path d="M434.9 224.9l4 8l-4 -2l-4 2l4 -8ZM154.2 303.8H423.5c7.6 0 11.4 -3.8 11.4 -11.4V230.9" class="g1_321"/>
<path d="M434.9 224.9l4 8l-4 -2l-4 2l4 -8Z" class="g2_321"/>
<path d="M434.9 224.9l4 8l-4 -2l-4 2l4 -8ZM154.2 326.7H457.9c7.6 0 11.4 -3.8 11.4 -11.4V230.9" class="g1_321"/>
<path d="M469.3 224.9l4 8l-4 -2l-4 2l4 -8Z" class="g2_321"/>
<path d="M469.3 224.9l4 8l-4 -2l-4 2l4 -8ZM417.8 109h40.1c7.6 0 11.4 2.6 11.4 7.8v7.8" class="g1_321"/>
<path d="M469.3 130.7l-4 -8.1l4 2l4 -1.9l-4 8Z" class="g2_321"/>
<path d="M469.3 130.7l-4 -8.1l4 2l4 -1.9l-4 8Z" class="g1_321"/>
</g>
</svg>