<?xml version="1.0" encoding="UTF-8" standalone="no"?>
<!DOCTYPE svg PUBLIC "-//W3C//DTD SVG 1.1//EN"
"http://www.w3.org/Graphics/SVG/1.1/DTD/svg11.dtd">
<svg viewBox="0 0 714 1017" version="1.1" xmlns="http://www.w3.org/2000/svg" xmlns:xlink="http://www.w3.org/1999/xlink">
<defs>
<clipPath id="c0_340"><path d="M91.6 882.8v-236H643.9v236Z"/></clipPath>
<clipPath id="c1_340"><path d="M91.6 883.6V645.3H644.7V883.6Z"/></clipPath>
<style type="text/css"><![CDATA[
.g0_340{
fill: #FFF;
}
.g1_340{
fill: none;
stroke: #000;
stroke-width: 1.145;
stroke-miterlimit: 10;
}
.g2_340{
fill: none;
stroke: #000;
stroke-width: 2.291;
stroke-miterlimit: 10;
}
.g3_340{
fill: #000;
}
]]></style>
</defs>
<path d="M0 1017.7H717.2V-3.7H0V1017.7Z" class="g0_340"/>
<g clip-path="url(#c1_340)">
<path clip-path="url(#c0_340)" d="M91.6 646.8H643.9v236H91.6v-236Z" class="g0_340"/>
<path d="M392.9 783.7l249.3 .1M115.1 818.1H642.2M204.5 749.4l437.7 1.1" class="g1_340"/>
<path d="M92.2 807.5c0 -3.6 5.2 -6.6 11.5 -6.6c3 0 5.9 .7 8.1 1.9c2.1 1.3 3.3 3 3.3 4.7v21.1c0 1.8 -1.2 3.5 -3.3 4.7c-2.2 1.3 -5.1 2 -8.1 2c-6.3 0 -11.5 -3 -11.5 -6.7V807.5Z" class="g0_340"/>
<path d="M92.2 807.5c0 -3.6 5.2 -6.6 11.5 -6.6c3 0 5.9 .7 8.1 1.9c2.1 1.3 3.3 3 3.3 4.7v21.1c0 1.8 -1.2 3.5 -3.3 4.7c-2.2 1.3 -5.1 2 -8.1 2c-6.3 0 -11.5 -3 -11.5 -6.7V807.5Zm22.9 0c0 1.8 -1.2 3.5 -3.3 4.7c-2.2 1.3 -5.1 2 -8.1 2c-6.3 0 -11.5 -3 -11.5 -6.7" class="g1_340"/>
<path d="M126.6 818.2h29.8v32H126.6v-32Z" class="g0_340"/>
<path d="M126.6 818.2h29.8v32H126.6v-32ZM412 714.9H642.2" class="g1_340"/>
<path d="M119.6 664.5h20.8c.6 0 1.2 .2 1.7 .4c.6 .2 1.1 .5 1.5 1c.4 .4 .7 .9 1 1.4c.2 .6 .3 1.1 .3 1.7v23.1c0 .6 -.1 1.2 -.3 1.7c-.3 .6 -.6 1 -1 1.5c-.4 .4 -.9 .7 -1.5 .9c-.5 .3 -1.1 .4 -1.7 .4H119.6c-.6 0 -1.2 -.1 -1.7 -.4c-.6 -.2 -1 -.5 -1.5 -.9c-.4 -.5 -.7 -.9 -.9 -1.5c-.3 -.5 -.4 -1.1 -.4 -1.7V669c0 -.6 .1 -1.1 .4 -1.7c.2 -.5 .5 -1 .9 -1.4c.5 -.5 .9 -.8 1.5 -1c.5 -.2 1.1 -.4 1.7 -.4Z" class="g0_340"/>
<path d="M119.6 664.5h20.8c.6 0 1.2 .2 1.7 .4c.6 .2 1.1 .5 1.5 1c.4 .4 .7 .9 1 1.4c.2 .6 .3 1.1 .3 1.7v23.1c0 .6 -.1 1.2 -.3 1.7c-.3 .6 -.6 1 -1 1.5c-.4 .4 -.9 .7 -1.5 .9c-.5 .3 -1.1 .4 -1.7 .4H119.6c-.6 0 -1.2 -.1 -1.7 -.4c-.6 -.2 -1 -.5 -1.5 -.9c-.4 -.5 -.7 -.9 -.9 -1.5c-.3 -.5 -.4 -1.1 -.4 -1.7V669c0 -.6 .1 -1.1 .4 -1.7c.2 -.5 .5 -1 .9 -1.4c.5 -.5 .9 -.8 1.5 -1c.5 -.2 1.1 -.4 1.7 -.4Z" class="g1_340"/>
<path d="M122.7 697.7l10.6 112.8" class="g2_340"/>
<path d="M123.7 696.6c0 .3 -.1 .6 -.3 .8c-.2 .2 -.5 .3 -.8 .3c-.3 0 -.6 -.1 -.8 -.3c-.3 -.2 -.4 -.5 -.4 -.8c0 -.3 .1 -.6 .4 -.8c.2 -.2 .5 -.4 .8 -.4c.3 0 .6 .2 .8 .4c.2 .2 .3 .5 .3 .8Z" class="g3_340"/>
<path d="M123.7 696.6c0 .3 -.1 .6 -.3 .8c-.2 .2 -.5 .3 -.8 .3c-.3 0 -.6 -.1 -.8 -.3c-.3 -.2 -.4 -.5 -.4 -.8c0 -.3 .1 -.6 .4 -.8c.2 -.2 .5 -.4 .8 -.4c.3 0 .6 .2 .8 .4c.2 .2 .3 .5 .3 .8Z" class="g2_340"/>
<path d="M133.8 815.6L130.9 809l2.4 1.5l2.1 -2l-1.6 7.1Z" class="g3_340"/>
<path d="M133.8 815.6L130.9 809l2.4 1.5l2.1 -2l-1.6 7.1Z" class="g2_340"/>
<path d="M149.4 698.9h20.8c.6 0 1.2 .1 1.7 .4c.6 .2 1.1 .5 1.5 .9c.4 .5 .7 .9 1 1.5c.2 .5 .3 1.1 .3 1.7v23.1c0 .6 -.1 1.1 -.3 1.7c-.3 .5 -.6 1 -1 1.4c-.4 .5 -.9 .8 -1.5 1c-.5 .2 -1.1 .4 -1.7 .4H149.4c-.6 0 -1.2 -.2 -1.7 -.4c-.6 -.2 -1 -.5 -1.5 -1c-.4 -.4 -.7 -.9 -.9 -1.4c-.3 -.6 -.4 -1.1 -.4 -1.7V703.4c0 -.6 .1 -1.2 .4 -1.7c.2 -.6 .5 -1 .9 -1.5c.5 -.4 .9 -.7 1.5 -.9c.5 -.3 1.1 -.4 1.7 -.4Z" class="g0_340"/>
<path d="M149.4 698.9h20.8c.6 0 1.2 .1 1.7 .4c.6 .2 1.1 .5 1.5 .9c.4 .5 .7 .9 1 1.5c.2 .5 .3 1.1 .3 1.7v23.1c0 .6 -.1 1.1 -.3 1.7c-.3 .5 -.6 1 -1 1.4c-.4 .5 -.9 .8 -1.5 1c-.5 .2 -1.1 .4 -1.7 .4H149.4c-.6 0 -1.2 -.2 -1.7 -.4c-.6 -.2 -1 -.5 -1.5 -1c-.4 -.4 -.7 -.9 -.9 -1.4c-.3 -.6 -.4 -1.1 -.4 -1.7V703.4c0 -.6 .1 -1.2 .4 -1.7c.2 -.6 .5 -1 .9 -1.5c.5 -.4 .9 -.7 1.5 -.9c.5 -.3 1.1 -.4 1.7 -.4Zm-34.3 16h29.8" class="g1_340"/>
<path d="M179.2 733.3H200c.6 0 1.2 .1 1.7 .3c.6 .3 1.1 .6 1.5 1c.4 .4 .7 .9 .9 1.5c.3 .5 .4 1.1 .4 1.7v23.1c0 .5 -.1 1.1 -.4 1.7c-.2 .5 -.5 1 -.9 1.4c-.4 .4 -.9 .8 -1.5 1c-.5 .2 -1.1 .3 -1.7 .3H179.2c-.6 0 -1.2 -.1 -1.7 -.3c-.6 -.2 -1.1 -.6 -1.5 -1c-.4 -.4 -.7 -.9 -.9 -1.4c-.3 -.6 -.4 -1.2 -.4 -1.7V737.8c0 -.6 .1 -1.2 .4 -1.7c.2 -.6 .5 -1.1 .9 -1.5c.4 -.4 .9 -.7 1.5 -1c.5 -.2 1.1 -.3 1.7 -.3Z" class="g0_340"/>
<path d="M179.2 733.3H200c.6 0 1.2 .1 1.7 .3c.6 .3 1.1 .6 1.5 1c.4 .4 .7 .9 .9 1.5c.3 .5 .4 1.1 .4 1.7v23.1c0 .5 -.1 1.1 -.4 1.7c-.2 .5 -.5 1 -.9 1.4c-.4 .4 -.9 .8 -1.5 1c-.5 .2 -1.1 .3 -1.7 .3H179.2c-.6 0 -1.2 -.1 -1.7 -.3c-.6 -.2 -1.1 -.6 -1.5 -1c-.4 -.4 -.7 -.9 -.9 -1.4c-.3 -.6 -.4 -1.2 -.4 -1.7V737.8c0 -.6 .1 -1.2 .4 -1.7c.2 -.6 .5 -1.1 .9 -1.5c.4 -.4 .9 -.7 1.5 -1c.5 -.2 1.1 -.3 1.7 -.3Zm-64.1 16h59.6" class="g1_340"/>
<path d="M141.7 817l16.5 -78.5" class="g2_340"/>
<path d="M142.6 818.2c0 .3 -.1 .5 -.3 .8c-.2 .2 -.5 .3 -.8 .3c-.3 0 -.6 -.1 -.8 -.3c-.3 -.3 -.4 -.5 -.4 -.8c0 -.4 .1 -.6 .4 -.9c.2 -.2 .5 -.3 .8 -.3c.3 0 .6 .1 .8 .3c.2 .3 .3 .5 .3 .9Z" class="g3_340"/>
<path d="M142.6 818.2c0 .3 -.1 .5 -.3 .8c-.2 .2 -.5 .3 -.8 .3c-.3 0 -.6 -.1 -.8 -.3c-.3 -.3 -.4 -.5 -.4 -.8c0 -.4 .1 -.6 .4 -.9c.2 -.2 .5 -.3 .8 -.3c.3 0 .6 .1 .8 .3c.2 .3 .3 .5 .3 .9Z" class="g2_340"/>
<path d="M159.3 733.5l.8 7.2l-1.9 -2.2l-2.6 1.2l3.7 -6.2Z" class="g3_340"/>
<path d="M159.3 733.5l.8 7.2l-1.9 -2.2l-2.6 1.2l3.7 -6.2Zm-9.7 83.8l35.3 -45.9" class="g2_340"/>
<path d="M150.1 818.2c0 .3 -.1 .5 -.4 .8c-.2 .2 -.5 .3 -.8 .3c-.3 0 -.6 -.1 -.8 -.3c-.2 -.3 -.3 -.5 -.3 -.8c0 -.4 .1 -.6 .3 -.9c.2 -.2 .5 -.3 .8 -.3c.3 0 .6 .1 .8 .3c.3 .3 .4 .5 .4 .9Z" class="g3_340"/>
<path d="M150.1 818.2c0 .3 -.1 .5 -.4 .8c-.2 .2 -.5 .3 -.8 .3c-.3 0 -.6 -.1 -.8 -.3c-.2 -.3 -.3 -.5 -.3 -.8c0 -.4 .1 -.6 .3 -.9c.2 -.2 .5 -.3 .8 -.3c.3 0 .6 .1 .8 .3c.3 .3 .4 .5 .4 .9Z" class="g2_340"/>
<path d="M188 767.4l-2.3 6.8l-.8 -2.8H182l6 -4Z" class="g3_340"/>
<path d="M188 767.4l-2.3 6.8l-.8 -2.8H182l6 -4Z" class="g2_340"/>
<path d="M209.3 733.3h43.2c.6 0 1.2 .1 1.8 .4c.6 .2 1.1 .6 1.6 1c.4 .5 .8 1 1 1.6c.3 .6 .4 1.2 .4 1.8v22.4c0 .7 -.1 1.3 -.4 1.9c-.2 .6 -.6 1.1 -1 1.5c-.5 .5 -1 .8 -1.6 1.1c-.6 .2 -1.2 .3 -1.8 .3H209.3c-.6 0 -1.2 -.1 -1.8 -.3c-.6 -.3 -1.1 -.6 -1.6 -1.1c-.4 -.4 -.8 -.9 -1 -1.5c-.3 -.6 -.4 -1.2 -.4 -1.9V738.1c0 -.6 .1 -1.2 .4 -1.8c.2 -.6 .6 -1.1 1 -1.6c.5 -.4 1 -.8 1.6 -1c.6 -.3 1.2 -.4 1.8 -.4Z" class="g0_340"/>
<path d="M209.3 733.3h43.2c.6 0 1.2 .1 1.8 .4c.6 .2 1.1 .6 1.6 1c.4 .5 .8 1 1 1.6c.3 .6 .4 1.2 .4 1.8v22.4c0 .7 -.1 1.3 -.4 1.9c-.2 .6 -.6 1.1 -1 1.5c-.5 .5 -1 .8 -1.6 1.1c-.6 .2 -1.2 .3 -1.8 .3H209.3c-.6 0 -1.2 -.1 -1.8 -.3c-.6 -.3 -1.1 -.6 -1.6 -1.1c-.4 -.4 -.8 -.9 -1 -1.5c-.3 -.6 -.4 -1.2 -.4 -1.9V738.1c0 -.6 .1 -1.2 .4 -1.8c.2 -.6 .6 -1.1 1 -1.6c.5 -.4 1 -.8 1.6 -1c.6 -.3 1.2 -.4 1.8 -.4Z" class="g1_340"/>
<path d="M226.3 818.2h57.3v32H226.3v-32Z" class="g0_340"/>
<path d="M226.3 818.2h57.3v32H226.3v-32Z" class="g1_340"/>
<path d="M218.2 766.4l19.3 44.7" class="g2_340"/>
<path d="M218.9 765.3c0 .4 -.2 .6 -.4 .8c-.2 .3 -.5 .4 -.8 .4c-.3 0 -.6 -.1 -.8 -.4c-.2 -.2 -.3 -.4 -.3 -.8c0 -.3 .1 -.5 .3 -.8c.2 -.2 .5 -.3 .8 -.3c.3 0 .6 .1 .8 .3c.2 .3 .4 .5 .4 .8Z" class="g3_340"/>
<path d="M218.9 765.3c0 .4 -.2 .6 -.4 .8c-.2 .3 -.5 .4 -.8 .4c-.3 0 -.6 -.1 -.8 -.4c-.2 -.2 -.3 -.4 -.3 -.8c0 -.3 .1 -.5 .3 -.8c.2 -.2 .5 -.3 .8 -.3c.3 0 .6 .1 .8 .3c.2 .3 .4 .5 .4 .8Z" class="g2_340"/>
<path d="M239.6 815.8l-4.9 -5.4l2.8 .7l1.5 -2.5l.6 7.2Z" class="g3_340"/>
<path d="M239.6 815.8l-4.9 -5.4l2.8 .7l1.5 -2.5l.6 7.2Z" class="g2_340"/>
<path d="M262 767.7h43.2c.6 0 1.2 .1 1.8 .3c.6 .3 1.1 .6 1.6 1.1c.4 .4 .8 1 1 1.5c.3 .6 .4 1.2 .4 1.9v22.4c0 .6 -.1 1.2 -.4 1.8c-.2 .6 -.6 1.1 -1 1.6c-.5 .4 -1 .8 -1.6 1c-.6 .3 -1.2 .4 -1.8 .4H262c-.6 0 -1.2 -.1 -1.8 -.4c-.6 -.2 -1.1 -.6 -1.6 -1c-.4 -.5 -.8 -1 -1 -1.6c-.3 -.6 -.4 -1.2 -.4 -1.8V772.5c0 -.7 .1 -1.3 .4 -1.9c.2 -.5 .6 -1.1 1 -1.5c.5 -.5 1 -.8 1.6 -1.1c.6 -.2 1.2 -.3 1.8 -.3Z" class="g0_340"/>
<path d="M262 767.7h43.2c.6 0 1.2 .1 1.8 .3c.6 .3 1.1 .6 1.6 1.1c.4 .4 .8 1 1 1.5c.3 .6 .4 1.2 .4 1.9v22.4c0 .6 -.1 1.2 -.4 1.8c-.2 .6 -.6 1.1 -1 1.6c-.5 .4 -1 .8 -1.6 1c-.6 .3 -1.2 .4 -1.8 .4H262c-.6 0 -1.2 -.1 -1.8 -.4c-.6 -.2 -1.1 -.6 -1.6 -1c-.4 -.5 -.8 -1 -1 -1.6c-.3 -.6 -.4 -1.2 -.4 -1.8V772.5c0 -.7 .1 -1.3 .4 -1.9c.2 -.5 .6 -1.1 1 -1.5c.5 -.5 1 -.8 1.6 -1.1c.6 -.2 1.2 -.3 1.8 -.3Zm-146.9 16H257.2" class="g1_340"/>
<path d="M269.9 817.3l9 -11.5" class="g2_340"/>
<path d="M270.4 818.2c0 .3 -.1 .5 -.3 .8c-.3 .2 -.5 .3 -.9 .3c-.3 0 -.5 -.1 -.8 -.3c-.2 -.3 -.3 -.5 -.3 -.8c0 -.4 .1 -.6 .3 -.9c.3 -.2 .5 -.3 .8 -.3c.4 0 .6 .1 .9 .3c.2 .3 .3 .5 .3 .9Z" class="g3_340"/>
<path d="M270.4 818.2c0 .3 -.1 .5 -.3 .8c-.3 .2 -.5 .3 -.9 .3c-.3 0 -.5 -.1 -.8 -.3c-.2 -.3 -.3 -.5 -.3 -.8c0 -.4 .1 -.6 .3 -.9c.3 -.2 .5 -.3 .8 -.3c.4 0 .6 .1 .9 .3c.2 .3 .3 .5 .3 .9Z" class="g2_340"/>
<path d="M282 801.7l-2.4 6.9l-.7 -2.8H276l6 -4.1Z" class="g3_340"/>
<path d="M282 801.7l-2.4 6.9l-.7 -2.8H276l6 -4.1Z" class="g2_340"/>
<path d="M314.7 767.7h73.4c.7 0 1.3 .1 1.9 .3c.6 .3 1.1 .6 1.5 1.1c.5 .4 .8 1 1.1 1.5c.2 .6 .3 1.2 .3 1.9v22.4c0 .6 -.1 1.2 -.3 1.8c-.3 .6 -.6 1.1 -1.1 1.6c-.4 .4 -.9 .8 -1.5 1c-.6 .3 -1.2 .4 -1.9 .4H314.7c-.6 0 -1.2 -.1 -1.8 -.4c-.6 -.2 -1.1 -.6 -1.6 -1c-.4 -.5 -.8 -1 -1 -1.6c-.3 -.6 -.4 -1.2 -.4 -1.8V772.5c0 -.7 .1 -1.3 .4 -1.9c.2 -.5 .6 -1.1 1 -1.5c.5 -.5 1 -.8 1.6 -1.1c.6 -.2 1.2 -.3 1.8 -.3Z" class="g0_340"/>
<path d="M314.7 767.7h73.4c.7 0 1.3 .1 1.9 .3c.6 .3 1.1 .6 1.5 1.1c.5 .4 .8 1 1.1 1.5c.2 .6 .3 1.2 .3 1.9v22.4c0 .6 -.1 1.2 -.3 1.8c-.3 .6 -.6 1.1 -1.1 1.6c-.4 .4 -.9 .8 -1.5 1c-.6 .3 -1.2 .4 -1.9 .4H314.7c-.6 0 -1.2 -.1 -1.8 -.4c-.6 -.2 -1.1 -.6 -1.6 -1c-.4 -.5 -.8 -1 -1 -1.6c-.3 -.6 -.4 -1.2 -.4 -1.8V772.5c0 -.7 .1 -1.3 .4 -1.9c.2 -.5 .6 -1.1 1 -1.5c.5 -.5 1 -.8 1.6 -1.1c.6 -.2 1.2 -.3 1.8 -.3Z" class="g1_340"/>
<path d="M368.4 818.2h87.5v32H368.4v-32Z" class="g0_340"/>
<path d="M368.4 818.2h87.5v32H368.4v-32Z" class="g1_340"/>
<path d="M373 800.5l11.8 12.1" class="g2_340"/>
<path d="M373.3 799.7c0 .3 -.1 .6 -.3 .8c-.2 .2 -.5 .4 -.8 .4c-.3 0 -.6 -.2 -.8 -.4c-.3 -.2 -.4 -.5 -.4 -.8c0 -.3 .1 -.6 .4 -.8c.2 -.2 .5 -.3 .8 -.3c.3 0 .6 .1 .8 .3c.2 .2 .3 .5 .3 .8Z" class="g3_340"/>
<path d="M373.3 799.7c0 .3 -.1 .6 -.3 .8c-.2 .2 -.5 .4 -.8 .4c-.3 0 -.6 -.2 -.8 -.4c-.3 -.2 -.4 -.5 -.4 -.8c0 -.3 .1 -.6 .4 -.8c.2 -.2 .5 -.3 .8 -.3c.3 0 .6 .1 .8 .3c.2 .2 .3 .5 .3 .8Z" class="g2_340"/>
<path d="M388.4 816.3L382 813l2.8 -.4l.5 -2.8l3.1 6.5Z" class="g3_340"/>
<path d="M388.4 816.3L382 813l2.8 -.4l.5 -2.8l3.1 6.5Z" class="g2_340"/>
<path d="M364 698.9h43.2c.6 0 1.2 .1 1.8 .4c.6 .2 1.1 .6 1.6 1c.4 .5 .8 1 1 1.6c.3 .6 .4 1.2 .4 1.8v22.4c0 .7 -.1 1.3 -.4 1.9c-.2 .6 -.6 1.1 -1 1.5c-.5 .5 -1 .8 -1.6 1.1c-.6 .2 -1.2 .4 -1.8 .4H364c-.6 0 -1.3 -.2 -1.8 -.4c-.6 -.3 -1.1 -.6 -1.6 -1.1c-.4 -.4 -.8 -.9 -1 -1.5c-.3 -.6 -.4 -1.2 -.4 -1.9V703.7c0 -.6 .1 -1.2 .4 -1.8c.2 -.6 .6 -1.1 1 -1.6c.5 -.4 1 -.8 1.6 -1c.5 -.3 1.2 -.4 1.8 -.4Z" class="g0_340"/>
<path d="M364 698.9h43.2c.6 0 1.2 .1 1.8 .4c.6 .2 1.1 .6 1.6 1c.4 .5 .8 1 1 1.6c.3 .6 .4 1.2 .4 1.8v22.4c0 .7 -.1 1.3 -.4 1.9c-.2 .6 -.6 1.1 -1 1.5c-.5 .5 -1 .8 -1.6 1.1c-.6 .2 -1.2 .4 -1.8 .4H364c-.6 0 -1.3 -.2 -1.8 -.4c-.6 -.3 -1.1 -.6 -1.6 -1.1c-.4 -.4 -.8 -.9 -1 -1.5c-.3 -.6 -.4 -1.2 -.4 -1.9V703.7c0 -.6 .1 -1.2 .4 -1.8c.2 -.6 .6 -1.1 1 -1.6c.5 -.4 1 -.8 1.6 -1c.5 -.3 1.2 -.4 1.8 -.4Zm-189.3 16H359.2" class="g1_340"/>
<path d="M385.9 732.1l24 78.7" class="g2_340"/>
<path d="M386.7 731c0 .3 -.1 .5 -.3 .8c-.2 .2 -.5 .3 -.8 .3c-.3 0 -.6 -.1 -.8 -.3c-.2 -.3 -.4 -.5 -.4 -.8c0 -.4 .2 -.6 .4 -.8c.2 -.3 .5 -.4 .8 -.4c.3 0 .6 .1 .8 .4c.2 .2 .3 .4 .3 .8Z" class="g3_340"/>
<path d="M386.7 731c0 .3 -.1 .5 -.3 .8c-.2 .2 -.5 .3 -.8 .3c-.3 0 -.6 -.1 -.8 -.3c-.2 -.3 -.4 -.5 -.4 -.8c0 -.4 .2 -.6 .4 -.8c.2 -.3 .5 -.4 .8 -.4c.3 0 .6 .1 .8 .4c.2 .2 .3 .4 .3 .8Z" class="g2_340"/>
<path d="M411.4 815.7l-4.2 -5.9l2.7 1l1.7 -2.3l-.2 7.2Z" class="g3_340"/>
<path d="M411.4 815.7l-4.2 -5.9l2.7 1l1.7 -2.3l-.2 7.2Z" class="g2_340"/>
<path d="M368.4 850.2h87.5v31.9H368.4V850.2Z" class="g0_340"/>
<path d="M368.4 850.2h87.5v31.9H368.4V850.2Z" class="g1_340"/>
<path d="M434.4 817.1l31.5 -99.5" class="g2_340"/>
<path d="M435.1 818.2c0 .3 -.1 .5 -.3 .8c-.2 .2 -.5 .3 -.8 .3c-.3 0 -.6 -.1 -.8 -.3c-.2 -.3 -.3 -.5 -.3 -.8c0 -.4 .1 -.6 .3 -.9c.2 -.2 .5 -.3 .8 -.3c.3 0 .6 .1 .8 .3c.2 .3 .3 .5 .3 .9Z" class="g3_340"/>
<path d="M435.1 818.2c0 .3 -.1 .5 -.3 .8c-.2 .2 -.5 .3 -.8 .3c-.3 0 -.6 -.1 -.8 -.3c-.2 -.3 -.3 -.5 -.3 -.8c0 -.4 .1 -.6 .3 -.9c.2 -.2 .5 -.3 .8 -.3c.3 0 .6 .1 .8 .3c.2 .3 .3 .5 .3 .9Z" class="g2_340"/>
<path d="M467.5 712.7l.1 7.3l-1.7 -2.4l-2.7 1l4.3 -5.9Z" class="g3_340"/>
<path d="M467.5 712.7l.1 7.3l-1.7 -2.4l-2.7 1l4.3 -5.9Z" class="g2_340"/>
<path d="M516.4 664.5H620.5c.6 0 1.2 .2 1.8 .4c.6 .3 1.1 .6 1.6 1.1c.4 .4 .8 .9 1 1.5c.2 .6 .4 1.2 .4 1.9v22.4c0 .6 -.2 1.2 -.4 1.8c-.2 .6 -.6 1.1 -1 1.6c-.5 .4 -1 .8 -1.6 1c-.6 .3 -1.2 .4 -1.8 .4H516.4c-.6 0 -1.3 -.1 -1.8 -.4c-.6 -.2 -1.2 -.6 -1.6 -1c-.5 -.5 -.8 -1 -1 -1.6c-.3 -.6 -.4 -1.2 -.4 -1.8V669.4c0 -.7 .1 -1.3 .4 -1.9c.2 -.6 .5 -1.1 1 -1.5c.4 -.5 1 -.8 1.6 -1.1c.5 -.2 1.2 -.4 1.8 -.4Z" class="g0_340"/>
<path d="M516.4 664.5H620.5c.6 0 1.2 .2 1.8 .4c.6 .3 1.1 .6 1.6 1.1c.4 .4 .8 .9 1 1.5c.2 .6 .4 1.2 .4 1.9v22.4c0 .6 -.2 1.2 -.4 1.8c-.2 .6 -.6 1.1 -1 1.6c-.5 .4 -1 .8 -1.6 1c-.6 .3 -1.2 .4 -1.8 .4H516.4c-.6 0 -1.3 -.1 -1.8 -.4c-.6 -.2 -1.2 -.6 -1.6 -1c-.5 -.5 -.8 -1 -1 -1.6c-.3 -.6 -.4 -1.2 -.4 -1.8V669.4c0 -.7 .1 -1.3 .4 -1.9c.2 -.6 .5 -1.1 1 -1.5c.4 -.5 1 -.8 1.6 -1.1c.5 -.2 1.2 -.4 1.8 -.4ZM144.9 680.6H511.6" class="g1_340"/>
<path d="M527.6 818.2H642.2v32H527.6v-32Z" class="g0_340"/>
<path d="M527.6 818.2H642.2v32H527.6v-32Z" class="g1_340"/>
<path d="M540.4 697.7l41.9 113.2" class="g2_340"/>
<path d="M541.2 696.6c0 .3 -.2 .6 -.4 .8c-.2 .2 -.5 .3 -.8 .3c-.3 0 -.6 -.1 -.8 -.3c-.2 -.2 -.3 -.5 -.3 -.8c0 -.3 .1 -.6 .3 -.8c.2 -.2 .5 -.4 .8 -.4c.3 0 .6 .2 .8 .4c.2 .2 .4 .5 .4 .8Z" class="g3_340"/>
<path d="M541.2 696.6c0 .3 -.2 .6 -.4 .8c-.2 .2 -.5 .3 -.8 .3c-.3 0 -.6 -.1 -.8 -.3c-.2 -.2 -.3 -.5 -.3 -.8c0 -.3 .1 -.6 .3 -.8c.2 -.2 .5 -.4 .8 -.4c.3 0 .6 .2 .8 .4c.2 .2 .4 .5 .4 .8Z" class="g2_340"/>
<path d="M584 815.8l-4.5 -5.7l2.8 .8l1.5 -2.4l.2 7.3Z" class="g3_340"/>
<path d="M584 815.8l-4.5 -5.7l2.8 .8l1.5 -2.4l.2 7.3Z" class="g2_340"/>
<path d="M431.1 647.3h74.3c.8 0 1.5 .2 2.1 .5c.7 .2 1.3 .6 1.8 1.1c.5 .6 .9 1.2 1.2 1.8c.3 .7 .4 1.4 .4 2.1v25.7c0 .7 -.1 1.4 -.4 2.1c-.3 .6 -.7 1.2 -1.2 1.8c-.5 .5 -1.1 .9 -1.8 1.1c-.6 .3 -1.3 .5 -2.1 .5H431.1c-.7 0 -1.4 -.2 -2.1 -.5c-.6 -.2 -1.2 -.6 -1.7 -1.1c-.6 -.6 -.9 -1.2 -1.2 -1.8c-.3 -.7 -.4 -1.4 -.4 -2.1V652.8c0 -.7 .1 -1.4 .4 -2.1c.3 -.6 .6 -1.2 1.2 -1.8c.5 -.5 1.1 -.9 1.7 -1.1c.7 -.3 1.4 -.5 2.1 -.5Z" class="g0_340"/>
<path d="M431.1 647.3h74.3c.8 0 1.5 .2 2.1 .5c.7 .2 1.3 .6 1.8 1.1c.5 .6 .9 1.2 1.2 1.8c.3 .7 .4 1.4 .4 2.1v25.7c0 .7 -.1 1.4 -.4 2.1c-.3 .6 -.7 1.2 -1.2 1.8c-.5 .5 -1.1 .9 -1.8 1.1c-.6 .3 -1.3 .5 -2.1 .5H431.1c-.7 0 -1.4 -.2 -2.1 -.5c-.6 -.2 -1.2 -.6 -1.7 -1.1c-.6 -.6 -.9 -1.2 -1.2 -1.8c-.3 -.7 -.4 -1.4 -.4 -2.1V652.8c0 -.7 .1 -1.4 .4 -2.1c.3 -.6 .6 -1.2 1.2 -1.8c.5 -.5 1.1 -.9 1.7 -1.1c.7 -.3 1.4 -.5 2.1 -.5Z" class="g1_340"/>
<path d="M430.5 678.2h75.6c.7 0 1.3 .2 1.9 .4c.5 .2 1.1 .6 1.5 1c.5 .5 .8 1 1.1 1.6c.2 .6 .3 1.2 .3 1.8v22.5c0 .6 -.1 1.2 -.3 1.8c-.3 .6 -.6 1.1 -1.1 1.6c-.4 .4 -1 .7 -1.5 1c-.6 .2 -1.2 .4 -1.9 .4H430.5c-.7 0 -1.3 -.2 -1.9 -.4c-.6 -.3 -1.1 -.6 -1.5 -1c-.5 -.5 -.8 -1 -1.1 -1.6c-.2 -.6 -.3 -1.2 -.3 -1.8V683c0 -.6 .1 -1.2 .3 -1.8c.3 -.6 .6 -1.1 1.1 -1.6c.4 -.4 .9 -.8 1.5 -1c.6 -.2 1.2 -.4 1.9 -.4Z" class="g0_340"/>
<path d="M430.5 678.2h75.6c.7 0 1.3 .2 1.9 .4c.5 .2 1.1 .6 1.5 1c.5 .5 .8 1 1.1 1.6c.2 .6 .3 1.2 .3 1.8v22.5c0 .6 -.1 1.2 -.3 1.8c-.3 .6 -.6 1.1 -1.1 1.6c-.4 .4 -1 .7 -1.5 1c-.6 .2 -1.2 .4 -1.9 .4H430.5c-.7 0 -1.3 -.2 -1.9 -.4c-.6 -.3 -1.1 -.6 -1.5 -1c-.5 -.5 -.8 -1 -1.1 -1.6c-.2 -.6 -.3 -1.2 -.3 -1.8V683c0 -.6 .1 -1.2 .3 -1.8c.3 -.6 .6 -1.1 1.1 -1.6c.4 -.4 .9 -.8 1.5 -1c.6 -.2 1.2 -.4 1.9 -.4Zm211.7 2.4H625.3" class="g1_340"/>
</g>
</svg>