<?xml version="1.0" encoding="UTF-8" standalone="no"?>
<!DOCTYPE svg PUBLIC "-//W3C//DTD SVG 1.1//EN"
"http://www.w3.org/Graphics/SVG/1.1/DTD/svg11.dtd">
<svg viewBox="0 0 714 1017" version="1.1" xmlns="http://www.w3.org/2000/svg" xmlns:xlink="http://www.w3.org/1999/xlink">
<defs>
<clipPath id="c0_77"><path d="M72.2 767.5V630H621V767.5Z"/></clipPath>
<clipPath id="c1_77"><path d="M72.2 767.5V630h550V767.5Z"/></clipPath>
<style type="text/css"><![CDATA[
.g0_77{
fill: #FFF;
}
.g1_77{
fill: #DDD;
}
.g2_77{
fill: none;
stroke: #000;
stroke-width: 1.145;
stroke-miterlimit: 10;
}
.g3_77{
fill: none;
stroke: #000;
stroke-width: 2.291;
stroke-miterlimit: 10;
}
.g4_77{
fill: #000;
}
.g5_77{
fill: none;
stroke: #000;
stroke-width: 0.608;
stroke-miterlimit: 10;
}
]]></style>
</defs>
<path d="M0 1017.7H717.2V-3.7H0V1017.7Z" class="g0_77"/>
<g clip-path="url(#c1_77)">
<path clip-path="url(#c0_77)" d="M72.2 630H621V767.5H72.2V630Z" class="g0_77"/>
<path d="M78.5 658.1h67.7v22.6H78.5V658.1Z" class="g1_77"/>
<path d="M78.5 658.1h67.7v22.6H78.5V658.1Z" class="g2_77"/>
<path d="M146.2 658.1h67.6v22.6H146.2V658.1Z" class="g1_77"/>
<path d="M146.2 658.1h67.6v22.6H146.2V658.1Z" class="g2_77"/>
<path d="M213.8 658.1h67.7v22.6H213.8V658.1Z" class="g1_77"/>
<path d="M213.8 658.1h67.7v22.6H213.8V658.1Z" class="g2_77"/>
<path d="M281.5 658.1h67.7v22.6H281.5V658.1Z" class="g1_77"/>
<path d="M281.5 658.1h67.7v22.6H281.5V658.1Zm67.7 0h67.6v22.6H349.2V658.1Zm67.6 0h67.7v22.6H416.8V658.1Zm67.7 0h67.7v22.6H484.5V658.1Zm67.7 0h67.6v22.6H552.2V658.1ZM78.5 681h67.7v22.6H78.5V681Zm67.7 0h67.6v22.6H146.2V681Zm67.6 0h67.7v22.6H213.8V681Zm67.7 0h67.7v22.6H281.5V681Zm67.7 0h67.6v22.6H349.2V681Zm67.6 0h67.7v22.6H416.8V681Zm67.7 0h67.7v22.6H484.5V681Zm67.7 0h67.6v22.6H552.2V681Z" class="g2_77"/>
<path d="M78.5 704h67.7v22.5H78.5V704Z" class="g1_77"/>
<path d="M78.5 704h67.7v22.5H78.5V704Z" class="g2_77"/>
<path d="M146.2 704h67.6v22.5H146.2V704Z" class="g1_77"/>
<path d="M146.2 704h67.6v22.5H146.2V704Z" class="g2_77"/>
<path d="M213.8 704h67.7v22.5H213.8V704Z" class="g1_77"/>
<path d="M213.8 704h67.7v22.5H213.8V704Z" class="g2_77"/>
<path d="M281.5 704h67.7v22.5H281.5V704Z" class="g1_77"/>
<path d="M281.5 704h67.7v22.5H281.5V704Z" class="g2_77"/>
<path d="M349.2 704h67.6v22.5H349.2V704Z" class="g1_77"/>
<path d="M349.2 704h67.6v22.5H349.2V704Z" class="g2_77"/>
<path d="M416.8 704h67.7v22.5H416.8V704Z" class="g1_77"/>
<path d="M416.8 704h67.7v22.5H416.8V704Z" class="g2_77"/>
<path d="M484.5 704h67.7v22.5H484.5V704Z" class="g1_77"/>
<path d="M484.5 704h67.7v22.5H484.5V704Z" class="g2_77"/>
<path d="M552.2 704h67.6v22.5H552.2V704Z" class="g1_77"/>
<path d="M552.2 704h67.6v22.5H552.2V704ZM112.3 715.6l72.4 28.5M180 715.4l24.2 28.7m51.9 -28.5l-30.2 28.5m97.8 -28.5l-78.3 28.5" class="g2_77"/>
<path d="M78.5 704H349.2v22.9H78.5V704Zm0 -46.2H349.2v22.9H78.5V657.8ZM349.2 704H619.9v22.9H349.2V704Z" class="g3_77"/>
<path d="M88.2 630h3.5v1.2H88.2V630Zm6.9 0h3.5v1.2H95.1V630Zm6.9 0h3.4v1.2H102V630Zm6.9 0h3.4v1.2h-3.4V630Zm6.8 0h3.5v1.2h-3.5V630Zm6.9 0h3.5v1.2h-3.5V630Zm6.9 0h3.4v1.2h-3.4V630Zm6.9 0h3.4v1.2h-3.4V630Zm6.8 0h3.5v1.2h-3.5V630Zm6.9 0h3.5v1.2h-3.5V630Zm6.9 0h3.4v1.2H157V630Zm6.9 0h3.4v1.2h-3.4V630Zm6.8 0h3.5v1.2h-3.5V630Zm6.9 0h3.5v1.2h-3.5V630Zm6.9 0h3.4v1.2h-3.4V630Zm6.9 0h3.4v1.2h-3.4V630Zm6.8 0h3.5v1.2h-3.5V630Zm6.9 0h3.5v1.2h-3.5V630Zm6.9 0h3.4v1.2H212V630Zm6.9 0h3.4v1.2h-3.4V630Zm6.8 0h3.5v1.2h-3.5V630Zm6.9 0h3.5v1.2h-3.5V630Zm6.9 0h3.4v1.2h-3.4V630Zm6.9 0h3.4v1.2h-3.4V630Zm6.8 0h3.5v1.2h-3.5V630Zm6.9 0h3.5v1.2h-3.5V630Zm6.9 0h3.4v1.2H267V630Zm6.9 0h3.4v1.2h-3.4V630Zm6.8 0h3.5v1.2h-3.5V630Zm6.9 0h3.5v1.2h-3.5V630Zm6.9 0h3.4v1.2h-3.4V630Zm6.9 0h3.4v1.2h-3.4V630Zm6.8 0h3.5v1.2h-3.5V630Zm6.9 0h3.5v1.2h-3.5V630Zm6.9 0h3.4v1.2H322V630Zm6.9 0h3.4v1.2h-3.4V630Zm6.8 0h3.5v1.2h-3.5V630Zm6.9 0h2.3c.4 0 .8 .1 1.2 .1l-.2 1.2c-.3 -.1 -.7 -.1 -1 -.1h-2.3V630Zm7 1.3c1.1 .7 2 1.5 2.7 2.5l-.9 .7c-.7 -.9 -1.5 -1.6 -2.4 -2.2l.6 -1Zm4.2 5.9c.2 .7 .3 1.3 .3 2v1.5h-1.2v-1.5c0 -.6 0 -1.2 -.2 -1.8l1.1 -.2Zm.3 6.9v3.5h-1.2v-3.5h1.2Zm0 6.9v3.5h-1.2V651h1.2Zm0 6.9v3.4h-1.2v-3.4h1.2Zm0 6.9v3.4h-1.2v-3.4h1.2Zm0 6.8v3.5h-1.2v-3.5h1.2Zm0 6.9v.8c0 1 -.2 1.9 -.5 2.8l-1.1 -.4c.3 -.7 .4 -1.6 .4 -2.4v-.8h1.2Zm-2.3 6.8c-.8 1 -1.7 1.7 -2.9 2.3l-.5 -1.1c1 -.5 1.9 -1.1 2.6 -1.9l.8 .7Zm-6.4 3.2c-.2 0 -.3 0 -.5 0h-3v-1.2h3c.1 0 .3 0 .4 0l.1 1.2Zm-6.9 0H335v-1.2h3.5v1.2Zm-6.9 0h-3.4v-1.2h3.4v1.2Zm-6.9 0h-3.4v-1.2h3.4v1.2Zm-6.8 0h-3.5v-1.2h3.5v1.2Zm-6.9 0h-3.5v-1.2H311v1.2Zm-6.9 0h-3.4v-1.2h3.4v1.2Zm-6.9 0h-3.4v-1.2h3.4v1.2Zm-6.8 0h-3.5v-1.2h3.5v1.2Zm-6.9 0H280v-1.2h3.5v1.2Zm-6.9 0h-3.4v-1.2h3.4v1.2Zm-6.9 0h-3.4v-1.2h3.4v1.2Zm-6.8 0h-3.5v-1.2h3.5v1.2Zm-6.9 0h-3.5v-1.2H256v1.2Zm-6.9 0h-3.4v-1.2h3.4v1.2Zm-6.9 0h-3.4v-1.2h3.4v1.2Zm-6.8 0h-3.5v-1.2h3.5v1.2Zm-6.9 0H225v-1.2h3.5v1.2Zm-6.9 0h-3.4v-1.2h3.4v1.2Zm-6.9 0h-3.4v-1.2h3.4v1.2Zm-6.8 0h-3.5v-1.2h3.5v1.2Zm-6.9 0h-3.5v-1.2H201v1.2Zm-6.9 0h-3.4v-1.2h3.4v1.2Zm-6.9 0h-3.4v-1.2h3.4v1.2Zm-6.8 0h-3.5v-1.2h3.5v1.2Zm-6.9 0H170v-1.2h3.5v1.2Zm-6.9 0h-3.4v-1.2h3.4v1.2Zm-6.9 0h-3.4v-1.2h3.4v1.2Zm-6.8 0h-3.5v-1.2h3.5v1.2Zm-6.9 0h-3.5v-1.2H146v1.2Zm-6.9 0h-3.4v-1.2h3.4v1.2Zm-6.9 0h-3.4v-1.2h3.4v1.2Zm-6.8 0h-3.5v-1.2h3.5v1.2Zm-6.9 0H115v-1.2h3.5v1.2Zm-6.9 0h-3.4v-1.2h3.4v1.2Zm-6.9 0h-3.4v-1.2h3.4v1.2Zm-6.8 0H94.4v-1.2h3.5v1.2Zm-6.9 0H87.5v-1.2H91v1.2Zm-6.9 0H81.4c-.3 0 -.5 0 -.7 0v-1.2c.3 0 .5 0 .7 0h2.7v1.2Zm-7 -1.1C76 686.9 75 686.1 74.3 685.1l.8 -.7c.7 .8 1.6 1.5 2.5 2l-.5 1Zm-4.5 -5.6c-.3 -.8 -.4 -1.6 -.4 -2.5v-1h1.1v1c0 .8 .1 1.5 .4 2.2l-1.1 .3Zm-.4 -7v-3.4h1.1v3.4H72.2Zm0 -6.8v-3.5h1.1V668H72.2Zm0 -6.9v-3.4h1.1v3.4H72.2Zm0 -6.9v-3.4h1.1v3.4H72.2Zm0 -6.9v-3.4h1.1v3.4H72.2Zm0 -6.8v-1.3c0 -.8 .1 -1.5 .3 -2.3l1.1 .3c-.2 .7 -.3 1.3 -.3 2v1.3H72.2Zm1.9 -6.9c.8 -1 1.7 -1.8 2.8 -2.4l.6 1c-1 .5 -1.8 1.2 -2.5 2.1l-.9 -.7Zm6.3 -3.5c.3 0 .7 -.1 1 -.1h3.4v1.2H81.4c-.3 0 -.6 0 -.9 0l-.1 -1.1Z" class="g4_77"/>
</g>
<path d="M65 867.2H174.6" class="g5_77"/>
</svg>