<?xml version="1.0" encoding="UTF-8" standalone="no"?>
<!DOCTYPE svg PUBLIC "-//W3C//DTD SVG 1.1//EN"
"http://www.w3.org/Graphics/SVG/1.1/DTD/svg11.dtd">
<svg viewBox="0 0 714 1017" version="1.1" xmlns="http://www.w3.org/2000/svg" xmlns:xlink="http://www.w3.org/1999/xlink">
<defs>
<clipPath id="c0_294"><path d="M87.1 333.7V159.5H648.5V333.7Z"/></clipPath>
<clipPath id="c1_294"><path d="M87.1 880V705.8H648.5V880Z"/></clipPath>
<clipPath id="c2_294"><path d="M87.1 333.7V159.5H649.3V333.7Z"/></clipPath>
<clipPath id="c3_294"><path d="M87.1 880V705.8H649.3V880Z"/></clipPath>
<style type="text/css"><![CDATA[
.g0_294{
fill: #FFF;
}
.g1_294{
fill: none;
stroke: #000;
stroke-width: 2.291;
stroke-miterlimit: 10;
}
.g2_294{
fill: none;
stroke: #000;
stroke-width: 1.145;
stroke-miterlimit: 10;
}
.g3_294{
fill: #000;
}
.g4_294{
fill: none;
stroke: #000;
stroke-width: 1.217;
stroke-miterlimit: 10;
}
]]></style>
</defs>
<path d="M0 1017.7H717.2V-3.7H0V1017.7Z" class="g0_294"/>
<g clip-path="url(#c2_294)">
<path clip-path="url(#c0_294)" d="M87.1 159.5H648.5V333.7H87.1V159.5Z" class="g0_294"/>
<path d="M117.4 176.1c0 1 -.1 1.9 -.3 2.8c-.1 1 -.4 1.8 -.8 2.7c-.3 .9 -.8 1.7 -1.3 2.5c-.5 .8 -1.1 1.5 -1.8 2.2c-.6 .6 -1.4 1.2 -2.1 1.7c-.8 .6 -1.6 1 -2.5 1.4c-.9 .3 -1.8 .6 -2.7 .8c-.9 .2 -1.9 .3 -2.8 .3c-.9 0 -1.9 -.1 -2.8 -.3c-.9 -.2 -1.8 -.5 -2.7 -.8c-.8 -.4 -1.7 -.8 -2.5 -1.4c-.7 -.5 -1.5 -1.1 -2.1 -1.7c-.7 -.7 -1.3 -1.4 -1.8 -2.2c-.5 -.8 -1 -1.6 -1.3 -2.5c-.4 -.9 -.7 -1.7 -.8 -2.7c-.2 -.9 -.3 -1.8 -.3 -2.8c0 -.9 .1 -1.8 .3 -2.8c.1 -.9 .4 -1.8 .8 -2.6c.3 -.9 .8 -1.7 1.3 -2.5c.5 -.8 1.1 -1.5 1.8 -2.2c.6 -.7 1.4 -1.2 2.1 -1.8c.8 -.5 1.7 -.9 2.5 -1.3c.9 -.4 1.8 -.6 2.7 -.8c.9 -.2 1.9 -.3 2.8 -.3c.9 0 1.9 .1 2.8 .3c.9 .2 1.8 .4 2.7 .8c.9 .4 1.7 .8 2.5 1.3c.7 .6 1.5 1.1 2.1 1.8c.7 .7 1.3 1.4 1.8 2.2c.5 .8 1 1.6 1.3 2.5c.4 .8 .7 1.7 .8 2.6c.2 1 .3 1.9 .3 2.8Z" class="g1_294"/>
<path d="M117.4 176.1H631.5" class="g2_294"/>
<path d="M637.5 176.1l-8 2.7l2 -2.7l-2 -2.6l8 2.6Z" class="g3_294"/>
<path d="M637.5 176.1l-8 2.7l2 -2.7l-2 -2.6l8 2.6Z" class="g2_294"/>
<path d="M117.4 222c0 .9 -.1 1.8 -.3 2.8c-.1 .9 -.4 1.8 -.8 2.7c-.3 .8 -.8 1.6 -1.3 2.4c-.5 .8 -1.1 1.5 -1.8 2.2c-.6 .7 -1.4 1.3 -2.1 1.8c-.8 .5 -1.6 .9 -2.5 1.3c-.9 .4 -1.8 .6 -2.7 .8c-.9 .2 -1.9 .3 -2.8 .3c-.9 0 -1.9 -.1 -2.8 -.3c-.9 -.2 -1.8 -.4 -2.7 -.8c-.8 -.4 -1.7 -.8 -2.5 -1.3c-.7 -.5 -1.5 -1.1 -2.1 -1.8c-.7 -.7 -1.3 -1.4 -1.8 -2.2c-.5 -.8 -1 -1.6 -1.3 -2.4c-.4 -.9 -.7 -1.8 -.8 -2.7c-.2 -1 -.3 -1.9 -.3 -2.8c0 -1 .1 -1.9 .3 -2.8c.1 -.9 .4 -1.8 .8 -2.7c.3 -.9 .8 -1.7 1.3 -2.5c.5 -.8 1.1 -1.5 1.8 -2.2c.6 -.6 1.4 -1.2 2.1 -1.7c.8 -.6 1.7 -1 2.5 -1.4c.9 -.3 1.8 -.6 2.7 -.8c.9 -.2 1.9 -.3 2.8 -.3c.9 0 1.9 .1 2.8 .3c.9 .2 1.8 .5 2.7 .8c.9 .4 1.7 .8 2.5 1.4c.7 .5 1.5 1.1 2.1 1.7c.7 .7 1.3 1.4 1.8 2.2c.5 .8 1 1.6 1.3 2.5c.4 .9 .7 1.8 .8 2.7c.2 .9 .3 1.8 .3 2.8Z" class="g1_294"/>
<path d="M117.4 222H631.5" class="g2_294"/>
<path d="M637.5 222l-8 2.6l2 -2.6l-2 -2.7l8 2.7Z" class="g3_294"/>
<path d="M637.5 222l-8 2.6l2 -2.6l-2 -2.7l8 2.7Z" class="g2_294"/>
<path d="M117.4 267.8c0 .9 -.1 1.9 -.3 2.8c-.1 .9 -.4 1.8 -.8 2.7c-.3 .9 -.8 1.7 -1.3 2.5c-.5 .7 -1.1 1.5 -1.8 2.1c-.6 .7 -1.4 1.3 -2.1 1.8c-.8 .5 -1.6 1 -2.5 1.3c-.9 .4 -1.8 .7 -2.7 .9c-.9 .1 -1.9 .2 -2.8 .2c-.9 0 -1.9 -.1 -2.8 -.2c-.9 -.2 -1.8 -.5 -2.7 -.9c-.8 -.3 -1.7 -.8 -2.5 -1.3c-.7 -.5 -1.5 -1.1 -2.1 -1.8c-.7 -.6 -1.3 -1.4 -1.8 -2.1c-.5 -.8 -1 -1.6 -1.3 -2.5c-.4 -.9 -.7 -1.8 -.8 -2.7c-.2 -.9 -.3 -1.9 -.3 -2.8c0 -.9 .1 -1.9 .3 -2.8c.1 -.9 .4 -1.8 .8 -2.7c.3 -.8 .8 -1.7 1.3 -2.5c.5 -.7 1.1 -1.5 1.8 -2.1c.6 -.7 1.4 -1.3 2.1 -1.8c.8 -.5 1.7 -1 2.5 -1.3c.9 -.4 1.8 -.7 2.7 -.8c.9 -.2 1.9 -.3 2.8 -.3c.9 0 1.9 .1 2.8 .3c.9 .1 1.8 .4 2.7 .8c.9 .3 1.7 .8 2.5 1.3c.7 .5 1.5 1.1 2.1 1.8c.7 .6 1.3 1.4 1.8 2.1c.5 .8 1 1.7 1.3 2.5c.4 .9 .7 1.8 .8 2.7c.2 .9 .3 1.9 .3 2.8Z" class="g1_294"/>
<path d="M117.4 267.8H631.5" class="g2_294"/>
<path d="M637.5 267.8l-8 2.7l2 -2.7l-2 -2.7l8 2.7Z" class="g3_294"/>
<path d="M637.5 267.8l-8 2.7l2 -2.7l-2 -2.7l8 2.7Z" class="g2_294"/>
<path d="M117.4 313.6c0 1 -.1 1.9 -.3 2.8c-.1 1 -.4 1.8 -.8 2.7c-.3 .9 -.8 1.7 -1.3 2.5c-.5 .8 -1.1 1.5 -1.8 2.2c-.6 .6 -1.4 1.2 -2.1 1.7c-.8 .6 -1.6 1 -2.5 1.4c-.9 .3 -1.8 .6 -2.7 .8c-.9 .2 -1.9 .3 -2.8 .3c-.9 0 -1.9 -.1 -2.8 -.3c-.9 -.2 -1.8 -.5 -2.7 -.8c-.8 -.4 -1.7 -.8 -2.5 -1.4c-.7 -.5 -1.5 -1.1 -2.1 -1.7c-.7 -.7 -1.3 -1.4 -1.8 -2.2c-.5 -.8 -1 -1.6 -1.3 -2.5c-.4 -.9 -.7 -1.7 -.8 -2.7c-.2 -.9 -.3 -1.8 -.3 -2.8c0 -.9 .1 -1.8 .3 -2.8c.1 -.9 .4 -1.8 .8 -2.6c.3 -.9 .8 -1.7 1.3 -2.5c.5 -.8 1.1 -1.5 1.8 -2.2c.6 -.7 1.4 -1.2 2.1 -1.8c.8 -.5 1.7 -.9 2.5 -1.3c.9 -.4 1.8 -.6 2.7 -.8c.9 -.2 1.9 -.3 2.8 -.3c.9 0 1.9 .1 2.8 .3c.9 .2 1.8 .4 2.7 .8c.9 .4 1.7 .8 2.5 1.3c.7 .6 1.5 1.1 2.1 1.8c.7 .7 1.3 1.4 1.8 2.2c.5 .8 1 1.6 1.3 2.5c.4 .8 .7 1.7 .8 2.6c.2 1 .3 1.9 .3 2.8Z" class="g1_294"/>
<path d="M117.4 313.6H631.5" class="g2_294"/>
<path d="M637.5 313.6l-8 2.7l2 -2.7l-2 -2.6l8 2.6Z" class="g3_294"/>
<path d="M637.5 313.6l-8 2.7l2 -2.7l-2 -2.6l8 2.6Z" class="g2_294"/>
<path d="M134 332v-1.2h1.2V332M134 328.5v-1.1h1.2v1.1M134 325.1V324l1.2 -.1v1.2M134 321.7v-1.2h1.2v1.2M134 318.2v-1.1h1.1v1.1M134 314.8v-1.2h1.1v1.2M134 311.3v-1.1h1.1v1.1M134 307.9v-1.1h1.1v1.1M134 304.5v-1.2h1.1v1.2M134 301v-1.1h1.1V301m-1.2 -3.4v-1.1l1.2 -.1v1.2m-1.2 -3.4V293h1.2v1.2m-1.2 -3.5v-1.1h1.2v1.1m-1.2 -3.4v-1.2h1.2v1.2m-1.2 -3.5v-1.1h1.2v1.1m-1.2 -3.4v-1.1H135v1.1M133.9 277v-1.2H135V277m-1.1 -3.5v-1.1H135v1.1m-1.1 -3.4V269l1.1 -.1v1.2m-1.1 -3.4v-1.2H135v1.2m-1.1 -3.5v-1.1H135v1.1m-1.2 -3.4v-1.2H135v1.2m-1.2 -3.5v-1.1H135v1.1m-1.2 -3.4v-1.1H135v1.1m-1.2 -3.4v-1.2H135v1.2M133.8 246v-1.1H135V246m-1.2 -3.4v-1.1l1.1 -.1v1.2m-1.1 -3.4V238h1.1v1.2m-1.1 -3.5v-1.1h1.1v1.1m-1.1 -3.4v-1.2h1.1v1.2m-1.1 -3.5v-1.1h1.1v1.1m-1.1 -3.4v-1.1h1.1v1.1M133.7 222v-1.2h1.2V222m-1.2 -3.5v-1.1h1.2v1.1m-1.2 -3.4V214l1.2 -.1v1.2m-1.2 -3.4v-1.2h1.2v1.2m-1.2 -3.5v-1.1h1.2v1.1m-1.2 -3.4v-1.2h1.1v1.2m-1.1 -3.5v-1.1h1.1v1.1m-1.1 -3.4v-1.1h1.1v1.1m-1.1 -3.4v-1.2h1.1v1.2M133.7 191v-1.1h1.1V191m-1.1 -3.4v-1.1l1.1 -.1v1.2m-1.2 -3.4V183h1.2v1.2m-1.2 -3.5v-1.1h1.2v1.1m-1.2 -3.4v-1.2h1.2v1.2m-1.2 -3.5v-1.1h1.2v1.1m-1.2 -3.4v-1.1h1.2v1.1M133.6 167v-1.2h1.1V167m-1.1 -3.5v-1.1h1.1v1.1m-1.1 -3.4v0h1.1Z" class="g3_294"/>
<path d="M288.7 332v-1.2h1.2V332m-1.2 -3.5v-1.1h1.2v1.1m-1.2 -3.4V324l1.2 -.1v1.2m-1.2 -3.4v-1.2h1.1v1.2m-1.1 -3.5v-1.1h1.1v1.1m-1.1 -3.4v-1.2h1.1v1.2m-1.1 -3.5v-1.1h1.1v1.1m-1.1 -3.4v-1.1h1.1v1.1m-1.1 -3.4v-1.2h1.1v1.2M288.6 301v-1.1h1.2V301m-1.2 -3.4v-1.1l1.2 -.1v1.2m-1.2 -3.4V293h1.2v1.2m-1.2 -3.5v-1.1h1.2v1.1m-1.2 -3.4v-1.2h1.2v1.2m-1.2 -3.5v-1.1h1.1v1.1m-1.1 -3.4v-1.1h1.1v1.1M288.6 277v-1.2h1.1V277m-1.1 -3.5v-1.1h1.1v1.1m-1.1 -3.4V269l1.1 -.1v1.2m-1.1 -3.4l-.1 -1.2h1.2v1.2m-1.2 -3.5v-1.1h1.2v1.1m-1.2 -3.4v-1.2h1.2v1.2m-1.2 -3.5v-1.1h1.2v1.1m-1.2 -3.4v-1.1h1.2v1.1m-1.2 -3.4v-1.2h1.1l.1 1.2M288.5 246v-1.1h1.1V246m-1.1 -3.4v-1.1l1.1 -.1v1.2m-1.1 -3.4V238h1.1v1.2m-1.1 -3.5v-1.1h1.1v1.1m-1.1 -3.4v-1.2h1.1v1.2m-1.1 -3.5l-.1 -1.1h1.2v1.1m-1.2 -3.4v-1.1h1.2v1.1M288.4 222v-1.2h1.2V222m-1.2 -3.5v-1.1h1.2v1.1m-1.2 -3.4V214l1.2 -.1v1.2m-1.2 -3.4v-1.2h1.1l.1 1.2m-1.2 -3.5v-1.1h1.1v1.1m-1.1 -3.4v-1.2h1.1v1.2m-1.1 -3.5v-1.1h1.1v1.1m-1.1 -3.4v-1.1h1.1v1.1m-1.1 -3.4v-1.2h1.1v1.2M288.4 191l-.1 -1.1h1.2V191m-1.2 -3.4v-1.1l1.2 -.1v1.2m-1.2 -3.4V183h1.2v1.2m-1.2 -3.5v-1.1h1.2v1.1m-1.2 -3.4v-1.2h1.2v1.2m-1.2 -3.5v-1.1h1.1v1.1m-1.1 -3.4v-1.1h1.1v1.1M288.3 167v-1.2h1.1V167m-1.1 -3.5v-1.1h1.1v1.1Z" class="g3_294"/>
<path d="M237.2 332v-1.2h1.1V332m-1.1 -3.5v-1.1h1.1v1.1m-1.2 -3.4V324l1.2 -.1v1.2m-1.2 -3.4v-1.2h1.2v1.2m-1.2 -3.5v-1.1h1.2v1.1m-1.2 -3.4v-1.2h1.2v1.2m-1.2 -3.5v-1.1h1.2v1.1m-1.2 -3.4v-1.1h1.1v1.1m-1.1 -3.4v-1.2h1.1v1.2M237.1 301v-1.1h1.1V301m-1.1 -3.4v-1.1l1.1 -.1v1.2m-1.1 -3.4V293h1.1v1.2m-1.1 -3.5v-1.1h1.1v1.1M237 287.3v-1.2h1.2v1.2M237 283.8v-1.1h1.2v1.1M237 280.4v-1.1h1.2v1.1M237 277v-1.2h1.2V277M237 273.5v-1.1h1.2v1.1M237 270.1V269l1.1 -.1v1.2M237 266.7v-1.2h1.1v1.2M237 263.2v-1.1h1.1v1.1M237 259.8v-1.2h1.1v1.2M237 256.3v-1.1h1.1v1.1M237 252.9l-.1 -1.1h1.2v1.1m-1.2 -3.4v-1.2h1.2v1.2M236.9 246v-1.1h1.2V246m-1.2 -3.4v-1.1l1.2 -.1v1.2m-1.2 -3.4V238h1.2v1.2m-1.2 -3.5v-1.1H238l.1 1.1m-1.2 -3.4v-1.2H238v1.2m-1.1 -3.5v-1.1H238v1.1m-1.1 -3.4v-1.1H238v1.1M236.9 222v-1.2H238V222m-1.1 -3.5v-1.1H238v1.1m-1.1 -3.4l-.1 -1.1l1.2 -.1v1.2m-1.2 -3.4v-1.2H238v1.2m-1.2 -3.5v-1.1H238v1.1m-1.2 -3.4v-1.2H238v1.2m-1.2 -3.5v-1.1H238v1.1m-1.2 -3.4v-1.1h1.1l.1 1.1m-1.2 -3.4v-1.2h1.1v1.2M236.8 191v-1.1h1.1V191m-1.1 -3.4v-1.1l1.1 -.1v1.2m-1.1 -3.4V183h1.1v1.2m-1.1 -3.5v-1.1h1.1v1.1m-1.1 -3.4l-.1 -1.2h1.2v1.2m-1.2 -3.5v-1.1h1.2v1.1m-1.2 -3.4v-1.1h1.2v1.1M236.7 167v-1.2h1.2V167m-1.2 -3.5v-1.1h1.2v1.1Z" class="g3_294"/>
<path d="M185.6 332v-1.2h1.1V332m-1.1 -3.5v-1.1h1.1v1.1m-1.1 -3.4V324l1.1 -.1v1.2m-1.1 -3.4v-1.2h1.1v1.2m-1.1 -3.5v-1.1h1.1v1.1m-1.1 -3.4v-1.2h1.1v1.2m-1.2 -3.5v-1.1h1.2v1.1m-1.2 -3.4v-1.1h1.2v1.1m-1.2 -3.4v-1.2h1.2v1.2M185.5 301v-1.1h1.2V301m-1.2 -3.4v-1.1l1.2 -.1v1.2m-1.2 -3.4V293h1.1v1.2m-1.1 -3.5v-1.1h1.1v1.1m-1.1 -3.4v-1.2h1.1v1.2m-1.1 -3.5v-1.1h1.1v1.1m-1.1 -3.4v-1.1h1.1v1.1M185.5 277v-1.2h1.1V277m-1.2 -3.5v-1.1h1.2v1.1m-1.2 -3.4V269l1.2 -.1v1.2m-1.2 -3.4v-1.2h1.2v1.2m-1.2 -3.5v-1.1h1.2v1.1m-1.2 -3.4v-1.2h1.2v1.2m-1.2 -3.5v-1.1h1.1v1.1m-1.1 -3.4v-1.1h1.1v1.1m-1.1 -3.4v-1.2h1.1v1.2M185.4 246v-1.1h1.1V246m-1.1 -3.4v-1.1l1.1 -.1v1.2m-1.1 -3.4V238h1.1v1.2m-1.2 -3.5v-1.1h1.2v1.1m-1.2 -3.4v-1.2h1.2v1.2m-1.2 -3.5v-1.1h1.2v1.1m-1.2 -3.4v-1.1h1.2v1.1M185.3 222v-1.2h1.2V222m-1.2 -3.5v-1.1h1.1v1.1m-1.1 -3.4V214l1.1 -.1v1.2m-1.1 -3.4v-1.2h1.1v1.2m-1.1 -3.5v-1.1h1.1v1.1m-1.1 -3.4v-1.2h1.1v1.2m-1.1 -3.5l-.1 -1.1h1.2v1.1m-1.2 -3.4v-1.1h1.2v1.1m-1.2 -3.4v-1.2h1.2v1.2M185.2 191v-1.1h1.2V191m-1.2 -3.4v-1.1l1.2 -.1v1.2m-1.2 -3.4V183h1.1l.1 1.2m-1.2 -3.5v-1.1h1.1v1.1m-1.1 -3.4v-1.2h1.1v1.2m-1.1 -3.5v-1.1h1.1v1.1m-1.1 -3.4v-1.1h1.1v1.1M185.2 167v-1.2h1.1V167m-1.1 -3.5l-.1 -1.1h1.2v1.1Z" class="g3_294"/>
<path d="M340.3 332v-1.2h1.1V332m-1.1 -3.5v-1.1h1.1v1.1m-1.1 -3.4V324l1.1 -.1v1.2m-1.1 -3.4v-1.2h1.1v1.2m-1.1 -3.5l-.1 -1.1h1.2v1.1m-1.2 -3.4v-1.2h1.2v1.2m-1.2 -3.5v-1.1h1.2v1.1m-1.2 -3.4v-1.1h1.2v1.1m-1.2 -3.4v-1.2h1.2v1.2M340.2 301v-1.1h1.1l.1 1.1m-1.2 -3.4v-1.1l1.1 -.1v1.2m-1.1 -3.4V293h1.1v1.2m-1.1 -3.5v-1.1h1.1v1.1m-1.1 -3.4v-1.2h1.1v1.2m-1.1 -3.5v-1.1h1.1v1.1m-1.1 -3.4l-.1 -1.1h1.2v1.1M340.1 277v-1.2h1.2V277m-1.2 -3.5v-1.1h1.2v1.1m-1.2 -3.4V269l1.2 -.1v1.2m-1.2 -3.4v-1.2h1.2v1.2m-1.2 -3.5v-1.1h1.1l.1 1.1m-1.2 -3.4v-1.2h1.1v1.2m-1.1 -3.5v-1.1h1.1v1.1m-1.1 -3.4v-1.1h1.1v1.1m-1.1 -3.4v-1.2h1.1v1.2M340.1 246v-1.1h1.1V246m-1.1 -3.4l-.1 -1.1l1.2 -.1v1.2M340 239.2V238h1.2v1.2M340 235.7v-1.1h1.2v1.1M340 232.3v-1.2h1.2v1.2M340 228.8v-1.1h1.2v1.1M340 225.4v-1.1h1.1l.1 1.1M340 222v-1.2h1.1V222M340 218.5v-1.1h1.1v1.1M340 215.1V214l1.1 -.1v1.2M340 211.7v-1.2h1.1v1.2M340 208.2v-1.1h1.1v1.1m-1.2 -3.4v-1.2h1.2v1.2m-1.2 -3.5v-1.1h1.2v1.1m-1.2 -3.4v-1.1h1.2v1.1m-1.2 -3.4v-1.2h1.2v1.2M339.9 191v-1.1h1.2V191m-1.2 -3.4v-1.1l1.1 -.1v1.2m-1.1 -3.4V183H341v1.2m-1.1 -3.5v-1.1H341v1.1m-1.1 -3.4v-1.2H341v1.2m-1.1 -3.5v-1.1H341v1.1m-1.1 -3.4v-1.1H341v1.1M339.8 167v-1.2H341V167m-1.2 -3.5v-1.1H341v1.1Z" class="g3_294"/>
<path d="M391.9 332l-.1 -1.2H393V332m-1.2 -3.5v-1.1H393v1.1m-1.2 -3.4V324l1.2 -.1v1.2m-1.2 -3.4v-1.2H393v1.2m-1.2 -3.5v-1.1H393v1.1m-1.2 -3.4v-1.2h1.1l.1 1.2m-1.2 -3.5v-1.1h1.1v1.1m-1.1 -3.4v-1.1h1.1v1.1m-1.1 -3.4v-1.2h1.1v1.2M391.8 301v-1.1h1.1V301m-1.1 -3.4v-1.1l1.1 -.1v1.2m-1.1 -3.4l-.1 -1.2h1.2v1.2m-1.2 -3.5v-1.1h1.2v1.1m-1.2 -3.4v-1.2h1.2v1.2m-1.2 -3.5v-1.1h1.2v1.1m-1.2 -3.4v-1.1h1.2v1.1M391.7 277v-1.2h1.1l.1 1.2m-1.2 -3.5v-1.1h1.1v1.1m-1.1 -3.4V269l1.1 -.1v1.2m-1.1 -3.4v-1.2h1.1v1.2m-1.1 -3.5v-1.1h1.1v1.1m-1.1 -3.4v-1.2h1.1v1.2m-1.2 -3.5v-1.1h1.2v1.1m-1.2 -3.4v-1.1h1.2v1.1m-1.2 -3.4v-1.2h1.2v1.2M391.6 246v-1.1h1.2V246m-1.2 -3.4v-1.1l1.2 -.1v1.2m-1.2 -3.4V238h1.1v1.2m-1.1 -3.5v-1.1h1.1v1.1m-1.1 -3.4v-1.2h1.1v1.2m-1.1 -3.5v-1.1h1.1v1.1m-1.1 -3.4v-1.1h1.1v1.1M391.6 222v-1.2h1.1V222m-1.2 -3.5v-1.1h1.2v1.1m-1.2 -3.4V214l1.2 -.1v1.2m-1.2 -3.4v-1.2h1.2v1.2m-1.2 -3.5v-1.1h1.2v1.1m-1.2 -3.4v-1.2h1.2v1.2m-1.2 -3.5v-1.1h1.1v1.1m-1.1 -3.4v-1.1h1.1v1.1m-1.1 -3.4v-1.2h1.1v1.2M391.5 191v-1.1h1.1V191m-1.1 -3.4v-1.1l1.1 -.1v1.2m-1.1 -3.4V183h1.1v1.2m-1.2 -3.5v-1.1h1.2v1.1m-1.2 -3.4v-1.2h1.2v1.2m-1.2 -3.5v-1.1h1.2v1.1m-1.2 -3.4v-1.1h1.2v1.1M391.4 167v-1.2h1.2V167m-1.2 -3.5v-1.1h1.1v1.1Z" class="g3_294"/>
<path d="M443.4 332v-1.2h1.2V332m-1.2 -3.5v-1.1h1.2v1.1m-1.2 -3.4V324l1.1 -.1v1.2m-1.1 -3.4v-1.2h1.1v1.2m-1.1 -3.5v-1.1h1.1v1.1m-1.1 -3.4v-1.2h1.1v1.2m-1.1 -3.5v-1.1h1.1v1.1m-1.1 -3.4v-1.1h1.1v1.1m-1.1 -3.4v-1.2h1.1v1.2M443.3 301v-1.1h1.2V301m-1.2 -3.4v-1.1l1.2 -.1v1.2m-1.2 -3.4V293h1.2v1.2m-1.2 -3.5v-1.1h1.2v1.1m-1.2 -3.4v-1.2h1.2v1.2m-1.2 -3.5v-1.1h1.2v1.1m-1.2 -3.4v-1.1h1.1l.1 1.1M443.3 277v-1.2h1.1V277m-1.1 -3.5v-1.1h1.1v1.1m-1.1 -3.4V269l1.1 -.1v1.2m-1.1 -3.4v-1.2h1.1v1.2m-1.1 -3.5v-1.1h1.1v1.1m-1.1 -3.4v-1.2h1.1v1.2m-1.1 -3.5v-1.1h1.1v1.1m-1.2 -3.4v-1.1h1.2v1.1m-1.2 -3.4v-1.2h1.2v1.2M443.2 246v-1.1h1.2V246m-1.2 -3.4v-1.1l1.2 -.1v1.2m-1.2 -3.4V238h1.2v1.2m-1.2 -3.5v-1.1h1.2v1.1m-1.2 -3.4v-1.2h1.1v1.2m-1.1 -3.5v-1.1h1.1v1.1m-1.1 -3.4v-1.1h1.1v1.1M443.2 222v-1.2h1.1V222m-1.1 -3.5v-1.1h1.1v1.1m-1.1 -3.4V214l1.1 -.1v1.2m-1.1 -3.4v-1.2h1.1v1.2m-1.2 -3.5v-1.1h1.2v1.1m-1.2 -3.4v-1.2h1.2v1.2m-1.2 -3.5v-1.1h1.2v1.1m-1.2 -3.4v-1.1h1.2v1.1m-1.2 -3.4v-1.2h1.2v1.2M443.1 191v-1.1h1.2V191m-1.2 -3.4v-1.1l1.1 -.1l.1 1.2m-1.2 -3.4V183h1.1v1.2m-1.1 -3.5v-1.1h1.1v1.1m-1.1 -3.4v-1.2h1.1v1.2m-1.1 -3.5v-1.1h1.1v1.1m-1.1 -3.4v-1.1h1.1v1.1M443.1 167v-1.2h1.1V167m-1.1 -3.5v-1.1h1.1v1.1Z" class="g3_294"/>
<path d="M495 332v-1.2h1.1V332M495 328.5v-1.1h1.1v1.1M495 325.1V324l1.1 -.1v1.2m-1.2 -3.4v-1.2h1.2v1.2m-1.2 -3.5v-1.1h1.2v1.1m-1.2 -3.4v-1.2h1.2v1.2m-1.2 -3.5v-1.1h1.2v1.1m-1.2 -3.4v-1.1H496v1.1m-1.1 -3.4v-1.2H496v1.2M494.9 301v-1.1H496V301m-1.1 -3.4v-1.1l1.1 -.1v1.2m-1.1 -3.4l-.1 -1.2H496v1.2m-1.2 -3.5v-1.1H496v1.1m-1.2 -3.4v-1.2H496v1.2m-1.2 -3.5v-1.1H496v1.1m-1.2 -3.4v-1.1h1.1l.1 1.1M494.8 277v-1.2h1.1V277m-1.1 -3.5v-1.1h1.1v1.1m-1.1 -3.4V269l1.1 -.1v1.2m-1.1 -3.4v-1.2h1.1v1.2m-1.2 -3.5v-1.1h1.2v1.1m-1.2 -3.4v-1.2h1.2v1.2m-1.2 -3.5v-1.1h1.2v1.1m-1.2 -3.4v-1.1h1.2v1.1m-1.2 -3.4v-1.2h1.1v1.2M494.7 246v-1.1h1.1V246m-1.1 -3.4v-1.1l1.1 -.1v1.2m-1.1 -3.4V238h1.1v1.2m-1.1 -3.5v-1.1h1.1v1.1m-1.2 -3.4v-1.2h1.2v1.2m-1.2 -3.5v-1.1h1.2v1.1m-1.2 -3.4v-1.1h1.2v1.1M494.6 222v-1.2h1.2V222m-1.2 -3.5v-1.1h1.1v1.1m-1.1 -3.4V214l1.1 -.1v1.2m-1.1 -3.4v-1.2h1.1v1.2m-1.1 -3.5v-1.1h1.1v1.1m-1.1 -3.4l-.1 -1.2h1.2v1.2m-1.2 -3.5v-1.1h1.2v1.1m-1.2 -3.4v-1.1h1.2v1.1m-1.2 -3.4v-1.2h1.2v1.2M494.5 191v-1.1h1.1l.1 1.1m-1.2 -3.4v-1.1l1.1 -.1v1.2m-1.1 -3.4V183h1.1v1.2m-1.1 -3.5v-1.1h1.1v1.1m-1.1 -3.4v-1.2h1.1v1.2m-1.2 -3.5v-1.1h1.2v1.1m-1.2 -3.4v-1.1h1.2v1.1M494.4 167v-1.2h1.2V167m-1.2 -3.5v-1.1h1.2v1.1Z" class="g3_294"/>
<path d="M546.5 332v-1.2h1.2V332m-1.2 -3.5v-1.1h1.2v1.1m-1.2 -3.4V324l1.2 -.1v1.2m-1.2 -3.4v-1.2h1.1l.1 1.2m-1.2 -3.5v-1.1h1.1v1.1m-1.1 -3.4v-1.2h1.1v1.2m-1.1 -3.5v-1.1h1.1v1.1m-1.1 -3.4v-1.1h1.1v1.1m-1.2 -3.4v-1.2h1.2v1.2M546.4 301v-1.1h1.2V301m-1.2 -3.4v-1.1l1.2 -.1v1.2m-1.2 -3.4V293h1.2v1.2m-1.2 -3.5v-1.1h1.1v1.1m-1.1 -3.4v-1.2h1.1v1.2m-1.1 -3.5v-1.1h1.1v1.1m-1.1 -3.4v-1.1h1.1v1.1M546.4 277v-1.2h1.1V277m-1.2 -3.5v-1.1h1.2v1.1m-1.2 -3.4V269l1.2 -.1v1.2m-1.2 -3.4v-1.2h1.2v1.2m-1.2 -3.5v-1.1h1.2v1.1m-1.2 -3.4v-1.2h1.1v1.2m-1.1 -3.5v-1.1h1.1v1.1m-1.1 -3.4v-1.1h1.1v1.1m-1.1 -3.4v-1.2h1.1v1.2M546.3 246l-.1 -1.1h1.2V246m-1.2 -3.4v-1.1l1.2 -.1v1.2m-1.2 -3.4V238h1.2v1.2m-1.2 -3.5v-1.1h1.2v1.1m-1.2 -3.4v-1.2h1.1l.1 1.2m-1.2 -3.5v-1.1h1.1v1.1m-1.1 -3.4v-1.1h1.1v1.1M546.2 222v-1.2h1.1V222m-1.1 -3.5v-1.1h1.1v1.1m-1.2 -3.4V214l1.2 -.1v1.2m-1.2 -3.4v-1.2h1.2v1.2m-1.2 -3.5v-1.1h1.2v1.1m-1.2 -3.4v-1.2h1.2v1.2m-1.2 -3.5v-1.1h1.1v1.1m-1.1 -3.4v-1.1h1.1v1.1m-1.1 -3.4v-1.2h1.1v1.2M546.1 191v-1.1h1.1V191m-1.1 -3.4v-1.1l1.1 -.1v1.2M546 184.2V183h1.2v1.2M546 180.7v-1.1h1.2v1.1M546 177.3v-1.2h1.2v1.2M546 173.8v-1.1h1.2v1.1M546 170.4v-1.1h1.1v1.1M546 167v-1.2h1.1V167M546 163.5v-1.1h1.1v1.1Z" class="g3_294"/>
<path d="M598.1 332v-1.2h1.1V332m-1.1 -3.5v-1.1h1.1v1.1m-1.1 -3.4V324l1.1 -.1v1.2m-1.1 -3.4v-1.2h1.1v1.2m-1.1 -3.5v-1.1h1.1v1.1M598 314.8v-1.2h1.2v1.2M598 311.3v-1.1h1.2v1.1M598 307.9v-1.1h1.2v1.1M598 304.5v-1.2h1.2v1.2M598 301v-1.1h1.1V301M598 297.6v-1.1l1.1 -.1v1.2M598 294.2V293h1.1v1.2M598 290.7v-1.1h1.1v1.1M598 287.3l-.1 -1.2h1.2v1.2m-1.2 -3.5v-1.1h1.2v1.1m-1.2 -3.4v-1.1h1.2v1.1M597.9 277v-1.2h1.2V277m-1.2 -3.5v-1.1H599l.1 1.1m-1.2 -3.4V269l1.1 -.1v1.2m-1.1 -3.4v-1.2H599v1.2m-1.1 -3.5v-1.1H599v1.1m-1.1 -3.4v-1.2H599v1.2m-1.2 -3.5v-1.1H599v1.1m-1.2 -3.4v-1.1H599v1.1m-1.2 -3.4v-1.2H599v1.2M597.8 246v-1.1H599V246m-1.2 -3.4v-1.1l1.1 -.1v1.2m-1.1 -3.4V238h1.1v1.2m-1.1 -3.5v-1.1h1.1v1.1m-1.1 -3.4v-1.2h1.1v1.2m-1.1 -3.5v-1.1h1.1v1.1m-1.2 -3.4v-1.1h1.2v1.1M597.7 222v-1.2h1.2V222m-1.2 -3.5v-1.1h1.2v1.1m-1.2 -3.4V214l1.2 -.1v1.2m-1.2 -3.4v-1.2h1.1v1.2m-1.1 -3.5v-1.1h1.1v1.1m-1.1 -3.4v-1.2h1.1v1.2m-1.1 -3.5v-1.1h1.1v1.1m-1.1 -3.4l-.1 -1.1h1.2v1.1m-1.2 -3.4v-1.2h1.2v1.2M597.6 191v-1.1h1.2V191m-1.2 -3.4v-1.1l1.2 -.1v1.2m-1.2 -3.4V183h1.1l.1 1.2m-1.2 -3.5v-1.1h1.1v1.1m-1.1 -3.4v-1.2h1.1v1.2m-1.1 -3.5v-1.1h1.1v1.1m-1.1 -3.4v-1.1h1.1v1.1M597.6 167l-.1 -1.2h1.2V167m-1.2 -3.5v-1.1h1.2v1.1Z" class="g3_294"/>
<path d="M146.1 169.8H275.6c.7 0 1.4 .2 2.1 .5c.7 .3 1.4 .7 1.9 1.2c.5 .6 1 1.2 1.2 1.9c.3 .7 .5 1.4 .5 2.2c0 .7 -.2 1.5 -.5 2.2c-.2 .7 -.7 1.3 -1.2 1.8c-.5 .6 -1.2 1 -1.9 1.3c-.7 .2 -1.4 .4 -2.1 .4H146.1c-.8 0 -1.5 -.2 -2.2 -.4c-.7 -.3 -1.3 -.7 -1.9 -1.3c-.5 -.5 -.9 -1.1 -1.2 -1.8c-.3 -.7 -.5 -1.5 -.5 -2.2c0 -.8 .2 -1.5 .5 -2.2c.3 -.7 .7 -1.3 1.2 -1.9c.6 -.5 1.2 -.9 1.9 -1.2c.7 -.3 1.4 -.5 2.2 -.5Z" class="g0_294"/>
<path d="M146.1 169.8H275.6c.7 0 1.4 .2 2.1 .5c.7 .3 1.4 .7 1.9 1.2c.5 .6 1 1.2 1.2 1.9c.3 .7 .5 1.4 .5 2.2c0 .7 -.2 1.5 -.5 2.2c-.2 .7 -.7 1.3 -1.2 1.8c-.5 .6 -1.2 1 -1.9 1.3c-.7 .2 -1.4 .4 -2.1 .4H146.1c-.8 0 -1.5 -.2 -2.2 -.4c-.7 -.3 -1.3 -.7 -1.9 -1.3c-.5 -.5 -.9 -1.1 -1.2 -1.8c-.3 -.7 -.5 -1.5 -.5 -2.2c0 -.8 .2 -1.5 .5 -2.2c.3 -.7 .7 -1.3 1.2 -1.9c.6 -.5 1.2 -.9 1.9 -1.2c.7 -.3 1.4 -.5 2.2 -.5Z" class="g2_294"/>
<path d="M195 161.8h33V187H195V161.8Z" class="g0_294"/>
<path d="M301.9 215.7H430.2c.8 0 1.5 .1 2.2 .4c.7 .3 1.4 .7 1.9 1.2c.5 .6 .9 1.2 1.2 1.9c.3 .7 .5 1.4 .5 2.2c0 .8 -.2 1.5 -.5 2.2c-.3 .7 -.7 1.3 -1.2 1.8c-.5 .6 -1.2 1 -1.9 1.3c-.7 .3 -1.4 .4 -2.2 .4H301.9c-.8 0 -1.5 -.1 -2.2 -.4c-.7 -.3 -1.3 -.7 -1.8 -1.3c-.6 -.5 -1 -1.1 -1.3 -1.8c-.3 -.7 -.4 -1.4 -.4 -2.2c0 -.8 .1 -1.5 .4 -2.2c.3 -.7 .7 -1.3 1.3 -1.9c.5 -.5 1.1 -.9 1.8 -1.2c.7 -.3 1.4 -.4 2.2 -.4Z" class="g0_294"/>
<path d="M301.9 215.7H430.2c.8 0 1.5 .1 2.2 .4c.7 .3 1.4 .7 1.9 1.2c.5 .6 .9 1.2 1.2 1.9c.3 .7 .5 1.4 .5 2.2c0 .8 -.2 1.5 -.5 2.2c-.3 .7 -.7 1.3 -1.2 1.8c-.5 .6 -1.2 1 -1.9 1.3c-.7 .3 -1.4 .4 -2.2 .4H301.9c-.8 0 -1.5 -.1 -2.2 -.4c-.7 -.3 -1.3 -.7 -1.8 -1.3c-.6 -.5 -1 -1.1 -1.3 -1.8c-.3 -.7 -.4 -1.4 -.4 -2.2c0 -.8 .1 -1.5 .4 -2.2c.3 -.7 .7 -1.3 1.3 -1.9c.5 -.5 1.1 -.9 1.8 -1.2c.7 -.3 1.4 -.4 2.2 -.4Z" class="g2_294"/>
<path d="M351 207.6h33v25.3H351V207.6Z" class="g0_294"/>
<path d="M197.6 261.5H482.9c.8 0 1.5 .1 2.2 .4c.7 .3 1.4 .7 1.9 1.3c.5 .5 .9 1.1 1.2 1.8c.3 .7 .5 1.5 .5 2.2c0 .8 -.2 1.5 -.5 2.2c-.3 .7 -.7 1.3 -1.2 1.9c-.5 .5 -1.2 .9 -1.9 1.2c-.7 .3 -1.4 .5 -2.2 .5H197.6c-.7 0 -1.5 -.2 -2.2 -.5c-.7 -.3 -1.3 -.7 -1.8 -1.2c-.6 -.6 -1 -1.2 -1.3 -1.9c-.3 -.7 -.4 -1.4 -.4 -2.2c0 -.7 .1 -1.5 .4 -2.2c.3 -.7 .7 -1.3 1.3 -1.8c.5 -.6 1.1 -1 1.8 -1.3c.7 -.3 1.5 -.4 2.2 -.4Z" class="g0_294"/>
<path d="M197.6 261.5H482.9c.8 0 1.5 .1 2.2 .4c.7 .3 1.4 .7 1.9 1.3c.5 .5 .9 1.1 1.2 1.8c.3 .7 .5 1.5 .5 2.2c0 .8 -.2 1.5 -.5 2.2c-.3 .7 -.7 1.3 -1.2 1.9c-.5 .5 -1.2 .9 -1.9 1.2c-.7 .3 -1.4 .5 -2.2 .5H197.6c-.7 0 -1.5 -.2 -2.2 -.5c-.7 -.3 -1.3 -.7 -1.8 -1.2c-.6 -.6 -1 -1.2 -1.3 -1.9c-.3 -.7 -.4 -1.4 -.4 -2.2c0 -.7 .1 -1.5 .4 -2.2c.3 -.7 .7 -1.3 1.3 -1.8c.5 -.6 1.1 -1 1.8 -1.3c.7 -.3 1.5 -.4 2.2 -.4Z" class="g2_294"/>
<path d="M242.9 252.9h44.2v25.2H242.9V252.9Z" class="g0_294"/>
<path d="M397.1 252.9h45.2v25.2H397.1V252.9Z" class="g0_294"/>
<path d="M250.2 307.3H535.5c.8 0 1.5 .2 2.2 .5c.7 .3 1.3 .7 1.9 1.2c.5 .6 .9 1.2 1.2 1.9c.3 .7 .4 1.4 .4 2.2c0 .7 -.1 1.5 -.4 2.2c-.3 .7 -.7 1.3 -1.2 1.8c-.6 .6 -1.2 1 -1.9 1.3c-.7 .2 -1.4 .4 -2.2 .4H250.2c-.8 0 -1.5 -.2 -2.2 -.4c-.7 -.3 -1.3 -.7 -1.8 -1.3c-.6 -.5 -1 -1.1 -1.3 -1.8c-.3 -.7 -.4 -1.5 -.4 -2.2c0 -.8 .1 -1.5 .4 -2.2c.3 -.7 .7 -1.3 1.3 -1.9c.5 -.5 1.1 -.9 1.8 -1.2c.7 -.3 1.4 -.5 2.2 -.5Z" class="g0_294"/>
<path d="M250.2 307.3H535.5c.8 0 1.5 .2 2.2 .5c.7 .3 1.3 .7 1.9 1.2c.5 .6 .9 1.2 1.2 1.9c.3 .7 .4 1.4 .4 2.2c0 .7 -.1 1.5 -.4 2.2c-.3 .7 -.7 1.3 -1.2 1.8c-.6 .6 -1.2 1 -1.9 1.3c-.7 .2 -1.4 .4 -2.2 .4H250.2c-.8 0 -1.5 -.2 -2.2 -.4c-.7 -.3 -1.3 -.7 -1.8 -1.3c-.6 -.5 -1 -1.1 -1.3 -1.8c-.3 -.7 -.4 -1.5 -.4 -2.2c0 -.8 .1 -1.5 .4 -2.2c.3 -.7 .7 -1.3 1.3 -1.9c.5 -.5 1.1 -.9 1.8 -1.2c.7 -.3 1.4 -.5 2.2 -.5Z" class="g2_294"/>
<path d="M293.8 299.3h45.4v25.2H293.8V299.3Z" class="g0_294"/>
<path d="M449.6 299.3h44.3v25.2H449.6V299.3Z" class="g0_294"/>
</g>
<path d="M88.8 493.7v-5.1c0 -2.4 1.9 -4.3 4.3 -4.3h550c2.4 0 4.3 1.9 4.3 4.3v5.1c0 2.4 -1.9 4.3 -4.3 4.3H93.1c-2.4 0 -4.3 -1.9 -4.3 -4.3Z" class="g0_294"/>
<path d="M86.6 482.1v18.1" class="g4_294"/>
<g clip-path="url(#c3_294)">
<g clip-path="url(#c1_294)">
<path d="M87.1 705.8H648.5V880H87.1V705.8Z" class="g0_294"/>
<path d="M116.5 722.4c0 .9 -.1 1.9 -.3 2.8c-.2 .9 -.4 1.8 -.8 2.7c-.3 .9 -.8 1.7 -1.3 2.5c-.5 .7 -1.1 1.5 -1.8 2.1c-.7 .7 -1.4 1.3 -2.2 1.8c-.7 .5 -1.6 1 -2.4 1.3c-.9 .4 -1.8 .7 -2.7 .8c-.9 .2 -1.9 .3 -2.8 .3c-1 0 -1.9 -.1 -2.8 -.3c-.9 -.1 -1.8 -.4 -2.7 -.8c-.9 -.3 -1.7 -.8 -2.5 -1.3c-.8 -.5 -1.5 -1.1 -2.1 -1.8c-.7 -.6 -1.3 -1.4 -1.8 -2.1c-.5 -.8 -1 -1.6 -1.3 -2.5c-.4 -.9 -.7 -1.8 -.9 -2.7c-.1 -.9 -.2 -1.9 -.2 -2.8c0 -.9 .1 -1.9 .2 -2.8c.2 -.9 .5 -1.8 .9 -2.7c.3 -.8 .8 -1.7 1.3 -2.5c.5 -.7 1.1 -1.5 1.8 -2.1c.6 -.7 1.3 -1.3 2.1 -1.8c.8 -.5 1.6 -1 2.5 -1.3c.9 -.4 1.8 -.7 2.7 -.8c.9 -.2 1.8 -.3 2.8 -.3c.9 0 1.9 .1 2.8 .3c.9 .1 1.8 .4 2.7 .8c.8 .3 1.7 .8 2.4 1.3c.8 .5 1.5 1.1 2.2 1.8c.7 .6 1.3 1.4 1.8 2.1c.5 .8 1 1.7 1.3 2.5c.4 .9 .6 1.8 .8 2.7c.2 .9 .3 1.9 .3 2.8Z" class="g1_294"/>
</g>
<path d="M116.5 722.4H630.6" class="g2_294"/>
<path d="M636.6 722.4l-8 2.7l2 -2.7l-2 -2.7l8 2.7Z" class="g3_294"/>
<path d="M636.6 722.4l-8 2.7l2 -2.7l-2 -2.7l8 2.7Z" class="g2_294"/>
<path clip-path="url(#c1_294)" d="M116.5 768.2c0 1 -.1 1.9 -.3 2.8c-.2 1 -.4 1.8 -.8 2.7c-.3 .9 -.8 1.7 -1.3 2.5c-.5 .8 -1.1 1.5 -1.8 2.2c-.7 .6 -1.4 1.2 -2.2 1.7c-.7 .6 -1.6 1 -2.4 1.4c-.9 .3 -1.8 .6 -2.7 .8c-.9 .2 -1.9 .3 -2.8 .3c-1 0 -1.9 -.1 -2.8 -.3c-.9 -.2 -1.8 -.5 -2.7 -.8c-.9 -.4 -1.7 -.8 -2.5 -1.4c-.8 -.5 -1.5 -1.1 -2.1 -1.7c-.7 -.7 -1.3 -1.4 -1.8 -2.2c-.5 -.8 -1 -1.6 -1.3 -2.5c-.4 -.9 -.7 -1.7 -.9 -2.7c-.1 -.9 -.2 -1.8 -.2 -2.8c0 -.9 .1 -1.8 .2 -2.8c.2 -.9 .5 -1.8 .9 -2.6c.3 -.9 .8 -1.7 1.3 -2.5c.5 -.8 1.1 -1.5 1.8 -2.2c.6 -.7 1.3 -1.3 2.1 -1.8c.8 -.5 1.6 -.9 2.5 -1.3c.9 -.4 1.8 -.6 2.7 -.8c.9 -.2 1.8 -.3 2.8 -.3c.9 0 1.9 .1 2.8 .3c.9 .2 1.8 .4 2.7 .8c.8 .4 1.7 .8 2.4 1.3c.8 .5 1.5 1.1 2.2 1.8c.7 .7 1.3 1.4 1.8 2.2c.5 .8 1 1.6 1.3 2.5c.4 .8 .6 1.7 .8 2.6c.2 1 .3 1.9 .3 2.8Z" class="g1_294"/>
<path d="M116.5 768.2H630.6" class="g2_294"/>
<path d="M636.6 768.2l-8 2.7l2 -2.7l-2 -2.6l8 2.6Z" class="g3_294"/>
<path d="M636.6 768.2l-8 2.7l2 -2.7l-2 -2.6l8 2.6Z" class="g2_294"/>
<path clip-path="url(#c1_294)" d="M116.5 814.1c0 .9 -.1 1.8 -.3 2.8c-.2 .9 -.4 1.8 -.8 2.6c-.3 .9 -.8 1.7 -1.3 2.5c-.5 .8 -1.1 1.5 -1.8 2.2c-.7 .7 -1.4 1.3 -2.2 1.8c-.7 .5 -1.6 .9 -2.4 1.3c-.9 .4 -1.8 .6 -2.7 .8c-.9 .2 -1.9 .3 -2.8 .3c-1 0 -1.9 -.1 -2.8 -.3c-.9 -.2 -1.8 -.4 -2.7 -.8c-.9 -.4 -1.7 -.8 -2.5 -1.3c-.8 -.5 -1.5 -1.1 -2.1 -1.8c-.7 -.7 -1.3 -1.4 -1.8 -2.2c-.5 -.8 -1 -1.6 -1.3 -2.5c-.4 -.8 -.7 -1.7 -.9 -2.6c-.1 -1 -.2 -1.9 -.2 -2.8c0 -1 .1 -1.9 .2 -2.8c.2 -.9 .5 -1.8 .9 -2.7c.3 -.9 .8 -1.7 1.3 -2.5c.5 -.8 1.1 -1.5 1.8 -2.2c.6 -.6 1.3 -1.2 2.1 -1.7c.8 -.6 1.6 -1 2.5 -1.4c.9 -.3 1.8 -.6 2.7 -.8c.9 -.2 1.8 -.3 2.8 -.3c.9 0 1.9 .1 2.8 .3c.9 .2 1.8 .5 2.7 .8c.8 .4 1.7 .8 2.4 1.4c.8 .5 1.5 1.1 2.2 1.7c.7 .7 1.3 1.4 1.8 2.2c.5 .8 1 1.6 1.3 2.5c.4 .9 .6 1.8 .8 2.7c.2 .9 .3 1.8 .3 2.8Z" class="g1_294"/>
<path d="M116.5 814.1H630.6" class="g2_294"/>
<path d="M636.6 814.1l-8 2.6l2 -2.6l-2 -2.7l8 2.7Z" class="g3_294"/>
<path d="M636.6 814.1l-8 2.6l2 -2.6l-2 -2.7l8 2.7Z" class="g2_294"/>
<path clip-path="url(#c1_294)" d="M116.5 859.9c0 .9 -.1 1.9 -.3 2.8c-.2 .9 -.4 1.8 -.8 2.7c-.3 .9 -.8 1.7 -1.3 2.5c-.5 .7 -1.1 1.5 -1.8 2.1c-.7 .7 -1.4 1.3 -2.2 1.8c-.7 .5 -1.6 1 -2.4 1.3c-.9 .4 -1.8 .7 -2.7 .8c-.9 .2 -1.9 .3 -2.8 .3c-1 0 -1.9 -.1 -2.8 -.3c-.9 -.1 -1.8 -.4 -2.7 -.8c-.9 -.3 -1.7 -.8 -2.5 -1.3c-.8 -.5 -1.5 -1.1 -2.1 -1.8c-.7 -.6 -1.3 -1.4 -1.8 -2.1c-.5 -.8 -1 -1.6 -1.3 -2.5c-.4 -.9 -.7 -1.8 -.9 -2.7c-.1 -.9 -.2 -1.9 -.2 -2.8c0 -.9 .1 -1.9 .2 -2.8c.2 -.9 .5 -1.8 .9 -2.7c.3 -.8 .8 -1.7 1.3 -2.5c.5 -.7 1.1 -1.5 1.8 -2.1c.6 -.7 1.3 -1.3 2.1 -1.8c.8 -.5 1.6 -1 2.5 -1.3c.9 -.4 1.8 -.7 2.7 -.8c.9 -.2 1.8 -.3 2.8 -.3c.9 0 1.9 .1 2.8 .3c.9 .1 1.8 .4 2.7 .8c.8 .3 1.7 .8 2.4 1.3c.8 .5 1.5 1.1 2.2 1.8c.7 .6 1.3 1.4 1.8 2.1c.5 .8 1 1.7 1.3 2.5c.4 .9 .6 1.8 .8 2.7c.2 .9 .3 1.9 .3 2.8Z" class="g1_294"/>
<path d="M116.5 859.9H630.6" class="g2_294"/>
<path d="M636.6 859.9l-8 2.7l2 -2.7l-2 -2.7l8 2.7Z" class="g3_294"/>
<path d="M636.6 859.9l-8 2.7l2 -2.7l-2 -2.7l8 2.7Z" class="g2_294"/>
<path d="M132.9 878.2v-1.1H134v1.1m-1.1 -3.4v-1.1H134v1.1m-1.1 -3.4v-1.2H134v1.2m-1.1 -3.5v-1.1H134v1.1m-1.1 -3.4v-1.2H134v1.2M132.9 861v-1.1H134V861m-1.1 -3.4v-1.1H134v1.1m-1.1 -3.4V853H134v1.2m-1.1 -3.5v-1.1H134v1.1m-1.1 -3.4v-1.1H134v1.1m-1.2 -3.4v-1.2H134v1.2m-1.2 -3.5v-1.1H134v1.1M132.8 837v-1.2H134V837m-1.2 -3.5v-1.1H134v1.1m-1.2 -3.4V829H134v1.1m-1.2 -3.4v-1.2H134v1.2m-1.2 -3.5v-1.1H134v1.1m-1.2 -3.4v-1.1H134v1.1m-1.2 -3.4v-1.2H134v1.2m-1.2 -3.5v-1.1H134v1.1m-1.2 -3.4v-1.2h1.1v1.2M132.8 806v-1.1h1.1V806m-1.1 -3.4v-1.1h1.1v1.1m-1.1 -3.4V798h1.1v1.2m-1.1 -3.5v-1.1h1.1v1.1m-1.1 -3.4v-1.1h1.1v1.1m-1.1 -3.4v-1.2h1.1v1.2m-1.1 -3.5v-1.1h1.1v1.1M132.8 782v-1.2h1.1V782m-1.1 -3.5v-1.1h1.1v1.1m-1.1 -3.4V774h1.1v1.1m-1.1 -3.4v-1.2h1.1v1.2m-1.2 -3.5v-1.1h1.2v1.1m-1.2 -3.4v-1.1h1.2v1.1m-1.2 -3.4v-1.2h1.2v1.2m-1.2 -3.5v-1.1h1.2v1.1m-1.2 -3.4v-1.2h1.2v1.2M132.7 751v-1.1h1.2V751m-1.2 -3.4v-1.1h1.2v1.1m-1.2 -3.4V743h1.2v1.2m-1.2 -3.5v-1.1h1.2v1.1m-1.2 -3.4v-1.1h1.2v1.1m-1.2 -3.4v-1.2h1.1v1.2m-1.1 -3.5v-1.1h1.1v1.1M132.7 727v-1.2h1.1V727m-1.1 -3.5v-1.1h1.1v1.1m-1.1 -3.4V719h1.1v1.1m-1.1 -3.4v-1.2h1.1v1.2m-1.1 -3.5v-1.1h1.1v1.1m-1.1 -3.4v-1.1h1.1v1.1m-1.1 -3.4v0h1.1Z" class="g3_294"/>
<path d="M287.6 878.2v-1.1h1.1v1.1m-1.1 -3.4v-1.1h1.1v1.1m-1.1 -3.4v-1.2h1.1v1.2m-1.1 -3.5v-1.1h1.1v1.1m-1.1 -3.4v-1.2h1.1v1.2M287.6 861v-1.1h1.1V861m-1.1 -3.4v-1.1h1.1v1.1m-1.2 -3.4V853h1.2v1.2m-1.2 -3.5v-1.1h1.2v1.1m-1.2 -3.4v-1.1h1.2v1.1m-1.2 -3.4v-1.2h1.2v1.2m-1.2 -3.5v-1.1h1.2v1.1M287.5 837v-1.2h1.2V837m-1.2 -3.5v-1.1h1.2v1.1m-1.2 -3.4V829h1.2v1.1m-1.2 -3.4v-1.2h1.2v1.2m-1.2 -3.5v-1.1h1.2v1.1m-1.2 -3.4v-1.1h1.1v1.1m-1.1 -3.4v-1.2h1.1v1.2m-1.1 -3.5v-1.1h1.1v1.1m-1.1 -3.4v-1.2h1.1v1.2M287.5 806v-1.1h1.1V806m-1.1 -3.4v-1.1h1.1v1.1m-1.1 -3.4V798h1.1v1.2m-1.1 -3.5v-1.1h1.1v1.1m-1.1 -3.4v-1.1h1.1v1.1m-1.1 -3.4v-1.2h1.1v1.2m-1.1 -3.5v-1.1h1.1v1.1M287.5 782v-1.2h1.1V782m-1.2 -3.5v-1.1h1.2v1.1m-1.2 -3.4V774h1.2v1.1m-1.2 -3.4v-1.2h1.2v1.2m-1.2 -3.5v-1.1h1.2v1.1m-1.2 -3.4v-1.1h1.2v1.1m-1.2 -3.4v-1.2h1.2v1.2m-1.2 -3.5v-1.1h1.2v1.1m-1.2 -3.4v-1.2h1.2v1.2M287.4 751v-1.1h1.2V751m-1.2 -3.4v-1.1h1.2v1.1m-1.2 -3.4V743h1.1v1.2m-1.1 -3.5v-1.1h1.1v1.1m-1.1 -3.4v-1.1h1.1v1.1m-1.1 -3.4v-1.2h1.1v1.2m-1.1 -3.5v-1.1h1.1v1.1M287.4 727v-1.2h1.1V727m-1.1 -3.5v-1.1h1.1v1.1m-1.1 -3.4V719h1.1v1.1m-1.1 -3.4v-1.2h1.1v1.2m-1.1 -3.5v-1.1h1.1v1.1m-1.1 -3.4v-1.1h1.1v1.1Z" class="g3_294"/>
<path d="M236 878.2v-1.1h1.2v1.1M236 874.8v-1.1h1.2v1.1M236 871.4v-1.2h1.2v1.2M236 867.9v-1.1h1.1l.1 1.1M236 864.5v-1.2h1.1v1.2M236 861v-1.1h1.1V861M236 857.6v-1.1h1.1v1.1M236 854.2V853h1.1v1.2M236 850.7v-1.1h1.1v1.1M236 847.3v-1.1h1.1v1.1M236 843.9v-1.2h1.1v1.2M236 840.4v-1.1h1.1v1.1M236 837v-1.2h1.1V837M236 833.5v-1.1h1.1v1.1M236 830.1V829h1.1v1.1m-1.2 -3.4v-1.2h1.2v1.2m-1.2 -3.5v-1.1h1.2v1.1m-1.2 -3.4v-1.1h1.2v1.1m-1.2 -3.4v-1.2h1.2v1.2m-1.2 -3.5v-1.1h1.2v1.1m-1.2 -3.4v-1.2h1.2v1.2M235.9 806v-1.1h1.2V806m-1.2 -3.4v-1.1h1.2v1.1m-1.2 -3.4V798h1.2v1.2m-1.2 -3.5v-1.1h1.2v1.1m-1.2 -3.4v-1.1H237v1.1m-1.1 -3.4v-1.2H237v1.2m-1.1 -3.5v-1.1H237v1.1M235.9 782v-1.2H237V782m-1.1 -3.5v-1.1H237v1.1m-1.1 -3.4V774H237v1.1m-1.1 -3.4v-1.2H237v1.2m-1.1 -3.5v-1.1H237v1.1m-1.1 -3.4v-1.1H237v1.1m-1.1 -3.4v-1.2H237v1.2m-1.1 -3.5v-1.1H237v1.1m-1.1 -3.4v-1.2H237v1.2M235.8 751v-1.1H237V751m-1.2 -3.4v-1.1H237v1.1m-1.2 -3.4V743H237v1.2m-1.2 -3.5v-1.1H237v1.1m-1.2 -3.4v-1.1H237v1.1m-1.2 -3.4v-1.2H237v1.2m-1.2 -3.5v-1.1H237v1.1M235.8 727v-1.2H237V727m-1.2 -3.5v-1.1H237v1.1m-1.2 -3.4V719H237v1.1m-1.2 -3.4v-1.2h1.1v1.2m-1.1 -3.5v-1.1h1.1v1.1m-1.1 -3.4v-1.1h1.1v1.1Z" class="g3_294"/>
<path d="M184.5 878.2v-1.1h1.1v1.1m-1.1 -3.4v-1.1h1.1v1.1m-1.2 -3.4v-1.2h1.2v1.2m-1.2 -3.5v-1.1h1.2v1.1m-1.2 -3.4v-1.2h1.2v1.2M184.4 861v-1.1h1.2V861m-1.2 -3.4v-1.1h1.2v1.1m-1.2 -3.4V853h1.2v1.2m-1.2 -3.5v-1.1h1.2v1.1m-1.2 -3.4v-1.1h1.2v1.1m-1.2 -3.4v-1.2h1.2v1.2m-1.2 -3.5v-1.1h1.1l.1 1.1M184.4 837v-1.2h1.1V837m-1.1 -3.5v-1.1h1.1v1.1m-1.1 -3.4V829h1.1v1.1m-1.1 -3.4v-1.2h1.1v1.2m-1.1 -3.5v-1.1h1.1v1.1m-1.1 -3.4v-1.1h1.1v1.1m-1.1 -3.4v-1.2h1.1v1.2m-1.1 -3.5v-1.1h1.1v1.1m-1.1 -3.4v-1.2h1.1v1.2M184.4 806v-1.1h1.1V806m-1.1 -3.4v-1.1h1.1v1.1m-1.1 -3.4l-.1 -1.2h1.2v1.2m-1.2 -3.5v-1.1h1.2v1.1m-1.2 -3.4v-1.1h1.2v1.1m-1.2 -3.4v-1.2h1.2v1.2m-1.2 -3.5v-1.1h1.2v1.1M184.3 782v-1.2h1.2V782m-1.2 -3.5v-1.1h1.2v1.1m-1.2 -3.4V774h1.2v1.1m-1.2 -3.4v-1.2h1.2v1.2m-1.2 -3.5v-1.1h1.2v1.1m-1.2 -3.4v-1.1h1.1l.1 1.1m-1.2 -3.4v-1.2h1.1v1.2m-1.1 -3.5v-1.1h1.1v1.1m-1.1 -3.4v-1.2h1.1v1.2M184.3 751v-1.1h1.1V751m-1.1 -3.4v-1.1h1.1v1.1m-1.1 -3.4V743h1.1v1.2m-1.1 -3.5v-1.1h1.1v1.1m-1.1 -3.4v-1.1h1.1v1.1m-1.1 -3.4v-1.2h1.1v1.2m-1.1 -3.5v-1.1h1.1v1.1M184.3 727v-1.2h1.1V727m-1.2 -3.5v-1.1h1.2v1.1m-1.2 -3.4V719h1.2v1.1m-1.2 -3.4v-1.2h1.2v1.2m-1.2 -3.5v-1.1h1.2v1.1m-1.2 -3.4v-1.1h1.2v1.1Z" class="g3_294"/>
<path d="M339.1 878.2v-1.1h1.2v1.1m-1.2 -3.4v-1.1h1.2v1.1m-1.2 -3.4v-1.2h1.2v1.2m-1.2 -3.5v-1.1h1.2v1.1m-1.2 -3.4v-1.2h1.2v1.2M339.1 861v-1.1h1.2V861m-1.2 -3.4v-1.1h1.2v1.1m-1.2 -3.4V853h1.2v1.2m-1.2 -3.5v-1.1h1.2v1.1m-1.2 -3.4v-1.1h1.1v1.1m-1.1 -3.4v-1.2h1.1v1.2m-1.1 -3.5v-1.1h1.1v1.1M339.1 837v-1.2h1.1V837m-1.1 -3.5v-1.1h1.1v1.1m-1.1 -3.4V829h1.1v1.1m-1.1 -3.4v-1.2h1.1v1.2m-1.1 -3.5v-1.1h1.1v1.1m-1.1 -3.4v-1.1h1.1v1.1m-1.1 -3.4v-1.2h1.1v1.2m-1.1 -3.5v-1.1h1.1v1.1m-1.1 -3.4v-1.2h1.1v1.2M339 806v-1.1h1.2V806M339 802.6v-1.1h1.2v1.1M339 799.2V798h1.2v1.2M339 795.7v-1.1h1.2v1.1M339 792.3v-1.1h1.2v1.1M339 788.9v-1.2h1.2v1.2M339 785.4v-1.1h1.2v1.1M339 782v-1.2h1.2V782M339 778.5v-1.1h1.2v1.1M339 775.1V774h1.2v1.1M339 771.7v-1.2h1.1v1.2M339 768.2v-1.1h1.1v1.1M339 764.8v-1.1h1.1v1.1M339 761.4v-1.2h1.1v1.2M339 757.9v-1.1h1.1v1.1M339 754.5v-1.2h1.1v1.2M339 751v-1.1h1.1V751M339 747.6v-1.1h1.1v1.1M339 744.2V743h1.1v1.2M339 740.7v-1.1h1.1v1.1M339 737.3v-1.1h1.1v1.1M339 733.9l-.1 -1.2h1.2v1.2m-1.2 -3.5v-1.1h1.2v1.1M338.9 727v-1.2h1.2V727m-1.2 -3.5v-1.1h1.2v1.1m-1.2 -3.4V719h1.2v1.1m-1.2 -3.4v-1.2h1.2v1.2m-1.2 -3.5v-1.1h1.2v1.1m-1.2 -3.4v-1.1h1.2v1.1Z" class="g3_294"/>
<path d="M390.7 878.2v-1.1h1.2v1.1m-1.2 -3.4v-1.1h1.1v1.1m-1.1 -3.4v-1.2h1.1v1.2m-1.1 -3.5v-1.1h1.1v1.1m-1.1 -3.4v-1.2h1.1v1.2M390.7 861v-1.1h1.1V861m-1.1 -3.4v-1.1h1.1v1.1m-1.1 -3.4V853h1.1v1.2m-1.1 -3.5v-1.1h1.1v1.1m-1.1 -3.4v-1.1h1.1v1.1m-1.1 -3.4v-1.2h1.1v1.2m-1.1 -3.5v-1.1h1.1v1.1M390.7 837l-.1 -1.2h1.2V837m-1.2 -3.5v-1.1h1.2v1.1m-1.2 -3.4V829h1.2v1.1m-1.2 -3.4v-1.2h1.2v1.2m-1.2 -3.5v-1.1h1.2v1.1m-1.2 -3.4v-1.1h1.2v1.1m-1.2 -3.4v-1.2h1.2v1.2m-1.2 -3.5v-1.1h1.2v1.1m-1.2 -3.4v-1.2h1.2v1.2M390.6 806v-1.1h1.2V806m-1.2 -3.4v-1.1h1.1l.1 1.1m-1.2 -3.4V798h1.1v1.2m-1.1 -3.5v-1.1h1.1v1.1m-1.1 -3.4v-1.1h1.1v1.1m-1.1 -3.4v-1.2h1.1v1.2m-1.1 -3.5v-1.1h1.1v1.1M390.6 782v-1.2h1.1V782m-1.1 -3.5v-1.1h1.1v1.1m-1.1 -3.4V774h1.1v1.1m-1.1 -3.4v-1.2h1.1v1.2m-1.1 -3.5v-1.1h1.1v1.1m-1.1 -3.4v-1.1h1.1v1.1m-1.2 -3.4v-1.2h1.2v1.2m-1.2 -3.5v-1.1h1.2v1.1m-1.2 -3.4v-1.2h1.2v1.2M390.5 751v-1.1h1.2V751m-1.2 -3.4v-1.1h1.2v1.1m-1.2 -3.4V743h1.2v1.2m-1.2 -3.5v-1.1h1.2v1.1m-1.2 -3.4v-1.1h1.2v1.1m-1.2 -3.4v-1.2h1.2v1.2m-1.2 -3.5v-1.1h1.2v1.1M390.5 727v-1.2h1.1V727m-1.1 -3.5v-1.1h1.1v1.1m-1.1 -3.4V719h1.1v1.1m-1.1 -3.4v-1.2h1.1v1.2m-1.1 -3.5v-1.1h1.1v1.1m-1.1 -3.4v-1.1h1.1v1.1Z" class="g3_294"/>
<path d="M442.3 878.2v-1.1h1.1v1.1m-1.1 -3.4v-1.1h1.1v1.1m-1.1 -3.4v-1.2h1.1v1.2m-1.1 -3.5v-1.1h1.1v1.1m-1.1 -3.4v-1.2h1.1v1.2M442.3 861v-1.1h1.1V861m-1.1 -3.4v-1.1h1.1v1.1m-1.2 -3.4V853h1.2v1.2m-1.2 -3.5v-1.1h1.2v1.1m-1.2 -3.4v-1.1h1.2v1.1m-1.2 -3.4v-1.2h1.2v1.2m-1.2 -3.5v-1.1h1.2v1.1M442.2 837v-1.2h1.2V837m-1.2 -3.5v-1.1h1.2v1.1m-1.2 -3.4V829h1.2v1.1m-1.2 -3.4v-1.2h1.2v1.2m-1.2 -3.5v-1.1h1.2v1.1m-1.2 -3.4v-1.1h1.2v1.1m-1.2 -3.4v-1.2h1.2v1.2m-1.2 -3.5v-1.1h1.2v1.1m-1.2 -3.4v-1.2h1.2v1.2M442.2 806v-1.1h1.2V806m-1.2 -3.4v-1.1h1.2v1.1m-1.2 -3.4V798h1.2v1.2m-1.2 -3.5v-1.1h1.1v1.1m-1.1 -3.4v-1.1h1.1v1.1m-1.1 -3.4v-1.2h1.1v1.2m-1.1 -3.5v-1.1h1.1v1.1M442.2 782v-1.2h1.1V782m-1.1 -3.5v-1.1h1.1v1.1m-1.1 -3.4V774h1.1v1.1m-1.1 -3.4v-1.2h1.1v1.2m-1.1 -3.5v-1.1h1.1v1.1m-1.1 -3.4v-1.1h1.1v1.1m-1.1 -3.4v-1.2h1.1v1.2m-1.1 -3.5v-1.1h1.1v1.1m-1.1 -3.4v-1.2h1.1v1.2M442.2 751v-1.1h1.1V751m-1.1 -3.4v-1.1h1.1v1.1m-1.1 -3.4V743h1.1v1.2m-1.1 -3.5v-1.1h1.1v1.1m-1.1 -3.4v-1.1h1.1v1.1m-1.1 -3.4v-1.2h1.1v1.2m-1.1 -3.5l-.1 -1.1h1.2v1.1M442.1 727v-1.2h1.2V727m-1.2 -3.5v-1.1h1.2v1.1m-1.2 -3.4V719h1.2v1.1m-1.2 -3.4v-1.2h1.2v1.2m-1.2 -3.5v-1.1h1.2v1.1m-1.2 -3.4v-1.1h1.2v1.1Z" class="g3_294"/>
<path d="M493.8 878.2v-1.1H495v1.1m-1.2 -3.4v-1.1H495v1.1m-1.2 -3.4v-1.2H495v1.2m-1.2 -3.5v-1.1H495v1.1m-1.2 -3.4v-1.2h1.1v1.2M493.8 861v-1.1h1.1V861m-1.1 -3.4v-1.1h1.1v1.1m-1.1 -3.4V853h1.1v1.2m-1.1 -3.5v-1.1h1.1v1.1m-1.1 -3.4v-1.1h1.1v1.1m-1.1 -3.4v-1.2h1.1v1.2m-1.1 -3.5v-1.1h1.1v1.1M493.7 837v-1.2h1.2V837m-1.2 -3.5v-1.1h1.2v1.1m-1.2 -3.4V829h1.2v1.1m-1.2 -3.4v-1.2h1.2v1.2m-1.2 -3.5v-1.1h1.2v1.1m-1.2 -3.4v-1.1h1.2v1.1m-1.2 -3.4v-1.2h1.2v1.2m-1.2 -3.5v-1.1h1.1v1.1m-1.1 -3.4v-1.2h1.1v1.2M493.7 806v-1.1h1.1V806m-1.1 -3.4v-1.1h1.1v1.1m-1.1 -3.4V798h1.1v1.2m-1.1 -3.5v-1.1h1.1v1.1m-1.1 -3.4v-1.1h1.1v1.1m-1.1 -3.4l-.1 -1.2h1.2v1.2m-1.2 -3.5v-1.1h1.2v1.1M493.6 782v-1.2h1.2V782m-1.2 -3.5v-1.1h1.2v1.1m-1.2 -3.4V774h1.2v1.1m-1.2 -3.4v-1.2h1.2v1.2m-1.2 -3.5v-1.1h1.2v1.1m-1.2 -3.4v-1.1h1.1v1.1m-1.1 -3.4v-1.2h1.1v1.2m-1.1 -3.5v-1.1h1.1v1.1m-1.1 -3.4v-1.2h1.1v1.2M493.6 751v-1.1h1.1V751m-1.1 -3.4v-1.1h1.1v1.1m-1.1 -3.4V743h1.1v1.2m-1.1 -3.5v-1.1h1.1v1.1m-1.2 -3.4v-1.1h1.2v1.1m-1.2 -3.4v-1.2h1.2v1.2m-1.2 -3.5v-1.1h1.2v1.1M493.5 727v-1.2h1.2V727m-1.2 -3.5v-1.1h1.2v1.1m-1.2 -3.4V719h1.2v1.1m-1.2 -3.4v-1.2h1.2v1.2m-1.2 -3.5v-1.1h1.1v1.1m-1.1 -3.4v-1.1h1.1v1.1Z" class="g3_294"/>
<path d="M545.4 878.2v-1.1h1.1v1.1m-1.1 -3.4v-1.1h1.1v1.1m-1.1 -3.4v-1.2h1.1v1.2m-1.1 -3.5v-1.1h1.1v1.1m-1.1 -3.4v-1.2h1.1v1.2M545.4 861v-1.1h1.1V861m-1.1 -3.4v-1.1h1.1v1.1m-1.2 -3.4V853h1.2v1.2m-1.2 -3.5v-1.1h1.2v1.1m-1.2 -3.4v-1.1h1.2v1.1m-1.2 -3.4v-1.2h1.2v1.2m-1.2 -3.5v-1.1h1.2v1.1M545.3 837v-1.2h1.2V837m-1.2 -3.5v-1.1h1.1v1.1m-1.1 -3.4V829h1.1v1.1m-1.1 -3.4v-1.2h1.1v1.2m-1.1 -3.5v-1.1h1.1v1.1m-1.1 -3.4v-1.1h1.1v1.1m-1.1 -3.4v-1.2h1.1v1.2m-1.1 -3.5v-1.1h1.1v1.1m-1.1 -3.4v-1.2h1.1v1.2M545.2 806v-1.1h1.2V806m-1.2 -3.4v-1.1h1.2v1.1m-1.2 -3.4V798h1.2v1.2m-1.2 -3.5v-1.1h1.2v1.1m-1.2 -3.4v-1.1h1.2v1.1m-1.2 -3.4v-1.2h1.2v1.2m-1.2 -3.5v-1.1h1.2v1.1M545.2 782v-1.2h1.1V782m-1.1 -3.5v-1.1h1.1v1.1m-1.1 -3.4V774h1.1v1.1m-1.1 -3.4v-1.2h1.1v1.2m-1.1 -3.5v-1.1h1.1v1.1m-1.1 -3.4v-1.1h1.1v1.1m-1.1 -3.4v-1.2h1.1v1.2m-1.1 -3.5v-1.1h1.1v1.1m-1.2 -3.4v-1.2h1.2v1.2M545.1 751v-1.1h1.2V751m-1.2 -3.4v-1.1h1.2v1.1m-1.2 -3.4V743h1.2v1.2m-1.2 -3.5v-1.1h1.2v1.1m-1.2 -3.4v-1.1h1.2v1.1m-1.2 -3.4v-1.2h1.1v1.2m-1.1 -3.5v-1.1h1.1v1.1M545.1 727v-1.2h1.1V727m-1.1 -3.5v-1.1h1.1v1.1m-1.1 -3.4V719h1.1v1.1m-1.1 -3.4v-1.2h1.1v1.2m-1.1 -3.5v-1.1h1.1v1.1m-1.1 -3.4v-1.1h1.1v1.1Z" class="g3_294"/>
<path d="M597 878.2v-1.1h1.1v1.1m-1.2 -3.4v-1.1h1.2v1.1m-1.2 -3.4v-1.2h1.2v1.2m-1.2 -3.5v-1.1h1.2v1.1m-1.2 -3.4v-1.2h1.2v1.2M596.9 861v-1.1h1.2V861m-1.2 -3.4v-1.1h1.2v1.1m-1.2 -3.4V853h1.2v1.2m-1.2 -3.5v-1.1H598v1.1m-1.1 -3.4v-1.1H598v1.1m-1.1 -3.4v-1.2H598v1.2m-1.1 -3.5v-1.1H598v1.1M596.9 837v-1.2H598V837m-1.1 -3.5v-1.1H598v1.1m-1.1 -3.4V829H598v1.1m-1.1 -3.4v-1.2H598v1.2m-1.2 -3.5v-1.1H598v1.1m-1.2 -3.4v-1.1H598v1.1m-1.2 -3.4v-1.2H598v1.2m-1.2 -3.5v-1.1H598v1.1m-1.2 -3.4v-1.2H598v1.2M596.8 806v-1.1H598V806m-1.2 -3.4v-1.1h1.1l.1 1.1m-1.2 -3.4V798h1.1v1.2m-1.1 -3.5v-1.1h1.1v1.1m-1.1 -3.4v-1.1h1.1v1.1m-1.1 -3.4v-1.2h1.1v1.2m-1.1 -3.5v-1.1h1.1v1.1M596.8 782v-1.2h1.1V782m-1.1 -3.5v-1.1h1.1v1.1m-1.2 -3.4V774h1.2v1.1m-1.2 -3.4v-1.2h1.2v1.2m-1.2 -3.5v-1.1h1.2v1.1m-1.2 -3.4v-1.1h1.2v1.1m-1.2 -3.4v-1.2h1.2v1.2m-1.2 -3.5v-1.1h1.2v1.1m-1.2 -3.4v-1.2h1.2v1.2M596.7 751v-1.1h1.1V751m-1.1 -3.4v-1.1h1.1v1.1m-1.1 -3.4V743h1.1v1.2m-1.1 -3.5v-1.1h1.1v1.1m-1.1 -3.4v-1.1h1.1v1.1m-1.1 -3.4v-1.2h1.1v1.2m-1.1 -3.5v-1.1h1.1v1.1M596.7 727v-1.2h1.1V727m-1.2 -3.5v-1.1h1.2v1.1m-1.2 -3.4V719h1.2v1.1m-1.2 -3.4v-1.2h1.2v1.2m-1.2 -3.5v-1.1h1.2v1.1m-1.2 -3.4v-1.1h1.2v1.1Z" class="g3_294"/>
<path d="M301.9 716.1H431.4c.7 0 1.5 .1 2.2 .4c.7 .3 1.3 .7 1.8 1.3c.6 .5 1 1.1 1.3 1.8c.3 .7 .4 1.5 .4 2.2c0 .8 -.1 1.5 -.4 2.2c-.3 .7 -.7 1.3 -1.3 1.9c-.5 .5 -1.1 .9 -1.8 1.2c-.7 .3 -1.5 .5 -2.2 .5H301.9c-.8 0 -1.5 -.2 -2.2 -.5c-.7 -.3 -1.3 -.7 -1.8 -1.2c-.6 -.6 -1 -1.2 -1.3 -1.9c-.3 -.7 -.4 -1.4 -.4 -2.2c0 -.7 .1 -1.5 .4 -2.2c.3 -.7 .7 -1.3 1.3 -1.8c.5 -.6 1.1 -1 1.8 -1.3c.7 -.3 1.4 -.4 2.2 -.4Z" class="g0_294"/>
<path d="M301.9 716.1H431.4c.7 0 1.5 .1 2.2 .4c.7 .3 1.3 .7 1.8 1.3c.6 .5 1 1.1 1.3 1.8c.3 .7 .4 1.5 .4 2.2c0 .8 -.1 1.5 -.4 2.2c-.3 .7 -.7 1.3 -1.3 1.9c-.5 .5 -1.1 .9 -1.8 1.2c-.7 .3 -1.5 .5 -2.2 .5H301.9c-.8 0 -1.5 -.2 -2.2 -.5c-.7 -.3 -1.3 -.7 -1.8 -1.2c-.6 -.6 -1 -1.2 -1.3 -1.9c-.3 -.7 -.4 -1.4 -.4 -2.2c0 -.7 .1 -1.5 .4 -2.2c.3 -.7 .7 -1.3 1.3 -1.8c.5 -.6 1.1 -1 1.8 -1.3c.7 -.3 1.4 -.4 2.2 -.4Z" class="g2_294"/>
<path d="M348.8 708.1h33v25.2h-33V708.1Z" class="g0_294"/>
<path d="M144.9 761.9H274.4c.8 0 1.5 .2 2.2 .5c.7 .3 1.3 .7 1.9 1.2c.5 .5 .9 1.2 1.2 1.9c.3 .7 .4 1.4 .4 2.2c0 .7 -.1 1.5 -.4 2.2c-.3 .7 -.7 1.3 -1.2 1.8c-.6 .6 -1.2 1 -1.9 1.3c-.7 .2 -1.4 .4 -2.2 .4H144.9c-.7 0 -1.5 -.2 -2.2 -.4c-.7 -.3 -1.3 -.7 -1.8 -1.3c-.6 -.5 -1 -1.1 -1.3 -1.8c-.3 -.7 -.4 -1.5 -.4 -2.2c0 -.8 .1 -1.5 .4 -2.2c.3 -.7 .7 -1.4 1.3 -1.9c.5 -.5 1.1 -.9 1.8 -1.2c.7 -.3 1.5 -.5 2.2 -.5Z" class="g0_294"/>
<path d="M144.9 761.9H274.4c.8 0 1.5 .2 2.2 .5c.7 .3 1.3 .7 1.9 1.2c.5 .5 .9 1.2 1.2 1.9c.3 .7 .4 1.4 .4 2.2c0 .7 -.1 1.5 -.4 2.2c-.3 .7 -.7 1.3 -1.2 1.8c-.6 .6 -1.2 1 -1.9 1.3c-.7 .2 -1.4 .4 -2.2 .4H144.9c-.7 0 -1.5 -.2 -2.2 -.4c-.7 -.3 -1.3 -.7 -1.8 -1.3c-.6 -.5 -1 -1.1 -1.3 -1.8c-.3 -.7 -.4 -1.5 -.4 -2.2c0 -.8 .1 -1.5 .4 -2.2c.3 -.7 .7 -1.4 1.3 -1.9c.5 -.5 1.1 -.9 1.8 -1.2c.7 -.3 1.5 -.5 2.2 -.5Z" class="g2_294"/>
<path d="M195.4 753.9h33v25.2h-33V753.9Z" class="g0_294"/>
<path d="M196.7 807.8H482c.8 0 1.5 .1 2.2 .4c.7 .3 1.3 .7 1.9 1.2c.5 .6 .9 1.2 1.2 1.9c.3 .7 .5 1.4 .5 2.2c0 .8 -.2 1.5 -.5 2.2c-.3 .7 -.7 1.3 -1.2 1.8c-.6 .6 -1.2 1 -1.9 1.3c-.7 .3 -1.4 .4 -2.2 .4H196.7c-.7 0 -1.5 -.1 -2.2 -.4c-.7 -.3 -1.3 -.7 -1.8 -1.3c-.6 -.5 -1 -1.1 -1.3 -1.8c-.3 -.7 -.4 -1.4 -.4 -2.2c0 -.8 .1 -1.5 .4 -2.2c.3 -.7 .7 -1.3 1.3 -1.9c.5 -.5 1.1 -.9 1.8 -1.2c.7 -.3 1.5 -.4 2.2 -.4Z" class="g0_294"/>
<path d="M196.7 807.8H482c.8 0 1.5 .1 2.2 .4c.7 .3 1.3 .7 1.9 1.2c.5 .6 .9 1.2 1.2 1.9c.3 .7 .5 1.4 .5 2.2c0 .8 -.2 1.5 -.5 2.2c-.3 .7 -.7 1.3 -1.2 1.8c-.6 .6 -1.2 1 -1.9 1.3c-.7 .3 -1.4 .4 -2.2 .4H196.7c-.7 0 -1.5 -.1 -2.2 -.4c-.7 -.3 -1.3 -.7 -1.8 -1.3c-.6 -.5 -1 -1.1 -1.3 -1.8c-.3 -.7 -.4 -1.4 -.4 -2.2c0 -.8 .1 -1.5 .4 -2.2c.3 -.7 .7 -1.3 1.3 -1.9c.5 -.5 1.1 -.9 1.8 -1.2c.7 -.3 1.5 -.4 2.2 -.4Z" class="g2_294"/>
<path d="M242 799.2h44.2v25.2H242V799.2Z" class="g0_294"/>
<path d="M396.2 799.2h45.2v25.2H396.2V799.2Z" class="g0_294"/>
<path d="M249.3 853.6H534.6c.8 0 1.5 .1 2.2 .4c.7 .3 1.3 .7 1.9 1.3c.5 .5 .9 1.1 1.2 1.8c.3 .7 .4 1.5 .4 2.2c0 .8 -.1 1.5 -.4 2.2c-.3 .7 -.7 1.3 -1.2 1.9c-.6 .5 -1.2 .9 -1.9 1.2c-.7 .3 -1.4 .5 -2.2 .5H249.3c-.8 0 -1.5 -.2 -2.2 -.5c-.7 -.3 -1.3 -.7 -1.9 -1.2c-.5 -.6 -.9 -1.2 -1.2 -1.9c-.3 -.7 -.4 -1.4 -.4 -2.2c0 -.7 .1 -1.5 .4 -2.2c.3 -.7 .7 -1.3 1.2 -1.8c.6 -.6 1.2 -1 1.9 -1.3c.7 -.3 1.4 -.4 2.2 -.4Z" class="g0_294"/>
<path d="M249.3 853.6H534.6c.8 0 1.5 .1 2.2 .4c.7 .3 1.3 .7 1.9 1.3c.5 .5 .9 1.1 1.2 1.8c.3 .7 .4 1.5 .4 2.2c0 .8 -.1 1.5 -.4 2.2c-.3 .7 -.7 1.3 -1.2 1.9c-.6 .5 -1.2 .9 -1.9 1.2c-.7 .3 -1.4 .5 -2.2 .5H249.3c-.8 0 -1.5 -.2 -2.2 -.5c-.7 -.3 -1.3 -.7 -1.9 -1.2c-.5 -.6 -.9 -1.2 -1.2 -1.9c-.3 -.7 -.4 -1.4 -.4 -2.2c0 -.7 .1 -1.5 .4 -2.2c.3 -.7 .7 -1.3 1.2 -1.8c.6 -.6 1.2 -1 1.9 -1.3c.7 -.3 1.4 -.4 2.2 -.4Z" class="g2_294"/>
<path d="M292.9 845.6h45.3v25.2H292.9V845.6Z" class="g0_294"/>
<path d="M448.7 845.6h44.2v25.2H448.7V845.6Z" class="g0_294"/>
</g>
</svg>