<?xml version="1.0" encoding="UTF-8" standalone="no"?>
<!DOCTYPE svg PUBLIC "-//W3C//DTD SVG 1.1//EN"
"http://www.w3.org/Graphics/SVG/1.1/DTD/svg11.dtd">
<svg viewBox="0 0 714 1017" version="1.1" xmlns="http://www.w3.org/2000/svg" xmlns:xlink="http://www.w3.org/1999/xlink">
<defs>
<clipPath id="c0_305"><path d="M225.8 218.5V97H466.4V218.5Z"/></clipPath>
<clipPath id="c1_305"><path d="M225.8 394.2V272.8H466.4V394.2Z"/></clipPath>
<clipPath id="c2_305"><path d="M225.8 219.1V96.9H467.2V219.1Z"/></clipPath>
<clipPath id="c3_305"><path d="M225.8 394.9V272.6H467.2V394.9Z"/></clipPath>
<style type="text/css"><![CDATA[
.g0_305{
fill: #FFF;
}
.g1_305{
fill: #000;
}
.g2_305{
fill: none;
stroke: #000;
stroke-width: 1.145;
stroke-miterlimit: 10;
}
.g3_305{
fill: none;
stroke: #000;
stroke-width: 4.583;
stroke-miterlimit: 10;
}
.g4_305{
fill: none;
stroke: #000;
stroke-width: 1.217;
stroke-miterlimit: 10;
}
]]></style>
</defs>
<path d="M0 1017.7H717.2V-3.7H0V1017.7Z" class="g0_305"/>
<g clip-path="url(#c2_305)">
<g clip-path="url(#c0_305)">
<path d="M225.8 97H466.4V218.5H225.8V97Z" class="g0_305"/>
<path d="M226.4 97.6H467V219H226.4V97.6Z" class="g0_305"/>
</g>
<path d="M255 158.3c0 -.8 0 -1.5 -.2 -2.2c-.1 -.8 -.3 -1.5 -.6 -2.2c-.3 -.7 -.7 -1.3 -1.1 -2c-.4 -.6 -.9 -1.2 -1.4 -1.7c-.5 -.5 -1.1 -1 -1.7 -1.4c-.7 -.4 -1.3 -.8 -2 -1.1c-.7 -.3 -1.4 -.5 -2.2 -.6c-.7 -.2 -1.5 -.3 -2.2 -.3c-.8 0 -1.5 .1 -2.3 .3c-.7 .1 -1.4 .3 -2.1 .6c-.7 .3 -1.4 .7 -2 1.1c-.6 .4 -1.2 .9 -1.7 1.4c-.5 .5 -1 1.1 -1.4 1.7c-.5 .7 -.8 1.3 -1.1 2c-.3 .7 -.5 1.4 -.7 2.2c-.1 .7 -.2 1.4 -.2 2.2c0 .8 .1 1.5 .2 2.2c.2 .8 .4 1.5 .7 2.2c.3 .7 .6 1.3 1.1 2c.4 .6 .9 1.2 1.4 1.7c.5 .5 1.1 1 1.7 1.4c.6 .4 1.3 .8 2 1.1c.7 .3 1.4 .5 2.1 .6c.8 .2 1.5 .3 2.3 .3c.7 0 1.5 -.1 2.2 -.3c.8 -.1 1.5 -.3 2.2 -.6c.7 -.3 1.3 -.7 2 -1.1c.6 -.4 1.2 -.9 1.7 -1.4c.5 -.5 1 -1.1 1.4 -1.7c.4 -.7 .8 -1.3 1.1 -2c.3 -.7 .5 -1.4 .6 -2.2c.2 -.7 .2 -1.4 .2 -2.2Z" class="g1_305"/>
<path d="M255 158.3c0 -.8 0 -1.5 -.2 -2.2c-.1 -.8 -.3 -1.5 -.6 -2.2c-.3 -.7 -.7 -1.3 -1.1 -2c-.4 -.6 -.9 -1.2 -1.4 -1.7c-.5 -.5 -1.1 -1 -1.7 -1.4c-.7 -.4 -1.3 -.8 -2 -1.1c-.7 -.3 -1.4 -.5 -2.2 -.6c-.7 -.2 -1.5 -.3 -2.2 -.3c-.8 0 -1.5 .1 -2.3 .3c-.7 .1 -1.4 .3 -2.1 .6c-.7 .3 -1.4 .7 -2 1.1c-.6 .4 -1.2 .9 -1.7 1.4c-.5 .5 -1 1.1 -1.4 1.7c-.5 .7 -.8 1.3 -1.1 2c-.3 .7 -.5 1.4 -.7 2.2c-.1 .7 -.2 1.4 -.2 2.2c0 .8 .1 1.5 .2 2.2c.2 .8 .4 1.5 .7 2.2c.3 .7 .6 1.3 1.1 2c.4 .6 .9 1.2 1.4 1.7c.5 .5 1.1 1 1.7 1.4c.6 .4 1.3 .8 2 1.1c.7 .3 1.4 .5 2.1 .6c.8 .2 1.5 .3 2.3 .3c.7 0 1.5 -.1 2.2 -.3c.8 -.1 1.5 -.3 2.2 -.6c.7 -.3 1.3 -.7 2 -1.1c.6 -.4 1.2 -.9 1.7 -1.4c.5 -.5 1 -1.1 1.4 -1.7c.4 -.7 .8 -1.3 1.1 -2c.3 -.7 .5 -1.4 .6 -2.2c.2 -.7 .2 -1.4 .2 -2.2Z" class="g2_305"/>
<path d="M346.7 112.5c0 -.8 -.1 -1.5 -.2 -2.3c-.2 -.7 -.4 -1.4 -.7 -2.1c-.3 -.7 -.6 -1.4 -1 -2c-.4 -.6 -.9 -1.2 -1.4 -1.7c-.6 -.6 -1.2 -1 -1.8 -1.5c-.6 -.4 -1.3 -.7 -2 -1c-.7 -.3 -1.4 -.5 -2.1 -.7c-.8 -.1 -1.5 -.2 -2.2 -.2c-.8 0 -1.5 .1 -2.3 .2c-.7 .2 -1.4 .4 -2.1 .7c-.7 .3 -1.4 .6 -2 1c-.6 .5 -1.2 .9 -1.8 1.5c-.5 .5 -1 1.1 -1.4 1.7c-.4 .6 -.7 1.3 -1 2c-.3 .7 -.5 1.4 -.7 2.1c-.1 .8 -.2 1.5 -.2 2.3c0 .7 .1 1.5 .2 2.2c.2 .7 .4 1.5 .7 2.2c.3 .6 .6 1.3 1 1.9c.4 .7 .9 1.2 1.4 1.8c.6 .5 1.2 1 1.8 1.4c.6 .4 1.3 .8 2 1.1c.7 .2 1.4 .5 2.1 .6c.8 .2 1.5 .2 2.3 .2c.7 0 1.4 0 2.2 -.2c.7 -.1 1.4 -.4 2.1 -.6c.7 -.3 1.4 -.7 2 -1.1c.6 -.4 1.2 -.9 1.8 -1.4c.5 -.6 1 -1.1 1.4 -1.8c.4 -.6 .7 -1.3 1 -1.9c.3 -.7 .5 -1.5 .7 -2.2c.1 -.7 .2 -1.5 .2 -2.2Z" class="g0_305"/>
<path d="M346.7 112.5c0 -.8 -.1 -1.5 -.2 -2.3c-.2 -.7 -.4 -1.4 -.7 -2.1c-.3 -.7 -.6 -1.4 -1 -2c-.4 -.6 -.9 -1.2 -1.4 -1.7c-.6 -.6 -1.2 -1 -1.8 -1.5c-.6 -.4 -1.3 -.7 -2 -1c-.7 -.3 -1.4 -.5 -2.1 -.7c-.8 -.1 -1.5 -.2 -2.2 -.2c-.8 0 -1.5 .1 -2.3 .2c-.7 .2 -1.4 .4 -2.1 .7c-.7 .3 -1.4 .6 -2 1c-.6 .5 -1.2 .9 -1.8 1.5c-.5 .5 -1 1.1 -1.4 1.7c-.4 .6 -.7 1.3 -1 2c-.3 .7 -.5 1.4 -.7 2.1c-.1 .8 -.2 1.5 -.2 2.3c0 .7 .1 1.5 .2 2.2c.2 .7 .4 1.5 .7 2.2c.3 .6 .6 1.3 1 1.9c.4 .7 .9 1.2 1.4 1.8c.6 .5 1.2 1 1.8 1.4c.6 .4 1.3 .8 2 1.1c.7 .2 1.4 .5 2.1 .6c.8 .2 1.5 .2 2.3 .2c.7 0 1.4 0 2.2 -.2c.7 -.1 1.4 -.4 2.1 -.6c.7 -.3 1.4 -.7 2 -1.1c.6 -.4 1.2 -.9 1.8 -1.4c.5 -.6 1 -1.1 1.4 -1.8c.4 -.6 .7 -1.3 1 -1.9c.3 -.7 .5 -1.5 .7 -2.2c.1 -.7 .2 -1.5 .2 -2.2Z" class="g3_305"/>
<path d="M328.4 204.1c0 -.7 -.1 -1.5 -.2 -2.2c-.2 -.7 -.4 -1.5 -.7 -2.1c-.3 -.7 -.6 -1.4 -1.1 -2c-.4 -.7 -.8 -1.2 -1.4 -1.8c-.5 -.5 -1.1 -1 -1.7 -1.4c-.6 -.4 -1.3 -.8 -2 -1.1c-.7 -.2 -1.4 -.5 -2.1 -.6c-.8 -.1 -1.5 -.2 -2.3 -.2c-.7 0 -1.5 .1 -2.2 .2c-.8 .1 -1.5 .4 -2.2 .6c-.7 .3 -1.3 .7 -1.9 1.1c-.7 .4 -1.3 .9 -1.8 1.4c-.5 .6 -1 1.1 -1.4 1.8c-.4 .6 -.8 1.3 -1.1 2c-.3 .6 -.5 1.4 -.6 2.1c-.2 .7 -.2 1.5 -.2 2.2c0 .8 0 1.5 .2 2.3c.1 .7 .3 1.4 .6 2.1c.3 .7 .7 1.4 1.1 2c.4 .6 .9 1.2 1.4 1.7c.5 .6 1.1 1 1.8 1.5c.6 .4 1.2 .7 1.9 1c.7 .3 1.4 .5 2.2 .7c.7 .1 1.5 .2 2.2 .2c.8 0 1.5 -.1 2.3 -.2c.7 -.2 1.4 -.4 2.1 -.7c.7 -.3 1.4 -.6 2 -1c.6 -.5 1.2 -.9 1.7 -1.5c.6 -.5 1 -1.1 1.4 -1.7c.5 -.6 .8 -1.3 1.1 -2c.3 -.7 .5 -1.4 .7 -2.1c.1 -.8 .2 -1.5 .2 -2.3Z" class="g0_305"/>
<path d="M328.4 204.1c0 -.7 -.1 -1.5 -.2 -2.2c-.2 -.7 -.4 -1.5 -.7 -2.1c-.3 -.7 -.6 -1.4 -1.1 -2c-.4 -.7 -.8 -1.2 -1.4 -1.8c-.5 -.5 -1.1 -1 -1.7 -1.4c-.6 -.4 -1.3 -.8 -2 -1.1c-.7 -.2 -1.4 -.5 -2.1 -.6c-.8 -.1 -1.5 -.2 -2.3 -.2c-.7 0 -1.5 .1 -2.2 .2c-.8 .1 -1.5 .4 -2.2 .6c-.7 .3 -1.3 .7 -1.9 1.1c-.7 .4 -1.3 .9 -1.8 1.4c-.5 .6 -1 1.1 -1.4 1.8c-.4 .6 -.8 1.3 -1.1 2c-.3 .6 -.5 1.4 -.6 2.1c-.2 .7 -.2 1.5 -.2 2.2c0 .8 0 1.5 .2 2.3c.1 .7 .3 1.4 .6 2.1c.3 .7 .7 1.4 1.1 2c.4 .6 .9 1.2 1.4 1.7c.5 .6 1.1 1 1.8 1.5c.6 .4 1.2 .7 1.9 1c.7 .3 1.4 .5 2.2 .7c.7 .1 1.5 .2 2.2 .2c.8 0 1.5 -.1 2.3 -.2c.7 -.2 1.4 -.4 2.1 -.7c.7 -.3 1.4 -.6 2 -1c.6 -.5 1.2 -.9 1.7 -1.5c.6 -.5 1 -1.1 1.4 -1.7c.5 -.6 .8 -1.3 1.1 -2c.3 -.7 .5 -1.4 .7 -2.1c.1 -.8 .2 -1.5 .2 -2.3Z" class="g3_305"/>
<path d="M385.7 146.8c0 -.7 -.1 -1.5 -.3 -2.2c-.1 -.7 -.3 -1.4 -.6 -2.1c-.3 -.7 -.6 -1.4 -1.1 -2c-.4 -.6 -.9 -1.2 -1.4 -1.8c-.5 -.5 -1.1 -1 -1.7 -1.4c-.7 -.4 -1.3 -.8 -2 -1c-.7 -.3 -1.4 -.5 -2.2 -.7c-.7 -.1 -1.4 -.2 -2.2 -.2c-.7 0 -1.5 .1 -2.2 .2c-.8 .2 -1.5 .4 -2.2 .7c-.7 .2 -1.3 .6 -2 1c-.6 .4 -1.2 .9 -1.7 1.4c-.5 .6 -1 1.2 -1.4 1.8c-.4 .6 -.8 1.3 -1.1 2c-.3 .7 -.5 1.4 -.6 2.1c-.2 .7 -.2 1.5 -.2 2.2c0 .8 0 1.5 .2 2.3c.1 .7 .3 1.4 .6 2.1c.3 .7 .7 1.4 1.1 2c.4 .6 .9 1.2 1.4 1.7c.5 .6 1.1 1.1 1.7 1.5c.7 .4 1.3 .7 2 1c.7 .3 1.4 .5 2.2 .7c.7 .1 1.5 .2 2.2 .2c.8 0 1.5 -.1 2.2 -.2c.8 -.2 1.5 -.4 2.2 -.7c.7 -.3 1.3 -.6 2 -1c.6 -.4 1.2 -.9 1.7 -1.5c.5 -.5 1 -1.1 1.4 -1.7c.5 -.6 .8 -1.3 1.1 -2c.3 -.7 .5 -1.4 .6 -2.1c.2 -.8 .3 -1.5 .3 -2.3Z" class="g0_305"/>
<path d="M385.7 146.8c0 -.7 -.1 -1.5 -.3 -2.2c-.1 -.7 -.3 -1.4 -.6 -2.1c-.3 -.7 -.6 -1.4 -1.1 -2c-.4 -.6 -.9 -1.2 -1.4 -1.8c-.5 -.5 -1.1 -1 -1.7 -1.4c-.7 -.4 -1.3 -.8 -2 -1c-.7 -.3 -1.4 -.5 -2.2 -.7c-.7 -.1 -1.4 -.2 -2.2 -.2c-.7 0 -1.5 .1 -2.2 .2c-.8 .2 -1.5 .4 -2.2 .7c-.7 .2 -1.3 .6 -2 1c-.6 .4 -1.2 .9 -1.7 1.4c-.5 .6 -1 1.2 -1.4 1.8c-.4 .6 -.8 1.3 -1.1 2c-.3 .7 -.5 1.4 -.6 2.1c-.2 .7 -.2 1.5 -.2 2.2c0 .8 0 1.5 .2 2.3c.1 .7 .3 1.4 .6 2.1c.3 .7 .7 1.4 1.1 2c.4 .6 .9 1.2 1.4 1.7c.5 .6 1.1 1.1 1.7 1.5c.7 .4 1.3 .7 2 1c.7 .3 1.4 .5 2.2 .7c.7 .1 1.5 .2 2.2 .2c.8 0 1.5 -.1 2.2 -.2c.8 -.2 1.5 -.4 2.2 -.7c.7 -.3 1.3 -.6 2 -1c.6 -.4 1.2 -.9 1.7 -1.5c.5 -.5 1 -1.1 1.4 -1.7c.5 -.6 .8 -1.3 1.1 -2c.3 -.7 .5 -1.4 .6 -2.1c.2 -.8 .3 -1.5 .3 -2.3Z" class="g2_305"/>
<path d="M461.3 123.9c0 -.7 -.1 -1.5 -.2 -2.2c-.2 -.7 -.4 -1.5 -.7 -2.2c-.3 -.7 -.6 -1.3 -1 -1.9c-.5 -.7 -.9 -1.2 -1.5 -1.8c-.5 -.5 -1.1 -1 -1.7 -1.4c-.6 -.4 -1.3 -.8 -2 -1.1c-.7 -.2 -1.4 -.5 -2.1 -.6c-.8 -.2 -1.5 -.2 -2.3 -.2c-.7 0 -1.5 0 -2.2 .2c-.7 .1 -1.5 .4 -2.2 .6c-.6 .3 -1.3 .7 -1.9 1.1c-.7 .4 -1.2 .9 -1.8 1.4c-.5 .6 -1 1.1 -1.4 1.8c-.4 .6 -.8 1.2 -1.1 1.9c-.2 .7 -.5 1.5 -.6 2.2c-.2 .7 -.2 1.5 -.2 2.2c0 .8 0 1.5 .2 2.3c.1 .7 .4 1.4 .6 2.1c.3 .7 .7 1.4 1.1 2c.4 .6 .9 1.2 1.4 1.7c.6 .6 1.1 1 1.8 1.5c.6 .4 1.3 .7 1.9 1c.7 .3 1.5 .5 2.2 .7c.7 .1 1.5 .2 2.2 .2c.8 0 1.5 -.1 2.3 -.2c.7 -.2 1.4 -.4 2.1 -.7c.7 -.3 1.4 -.6 2 -1c.6 -.5 1.2 -.9 1.7 -1.5c.6 -.5 1 -1.1 1.5 -1.7c.4 -.6 .7 -1.3 1 -2c.3 -.7 .5 -1.4 .7 -2.1c.1 -.8 .2 -1.5 .2 -2.3Z" class="g0_305"/>
<path d="M461.3 123.9c0 -.7 -.1 -1.5 -.2 -2.2c-.2 -.7 -.4 -1.5 -.7 -2.2c-.3 -.7 -.6 -1.3 -1 -1.9c-.5 -.7 -.9 -1.2 -1.5 -1.8c-.5 -.5 -1.1 -1 -1.7 -1.4c-.6 -.4 -1.3 -.8 -2 -1.1c-.7 -.2 -1.4 -.5 -2.1 -.6c-.8 -.2 -1.5 -.2 -2.3 -.2c-.7 0 -1.5 0 -2.2 .2c-.7 .1 -1.5 .4 -2.2 .6c-.6 .3 -1.3 .7 -1.9 1.1c-.7 .4 -1.2 .9 -1.8 1.4c-.5 .6 -1 1.1 -1.4 1.8c-.4 .6 -.8 1.2 -1.1 1.9c-.2 .7 -.5 1.5 -.6 2.2c-.2 .7 -.2 1.5 -.2 2.2c0 .8 0 1.5 .2 2.3c.1 .7 .4 1.4 .6 2.1c.3 .7 .7 1.4 1.1 2c.4 .6 .9 1.2 1.4 1.7c.6 .6 1.1 1 1.8 1.5c.6 .4 1.3 .7 1.9 1c.7 .3 1.5 .5 2.2 .7c.7 .1 1.5 .2 2.2 .2c.8 0 1.5 -.1 2.3 -.2c.7 -.2 1.4 -.4 2.1 -.7c.7 -.3 1.4 -.6 2 -1c.6 -.5 1.2 -.9 1.7 -1.5c.6 -.5 1 -1.1 1.5 -1.7c.4 -.6 .7 -1.3 1 -2c.3 -.7 .5 -1.4 .7 -2.1c.1 -.8 .2 -1.5 .2 -2.3Z" class="g3_305"/>
<path d="M449.8 204.1c0 -.7 0 -1.5 -.2 -2.2c-.1 -.7 -.4 -1.5 -.6 -2.1c-.3 -.7 -.7 -1.4 -1.1 -2c-.4 -.7 -.9 -1.2 -1.4 -1.8c-.6 -.5 -1.1 -1 -1.8 -1.4c-.6 -.4 -1.2 -.8 -1.9 -1.1c-.7 -.2 -1.5 -.5 -2.2 -.6c-.7 -.1 -1.5 -.2 -2.2 -.2c-.8 0 -1.5 .1 -2.3 .2c-.7 .1 -1.4 .4 -2.1 .6c-.7 .3 -1.4 .7 -2 1.1c-.6 .4 -1.2 .9 -1.7 1.4c-.6 .6 -1 1.1 -1.5 1.8c-.4 .6 -.7 1.3 -1 2c-.3 .6 -.5 1.4 -.7 2.1c-.1 .7 -.2 1.5 -.2 2.2c0 .8 .1 1.5 .2 2.3c.2 .7 .4 1.4 .7 2.1c.3 .7 .6 1.4 1 2c.5 .6 .9 1.2 1.5 1.7c.5 .6 1.1 1 1.7 1.5c.6 .4 1.3 .7 2 1c.7 .3 1.4 .5 2.1 .7c.8 .1 1.5 .2 2.3 .2c.7 0 1.5 -.1 2.2 -.2c.7 -.2 1.5 -.4 2.2 -.7c.7 -.3 1.3 -.6 1.9 -1c.7 -.5 1.2 -.9 1.8 -1.5c.5 -.5 1 -1.1 1.4 -1.7c.4 -.6 .8 -1.3 1.1 -2c.2 -.7 .5 -1.4 .6 -2.1c.2 -.8 .2 -1.5 .2 -2.3Z" class="g0_305"/>
<path d="M449.8 204.1c0 -.7 0 -1.5 -.2 -2.2c-.1 -.7 -.4 -1.5 -.6 -2.1c-.3 -.7 -.7 -1.4 -1.1 -2c-.4 -.7 -.9 -1.2 -1.4 -1.8c-.6 -.5 -1.1 -1 -1.8 -1.4c-.6 -.4 -1.2 -.8 -1.9 -1.1c-.7 -.2 -1.5 -.5 -2.2 -.6c-.7 -.1 -1.5 -.2 -2.2 -.2c-.8 0 -1.5 .1 -2.3 .2c-.7 .1 -1.4 .4 -2.1 .6c-.7 .3 -1.4 .7 -2 1.1c-.6 .4 -1.2 .9 -1.7 1.4c-.6 .6 -1 1.1 -1.5 1.8c-.4 .6 -.7 1.3 -1 2c-.3 .6 -.5 1.4 -.7 2.1c-.1 .7 -.2 1.5 -.2 2.2c0 .8 .1 1.5 .2 2.3c.2 .7 .4 1.4 .7 2.1c.3 .7 .6 1.4 1 2c.5 .6 .9 1.2 1.5 1.7c.5 .6 1.1 1 1.7 1.5c.6 .4 1.3 .7 2 1c.7 .3 1.4 .5 2.1 .7c.8 .1 1.5 .2 2.3 .2c.7 0 1.5 -.1 2.2 -.2c.7 -.2 1.5 -.4 2.2 -.7c.7 -.3 1.3 -.6 1.9 -1c.7 -.5 1.2 -.9 1.8 -1.5c.5 -.5 1 -1.1 1.4 -1.7c.4 -.6 .8 -1.3 1.1 -2c.2 -.7 .5 -1.4 .6 -2.1c.2 -.8 .2 -1.5 .2 -2.3ZM253.3 164.4L301 194.2" class="g2_305"/>
<path d="M306.1 197.4l-8.2 -2l3.1 -1.2l-.3 -3.3l5.4 6.5Z" class="g1_305"/>
<path d="M306.1 197.4l-8.2 -2l3.1 -1.2l-.3 -3.3l5.4 6.5Zm13.1 -4.5l12.4 -62" class="g2_305"/>
<path d="M332.8 125l1 8.3l-2.2 -2.4l-3 1.4l4.2 -7.3Z" class="g1_305"/>
<path d="M332.8 125l1 8.3l-2.2 -2.4l-3 1.4l4.2 -7.3ZM440 192.8l7.2 -50.3" class="g2_305"/>
<path d="M448 136.5l1.5 8.4l-2.3 -2.4l-2.9 1.6l3.7 -7.6Z" class="g1_305"/>
<path d="M448 136.5l1.5 8.4l-2.3 -2.4l-2.9 1.6l3.7 -7.6ZM346.7 113.6l84.5 8.5" class="g2_305"/>
<path d="M437.2 122.7l-8.3 1.8l2.3 -2.4l-1.8 -2.9l7.8 3.5Z" class="g1_305"/>
<path d="M437.2 122.7l-8.3 1.8l2.3 -2.4l-1.8 -2.9l7.8 3.5Zm1.7 4.6l-46.7 14.1" class="g2_305"/>
<path d="M386.4 143.2l6.9 -4.9l-1.1 3.1l2.7 2l-8.5 -.2Z" class="g1_305"/>
<path d="M386.4 143.2l6.9 -4.9l-1.1 3.1l2.7 2l-8.5 -.2Zm-20.3 11.7l-35.9 36" class="g2_305"/>
<path d="M325.9 195.1l3.8 -7.5l.5 3.3l3.3 .4l-7.6 3.8Z" class="g1_305"/>
<path d="M325.9 195.1l3.8 -7.5l.5 3.3l3.3 .4l-7.6 3.8Z" class="g2_305"/>
</g>
<g clip-path="url(#c3_305)">
<g clip-path="url(#c1_305)">
<path d="M225.8 272.8H466.4V394.2H225.8V272.8Z" class="g0_305"/>
<path d="M226.4 273.3H467V394.8H226.4V273.3Z" class="g0_305"/>
</g>
<path d="M250.5 334.1c0 -.8 -.1 -1.5 -.3 -2.3c-.1 -.7 -.3 -1.4 -.6 -2.1c-.3 -.7 -.7 -1.4 -1.1 -2c-.4 -.6 -.9 -1.2 -1.4 -1.7c-.5 -.6 -1.1 -1.1 -1.7 -1.5c-.7 -.4 -1.3 -.7 -2 -1c-.7 -.3 -1.4 -.5 -2.2 -.7c-.7 -.1 -1.4 -.2 -2.2 -.2c-.8 0 -1.5 .1 -2.2 .2c-.8 .2 -1.5 .4 -2.2 .7c-.7 .3 -1.3 .6 -2 1c-.6 .4 -1.2 .9 -1.7 1.5c-.5 .5 -1 1.1 -1.4 1.7c-.4 .6 -.8 1.3 -1.1 2c-.3 .7 -.5 1.4 -.6 2.1c-.2 .8 -.3 1.5 -.3 2.3c0 .7 .1 1.5 .3 2.2c.1 .7 .3 1.4 .6 2.1c.3 .7 .7 1.4 1.1 2c.4 .6 .9 1.2 1.4 1.8c.5 .5 1.1 1 1.7 1.4c.7 .4 1.3 .8 2 1c.7 .3 1.4 .5 2.2 .7c.7 .1 1.4 .2 2.2 .2c.8 0 1.5 -.1 2.2 -.2c.8 -.2 1.5 -.4 2.2 -.7c.7 -.2 1.3 -.6 2 -1c.6 -.4 1.2 -.9 1.7 -1.4c.5 -.6 1 -1.2 1.4 -1.8c.4 -.6 .8 -1.3 1.1 -2c.3 -.7 .5 -1.4 .6 -2.1c.2 -.7 .3 -1.5 .3 -2.2Z" class="g1_305"/>
<path d="M250.5 334.1c0 -.8 -.1 -1.5 -.3 -2.3c-.1 -.7 -.3 -1.4 -.6 -2.1c-.3 -.7 -.7 -1.4 -1.1 -2c-.4 -.6 -.9 -1.2 -1.4 -1.7c-.5 -.6 -1.1 -1.1 -1.7 -1.5c-.7 -.4 -1.3 -.7 -2 -1c-.7 -.3 -1.4 -.5 -2.2 -.7c-.7 -.1 -1.4 -.2 -2.2 -.2c-.8 0 -1.5 .1 -2.2 .2c-.8 .2 -1.5 .4 -2.2 .7c-.7 .3 -1.3 .6 -2 1c-.6 .4 -1.2 .9 -1.7 1.5c-.5 .5 -1 1.1 -1.4 1.7c-.4 .6 -.8 1.3 -1.1 2c-.3 .7 -.5 1.4 -.6 2.1c-.2 .8 -.3 1.5 -.3 2.3c0 .7 .1 1.5 .3 2.2c.1 .7 .3 1.4 .6 2.1c.3 .7 .7 1.4 1.1 2c.4 .6 .9 1.2 1.4 1.8c.5 .5 1.1 1 1.7 1.4c.7 .4 1.3 .8 2 1c.7 .3 1.4 .5 2.2 .7c.7 .1 1.4 .2 2.2 .2c.8 0 1.5 -.1 2.2 -.2c.8 -.2 1.5 -.4 2.2 -.7c.7 -.2 1.3 -.6 2 -1c.6 -.4 1.2 -.9 1.7 -1.4c.5 -.6 1 -1.2 1.4 -1.8c.4 -.6 .8 -1.3 1.1 -2c.3 -.7 .5 -1.4 .6 -2.1c.2 -.7 .3 -1.5 .3 -2.2Z" class="g2_305"/>
<path d="M342.1 288.2c0 -.7 0 -1.5 -.2 -2.2c-.1 -.8 -.4 -1.5 -.6 -2.2c-.3 -.7 -.7 -1.3 -1.1 -1.9c-.4 -.7 -.9 -1.3 -1.4 -1.8c-.6 -.5 -1.1 -1 -1.8 -1.4c-.6 -.4 -1.3 -.8 -1.9 -1.1c-.7 -.3 -1.5 -.5 -2.2 -.6c-.7 -.2 -1.5 -.2 -2.2 -.2c-.8 0 -1.5 0 -2.3 .2c-.7 .1 -1.4 .3 -2.1 .6c-.7 .3 -1.4 .7 -2 1.1c-.6 .4 -1.2 .9 -1.7 1.4c-.6 .5 -1 1.1 -1.5 1.8c-.4 .6 -.7 1.2 -1 1.9c-.3 .7 -.5 1.4 -.7 2.2c-.1 .7 -.2 1.5 -.2 2.2c0 .8 .1 1.5 .2 2.3c.2 .7 .4 1.4 .7 2.1c.3 .7 .6 1.4 1 2c.5 .6 .9 1.2 1.5 1.7c.5 .6 1.1 1 1.7 1.4c.6 .5 1.3 .8 2 1.1c.7 .3 1.4 .5 2.1 .7c.8 .1 1.5 .2 2.3 .2c.7 0 1.5 -.1 2.2 -.2c.7 -.2 1.5 -.4 2.2 -.7c.6 -.3 1.3 -.6 1.9 -1.1c.7 -.4 1.2 -.8 1.8 -1.4c.5 -.5 1 -1.1 1.4 -1.7c.4 -.6 .8 -1.3 1.1 -2c.2 -.7 .5 -1.4 .6 -2.1c.2 -.8 .2 -1.5 .2 -2.3Z" class="g0_305"/>
<path d="M342.1 288.2c0 -.7 0 -1.5 -.2 -2.2c-.1 -.8 -.4 -1.5 -.6 -2.2c-.3 -.7 -.7 -1.3 -1.1 -1.9c-.4 -.7 -.9 -1.3 -1.4 -1.8c-.6 -.5 -1.1 -1 -1.8 -1.4c-.6 -.4 -1.3 -.8 -1.9 -1.1c-.7 -.3 -1.5 -.5 -2.2 -.6c-.7 -.2 -1.5 -.2 -2.2 -.2c-.8 0 -1.5 0 -2.3 .2c-.7 .1 -1.4 .3 -2.1 .6c-.7 .3 -1.4 .7 -2 1.1c-.6 .4 -1.2 .9 -1.7 1.4c-.6 .5 -1 1.1 -1.5 1.8c-.4 .6 -.7 1.2 -1 1.9c-.3 .7 -.5 1.4 -.7 2.2c-.1 .7 -.2 1.5 -.2 2.2c0 .8 .1 1.5 .2 2.3c.2 .7 .4 1.4 .7 2.1c.3 .7 .6 1.4 1 2c.5 .6 .9 1.2 1.5 1.7c.5 .6 1.1 1 1.7 1.4c.6 .5 1.3 .8 2 1.1c.7 .3 1.4 .5 2.1 .7c.8 .1 1.5 .2 2.3 .2c.7 0 1.5 -.1 2.2 -.2c.7 -.2 1.5 -.4 2.2 -.7c.6 -.3 1.3 -.6 1.9 -1.1c.7 -.4 1.2 -.8 1.8 -1.4c.5 -.5 1 -1.1 1.4 -1.7c.4 -.6 .8 -1.3 1.1 -2c.2 -.7 .5 -1.4 .6 -2.1c.2 -.8 .2 -1.5 .2 -2.3Z" class="g3_305"/>
<path d="M323.8 379.9c0 -.8 -.1 -1.5 -.2 -2.2c-.2 -.8 -.4 -1.5 -.7 -2.2c-.3 -.7 -.6 -1.4 -1 -2c-.5 -.6 -.9 -1.2 -1.5 -1.7c-.5 -.5 -1.1 -1 -1.7 -1.4c-.6 -.5 -1.3 -.8 -2 -1.1c-.7 -.3 -1.4 -.5 -2.1 -.7c-.8 -.1 -1.5 -.2 -2.3 -.2c-.7 0 -1.5 .1 -2.2 .2c-.7 .2 -1.5 .4 -2.2 .7c-.6 .3 -1.3 .6 -1.9 1.1c-.7 .4 -1.2 .9 -1.8 1.4c-.5 .5 -1 1.1 -1.4 1.7c-.4 .6 -.8 1.3 -1.1 2c-.2 .7 -.5 1.4 -.6 2.2c-.2 .7 -.2 1.4 -.2 2.2c0 .7 0 1.5 .2 2.2c.1 .8 .4 1.5 .6 2.2c.3 .7 .7 1.3 1.1 2c.4 .6 .9 1.2 1.4 1.7c.6 .5 1.1 1 1.8 1.4c.6 .4 1.3 .8 1.9 1.1c.7 .3 1.5 .5 2.2 .6c.7 .2 1.5 .2 2.2 .2c.8 0 1.5 0 2.3 -.2c.7 -.1 1.4 -.3 2.1 -.6c.7 -.3 1.4 -.7 2 -1.1c.6 -.4 1.2 -.9 1.7 -1.4c.6 -.5 1 -1.1 1.5 -1.7c.4 -.7 .7 -1.3 1 -2c.3 -.7 .5 -1.4 .7 -2.2c.1 -.7 .2 -1.5 .2 -2.2Z" class="g0_305"/>
<path d="M323.8 379.9c0 -.8 -.1 -1.5 -.2 -2.2c-.2 -.8 -.4 -1.5 -.7 -2.2c-.3 -.7 -.6 -1.4 -1 -2c-.5 -.6 -.9 -1.2 -1.5 -1.7c-.5 -.5 -1.1 -1 -1.7 -1.4c-.6 -.5 -1.3 -.8 -2 -1.1c-.7 -.3 -1.4 -.5 -2.1 -.7c-.8 -.1 -1.5 -.2 -2.3 -.2c-.7 0 -1.5 .1 -2.2 .2c-.7 .2 -1.5 .4 -2.2 .7c-.6 .3 -1.3 .6 -1.9 1.1c-.7 .4 -1.2 .9 -1.8 1.4c-.5 .5 -1 1.1 -1.4 1.7c-.4 .6 -.8 1.3 -1.1 2c-.2 .7 -.5 1.4 -.6 2.2c-.2 .7 -.2 1.4 -.2 2.2c0 .7 0 1.5 .2 2.2c.1 .8 .4 1.5 .6 2.2c.3 .7 .7 1.3 1.1 2c.4 .6 .9 1.2 1.4 1.7c.6 .5 1.1 1 1.8 1.4c.6 .4 1.3 .8 1.9 1.1c.7 .3 1.5 .5 2.2 .6c.7 .2 1.5 .2 2.2 .2c.8 0 1.5 0 2.3 -.2c.7 -.1 1.4 -.3 2.1 -.6c.7 -.3 1.4 -.7 2 -1.1c.6 -.4 1.2 -.9 1.7 -1.4c.6 -.5 1 -1.1 1.5 -1.7c.4 -.7 .7 -1.3 1 -2c.3 -.7 .5 -1.4 .7 -2.2c.1 -.7 .2 -1.5 .2 -2.2Z" class="g3_305"/>
<path d="M385.7 322.6c0 -.8 -.1 -1.5 -.3 -2.2c-.1 -.8 -.3 -1.5 -.6 -2.2c-.3 -.7 -.6 -1.3 -1.1 -2c-.4 -.6 -.9 -1.2 -1.4 -1.7c-.5 -.5 -1.1 -1 -1.7 -1.4c-.7 -.5 -1.3 -.8 -2 -1.1c-.7 -.3 -1.4 -.5 -2.2 -.6c-.7 -.2 -1.4 -.3 -2.2 -.3c-.7 0 -1.5 .1 -2.2 .3c-.8 .1 -1.5 .3 -2.2 .6c-.7 .3 -1.3 .6 -2 1.1c-.6 .4 -1.2 .9 -1.7 1.4c-.5 .5 -1 1.1 -1.4 1.7c-.4 .7 -.8 1.3 -1.1 2c-.3 .7 -.5 1.4 -.6 2.2c-.2 .7 -.2 1.4 -.2 2.2c0 .7 0 1.5 .2 2.2c.1 .8 .3 1.5 .6 2.2c.3 .7 .7 1.3 1.1 2c.4 .6 .9 1.2 1.4 1.7c.5 .5 1.1 1 1.7 1.4c.7 .4 1.3 .8 2 1.1c.7 .3 1.4 .5 2.2 .6c.7 .2 1.5 .3 2.2 .3c.8 0 1.5 -.1 2.2 -.3c.8 -.1 1.5 -.3 2.2 -.6c.7 -.3 1.3 -.7 2 -1.1c.6 -.4 1.2 -.9 1.7 -1.4c.5 -.5 1 -1.1 1.4 -1.7c.5 -.7 .8 -1.3 1.1 -2c.3 -.7 .5 -1.4 .6 -2.2c.2 -.7 .3 -1.5 .3 -2.2Z" class="g0_305"/>
<path d="M385.7 322.6c0 -.8 -.1 -1.5 -.3 -2.2c-.1 -.8 -.3 -1.5 -.6 -2.2c-.3 -.7 -.6 -1.3 -1.1 -2c-.4 -.6 -.9 -1.2 -1.4 -1.7c-.5 -.5 -1.1 -1 -1.7 -1.4c-.7 -.5 -1.3 -.8 -2 -1.1c-.7 -.3 -1.4 -.5 -2.2 -.6c-.7 -.2 -1.4 -.3 -2.2 -.3c-.7 0 -1.5 .1 -2.2 .3c-.8 .1 -1.5 .3 -2.2 .6c-.7 .3 -1.3 .6 -2 1.1c-.6 .4 -1.2 .9 -1.7 1.4c-.5 .5 -1 1.1 -1.4 1.7c-.4 .7 -.8 1.3 -1.1 2c-.3 .7 -.5 1.4 -.6 2.2c-.2 .7 -.2 1.4 -.2 2.2c0 .7 0 1.5 .2 2.2c.1 .8 .3 1.5 .6 2.2c.3 .7 .7 1.3 1.1 2c.4 .6 .9 1.2 1.4 1.7c.5 .5 1.1 1 1.7 1.4c.7 .4 1.3 .8 2 1.1c.7 .3 1.4 .5 2.2 .6c.7 .2 1.5 .3 2.2 .3c.8 0 1.5 -.1 2.2 -.3c.8 -.1 1.5 -.3 2.2 -.6c.7 -.3 1.3 -.7 2 -1.1c.6 -.4 1.2 -.9 1.7 -1.4c.5 -.5 1 -1.1 1.4 -1.7c.5 -.7 .8 -1.3 1.1 -2c.3 -.7 .5 -1.4 .6 -2.2c.2 -.7 .3 -1.5 .3 -2.2Z" class="g3_305"/>
<path d="M456.7 299.7c0 -.8 -.1 -1.5 -.2 -2.3c-.2 -.7 -.4 -1.4 -.7 -2.1c-.3 -.7 -.6 -1.4 -1 -2c-.4 -.6 -.9 -1.2 -1.4 -1.7c-.6 -.6 -1.2 -1 -1.8 -1.4c-.6 -.5 -1.3 -.8 -2 -1.1c-.7 -.3 -1.4 -.5 -2.1 -.7c-.8 -.1 -1.5 -.2 -2.2 -.2c-.8 0 -1.5 .1 -2.3 .2c-.7 .2 -1.4 .4 -2.1 .7c-.7 .3 -1.4 .6 -2 1.1c-.6 .4 -1.2 .8 -1.8 1.4c-.5 .5 -1 1.1 -1.4 1.7c-.4 .6 -.7 1.3 -1 2c-.3 .7 -.5 1.4 -.7 2.1c-.1 .8 -.2 1.5 -.2 2.3c0 .7 .1 1.5 .2 2.2c.2 .8 .4 1.5 .7 2.2c.3 .7 .6 1.3 1 1.9c.4 .7 .9 1.2 1.4 1.8c.6 .5 1.2 1 1.8 1.4c.6 .4 1.3 .8 2 1.1c.7 .3 1.4 .5 2.1 .6c.8 .2 1.5 .2 2.3 .2c.7 0 1.4 0 2.2 -.2c.7 -.1 1.4 -.3 2.1 -.6c.7 -.3 1.4 -.7 2 -1.1c.6 -.4 1.2 -.9 1.8 -1.4c.5 -.6 1 -1.1 1.4 -1.8c.4 -.6 .7 -1.2 1 -1.9c.3 -.7 .5 -1.4 .7 -2.2c.1 -.7 .2 -1.5 .2 -2.2Z" class="g0_305"/>
<path d="M456.7 299.7c0 -.8 -.1 -1.5 -.2 -2.3c-.2 -.7 -.4 -1.4 -.7 -2.1c-.3 -.7 -.6 -1.4 -1 -2c-.4 -.6 -.9 -1.2 -1.4 -1.7c-.6 -.6 -1.2 -1 -1.8 -1.4c-.6 -.5 -1.3 -.8 -2 -1.1c-.7 -.3 -1.4 -.5 -2.1 -.7c-.8 -.1 -1.5 -.2 -2.2 -.2c-.8 0 -1.5 .1 -2.3 .2c-.7 .2 -1.4 .4 -2.1 .7c-.7 .3 -1.4 .6 -2 1.1c-.6 .4 -1.2 .8 -1.8 1.4c-.5 .5 -1 1.1 -1.4 1.7c-.4 .6 -.7 1.3 -1 2c-.3 .7 -.5 1.4 -.7 2.1c-.1 .8 -.2 1.5 -.2 2.3c0 .7 .1 1.5 .2 2.2c.2 .8 .4 1.5 .7 2.2c.3 .7 .6 1.3 1 1.9c.4 .7 .9 1.2 1.4 1.8c.6 .5 1.2 1 1.8 1.4c.6 .4 1.3 .8 2 1.1c.7 .3 1.4 .5 2.1 .6c.8 .2 1.5 .2 2.3 .2c.7 0 1.4 0 2.2 -.2c.7 -.1 1.4 -.3 2.1 -.6c.7 -.3 1.4 -.7 2 -1.1c.6 -.4 1.2 -.9 1.8 -1.4c.5 -.6 1 -1.1 1.4 -1.8c.4 -.6 .7 -1.2 1 -1.9c.3 -.7 .5 -1.4 .7 -2.2c.1 -.7 .2 -1.5 .2 -2.2Z" class="g3_305"/>
<path d="M445.3 379.9c0 -.8 -.1 -1.5 -.3 -2.2c-.1 -.8 -.3 -1.5 -.6 -2.2c-.3 -.7 -.7 -1.4 -1.1 -2c-.4 -.6 -.9 -1.2 -1.4 -1.7c-.5 -.5 -1.1 -1 -1.7 -1.4c-.7 -.5 -1.3 -.8 -2 -1.1c-.7 -.3 -1.4 -.5 -2.2 -.7c-.7 -.1 -1.5 -.2 -2.2 -.2c-.8 0 -1.5 .1 -2.2 .2c-.8 .2 -1.5 .4 -2.2 .7c-.7 .3 -1.3 .6 -2 1.1c-.6 .4 -1.2 .9 -1.7 1.4c-.5 .5 -1 1.1 -1.4 1.7c-.5 .6 -.8 1.3 -1.1 2c-.3 .7 -.5 1.4 -.6 2.2c-.2 .7 -.3 1.4 -.3 2.2c0 .7 .1 1.5 .3 2.2c.1 .8 .3 1.5 .6 2.2c.3 .7 .6 1.3 1.1 2c.4 .6 .9 1.2 1.4 1.7c.5 .5 1.1 1 1.7 1.4c.7 .4 1.3 .8 2 1.1c.7 .3 1.4 .5 2.2 .6c.7 .2 1.4 .2 2.2 .2c.7 0 1.5 0 2.2 -.2c.8 -.1 1.5 -.3 2.2 -.6c.7 -.3 1.3 -.7 2 -1.1c.6 -.4 1.2 -.9 1.7 -1.4c.5 -.5 1 -1.1 1.4 -1.7c.4 -.7 .8 -1.3 1.1 -2c.3 -.7 .5 -1.4 .6 -2.2c.2 -.7 .3 -1.5 .3 -2.2Z" class="g0_305"/>
<path d="M445.3 379.9c0 -.8 -.1 -1.5 -.3 -2.2c-.1 -.8 -.3 -1.5 -.6 -2.2c-.3 -.7 -.7 -1.4 -1.1 -2c-.4 -.6 -.9 -1.2 -1.4 -1.7c-.5 -.5 -1.1 -1 -1.7 -1.4c-.7 -.5 -1.3 -.8 -2 -1.1c-.7 -.3 -1.4 -.5 -2.2 -.7c-.7 -.1 -1.5 -.2 -2.2 -.2c-.8 0 -1.5 .1 -2.2 .2c-.8 .2 -1.5 .4 -2.2 .7c-.7 .3 -1.3 .6 -2 1.1c-.6 .4 -1.2 .9 -1.7 1.4c-.5 .5 -1 1.1 -1.4 1.7c-.5 .6 -.8 1.3 -1.1 2c-.3 .7 -.5 1.4 -.6 2.2c-.2 .7 -.3 1.4 -.3 2.2c0 .7 .1 1.5 .3 2.2c.1 .8 .3 1.5 .6 2.2c.3 .7 .6 1.3 1.1 2c.4 .6 .9 1.2 1.4 1.7c.5 .5 1.1 1 1.7 1.4c.7 .4 1.3 .8 2 1.1c.7 .3 1.4 .5 2.2 .6c.7 .2 1.4 .2 2.2 .2c.7 0 1.5 0 2.2 -.2c.8 -.1 1.5 -.3 2.2 -.6c.7 -.3 1.3 -.7 2 -1.1c.6 -.4 1.2 -.9 1.7 -1.4c.5 -.5 1 -1.1 1.4 -1.7c.4 -.7 .8 -1.3 1.1 -2c.3 -.7 .5 -1.4 .6 -2.2c.2 -.7 .3 -1.5 .3 -2.2Z" class="g3_305"/>
<path d="M249.2 328.9l64.7 -32.3" class="g2_305"/>
<path d="M319.3 293.9l-6 6l.6 -3.3l-3 -1.5l8.4 -1.2Z" class="g1_305"/>
<path d="M319.3 293.9l-6 6l.6 -3.3l-3 -1.5l8.4 -1.2Zm20.4 1.4L359.5 311" class="g2_305"/>
<path d="M364.2 314.7l-7.9 -2.9l3.2 -.8l.1 -3.4l4.6 7.1Z" class="g1_305"/>
<path d="M364.2 314.7l-7.9 -2.9l3.2 -.8l.1 -3.4l4.6 7.1Zm-40.4 65.2H415" class="g2_305"/>
<path d="M421.1 379.9l-8.1 2.7l2 -2.7l-2 -2.7l8.1 2.7Z" class="g1_305"/>
<path d="M421.1 379.9l-8.1 2.7l2 -2.7l-2 -2.7l8.1 2.7Zm-36 -60.8l42.3 -13.7" class="g2_305"/>
<path d="M433.1 303.6l-6.8 5l1.1 -3.2l-2.7 -1.9l8.4 .1Z" class="g1_305"/>
<path d="M433.1 303.6l-6.8 5l1.1 -3.2l-2.7 -1.9l8.4 .1Zm.7 -5.1l-84.5 -8.4" class="g2_305"/>
<path d="M343.3 289.5l8.3 -1.9l-2.3 2.5l1.8 2.8l-7.8 -3.4Z" class="g1_305"/>
<path d="M343.3 289.5l8.3 -1.9l-2.3 2.5l1.8 2.8l-7.8 -3.4Zm82.3 82.4L387.7 335.6" class="g2_305"/>
<path d="M383.4 331.4l7.6 3.7l-3.3 .5l-.4 3.3l-3.9 -7.5Z" class="g1_305"/>
<path d="M383.4 331.4l7.6 3.7l-3.3 .5l-.4 3.3l-3.9 -7.5Z" class="g2_305"/>
</g>
<path d="M67.1 877.1V775.2c0 -2.4 2 -4.3 4.4 -4.3h550c2.4 0 4.3 1.9 4.3 4.3V877.1c0 2.4 -1.9 4.4 -4.3 4.4H71.5c-2.4 0 -4.4 -2 -4.4 -4.4Z" class="g0_305"/>
<path d="M65 768.7V883.6" class="g4_305"/>
</svg>