<?xml version="1.0" encoding="UTF-8" standalone="no"?>
<!DOCTYPE svg PUBLIC "-//W3C//DTD SVG 1.1//EN"
"http://www.w3.org/Graphics/SVG/1.1/DTD/svg11.dtd">
<svg viewBox="0 0 714 1017" version="1.1" xmlns="http://www.w3.org/2000/svg" xmlns:xlink="http://www.w3.org/1999/xlink">
<defs>
<clipPath id="c0_374"><path d="M161.1 338.5V152.1H575.2V338.5Z"/></clipPath>
<style type="text/css"><![CDATA[
.g0_374{
fill: #FFF;
}
.g1_374{
fill: #000;
}
.g2_374{
fill: none;
stroke: #000;
stroke-width: 1.145;
stroke-miterlimit: 10;
}
]]></style>
</defs>
<path d="M0 1017.7H717.2V-3.7H0V1017.7Z" class="g0_374"/>
<g clip-path="url(#c0_374)">
<path d="M161.1 152.2H574.8V337.8H161.1V152.2Z" class="g0_374"/>
<path d="M178.2 152.2h3.4v1.2h-3.4v-1.2Zm6.9 0h3.4v1.2h-3.4v-1.2Zm6.9 0h3.4v1.2H192v-1.2Zm6.8 0h3.5v1.2h-3.5v-1.2Zm6.9 0h3.4v1.2h-3.4v-1.2Zm6.9 0H216v1.2h-3.4v-1.2Zm6.9 0h3.4v1.2h-3.4v-1.2Zm6.8 0h3.5v1.2h-3.5v-1.2Zm6.9 0h3.4v1.2h-3.4v-1.2Zm6.9 0h3.4v1.2h-3.4v-1.2Zm6.9 0h3.4v1.2H247v-1.2Zm6.8 0h3.5v1.2h-3.5v-1.2Zm6.9 0h3.4v1.2h-3.4v-1.2Zm6.9 0H271v1.2h-3.4v-1.2Zm6.9 0h3.4v1.2h-3.4v-1.2Zm6.8 0h3.5v1.2h-3.5v-1.2Zm6.9 0h3.4v1.2h-3.4v-1.2Zm6.9 0h3.4v1.2h-3.4v-1.2Zm6.9 0h3.4v1.2H302v-1.2Zm6.8 0h3.5v1.2h-3.5v-1.2Zm6.9 0h3.4v1.2h-3.4v-1.2Zm6.9 0H326v1.2h-3.4v-1.2Zm6.8 0h3.5v1.2h-3.5v-1.2Zm6.9 0h3.5v1.2h-3.5v-1.2Zm6.9 0h3.4v1.2h-3.4v-1.2Zm6.9 0h3.4v1.2h-3.4v-1.2Zm6.8 0h3.5v1.2h-3.5v-1.2Zm6.9 0h3.5v1.2h-3.5v-1.2Zm6.9 0h3.4v1.2h-3.4v-1.2Zm6.9 0H381v1.2h-3.4v-1.2Zm6.8 0h3.5v1.2h-3.5v-1.2Zm6.9 0h3.5v1.2h-3.5v-1.2Zm6.9 0h3.4v1.2h-3.4v-1.2Zm6.9 0h3.4v1.2h-3.4v-1.2Zm6.8 0h3.5v1.2h-3.5v-1.2Zm6.9 0h3.5v1.2h-3.5v-1.2Zm6.9 0h3.4v1.2h-3.4v-1.2Zm6.9 0H436v1.2h-3.4v-1.2Zm6.9 0h3.4v1.2h-3.4v-1.2Zm6.8 0h3.5v1.2h-3.5v-1.2Zm6.9 0h3.4v1.2h-3.4v-1.2Zm6.9 0h3.4v1.2h-3.4v-1.2Zm6.8 0h3.5v1.2h-3.5v-1.2Zm6.9 0h3.5v1.2h-3.5v-1.2Zm6.9 0h3.4v1.2h-3.4v-1.2Zm6.9 0H491v1.2h-3.4v-1.2Zm6.8 0h3.5v1.2h-3.5v-1.2Zm6.9 0h3.5v1.2h-3.5v-1.2Zm6.9 0h3.4v1.2h-3.4v-1.2Zm6.9 0h3.4v1.2h-3.4v-1.2Zm6.8 0h3.5v1.2h-3.5v-1.2Zm6.9 0h3.5v1.2h-3.5v-1.2Zm6.9 0h3.4v1.2h-3.4v-1.2Zm6.9 0H546v1.2h-3.4v-1.2Zm6.8 0h3.5v1.2h-3.5v-1.2Zm6.9 0h3.5v1.2h-3.5v-1.2Zm6.9 0h1.4c.7 0 1.4 .1 2.1 .2l-.2 1.2c-.7 -.2 -1.3 -.2 -1.9 -.2h-1.4v-1.2Zm6.9 1.6c1.1 .7 1.9 1.6 2.7 2.6l-.9 .7c-.7 -.9 -1.5 -1.7 -2.4 -2.3l.6 -1Zm4.3 5.9c.2 .9 .4 1.8 .4 2.7v.8h-1.2v-.8c0 -.8 -.1 -1.6 -.3 -2.4l1.1 -.3Zm.4 6.9v3.5h-1.2v-3.5h1.2Zm0 6.9V177h-1.2v-3.5h1.2Zm0 6.9v3.4h-1.2v-3.4h1.2Zm0 6.9v3.4h-1.2v-3.4h1.2Zm0 6.8v3.5h-1.2v-3.5h1.2Zm0 6.9v3.5h-1.2V201h1.2Zm0 6.9v3.4h-1.2v-3.4h1.2Zm0 6.9v3.4h-1.2v-3.4h1.2Zm0 6.8v3.5h-1.2v-3.5h1.2Zm0 6.9V232h-1.2v-3.5h1.2Zm0 6.9v3.4h-1.2v-3.4h1.2Zm0 6.9v3.4h-1.2v-3.4h1.2Zm0 6.8v3.5h-1.2v-3.5h1.2Zm0 6.9v3.5h-1.2V256h1.2Zm0 6.9v.6c0 1 -.2 2 -.5 2.9l-1.1 -.3c.3 -.8 .4 -1.7 .4 -2.6v-.6h1.2Zm-2.1 6.8c-.8 1 -1.7 1.8 -2.8 2.5l-.6 -1c1 -.6 1.8 -1.3 2.4 -2.2l1 .7Zm-6.2 3.8c-.6 .1 -1.3 .2 -1.9 .2H563v-1.2h1.6c.5 0 1.1 0 1.7 -.1l.2 1.1Zm-6.9 .2h-3.5v-1.2h3.5v1.2Zm-6.9 0h-3.5v-1.2h3.5v1.2Zm-6.9 0h-3.4v-1.2h3.4v1.2Zm-6.9 0h-3.4v-1.2h3.4v1.2Zm-6.8 0h-3.5v-1.2h3.5v1.2Zm-6.9 0h-3.5v-1.2h3.5v1.2Zm-6.9 0h-3.4v-1.2h3.4v1.2Zm-6.9 0H508v-1.2h3.4v1.2Zm-6.8 0h-3.5v-1.2h3.5v1.2Zm-6.9 0h-3.5v-1.2h3.5v1.2Zm-6.9 0h-3.4v-1.2h3.4v1.2Zm-6.9 0h-3.4v-1.2h3.4v1.2Zm-6.8 0h-3.5v-1.2h3.5v1.2Zm-6.9 0h-3.5v-1.2h3.5v1.2Zm-6.9 0h-3.4v-1.2h3.4v1.2Zm-6.9 0H453v-1.2h3.4v1.2Zm-6.8 0h-3.5v-1.2h3.5v1.2Zm-6.9 0h-3.5v-1.2h3.5v1.2Zm-6.9 0h-3.4v-1.2h3.4v1.2Zm-6.9 0h-3.4v-1.2h3.4v1.2Zm-6.8 0h-3.5v-1.2h3.5v1.2Zm-6.9 0h-3.5v-1.2h3.5v1.2Zm-6.9 0h-3.4v-1.2h3.4v1.2Zm-6.9 0H398v-1.2h3.4v1.2Zm-6.8 0h-3.5v-1.2h3.5v1.2Zm-6.9 0h-3.5v-1.2h3.5v1.2Zm-6.9 0h-3.4v-1.2h3.4v1.2Zm-6.9 0h-3.4v-1.2h3.4v1.2Zm-6.8 0h-3.5v-1.2h3.5v1.2Zm-6.9 0h-3.5v-1.2h3.5v1.2Zm-6.9 0h-3.4v-1.2h3.4v1.2Zm-6.9 0H343v-1.2h3.4v1.2Zm-6.8 0h-3.5v-1.2h3.5v1.2Zm-6.9 0h-3.5v-1.2h3.5v1.2Zm-6.9 0h-3.4v-1.2h3.4v1.2Zm-6.9 0h-3.4v-1.2h3.4v1.2Zm-6.8 0h-3.5v-1.2h3.5v1.2Zm-6.9 0h-3.5v-1.2h3.5v1.2Zm-6.9 0h-3.4v-1.2h3.4v1.2Zm-6.9 0H288v-1.2h3.4v1.2Zm-6.8 0h-3.5v-1.2h3.5v1.2Zm-6.9 0h-3.5v-1.2h3.5v1.2Zm-6.9 0h-3.4v-1.2h3.4v1.2Zm-6.9 0h-3.4v-1.2h3.4v1.2Zm-6.8 0h-3.5v-1.2h3.5v1.2Zm-6.9 0h-3.5v-1.2h3.5v1.2Zm-6.9 0h-3.4v-1.2h3.4v1.2Zm-6.9 0H233v-1.2h3.4v1.2Zm-6.8 0h-3.5v-1.2h3.5v1.2Zm-6.9 0h-3.5v-1.2h3.5v1.2Zm-6.9 0h-3.4v-1.2h3.4v1.2Zm-6.9 0h-3.4v-1.2h3.4v1.2Zm-6.8 0h-3.5v-1.2h3.5v1.2Zm-6.9 0h-3.5v-1.2h3.5v1.2Zm-6.9 0h-3.4v-1.2h3.4v1.2Zm-6.9 0H178v-1.2h3.4v1.2Zm-6.8 0h-3.3c0 0 -.1 0 -.2 0v-1.2c.1 0 .2 0 .2 0h3.3v1.2Zm-7.1 -.8c-1.1 -.4 -2.1 -1.1 -3.1 -1.9l.8 -.8c.8 .7 1.7 1.3 2.8 1.7l-.5 1Zm-5.3 -4.8c-.5 -1.1 -.9 -2.3 -1 -3.5l1.1 -.2c.1 1.1 .5 2.2 .9 3.2l-1 .5Zm-1.1 -7v-3.4h1.2v3.4h-1.2Zm0 -6.9v-3.4h1.2v3.4h-1.2Zm0 -6.8v-3.5h1.2v3.5h-1.2Zm0 -6.9V237h1.2v3.5h-1.2Zm0 -6.9v-3.4h1.2v3.4h-1.2Zm0 -6.9v-3.4h1.2v3.4h-1.2Zm0 -6.8v-3.5h1.2v3.5h-1.2Zm0 -6.9v-3.5h1.2V213h-1.2Zm0 -6.9v-3.4h1.2v3.4h-1.2Zm0 -6.9v-3.4h1.2v3.4h-1.2Zm0 -6.8v-3.5h1.2v3.5h-1.2Zm0 -6.9V182h1.2v3.5h-1.2Zm0 -6.9v-3.4h1.2v3.4h-1.2Zm0 -6.9v-3.4h1.2v3.4h-1.2Zm0 -6.8v-2.5c0 -.3 0 -.7 .1 -1l1.1 .1c0 .3 0 .6 0 .9v2.5h-1.2Zm1.1 -7c.6 -1.1 1.3 -2.1 2.2 -3l.8 .9c-.8 .7 -1.5 1.6 -2 2.6l-1 -.5Zm5.3 -4.9c1.1 -.5 2.3 -.7 3.5 -.8l.1 1.2c-1.1 0 -2.2 .2 -3.2 .6l-.4 -1Zm3.8 -.8h3.5v1.2h-3.5v-1.2Z" class="g1_374"/>
<path d="M173.2 162H356.5v45.8H173.2V162Z" class="g0_374"/>
<path d="M173.2 162H356.5v45.8H173.2V162Z" class="g2_374"/>
<path d="M173.2 202.1H356.5v63H173.2v-63Z" class="g0_374"/>
<path d="M173.2 202.1H356.5v63H173.2v-63Z" class="g2_374"/>
<path d="M274 212.7h82.5v40.1H274V212.7Z" class="g0_374"/>
<path d="M274 212.7h82.5v40.1H274V212.7Z" class="g2_374"/>
<path d="M173.2 300.6c0 -2.5 23 -4.6 51.5 -4.6c13.7 0 26.8 .5 36.5 1.4c9.7 .8 15.1 2 15.1 3.2v32.1c0 2.5 -23.1 4.6 -51.6 4.6c-28.5 0 -51.5 -2.1 -51.5 -4.6V300.6Z" class="g0_374"/>
<path d="M173.2 300.6c0 -2.5 23 -4.6 51.5 -4.6c13.7 0 26.8 .5 36.5 1.4c9.7 .8 15.1 2 15.1 3.2v32.1c0 2.5 -23.1 4.6 -51.6 4.6c-28.5 0 -51.5 -2.1 -51.5 -4.6V300.6Zm103.1 0c0 2.5 -23.1 4.6 -51.6 4.6c-28.5 0 -51.5 -2.1 -51.5 -4.6" class="g2_374"/>
<path d="M266.9 188.3v8.2h9.4l-14.6 14.7L247.1 196.5h9.3v-8.2h10.5Z" class="g0_374"/>
<path d="M266.9 188.3v8.2h9.4l-14.6 14.7L247.1 196.5h9.3v-8.2h10.5Z" class="g2_374"/>
<path d="M372.5 212.7h87.1v40.1H372.5V212.7Z" class="g0_374"/>
<path d="M372.5 212.7h87.1v40.1H372.5V212.7Z" class="g2_374"/>
<path d="M390.8 235c-.8 0 -1.5 .3 -2.1 .9l-1.3 -.9c.2 -.4 .3 -.8 .3 -1.2c0 -.4 -.1 -.8 -.3 -1.2l1.3 -.9c.6 .6 1.3 .9 2.1 .9c.4 0 .7 0 1.1 -.2c.3 -.1 .6 -.3 .9 -.6c.2 -.2 .4 -.5 .6 -.9c.1 -.3 .2 -.7 .2 -1c0 -.4 -.1 -.7 -.2 -1.1c-.2 -.3 -.4 -.6 -.6 -.9c-.3 -.2 -.6 -.4 -.9 -.6c-.4 -.1 -.7 -.2 -1.1 -.2c-.4 0 -.7 .1 -1 .2c-.4 .2 -.7 .4 -.9 .6c-.3 .3 -.5 .6 -.6 .9c-.2 .4 -.3 .7 -.3 1.1c0 .3 .1 .5 .2 .8l-1.3 .9c-.6 -.7 -1.4 -1.2 -2.2 -1.3v-1.6c.6 -.1 1.1 -.4 1.5 -.9c.4 -.5 .7 -1.1 .7 -1.8c0 -.3 -.1 -.7 -.3 -1c-.1 -.4 -.3 -.7 -.6 -.9c-.2 -.3 -.5 -.5 -.9 -.6c-.3 -.2 -.6 -.2 -1 -.2c-.4 0 -.7 0 -1.1 .2c-.3 .1 -.6 .3 -.9 .6c-.2 .2 -.4 .5 -.6 .9c-.1 .3 -.2 .7 -.2 1c0 1.3 .9 2.4 2.2 2.7v1.6c-1.7 .3 -3 1.8 -3 3.5c0 1.8 1.3 3.2 3 3.5V239c-1.2 .3 -2.2 1.4 -2.2 2.7c0 .4 .1 .7 .2 1c.2 .4 .4 .7 .6 .9c.3 .3 .6 .5 .9 .6c.4 .2 .7 .3 1.1 .3c.4 0 .7 -.1 1 -.3c.4 -.1 .7 -.3 .9 -.6c.3 -.2 .5 -.5 .6 -.9c.2 -.3 .3 -.6 .3 -1c0 -1.3 -1 -2.4 -2.2 -2.7v-1.7c.9 -.1 1.6 -.6 2.2 -1.2l1.3 .9c-.1 .2 -.2 .5 -.2 .8c0 .3 .1 .7 .3 1c.1 .4 .3 .7 .6 .9c.2 .3 .5 .5 .9 .6c.3 .2 .6 .2 1 .2c.4 0 .7 0 1.1 -.2c.3 -.1 .6 -.3 .9 -.6c.2 -.2 .4 -.5 .6 -.9c.1 -.3 .2 -.7 .2 -1c0 -.4 -.1 -.8 -.2 -1.1c-.2 -.3 -.4 -.6 -.6 -.9c-.3 -.2 -.6 -.4 -.9 -.6c-.4 -.1 -.7 -.2 -1.1 -.2Zm0 -6.5c.7 0 1.4 .6 1.4 1.4c0 .7 -.7 1.3 -1.4 1.3c-.7 0 -1.3 -.6 -1.3 -1.3c0 -.8 .6 -1.4 1.3 -1.4ZM382.7 226c0 -.7 .6 -1.3 1.4 -1.3c.7 0 1.3 .6 1.3 1.3c0 .8 -.6 1.4 -1.3 1.4c-.8 0 -1.4 -.6 -1.4 -1.4Zm2.7 15.7c0 .7 -.6 1.3 -1.3 1.3c-.8 0 -1.4 -.6 -1.4 -1.3c0 -.7 .6 -1.3 1.4 -1.3c.7 0 1.3 .6 1.3 1.3Zm-1.3 -6c-1 0 -1.9 -.9 -1.9 -1.9c0 -1 .9 -1.9 1.9 -1.9c1 0 1.9 .9 1.9 1.9c0 1 -.9 1.9 -1.9 1.9Zm6.7 3.4c-.7 0 -1.3 -.6 -1.3 -1.3c0 -.8 .6 -1.4 1.3 -1.4c.7 0 1.4 .6 1.4 1.4c0 .7 -.7 1.3 -1.4 1.3Z" class="g1_374"/>
<path d="M471.1 202.1h91.6v63H471.1v-63Z" class="g0_374"/>
<path d="M471.1 202.1h91.6v63H471.1v-63Z" class="g2_374"/>
<path d="M465.3 300.6c0 -2.5 23.1 -4.6 51.6 -4.6c13.7 0 26.8 .5 36.5 1.4c9.6 .8 15.1 2 15.1 3.2v32.1c0 2.5 -23.1 4.6 -51.6 4.6c-28.5 0 -51.6 -2.1 -51.6 -4.6V300.6Z" class="g0_374"/>
<path d="M465.3 300.6c0 -2.5 23.1 -4.6 51.6 -4.6c13.7 0 26.8 .5 36.5 1.4c9.6 .8 15.1 2 15.1 3.2v32.1c0 2.5 -23.1 4.6 -51.6 4.6c-28.5 0 -51.6 -2.1 -51.6 -4.6V300.6Zm103.2 0c0 2.5 -23.1 4.6 -51.6 4.6c-28.5 0 -51.6 -2.1 -51.6 -4.6" class="g2_374"/>
<path d="M230 259.4v21.9h9.3L224.7 296L210.1 281.3h9.4V259.4H230Z" class="g0_374"/>
<path d="M230 259.4v21.9h9.3L224.7 296L210.1 281.3h9.4V259.4H230Z" class="g2_374"/>
<path d="M522.2 259.4v21.9h9.3L516.9 296L502.3 281.3h9.3V259.4h10.6Z" class="g0_374"/>
<path d="M522.2 259.4v21.9h9.3L516.9 296L502.3 281.3h9.3V259.4h10.6Z" class="g2_374"/>
<path d="M351.9 229.2h10.5v-9.4l14.7 14.6L362.4 249v-9.3H351.9V229.2Z" class="g0_374"/>
<path d="M351.9 229.2h10.5v-9.4l14.7 14.6L362.4 249v-9.3H351.9V229.2Z" class="g2_374"/>
<path d="M455 228h8.2v-9.3l14.7 14.6l-14.7 14.6v-9.4H455V228Z" class="g0_374"/>
<path d="M455 228h8.2v-9.3l14.7 14.6l-14.7 14.6v-9.4H455V228Z" class="g2_374"/>
</g>
</svg>