<?xml version="1.0" encoding="UTF-8" standalone="no"?>
<!DOCTYPE svg PUBLIC "-//W3C//DTD SVG 1.1//EN"
"http://www.w3.org/Graphics/SVG/1.1/DTD/svg11.dtd">
<svg viewBox="0 0 714 1017" version="1.1" xmlns="http://www.w3.org/2000/svg" xmlns:xlink="http://www.w3.org/1999/xlink">
<defs>
<clipPath id="c0_126"><path d="M112.2 350.2V97H624.4V350.2Z"/></clipPath>
<clipPath id="c1_126"><path d="M96.2 827.6V711.9H640.1V827.6Z"/></clipPath>
<clipPath id="c2_126"><path d="M112.2 350.7V95.6H625.5V350.7Z"/></clipPath>
<clipPath id="c3_126"><path d="M96.2 828.1V710.5H640.1V828.1Z"/></clipPath>
<style type="text/css"><![CDATA[
.g0_126{
fill: #FFF;
}
.g1_126{
fill: none;
stroke: #000;
stroke-width: 1.145;
stroke-miterlimit: 10;
}
.g2_126{
fill: none;
stroke: #000;
stroke-width: 2.291;
stroke-miterlimit: 10;
}
.g3_126{
fill: #000;
}
.g4_126{
fill: none;
stroke: #000;
stroke-width: 0.608;
stroke-miterlimit: 10;
}
]]></style>
</defs>
<path d="M0 1017.7H717.2V-3.7H0V1017.7Z" class="g0_126"/>
<g clip-path="url(#c2_126)">
<path clip-path="url(#c0_126)" d="M112.2 97H624.4V350.2H112.2V97Z" class="g0_126"/>
<path d="M210.5 97.6h91.7v22.9H210.5V97.6Z" class="g0_126"/>
<path d="M210.5 97.6h91.7v22.9H210.5V97.6Z" class="g1_126"/>
<path d="M302.2 97.6H623v22.9H302.2V97.6Z" class="g0_126"/>
<path d="M302.2 97.6H623v22.9H302.2V97.6Z" class="g1_126"/>
<path d="M210.5 120.5h91.7v22.9H210.5V120.5Z" class="g0_126"/>
<path d="M210.5 120.5h91.7v22.9H210.5V120.5Z" class="g1_126"/>
<path d="M302.2 120.5H623v22.9H302.2V120.5Z" class="g0_126"/>
<path d="M302.2 120.5H623v22.9H302.2V120.5Z" class="g1_126"/>
<path d="M210.5 143.4h91.7v22.9H210.5V143.4Z" class="g0_126"/>
<path d="M210.5 143.4h91.7v22.9H210.5V143.4Z" class="g1_126"/>
<path d="M302.2 143.4H623v22.9H302.2V143.4Z" class="g0_126"/>
<path d="M302.2 143.4H623v22.9H302.2V143.4Z" class="g1_126"/>
<path d="M210.5 166.3h91.7v22.9H210.5V166.3Z" class="g0_126"/>
<path d="M210.5 166.3h91.7v22.9H210.5V166.3Z" class="g1_126"/>
<path d="M302.2 166.3H623v22.9H302.2V166.3Z" class="g0_126"/>
<path d="M302.2 166.3H623v22.9H302.2V166.3Z" class="g1_126"/>
<path d="M210.5 189.2h91.7v23H210.5v-23Z" class="g0_126"/>
<path d="M210.5 189.2h91.7v23H210.5v-23Z" class="g1_126"/>
<path d="M302.2 189.2H623v23H302.2v-23Z" class="g0_126"/>
<path d="M302.2 189.2H623v23H302.2v-23Z" class="g1_126"/>
<path d="M121 280.9H569.8" class="g2_126"/>
<path d="M576.7 280.9l-9.1 3.1l2.2 -3.1l-2.2 -3.1l9.1 3.1Z" class="g3_126"/>
<path d="M576.7 280.9l-9.1 3.1l2.2 -3.1l-2.2 -3.1l9.1 3.1Z" class="g2_126"/>
<path d="M121 280.9V269.4m91.6 11.5V269.4m91.7 11.5V269.4M396 280.9V269.4m91.6 11.5V269.4m-275 11.5v5.7c0 3.9 -3.8 5.8 -11.4 5.8h-23c-7.6 0 -11.4 1.9 -11.4 5.7V301c0 1.9 0 .9 0 -2.9v-2.9c0 -1.9 -3.8 -2.8 -11.5 -2.8H132.4c-7.6 0 -11.4 -1.9 -11.4 -5.8v-5.7m183.3 0v5.7c0 3.9 -3.8 5.8 -11.5 5.8H269.9c-7.6 0 -11.4 1.9 -11.4 5.7V301c0 1.9 0 .9 0 -2.9v-2.9c0 -1.9 -3.9 -2.8 -11.5 -2.8H224.1c-7.7 0 -11.5 -1.9 -11.5 -5.8v-5.7m183.4 0v5.7c0 3.9 -3.9 5.8 -11.5 5.8H361.6c-7.7 0 -11.5 1.9 -11.5 5.7V301c0 1.9 0 .9 0 -2.9v-2.9c0 -1.9 -3.8 -2.8 -11.4 -2.8h-23c-7.6 0 -11.4 -1.9 -11.4 -5.8v-5.7m183.3 0v5.7c0 3.9 -3.8 5.8 -11.4 5.8h-23c-7.6 0 -11.4 1.9 -11.4 5.7V301c0 1.9 0 .9 0 -2.9v-2.9c0 -1.9 -3.8 -2.8 -11.5 -2.8H407.4c-7.6 0 -11.4 -1.9 -11.4 -5.8v-5.7M120.6 338.2V320" class="g1_126"/>
<path d="M120.6 316.6l1.5 4.5L120.6 320l-1.5 1.1l1.5 -4.5Z" class="g3_126"/>
<path d="M120.6 316.6l1.5 4.5L120.6 320l-1.5 1.1l1.5 -4.5Zm92 21.6V320" class="g1_126"/>
<path d="M212.6 316.6l1.5 4.5L212.6 320l-1.5 1.1l1.5 -4.5Z" class="g3_126"/>
<path d="M212.6 316.6l1.5 4.5L212.6 320l-1.5 1.1l1.5 -4.5Zm91.7 21.6V320" class="g1_126"/>
<path d="M304.3 316.6l1.5 4.5L304.3 320l-1.5 1.1l1.5 -4.5Z" class="g3_126"/>
<path d="M304.3 316.6l1.5 4.5L304.3 320l-1.5 1.1l1.5 -4.5Zm91.1 21.6V320" class="g1_126"/>
<path d="M395.4 316.6l1.5 4.5L395.4 320l-1.5 1.1l1.5 -4.5Z" class="g3_126"/>
<path d="M395.4 316.6l1.5 4.5L395.4 320l-1.5 1.1l1.5 -4.5Zm92.2 21.6V320" class="g1_126"/>
<path d="M487.6 316.6l1.5 4.5L487.6 320l-1.5 1.1l1.5 -4.5Z" class="g3_126"/>
<path d="M487.6 316.6l1.5 4.5L487.6 320l-1.5 1.1l1.5 -4.5ZM210.5 131.9H141.4c-7.6 0 -11.5 3.9 -11.5 11.5V273.6" class="g1_126"/>
<path d="M129.9 279.6l-2.6 -8l2.6 2l2.7 -2l-2.7 8Z" class="g3_126"/>
<path d="M129.9 279.6l-2.6 -8l2.6 2l2.7 -2l-2.7 8ZM210.5 154.9H151.7c-7.6 0 -11.4 3.8 -11.4 11.4v80.2c0 7.7 3.8 11.5 11.4 11.5h69.9c7.6 0 11.5 2.6 11.5 7.8v7.8" class="g1_126"/>
<path d="M233.1 279.6l-2.7 -8l2.7 2l2.6 -2l-2.6 8Z" class="g3_126"/>
<path d="M233.1 279.6l-2.7 -8l2.7 2l2.6 -2l-2.6 8ZM210.5 177.8H164.3c-7.6 0 -11.4 3.8 -11.4 11.4v45.9c0 7.6 3.8 11.4 11.4 11.4h149c7.6 0 11.4 3.9 11.4 11.5v15.6" class="g1_126"/>
<path d="M324.7 279.6l-2.6 -8l2.6 2l2.7 -2l-2.7 8Z" class="g3_126"/>
<path d="M324.7 279.6l-2.6 -8l2.6 2l2.7 -2l-2.7 8ZM210.5 200.7H191.8c-7.6 0 -11.4 3.8 -11.4 11.5v11.4c0 7.7 3.8 11.5 11.4 11.5H404.9c7.7 0 11.5 3.8 11.5 11.4v27.1" class="g1_126"/>
<path d="M416.4 279.6l-2.7 -8l2.7 2l2.7 -2l-2.7 8Z" class="g3_126"/>
<path d="M416.4 279.6l-2.7 -8l2.7 2l2.7 -2l-2.7 8Z" class="g1_126"/>
</g>
<g clip-path="url(#c3_126)">
<path clip-path="url(#c1_126)" d="M96.2 711.9H640.5V827.6H96.2V711.9Z" class="g0_126"/>
<path d="M130 735.4H258.4c.6 0 1.3 0 2 .2c.6 .1 1.3 .3 1.9 .5c.6 .3 1.2 .6 1.8 1c.6 .4 1.1 .8 1.6 1.3c.4 .5 .9 1 1.2 1.5c.4 .6 .7 1.2 1 1.8c.2 .6 .4 1.3 .6 2c.1 .6 .2 1.3 .2 2v48.1c0 .7 -.1 1.3 -.2 2c-.2 .7 -.4 1.3 -.6 1.9c-.3 .7 -.6 1.3 -1 1.8c-.3 .6 -.8 1.1 -1.2 1.6c-.5 .5 -1 .9 -1.6 1.3c-.6 .3 -1.2 .7 -1.8 .9c-.6 .3 -1.3 .5 -1.9 .6c-.7 .1 -1.4 .2 -2 .2H130c-.6 0 -1.3 -.1 -2 -.2c-.6 -.1 -1.3 -.3 -1.9 -.6c-.6 -.2 -1.2 -.6 -1.8 -.9c-.6 -.4 -1.1 -.8 -1.6 -1.3c-.4 -.5 -.9 -1 -1.2 -1.6c-.4 -.5 -.7 -1.1 -1 -1.8c-.3 -.6 -.5 -1.2 -.6 -1.9c-.1 -.7 -.2 -1.3 -.2 -2V745.7c0 -.7 .1 -1.4 .2 -2c.1 -.7 .3 -1.4 .6 -2c.3 -.6 .6 -1.2 1 -1.8c.3 -.5 .8 -1 1.2 -1.5c.5 -.5 1 -.9 1.6 -1.3c.6 -.4 1.2 -.7 1.8 -1c.6 -.2 1.3 -.4 1.9 -.5c.7 -.2 1.4 -.2 2 -.2Z" class="g0_126"/>
<path d="M130 735.4H258.4c.6 0 1.3 0 2 .2c.6 .1 1.3 .3 1.9 .5c.6 .3 1.2 .6 1.8 1c.6 .4 1.1 .8 1.6 1.3c.4 .5 .9 1 1.2 1.5c.4 .6 .7 1.2 1 1.8c.2 .6 .4 1.3 .6 2c.1 .6 .2 1.3 .2 2v48.1c0 .7 -.1 1.3 -.2 2c-.2 .7 -.4 1.3 -.6 1.9c-.3 .7 -.6 1.3 -1 1.8c-.3 .6 -.8 1.1 -1.2 1.6c-.5 .5 -1 .9 -1.6 1.3c-.6 .3 -1.2 .7 -1.8 .9c-.6 .3 -1.3 .5 -1.9 .6c-.7 .1 -1.4 .2 -2 .2H130c-.6 0 -1.3 -.1 -2 -.2c-.6 -.1 -1.3 -.3 -1.9 -.6c-.6 -.2 -1.2 -.6 -1.8 -.9c-.6 -.4 -1.1 -.8 -1.6 -1.3c-.4 -.5 -.9 -1 -1.2 -1.6c-.4 -.5 -.7 -1.1 -1 -1.8c-.3 -.6 -.5 -1.2 -.6 -1.9c-.1 -.7 -.2 -1.3 -.2 -2V745.7c0 -.7 .1 -1.4 .2 -2c.1 -.7 .3 -1.4 .6 -2c.3 -.6 .6 -1.2 1 -1.8c.3 -.5 .8 -1 1.2 -1.5c.5 -.5 1 -.9 1.6 -1.3c.6 -.4 1.2 -.7 1.8 -1c.6 -.2 1.3 -.4 1.9 -.5c.7 -.2 1.4 -.2 2 -.2Z" class="g1_126"/>
<path d="M118.6 723.9H246.9c.7 0 1.4 .1 2 .2c.7 .1 1.3 .3 2 .6c.6 .2 1.2 .6 1.7 .9c.6 .4 1.1 .8 1.6 1.3c.5 .5 .9 1 1.3 1.6c.4 .5 .7 1.1 .9 1.8c.3 .6 .5 1.2 .6 1.9c.2 .7 .2 1.3 .2 2v48.1c0 .7 0 1.4 -.2 2c-.1 .7 -.3 1.4 -.6 2c-.2 .6 -.5 1.2 -.9 1.8c-.4 .5 -.8 1 -1.3 1.5c-.5 .5 -1 .9 -1.6 1.3c-.5 .4 -1.1 .7 -1.7 1c-.7 .2 -1.3 .4 -2 .5c-.6 .2 -1.3 .2 -2 .2H118.6c-.7 0 -1.4 0 -2 -.2c-.7 -.1 -1.3 -.3 -2 -.5c-.6 -.3 -1.2 -.6 -1.8 -1c-.5 -.4 -1 -.8 -1.5 -1.3c-.5 -.5 -.9 -1 -1.3 -1.5c-.4 -.6 -.7 -1.2 -1 -1.8c-.2 -.6 -.4 -1.3 -.5 -2c-.2 -.6 -.2 -1.3 -.2 -2V734.2c0 -.7 0 -1.3 .2 -2c.1 -.7 .3 -1.3 .5 -1.9c.3 -.7 .6 -1.3 1 -1.8c.4 -.6 .8 -1.1 1.3 -1.6c.5 -.5 1 -.9 1.5 -1.3c.6 -.3 1.2 -.7 1.8 -.9c.7 -.3 1.3 -.5 2 -.6c.6 -.1 1.3 -.2 2 -.2Z" class="g0_126"/>
<path d="M118.6 723.9H246.9c.7 0 1.4 .1 2 .2c.7 .1 1.3 .3 2 .6c.6 .2 1.2 .6 1.7 .9c.6 .4 1.1 .8 1.6 1.3c.5 .5 .9 1 1.3 1.6c.4 .5 .7 1.1 .9 1.8c.3 .6 .5 1.2 .6 1.9c.2 .7 .2 1.3 .2 2v48.1c0 .7 0 1.4 -.2 2c-.1 .7 -.3 1.4 -.6 2c-.2 .6 -.5 1.2 -.9 1.8c-.4 .5 -.8 1 -1.3 1.5c-.5 .5 -1 .9 -1.6 1.3c-.5 .4 -1.1 .7 -1.7 1c-.7 .2 -1.3 .4 -2 .5c-.6 .2 -1.3 .2 -2 .2H118.6c-.7 0 -1.4 0 -2 -.2c-.7 -.1 -1.3 -.3 -2 -.5c-.6 -.3 -1.2 -.6 -1.8 -1c-.5 -.4 -1 -.8 -1.5 -1.3c-.5 -.5 -.9 -1 -1.3 -1.5c-.4 -.6 -.7 -1.2 -1 -1.8c-.2 -.6 -.4 -1.3 -.5 -2c-.2 -.6 -.2 -1.3 -.2 -2V734.2c0 -.7 0 -1.3 .2 -2c.1 -.7 .3 -1.3 .5 -1.9c.3 -.7 .6 -1.3 1 -1.8c.4 -.6 .8 -1.1 1.3 -1.6c.5 -.5 1 -.9 1.5 -1.3c.6 -.3 1.2 -.7 1.8 -.9c.7 -.3 1.3 -.5 2 -.6c.6 -.1 1.3 -.2 2 -.2Z" class="g1_126"/>
<path d="M107.1 712.4H235.4c.7 0 1.4 .1 2.1 .2c.6 .2 1.3 .4 1.9 .6c.6 .3 1.2 .6 1.8 1c.5 .4 1.1 .8 1.5 1.3c.5 .4 .9 1 1.3 1.5c.4 .6 .7 1.2 1 1.8c.2 .6 .4 1.3 .6 1.9c.1 .7 .2 1.4 .2 2.1v48.1c0 .7 -.1 1.3 -.2 2c-.2 .7 -.4 1.3 -.6 1.9c-.3 .6 -.6 1.2 -1 1.8c-.4 .6 -.8 1.1 -1.3 1.6c-.4 .4 -1 .9 -1.5 1.3c-.6 .3 -1.2 .6 -1.8 .9c-.6 .3 -1.3 .5 -1.9 .6c-.7 .1 -1.4 .2 -2.1 .2H107.1c-.7 0 -1.3 -.1 -2 -.2c-.7 -.1 -1.3 -.3 -1.9 -.6c-.7 -.3 -1.3 -.6 -1.8 -.9c-.6 -.4 -1.1 -.9 -1.6 -1.3c-.5 -.5 -.9 -1 -1.3 -1.6c-.3 -.6 -.7 -1.2 -.9 -1.8c-.3 -.6 -.5 -1.2 -.6 -1.9c-.1 -.7 -.2 -1.3 -.2 -2V722.8c0 -.7 .1 -1.4 .2 -2.1c.1 -.6 .3 -1.3 .6 -1.9c.2 -.6 .6 -1.2 .9 -1.8c.4 -.5 .8 -1.1 1.3 -1.5c.5 -.5 1 -.9 1.6 -1.3c.5 -.4 1.1 -.7 1.8 -1c.6 -.2 1.2 -.4 1.9 -.6c.7 -.1 1.3 -.2 2 -.2Z" class="g0_126"/>
<path d="M107.1 712.4H235.4c.7 0 1.4 .1 2.1 .2c.6 .2 1.3 .4 1.9 .6c.6 .3 1.2 .6 1.8 1c.5 .4 1.1 .8 1.5 1.3c.5 .4 .9 1 1.3 1.5c.4 .6 .7 1.2 1 1.8c.2 .6 .4 1.3 .6 1.9c.1 .7 .2 1.4 .2 2.1v48.1c0 .7 -.1 1.3 -.2 2c-.2 .7 -.4 1.3 -.6 1.9c-.3 .6 -.6 1.2 -1 1.8c-.4 .6 -.8 1.1 -1.3 1.6c-.4 .4 -1 .9 -1.5 1.3c-.6 .3 -1.2 .6 -1.8 .9c-.6 .3 -1.3 .5 -1.9 .6c-.7 .1 -1.4 .2 -2.1 .2H107.1c-.7 0 -1.3 -.1 -2 -.2c-.7 -.1 -1.3 -.3 -1.9 -.6c-.7 -.3 -1.3 -.6 -1.8 -.9c-.6 -.4 -1.1 -.9 -1.6 -1.3c-.5 -.5 -.9 -1 -1.3 -1.6c-.3 -.6 -.7 -1.2 -.9 -1.8c-.3 -.6 -.5 -1.2 -.6 -1.9c-.1 -.7 -.2 -1.3 -.2 -2V722.8c0 -.7 .1 -1.4 .2 -2.1c.1 -.6 .3 -1.3 .6 -1.9c.2 -.6 .6 -1.2 .9 -1.8c.4 -.5 .8 -1.1 1.3 -1.5c.5 -.5 1 -.9 1.6 -1.3c.5 -.4 1.1 -.7 1.8 -1c.6 -.2 1.2 -.4 1.9 -.6c.7 -.1 1.3 -.2 2 -.2Z" class="g1_126"/>
<path d="M108.3 718.2h34.3v22.9H108.3V718.2Z" class="g0_126"/>
<path d="M108.3 718.2h34.3v22.9H108.3V718.2Z" class="g1_126"/>
<path d="M154.1 718.2h34.4v22.9H154.1V718.2Z" class="g0_126"/>
<path d="M154.1 718.2h34.4v22.9H154.1V718.2Z" class="g1_126"/>
<path d="M199.9 718.2h34.4v22.9H199.9V718.2Z" class="g0_126"/>
<path d="M199.9 718.2h34.4v22.9H199.9V718.2Z" class="g1_126"/>
<path d="M108.3 752.5h34.3v23H108.3v-23Z" class="g0_126"/>
<path d="M108.3 752.5h34.3v23H108.3v-23Z" class="g1_126"/>
<path d="M154.1 752.5h34.4v23H154.1v-23Z" class="g0_126"/>
<path d="M154.1 752.5h34.4v23H154.1v-23Z" class="g1_126"/>
<path d="M199.9 752.5h34.4v23H199.9v-23Z" class="g0_126"/>
<path d="M199.9 752.5h34.4v23H199.9v-23Z" class="g1_126"/>
<path d="M317.9 735.4H446.3c.7 0 1.3 0 2 .2c.7 .1 1.3 .3 1.9 .5c.7 .3 1.2 .6 1.8 1c.6 .4 1.1 .8 1.6 1.3c.4 .5 .9 1 1.3 1.5c.3 .6 .6 1.2 .9 1.8c.3 .6 .5 1.3 .6 2c.1 .6 .2 1.3 .2 2v48.1c0 .7 -.1 1.3 -.2 2c-.1 .7 -.3 1.3 -.6 1.9c-.3 .7 -.6 1.3 -.9 1.8c-.4 .6 -.9 1.1 -1.3 1.6c-.5 .5 -1 .9 -1.6 1.3c-.6 .3 -1.1 .7 -1.8 .9c-.6 .3 -1.2 .5 -1.9 .6c-.7 .1 -1.3 .2 -2 .2H317.9c-.6 0 -1.3 -.1 -2 -.2c-.6 -.1 -1.3 -.3 -1.9 -.6c-.6 -.2 -1.2 -.6 -1.8 -.9c-.5 -.4 -1.1 -.8 -1.5 -1.3c-.5 -.5 -1 -1 -1.3 -1.6c-.4 -.5 -.7 -1.1 -1 -1.8c-.2 -.6 -.4 -1.2 -.6 -1.9c-.1 -.7 -.2 -1.3 -.2 -2V745.7c0 -.7 .1 -1.4 .2 -2c.2 -.7 .4 -1.4 .6 -2c.3 -.6 .6 -1.2 1 -1.8c.3 -.5 .8 -1 1.3 -1.5c.4 -.5 1 -.9 1.5 -1.3c.6 -.4 1.2 -.7 1.8 -1c.6 -.2 1.3 -.4 1.9 -.5c.7 -.2 1.4 -.2 2 -.2Z" class="g0_126"/>
<path d="M317.9 735.4H446.3c.7 0 1.3 0 2 .2c.7 .1 1.3 .3 1.9 .5c.7 .3 1.2 .6 1.8 1c.6 .4 1.1 .8 1.6 1.3c.4 .5 .9 1 1.3 1.5c.3 .6 .6 1.2 .9 1.8c.3 .6 .5 1.3 .6 2c.1 .6 .2 1.3 .2 2v48.1c0 .7 -.1 1.3 -.2 2c-.1 .7 -.3 1.3 -.6 1.9c-.3 .7 -.6 1.3 -.9 1.8c-.4 .6 -.9 1.1 -1.3 1.6c-.5 .5 -1 .9 -1.6 1.3c-.6 .3 -1.1 .7 -1.8 .9c-.6 .3 -1.2 .5 -1.9 .6c-.7 .1 -1.3 .2 -2 .2H317.9c-.6 0 -1.3 -.1 -2 -.2c-.6 -.1 -1.3 -.3 -1.9 -.6c-.6 -.2 -1.2 -.6 -1.8 -.9c-.5 -.4 -1.1 -.8 -1.5 -1.3c-.5 -.5 -1 -1 -1.3 -1.6c-.4 -.5 -.7 -1.1 -1 -1.8c-.2 -.6 -.4 -1.2 -.6 -1.9c-.1 -.7 -.2 -1.3 -.2 -2V745.7c0 -.7 .1 -1.4 .2 -2c.2 -.7 .4 -1.4 .6 -2c.3 -.6 .6 -1.2 1 -1.8c.3 -.5 .8 -1 1.3 -1.5c.4 -.5 1 -.9 1.5 -1.3c.6 -.4 1.2 -.7 1.8 -1c.6 -.2 1.3 -.4 1.9 -.5c.7 -.2 1.4 -.2 2 -.2Z" class="g1_126"/>
<path d="M306.5 723.9H434.8c.7 0 1.4 .1 2 .2c.7 .1 1.3 .3 2 .6c.6 .2 1.2 .6 1.8 .9c.5 .4 1 .8 1.5 1.3c.5 .5 .9 1 1.3 1.6c.4 .5 .7 1.1 .9 1.8c.3 .6 .5 1.2 .6 1.9c.2 .7 .2 1.3 .2 2v48.1c0 .7 0 1.4 -.2 2c-.1 .7 -.3 1.4 -.6 2c-.2 .6 -.5 1.2 -.9 1.8c-.4 .5 -.8 1 -1.3 1.5c-.5 .5 -1 .9 -1.5 1.3c-.6 .4 -1.2 .7 -1.8 1c-.7 .2 -1.3 .4 -2 .5c-.6 .2 -1.3 .2 -2 .2H306.5c-.7 0 -1.4 0 -2 -.2c-.7 -.1 -1.3 -.3 -2 -.5c-.6 -.3 -1.2 -.6 -1.7 -1c-.6 -.4 -1.1 -.8 -1.6 -1.3c-.5 -.5 -.9 -1 -1.3 -1.5c-.4 -.6 -.7 -1.2 -.9 -1.8c-.3 -.6 -.5 -1.3 -.6 -2c-.2 -.6 -.2 -1.3 -.2 -2V734.2c0 -.7 0 -1.3 .2 -2c.1 -.7 .3 -1.3 .6 -1.9c.2 -.7 .5 -1.3 .9 -1.8c.4 -.6 .8 -1.1 1.3 -1.6c.5 -.5 1 -.9 1.6 -1.3c.5 -.3 1.1 -.7 1.7 -.9c.7 -.3 1.3 -.5 2 -.6c.6 -.1 1.3 -.2 2 -.2Z" class="g0_126"/>
<path d="M306.5 723.9H434.8c.7 0 1.4 .1 2 .2c.7 .1 1.3 .3 2 .6c.6 .2 1.2 .6 1.8 .9c.5 .4 1 .8 1.5 1.3c.5 .5 .9 1 1.3 1.6c.4 .5 .7 1.1 .9 1.8c.3 .6 .5 1.2 .6 1.9c.2 .7 .2 1.3 .2 2v48.1c0 .7 0 1.4 -.2 2c-.1 .7 -.3 1.4 -.6 2c-.2 .6 -.5 1.2 -.9 1.8c-.4 .5 -.8 1 -1.3 1.5c-.5 .5 -1 .9 -1.5 1.3c-.6 .4 -1.2 .7 -1.8 1c-.7 .2 -1.3 .4 -2 .5c-.6 .2 -1.3 .2 -2 .2H306.5c-.7 0 -1.4 0 -2 -.2c-.7 -.1 -1.3 -.3 -2 -.5c-.6 -.3 -1.2 -.6 -1.7 -1c-.6 -.4 -1.1 -.8 -1.6 -1.3c-.5 -.5 -.9 -1 -1.3 -1.5c-.4 -.6 -.7 -1.2 -.9 -1.8c-.3 -.6 -.5 -1.3 -.6 -2c-.2 -.6 -.2 -1.3 -.2 -2V734.2c0 -.7 0 -1.3 .2 -2c.1 -.7 .3 -1.3 .6 -1.9c.2 -.7 .5 -1.3 .9 -1.8c.4 -.6 .8 -1.1 1.3 -1.6c.5 -.5 1 -.9 1.6 -1.3c.5 -.3 1.1 -.7 1.7 -.9c.7 -.3 1.3 -.5 2 -.6c.6 -.1 1.3 -.2 2 -.2Z" class="g1_126"/>
<path d="M295 712.4H423.4c.6 0 1.3 .1 2 .2c.6 .2 1.3 .4 1.9 .6c.6 .3 1.2 .6 1.8 1c.6 .4 1.1 .8 1.6 1.3c.4 .4 .9 1 1.2 1.5c.4 .6 .7 1.2 1 1.8c.2 .6 .4 1.3 .6 1.9c.1 .7 .2 1.4 .2 2.1v48.1c0 .7 -.1 1.3 -.2 2c-.2 .7 -.4 1.3 -.6 1.9c-.3 .6 -.6 1.2 -1 1.8c-.3 .6 -.8 1.1 -1.2 1.6c-.5 .4 -1 .9 -1.6 1.3c-.6 .3 -1.2 .6 -1.8 .9c-.6 .3 -1.3 .5 -1.9 .6c-.7 .1 -1.4 .2 -2 .2H295c-.6 0 -1.3 -.1 -2 -.2c-.6 -.1 -1.3 -.3 -1.9 -.6c-.6 -.3 -1.2 -.6 -1.8 -.9c-.6 -.4 -1.1 -.9 -1.6 -1.3c-.4 -.5 -.9 -1 -1.2 -1.6c-.4 -.6 -.7 -1.2 -1 -1.8c-.3 -.6 -.5 -1.2 -.6 -1.9c-.1 -.7 -.2 -1.3 -.2 -2V722.8c0 -.7 .1 -1.4 .2 -2.1c.1 -.6 .3 -1.3 .6 -1.9c.3 -.6 .6 -1.2 1 -1.8c.3 -.5 .8 -1.1 1.2 -1.5c.5 -.5 1 -.9 1.6 -1.3c.6 -.4 1.2 -.7 1.8 -1c.6 -.2 1.3 -.4 1.9 -.6c.7 -.1 1.4 -.2 2 -.2Z" class="g0_126"/>
<path d="M295 712.4H423.4c.6 0 1.3 .1 2 .2c.6 .2 1.3 .4 1.9 .6c.6 .3 1.2 .6 1.8 1c.6 .4 1.1 .8 1.6 1.3c.4 .4 .9 1 1.2 1.5c.4 .6 .7 1.2 1 1.8c.2 .6 .4 1.3 .6 1.9c.1 .7 .2 1.4 .2 2.1v48.1c0 .7 -.1 1.3 -.2 2c-.2 .7 -.4 1.3 -.6 1.9c-.3 .6 -.6 1.2 -1 1.8c-.3 .6 -.8 1.1 -1.2 1.6c-.5 .4 -1 .9 -1.6 1.3c-.6 .3 -1.2 .6 -1.8 .9c-.6 .3 -1.3 .5 -1.9 .6c-.7 .1 -1.4 .2 -2 .2H295c-.6 0 -1.3 -.1 -2 -.2c-.6 -.1 -1.3 -.3 -1.9 -.6c-.6 -.3 -1.2 -.6 -1.8 -.9c-.6 -.4 -1.1 -.9 -1.6 -1.3c-.4 -.5 -.9 -1 -1.2 -1.6c-.4 -.6 -.7 -1.2 -1 -1.8c-.3 -.6 -.5 -1.2 -.6 -1.9c-.1 -.7 -.2 -1.3 -.2 -2V722.8c0 -.7 .1 -1.4 .2 -2.1c.1 -.6 .3 -1.3 .6 -1.9c.3 -.6 .6 -1.2 1 -1.8c.3 -.5 .8 -1.1 1.2 -1.5c.5 -.5 1 -.9 1.6 -1.3c.6 -.4 1.2 -.7 1.8 -1c.6 -.2 1.3 -.4 1.9 -.6c.7 -.1 1.4 -.2 2 -.2Z" class="g1_126"/>
<path d="M296.2 718.2h34.4v22.9H296.2V718.2Z" class="g0_126"/>
<path d="M296.2 718.2h34.4v22.9H296.2V718.2Z" class="g1_126"/>
<path d="M342 718.2h34.4v22.9H342V718.2Z" class="g0_126"/>
<path d="M342 718.2h34.4v22.9H342V718.2Z" class="g1_126"/>
<path d="M387.8 718.2h34.4v22.9H387.8V718.2Z" class="g0_126"/>
<path d="M387.8 718.2h34.4v22.9H387.8V718.2Z" class="g1_126"/>
<path d="M296.2 752.5h34.4v23H296.2v-23Z" class="g0_126"/>
<path d="M296.2 752.5h34.4v23H296.2v-23Z" class="g1_126"/>
<path d="M342 752.5h34.4v23H342v-23Z" class="g0_126"/>
<path d="M342 752.5h34.4v23H342v-23Z" class="g1_126"/>
<path d="M387.8 752.5h34.4v23H387.8v-23Z" class="g0_126"/>
<path d="M387.8 752.5h34.4v23H387.8v-23Z" class="g1_126"/>
<path d="M501.3 735.4H629.6c.7 0 1.4 0 2 .2c.7 .1 1.3 .3 2 .5c.6 .3 1.2 .6 1.7 1c.6 .4 1.1 .8 1.6 1.3c.5 .5 .9 1 1.3 1.5c.4 .6 .7 1.2 .9 1.8c.3 .6 .5 1.3 .6 2c.2 .6 .2 1.3 .2 2v48.1c0 .7 0 1.3 -.2 2c-.1 .7 -.3 1.3 -.6 1.9c-.2 .7 -.5 1.3 -.9 1.8c-.4 .6 -.8 1.1 -1.3 1.6c-.5 .5 -1 .9 -1.6 1.3c-.5 .3 -1.1 .7 -1.7 .9c-.7 .3 -1.3 .5 -2 .6c-.6 .1 -1.3 .2 -2 .2H501.3c-.7 0 -1.4 -.1 -2 -.2c-.7 -.1 -1.3 -.3 -2 -.6c-.6 -.2 -1.2 -.6 -1.8 -.9c-.5 -.4 -1 -.8 -1.5 -1.3c-.5 -.5 -.9 -1 -1.3 -1.6c-.4 -.5 -.7 -1.1 -.9 -1.8c-.3 -.6 -.5 -1.2 -.6 -1.9c-.2 -.7 -.2 -1.3 -.2 -2V745.7c0 -.7 0 -1.4 .2 -2c.1 -.7 .3 -1.4 .6 -2c.2 -.6 .5 -1.2 .9 -1.8c.4 -.5 .8 -1 1.3 -1.5c.5 -.5 1 -.9 1.5 -1.3c.6 -.4 1.2 -.7 1.8 -1c.7 -.2 1.3 -.4 2 -.5c.6 -.2 1.3 -.2 2 -.2Z" class="g0_126"/>
<path d="M501.3 735.4H629.6c.7 0 1.4 0 2 .2c.7 .1 1.3 .3 2 .5c.6 .3 1.2 .6 1.7 1c.6 .4 1.1 .8 1.6 1.3c.5 .5 .9 1 1.3 1.5c.4 .6 .7 1.2 .9 1.8c.3 .6 .5 1.3 .6 2c.2 .6 .2 1.3 .2 2v48.1c0 .7 0 1.3 -.2 2c-.1 .7 -.3 1.3 -.6 1.9c-.2 .7 -.5 1.3 -.9 1.8c-.4 .6 -.8 1.1 -1.3 1.6c-.5 .5 -1 .9 -1.6 1.3c-.5 .3 -1.1 .7 -1.7 .9c-.7 .3 -1.3 .5 -2 .6c-.6 .1 -1.3 .2 -2 .2H501.3c-.7 0 -1.4 -.1 -2 -.2c-.7 -.1 -1.3 -.3 -2 -.6c-.6 -.2 -1.2 -.6 -1.8 -.9c-.5 -.4 -1 -.8 -1.5 -1.3c-.5 -.5 -.9 -1 -1.3 -1.6c-.4 -.5 -.7 -1.1 -.9 -1.8c-.3 -.6 -.5 -1.2 -.6 -1.9c-.2 -.7 -.2 -1.3 -.2 -2V745.7c0 -.7 0 -1.4 .2 -2c.1 -.7 .3 -1.4 .6 -2c.2 -.6 .5 -1.2 .9 -1.8c.4 -.5 .8 -1 1.3 -1.5c.5 -.5 1 -.9 1.5 -1.3c.6 -.4 1.2 -.7 1.8 -1c.7 -.2 1.3 -.4 2 -.5c.6 -.2 1.3 -.2 2 -.2Z" class="g1_126"/>
<path d="M489.8 723.9H618.2c.6 0 1.3 .1 2 .2c.6 .1 1.3 .3 1.9 .6c.6 .2 1.2 .6 1.8 .9c.5 .4 1.1 .8 1.5 1.3c.5 .5 1 1 1.3 1.6c.4 .5 .7 1.1 1 1.8c.2 .6 .4 1.2 .6 1.9c.1 .7 .2 1.3 .2 2v48.1c0 .7 -.1 1.4 -.2 2c-.2 .7 -.4 1.4 -.6 2c-.3 .6 -.6 1.2 -1 1.8c-.3 .5 -.8 1 -1.3 1.5c-.4 .5 -1 .9 -1.5 1.3c-.6 .4 -1.2 .7 -1.8 1c-.6 .2 -1.3 .4 -1.9 .5c-.7 .2 -1.4 .2 -2 .2H489.8c-.7 0 -1.3 0 -2 -.2c-.7 -.1 -1.3 -.3 -1.9 -.5c-.7 -.3 -1.2 -.6 -1.8 -1c-.6 -.4 -1.1 -.8 -1.6 -1.3c-.5 -.5 -.9 -1 -1.3 -1.5c-.3 -.6 -.6 -1.2 -.9 -1.8c-.3 -.6 -.5 -1.3 -.6 -2c-.1 -.6 -.2 -1.3 -.2 -2V734.2c0 -.7 .1 -1.3 .2 -2c.1 -.7 .3 -1.3 .6 -1.9c.3 -.7 .6 -1.3 .9 -1.8c.4 -.6 .8 -1.1 1.3 -1.6c.5 -.5 1 -.9 1.6 -1.3c.6 -.3 1.1 -.7 1.8 -.9c.6 -.3 1.2 -.5 1.9 -.6c.7 -.1 1.3 -.2 2 -.2Z" class="g0_126"/>
<path d="M489.8 723.9H618.2c.6 0 1.3 .1 2 .2c.6 .1 1.3 .3 1.9 .6c.6 .2 1.2 .6 1.8 .9c.5 .4 1.1 .8 1.5 1.3c.5 .5 1 1 1.3 1.6c.4 .5 .7 1.1 1 1.8c.2 .6 .4 1.2 .6 1.9c.1 .7 .2 1.3 .2 2v48.1c0 .7 -.1 1.4 -.2 2c-.2 .7 -.4 1.4 -.6 2c-.3 .6 -.6 1.2 -1 1.8c-.3 .5 -.8 1 -1.3 1.5c-.4 .5 -1 .9 -1.5 1.3c-.6 .4 -1.2 .7 -1.8 1c-.6 .2 -1.3 .4 -1.9 .5c-.7 .2 -1.4 .2 -2 .2H489.8c-.7 0 -1.3 0 -2 -.2c-.7 -.1 -1.3 -.3 -1.9 -.5c-.7 -.3 -1.2 -.6 -1.8 -1c-.6 -.4 -1.1 -.8 -1.6 -1.3c-.5 -.5 -.9 -1 -1.3 -1.5c-.3 -.6 -.6 -1.2 -.9 -1.8c-.3 -.6 -.5 -1.3 -.6 -2c-.1 -.6 -.2 -1.3 -.2 -2V734.2c0 -.7 .1 -1.3 .2 -2c.1 -.7 .3 -1.3 .6 -1.9c.3 -.7 .6 -1.3 .9 -1.8c.4 -.6 .8 -1.1 1.3 -1.6c.5 -.5 1 -.9 1.6 -1.3c.6 -.3 1.1 -.7 1.8 -.9c.6 -.3 1.2 -.5 1.9 -.6c.7 -.1 1.3 -.2 2 -.2Z" class="g1_126"/>
<path d="M478.4 712.4H606.7c.7 0 1.3 .1 2 .2c.7 .2 1.3 .4 1.9 .6c.7 .3 1.3 .6 1.8 1c.6 .4 1.1 .8 1.6 1.3c.5 .4 .9 1 1.3 1.5c.3 .6 .7 1.2 .9 1.8c.3 .6 .5 1.3 .6 1.9c.1 .7 .2 1.4 .2 2.1v48.1c0 .7 -.1 1.3 -.2 2c-.1 .7 -.3 1.3 -.6 1.9c-.2 .6 -.6 1.2 -.9 1.8c-.4 .6 -.8 1.1 -1.3 1.6c-.5 .4 -1 .9 -1.6 1.3c-.5 .3 -1.1 .6 -1.8 .9c-.6 .3 -1.2 .5 -1.9 .6c-.7 .1 -1.3 .2 -2 .2H478.4c-.7 0 -1.4 -.1 -2 -.2c-.7 -.1 -1.4 -.3 -2 -.6c-.6 -.3 -1.2 -.6 -1.8 -.9c-.5 -.4 -1.1 -.9 -1.5 -1.3c-.5 -.5 -.9 -1 -1.3 -1.6c-.4 -.6 -.7 -1.2 -1 -1.8c-.2 -.6 -.4 -1.2 -.6 -1.9c-.1 -.7 -.2 -1.3 -.2 -2V722.8c0 -.7 .1 -1.4 .2 -2.1c.2 -.6 .4 -1.3 .6 -1.9c.3 -.6 .6 -1.2 1 -1.8c.4 -.5 .8 -1.1 1.3 -1.5c.4 -.5 1 -.9 1.5 -1.3c.6 -.4 1.2 -.7 1.8 -1c.6 -.2 1.3 -.4 2 -.6c.6 -.1 1.3 -.2 2 -.2Z" class="g0_126"/>
<path d="M478.4 712.4H606.7c.7 0 1.3 .1 2 .2c.7 .2 1.3 .4 1.9 .6c.7 .3 1.3 .6 1.8 1c.6 .4 1.1 .8 1.6 1.3c.5 .4 .9 1 1.3 1.5c.3 .6 .7 1.2 .9 1.8c.3 .6 .5 1.3 .6 1.9c.1 .7 .2 1.4 .2 2.1v48.1c0 .7 -.1 1.3 -.2 2c-.1 .7 -.3 1.3 -.6 1.9c-.2 .6 -.6 1.2 -.9 1.8c-.4 .6 -.8 1.1 -1.3 1.6c-.5 .4 -1 .9 -1.6 1.3c-.5 .3 -1.1 .6 -1.8 .9c-.6 .3 -1.2 .5 -1.9 .6c-.7 .1 -1.3 .2 -2 .2H478.4c-.7 0 -1.4 -.1 -2 -.2c-.7 -.1 -1.4 -.3 -2 -.6c-.6 -.3 -1.2 -.6 -1.8 -.9c-.5 -.4 -1.1 -.9 -1.5 -1.3c-.5 -.5 -.9 -1 -1.3 -1.6c-.4 -.6 -.7 -1.2 -1 -1.8c-.2 -.6 -.4 -1.2 -.6 -1.9c-.1 -.7 -.2 -1.3 -.2 -2V722.8c0 -.7 .1 -1.4 .2 -2.1c.2 -.6 .4 -1.3 .6 -1.9c.3 -.6 .6 -1.2 1 -1.8c.4 -.5 .8 -1.1 1.3 -1.5c.4 -.5 1 -.9 1.5 -1.3c.6 -.4 1.2 -.7 1.8 -1c.6 -.2 1.3 -.4 2 -.6c.6 -.1 1.3 -.2 2 -.2Z" class="g1_126"/>
<path d="M479.5 718.2h34.4v22.9H479.5V718.2Z" class="g0_126"/>
<path d="M479.5 718.2h34.4v22.9H479.5V718.2Z" class="g1_126"/>
<path d="M525.3 718.2h34.4v22.9H525.3V718.2Z" class="g0_126"/>
<path d="M525.3 718.2h34.4v22.9H525.3V718.2Z" class="g1_126"/>
<path d="M571.2 718.2h34.3v22.9H571.2V718.2Z" class="g0_126"/>
<path d="M571.2 718.2h34.3v22.9H571.2V718.2Z" class="g1_126"/>
<path d="M479.5 752.5h34.4v23H479.5v-23Z" class="g0_126"/>
<path d="M479.5 752.5h34.4v23H479.5v-23Z" class="g1_126"/>
<path d="M525.3 752.5h34.4v23H525.3v-23Z" class="g0_126"/>
<path d="M525.3 752.5h34.4v23H525.3v-23Z" class="g1_126"/>
<path d="M571.2 752.5h34.3v23H571.2v-23Z" class="g0_126"/>
<path d="M571.2 752.5h34.3v23H571.2v-23Z" class="g1_126"/>
</g>
<path d="M86.6 849.8H196.2" class="g4_126"/>
</svg>