<?xml version="1.0" encoding="UTF-8" standalone="no"?>
<!DOCTYPE svg PUBLIC "-//W3C//DTD SVG 1.1//EN"
"http://www.w3.org/Graphics/SVG/1.1/DTD/svg11.dtd">
<svg viewBox="0 0 714 1017" version="1.1" xmlns="http://www.w3.org/2000/svg" xmlns:xlink="http://www.w3.org/1999/xlink">
<defs>
<clipPath id="c0_285"><path d="M70.7 431.4V97H621.9V431.4Z"/></clipPath>
<clipPath id="c1_285"><path d="M70.7 431.4V96.8H622.3V431.4Z"/></clipPath>
<style type="text/css"><![CDATA[
.g0_285{
fill: #FFF;
}
.g1_285{
fill: none;
stroke: #000;
stroke-width: 1.145;
stroke-miterlimit: 10;
}
.g2_285{
fill: none;
stroke: #000;
stroke-width: 2.291;
stroke-miterlimit: 10;
}
.g3_285{
fill: #000;
}
]]></style>
</defs>
<path d="M0 1017.7H717.2V-3.7H0V1017.7Z" class="g0_285"/>
<g clip-path="url(#c1_285)">
<g clip-path="url(#c0_285)">
<path d="M70.7 97H621.9V431.6H70.7V97Z" class="g0_285"/>
<path d="M71.3 311.8c0 -39.7 550 -39.7 550 0v89.4c0 39.7 -550 39.7 -550 0V311.8Z" class="g0_285"/>
<path d="M71.3 311.8c0 -39.7 550 -39.7 550 0v89.4c0 39.7 -550 39.7 -550 0V311.8Zm0 0c0 29.8 550 29.8 550 0" class="g1_285"/>
</g>
<path d="M369.2 97.6H621.3V258H369.2V97.6Z" class="g0_285"/>
<path d="M369.2 97.6H621.3V258H369.2V97.6Z" class="g1_285"/>
<path d="M71.3 97.6H323.4V258H71.3V97.6Z" class="g0_285"/>
<path d="M71.3 97.6H323.4V258H71.3V97.6Z" class="g1_285"/>
<path d="M140 378.3c0 .8 0 1.7 -.1 2.5c-.1 .8 -.2 1.6 -.4 2.4c-.2 .8 -.4 1.6 -.7 2.4c-.3 .8 -.6 1.6 -.9 2.3c-.4 .8 -.8 1.6 -1.2 2.3c-.5 .7 -1 1.4 -1.5 2.1c-.5 .7 -1.1 1.4 -1.7 2c-.6 .6 -1.2 1.2 -1.8 1.8c-.7 .6 -1.4 1.2 -2.1 1.7c-.8 .5 -1.5 1 -2.3 1.5c-.8 .4 -1.6 .8 -2.4 1.2c-.8 .4 -1.7 .8 -2.5 1.1c-.9 .3 -1.8 .6 -2.7 .8c-.9 .3 -1.8 .5 -2.7 .6c-.9 .2 -1.9 .3 -2.8 .4c-.9 .1 -1.9 .1 -2.8 .1c-.9 0 -1.9 0 -2.8 -.1c-.9 -.1 -1.9 -.2 -2.8 -.4c-.9 -.1 -1.8 -.3 -2.7 -.6c-.9 -.2 -1.8 -.5 -2.7 -.8c-.8 -.3 -1.7 -.7 -2.5 -1.1c-.8 -.4 -1.6 -.8 -2.4 -1.2c-.8 -.5 -1.5 -1 -2.3 -1.5c-.7 -.5 -1.4 -1.1 -2.1 -1.7c-.6 -.6 -1.2 -1.2 -1.8 -1.8c-.6 -.6 -1.2 -1.3 -1.7 -2c-.5 -.7 -1 -1.4 -1.5 -2.1c-.4 -.7 -.8 -1.5 -1.2 -2.3c-.3 -.7 -.6 -1.5 -.9 -2.3c-.3 -.8 -.5 -1.6 -.7 -2.4c-.2 -.8 -.3 -1.6 -.4 -2.4c-.1 -.8 -.1 -1.7 -.1 -2.5c0 -.8 0 -1.6 .1 -2.5c.1 -.8 .2 -1.6 .4 -2.4c.2 -.8 .4 -1.6 .7 -2.4c.3 -.8 .6 -1.6 .9 -2.3c.4 -.8 .8 -1.6 1.2 -2.3c.5 -.7 1 -1.4 1.5 -2.1c.5 -.7 1.1 -1.4 1.7 -2c.6 -.6 1.2 -1.2 1.8 -1.8c.7 -.6 1.4 -1.2 2.1 -1.7c.8 -.5 1.5 -1 2.3 -1.5c.8 -.4 1.6 -.8 2.4 -1.2c.8 -.4 1.7 -.8 2.5 -1.1c.9 -.3 1.8 -.6 2.7 -.8c.9 -.3 1.8 -.5 2.7 -.6c.9 -.2 1.9 -.3 2.8 -.4c.9 -.1 1.9 -.1 2.8 -.1c.9 0 1.9 0 2.8 .1c.9 .1 1.9 .2 2.8 .4c.9 .1 1.8 .3 2.7 .6c.9 .2 1.8 .5 2.7 .8c.8 .3 1.7 .7 2.5 1.1c.8 .4 1.6 .8 2.4 1.2c.8 .5 1.5 1 2.3 1.5c.7 .5 1.4 1.1 2.1 1.7c.6 .6 1.2 1.2 1.8 1.8c.6 .6 1.2 1.3 1.7 2c.5 .7 1 1.4 1.5 2.1c.4 .7 .8 1.5 1.2 2.3c.3 .7 .6 1.5 .9 2.3c.3 .8 .5 1.6 .7 2.4c.2 .8 .3 1.6 .4 2.4c.1 .9 .1 1.7 .1 2.5Z" class="g0_285"/>
<path d="M140 378.3c0 .8 0 1.7 -.1 2.5c-.1 .8 -.2 1.6 -.4 2.4c-.2 .8 -.4 1.6 -.7 2.4c-.3 .8 -.6 1.6 -.9 2.3c-.4 .8 -.8 1.6 -1.2 2.3c-.5 .7 -1 1.4 -1.5 2.1c-.5 .7 -1.1 1.4 -1.7 2c-.6 .6 -1.2 1.2 -1.8 1.8c-.7 .6 -1.4 1.2 -2.1 1.7c-.8 .5 -1.5 1 -2.3 1.5c-.8 .4 -1.6 .8 -2.4 1.2c-.8 .4 -1.7 .8 -2.5 1.1c-.9 .3 -1.8 .6 -2.7 .8c-.9 .3 -1.8 .5 -2.7 .6c-.9 .2 -1.9 .3 -2.8 .4c-.9 .1 -1.9 .1 -2.8 .1c-.9 0 -1.9 0 -2.8 -.1c-.9 -.1 -1.9 -.2 -2.8 -.4c-.9 -.1 -1.8 -.3 -2.7 -.6c-.9 -.2 -1.8 -.5 -2.7 -.8c-.8 -.3 -1.7 -.7 -2.5 -1.1c-.8 -.4 -1.6 -.8 -2.4 -1.2c-.8 -.5 -1.5 -1 -2.3 -1.5c-.7 -.5 -1.4 -1.1 -2.1 -1.7c-.6 -.6 -1.2 -1.2 -1.8 -1.8c-.6 -.6 -1.2 -1.3 -1.7 -2c-.5 -.7 -1 -1.4 -1.5 -2.1c-.4 -.7 -.8 -1.5 -1.2 -2.3c-.3 -.7 -.6 -1.5 -.9 -2.3c-.3 -.8 -.5 -1.6 -.7 -2.4c-.2 -.8 -.3 -1.6 -.4 -2.4c-.1 -.8 -.1 -1.7 -.1 -2.5c0 -.8 0 -1.6 .1 -2.5c.1 -.8 .2 -1.6 .4 -2.4c.2 -.8 .4 -1.6 .7 -2.4c.3 -.8 .6 -1.6 .9 -2.3c.4 -.8 .8 -1.6 1.2 -2.3c.5 -.7 1 -1.4 1.5 -2.1c.5 -.7 1.1 -1.4 1.7 -2c.6 -.6 1.2 -1.2 1.8 -1.8c.7 -.6 1.4 -1.2 2.1 -1.7c.8 -.5 1.5 -1 2.3 -1.5c.8 -.4 1.6 -.8 2.4 -1.2c.8 -.4 1.7 -.8 2.5 -1.1c.9 -.3 1.8 -.6 2.7 -.8c.9 -.3 1.8 -.5 2.7 -.6c.9 -.2 1.9 -.3 2.8 -.4c.9 -.1 1.9 -.1 2.8 -.1c.9 0 1.9 0 2.8 .1c.9 .1 1.9 .2 2.8 .4c.9 .1 1.8 .3 2.7 .6c.9 .2 1.8 .5 2.7 .8c.8 .3 1.7 .7 2.5 1.1c.8 .4 1.6 .8 2.4 1.2c.8 .5 1.5 1 2.3 1.5c.7 .5 1.4 1.1 2.1 1.7c.6 .6 1.2 1.2 1.8 1.8c.6 .6 1.2 1.3 1.7 2c.5 .7 1 1.4 1.5 2.1c.4 .7 .8 1.5 1.2 2.3c.3 .7 .6 1.5 .9 2.3c.3 .8 .5 1.6 .7 2.4c.2 .8 .3 1.6 .4 2.4c.1 .9 .1 1.7 .1 2.5Zm-28.6 25.2H140" class="g2_285"/>
<path d="M609.8 378.3c0 .8 0 1.7 -.1 2.5c-.1 .8 -.2 1.6 -.4 2.4c-.2 .8 -.4 1.6 -.7 2.4c-.3 .8 -.6 1.6 -.9 2.3c-.4 .8 -.8 1.6 -1.2 2.3c-.5 .7 -1 1.4 -1.5 2.1c-.5 .7 -1.1 1.4 -1.7 2c-.6 .6 -1.2 1.2 -1.9 1.8c-.6 .6 -1.3 1.2 -2 1.7c-.8 .5 -1.5 1 -2.3 1.5c-.8 .4 -1.6 .8 -2.4 1.2c-.8 .4 -1.7 .8 -2.5 1.1c-.9 .3 -1.8 .6 -2.7 .8c-.9 .3 -1.8 .5 -2.7 .6c-.9 .2 -1.9 .3 -2.8 .4c-.9 .1 -1.9 .1 -2.8 .1c-.9 0 -1.9 0 -2.8 -.1c-.9 -.1 -1.9 -.2 -2.8 -.4c-.9 -.1 -1.8 -.3 -2.7 -.6c-.9 -.2 -1.8 -.5 -2.7 -.8c-.8 -.3 -1.7 -.7 -2.5 -1.1c-.8 -.4 -1.6 -.8 -2.4 -1.2c-.8 -.5 -1.6 -1 -2.3 -1.5c-.7 -.5 -1.4 -1.1 -2.1 -1.7c-.6 -.6 -1.3 -1.2 -1.9 -1.8c-.5 -.6 -1.1 -1.3 -1.6 -2c-.5 -.7 -1 -1.4 -1.5 -2.1c-.4 -.7 -.8 -1.5 -1.2 -2.3c-.3 -.7 -.6 -1.5 -.9 -2.3c-.3 -.8 -.5 -1.6 -.7 -2.4c-.2 -.8 -.3 -1.6 -.4 -2.4c-.1 -.8 -.2 -1.7 -.2 -2.5c0 -.8 .1 -1.6 .2 -2.5c.1 -.8 .2 -1.6 .4 -2.4c.2 -.8 .4 -1.6 .7 -2.4c.3 -.8 .6 -1.6 .9 -2.3c.4 -.8 .8 -1.6 1.2 -2.3c.5 -.7 1 -1.4 1.5 -2.1c.5 -.7 1.1 -1.4 1.6 -2c.6 -.6 1.3 -1.2 1.9 -1.8c.7 -.6 1.4 -1.2 2.1 -1.7c.7 -.5 1.5 -1 2.3 -1.5c.8 -.4 1.6 -.8 2.4 -1.2c.8 -.4 1.7 -.8 2.5 -1.1c.9 -.3 1.8 -.6 2.7 -.8c.9 -.3 1.8 -.5 2.7 -.6c.9 -.2 1.9 -.3 2.8 -.4c.9 -.1 1.9 -.1 2.8 -.1c.9 0 1.9 0 2.8 .1c.9 .1 1.9 .2 2.8 .4c.9 .1 1.8 .3 2.7 .6c.9 .2 1.8 .5 2.7 .8c.8 .3 1.7 .7 2.5 1.1c.8 .4 1.6 .8 2.4 1.2c.8 .5 1.5 1 2.3 1.5c.7 .5 1.4 1.1 2 1.7c.7 .6 1.3 1.2 1.9 1.8c.6 .6 1.2 1.3 1.7 2c.5 .7 1 1.4 1.5 2.1c.4 .7 .8 1.5 1.2 2.3c.3 .7 .6 1.5 .9 2.3c.3 .8 .5 1.6 .7 2.4c.2 .8 .3 1.6 .4 2.4c.1 .9 .1 1.7 .1 2.5Z" class="g0_285"/>
<path d="M609.8 378.3c0 .8 0 1.7 -.1 2.5c-.1 .8 -.2 1.6 -.4 2.4c-.2 .8 -.4 1.6 -.7 2.4c-.3 .8 -.6 1.6 -.9 2.3c-.4 .8 -.8 1.6 -1.2 2.3c-.5 .7 -1 1.4 -1.5 2.1c-.5 .7 -1.1 1.4 -1.7 2c-.6 .6 -1.2 1.2 -1.9 1.8c-.6 .6 -1.3 1.2 -2 1.7c-.8 .5 -1.5 1 -2.3 1.5c-.8 .4 -1.6 .8 -2.4 1.2c-.8 .4 -1.7 .8 -2.5 1.1c-.9 .3 -1.8 .6 -2.7 .8c-.9 .3 -1.8 .5 -2.7 .6c-.9 .2 -1.9 .3 -2.8 .4c-.9 .1 -1.9 .1 -2.8 .1c-.9 0 -1.9 0 -2.8 -.1c-.9 -.1 -1.9 -.2 -2.8 -.4c-.9 -.1 -1.8 -.3 -2.7 -.6c-.9 -.2 -1.8 -.5 -2.7 -.8c-.8 -.3 -1.7 -.7 -2.5 -1.1c-.8 -.4 -1.6 -.8 -2.4 -1.2c-.8 -.5 -1.6 -1 -2.3 -1.5c-.7 -.5 -1.4 -1.1 -2.1 -1.7c-.6 -.6 -1.3 -1.2 -1.9 -1.8c-.5 -.6 -1.1 -1.3 -1.6 -2c-.5 -.7 -1 -1.4 -1.5 -2.1c-.4 -.7 -.8 -1.5 -1.2 -2.3c-.3 -.7 -.6 -1.5 -.9 -2.3c-.3 -.8 -.5 -1.6 -.7 -2.4c-.2 -.8 -.3 -1.6 -.4 -2.4c-.1 -.8 -.2 -1.7 -.2 -2.5c0 -.8 .1 -1.6 .2 -2.5c.1 -.8 .2 -1.6 .4 -2.4c.2 -.8 .4 -1.6 .7 -2.4c.3 -.8 .6 -1.6 .9 -2.3c.4 -.8 .8 -1.6 1.2 -2.3c.5 -.7 1 -1.4 1.5 -2.1c.5 -.7 1.1 -1.4 1.6 -2c.6 -.6 1.3 -1.2 1.9 -1.8c.7 -.6 1.4 -1.2 2.1 -1.7c.7 -.5 1.5 -1 2.3 -1.5c.8 -.4 1.6 -.8 2.4 -1.2c.8 -.4 1.7 -.8 2.5 -1.1c.9 -.3 1.8 -.6 2.7 -.8c.9 -.3 1.8 -.5 2.7 -.6c.9 -.2 1.9 -.3 2.8 -.4c.9 -.1 1.9 -.1 2.8 -.1c.9 0 1.9 0 2.8 .1c.9 .1 1.9 .2 2.8 .4c.9 .1 1.8 .3 2.7 .6c.9 .2 1.8 .5 2.7 .8c.8 .3 1.7 .7 2.5 1.1c.8 .4 1.6 .8 2.4 1.2c.8 .5 1.5 1 2.3 1.5c.7 .5 1.4 1.1 2 1.7c.7 .6 1.3 1.2 1.9 1.8c.6 .6 1.2 1.3 1.7 2c.5 .7 1 1.4 1.5 2.1c.4 .7 .8 1.5 1.2 2.3c.3 .7 .6 1.5 .9 2.3c.3 .8 .5 1.6 .7 2.4c.2 .8 .3 1.6 .4 2.4c.1 .9 .1 1.7 .1 2.5Zm-28.6 25.2h28.6" class="g2_285"/>
<path d="M220.3 164l17.1 11.7h-11V189h11l-17.1 11.7L203.1 189h11V175.7h-11L220.3 164Z" class="g0_285"/>
<path d="M220.3 164l17.1 11.7h-11V189h11l-17.1 11.7L203.1 189h11V175.7h-11L220.3 164Z" class="g1_285"/>
<path d="M472.3 164l17.2 11.7h-11V189h11l-17.2 11.7L455.2 189h11V175.7h-11L472.3 164Z" class="g0_285"/>
<path d="M472.3 164l17.2 11.7h-11V189h11l-17.2 11.7L455.2 189h11V175.7h-11L472.3 164Z" class="g1_285"/>
<path d="M111.4 246.5v97.2" class="g2_285"/>
<path d="M111.4 350.5l-3.1 -9.1l3.1 2.3l3.1 -2.3l-3.1 9.1Z" class="g3_285"/>
<path d="M111.4 350.5l-3.1 -9.1l3.1 2.3l3.1 -2.3l-3.1 9.1Z" class="g2_285"/>
<path d="M87.9 212.2h47c.7 0 1.3 .1 2 .3c.6 .3 1.2 .7 1.6 1.2c.5 .5 .9 1 1.2 1.6c.2 .7 .3 1.3 .3 2v24.1c0 .7 -.1 1.3 -.3 1.9c-.3 .7 -.7 1.2 -1.2 1.7c-.4 .5 -1 .9 -1.6 1.1c-.7 .3 -1.3 .4 -2 .4h-47c-.7 0 -1.3 -.1 -2 -.4c-.6 -.2 -1.2 -.6 -1.6 -1.1c-.5 -.5 -.9 -1 -1.2 -1.7c-.2 -.6 -.3 -1.2 -.3 -1.9V217.3c0 -.7 .1 -1.3 .3 -2c.3 -.6 .7 -1.1 1.2 -1.6c.4 -.5 1 -.9 1.6 -1.2c.7 -.2 1.3 -.3 2 -.3Z" class="g0_285"/>
<path d="M87.9 212.2h47c.7 0 1.3 .1 2 .3c.6 .3 1.2 .7 1.6 1.2c.5 .5 .9 1 1.2 1.6c.2 .7 .3 1.3 .3 2v24.1c0 .7 -.1 1.3 -.3 1.9c-.3 .7 -.7 1.2 -1.2 1.7c-.4 .5 -1 .9 -1.6 1.1c-.7 .3 -1.3 .4 -2 .4h-47c-.7 0 -1.3 -.1 -2 -.4c-.6 -.2 -1.2 -.6 -1.6 -1.1c-.5 -.5 -.9 -1 -1.2 -1.7c-.2 -.6 -.3 -1.2 -.3 -1.9V217.3c0 -.7 .1 -1.3 .3 -2c.3 -.6 .7 -1.1 1.2 -1.6c.4 -.5 1 -.9 1.6 -1.2c.7 -.2 1.3 -.3 2 -.3Z" class="g1_285"/>
<path d="M557.7 212.2h47c.7 0 1.3 .1 2 .3c.6 .3 1.1 .7 1.6 1.2c.5 .5 .9 1 1.1 1.6c.3 .7 .4 1.3 .4 2v24.1c0 .7 -.1 1.3 -.4 1.9c-.2 .7 -.6 1.2 -1.1 1.7c-.5 .5 -1 .9 -1.6 1.1c-.7 .3 -1.3 .4 -2 .4h-47c-.7 0 -1.3 -.1 -2 -.4c-.6 -.2 -1.2 -.6 -1.6 -1.1c-.5 -.5 -.9 -1 -1.2 -1.7c-.2 -.6 -.4 -1.2 -.4 -1.9V217.3c0 -.7 .2 -1.3 .4 -2c.3 -.6 .7 -1.1 1.2 -1.6c.4 -.5 1 -.9 1.6 -1.2c.7 -.2 1.3 -.3 2 -.3Z" class="g0_285"/>
<path d="M557.7 212.2h47c.7 0 1.3 .1 2 .3c.6 .3 1.1 .7 1.6 1.2c.5 .5 .9 1 1.1 1.6c.3 .7 .4 1.3 .4 2v24.1c0 .7 -.1 1.3 -.4 1.9c-.2 .7 -.6 1.2 -1.1 1.7c-.5 .5 -1 .9 -1.6 1.1c-.7 .3 -1.3 .4 -2 .4h-47c-.7 0 -1.3 -.1 -2 -.4c-.6 -.2 -1.2 -.6 -1.6 -1.1c-.5 -.5 -.9 -1 -1.2 -1.7c-.2 -.6 -.4 -1.2 -.4 -1.9V217.3c0 -.7 .2 -1.3 .4 -2c.3 -.6 .7 -1.1 1.2 -1.6c.4 -.5 1 -.9 1.6 -1.2c.7 -.2 1.3 -.3 2 -.3Z" class="g1_285"/>
<path d="M581.2 246.5v97.2" class="g2_285"/>
<path d="M581.2 350.5l-3.1 -9.1l3.1 2.3l3.1 -2.3l-3.1 9.1Z" class="g3_285"/>
<path d="M581.2 350.5l-3.1 -9.1l3.1 2.3l3.1 -2.3l-3.1 9.1Z" class="g2_285"/>
<path d="M151.5 107.9h22.9v22.9H151.5V107.9Z" class="g0_285"/>
<path d="M151.5 107.9h22.9v22.9H151.5V107.9Z" class="g1_285"/>
<path d="M174.4 107.9h22.9v22.9H174.4V107.9Z" class="g0_285"/>
<path d="M174.4 107.9h22.9v22.9H174.4V107.9Z" class="g1_285"/>
<path d="M197.3 107.9h23v22.9h-23V107.9Z" class="g0_285"/>
<path d="M197.3 107.9h23v22.9h-23V107.9Z" class="g1_285"/>
<path d="M220.3 107.9h22.9v22.9H220.3V107.9Z" class="g0_285"/>
<path d="M220.3 107.9h22.9v22.9H220.3V107.9Z" class="g1_285"/>
<path d="M220.3 130.8h22.9v22.9H220.3V130.8Z" class="g0_285"/>
<path d="M220.3 130.8h22.9v22.9H220.3V130.8Z" class="g1_285"/>
<path d="M197.3 130.8h23v22.9h-23V130.8Z" class="g0_285"/>
<path d="M197.3 130.8h23v22.9h-23V130.8Z" class="g1_285"/>
<path d="M174.4 130.8h22.9v22.9H174.4V130.8Z" class="g0_285"/>
<path d="M174.4 130.8h22.9v22.9H174.4V130.8Z" class="g1_285"/>
<path d="M151.5 130.8h22.9v22.9H151.5V130.8Z" class="g0_285"/>
<path d="M151.5 130.8h22.9v22.9H151.5V130.8Z" class="g1_285"/>
<path d="M243.2 107.9h22.9v22.9H243.2V107.9Z" class="g0_285"/>
<path d="M243.2 107.9h22.9v22.9H243.2V107.9Z" class="g1_285"/>
<path d="M266.1 107.9H289v22.9H266.1V107.9Z" class="g0_285"/>
<path d="M266.1 107.9H289v22.9H266.1V107.9Z" class="g1_285"/>
<path d="M266.1 130.8H289v22.9H266.1V130.8Z" class="g0_285"/>
<path d="M266.1 130.8H289v22.9H266.1V130.8Z" class="g1_285"/>
<path d="M243.2 130.8h22.9v22.9H243.2V130.8Z" class="g0_285"/>
<path d="M243.2 130.8h22.9v22.9H243.2V130.8Z" class="g1_285"/>
<path d="M289 107.9h22.9v22.9H289V107.9Z" class="g0_285"/>
<path d="M289 107.9h22.9v22.9H289V107.9Z" class="g1_285"/>
<path d="M289 130.8h22.9v22.9H289V130.8Z" class="g0_285"/>
<path d="M289 130.8h22.9v22.9H289V130.8Z" class="g1_285"/>
<path d="M403.6 107.9h22.9v22.9H403.6V107.9Z" class="g0_285"/>
<path d="M403.6 107.9h22.9v22.9H403.6V107.9Z" class="g1_285"/>
<path d="M426.5 107.9h22.9v22.9H426.5V107.9Z" class="g0_285"/>
<path d="M426.5 107.9h22.9v22.9H426.5V107.9Z" class="g1_285"/>
<path d="M449.4 107.9h22.9v22.9H449.4V107.9Z" class="g0_285"/>
<path d="M449.4 107.9h22.9v22.9H449.4V107.9Z" class="g1_285"/>
<path d="M472.3 107.9h23v22.9h-23V107.9Z" class="g0_285"/>
<path d="M472.3 107.9h23v22.9h-23V107.9Z" class="g1_285"/>
<path d="M472.3 130.8h23v22.9h-23V130.8Z" class="g0_285"/>
<path d="M472.3 130.8h23v22.9h-23V130.8Z" class="g1_285"/>
<path d="M449.4 130.8h22.9v22.9H449.4V130.8Z" class="g0_285"/>
<path d="M449.4 130.8h22.9v22.9H449.4V130.8Z" class="g1_285"/>
<path d="M426.5 130.8h22.9v22.9H426.5V130.8Z" class="g0_285"/>
<path d="M426.5 130.8h22.9v22.9H426.5V130.8Z" class="g1_285"/>
<path d="M403.6 130.8h22.9v22.9H403.6V130.8Z" class="g0_285"/>
<path d="M403.6 130.8h22.9v22.9H403.6V130.8Z" class="g1_285"/>
<path d="M495.3 107.9h22.9v22.9H495.3V107.9Z" class="g0_285"/>
<path d="M495.3 107.9h22.9v22.9H495.3V107.9Z" class="g1_285"/>
<path d="M518.2 107.9h22.9v22.9H518.2V107.9Z" class="g0_285"/>
<path d="M518.2 107.9h22.9v22.9H518.2V107.9Z" class="g1_285"/>
<path d="M518.2 130.8h22.9v22.9H518.2V130.8Z" class="g0_285"/>
<path d="M518.2 130.8h22.9v22.9H518.2V130.8Z" class="g1_285"/>
<path d="M495.3 130.8h22.9v22.9H495.3V130.8Z" class="g0_285"/>
<path d="M495.3 130.8h22.9v22.9H495.3V130.8Z" class="g1_285"/>
<path d="M380.7 107.9h22.9v22.9H380.7V107.9Z" class="g0_285"/>
<path d="M380.7 107.9h22.9v22.9H380.7V107.9Z" class="g1_285"/>
<path d="M380.7 130.8h22.9v22.9H380.7V130.8Z" class="g0_285"/>
<path d="M380.7 130.8h22.9v22.9H380.7V130.8Z" class="g1_285"/>
<path d="M384.7 212.2h47c.6 0 1.3 .1 1.9 .3c.7 .3 1.2 .7 1.7 1.2c.5 .5 .9 1 1.1 1.6c.3 .7 .4 1.3 .4 2v24.1c0 .7 -.1 1.3 -.4 1.9c-.2 .7 -.6 1.2 -1.1 1.7c-.5 .5 -1 .9 -1.7 1.1c-.6 .3 -1.3 .4 -1.9 .4h-47c-.7 0 -1.4 -.1 -2 -.4c-.6 -.2 -1.2 -.6 -1.7 -1.1c-.4 -.5 -.8 -1 -1.1 -1.7c-.2 -.6 -.4 -1.2 -.4 -1.9V217.3c0 -.7 .2 -1.3 .4 -2c.3 -.6 .7 -1.1 1.1 -1.6c.5 -.5 1.1 -.9 1.7 -1.2c.6 -.2 1.3 -.3 2 -.3Z" class="g0_285"/>
<path d="M384.7 212.2h47c.6 0 1.3 .1 1.9 .3c.7 .3 1.2 .7 1.7 1.2c.5 .5 .9 1 1.1 1.6c.3 .7 .4 1.3 .4 2v24.1c0 .7 -.1 1.3 -.4 1.9c-.2 .7 -.6 1.2 -1.1 1.7c-.5 .5 -1 .9 -1.7 1.1c-.6 .3 -1.3 .4 -1.9 .4h-47c-.7 0 -1.4 -.1 -2 -.4c-.6 -.2 -1.2 -.6 -1.7 -1.1c-.4 -.5 -.8 -1 -1.1 -1.7c-.2 -.6 -.4 -1.2 -.4 -1.9V217.3c0 -.7 .2 -1.3 .4 -2c.3 -.6 .7 -1.1 1.1 -1.6c.5 -.5 1.1 -.9 1.7 -1.2c.6 -.2 1.3 -.3 2 -.3Z" class="g1_285"/>
<path d="M396.1 212.2h47c.7 0 1.4 .1 2 .3c.6 .3 1.2 .7 1.7 1.2c.4 .5 .8 1 1.1 1.6c.2 .7 .4 1.3 .4 2v24.1c0 .7 -.2 1.3 -.4 1.9c-.3 .7 -.7 1.2 -1.1 1.7c-.5 .5 -1.1 .9 -1.7 1.1c-.6 .3 -1.3 .4 -2 .4h-47c-.6 0 -1.3 -.1 -1.9 -.4c-.7 -.2 -1.2 -.6 -1.7 -1.1c-.5 -.5 -.9 -1 -1.1 -1.7c-.3 -.6 -.4 -1.2 -.4 -1.9V217.3c0 -.7 .1 -1.3 .4 -2c.2 -.6 .6 -1.1 1.1 -1.6c.5 -.5 1 -.9 1.7 -1.2c.6 -.2 1.3 -.3 1.9 -.3Z" class="g0_285"/>
<path d="M396.1 212.2h47c.7 0 1.4 .1 2 .3c.6 .3 1.2 .7 1.7 1.2c.4 .5 .8 1 1.1 1.6c.2 .7 .4 1.3 .4 2v24.1c0 .7 -.2 1.3 -.4 1.9c-.3 .7 -.7 1.2 -1.1 1.7c-.5 .5 -1.1 .9 -1.7 1.1c-.6 .3 -1.3 .4 -2 .4h-47c-.6 0 -1.3 -.1 -1.9 -.4c-.7 -.2 -1.2 -.6 -1.7 -1.1c-.5 -.5 -.9 -1 -1.1 -1.7c-.3 -.6 -.4 -1.2 -.4 -1.9V217.3c0 -.7 .1 -1.3 .4 -2c.2 -.6 .6 -1.1 1.1 -1.6c.5 -.5 1 -.9 1.7 -1.2c.6 -.2 1.3 -.3 1.9 -.3Z" class="g1_285"/>
<path d="M407.6 212.2h47c.7 0 1.3 .1 2 .3c.6 .3 1.1 .7 1.6 1.2c.5 .5 .9 1 1.1 1.6c.3 .7 .4 1.3 .4 2v24.1c0 .7 -.1 1.3 -.4 1.9c-.2 .7 -.6 1.2 -1.1 1.7c-.5 .5 -1 .9 -1.6 1.1c-.7 .3 -1.3 .4 -2 .4h-47c-.7 0 -1.3 -.1 -2 -.4c-.6 -.2 -1.2 -.6 -1.6 -1.1c-.5 -.5 -.9 -1 -1.2 -1.7c-.2 -.6 -.4 -1.2 -.4 -1.9V217.3c0 -.7 .2 -1.3 .4 -2c.3 -.6 .7 -1.1 1.2 -1.6c.4 -.5 1 -.9 1.6 -1.2c.7 -.2 1.3 -.3 2 -.3Z" class="g0_285"/>
<path d="M407.6 212.2h47c.7 0 1.3 .1 2 .3c.6 .3 1.1 .7 1.6 1.2c.5 .5 .9 1 1.1 1.6c.3 .7 .4 1.3 .4 2v24.1c0 .7 -.1 1.3 -.4 1.9c-.2 .7 -.6 1.2 -1.1 1.7c-.5 .5 -1 .9 -1.6 1.1c-.7 .3 -1.3 .4 -2 .4h-47c-.7 0 -1.3 -.1 -2 -.4c-.6 -.2 -1.2 -.6 -1.6 -1.1c-.5 -.5 -.9 -1 -1.2 -1.7c-.2 -.6 -.4 -1.2 -.4 -1.9V217.3c0 -.7 .2 -1.3 .4 -2c.3 -.6 .7 -1.1 1.2 -1.6c.4 -.5 1 -.9 1.6 -1.2c.7 -.2 1.3 -.3 2 -.3Z" class="g1_285"/>
<path d="M419.1 212.2H466c.7 0 1.4 .1 2 .3c.6 .3 1.2 .7 1.7 1.2c.5 .5 .8 1 1.1 1.6c.3 .7 .4 1.3 .4 2v24.1c0 .7 -.1 1.3 -.4 1.9c-.3 .7 -.6 1.2 -1.1 1.7c-.5 .5 -1.1 .9 -1.7 1.1c-.6 .3 -1.3 .4 -2 .4H419.1c-.7 0 -1.4 -.1 -2 -.4c-.6 -.2 -1.2 -.6 -1.7 -1.1c-.5 -.5 -.8 -1 -1.1 -1.7c-.3 -.6 -.4 -1.2 -.4 -1.9V217.3c0 -.7 .1 -1.3 .4 -2c.3 -.6 .6 -1.1 1.1 -1.6c.5 -.5 1.1 -.9 1.7 -1.2c.6 -.2 1.3 -.3 2 -.3Z" class="g0_285"/>
<path d="M419.1 212.2H466c.7 0 1.4 .1 2 .3c.6 .3 1.2 .7 1.7 1.2c.5 .5 .8 1 1.1 1.6c.3 .7 .4 1.3 .4 2v24.1c0 .7 -.1 1.3 -.4 1.9c-.3 .7 -.6 1.2 -1.1 1.7c-.5 .5 -1.1 .9 -1.7 1.1c-.6 .3 -1.3 .4 -2 .4H419.1c-.7 0 -1.4 -.1 -2 -.4c-.6 -.2 -1.2 -.6 -1.7 -1.1c-.5 -.5 -.8 -1 -1.1 -1.7c-.3 -.6 -.4 -1.2 -.4 -1.9V217.3c0 -.7 .1 -1.3 .4 -2c.3 -.6 .6 -1.1 1.1 -1.6c.5 -.5 1.1 -.9 1.7 -1.2c.6 -.2 1.3 -.3 2 -.3Z" class="g1_285"/>
<path d="M430.5 212.2h47c.7 0 1.3 .1 2 .3c.6 .3 1.2 .7 1.6 1.2c.5 .5 .9 1 1.2 1.6c.2 .7 .4 1.3 .4 2v24.1c0 .7 -.2 1.3 -.4 1.9c-.3 .7 -.7 1.2 -1.2 1.7c-.4 .5 -1 .9 -1.6 1.1c-.7 .3 -1.3 .4 -2 .4h-47c-.7 0 -1.3 -.1 -2 -.4c-.6 -.2 -1.1 -.6 -1.6 -1.1c-.5 -.5 -.9 -1 -1.1 -1.7c-.3 -.6 -.4 -1.2 -.4 -1.9V217.3c0 -.7 .1 -1.3 .4 -2c.2 -.6 .6 -1.1 1.1 -1.6c.5 -.5 1 -.9 1.6 -1.2c.7 -.2 1.3 -.3 2 -.3Z" class="g0_285"/>
<path d="M430.5 212.2h47c.7 0 1.3 .1 2 .3c.6 .3 1.2 .7 1.6 1.2c.5 .5 .9 1 1.2 1.6c.2 .7 .4 1.3 .4 2v24.1c0 .7 -.2 1.3 -.4 1.9c-.3 .7 -.7 1.2 -1.2 1.7c-.4 .5 -1 .9 -1.6 1.1c-.7 .3 -1.3 .4 -2 .4h-47c-.7 0 -1.3 -.1 -2 -.4c-.6 -.2 -1.1 -.6 -1.6 -1.1c-.5 -.5 -.9 -1 -1.1 -1.7c-.3 -.6 -.4 -1.2 -.4 -1.9V217.3c0 -.7 .1 -1.3 .4 -2c.2 -.6 .6 -1.1 1.1 -1.6c.5 -.5 1 -.9 1.6 -1.2c.7 -.2 1.3 -.3 2 -.3Z" class="g1_285"/>
<path d="M489 212.2h46.9c.7 0 1.4 .1 2 .3c.6 .3 1.2 .7 1.7 1.2c.5 .5 .8 1 1.1 1.6c.3 .7 .4 1.3 .4 2v24.1c0 .7 -.1 1.3 -.4 1.9c-.3 .7 -.6 1.2 -1.1 1.7c-.5 .5 -1.1 .9 -1.7 1.1c-.6 .3 -1.3 .4 -2 .4H489c-.7 0 -1.4 -.1 -2 -.4c-.7 -.2 -1.2 -.6 -1.7 -1.1c-.5 -.5 -.8 -1 -1.1 -1.7c-.3 -.6 -.4 -1.2 -.4 -1.9V217.3c0 -.7 .1 -1.3 .4 -2c.3 -.6 .6 -1.1 1.1 -1.6c.5 -.5 1 -.9 1.7 -1.2c.6 -.2 1.3 -.3 2 -.3Z" class="g0_285"/>
<path d="M489 212.2h46.9c.7 0 1.4 .1 2 .3c.6 .3 1.2 .7 1.7 1.2c.5 .5 .8 1 1.1 1.6c.3 .7 .4 1.3 .4 2v24.1c0 .7 -.1 1.3 -.4 1.9c-.3 .7 -.6 1.2 -1.1 1.7c-.5 .5 -1.1 .9 -1.7 1.1c-.6 .3 -1.3 .4 -2 .4H489c-.7 0 -1.4 -.1 -2 -.4c-.7 -.2 -1.2 -.6 -1.7 -1.1c-.5 -.5 -.8 -1 -1.1 -1.7c-.3 -.6 -.4 -1.2 -.4 -1.9V217.3c0 -.7 .1 -1.3 .4 -2c.3 -.6 .6 -1.1 1.1 -1.6c.5 -.5 1 -.9 1.7 -1.2c.6 -.2 1.3 -.3 2 -.3Z" class="g1_285"/>
<path d="M156.7 212.2h46.9c.7 0 1.4 .1 2 .3c.6 .3 1.2 .7 1.7 1.2c.5 .5 .8 1 1.1 1.6c.3 .7 .4 1.3 .4 2v24.1c0 .7 -.1 1.3 -.4 1.9c-.3 .7 -.6 1.2 -1.1 1.7c-.5 .5 -1.1 .9 -1.7 1.1c-.6 .3 -1.3 .4 -2 .4H156.7c-.7 0 -1.4 -.1 -2 -.4c-.6 -.2 -1.2 -.6 -1.7 -1.1c-.5 -.5 -.8 -1 -1.1 -1.7c-.3 -.6 -.4 -1.2 -.4 -1.9V217.3c0 -.7 .1 -1.3 .4 -2c.3 -.6 .6 -1.1 1.1 -1.6c.5 -.5 1.1 -.9 1.7 -1.2c.6 -.2 1.3 -.3 2 -.3Z" class="g0_285"/>
<path d="M156.7 212.2h46.9c.7 0 1.4 .1 2 .3c.6 .3 1.2 .7 1.7 1.2c.5 .5 .8 1 1.1 1.6c.3 .7 .4 1.3 .4 2v24.1c0 .7 -.1 1.3 -.4 1.9c-.3 .7 -.6 1.2 -1.1 1.7c-.5 .5 -1.1 .9 -1.7 1.1c-.6 .3 -1.3 .4 -2 .4H156.7c-.7 0 -1.4 -.1 -2 -.4c-.6 -.2 -1.2 -.6 -1.7 -1.1c-.5 -.5 -.8 -1 -1.1 -1.7c-.3 -.6 -.4 -1.2 -.4 -1.9V217.3c0 -.7 .1 -1.3 .4 -2c.3 -.6 .6 -1.1 1.1 -1.6c.5 -.5 1.1 -.9 1.7 -1.2c.6 -.2 1.3 -.3 2 -.3Z" class="g1_285"/>
<path d="M214 212.2h46.9c.7 0 1.4 .1 2 .3c.6 .3 1.2 .7 1.7 1.2c.5 .5 .8 1 1.1 1.6c.3 .7 .4 1.3 .4 2v24.1c0 .7 -.1 1.3 -.4 1.9c-.3 .7 -.6 1.2 -1.1 1.7c-.5 .5 -1.1 .9 -1.7 1.1c-.6 .3 -1.3 .4 -2 .4H214c-.7 0 -1.4 -.1 -2 -.4c-.7 -.2 -1.2 -.6 -1.7 -1.1c-.5 -.5 -.8 -1 -1.1 -1.7c-.3 -.6 -.4 -1.2 -.4 -1.9V217.3c0 -.7 .1 -1.3 .4 -2c.3 -.6 .6 -1.1 1.1 -1.6c.5 -.5 1 -.9 1.7 -1.2c.6 -.2 1.3 -.3 2 -.3Z" class="g0_285"/>
<path d="M214 212.2h46.9c.7 0 1.4 .1 2 .3c.6 .3 1.2 .7 1.7 1.2c.5 .5 .8 1 1.1 1.6c.3 .7 .4 1.3 .4 2v24.1c0 .7 -.1 1.3 -.4 1.9c-.3 .7 -.6 1.2 -1.1 1.7c-.5 .5 -1.1 .9 -1.7 1.1c-.6 .3 -1.3 .4 -2 .4H214c-.7 0 -1.4 -.1 -2 -.4c-.7 -.2 -1.2 -.6 -1.7 -1.1c-.5 -.5 -.8 -1 -1.1 -1.7c-.3 -.6 -.4 -1.2 -.4 -1.9V217.3c0 -.7 .1 -1.3 .4 -2c.3 -.6 .6 -1.1 1.1 -1.6c.5 -.5 1 -.9 1.7 -1.2c.6 -.2 1.3 -.3 2 -.3Z" class="g1_285"/>
<path d="M225.4 212.2h47c.7 0 1.3 .1 2 .3c.6 .3 1.2 .7 1.6 1.2c.5 .5 .9 1 1.2 1.6c.2 .7 .3 1.3 .3 2v24.1c0 .7 -.1 1.3 -.3 1.9c-.3 .7 -.7 1.2 -1.2 1.7c-.4 .5 -1 .9 -1.6 1.1c-.7 .3 -1.3 .4 -2 .4h-47c-.7 0 -1.3 -.1 -2 -.4c-.6 -.2 -1.2 -.6 -1.6 -1.1c-.5 -.5 -.9 -1 -1.2 -1.7c-.2 -.6 -.3 -1.2 -.3 -1.9V217.3c0 -.7 .1 -1.3 .3 -2c.3 -.6 .7 -1.1 1.2 -1.6c.4 -.5 1 -.9 1.6 -1.2c.7 -.2 1.3 -.3 2 -.3Z" class="g0_285"/>
<path d="M225.4 212.2h47c.7 0 1.3 .1 2 .3c.6 .3 1.2 .7 1.6 1.2c.5 .5 .9 1 1.2 1.6c.2 .7 .3 1.3 .3 2v24.1c0 .7 -.1 1.3 -.3 1.9c-.3 .7 -.7 1.2 -1.2 1.7c-.4 .5 -1 .9 -1.6 1.1c-.7 .3 -1.3 .4 -2 .4h-47c-.7 0 -1.3 -.1 -2 -.4c-.6 -.2 -1.2 -.6 -1.6 -1.1c-.5 -.5 -.9 -1 -1.2 -1.7c-.2 -.6 -.3 -1.2 -.3 -1.9V217.3c0 -.7 .1 -1.3 .3 -2c.3 -.6 .7 -1.1 1.2 -1.6c.4 -.5 1 -.9 1.6 -1.2c.7 -.2 1.3 -.3 2 -.3Z" class="g1_285"/>
<path d="M236.9 212.2h46.9c.7 0 1.4 .1 2 .3c.7 .3 1.2 .7 1.7 1.2c.5 .5 .9 1 1.1 1.6c.3 .7 .4 1.3 .4 2v24.1c0 .7 -.1 1.3 -.4 1.9c-.2 .7 -.6 1.2 -1.1 1.7c-.5 .5 -1 .9 -1.7 1.1c-.6 .3 -1.3 .4 -2 .4H236.9c-.7 0 -1.4 -.1 -2 -.4c-.6 -.2 -1.2 -.6 -1.7 -1.1c-.5 -.5 -.8 -1 -1.1 -1.7c-.3 -.6 -.4 -1.2 -.4 -1.9V217.3c0 -.7 .1 -1.3 .4 -2c.3 -.6 .6 -1.1 1.1 -1.6c.5 -.5 1.1 -.9 1.7 -1.2c.6 -.2 1.3 -.3 2 -.3Z" class="g0_285"/>
<path d="M236.9 212.2h46.9c.7 0 1.4 .1 2 .3c.7 .3 1.2 .7 1.7 1.2c.5 .5 .9 1 1.1 1.6c.3 .7 .4 1.3 .4 2v24.1c0 .7 -.1 1.3 -.4 1.9c-.2 .7 -.6 1.2 -1.1 1.7c-.5 .5 -1 .9 -1.7 1.1c-.6 .3 -1.3 .4 -2 .4H236.9c-.7 0 -1.4 -.1 -2 -.4c-.6 -.2 -1.2 -.6 -1.7 -1.1c-.5 -.5 -.8 -1 -1.1 -1.7c-.3 -.6 -.4 -1.2 -.4 -1.9V217.3c0 -.7 .1 -1.3 .4 -2c.3 -.6 .6 -1.1 1.1 -1.6c.5 -.5 1.1 -.9 1.7 -1.2c.6 -.2 1.3 -.3 2 -.3Z" class="g1_285"/>
<path d="M248.3 212.2h47c.7 0 1.3 .1 2 .3c.6 .3 1.2 .7 1.7 1.2c.4 .5 .8 1 1.1 1.6c.2 .7 .4 1.3 .4 2v24.1c0 .7 -.2 1.3 -.4 1.9c-.3 .7 -.7 1.2 -1.1 1.7c-.5 .5 -1.1 .9 -1.7 1.1c-.7 .3 -1.3 .4 -2 .4h-47c-.7 0 -1.3 -.1 -1.9 -.4c-.7 -.2 -1.2 -.6 -1.7 -1.1c-.5 -.5 -.9 -1 -1.1 -1.7c-.3 -.6 -.4 -1.2 -.4 -1.9V217.3c0 -.7 .1 -1.3 .4 -2c.2 -.6 .6 -1.1 1.1 -1.6c.5 -.5 1 -.9 1.7 -1.2c.6 -.2 1.2 -.3 1.9 -.3Z" class="g0_285"/>
<path d="M248.3 212.2h47c.7 0 1.3 .1 2 .3c.6 .3 1.2 .7 1.7 1.2c.4 .5 .8 1 1.1 1.6c.2 .7 .4 1.3 .4 2v24.1c0 .7 -.2 1.3 -.4 1.9c-.3 .7 -.7 1.2 -1.1 1.7c-.5 .5 -1.1 .9 -1.7 1.1c-.7 .3 -1.3 .4 -2 .4h-47c-.7 0 -1.3 -.1 -1.9 -.4c-.7 -.2 -1.2 -.6 -1.7 -1.1c-.5 -.5 -.9 -1 -1.1 -1.7c-.3 -.6 -.4 -1.2 -.4 -1.9V217.3c0 -.7 .1 -1.3 .4 -2c.2 -.6 .6 -1.1 1.1 -1.6c.5 -.5 1 -.9 1.7 -1.2c.6 -.2 1.2 -.3 1.9 -.3Z" class="g1_285"/>
<path d="M259.8 212.2h47c.6 0 1.3 .1 1.9 .3c.7 .3 1.2 .7 1.7 1.2c.5 .5 .9 1 1.1 1.6c.3 .7 .4 1.3 .4 2v24.1c0 .7 -.1 1.3 -.4 1.9c-.2 .7 -.6 1.2 -1.1 1.7c-.5 .5 -1 .9 -1.7 1.1c-.6 .3 -1.3 .4 -1.9 .4h-47c-.7 0 -1.4 -.1 -2 -.4c-.6 -.2 -1.2 -.6 -1.7 -1.1c-.4 -.5 -.8 -1 -1.1 -1.7c-.2 -.6 -.4 -1.2 -.4 -1.9V217.3c0 -.7 .2 -1.3 .4 -2c.3 -.6 .7 -1.1 1.1 -1.6c.5 -.5 1.1 -.9 1.7 -1.2c.6 -.2 1.3 -.3 2 -.3Z" class="g0_285"/>
<path d="M259.8 212.2h47c.6 0 1.3 .1 1.9 .3c.7 .3 1.2 .7 1.7 1.2c.5 .5 .9 1 1.1 1.6c.3 .7 .4 1.3 .4 2v24.1c0 .7 -.1 1.3 -.4 1.9c-.2 .7 -.6 1.2 -1.1 1.7c-.5 .5 -1 .9 -1.7 1.1c-.6 .3 -1.3 .4 -1.9 .4h-47c-.7 0 -1.4 -.1 -2 -.4c-.6 -.2 -1.2 -.6 -1.7 -1.1c-.4 -.5 -.8 -1 -1.1 -1.7c-.2 -.6 -.4 -1.2 -.4 -1.9V217.3c0 -.7 .2 -1.3 .4 -2c.3 -.6 .7 -1.1 1.1 -1.6c.5 -.5 1.1 -.9 1.7 -1.2c.6 -.2 1.3 -.3 2 -.3Z" class="g1_285"/>
<path d="M163 347.4h22.9v22.9H163V347.4Z" class="g0_285"/>
<path d="M163 347.4h22.9v22.9H163V347.4Z" class="g1_285"/>
<path d="M185.9 347.4h22.9v22.9H185.9V347.4Z" class="g0_285"/>
<path d="M185.9 347.4h22.9v22.9H185.9V347.4Z" class="g1_285"/>
<path d="M185.9 370.3h22.9v22.9H185.9V370.3Z" class="g0_285"/>
<path d="M185.9 370.3h22.9v22.9H185.9V370.3Z" class="g1_285"/>
<path d="M163 370.3h22.9v22.9H163V370.3Z" class="g0_285"/>
<path d="M163 370.3h22.9v22.9H163V370.3Z" class="g1_285"/>
<path d="M163 393.2h22.9v22.9H163V393.2Z" class="g0_285"/>
<path d="M163 393.2h22.9v22.9H163V393.2Z" class="g1_285"/>
<path d="M185.9 393.2h22.9v22.9H185.9V393.2Z" class="g0_285"/>
<path d="M185.9 393.2h22.9v22.9H185.9V393.2Z" class="g1_285"/>
<path d="M483.8 393.2h22.9v22.9H483.8V393.2Z" class="g0_285"/>
<path d="M483.8 393.2h22.9v22.9H483.8V393.2Z" class="g1_285"/>
<path d="M506.7 393.2h22.9v22.9H506.7V393.2Z" class="g0_285"/>
<path d="M506.7 393.2h22.9v22.9H506.7V393.2Z" class="g1_285"/>
<path d="M483.8 347.4h22.9v22.9H483.8V347.4Z" class="g0_285"/>
<path d="M483.8 347.4h22.9v22.9H483.8V347.4Z" class="g1_285"/>
<path d="M506.7 347.4h22.9v22.9H506.7V347.4Z" class="g0_285"/>
<path d="M506.7 347.4h22.9v22.9H506.7V347.4Z" class="g1_285"/>
<path d="M506.7 370.3h22.9v22.9H506.7V370.3Z" class="g0_285"/>
<path d="M506.7 370.3h22.9v22.9H506.7V370.3Z" class="g1_285"/>
<path d="M483.8 370.3h22.9v22.9H483.8V370.3Z" class="g0_285"/>
<path d="M483.8 370.3h22.9v22.9H483.8V370.3Z" class="g1_285"/>
<path d="M208.8 347.4h22.9v22.9H208.8V347.4Z" class="g0_285"/>
<path d="M208.8 347.4h22.9v22.9H208.8V347.4Z" class="g1_285"/>
<path d="M231.7 347.4h22.9v22.9H231.7V347.4Z" class="g0_285"/>
<path d="M231.7 347.4h22.9v22.9H231.7V347.4Z" class="g1_285"/>
<path d="M254.6 347.4h22.9v22.9H254.6V347.4Z" class="g0_285"/>
<path d="M254.6 347.4h22.9v22.9H254.6V347.4Z" class="g1_285"/>
<path d="M277.5 347.4h23v22.9h-23V347.4Z" class="g0_285"/>
<path d="M277.5 347.4h23v22.9h-23V347.4Z" class="g1_285"/>
<path d="M277.5 370.3h23v22.9h-23V370.3Z" class="g0_285"/>
<path d="M277.5 370.3h23v22.9h-23V370.3Z" class="g1_285"/>
<path d="M254.6 370.3h22.9v22.9H254.6V370.3Z" class="g0_285"/>
<path d="M254.6 370.3h22.9v22.9H254.6V370.3Z" class="g1_285"/>
<path d="M231.7 370.3h22.9v22.9H231.7V370.3Z" class="g0_285"/>
<path d="M231.7 370.3h22.9v22.9H231.7V370.3Z" class="g1_285"/>
<path d="M208.8 370.3h22.9v22.9H208.8V370.3Z" class="g0_285"/>
<path d="M208.8 370.3h22.9v22.9H208.8V370.3Z" class="g1_285"/>
<path d="M208.8 393.2h22.9v22.9H208.8V393.2Z" class="g0_285"/>
<path d="M208.8 393.2h22.9v22.9H208.8V393.2Z" class="g1_285"/>
<path d="M231.7 393.2h22.9v22.9H231.7V393.2Z" class="g0_285"/>
<path d="M231.7 393.2h22.9v22.9H231.7V393.2Z" class="g1_285"/>
<path d="M254.6 393.2h22.9v22.9H254.6V393.2Z" class="g0_285"/>
<path d="M254.6 393.2h22.9v22.9H254.6V393.2Z" class="g1_285"/>
<path d="M277.5 393.2h23v22.9h-23V393.2Z" class="g0_285"/>
<path d="M277.5 393.2h23v22.9h-23V393.2Z" class="g1_285"/>
<path d="M300.5 393.2h22.9v22.9H300.5V393.2Z" class="g0_285"/>
<path d="M300.5 393.2h22.9v22.9H300.5V393.2Z" class="g1_285"/>
<path d="M323.4 393.2h22.9v22.9H323.4V393.2Z" class="g0_285"/>
<path d="M323.4 393.2h22.9v22.9H323.4V393.2Z" class="g1_285"/>
<path d="M346.3 393.2h22.9v22.9H346.3V393.2Z" class="g0_285"/>
<path d="M346.3 393.2h22.9v22.9H346.3V393.2Z" class="g1_285"/>
<path d="M369.2 393.2h22.9v22.9H369.2V393.2Z" class="g0_285"/>
<path d="M369.2 393.2h22.9v22.9H369.2V393.2Z" class="g1_285"/>
<path d="M300.5 347.4h22.9v22.9H300.5V347.4Z" class="g0_285"/>
<path d="M300.5 347.4h22.9v22.9H300.5V347.4Z" class="g1_285"/>
<path d="M323.4 347.4h22.9v22.9H323.4V347.4Z" class="g0_285"/>
<path d="M323.4 347.4h22.9v22.9H323.4V347.4Z" class="g1_285"/>
<path d="M346.3 347.4h22.9v22.9H346.3V347.4Z" class="g0_285"/>
<path d="M346.3 347.4h22.9v22.9H346.3V347.4Z" class="g1_285"/>
<path d="M369.2 347.4h22.9v22.9H369.2V347.4Z" class="g0_285"/>
<path d="M369.2 347.4h22.9v22.9H369.2V347.4Z" class="g1_285"/>
<path d="M369.2 370.3h22.9v22.9H369.2V370.3Z" class="g0_285"/>
<path d="M369.2 370.3h22.9v22.9H369.2V370.3Z" class="g1_285"/>
<path d="M346.3 370.3h22.9v22.9H346.3V370.3Z" class="g0_285"/>
<path d="M346.3 370.3h22.9v22.9H346.3V370.3Z" class="g1_285"/>
<path d="M323.4 370.3h22.9v22.9H323.4V370.3Z" class="g0_285"/>
<path d="M323.4 370.3h22.9v22.9H323.4V370.3Z" class="g1_285"/>
<path d="M300.5 370.3h22.9v22.9H300.5V370.3Z" class="g0_285"/>
<path d="M300.5 370.3h22.9v22.9H300.5V370.3Z" class="g1_285"/>
<path d="M392.1 393.2H415v22.9H392.1V393.2Z" class="g0_285"/>
<path d="M392.1 393.2H415v22.9H392.1V393.2Z" class="g1_285"/>
<path d="M415 393.2h23v22.9H415V393.2Z" class="g0_285"/>
<path d="M415 393.2h23v22.9H415V393.2Z" class="g1_285"/>
<path d="M438 393.2h22.9v22.9H438V393.2Z" class="g0_285"/>
<path d="M438 393.2h22.9v22.9H438V393.2Z" class="g1_285"/>
<path d="M460.9 393.2h22.9v22.9H460.9V393.2Z" class="g0_285"/>
<path d="M460.9 393.2h22.9v22.9H460.9V393.2Z" class="g1_285"/>
<path d="M392.1 347.4H415v22.9H392.1V347.4Z" class="g0_285"/>
<path d="M392.1 347.4H415v22.9H392.1V347.4Z" class="g1_285"/>
<path d="M415 347.4h23v22.9H415V347.4Z" class="g0_285"/>
<path d="M415 347.4h23v22.9H415V347.4Z" class="g1_285"/>
<path d="M438 347.4h22.9v22.9H438V347.4Z" class="g0_285"/>
<path d="M438 347.4h22.9v22.9H438V347.4Z" class="g1_285"/>
<path d="M460.9 347.4h22.9v22.9H460.9V347.4Z" class="g0_285"/>
<path d="M460.9 347.4h22.9v22.9H460.9V347.4Z" class="g1_285"/>
<path d="M460.9 370.3h22.9v22.9H460.9V370.3Z" class="g0_285"/>
<path d="M460.9 370.3h22.9v22.9H460.9V370.3Z" class="g1_285"/>
<path d="M438 370.3h22.9v22.9H438V370.3Z" class="g0_285"/>
<path d="M438 370.3h22.9v22.9H438V370.3Z" class="g1_285"/>
<path d="M415 370.3h23v22.9H415V370.3Z" class="g0_285"/>
<path d="M415 370.3h23v22.9H415V370.3Z" class="g1_285"/>
<path d="M392.1 370.3H415v22.9H392.1V370.3Z" class="g0_285"/>
<path d="M392.1 370.3H415v22.9H392.1V370.3Z" class="g1_285"/>
<path d="M512.4 246.5v91.4" class="g2_285"/>
<path d="M512.4 344.8l-3 -9.2l3 2.3l3.1 -2.3l-3.1 9.2Z" class="g3_285"/>
<path d="M512.4 344.8l-3 -9.2l3 2.3l3.1 -2.3l-3.1 9.2ZM180.2 246.5v91.4" class="g2_285"/>
<path d="M180.2 344.8l-3.1 -9.2l3.1 2.3l3 -2.3l-3 9.2Z" class="g3_285"/>
<path d="M180.2 344.8l-3.1 -9.2l3.1 2.3l3 -2.3l-3 9.2Zm103.1 2.6V256" class="g2_285"/>
<path d="M283.3 249.1l3 9.2l-3 -2.3l-3.1 2.3l3.1 -9.2Z" class="g3_285"/>
<path d="M283.3 249.1l3 9.2l-3 -2.3l-3.1 2.3l3.1 -9.2Zm171.9 98.3L454.1 256" class="g2_285"/>
<path d="M454 249.1l3.2 9.1L454.1 256l-3 2.3l2.9 -9.2Z" class="g3_285"/>
<path d="M454 249.1l3.2 9.1L454.1 256l-3 2.3l2.9 -9.2ZM323.1 229.3h47" class="g2_285"/>
<path d="M314.5 229.3l11.4 -3.8l-2.8 3.8l2.8 3.9l-11.4 -3.9Z" class="g3_285"/>
<path d="M314.5 229.3l11.4 -3.8l-2.8 3.8l2.8 3.9l-11.4 -3.9Z" class="g2_285"/>
<path d="M377 229.3l-9.2 3.1l2.3 -3.1l-2.3 -3l9.2 3Z" class="g3_285"/>
<path d="M377 229.3l-9.2 3.1l2.3 -3.1l-2.3 -3l9.2 3ZM174.4 130.8l22.9 -22.9m0 22.9L174.4 107.9m68.8 45.8L220.3 130.8m0 22.9l22.9 -22.9m160.4 22.9L380.7 130.8m0 22.9l22.9 -22.9m91.7 0l-23 -22.9m0 22.9l23 -22.9m45.8 45.8L518.2 130.8m0 22.9l22.9 -22.9" class="g2_285"/>
</g>
</svg>