<?xml version="1.0" encoding="UTF-8" standalone="no"?>
<!DOCTYPE svg PUBLIC "-//W3C//DTD SVG 1.1//EN"
"http://www.w3.org/Graphics/SVG/1.1/DTD/svg11.dtd">
<svg viewBox="0 0 714 1017" version="1.1" xmlns="http://www.w3.org/2000/svg" xmlns:xlink="http://www.w3.org/1999/xlink">
<defs>
<clipPath id="c0_32"><path d="M258.1 509.3V437.4h220v71.9Z"/></clipPath>
<clipPath id="c1_32"><path d="M101.8 786.2V758.7H221v27.5Z"/></clipPath>
<clipPath id="c2_32"><path d="M101.8 850.8V823.3H221v27.5Z"/></clipPath>
<style type="text/css"><![CDATA[
.g0_32{
fill: #FFF;
}
.g1_32{
fill: none;
stroke: #000;
stroke-width: 1.145;
stroke-miterlimit: 10;
}
.g2_32{
fill: none;
stroke: #000;
stroke-width: 1.217;
stroke-miterlimit: 10;
}
.g3_32{
fill: none;
stroke: #000;
stroke-width: 1.156;
stroke-miterlimit: 10;
}
.g4_32{
fill: none;
stroke: #000;
stroke-width: 0.76;
stroke-miterlimit: 10;
}
]]></style>
</defs>
<path d="M0 1017.7H717.2V-3.7H0V1017.7Z" class="g0_32"/>
<g clip-path="url(#c0_32)">
<path d="M258.1 438.9h220v69.8h-220V438.9Z" class="g0_32"/>
<path d="M258.7 439.4h80.2v68.8H258.7V439.4Z" class="g0_32"/>
<path d="M258.7 439.4h80.2v68.8H258.7V439.4Z" class="g1_32"/>
<path d="M396.2 439.4h81.3v68.8H396.2V439.4Z" class="g0_32"/>
<path d="M396.2 439.4h81.3v68.8H396.2V439.4Zm-57.3 34.4h57.3m0 -6.9l-13.8 6.9l13.8 6.9" class="g1_32"/>
</g>
<path d="M104.9 728.8h555" class="g2_32"/>
<path d="M104.9 755.7h555" class="g3_32"/>
<g clip-path="url(#c1_32)">
<path d="M115 771.9h91.7m0 -6.9l-13.8 6.9l13.8 6.8" class="g1_32"/>
</g>
<path d="M104.9 788h555" class="g4_32"/>
<g clip-path="url(#c2_32)">
<path d="M115 836.5h91.7m-13.8 6.8V829.6m13.8 0l-13.8 6.9l13.8 6.8" class="g1_32"/>
</g>
</svg>