<?xml version="1.0" encoding="UTF-8" standalone="no"?>
<!DOCTYPE svg PUBLIC "-//W3C//DTD SVG 1.1//EN"
"http://www.w3.org/Graphics/SVG/1.1/DTD/svg11.dtd">
<svg viewBox="0 0 714 1017" version="1.1" xmlns="http://www.w3.org/2000/svg" xmlns:xlink="http://www.w3.org/1999/xlink">
<defs>
<clipPath id="c0_36"><path d="M184.8 301.6V194.7H551.4V301.6Z"/></clipPath>
<style type="text/css"><![CDATA[
.g0_36{
fill: #FFF;
}
.g1_36{
fill: none;
stroke: #000;
stroke-width: 1.145;
stroke-miterlimit: 10;
}
.g2_36{
fill: #000;
}
.g3_36{
fill: none;
stroke: #000;
stroke-width: 1.217;
stroke-miterlimit: 10;
}
.g4_36{
fill: none;
stroke: #000;
stroke-width: 1.156;
stroke-miterlimit: 10;
}
.g5_36{
fill: none;
stroke: #000;
stroke-width: 0.76;
stroke-miterlimit: 10;
}
]]></style>
</defs>
<path d="M0 1017.7H717.2V-3.7H0V1017.7Z" class="g0_36"/>
<g clip-path="url(#c0_36)">
<path d="M184.8 196H551.4V301.4H184.8V196Z" class="g0_36"/>
<path d="M310.8 196.6H425.4V299.7H310.8V196.6ZM324 231h90.5v22.9H324V231Zm-1.1 34.4h90.5v22.9H322.9V265.4ZM185.4 231h90.5v22.9H185.4V231ZM324 242.4H283.2" class="g1_36"/>
<path d="M277.2 242.4l8 -2.6l-2 2.6l2 2.7l-8 -2.7Z" class="g2_36"/>
<path d="M277.2 242.4l8 -2.6l-2 2.6l2 2.7l-8 -2.7Zm183.1 34.4h90.5v22.9H460.3V276.8Zm0 -40.1h90.5v22.9H460.3V236.7Zm-34.9 37.2h8.8c5.8 0 8.7 2.4 8.7 7.2v3.6c0 2.4 1.7 3.6 5.1 3.6h5" class="g1_36"/>
<path d="M459 288.3l-8 2.6l2 -2.6l-2 -2.7l8 2.7Z" class="g2_36"/>
<path d="M459 288.3l-8 2.6l2 -2.6l-2 -2.7l8 2.7ZM425.4 248.2H453" class="g1_36"/>
<path d="M459 248.2l-8 2.6l2 -2.6l-2 -2.7l8 2.7Z" class="g2_36"/>
<path d="M459 248.2l-8 2.6l2 -2.6l-2 -2.7l8 2.7Zm1.3 -51.6h90.5v22.9H460.3V196.6Zm-34.9 25.8h8.8c5.8 0 8.7 -2.4 8.7 -7.2v-3.6c0 -2.3 1.7 -3.5 5.1 -3.5h5" class="g1_36"/>
<path d="M459 208.1l-8 2.6l2 -2.6l-2 -2.7l8 2.7Z" class="g2_36"/>
<path d="M459 208.1l-8 2.6l2 -2.6l-2 -2.7l8 2.7Zm46.6 11.4v9.9" class="g1_36"/>
<path d="M505.6 235.4l-2.7 -8l2.7 2l2.7 -2l-2.7 8Z" class="g2_36"/>
<path d="M505.6 235.4l-2.7 -8l2.7 2l2.7 -2l-2.7 8Z" class="g1_36"/>
</g>
<path d="M104.9 516H279.7" class="g3_36"/>
<path d="M104.9 542.9H279.7" class="g4_36"/>
<path d="M104.9 569.6H279.7" class="g5_36"/>
<path d="M104.9 596.4H279.7M104.9 655.2H609" class="g3_36"/>
<path d="M104.9 699.5H609" class="g4_36"/>
<path d="M104.9 726.2H609M104.9 752.7H609M104.9 779.2H609" class="g5_36"/>
<path d="M104.9 806H609" class="g3_36"/>
</svg>