<?xml version="1.0" encoding="UTF-8" standalone="no"?>
<!DOCTYPE svg PUBLIC "-//W3C//DTD SVG 1.1//EN"
"http://www.w3.org/Graphics/SVG/1.1/DTD/svg11.dtd">
<svg viewBox="0 0 714 1017" version="1.1" xmlns="http://www.w3.org/2000/svg" xmlns:xlink="http://www.w3.org/1999/xlink">
<defs>
<style type="text/css"><![CDATA[
.g0_189{
fill: #FFF;
}
.g1_189{
fill: none;
stroke: #000;
stroke-width: 1.217;
stroke-miterlimit: 10;
}
.g2_189{
fill: none;
stroke: #000;
stroke-width: 0.608;
stroke-miterlimit: 10;
}
]]></style>
</defs>
<path d="M0 1017.7H717.2V-3.7H0V1017.7Z" class="g0_189"/>
<path d="M67.1 206.7V131.3c0 -2.4 2 -4.3 4.4 -4.3h550c2.4 0 4.3 1.9 4.3 4.3v75.4c0 2.4 -1.9 4.3 -4.3 4.3H71.5c-2.4 0 -4.4 -1.9 -4.4 -4.3Z" class="g0_189"/>
<path d="M65 124.8v88.4" class="g1_189"/>
<path d="M67.1 463.7v-118c0 -2.4 2 -4.3 4.4 -4.3h550c2.4 0 4.3 1.9 4.3 4.3v118c0 2.4 -1.9 4.3 -4.3 4.3H71.5c-2.4 0 -4.4 -1.9 -4.4 -4.3Z" class="g0_189"/>
<path d="M65 339.2v131" class="g1_189"/>
<path d="M67.1 826.2v-70c0 -2.4 2 -4.4 4.4 -4.4h550c2.4 0 4.3 2 4.3 4.4v70c0 2.4 -1.9 4.3 -4.3 4.3H71.5c-2.4 0 -4.4 -1.9 -4.4 -4.3Z" class="g0_189"/>
<path d="M65 749.7v83" class="g1_189"/>
<path d="M65 849.8H174.6" class="g2_189"/>
</svg>