<?xml version="1.0" encoding="UTF-8" standalone="no"?>
<!DOCTYPE svg PUBLIC "-//W3C//DTD SVG 1.1//EN"
"http://www.w3.org/Graphics/SVG/1.1/DTD/svg11.dtd">
<svg viewBox="0 0 714 1017" version="1.1" xmlns="http://www.w3.org/2000/svg" xmlns:xlink="http://www.w3.org/1999/xlink">
<defs>
<clipPath id="c0_383"><path d="M65 584.4V434.8H639V584.4Z"/></clipPath>
<clipPath id="c1_383"><path d="M65 584.4V434.7H640.9V584.4Z"/></clipPath>
<style type="text/css"><![CDATA[
.g0_383{
fill: #FFF;
}
.g1_383{
fill: none;
stroke: #000;
stroke-width: 2.291;
stroke-miterlimit: 10;
}
.g2_383{
fill: #000;
}
.g3_383{
fill: none;
stroke: #000;
stroke-width: 1.145;
stroke-miterlimit: 10;
}
]]></style>
</defs>
<path d="M0 1017.7H717.2V-3.7H0V1017.7Z" class="g0_383"/>
<g clip-path="url(#c1_383)">
<path clip-path="url(#c0_383)" d="M65 434.8H639V585H65V434.8Z" class="g0_383"/>
<path d="M77 551.1H615.8" class="g1_383"/>
<path d="M624.4 551.1L613 555l2.8 -3.9L613 547.3l11.4 3.8Z" class="g2_383"/>
<path d="M624.4 551.1L613 555l2.8 -3.9L613 547.3l11.4 3.8ZM99.9 547.7V459.5c0 -7.7 3.8 -11.5 11.5 -11.5l263.5 -1.1" class="g1_383"/>
<path d="M103.3 551.1c0 .5 0 .9 -.2 1.4c-.2 .4 -.4 .8 -.8 1.1c-.3 .3 -.7 .6 -1.1 .7c-.4 .2 -.8 .3 -1.3 .3c-.4 0 -.9 -.1 -1.3 -.3c-.4 -.1 -.8 -.4 -1.1 -.7c-.3 -.3 -.6 -.7 -.8 -1.1c-.1 -.5 -.2 -.9 -.2 -1.4c0 -.4 .1 -.8 .2 -1.3c.2 -.4 .5 -.8 .8 -1.1c.3 -.3 .7 -.6 1.1 -.7c.4 -.2 .9 -.3 1.3 -.3c.5 0 .9 .1 1.3 .3c.4 .1 .8 .4 1.1 .7c.4 .3 .6 .7 .8 1.1c.2 .5 .2 .9 .2 1.3Z" class="g2_383"/>
<path d="M103.3 551.1c0 .5 0 .9 -.2 1.4c-.2 .4 -.4 .8 -.8 1.1c-.3 .3 -.7 .6 -1.1 .7c-.4 .2 -.8 .3 -1.3 .3c-.4 0 -.9 -.1 -1.3 -.3c-.4 -.1 -.8 -.4 -1.1 -.7c-.3 -.3 -.6 -.7 -.8 -1.1c-.1 -.5 -.2 -.9 -.2 -1.4c0 -.4 .1 -.8 .2 -1.3c.2 -.4 .5 -.8 .8 -1.1c.3 -.3 .7 -.6 1.1 -.7c.4 -.2 .9 -.3 1.3 -.3c.5 0 .9 .1 1.3 .3c.4 .1 .8 .4 1.1 .7c.4 .3 .6 .7 .8 1.1c.2 .5 .2 .9 .2 1.3Zm42.4 -3.4V488.1c0 -7.6 3.9 -11.4 11.5 -11.4H374.9" class="g1_383"/>
<path d="M149.2 551.1c0 .5 -.1 .9 -.3 1.4c-.2 .4 -.4 .8 -.7 1.1c-.3 .3 -.7 .6 -1.1 .7c-.5 .2 -.9 .3 -1.4 .3c-.4 0 -.9 -.1 -1.3 -.3c-.4 -.1 -.8 -.4 -1.1 -.7c-.3 -.3 -.6 -.7 -.7 -1.1c-.2 -.5 -.3 -.9 -.3 -1.4c0 -.4 .1 -.8 .3 -1.3c.1 -.4 .4 -.8 .7 -1.1c.3 -.3 .7 -.6 1.1 -.7c.4 -.2 .9 -.3 1.3 -.3c.5 0 .9 .1 1.4 .3c.4 .1 .8 .4 1.1 .7c.3 .3 .5 .7 .7 1.1c.2 .5 .3 .9 .3 1.3Z" class="g2_383"/>
<path d="M149.2 551.1c0 .5 -.1 .9 -.3 1.4c-.2 .4 -.4 .8 -.7 1.1c-.3 .3 -.7 .6 -1.1 .7c-.5 .2 -.9 .3 -1.4 .3c-.4 0 -.9 -.1 -1.3 -.3c-.4 -.1 -.8 -.4 -1.1 -.7c-.3 -.3 -.6 -.7 -.7 -1.1c-.2 -.5 -.3 -.9 -.3 -1.4c0 -.4 .1 -.8 .3 -1.3c.1 -.4 .4 -.8 .7 -1.1c.3 -.3 .7 -.6 1.1 -.7c.4 -.2 .9 -.3 1.3 -.3c.5 0 .9 .1 1.4 .3c.4 .1 .8 .4 1.1 .7c.3 .3 .5 .7 .7 1.1c.2 .5 .3 .9 .3 1.3Zm191.3 -3.4V516.8c0 -7.7 3.9 -11.5 11.5 -11.5h22.9" class="g1_383"/>
<path d="M344 551.1c0 .5 -.1 .9 -.3 1.4c-.2 .4 -.4 .8 -.7 1.1c-.4 .3 -.7 .6 -1.2 .7c-.4 .2 -.8 .3 -1.3 .3c-.4 0 -.9 -.1 -1.3 -.3c-.4 -.1 -.8 -.4 -1.1 -.7c-.3 -.3 -.6 -.7 -.7 -1.1c-.2 -.5 -.3 -.9 -.3 -1.4c0 -.4 .1 -.8 .3 -1.3c.1 -.4 .4 -.8 .7 -1.1c.3 -.3 .7 -.6 1.1 -.7c.4 -.2 .9 -.3 1.3 -.3c.5 0 .9 .1 1.3 .3c.5 .1 .8 .4 1.2 .7c.3 .3 .5 .7 .7 1.1c.2 .5 .3 .9 .3 1.3Z" class="g2_383"/>
<path d="M344 551.1c0 .5 -.1 .9 -.3 1.4c-.2 .4 -.4 .8 -.7 1.1c-.4 .3 -.7 .6 -1.2 .7c-.4 .2 -.8 .3 -1.3 .3c-.4 0 -.9 -.1 -1.3 -.3c-.4 -.1 -.8 -.4 -1.1 -.7c-.3 -.3 -.6 -.7 -.7 -1.1c-.2 -.5 -.3 -.9 -.3 -1.4c0 -.4 .1 -.8 .3 -1.3c.1 -.4 .4 -.8 .7 -1.1c.3 -.3 .7 -.6 1.1 -.7c.4 -.2 .9 -.3 1.3 -.3c.5 0 .9 .1 1.3 .3c.5 .1 .8 .4 1.2 .7c.3 .3 .5 .7 .7 1.1c.2 .5 .3 .9 .3 1.3Zm8 -3.4V538c0 -6.5 3.8 -9.8 11.5 -9.8h11.4" class="g1_383"/>
<path d="M355.4 551.1c0 .5 -.1 .9 -.2 1.4c-.2 .4 -.5 .8 -.8 1.1c-.3 .3 -.7 .6 -1.1 .7c-.4 .2 -.9 .3 -1.3 .3c-.5 0 -.9 -.1 -1.3 -.3c-.4 -.1 -.8 -.4 -1.1 -.7c-.4 -.3 -.6 -.7 -.8 -1.1c-.2 -.5 -.2 -.9 -.2 -1.4c0 -.4 0 -.8 .2 -1.3c.2 -.4 .4 -.8 .8 -1.1c.3 -.3 .7 -.6 1.1 -.7c.4 -.2 .8 -.3 1.3 -.3c.4 0 .9 .1 1.3 .3c.4 .1 .8 .4 1.1 .7c.3 .3 .6 .7 .8 1.1c.1 .5 .2 .9 .2 1.3Z" class="g2_383"/>
<path d="M355.4 551.1c0 .5 -.1 .9 -.2 1.4c-.2 .4 -.5 .8 -.8 1.1c-.3 .3 -.7 .6 -1.1 .7c-.4 .2 -.9 .3 -1.3 .3c-.5 0 -.9 -.1 -1.3 -.3c-.4 -.1 -.8 -.4 -1.1 -.7c-.4 -.3 -.6 -.7 -.8 -1.1c-.2 -.5 -.2 -.9 -.2 -1.4c0 -.4 0 -.8 .2 -1.3c.2 -.4 .4 -.8 .8 -1.1c.3 -.3 .7 -.6 1.1 -.7c.4 -.2 .8 -.3 1.3 -.3c.4 0 .9 .1 1.3 .3c.4 .1 .8 .4 1.1 .7c.3 .3 .6 .7 .8 1.1c.1 .5 .2 .9 .2 1.3Z" class="g1_383"/>
<path d="M99.9 574.1v-23m251.8 23v-23m-244.5 23H344.7" class="g3_383"/>
<path d="M101.2 574.1l8 -2.7l-2 2.7l2 2.6l-8 -2.6Z" class="g2_383"/>
<path d="M101.2 574.1l8 -2.7l-2 2.7l2 2.6l-8 -2.6Z" class="g3_383"/>
<path d="M350.7 574.1l-8 2.6l2 -2.6l-2 -2.7l8 2.7Z" class="g2_383"/>
<path d="M350.7 574.1l-8 2.6l2 -2.6l-2 -2.7l8 2.7Z" class="g3_383"/>
<path d="M161.8 567.2H292.4v17.2H161.8V567.2Z" class="g0_383"/>
</g>
</svg>