<?xml version="1.0" encoding="UTF-8" standalone="no"?>
<!DOCTYPE svg PUBLIC "-//W3C//DTD SVG 1.1//EN"
"http://www.w3.org/Graphics/SVG/1.1/DTD/svg11.dtd">
<svg viewBox="0 0 714 1017" version="1.1" xmlns="http://www.w3.org/2000/svg" xmlns:xlink="http://www.w3.org/1999/xlink">
<defs>
<clipPath id="c0_353"><path d="M70.7 870.3v-299H621.9v299Z"/></clipPath>
<clipPath id="c1_353"><path d="M70.7 870.8V569.9H622.3V870.8Z"/></clipPath>
<style type="text/css"><![CDATA[
.g0_353{
fill: #FFF;
}
.g1_353{
fill: none;
stroke: #000;
stroke-width: 1.145;
stroke-miterlimit: 10;
}
.g2_353{
fill: #DDD;
}
.g3_353{
fill: #000;
}
]]></style>
</defs>
<path d="M0 1017.7H717.2V-3.7H0V1017.7Z" class="g0_353"/>
<g clip-path="url(#c1_353)">
<path clip-path="url(#c0_353)" d="M70.7 571.3H621.9v299H70.7v-299Z" class="g0_353"/>
<path d="M552.5 755.2h68.8v22.9H552.5V755.2Z" class="g0_353"/>
<path d="M552.5 755.2h68.8v22.9H552.5V755.2Z" class="g1_353"/>
<path d="M552.5 720.8h68.8v22.9H552.5V720.8Z" class="g0_353"/>
<path d="M552.5 720.8h68.8v22.9H552.5V720.8Z" class="g1_353"/>
<path d="M552.5 686.4h68.8v22.9H552.5V686.4Z" class="g0_353"/>
<path d="M552.5 686.4h68.8v22.9H552.5V686.4Z" class="g1_353"/>
<path d="M369.2 697.9h80.2v45.8H369.2V697.9Z" class="g0_353"/>
<path d="M369.2 697.9h80.2v45.8H369.2V697.9Z" class="g1_353"/>
<path d="M357.8 686.4H438v45.9H357.8V686.4Z" class="g0_353"/>
<path d="M357.8 686.4H438v45.9H357.8V686.4ZM260.4 606.2h45.8v22.9H260.4V606.2Zm51.5 0h45.9v22.9H311.9V606.2Zm51.6 0h45.8v22.9H363.5V606.2Zm51.5 0h45.9v22.9H415V606.2Zm-206.2 0h45.8v22.9H208.8V606.2Z" class="g1_353"/>
<path d="M346.3 675h80.2v45.8H346.3V675Z" class="g0_353"/>
<path d="M346.3 675h80.2v45.8H346.3V675Z" class="g1_353"/>
<path d="M163 796.8c0 -4 12.8 -7.3 28.6 -7.3c7.6 0 14.9 .8 20.3 2.2c5.3 1.3 8.4 3.2 8.4 5.1v19.9c0 1.9 -3.1 3.7 -8.4 5.1c-5.4 1.3 -12.7 2.1 -20.3 2.1c-15.8 0 -28.6 -3.2 -28.6 -7.2V796.8Z" class="g0_353"/>
<path d="M163 796.8c0 -4 12.8 -7.3 28.6 -7.3c7.6 0 14.9 .8 20.3 2.2c5.3 1.3 8.4 3.2 8.4 5.1v19.9c0 1.9 -3.1 3.7 -8.4 5.1c-5.4 1.3 -12.7 2.1 -20.3 2.1c-15.8 0 -28.6 -3.2 -28.6 -7.2V796.8Zm57.3 0c0 1.9 -3.1 3.8 -8.4 5.1c-5.4 1.4 -12.7 2.2 -20.3 2.2c-15.8 0 -28.6 -3.3 -28.6 -7.3" class="g1_353"/>
<path d="M231.7 796.8c0 -4 12.8 -7.3 28.7 -7.3c7.6 0 14.8 .8 20.2 2.2c5.4 1.3 8.4 3.2 8.4 5.1v19.9c0 1.9 -3 3.7 -8.4 5.1c-5.4 1.3 -12.6 2.1 -20.2 2.1c-15.9 0 -28.7 -3.2 -28.7 -7.2V796.8Z" class="g0_353"/>
<path d="M231.7 796.8c0 -4 12.8 -7.3 28.7 -7.3c7.6 0 14.8 .8 20.2 2.2c5.4 1.3 8.4 3.2 8.4 5.1v19.9c0 1.9 -3 3.7 -8.4 5.1c-5.4 1.3 -12.6 2.1 -20.2 2.1c-15.9 0 -28.7 -3.2 -28.7 -7.2V796.8Zm57.3 0c0 1.9 -3 3.8 -8.4 5.1c-5.4 1.4 -12.6 2.2 -20.2 2.2c-15.9 0 -28.7 -3.3 -28.7 -7.3" class="g1_353"/>
<path d="M163 842.6c0 -4 12.8 -7.2 28.6 -7.2c7.6 0 14.9 .7 20.3 2.1c5.3 1.4 8.4 3.2 8.4 5.1v19.9c0 1.9 -3.1 3.8 -8.4 5.1c-5.4 1.4 -12.7 2.2 -20.3 2.2c-15.8 0 -28.6 -3.3 -28.6 -7.3V842.6Z" class="g0_353"/>
<path clip-path="url(#c0_353)" d="M163 842.6c0 -4 12.8 -7.2 28.6 -7.2c7.6 0 14.9 .7 20.3 2.1c5.3 1.4 8.4 3.2 8.4 5.1v19.9c0 1.9 -3.1 3.8 -8.4 5.1c-5.4 1.4 -12.7 2.2 -20.3 2.2c-15.8 0 -28.6 -3.3 -28.6 -7.3V842.6Zm57.3 0c0 2 -3.1 3.8 -8.4 5.2c-5.4 1.3 -12.7 2.1 -20.3 2.1c-15.8 0 -28.6 -3.3 -28.6 -7.3" class="g1_353"/>
<path d="M231.7 842.6c0 -4 12.8 -7.2 28.7 -7.2c7.6 0 14.8 .7 20.2 2.1c5.4 1.4 8.4 3.2 8.4 5.1v19.9c0 1.9 -3 3.8 -8.4 5.1c-5.4 1.4 -12.6 2.2 -20.2 2.2c-15.9 0 -28.7 -3.3 -28.7 -7.3V842.6Z" class="g0_353"/>
<path clip-path="url(#c0_353)" d="M231.7 842.6c0 -4 12.8 -7.2 28.7 -7.2c7.6 0 14.8 .7 20.2 2.1c5.4 1.4 8.4 3.2 8.4 5.1v19.9c0 1.9 -3 3.8 -8.4 5.1c-5.4 1.4 -12.6 2.2 -20.2 2.2c-15.9 0 -28.7 -3.3 -28.7 -7.3V842.6Zm57.3 0c0 2 -3 3.8 -8.4 5.2c-5.4 1.3 -12.6 2.1 -20.2 2.1c-15.9 0 -28.7 -3.3 -28.7 -7.3M497.5 812.5h2.9c1.9 0 2.9 3.8 2.9 11.4v5.7c0 3.9 .9 5.8 2.8 5.8h1.5c.9 0 .5 0 -1.5 0h-1.4c-.9 0 -1.4 3.8 -1.4 11.4v5.8c0 3.8 -1 5.7 -2.9 5.7h-2.9M294.7 789.5H299c2.9 0 4.3 3.9 4.3 11.5v17.2c0 7.6 1.5 11.4 4.3 11.4h2.2c1.4 0 .7 0 -2.2 0h-2.1c-1.5 0 -2.2 3.9 -2.2 11.5v17.2c0 7.6 -1.4 11.5 -4.3 11.5h-4.3" class="g1_353"/>
<path d="M71.3 675H163v45.8H71.3V675Z" class="g2_353"/>
<path d="M71.3 675H163v45.8H71.3V675Zm45.8 45.8v74.5c0 7.6 3.8 11.4 11.5 11.4h27.1" class="g1_353"/>
<path d="M161.7 806.7l-8 2.7l2 -2.7l-2 -2.6l8 2.6Z" class="g3_353"/>
<path d="M161.7 806.7l-8 2.7l2 -2.7l-2 -2.6l8 2.6ZM117.1 720.8V841.1c0 7.6 3.8 11.5 11.5 11.5h27.1" class="g1_353"/>
<path d="M161.7 852.6l-8 2.6l2 -2.6l-2 -2.7l8 2.7Z" class="g3_353"/>
<path d="M161.7 852.6l-8 2.6l2 -2.6l-2 -2.7l8 2.7Z" class="g1_353"/>
<path d="M94.2 741.4h47v16.1h-47V741.4Z" class="g0_353"/>
<path d="M163 697.9H339" class="g1_353"/>
<path d="M345 697.9l-8 2.6l2 -2.6l-2 -2.7l8 2.7Z" class="g3_353"/>
<path d="M345 697.9l-8 2.6l2 -2.6l-2 -2.7l8 2.7Z" class="g1_353"/>
<path d="M250 691h10.4v16H250V691Z" class="g0_353"/>
<path d="M386.4 675V636.4" class="g1_353"/>
<path d="M386.4 630.4l2.7 8l-2.7 -2l-2.7 2l2.7 -8Z" class="g3_353"/>
<path d="M386.4 630.4l2.7 8l-2.7 -2l-2.7 2l2.7 -8Z" class="g1_353"/>
<path d="M381.8 653.2h10.3v16H381.8v-16Z" class="g0_353"/>
<path d="M426.5 697.9h68.8c7.6 0 11.4 3.8 11.4 11.4v11.5c0 7.6 3.8 11.5 11.5 11.5h27" class="g1_353"/>
<path d="M551.3 732.3l-8.1 2.6l2 -2.6l-2 -2.7l8.1 2.7Z" class="g3_353"/>
<path d="M551.3 732.3l-8.1 2.6l2 -2.6l-2 -2.7l8.1 2.7ZM426.5 697.9h68.8c7.6 0 11.4 3.8 11.4 11.4v45.9c0 7.6 3.8 11.4 11.5 11.4h27" class="g1_353"/>
<path d="M551.3 766.6l-8.1 2.7l2 -2.7l-2 -2.6l8.1 2.6Z" class="g3_353"/>
<path d="M551.3 766.6l-8.1 2.7l2 -2.7l-2 -2.6l8.1 2.6ZM386.4 720.8v45.8c0 7.7 3.8 11.5 11.5 11.5h51.5c7.7 0 11.5 3.8 11.5 11.4v15.7" class="g1_353"/>
<path d="M460.9 811.2l-2.7 -8l2.7 2l2.6 -2l-2.6 8Z" class="g3_353"/>
<path d="M460.9 811.2l-2.7 -8l2.7 2l2.6 -2l-2.6 8ZM426.5 697.9H545.2" class="g1_353"/>
<path d="M551.3 697.9l-8.1 2.6l2 -2.6l-2 -2.7l8.1 2.7Z" class="g3_353"/>
<path d="M551.3 697.9l-8.1 2.6l2 -2.6l-2 -2.7l8.1 2.7Z" class="g1_353"/>
<path d="M484.9 691h10.4v16H484.9V691Z" class="g0_353"/>
<path d="M386.4 720.8v84.4" class="g1_353"/>
<path d="M386.4 811.2l-2.7 -8l2.7 2l2.7 -2l-2.7 8Z" class="g3_353"/>
<path d="M386.4 811.2l-2.7 -8l2.7 2l2.7 -2l-2.7 8Z" class="g1_353"/>
<path d="M381.8 759.8h10.3v16H381.8v-16Z" class="g0_353"/>
<path d="M415 841.1c0 .9 0 1.9 -.1 2.8c-.1 .9 -.2 1.9 -.4 2.8c-.2 .9 -.4 1.8 -.7 2.7c-.3 .9 -.6 1.8 -.9 2.7c-.4 .8 -.8 1.7 -1.2 2.5c-.5 .8 -1 1.6 -1.5 2.4c-.5 .8 -1.1 1.6 -1.7 2.3c-.6 .7 -1.2 1.4 -1.8 2.1c-.7 .6 -1.4 1.3 -2.1 1.8c-.8 .6 -1.5 1.2 -2.3 1.7c-.8 .5 -1.6 1 -2.4 1.5c-.8 .4 -1.7 .8 -2.5 1.2c-.9 .3 -1.8 .6 -2.7 .9c-.9 .3 -1.8 .5 -2.7 .7c-.9 .2 -1.9 .3 -2.8 .4c-.9 .1 -1.9 .2 -2.8 .2c-.9 0 -1.9 -.1 -2.8 -.2c-.9 -.1 -1.9 -.2 -2.8 -.4c-.9 -.2 -1.8 -.4 -2.7 -.7c-.9 -.3 -1.8 -.6 -2.7 -.9c-.8 -.4 -1.7 -.8 -2.5 -1.2c-.8 -.5 -1.6 -1 -2.4 -1.5c-.8 -.5 -1.5 -1.1 -2.3 -1.7c-.7 -.5 -1.4 -1.2 -2.1 -1.8c-.6 -.7 -1.2 -1.4 -1.8 -2.1c-.6 -.7 -1.2 -1.5 -1.7 -2.3c-.5 -.8 -1 -1.6 -1.5 -2.4c-.4 -.8 -.8 -1.7 -1.2 -2.5c-.3 -.9 -.6 -1.8 -.9 -2.7c-.3 -.9 -.5 -1.8 -.7 -2.7c-.2 -.9 -.3 -1.9 -.4 -2.8c-.1 -.9 -.1 -1.9 -.1 -2.8c0 -.9 0 -1.9 .1 -2.8c.1 -.9 .2 -1.9 .4 -2.8c.2 -.9 .4 -1.8 .7 -2.7c.3 -.9 .6 -1.8 .9 -2.7c.4 -.8 .8 -1.7 1.2 -2.5c.5 -.8 1 -1.6 1.5 -2.4c.5 -.8 1.1 -1.5 1.7 -2.3c.6 -.7 1.2 -1.4 1.8 -2.1c.7 -.6 1.4 -1.2 2.1 -1.8c.8 -.6 1.5 -1.2 2.3 -1.7c.8 -.5 1.6 -1 2.4 -1.5c.8 -.4 1.7 -.8 2.5 -1.2c.9 -.3 1.8 -.6 2.7 -.9c.9 -.3 1.8 -.5 2.7 -.7c.9 -.2 1.9 -.3 2.8 -.4c.9 -.1 1.9 -.1 2.8 -.1c.9 0 1.9 0 2.8 .1c.9 .1 1.9 .2 2.8 .4c.9 .2 1.8 .4 2.7 .7c.9 .3 1.8 .6 2.7 .9c.8 .4 1.7 .8 2.5 1.2c.8 .5 1.6 1 2.4 1.5c.8 .5 1.5 1.1 2.3 1.7c.7 .6 1.4 1.2 2.1 1.8c.6 .7 1.2 1.4 1.8 2.1c.6 .8 1.2 1.5 1.7 2.3c.5 .8 1 1.6 1.5 2.4c.4 .8 .8 1.7 1.2 2.5c.3 .9 .6 1.8 .9 2.7c.3 .9 .5 1.8 .7 2.7c.2 .9 .3 1.9 .4 2.8c.1 .9 .1 1.9 .1 2.8Z" class="g0_353"/>
<path clip-path="url(#c0_353)" d="M415 841.1c0 .9 0 1.9 -.1 2.8c-.1 .9 -.2 1.9 -.4 2.8c-.2 .9 -.4 1.8 -.7 2.7c-.3 .9 -.6 1.8 -.9 2.7c-.4 .8 -.8 1.7 -1.2 2.5c-.5 .8 -1 1.6 -1.5 2.4c-.5 .8 -1.1 1.6 -1.7 2.3c-.6 .7 -1.2 1.4 -1.8 2.1c-.7 .6 -1.4 1.3 -2.1 1.8c-.8 .6 -1.5 1.2 -2.3 1.7c-.8 .5 -1.6 1 -2.4 1.5c-.8 .4 -1.7 .8 -2.5 1.2c-.9 .3 -1.8 .6 -2.7 .9c-.9 .3 -1.8 .5 -2.7 .7c-.9 .2 -1.9 .3 -2.8 .4c-.9 .1 -1.9 .2 -2.8 .2c-.9 0 -1.9 -.1 -2.8 -.2c-.9 -.1 -1.9 -.2 -2.8 -.4c-.9 -.2 -1.8 -.4 -2.7 -.7c-.9 -.3 -1.8 -.6 -2.7 -.9c-.8 -.4 -1.7 -.8 -2.5 -1.2c-.8 -.5 -1.6 -1 -2.4 -1.5c-.8 -.5 -1.5 -1.1 -2.3 -1.7c-.7 -.5 -1.4 -1.2 -2.1 -1.8c-.6 -.7 -1.2 -1.4 -1.8 -2.1c-.6 -.7 -1.2 -1.5 -1.7 -2.3c-.5 -.8 -1 -1.6 -1.5 -2.4c-.4 -.8 -.8 -1.7 -1.2 -2.5c-.3 -.9 -.6 -1.8 -.9 -2.7c-.3 -.9 -.5 -1.8 -.7 -2.7c-.2 -.9 -.3 -1.9 -.4 -2.8c-.1 -.9 -.1 -1.9 -.1 -2.8c0 -.9 0 -1.9 .1 -2.8c.1 -.9 .2 -1.9 .4 -2.8c.2 -.9 .4 -1.8 .7 -2.7c.3 -.9 .6 -1.8 .9 -2.7c.4 -.8 .8 -1.7 1.2 -2.5c.5 -.8 1 -1.6 1.5 -2.4c.5 -.8 1.1 -1.5 1.7 -2.3c.6 -.7 1.2 -1.4 1.8 -2.1c.7 -.6 1.4 -1.2 2.1 -1.8c.8 -.6 1.5 -1.2 2.3 -1.7c.8 -.5 1.6 -1 2.4 -1.5c.8 -.4 1.7 -.8 2.5 -1.2c.9 -.3 1.8 -.6 2.7 -.9c.9 -.3 1.8 -.5 2.7 -.7c.9 -.2 1.9 -.3 2.8 -.4c.9 -.1 1.9 -.1 2.8 -.1c.9 0 1.9 0 2.8 .1c.9 .1 1.9 .2 2.8 .4c.9 .2 1.8 .4 2.7 .7c.9 .3 1.8 .6 2.7 .9c.8 .4 1.7 .8 2.5 1.2c.8 .5 1.6 1 2.4 1.5c.8 .5 1.5 1.1 2.3 1.7c.7 .6 1.4 1.2 2.1 1.8c.6 .7 1.2 1.4 1.8 2.1c.6 .8 1.2 1.5 1.7 2.3c.5 .8 1 1.6 1.5 2.4c.4 .8 .8 1.7 1.2 2.5c.3 .9 .6 1.8 .9 2.7c.3 .9 .5 1.8 .7 2.7c.2 .9 .3 1.9 .4 2.8c.1 .9 .1 1.9 .1 2.8Zm-28.6 28.7H415" class="g1_353"/>
<path d="M489.5 841.1c0 .9 0 1.9 -.1 2.8c-.1 .9 -.2 1.9 -.4 2.8c-.2 .9 -.4 1.8 -.7 2.7c-.3 .9 -.6 1.8 -1 2.7c-.3 .8 -.7 1.7 -1.2 2.5c-.4 .8 -.9 1.6 -1.4 2.4c-.5 .8 -1.1 1.6 -1.7 2.3c-.6 .7 -1.2 1.4 -1.9 2.1c-.6 .6 -1.3 1.3 -2 1.8c-.8 .6 -1.5 1.2 -2.3 1.7c-.8 .5 -1.6 1 -2.4 1.5c-.8 .4 -1.7 .8 -2.6 1.2c-.8 .3 -1.7 .6 -2.6 .9c-.9 .3 -1.8 .5 -2.7 .7c-1 .2 -1.9 .3 -2.8 .4c-.9 .1 -1.9 .2 -2.8 .2c-1 0 -1.9 -.1 -2.8 -.2c-1 -.1 -1.9 -.2 -2.8 -.4c-.9 -.2 -1.8 -.4 -2.7 -.7c-.9 -.3 -1.8 -.6 -2.7 -.9c-.8 -.4 -1.7 -.8 -2.5 -1.2c-.9 -.5 -1.7 -1 -2.4 -1.5c-.8 -.5 -1.6 -1.1 -2.3 -1.7c-.7 -.5 -1.4 -1.2 -2.1 -1.8c-.6 -.7 -1.3 -1.4 -1.9 -2.1c-.6 -.7 -1.1 -1.5 -1.6 -2.3c-.6 -.8 -1 -1.6 -1.5 -2.4c-.4 -.8 -.8 -1.7 -1.2 -2.5c-.3 -.9 -.7 -1.8 -.9 -2.7c-.3 -.9 -.5 -1.8 -.7 -2.7c-.2 -.9 -.3 -1.9 -.4 -2.8c-.1 -.9 -.2 -1.9 -.2 -2.8c0 -.9 .1 -1.9 .2 -2.8c.1 -.9 .2 -1.9 .4 -2.8c.2 -.9 .4 -1.8 .7 -2.7c.2 -.9 .6 -1.8 .9 -2.7c.4 -.8 .8 -1.7 1.2 -2.5c.5 -.8 .9 -1.6 1.5 -2.4c.5 -.8 1 -1.5 1.6 -2.3c.6 -.7 1.3 -1.4 1.9 -2.1c.7 -.6 1.4 -1.2 2.1 -1.8c.7 -.6 1.5 -1.2 2.3 -1.7c.7 -.5 1.5 -1 2.4 -1.5c.8 -.4 1.7 -.8 2.5 -1.2c.9 -.3 1.8 -.6 2.7 -.9c.9 -.3 1.8 -.5 2.7 -.7c.9 -.2 1.8 -.3 2.8 -.4c.9 -.1 1.8 -.1 2.8 -.1c.9 0 1.9 0 2.8 .1c.9 .1 1.8 .2 2.8 .4c.9 .2 1.8 .4 2.7 .7c.9 .3 1.8 .6 2.6 .9c.9 .4 1.8 .8 2.6 1.2c.8 .5 1.6 1 2.4 1.5c.8 .5 1.5 1.1 2.3 1.7c.7 .6 1.4 1.2 2 1.8c.7 .7 1.3 1.4 1.9 2.1c.6 .8 1.2 1.5 1.7 2.3c.5 .8 1 1.6 1.4 2.4c.5 .8 .9 1.7 1.2 2.5c.4 .9 .7 1.8 1 2.7c.3 .9 .5 1.8 .7 2.7c.2 .9 .3 1.9 .4 2.8c.1 .9 .1 1.9 .1 2.8Z" class="g0_353"/>
<path clip-path="url(#c0_353)" d="M489.5 841.1c0 .9 0 1.9 -.1 2.8c-.1 .9 -.2 1.9 -.4 2.8c-.2 .9 -.4 1.8 -.7 2.7c-.3 .9 -.6 1.8 -1 2.7c-.3 .8 -.7 1.7 -1.2 2.5c-.4 .8 -.9 1.6 -1.4 2.4c-.5 .8 -1.1 1.6 -1.7 2.3c-.6 .7 -1.2 1.4 -1.9 2.1c-.6 .6 -1.3 1.3 -2 1.8c-.8 .6 -1.5 1.2 -2.3 1.7c-.8 .5 -1.6 1 -2.4 1.5c-.8 .4 -1.7 .8 -2.6 1.2c-.8 .3 -1.7 .6 -2.6 .9c-.9 .3 -1.8 .5 -2.7 .7c-1 .2 -1.9 .3 -2.8 .4c-.9 .1 -1.9 .2 -2.8 .2c-1 0 -1.9 -.1 -2.8 -.2c-1 -.1 -1.9 -.2 -2.8 -.4c-.9 -.2 -1.8 -.4 -2.7 -.7c-.9 -.3 -1.8 -.6 -2.7 -.9c-.8 -.4 -1.7 -.8 -2.5 -1.2c-.9 -.5 -1.7 -1 -2.4 -1.5c-.8 -.5 -1.6 -1.1 -2.3 -1.7c-.7 -.5 -1.4 -1.2 -2.1 -1.8c-.6 -.7 -1.3 -1.4 -1.9 -2.1c-.6 -.7 -1.1 -1.5 -1.6 -2.3c-.6 -.8 -1 -1.6 -1.5 -2.4c-.4 -.8 -.8 -1.7 -1.2 -2.5c-.3 -.9 -.7 -1.8 -.9 -2.7c-.3 -.9 -.5 -1.8 -.7 -2.7c-.2 -.9 -.3 -1.9 -.4 -2.8c-.1 -.9 -.2 -1.9 -.2 -2.8c0 -.9 .1 -1.9 .2 -2.8c.1 -.9 .2 -1.9 .4 -2.8c.2 -.9 .4 -1.8 .7 -2.7c.2 -.9 .6 -1.8 .9 -2.7c.4 -.8 .8 -1.7 1.2 -2.5c.5 -.8 .9 -1.6 1.5 -2.4c.5 -.8 1 -1.5 1.6 -2.3c.6 -.7 1.3 -1.4 1.9 -2.1c.7 -.6 1.4 -1.2 2.1 -1.8c.7 -.6 1.5 -1.2 2.3 -1.7c.7 -.5 1.5 -1 2.4 -1.5c.8 -.4 1.7 -.8 2.5 -1.2c.9 -.3 1.8 -.6 2.7 -.9c.9 -.3 1.8 -.5 2.7 -.7c.9 -.2 1.8 -.3 2.8 -.4c.9 -.1 1.8 -.1 2.8 -.1c.9 0 1.9 0 2.8 .1c.9 .1 1.8 .2 2.8 .4c.9 .2 1.8 .4 2.7 .7c.9 .3 1.8 .6 2.6 .9c.9 .4 1.8 .8 2.6 1.2c.8 .5 1.6 1 2.4 1.5c.8 .5 1.5 1.1 2.3 1.7c.7 .6 1.4 1.2 2 1.8c.7 .7 1.3 1.4 1.9 2.1c.6 .8 1.2 1.5 1.7 2.3c.5 .8 1 1.6 1.4 2.4c.5 .8 .9 1.7 1.2 2.5c.4 .9 .7 1.8 1 2.7c.3 .9 .5 1.8 .7 2.7c.2 .9 .3 1.9 .4 2.8c.1 .9 .1 1.9 .1 2.8Zm-28.6 28.7h28.6M388.5 605.9c0 -15.1 12.3 -22.6 36.9 -22.6m-90.6 22.9c0 -15.3 -19.1 -22.9 -57.3 -22.9" class="g1_353"/>
</g>
</svg>