<?xml version="1.0" encoding="UTF-8" standalone="no"?>
<!DOCTYPE svg PUBLIC "-//W3C//DTD SVG 1.1//EN"
"http://www.w3.org/Graphics/SVG/1.1/DTD/svg11.dtd">
<svg viewBox="0 0 714 1017" version="1.1" xmlns="http://www.w3.org/2000/svg" xmlns:xlink="http://www.w3.org/1999/xlink">
<defs>
<style type="text/css"><![CDATA[
.g0_177{
fill: #FFF;
}
.g1_177{
fill: none;
stroke: #000;
stroke-width: 1.217;
stroke-miterlimit: 10;
}
]]></style>
</defs>
<path d="M0 1017.7H717.2V-3.7H0V1017.7Z" class="g0_177"/>
<path d="M67.1 125.3V103.5c0 -2.4 2 -4.3 4.4 -4.3h550c2.4 0 4.3 1.9 4.3 4.3v21.8c0 2.4 -1.9 4.3 -4.3 4.3H71.5c-2.4 0 -4.4 -1.9 -4.4 -4.3Z" class="g0_177"/>
<path d="M65 97v34.8" class="g1_177"/>
<path d="M67.1 202.4V164.7c0 -2.4 2 -4.4 4.4 -4.4h550c2.4 0 4.3 2 4.3 4.4v37.7c0 2.4 -1.9 4.4 -4.3 4.4H71.5c-2.4 0 -4.4 -2 -4.4 -4.4Z" class="g0_177"/>
<path d="M65 158.2v50.7" class="g1_177"/>
</svg>