<?xml version="1.0" encoding="UTF-8" standalone="no"?>
<!DOCTYPE svg PUBLIC "-//W3C//DTD SVG 1.1//EN"
"http://www.w3.org/Graphics/SVG/1.1/DTD/svg11.dtd">
<svg viewBox="0 0 714 1017" version="1.1" xmlns="http://www.w3.org/2000/svg" xmlns:xlink="http://www.w3.org/1999/xlink">
<defs>
<clipPath id="c0_181"><path d="M128.6 598.7V439.9H600.7V598.7Z"/></clipPath>
<clipPath id="c1_181"><path d="M128.6 598.7V439.8H602.2V598.7Z"/></clipPath>
<style type="text/css"><![CDATA[
.g0_181{
fill: #FFF;
}
.g1_181{
fill: none;
stroke: #000;
stroke-width: 1.145;
stroke-miterlimit: 10;
}
.g2_181{
fill: #000;
}
.g3_181{
fill: none;
stroke: #000;
stroke-width: 0.608;
stroke-miterlimit: 10;
}
]]></style>
</defs>
<path d="M0 1017.7H717.2V-3.7H0V1017.7Z" class="g0_181"/>
<g clip-path="url(#c1_181)">
<path clip-path="url(#c0_181)" d="M128.6 439.9H600.7V599.2H128.6V439.9Z" class="g0_181"/>
<path d="M321.7 449.7h23v22.9h-23V449.7Z" class="g0_181"/>
<path d="M321.7 449.7h23v22.9h-23V449.7Z" class="g1_181"/>
<path d="M184.1 495.5h23v22.9h-23V495.5Z" class="g0_181"/>
<path d="M184.1 495.5h23v22.9h-23V495.5Z" class="g1_181"/>
<path d="M321.7 495.5h23v22.9h-23V495.5Z" class="g0_181"/>
<path d="M321.7 495.5h23v22.9h-23V495.5Z" class="g1_181"/>
<path d="M459.2 495.5h23v22.9h-23V495.5Z" class="g0_181"/>
<path d="M459.2 495.5h23v22.9h-23V495.5Zm-263.6 0v-5.7c0 -3.8 3.8 -5.7 11.5 -5.7H315.9c7.7 0 11.5 -2 11.5 -5.8v-5.7m5.8 22.9V472.6m137.5 22.9l-.1 -5.7c0 -3.8 -3.8 -5.7 -11.4 -5.7H350.4c-7.6 0 -11.4 -2 -11.5 -5.8v-5.7" class="g1_181"/>
<path d="M138.3 541.3h23v23h-23v-23Z" class="g0_181"/>
<path d="M138.3 541.3h23v23h-23v-23Z" class="g1_181"/>
<path d="M184.1 541.3h23v23h-23v-23Z" class="g0_181"/>
<path d="M184.1 541.3h23v23h-23v-23Z" class="g1_181"/>
<path d="M230.1 541.3h23v23h-23v-23Z" class="g0_181"/>
<path d="M230.1 541.3h23v23h-23v-23Z" class="g1_181"/>
<path d="M275.8 541.3h23v23h-23v-23Z" class="g0_181"/>
<path d="M275.8 541.3h23v23h-23v-23Z" class="g1_181"/>
<path d="M321.7 541.3h23v23h-23v-23Z" class="g0_181"/>
<path d="M321.7 541.3h23v23h-23v-23Z" class="g1_181"/>
<path d="M367.5 541.3h23v23h-23v-23Z" class="g0_181"/>
<path d="M367.5 541.3h23v23h-23v-23Z" class="g1_181"/>
<path d="M413.3 541.3h23v23h-23v-23Z" class="g0_181"/>
<path d="M413.3 541.3h23v23h-23v-23Z" class="g1_181"/>
<path d="M459.2 541.3h23v23h-23v-23Z" class="g0_181"/>
<path d="M459.2 541.3h23v23h-23v-23Z" class="g1_181"/>
<path d="M505 541.3h23v23H505v-23Z" class="g0_181"/>
<path d="M505 541.3h23v23H505v-23Zm-309.4 0V518.4m275.1 22.9V518.4M333.2 541.3V518.4m183.3 22.9v-5.7c0 -3.8 -3.9 -5.7 -11.5 -5.7H487.9c-7.6 0 -11.4 -1.9 -11.5 -5.7v-5.8m-51.6 22.9v-5.7c0 -3.8 3.8 -5.7 11.4 -5.7h17.2c7.7 0 11.5 -1.9 11.5 -5.7v-5.8M379 541.3v-5.7c0 -3.8 -3.9 -5.7 -11.5 -5.7H350.4c-7.6 0 -11.4 -1.9 -11.5 -5.7v-5.8m-51.6 22.9v-5.7c0 -3.8 3.8 -5.7 11.4 -5.7h17.2c7.7 0 11.5 -1.9 11.5 -5.7v-5.8M149.8 541.3v-5.7c0 -3.8 3.8 -5.7 11.4 -5.7h17.1c7.7 0 11.5 -1.9 11.5 -5.7v-5.8m51.8 22.9v-5.7c0 -3.8 -3.9 -5.7 -11.5 -5.7H212.8c-7.6 0 -11.5 -1.9 -11.5 -5.7v-5.8" class="g1_181"/>
<path d="M344.7 449.1h1.1v1.2h-1.1m4.6 -1.2h1.1v1.2h-1.1m4.5 -1.2H355v1.2h-1.2m4.6 -1.2h1.2v1.2h-1.2m4.6 -1.2h1.1v1.2H363m4.6 -1.2h1.1v1.2h-1.1m4.6 -1.2h1.1v1.2h-1.1m4.6 -1.2h1.1v1.2h-1.1m4.5 -1.2h1.2v1.2h-1.2m4.6 -1.2h1.2v1.2h-1.2m4.6 -1.2h1.1v1.2h-1.1m4.6 -1.2h1.1v1.2h-1.1m4.6 -1.2h1.1v1.2h-1.1m4.6 -1.2h1.1v1.2h-1.1m4.5 -1.2H410v1.2h-1.2m4.6 -1.2h1.2v1.2h-1.2m4.6 -1.2h1.1v1.2H418m4.6 -1.2h1.1v1.2h-1.1m4.6 -1.2h1.1v1.2h-1.1m4.6 -1.2h1.1v1.2h-1.1m4.5 -1.2h1.2v1.2h-1.2m4.6 -1.2h1.2v1.2h-1.2m4.6 -1.2h1.1v1.2h-1.1m4.6 -1.2h1.1v1.2h-1.1m4.6 -1.2h1.1v1.2h-1.1m4.6 -1.2h1.1v1.2h-1.1m4.5 -1.2H465v1.2h-1.2m4.6 -1.2h1.2v1.2h-1.2m4.6 -1.2h1.1v1.2H473m4.6 -1.2h1.1v1.2h-1.1m4.6 -1.2h1.1v1.2h-1.1m4.6 -1.2h1.1v1.2h-1.1m4.5 -1.2h1.2v1.2h-1.2m4.6 -1.2h1.2v1.2h-1.2m4.6 -1.2h1.1v1.2h-1.1m4.6 -1.2h1.1v1.2h-1.1m4.6 -1.2h1.1v1.2h-1.1m4.6 -1.2h1.1v1.2h-1.1m4.5 -1.2H520v1.2h-1.2m4.6 -1.2h1.2v1.2h-1.2m4.6 -1.2h1.1v1.2H528m4.6 -1.2h1.1v1.2h-1.1m4.6 -1.2h1.1v1.2h-1.1m4.6 -1.2h1.1v1.2h-1.1m4.5 -1.2h1.2v1.2h-1.2m4.6 -1.2h1.2v1.2h-1.2m4.6 -1.2h1.1v1.2h-1.1m4.6 -1.2h1.1v1.2h-1.1m4.6 -1.2h1.1v1.2h-1.1m4.6 -1.2h1.1v1.2h-1.1Z" class="g2_181"/>
<path d="M528 563.7h1.1v1.1H528m4.6 -1.1h1.1v1.1h-1.1m4.6 -1.1h1.1v1.1h-1.1m4.6 -1.1h1.1v1.1h-1.1m4.5 -1.1h1.2v1.1h-1.2m4.6 -1.1h1.2v1.1h-1.2m4.6 -1.1h1.1v1.1h-1.1m4.6 -1.1h1.1v1.1h-1.1m4.6 -1.1h1.1v1.1h-1.1m4.6 -1.1h1.1v1.1h-1.1Z" class="g2_181"/>
<path d="M573.8 557V457" class="g1_181"/>
<path d="M573.8 563l-2.6 -8l2.6 2l2.7 -2l-2.7 8Z" class="g2_181"/>
<path d="M573.8 563l-2.6 -8l2.6 2l2.7 -2l-2.7 8Z" class="g1_181"/>
<path d="M573.8 451l2.7 8l-2.7 -2l-2.6 2l2.6 -8Z" class="g2_181"/>
<path d="M573.8 451l2.7 8l-2.7 -2l-2.6 2l2.6 -8Z" class="g1_181"/>
<path d="M549.7 500.1h50.4v17.2H549.7V500.1Z" class="g0_181"/>
<path d="M138.9 564.3v1.1h-1.1v-1.1m1.1 4.5V570h-1.1v-1.2m1.1 4.6v1.2h-1.1v-1.2M139 578v1.2h-1.2V578m1.2 4.6v1.1h-1.2v-1.1m1.2 4.6v0h-1.2Z" class="g2_181"/>
<path d="M528.6 564.3v1.1h-1.2v-1.1m1.2 4.5V570h-1.2v-1.2m1.2 4.6v1.2h-1.2v-1.2m1.2 4.6v1.2h-1.2V578m1.2 4.6v1.1h-1.2v-1.1Z" class="g2_181"/>
<path d="M145.7 587.2h375" class="g1_181"/>
<path d="M139.7 587.2l8 -2.7l-2 2.7l2 2.6l-8 -2.6Z" class="g2_181"/>
<path d="M139.7 587.2l8 -2.7l-2 2.7l2 2.6l-8 -2.6Z" class="g1_181"/>
<path d="M526.7 587.2l-8 2.6l2 -2.6l-2 -2.7l8 2.7Z" class="g2_181"/>
<path d="M526.7 587.2l-8 2.6l2 -2.6l-2 -2.7l8 2.7Z" class="g1_181"/>
<path d="M272.4 580.3H396.1v17.2H272.4V580.3Z" class="g0_181"/>
</g>
<path d="M65 797.8H174.6" class="g3_181"/>
</svg>