<?xml version="1.0" encoding="UTF-8" standalone="no"?>
<!DOCTYPE svg PUBLIC "-//W3C//DTD SVG 1.1//EN"
"http://www.w3.org/Graphics/SVG/1.1/DTD/svg11.dtd">
<svg viewBox="0 0 714 1017" version="1.1" xmlns="http://www.w3.org/2000/svg" xmlns:xlink="http://www.w3.org/1999/xlink">
<defs>
<clipPath id="c0_319"><path d="M70 598.3V368H622.3V598.3Z"/></clipPath>
<clipPath id="c1_319"><path d="M66.9 297.2V95.5H626V297.2Z"/></clipPath>
<clipPath id="c2_319"><path d="M70 598.6V367.9H623V598.6Z"/></clipPath>
<style type="text/css"><![CDATA[
.g0_319{
fill: #FFF;
}
.g1_319{
fill: none;
stroke: #000;
stroke-width: 1.145;
stroke-miterlimit: 10;
}
.g2_319{
fill: none;
stroke: #000;
stroke-width: 0.81;
stroke-miterlimit: 10;
}
.g3_319{
fill: none;
stroke: #000;
stroke-width: 2.291;
stroke-miterlimit: 10;
}
.g4_319{
fill: #000;
}
]]></style>
</defs>
<path d="M0 1017.7H717.2V-3.7H0V1017.7Z" class="g0_319"/>
<g clip-path="url(#c1_319)">
<path d="M66.9 97H626V296.4H66.9V97Z" class="g0_319"/>
<path d="M132.8 180.1l484.6 1.1M132.8 214.4H617.4M134.3 249.2l483.1 .8M388.3 284.3H617.4" class="g1_319"/>
<path d="M317.6 136l6.5 6.5l6.5 -6.5l3.2 3.2l-6.4 6.5l6.4 6.5l-3.2 3.2l-6.5 -6.5l-6.5 6.5l-3.2 -3.2l6.5 -6.5l-6.5 -6.5l3.2 -3.2Z" class="g0_319"/>
<path d="M317.6 136l6.5 6.5l6.5 -6.5l3.2 3.2l-6.4 6.5l6.4 6.5l-3.2 3.2l-6.5 -6.5l-6.5 6.5l-3.2 -3.2l6.5 -6.5l-6.5 -6.5l3.2 -3.2Z" class="g2_319"/>
<path d="M132.8 145.7H320.9" class="g1_319"/>
<path d="M149.6 148l48.7 29.2" class="g3_319"/>
<path d="M149.9 146.8c0 .3 0 .6 -.1 .9c-.1 .3 -.3 .5 -.5 .8c-.2 .2 -.5 .3 -.8 .5c-.2 .1 -.5 .1 -.8 .1c-.3 0 -.6 0 -.9 -.1c-.3 -.2 -.6 -.3 -.8 -.5c-.2 -.3 -.3 -.5 -.5 -.8c-.1 -.3 -.1 -.6 -.1 -.9c0 -.3 0 -.6 .1 -.8c.2 -.3 .3 -.6 .5 -.8c.2 -.2 .5 -.4 .8 -.5c.3 -.1 .6 -.1 .9 -.1c.3 0 .6 0 .8 .1c.3 .1 .6 .3 .8 .5c.2 .2 .4 .5 .5 .8c.1 .2 .1 .5 .1 .8Z" class="g4_319"/>
<path d="M149.9 146.8c0 .3 0 .6 -.1 .9c-.1 .3 -.3 .5 -.5 .8c-.2 .2 -.5 .3 -.8 .5c-.2 .1 -.5 .1 -.8 .1c-.3 0 -.6 0 -.9 -.1c-.3 -.2 -.6 -.3 -.8 -.5c-.2 -.3 -.3 -.5 -.5 -.8c-.1 -.3 -.1 -.6 -.1 -.9c0 -.3 0 -.6 .1 -.8c.2 -.3 .3 -.6 .5 -.8c.2 -.2 .5 -.4 .8 -.5c.3 -.1 .6 -.1 .9 -.1c.3 0 .6 0 .8 .1c.3 .1 .6 .3 .8 .5c.2 .2 .4 .5 .5 .8c.1 .2 .1 .5 .1 .8Z" class="g3_319"/>
<path d="M202.7 179.9l-7 -1.6l2.6 -1.1l-.3 -2.8l4.7 5.5Z" class="g4_319"/>
<path d="M202.7 179.9l-7 -1.6l2.6 -1.1l-.3 -2.8l4.7 5.5ZM149.1 148.6L200 209.7" class="g3_319"/>
<path d="M149.9 146.8c0 .3 0 .6 -.1 .9c-.1 .3 -.3 .5 -.5 .8c-.2 .2 -.5 .3 -.8 .5c-.2 .1 -.5 .1 -.8 .1c-.3 0 -.6 0 -.9 -.1c-.3 -.2 -.6 -.3 -.8 -.5c-.2 -.3 -.3 -.5 -.5 -.8c-.1 -.3 -.1 -.6 -.1 -.9c0 -.3 0 -.6 .1 -.8c.2 -.3 .3 -.6 .5 -.8c.2 -.2 .5 -.4 .8 -.5c.3 -.1 .6 -.1 .9 -.1c.3 0 .6 0 .8 .1c.3 .1 .6 .3 .8 .5c.2 .2 .4 .5 .5 .8c.1 .2 .1 .5 .1 .8Z" class="g4_319"/>
<path d="M149.9 146.8c0 .3 0 .6 -.1 .9c-.1 .3 -.3 .5 -.5 .8c-.2 .2 -.5 .3 -.8 .5c-.2 .1 -.5 .1 -.8 .1c-.3 0 -.6 0 -.9 -.1c-.3 -.2 -.6 -.3 -.8 -.5c-.2 -.3 -.3 -.5 -.5 -.8c-.1 -.3 -.1 -.6 -.1 -.9c0 -.3 0 -.6 .1 -.8c.2 -.3 .3 -.6 .5 -.8c.2 -.2 .5 -.4 .8 -.5c.3 -.1 .6 -.1 .9 -.1c.3 0 .6 0 .8 .1c.3 .1 .6 .3 .8 .5c.2 .2 .4 .5 .5 .8c.1 .2 .1 .5 .1 .8Z" class="g3_319"/>
<path d="M203.3 213.6l-6.2 -3.8l2.9 -.1l.7 -2.8l2.6 6.7Z" class="g4_319"/>
<path d="M203.3 213.6l-6.2 -3.8l2.9 -.1l.7 -2.8l2.6 6.7ZM148.8 148.8l52.4 94.4" class="g3_319"/>
<path d="M149.9 146.8c0 .3 0 .6 -.1 .9c-.1 .3 -.3 .5 -.5 .8c-.2 .2 -.5 .3 -.8 .5c-.2 .1 -.5 .1 -.8 .1c-.3 0 -.6 0 -.9 -.1c-.3 -.2 -.6 -.3 -.8 -.5c-.2 -.3 -.3 -.5 -.5 -.8c-.1 -.3 -.1 -.6 -.1 -.9c0 -.3 0 -.6 .1 -.8c.2 -.3 .3 -.6 .5 -.8c.2 -.2 .5 -.4 .8 -.5c.3 -.1 .6 -.1 .9 -.1c.3 0 .6 0 .8 .1c.3 .1 .6 .3 .8 .5c.2 .2 .4 .5 .5 .8c.1 .2 .1 .5 .1 .8Z" class="g4_319"/>
<path d="M149.9 146.8c0 .3 0 .6 -.1 .9c-.1 .3 -.3 .5 -.5 .8c-.2 .2 -.5 .3 -.8 .5c-.2 .1 -.5 .1 -.8 .1c-.3 0 -.6 0 -.9 -.1c-.3 -.2 -.6 -.3 -.8 -.5c-.2 -.3 -.3 -.5 -.5 -.8c-.1 -.3 -.1 -.6 -.1 -.9c0 -.3 0 -.6 .1 -.8c.2 -.3 .3 -.6 .5 -.8c.2 -.2 .5 -.4 .8 -.5c.3 -.1 .6 -.1 .9 -.1c.3 0 .6 0 .8 .1c.3 .1 .6 .3 .8 .5c.2 .2 .4 .5 .5 .8c.1 .2 .1 .5 .1 .8Z" class="g3_319"/>
<path d="M203.7 247.7l-5.3 -4.9l2.8 .4l1.2 -2.6l1.3 7.1Z" class="g4_319"/>
<path d="M203.7 247.7l-5.3 -4.9l2.8 .4l1.2 -2.6l1.3 7.1Zm2.4 .3l52.4 -94.4" class="g3_319"/>
<path d="M207.2 250c0 .3 0 .6 -.1 .8c-.2 .3 -.3 .6 -.5 .8c-.2 .2 -.5 .4 -.8 .5c-.3 .1 -.5 .2 -.9 .2c-.3 0 -.5 -.1 -.8 -.2c-.3 -.1 -.6 -.3 -.8 -.5c-.2 -.2 -.4 -.5 -.5 -.8c-.1 -.2 -.1 -.5 -.1 -.8c0 -.3 0 -.6 .1 -.9c.1 -.3 .3 -.5 .5 -.8c.2 -.2 .5 -.3 .8 -.4c.3 -.2 .5 -.2 .8 -.2c.4 0 .6 0 .9 .2c.3 .1 .6 .2 .8 .4c.2 .3 .3 .5 .5 .8c.1 .3 .1 .6 .1 .9Z" class="g4_319"/>
<path d="M207.2 250c0 .3 0 .6 -.1 .8c-.2 .3 -.3 .6 -.5 .8c-.2 .2 -.5 .4 -.8 .5c-.3 .1 -.5 .2 -.9 .2c-.3 0 -.5 -.1 -.8 -.2c-.3 -.1 -.6 -.3 -.8 -.5c-.2 -.2 -.4 -.5 -.5 -.8c-.1 -.2 -.1 -.5 -.1 -.8c0 -.3 0 -.6 .1 -.9c.1 -.3 .3 -.5 .5 -.8c.2 -.2 .5 -.3 .8 -.4c.3 -.2 .5 -.2 .8 -.2c.4 0 .6 0 .9 .2c.3 .1 .6 .2 .8 .4c.2 .3 .3 .5 .5 .8c.1 .3 .1 .6 .1 .9Z" class="g3_319"/>
<path d="M261 149.1l-1.3 7.1l-1.2 -2.6l-2.9 .4l5.4 -4.9Z" class="g4_319"/>
<path d="M261 149.1l-1.3 7.1l-1.2 -2.6l-2.9 .4l5.4 -4.9Zm-54.8 64.6l40.3 -60.4" class="g3_319"/>
<path d="M207.2 215.6c0 .3 0 .6 -.1 .9c-.2 .3 -.3 .5 -.5 .7c-.2 .2 -.5 .4 -.8 .5c-.3 .1 -.5 .2 -.9 .2c-.3 0 -.5 -.1 -.8 -.2c-.3 -.1 -.6 -.3 -.8 -.5c-.2 -.2 -.4 -.4 -.5 -.7c-.1 -.3 -.1 -.6 -.1 -.9c0 -.3 0 -.6 .1 -.9c.1 -.3 .3 -.5 .5 -.7c.2 -.2 .5 -.4 .8 -.5c.3 -.1 .5 -.2 .8 -.2c.4 0 .6 .1 .9 .2c.3 .1 .6 .3 .8 .5c.2 .2 .3 .4 .5 .7c.1 .3 .1 .6 .1 .9Z" class="g4_319"/>
<path d="M207.2 215.6c0 .3 0 .6 -.1 .9c-.2 .3 -.3 .5 -.5 .7c-.2 .2 -.5 .4 -.8 .5c-.3 .1 -.5 .2 -.9 .2c-.3 0 -.5 -.1 -.8 -.2c-.3 -.1 -.6 -.3 -.8 -.5c-.2 -.2 -.4 -.4 -.5 -.7c-.1 -.3 -.1 -.6 -.1 -.9c0 -.3 0 -.6 .1 -.9c.1 -.3 .3 -.5 .5 -.7c.2 -.2 .5 -.4 .8 -.5c.3 -.1 .5 -.2 .8 -.2c.4 0 .6 .1 .9 .2c.3 .1 .6 .3 .8 .5c.2 .2 .3 .4 .5 .7c.1 .3 .1 .6 .1 .9Z" class="g3_319"/>
<path d="M249.4 149l-1.9 7l-1 -2.7l-2.9 .1l5.8 -4.4Z" class="g4_319"/>
<path d="M249.4 149l-1.9 7l-1 -2.7l-2.9 .1l5.8 -4.4Zm-42.8 30.6l27.3 -27.3" class="g3_319"/>
<path d="M207.2 181.2c0 .3 0 .6 -.1 .9c-.2 .3 -.3 .5 -.5 .7c-.2 .3 -.5 .4 -.8 .5c-.3 .2 -.5 .2 -.9 .2c-.3 0 -.5 0 -.8 -.2c-.3 -.1 -.6 -.2 -.8 -.5c-.2 -.2 -.4 -.4 -.5 -.7c-.1 -.3 -.1 -.6 -.1 -.9c0 -.3 0 -.6 .1 -.9c.1 -.2 .3 -.5 .5 -.7c.2 -.2 .5 -.4 .8 -.5c.3 -.1 .5 -.2 .8 -.2c.4 0 .6 .1 .9 .2c.3 .1 .6 .3 .8 .5c.2 .2 .3 .5 .5 .7c.1 .3 .1 .6 .1 .9Z" class="g4_319"/>
<path d="M207.2 181.2c0 .3 0 .6 -.1 .9c-.2 .3 -.3 .5 -.5 .7c-.2 .3 -.5 .4 -.8 .5c-.3 .2 -.5 .2 -.9 .2c-.3 0 -.5 0 -.8 -.2c-.3 -.1 -.6 -.2 -.8 -.5c-.2 -.2 -.4 -.4 -.5 -.7c-.1 -.3 -.1 -.6 -.1 -.9c0 -.3 0 -.6 .1 -.9c.1 -.2 .3 -.5 .5 -.7c.2 -.2 .5 -.4 .8 -.5c.3 -.1 .5 -.2 .8 -.2c.4 0 .6 .1 .9 .2c.3 .1 .6 .3 .8 .5c.2 .2 .3 .5 .5 .7c.1 .3 .1 .6 .1 .9Z" class="g3_319"/>
<path d="M237.5 148.7l-3.2 6.4l-.4 -2.8l-2.9 -.4l6.5 -3.2Z" class="g4_319"/>
<path d="M237.5 148.7l-3.2 6.4l-.4 -2.8l-2.9 -.4l6.5 -3.2Zm26.7 -.7l48.7 29.2" class="g3_319"/>
<path d="M264.5 146.8c0 .3 0 .6 -.1 .9c-.2 .3 -.3 .5 -.5 .8c-.3 .2 -.5 .3 -.8 .5c-.3 .1 -.6 .1 -.9 .1c-.3 0 -.6 0 -.8 -.1c-.3 -.2 -.6 -.3 -.8 -.5c-.2 -.3 -.4 -.5 -.5 -.8c-.1 -.3 -.2 -.6 -.2 -.9c0 -.3 .1 -.6 .2 -.8c.1 -.3 .3 -.6 .5 -.8c.2 -.2 .5 -.4 .8 -.5c.2 -.1 .5 -.1 .8 -.1c.3 0 .6 0 .9 .1c.3 .1 .5 .3 .8 .5c.2 .2 .3 .5 .5 .8c.1 .2 .1 .5 .1 .8Z" class="g4_319"/>
<path d="M264.5 146.8c0 .3 0 .6 -.1 .9c-.2 .3 -.3 .5 -.5 .8c-.3 .2 -.5 .3 -.8 .5c-.3 .1 -.6 .1 -.9 .1c-.3 0 -.6 0 -.8 -.1c-.3 -.2 -.6 -.3 -.8 -.5c-.2 -.3 -.4 -.5 -.5 -.8c-.1 -.3 -.2 -.6 -.2 -.9c0 -.3 .1 -.6 .2 -.8c.1 -.3 .3 -.6 .5 -.8c.2 -.2 .5 -.4 .8 -.5c.2 -.1 .5 -.1 .8 -.1c.3 0 .6 0 .9 .1c.3 .1 .5 .3 .8 .5c.2 .2 .3 .5 .5 .8c.1 .2 .1 .5 .1 .8Z" class="g3_319"/>
<path d="M317.3 179.9l-7 -1.6l2.6 -1.1l-.3 -2.8l4.7 5.5Z" class="g4_319"/>
<path d="M317.3 179.9l-7 -1.6l2.6 -1.1l-.3 -2.8l4.7 5.5ZM263.7 148.6l50.9 61.1" class="g3_319"/>
<path d="M264.5 146.8c0 .3 0 .6 -.1 .9c-.2 .3 -.3 .5 -.5 .8c-.3 .2 -.5 .3 -.8 .5c-.3 .1 -.6 .1 -.9 .1c-.3 0 -.6 0 -.8 -.1c-.3 -.2 -.6 -.3 -.8 -.5c-.2 -.3 -.4 -.5 -.5 -.8c-.1 -.3 -.2 -.6 -.2 -.9c0 -.3 .1 -.6 .2 -.8c.1 -.3 .3 -.6 .5 -.8c.2 -.2 .5 -.4 .8 -.5c.2 -.1 .5 -.1 .8 -.1c.3 0 .6 0 .9 .1c.3 .1 .5 .3 .8 .5c.2 .2 .3 .5 .5 .8c.1 .2 .1 .5 .1 .8Z" class="g4_319"/>
<path d="M264.5 146.8c0 .3 0 .6 -.1 .9c-.2 .3 -.3 .5 -.5 .8c-.3 .2 -.5 .3 -.8 .5c-.3 .1 -.6 .1 -.9 .1c-.3 0 -.6 0 -.8 -.1c-.3 -.2 -.6 -.3 -.8 -.5c-.2 -.3 -.4 -.5 -.5 -.8c-.1 -.3 -.2 -.6 -.2 -.9c0 -.3 .1 -.6 .2 -.8c.1 -.3 .3 -.6 .5 -.8c.2 -.2 .5 -.4 .8 -.5c.2 -.1 .5 -.1 .8 -.1c.3 0 .6 0 .9 .1c.3 .1 .5 .3 .8 .5c.2 .2 .3 .5 .5 .8c.1 .2 .1 .5 .1 .8Z" class="g3_319"/>
<path d="M317.9 213.6l-6.2 -3.8l2.9 -.1l.6 -2.8l2.7 6.7Z" class="g4_319"/>
<path d="M317.9 213.6l-6.2 -3.8l2.9 -.1l.6 -2.8l2.7 6.7ZM263.3 148.8l52.5 94.4" class="g3_319"/>
<path d="M264.5 146.8c0 .3 0 .6 -.1 .9c-.2 .3 -.3 .5 -.5 .8c-.3 .2 -.5 .3 -.8 .5c-.3 .1 -.6 .1 -.9 .1c-.3 0 -.6 0 -.8 -.1c-.3 -.2 -.6 -.3 -.8 -.5c-.2 -.3 -.4 -.5 -.5 -.8c-.1 -.3 -.2 -.6 -.2 -.9c0 -.3 .1 -.6 .2 -.8c.1 -.3 .3 -.6 .5 -.8c.2 -.2 .5 -.4 .8 -.5c.2 -.1 .5 -.1 .8 -.1c.3 0 .6 0 .9 .1c.3 .1 .5 .3 .8 .5c.2 .2 .3 .5 .5 .8c.1 .2 .1 .5 .1 .8Z" class="g4_319"/>
<path d="M264.5 146.8c0 .3 0 .6 -.1 .9c-.2 .3 -.3 .5 -.5 .8c-.3 .2 -.5 .3 -.8 .5c-.3 .1 -.6 .1 -.9 .1c-.3 0 -.6 0 -.8 -.1c-.3 -.2 -.6 -.3 -.8 -.5c-.2 -.3 -.4 -.5 -.5 -.8c-.1 -.3 -.2 -.6 -.2 -.9c0 -.3 .1 -.6 .2 -.8c.1 -.3 .3 -.6 .5 -.8c.2 -.2 .5 -.4 .8 -.5c.2 -.1 .5 -.1 .8 -.1c.3 0 .6 0 .9 .1c.3 .1 .5 .3 .8 .5c.2 .2 .3 .5 .5 .8c.1 .2 .1 .5 .1 .8Z" class="g3_319"/>
<path d="M318.3 247.7l-5.4 -4.9l2.9 .4l1.2 -2.6l1.3 7.1Z" class="g4_319"/>
<path d="M318.3 247.7l-5.4 -4.9l2.9 .4l1.2 -2.6l1.3 7.1Zm2.3 .3l52.5 -94.4" class="g3_319"/>
<path d="M321.8 250c0 .3 0 .6 -.2 .8c-.1 .3 -.2 .6 -.4 .8c-.3 .2 -.5 .4 -.8 .5c-.3 .1 -.6 .2 -.9 .2c-.3 0 -.6 -.1 -.8 -.2c-.3 -.1 -.6 -.3 -.8 -.5c-.2 -.2 -.4 -.5 -.5 -.8c-.1 -.2 -.2 -.5 -.2 -.8c0 -.3 .1 -.6 .2 -.9c.1 -.3 .3 -.5 .5 -.8c.2 -.2 .5 -.3 .8 -.4c.2 -.2 .5 -.2 .8 -.2c.3 0 .6 0 .9 .2c.3 .1 .5 .2 .8 .4c.2 .3 .3 .5 .4 .8c.2 .3 .2 .6 .2 .9Z" class="g4_319"/>
<path d="M321.8 250c0 .3 0 .6 -.2 .8c-.1 .3 -.2 .6 -.4 .8c-.3 .2 -.5 .4 -.8 .5c-.3 .1 -.6 .2 -.9 .2c-.3 0 -.6 -.1 -.8 -.2c-.3 -.1 -.6 -.3 -.8 -.5c-.2 -.2 -.4 -.5 -.5 -.8c-.1 -.2 -.2 -.5 -.2 -.8c0 -.3 .1 -.6 .2 -.9c.1 -.3 .3 -.5 .5 -.8c.2 -.2 .5 -.3 .8 -.4c.2 -.2 .5 -.2 .8 -.2c.3 0 .6 0 .9 .2c.3 .1 .5 .2 .8 .4c.2 .3 .3 .5 .4 .8c.2 .3 .2 .6 .2 .9Z" class="g3_319"/>
<path d="M375.6 149.1l-1.4 7.1l-1.1 -2.6l-2.9 .4l5.4 -4.9Z" class="g4_319"/>
<path d="M375.6 149.1l-1.4 7.1l-1.1 -2.6l-2.9 .4l5.4 -4.9Zm-54.8 64.6l40.3 -60.4" class="g3_319"/>
<path d="M321.8 215.6c0 .3 0 .6 -.2 .9c-.1 .3 -.2 .5 -.4 .7c-.3 .2 -.5 .4 -.8 .5c-.3 .1 -.6 .2 -.9 .2c-.3 0 -.6 -.1 -.8 -.2c-.3 -.1 -.6 -.3 -.8 -.5c-.2 -.2 -.4 -.4 -.5 -.7c-.1 -.3 -.2 -.6 -.2 -.9c0 -.3 .1 -.6 .2 -.9c.1 -.3 .3 -.5 .5 -.7c.2 -.2 .5 -.4 .8 -.5c.2 -.1 .5 -.2 .8 -.2c.3 0 .6 .1 .9 .2c.3 .1 .5 .3 .8 .5c.2 .2 .3 .4 .4 .7c.2 .3 .2 .6 .2 .9Z" class="g4_319"/>
<path d="M321.8 215.6c0 .3 0 .6 -.2 .9c-.1 .3 -.2 .5 -.4 .7c-.3 .2 -.5 .4 -.8 .5c-.3 .1 -.6 .2 -.9 .2c-.3 0 -.6 -.1 -.8 -.2c-.3 -.1 -.6 -.3 -.8 -.5c-.2 -.2 -.4 -.4 -.5 -.7c-.1 -.3 -.2 -.6 -.2 -.9c0 -.3 .1 -.6 .2 -.9c.1 -.3 .3 -.5 .5 -.7c.2 -.2 .5 -.4 .8 -.5c.2 -.1 .5 -.2 .8 -.2c.3 0 .6 .1 .9 .2c.3 .1 .5 .3 .8 .5c.2 .2 .3 .4 .4 .7c.2 .3 .2 .6 .2 .9Z" class="g3_319"/>
<path d="M363.9 149l-1.9 7l-.9 -2.7l-2.9 .1l5.7 -4.4Z" class="g4_319"/>
<path d="M363.9 149l-1.9 7l-.9 -2.7l-2.9 .1l5.7 -4.4Zm-42.8 30.6l27.4 -27.3" class="g3_319"/>
<path d="M321.8 181.2c0 .3 0 .6 -.2 .9c-.1 .3 -.2 .5 -.4 .7c-.3 .3 -.5 .4 -.8 .5c-.3 .2 -.6 .2 -.9 .2c-.3 0 -.6 0 -.8 -.2c-.3 -.1 -.6 -.2 -.8 -.5c-.2 -.2 -.4 -.4 -.5 -.7c-.1 -.3 -.2 -.6 -.2 -.9c0 -.3 .1 -.6 .2 -.9c.1 -.2 .3 -.5 .5 -.7c.2 -.2 .5 -.4 .8 -.5c.2 -.1 .5 -.2 .8 -.2c.3 0 .6 .1 .9 .2c.3 .1 .5 .3 .8 .5c.2 .2 .3 .5 .4 .7c.2 .3 .2 .6 .2 .9Z" class="g4_319"/>
<path d="M321.8 181.2c0 .3 0 .6 -.2 .9c-.1 .3 -.2 .5 -.4 .7c-.3 .3 -.5 .4 -.8 .5c-.3 .2 -.6 .2 -.9 .2c-.3 0 -.6 0 -.8 -.2c-.3 -.1 -.6 -.2 -.8 -.5c-.2 -.2 -.4 -.4 -.5 -.7c-.1 -.3 -.2 -.6 -.2 -.9c0 -.3 .1 -.6 .2 -.9c.1 -.2 .3 -.5 .5 -.7c.2 -.2 .5 -.4 .8 -.5c.2 -.1 .5 -.2 .8 -.2c.3 0 .6 .1 .9 .2c.3 .1 .5 .3 .8 .5c.2 .2 .3 .5 .4 .7c.2 .3 .2 .6 .2 .9Z" class="g3_319"/>
<path d="M352.1 148.7l-3.2 6.4l-.4 -2.8l-2.9 -.4l6.5 -3.2Z" class="g4_319"/>
<path d="M352.1 148.7l-3.2 6.4l-.4 -2.8l-2.9 -.4l6.5 -3.2Zm37.3 133.6L441.8 188" class="g3_319"/>
<path d="M390.6 284.3c0 .3 -.1 .6 -.2 .9c-.1 .3 -.3 .5 -.5 .8c-.2 .2 -.5 .3 -.7 .5c-.3 .1 -.6 .1 -.9 .1c-.3 0 -.6 0 -.9 -.1c-.3 -.2 -.5 -.3 -.7 -.5c-.3 -.3 -.4 -.5 -.5 -.8c-.2 -.3 -.2 -.6 -.2 -.9c0 -.3 0 -.6 .2 -.8c.1 -.3 .2 -.6 .5 -.8c.2 -.2 .4 -.4 .7 -.5c.3 -.1 .6 -.1 .9 -.1c.3 0 .6 0 .9 .1c.2 .1 .5 .3 .7 .5c.2 .2 .4 .5 .5 .8c.1 .2 .2 .5 .2 .8Z" class="g4_319"/>
<path d="M390.6 284.3c0 .3 -.1 .6 -.2 .9c-.1 .3 -.3 .5 -.5 .8c-.2 .2 -.5 .3 -.7 .5c-.3 .1 -.6 .1 -.9 .1c-.3 0 -.6 0 -.9 -.1c-.3 -.2 -.5 -.3 -.7 -.5c-.3 -.3 -.4 -.5 -.5 -.8c-.2 -.3 -.2 -.6 -.2 -.9c0 -.3 0 -.6 .2 -.8c.1 -.3 .2 -.6 .5 -.8c.2 -.2 .4 -.4 .7 -.5c.3 -.1 .6 -.1 .9 -.1c.3 0 .6 0 .9 .1c.2 .1 .5 .3 .7 .5c.2 .2 .4 .5 .5 .8c.1 .2 .2 .5 .2 .8Z" class="g3_319"/>
<path d="M444.3 183.5l-1.3 7.1L441.8 188l-2.8 .4l5.3 -4.9Z" class="g4_319"/>
<path d="M444.3 183.5l-1.3 7.1L441.8 188l-2.8 .4l5.3 -4.9Zm-54.6 99.1l50.9 -61.1" class="g3_319"/>
<path d="M390.6 284.3c0 .3 -.1 .6 -.2 .9c-.1 .3 -.3 .5 -.5 .8c-.2 .2 -.5 .3 -.7 .5c-.3 .1 -.6 .1 -.9 .1c-.3 0 -.6 0 -.9 -.1c-.3 -.2 -.5 -.3 -.7 -.5c-.3 -.3 -.4 -.5 -.5 -.8c-.2 -.3 -.2 -.6 -.2 -.9c0 -.3 0 -.6 .2 -.8c.1 -.3 .2 -.6 .5 -.8c.2 -.2 .4 -.4 .7 -.5c.3 -.1 .6 -.1 .9 -.1c.3 0 .6 0 .9 .1c.2 .1 .5 .3 .7 .5c.2 .2 .4 .5 .5 .8c.1 .2 .2 .5 .2 .8Z" class="g4_319"/>
<path d="M390.6 284.3c0 .3 -.1 .6 -.2 .9c-.1 .3 -.3 .5 -.5 .8c-.2 .2 -.5 .3 -.7 .5c-.3 .1 -.6 .1 -.9 .1c-.3 0 -.6 0 -.9 -.1c-.3 -.2 -.5 -.3 -.7 -.5c-.3 -.3 -.4 -.5 -.5 -.8c-.2 -.3 -.2 -.6 -.2 -.9c0 -.3 0 -.6 .2 -.8c.1 -.3 .2 -.6 .5 -.8c.2 -.2 .4 -.4 .7 -.5c.3 -.1 .6 -.1 .9 -.1c.3 0 .6 0 .9 .1c.2 .1 .5 .3 .7 .5c.2 .2 .4 .5 .5 .8c.1 .2 .2 .5 .2 .8Z" class="g3_319"/>
<path d="M443.9 217.6l-2.6 6.7l-.7 -2.8l-2.8 -.1l6.1 -3.8Z" class="g4_319"/>
<path d="M443.9 217.6l-2.6 6.7l-.7 -2.8l-2.8 -.1l6.1 -3.8Zm3.3 34l27.3 27.3" class="g3_319"/>
<path d="M447.9 250c0 .3 -.1 .6 -.2 .8c-.1 .3 -.3 .6 -.5 .8c-.2 .2 -.5 .4 -.8 .5c-.2 .1 -.5 .2 -.8 .2c-.3 0 -.6 -.1 -.9 -.2c-.3 -.1 -.5 -.3 -.7 -.5c-.3 -.2 -.4 -.5 -.5 -.8c-.2 -.2 -.2 -.5 -.2 -.8c0 -.3 0 -.6 .2 -.9c.1 -.3 .2 -.5 .5 -.8c.2 -.2 .4 -.3 .7 -.4c.3 -.2 .6 -.2 .9 -.2c.3 0 .6 0 .8 .2c.3 .1 .6 .2 .8 .4c.2 .3 .4 .5 .5 .8c.1 .3 .2 .6 .2 .9Z" class="g4_319"/>
<path d="M447.9 250c0 .3 -.1 .6 -.2 .8c-.1 .3 -.3 .6 -.5 .8c-.2 .2 -.5 .4 -.8 .5c-.2 .1 -.5 .2 -.8 .2c-.3 0 -.6 -.1 -.9 -.2c-.3 -.1 -.5 -.3 -.7 -.5c-.3 -.2 -.4 -.5 -.5 -.8c-.2 -.2 -.2 -.5 -.2 -.8c0 -.3 0 -.6 .2 -.9c.1 -.3 .2 -.5 .5 -.8c.2 -.2 .4 -.3 .7 -.4c.3 -.2 .6 -.2 .9 -.2c.3 0 .6 0 .8 .2c.3 .1 .6 .2 .8 .4c.2 .3 .4 .5 .5 .8c.1 .3 .2 .6 .2 .9Z" class="g3_319"/>
<path d="M478.1 282.5l-6.4 -3.2l2.8 -.4l.4 -2.9l3.2 6.5Z" class="g4_319"/>
<path d="M478.1 282.5l-6.4 -3.2l2.8 -.4l.4 -2.9l3.2 6.5Zm-31.3 -65l40.3 60.4" class="g3_319"/>
<path d="M447.9 215.6c0 .3 -.1 .6 -.2 .9c-.1 .3 -.3 .5 -.5 .7c-.2 .2 -.5 .4 -.8 .5c-.2 .1 -.5 .2 -.8 .2c-.3 0 -.6 -.1 -.9 -.2c-.3 -.1 -.5 -.3 -.7 -.5c-.3 -.2 -.4 -.4 -.5 -.7c-.2 -.3 -.2 -.6 -.2 -.9c0 -.3 0 -.6 .2 -.9c.1 -.3 .2 -.5 .5 -.7c.2 -.2 .4 -.4 .7 -.5c.3 -.1 .6 -.2 .9 -.2c.3 0 .6 .1 .8 .2c.3 .1 .6 .3 .8 .5c.2 .2 .4 .4 .5 .7c.1 .3 .2 .6 .2 .9Z" class="g4_319"/>
<path d="M447.9 215.6c0 .3 -.1 .6 -.2 .9c-.1 .3 -.3 .5 -.5 .7c-.2 .2 -.5 .4 -.8 .5c-.2 .1 -.5 .2 -.8 .2c-.3 0 -.6 -.1 -.9 -.2c-.3 -.1 -.5 -.3 -.7 -.5c-.3 -.2 -.4 -.4 -.5 -.7c-.2 -.3 -.2 -.6 -.2 -.9c0 -.3 0 -.6 .2 -.9c.1 -.3 .2 -.5 .5 -.7c.2 -.2 .4 -.4 .7 -.5c.3 -.1 .6 -.2 .9 -.2c.3 0 .6 .1 .8 .2c.3 .1 .6 .3 .8 .5c.2 .2 .4 .4 .5 .7c.1 .3 .2 .6 .2 .9Z" class="g3_319"/>
<path d="M490 282.2l-5.7 -4.4l2.8 .1l1 -2.7l1.9 7Z" class="g4_319"/>
<path d="M490 282.2l-5.7 -4.4l2.8 .1l1 -2.7l1.9 7Zm-43.3 -99l52.4 94.4" class="g3_319"/>
<path d="M447.9 181.2c0 .3 -.1 .6 -.2 .9c-.1 .3 -.3 .5 -.5 .7c-.2 .3 -.5 .4 -.8 .5c-.2 .2 -.5 .2 -.8 .2c-.3 0 -.6 0 -.9 -.2c-.3 -.1 -.5 -.2 -.7 -.5c-.3 -.2 -.4 -.4 -.5 -.7c-.2 -.3 -.2 -.6 -.2 -.9c0 -.3 0 -.6 .2 -.9c.1 -.2 .2 -.5 .5 -.7c.2 -.2 .4 -.4 .7 -.5c.3 -.1 .6 -.2 .9 -.2c.3 0 .6 .1 .8 .2c.3 .1 .6 .3 .8 .5c.2 .2 .4 .5 .5 .7c.1 .3 .2 .6 .2 .9Z" class="g4_319"/>
<path d="M447.9 181.2c0 .3 -.1 .6 -.2 .9c-.1 .3 -.3 .5 -.5 .7c-.2 .3 -.5 .4 -.8 .5c-.2 .2 -.5 .2 -.8 .2c-.3 0 -.6 0 -.9 -.2c-.3 -.1 -.5 -.2 -.7 -.5c-.3 -.2 -.4 -.4 -.5 -.7c-.2 -.3 -.2 -.6 -.2 -.9c0 -.3 0 -.6 .2 -.9c.1 -.2 .2 -.5 .5 -.7c.2 -.2 .4 -.4 .7 -.5c.3 -.1 .6 -.2 .9 -.2c.3 0 .6 .1 .8 .2c.3 .1 .6 .3 .8 .5c.2 .2 .4 .5 .5 .7c.1 .3 .2 .6 .2 .9Z" class="g3_319"/>
<path d="M501.6 282.1l-5.3 -4.9l2.8 .4l1.2 -2.6l1.3 7.1Z" class="g4_319"/>
<path d="M501.6 282.1l-5.3 -4.9l2.8 .4l1.2 -2.6l1.3 7.1Zm2.4 .2L556.4 188" class="g3_319"/>
<path d="M505.2 284.3c0 .3 -.1 .6 -.2 .9c-.1 .3 -.3 .5 -.5 .8c-.2 .2 -.5 .3 -.8 .5c-.2 .1 -.5 .1 -.8 .1c-.3 0 -.6 0 -.9 -.1c-.3 -.2 -.5 -.3 -.8 -.5c-.2 -.3 -.3 -.5 -.5 -.8c-.1 -.3 -.1 -.6 -.1 -.9c0 -.3 0 -.6 .1 -.8c.2 -.3 .3 -.6 .5 -.8c.3 -.2 .5 -.4 .8 -.5c.3 -.1 .6 -.1 .9 -.1c.3 0 .6 0 .8 .1c.3 .1 .6 .3 .8 .5c.2 .2 .4 .5 .5 .8c.1 .2 .2 .5 .2 .8Z" class="g4_319"/>
<path d="M505.2 284.3c0 .3 -.1 .6 -.2 .9c-.1 .3 -.3 .5 -.5 .8c-.2 .2 -.5 .3 -.8 .5c-.2 .1 -.5 .1 -.8 .1c-.3 0 -.6 0 -.9 -.1c-.3 -.2 -.5 -.3 -.8 -.5c-.2 -.3 -.3 -.5 -.5 -.8c-.1 -.3 -.1 -.6 -.1 -.9c0 -.3 0 -.6 .1 -.8c.2 -.3 .3 -.6 .5 -.8c.3 -.2 .5 -.4 .8 -.5c.3 -.1 .6 -.1 .9 -.1c.3 0 .6 0 .8 .1c.3 .1 .6 .3 .8 .5c.2 .2 .4 .5 .5 .8c.1 .2 .2 .5 .2 .8Z" class="g3_319"/>
<path d="M558.9 183.5l-1.3 7.1L556.4 188l-2.8 .4l5.3 -4.9Z" class="g4_319"/>
<path d="M558.9 183.5l-1.3 7.1L556.4 188l-2.8 .4l5.3 -4.9Zm-54.6 99.1l50.9 -61.1" class="g3_319"/>
<path d="M505.2 284.3c0 .3 -.1 .6 -.2 .9c-.1 .3 -.3 .5 -.5 .8c-.2 .2 -.5 .3 -.8 .5c-.2 .1 -.5 .1 -.8 .1c-.3 0 -.6 0 -.9 -.1c-.3 -.2 -.5 -.3 -.8 -.5c-.2 -.3 -.3 -.5 -.5 -.8c-.1 -.3 -.1 -.6 -.1 -.9c0 -.3 0 -.6 .1 -.8c.2 -.3 .3 -.6 .5 -.8c.3 -.2 .5 -.4 .8 -.5c.3 -.1 .6 -.1 .9 -.1c.3 0 .6 0 .8 .1c.3 .1 .6 .3 .8 .5c.2 .2 .4 .5 .5 .8c.1 .2 .2 .5 .2 .8Z" class="g4_319"/>
<path d="M505.2 284.3c0 .3 -.1 .6 -.2 .9c-.1 .3 -.3 .5 -.5 .8c-.2 .2 -.5 .3 -.8 .5c-.2 .1 -.5 .1 -.8 .1c-.3 0 -.6 0 -.9 -.1c-.3 -.2 -.5 -.3 -.8 -.5c-.2 -.3 -.3 -.5 -.5 -.8c-.1 -.3 -.1 -.6 -.1 -.9c0 -.3 0 -.6 .1 -.8c.2 -.3 .3 -.6 .5 -.8c.3 -.2 .5 -.4 .8 -.5c.3 -.1 .6 -.1 .9 -.1c.3 0 .6 0 .8 .1c.3 .1 .6 .3 .8 .5c.2 .2 .4 .5 .5 .8c.1 .2 .2 .5 .2 .8Z" class="g3_319"/>
<path d="M558.5 217.6l-2.6 6.7l-.7 -2.8l-2.8 -.1l6.1 -3.8Z" class="g4_319"/>
<path d="M558.5 217.6l-2.6 6.7l-.7 -2.8l-2.8 -.1l6.1 -3.8Zm-53.7 65.6l48.7 -29.3" class="g3_319"/>
<path d="M505.2 284.3c0 .3 -.1 .6 -.2 .9c-.1 .3 -.3 .5 -.5 .8c-.2 .2 -.5 .3 -.8 .5c-.2 .1 -.5 .1 -.8 .1c-.3 0 -.6 0 -.9 -.1c-.3 -.2 -.5 -.3 -.8 -.5c-.2 -.3 -.3 -.5 -.5 -.8c-.1 -.3 -.1 -.6 -.1 -.9c0 -.3 0 -.6 .1 -.8c.2 -.3 .3 -.6 .5 -.8c.3 -.2 .5 -.4 .8 -.5c.3 -.1 .6 -.1 .9 -.1c.3 0 .6 0 .8 .1c.3 .1 .6 .3 .8 .5c.2 .2 .4 .5 .5 .8c.1 .2 .2 .5 .2 .8Z" class="g4_319"/>
<path d="M505.2 284.3c0 .3 -.1 .6 -.2 .9c-.1 .3 -.3 .5 -.5 .8c-.2 .2 -.5 .3 -.8 .5c-.2 .1 -.5 .1 -.8 .1c-.3 0 -.6 0 -.9 -.1c-.3 -.2 -.5 -.3 -.8 -.5c-.2 -.3 -.3 -.5 -.5 -.8c-.1 -.3 -.1 -.6 -.1 -.9c0 -.3 0 -.6 .1 -.8c.2 -.3 .3 -.6 .5 -.8c.3 -.2 .5 -.4 .8 -.5c.3 -.1 .6 -.1 .9 -.1c.3 0 .6 0 .8 .1c.3 .1 .6 .3 .8 .5c.2 .2 .4 .5 .5 .8c.1 .2 .2 .5 .2 .8Z" class="g3_319"/>
<path d="M558 251.3l-4.8 5.5l.3 -2.9l-2.6 -1l7.1 -1.6Z" class="g4_319"/>
<path d="M558 251.3l-4.8 5.5l.3 -2.9l-2.6 -1l7.1 -1.6Zm3.4 -33.8l40.3 60.4" class="g3_319"/>
<path d="M562.4 215.6c0 .3 0 .6 -.1 .9c-.1 .3 -.3 .5 -.5 .7c-.2 .2 -.5 .4 -.8 .5c-.2 .1 -.5 .2 -.8 .2c-.3 0 -.6 -.1 -.9 -.2c-.3 -.1 -.6 -.3 -.8 -.5c-.2 -.2 -.3 -.4 -.5 -.7c-.1 -.3 -.1 -.6 -.1 -.9c0 -.3 0 -.6 .1 -.9c.2 -.3 .3 -.5 .5 -.7c.2 -.2 .5 -.4 .8 -.5c.3 -.1 .6 -.2 .9 -.2c.3 0 .6 .1 .8 .2c.3 .1 .6 .3 .8 .5c.2 .2 .4 .4 .5 .7c.1 .3 .1 .6 .1 .9Z" class="g4_319"/>
<path d="M562.4 215.6c0 .3 0 .6 -.1 .9c-.1 .3 -.3 .5 -.5 .7c-.2 .2 -.5 .4 -.8 .5c-.2 .1 -.5 .2 -.8 .2c-.3 0 -.6 -.1 -.9 -.2c-.3 -.1 -.6 -.3 -.8 -.5c-.2 -.2 -.3 -.4 -.5 -.7c-.1 -.3 -.1 -.6 -.1 -.9c0 -.3 0 -.6 .1 -.9c.2 -.3 .3 -.5 .5 -.7c.2 -.2 .5 -.4 .8 -.5c.3 -.1 .6 -.2 .9 -.2c.3 0 .6 .1 .8 .2c.3 .1 .6 .3 .8 .5c.2 .2 .4 .4 .5 .7c.1 .3 .1 .6 .1 .9Z" class="g3_319"/>
<path d="M604.6 282.2l-5.8 -4.4l2.9 .1l1 -2.7l1.9 7Z" class="g4_319"/>
<path d="M604.6 282.2l-5.8 -4.4l2.9 .1l1 -2.7l1.9 7ZM561.8 251.6l27.3 27.3" class="g3_319"/>
<path d="M562.4 250c0 .3 0 .6 -.1 .8c-.1 .3 -.3 .6 -.5 .8c-.2 .2 -.5 .4 -.8 .5c-.2 .1 -.5 .2 -.8 .2c-.3 0 -.6 -.1 -.9 -.2c-.3 -.1 -.6 -.3 -.8 -.5c-.2 -.2 -.3 -.5 -.5 -.8c-.1 -.2 -.1 -.5 -.1 -.8c0 -.3 0 -.6 .1 -.9c.2 -.3 .3 -.5 .5 -.8c.2 -.2 .5 -.3 .8 -.4c.3 -.2 .6 -.2 .9 -.2c.3 0 .6 0 .8 .2c.3 .1 .6 .2 .8 .4c.2 .3 .4 .5 .5 .8c.1 .3 .1 .6 .1 .9Z" class="g4_319"/>
<path d="M562.4 250c0 .3 0 .6 -.1 .8c-.1 .3 -.3 .6 -.5 .8c-.2 .2 -.5 .4 -.8 .5c-.2 .1 -.5 .2 -.8 .2c-.3 0 -.6 -.1 -.9 -.2c-.3 -.1 -.6 -.3 -.8 -.5c-.2 -.2 -.3 -.5 -.5 -.8c-.1 -.2 -.1 -.5 -.1 -.8c0 -.3 0 -.6 .1 -.9c.2 -.3 .3 -.5 .5 -.8c.2 -.2 .5 -.3 .8 -.4c.3 -.2 .6 -.2 .9 -.2c.3 0 .6 0 .8 .2c.3 .1 .6 .2 .8 .4c.2 .3 .4 .5 .5 .8c.1 .3 .1 .6 .1 .9Z" class="g3_319"/>
<path d="M592.7 282.5l-6.5 -3.2l2.9 -.4l.4 -2.9l3.2 6.5Z" class="g4_319"/>
<path d="M592.7 282.5l-6.5 -3.2l2.9 -.4l.4 -2.9l3.2 6.5ZM561.3 183.2l52.4 94.4" class="g3_319"/>
<path d="M562.4 181.2c0 .3 0 .6 -.1 .9c-.1 .3 -.3 .5 -.5 .7c-.2 .3 -.5 .4 -.8 .5c-.2 .2 -.5 .2 -.8 .2c-.3 0 -.6 0 -.9 -.2c-.3 -.1 -.6 -.2 -.8 -.5c-.2 -.2 -.3 -.4 -.5 -.7c-.1 -.3 -.1 -.6 -.1 -.9c0 -.3 0 -.6 .1 -.9c.2 -.2 .3 -.5 .5 -.7c.2 -.2 .5 -.4 .8 -.5c.3 -.1 .6 -.2 .9 -.2c.3 0 .6 .1 .8 .2c.3 .1 .6 .3 .8 .5c.2 .2 .4 .5 .5 .7c.1 .3 .1 .6 .1 .9Z" class="g4_319"/>
<path d="M562.4 181.2c0 .3 0 .6 -.1 .9c-.1 .3 -.3 .5 -.5 .7c-.2 .3 -.5 .4 -.8 .5c-.2 .2 -.5 .2 -.8 .2c-.3 0 -.6 0 -.9 -.2c-.3 -.1 -.6 -.2 -.8 -.5c-.2 -.2 -.3 -.4 -.5 -.7c-.1 -.3 -.1 -.6 -.1 -.9c0 -.3 0 -.6 .1 -.9c.2 -.2 .3 -.5 .5 -.7c.2 -.2 .5 -.4 .8 -.5c.3 -.1 .6 -.2 .9 -.2c.3 0 .6 .1 .8 .2c.3 .1 .6 .3 .8 .5c.2 .2 .4 .5 .5 .7c.1 .3 .1 .6 .1 .9Z" class="g3_319"/>
<path d="M616.2 282.1l-5.3 -4.9l2.8 .4l1.2 -2.6l1.3 7.1Z" class="g4_319"/>
<path d="M616.2 282.1l-5.3 -4.9l2.8 .4l1.2 -2.6l1.3 7.1Z" class="g3_319"/>
<path d="M132.8 283.2l175.3 .9" class="g1_319"/>
<path d="M308.1 272.9h80.2v22.9H308.1V272.9Z" class="g0_319"/>
<path d="M390.2 283.2l48.7 -29.3" class="g3_319"/>
<path d="M390.6 284.3c0 .3 -.1 .6 -.2 .9c-.1 .3 -.3 .5 -.5 .8c-.2 .2 -.5 .3 -.7 .5c-.3 .1 -.6 .1 -.9 .1c-.3 0 -.6 0 -.9 -.1c-.3 -.2 -.5 -.3 -.7 -.5c-.3 -.3 -.4 -.5 -.5 -.8c-.2 -.3 -.2 -.6 -.2 -.9c0 -.3 0 -.6 .2 -.8c.1 -.3 .2 -.6 .5 -.8c.2 -.2 .4 -.4 .7 -.5c.3 -.1 .6 -.1 .9 -.1c.3 0 .6 0 .9 .1c.2 .1 .5 .3 .7 .5c.2 .2 .4 .5 .5 .8c.1 .2 .2 .5 .2 .8Z" class="g4_319"/>
<path d="M390.6 284.3c0 .3 -.1 .6 -.2 .9c-.1 .3 -.3 .5 -.5 .8c-.2 .2 -.5 .3 -.7 .5c-.3 .1 -.6 .1 -.9 .1c-.3 0 -.6 0 -.9 -.1c-.3 -.2 -.5 -.3 -.7 -.5c-.3 -.3 -.4 -.5 -.5 -.8c-.2 -.3 -.2 -.6 -.2 -.9c0 -.3 0 -.6 .2 -.8c.1 -.3 .2 -.6 .5 -.8c.2 -.2 .4 -.4 .7 -.5c.3 -.1 .6 -.1 .9 -.1c.3 0 .6 0 .9 .1c.2 .1 .5 .3 .7 .5c.2 .2 .4 .5 .5 .8c.1 .2 .2 .5 .2 .8Z" class="g3_319"/>
<path d="M443.4 251.3l-4.7 5.5l.2 -2.9l-2.6 -1l7.1 -1.6Z" class="g4_319"/>
<path d="M443.4 251.3l-4.7 5.5l.2 -2.9l-2.6 -1l7.1 -1.6Z" class="g3_319"/>
</g>
<g clip-path="url(#c2_319)">
<path clip-path="url(#c0_319)" d="M70 368H622.3V598.3H70V368Z" class="g0_319"/>
<path d="M135 449.9H619.4M135 484.3H619.4M135 518.7H619.4M135 553H619.4M135 415.5H619.4" class="g1_319"/>
<path d="M151.6 416.7l48.7 29.2" class="g3_319"/>
<path d="M151.9 415.5c0 .3 0 .6 -.2 .9c-.1 .3 -.2 .5 -.5 .7c-.2 .3 -.4 .4 -.7 .5c-.3 .2 -.6 .2 -.9 .2c-.3 0 -.6 0 -.9 -.2c-.2 -.1 -.5 -.2 -.7 -.5c-.2 -.2 -.4 -.4 -.5 -.7c-.1 -.3 -.2 -.6 -.2 -.9c0 -.3 .1 -.6 .2 -.8c.1 -.3 .3 -.6 .5 -.8c.2 -.2 .5 -.4 .7 -.5c.3 -.1 .6 -.2 .9 -.2c.3 0 .6 .1 .9 .2c.3 .1 .5 .3 .7 .5c.3 .2 .4 .5 .5 .8c.2 .2 .2 .5 .2 .8Z" class="g4_319"/>
<path d="M151.9 415.5c0 .3 0 .6 -.2 .9c-.1 .3 -.2 .5 -.5 .7c-.2 .3 -.4 .4 -.7 .5c-.3 .2 -.6 .2 -.9 .2c-.3 0 -.6 0 -.9 -.2c-.2 -.1 -.5 -.2 -.7 -.5c-.2 -.2 -.4 -.4 -.5 -.7c-.1 -.3 -.2 -.6 -.2 -.9c0 -.3 .1 -.6 .2 -.8c.1 -.3 .3 -.6 .5 -.8c.2 -.2 .5 -.4 .7 -.5c.3 -.1 .6 -.2 .9 -.2c.3 0 .6 .1 .9 .2c.3 .1 .5 .3 .7 .5c.3 .2 .4 .5 .5 .8c.2 .2 .2 .5 .2 .8Z" class="g3_319"/>
<path d="M204.7 448.6L197.6 447l2.7 -1.1l-.3 -2.8l4.7 5.5Z" class="g4_319"/>
<path d="M204.7 448.6L197.6 447l2.7 -1.1l-.3 -2.8l4.7 5.5ZM151.1 417.3L202 478.4" class="g3_319"/>
<path d="M151.9 415.5c0 .3 0 .6 -.2 .9c-.1 .3 -.2 .5 -.5 .7c-.2 .3 -.4 .4 -.7 .5c-.3 .2 -.6 .2 -.9 .2c-.3 0 -.6 0 -.9 -.2c-.2 -.1 -.5 -.2 -.7 -.5c-.2 -.2 -.4 -.4 -.5 -.7c-.1 -.3 -.2 -.6 -.2 -.9c0 -.3 .1 -.6 .2 -.8c.1 -.3 .3 -.6 .5 -.8c.2 -.2 .5 -.4 .7 -.5c.3 -.1 .6 -.2 .9 -.2c.3 0 .6 .1 .9 .2c.3 .1 .5 .3 .7 .5c.3 .2 .4 .5 .5 .8c.2 .2 .2 .5 .2 .8Z" class="g4_319"/>
<path d="M151.9 415.5c0 .3 0 .6 -.2 .9c-.1 .3 -.2 .5 -.5 .7c-.2 .3 -.4 .4 -.7 .5c-.3 .2 -.6 .2 -.9 .2c-.3 0 -.6 0 -.9 -.2c-.2 -.1 -.5 -.2 -.7 -.5c-.2 -.2 -.4 -.4 -.5 -.7c-.1 -.3 -.2 -.6 -.2 -.9c0 -.3 .1 -.6 .2 -.8c.1 -.3 .3 -.6 .5 -.8c.2 -.2 .5 -.4 .7 -.5c.3 -.1 .6 -.2 .9 -.2c.3 0 .6 .1 .9 .2c.3 .1 .5 .3 .7 .5c.3 .2 .4 .5 .5 .8c.2 .2 .2 .5 .2 .8Z" class="g3_319"/>
<path d="M205.3 482.3l-6.2 -3.8l2.9 -.1l.6 -2.8l2.7 6.7Z" class="g4_319"/>
<path d="M205.3 482.3l-6.2 -3.8l2.9 -.1l.6 -2.8l2.7 6.7ZM150.7 417.5l52.5 94.4" class="g3_319"/>
<path d="M151.9 415.5c0 .3 0 .6 -.2 .9c-.1 .3 -.2 .5 -.5 .7c-.2 .3 -.4 .4 -.7 .5c-.3 .2 -.6 .2 -.9 .2c-.3 0 -.6 0 -.9 -.2c-.2 -.1 -.5 -.2 -.7 -.5c-.2 -.2 -.4 -.4 -.5 -.7c-.1 -.3 -.2 -.6 -.2 -.9c0 -.3 .1 -.6 .2 -.8c.1 -.3 .3 -.6 .5 -.8c.2 -.2 .5 -.4 .7 -.5c.3 -.1 .6 -.2 .9 -.2c.3 0 .6 .1 .9 .2c.3 .1 .5 .3 .7 .5c.3 .2 .4 .5 .5 .8c.2 .2 .2 .5 .2 .8Z" class="g4_319"/>
<path d="M151.9 415.5c0 .3 0 .6 -.2 .9c-.1 .3 -.2 .5 -.5 .7c-.2 .3 -.4 .4 -.7 .5c-.3 .2 -.6 .2 -.9 .2c-.3 0 -.6 0 -.9 -.2c-.2 -.1 -.5 -.2 -.7 -.5c-.2 -.2 -.4 -.4 -.5 -.7c-.1 -.3 -.2 -.6 -.2 -.9c0 -.3 .1 -.6 .2 -.8c.1 -.3 .3 -.6 .5 -.8c.2 -.2 .5 -.4 .7 -.5c.3 -.1 .6 -.2 .9 -.2c.3 0 .6 .1 .9 .2c.3 .1 .5 .3 .7 .5c.3 .2 .4 .5 .5 .8c.2 .2 .2 .5 .2 .8Z" class="g3_319"/>
<path d="M205.7 516.4l-5.4 -4.9l2.9 .4l1.1 -2.6l1.4 7.1Z" class="g4_319"/>
<path d="M205.7 516.4l-5.4 -4.9l2.9 .4l1.1 -2.6l1.4 7.1Zm2.3 .2l52.5 -94.3" class="g3_319"/>
<path d="M209.2 518.7c0 .3 0 .5 -.2 .8c-.1 .3 -.2 .6 -.5 .8c-.2 .2 -.4 .4 -.7 .5c-.3 .1 -.6 .1 -.9 .1c-.3 0 -.6 0 -.9 -.1c-.2 -.1 -.5 -.3 -.7 -.5c-.2 -.2 -.4 -.5 -.5 -.8c-.1 -.3 -.2 -.5 -.2 -.8c0 -.4 .1 -.6 .2 -.9c.1 -.3 .3 -.6 .5 -.8c.2 -.2 .5 -.3 .7 -.5c.3 -.1 .6 -.1 .9 -.1c.3 0 .6 0 .9 .1c.3 .2 .5 .3 .7 .5c.3 .2 .4 .5 .5 .8c.2 .3 .2 .5 .2 .9Z" class="g4_319"/>
<path d="M209.2 518.7c0 .3 0 .5 -.2 .8c-.1 .3 -.2 .6 -.5 .8c-.2 .2 -.4 .4 -.7 .5c-.3 .1 -.6 .1 -.9 .1c-.3 0 -.6 0 -.9 -.1c-.2 -.1 -.5 -.3 -.7 -.5c-.2 -.2 -.4 -.5 -.5 -.8c-.1 -.3 -.2 -.5 -.2 -.8c0 -.4 .1 -.6 .2 -.9c.1 -.3 .3 -.6 .5 -.8c.2 -.2 .5 -.3 .7 -.5c.3 -.1 .6 -.1 .9 -.1c.3 0 .6 0 .9 .1c.3 .2 .5 .3 .7 .5c.3 .2 .4 .5 .5 .8c.2 .3 .2 .5 .2 .9Z" class="g3_319"/>
<path d="M263 417.8l-1.4 7.1l-1.1 -2.6l-2.9 .4l5.4 -4.9Z" class="g4_319"/>
<path d="M263 417.8l-1.4 7.1l-1.1 -2.6l-2.9 .4l5.4 -4.9Zm-54.8 64.6l40.3 -60.5" class="g3_319"/>
<path d="M209.2 484.3c0 .3 0 .6 -.2 .9c-.1 .2 -.2 .5 -.5 .7c-.2 .2 -.4 .4 -.7 .5c-.3 .1 -.6 .2 -.9 .2c-.3 0 -.6 -.1 -.9 -.2c-.2 -.1 -.5 -.3 -.7 -.5c-.2 -.2 -.4 -.5 -.5 -.7c-.1 -.3 -.2 -.6 -.2 -.9c0 -.3 .1 -.6 .2 -.9c.1 -.3 .3 -.5 .5 -.7c.2 -.3 .5 -.4 .7 -.5c.3 -.2 .6 -.2 .9 -.2c.3 0 .6 0 .9 .2c.3 .1 .5 .2 .7 .5c.3 .2 .4 .4 .5 .7c.2 .3 .2 .6 .2 .9Z" class="g4_319"/>
<path d="M209.2 484.3c0 .3 0 .6 -.2 .9c-.1 .2 -.2 .5 -.5 .7c-.2 .2 -.4 .4 -.7 .5c-.3 .1 -.6 .2 -.9 .2c-.3 0 -.6 -.1 -.9 -.2c-.2 -.1 -.5 -.3 -.7 -.5c-.2 -.2 -.4 -.5 -.5 -.7c-.1 -.3 -.2 -.6 -.2 -.9c0 -.3 .1 -.6 .2 -.9c.1 -.3 .3 -.5 .5 -.7c.2 -.3 .5 -.4 .7 -.5c.3 -.2 .6 -.2 .9 -.2c.3 0 .6 0 .9 .2c.3 .1 .5 .2 .7 .5c.3 .2 .4 .4 .5 .7c.2 .3 .2 .6 .2 .9Z" class="g3_319"/>
<path d="M251.3 417.7l-1.9 6.9l-.9 -2.7l-2.9 .2l5.7 -4.4Z" class="g4_319"/>
<path d="M251.3 417.7l-1.9 6.9l-.9 -2.7l-2.9 .2l5.7 -4.4Zm-42.8 30.6L235.8 421" class="g3_319"/>
<path d="M209.2 449.9c0 .3 0 .6 -.2 .9c-.1 .3 -.2 .5 -.5 .7c-.2 .2 -.4 .4 -.7 .5c-.3 .1 -.6 .2 -.9 .2c-.3 0 -.6 -.1 -.9 -.2c-.2 -.1 -.5 -.3 -.7 -.5c-.2 -.2 -.4 -.4 -.5 -.7c-.1 -.3 -.2 -.6 -.2 -.9c0 -.3 .1 -.6 .2 -.9c.1 -.3 .3 -.5 .5 -.7c.2 -.2 .5 -.4 .7 -.5c.3 -.1 .6 -.2 .9 -.2c.3 0 .6 .1 .9 .2c.3 .1 .5 .3 .7 .5c.3 .2 .4 .4 .5 .7c.2 .3 .2 .6 .2 .9Z" class="g4_319"/>
<path d="M209.2 449.9c0 .3 0 .6 -.2 .9c-.1 .3 -.2 .5 -.5 .7c-.2 .2 -.4 .4 -.7 .5c-.3 .1 -.6 .2 -.9 .2c-.3 0 -.6 -.1 -.9 -.2c-.2 -.1 -.5 -.3 -.7 -.5c-.2 -.2 -.4 -.4 -.5 -.7c-.1 -.3 -.2 -.6 -.2 -.9c0 -.3 .1 -.6 .2 -.9c.1 -.3 .3 -.5 .5 -.7c.2 -.2 .5 -.4 .7 -.5c.3 -.1 .6 -.2 .9 -.2c.3 0 .6 .1 .9 .2c.3 .1 .5 .3 .7 .5c.3 .2 .4 .4 .5 .7c.2 .3 .2 .6 .2 .9Z" class="g3_319"/>
<path d="M239.5 417.3l-3.3 6.5l-.4 -2.8l-2.8 -.4l6.5 -3.3Z" class="g4_319"/>
<path d="M239.5 417.3l-3.3 6.5l-.4 -2.8l-2.8 -.4l6.5 -3.3ZM208 551l52.5 -94.3" class="g3_319"/>
<path d="M209.2 553c0 .3 0 .6 -.2 .9c-.1 .3 -.2 .5 -.5 .7c-.2 .3 -.4 .4 -.7 .5c-.3 .2 -.6 .2 -.9 .2c-.3 0 -.6 0 -.9 -.2c-.2 -.1 -.5 -.2 -.7 -.5c-.2 -.2 -.4 -.4 -.5 -.7c-.1 -.3 -.2 -.6 -.2 -.9c0 -.3 .1 -.6 .2 -.8c.1 -.3 .3 -.6 .5 -.8c.2 -.2 .5 -.4 .7 -.5c.3 -.1 .6 -.2 .9 -.2c.3 0 .6 .1 .9 .2c.3 .1 .5 .3 .7 .5c.3 .2 .4 .5 .5 .8c.2 .2 .2 .5 .2 .8Z" class="g4_319"/>
<path d="M209.2 553c0 .3 0 .6 -.2 .9c-.1 .3 -.2 .5 -.5 .7c-.2 .3 -.4 .4 -.7 .5c-.3 .2 -.6 .2 -.9 .2c-.3 0 -.6 0 -.9 -.2c-.2 -.1 -.5 -.2 -.7 -.5c-.2 -.2 -.4 -.4 -.5 -.7c-.1 -.3 -.2 -.6 -.2 -.9c0 -.3 .1 -.6 .2 -.8c.1 -.3 .3 -.6 .5 -.8c.2 -.2 .5 -.4 .7 -.5c.3 -.1 .6 -.2 .9 -.2c.3 0 .6 .1 .9 .2c.3 .1 .5 .3 .7 .5c.3 .2 .4 .5 .5 .8c.2 .2 .2 .5 .2 .8Z" class="g3_319"/>
<path d="M263 452.1l-1.4 7.2l-1.1 -2.6l-2.9 .3l5.4 -4.9Z" class="g4_319"/>
<path d="M263 452.1l-1.4 7.2l-1.1 -2.6l-2.9 .3l5.4 -4.9Zm-54.6 99.2l50.9 -61.1" class="g3_319"/>
<path d="M209.2 553c0 .3 0 .6 -.2 .9c-.1 .3 -.2 .5 -.5 .7c-.2 .3 -.4 .4 -.7 .5c-.3 .2 -.6 .2 -.9 .2c-.3 0 -.6 0 -.9 -.2c-.2 -.1 -.5 -.2 -.7 -.5c-.2 -.2 -.4 -.4 -.5 -.7c-.1 -.3 -.2 -.6 -.2 -.9c0 -.3 .1 -.6 .2 -.8c.1 -.3 .3 -.6 .5 -.8c.2 -.2 .5 -.4 .7 -.5c.3 -.1 .6 -.2 .9 -.2c.3 0 .6 .1 .9 .2c.3 .1 .5 .3 .7 .5c.3 .2 .4 .5 .5 .8c.2 .2 .2 .5 .2 .8Z" class="g4_319"/>
<path d="M209.2 553c0 .3 0 .6 -.2 .9c-.1 .3 -.2 .5 -.5 .7c-.2 .3 -.4 .4 -.7 .5c-.3 .2 -.6 .2 -.9 .2c-.3 0 -.6 0 -.9 -.2c-.2 -.1 -.5 -.2 -.7 -.5c-.2 -.2 -.4 -.4 -.5 -.7c-.1 -.3 -.2 -.6 -.2 -.9c0 -.3 .1 -.6 .2 -.8c.1 -.3 .3 -.6 .5 -.8c.2 -.2 .5 -.4 .7 -.5c.3 -.1 .6 -.2 .9 -.2c.3 0 .6 .1 .9 .2c.3 .1 .5 .3 .7 .5c.3 .2 .4 .5 .5 .8c.2 .2 .2 .5 .2 .8Z" class="g3_319"/>
<path d="M262.6 486.2l-2.7 6.8l-.6 -2.8l-2.9 -.1l6.2 -3.9Z" class="g4_319"/>
<path d="M262.6 486.2l-2.7 6.8l-.6 -2.8l-2.9 -.1l6.2 -3.9Zm-53.7 65.6l48.7 -29.2" class="g3_319"/>
<path d="M209.2 553c0 .3 0 .6 -.2 .9c-.1 .3 -.2 .5 -.5 .7c-.2 .3 -.4 .4 -.7 .5c-.3 .2 -.6 .2 -.9 .2c-.3 0 -.6 0 -.9 -.2c-.2 -.1 -.5 -.2 -.7 -.5c-.2 -.2 -.4 -.4 -.5 -.7c-.1 -.3 -.2 -.6 -.2 -.9c0 -.3 .1 -.6 .2 -.8c.1 -.3 .3 -.6 .5 -.8c.2 -.2 .5 -.4 .7 -.5c.3 -.1 .6 -.2 .9 -.2c.3 0 .6 .1 .9 .2c.3 .1 .5 .3 .7 .5c.3 .2 .4 .5 .5 .8c.2 .2 .2 .5 .2 .8Z" class="g4_319"/>
<path d="M209.2 553c0 .3 0 .6 -.2 .9c-.1 .3 -.2 .5 -.5 .7c-.2 .3 -.4 .4 -.7 .5c-.3 .2 -.6 .2 -.9 .2c-.3 0 -.6 0 -.9 -.2c-.2 -.1 -.5 -.2 -.7 -.5c-.2 -.2 -.4 -.4 -.5 -.7c-.1 -.3 -.2 -.6 -.2 -.9c0 -.3 .1 -.6 .2 -.8c.1 -.3 .3 -.6 .5 -.8c.2 -.2 .5 -.4 .7 -.5c.3 -.1 .6 -.2 .9 -.2c.3 0 .6 .1 .9 .2c.3 .1 .5 .3 .7 .5c.3 .2 .4 .5 .5 .8c.2 .2 .2 .5 .2 .8Z" class="g3_319"/>
<path d="M262 520l-4.7 5.5l.3 -2.9l-2.7 -1.1L262 520Z" class="g4_319"/>
<path d="M262 520l-4.7 5.5l.3 -2.9l-2.7 -1.1L262 520Zm3.8 .3l27.3 27.3" class="g3_319"/>
<path d="M266.5 518.7c0 .3 -.1 .5 -.2 .8c-.1 .3 -.3 .6 -.5 .8c-.2 .2 -.4 .4 -.7 .5c-.3 .1 -.6 .1 -.9 .1c-.3 0 -.6 0 -.9 -.1c-.2 -.1 -.5 -.3 -.7 -.5c-.2 -.2 -.4 -.5 -.5 -.8c-.1 -.3 -.2 -.5 -.2 -.8c0 -.4 .1 -.6 .2 -.9c.1 -.3 .3 -.6 .5 -.8c.2 -.2 .5 -.3 .7 -.5c.3 -.1 .6 -.1 .9 -.1c.3 0 .6 0 .9 .1c.3 .2 .5 .3 .7 .5c.2 .2 .4 .5 .5 .8c.1 .3 .2 .5 .2 .9Z" class="g4_319"/>
<path d="M266.5 518.7c0 .3 -.1 .5 -.2 .8c-.1 .3 -.3 .6 -.5 .8c-.2 .2 -.4 .4 -.7 .5c-.3 .1 -.6 .1 -.9 .1c-.3 0 -.6 0 -.9 -.1c-.2 -.1 -.5 -.3 -.7 -.5c-.2 -.2 -.4 -.5 -.5 -.8c-.1 -.3 -.2 -.5 -.2 -.8c0 -.4 .1 -.6 .2 -.9c.1 -.3 .3 -.6 .5 -.8c.2 -.2 .5 -.3 .7 -.5c.3 -.1 .6 -.1 .9 -.1c.3 0 .6 0 .9 .1c.3 .2 .5 .3 .7 .5c.2 .2 .4 .5 .5 .8c.1 .3 .2 .5 .2 .9Z" class="g3_319"/>
<path d="M296.8 551.2L290.3 548l2.8 -.4l.4 -2.9l3.3 6.5Z" class="g4_319"/>
<path d="M296.8 551.2L290.3 548l2.8 -.4l.4 -2.9l3.3 6.5Zm-31.3 -65l40.3 60.4" class="g3_319"/>
<path d="M266.5 484.3c0 .3 -.1 .6 -.2 .9c-.1 .2 -.3 .5 -.5 .7c-.2 .2 -.4 .4 -.7 .5c-.3 .1 -.6 .2 -.9 .2c-.3 0 -.6 -.1 -.9 -.2c-.2 -.1 -.5 -.3 -.7 -.5c-.2 -.2 -.4 -.5 -.5 -.7c-.1 -.3 -.2 -.6 -.2 -.9c0 -.3 .1 -.6 .2 -.9c.1 -.3 .3 -.5 .5 -.7c.2 -.3 .5 -.4 .7 -.5c.3 -.2 .6 -.2 .9 -.2c.3 0 .6 0 .9 .2c.3 .1 .5 .2 .7 .5c.2 .2 .4 .4 .5 .7c.1 .3 .2 .6 .2 .9Z" class="g4_319"/>
<path d="M266.5 484.3c0 .3 -.1 .6 -.2 .9c-.1 .2 -.3 .5 -.5 .7c-.2 .2 -.4 .4 -.7 .5c-.3 .1 -.6 .2 -.9 .2c-.3 0 -.6 -.1 -.9 -.2c-.2 -.1 -.5 -.3 -.7 -.5c-.2 -.2 -.4 -.5 -.5 -.7c-.1 -.3 -.2 -.6 -.2 -.9c0 -.3 .1 -.6 .2 -.9c.1 -.3 .3 -.5 .5 -.7c.2 -.3 .5 -.4 .7 -.5c.3 -.2 .6 -.2 .9 -.2c.3 0 .6 0 .9 .2c.3 .1 .5 .2 .7 .5c.2 .2 .4 .4 .5 .7c.1 .3 .2 .6 .2 .9Z" class="g3_319"/>
<path d="M308.6 550.9l-5.7 -4.4l2.9 .1l.9 -2.7l1.9 7Z" class="g4_319"/>
<path d="M308.6 550.9l-5.7 -4.4l2.9 .1l.9 -2.7l1.9 7Zm-43.3 -99l52.5 94.4" class="g3_319"/>
<path d="M266.5 449.9c0 .3 -.1 .6 -.2 .9c-.1 .3 -.3 .5 -.5 .7c-.2 .2 -.4 .4 -.7 .5c-.3 .1 -.6 .2 -.9 .2c-.3 0 -.6 -.1 -.9 -.2c-.2 -.1 -.5 -.3 -.7 -.5c-.2 -.2 -.4 -.4 -.5 -.7c-.1 -.3 -.2 -.6 -.2 -.9c0 -.3 .1 -.6 .2 -.9c.1 -.3 .3 -.5 .5 -.7c.2 -.2 .5 -.4 .7 -.5c.3 -.1 .6 -.2 .9 -.2c.3 0 .6 .1 .9 .2c.3 .1 .5 .3 .7 .5c.2 .2 .4 .4 .5 .7c.1 .3 .2 .6 .2 .9Z" class="g4_319"/>
<path d="M266.5 449.9c0 .3 -.1 .6 -.2 .9c-.1 .3 -.3 .5 -.5 .7c-.2 .2 -.4 .4 -.7 .5c-.3 .1 -.6 .2 -.9 .2c-.3 0 -.6 -.1 -.9 -.2c-.2 -.1 -.5 -.3 -.7 -.5c-.2 -.2 -.4 -.4 -.5 -.7c-.1 -.3 -.2 -.6 -.2 -.9c0 -.3 .1 -.6 .2 -.9c.1 -.3 .3 -.5 .5 -.7c.2 -.2 .5 -.4 .7 -.5c.3 -.1 .6 -.2 .9 -.2c.3 0 .6 .1 .9 .2c.3 .1 .5 .3 .7 .5c.2 .2 .4 .4 .5 .7c.1 .3 .2 .6 .2 .9Z" class="g3_319"/>
<path d="M320.3 550.8l-5.4 -4.9l2.9 .4l1.1 -2.6l1.4 7.1Z" class="g4_319"/>
<path d="M320.3 550.8l-5.4 -4.9l2.9 .4l1.1 -2.6l1.4 7.1Zm116.9 .2l52.4 -94.3" class="g3_319"/>
<path d="M438.4 553c0 .3 -.1 .6 -.2 .9c-.1 .3 -.3 .5 -.5 .7c-.2 .3 -.5 .4 -.7 .5c-.3 .2 -.6 .2 -.9 .2c-.3 0 -.6 0 -.9 -.2c-.3 -.1 -.5 -.2 -.7 -.5c-.3 -.2 -.4 -.4 -.5 -.7c-.1 -.3 -.2 -.6 -.2 -.9c0 -.3 .1 -.6 .2 -.8c.1 -.3 .2 -.6 .5 -.8c.2 -.2 .4 -.4 .7 -.5c.3 -.1 .6 -.2 .9 -.2c.3 0 .6 .1 .9 .2c.2 .1 .5 .3 .7 .5c.2 .2 .4 .5 .5 .8c.1 .2 .2 .5 .2 .8Z" class="g4_319"/>
<path d="M438.4 553c0 .3 -.1 .6 -.2 .9c-.1 .3 -.3 .5 -.5 .7c-.2 .3 -.5 .4 -.7 .5c-.3 .2 -.6 .2 -.9 .2c-.3 0 -.6 0 -.9 -.2c-.3 -.1 -.5 -.2 -.7 -.5c-.3 -.2 -.4 -.4 -.5 -.7c-.1 -.3 -.2 -.6 -.2 -.9c0 -.3 .1 -.6 .2 -.8c.1 -.3 .2 -.6 .5 -.8c.2 -.2 .4 -.4 .7 -.5c.3 -.1 .6 -.2 .9 -.2c.3 0 .6 .1 .9 .2c.2 .1 .5 .3 .7 .5c.2 .2 .4 .5 .5 .8c.1 .2 .2 .5 .2 .8Z" class="g3_319"/>
<path d="M492.1 452.1l-1.3 7.2l-1.2 -2.6l-2.8 .3l5.3 -4.9Z" class="g4_319"/>
<path d="M492.1 452.1l-1.3 7.2l-1.2 -2.6l-2.8 .3l5.3 -4.9Zm-54.5 99.2l50.8 -61.1" class="g3_319"/>
<path d="M438.4 553c0 .3 -.1 .6 -.2 .9c-.1 .3 -.3 .5 -.5 .7c-.2 .3 -.5 .4 -.7 .5c-.3 .2 -.6 .2 -.9 .2c-.3 0 -.6 0 -.9 -.2c-.3 -.1 -.5 -.2 -.7 -.5c-.3 -.2 -.4 -.4 -.5 -.7c-.1 -.3 -.2 -.6 -.2 -.9c0 -.3 .1 -.6 .2 -.8c.1 -.3 .2 -.6 .5 -.8c.2 -.2 .4 -.4 .7 -.5c.3 -.1 .6 -.2 .9 -.2c.3 0 .6 .1 .9 .2c.2 .1 .5 .3 .7 .5c.2 .2 .4 .5 .5 .8c.1 .2 .2 .5 .2 .8Z" class="g4_319"/>
<path d="M438.4 553c0 .3 -.1 .6 -.2 .9c-.1 .3 -.3 .5 -.5 .7c-.2 .3 -.5 .4 -.7 .5c-.3 .2 -.6 .2 -.9 .2c-.3 0 -.6 0 -.9 -.2c-.3 -.1 -.5 -.2 -.7 -.5c-.3 -.2 -.4 -.4 -.5 -.7c-.1 -.3 -.2 -.6 -.2 -.9c0 -.3 .1 -.6 .2 -.8c.1 -.3 .2 -.6 .5 -.8c.2 -.2 .4 -.4 .7 -.5c.3 -.1 .6 -.2 .9 -.2c.3 0 .6 .1 .9 .2c.2 .1 .5 .3 .7 .5c.2 .2 .4 .5 .5 .8c.1 .2 .2 .5 .2 .8Z" class="g3_319"/>
<path d="M491.7 486.2l-2.6 6.8l-.7 -2.8l-2.8 -.1l6.1 -3.9Z" class="g4_319"/>
<path d="M491.7 486.2l-2.6 6.8l-.7 -2.8l-2.8 -.1l6.1 -3.9ZM438 551.8l48.8 -29.2" class="g3_319"/>
<path d="M438.4 553c0 .3 -.1 .6 -.2 .9c-.1 .3 -.3 .5 -.5 .7c-.2 .3 -.5 .4 -.7 .5c-.3 .2 -.6 .2 -.9 .2c-.3 0 -.6 0 -.9 -.2c-.3 -.1 -.5 -.2 -.7 -.5c-.3 -.2 -.4 -.4 -.5 -.7c-.1 -.3 -.2 -.6 -.2 -.9c0 -.3 .1 -.6 .2 -.8c.1 -.3 .2 -.6 .5 -.8c.2 -.2 .4 -.4 .7 -.5c.3 -.1 .6 -.2 .9 -.2c.3 0 .6 .1 .9 .2c.2 .1 .5 .3 .7 .5c.2 .2 .4 .5 .5 .8c.1 .2 .2 .5 .2 .8Z" class="g4_319"/>
<path d="M438.4 553c0 .3 -.1 .6 -.2 .9c-.1 .3 -.3 .5 -.5 .7c-.2 .3 -.5 .4 -.7 .5c-.3 .2 -.6 .2 -.9 .2c-.3 0 -.6 0 -.9 -.2c-.3 -.1 -.5 -.2 -.7 -.5c-.3 -.2 -.4 -.4 -.5 -.7c-.1 -.3 -.2 -.6 -.2 -.9c0 -.3 .1 -.6 .2 -.8c.1 -.3 .2 -.6 .5 -.8c.2 -.2 .4 -.4 .7 -.5c.3 -.1 .6 -.2 .9 -.2c.3 0 .6 .1 .9 .2c.2 .1 .5 .3 .7 .5c.2 .2 .4 .5 .5 .8c.1 .2 .2 .5 .2 .8Z" class="g3_319"/>
<path d="M491.2 520l-4.7 5.5l.3 -2.9l-2.7 -1.1l7.1 -1.5Z" class="g4_319"/>
<path d="M491.2 520l-4.7 5.5l.3 -2.9l-2.7 -1.1l7.1 -1.5Zm3.8 .3l27.3 27.3" class="g3_319"/>
<path d="M495.7 518.7c0 .3 -.1 .5 -.2 .8c-.1 .3 -.3 .6 -.5 .8c-.2 .2 -.5 .4 -.7 .5c-.3 .1 -.6 .1 -.9 .1c-.3 0 -.6 0 -.9 -.1c-.3 -.1 -.5 -.3 -.7 -.5c-.3 -.2 -.4 -.5 -.5 -.8c-.2 -.3 -.2 -.5 -.2 -.8c0 -.4 0 -.6 .2 -.9c.1 -.3 .2 -.6 .5 -.8c.2 -.2 .4 -.3 .7 -.5c.3 -.1 .6 -.1 .9 -.1c.3 0 .6 0 .9 .1c.2 .2 .5 .3 .7 .5c.2 .2 .4 .5 .5 .8c.1 .3 .2 .5 .2 .9Z" class="g4_319"/>
<path d="M495.7 518.7c0 .3 -.1 .5 -.2 .8c-.1 .3 -.3 .6 -.5 .8c-.2 .2 -.5 .4 -.7 .5c-.3 .1 -.6 .1 -.9 .1c-.3 0 -.6 0 -.9 -.1c-.3 -.1 -.5 -.3 -.7 -.5c-.3 -.2 -.4 -.5 -.5 -.8c-.2 -.3 -.2 -.5 -.2 -.8c0 -.4 0 -.6 .2 -.9c.1 -.3 .2 -.6 .5 -.8c.2 -.2 .4 -.3 .7 -.5c.3 -.1 .6 -.1 .9 -.1c.3 0 .6 0 .9 .1c.2 .2 .5 .3 .7 .5c.2 .2 .4 .5 .5 .8c.1 .3 .2 .5 .2 .9Z" class="g3_319"/>
<path d="M525.9 551.2L519.5 548l2.8 -.4l.4 -2.9l3.2 6.5Z" class="g4_319"/>
<path d="M525.9 551.2L519.5 548l2.8 -.4l.4 -2.9l3.2 6.5Zm-31.3 -65l40.3 60.4" class="g3_319"/>
<path d="M495.7 484.3c0 .3 -.1 .6 -.2 .9c-.1 .2 -.3 .5 -.5 .7c-.2 .2 -.5 .4 -.7 .5c-.3 .1 -.6 .2 -.9 .2c-.3 0 -.6 -.1 -.9 -.2c-.3 -.1 -.5 -.3 -.7 -.5c-.3 -.2 -.4 -.5 -.5 -.7c-.2 -.3 -.2 -.6 -.2 -.9c0 -.3 0 -.6 .2 -.9c.1 -.3 .2 -.5 .5 -.7c.2 -.3 .4 -.4 .7 -.5c.3 -.2 .6 -.2 .9 -.2c.3 0 .6 0 .9 .2c.2 .1 .5 .2 .7 .5c.2 .2 .4 .4 .5 .7c.1 .3 .2 .6 .2 .9Z" class="g4_319"/>
<path d="M495.7 484.3c0 .3 -.1 .6 -.2 .9c-.1 .2 -.3 .5 -.5 .7c-.2 .2 -.5 .4 -.7 .5c-.3 .1 -.6 .2 -.9 .2c-.3 0 -.6 -.1 -.9 -.2c-.3 -.1 -.5 -.3 -.7 -.5c-.3 -.2 -.4 -.5 -.5 -.7c-.2 -.3 -.2 -.6 -.2 -.9c0 -.3 0 -.6 .2 -.9c.1 -.3 .2 -.5 .5 -.7c.2 -.3 .4 -.4 .7 -.5c.3 -.2 .6 -.2 .9 -.2c.3 0 .6 0 .9 .2c.2 .1 .5 .2 .7 .5c.2 .2 .4 .4 .5 .7c.1 .3 .2 .6 .2 .9Z" class="g3_319"/>
<path d="M537.8 550.9l-5.7 -4.4l2.8 .1l1 -2.7l1.9 7Z" class="g4_319"/>
<path d="M537.8 550.9l-5.7 -4.4l2.8 .1l1 -2.7l1.9 7Zm-43.3 -99l52.4 94.4" class="g3_319"/>
<path d="M495.7 449.9c0 .3 -.1 .6 -.2 .9c-.1 .3 -.3 .5 -.5 .7c-.2 .2 -.5 .4 -.7 .5c-.3 .1 -.6 .2 -.9 .2c-.3 0 -.6 -.1 -.9 -.2c-.3 -.1 -.5 -.3 -.7 -.5c-.3 -.2 -.4 -.4 -.5 -.7c-.2 -.3 -.2 -.6 -.2 -.9c0 -.3 0 -.6 .2 -.9c.1 -.3 .2 -.5 .5 -.7c.2 -.2 .4 -.4 .7 -.5c.3 -.1 .6 -.2 .9 -.2c.3 0 .6 .1 .9 .2c.2 .1 .5 .3 .7 .5c.2 .2 .4 .4 .5 .7c.1 .3 .2 .6 .2 .9Z" class="g4_319"/>
<path d="M495.7 449.9c0 .3 -.1 .6 -.2 .9c-.1 .3 -.3 .5 -.5 .7c-.2 .2 -.5 .4 -.7 .5c-.3 .1 -.6 .2 -.9 .2c-.3 0 -.6 -.1 -.9 -.2c-.3 -.1 -.5 -.3 -.7 -.5c-.3 -.2 -.4 -.4 -.5 -.7c-.2 -.3 -.2 -.6 -.2 -.9c0 -.3 0 -.6 .2 -.9c.1 -.3 .2 -.5 .5 -.7c.2 -.2 .4 -.4 .7 -.5c.3 -.1 .6 -.2 .9 -.2c.3 0 .6 .1 .9 .2c.2 .1 .5 .3 .7 .5c.2 .2 .4 .4 .5 .7c.1 .3 .2 .6 .2 .9Z" class="g3_319"/>
<path d="M549.4 550.8l-5.3 -4.9l2.8 .4l1.2 -2.6l1.3 7.1Z" class="g4_319"/>
<path d="M549.4 550.8l-5.3 -4.9l2.8 .4l1.2 -2.6l1.3 7.1ZM266.2 416.7l48.7 29.2" class="g3_319"/>
<path d="M266.5 415.5c0 .3 -.1 .6 -.2 .9c-.1 .3 -.3 .5 -.5 .7c-.2 .3 -.4 .4 -.7 .5c-.3 .2 -.6 .2 -.9 .2c-.3 0 -.6 0 -.9 -.2c-.2 -.1 -.5 -.2 -.7 -.5c-.2 -.2 -.4 -.4 -.5 -.7c-.1 -.3 -.2 -.6 -.2 -.9c0 -.3 .1 -.6 .2 -.8c.1 -.3 .3 -.6 .5 -.8c.2 -.2 .5 -.4 .7 -.5c.3 -.1 .6 -.2 .9 -.2c.3 0 .6 .1 .9 .2c.3 .1 .5 .3 .7 .5c.2 .2 .4 .5 .5 .8c.1 .2 .2 .5 .2 .8Z" class="g4_319"/>
<path d="M266.5 415.5c0 .3 -.1 .6 -.2 .9c-.1 .3 -.3 .5 -.5 .7c-.2 .3 -.4 .4 -.7 .5c-.3 .2 -.6 .2 -.9 .2c-.3 0 -.6 0 -.9 -.2c-.2 -.1 -.5 -.2 -.7 -.5c-.2 -.2 -.4 -.4 -.5 -.7c-.1 -.3 -.2 -.6 -.2 -.9c0 -.3 .1 -.6 .2 -.8c.1 -.3 .3 -.6 .5 -.8c.2 -.2 .5 -.4 .7 -.5c.3 -.1 .6 -.2 .9 -.2c.3 0 .6 .1 .9 .2c.3 .1 .5 .3 .7 .5c.2 .2 .4 .5 .5 .8c.1 .2 .2 .5 .2 .8Z" class="g3_319"/>
<path d="M319.3 448.6L312.2 447l2.7 -1.1l-.3 -2.8l4.7 5.5Z" class="g4_319"/>
<path d="M319.3 448.6L312.2 447l2.7 -1.1l-.3 -2.8l4.7 5.5ZM265.7 417.3l50.9 61.1" class="g3_319"/>
<path d="M266.5 415.5c0 .3 -.1 .6 -.2 .9c-.1 .3 -.3 .5 -.5 .7c-.2 .3 -.4 .4 -.7 .5c-.3 .2 -.6 .2 -.9 .2c-.3 0 -.6 0 -.9 -.2c-.2 -.1 -.5 -.2 -.7 -.5c-.2 -.2 -.4 -.4 -.5 -.7c-.1 -.3 -.2 -.6 -.2 -.9c0 -.3 .1 -.6 .2 -.8c.1 -.3 .3 -.6 .5 -.8c.2 -.2 .5 -.4 .7 -.5c.3 -.1 .6 -.2 .9 -.2c.3 0 .6 .1 .9 .2c.3 .1 .5 .3 .7 .5c.2 .2 .4 .5 .5 .8c.1 .2 .2 .5 .2 .8Z" class="g4_319"/>
<path d="M266.5 415.5c0 .3 -.1 .6 -.2 .9c-.1 .3 -.3 .5 -.5 .7c-.2 .3 -.4 .4 -.7 .5c-.3 .2 -.6 .2 -.9 .2c-.3 0 -.6 0 -.9 -.2c-.2 -.1 -.5 -.2 -.7 -.5c-.2 -.2 -.4 -.4 -.5 -.7c-.1 -.3 -.2 -.6 -.2 -.9c0 -.3 .1 -.6 .2 -.8c.1 -.3 .3 -.6 .5 -.8c.2 -.2 .5 -.4 .7 -.5c.3 -.1 .6 -.2 .9 -.2c.3 0 .6 .1 .9 .2c.3 .1 .5 .3 .7 .5c.2 .2 .4 .5 .5 .8c.1 .2 .2 .5 .2 .8Z" class="g3_319"/>
<path d="M319.9 482.3l-6.2 -3.8l2.9 -.1l.6 -2.8l2.7 6.7Z" class="g4_319"/>
<path d="M319.9 482.3l-6.2 -3.8l2.9 -.1l.6 -2.8l2.7 6.7ZM265.3 417.5l52.5 94.4" class="g3_319"/>
<path d="M266.5 415.5c0 .3 -.1 .6 -.2 .9c-.1 .3 -.3 .5 -.5 .7c-.2 .3 -.4 .4 -.7 .5c-.3 .2 -.6 .2 -.9 .2c-.3 0 -.6 0 -.9 -.2c-.2 -.1 -.5 -.2 -.7 -.5c-.2 -.2 -.4 -.4 -.5 -.7c-.1 -.3 -.2 -.6 -.2 -.9c0 -.3 .1 -.6 .2 -.8c.1 -.3 .3 -.6 .5 -.8c.2 -.2 .5 -.4 .7 -.5c.3 -.1 .6 -.2 .9 -.2c.3 0 .6 .1 .9 .2c.3 .1 .5 .3 .7 .5c.2 .2 .4 .5 .5 .8c.1 .2 .2 .5 .2 .8Z" class="g4_319"/>
<path d="M266.5 415.5c0 .3 -.1 .6 -.2 .9c-.1 .3 -.3 .5 -.5 .7c-.2 .3 -.4 .4 -.7 .5c-.3 .2 -.6 .2 -.9 .2c-.3 0 -.6 0 -.9 -.2c-.2 -.1 -.5 -.2 -.7 -.5c-.2 -.2 -.4 -.4 -.5 -.7c-.1 -.3 -.2 -.6 -.2 -.9c0 -.3 .1 -.6 .2 -.8c.1 -.3 .3 -.6 .5 -.8c.2 -.2 .5 -.4 .7 -.5c.3 -.1 .6 -.2 .9 -.2c.3 0 .6 .1 .9 .2c.3 .1 .5 .3 .7 .5c.2 .2 .4 .5 .5 .8c.1 .2 .2 .5 .2 .8Z" class="g3_319"/>
<path d="M320.3 516.4l-5.4 -4.9l2.9 .4l1.1 -2.6l1.4 7.1Z" class="g4_319"/>
<path d="M320.3 516.4l-5.4 -4.9l2.9 .4l1.1 -2.6l1.4 7.1Zm2.3 .2L375 422.3" class="g3_319"/>
<path d="M323.8 518.7c0 .3 -.1 .5 -.2 .8c-.1 .3 -.3 .6 -.5 .8c-.2 .2 -.4 .4 -.7 .5c-.3 .1 -.6 .1 -.9 .1c-.3 0 -.6 0 -.9 -.1c-.3 -.1 -.5 -.3 -.7 -.5c-.2 -.2 -.4 -.5 -.5 -.8c-.1 -.3 -.2 -.5 -.2 -.8c0 -.4 .1 -.6 .2 -.9c.1 -.3 .3 -.6 .5 -.8c.2 -.2 .4 -.3 .7 -.5c.3 -.1 .6 -.1 .9 -.1c.3 0 .6 0 .9 .1c.3 .2 .5 .3 .7 .5c.2 .2 .4 .5 .5 .8c.1 .3 .2 .5 .2 .9Z" class="g4_319"/>
<path d="M323.8 518.7c0 .3 -.1 .5 -.2 .8c-.1 .3 -.3 .6 -.5 .8c-.2 .2 -.4 .4 -.7 .5c-.3 .1 -.6 .1 -.9 .1c-.3 0 -.6 0 -.9 -.1c-.3 -.1 -.5 -.3 -.7 -.5c-.2 -.2 -.4 -.5 -.5 -.8c-.1 -.3 -.2 -.5 -.2 -.8c0 -.4 .1 -.6 .2 -.9c.1 -.3 .3 -.6 .5 -.8c.2 -.2 .4 -.3 .7 -.5c.3 -.1 .6 -.1 .9 -.1c.3 0 .6 0 .9 .1c.3 .2 .5 .3 .7 .5c.2 .2 .4 .5 .5 .8c.1 .3 .2 .5 .2 .9Z" class="g3_319"/>
<path d="M377.5 417.8l-1.3 7.1L375 422.3l-2.8 .4l5.3 -4.9Z" class="g4_319"/>
<path d="M377.5 417.8l-1.3 7.1L375 422.3l-2.8 .4l5.3 -4.9Zm-54.7 64.6L363 421.9" class="g3_319"/>
<path d="M323.8 484.3c0 .3 -.1 .6 -.2 .9c-.1 .2 -.3 .5 -.5 .7c-.2 .2 -.4 .4 -.7 .5c-.3 .1 -.6 .2 -.9 .2c-.3 0 -.6 -.1 -.9 -.2c-.3 -.1 -.5 -.3 -.7 -.5c-.2 -.2 -.4 -.5 -.5 -.7c-.1 -.3 -.2 -.6 -.2 -.9c0 -.3 .1 -.6 .2 -.9c.1 -.3 .3 -.5 .5 -.7c.2 -.3 .4 -.4 .7 -.5c.3 -.2 .6 -.2 .9 -.2c.3 0 .6 0 .9 .2c.3 .1 .5 .2 .7 .5c.2 .2 .4 .4 .5 .7c.1 .3 .2 .6 .2 .9Z" class="g4_319"/>
<path d="M323.8 484.3c0 .3 -.1 .6 -.2 .9c-.1 .2 -.3 .5 -.5 .7c-.2 .2 -.4 .4 -.7 .5c-.3 .1 -.6 .2 -.9 .2c-.3 0 -.6 -.1 -.9 -.2c-.3 -.1 -.5 -.3 -.7 -.5c-.2 -.2 -.4 -.5 -.5 -.7c-.1 -.3 -.2 -.6 -.2 -.9c0 -.3 .1 -.6 .2 -.9c.1 -.3 .3 -.5 .5 -.7c.2 -.3 .4 -.4 .7 -.5c.3 -.2 .6 -.2 .9 -.2c.3 0 .6 0 .9 .2c.3 .1 .5 .2 .7 .5c.2 .2 .4 .4 .5 .7c.1 .3 .2 .6 .2 .9Z" class="g3_319"/>
<path d="M365.9 417.7l-1.9 6.9l-1 -2.7l-2.8 .2l5.7 -4.4Z" class="g4_319"/>
<path d="M365.9 417.7l-1.9 6.9l-1 -2.7l-2.8 .2l5.7 -4.4Zm-42.8 30.6L350.4 421" class="g3_319"/>
<path d="M323.8 449.9c0 .3 -.1 .6 -.2 .9c-.1 .3 -.3 .5 -.5 .7c-.2 .2 -.4 .4 -.7 .5c-.3 .1 -.6 .2 -.9 .2c-.3 0 -.6 -.1 -.9 -.2c-.3 -.1 -.5 -.3 -.7 -.5c-.2 -.2 -.4 -.4 -.5 -.7c-.1 -.3 -.2 -.6 -.2 -.9c0 -.3 .1 -.6 .2 -.9c.1 -.3 .3 -.5 .5 -.7c.2 -.2 .4 -.4 .7 -.5c.3 -.1 .6 -.2 .9 -.2c.3 0 .6 .1 .9 .2c.3 .1 .5 .3 .7 .5c.2 .2 .4 .4 .5 .7c.1 .3 .2 .6 .2 .9Z" class="g4_319"/>
<path d="M323.8 449.9c0 .3 -.1 .6 -.2 .9c-.1 .3 -.3 .5 -.5 .7c-.2 .2 -.4 .4 -.7 .5c-.3 .1 -.6 .2 -.9 .2c-.3 0 -.6 -.1 -.9 -.2c-.3 -.1 -.5 -.3 -.7 -.5c-.2 -.2 -.4 -.4 -.5 -.7c-.1 -.3 -.2 -.6 -.2 -.9c0 -.3 .1 -.6 .2 -.9c.1 -.3 .3 -.5 .5 -.7c.2 -.2 .4 -.4 .7 -.5c.3 -.1 .6 -.2 .9 -.2c.3 0 .6 .1 .9 .2c.3 .1 .5 .3 .7 .5c.2 .2 .4 .4 .5 .7c.1 .3 .2 .6 .2 .9Z" class="g3_319"/>
<path d="M354.1 417.3l-3.3 6.5l-.4 -2.8l-2.8 -.4l6.5 -3.3Z" class="g4_319"/>
<path d="M354.1 417.3l-3.3 6.5l-.4 -2.8l-2.8 -.4l6.5 -3.3Zm26.7 -.6l48.7 29.2" class="g3_319"/>
<path d="M381.1 415.5c0 .3 -.1 .6 -.2 .9c-.1 .3 -.3 .5 -.5 .7c-.2 .3 -.4 .4 -.7 .5c-.3 .2 -.6 .2 -.9 .2c-.3 0 -.6 0 -.9 -.2c-.3 -.1 -.5 -.2 -.7 -.5c-.2 -.2 -.4 -.4 -.5 -.7c-.1 -.3 -.2 -.6 -.2 -.9c0 -.3 .1 -.6 .2 -.8c.1 -.3 .3 -.6 .5 -.8c.2 -.2 .4 -.4 .7 -.5c.3 -.1 .6 -.2 .9 -.2c.3 0 .6 .1 .9 .2c.3 .1 .5 .3 .7 .5c.2 .2 .4 .5 .5 .8c.1 .2 .2 .5 .2 .8Z" class="g4_319"/>
<path d="M381.1 415.5c0 .3 -.1 .6 -.2 .9c-.1 .3 -.3 .5 -.5 .7c-.2 .3 -.4 .4 -.7 .5c-.3 .2 -.6 .2 -.9 .2c-.3 0 -.6 0 -.9 -.2c-.3 -.1 -.5 -.2 -.7 -.5c-.2 -.2 -.4 -.4 -.5 -.7c-.1 -.3 -.2 -.6 -.2 -.9c0 -.3 .1 -.6 .2 -.8c.1 -.3 .3 -.6 .5 -.8c.2 -.2 .4 -.4 .7 -.5c.3 -.1 .6 -.2 .9 -.2c.3 0 .6 .1 .9 .2c.3 .1 .5 .3 .7 .5c.2 .2 .4 .5 .5 .8c.1 .2 .2 .5 .2 .8Z" class="g3_319"/>
<path d="M433.9 448.6L426.8 447l2.7 -1.1l-.3 -2.8l4.7 5.5Z" class="g4_319"/>
<path d="M433.9 448.6L426.8 447l2.7 -1.1l-.3 -2.8l4.7 5.5ZM380.3 417.3l50.8 61.1" class="g3_319"/>
<path d="M381.1 415.5c0 .3 -.1 .6 -.2 .9c-.1 .3 -.3 .5 -.5 .7c-.2 .3 -.4 .4 -.7 .5c-.3 .2 -.6 .2 -.9 .2c-.3 0 -.6 0 -.9 -.2c-.3 -.1 -.5 -.2 -.7 -.5c-.2 -.2 -.4 -.4 -.5 -.7c-.1 -.3 -.2 -.6 -.2 -.9c0 -.3 .1 -.6 .2 -.8c.1 -.3 .3 -.6 .5 -.8c.2 -.2 .4 -.4 .7 -.5c.3 -.1 .6 -.2 .9 -.2c.3 0 .6 .1 .9 .2c.3 .1 .5 .3 .7 .5c.2 .2 .4 .5 .5 .8c.1 .2 .2 .5 .2 .8Z" class="g4_319"/>
<path d="M381.1 415.5c0 .3 -.1 .6 -.2 .9c-.1 .3 -.3 .5 -.5 .7c-.2 .3 -.4 .4 -.7 .5c-.3 .2 -.6 .2 -.9 .2c-.3 0 -.6 0 -.9 -.2c-.3 -.1 -.5 -.2 -.7 -.5c-.2 -.2 -.4 -.4 -.5 -.7c-.1 -.3 -.2 -.6 -.2 -.9c0 -.3 .1 -.6 .2 -.8c.1 -.3 .3 -.6 .5 -.8c.2 -.2 .4 -.4 .7 -.5c.3 -.1 .6 -.2 .9 -.2c.3 0 .6 .1 .9 .2c.3 .1 .5 .3 .7 .5c.2 .2 .4 .5 .5 .8c.1 .2 .2 .5 .2 .8Z" class="g3_319"/>
<path d="M434.4 482.3l-6.1 -3.8l2.8 -.1l.7 -2.8l2.6 6.7Z" class="g4_319"/>
<path d="M434.4 482.3l-6.1 -3.8l2.8 -.1l.7 -2.8l2.6 6.7ZM379.9 417.5l52.4 94.4" class="g3_319"/>
<path d="M381.1 415.5c0 .3 -.1 .6 -.2 .9c-.1 .3 -.3 .5 -.5 .7c-.2 .3 -.4 .4 -.7 .5c-.3 .2 -.6 .2 -.9 .2c-.3 0 -.6 0 -.9 -.2c-.3 -.1 -.5 -.2 -.7 -.5c-.2 -.2 -.4 -.4 -.5 -.7c-.1 -.3 -.2 -.6 -.2 -.9c0 -.3 .1 -.6 .2 -.8c.1 -.3 .3 -.6 .5 -.8c.2 -.2 .4 -.4 .7 -.5c.3 -.1 .6 -.2 .9 -.2c.3 0 .6 .1 .9 .2c.3 .1 .5 .3 .7 .5c.2 .2 .4 .5 .5 .8c.1 .2 .2 .5 .2 .8Z" class="g4_319"/>
<path d="M381.1 415.5c0 .3 -.1 .6 -.2 .9c-.1 .3 -.3 .5 -.5 .7c-.2 .3 -.4 .4 -.7 .5c-.3 .2 -.6 .2 -.9 .2c-.3 0 -.6 0 -.9 -.2c-.3 -.1 -.5 -.2 -.7 -.5c-.2 -.2 -.4 -.4 -.5 -.7c-.1 -.3 -.2 -.6 -.2 -.9c0 -.3 .1 -.6 .2 -.8c.1 -.3 .3 -.6 .5 -.8c.2 -.2 .4 -.4 .7 -.5c.3 -.1 .6 -.2 .9 -.2c.3 0 .6 .1 .9 .2c.3 .1 .5 .3 .7 .5c.2 .2 .4 .5 .5 .8c.1 .2 .2 .5 .2 .8Z" class="g3_319"/>
<path d="M434.8 516.4l-5.3 -4.9l2.8 .4l1.2 -2.6l1.3 7.1Z" class="g4_319"/>
<path d="M434.8 516.4l-5.3 -4.9l2.8 .4l1.2 -2.6l1.3 7.1Zm2.4 .2l52.4 -94.3" class="g3_319"/>
<path d="M438.4 518.7c0 .3 -.1 .5 -.2 .8c-.1 .3 -.3 .6 -.5 .8c-.2 .2 -.5 .4 -.7 .5c-.3 .1 -.6 .1 -.9 .1c-.3 0 -.6 0 -.9 -.1c-.3 -.1 -.5 -.3 -.7 -.5c-.3 -.2 -.4 -.5 -.5 -.8c-.1 -.3 -.2 -.5 -.2 -.8c0 -.4 .1 -.6 .2 -.9c.1 -.3 .2 -.6 .5 -.8c.2 -.2 .4 -.3 .7 -.5c.3 -.1 .6 -.1 .9 -.1c.3 0 .6 0 .9 .1c.2 .2 .5 .3 .7 .5c.2 .2 .4 .5 .5 .8c.1 .3 .2 .5 .2 .9Z" class="g4_319"/>
<path d="M438.4 518.7c0 .3 -.1 .5 -.2 .8c-.1 .3 -.3 .6 -.5 .8c-.2 .2 -.5 .4 -.7 .5c-.3 .1 -.6 .1 -.9 .1c-.3 0 -.6 0 -.9 -.1c-.3 -.1 -.5 -.3 -.7 -.5c-.3 -.2 -.4 -.5 -.5 -.8c-.1 -.3 -.2 -.5 -.2 -.8c0 -.4 .1 -.6 .2 -.9c.1 -.3 .2 -.6 .5 -.8c.2 -.2 .4 -.3 .7 -.5c.3 -.1 .6 -.1 .9 -.1c.3 0 .6 0 .9 .1c.2 .2 .5 .3 .7 .5c.2 .2 .4 .5 .5 .8c.1 .3 .2 .5 .2 .9Z" class="g3_319"/>
<path d="M492.1 417.8l-1.3 7.1l-1.2 -2.6l-2.8 .4l5.3 -4.9Z" class="g4_319"/>
<path d="M492.1 417.8l-1.3 7.1l-1.2 -2.6l-2.8 .4l5.3 -4.9Zm-54.7 64.6l40.2 -60.5" class="g3_319"/>
<path d="M438.4 484.3c0 .3 -.1 .6 -.2 .9c-.1 .2 -.3 .5 -.5 .7c-.2 .2 -.5 .4 -.7 .5c-.3 .1 -.6 .2 -.9 .2c-.3 0 -.6 -.1 -.9 -.2c-.3 -.1 -.5 -.3 -.7 -.5c-.3 -.2 -.4 -.5 -.5 -.7c-.1 -.3 -.2 -.6 -.2 -.9c0 -.3 .1 -.6 .2 -.9c.1 -.3 .2 -.5 .5 -.7c.2 -.3 .4 -.4 .7 -.5c.3 -.2 .6 -.2 .9 -.2c.3 0 .6 0 .9 .2c.2 .1 .5 .2 .7 .5c.2 .2 .4 .4 .5 .7c.1 .3 .2 .6 .2 .9Z" class="g4_319"/>
<path d="M438.4 484.3c0 .3 -.1 .6 -.2 .9c-.1 .2 -.3 .5 -.5 .7c-.2 .2 -.5 .4 -.7 .5c-.3 .1 -.6 .2 -.9 .2c-.3 0 -.6 -.1 -.9 -.2c-.3 -.1 -.5 -.3 -.7 -.5c-.3 -.2 -.4 -.5 -.5 -.7c-.1 -.3 -.2 -.6 -.2 -.9c0 -.3 .1 -.6 .2 -.9c.1 -.3 .2 -.5 .5 -.7c.2 -.3 .4 -.4 .7 -.5c.3 -.2 .6 -.2 .9 -.2c.3 0 .6 0 .9 .2c.2 .1 .5 .2 .7 .5c.2 .2 .4 .4 .5 .7c.1 .3 .2 .6 .2 .9Z" class="g3_319"/>
<path d="M480.5 417.7l-1.9 6.9l-1 -2.7l-2.8 .2l5.7 -4.4Z" class="g4_319"/>
<path d="M480.5 417.7l-1.9 6.9l-1 -2.7l-2.8 .2l5.7 -4.4Zm-42.7 30.6l27 -25.2" class="g3_319"/>
<path d="M438.4 449.9c0 .3 -.1 .6 -.2 .9c-.1 .3 -.3 .5 -.5 .7c-.2 .2 -.5 .4 -.7 .5c-.3 .1 -.6 .2 -.9 .2c-.3 0 -.6 -.1 -.9 -.2c-.3 -.1 -.5 -.3 -.7 -.5c-.3 -.2 -.4 -.4 -.5 -.7c-.1 -.3 -.2 -.6 -.2 -.9c0 -.3 .1 -.6 .2 -.9c.1 -.3 .2 -.5 .5 -.7c.2 -.2 .4 -.4 .7 -.5c.3 -.1 .6 -.2 .9 -.2c.3 0 .6 .1 .9 .2c.2 .1 .5 .3 .7 .5c.2 .2 .4 .4 .5 .7c.1 .3 .2 .6 .2 .9Z" class="g4_319"/>
<path d="M438.4 449.9c0 .3 -.1 .6 -.2 .9c-.1 .3 -.3 .5 -.5 .7c-.2 .2 -.5 .4 -.7 .5c-.3 .1 -.6 .2 -.9 .2c-.3 0 -.6 -.1 -.9 -.2c-.3 -.1 -.5 -.3 -.7 -.5c-.3 -.2 -.4 -.4 -.5 -.7c-.1 -.3 -.2 -.6 -.2 -.9c0 -.3 .1 -.6 .2 -.9c.1 -.3 .2 -.5 .5 -.7c.2 -.2 .4 -.4 .7 -.5c.3 -.1 .6 -.2 .9 -.2c.3 0 .6 .1 .9 .2c.2 .1 .5 .3 .7 .5c.2 .2 .4 .4 .5 .7c.1 .3 .2 .6 .2 .9Z" class="g3_319"/>
<path d="M468.6 419.6l-3.5 6.3l-.3 -2.8l-2.8 -.5l6.6 -3Z" class="g4_319"/>
<path d="M468.6 419.6l-3.5 6.3l-.3 -2.8l-2.8 -.5l6.6 -3Z" class="g3_319"/>
</g>
</svg>