<?xml version="1.0" encoding="UTF-8" standalone="no"?>
<!DOCTYPE svg PUBLIC "-//W3C//DTD SVG 1.1//EN"
"http://www.w3.org/Graphics/SVG/1.1/DTD/svg11.dtd">
<svg viewBox="0 0 714 1017" version="1.1" xmlns="http://www.w3.org/2000/svg" xmlns:xlink="http://www.w3.org/1999/xlink">
<defs>
<clipPath id="c0_346"><path d="M226 608.8V474.4H510.2V608.8Z"/></clipPath>
<style type="text/css"><![CDATA[
.g0_346{
fill: #FFF;
}
.g1_346{
fill: none;
stroke: #000;
stroke-width: 1.145;
stroke-miterlimit: 10;
}
.g2_346{
fill: #000;
}
]]></style>
</defs>
<path d="M0 1017.7H717.2V-3.7H0V1017.7Z" class="g0_346"/>
<g clip-path="url(#c0_346)">
<path d="M226 475.7H510.2V608.6H226V475.7Z" class="g0_346"/>
<path d="M245.6 476.3H327c.6 0 1.3 .1 1.9 .4c.7 .3 1.2 .6 1.7 1.1c.5 .5 .9 1.1 1.1 1.7c.3 .6 .4 1.3 .4 2v24c0 .7 -.1 1.4 -.4 2c-.2 .6 -.6 1.2 -1.1 1.7c-.5 .4 -1 .8 -1.7 1.1c-.6 .2 -1.3 .4 -1.9 .4H245.6c-.7 0 -1.3 -.2 -2 -.4c-.6 -.3 -1.2 -.7 -1.6 -1.1c-.5 -.5 -.9 -1.1 -1.2 -1.7c-.2 -.6 -.4 -1.3 -.4 -2v-24c0 -.7 .2 -1.4 .4 -2c.3 -.6 .7 -1.2 1.2 -1.7c.4 -.5 1 -.8 1.6 -1.1c.7 -.3 1.3 -.4 2 -.4Z" class="g0_346"/>
<path d="M245.6 476.3H327c.6 0 1.3 .1 1.9 .4c.7 .3 1.2 .6 1.7 1.1c.5 .5 .9 1.1 1.1 1.7c.3 .6 .4 1.3 .4 2v24c0 .7 -.1 1.4 -.4 2c-.2 .6 -.6 1.2 -1.1 1.7c-.5 .4 -1 .8 -1.7 1.1c-.6 .2 -1.3 .4 -1.9 .4H245.6c-.7 0 -1.3 -.2 -2 -.4c-.6 -.3 -1.2 -.7 -1.6 -1.1c-.5 -.5 -.9 -1.1 -1.2 -1.7c-.2 -.6 -.4 -1.3 -.4 -2v-24c0 -.7 .2 -1.4 .4 -2c.3 -.6 .7 -1.2 1.2 -1.7c.4 -.5 1 -.8 1.6 -1.1c.7 -.3 1.3 -.4 2 -.4Z" class="g1_346"/>
<path d="M231.8 550.8h81.4c.7 0 1.3 .1 2 .4c.6 .2 1.2 .6 1.6 1.1c.5 .5 .9 1 1.2 1.7c.2 .6 .4 1.3 .4 1.9V580c0 .7 -.2 1.3 -.4 2c-.3 .6 -.7 1.2 -1.2 1.6c-.4 .5 -1 .9 -1.6 1.2c-.7 .2 -1.3 .4 -2 .4H231.8c-.6 0 -1.3 -.2 -1.9 -.4c-.7 -.3 -1.2 -.7 -1.7 -1.2c-.5 -.4 -.9 -1 -1.1 -1.6c-.3 -.7 -.4 -1.3 -.4 -2V555.9c0 -.6 .1 -1.3 .4 -1.9c.2 -.7 .6 -1.2 1.1 -1.7c.5 -.5 1 -.9 1.7 -1.1c.6 -.3 1.3 -.4 1.9 -.4Z" class="g0_346"/>
<path d="M231.8 550.8h81.4c.7 0 1.3 .1 2 .4c.6 .2 1.2 .6 1.6 1.1c.5 .5 .9 1 1.2 1.7c.2 .6 .4 1.3 .4 1.9V580c0 .7 -.2 1.3 -.4 2c-.3 .6 -.7 1.2 -1.2 1.6c-.4 .5 -1 .9 -1.6 1.2c-.7 .2 -1.3 .4 -2 .4H231.8c-.6 0 -1.3 -.2 -1.9 -.4c-.7 -.3 -1.2 -.7 -1.7 -1.2c-.5 -.4 -.9 -1 -1.1 -1.6c-.3 -.7 -.4 -1.3 -.4 -2V555.9c0 -.6 .1 -1.3 .4 -1.9c.2 -.7 .6 -1.2 1.1 -1.7c.5 -.5 1 -.9 1.7 -1.1c.6 -.3 1.3 -.4 1.9 -.4Zm31.6 -40.1c0 13.3 -2.3 20 -6.9 20c-4.6 0 -6.9 4.3 -6.9 12.8" class="g1_346"/>
<path d="M249.6 549.5l-2.6 -8l2.6 2l2.7 -2l-2.7 8Z" class="g2_346"/>
<path d="M249.6 549.5l-2.6 -8l2.6 2l2.7 -2l-2.7 8Z" class="g1_346"/>
<path d="M245.6 562.2H327c.6 0 1.3 .2 1.9 .4c.7 .3 1.2 .7 1.7 1.1c.5 .5 .9 1.1 1.1 1.7c.3 .7 .4 1.3 .4 2v24.1c0 .6 -.1 1.3 -.4 1.9c-.2 .7 -.6 1.2 -1.1 1.7c-.5 .5 -1 .9 -1.7 1.1c-.6 .3 -1.3 .4 -1.9 .4H245.6c-.7 0 -1.3 -.1 -2 -.4c-.6 -.2 -1.2 -.6 -1.6 -1.1c-.5 -.5 -.9 -1 -1.2 -1.7c-.2 -.6 -.4 -1.3 -.4 -1.9V567.4c0 -.7 .2 -1.3 .4 -2c.3 -.6 .7 -1.2 1.2 -1.7c.4 -.4 1 -.8 1.6 -1.1c.7 -.2 1.3 -.4 2 -.4Z" class="g0_346"/>
<path d="M245.6 562.2H327c.6 0 1.3 .2 1.9 .4c.7 .3 1.2 .7 1.7 1.1c.5 .5 .9 1.1 1.1 1.7c.3 .7 .4 1.3 .4 2v24.1c0 .6 -.1 1.3 -.4 1.9c-.2 .7 -.6 1.2 -1.1 1.7c-.5 .5 -1 .9 -1.7 1.1c-.6 .3 -1.3 .4 -1.9 .4H245.6c-.7 0 -1.3 -.1 -2 -.4c-.6 -.2 -1.2 -.6 -1.6 -1.1c-.5 -.5 -.9 -1 -1.2 -1.7c-.2 -.6 -.4 -1.3 -.4 -1.9V567.4c0 -.7 .2 -1.3 .4 -2c.3 -.6 .7 -1.2 1.2 -1.7c.4 -.4 1 -.8 1.6 -1.1c.7 -.2 1.3 -.4 2 -.4Z" class="g1_346"/>
<path d="M259.3 573.7h81.4c.7 0 1.3 .1 2 .4c.6 .3 1.2 .6 1.6 1.1c.5 .5 .9 1 1.2 1.7c.2 .6 .4 1.3 .4 2v24c0 .7 -.2 1.4 -.4 2c-.3 .6 -.7 1.2 -1.2 1.7c-.4 .4 -1 .8 -1.6 1.1c-.7 .2 -1.3 .4 -2 .4H259.3c-.6 0 -1.3 -.2 -1.9 -.4c-.7 -.3 -1.2 -.7 -1.7 -1.1c-.5 -.5 -.9 -1.1 -1.1 -1.7c-.3 -.6 -.4 -1.3 -.4 -2v-24c0 -.7 .1 -1.4 .4 -2c.2 -.7 .6 -1.2 1.1 -1.7c.5 -.5 1 -.8 1.7 -1.1c.6 -.3 1.3 -.4 1.9 -.4Z" class="g0_346"/>
<path d="M259.3 573.7h81.4c.7 0 1.3 .1 2 .4c.6 .3 1.2 .6 1.6 1.1c.5 .5 .9 1 1.2 1.7c.2 .6 .4 1.3 .4 2v24c0 .7 -.2 1.4 -.4 2c-.3 .6 -.7 1.2 -1.2 1.7c-.4 .4 -1 .8 -1.6 1.1c-.7 .2 -1.3 .4 -2 .4H259.3c-.6 0 -1.3 -.2 -1.9 -.4c-.7 -.3 -1.2 -.7 -1.7 -1.1c-.5 -.5 -.9 -1.1 -1.1 -1.7c-.3 -.6 -.4 -1.3 -.4 -2v-24c0 -.7 .1 -1.4 .4 -2c.2 -.7 .6 -1.2 1.1 -1.7c.5 -.5 1 -.8 1.7 -1.1c.6 -.3 1.3 -.4 1.9 -.4Zm27 -63v44.2" class="g1_346"/>
<path d="M286.3 561l-2.7 -8.1l2.7 2l2.6 -2l-2.6 8.1Z" class="g2_346"/>
<path d="M286.3 561l-2.7 -8.1l2.7 2l2.6 -2l-2.6 8.1Zm24.2 -52.1c0 22.2 2.1 33.3 6.2 33.3c4.2 0 6.3 8.1 6.2 24.2" class="g1_346"/>
<path d="M322.9 572.4l-2.6 -8l2.6 2l2.7 -2l-2.7 8Z" class="g2_346"/>
<path d="M322.9 572.4l-2.6 -8l2.6 2l2.7 -2l-2.7 8Z" class="g1_346"/>
<path d="M386.5 476.3h102c.7 0 1.4 .1 2 .4c.6 .3 1.2 .6 1.7 1.1c.4 .5 .8 1.1 1.1 1.7c.2 .6 .4 1.3 .4 2v24c0 .7 -.2 1.4 -.4 2c-.3 .6 -.7 1.2 -1.1 1.7c-.5 .4 -1.1 .8 -1.7 1.1c-.6 .2 -1.3 .4 -2 .4h-102c-.6 0 -1.3 -.2 -1.9 -.4c-.7 -.3 -1.2 -.7 -1.7 -1.1c-.5 -.5 -.9 -1.1 -1.1 -1.7c-.3 -.6 -.4 -1.3 -.4 -2v-24c0 -.7 .1 -1.4 .4 -2c.2 -.6 .6 -1.2 1.1 -1.7c.5 -.5 1 -.8 1.7 -1.1c.6 -.3 1.3 -.4 1.9 -.4Z" class="g0_346"/>
<path d="M386.5 476.3h102c.7 0 1.4 .1 2 .4c.6 .3 1.2 .6 1.7 1.1c.4 .5 .8 1.1 1.1 1.7c.2 .6 .4 1.3 .4 2v24c0 .7 -.2 1.4 -.4 2c-.3 .6 -.7 1.2 -1.1 1.7c-.5 .4 -1.1 .8 -1.7 1.1c-.6 .2 -1.3 .4 -2 .4h-102c-.6 0 -1.3 -.2 -1.9 -.4c-.7 -.3 -1.2 -.7 -1.7 -1.1c-.5 -.5 -.9 -1.1 -1.1 -1.7c-.3 -.6 -.4 -1.3 -.4 -2v-24c0 -.7 .1 -1.4 .4 -2c.2 -.6 .6 -1.2 1.1 -1.7c.5 -.5 1 -.8 1.7 -1.1c.6 -.3 1.3 -.4 1.9 -.4Z" class="g1_346"/>
<path d="M392.2 496.9H496.4c.7 0 1.4 .2 2 .4c.6 .3 1.2 .7 1.7 1.1c.5 .5 .8 1.1 1.1 1.7c.3 .6 .4 1.3 .4 2v24c0 .7 -.1 1.4 -.4 2c-.3 .6 -.6 1.2 -1.1 1.7c-.5 .5 -1.1 .8 -1.7 1.1c-.6 .3 -1.3 .4 -2 .4H392.2c-.7 0 -1.4 -.1 -2 -.4c-.6 -.3 -1.2 -.6 -1.7 -1.1c-.5 -.5 -.8 -1.1 -1.1 -1.7c-.3 -.6 -.4 -1.3 -.4 -2v-24c0 -.7 .1 -1.4 .4 -2c.3 -.6 .6 -1.2 1.1 -1.7c.5 -.4 1.1 -.8 1.7 -1.1c.6 -.2 1.3 -.4 2 -.4Z" class="g0_346"/>
<path d="M392.2 496.9H496.4c.7 0 1.4 .2 2 .4c.6 .3 1.2 .7 1.7 1.1c.5 .5 .8 1.1 1.1 1.7c.3 .6 .4 1.3 .4 2v24c0 .7 -.1 1.4 -.4 2c-.3 .6 -.6 1.2 -1.1 1.7c-.5 .5 -1.1 .8 -1.7 1.1c-.6 .3 -1.3 .4 -2 .4H392.2c-.7 0 -1.4 -.1 -2 -.4c-.6 -.3 -1.2 -.6 -1.7 -1.1c-.5 -.5 -.8 -1.1 -1.1 -1.7c-.3 -.6 -.4 -1.3 -.4 -2v-24c0 -.7 .1 -1.4 .4 -2c.3 -.6 .6 -1.2 1.1 -1.7c.5 -.4 1.1 -.8 1.7 -1.1c.6 -.2 1.3 -.4 2 -.4Z" class="g1_346"/>
<path d="M397.9 516.4H504.5c.6 0 1.3 .1 1.9 .4c.7 .3 1.2 .6 1.7 1.1c.5 .5 .9 1.1 1.1 1.7c.3 .6 .4 1.3 .4 2v24c0 .7 -.1 1.4 -.4 2c-.2 .6 -.6 1.2 -1.1 1.7c-.5 .5 -1 .8 -1.7 1.1c-.6 .2 -1.3 .4 -1.9 .4H397.9c-.7 0 -1.3 -.2 -2 -.4c-.6 -.3 -1.2 -.6 -1.6 -1.1c-.5 -.5 -.9 -1.1 -1.2 -1.7c-.2 -.6 -.4 -1.3 -.4 -2v-24c0 -.7 .2 -1.4 .4 -2c.3 -.6 .7 -1.2 1.2 -1.7c.4 -.5 1 -.8 1.6 -1.1c.7 -.3 1.3 -.4 2 -.4Z" class="g0_346"/>
<path d="M397.9 516.4H504.5c.6 0 1.3 .1 1.9 .4c.7 .3 1.2 .6 1.7 1.1c.5 .5 .9 1.1 1.1 1.7c.3 .6 .4 1.3 .4 2v24c0 .7 -.1 1.4 -.4 2c-.2 .6 -.6 1.2 -1.1 1.7c-.5 .5 -1 .8 -1.7 1.1c-.6 .2 -1.3 .4 -1.9 .4H397.9c-.7 0 -1.3 -.2 -2 -.4c-.6 -.3 -1.2 -.6 -1.6 -1.1c-.5 -.5 -.9 -1.1 -1.2 -1.7c-.2 -.6 -.4 -1.3 -.4 -2v-24c0 -.7 .2 -1.4 .4 -2c.3 -.6 .7 -1.2 1.2 -1.7c.4 -.5 1 -.8 1.6 -1.1c.7 -.3 1.3 -.4 2 -.4ZM332.1 484.9h43.7" class="g1_346"/>
<path d="M380.1 484.9l-5.7 1.9l1.4 -1.9L374.4 483l5.7 1.9Z" class="g2_346"/>
<path d="M380.1 484.9l-5.7 1.9l1.4 -1.9L374.4 483l5.7 1.9Zm-48 8.6c18.4 0 27.5 3.4 27.5 10.3c0 6.9 7.3 10.3 21.8 10.3" class="g1_346"/>
<path d="M385.7 514.1L380 516l1.4 -1.9L380 512.2l5.7 1.9Z" class="g2_346"/>
<path d="M385.7 514.1L380 516l1.4 -1.9L380 512.2l5.7 1.9Zm-53.6 -12c12.2 0 18.3 6.7 18.3 20c0 13.4 12.2 20.1 36.8 20.1" class="g1_346"/>
<path d="M391.5 542.2l-5.8 1.9l1.5 -1.9l-1.5 -1.9l5.8 1.9Z" class="g2_346"/>
<path d="M391.5 542.2l-5.8 1.9l1.5 -1.9l-1.5 -1.9l5.8 1.9Z" class="g1_346"/>
</g>
</svg>