<?xml version="1.0" encoding="UTF-8" standalone="no"?>
<!DOCTYPE svg PUBLIC "-//W3C//DTD SVG 1.1//EN"
"http://www.w3.org/Graphics/SVG/1.1/DTD/svg11.dtd">
<svg viewBox="0 0 714 1017" version="1.1" xmlns="http://www.w3.org/2000/svg" xmlns:xlink="http://www.w3.org/1999/xlink">
<defs>
<clipPath id="c0_115"><path d="M73.7 420.8V96.9H620.6V420.8Z"/></clipPath>
<style type="text/css"><![CDATA[
.g0_115{
fill: #FFF;
}
.g1_115{
fill: none;
stroke: #000;
stroke-width: 1.145;
stroke-miterlimit: 10;
}
.g2_115{
fill: #000;
}
]]></style>
</defs>
<path d="M0 1017.7H717.2V-3.7H0V1017.7Z" class="g0_115"/>
<g clip-path="url(#c0_115)">
<path d="M73.7 97H619.1V420.1H73.7V97Z" class="g0_115"/>
<path d="M131.8 303.8h18.3v45.9H131.8V303.8Zm18.3 0h18.4v45.9H150.1V303.8Zm18.4 0h18.3v45.9H168.5V303.8Zm18.3 0h18.3v45.9H186.8V303.8Zm48.4 0h18.3v45.9H235.2V303.8Zm18.3 0h18.4v45.9H253.5V303.8Zm18.4 0h18.3v45.9H271.9V303.8Zm18.3 0h18.3v45.9H290.2V303.8Zm48.1 0h18.3v45.9H338.3V303.8Zm18.3 0H375v45.9H356.6V303.8Zm18.4 0h18.3v45.9H375V303.8Zm18.3 0h18.3v45.9H393.3V303.8Zm47.6 0h18.3v45.9H440.9V303.8Zm18.3 0h18.4v45.9H459.2V303.8Zm18.4 0h18.3v45.9H477.6V303.8Zm18.3 0h18.3v45.9H495.9V303.8Zm48.9 0h18.4v45.9H544.8V303.8Zm18.4 0h18.3v45.9H563.2V303.8Zm18.3 0h18.3v45.9H581.5V303.8Zm18.3 0h18.4v45.9H599.8V303.8Zm-356 -80.4h18.3v22.2H243.8V223.4Zm18.3 0h18.4v22.2H262.1V223.4Zm18.4 0h18.3v22.2H280.5V223.4ZM253.3 201.2h18.3v22.2H253.3V201.2Zm18.3 0h18.3v22.2H271.6V201.2Zm230 21.7H520v22.2H501.6V222.9Zm18.4 0h18.3v22.2H520V222.9Zm18.3 0h18.3v22.2H538.3V222.9ZM511.1 200.7h18.3v22.2H511.1V200.7Zm18.3 0h18.3v22.2H529.4V200.7ZM376.7 119.8h18.4V142H376.7V119.8Zm18.4 0h18.3V142H395.1V119.8Zm18.3 0h18.3V142H413.4V119.8ZM386.2 97.6h18.3v22.2H386.2V97.6Zm18.3 0h18.3v22.2H404.5V97.6ZM253 245.6v17.7c0 7.6 -3.8 11.4 -11.5 11.4H179.9c-7.7 0 -11.5 3.7 -11.5 10.9l.1 10.9" class="g1_115"/>
<path d="M168.5 302.5l-2.7 -8l2.7 2l2.6 -2l-2.6 8Z" class="g2_115"/>
<path d="M168.5 302.5l-2.7 -8l2.7 2l2.6 -2l-2.6 8ZM271.3 245.6v17.7c0 7.6 .1 15.1 .2 22.3l.2 10.9" class="g1_115"/>
<path d="M271.8 302.5L269 294.6l2.7 1.9l2.6 -2l-2.5 8Z" class="g2_115"/>
<path d="M271.8 302.5L269 294.6l2.7 1.9l2.6 -2l-2.5 8Zm17.8 -56.9v23.8c0 7.7 3.9 11.5 11.5 11.5H316c7.6 0 15.3 0 22.9 0h24.7c7.6 0 11.4 2.6 11.4 7.8v7.8" class="g1_115"/>
<path d="M375 302.5l-2.7 -8l2.7 2l2.7 -2l-2.7 8Z" class="g2_115"/>
<path d="M375 302.5l-2.7 -8l2.7 2l2.7 -2l-2.7 8ZM510.8 245.1V263c0 7.7 -3.8 11.5 -11.5 11.5H488.4c-7.2 0 -10.8 3.7 -10.8 11v11" class="g1_115"/>
<path d="M477.6 302.5l-2.7 -8l2.7 2l2.6 -2l-2.6 8Z" class="g2_115"/>
<path d="M477.6 302.5l-2.7 -8l2.7 2l2.6 -2l-2.6 8Zm51.5 -57.4V263c0 7.7 3.8 11.5 11.5 11.5H570c7.7 0 11.5 3.7 11.5 11v11" class="g1_115"/>
<path d="M581.5 302.5l-2.7 -8l2.7 2l2.7 -2l-2.7 8Z" class="g2_115"/>
<path d="M581.5 302.5l-2.7 -8l2.7 2l2.7 -2l-2.7 8ZM385.9 142v18.1c0 7.7 -3.8 11.5 -11.5 11.5H283c-7.6 0 -11.4 3.7 -11.4 11.1v11.2" class="g1_115"/>
<path d="M271.6 199.9l-2.7 -8l2.7 2l2.6 -2l-2.6 8Z" class="g2_115"/>
<path d="M271.6 199.9l-2.7 -8l2.7 2l2.6 -2l-2.6 8ZM404.2 142v17.9c0 7.6 3.8 11.5 11.5 11.5H517.9c7.6 0 11.5 3.6 11.5 11v11" class="g1_115"/>
<path d="M529.4 199.4l-2.7 -8l2.7 2l2.7 -2l-2.7 8Z" class="g2_115"/>
<path d="M529.4 199.4l-2.7 -8l2.7 2l2.7 -2l-2.7 8ZM235.2 338.2H212.4" class="g1_115"/>
<path d="M206.4 338.2l8 -2.7l-2 2.7l2 2.7l-8 -2.7Z" class="g2_115"/>
<path d="M206.4 338.2l8 -2.7l-2 2.7l2 2.7l-8 -2.7ZM411.6 315.3h22" class="g1_115"/>
<path d="M439.6 315.3l-8 2.7l2 -2.7l-2 -2.7l8 2.7Z" class="g2_115"/>
<path d="M439.6 315.3l-8 2.7l2 -2.7l-2 -2.7l8 2.7Zm74.6 0h23.3" class="g1_115"/>
<path d="M543.6 315.3l-8.1 2.7l2 -2.7l-2 -2.7l8.1 2.7Z" class="g2_115"/>
<path d="M543.6 315.3l-8.1 2.7l2 -2.7l-2 -2.7l8.1 2.7Zm1.2 22.9H521.5" class="g1_115"/>
<path d="M515.5 338.2l8 -2.7l-2 2.7l2 2.7l-8 -2.7Z" class="g2_115"/>
<path d="M515.5 338.2l8 -2.7l-2 2.7l2 2.7l-8 -2.7Zm-74.6 0h-22" class="g1_115"/>
<path d="M412.9 338.2l8 -2.7l-2 2.7l2 2.7l-8 -2.7Z" class="g2_115"/>
<path d="M412.9 338.2l8 -2.7l-2 2.7l2 2.7l-8 -2.7Zm-74.6 0H315.8" class="g1_115"/>
<path d="M309.8 338.2l8 -2.7l-2 2.7l2 2.7l-8 -2.7Z" class="g2_115"/>
<path d="M309.8 338.2l8 -2.7l-2 2.7l2 2.7l-8 -2.7Zm-1.3 -22.9H331" class="g1_115"/>
<path d="M337 315.3l-8 2.7l2 -2.7l-2 -2.7l8 2.7Z" class="g2_115"/>
<path d="M337 315.3l-8 2.7l2 -2.7l-2 -2.7l8 2.7Zm-131.9 0h22.8" class="g1_115"/>
<path d="M233.9 315.3l-8 2.7l2 -2.7l-2 -2.7l8 2.7Z" class="g2_115"/>
<path d="M233.9 315.3l-8 2.7l2 -2.7l-2 -2.7l8 2.7Z" class="g1_115"/>
</g>
</svg>