<?xml version="1.0" encoding="UTF-8" standalone="no"?>
<!DOCTYPE svg PUBLIC "-//W3C//DTD SVG 1.1//EN"
"http://www.w3.org/Graphics/SVG/1.1/DTD/svg11.dtd">
<svg viewBox="0 0 714 1017" version="1.1" xmlns="http://www.w3.org/2000/svg" xmlns:xlink="http://www.w3.org/1999/xlink">
<defs>
<clipPath id="c0_132"><path d="M100.8 551.5V323.8H635.5V551.5Z"/></clipPath>
<clipPath id="c1_132"><path d="M100.8 551.5V322.3H635.5V551.5Z"/></clipPath>
<style type="text/css"><![CDATA[
.g0_132{
fill: #FFF;
}
.g1_132{
fill: none;
stroke: #000;
stroke-width: 2.291;
stroke-miterlimit: 10;
}
.g2_132{
fill: none;
stroke: #000;
stroke-width: 1.145;
stroke-miterlimit: 10;
}
.g3_132{
fill: none;
stroke: #000;
stroke-width: 0.608;
stroke-miterlimit: 10;
}
]]></style>
</defs>
<path d="M0 1017.7H717.2V-3.7H0V1017.7Z" class="g0_132"/>
<g clip-path="url(#c1_132)">
<path clip-path="url(#c0_132)" d="M100.8 323.8H635.9v228H100.8v-228Z" class="g0_132"/>
<path d="M266.1 496.2c0 .4 -.1 .8 -.2 1.2c-.2 .3 -.3 .7 -.6 1.1c-.2 .4 -.5 .7 -.9 1.1c-.4 .3 -.8 .7 -1.3 1c-.5 .4 -1 .7 -1.6 1.1c-.6 .3 -1.3 .6 -2 .9c-.7 .3 -1.4 .7 -2.2 .9c-.9 .3 -1.7 .6 -2.6 .9c-.9 .2 -1.8 .5 -2.8 .7c-1 .3 -2 .5 -3.1 .7c-1 .2 -2.1 .4 -3.2 .6c-1.2 .2 -2.3 .3 -3.5 .5c-1.2 .1 -2.4 .2 -3.6 .4c-1.2 .1 -2.4 .2 -3.7 .2c-1.2 .1 -2.5 .2 -3.7 .2c-1.3 0 -2.6 0 -3.8 0c-1.3 0 -2.6 0 -3.8 0c-1.3 0 -2.6 -.1 -3.8 -.2c-1.3 0 -2.5 -.1 -3.7 -.2c-1.2 -.2 -2.4 -.3 -3.6 -.4c-1.2 -.2 -2.3 -.3 -3.4 -.5c-1.1 -.2 -2.2 -.4 -3.3 -.6c-1 -.2 -2.1 -.4 -3 -.7c-1 -.2 -2 -.5 -2.9 -.7c-.9 -.3 -1.7 -.6 -2.5 -.9c-.8 -.2 -1.6 -.6 -2.3 -.9c-.7 -.3 -1.4 -.6 -2 -.9c-.5 -.4 -1.1 -.7 -1.6 -1.1c-.5 -.3 -.9 -.7 -1.3 -1c-.3 -.4 -.6 -.7 -.9 -1.1c-.2 -.4 -.4 -.8 -.5 -1.1c-.2 -.4 -.2 -.8 -.2 -1.2c0 -.3 0 -.7 .2 -1.1c.1 -.4 .3 -.7 .5 -1.1c.3 -.4 .6 -.7 .9 -1.1c.4 -.4 .8 -.7 1.3 -1.1c.5 -.3 1.1 -.6 1.6 -1c.6 -.3 1.3 -.6 2 -.9c.7 -.4 1.5 -.7 2.3 -1c.8 -.2 1.6 -.5 2.5 -.8c.9 -.3 1.9 -.5 2.9 -.7c.9 -.3 2 -.5 3 -.7c1.1 -.2 2.2 -.4 3.3 -.6c1.1 -.2 2.2 -.3 3.4 -.5c1.2 -.1 2.4 -.3 3.6 -.4c1.2 -.1 2.4 -.2 3.7 -.2c1.2 -.1 2.5 -.2 3.8 -.2c1.2 0 2.5 -.1 3.8 -.1c1.2 0 2.5 .1 3.8 .1c1.2 0 2.5 .1 3.7 .2c1.3 0 2.5 .1 3.7 .2c1.2 .1 2.4 .3 3.6 .4c1.2 .2 2.3 .3 3.5 .5c1.1 .2 2.2 .4 3.2 .6c1.1 .2 2.1 .4 3.1 .7c1 .2 1.9 .4 2.8 .7c.9 .3 1.7 .6 2.6 .8c.8 .3 1.5 .6 2.2 1c.7 .3 1.4 .6 2 .9c.6 .4 1.1 .7 1.6 1c.5 .4 .9 .7 1.3 1.1c.4 .4 .7 .7 .9 1.1c.3 .4 .4 .7 .6 1.1c.1 .4 .2 .8 .2 1.1Z" class="g1_132"/>
<path d="M433.7 529.4L254.4 504.5m200.7 -8.3c0 .4 0 .8 -.2 1.2c-.1 .3 -.3 .7 -.5 1.1c-.3 .4 -.6 .7 -.9 1.1c-.4 .3 -.8 .7 -1.3 1c-.5 .4 -1.1 .7 -1.7 1.1c-.6 .3 -1.2 .6 -1.9 .9c-.7 .3 -1.5 .7 -2.3 .9c-.8 .3 -1.6 .6 -2.5 .9c-.9 .2 -1.9 .5 -2.9 .7c-.9 .3 -2 .5 -3 .7c-1.1 .2 -2.2 .4 -3.3 .6c-1.1 .2 -2.3 .3 -3.4 .5c-1.2 .1 -2.4 .2 -3.6 .4c-1.2 .1 -2.5 .2 -3.7 .2c-1.3 .1 -2.5 .2 -3.8 .2c-1.2 0 -2.5 0 -3.8 0c-1.2 0 -2.5 0 -3.8 0c-1.2 0 -2.5 -.1 -3.7 -.2c-1.3 0 -2.5 -.1 -3.7 -.2c-1.3 -.2 -2.4 -.3 -3.6 -.4c-1.2 -.2 -2.3 -.3 -3.5 -.5c-1.1 -.2 -2.2 -.4 -3.2 -.6c-1.1 -.2 -2.1 -.4 -3.1 -.7c-1 -.2 -1.9 -.5 -2.8 -.7c-.9 -.3 -1.8 -.6 -2.6 -.9c-.8 -.2 -1.5 -.6 -2.2 -.9c-.7 -.3 -1.4 -.6 -2 -.9c-.6 -.4 -1.1 -.7 -1.6 -1.1c-.5 -.3 -.9 -.7 -1.3 -1c-.4 -.4 -.7 -.7 -.9 -1.1c-.3 -.4 -.5 -.8 -.6 -1.1c-.1 -.4 -.2 -.8 -.2 -1.2c0 -.3 .1 -.7 .2 -1.1c.1 -.4 .3 -.7 .6 -1.1c.2 -.4 .5 -.7 .9 -1.1c.4 -.4 .8 -.7 1.3 -1.1c.5 -.3 1 -.6 1.6 -1c.6 -.3 1.3 -.6 2 -.9c.7 -.4 1.4 -.7 2.2 -1c.8 -.2 1.7 -.5 2.6 -.8c.9 -.3 1.8 -.5 2.8 -.7c1 -.3 2 -.5 3.1 -.7c1 -.2 2.1 -.4 3.2 -.6c1.2 -.2 2.3 -.3 3.5 -.5c1.2 -.1 2.3 -.3 3.6 -.4c1.2 -.1 2.4 -.2 3.7 -.2c1.2 -.1 2.5 -.2 3.7 -.2c1.3 0 2.6 -.1 3.8 -.1c1.3 0 2.6 .1 3.8 .1c1.3 0 2.5 .1 3.8 .2c1.2 0 2.5 .1 3.7 .2c1.2 .1 2.4 .3 3.6 .4c1.1 .2 2.3 .3 3.4 .5c1.1 .2 2.2 .4 3.3 .6c1 .2 2.1 .4 3 .7c1 .2 2 .4 2.9 .7c.9 .3 1.7 .6 2.5 .8c.8 .3 1.6 .6 2.3 1c.7 .3 1.3 .6 1.9 .9c.6 .4 1.2 .7 1.7 1c.5 .4 .9 .7 1.3 1.1c.3 .4 .6 .7 .9 1.1c.2 .4 .4 .7 .5 1.1c.2 .4 .2 .8 .2 1.1ZM635 473.3c0 .4 0 .8 -.2 1.2c-.1 .3 -.3 .7 -.5 1.1c-.3 .3 -.6 .7 -1 1.1c-.3 .3 -.7 .7 -1.2 1c-.5 .4 -1.1 .7 -1.7 1.1c-.6 .3 -1.2 .6 -1.9 .9c-.7 .3 -1.5 .6 -2.3 .9c-.8 .3 -1.6 .6 -2.5 .9c-.9 .2 -1.9 .5 -2.9 .7c-.9 .3 -2 .5 -3 .7c-1.1 .2 -2.2 .4 -3.3 .6c-1.1 .2 -2.3 .3 -3.4 .5c-1.2 .1 -2.4 .2 -3.6 .3c-1.2 .1 -2.5 .2 -3.7 .3c-1.3 .1 -2.5 .1 -3.8 .2c-1.2 0 -2.5 0 -3.8 0c-1.2 0 -2.5 0 -3.8 0c-1.2 -.1 -2.5 -.1 -3.7 -.2c-1.3 -.1 -2.5 -.2 -3.7 -.3c-1.3 -.1 -2.4 -.2 -3.6 -.3c-1.2 -.2 -2.3 -.3 -3.5 -.5c-1.1 -.2 -2.2 -.4 -3.2 -.6c-1.1 -.2 -2.1 -.4 -3.1 -.7c-1 -.2 -1.9 -.5 -2.8 -.7c-.9 -.3 -1.8 -.6 -2.6 -.9c-.8 -.3 -1.5 -.6 -2.2 -.9c-.7 -.3 -1.4 -.6 -2 -.9c-.6 -.4 -1.1 -.7 -1.6 -1.1c-.5 -.3 -.9 -.7 -1.3 -1c-.4 -.4 -.7 -.8 -.9 -1.1c-.3 -.4 -.5 -.8 -.6 -1.1c-.1 -.4 -.2 -.8 -.2 -1.2c0 -.3 .1 -.7 .2 -1.1c.1 -.4 .3 -.7 .6 -1.1c.2 -.4 .5 -.8 .9 -1.1c.4 -.4 .8 -.7 1.3 -1.1c.5 -.3 1 -.7 1.6 -1c.6 -.3 1.3 -.6 2 -1c.7 -.3 1.4 -.6 2.2 -.9c.8 -.3 1.7 -.5 2.6 -.8c.9 -.3 1.8 -.5 2.8 -.8c1 -.2 2 -.4 3.1 -.6c1 -.2 2.1 -.4 3.2 -.6c1.2 -.2 2.3 -.4 3.5 -.5c1.2 -.1 2.3 -.3 3.6 -.4c1.2 -.1 2.4 -.2 3.7 -.3c1.2 0 2.5 -.1 3.7 -.1c1.3 -.1 2.6 -.1 3.8 -.1c1.3 0 2.6 0 3.8 .1c1.3 0 2.5 .1 3.8 .1c1.2 .1 2.5 .2 3.7 .3c1.2 .1 2.4 .3 3.6 .4c1.1 .1 2.3 .3 3.4 .5c1.1 .2 2.2 .4 3.3 .6c1 .2 2.1 .4 3 .6c1 .3 2 .5 2.9 .8c.9 .3 1.7 .5 2.5 .8c.8 .3 1.6 .6 2.3 .9c.7 .4 1.3 .7 1.9 1c.6 .3 1.2 .7 1.7 1c.5 .4 .9 .7 1.2 1.1c.4 .3 .7 .7 1 1.1c.2 .4 .4 .7 .5 1.1c.2 .4 .2 .8 .2 1.1ZM301.9 529.4L341.7 518m6.7 -1.9l40.8 -11.6M519 529.4l38.4 -56.1" class="g2_132"/>
<path d="M541.1 473.3c0 .4 -.1 .8 -.2 1.2c-.2 .3 -.3 .7 -.6 1.1c-.2 .3 -.5 .7 -.9 1.1c-.4 .3 -.8 .7 -1.3 1c-.5 .4 -1 .7 -1.6 1.1c-.6 .3 -1.3 .6 -2 .9c-.7 .3 -1.4 .6 -2.2 .9c-.9 .3 -1.7 .6 -2.6 .9c-.9 .2 -1.8 .5 -2.8 .7c-1 .3 -2 .5 -3.1 .7c-1 .2 -2.1 .4 -3.2 .6c-1.2 .2 -2.3 .3 -3.5 .5c-1.2 .1 -2.4 .2 -3.6 .3c-1.2 .1 -2.4 .2 -3.7 .3c-1.2 .1 -2.5 .1 -3.7 .2c-1.3 0 -2.6 0 -3.8 0c-1.3 0 -2.6 0 -3.8 0c-1.3 -.1 -2.6 -.1 -3.8 -.2c-1.3 -.1 -2.5 -.2 -3.7 -.3c-1.2 -.1 -2.4 -.2 -3.6 -.3c-1.2 -.2 -2.3 -.3 -3.4 -.5c-1.1 -.2 -2.2 -.4 -3.3 -.6c-1 -.2 -2.1 -.4 -3 -.7c-1 -.2 -2 -.5 -2.9 -.7c-.9 -.3 -1.7 -.6 -2.5 -.9c-.8 -.3 -1.6 -.6 -2.3 -.9c-.7 -.3 -1.4 -.6 -2 -.9c-.5 -.4 -1.1 -.7 -1.6 -1.1c-.5 -.3 -.9 -.7 -1.3 -1c-.3 -.4 -.6 -.8 -.9 -1.1c-.2 -.4 -.4 -.8 -.5 -1.1c-.2 -.4 -.2 -.8 -.2 -1.2c0 -.3 0 -.7 .2 -1.1c.1 -.4 .3 -.7 .5 -1.1c.3 -.4 .6 -.8 .9 -1.1c.4 -.4 .8 -.7 1.3 -1.1c.5 -.3 1.1 -.7 1.6 -1c.6 -.3 1.3 -.6 2 -1c.7 -.3 1.5 -.6 2.3 -.9c.8 -.3 1.6 -.5 2.5 -.8c.9 -.3 1.9 -.5 2.9 -.8c.9 -.2 2 -.4 3 -.6c1.1 -.2 2.2 -.4 3.3 -.6c1.1 -.2 2.2 -.4 3.4 -.5c1.2 -.1 2.4 -.3 3.6 -.4c1.2 -.1 2.4 -.2 3.7 -.3c1.2 0 2.5 -.1 3.8 -.1c1.2 -.1 2.5 -.1 3.8 -.1c1.2 0 2.5 0 3.8 .1c1.2 0 2.5 .1 3.7 .1c1.3 .1 2.5 .2 3.7 .3c1.2 .1 2.4 .3 3.6 .4c1.2 .1 2.3 .3 3.5 .5c1.1 .2 2.2 .4 3.2 .6c1.1 .2 2.1 .4 3.1 .6c1 .3 1.9 .5 2.8 .8c.9 .3 1.7 .5 2.6 .8c.8 .3 1.5 .6 2.2 .9c.7 .4 1.4 .7 2 1c.6 .3 1.1 .7 1.6 1c.5 .4 .9 .7 1.3 1.1c.4 .3 .7 .7 .9 1.1c.3 .4 .4 .7 .6 1.1c.1 .4 .2 .8 .2 1.1Z" class="g1_132"/>
<path d="M433.7 529.4l41.4 -47.8m-209 -8.3c0 .4 -.1 .8 -.2 1.2c-.2 .3 -.3 .7 -.6 1.1c-.2 .3 -.5 .7 -.9 1.1c-.4 .3 -.8 .7 -1.3 1c-.5 .4 -1 .7 -1.6 1.1c-.6 .3 -1.3 .6 -2 .9c-.7 .3 -1.4 .6 -2.2 .9c-.9 .3 -1.7 .6 -2.6 .9c-.9 .2 -1.8 .5 -2.8 .7c-1 .3 -2 .5 -3.1 .7c-1 .2 -2.1 .4 -3.2 .6c-1.2 .2 -2.3 .3 -3.5 .5c-1.2 .1 -2.4 .2 -3.6 .3c-1.2 .1 -2.4 .2 -3.7 .3c-1.2 .1 -2.5 .1 -3.7 .2c-1.3 0 -2.6 0 -3.8 0c-1.3 0 -2.6 0 -3.8 0c-1.3 -.1 -2.6 -.1 -3.8 -.2c-1.3 -.1 -2.5 -.2 -3.7 -.3c-1.2 -.1 -2.4 -.2 -3.6 -.3c-1.2 -.2 -2.3 -.3 -3.4 -.5c-1.1 -.2 -2.2 -.4 -3.3 -.6c-1 -.2 -2.1 -.4 -3 -.7c-1 -.2 -2 -.5 -2.9 -.7c-.9 -.3 -1.7 -.6 -2.5 -.9c-.8 -.3 -1.6 -.6 -2.3 -.9c-.7 -.3 -1.4 -.6 -2 -.9c-.5 -.4 -1.1 -.7 -1.6 -1.1c-.5 -.3 -.9 -.7 -1.3 -1c-.3 -.4 -.6 -.8 -.9 -1.1c-.2 -.4 -.4 -.8 -.5 -1.1c-.2 -.4 -.2 -.8 -.2 -1.2c0 -.3 0 -.7 .2 -1.1c.1 -.4 .3 -.7 .5 -1.1c.3 -.4 .6 -.8 .9 -1.1c.4 -.4 .8 -.7 1.3 -1.1c.5 -.3 1.1 -.7 1.6 -1c.6 -.3 1.3 -.6 2 -1c.7 -.3 1.5 -.6 2.3 -.9c.8 -.3 1.6 -.5 2.5 -.8c.9 -.3 1.9 -.5 2.9 -.8c.9 -.2 2 -.4 3 -.6c1.1 -.2 2.2 -.4 3.3 -.6c1.1 -.2 2.2 -.4 3.4 -.5c1.2 -.1 2.4 -.3 3.6 -.4c1.2 -.1 2.4 -.2 3.7 -.3c1.2 0 2.5 -.1 3.8 -.1c1.2 -.1 2.5 -.1 3.8 -.1c1.2 0 2.5 0 3.8 .1c1.2 0 2.5 .1 3.7 .1c1.3 .1 2.5 .2 3.7 .3c1.2 .1 2.4 .3 3.6 .4c1.2 .1 2.3 .3 3.5 .5c1.1 .2 2.2 .4 3.2 .6c1.1 .2 2.1 .4 3.1 .6c1 .3 1.9 .5 2.8 .8c.9 .3 1.7 .5 2.6 .8c.8 .3 1.5 .6 2.2 .9c.7 .4 1.4 .7 2 1c.6 .3 1.1 .7 1.6 1c.5 .4 .9 .7 1.3 1.1c.4 .3 .7 .7 .9 1.1c.3 .4 .4 .7 .6 1.1c.1 .4 .2 .8 .2 1.1Zm35.8 56.1l-11 -17.2m-3.7 -5.8L266.1 473.3M635 496.2c0 .4 0 .8 -.2 1.2c-.1 .3 -.3 .7 -.5 1.1c-.3 .4 -.6 .7 -1 1.1c-.3 .3 -.7 .7 -1.2 1c-.5 .4 -1.1 .7 -1.7 1.1c-.6 .3 -1.2 .6 -1.9 .9c-.7 .3 -1.5 .7 -2.3 .9c-.8 .3 -1.6 .6 -2.5 .9c-.9 .2 -1.9 .5 -2.9 .7c-.9 .3 -2 .5 -3 .7c-1.1 .2 -2.2 .4 -3.3 .6c-1.1 .2 -2.3 .3 -3.4 .5c-1.2 .1 -2.4 .2 -3.6 .4c-1.2 .1 -2.5 .2 -3.7 .2c-1.3 .1 -2.5 .2 -3.8 .2c-1.2 0 -2.5 0 -3.8 0c-1.2 0 -2.5 0 -3.8 0c-1.2 0 -2.5 -.1 -3.7 -.2c-1.3 0 -2.5 -.1 -3.7 -.2c-1.3 -.2 -2.4 -.3 -3.6 -.4c-1.2 -.2 -2.3 -.3 -3.5 -.5c-1.1 -.2 -2.2 -.4 -3.2 -.6c-1.1 -.2 -2.1 -.4 -3.1 -.7c-1 -.2 -1.9 -.5 -2.8 -.7c-.9 -.3 -1.8 -.6 -2.6 -.9c-.8 -.2 -1.5 -.6 -2.2 -.9c-.7 -.3 -1.4 -.6 -2 -.9c-.6 -.4 -1.1 -.7 -1.6 -1.1c-.5 -.3 -.9 -.7 -1.3 -1c-.4 -.4 -.7 -.7 -.9 -1.1c-.3 -.4 -.5 -.8 -.6 -1.1c-.1 -.4 -.2 -.8 -.2 -1.2c0 -.3 .1 -.7 .2 -1.1c.1 -.4 .3 -.7 .6 -1.1c.2 -.4 .5 -.7 .9 -1.1c.4 -.4 .8 -.7 1.3 -1.1c.5 -.3 1 -.6 1.6 -1c.6 -.3 1.3 -.6 2 -.9c.7 -.4 1.4 -.7 2.2 -1c.8 -.2 1.7 -.5 2.6 -.8c.9 -.3 1.8 -.5 2.8 -.7c1 -.3 2 -.5 3.1 -.7c1 -.2 2.1 -.4 3.2 -.6c1.2 -.2 2.3 -.3 3.5 -.5c1.2 -.1 2.3 -.3 3.6 -.4c1.2 -.1 2.4 -.2 3.7 -.2c1.2 -.1 2.5 -.2 3.7 -.2c1.3 0 2.6 -.1 3.8 -.1c1.3 0 2.6 .1 3.8 .1c1.3 0 2.5 .1 3.8 .2c1.2 0 2.5 .1 3.7 .2c1.2 .1 2.4 .3 3.6 .4c1.1 .2 2.3 .3 3.4 .5c1.1 .2 2.2 .4 3.3 .6c1 .2 2.1 .4 3 .7c1 .2 2 .4 2.9 .7c.9 .3 1.7 .6 2.5 .8c.8 .3 1.6 .6 2.3 1c.7 .3 1.3 .6 1.9 .9c.6 .4 1.2 .7 1.7 1c.5 .4 .9 .7 1.2 1.1c.4 .4 .7 .7 1 1.1c.2 .4 .4 .7 .5 1.1c.2 .4 .2 .8 .2 1.1ZM519 529.4l50.1 -24.9" class="g2_132"/>
</g>
<path d="M341.9 810H418m-36.9 15.3h35.1" class="g3_132"/>
</svg>