<?xml version="1.0" encoding="UTF-8" standalone="no"?>
<!DOCTYPE svg PUBLIC "-//W3C//DTD SVG 1.1//EN"
"http://www.w3.org/Graphics/SVG/1.1/DTD/svg11.dtd">
<svg viewBox="0 0 714 1017" version="1.1" xmlns="http://www.w3.org/2000/svg" xmlns:xlink="http://www.w3.org/1999/xlink">
<defs>
<clipPath id="c0_323"><path d="M90.5 356.7V109.2H602.7V356.7Z"/></clipPath>
<clipPath id="c1_323"><path d="M90.5 356.7V109.2H603.9V356.7Z"/></clipPath>
<style type="text/css"><![CDATA[
.g0_323{
fill: #FFF;
}
.g1_323{
fill: none;
stroke: #000;
stroke-width: 2.291;
stroke-miterlimit: 10;
}
.g2_323{
fill: none;
stroke: #000;
stroke-width: 1.145;
stroke-miterlimit: 10;
}
.g3_323{
fill: #000;
}
]]></style>
</defs>
<path d="M0 1017.7H717.2V-3.7H0V1017.7Z" class="g0_323"/>
<g clip-path="url(#c1_323)">
<g clip-path="url(#c0_323)">
<path d="M90.5 109.2H602.7V356.7H90.5V109.2Z" class="g0_323"/>
<path d="M268.7 202.6c0 .7 -.1 1.5 -.2 2.2c-.2 .8 -.5 1.5 -.8 2.2c-.3 .8 -.7 1.5 -1.2 2.2c-.5 .7 -1.1 1.4 -1.7 2.1c-.7 .7 -1.4 1.4 -2.2 2.1c-.8 .6 -1.7 1.3 -2.6 1.9c-.9 .6 -1.9 1.2 -3 1.8c-1.1 .6 -2.2 1.1 -3.4 1.7c-1.2 .5 -2.4 1 -3.8 1.5c-1.3 .5 -2.6 .9 -4 1.3c-1.4 .4 -2.9 .8 -4.4 1.2c-1.4 .3 -3 .6 -4.5 .9c-1.6 .3 -3.2 .6 -4.8 .8c-1.6 .2 -3.2 .4 -4.9 .5c-1.7 .2 -3.3 .3 -5 .4c-1.7 0 -3.4 .1 -5.1 .1c-1.7 0 -3.3 -.1 -5 -.1c-1.7 -.1 -3.4 -.2 -5 -.4c-1.7 -.1 -3.3 -.3 -4.9 -.5c-1.6 -.2 -3.2 -.5 -4.8 -.8c-1.6 -.3 -3.1 -.6 -4.6 -.9c-1.5 -.4 -2.9 -.8 -4.3 -1.2c-1.4 -.4 -2.8 -.8 -4.1 -1.3c-1.3 -.5 -2.5 -1 -3.7 -1.5c-1.2 -.6 -2.3 -1.1 -3.4 -1.7c-1.1 -.6 -2.1 -1.2 -3 -1.8c-1 -.6 -1.8 -1.3 -2.6 -1.9c-.8 -.7 -1.6 -1.4 -2.2 -2.1c-.6 -.7 -1.2 -1.4 -1.7 -2.1c-.5 -.7 -.9 -1.4 -1.2 -2.2c-.4 -.7 -.6 -1.4 -.8 -2.2c-.1 -.7 -.2 -1.5 -.2 -2.2c0 -.8 .1 -1.5 .2 -2.3c.2 -.7 .4 -1.5 .8 -2.2c.3 -.7 .7 -1.5 1.2 -2.2c.5 -.7 1.1 -1.4 1.7 -2.1c.6 -.7 1.4 -1.4 2.2 -2c.8 -.7 1.6 -1.3 2.6 -2c.9 -.6 1.9 -1.2 3 -1.8c1.1 -.6 2.2 -1.1 3.4 -1.6c1.2 -.6 2.4 -1.1 3.7 -1.6c1.3 -.4 2.7 -.9 4.1 -1.3c1.4 -.4 2.8 -.8 4.3 -1.1c1.5 -.4 3 -.7 4.6 -1c1.6 -.3 3.2 -.6 4.8 -.8c1.6 -.2 3.2 -.4 4.9 -.5c1.6 -.2 3.3 -.3 5 -.3c1.7 -.1 3.3 -.2 5 -.2c1.7 0 3.4 .1 5.1 .2c1.7 0 3.3 .1 5 .3c1.7 .1 3.3 .3 4.9 .5c1.6 .2 3.2 .5 4.8 .8c1.5 .3 3.1 .6 4.5 1c1.5 .3 3 .7 4.4 1.1c1.4 .4 2.7 .9 4 1.3c1.4 .5 2.6 1 3.8 1.6c1.2 .5 2.3 1 3.4 1.6c1.1 .6 2.1 1.2 3 1.8c.9 .7 1.8 1.3 2.6 2c.8 .6 1.5 1.3 2.2 2c.6 .7 1.2 1.4 1.7 2.1c.5 .7 .9 1.5 1.2 2.2c.3 .7 .6 1.5 .8 2.2c.1 .8 .2 1.5 .2 2.3Zm332.2 0c0 .7 -.1 1.5 -.2 2.2c-.2 .8 -.5 1.5 -.8 2.2c-.3 .8 -.7 1.5 -1.2 2.2c-.5 .7 -1.1 1.4 -1.7 2.1c-.7 .7 -1.4 1.4 -2.2 2.1c-.8 .6 -1.7 1.3 -2.6 1.9c-.9 .6 -1.9 1.2 -3 1.8c-1.1 .6 -2.2 1.1 -3.4 1.7c-1.2 .5 -2.4 1 -3.8 1.5c-1.3 .5 -2.6 .9 -4 1.3c-1.4 .4 -2.9 .8 -4.4 1.2c-1.4 .3 -3 .6 -4.5 .9c-1.6 .3 -3.2 .6 -4.8 .8c-1.6 .2 -3.2 .4 -4.9 .5c-1.7 .2 -3.3 .3 -5 .4c-1.7 0 -3.4 .1 -5.1 .1c-1.7 0 -3.3 -.1 -5 -.1c-1.7 -.1 -3.4 -.2 -5 -.4c-1.7 -.1 -3.3 -.3 -4.9 -.5c-1.6 -.2 -3.2 -.5 -4.8 -.8c-1.6 -.3 -3.1 -.6 -4.6 -.9c-1.5 -.4 -2.9 -.8 -4.3 -1.2c-1.4 -.4 -2.8 -.8 -4.1 -1.3c-1.3 -.5 -2.5 -1 -3.7 -1.5c-1.2 -.6 -2.3 -1.1 -3.4 -1.7c-1.1 -.6 -2.1 -1.2 -3 -1.8c-1 -.6 -1.8 -1.3 -2.6 -1.9c-.8 -.7 -1.6 -1.4 -2.2 -2.1c-.6 -.7 -1.2 -1.4 -1.7 -2.1c-.5 -.7 -.9 -1.4 -1.2 -2.2c-.4 -.7 -.6 -1.4 -.8 -2.2c-.1 -.7 -.2 -1.5 -.2 -2.2c0 -.8 .1 -1.5 .2 -2.3c.2 -.7 .4 -1.5 .8 -2.2c.3 -.7 .7 -1.5 1.2 -2.2c.5 -.7 1.1 -1.4 1.7 -2.1c.6 -.7 1.4 -1.4 2.2 -2c.8 -.7 1.6 -1.3 2.6 -2c.9 -.6 1.9 -1.2 3 -1.8c1.1 -.6 2.2 -1.1 3.4 -1.6c1.2 -.6 2.4 -1.1 3.7 -1.6c1.3 -.4 2.7 -.9 4.1 -1.3c1.4 -.4 2.8 -.8 4.3 -1.1c1.5 -.4 3 -.7 4.6 -1c1.6 -.3 3.2 -.6 4.8 -.8c1.6 -.2 3.2 -.4 4.9 -.5c1.6 -.2 3.3 -.3 5 -.3c1.7 -.1 3.3 -.2 5 -.2c1.7 0 3.4 .1 5.1 .2c1.7 0 3.3 .1 5 .3c1.7 .1 3.3 .3 4.9 .5c1.6 .2 3.2 .5 4.8 .8c1.5 .3 3.1 .6 4.5 1c1.5 .3 3 .7 4.4 1.1c1.4 .4 2.7 .9 4 1.3c1.4 .5 2.6 1 3.8 1.6c1.2 .5 2.3 1 3.4 1.6c1.1 .6 2.1 1.2 3 1.8c.9 .7 1.8 1.3 2.6 2c.8 .6 1.5 1.3 2.2 2c.6 .7 1.2 1.4 1.7 2.1c.5 .7 .9 1.5 1.2 2.2c.3 .7 .6 1.5 .8 2.2c.1 .8 .2 1.5 .2 2.3ZM424.5 333.2c0 .7 0 1.5 -.2 2.2c-.2 .8 -.4 1.5 -.8 2.3c-.3 .7 -.7 1.4 -1.2 2.1c-.5 .8 -1 1.5 -1.7 2.2c-.6 .7 -1.4 1.3 -2.2 2c-.8 .7 -1.6 1.3 -2.6 1.9c-.9 .6 -1.9 1.2 -3 1.8c-1 .6 -2.2 1.2 -3.4 1.7c-1.2 .5 -2.4 1 -3.7 1.5c-1.3 .5 -2.7 .9 -4.1 1.3c-1.4 .5 -2.8 .8 -4.3 1.2c-1.5 .4 -3 .7 -4.6 1c-1.6 .2 -3.1 .5 -4.8 .7c-1.6 .2 -3.2 .4 -4.9 .6c-1.6 .1 -3.3 .2 -5 .3c-1.7 .1 -3.3 .1 -5 .1c-1.7 0 -3.4 0 -5.1 -.1c-1.7 -.1 -3.3 -.2 -5 -.3c-1.6 -.2 -3.3 -.4 -4.9 -.6c-1.6 -.2 -3.2 -.5 -4.8 -.7c-1.5 -.3 -3 -.6 -4.5 -1c-1.5 -.4 -3 -.7 -4.4 -1.2c-1.4 -.4 -2.7 -.8 -4 -1.3c-1.3 -.5 -2.6 -1 -3.8 -1.5c-1.2 -.5 -2.3 -1.1 -3.4 -1.7c-1.1 -.6 -2.1 -1.2 -3 -1.8c-.9 -.6 -1.8 -1.2 -2.6 -1.9c-.8 -.7 -1.5 -1.3 -2.2 -2c-.6 -.7 -1.2 -1.4 -1.7 -2.2c-.5 -.7 -.9 -1.4 -1.2 -2.1c-.3 -.8 -.6 -1.5 -.7 -2.3c-.2 -.7 -.3 -1.5 -.3 -2.2c0 -.8 .1 -1.5 .3 -2.3c.1 -.7 .4 -1.4 .7 -2.2c.3 -.7 .7 -1.4 1.2 -2.2c.5 -.7 1.1 -1.4 1.7 -2.1c.7 -.7 1.4 -1.4 2.2 -2c.8 -.7 1.7 -1.3 2.6 -1.9c.9 -.7 1.9 -1.3 3 -1.9c1.1 -.5 2.2 -1.1 3.4 -1.6c1.2 -.5 2.5 -1.1 3.8 -1.5c1.3 -.5 2.6 -1 4 -1.4c1.4 -.4 2.9 -.8 4.4 -1.1c1.5 -.4 3 -.7 4.5 -1c1.6 -.3 3.2 -.5 4.8 -.7c1.6 -.3 3.3 -.4 4.9 -.6c1.7 -.1 3.3 -.2 5 -.3c1.7 -.1 3.4 -.1 5.1 -.1c1.7 0 3.3 0 5 .1c1.7 .1 3.4 .2 5 .3c1.7 .2 3.3 .3 4.9 .6c1.7 .2 3.2 .4 4.8 .7c1.6 .3 3.1 .6 4.6 1c1.5 .3 2.9 .7 4.3 1.1c1.4 .4 2.8 .9 4.1 1.4c1.3 .4 2.5 1 3.7 1.5c1.2 .5 2.4 1.1 3.4 1.6c1.1 .6 2.1 1.2 3 1.9c1 .6 1.8 1.2 2.6 1.9c.8 .6 1.6 1.3 2.2 2c.7 .7 1.2 1.4 1.7 2.1c.5 .8 .9 1.5 1.2 2.2c.4 .8 .6 1.5 .8 2.2c.2 .8 .2 1.5 .2 2.3Z" class="g1_323"/>
</g>
<path d="M253.6 186.4c0 -27.4 43.2 -41.1 129.6 -41.1c86.5 0 129.7 11.2 129.7 33.8" class="g2_323"/>
<path d="M512.9 185.1l-2.7 -8l2.7 2l2.6 -2l-2.6 8Z" class="g3_323"/>
<path d="M512.9 185.1l-2.7 -8l2.7 2l2.6 -2l-2.6 8Z" class="g2_323"/>
<path d="M340.9 132.7h67.6v50.4H340.9V132.7Z" class="g0_323"/>
<path d="M585.8 218.8c0 80 -52.1 120 -156.1 120" class="g2_323"/>
<path d="M423.7 338.8l8 -2.7l-2 2.7l2 2.6l-8 -2.6Z" class="g3_323"/>
<path d="M423.7 338.8l8 -2.7l-2 2.7l2 2.6l-8 -2.6Z" class="g2_323"/>
<path d="M510.5 296.5h79v50.4h-79V296.5Z" class="g0_323"/>
<path d="M321.4 333.2C225.2 333.2 177 297.8 177 227" class="g2_323"/>
<path d="M177 221l2.7 8.1L177 227l-2.6 2.1L177 221Z" class="g3_323"/>
<path d="M177 221l2.7 8.1L177 227l-2.6 2.1L177 221Z" class="g2_323"/>
<path d="M141.5 294.2H260.7v34.4H141.5V294.2Z" class="g0_323"/>
<path d="M512.9 218.8c0 27.4 -43.2 41.1 -129.7 41.1c-86.4 0 -129.6 -11.3 -129.6 -33.8" class="g2_323"/>
<path d="M253.6 220l2.7 8.1l-2.7 -2l-2.7 2l2.7 -8.1Z" class="g3_323"/>
<path d="M253.6 220l2.7 8.1l-2.7 -2l-2.7 2l2.7 -8.1Z" class="g2_323"/>
<path d="M319.1 227.8H447.5v67.6H319.1V227.8Z" class="g0_323"/>
<path d="M99.1 202.6h59.2" class="g2_323"/>
<path d="M164.3 202.6l-8 4l2 -4l-2 -4l8 4Z" class="g3_323"/>
<path d="M164.3 202.6l-8 4l2 -4l-2 -4l8 4Z" class="g2_323"/>
<path d="M115.2 195.7h36.6v17.2H115.2V195.7Z" class="g0_323"/>
<path d="M549.3 179.6c12.3 -45.8 23.9 -45.9 34.8 -.3" class="g2_323"/>
<path d="M585.5 185.1L581 177.9l3.1 1.4l2.1 -2.6l-.7 8.4Z" class="g3_323"/>
<path d="M585.5 185.1L581 177.9l3.1 1.4l2.1 -2.6l-.7 8.4Z" class="g2_323"/>
<path d="M538 110.9h59.6v50.4H538V110.9Z" class="g0_323"/>
</g>
</svg>