<?xml version="1.0" encoding="UTF-8" standalone="no"?>
<!DOCTYPE svg PUBLIC "-//W3C//DTD SVG 1.1//EN"
"http://www.w3.org/Graphics/SVG/1.1/DTD/svg11.dtd">
<svg viewBox="0 0 714 1017" version="1.1" xmlns="http://www.w3.org/2000/svg" xmlns:xlink="http://www.w3.org/1999/xlink">
<defs>
<clipPath id="c0_460"><path d="M115.3 518.7v-322H620.6v322Z"/></clipPath>
<clipPath id="c1_460"><path d="M115.3 519V196.7H621V519Z"/></clipPath>
<style type="text/css"><![CDATA[
.g0_460{
fill: #FFF;
}
.g1_460{
fill: #000;
}
.g2_460{
fill: none;
stroke: #000;
stroke-width: 1.145;
stroke-miterlimit: 10;
}
]]></style>
</defs>
<path d="M0 1017.7H717.2V-3.7H0V1017.7Z" class="g0_460"/>
<g clip-path="url(#c1_460)">
<path d="M115.3 196.7H620.6v322H115.3v-322Z" class="g0_460"/>
<path d="M367.4 230.8c-9.3 0 -16.9 -7.6 -16.9 -16.9c0 -9.3 7.6 -16.8 16.9 -16.8c9.3 0 16.8 7.5 16.8 16.8c0 9.3 -7.5 16.9 -16.8 16.9Zm10.4 -5.7c-.9 -.5 -1.9 -.8 -3.3 -1.1c-1.7 -.4 -3.9 -.7 -3.7 -2.6c-1.3 1.1 -3.5 1.6 -5.2 .8c-.6 -.2 -1 -.7 -1.4 -.7c.1 1.9 -2.1 2.1 -3.7 2.5c-1.5 .3 -2.5 .6 -3.4 1.2c2.7 2.5 6.3 4 10.3 4c4 0 7.6 -1.6 10.4 -4.1Zm-9.3 -20.6c-5.1 -.5 -7.6 3 -6.9 8.2c-.2 .1 -.5 0 -.5 .3c0 1.5 .3 2.8 1.4 3.2c.6 2.5 2.4 5.5 5.5 5.1c2.6 -.3 4 -2.8 4.6 -5.1c1 -.4 1.4 -1.9 1.3 -3.3c0 -.2 -.4 -.1 -.5 -.2c.9 -4.1 -1.4 -7.9 -4.9 -8.2Zm-1.1 -5.9c-8.4 0 -15.3 6.9 -15.3 15.3c0 4 1.5 7.6 4 10.3c.3 -.2 .6 -.4 .9 -.6c1.7 -.9 3.8 -.8 5.8 -1.7c0 -.6 0 -1.2 0 -1.8c-.8 -.7 -.9 -1.9 -1.5 -2.9c-.3 -.6 -.8 -.9 -1.1 -1.6c-.3 -.6 -.6 -1.5 -.5 -2.6c.1 -.5 .4 -.8 .4 -1.3c.1 -.6 0 -1.3 0 -1.9c.4 -3.5 3 -6.2 6.4 -6.7c.7 0 1.4 0 2.1 0c3.6 .6 6.1 3.3 6.3 7.2c0 .5 -.1 1 0 1.5c0 .5 .4 .9 .5 1.4c0 1.7 -.7 3 -1.7 4c-.3 1.2 -.9 2 -1.4 2.9c0 .6 0 1.1 0 1.7c1.6 1 3.9 .9 5.5 1.7c.4 .2 .7 .4 .9 .6c2.5 -2.7 4 -6.3 4 -10.2c0 -8.4 -6.9 -15.3 -15.3 -15.3Z" class="g1_460"/>
<path clip-path="url(#c0_460)" d="M119.3 289H249.9c.4 0 .9 .1 1.3 .2c.4 .2 .8 .5 1.1 .8c.3 .3 .6 .7 .8 1.1c.1 .4 .2 .9 .2 1.3v16c0 .5 -.1 .9 -.2 1.4c-.2 .4 -.5 .8 -.8 1.1c-.3 .3 -.7 .6 -1.1 .7c-.4 .2 -.9 .3 -1.3 .3H119.3c-.5 0 -.9 -.1 -1.4 -.3c-.4 -.1 -.8 -.4 -1.1 -.7c-.3 -.3 -.5 -.7 -.7 -1.1c-.2 -.5 -.3 -.9 -.3 -1.4v-16c0 -.4 .1 -.9 .3 -1.3c.2 -.4 .4 -.8 .7 -1.1c.3 -.3 .7 -.6 1.1 -.8c.5 -.1 .9 -.2 1.4 -.2Zm183.3 0H433.2c.5 0 .9 .1 1.3 .2c.5 .2 .8 .5 1.1 .8c.4 .3 .6 .7 .8 1.1c.2 .4 .3 .9 .3 1.3v16c0 .5 -.1 .9 -.3 1.4c-.2 .4 -.4 .8 -.8 1.1c-.3 .3 -.6 .6 -1.1 .7c-.4 .2 -.8 .3 -1.3 .3H302.6c-.5 0 -.9 -.1 -1.3 -.3c-.4 -.1 -.8 -.4 -1.1 -.7c-.4 -.3 -.6 -.7 -.8 -1.1c-.2 -.5 -.2 -.9 -.2 -1.4v-16c0 -.4 0 -.9 .2 -1.3c.2 -.4 .4 -.8 .8 -1.1c.3 -.3 .7 -.6 1.1 -.8c.4 -.1 .8 -.2 1.3 -.2Zm183.3 0H616.6c.4 0 .8 .1 1.3 .2c.4 .2 .8 .5 1.1 .8c.3 .3 .6 .7 .7 1.1c.2 .4 .3 .9 .3 1.3v16c0 .5 -.1 .9 -.3 1.4c-.1 .4 -.4 .8 -.7 1.1c-.3 .3 -.7 .6 -1.1 .7c-.5 .2 -.9 .3 -1.3 .3H485.9c-.4 0 -.9 -.1 -1.3 -.3c-.4 -.1 -.8 -.4 -1.1 -.7c-.3 -.3 -.6 -.7 -.8 -1.1c-.1 -.5 -.2 -.9 -.2 -1.4v-16c0 -.4 .1 -.9 .2 -1.3c.2 -.4 .5 -.8 .8 -1.1c.3 -.3 .7 -.6 1.1 -.8c.4 -.1 .9 -.2 1.3 -.2ZM129.6 357.7h110c.9 0 1.8 .1 2.7 .3c.8 .2 1.7 .4 2.5 .8c.9 .3 1.7 .7 2.4 1.2c.8 .5 1.5 1.1 2.1 1.7c.6 .7 1.2 1.4 1.7 2.1c.5 .8 .9 1.6 1.3 2.4c.3 .8 .6 1.7 .8 2.6c.1 .9 .2 1.8 .2 2.7v64.1c0 .9 -.1 1.8 -.2 2.7c-.2 .9 -.5 1.8 -.8 2.6c-.4 .8 -.8 1.6 -1.3 2.4c-.5 .7 -1.1 1.4 -1.7 2.1c-.6 .6 -1.3 1.2 -2.1 1.7c-.7 .5 -1.5 .9 -2.4 1.2c-.8 .4 -1.7 .6 -2.5 .8c-.9 .2 -1.8 .3 -2.7 .3h-110c-.9 0 -1.8 -.1 -2.7 -.3c-.9 -.2 -1.8 -.4 -2.6 -.8c-.8 -.3 -1.6 -.7 -2.4 -1.2c-.7 -.5 -1.4 -1.1 -2.1 -1.7c-.6 -.7 -1.2 -1.4 -1.7 -2.1c-.5 -.8 -.9 -1.6 -1.2 -2.4c-.4 -.8 -.6 -1.7 -.8 -2.6c-.2 -.9 -.3 -1.8 -.3 -2.7V371.5c0 -.9 .1 -1.8 .3 -2.7c.2 -.9 .4 -1.8 .8 -2.6c.3 -.8 .7 -1.6 1.2 -2.4c.5 -.7 1.1 -1.4 1.7 -2.1c.7 -.6 1.4 -1.2 2.1 -1.7c.8 -.5 1.6 -.9 2.4 -1.2c.8 -.4 1.7 -.6 2.6 -.8c.9 -.2 1.8 -.3 2.7 -.3Zm-5.2 39H244.7v44.7H124.4V396.7Z" class="g2_460"/>
<path d="M141.8 424.3c0 .5 0 .9 -.1 1.4c-.1 .4 -.2 .8 -.4 1.3c-.2 .4 -.4 .8 -.6 1.2c-.3 .4 -.6 .7 -.9 1c-.3 .4 -.7 .7 -1.1 .9c-.4 .3 -.8 .5 -1.2 .7c-.4 .1 -.8 .3 -1.3 .4c-.4 0 -.9 .1 -1.4 .1c-.4 0 -.9 -.1 -1.3 -.1c-.5 -.1 -.9 -.3 -1.3 -.4c-.5 -.2 -.9 -.4 -1.2 -.7c-.4 -.2 -.8 -.5 -1.1 -.9c-.3 -.3 -.6 -.6 -.9 -1c-.2 -.4 -.4 -.8 -.6 -1.2c-.2 -.5 -.3 -.9 -.4 -1.3c-.1 -.5 -.1 -.9 -.1 -1.4c0 -.5 0 -.9 .1 -1.4c.1 -.4 .2 -.9 .4 -1.3c.2 -.4 .4 -.8 .6 -1.2c.3 -.4 .6 -.7 .9 -1.1c.3 -.3 .7 -.6 1.1 -.8c.3 -.3 .7 -.5 1.2 -.7c.4 -.1 .8 -.3 1.3 -.4c.4 -.1 .9 -.1 1.3 -.1c.5 0 1 0 1.4 .1c.5 .1 .9 .3 1.3 .4c.4 .2 .8 .4 1.2 .7c.4 .2 .8 .5 1.1 .8c.3 .4 .6 .7 .9 1.1c.2 .4 .4 .8 .6 1.2c.2 .4 .3 .9 .4 1.3c.1 .5 .1 .9 .1 1.4Z" class="g1_460"/>
<path d="M141.8 424.3c0 .5 0 .9 -.1 1.4c-.1 .4 -.2 .8 -.4 1.3c-.2 .4 -.4 .8 -.6 1.2c-.3 .4 -.6 .7 -.9 1c-.3 .4 -.7 .7 -1.1 .9c-.4 .3 -.8 .5 -1.2 .7c-.4 .1 -.8 .3 -1.3 .4c-.4 0 -.9 .1 -1.4 .1c-.4 0 -.9 -.1 -1.3 -.1c-.5 -.1 -.9 -.3 -1.3 -.4c-.5 -.2 -.9 -.4 -1.2 -.7c-.4 -.2 -.8 -.5 -1.1 -.9c-.3 -.3 -.6 -.6 -.9 -1c-.2 -.4 -.4 -.8 -.6 -1.2c-.2 -.5 -.3 -.9 -.4 -1.3c-.1 -.5 -.1 -.9 -.1 -1.4c0 -.5 0 -.9 .1 -1.4c.1 -.4 .2 -.9 .4 -1.3c.2 -.4 .4 -.8 .6 -1.2c.3 -.4 .6 -.7 .9 -1.1c.3 -.3 .7 -.6 1.1 -.8c.3 -.3 .7 -.5 1.2 -.7c.4 -.1 .8 -.3 1.3 -.4c.4 -.1 .9 -.1 1.3 -.1c.5 0 1 0 1.4 .1c.5 .1 .9 .3 1.3 .4c.4 .2 .8 .4 1.2 .7c.4 .2 .8 .5 1.1 .8c.3 .4 .6 .7 .9 1.1c.2 .4 .4 .8 .6 1.2c.2 .4 .3 .9 .4 1.3c.1 .5 .1 .9 .1 1.4Z" class="g2_460"/>
<path d="M174.5 424.3c0 .5 -.1 .9 -.1 1.4c-.1 .4 -.3 .8 -.4 1.3c-.2 .4 -.4 .8 -.7 1.2c-.2 .4 -.5 .7 -.9 1c-.3 .4 -.6 .7 -1 .9c-.4 .3 -.8 .5 -1.2 .7c-.5 .1 -.9 .3 -1.3 .4c-.5 0 -.9 .1 -1.4 .1c-.5 0 -.9 -.1 -1.4 -.1c-.4 -.1 -.9 -.3 -1.3 -.4c-.4 -.2 -.8 -.4 -1.2 -.7c-.4 -.2 -.7 -.5 -1 -.9c-.4 -.3 -.7 -.6 -.9 -1c-.3 -.4 -.5 -.8 -.7 -1.2c-.1 -.5 -.3 -.9 -.4 -1.3c0 -.5 -.1 -.9 -.1 -1.4c0 -.5 .1 -.9 .1 -1.4c.1 -.4 .3 -.9 .4 -1.3c.2 -.4 .4 -.8 .7 -1.2c.2 -.4 .5 -.7 .9 -1.1c.3 -.3 .6 -.6 1 -.8c.4 -.3 .8 -.5 1.2 -.7c.4 -.1 .9 -.3 1.3 -.4c.5 -.1 .9 -.1 1.4 -.1c.5 0 .9 0 1.4 .1c.4 .1 .8 .3 1.3 .4c.4 .2 .8 .4 1.2 .7c.4 .2 .7 .5 1 .8c.4 .4 .7 .7 .9 1.1c.3 .4 .5 .8 .7 1.2c.1 .4 .3 .9 .4 1.3c0 .5 .1 .9 .1 1.4Z" class="g1_460"/>
<path d="M174.5 424.3c0 .5 -.1 .9 -.1 1.4c-.1 .4 -.3 .8 -.4 1.3c-.2 .4 -.4 .8 -.7 1.2c-.2 .4 -.5 .7 -.9 1c-.3 .4 -.6 .7 -1 .9c-.4 .3 -.8 .5 -1.2 .7c-.5 .1 -.9 .3 -1.3 .4c-.5 0 -.9 .1 -1.4 .1c-.5 0 -.9 -.1 -1.4 -.1c-.4 -.1 -.9 -.3 -1.3 -.4c-.4 -.2 -.8 -.4 -1.2 -.7c-.4 -.2 -.7 -.5 -1 -.9c-.4 -.3 -.7 -.6 -.9 -1c-.3 -.4 -.5 -.8 -.7 -1.2c-.1 -.5 -.3 -.9 -.4 -1.3c0 -.5 -.1 -.9 -.1 -1.4c0 -.5 .1 -.9 .1 -1.4c.1 -.4 .3 -.9 .4 -1.3c.2 -.4 .4 -.8 .7 -1.2c.2 -.4 .5 -.7 .9 -1.1c.3 -.3 .6 -.6 1 -.8c.4 -.3 .8 -.5 1.2 -.7c.4 -.1 .9 -.3 1.3 -.4c.5 -.1 .9 -.1 1.4 -.1c.5 0 .9 0 1.4 .1c.4 .1 .8 .3 1.3 .4c.4 .2 .8 .4 1.2 .7c.4 .2 .7 .5 1 .8c.4 .4 .7 .7 .9 1.1c.3 .4 .5 .8 .7 1.2c.1 .4 .3 .9 .4 1.3c0 .5 .1 .9 .1 1.4Z" class="g2_460"/>
<path d="M240.4 424.3c0 .5 -.1 .9 -.2 1.4c-.1 .4 -.2 .8 -.4 1.3c-.1 .4 -.4 .8 -.6 1.2c-.3 .4 -.5 .7 -.9 1c-.3 .4 -.7 .7 -1 .9c-.4 .3 -.8 .5 -1.2 .7c-.5 .1 -.9 .3 -1.4 .4c-.4 0 -.9 .1 -1.3 .1c-.5 0 -.9 -.1 -1.4 -.1c-.4 -.1 -.9 -.3 -1.3 -.4c-.4 -.2 -.8 -.4 -1.2 -.7c-.4 -.2 -.7 -.5 -1.1 -.9c-.3 -.3 -.6 -.6 -.8 -1c-.3 -.4 -.5 -.8 -.7 -1.2c-.1 -.5 -.3 -.9 -.4 -1.3c-.1 -.5 -.1 -.9 -.1 -1.4c0 -.5 0 -.9 .1 -1.4c.1 -.4 .3 -.9 .4 -1.3c.2 -.4 .4 -.8 .7 -1.2c.2 -.4 .5 -.7 .8 -1.1c.4 -.3 .7 -.6 1.1 -.8c.4 -.3 .8 -.5 1.2 -.7c.4 -.1 .9 -.3 1.3 -.4c.5 -.1 .9 -.1 1.4 -.1c.4 0 .9 0 1.3 .1c.5 .1 .9 .3 1.4 .4c.4 .2 .8 .4 1.2 .7c.3 .2 .7 .5 1 .8c.4 .4 .6 .7 .9 1.1c.2 .4 .5 .8 .6 1.2c.2 .4 .3 .9 .4 1.3c.1 .5 .2 .9 .2 1.4Z" class="g1_460"/>
<path d="M240.4 424.3c0 .5 -.1 .9 -.2 1.4c-.1 .4 -.2 .8 -.4 1.3c-.1 .4 -.4 .8 -.6 1.2c-.3 .4 -.5 .7 -.9 1c-.3 .4 -.7 .7 -1 .9c-.4 .3 -.8 .5 -1.2 .7c-.5 .1 -.9 .3 -1.4 .4c-.4 0 -.9 .1 -1.3 .1c-.5 0 -.9 -.1 -1.4 -.1c-.4 -.1 -.9 -.3 -1.3 -.4c-.4 -.2 -.8 -.4 -1.2 -.7c-.4 -.2 -.7 -.5 -1.1 -.9c-.3 -.3 -.6 -.6 -.8 -1c-.3 -.4 -.5 -.8 -.7 -1.2c-.1 -.5 -.3 -.9 -.4 -1.3c-.1 -.5 -.1 -.9 -.1 -1.4c0 -.5 0 -.9 .1 -1.4c.1 -.4 .3 -.9 .4 -1.3c.2 -.4 .4 -.8 .7 -1.2c.2 -.4 .5 -.7 .8 -1.1c.4 -.3 .7 -.6 1.1 -.8c.4 -.3 .8 -.5 1.2 -.7c.4 -.1 .9 -.3 1.3 -.4c.5 -.1 .9 -.1 1.4 -.1c.4 0 .9 0 1.3 .1c.5 .1 .9 .3 1.4 .4c.4 .2 .8 .4 1.2 .7c.3 .2 .7 .5 1 .8c.4 .4 .6 .7 .9 1.1c.2 .4 .5 .8 .6 1.2c.2 .4 .3 .9 .4 1.3c.1 .5 .2 .9 .2 1.4Z" class="g2_460"/>
<path d="M207.7 424.3c0 .5 0 .9 -.1 1.4c-.1 .4 -.2 .8 -.4 1.3c-.2 .4 -.4 .8 -.7 1.2c-.2 .4 -.5 .7 -.8 1c-.4 .4 -.7 .7 -1.1 .9c-.4 .3 -.8 .5 -1.2 .7c-.4 .1 -.9 .3 -1.3 .4c-.5 0 -.9 .1 -1.4 .1c-.4 0 -.9 -.1 -1.3 -.1c-.5 -.1 -.9 -.3 -1.3 -.4c-.5 -.2 -.9 -.4 -1.3 -.7c-.3 -.2 -.7 -.5 -1 -.9c-.3 -.3 -.6 -.6 -.9 -1c-.2 -.4 -.5 -.8 -.6 -1.2c-.2 -.5 -.3 -.9 -.4 -1.3c-.1 -.5 -.2 -.9 -.2 -1.4c0 -.5 .1 -.9 .2 -1.4c.1 -.4 .2 -.9 .4 -1.3c.1 -.4 .4 -.8 .6 -1.2c.3 -.4 .6 -.7 .9 -1.1c.3 -.3 .7 -.6 1 -.8c.4 -.3 .8 -.5 1.3 -.7c.4 -.1 .8 -.3 1.3 -.4c.4 -.1 .9 -.1 1.3 -.1c.5 0 .9 0 1.4 .1c.4 .1 .9 .3 1.3 .4c.4 .2 .8 .4 1.2 .7c.4 .2 .7 .5 1.1 .8c.3 .4 .6 .7 .8 1.1c.3 .4 .5 .8 .7 1.2c.2 .4 .3 .9 .4 1.3c.1 .5 .1 .9 .1 1.4Z" class="g1_460"/>
<path d="M207.7 424.3c0 .5 0 .9 -.1 1.4c-.1 .4 -.2 .8 -.4 1.3c-.2 .4 -.4 .8 -.7 1.2c-.2 .4 -.5 .7 -.8 1c-.4 .4 -.7 .7 -1.1 .9c-.4 .3 -.8 .5 -1.2 .7c-.4 .1 -.9 .3 -1.3 .4c-.5 0 -.9 .1 -1.4 .1c-.4 0 -.9 -.1 -1.3 -.1c-.5 -.1 -.9 -.3 -1.3 -.4c-.5 -.2 -.9 -.4 -1.3 -.7c-.3 -.2 -.7 -.5 -1 -.9c-.3 -.3 -.6 -.6 -.9 -1c-.2 -.4 -.5 -.8 -.6 -1.2c-.2 -.5 -.3 -.9 -.4 -1.3c-.1 -.5 -.2 -.9 -.2 -1.4c0 -.5 .1 -.9 .2 -1.4c.1 -.4 .2 -.9 .4 -1.3c.1 -.4 .4 -.8 .6 -1.2c.3 -.4 .6 -.7 .9 -1.1c.3 -.3 .7 -.6 1 -.8c.4 -.3 .8 -.5 1.3 -.7c.4 -.1 .8 -.3 1.3 -.4c.4 -.1 .9 -.1 1.3 -.1c.5 0 .9 0 1.4 .1c.4 .1 .9 .3 1.3 .4c.4 .2 .8 .4 1.2 .7c.4 .2 .7 .5 1.1 .8c.3 .4 .6 .7 .8 1.1c.3 .4 .5 .8 .7 1.2c.2 .4 .3 .9 .4 1.3c.1 .5 .1 .9 .1 1.4ZM312.9 357.7h110c.9 0 1.8 .1 2.7 .3c.9 .2 1.7 .4 2.6 .8c.8 .3 1.6 .7 2.3 1.2c.8 .5 1.5 1.1 2.1 1.7c.7 .7 1.2 1.4 1.7 2.1c.5 .8 1 1.6 1.3 2.4c.4 .8 .6 1.7 .8 2.6c.2 .9 .3 1.8 .3 2.7v64.1c0 .9 -.1 1.8 -.3 2.7c-.2 .9 -.4 1.8 -.8 2.6c-.3 .8 -.8 1.6 -1.3 2.4c-.5 .7 -1 1.4 -1.7 2.1c-.6 .6 -1.3 1.2 -2.1 1.7c-.7 .5 -1.5 .9 -2.3 1.2c-.9 .4 -1.7 .6 -2.6 .8c-.9 .2 -1.8 .3 -2.7 .3h-110c-.9 0 -1.8 -.1 -2.7 -.3c-.9 -.2 -1.7 -.4 -2.6 -.8c-.8 -.3 -1.6 -.7 -2.3 -1.2c-.8 -.5 -1.5 -1.1 -2.1 -1.7c-.7 -.7 -1.2 -1.4 -1.7 -2.1c-.5 -.8 -1 -1.6 -1.3 -2.4c-.3 -.8 -.6 -1.7 -.8 -2.6c-.2 -.9 -.2 -1.8 -.2 -2.7V371.5c0 -.9 0 -1.8 .2 -2.7c.2 -.9 .5 -1.8 .8 -2.6c.3 -.8 .8 -1.6 1.3 -2.4c.5 -.7 1 -1.4 1.7 -2.1c.6 -.6 1.3 -1.2 2.1 -1.7c.7 -.5 1.5 -.9 2.3 -1.2c.9 -.4 1.7 -.6 2.6 -.8c.9 -.2 1.8 -.3 2.7 -.3Zm-5.2 39H428.1v44.7H307.7V396.7Z" class="g2_460"/>
<path d="M327.5 424.3c0 .5 -.1 .9 -.2 1.4c-.1 .4 -.2 .8 -.4 1.3c-.2 .4 -.4 .8 -.6 1.2c-.3 .4 -.6 .7 -.9 1c-.3 .4 -.7 .7 -1.1 .9c-.3 .3 -.7 .5 -1.2 .7c-.4 .1 -.8 .3 -1.3 .4c-.4 0 -.9 .1 -1.3 .1c-.5 0 -.9 -.1 -1.4 -.1c-.4 -.1 -.9 -.3 -1.3 -.4c-.4 -.2 -.8 -.4 -1.2 -.7c-.4 -.2 -.8 -.5 -1.1 -.9c-.3 -.3 -.6 -.6 -.8 -1c-.3 -.4 -.5 -.8 -.7 -1.2c-.2 -.5 -.3 -.9 -.4 -1.3c-.1 -.5 -.1 -.9 -.1 -1.4c0 -.5 0 -.9 .1 -1.4c.1 -.4 .2 -.9 .4 -1.3c.2 -.4 .4 -.8 .7 -1.2c.2 -.4 .5 -.7 .8 -1.1c.3 -.3 .7 -.6 1.1 -.8c.4 -.3 .8 -.5 1.2 -.7c.4 -.1 .9 -.3 1.3 -.4c.5 -.1 .9 -.1 1.4 -.1c.4 0 .9 0 1.3 .1c.5 .1 .9 .3 1.3 .4c.5 .2 .9 .4 1.2 .7c.4 .2 .8 .5 1.1 .8c.3 .4 .6 .7 .9 1.1c.2 .4 .4 .8 .6 1.2c.2 .4 .3 .9 .4 1.3c.1 .5 .2 .9 .2 1.4Z" class="g1_460"/>
<path d="M327.5 424.3c0 .5 -.1 .9 -.2 1.4c-.1 .4 -.2 .8 -.4 1.3c-.2 .4 -.4 .8 -.6 1.2c-.3 .4 -.6 .7 -.9 1c-.3 .4 -.7 .7 -1.1 .9c-.3 .3 -.7 .5 -1.2 .7c-.4 .1 -.8 .3 -1.3 .4c-.4 0 -.9 .1 -1.3 .1c-.5 0 -.9 -.1 -1.4 -.1c-.4 -.1 -.9 -.3 -1.3 -.4c-.4 -.2 -.8 -.4 -1.2 -.7c-.4 -.2 -.8 -.5 -1.1 -.9c-.3 -.3 -.6 -.6 -.8 -1c-.3 -.4 -.5 -.8 -.7 -1.2c-.2 -.5 -.3 -.9 -.4 -1.3c-.1 -.5 -.1 -.9 -.1 -1.4c0 -.5 0 -.9 .1 -1.4c.1 -.4 .2 -.9 .4 -1.3c.2 -.4 .4 -.8 .7 -1.2c.2 -.4 .5 -.7 .8 -1.1c.3 -.3 .7 -.6 1.1 -.8c.4 -.3 .8 -.5 1.2 -.7c.4 -.1 .9 -.3 1.3 -.4c.5 -.1 .9 -.1 1.4 -.1c.4 0 .9 0 1.3 .1c.5 .1 .9 .3 1.3 .4c.5 .2 .9 .4 1.2 .7c.4 .2 .8 .5 1.1 .8c.3 .4 .6 .7 .9 1.1c.2 .4 .4 .8 .6 1.2c.2 .4 .3 .9 .4 1.3c.1 .5 .2 .9 .2 1.4Z" class="g2_460"/>
<path d="M359 424.3c0 .5 -.1 .9 -.2 1.4c-.1 .4 -.2 .8 -.4 1.3c-.1 .4 -.4 .8 -.6 1.2c-.3 .4 -.6 .7 -.9 1c-.3 .4 -.7 .7 -1 .9c-.4 .3 -.8 .5 -1.2 .7c-.5 .1 -.9 .3 -1.4 .4c-.4 0 -.9 .1 -1.3 .1c-.5 0 -.9 -.1 -1.4 -.1c-.4 -.1 -.9 -.3 -1.3 -.4c-.4 -.2 -.8 -.4 -1.2 -.7c-.4 -.2 -.7 -.5 -1.1 -.9c-.3 -.3 -.6 -.6 -.8 -1c-.3 -.4 -.5 -.8 -.7 -1.2c-.2 -.5 -.3 -.9 -.4 -1.3c-.1 -.5 -.1 -.9 -.1 -1.4c0 -.5 0 -.9 .1 -1.4c.1 -.4 .2 -.9 .4 -1.3c.2 -.4 .4 -.8 .7 -1.2c.2 -.4 .5 -.7 .8 -1.1c.4 -.3 .7 -.6 1.1 -.8c.4 -.3 .8 -.5 1.2 -.7c.4 -.1 .9 -.3 1.3 -.4c.5 -.1 .9 -.1 1.4 -.1c.4 0 .9 0 1.3 .1c.5 .1 .9 .3 1.4 .4c.4 .2 .8 .4 1.2 .7c.3 .2 .7 .5 1 .8c.3 .4 .6 .7 .9 1.1c.2 .4 .5 .8 .6 1.2c.2 .4 .3 .9 .4 1.3c.1 .5 .2 .9 .2 1.4Z" class="g1_460"/>
<path d="M359 424.3c0 .5 -.1 .9 -.2 1.4c-.1 .4 -.2 .8 -.4 1.3c-.1 .4 -.4 .8 -.6 1.2c-.3 .4 -.6 .7 -.9 1c-.3 .4 -.7 .7 -1 .9c-.4 .3 -.8 .5 -1.2 .7c-.5 .1 -.9 .3 -1.4 .4c-.4 0 -.9 .1 -1.3 .1c-.5 0 -.9 -.1 -1.4 -.1c-.4 -.1 -.9 -.3 -1.3 -.4c-.4 -.2 -.8 -.4 -1.2 -.7c-.4 -.2 -.7 -.5 -1.1 -.9c-.3 -.3 -.6 -.6 -.8 -1c-.3 -.4 -.5 -.8 -.7 -1.2c-.2 -.5 -.3 -.9 -.4 -1.3c-.1 -.5 -.1 -.9 -.1 -1.4c0 -.5 0 -.9 .1 -1.4c.1 -.4 .2 -.9 .4 -1.3c.2 -.4 .4 -.8 .7 -1.2c.2 -.4 .5 -.7 .8 -1.1c.4 -.3 .7 -.6 1.1 -.8c.4 -.3 .8 -.5 1.2 -.7c.4 -.1 .9 -.3 1.3 -.4c.5 -.1 .9 -.1 1.4 -.1c.4 0 .9 0 1.3 .1c.5 .1 .9 .3 1.4 .4c.4 .2 .8 .4 1.2 .7c.3 .2 .7 .5 1 .8c.3 .4 .6 .7 .9 1.1c.2 .4 .5 .8 .6 1.2c.2 .4 .3 .9 .4 1.3c.1 .5 .2 .9 .2 1.4Z" class="g2_460"/>
<path d="M421.4 424.3c0 .5 0 .9 -.1 1.4c-.1 .4 -.2 .8 -.4 1.3c-.2 .4 -.4 .8 -.7 1.2c-.2 .4 -.5 .7 -.8 1c-.4 .4 -.7 .7 -1.1 .9c-.4 .3 -.8 .5 -1.2 .7c-.4 .1 -.9 .3 -1.3 .4c-.5 0 -.9 .1 -1.4 .1c-.4 0 -.9 -.1 -1.3 -.1c-.5 -.1 -.9 -.3 -1.3 -.4c-.5 -.2 -.9 -.4 -1.3 -.7c-.3 -.2 -.7 -.5 -1 -.9c-.3 -.3 -.6 -.6 -.9 -1c-.2 -.4 -.5 -.8 -.6 -1.2c-.2 -.5 -.3 -.9 -.4 -1.3c-.1 -.5 -.2 -.9 -.2 -1.4c0 -.5 .1 -.9 .2 -1.4c.1 -.4 .2 -.9 .4 -1.3c.1 -.4 .4 -.8 .6 -1.2c.3 -.4 .6 -.7 .9 -1.1c.3 -.3 .7 -.6 1 -.8c.4 -.3 .8 -.5 1.3 -.7c.4 -.1 .8 -.3 1.3 -.4c.4 -.1 .9 -.1 1.3 -.1c.5 0 .9 0 1.4 .1c.4 .1 .9 .3 1.3 .4c.4 .2 .8 .4 1.2 .7c.4 .2 .7 .5 1.1 .8c.3 .4 .6 .7 .8 1.1c.3 .4 .5 .8 .7 1.2c.2 .4 .3 .9 .4 1.3c.1 .5 .1 .9 .1 1.4Z" class="g1_460"/>
<path d="M421.4 424.3c0 .5 0 .9 -.1 1.4c-.1 .4 -.2 .8 -.4 1.3c-.2 .4 -.4 .8 -.7 1.2c-.2 .4 -.5 .7 -.8 1c-.4 .4 -.7 .7 -1.1 .9c-.4 .3 -.8 .5 -1.2 .7c-.4 .1 -.9 .3 -1.3 .4c-.5 0 -.9 .1 -1.4 .1c-.4 0 -.9 -.1 -1.3 -.1c-.5 -.1 -.9 -.3 -1.3 -.4c-.5 -.2 -.9 -.4 -1.3 -.7c-.3 -.2 -.7 -.5 -1 -.9c-.3 -.3 -.6 -.6 -.9 -1c-.2 -.4 -.5 -.8 -.6 -1.2c-.2 -.5 -.3 -.9 -.4 -1.3c-.1 -.5 -.2 -.9 -.2 -1.4c0 -.5 .1 -.9 .2 -1.4c.1 -.4 .2 -.9 .4 -1.3c.1 -.4 .4 -.8 .6 -1.2c.3 -.4 .6 -.7 .9 -1.1c.3 -.3 .7 -.6 1 -.8c.4 -.3 .8 -.5 1.3 -.7c.4 -.1 .8 -.3 1.3 -.4c.4 -.1 .9 -.1 1.3 -.1c.5 0 .9 0 1.4 .1c.4 .1 .9 .3 1.3 .4c.4 .2 .8 .4 1.2 .7c.4 .2 .7 .5 1.1 .8c.3 .4 .6 .7 .8 1.1c.3 .4 .5 .8 .7 1.2c.2 .4 .3 .9 .4 1.3c.1 .5 .1 .9 .1 1.4Z" class="g2_460"/>
<path d="M389.9 424.3c0 .5 0 .9 -.1 1.4c-.1 .4 -.3 .8 -.4 1.3c-.2 .4 -.4 .8 -.7 1.2c-.2 .4 -.5 .7 -.8 1c-.4 .4 -.7 .7 -1.1 .9c-.4 .3 -.8 .5 -1.2 .7c-.4 .1 -.9 .3 -1.3 .4c-.5 0 -.9 .1 -1.4 .1c-.4 0 -.9 -.1 -1.3 -.1c-.5 -.1 -.9 -.3 -1.4 -.4c-.4 -.2 -.8 -.4 -1.2 -.7c-.4 -.2 -.7 -.5 -1 -.9c-.4 -.3 -.6 -.6 -.9 -1c-.3 -.4 -.5 -.8 -.6 -1.2c-.2 -.5 -.4 -.9 -.4 -1.3c-.1 -.5 -.2 -.9 -.2 -1.4c0 -.5 .1 -.9 .2 -1.4c0 -.4 .2 -.9 .4 -1.3c.1 -.4 .3 -.8 .6 -1.2c.3 -.4 .5 -.7 .9 -1.1c.3 -.3 .6 -.6 1 -.8c.4 -.3 .8 -.5 1.2 -.7c.5 -.1 .9 -.3 1.4 -.4c.4 -.1 .9 -.1 1.3 -.1c.5 0 .9 0 1.4 .1c.4 .1 .9 .3 1.3 .4c.4 .2 .8 .4 1.2 .7c.4 .2 .7 .5 1.1 .8c.3 .4 .6 .7 .8 1.1c.3 .4 .5 .8 .7 1.2c.1 .4 .3 .9 .4 1.3c.1 .5 .1 .9 .1 1.4Z" class="g1_460"/>
<path d="M389.9 424.3c0 .5 0 .9 -.1 1.4c-.1 .4 -.3 .8 -.4 1.3c-.2 .4 -.4 .8 -.7 1.2c-.2 .4 -.5 .7 -.8 1c-.4 .4 -.7 .7 -1.1 .9c-.4 .3 -.8 .5 -1.2 .7c-.4 .1 -.9 .3 -1.3 .4c-.5 0 -.9 .1 -1.4 .1c-.4 0 -.9 -.1 -1.3 -.1c-.5 -.1 -.9 -.3 -1.4 -.4c-.4 -.2 -.8 -.4 -1.2 -.7c-.4 -.2 -.7 -.5 -1 -.9c-.4 -.3 -.6 -.6 -.9 -1c-.3 -.4 -.5 -.8 -.6 -1.2c-.2 -.5 -.4 -.9 -.4 -1.3c-.1 -.5 -.2 -.9 -.2 -1.4c0 -.5 .1 -.9 .2 -1.4c0 -.4 .2 -.9 .4 -1.3c.1 -.4 .3 -.8 .6 -1.2c.3 -.4 .5 -.7 .9 -1.1c.3 -.3 .6 -.6 1 -.8c.4 -.3 .8 -.5 1.2 -.7c.5 -.1 .9 -.3 1.4 -.4c.4 -.1 .9 -.1 1.3 -.1c.5 0 .9 0 1.4 .1c.4 .1 .9 .3 1.3 .4c.4 .2 .8 .4 1.2 .7c.4 .2 .7 .5 1.1 .8c.3 .4 .6 .7 .8 1.1c.3 .4 .5 .8 .7 1.2c.1 .4 .3 .9 .4 1.3c.1 .5 .1 .9 .1 1.4ZM496.2 357.7h110c.9 0 1.8 .1 2.7 .3c.9 .2 1.8 .4 2.6 .8c.8 .3 1.6 .7 2.4 1.2c.7 .5 1.4 1.1 2.1 1.7c.6 .7 1.2 1.4 1.7 2.1c.5 .8 .9 1.6 1.2 2.4c.4 .8 .6 1.7 .8 2.6c.2 .9 .3 1.8 .3 2.7v64.1c0 .9 -.1 1.8 -.3 2.7c-.2 .9 -.4 1.8 -.8 2.6c-.3 .8 -.7 1.6 -1.2 2.4c-.5 .7 -1.1 1.4 -1.7 2.1c-.7 .6 -1.4 1.2 -2.1 1.7c-.8 .5 -1.6 .9 -2.4 1.2c-.8 .4 -1.7 .6 -2.6 .8c-.9 .2 -1.8 .3 -2.7 .3h-110c-.9 0 -1.8 -.1 -2.6 -.3c-.9 -.2 -1.8 -.4 -2.6 -.8c-.9 -.3 -1.7 -.7 -2.4 -1.2c-.8 -.5 -1.4 -1.1 -2.1 -1.7c-.6 -.7 -1.2 -1.4 -1.7 -2.1c-.5 -.8 -.9 -1.6 -1.3 -2.4c-.3 -.8 -.6 -1.7 -.7 -2.6c-.2 -.9 -.3 -1.8 -.3 -2.7V371.5c0 -.9 .1 -1.8 .3 -2.7c.1 -.9 .4 -1.8 .7 -2.6c.4 -.8 .8 -1.6 1.3 -2.4c.5 -.7 1.1 -1.4 1.7 -2.1c.7 -.6 1.3 -1.2 2.1 -1.7c.7 -.5 1.5 -.9 2.4 -1.2c.8 -.4 1.7 -.6 2.6 -.8c.8 -.2 1.7 -.3 2.6 -.3Zm-5.1 39H611.4v44.7H491.1V396.7Z" class="g2_460"/>
<path d="M511.9 424.3c0 .5 0 .9 -.1 1.4c-.1 .4 -.2 .8 -.4 1.3c-.2 .4 -.4 .8 -.6 1.2c-.3 .4 -.6 .7 -.9 1c-.3 .4 -.7 .7 -1.1 .9c-.4 .3 -.8 .5 -1.2 .7c-.4 .1 -.8 .3 -1.3 .4c-.4 0 -.9 .1 -1.4 .1c-.4 0 -.9 -.1 -1.3 -.1c-.5 -.1 -.9 -.3 -1.3 -.4c-.5 -.2 -.9 -.4 -1.2 -.7c-.4 -.2 -.8 -.5 -1.1 -.9c-.3 -.3 -.6 -.6 -.9 -1c-.2 -.4 -.4 -.8 -.6 -1.2c-.2 -.5 -.3 -.9 -.4 -1.3c-.1 -.5 -.1 -.9 -.1 -1.4c0 -.5 0 -.9 .1 -1.4c.1 -.4 .2 -.9 .4 -1.3c.2 -.4 .4 -.8 .6 -1.2c.3 -.4 .6 -.7 .9 -1.1c.3 -.3 .7 -.6 1.1 -.8c.3 -.3 .7 -.5 1.2 -.7c.4 -.1 .8 -.3 1.3 -.4c.4 -.1 .9 -.1 1.3 -.1c.5 0 1 0 1.4 .1c.5 .1 .9 .3 1.3 .4c.4 .2 .8 .4 1.2 .7c.4 .2 .8 .5 1.1 .8c.3 .4 .6 .7 .9 1.1c.2 .4 .4 .8 .6 1.2c.2 .4 .3 .9 .4 1.3c.1 .5 .1 .9 .1 1.4Z" class="g1_460"/>
<path d="M511.9 424.3c0 .5 0 .9 -.1 1.4c-.1 .4 -.2 .8 -.4 1.3c-.2 .4 -.4 .8 -.6 1.2c-.3 .4 -.6 .7 -.9 1c-.3 .4 -.7 .7 -1.1 .9c-.4 .3 -.8 .5 -1.2 .7c-.4 .1 -.8 .3 -1.3 .4c-.4 0 -.9 .1 -1.4 .1c-.4 0 -.9 -.1 -1.3 -.1c-.5 -.1 -.9 -.3 -1.3 -.4c-.5 -.2 -.9 -.4 -1.2 -.7c-.4 -.2 -.8 -.5 -1.1 -.9c-.3 -.3 -.6 -.6 -.9 -1c-.2 -.4 -.4 -.8 -.6 -1.2c-.2 -.5 -.3 -.9 -.4 -1.3c-.1 -.5 -.1 -.9 -.1 -1.4c0 -.5 0 -.9 .1 -1.4c.1 -.4 .2 -.9 .4 -1.3c.2 -.4 .4 -.8 .6 -1.2c.3 -.4 .6 -.7 .9 -1.1c.3 -.3 .7 -.6 1.1 -.8c.3 -.3 .7 -.5 1.2 -.7c.4 -.1 .8 -.3 1.3 -.4c.4 -.1 .9 -.1 1.3 -.1c.5 0 1 0 1.4 .1c.5 .1 .9 .3 1.3 .4c.4 .2 .8 .4 1.2 .7c.4 .2 .8 .5 1.1 .8c.3 .4 .6 .7 .9 1.1c.2 .4 .4 .8 .6 1.2c.2 .4 .3 .9 .4 1.3c.1 .5 .1 .9 .1 1.4Z" class="g2_460"/>
<path d="M542.3 424.3c0 .5 0 .9 -.1 1.4c-.1 .4 -.3 .8 -.4 1.3c-.2 .4 -.4 .8 -.7 1.2c-.2 .4 -.5 .7 -.8 1c-.4 .4 -.7 .7 -1.1 .9c-.4 .3 -.8 .5 -1.2 .7c-.4 .1 -.9 .3 -1.3 .4c-.5 0 -.9 .1 -1.4 .1c-.4 0 -.9 -.1 -1.4 -.1c-.4 -.1 -.8 -.3 -1.3 -.4c-.4 -.2 -.8 -.4 -1.2 -.7c-.4 -.2 -.7 -.5 -1 -.9c-.4 -.3 -.6 -.6 -.9 -1c-.3 -.4 -.5 -.8 -.6 -1.2c-.2 -.5 -.4 -.9 -.4 -1.3c-.1 -.5 -.2 -.9 -.2 -1.4c0 -.5 .1 -.9 .2 -1.4c0 -.4 .2 -.9 .4 -1.3c.1 -.4 .3 -.8 .6 -1.2c.3 -.4 .5 -.7 .9 -1.1c.3 -.3 .6 -.6 1 -.8c.4 -.3 .8 -.5 1.2 -.7c.5 -.1 .9 -.3 1.3 -.4c.5 -.1 1 -.1 1.4 -.1c.5 0 .9 0 1.4 .1c.4 .1 .9 .3 1.3 .4c.4 .2 .8 .4 1.2 .7c.4 .2 .7 .5 1.1 .8c.3 .4 .6 .7 .8 1.1c.3 .4 .5 .8 .7 1.2c.1 .4 .3 .9 .4 1.3c.1 .5 .1 .9 .1 1.4Z" class="g1_460"/>
<path d="M542.3 424.3c0 .5 0 .9 -.1 1.4c-.1 .4 -.3 .8 -.4 1.3c-.2 .4 -.4 .8 -.7 1.2c-.2 .4 -.5 .7 -.8 1c-.4 .4 -.7 .7 -1.1 .9c-.4 .3 -.8 .5 -1.2 .7c-.4 .1 -.9 .3 -1.3 .4c-.5 0 -.9 .1 -1.4 .1c-.4 0 -.9 -.1 -1.4 -.1c-.4 -.1 -.8 -.3 -1.3 -.4c-.4 -.2 -.8 -.4 -1.2 -.7c-.4 -.2 -.7 -.5 -1 -.9c-.4 -.3 -.6 -.6 -.9 -1c-.3 -.4 -.5 -.8 -.6 -1.2c-.2 -.5 -.4 -.9 -.4 -1.3c-.1 -.5 -.2 -.9 -.2 -1.4c0 -.5 .1 -.9 .2 -1.4c0 -.4 .2 -.9 .4 -1.3c.1 -.4 .3 -.8 .6 -1.2c.3 -.4 .5 -.7 .9 -1.1c.3 -.3 .6 -.6 1 -.8c.4 -.3 .8 -.5 1.2 -.7c.5 -.1 .9 -.3 1.3 -.4c.5 -.1 1 -.1 1.4 -.1c.5 0 .9 0 1.4 .1c.4 .1 .9 .3 1.3 .4c.4 .2 .8 .4 1.2 .7c.4 .2 .7 .5 1.1 .8c.3 .4 .6 .7 .8 1.1c.3 .4 .5 .8 .7 1.2c.1 .4 .3 .9 .4 1.3c.1 .5 .1 .9 .1 1.4Z" class="g2_460"/>
<path d="M604.7 424.3c0 .5 0 .9 -.1 1.4c-.1 .4 -.2 .8 -.4 1.3c-.2 .4 -.4 .8 -.6 1.2c-.3 .4 -.6 .7 -.9 1c-.3 .4 -.7 .7 -1.1 .9c-.3 .3 -.7 .5 -1.2 .7c-.4 .1 -.8 .3 -1.3 .4c-.4 0 -.9 .1 -1.3 .1c-.5 0 -1 -.1 -1.4 -.1c-.5 -.1 -.9 -.3 -1.3 -.4c-.4 -.2 -.8 -.4 -1.2 -.7c-.4 -.2 -.8 -.5 -1.1 -.9c-.3 -.3 -.6 -.6 -.9 -1c-.2 -.4 -.4 -.8 -.6 -1.2c-.2 -.5 -.3 -.9 -.4 -1.3c-.1 -.5 -.1 -.9 -.1 -1.4c0 -.5 0 -.9 .1 -1.4c.1 -.4 .2 -.9 .4 -1.3c.2 -.4 .4 -.8 .6 -1.2c.3 -.4 .6 -.7 .9 -1.1c.3 -.3 .7 -.6 1.1 -.8c.4 -.3 .8 -.5 1.2 -.7c.4 -.1 .8 -.3 1.3 -.4c.4 -.1 .9 -.1 1.4 -.1c.4 0 .9 0 1.3 .1c.5 .1 .9 .3 1.3 .4c.5 .2 .9 .4 1.2 .7c.4 .2 .8 .5 1.1 .8c.3 .4 .6 .7 .9 1.1c.2 .4 .4 .8 .6 1.2c.2 .4 .3 .9 .4 1.3c.1 .5 .1 .9 .1 1.4Z" class="g1_460"/>
<path d="M604.7 424.3c0 .5 0 .9 -.1 1.4c-.1 .4 -.2 .8 -.4 1.3c-.2 .4 -.4 .8 -.6 1.2c-.3 .4 -.6 .7 -.9 1c-.3 .4 -.7 .7 -1.1 .9c-.3 .3 -.7 .5 -1.2 .7c-.4 .1 -.8 .3 -1.3 .4c-.4 0 -.9 .1 -1.3 .1c-.5 0 -1 -.1 -1.4 -.1c-.5 -.1 -.9 -.3 -1.3 -.4c-.4 -.2 -.8 -.4 -1.2 -.7c-.4 -.2 -.8 -.5 -1.1 -.9c-.3 -.3 -.6 -.6 -.9 -1c-.2 -.4 -.4 -.8 -.6 -1.2c-.2 -.5 -.3 -.9 -.4 -1.3c-.1 -.5 -.1 -.9 -.1 -1.4c0 -.5 0 -.9 .1 -1.4c.1 -.4 .2 -.9 .4 -1.3c.2 -.4 .4 -.8 .6 -1.2c.3 -.4 .6 -.7 .9 -1.1c.3 -.3 .7 -.6 1.1 -.8c.4 -.3 .8 -.5 1.2 -.7c.4 -.1 .8 -.3 1.3 -.4c.4 -.1 .9 -.1 1.4 -.1c.4 0 .9 0 1.3 .1c.5 .1 .9 .3 1.3 .4c.5 .2 .9 .4 1.2 .7c.4 .2 .8 .5 1.1 .8c.3 .4 .6 .7 .9 1.1c.2 .4 .4 .8 .6 1.2c.2 .4 .3 .9 .4 1.3c.1 .5 .1 .9 .1 1.4Z" class="g2_460"/>
<path d="M573.2 424.3c0 .5 0 .9 -.1 1.4c-.1 .4 -.2 .8 -.4 1.3c-.2 .4 -.4 .8 -.6 1.2c-.3 .4 -.6 .7 -.9 1c-.3 .4 -.7 .7 -1.1 .9c-.4 .3 -.8 .5 -1.2 .7c-.4 .1 -.8 .3 -1.3 .4c-.4 0 -.9 .1 -1.4 .1c-.4 0 -.9 -.1 -1.3 -.1c-.5 -.1 -.9 -.3 -1.3 -.4c-.5 -.2 -.9 -.4 -1.2 -.7c-.4 -.2 -.8 -.5 -1.1 -.9c-.3 -.3 -.6 -.6 -.9 -1c-.2 -.4 -.4 -.8 -.6 -1.2c-.2 -.5 -.3 -.9 -.4 -1.3c-.1 -.5 -.1 -.9 -.1 -1.4c0 -.5 0 -.9 .1 -1.4c.1 -.4 .2 -.9 .4 -1.3c.2 -.4 .4 -.8 .6 -1.2c.3 -.4 .6 -.7 .9 -1.1c.3 -.3 .7 -.6 1.1 -.8c.3 -.3 .7 -.5 1.2 -.7c.4 -.1 .8 -.3 1.3 -.4c.4 -.1 .9 -.1 1.3 -.1c.5 0 1 0 1.4 .1c.5 .1 .9 .3 1.3 .4c.4 .2 .8 .4 1.2 .7c.4 .2 .8 .5 1.1 .8c.3 .4 .6 .7 .9 1.1c.2 .4 .4 .8 .6 1.2c.2 .4 .3 .9 .4 1.3c.1 .5 .1 .9 .1 1.4Z" class="g1_460"/>
<path d="M573.2 424.3c0 .5 0 .9 -.1 1.4c-.1 .4 -.2 .8 -.4 1.3c-.2 .4 -.4 .8 -.6 1.2c-.3 .4 -.6 .7 -.9 1c-.3 .4 -.7 .7 -1.1 .9c-.4 .3 -.8 .5 -1.2 .7c-.4 .1 -.8 .3 -1.3 .4c-.4 0 -.9 .1 -1.4 .1c-.4 0 -.9 -.1 -1.3 -.1c-.5 -.1 -.9 -.3 -1.3 -.4c-.5 -.2 -.9 -.4 -1.2 -.7c-.4 -.2 -.8 -.5 -1.1 -.9c-.3 -.3 -.6 -.6 -.9 -1c-.2 -.4 -.4 -.8 -.6 -1.2c-.2 -.5 -.3 -.9 -.4 -1.3c-.1 -.5 -.1 -.9 -.1 -1.4c0 -.5 0 -.9 .1 -1.4c.1 -.4 .2 -.9 .4 -1.3c.2 -.4 .4 -.8 .6 -1.2c.3 -.4 .6 -.7 .9 -1.1c.3 -.3 .7 -.6 1.1 -.8c.3 -.3 .7 -.5 1.2 -.7c.4 -.1 .8 -.3 1.3 -.4c.4 -.1 .9 -.1 1.3 -.1c.5 0 1 0 1.4 .1c.5 .1 .9 .3 1.3 .4c.4 .2 .8 .4 1.2 .7c.4 .2 .8 .5 1.1 .8c.3 .4 .6 .7 .9 1.1c.2 .4 .4 .8 .6 1.2c.2 .4 .3 .9 .4 1.3c.1 .5 .1 .9 .1 1.4Zm-319.9 56c0 -4.4 51.3 -8 114.6 -8c30.4 0 59.5 .9 81 2.4c21.5 1.5 33.6 3.5 33.6 5.6v29.8c0 4.5 -51.3 8 -114.6 8c-63.3 0 -114.6 -3.5 -114.6 -8V480.3Zm229.2 0c0 4.5 -51.3 8 -114.6 8c-63.3 0 -114.6 -3.5 -114.6 -8M585.6 357.7V311.9m-283 -68.8H433.3c.4 0 .9 .1 1.3 .3c.4 .2 .8 .4 1.1 .7c.3 .4 .6 .7 .7 1.2c.2 .4 .3 .8 .3 1.3v16c0 .5 -.1 .9 -.3 1.3c-.1 .5 -.4 .8 -.7 1.1c-.3 .4 -.7 .6 -1.1 .8c-.4 .2 -.9 .3 -1.3 .3H302.6c-.4 0 -.9 -.1 -1.3 -.3c-.4 -.2 -.8 -.4 -1.1 -.8c-.3 -.3 -.6 -.6 -.7 -1.1c-.2 -.4 -.3 -.8 -.3 -1.3v-16c0 -.5 .1 -.9 .3 -1.3c.1 -.5 .4 -.8 .7 -1.2c.3 -.3 .7 -.5 1.1 -.7c.4 -.2 .9 -.3 1.3 -.3ZM218.9 357.7l298 -45.8m34.3 45.8L402.3 311.9M184.6 357.7L333.5 311.9m0 45.8L184.6 311.9m332.3 45.8l-298 -45.8m-68.7 45.8V311.9m217.7 45.8V311.9m34.4 45.8L551.2 311.9m0 -22.9L402.3 266.1M367.9 289V266.1M184.6 289l149 -22.9m34.3 -23V231.7M253.3 510.1h-107c-7.6 0 -11.4 -3.8 -11.4 -11.4l-.1 -67.4m118.5 71.4H179c-7.6 0 -11.5 -3.9 -11.5 -11.5V431.3m85.8 63.9H212.2c-7.6 0 -11.4 -3.8 -11.4 -11.4l-.1 -52.5m52.6 56.5h-9.9c-6.7 0 -10 -3.8 -10 -11.5v-45m87.3 41.6l-.2 -41.6m31.6 40.8L352 431.3m31 41.1l-.1 -41.1m31.8 41.2l-.3 -41.2m68.1 56.5h11.2c7.5 0 11.3 -3.8 11.3 -11.5l-.1 -45m-22.4 63.9h41.4c7.6 0 11.5 -3.8 11.4 -11.4V431.3m-52.8 71.4h72.3c7.7 0 11.5 -3.9 11.5 -11.5l-.1 -59.9m-83.7 78.8H586.3c7.7 0 11.5 -3.8 11.5 -11.4V431.3" class="g2_460"/>
</g>
</svg>