<?xml version="1.0" encoding="UTF-8" standalone="no"?>
<!DOCTYPE svg PUBLIC "-//W3C//DTD SVG 1.1//EN"
"http://www.w3.org/Graphics/SVG/1.1/DTD/svg11.dtd">
<svg viewBox="0 0 714 1017" version="1.1" xmlns="http://www.w3.org/2000/svg" xmlns:xlink="http://www.w3.org/1999/xlink">
<defs>
<clipPath id="c0_33"><path d="M70 521.2v-81H622.3v81Z"/></clipPath>
<clipPath id="c1_33"><path d="M80.2 166.6V139.1H199.3v27.5Z"/></clipPath>
<clipPath id="c2_33"><path d="M80.2 212.6V185.1H199.3v27.5Z"/></clipPath>
<clipPath id="c3_33"><path d="M80.2 259.9V232.4H199.3v27.5Z"/></clipPath>
<clipPath id="c4_33"><path d="M80.2 306V278.5H199.3V306Z"/></clipPath>
<clipPath id="c5_33"><path d="M70 521.2V438.7H623v82.5Z"/></clipPath>
<style type="text/css"><![CDATA[
.g0_33{
fill: #FFF;
}
.g1_33{
fill: none;
stroke: #000;
stroke-width: 1.145;
stroke-miterlimit: 10;
}
.g2_33{
fill: none;
stroke: #000;
stroke-width: 1.156;
stroke-miterlimit: 10;
}
.g3_33{
fill: none;
stroke: #000;
stroke-width: 0.76;
stroke-miterlimit: 10;
}
.g4_33{
fill: #000;
}
.g5_33{
fill: none;
stroke: #000;
stroke-width: 1.217;
stroke-miterlimit: 10;
}
.g6_33{
fill: none;
stroke: #000;
stroke-width: 0.608;
stroke-miterlimit: 10;
}
]]></style>
</defs>
<path d="M0 1017.7H717.2V-3.7H0V1017.7Z" class="g0_33"/>
<path d="M83.2 121H626.5" class="g2_33"/>
<g clip-path="url(#c1_33)">
<path d="M93.4 152.2H185" class="g1_33"/>
<path d="M170.1 152.2c0 .8 -.1 1.5 -.4 2.2c-.3 .7 -.7 1.3 -1.2 1.9c-.6 .5 -1.2 .9 -1.9 1.2c-.7 .3 -1.4 .5 -2.2 .5c-.8 0 -1.5 -.2 -2.2 -.5c-.7 -.3 -1.3 -.7 -1.9 -1.2c-.5 -.6 -.9 -1.2 -1.2 -1.9c-.3 -.7 -.4 -1.4 -.4 -2.2c0 -.7 .1 -1.5 .4 -2.2c.3 -.7 .7 -1.3 1.2 -1.8c.6 -.6 1.2 -1 1.9 -1.3c.7 -.2 1.4 -.4 2.2 -.4c.8 0 1.5 .2 2.2 .4c.7 .3 1.3 .7 1.9 1.3c.5 .5 .9 1.1 1.2 1.8c.3 .7 .4 1.5 .4 2.2Z" class="g0_33"/>
<path d="M170.1 152.2c0 .8 -.1 1.5 -.4 2.2c-.3 .7 -.7 1.3 -1.2 1.9c-.6 .5 -1.2 .9 -1.9 1.2c-.7 .3 -1.4 .5 -2.2 .5c-.8 0 -1.5 -.2 -2.2 -.5c-.7 -.3 -1.3 -.7 -1.9 -1.2c-.5 -.6 -.9 -1.2 -1.2 -1.9c-.3 -.7 -.4 -1.4 -.4 -2.2c0 -.7 .1 -1.5 .4 -2.2c.3 -.7 .7 -1.3 1.2 -1.8c.6 -.6 1.2 -1 1.9 -1.3c.7 -.2 1.4 -.4 2.2 -.4c.8 0 1.5 .2 2.2 .4c.7 .3 1.3 .7 1.9 1.3c.5 .5 .9 1.1 1.2 1.8c.3 .7 .4 1.5 .4 2.2ZM185 145.4l-13.7 6.8l13.7 6.9" class="g1_33"/>
</g>
<path d="M83.2 182.4H626.5" class="g3_33"/>
<g clip-path="url(#c2_33)">
<path d="M93.4 198.3H185m-6.9 6.9V191.4" class="g1_33"/>
</g>
<path d="M83.2 214.5H626.5" class="g3_33"/>
<g clip-path="url(#c3_33)">
<path d="M93.4 245.6H185m-6.9 6.8V238.7m-6.8 13.7V238.7" class="g1_33"/>
</g>
<path d="M83.2 275.7H626.5" class="g3_33"/>
<g clip-path="url(#c4_33)">
<path d="M93.4 291.7H185" class="g1_33"/>
<path d="M170.1 291.7c0 .7 -.1 1.4 -.4 2.1c-.3 .7 -.7 1.4 -1.2 1.9c-.6 .5 -1.2 1 -1.9 1.2c-.7 .3 -1.4 .5 -2.2 .5c-.8 0 -1.5 -.2 -2.2 -.5c-.7 -.2 -1.3 -.7 -1.9 -1.2c-.5 -.5 -.9 -1.2 -1.2 -1.9c-.3 -.7 -.4 -1.4 -.4 -2.1c0 -.8 .1 -1.5 .4 -2.2c.3 -.7 .7 -1.4 1.2 -1.9c.6 -.5 1.2 -1 1.9 -1.2c.7 -.3 1.4 -.5 2.2 -.5c.8 0 1.5 .2 2.2 .5c.7 .2 1.3 .7 1.9 1.2c.5 .5 .9 1.2 1.2 1.9c.3 .7 .4 1.4 .4 2.2Z" class="g0_33"/>
<path d="M170.1 291.7c0 .7 -.1 1.4 -.4 2.1c-.3 .7 -.7 1.4 -1.2 1.9c-.6 .5 -1.2 1 -1.9 1.2c-.7 .3 -1.4 .5 -2.2 .5c-.8 0 -1.5 -.2 -2.2 -.5c-.7 -.2 -1.3 -.7 -1.9 -1.2c-.5 -.5 -.9 -1.2 -1.2 -1.9c-.3 -.7 -.4 -1.4 -.4 -2.1c0 -.8 .1 -1.5 .4 -2.2c.3 -.7 .7 -1.4 1.2 -1.9c.6 -.5 1.2 -1 1.9 -1.2c.7 -.3 1.4 -.5 2.2 -.5c.8 0 1.5 .2 2.2 .5c.7 .2 1.3 .7 1.9 1.2c.5 .5 .9 1.2 1.2 1.9c.3 .7 .4 1.4 .4 2.2Zm8 6.8V284.8" class="g1_33"/>
</g>
<path d="M83.2 308H626.5" class="g5_33"/>
<g clip-path="url(#c5_33)">
<path clip-path="url(#c0_33)" d="M70 440.2H622.3v81.3H70V440.2Z" class="g0_33"/>
<path d="M542 440.8h67.6c.8 0 1.6 0 2.4 .2c.7 .1 1.5 .4 2.2 .7c.7 .3 1.4 .6 2.1 1.1c.7 .4 1.3 .9 1.8 1.5c.6 .5 1.1 1.1 1.5 1.8c.5 .7 .8 1.4 1.1 2.1c.3 .7 .6 1.5 .7 2.2c.2 .8 .2 1.6 .2 2.4v56.1c0 .8 0 1.6 -.2 2.4c-.1 .8 -.4 1.5 -.7 2.2c-.3 .8 -.6 1.5 -1.1 2.1c-.4 .7 -.9 1.3 -1.5 1.8c-.5 .6 -1.1 1.1 -1.8 1.5c-.7 .5 -1.4 .8 -2.1 1.2c-.7 .3 -1.5 .5 -2.2 .6c-.8 .2 -1.6 .3 -2.4 .3H542c-.8 0 -1.6 -.1 -2.3 -.3c-.8 -.1 -1.6 -.3 -2.3 -.6c-.7 -.4 -1.4 -.7 -2.1 -1.2c-.6 -.4 -1.2 -.9 -1.8 -1.5c-.6 -.5 -1.1 -1.1 -1.5 -1.8c-.4 -.6 -.8 -1.3 -1.1 -2.1c-.3 -.7 -.5 -1.4 -.7 -2.2c-.1 -.8 -.2 -1.6 -.2 -2.4V452.8c0 -.8 .1 -1.6 .2 -2.4c.2 -.7 .4 -1.5 .7 -2.2c.3 -.7 .7 -1.4 1.1 -2.1c.4 -.7 .9 -1.3 1.5 -1.8c.6 -.6 1.2 -1.1 1.8 -1.5c.7 -.5 1.4 -.8 2.1 -1.1c.7 -.3 1.5 -.6 2.3 -.7c.7 -.2 1.5 -.2 2.3 -.2Z" class="g0_33"/>
<path clip-path="url(#c0_33)" d="M542 440.8h67.6c.8 0 1.6 0 2.4 .2c.7 .1 1.5 .4 2.2 .7c.7 .3 1.4 .6 2.1 1.1c.7 .4 1.3 .9 1.8 1.5c.6 .5 1.1 1.1 1.5 1.8c.5 .7 .8 1.4 1.1 2.1c.3 .7 .6 1.5 .7 2.2c.2 .8 .2 1.6 .2 2.4v56.1c0 .8 0 1.6 -.2 2.4c-.1 .8 -.4 1.5 -.7 2.2c-.3 .8 -.6 1.5 -1.1 2.1c-.4 .7 -.9 1.3 -1.5 1.8c-.5 .6 -1.1 1.1 -1.8 1.5c-.7 .5 -1.4 .8 -2.1 1.2c-.7 .3 -1.5 .5 -2.2 .6c-.8 .2 -1.6 .3 -2.4 .3H542c-.8 0 -1.6 -.1 -2.3 -.3c-.8 -.1 -1.6 -.3 -2.3 -.6c-.7 -.4 -1.4 -.7 -2.1 -1.2c-.6 -.4 -1.2 -.9 -1.8 -1.5c-.6 -.5 -1.1 -1.1 -1.5 -1.8c-.4 -.6 -.8 -1.3 -1.1 -2.1c-.3 -.7 -.5 -1.4 -.7 -2.2c-.1 -.8 -.2 -1.6 -.2 -2.4V452.8c0 -.8 .1 -1.6 .2 -2.4c.2 -.7 .4 -1.5 .7 -2.2c.3 -.7 .7 -1.4 1.1 -2.1c.4 -.7 .9 -1.3 1.5 -1.8c.6 -.6 1.2 -1.1 1.8 -1.5c.7 -.5 1.4 -.8 2.1 -1.1c.7 -.3 1.5 -.6 2.3 -.7c.7 -.2 1.5 -.2 2.3 -.2Z" class="g1_33"/>
<path d="M530 452.2h91.6v11.5H530V452.2Z" class="g4_33"/>
<path d="M530 452.2h91.6v11.5H530V452.2Z" class="g1_33"/>
<path d="M70.6 440.8h91.6V521H70.6V440.8Z" class="g0_33"/>
<path clip-path="url(#c0_33)" d="M70.6 440.8h91.6V521H70.6V440.8Z" class="g1_33"/>
<path d="M209.2 440.8h91.7V521H209.2V440.8Z" class="g0_33"/>
<path clip-path="url(#c0_33)" d="M209.2 440.8h91.7V521H209.2V440.8Zm-47 40.1h47m0 -6.9l-13.7 6.9l13.7 6.8" class="g1_33"/>
<path d="M392.5 440.8h91.6V521H392.5V440.8Z" class="g0_33"/>
<path clip-path="url(#c0_33)" d="M392.5 440.8h91.6V521H392.5V440.8Zm91.6 40.1H530m-13.8 6.8V474m13.8 0l-13.8 6.9l13.8 6.8" class="g1_33"/>
<path d="M393.6 440.8h90.5v22.9H393.6V440.8Z" class="g4_33"/>
<path d="M393.6 440.8h90.5v22.9H393.6V440.8Z" class="g1_33"/>
<path d="M210.4 440.8h90.5v22.9H210.4V440.8Z" class="g4_33"/>
<path d="M210.4 440.8h90.5v22.9H210.4V440.8Z" class="g1_33"/>
<path d="M70.6 440.8h90.5v22.9H70.6V440.8Z" class="g4_33"/>
<path d="M70.6 440.8h90.5v22.9H70.6V440.8Z" class="g1_33"/>
<path d="M538.1 440.8h75.5c.5 0 1 0 1.6 .1c.5 .1 1 .3 1.5 .5c.5 .2 .9 .4 1.4 .7c.4 .3 .8 .6 1.2 1c.3 .4 .7 .8 1 1.2c.3 .5 .5 .9 .7 1.4c.2 .5 .4 1 .5 1.5c.1 .5 .1 1.1 .1 1.6v6.9c0 .5 0 1 -.1 1.5c-.1 .5 -.3 1 -.5 1.5c-.2 .5 -.4 1 -.7 1.4c-.3 .4 -.7 .9 -1 1.2c-.4 .4 -.8 .7 -1.2 1c-.5 .3 -.9 .6 -1.4 .8c-.5 .2 -1 .3 -1.5 .4c-.6 .1 -1.1 .2 -1.6 .2H538.1c-.6 0 -1.1 -.1 -1.6 -.2c-.5 -.1 -1 -.2 -1.5 -.4c-.5 -.2 -1 -.5 -1.4 -.8c-.4 -.3 -.8 -.6 -1.2 -1c-.4 -.3 -.7 -.8 -1 -1.2c-.3 -.4 -.5 -.9 -.7 -1.4c-.2 -.5 -.4 -1 -.5 -1.5c-.1 -.5 -.2 -1 -.2 -1.5v-6.9c0 -.5 .1 -1.1 .2 -1.6c.1 -.5 .3 -1 .5 -1.5c.2 -.5 .4 -.9 .7 -1.4c.3 -.4 .6 -.8 1 -1.2c.4 -.4 .8 -.7 1.2 -1c.4 -.3 .9 -.5 1.4 -.7c.5 -.2 1 -.4 1.5 -.5c.5 -.1 1 -.1 1.6 -.1Z" class="g4_33"/>
<path d="M538.1 440.8h75.5c.5 0 1 0 1.6 .1c.5 .1 1 .3 1.5 .5c.5 .2 .9 .4 1.4 .7c.4 .3 .8 .6 1.2 1c.3 .4 .7 .8 1 1.2c.3 .5 .5 .9 .7 1.4c.2 .5 .4 1 .5 1.5c.1 .5 .1 1.1 .1 1.6v6.9c0 .5 0 1 -.1 1.5c-.1 .5 -.3 1 -.5 1.5c-.2 .5 -.4 1 -.7 1.4c-.3 .4 -.7 .9 -1 1.2c-.4 .4 -.8 .7 -1.2 1c-.5 .3 -.9 .6 -1.4 .8c-.5 .2 -1 .3 -1.5 .4c-.6 .1 -1.1 .2 -1.6 .2H538.1c-.6 0 -1.1 -.1 -1.6 -.2c-.5 -.1 -1 -.2 -1.5 -.4c-.5 -.2 -1 -.5 -1.4 -.8c-.4 -.3 -.8 -.6 -1.2 -1c-.4 -.3 -.7 -.8 -1 -1.2c-.3 -.4 -.5 -.9 -.7 -1.4c-.2 -.5 -.4 -1 -.5 -1.5c-.1 -.5 -.2 -1 -.2 -1.5v-6.9c0 -.5 .1 -1.1 .2 -1.6c.1 -.5 .3 -1 .5 -1.5c.2 -.5 .4 -.9 .7 -1.4c.3 -.4 .6 -.8 1 -1.2c.4 -.4 .8 -.7 1.2 -1c.4 -.3 .9 -.5 1.4 -.7c.5 -.2 1 -.4 1.5 -.5c.5 -.1 1 -.1 1.6 -.1ZM70.6 463.7h91.6v22.9H70.6V463.7Zm138.6 0h91.7v22.9H209.2V463.7Zm183.3 0h91.6v22.9H392.5V463.7Zm137.5 0h91.7v34.4H530V463.7Z" class="g1_33"/>
</g>
<path d="M65 867.2H174.6" class="g6_33"/>
</svg>