<?xml version="1.0" encoding="UTF-8" standalone="no"?>
<!DOCTYPE svg PUBLIC "-//W3C//DTD SVG 1.1//EN"
"http://www.w3.org/Graphics/SVG/1.1/DTD/svg11.dtd">
<svg viewBox="0 0 714 1017" version="1.1" xmlns="http://www.w3.org/2000/svg" xmlns:xlink="http://www.w3.org/1999/xlink">
<defs>
<clipPath id="c0_246"><path d="M86.6 221.5V113.7H650.4V221.5Z"/></clipPath>
<clipPath id="c1_246"><path d="M86.6 222.3v-110H651.9v110Z"/></clipPath>
<style type="text/css"><![CDATA[
.g0_246{
fill: #FFF;
}
.g1_246{
fill: none;
stroke: #000;
stroke-width: 1.145;
stroke-miterlimit: 10;
}
.g2_246{
fill: #000;
}
]]></style>
</defs>
<path d="M0 1017.7H717.2V-3.7H0V1017.7Z" class="g0_246"/>
<g clip-path="url(#c1_246)">
<path clip-path="url(#c0_246)" d="M86.6 113.7H650.4V221.5H86.6V113.7Z" class="g0_246"/>
<path d="M224.7 120h126v34.4h-126V120Zm0 55h126v34.4h-126V175ZM465.3 120H649.8v34.4H465.3V120ZM87.2 182.3c0 -4 7.7 -7.3 17.2 -7.3c4.5 0 8.9 .8 12.1 2.2c3.3 1.3 5.1 3.2 5.1 5.1v19.9c0 4 -7.7 7.2 -17.2 7.2c-9.5 0 -17.2 -3.2 -17.2 -7.2V182.3Zm34.4 0c0 4 -7.7 7.3 -17.2 7.3c-9.5 0 -17.2 -3.3 -17.2 -7.3" class="g1_246"/>
<path d="M87.2 165.3h3.4v1.2H87.2m6.9 -1.2h3.4v1.2H94.1m6.8 -1.2h3.5v1.2h-3.5m6.9 -1.2h3.4v1.2h-3.4m6.9 -1.2h3.4v1.2h-3.4m6.9 -1.2H125v1.2h-3.4m6.8 -1.2h3.5v1.2h-3.5m6.9 -1.2h3.4v1.2h-3.4m6.9 -1.2h3.4v1.2h-3.4m6.9 -1.2h3.4v1.2h-3.4m6.8 -1.2h3.5v1.2h-3.5m6.9 -1.2h3.4v1.2h-3.4m6.9 -1.2h3.4v1.2h-3.4m6.9 -1.2H180v1.2h-3.4m6.8 -1.2h3.5v1.2h-3.5m6.9 -1.2h3.4v1.2h-3.4m6.9 -1.2h3.4v1.2h-3.4m6.9 -1.2h3.4v1.2h-3.4m6.8 -1.2h3.5v1.2h-3.5m6.9 -1.2h3.4v1.2h-3.4m6.9 -1.2h3.4v1.2h-3.4m6.9 -1.2H235v1.2h-3.4m6.8 -1.2h3.5v1.2h-3.5m6.9 -1.2h3.4v1.2h-3.4m6.9 -1.2h3.4v1.2h-3.4m6.9 -1.2h3.4v1.2h-3.4m6.8 -1.2h3.5v1.2h-3.5m6.9 -1.2h3.4v1.2h-3.4m6.9 -1.2h3.4v1.2h-3.4m6.9 -1.2H290v1.2h-3.4m6.8 -1.2h3.5v1.2h-3.5m6.9 -1.2h3.4v1.2h-3.4m6.9 -1.2h3.4v1.2h-3.4m6.9 -1.2h3.4v1.2h-3.4m6.8 -1.2h3.5v1.2h-3.5m6.9 -1.2h3.4v1.2h-3.4m6.9 -1.2h3.4v1.2h-3.4m6.9 -1.2H345v1.2h-3.4m6.8 -1.2h3.5v1.2h-3.5m6.9 -1.2h3.4v1.2h-3.4m6.9 -1.2h3.4v1.2h-3.4m6.9 -1.2h3.4v1.2h-3.4m6.8 -1.2h3.5v1.2h-3.5m6.9 -1.2h3.4v1.2h-3.4m6.9 -1.2h3.4v1.2h-3.4m6.9 -1.2H400v1.2h-3.4m6.8 -1.2h3.5v1.2h-3.5m6.9 -1.2h3.4v1.2h-3.4m6.9 -1.2h3.4v1.2h-3.4m6.9 -1.2h3.4v1.2h-3.4m6.8 -1.2h3.5v1.2h-3.5m6.9 -1.2h3.4v1.2h-3.4m6.9 -1.2h3.4v1.2h-3.4m6.9 -1.2H455v1.2h-3.4m6.8 -1.2h3.5v1.2h-3.5m6.9 -1.2h3.4v1.2h-3.4m6.9 -1.2h3.4v1.2h-3.4m6.9 -1.2h3.4v1.2h-3.4m6.8 -1.2h3.5v1.2h-3.5m6.9 -1.2h3.4v1.2h-3.4m6.9 -1.2h3.4v1.2h-3.4m6.9 -1.2H510v1.2h-3.4m6.8 -1.2h3.5v1.2h-3.5m6.9 -1.2h3.4v1.2h-3.4m6.9 -1.2h3.4v1.2h-3.4m6.9 -1.2h3.4v1.2h-3.4m6.8 -1.2h3.5v1.2h-3.5m6.9 -1.2h3.4v1.2h-3.4m6.9 -1.2h3.4v1.2h-3.4m6.9 -1.2H565v1.2h-3.4m6.8 -1.2h3.5v1.2h-3.5m6.9 -1.2h3.4v1.2h-3.4m6.9 -1.2h3.4v1.2h-3.4m6.9 -1.2h3.4v1.2h-3.4m6.8 -1.2h3.5v1.2h-3.5m6.9 -1.2h3.4v1.2h-3.4m6.9 -1.2h3.4v1.2h-3.4m6.9 -1.2H620v1.2h-3.4m6.8 -1.2h3.5v1.2h-3.5m6.9 -1.2h3.4v1.2h-3.4m6.9 -1.2h3.4v1.2h-3.4m6.9 -1.2h3.4v1.2h-3.4Z" class="g2_246"/>
<path d="M92.9 125.8h22.9v22.9H92.9V125.8Zm5.7 0V120m5.8 0v5.8m5.7 -5.8v5.8M98.6 154.4v-5.7m5.8 0v5.7m5.7 -5.7v5.7m5.7 -22.9h5.8m0 5.7h-5.8m5.8 5.8h-5.8M87.2 131.5h5.7m0 5.7H87.2m5.7 5.8H87.2" class="g1_246"/>
<path d="M383.4 203.7c0 -.4 0 -.8 -.1 -1.1l1.1 -.2c.1 .4 .1 .9 .1 1.3h-1.1Zm-.7 -3.2c-.1 -.3 -.3 -.6 -.5 -.9l1 -.7c.2 .4 .4 .8 .6 1.1l-1.1 .5ZM381 198c-.3 -.2 -.5 -.5 -.8 -.7l.7 -.9c.3 .3 .6 .5 .9 .8l-.8 .8Zm-2.8 -1.9c-.3 -.2 -.7 -.4 -1.1 -.5l.5 -1.1c.4 .2 .8 .4 1.2 .6l-.6 1Zm-2.9 -1.2c-.4 -.1 -.7 -.2 -1.1 -.3l.4 -1.1c.3 .1 .7 .2 1 .3l-.3 1.1ZM372 194c-.4 -.1 -.8 -.2 -1.2 -.2l.2 -1.2c.4 .1 .8 .2 1.2 .3L372 194Zm-3.5 -.6c-.3 0 -.7 -.1 -1 -.1l.1 -1.2c.4 .1 .7 .1 1 .2l-.1 1.1Zm-3.2 -.3c-.3 -.1 -.7 -.1 -1.1 -.1l.1 -1.1c.4 0 .8 0 1.1 0l-.1 1.2Zm-3.4 -.2c-.4 0 -.8 -.1 -1.2 -.1v-1.1c.4 0 .8 0 1.2 0v1.2Zm-3.7 -.1H358v-1.1h.2v1.1Z" class="g2_246"/>
<path d="M352 192.2l8 -2.6l-2 2.6l2 2.7l-8 -2.7Z" class="g2_246"/>
<path d="M352 192.2l8 -2.6l-2 2.6l2 2.7l-8 -2.7Z" class="g1_246"/>
<path d="M394.8 184.2c0 -.4 0 -.8 0 -1.2H396c0 .4 0 .8 0 1.2h-1.2Zm0 -3.6c0 -.3 0 -.7 -.1 -1.1l1.2 -.1c0 .4 0 .8 0 1.2h-1.1Zm-.2 -3.4c0 -.4 0 -.7 -.1 -1.1l1.2 -.1c0 .4 0 .8 .1 1.1l-1.2 .1Zm-.3 -3.3c0 -.3 0 -.7 -.1 -1.1l1.1 -.1c.1 .4 .1 .7 .2 1.1l-1.2 .1Zm-.4 -3.4c-.1 -.4 -.1 -.8 -.2 -1.2l1.1 -.2c.1 .4 .2 .8 .2 1.2l-1.1 .2Zm-.6 -3.4c-.1 -.4 -.2 -.7 -.2 -1.1l1.1 -.2c.1 .3 .1 .7 .2 1.1l-1.1 .2Zm-.7 -3.2c-.2 -.4 -.3 -.8 -.4 -1.1l1.1 -.4c.1 .4 .3 .8 .4 1.2l-1.1 .3Zm-1.1 -3.4c-.1 -.3 -.2 -.7 -.3 -1l1 -.4c.2 .3 .3 .7 .4 1.1l-1.1 .3Zm-1.2 -3.1c-.1 -.3 -.2 -.7 -.4 -1l1 -.5c.2 .4 .4 .7 .5 1l-1.1 .5Zm-1.4 -3c-.2 -.4 -.4 -.7 -.6 -1.1l1 -.5c.2 .3 .4 .7 .6 1l-1 .6Zm-1.7 -3c-.3 -.3 -.5 -.6 -.7 -.9l1 -.6c.2 .3 .4 .6 .6 .9l-.9 .6Zm-2 -2.6c-.3 -.3 -.5 -.6 -.8 -.9l.9 -.8c.2 .3 .5 .6 .7 .9l-.8 .8Zm-2.4 -2.5c-.2 -.3 -.5 -.5 -.8 -.7l.8 -.9c.3 .2 .5 .5 .8 .8l-.8 .8Zm-2.5 -2.1c-.3 -.3 -.6 -.5 -.9 -.7l.6 -.9c.3 .2 .6 .4 1 .6l-.7 1Zm-2.8 -1.9c-.4 -.2 -.7 -.3 -1 -.5l.5 -1c.4 .1 .7 .3 1 .5l-.5 1Zm-3.1 -1.5c-.3 -.1 -.7 -.3 -1 -.4l.4 -1.1c.4 .2 .7 .3 1.1 .5l-.5 1Zm-3.1 -1.1c-.3 -.2 -.7 -.3 -1.1 -.4l.3 -1.1c.4 .1 .8 .3 1.2 .4l-.4 1.1Zm-3.3 -.9c-.4 -.1 -.8 -.2 -1.1 -.2l.2 -1.2c.4 .1 .8 .2 1.1 .3l-.2 1.1Zm-3.3 -.6c-.4 0 -.7 -.1 -1.1 -.1l.1 -1.1c.4 0 .8 0 1.1 .1l-.1 1.1Zm-3.4 -.3c-.3 0 -.7 0 -1.1 -.1v-1.1c.4 0 .8 0 1.2 .1l-.1 1.1Z" class="g2_246"/>
<path d="M352 137.2l8 -2.6l-2 2.6l2 2.7l-8 -2.7Z" class="g2_246"/>
<path d="M352 137.2l8 -2.6l-2 2.6l2 2.7l-8 -2.7Z" class="g1_246"/>
</g>
</svg>