<?xml version="1.0" encoding="UTF-8" standalone="no"?>
<!DOCTYPE svg PUBLIC "-//W3C//DTD SVG 1.1//EN"
"http://www.w3.org/Graphics/SVG/1.1/DTD/svg11.dtd">
<svg viewBox="0 0 714 1017" version="1.1" xmlns="http://www.w3.org/2000/svg" xmlns:xlink="http://www.w3.org/1999/xlink">
<defs>
<clipPath id="c0_458"><path d="M98.4 665.3V502.6H637V665.3Z"/></clipPath>
<clipPath id="c1_458"><path d="M98.4 666.1v-165H639.3v165Z"/></clipPath>
<style type="text/css"><![CDATA[
.g0_458{
fill: #FFF;
}
.g1_458{
fill: #000;
}
.g2_458{
fill: none;
stroke: #000;
stroke-width: 2.291;
stroke-miterlimit: 10;
}
.g3_458{
fill: none;
stroke: #000;
stroke-width: 1.145;
stroke-miterlimit: 10;
}
.g4_458{
fill: none;
stroke: #000;
stroke-width: 1.217;
stroke-miterlimit: 10;
}
.g5_458{
fill: none;
stroke: #000;
stroke-width: 0.608;
stroke-miterlimit: 10;
}
]]></style>
</defs>
<path d="M0 1017.7H717.2V-3.7H0V1017.7Z" class="g0_458"/>
<g clip-path="url(#c1_458)">
<path clip-path="url(#c0_458)" d="M98.4 502.6H637V665.3H98.4V502.6Z" class="g0_458"/>
<path d="M448.5 537.1h3.4v1.1h-3.4v-1.1Zm6.9 0h3.4v1.1h-3.4v-1.1Zm6.8 0h3.5v1.1h-3.5v-1.1Zm6.9 0h3.4v1.1h-3.4v-1.1Zm6.9 0h3.4v1.1H476v-1.1Zm6.9 0h3.4v1.1h-3.4v-1.1Zm6.8 0h3.5v1.1h-3.5v-1.1Zm6.9 0H500v1.1h-3.4v-1.1Zm6.9 0h3.4v1.1h-3.4v-1.1Zm6.9 0h3.4v1.1h-3.4v-1.1Zm6.8 0h3.5v1.1h-3.5v-1.1Zm6.9 0h3.4v1.1h-3.4v-1.1Zm6.9 0h3.4v1.1H531v-1.1Zm6.9 0h3.4v1.1h-3.4v-1.1Zm6.8 0h3.5v1.1h-3.5v-1.1Zm6.9 0H555v1.1h-3.4v-1.1Zm6.9 0h3.4v1.1h-3.4v-1.1Zm6.9 0h3.4v1.1h-3.4v-1.1Zm6.8 0h3.5v1.1h-3.5v-1.1Zm6.9 0h3.4v1.1h-3.4v-1.1Zm6.9 0h3.4v1.1H586v-1.1Zm6.9 0h3.4v1.1h-3.4v-1.1Zm6.8 0h3.5v1.1h-3.5v-1.1Zm6.9 0H610v1.1h-3.4v-1.1Zm6.9 0h3.4v1.1h-3.4v-1.1Zm6.9 0h3.4v1.1h-3.4v-1.1Zm6.8 0h3.5v1.1h-3.5v-1.1Zm6.9 0H637v1.7h-1.2v-1.2h.6v.6h-2.3v-1.1Zm2.9 5.1v3.5h-1.2v-3.5H637Zm0 6.9v3.4h-1.2v-3.4H637Zm0 6.9v3.4h-1.2V556H637Zm0 6.8v3.5h-1.2v-3.5H637Zm0 6.9v3.5h-1.2v-3.5H637Zm0 6.9V580h-1.2v-3.4H637Zm0 6.9v3.4h-1.2v-3.4H637Zm0 6.8v3.5h-1.2v-3.5H637Zm0 6.9v3.5h-1.2v-3.5H637Zm0 6.9v3.4h-1.2v-3.4H637Zm0 6.9v3.4h-1.2V611H637Zm0 6.8v3.5h-1.2v-3.5H637Zm0 6.9v3.5h-1.2v-3.5H637Zm0 6.9V635h-1.2v-3.4H637Zm0 6.9v3.4h-1.2v-3.4H637Zm0 6.8v3.5h-1.2v-3.5H637Zm0 6.9v3.5h-1.2v-3.5H637Zm0 6.9v3.4h-1.2v-3.4H637Zm-3 5.1h-3.4V663H634v1.2Zm-6.8 0h-3.5V663h3.5v1.2Zm-6.9 0h-3.5V663h3.5v1.2Zm-6.9 0H610V663h3.4v1.2Zm-6.9 0h-3.4V663h3.4v1.2Zm-6.8 0h-3.5V663h3.5v1.2Zm-6.9 0h-3.5V663h3.5v1.2Zm-6.9 0h-3.4V663h3.4v1.2Zm-6.9 0h-3.4V663H579v1.2Zm-6.8 0h-3.5V663h3.5v1.2Zm-6.9 0h-3.5V663h3.5v1.2Zm-6.9 0H555V663h3.4v1.2Zm-6.9 0h-3.4V663h3.4v1.2Zm-6.8 0h-3.5V663h3.5v1.2Zm-6.9 0h-3.5V663h3.5v1.2Zm-6.9 0h-3.4V663h3.4v1.2Zm-6.9 0h-3.4V663H524v1.2Zm-6.8 0h-3.5V663h3.5v1.2Zm-6.9 0h-3.5V663h3.5v1.2Zm-6.9 0H500V663h3.4v1.2Zm-6.9 0h-3.4V663h3.4v1.2Zm-6.8 0h-3.5V663h3.5v1.2Zm-6.9 0h-3.5V663h3.5v1.2Zm-6.9 0h-3.4V663h3.4v1.2Zm-6.9 0h-3.4V663H469v1.2Zm-6.8 0h-3.5V663h3.5v1.2Zm-6.9 0h-3.5V663h3.5v1.2Zm-6.9 0H445V663h3.4v1.2Zm-7.4 -.7v-3.4h1.2v3.4H441Zm0 -6.8v-3.5h1.2v3.5H441Zm0 -6.9v-3.5h1.2v3.5H441Zm0 -6.9v-3.4h1.2v3.4H441Zm0 -6.9v-3.4h1.2V636H441Zm0 -6.8v-3.5h1.2v3.5H441Zm0 -6.9v-3.5h1.2v3.5H441Zm0 -6.9V612h1.2v3.4H441Zm0 -6.9v-3.4h1.2v3.4H441Zm0 -6.8v-3.5h1.2v3.5H441Zm0 -6.9v-3.5h1.2v3.5H441Zm0 -6.9v-3.4h1.2v3.4H441Zm0 -6.9v-3.4h1.2V581H441Zm0 -6.8v-3.5h1.2v3.5H441Zm0 -6.9v-3.5h1.2v3.5H441Zm0 -6.9V557h1.2v3.4H441Zm0 -6.9v-3.4h1.2v3.4H441Zm0 -6.8v-3.5h1.2v3.5H441Zm0 -6.9v-2.7h4v1.1h-3.4v-.6h.6v2.2H441Z" class="g1_458"/>
<path d="M288.1 537h3.4v1.1h-3.4V537Zm6.8 0h3.5v1.1h-3.5V537Zm6.9 0h3.5v1.1h-3.5V537Zm6.9 0h3.4v1.1h-3.4V537Zm6.9 0H319v1.1h-3.4V537Zm6.8 0h3.5v1.1h-3.5V537Zm6.9 0h3.5v1.1h-3.5V537Zm6.9 0h3.4v1.1h-3.4V537Zm6.9 0h3.4v1.1h-3.4V537Zm6.8 0h3.5v1.1h-3.5V537Zm6.9 0h3.5v1.1h-3.5V537Zm6.9 0h3.4v1.1h-3.4V537Zm6.9 0H374v1.1h-3.4V537Zm6.8 0h3.5v1.1h-3.5V537Zm6.9 0h3.5v1.1h-3.5V537Zm6.9 0h3.4v1.1h-3.4V537Zm6.9 0h3.4v1.1h-3.4V537Zm6.8 0h3.5v1.1h-3.5V537Zm6.9 0h3.4v1.1h-3.4V537Zm7.5 .6V541h-1.2v-3.4h1.2Zm0 6.8v3.5h-1.2v-3.5h1.2Zm0 6.9v3.4h-1.2v-3.4h1.2Zm0 6.9v3.4h-1.2v-3.4h1.2Zm0 6.9v3.4h-1.2v-3.4h1.2Zm0 6.8v3.5h-1.2v-3.5h1.2Zm0 6.9v3.4h-1.2v-3.4h1.2Zm0 6.9v3.4h-1.2v-3.4h1.2Zm0 6.9V596h-1.2v-3.4h1.2Zm0 6.8v3.5h-1.2v-3.5h1.2Zm0 6.9v3.4h-1.2v-3.4h1.2Zm0 6.9v3.4h-1.2v-3.4h1.2Zm0 6.9v3.4h-1.2v-3.4h1.2Zm0 6.8v3.5h-1.2v-3.5h1.2Zm0 6.9v3.4h-1.2v-3.4h1.2Zm0 6.9v3.4h-1.2v-3.4h1.2Zm0 6.9V651h-1.2v-3.4h1.2Zm0 6.8v3.5h-1.2v-3.5h1.2Zm0 6.9v2.9h-1.8V663h1.2v.6h-.6v-2.3h1.2Zm-5.2 2.9h-3.4V663h3.4v1.2Zm-6.9 0h-3.4V663h3.4v1.2Zm-6.8 0h-3.5V663h3.5v1.2Zm-6.9 0H390V663h3.5v1.2Zm-6.9 0h-3.4V663h3.4v1.2Zm-6.9 0h-3.4V663h3.4v1.2Zm-6.8 0h-3.5V663h3.5v1.2Zm-6.9 0h-3.5V663H366v1.2Zm-6.9 0h-3.4V663h3.4v1.2Zm-6.9 0h-3.4V663h3.4v1.2Zm-6.8 0h-3.5V663h3.5v1.2Zm-6.9 0H335V663h3.5v1.2Zm-6.9 0h-3.4V663h3.4v1.2Zm-6.9 0h-3.4V663h3.4v1.2Zm-6.8 0h-3.5V663h3.5v1.2Zm-6.9 0h-3.5V663H311v1.2Zm-6.9 0h-3.4V663h3.4v1.2Zm-6.9 0h-3.4V663h3.4v1.2Zm-6.8 0h-3.5V663h3.5v1.2Zm-6.9 0h-2.9v-1.7h1.2v1.1h-.6V663h2.3v1.2ZM280.6 659v-3.4h1.2V659h-1.2Zm0 -6.9v-3.4h1.2v3.4h-1.2Zm0 -6.8v-3.5h1.2v3.5h-1.2Zm0 -6.9V635h1.2v3.4h-1.2Zm0 -6.9v-3.4h1.2v3.4h-1.2Zm0 -6.9v-3.4h1.2v3.4h-1.2Zm0 -6.8v-3.5h1.2v3.5h-1.2Zm0 -6.9v-3.4h1.2v3.4h-1.2Zm0 -6.9v-3.4h1.2V604h-1.2Zm0 -6.9v-3.4h1.2v3.4h-1.2Zm0 -6.8v-3.5h1.2v3.5h-1.2Zm0 -6.9V580h1.2v3.4h-1.2Zm0 -6.9v-3.4h1.2v3.4h-1.2Zm0 -6.9v-3.4h1.2v3.4h-1.2Zm0 -6.8v-3.5h1.2v3.5h-1.2Zm0 -6.9v-3.4h1.2v3.4h-1.2Zm0 -6.9v-3.4h1.2V549h-1.2Zm0 -6.9v-3.4h1.2v3.4h-1.2Zm.6 -5.1h3.4v1.1h-3.4V537Z" class="g1_458"/>
<path d="M106.4 537h3.5v1.1h-3.5V537Zm6.9 0h3.5v1.1h-3.5V537Zm6.9 0h3.4v1.1h-3.4V537Zm6.9 0h3.4v1.1h-3.4V537Zm6.8 0h3.5v1.1h-3.5V537Zm6.9 0h3.5v1.1h-3.5V537Zm6.9 0h3.4v1.1h-3.4V537Zm6.9 0H158v1.1h-3.4V537Zm6.8 0h3.5v1.1h-3.5V537Zm6.9 0h3.5v1.1h-3.5V537Zm6.9 0h3.4v1.1h-3.4V537Zm6.9 0h3.4v1.1h-3.4V537Zm6.8 0h3.5v1.1h-3.5V537Zm6.9 0h3.5v1.1h-3.5V537Zm6.9 0h3.4v1.1h-3.4V537Zm6.9 0H213v1.1h-3.4V537Zm6.8 0h3.5v1.1h-3.5V537Zm6.9 0h3.5v1.1h-3.5V537Zm6.9 0h3.4v1.1h-3.4V537Zm6.9 0h3.4v1.1h-3.4V537Zm6.8 0h3.5v1.1h-3.5V537Zm6.9 0h3.5v1.1h-3.5V537Zm6.9 0h1.1v3.4h-1.1v-2.8h.6v.5h-.6V537Zm1.1 6.9v3.4h-1.1v-3.4h1.1Zm0 6.8v3.5h-1.1v-3.5h1.1Zm0 6.9v3.5h-1.1v-3.5h1.1Zm0 6.9v3.4h-1.1v-3.4h1.1Zm0 6.9v3.4h-1.1v-3.4h1.1Zm0 6.8v3.5h-1.1v-3.5h1.1Zm0 6.9v3.5h-1.1v-3.5h1.1Zm0 6.9v3.4h-1.1V592h1.1Zm0 6.9v3.4h-1.1v-3.4h1.1Zm0 6.8v3.5h-1.1v-3.5h1.1Zm0 6.9v3.5h-1.1v-3.5h1.1Zm0 6.9v3.4h-1.1v-3.4h1.1Zm0 6.9v3.4h-1.1v-3.4h1.1Zm0 6.8v3.5h-1.1v-3.5h1.1Zm0 6.9v3.5h-1.1v-3.5h1.1Zm0 6.9v3.4h-1.1V647h1.1Zm0 6.9v3.4h-1.1v-3.4h1.1Zm0 6.8v3.5h-1.1V663h.6v.6h-.6v-2.9h1.1Zm-4.5 3.5h-3.5V663h3.5v1.2Zm-6.9 0h-3.5V663h3.5v1.2Zm-6.9 0h-3.4V663h3.4v1.2Zm-6.9 0h-3.4V663h3.4v1.2Zm-6.8 0h-3.5V663h3.5v1.2Zm-6.9 0h-3.5V663h3.5v1.2Zm-6.9 0h-3.4V663H213v1.2Zm-6.9 0h-3.4V663h3.4v1.2Zm-6.8 0h-3.5V663h3.5v1.2Zm-6.9 0h-3.5V663h3.5v1.2Zm-6.9 0h-3.4V663h3.4v1.2Zm-6.9 0h-3.4V663h3.4v1.2Zm-6.8 0h-3.5V663h3.5v1.2Zm-6.9 0h-3.5V663h3.5v1.2Zm-6.9 0h-3.4V663H158v1.2Zm-6.9 0h-3.4V663h3.4v1.2Zm-6.8 0h-3.5V663h3.5v1.2Zm-6.9 0h-3.5V663h3.5v1.2Zm-6.9 0h-3.4V663h3.4v1.2Zm-6.9 0h-3.4V663h3.4v1.2Zm-6.8 0h-3.5V663h3.5v1.2Zm-6.9 0h-3.5V663h3.5v1.2Zm-6.9 0H99.6V663H103v1.2Zm-4 -4v-3.5h1.1v3.5H99Zm0 -6.9v-3.4h1.1v3.4H99Zm0 -6.9V643h1.1v3.4H99Zm0 -6.9v-3.4h1.1v3.4H99Zm0 -6.8v-3.5h1.1v3.5H99Zm0 -6.9v-3.4h1.1v3.4H99Zm0 -6.9v-3.4h1.1v3.4H99ZM99 612v-3.4h1.1V612H99Zm0 -6.8v-3.5h1.1v3.5H99Zm0 -6.9v-3.4h1.1v3.4H99Zm0 -6.9V588h1.1v3.4H99Zm0 -6.9v-3.4h1.1v3.4H99Zm0 -6.8v-3.5h1.1v3.5H99Zm0 -6.9v-3.4h1.1v3.4H99Zm0 -6.9v-3.4h1.1v3.4H99ZM99 557v-3.4h1.1V557H99Zm0 -6.8v-3.5h1.1v3.5H99Zm0 -6.9v-3.4h1.1v3.4H99Zm.6 -6.3H103v1.1H99.6V537Z" class="g1_458"/>
<path d="M107.6 657.9V554.5" class="g2_458"/>
<path d="M107.6 549.3l2.3 6.9l-2.3 -1.7l-2.3 1.7l2.3 -6.9Z" class="g1_458"/>
<path d="M107.6 549.3l2.3 6.9l-2.3 -1.7l-2.3 1.7l2.3 -6.9Z" class="g2_458"/>
<path d="M364.8 588.4c0 .5 0 1 -.2 1.4c-.1 .5 -.3 1 -.5 1.4c-.2 .5 -.6 .9 -.9 1.4c-.4 .4 -.8 .8 -1.3 1.3c-.5 .4 -1 .8 -1.6 1.2c-.6 .4 -1.2 .8 -1.9 1.2c-.7 .4 -1.5 .8 -2.3 1.2c-.8 .3 -1.6 .7 -2.5 1c-.9 .3 -1.8 .6 -2.8 .9c-1 .3 -2 .6 -3 .9c-1.1 .2 -2.1 .5 -3.3 .7c-1.1 .2 -2.2 .4 -3.4 .6c-1.1 .1 -2.3 .3 -3.5 .4c-1.2 .2 -2.4 .3 -3.7 .4c-1.2 .1 -2.4 .1 -3.7 .2c-1.2 0 -2.5 0 -3.8 0c-1.2 0 -2.5 0 -3.7 0c-1.3 -.1 -2.5 -.1 -3.7 -.2c-1.3 -.1 -2.5 -.2 -3.7 -.4c-1.2 -.1 -2.4 -.3 -3.5 -.4c-1.2 -.2 -2.3 -.4 -3.4 -.6c-1.2 -.2 -2.2 -.5 -3.3 -.7c-1 -.3 -2 -.6 -3 -.9c-1 -.3 -1.9 -.6 -2.8 -.9c-.9 -.3 -1.7 -.7 -2.5 -1c-.8 -.4 -1.6 -.8 -2.3 -1.2c-.7 -.4 -1.3 -.8 -1.9 -1.2c-.6 -.4 -1.1 -.8 -1.6 -1.2c-.5 -.5 -.9 -.9 -1.3 -1.3c-.3 -.5 -.7 -.9 -.9 -1.4c-.2 -.4 -.4 -.9 -.6 -1.4c-.1 -.4 -.1 -.9 -.1 -1.4c0 -.4 0 -.9 .1 -1.4c.2 -.4 .4 -.9 .6 -1.3c.2 -.5 .6 -.9 .9 -1.4c.4 -.4 .8 -.9 1.3 -1.3c.5 -.4 1 -.9 1.6 -1.3c.6 -.4 1.2 -.8 1.9 -1.2c.7 -.3 1.5 -.7 2.3 -1.1c.8 -.3 1.6 -.7 2.5 -1c.9 -.3 1.8 -.7 2.8 -.9c1 -.3 2 -.6 3 -.9c1.1 -.2 2.1 -.5 3.3 -.7c1.1 -.2 2.2 -.4 3.4 -.6c1.1 -.2 2.3 -.3 3.5 -.5c1.2 -.1 2.4 -.2 3.7 -.3c1.2 -.1 2.4 -.2 3.7 -.2c1.2 0 2.5 -.1 3.7 -.1c1.3 0 2.6 .1 3.8 .1c1.3 0 2.5 .1 3.7 .2c1.3 .1 2.5 .2 3.7 .3c1.2 .2 2.4 .3 3.5 .5c1.2 .2 2.3 .4 3.4 .6c1.2 .2 2.2 .5 3.3 .7c1 .3 2 .6 3 .9c1 .2 1.9 .6 2.8 .9c.9 .3 1.7 .7 2.5 1c.8 .4 1.6 .8 2.3 1.1c.7 .4 1.3 .8 1.9 1.2c.6 .4 1.1 .9 1.6 1.3c.5 .4 .9 .9 1.3 1.3c.3 .5 .7 .9 .9 1.4c.2 .4 .4 .9 .5 1.3c.2 .5 .2 1 .2 1.4Zm41.9 -30.8c0 .5 -.1 1 -.2 1.4c-.2 .5 -.4 1 -.6 1.4c-.3 .5 -.6 .9 -1 1.4c-.4 .4 -.8 .9 -1.3 1.3c-.5 .4 -1.1 .9 -1.7 1.3c-.6 .4 -1.3 .8 -2 1.2c-.7 .4 -1.5 .8 -2.3 1.1c-.9 .4 -1.8 .7 -2.7 1.1c-.9 .3 -1.9 .6 -2.9 .9c-1 .3 -2.1 .6 -3.2 .8c-1.1 .3 -2.2 .5 -3.3 .8c-1.2 .2 -2.4 .4 -3.6 .5c-1.2 .2 -2.4 .4 -3.7 .5c-1.3 .2 -2.5 .3 -3.8 .4c-1.3 .1 -2.6 .1 -3.9 .2c-1.3 0 -2.6 0 -3.9 0c-1.4 0 -2.7 0 -4 0c-1.3 -.1 -2.6 -.1 -3.9 -.2c-1.3 -.1 -2.5 -.2 -3.8 -.4c-1.2 -.1 -2.5 -.3 -3.7 -.5c-1.2 -.1 -2.4 -.3 -3.6 -.5c-1.1 -.3 -2.2 -.5 -3.3 -.8c-1.1 -.2 -2.2 -.5 -3.2 -.8c-1 -.3 -2 -.6 -2.9 -.9c-.9 -.4 -1.8 -.7 -2.6 -1.1c-.9 -.3 -1.7 -.7 -2.4 -1.1c-.7 -.4 -1.4 -.8 -2 -1.2c-.6 -.4 -1.2 -.9 -1.7 -1.3c-.5 -.4 -.9 -.9 -1.3 -1.3c-.4 -.5 -.7 -.9 -1 -1.4c-.2 -.4 -.4 -.9 -.6 -1.4c-.1 -.4 -.2 -.9 -.2 -1.4c0 -.4 .1 -.9 .2 -1.4c.2 -.4 .4 -.9 .6 -1.3c.3 -.5 .6 -1 1 -1.4c.4 -.4 .8 -.9 1.3 -1.3c.5 -.5 1.1 -.9 1.7 -1.3c.6 -.4 1.3 -.8 2 -1.2c.7 -.4 1.5 -.8 2.4 -1.1c.8 -.4 1.7 -.7 2.6 -1.1c.9 -.3 1.9 -.6 2.9 -.9c1 -.3 2.1 -.6 3.2 -.8c1.1 -.3 2.2 -.5 3.3 -.8c1.2 -.2 2.4 -.4 3.6 -.6c1.2 -.1 2.5 -.3 3.7 -.4c1.3 -.2 2.5 -.3 3.8 -.4c1.3 -.1 2.6 -.1 3.9 -.2c1.3 0 2.6 0 4 0c1.3 0 2.6 0 3.9 0c1.3 .1 2.6 .1 3.9 .2c1.3 .1 2.5 .2 3.8 .4c1.3 .1 2.5 .3 3.7 .4c1.2 .2 2.4 .4 3.6 .6c1.1 .3 2.2 .5 3.3 .8c1.1 .2 2.2 .5 3.2 .8c1 .3 2 .6 2.9 .9c.9 .4 1.8 .7 2.7 1.1c.8 .3 1.6 .7 2.3 1.1c.7 .4 1.4 .8 2 1.2c.6 .4 1.2 .8 1.7 1.3c.5 .4 .9 .9 1.3 1.3c.4 .4 .7 .9 1 1.4c.2 .4 .4 .9 .6 1.3c.1 .5 .2 1 .2 1.4Zm-41.9 86.1c0 .4 0 .9 -.2 1.4c-.1 .4 -.3 .9 -.5 1.3c-.2 .5 -.6 .9 -.9 1.4c-.4 .4 -.8 .9 -1.3 1.3c-.5 .4 -1 .9 -1.6 1.3c-.6 .4 -1.2 .8 -1.9 1.2c-.7 .3 -1.5 .7 -2.3 1.1c-.8 .3 -1.6 .7 -2.5 1c-.9 .3 -1.8 .7 -2.8 1c-1 .2 -2 .5 -3 .8c-1.1 .2 -2.1 .5 -3.3 .7c-1.1 .2 -2.2 .4 -3.4 .6c-1.1 .2 -2.3 .3 -3.5 .5c-1.2 .1 -2.4 .2 -3.7 .3c-1.2 .1 -2.4 .2 -3.7 .2c-1.2 .1 -2.5 .1 -3.8 .1c-1.2 0 -2.5 0 -3.7 -.1c-1.3 0 -2.5 -.1 -3.7 -.2c-1.3 -.1 -2.5 -.2 -3.7 -.3c-1.2 -.2 -2.4 -.3 -3.5 -.5c-1.2 -.2 -2.3 -.4 -3.4 -.6c-1.2 -.2 -2.2 -.5 -3.3 -.7c-1 -.3 -2 -.6 -3 -.8c-1 -.3 -1.9 -.7 -2.8 -1c-.9 -.3 -1.7 -.7 -2.5 -1c-.8 -.4 -1.6 -.8 -2.3 -1.1c-.7 -.4 -1.3 -.8 -1.9 -1.2c-.6 -.4 -1.1 -.9 -1.6 -1.3c-.5 -.4 -.9 -.9 -1.3 -1.3c-.3 -.5 -.7 -.9 -.9 -1.4c-.2 -.4 -.4 -.9 -.6 -1.3c-.1 -.5 -.1 -1 -.1 -1.4c0 -.5 0 -1 .1 -1.4c.2 -.5 .4 -.9 .6 -1.4c.2 -.5 .6 -.9 .9 -1.4c.4 -.4 .8 -.8 1.3 -1.3c.5 -.4 1 -.8 1.6 -1.2c.6 -.4 1.2 -.8 1.9 -1.2c.7 -.4 1.5 -.8 2.3 -1.1c.8 -.4 1.6 -.8 2.5 -1.1c.9 -.3 1.8 -.6 2.8 -.9c1 -.3 2 -.6 3 -.8c1.1 -.3 2.1 -.5 3.3 -.8c1.1 -.2 2.2 -.4 3.4 -.6c1.1 -.1 2.3 -.3 3.5 -.4c1.2 -.2 2.4 -.3 3.7 -.4c1.2 -.1 2.4 -.1 3.7 -.2c1.2 0 2.5 0 3.7 0c1.3 0 2.6 0 3.8 0c1.3 .1 2.5 .1 3.7 .2c1.3 .1 2.5 .2 3.7 .4c1.2 .1 2.4 .3 3.5 .4c1.2 .2 2.3 .4 3.4 .6c1.2 .3 2.2 .5 3.3 .8c1 .2 2 .5 3 .8c1 .3 1.9 .6 2.8 .9c.9 .3 1.7 .7 2.5 1.1c.8 .3 1.6 .7 2.3 1.1c.7 .4 1.3 .8 1.9 1.2c.6 .4 1.1 .8 1.6 1.2c.5 .5 .9 .9 1.3 1.3c.3 .5 .7 .9 .9 1.4c.2 .5 .4 .9 .5 1.4c.2 .4 .2 .9 .2 1.4Zm41.9 -26.6c0 .4 -.1 .9 -.2 1.4c-.1 .4 -.3 .9 -.5 1.4c-.2 .4 -.5 .9 -.8 1.3c-.3 .5 -.7 .9 -1.1 1.3c-.4 .5 -.9 .9 -1.4 1.3c-.6 .4 -1.1 .8 -1.7 1.2c-.7 .4 -1.3 .7 -2 1.1c-.7 .4 -1.5 .7 -2.2 1c-.8 .4 -1.6 .7 -2.5 1c-.9 .3 -1.7 .5 -2.7 .8c-.9 .3 -1.8 .5 -2.8 .7c-1 .2 -2 .4 -3 .6c-1 .2 -2.1 .3 -3.1 .5c-1.1 .1 -2.2 .2 -3.3 .3c-1 .1 -2.1 .2 -3.2 .2c-1.1 .1 -2.2 .1 -3.3 .1c-1.2 0 -2.3 0 -3.4 -.1c-1.1 0 -2.2 -.1 -3.2 -.2c-1.1 -.1 -2.2 -.2 -3.3 -.3c-1 -.2 -2.1 -.3 -3.1 -.5c-1 -.2 -2 -.4 -3 -.6c-1 -.2 -1.9 -.4 -2.8 -.7c-.9 -.3 -1.8 -.5 -2.7 -.8c-.8 -.3 -1.7 -.6 -2.4 -1c-.8 -.3 -1.6 -.6 -2.3 -1c-.7 -.4 -1.3 -.7 -2 -1.1c-.6 -.4 -1.1 -.8 -1.7 -1.2c-.5 -.4 -1 -.8 -1.4 -1.3c-.4 -.4 -.8 -.8 -1.1 -1.3c-.3 -.4 -.6 -.9 -.8 -1.3c-.2 -.5 -.4 -1 -.5 -1.4c-.1 -.5 -.1 -1 -.1 -1.4c0 -.5 0 -.9 .1 -1.4c.1 -.5 .3 -.9 .5 -1.4c.2 -.4 .5 -.9 .8 -1.3c.3 -.5 .7 -.9 1.1 -1.4c.4 -.4 .9 -.8 1.4 -1.2c.6 -.4 1.1 -.8 1.7 -1.2c.7 -.4 1.3 -.8 2 -1.1c.7 -.4 1.5 -.7 2.3 -1.1c.7 -.3 1.6 -.6 2.4 -.9c.9 -.3 1.8 -.6 2.7 -.8c.9 -.3 1.8 -.5 2.8 -.7c1 -.3 2 -.5 3 -.6c1 -.2 2.1 -.4 3.1 -.5c1.1 -.2 2.2 -.3 3.3 -.4c1 0 2.1 -.1 3.2 -.2c1.1 0 2.2 0 3.4 0c1.1 0 2.2 0 3.3 0c1.1 .1 2.2 .2 3.2 .2c1.1 .1 2.2 .2 3.3 .4c1 .1 2.1 .3 3.1 .5c1 .1 2 .3 3 .6c1 .2 1.9 .4 2.8 .7c1 .2 1.8 .5 2.7 .8c.9 .3 1.7 .6 2.5 .9c.7 .4 1.5 .7 2.2 1.1c.7 .3 1.3 .7 2 1.1c.6 .4 1.1 .8 1.7 1.2c.5 .4 1 .8 1.4 1.2c.4 .5 .8 .9 1.1 1.4c.3 .4 .6 .9 .8 1.3c.2 .5 .4 .9 .5 1.4c.1 .5 .2 .9 .2 1.4ZM527.5 543.4h39c.5 0 .9 0 1.3 .2c.4 .2 .8 .4 1.1 .8c.4 .3 .6 .7 .8 1.1c.2 .4 .2 .8 .2 1.3v16c0 .5 0 .9 -.2 1.4c-.2 .4 -.4 .7 -.8 1.1c-.3 .3 -.7 .5 -1.1 .7c-.4 .2 -.8 .3 -1.3 .3h-39c-.4 0 -.9 -.1 -1.3 -.3c-.4 -.2 -.8 -.4 -1.1 -.7c-.3 -.4 -.6 -.7 -.7 -1.1c-.2 -.5 -.3 -.9 -.3 -1.4v-16c0 -.5 .1 -.9 .3 -1.3c.1 -.4 .4 -.8 .7 -1.1c.3 -.4 .7 -.6 1.1 -.8c.4 -.2 .9 -.2 1.3 -.2Zm-51 45.7h44.6c.5 0 .9 .1 1.4 .3c.4 .2 .8 .4 1.1 .7c.3 .4 .5 .7 .7 1.1c.2 .5 .3 .9 .3 1.4v16c0 .5 -.1 .9 -.3 1.3c-.2 .4 -.4 .8 -.7 1.1c-.3 .4 -.7 .6 -1.1 .8c-.5 .2 -.9 .2 -1.4 .2H476.5c-.5 0 -.9 0 -1.4 -.2c-.4 -.2 -.7 -.4 -1.1 -.8c-.3 -.3 -.5 -.7 -.7 -1.1c-.2 -.4 -.3 -.8 -.3 -1.3v-16c0 -.5 .1 -.9 .3 -1.4c.2 -.4 .4 -.7 .7 -1.1c.4 -.3 .7 -.5 1.1 -.7c.5 -.2 .9 -.3 1.4 -.3Zm102.7 0h33.2c.4 0 .9 .1 1.3 .3c.4 .2 .8 .4 1.1 .7c.3 .4 .6 .7 .8 1.1c.1 .5 .2 .9 .2 1.4v16c0 .5 -.1 .9 -.2 1.3c-.2 .4 -.5 .8 -.8 1.1c-.3 .4 -.7 .6 -1.1 .8c-.4 .2 -.9 .2 -1.3 .2H579.2c-.5 0 -.9 0 -1.4 -.2c-.4 -.2 -.8 -.4 -1.1 -.8c-.3 -.3 -.6 -.7 -.7 -1.1c-.2 -.4 -.3 -.8 -.3 -1.3v-16c0 -.5 .1 -.9 .3 -1.4c.1 -.4 .4 -.7 .7 -1.1c.3 -.3 .7 -.5 1.1 -.7c.5 -.2 .9 -.3 1.4 -.3ZM456.5 635h16.1c.4 0 .9 0 1.3 .2c.4 .2 .8 .4 1.1 .8c.3 .3 .6 .7 .8 1.1c.1 .4 .2 .8 .2 1.3v16c0 .5 -.1 .9 -.2 1.4c-.2 .4 -.5 .7 -.8 1.1c-.3 .3 -.7 .5 -1.1 .7c-.4 .2 -.9 .3 -1.3 .3H456.5c-.5 0 -.9 -.1 -1.4 -.3c-.4 -.2 -.8 -.4 -1.1 -.7c-.3 -.4 -.5 -.7 -.7 -1.1c-.2 -.5 -.3 -.9 -.3 -1.4v-16c0 -.5 .1 -.9 .3 -1.3c.2 -.4 .4 -.8 .7 -1.1c.3 -.4 .7 -.6 1.1 -.8c.5 -.2 .9 -.2 1.4 -.2Zm34.2 0h16.2c.4 0 .9 0 1.3 .2c.4 .2 .8 .4 1.1 .8c.3 .3 .6 .7 .7 1.1c.2 .4 .3 .8 .3 1.3v16c0 .5 -.1 .9 -.3 1.4c-.1 .4 -.4 .7 -.7 1.1c-.3 .3 -.7 .5 -1.1 .7c-.4 .2 -.9 .3 -1.3 .3H490.7c-.4 0 -.9 -.1 -1.3 -.3c-.4 -.2 -.8 -.4 -1.1 -.7c-.3 -.4 -.6 -.7 -.7 -1.1c-.2 -.5 -.3 -.9 -.3 -1.4v-16c0 -.5 .1 -.9 .3 -1.3c.1 -.4 .4 -.8 .7 -1.1c.3 -.4 .7 -.6 1.1 -.8c.4 -.2 .9 -.2 1.3 -.2Zm34.5 0h16.1c.4 0 .9 0 1.3 .2c.4 .2 .8 .4 1.1 .8c.3 .3 .6 .7 .8 1.1c.1 .4 .2 .8 .2 1.3v16c0 .5 -.1 .9 -.2 1.4c-.2 .4 -.5 .7 -.8 1.1c-.3 .3 -.7 .5 -1.1 .7c-.4 .2 -.9 .3 -1.3 .3H525.2c-.5 0 -.9 -.1 -1.4 -.3c-.4 -.2 -.8 -.4 -1.1 -.7c-.3 -.4 -.5 -.7 -.7 -1.1c-.2 -.5 -.3 -.9 -.3 -1.4v-16c0 -.5 .1 -.9 .3 -1.3c.2 -.4 .4 -.8 .7 -1.1c.3 -.4 .7 -.6 1.1 -.8c.5 -.2 .9 -.2 1.4 -.2Zm45.3 0h16.1c.5 0 .9 0 1.3 .2c.4 .2 .8 .4 1.1 .8c.4 .3 .6 .7 .8 1.1c.1 .4 .2 .8 .2 1.3v16c0 .5 -.1 .9 -.2 1.4c-.2 .4 -.4 .7 -.8 1.1c-.3 .3 -.7 .5 -1.1 .7c-.4 .2 -.8 .3 -1.3 .3H570.5c-.5 0 -.9 -.1 -1.4 -.3c-.4 -.2 -.7 -.4 -1.1 -.7c-.3 -.4 -.5 -.7 -.7 -1.1c-.2 -.5 -.3 -.9 -.3 -1.4v-16c0 -.5 .1 -.9 .3 -1.3c.2 -.4 .4 -.8 .7 -1.1c.4 -.4 .7 -.6 1.1 -.8c.5 -.2 .9 -.2 1.4 -.2Zm34.9 0h16.1c.5 0 .9 0 1.4 .2c.4 .2 .8 .4 1.1 .8c.3 .3 .5 .7 .7 1.1c.2 .4 .3 .8 .3 1.3v16c0 .5 -.1 .9 -.3 1.4c-.2 .4 -.4 .7 -.7 1.1c-.3 .3 -.7 .5 -1.1 .7c-.5 .2 -.9 .3 -1.4 .3H605.4c-.4 0 -.9 -.1 -1.3 -.3c-.4 -.2 -.8 -.4 -1.1 -.7c-.3 -.4 -.6 -.7 -.8 -1.1c-.1 -.5 -.2 -.9 -.2 -1.4v-16c0 -.5 .1 -.9 .2 -1.3c.2 -.4 .5 -.8 .8 -1.1c.3 -.4 .7 -.6 1.1 -.8c.4 -.2 .9 -.2 1.3 -.2Zm-9.6 -45.9l-.1 -5.7c0 -3.8 -3.8 -5.7 -11.4 -5.7H569.9c-7.6 0 -11.4 -1.9 -11.4 -5.7v-5.7m-94 68.7v-5.8c0 -3.8 3.6 -5.7 10.7 -5.7h5.4c3.6 0 5.3 -1.9 5.3 -5.7V612m12.9 23V612m34.4 23v-5.8c.1 -3.8 -3.5 -5.7 -10.7 -5.7h-5.4c-3.6 0 -5.4 -1.9 -5.4 -5.7V612m66.8 23v-5.8c0 -3.8 1.2 -5.7 3.6 -5.7H584c1.2 0 1.7 -1.9 1.7 -5.7V612m27.8 23v-5.8c0 -3.8 -1.3 -5.7 -3.9 -5.7h-1.9c-1.3 0 -1.9 -1.9 -1.9 -5.7V612m-107 -22.9v-5.7c0 -3.8 3.8 -5.7 11.4 -5.7h13.9c7.6 0 11.5 -1.9 11.5 -5.7v-5.7" class="g3_458"/>
</g>
<path d="M88.8 823.2V721.9c0 -2.4 1.9 -4.4 4.3 -4.4h550c2.4 0 4.3 2 4.3 4.4V823.2c0 2.4 -1.9 4.4 -4.3 4.4H93.1c-2.4 0 -4.3 -2 -4.3 -4.4Z" class="g0_458"/>
<path d="M86.6 715.4V829.7" class="g4_458"/>
<path d="M86.6 849.8H196.2" class="g5_458"/>
</svg>