<?xml version="1.0" encoding="UTF-8" standalone="no"?>
<!DOCTYPE svg PUBLIC "-//W3C//DTD SVG 1.1//EN"
"http://www.w3.org/Graphics/SVG/1.1/DTD/svg11.dtd">
<svg viewBox="0 0 714 1017" version="1.1" xmlns="http://www.w3.org/2000/svg" xmlns:xlink="http://www.w3.org/1999/xlink">
<defs>
<clipPath id="c0_161"><path d="M143.3 442.2V207.3H548.9V442.2Z"/></clipPath>
<clipPath id="c1_161"><path d="M143.3 442.7V205.9H549.7V442.7Z"/></clipPath>
<style type="text/css"><![CDATA[
.g0_161{
fill: #FFF;
}
.g1_161{
fill: none;
stroke: #000;
stroke-width: 1.145;
stroke-miterlimit: 10;
}
.g2_161{
fill: #000;
}
.g3_161{
fill: none;
stroke: #000;
stroke-width: 2.291;
stroke-miterlimit: 10;
}
]]></style>
</defs>
<path d="M0 1017.7H717.2V-3.7H0V1017.7Z" class="g0_161"/>
<g clip-path="url(#c1_161)">
<path clip-path="url(#c0_161)" d="M143.3 207.3H548.9V442.2H143.3V207.3Z" class="g0_161"/>
<path d="M342.1 207.9h23v22.9h-23V207.9Z" class="g0_161"/>
<path d="M342.1 207.9h23v22.9h-23V207.9Z" class="g1_161"/>
<path d="M204.5 253.7h23v22.9h-23V253.7Z" class="g0_161"/>
<path d="M204.5 253.7h23v22.9h-23V253.7Z" class="g1_161"/>
<path d="M342.1 253.7h23v22.9h-23V253.7Z" class="g0_161"/>
<path d="M342.1 253.7h23v22.9h-23V253.7Z" class="g1_161"/>
<path d="M479.6 253.7h23v22.9h-23V253.7Z" class="g0_161"/>
<path d="M479.6 253.7h23v22.9h-23V253.7Z" class="g1_161"/>
<path d="M215.5 253.7v-1.1h1.1v1.1h-1.1Zm0 -3.4v-1.2h1.1v1.2h-1.1Zm.1 -3.6c.2 -.5 .3 -.9 .5 -1.2l1 .5c-.1 .3 -.3 .6 -.3 .9l-1.2 -.2Zm2.2 -3c.4 -.3 .7 -.5 1.2 -.7l.4 1.1c-.3 .1 -.6 .3 -.9 .5l-.7 -.9Zm3.4 -1.4c.4 -.1 .8 -.2 1.2 -.3l.2 1.2c-.4 0 -.8 .1 -1.2 .2l-.2 -1.1Zm3.4 -.5c.4 0 .8 -.1 1.2 -.1v1.2c-.4 0 -.7 0 -1.1 0l-.1 -1.1Zm3.7 -.1h1.1v1.1h-1.1v-1.1Zm3.4 0h1.1v1.1h-1.1v-1.1Zm3.4 0h1.2v1.1h-1.2v-1.1Zm3.5 0h1.1v1.1h-1.1v-1.1Zm3.4 0h1.2v1.1H242v-1.1Zm3.4 0h1.2v1.1h-1.2v-1.1Zm3.5 0H250v1.1h-1.1v-1.1Zm3.4 0h1.2v1.1h-1.2v-1.1Zm3.5 0h1.1v1.1h-1.1v-1.1Zm3.4 0h1.1v1.1h-1.1v-1.1Zm3.4 0h1.2v1.1h-1.2v-1.1Zm3.5 0h1.1v1.1h-1.1v-1.1Zm3.4 0h1.2v1.1h-1.2v-1.1Zm3.4 0h1.2v1.1h-1.2v-1.1Zm3.5 0h1.1v1.1h-1.1v-1.1Zm3.4 0H281v1.1h-1.2v-1.1Zm3.5 0h1.1v1.1h-1.1v-1.1Zm3.4 0h1.1v1.1h-1.1v-1.1Zm3.4 0h1.2v1.1h-1.2v-1.1Zm3.5 0h1.1v1.1h-1.1v-1.1Zm3.4 0h1.2v1.1H297v-1.1Zm3.4 0h1.2v1.1h-1.2v-1.1Zm3.5 0H305v1.1h-1.1v-1.1Zm3.4 0h1.2v1.1h-1.2v-1.1Zm3.5 0h1.1v1.1h-1.1v-1.1Zm3.4 0h1.1v1.1h-1.1v-1.1Zm3.4 0h1.2v1.1h-1.2v-1.1Zm3.5 0h1.1v1.1h-1.1v-1.1Zm3.4 0h1.2v1.1h-1.2v-1.1Zm3.4 0h1.2v1.1h-1.2v-1.1Zm3.5 0h1.1v1.1h-1.1v-1.1Zm3.4 0H336v1.1h-1.2v-1.1Zm3.6 -.1c.4 0 .8 0 1.1 0l.1 1.1c-.4 0 -.7 .1 -1.2 .1v-1.2Zm3.2 -.3c.4 -.1 .8 -.2 1.2 -.3l.3 1.1c-.4 .1 -.8 .2 -1.3 .3l-.2 -1.1Zm3.1 -1c.4 -.2 .7 -.4 1 -.6l.7 1c-.4 .2 -.8 .4 -1.2 .6l-.5 -1Zm2.2 -2c.2 -.3 .3 -.6 .3 -1l1.2 .2c-.1 .5 -.3 .9 -.4 1.3l-1.1 -.5Zm.4 -3.2v-1.2h1.1v1.2h-1.1Zm0 -3.5v-.8h1.2l-.1 .9l-1.1 -.1Z" class="g2_161"/>
<path d="M353.6 253.7V230.8" class="g1_161"/>
<path d="M490.6 253.7v-1.1h1.1v1.1h-1.1Zm-.1 -3.4v-1.2h1.2v1.2h-1.2Zm-.1 -3.4c-.1 -.3 -.2 -.6 -.4 -.9l1 -.5c.3 .3 .4 .7 .5 1.2l-1.1 .2Zm-1.7 -2.3c-.3 -.2 -.6 -.4 -1 -.5l.5 -1.1c.4 .2 .8 .4 1.1 .7l-.6 .9Zm-3 -1.2c-.3 -.1 -.7 -.2 -1.2 -.2l.2 -1.2c.5 .1 .9 .2 1.3 .3l-.3 1.1Zm-3.2 -.5c-.4 0 -.8 0 -1.2 0l.1 -1.2c.4 0 .8 .1 1.2 .1l-.1 1.1Zm-3.6 -.1h-1.1v-1.1h1.1v1.1Zm-3.4 0h-1.2v-1.1h1.2v1.1Zm-3.5 0h-1.1v-1.1H472v1.1Zm-3.4 0h-1.1v-1.1h1.1v1.1Zm-3.4 0H464v-1.1h1.2v1.1Zm-3.5 0h-1.1v-1.1h1.1v1.1Zm-3.4 0h-1.2v-1.1h1.2v1.1Zm-3.5 0h-1.1v-1.1h1.1v1.1Zm-3.4 0h-1.1v-1.1h1.1v1.1Zm-3.4 0h-1.2v-1.1H448v1.1Zm-3.5 0h-1.1v-1.1h1.1v1.1Zm-3.4 0H440v-1.1h1.1v1.1Zm-3.4 0h-1.2v-1.1h1.2v1.1Zm-3.5 0h-1.1v-1.1h1.1v1.1Zm-3.4 0h-1.2v-1.1h1.2v1.1Zm-3.5 0h-1.1v-1.1h1.1v1.1Zm-3.4 0h-1.1v-1.1h1.1v1.1Zm-3.4 0h-1.2v-1.1h1.2v1.1Zm-3.5 0h-1.1v-1.1H417v1.1Zm-3.4 0h-1.1v-1.1h1.1v1.1Zm-3.4 0H409v-1.1h1.2v1.1Zm-3.5 0h-1.1v-1.1h1.1v1.1Zm-3.4 0h-1.2v-1.1h1.2v1.1Zm-3.5 0h-1.1v-1.1h1.1v1.1Zm-3.4 0h-1.1v-1.1h1.1v1.1Zm-3.4 0h-1.2v-1.1H393v1.1Zm-3.5 0h-1.1v-1.1h1.1v1.1Zm-3.4 0H385v-1.1h1.1v1.1Zm-3.4 0h-1.2v-1.1h1.2v1.1Zm-3.5 0h-1.1v-1.1h1.1v1.1Zm-3.4 0h-1.2v-1.1h1.2v1.1Zm-3.5 0h-1.1v-1.1h1.1v1.1Zm-3.6 0c-.4 -.1 -.8 -.1 -1.1 -.1l.1 -1.2c.3 .1 .7 .1 1.1 .1l-.1 1.2Zm-3.4 -.4c-.4 -.1 -.8 -.2 -1.2 -.3l.3 -1.1c.3 .1 .7 .2 1.1 .3l-.2 1.1Zm-3.4 -1.1c-.4 -.2 -.7 -.5 -1.1 -.7l.7 -.9c.3 .2 .6 .4 1 .6l-.6 1Zm-2.6 -2.7c-.2 -.3 -.3 -.8 -.4 -1.2l1.1 -.2c.1 .4 .2 .7 .3 1l-1 .4Zm-.5 -3.6v-1.2H360V235h-1.2Zm0 -3.5v-.7H360v.7h-1.2Z" class="g2_161"/>
<path d="M158.8 299.5h23v23h-23v-23Z" class="g0_161"/>
<path d="M158.8 299.5h23v23h-23v-23Z" class="g1_161"/>
<path d="M204.5 299.5h23v23h-23v-23Z" class="g0_161"/>
<path d="M204.5 299.5h23v23h-23v-23Z" class="g1_161"/>
<path d="M250.6 299.5h23v23h-23v-23Z" class="g0_161"/>
<path d="M250.6 299.5h23v23h-23v-23Z" class="g1_161"/>
<path d="M296.3 299.5h23v23h-23v-23Z" class="g0_161"/>
<path d="M296.3 299.5h23v23h-23v-23Z" class="g1_161"/>
<path d="M342.1 299.5h23v23h-23v-23Z" class="g0_161"/>
<path d="M342.1 299.5h23v23h-23v-23Z" class="g1_161"/>
<path d="M388 299.5h23v23H388v-23Z" class="g0_161"/>
<path d="M388 299.5h23v23H388v-23Z" class="g1_161"/>
<path d="M433.8 299.5h23v23h-23v-23Z" class="g0_161"/>
<path d="M433.8 299.5h23v23h-23v-23Z" class="g1_161"/>
<path d="M479.6 299.5h23v23h-23v-23Z" class="g0_161"/>
<path d="M479.6 299.5h23v23h-23v-23Z" class="g1_161"/>
<path d="M525.5 299.5h23v23h-23v-23Z" class="g0_161"/>
<path d="M525.5 299.5h23v23h-23v-23Z" class="g1_161"/>
<path d="M215.5 299.5v-1.1h1.1v1.1m-1.1 -3.4V295h1.1v1.1m-1.1 -3.4v-1.2h1.1v1.2m-1.1 -3.5v-1.1h1.1v1.1m-1.1 -3.4v-1.2h1.1v1.2m-1.1 -3.4v-1.2h1.1v1.2m-1.1 -3.5v-1.1h1.1v1.1Z" class="g2_161"/>
<path d="M490.6 299.5v-1.1h1.1v1.1m-1.1 -3.4V295h1.1v1.1m-1.1 -3.4v-1.2h1.1v1.2m-1.1 -3.5v-1.1h1.1v1.1m-1.1 -3.4v-1.2h1.1v1.2m-1.1 -3.4v-1.2h1.1v1.2m-1.1 -3.5v-1.1h1.1v1.1Z" class="g2_161"/>
<path d="M353.1 299.5v-1.1h1.1v1.1m-1.1 -3.4V295h1.1v1.1m-1.1 -3.4v-1.2h1.1v1.2m-1.1 -3.5v-1.1h1.1v1.1m-1.1 -3.4v-1.2h1.1v1.2m-1.1 -3.4v-1.2h1.1v1.2m-1.1 -3.5v-1.1h1.1v1.1Z" class="g2_161"/>
<path d="M536.4 299.5v-1.1h1.1v1.1h-1.1Zm0 -3.4V295h1.1v1.1h-1.1Zm-.2 -3.3c0 -.4 -.2 -.7 -.3 -.9l1 -.6c.2 .4 .3 .8 .5 1.2l-1.2 .3Zm-1.7 -2.4c-.3 -.1 -.6 -.3 -.9 -.5l.4 -1c.5 .2 .8 .4 1.2 .6l-.7 .9Zm-2.9 -1.1c-.4 -.1 -.8 -.2 -1.2 -.3l.2 -1.1c.4 .1 .8 .1 1.2 .2l-.2 1.2Zm-3.3 -.5c-.4 -.1 -.7 -.1 -1.1 -.1v-1.2c.4 .1 .8 .1 1.2 .1l-.1 1.2Zm-3.6 -.1h-1.1v-1.2h1.1v1.2Zm-3.4 0h-1.1v-1.2h1.1v1.2Zm-3.4 0h-1.2v-1.2h1.2v1.2Zm-3.5 0h-1.1v-1.2h1.1v1.2Zm-3.4 0h-1.2v-1.2H511v1.2Zm-3.6 -.1c-.4 0 -.8 0 -1.2 0l.1 -1.1c.4 0 .8 0 1.2 0l-.1 1.1Zm-3.4 -.2c-.4 -.1 -.8 -.1 -1.2 -.2l.2 -1.1c.4 .1 .7 .1 1.1 .2l-.1 1.1Zm-3.5 -.8c-.4 -.2 -.7 -.3 -1.1 -.5l.6 -1c.2 .1 .5 .3 .9 .4l-.4 1.1Zm-3.1 -2.1c-.2 -.3 -.5 -.6 -.6 -1l1 -.5c.1 .3 .3 .6 .5 .8l-.9 .7ZM496.3 282v-1.2h1.2V282h-1.2Zm0 -3.5v-1.1h1.2v1.1h-1.2Z" class="g2_161"/>
<path d="M444.7 299.5v-1.1h1.2v1.1h-1.2Zm0 -3.4V295h1.2v1.1h-1.2Zm.2 -3.6c.1 -.4 .2 -.8 .4 -1.2l1 .6c-.1 .2 -.3 .5 -.3 .9l-1.1 -.3Zm2.1 -3c.4 -.2 .7 -.4 1.1 -.6l.5 1c-.3 .2 -.6 .3 -.9 .5l-.7 -.9Zm3.4 -1.4c.4 -.1 .8 -.2 1.2 -.2l.2 1.1c-.4 .1 -.8 .2 -1.2 .2l-.2 -1.1Zm3.4 -.5c.4 0 .8 0 1.2 -.1v1.2c-.4 0 -.7 0 -1.1 .1l-.1 -1.2Zm3.7 -.1h1.1v1.2h-1.1v-1.2Zm3.4 0H462v1.2h-1.1v-1.2Zm3.4 0h1.2v1.2h-1.2v-1.2Zm3.5 0h1.1v1.2h-1.1v-1.2Zm3.4 0h1.1v1.2h-1.1v-1.2Zm3.5 0c.4 0 .8 0 1.2 0l.1 1.1c-.4 0 -.8 0 -1.3 .1v-1.2Zm3.4 -.2c.4 -.1 .7 -.1 1 -.2l.3 1.1c-.4 .1 -.8 .2 -1.2 .2l-.1 -1.1Zm3.2 -.8c.4 -.1 .7 -.2 .9 -.4l.5 1.1c-.3 .1 -.6 .3 -1 .4l-.4 -1.1Zm2.6 -1.6c.2 -.3 .4 -.5 .5 -.8l1.1 .5c-.2 .3 -.4 .7 -.7 1l-.9 -.7Zm.9 -2.9v-1.1h1.1V282h-1.1Zm0 -3.4v-1.1h1.1v1.1h-1.1Z" class="g2_161"/>
<path d="M398.9 299.5v-1.1H400v1.1h-1.1Zm0 -3.4V295H400v1.1h-1.1Zm-.2 -3.3c0 -.4 -.2 -.7 -.3 -.9l1 -.6c.2 .4 .3 .8 .5 1.2l-1.2 .3ZM397 290.4c-.3 -.1 -.6 -.3 -.9 -.5l.4 -1c.5 .2 .8 .4 1.2 .6l-.7 .9Zm-2.9 -1.1c-.4 -.1 -.8 -.2 -1.2 -.3l.2 -1.1c.4 .1 .8 .1 1.2 .2l-.2 1.2Zm-3.3 -.5c-.4 -.1 -.7 -.1 -1.1 -.1v-1.2c.4 .1 .8 .1 1.2 .1l-.1 1.2Zm-3.6 -.1h-1.1v-1.2h1.1v1.2Zm-3.4 0h-1.1v-1.2h1.1v1.2Zm-3.4 0h-1.2v-1.2h1.2v1.2Zm-3.5 0h-1.1v-1.2h1.1v1.2Zm-3.4 0h-1.2v-1.2h1.2v1.2Zm-3.6 -.1c-.4 0 -.8 0 -1.2 0l.1 -1.1c.4 0 .8 0 1.2 0l-.1 1.1Zm-3.4 -.2c-.4 -.1 -.8 -.1 -1.2 -.2l.2 -1.1c.4 .1 .7 .1 1.1 .2l-.1 1.1Zm-3.5 -.8c-.4 -.2 -.7 -.3 -1.1 -.5l.6 -1c.2 .1 .5 .3 .9 .4l-.4 1.1Zm-3.1 -2.1c-.2 -.3 -.5 -.6 -.6 -1l1 -.5c.1 .3 .3 .6 .5 .8l-.9 .7ZM358.8 282v-1.2H360V282h-1.2Zm0 -3.5v-1.1H360v1.1h-1.2Z" class="g2_161"/>
<path d="M307.2 299.5v-1.1h1.2v1.1h-1.2Zm0 -3.4V295h1.2v1.1h-1.2Zm.2 -3.6c.1 -.4 .2 -.8 .4 -1.2l1 .6c-.1 .2 -.3 .5 -.3 .9l-1.1 -.3Zm2.1 -3c.4 -.2 .7 -.4 1.1 -.6l.5 1c-.3 .2 -.6 .3 -.9 .5l-.7 -.9Zm3.4 -1.4c.4 -.1 .8 -.2 1.2 -.2l.2 1.1c-.4 .1 -.8 .2 -1.2 .2l-.2 -1.1Zm3.4 -.5c.4 0 .8 0 1.2 -.1v1.2c-.4 0 -.7 0 -1.1 .1l-.1 -1.2Zm3.7 -.1h1.1v1.2H320v-1.2Zm3.4 0h1.1v1.2h-1.1v-1.2Zm3.4 0H328v1.2h-1.2v-1.2Zm3.5 0h1.1v1.2h-1.1v-1.2Zm3.4 0h1.1v1.2h-1.1v-1.2Zm3.5 0c.4 0 .8 0 1.2 0l.1 1.1c-.4 0 -.8 0 -1.3 .1v-1.2Zm3.4 -.2c.4 -.1 .7 -.1 1 -.2l.3 1.1c-.4 .1 -.8 .2 -1.2 .2l-.1 -1.1Zm3.2 -.8c.4 -.1 .7 -.2 .9 -.4l.5 1.1c-.3 .1 -.6 .3 -1 .4l-.4 -1.1Zm2.6 -1.6c.2 -.3 .4 -.5 .5 -.8l1.1 .5c-.2 .3 -.4 .7 -.7 1l-.9 -.7Zm.9 -2.9v-1.1h1.1V282h-1.1Zm0 -3.4v-1.1h1.1v1.1h-1.1Z" class="g2_161"/>
<path d="M169.7 299.5v-1.1h1.2v1.1h-1.2Zm0 -3.4V295h1.2v1.1h-1.2Zm.2 -3.6c.1 -.4 .2 -.8 .4 -1.2l1 .6c-.1 .2 -.3 .5 -.3 .9l-1.1 -.3Zm2.1 -3c.4 -.2 .7 -.4 1.1 -.6l.5 1c-.3 .2 -.6 .3 -.9 .5l-.7 -.9Zm3.4 -1.4c.4 -.1 .8 -.2 1.2 -.2l.2 1.1c-.4 .1 -.8 .2 -1.2 .2l-.2 -1.1Zm3.4 -.5c.4 0 .8 0 1.2 -.1v1.2c-.4 0 -.7 0 -1.1 .1l-.1 -1.2Zm3.7 -.1h1.1v1.2h-1.1v-1.2Zm3.4 0H187v1.2h-1.1v-1.2Zm3.4 0h1.2v1.2h-1.2v-1.2Zm3.5 0h1.1v1.2h-1.1v-1.2Zm3.4 0h1.1v1.2h-1.1v-1.2Zm3.5 0c.4 0 .8 0 1.2 0l.1 1.1c-.4 0 -.8 0 -1.2 0l-.1 -1.1Zm3.4 -.2c.4 -.1 .7 -.2 1.1 -.2l.2 1.1c-.4 .1 -.8 .1 -1.2 .2l-.1 -1.1Zm3.2 -.8c.4 -.1 .7 -.3 .9 -.4l.6 1c-.4 .2 -.7 .3 -1.1 .5l-.4 -1.1Zm2.6 -1.7c.2 -.2 .3 -.5 .5 -.8l1 .5c-.2 .3 -.4 .7 -.6 1l-.9 -.7Zm.8 -2.9v-1.1h1.1v1.1h-1.1Zm0 -3.4v-1.2l1.2 .1v1.1h-1.2Z" class="g2_161"/>
<path d="M261.5 299.5v-1.1h1.1v1.1h-1.1Zm0 -3.4V295h1.1v1.1h-1.1Zm-.2 -3.3c0 -.4 -.2 -.7 -.3 -.9l1 -.6c.2 .4 .4 .8 .5 1.2l-1.2 .3Zm-1.7 -2.4c-.3 -.1 -.6 -.3 -.9 -.5l.5 -1c.4 .2 .7 .4 1.1 .6l-.7 .9Zm-2.9 -1.2c-.4 0 -.8 -.1 -1.2 -.2l.2 -1.1c.4 .1 .8 .1 1.3 .2l-.3 1.1Zm-3.3 -.4c-.4 -.1 -.7 -.1 -1.1 -.1v-1.2c.4 .1 .8 .1 1.2 .1l-.1 1.2Zm-3.5 -.1h-1.2v-1.2h1.2v1.2Zm-3.5 0h-1.1v-1.2h1.1v1.2Zm-3.4 0h-1.2v-1.2H243v1.2Zm-3.5 0h-1.1v-1.2h1.1v1.2Zm-3.4 0H235v-1.2h1.1v1.2Zm-3.5 0c-.4 -.1 -.9 -.1 -1.3 -.1l.1 -1.1c.4 0 .8 0 1.2 0v1.2Zm-3.5 -.3c-.4 0 -.8 -.1 -1.1 -.1l.2 -1.2c.3 .1 .6 .1 1 .2l-.1 1.1Zm-3.5 -.8c-.4 -.1 -.7 -.2 -1.1 -.4l.5 -1c.3 .1 .6 .2 .9 .4l-.3 1Zm-3.1 -1.9c-.3 -.3 -.5 -.6 -.7 -1l1 -.5c.1 .3 .3 .5 .5 .8l-.8 .7Zm-1.3 -3.5V281h1.2v1.2h-1.2Zm0 -3.5v-1.1h1.2v1.1h-1.2Z" class="g2_161"/>
<path d="M158.8 402.7h23v22.9h-23V402.7Z" class="g0_161"/>
<path d="M158.8 402.7h23v22.9h-23V402.7Z" class="g1_161"/>
<path d="M181.8 402.7h23v22.9h-23V402.7Z" class="g0_161"/>
<path d="M181.8 402.7h23v22.9h-23V402.7Z" class="g1_161"/>
<path d="M204.8 402.7h23v22.9h-23V402.7Z" class="g0_161"/>
<path d="M204.8 402.7h23v22.9h-23V402.7Z" class="g1_161"/>
<path d="M227.8 402.7h23v22.9h-23V402.7Z" class="g0_161"/>
<path d="M227.8 402.7h23v22.9h-23V402.7Z" class="g1_161"/>
<path d="M250.6 402.7h23v22.9h-23V402.7Z" class="g0_161"/>
<path d="M250.6 402.7h23v22.9h-23V402.7Z" class="g1_161"/>
<path d="M273.6 402.7h23v22.9h-23V402.7Z" class="g0_161"/>
<path d="M273.6 402.7h23v22.9h-23V402.7Z" class="g1_161"/>
<path d="M296.6 402.7h23v22.9h-23V402.7Z" class="g0_161"/>
<path d="M296.6 402.7h23v22.9h-23V402.7Z" class="g1_161"/>
<path d="M319.6 402.7h23v22.9h-23V402.7Z" class="g0_161"/>
<path d="M319.6 402.7h23v22.9h-23V402.7Z" class="g1_161"/>
<path d="M342.1 402.7h23v22.9h-23V402.7Z" class="g0_161"/>
<path d="M342.1 402.7h23v22.9h-23V402.7Z" class="g1_161"/>
<path d="M365 402.7h23v22.9H365V402.7Z" class="g0_161"/>
<path d="M365 402.7h23v22.9H365V402.7Z" class="g1_161"/>
<path d="M388 402.7h23v22.9H388V402.7Z" class="g0_161"/>
<path d="M388 402.7h23v22.9H388V402.7Z" class="g1_161"/>
<path d="M411 402.7h23v22.9H411V402.7Z" class="g0_161"/>
<path d="M411 402.7h23v22.9H411V402.7Z" class="g1_161"/>
<path d="M433.8 402.7h23v22.9h-23V402.7Z" class="g0_161"/>
<path d="M433.8 402.7h23v22.9h-23V402.7Z" class="g1_161"/>
<path d="M170.3 437H440.1" class="g3_161"/>
<path d="M442.7 437l-3.5 1.2l.9 -1.2l-.9 -1.1l3.5 1.1Z" class="g2_161"/>
<path d="M442.7 437l-3.5 1.2l.9 -1.2l-.9 -1.1l3.5 1.1ZM353.6 230.8v17.8" class="g3_161"/>
<path d="M353.6 251.1l-1.1 -3.4l1.1 .9l1.2 -.9l-1.2 3.4Z" class="g2_161"/>
<path d="M353.6 251.1l-1.1 -3.4l1.1 .9l1.2 -.9l-1.2 3.4Zm-11.5 14.1H319.8c-7.7 0 -11.5 3.8 -11.7 11.4l-.3 17.8" class="g3_161"/>
<path d="M307.8 297l-1.1 -3.5l1.1 .9l1.2 -.8l-1.2 3.4Z" class="g2_161"/>
<path d="M307.8 297l-1.1 -3.5l1.1 .9l1.2 -.8l-1.2 3.4Zm11.5 14H337" class="g3_161"/>
<path d="M339.6 311l-3.5 1.1L337 311l-.9 -1.1l3.5 1.1Z" class="g2_161"/>
<path d="M339.6 311l-3.5 1.1L337 311l-.9 -1.1l3.5 1.1Zm25.5 0h5.7c3.8 0 5.7 -3.8 5.7 -11.5V270.9c0 -7.6 3.8 -11.5 11.5 -11.5h86.5" class="g3_161"/>
<path d="M477.1 259.4l-3.5 1.2l.9 -1.2l-.9 -1.1l3.5 1.1Z" class="g2_161"/>
<path d="M477.1 259.4l-3.5 1.2l.9 -1.2l-.9 -1.1l3.5 1.1Zm2.5 11.5H456.7c-7.6 0 -11.4 3.8 -11.4 11.5v12" class="g3_161"/>
<path d="M445.3 297l-1.2 -3.4l1.2 .8l1.1 -.9l-1.1 3.5Z" class="g2_161"/>
<path d="M445.3 297l-1.2 -3.4l1.2 .8l1.1 -.9l-1.1 3.5Zm0 25.5v5.7c0 3.8 3.8 5.7 11.4 5.7h63c7.7 0 11.5 -1 11.5 -3.1v-3.2" class="g3_161"/>
<path d="M531.2 325l1.1 3.5l-1.1 -.9l-1.1 .9l1.1 -3.5Z" class="g2_161"/>
<path d="M531.2 325l1.1 3.5l-1.1 -.9l-1.1 .9l1.1 -3.5Zm11.5 -2.5v45.8c.1 7.6 -3.8 11.5 -11.4 11.5H158.8c-7.6 0 -11.5 -3.9 -11.5 -11.5V276.6c0 -7.6 3.9 -11.4 11.5 -11.4h40.6" class="g3_161"/>
<path d="M202 265.2l-3.5 1.1l.9 -1.1l-.9 -1.2l3.5 1.2Z" class="g2_161"/>
<path d="M202 265.2l-3.5 1.1l.9 -1.1l-.9 -1.2l3.5 1.2Zm25.5 0h45.9c7.6 0 11.4 3.8 11.4 11.4v68.8c0 7.6 3.9 11.4 11.5 11.4H473.9c7.6 0 11.5 -3.8 11.5 -11.4V327.6" class="g3_161"/>
<path d="M485.4 325l1.1 3.5l-1.1 -.9l-1.2 .9l1.2 -3.5Z" class="g2_161"/>
<path d="M485.4 325l1.1 3.5l-1.1 -.9l-1.2 .9l1.2 -3.5Zm11.5 -2.5v34.3c0 7.7 -3.8 11.5 -11.4 11.5H176c-7.7 0 -11.5 -3.8 -11.5 -11.5V327.6" class="g3_161"/>
<path d="M164.5 325l1.2 3.5l-1.2 -.9l-1.1 .9l1.1 -3.5Z" class="g2_161"/>
<path d="M164.5 325l1.2 3.5l-1.2 -.9l-1.1 .9l1.1 -3.5ZM176 322.5l.1 5.7c0 3.8 3.8 5.7 11.5 5.7h57.2c7.7 0 11.5 -1 11.5 -3.1v-3.2" class="g3_161"/>
<path d="M256.3 325l1.1 3.5l-1.1 -.9l-1.1 .9l1.1 -3.5Z" class="g2_161"/>
<path d="M256.3 325l1.1 3.5l-1.1 -.9l-1.1 .9l1.1 -3.5Zm11.5 -2.5v5.7c0 3.8 3.8 5.7 11.4 5.7h103c7.7 0 11.5 -1 11.5 -3.1v-3.2" class="g3_161"/>
<path d="M393.7 325l1.1 3.5l-1.1 -.9l-1.1 .9l1.1 -3.5Z" class="g2_161"/>
<path d="M393.7 325l1.1 3.5l-1.1 -.9l-1.1 .9l1.1 -3.5Zm11.5 -2.5v11.4c.1 7.7 -3.8 11.5 -11.4 11.5H227.5c-7.6 0 -11.4 -3 -11.4 -8.9l-.1 -8.9" class="g3_161"/>
<path d="M216 325l1.2 3.5l-1.2 -.9l-1.1 .9L216 325Z" class="g2_161"/>
<path d="M216 325l1.2 3.5l-1.2 -.9l-1.1 .9L216 325Z" class="g3_161"/>
</g>
</svg>