<?xml version="1.0" encoding="UTF-8" standalone="no"?>
<!DOCTYPE svg PUBLIC "-//W3C//DTD SVG 1.1//EN"
"http://www.w3.org/Graphics/SVG/1.1/DTD/svg11.dtd">
<svg viewBox="0 0 714 1017" version="1.1" xmlns="http://www.w3.org/2000/svg" xmlns:xlink="http://www.w3.org/1999/xlink">
<defs>
<clipPath id="c0_335"><path d="M70.7 242.3V143.7H621.9v98.6Z"/></clipPath>
<clipPath id="c1_335"><path d="M70 771.6v-165H622.3v165Z"/></clipPath>
<clipPath id="c2_335"><path d="M70.7 243.1V142.3H622.3V243.1Z"/></clipPath>
<clipPath id="c3_335"><path d="M70 771.6v-165H623v165Z"/></clipPath>
<style type="text/css"><![CDATA[
.g0_335{
fill: #FFF;
}
.g1_335{
fill: none;
stroke: #000;
stroke-width: 1.145;
stroke-miterlimit: 10;
}
.g2_335{
fill: none;
stroke: #000;
stroke-width: 2.291;
stroke-miterlimit: 10;
}
.g3_335{
fill: #000;
}
]]></style>
</defs>
<path d="M0 1017.7H717.2V-3.7H0V1017.7Z" class="g0_335"/>
<g clip-path="url(#c2_335)">
<path clip-path="url(#c0_335)" d="M70.7 143.7H621.9v98.6H70.7V143.7Z" class="g0_335"/>
<path d="M168.7 161.5H620.2M168.7 195.9H620.2M168.7 230.3H620.2" class="g1_335"/>
<path d="M175.4 162.3l82.3 30.9" class="g2_335"/>
<path d="M175.6 161.5c0 .3 -.1 .6 -.2 .9c-.1 .3 -.3 .5 -.5 .7c-.2 .2 -.5 .4 -.7 .5c-.3 .1 -.6 .2 -.9 .2c-.3 0 -.6 -.1 -.9 -.2c-.3 -.1 -.5 -.3 -.7 -.5c-.3 -.2 -.4 -.4 -.5 -.7c-.2 -.3 -.2 -.6 -.2 -.9c0 -.3 0 -.6 .2 -.9c.1 -.3 .2 -.5 .5 -.7c.2 -.2 .4 -.4 .7 -.5c.3 -.1 .6 -.2 .9 -.2c.3 0 .6 .1 .9 .2c.2 .1 .5 .3 .7 .5c.2 .2 .4 .4 .5 .7c.1 .3 .2 .6 .2 .9Z" class="g3_335"/>
<path d="M175.6 161.5c0 .3 -.1 .6 -.2 .9c-.1 .3 -.3 .5 -.5 .7c-.2 .2 -.5 .4 -.7 .5c-.3 .1 -.6 .2 -.9 .2c-.3 0 -.6 -.1 -.9 -.2c-.3 -.1 -.5 -.3 -.7 -.5c-.3 -.2 -.4 -.4 -.5 -.7c-.2 -.3 -.2 -.6 -.2 -.9c0 -.3 0 -.6 .2 -.9c.1 -.3 .2 -.5 .5 -.7c.2 -.2 .4 -.4 .7 -.5c.3 -.1 .6 -.2 .9 -.2c.3 0 .6 .1 .9 .2c.2 .1 .5 .3 .7 .5c.2 .2 .4 .4 .5 .7c.1 .3 .2 .6 .2 .9Z" class="g2_335"/>
<path d="M262.5 195l-7.2 -.3l2.4 -1.5l-.8 -2.8l5.6 4.6Z" class="g3_335"/>
<path d="M262.5 195l-7.2 -.3l2.4 -1.5l-.8 -2.8l5.6 4.6Zm4.6 .1l82.3 -30.9" class="g2_335"/>
<path d="M267.2 195.9c0 .3 0 .6 -.1 .9c-.2 .2 -.3 .5 -.5 .7c-.3 .2 -.5 .4 -.8 .5c-.3 .1 -.6 .2 -.9 .2c-.3 0 -.6 -.1 -.8 -.2c-.3 -.1 -.6 -.3 -.8 -.5c-.2 -.2 -.4 -.5 -.5 -.7c-.1 -.3 -.1 -.6 -.1 -.9c0 -.3 0 -.6 .1 -.9c.1 -.3 .3 -.5 .5 -.7c.2 -.3 .5 -.4 .8 -.5c.2 -.2 .5 -.2 .8 -.2c.3 0 .6 0 .9 .2c.3 .1 .5 .2 .8 .5c.2 .2 .3 .4 .5 .7c.1 .3 .1 .6 .1 .9Z" class="g3_335"/>
<path d="M267.2 195.9c0 .3 0 .6 -.1 .9c-.2 .2 -.3 .5 -.5 .7c-.3 .2 -.5 .4 -.8 .5c-.3 .1 -.6 .2 -.9 .2c-.3 0 -.6 -.1 -.8 -.2c-.3 -.1 -.6 -.3 -.8 -.5c-.2 -.2 -.4 -.5 -.5 -.7c-.1 -.3 -.1 -.6 -.1 -.9c0 -.3 0 -.6 .1 -.9c.1 -.3 .3 -.5 .5 -.7c.2 -.3 .5 -.4 .8 -.5c.2 -.2 .5 -.2 .8 -.2c.3 0 .6 0 .9 .2c.3 .1 .5 .2 .8 .5c.2 .2 .3 .4 .5 .7c.1 .3 .1 .6 .1 .9Z" class="g2_335"/>
<path d="M354.2 162.4l-5.6 4.6l.8 -2.8L347 162.7l7.2 -.3Z" class="g3_335"/>
<path d="M354.2 162.4l-5.6 4.6l.8 -2.8L347 162.7l7.2 -.3Zm4.2 .5l83.7 62.7" class="g2_335"/>
<path d="M358.9 161.5c0 .3 -.1 .6 -.2 .9c-.1 .3 -.3 .5 -.5 .7c-.2 .2 -.4 .4 -.7 .5c-.3 .1 -.6 .2 -.9 .2c-.3 0 -.6 -.1 -.9 -.2c-.2 -.1 -.5 -.3 -.7 -.5c-.2 -.2 -.4 -.4 -.5 -.7c-.1 -.3 -.2 -.6 -.2 -.9c0 -.3 .1 -.6 .2 -.9c.1 -.3 .3 -.5 .5 -.7c.2 -.2 .5 -.4 .7 -.5c.3 -.1 .6 -.2 .9 -.2c.3 0 .6 .1 .9 .2c.3 .1 .5 .3 .7 .5c.2 .2 .4 .4 .5 .7c.1 .3 .2 .6 .2 .9Z" class="g3_335"/>
<path d="M358.9 161.5c0 .3 -.1 .6 -.2 .9c-.1 .3 -.3 .5 -.5 .7c-.2 .2 -.4 .4 -.7 .5c-.3 .1 -.6 .2 -.9 .2c-.3 0 -.6 -.1 -.9 -.2c-.2 -.1 -.5 -.3 -.7 -.5c-.2 -.2 -.4 -.4 -.5 -.7c-.1 -.3 -.2 -.6 -.2 -.9c0 -.3 .1 -.6 .2 -.9c.1 -.3 .3 -.5 .5 -.7c.2 -.2 .5 -.4 .7 -.5c.3 -.1 .6 -.2 .9 -.2c.3 0 .6 .1 .9 .2c.3 .1 .5 .3 .7 .5c.2 .2 .4 .4 .5 .7c.1 .3 .2 .6 .2 .9Z" class="g2_335"/>
<path d="M446.2 228.7l-6.9 -2.3l2.8 -.8v-2.8l4.1 5.9Z" class="g3_335"/>
<path d="M446.2 228.7l-6.9 -2.3l2.8 -.8v-2.8l4.1 5.9Zm3.9 .2l83.7 -62.8" class="g2_335"/>
<path d="M450.6 230.3c0 .3 -.1 .6 -.2 .8c-.1 .3 -.3 .6 -.5 .8c-.2 .2 -.5 .4 -.7 .5c-.3 .1 -.6 .1 -.9 .1c-.3 0 -.6 0 -.9 -.1c-.3 -.1 -.5 -.3 -.7 -.5c-.3 -.2 -.4 -.5 -.5 -.8c-.2 -.2 -.2 -.5 -.2 -.8c0 -.3 0 -.6 .2 -.9c.1 -.3 .2 -.5 .5 -.8c.2 -.2 .4 -.3 .7 -.5c.3 -.1 .6 -.1 .9 -.1c.3 0 .6 0 .9 .1c.2 .2 .5 .3 .7 .5c.2 .3 .4 .5 .5 .8c.1 .3 .2 .6 .2 .9Z" class="g3_335"/>
<path d="M450.6 230.3c0 .3 -.1 .6 -.2 .8c-.1 .3 -.3 .6 -.5 .8c-.2 .2 -.5 .4 -.7 .5c-.3 .1 -.6 .1 -.9 .1c-.3 0 -.6 0 -.9 -.1c-.3 -.1 -.5 -.3 -.7 -.5c-.3 -.2 -.4 -.5 -.5 -.8c-.2 -.2 -.2 -.5 -.2 -.8c0 -.3 0 -.6 .2 -.9c.1 -.3 .2 -.5 .5 -.8c.2 -.2 .4 -.3 .7 -.5c.3 -.1 .6 -.1 .9 -.1c.3 0 .6 0 .9 .1c.2 .2 .5 .3 .7 .5c.2 .3 .4 .5 .5 .8c.1 .3 .2 .6 .2 .9Z" class="g2_335"/>
<path d="M537.9 163l-4.1 6v-2.9l-2.8 -.8l6.9 -2.3Z" class="g3_335"/>
<path d="M537.9 163l-4.1 6v-2.9l-2.8 -.8l6.9 -2.3Z" class="g2_335"/>
</g>
<g clip-path="url(#c3_335)">
<path clip-path="url(#c1_335)" d="M70 606.6H622.3v165H70v-165Z" class="g0_335"/>
<path d="M169.1 656.4H619.4M169.1 690.8H619.4" class="g1_335"/>
<path d="M182.3 658l30.4 27.6" class="g2_335"/>
<path d="M182.9 656.4c0 .3 -.1 .6 -.2 .9c-.1 .3 -.3 .5 -.5 .8c-.2 .2 -.5 .3 -.8 .4c-.2 .2 -.5 .2 -.8 .2c-.3 0 -.6 0 -.9 -.2c-.3 -.1 -.5 -.2 -.8 -.4c-.2 -.3 -.3 -.5 -.5 -.8c-.1 -.3 -.1 -.6 -.1 -.9c0 -.3 0 -.6 .1 -.8c.2 -.3 .3 -.6 .5 -.8c.3 -.2 .5 -.4 .8 -.5c.3 -.1 .6 -.2 .9 -.2c.3 0 .6 .1 .8 .2c.3 .1 .6 .3 .8 .5c.2 .2 .4 .5 .5 .8c.1 .2 .2 .5 .2 .8Z" class="g3_335"/>
<path d="M182.9 656.4c0 .3 -.1 .6 -.2 .9c-.1 .3 -.3 .5 -.5 .8c-.2 .2 -.5 .3 -.8 .4c-.2 .2 -.5 .2 -.8 .2c-.3 0 -.6 0 -.9 -.2c-.3 -.1 -.5 -.2 -.8 -.4c-.2 -.3 -.3 -.5 -.5 -.8c-.1 -.3 -.1 -.6 -.1 -.9c0 -.3 0 -.6 .1 -.8c.2 -.3 .3 -.6 .5 -.8c.3 -.2 .5 -.4 .8 -.5c.3 -.1 .6 -.2 .9 -.2c.3 0 .6 .1 .8 .2c.3 .1 .6 .3 .8 .5c.2 .2 .4 .5 .5 .8c.1 .2 .2 .5 .2 .8Z" class="g2_335"/>
<path d="M216.5 689.1l-6.6 -2.9l2.8 -.6l.2 -2.8l3.6 6.3Z" class="g3_335"/>
<path d="M216.5 689.1l-6.6 -2.9l2.8 -.6l.2 -2.8l3.6 6.3Zm3.7 .3L258 661.1" class="g2_335"/>
<path d="M220.7 690.8c0 .3 -.1 .6 -.2 .9c-.1 .3 -.3 .5 -.5 .7c-.2 .2 -.5 .4 -.7 .5c-.3 .1 -.6 .2 -.9 .2c-.3 0 -.6 -.1 -.9 -.2c-.3 -.1 -.5 -.3 -.7 -.5c-.3 -.2 -.4 -.4 -.5 -.7c-.2 -.3 -.2 -.6 -.2 -.9c0 -.3 0 -.6 .2 -.9c.1 -.3 .2 -.5 .5 -.7c.2 -.2 .4 -.4 .7 -.5c.3 -.1 .6 -.2 .9 -.2c.3 0 .6 .1 .9 .2c.2 .1 .5 .3 .7 .5c.2 .2 .4 .4 .5 .7c.1 .3 .2 .6 .2 .9Z" class="g3_335"/>
<path d="M220.7 690.8c0 .3 -.1 .6 -.2 .9c-.1 .3 -.3 .5 -.5 .7c-.2 .2 -.5 .4 -.7 .5c-.3 .1 -.6 .2 -.9 .2c-.3 0 -.6 -.1 -.9 -.2c-.3 -.1 -.5 -.3 -.7 -.5c-.3 -.2 -.4 -.4 -.5 -.7c-.2 -.3 -.2 -.6 -.2 -.9c0 -.3 0 -.6 .2 -.9c.1 -.3 .2 -.5 .5 -.7c.2 -.2 .4 -.4 .7 -.5c.3 -.1 .6 -.2 .9 -.2c.3 0 .6 .1 .9 .2c.2 .1 .5 .3 .7 .5c.2 .2 .4 .4 .5 .7c.1 .3 .2 .6 .2 .9Z" class="g2_335"/>
<path d="M262.2 658l-4.2 5.9v-2.8l-2.7 -.8l6.9 -2.3Z" class="g3_335"/>
<path d="M262.2 658l-4.2 5.9v-2.8l-2.7 -.8l6.9 -2.3Z" class="g2_335"/>
<path d="M169.1 759.6H619.4" class="g1_335"/>
<path d="M356.8 658.5l41.8 94" class="g2_335"/>
<path d="M358.2 656.4c0 .3 -.1 .6 -.2 .9c-.1 .3 -.3 .5 -.5 .8c-.2 .2 -.5 .3 -.7 .4c-.3 .2 -.6 .2 -.9 .2c-.3 0 -.6 0 -.9 -.2c-.3 -.1 -.5 -.2 -.7 -.4c-.3 -.3 -.4 -.5 -.5 -.8c-.2 -.3 -.2 -.6 -.2 -.9c0 -.3 0 -.6 .2 -.8c.1 -.3 .2 -.6 .5 -.8c.2 -.2 .4 -.4 .7 -.5c.3 -.1 .6 -.2 .9 -.2c.3 0 .6 .1 .9 .2c.2 .1 .5 .3 .7 .5c.2 .2 .4 .5 .5 .8c.1 .2 .2 .5 .2 .8Z" class="g3_335"/>
<path d="M358.2 656.4c0 .3 -.1 .6 -.2 .9c-.1 .3 -.3 .5 -.5 .8c-.2 .2 -.5 .3 -.7 .4c-.3 .2 -.6 .2 -.9 .2c-.3 0 -.6 0 -.9 -.2c-.3 -.1 -.5 -.2 -.7 -.4c-.3 -.3 -.4 -.5 -.5 -.8c-.2 -.3 -.2 -.6 -.2 -.9c0 -.3 0 -.6 .2 -.8c.1 -.3 .2 -.6 .5 -.8c.2 -.2 .4 -.4 .7 -.5c.3 -.1 .6 -.2 .9 -.2c.3 0 .6 .1 .9 .2c.2 .1 .5 .3 .7 .5c.2 .2 .4 .5 .5 .8c.1 .2 .2 .5 .2 .8Z" class="g2_335"/>
<path d="M400.7 757.2l-4.9 -5.3l2.8 .6L400 750l.7 7.2Z" class="g3_335"/>
<path d="M400.7 757.2l-4.9 -5.3l2.8 .6L400 750l.7 7.2Zm1.9 .3l41.8 -94" class="g2_335"/>
<path d="M404 759.6c0 .3 -.1 .6 -.2 .8c-.1 .3 -.3 .6 -.5 .8c-.2 .2 -.4 .4 -.7 .5c-.3 .1 -.6 .1 -.9 .1c-.3 0 -.6 0 -.9 -.1c-.2 -.1 -.5 -.3 -.7 -.5c-.2 -.2 -.4 -.5 -.5 -.8c-.1 -.2 -.2 -.5 -.2 -.8c0 -.3 .1 -.6 .2 -.9c.1 -.3 .3 -.5 .5 -.8c.2 -.2 .5 -.3 .7 -.5c.3 -.1 .6 -.1 .9 -.1c.3 0 .6 0 .9 .1c.3 .2 .5 .3 .7 .5c.2 .3 .4 .5 .5 .8c.1 .3 .2 .6 .2 .9Z" class="g3_335"/>
<path d="M404 759.6c0 .3 -.1 .6 -.2 .8c-.1 .3 -.3 .6 -.5 .8c-.2 .2 -.4 .4 -.7 .5c-.3 .1 -.6 .1 -.9 .1c-.3 0 -.6 0 -.9 -.1c-.2 -.1 -.5 -.3 -.7 -.5c-.2 -.2 -.4 -.5 -.5 -.8c-.1 -.2 -.2 -.5 -.2 -.8c0 -.3 .1 -.6 .2 -.9c.1 -.3 .3 -.5 .5 -.8c.2 -.2 .5 -.3 .7 -.5c.3 -.1 .6 -.1 .9 -.1c.3 0 .6 0 .9 .1c.3 .2 .5 .3 .7 .5c.2 .3 .4 .5 .5 .8c.1 .3 .2 .6 .2 .9Z" class="g2_335"/>
<path d="M446.5 658.8l-.7 7.2l-1.4 -2.5l-2.8 .6l4.9 -5.3Z" class="g3_335"/>
<path d="M446.5 658.8l-.7 7.2l-1.4 -2.5l-2.8 .6l4.9 -5.3Zm2.9 -1l37.8 28.4" class="g2_335"/>
<path d="M449.8 656.4c0 .3 0 .6 -.1 .9c-.2 .3 -.3 .5 -.5 .8c-.3 .2 -.5 .3 -.8 .4c-.3 .2 -.6 .2 -.9 .2c-.3 0 -.6 0 -.8 -.2c-.3 -.1 -.6 -.2 -.8 -.4c-.2 -.3 -.4 -.5 -.5 -.8c-.1 -.3 -.1 -.6 -.1 -.9c0 -.3 0 -.6 .1 -.8c.1 -.3 .3 -.6 .5 -.8c.2 -.2 .5 -.4 .8 -.5c.2 -.1 .5 -.2 .8 -.2c.3 0 .6 .1 .9 .2c.3 .1 .5 .3 .8 .5c.2 .2 .3 .5 .5 .8c.1 .2 .1 .5 .1 .8Z" class="g3_335"/>
<path d="M449.8 656.4c0 .3 0 .6 -.1 .9c-.2 .3 -.3 .5 -.5 .8c-.3 .2 -.5 .3 -.8 .4c-.3 .2 -.6 .2 -.9 .2c-.3 0 -.6 0 -.8 -.2c-.3 -.1 -.6 -.2 -.8 -.4c-.2 -.3 -.4 -.5 -.5 -.8c-.1 -.3 -.1 -.6 -.1 -.9c0 -.3 0 -.6 .1 -.8c.1 -.3 .3 -.6 .5 -.8c.2 -.2 .5 -.4 .8 -.5c.2 -.1 .5 -.2 .8 -.2c.3 0 .6 .1 .9 .2c.3 .1 .5 .3 .8 .5c.2 .2 .3 .5 .5 .8c.1 .2 .1 .5 .1 .8Z" class="g2_335"/>
<path d="M491.3 689.3L484.4 687l2.8 -.8v-2.9l4.1 6Z" class="g3_335"/>
<path d="M491.3 689.3L484.4 687l2.8 -.8v-2.9l4.1 6Zm3.9 .1L533 661.1" class="g2_335"/>
<path d="M495.7 690.8c0 .3 -.1 .6 -.2 .9c-.1 .3 -.3 .5 -.5 .7c-.2 .2 -.5 .4 -.7 .5c-.3 .1 -.6 .2 -.9 .2c-.3 0 -.6 -.1 -.9 -.2c-.3 -.1 -.5 -.3 -.7 -.5c-.3 -.2 -.4 -.4 -.5 -.7c-.2 -.3 -.2 -.6 -.2 -.9c0 -.3 0 -.6 .2 -.9c.1 -.3 .2 -.5 .5 -.7c.2 -.2 .4 -.4 .7 -.5c.3 -.1 .6 -.2 .9 -.2c.3 0 .6 .1 .9 .2c.2 .1 .5 .3 .7 .5c.2 .2 .4 .4 .5 .7c.1 .3 .2 .6 .2 .9Z" class="g3_335"/>
<path d="M495.7 690.8c0 .3 -.1 .6 -.2 .9c-.1 .3 -.3 .5 -.5 .7c-.2 .2 -.5 .4 -.7 .5c-.3 .1 -.6 .2 -.9 .2c-.3 0 -.6 -.1 -.9 -.2c-.3 -.1 -.5 -.3 -.7 -.5c-.3 -.2 -.4 -.4 -.5 -.7c-.2 -.3 -.2 -.6 -.2 -.9c0 -.3 0 -.6 .2 -.9c.1 -.3 .2 -.5 .5 -.7c.2 -.2 .4 -.4 .7 -.5c.3 -.1 .6 -.2 .9 -.2c.3 0 .6 .1 .9 .2c.2 .1 .5 .3 .7 .5c.2 .2 .4 .4 .5 .7c.1 .3 .2 .6 .2 .9Z" class="g2_335"/>
<path d="M537.2 658l-4.2 5.9v-2.8l-2.7 -.8l6.9 -2.3Z" class="g3_335"/>
<path d="M537.2 658l-4.2 5.9v-2.8l-2.7 -.8l6.9 -2.3Zm-271.7 .3l40.3 60.5" class="g2_335"/>
<path d="M266.5 656.4c0 .3 -.1 .6 -.2 .9c-.1 .3 -.3 .5 -.5 .8c-.2 .2 -.4 .3 -.7 .4c-.3 .2 -.6 .2 -.9 .2c-.3 0 -.6 0 -.9 -.2c-.2 -.1 -.5 -.2 -.7 -.4c-.2 -.3 -.4 -.5 -.5 -.8c-.1 -.3 -.2 -.6 -.2 -.9c0 -.3 .1 -.6 .2 -.8c.1 -.3 .3 -.6 .5 -.8c.2 -.2 .5 -.4 .7 -.5c.3 -.1 .6 -.2 .9 -.2c.3 0 .6 .1 .9 .2c.3 .1 .5 .3 .7 .5c.2 .2 .4 .5 .5 .8c.1 .2 .2 .5 .2 .8Z" class="g3_335"/>
<path d="M266.5 656.4c0 .3 -.1 .6 -.2 .9c-.1 .3 -.3 .5 -.5 .8c-.2 .2 -.4 .3 -.7 .4c-.3 .2 -.6 .2 -.9 .2c-.3 0 -.6 0 -.9 -.2c-.2 -.1 -.5 -.2 -.7 -.4c-.2 -.3 -.4 -.5 -.5 -.8c-.1 -.3 -.2 -.6 -.2 -.9c0 -.3 .1 -.6 .2 -.8c.1 -.3 .3 -.6 .5 -.8c.2 -.2 .5 -.4 .7 -.5c.3 -.1 .6 -.2 .9 -.2c.3 0 .6 .1 .9 .2c.3 .1 .5 .3 .7 .5c.2 .2 .4 .5 .5 .8c.1 .2 .2 .5 .2 .8Z" class="g2_335"/>
<path d="M308.6 723.1l-5.7 -4.5l2.9 .2l.9 -2.7l1.9 7Z" class="g3_335"/>
<path d="M308.6 723.1l-5.7 -4.5l2.9 .2l.9 -2.7l1.9 7Zm2.7 .2l40.3 -60.5" class="g2_335"/>
<path d="M312.3 725.2c0 .3 0 .6 -.1 .9c-.2 .2 -.3 .5 -.5 .7c-.3 .2 -.5 .4 -.8 .5c-.3 .1 -.6 .2 -.9 .2c-.3 0 -.6 -.1 -.8 -.2c-.3 -.1 -.6 -.3 -.8 -.5c-.2 -.2 -.4 -.5 -.5 -.7c-.1 -.3 -.1 -.6 -.1 -.9c0 -.3 0 -.6 .1 -.9c.1 -.3 .3 -.5 .5 -.7c.2 -.3 .5 -.4 .8 -.5c.2 -.2 .5 -.2 .8 -.2c.3 0 .6 0 .9 .2c.3 .1 .5 .2 .8 .5c.2 .2 .3 .4 .5 .7c.1 .3 .1 .6 .1 .9Z" class="g3_335"/>
<path d="M312.3 725.2c0 .3 0 .6 -.1 .9c-.2 .2 -.3 .5 -.5 .7c-.3 .2 -.5 .4 -.8 .5c-.3 .1 -.6 .2 -.9 .2c-.3 0 -.6 -.1 -.8 -.2c-.3 -.1 -.6 -.3 -.8 -.5c-.2 -.2 -.4 -.5 -.5 -.7c-.1 -.3 -.1 -.6 -.1 -.9c0 -.3 0 -.6 .1 -.9c.1 -.3 .3 -.5 .5 -.7c.2 -.3 .5 -.4 .8 -.5c.2 -.2 .5 -.2 .8 -.2c.3 0 .6 0 .9 .2c.3 .1 .5 .2 .8 .5c.2 .2 .3 .4 .5 .7c.1 .3 .1 .6 .1 .9Z" class="g2_335"/>
<path d="M354.5 658.6l-1.9 7l-1 -2.8l-2.9 .2l5.8 -4.4Z" class="g3_335"/>
<path d="M354.5 658.6l-1.9 7l-1 -2.8l-2.9 .2l5.8 -4.4Z" class="g2_335"/>
<path d="M169.1 725.2H619.4" class="g1_335"/>
</g>
</svg>