<?xml version="1.0" encoding="UTF-8" standalone="no"?>
<!DOCTYPE svg PUBLIC "-//W3C//DTD SVG 1.1//EN"
"http://www.w3.org/Graphics/SVG/1.1/DTD/svg11.dtd">
<svg viewBox="0 0 714 1017" version="1.1" xmlns="http://www.w3.org/2000/svg" xmlns:xlink="http://www.w3.org/1999/xlink">
<defs>
<clipPath id="c0_159"><path d="M150.1 422.2V306.5H542V422.2Z"/></clipPath>
<clipPath id="c1_159"><path d="M150.1 743.7V628H542V743.7Z"/></clipPath>
<clipPath id="c2_159"><path d="M150.1 422.7V305.1H544.3V422.7Z"/></clipPath>
<clipPath id="c3_159"><path d="M150.1 744.2V626.6H544.3V744.2Z"/></clipPath>
<style type="text/css"><![CDATA[
.g0_159{
fill: #FFF;
}
.g1_159{
fill: none;
stroke: #000;
stroke-width: 1.145;
stroke-miterlimit: 10;
}
.g2_159{
fill: #000;
}
.g3_159{
fill: none;
stroke: #000;
stroke-width: 2.291;
stroke-miterlimit: 10;
}
.g4_159{
fill: none;
stroke: #000;
stroke-width: 0.608;
stroke-miterlimit: 10;
}
]]></style>
</defs>
<path d="M0 1017.7H717.2V-3.7H0V1017.7Z" class="g0_159"/>
<g clip-path="url(#c2_159)">
<path clip-path="url(#c0_159)" d="M150.1 306.5H542V422.2H150.1V306.5Z" class="g0_159"/>
<path d="M334 307.1h23V330H334V307.1Z" class="g0_159"/>
<path d="M334 307.1h23V330H334V307.1Z" class="g1_159"/>
<path d="M196.4 352.9h23v22.9h-23V352.9Z" class="g0_159"/>
<path d="M196.4 352.9h23v22.9h-23V352.9Z" class="g1_159"/>
<path d="M334 352.9h23v22.9H334V352.9Z" class="g0_159"/>
<path d="M334 352.9h23v22.9H334V352.9Z" class="g1_159"/>
<path d="M471.5 352.9h23v22.9h-23V352.9Z" class="g0_159"/>
<path d="M471.5 352.9h23v22.9h-23V352.9Z" class="g1_159"/>
<path d="M207.4 352.9v-1.1h1.1v1.1h-1.1Zm0 -3.4v-1.2h1.1v1.2h-1.1Zm.1 -3.6c.1 -.5 .3 -.9 .5 -1.2l1 .5c-.2 .3 -.3 .6 -.4 .9l-1.1 -.2Zm2.2 -3c.4 -.2 .7 -.5 1.1 -.6l.5 1c-.3 .2 -.7 .3 -.9 .5l-.7 -.9Zm3.3 -1.4c.5 -.1 .9 -.2 1.3 -.2l.2 1.1c-.4 .1 -.8 .1 -1.2 .2l-.3 -1.1Zm3.5 -.5c.4 0 .8 -.1 1.2 -.1v1.2c-.4 0 -.7 0 -1.1 0l-.1 -1.1Zm3.6 -.1h1.2V342h-1.2v-1.1Zm3.5 0h1.1V342h-1.1v-1.1Zm3.4 0h1.2V342H227v-1.1Zm3.5 0h1.1V342h-1.1v-1.1Zm3.4 0H235V342h-1.1v-1.1Zm3.4 0h1.2V342h-1.2v-1.1Zm3.5 0h1.1V342h-1.1v-1.1Zm3.4 0h1.2V342h-1.2v-1.1Zm3.4 0h1.2V342h-1.2v-1.1Zm3.5 0h1.1V342h-1.1v-1.1Zm3.4 0h1.2V342h-1.2v-1.1Zm3.5 0h1.1V342H258v-1.1Zm3.4 0h1.1V342h-1.1v-1.1Zm3.4 0H266V342h-1.2v-1.1Zm3.5 0h1.1V342h-1.1v-1.1Zm3.4 0h1.2V342h-1.2v-1.1Zm3.4 0h1.2V342h-1.2v-1.1Zm3.5 0h1.1V342h-1.1v-1.1Zm3.4 0h1.2V342H282v-1.1Zm3.5 0h1.1V342h-1.1v-1.1Zm3.4 0H290V342h-1.1v-1.1Zm3.4 0h1.2V342h-1.2v-1.1Zm3.5 0h1.1V342h-1.1v-1.1Zm3.4 0h1.2V342h-1.2v-1.1Zm3.4 0h1.2V342h-1.2v-1.1Zm3.5 0h1.1V342h-1.1v-1.1Zm3.4 0h1.2V342h-1.2v-1.1Zm3.5 0h1.1V342H313v-1.1Zm3.4 0h1.1V342h-1.1v-1.1Zm3.4 0H321V342h-1.2v-1.1Zm3.5 0h1.1V342h-1.1v-1.1Zm3.4 0h1.2V342h-1.2v-1.1Zm3.6 -.1c.4 0 .7 0 1.1 0l.1 1.1c-.4 0 -.8 .1 -1.2 .1v-1.2Zm3.2 -.3c.4 -.1 .8 -.2 1.2 -.3l.3 1.1c-.4 .1 -.8 .2 -1.3 .3l-.2 -1.1Zm3.1 -1c.4 -.1 .7 -.3 1 -.6l.7 1c-.4 .2 -.8 .4 -1.2 .7l-.5 -1.1Zm2.2 -2c.2 -.3 .3 -.6 .3 -1l1.1 .2c0 .5 -.2 .9 -.4 1.3l-1 -.5Zm.4 -3.2v-1.1h1.1v1.1h-1.1Zm0 -3.4V330h1.1v.9h-1.1Z" class="g2_159"/>
<path d="M344.9 352.9v-1.1h1.2v1.1m-1.2 -3.4v-1.2h1.2v1.2M344.9 346v-1.1h1.2V346m-1.2 -3.4v-1.1h1.2v1.1m-1.2 -3.4V338h1.2v1.2m-1.2 -3.5v-1.1h1.2v1.1m-1.2 -3.4v-1.1h1.2v1.1Z" class="g2_159"/>
<path d="M482.4 352.9v-1.1h1.2v1.1h-1.2Zm0 -3.4v-1.2h1.2v1.2h-1.2Zm-.1 -3.4c-.1 -.3 -.2 -.6 -.4 -.9l1 -.5c.2 .3 .4 .7 .5 1.2l-1.1 .2Zm-1.7 -2.3c-.3 -.2 -.6 -.3 -1 -.5l.5 -1c.4 .1 .8 .4 1.1 .6l-.6 .9Zm-3 -1.2c-.3 -.1 -.8 -.1 -1.2 -.2l.2 -1.1c.5 0 .9 .1 1.3 .2l-.3 1.1Zm-3.2 -.5c-.4 0 -.8 0 -1.2 0l.1 -1.2c.4 0 .8 .1 1.2 .1l-.1 1.1Zm-3.6 -.1h-1.1v-1.1h1.1V342Zm-3.4 0h-1.2v-1.1h1.2V342Zm-3.5 0h-1.1v-1.1h1.1V342Zm-3.4 0h-1.2v-1.1h1.2V342Zm-3.5 0h-1.1v-1.1H457V342Zm-3.4 0h-1.1v-1.1h1.1V342Zm-3.4 0H449v-1.1h1.2V342Zm-3.5 0h-1.1v-1.1h1.1V342Zm-3.4 0h-1.1v-1.1h1.1V342Zm-3.4 0h-1.2v-1.1h1.2V342Zm-3.5 0h-1.1v-1.1h1.1V342Zm-3.4 0h-1.2v-1.1H433V342Zm-3.5 0h-1.1v-1.1h1.1V342Zm-3.4 0H425v-1.1h1.1V342Zm-3.4 0h-1.2v-1.1h1.2V342Zm-3.5 0h-1.1v-1.1h1.1V342Zm-3.4 0h-1.1v-1.1h1.1V342Zm-3.4 0h-1.2v-1.1h1.2V342Zm-3.5 0h-1.1v-1.1h1.1V342Zm-3.4 0h-1.2v-1.1h1.2V342Zm-3.5 0h-1.1v-1.1H402V342Zm-3.4 0h-1.1v-1.1h1.1V342Zm-3.4 0H394v-1.1h1.2V342Zm-3.5 0h-1.1v-1.1h1.1V342Zm-3.4 0h-1.1v-1.1h1.1V342Zm-3.4 0h-1.2v-1.1h1.2V342Zm-3.5 0h-1.1v-1.1h1.1V342Zm-3.4 0h-1.2v-1.1H378V342Zm-3.5 0h-1.1v-1.1h1.1V342Zm-3.4 0H370v-1.1h1.1V342Zm-3.4 0h-1.2v-1.1h1.2V342Zm-3.5 0h-1.1v-1.1h1.1V342Zm-3.6 0c-.4 0 -.8 -.1 -1.2 -.1l.1 -1.1c.4 0 .8 0 1.2 0l-.1 1.2Zm-3.4 -.4c-.4 -.1 -.8 -.2 -1.2 -.3l.3 -1.1c.3 .1 .7 .2 1.1 .3l-.2 1.1Zm-3.4 -1.1c-.4 -.2 -.8 -.5 -1.1 -.7l.7 -.9c.3 .2 .6 .4 1 .6l-.6 1Zm-2.6 -2.6c-.2 -.4 -.3 -.8 -.4 -1.3l1.1 -.2c.1 .4 .2 .7 .3 1l-1 .5Zm-.5 -3.7V333h1.2v1.2h-1.2Zm0 -3.4V330h1.1v.8h-1.1Z" class="g2_159"/>
<path d="M150.7 398.8h23v22.9h-23V398.8Z" class="g0_159"/>
<path d="M150.7 398.8h23v22.9h-23V398.8Z" class="g1_159"/>
<path d="M196.4 398.8h23v22.9h-23V398.8Z" class="g0_159"/>
<path d="M196.4 398.8h23v22.9h-23V398.8Z" class="g1_159"/>
<path d="M242.4 398.8h23v22.9h-23V398.8Z" class="g0_159"/>
<path d="M242.4 398.8h23v22.9h-23V398.8Z" class="g1_159"/>
<path d="M288.2 398.8h23v22.9h-23V398.8Z" class="g0_159"/>
<path d="M288.2 398.8h23v22.9h-23V398.8Z" class="g1_159"/>
<path d="M334 398.8h23v22.9H334V398.8Z" class="g0_159"/>
<path d="M334 398.8h23v22.9H334V398.8Z" class="g1_159"/>
<path d="M379.8 398.8h23.1v22.9H379.8V398.8Z" class="g0_159"/>
<path d="M379.8 398.8h23.1v22.9H379.8V398.8Z" class="g1_159"/>
<path d="M425.7 398.8h23v22.9h-23V398.8Z" class="g0_159"/>
<path d="M425.7 398.8h23v22.9h-23V398.8Z" class="g1_159"/>
<path d="M471.5 398.8h23v22.9h-23V398.8Z" class="g0_159"/>
<path d="M471.5 398.8h23v22.9h-23V398.8Z" class="g1_159"/>
<path d="M517.3 398.8h23.1v22.9H517.3V398.8Z" class="g0_159"/>
<path d="M517.3 398.8h23.1v22.9H517.3V398.8Z" class="g1_159"/>
<path d="M207.4 398.8v-1.2h1.1v1.2m-1.1 -3.5v-1.1h1.1v1.1m-1.1 -3.4v-1.2h1.1v1.2m-1.1 -3.5v-1.1h1.1v1.1M207.4 385v-1.1h1.1V385m-1.1 -3.4v-1.2h1.1v1.2m-1.1 -3.5V377h1.1v1.1Z" class="g2_159"/>
<path d="M482.4 398.8v-1.2h1.2v1.2m-1.2 -3.5v-1.1h1.2v1.1m-1.2 -3.4v-1.2h1.2v1.2m-1.2 -3.5v-1.1h1.2v1.1M482.4 385v-1.1h1.2V385m-1.2 -3.4v-1.2h1.2v1.2m-1.2 -3.5V377h1.2v1.1Z" class="g2_159"/>
<path d="M344.9 398.8v-1.2h1.2v1.2m-1.2 -3.5v-1.1h1.2v1.1m-1.2 -3.4v-1.2h1.2v1.2m-1.2 -3.5v-1.1h1.2v1.1M344.9 385v-1.1h1.2V385m-1.2 -3.4v-1.2h1.2v1.2m-1.2 -3.5V377h1.2v1.1Z" class="g2_159"/>
<path d="M528.3 398.8v-1.2h1.1v1.2h-1.1Zm0 -3.5v-1.1h1.1v1.1h-1.1Zm-.2 -3.3c-.1 -.3 -.2 -.6 -.3 -.9l1 -.6c.2 .4 .3 .8 .4 1.2l-1.1 .3Zm-1.7 -2.3c-.3 -.2 -.6 -.4 -.9 -.6l.4 -1c.4 .2 .8 .4 1.2 .6l-.7 1Zm-2.9 -1.2c-.4 -.1 -.8 -.2 -1.2 -.3l.1 -1.1c.5 .1 .9 .2 1.3 .2l-.2 1.2Zm-3.3 -.5c-.4 -.1 -.8 -.1 -1.2 -.1l.1 -1.1c.4 0 .8 0 1.2 0l-.1 1.2Zm-3.6 -.1h-1.1v-1.2h1.1v1.2Zm-3.4 0H512v-1.2h1.2v1.2Zm-3.4 0h-1.2v-1.2h1.2v1.2Zm-3.5 0h-1.1v-1.2h1.1v1.2Zm-3.4 0h-1.2v-1.2h1.2v1.2Zm-3.6 0c-.4 0 -.8 -.1 -1.2 -.1l.1 -1.1c.4 0 .7 0 1.2 0l-.1 1.2Zm-3.4 -.3c-.4 0 -.8 -.1 -1.2 -.2l.2 -1.1c.4 .1 .7 .1 1.1 .2l-.1 1.1Zm-3.6 -.8c-.3 -.2 -.7 -.3 -1 -.5l.6 -1c.2 .2 .5 .3 .9 .4l-.5 1.1Zm-3 -2c-.3 -.4 -.5 -.7 -.6 -1.1l1 -.5c.1 .3 .3 .6 .5 .8l-.9 .8Zm-1.1 -3.6V380h1.2v1.2h-1.2Zm0 -3.5v-1.1h1.1l.1 1.1h-1.2Z" class="g2_159"/>
<path d="M436.6 398.8v-1.2h1.2v1.2h-1.2Zm0 -3.5v-1.1h1.1v1.1h-1.1Zm.1 -3.6c.1 -.4 .3 -.8 .5 -1.2l1 .6c-.2 .2 -.3 .5 -.3 .9l-1.2 -.3Zm2.2 -3c.4 -.2 .7 -.4 1.1 -.6l.5 1c-.3 .2 -.7 .4 -.9 .6l-.7 -1Zm3.3 -1.4c.4 -.1 .9 -.1 1.3 -.2l.2 1.1c-.4 .1 -.8 .2 -1.2 .3l-.3 -1.2Zm3.5 -.5c.4 0 .8 0 1.2 0v1.1c-.4 0 -.8 0 -1.1 .1l-.1 -1.2Zm3.6 -.1h1.2v1.2h-1.2v-1.2Zm3.5 0h1.1v1.2h-1.1v-1.2Zm3.4 0h1.2v1.2h-1.2v-1.2Zm3.5 0h1.1v1.2h-1.1v-1.2Zm3.4 0h1.1v1.2h-1.1v-1.2Zm3.5 0c.4 0 .8 0 1.2 0l.1 1.1c-.4 0 -.8 .1 -1.3 .1v-1.2Zm3.4 -.2c.3 -.1 .7 -.1 1 -.2l.2 1.1c-.3 .1 -.7 .2 -1.1 .2l-.1 -1.1Zm3.2 -.8c.4 -.1 .6 -.2 .9 -.3l.5 1c-.3 .1 -.6 .3 -1 .4l-.4 -1.1Zm2.6 -1.6c.2 -.3 .4 -.5 .5 -.8l1.1 .5c-.2 .4 -.4 .7 -.7 1l-.9 -.7Zm.9 -2.8v-1.2h1.1v1.2h-1.1Zm0 -3.5v-1.1h1.1v1.1h-1.1Z" class="g2_159"/>
<path d="M390.8 398.8v-1.2h1.1v1.2h-1.1Zm0 -3.5v-1.1h1.1v1.1h-1.1Zm-.2 -3.3c-.1 -.3 -.2 -.6 -.3 -.9l1 -.6c.2 .4 .3 .8 .4 1.2l-1.1 .3Zm-1.7 -2.3c-.3 -.2 -.6 -.4 -.9 -.6l.4 -1c.4 .2 .8 .4 1.2 .6l-.7 1ZM386 388.5c-.4 -.1 -.8 -.2 -1.2 -.3l.1 -1.1c.5 .1 .9 .2 1.3 .2l-.2 1.2Zm-3.3 -.5c-.4 -.1 -.8 -.1 -1.2 -.1l.1 -1.1c.4 0 .8 0 1.2 0l-.1 1.2Zm-3.6 -.1H378v-1.2h1.1v1.2Zm-3.4 0h-1.2v-1.2h1.2v1.2Zm-3.4 0h-1.2v-1.2h1.2v1.2Zm-3.5 0h-1.1v-1.2h1.1v1.2Zm-3.4 0h-1.2v-1.2h1.2v1.2Zm-3.6 0c-.4 0 -.8 -.1 -1.2 -.1l.1 -1.1c.4 0 .7 0 1.2 0l-.1 1.2Zm-3.4 -.3c-.4 0 -.8 -.1 -1.2 -.2l.2 -1.1c.4 .1 .7 .1 1.1 .2l-.1 1.1Zm-3.6 -.8c-.3 -.2 -.7 -.3 -1 -.5l.6 -1c.2 .2 .5 .3 .9 .4l-.5 1.1Zm-3 -2c-.3 -.4 -.5 -.7 -.6 -1.1l1 -.5c.1 .3 .3 .6 .5 .8l-.9 .8Zm-1.1 -3.6V380h1.2v1.2h-1.2Zm0 -3.5v-1.1h1.1l.1 1.1h-1.2Z" class="g2_159"/>
<path d="M299.1 398.8v-1.2h1.2v1.2h-1.2Zm0 -3.5v-1.1h1.1v1.1h-1.1Zm.1 -3.6c.1 -.4 .3 -.8 .5 -1.2l1 .6c-.2 .2 -.3 .5 -.3 .9l-1.2 -.3Zm2.2 -3c.4 -.2 .7 -.4 1.1 -.6l.5 1c-.3 .2 -.7 .4 -.9 .6l-.7 -1Zm3.3 -1.4c.4 -.1 .9 -.1 1.3 -.2l.2 1.1c-.4 .1 -.8 .2 -1.2 .3l-.3 -1.2Zm3.5 -.5c.4 0 .8 0 1.2 0v1.1c-.4 0 -.8 0 -1.1 .1l-.1 -1.2Zm3.6 -.1H313v1.2h-1.2v-1.2Zm3.5 0h1.1v1.2h-1.1v-1.2Zm3.4 0h1.2v1.2h-1.2v-1.2Zm3.5 0h1.1v1.2h-1.1v-1.2Zm3.4 0h1.1v1.2h-1.1v-1.2Zm3.5 0c.4 0 .8 0 1.2 0l.1 1.1c-.4 0 -.8 .1 -1.3 .1v-1.2Zm3.4 -.2c.3 -.1 .7 -.1 1 -.2l.2 1.1c-.3 .1 -.7 .2 -1.1 .2l-.1 -1.1Zm3.2 -.8c.4 -.1 .6 -.2 .9 -.3l.5 1c-.3 .1 -.6 .3 -1 .4l-.4 -1.1Zm2.6 -1.6c.2 -.3 .4 -.5 .5 -.8l1.1 .5c-.2 .4 -.4 .7 -.7 1l-.9 -.7Zm.9 -2.8v-1.2h1.1v1.2h-1.1Zm0 -3.5v-1.1h1.1v1.1h-1.1Z" class="g2_159"/>
<path d="M161.6 398.8v-1.2h1.2v1.2h-1.2Zm0 -3.5v-1.1h1.1v1.1h-1.1Zm.1 -3.6c.1 -.4 .3 -.8 .5 -1.2l1 .6c-.2 .2 -.3 .5 -.3 .9l-1.2 -.3Zm2.2 -3c.4 -.2 .7 -.4 1.1 -.6l.5 1c-.3 .2 -.7 .4 -.9 .6l-.7 -1Zm3.3 -1.4c.4 -.1 .9 -.1 1.3 -.2l.2 1.1c-.4 .1 -.8 .2 -1.2 .3l-.3 -1.2Zm3.5 -.5c.4 0 .8 0 1.2 0v1.1c-.4 0 -.8 0 -1.1 .1l-.1 -1.2Zm3.6 -.1h1.2v1.2h-1.2v-1.2Zm3.5 0h1.1v1.2h-1.1v-1.2Zm3.4 0h1.2v1.2h-1.2v-1.2Zm3.5 0h1.1v1.2h-1.1v-1.2Zm3.4 0h1.1v1.2h-1.1v-1.2Zm3.5 0c.4 0 .8 0 1.2 0l.1 1.1c-.4 0 -.8 .1 -1.3 .1v-1.2Zm3.4 -.2c.3 -.1 .7 -.1 1 -.2l.3 1.1c-.4 .1 -.8 .2 -1.2 .2l-.1 -1.1Zm3.2 -.8c.3 -.1 .6 -.3 .9 -.4l.5 1c-.3 .2 -.6 .3 -1 .5l-.4 -1.1Zm2.6 -1.7c.2 -.2 .3 -.5 .5 -.8l1 .5c-.2 .3 -.4 .7 -.7 1l-.8 -.7Zm.8 -2.9V380h1.1v1.1h-1.1Zm0 -3.4v-1.1h1.1v1.1h-1.1Z" class="g2_159"/>
<path d="M253.4 398.8v-1.2h1.1v1.2h-1.1Zm0 -3.5v-1.1h1.1v1.1h-1.1Zm-.2 -3.3c0 -.3 -.2 -.6 -.3 -.9l1 -.6c.2 .4 .3 .8 .4 1.2l-1.1 .3Zm-1.7 -2.3c-.3 -.2 -.6 -.4 -.9 -.6l.4 -1c.5 .2 .8 .4 1.2 .6l-.7 1Zm-2.9 -1.2c-.4 -.1 -.8 -.2 -1.2 -.3l.2 -1.1c.4 .1 .8 .1 1.2 .2l-.2 1.2Zm-3.3 -.5c-.4 -.1 -.7 -.1 -1.1 -.1v-1.1c.4 0 .8 0 1.2 0l-.1 1.2Zm-3.6 -.1h-1.1v-1.2h1.1v1.2Zm-3.4 0h-1.1v-1.2h1.1v1.2Zm-3.4 0h-1.2v-1.2h1.2v1.2Zm-3.5 0h-1.1v-1.2h1.1v1.2Zm-3.4 0h-1.2v-1.2H228v1.2Zm-3.5 0c-.5 0 -.9 -.1 -1.3 -.1l.1 -1.1c.4 0 .8 0 1.2 0v1.2Zm-3.6 -.3c-.3 0 -.7 -.1 -1 -.1l.2 -1.2c.3 .1 .6 .2 1 .2l-.2 1.1Zm-3.5 -.7c-.3 -.2 -.7 -.3 -1 -.5l.5 -1c.3 .1 .6 .3 .9 .4l-.4 1.1Zm-3 -2c-.3 -.3 -.6 -.6 -.7 -1l1 -.5c.1 .3 .3 .5 .5 .8l-.8 .7Zm-1.3 -3.5v-1.2h1.2v1.2h-1.2Zm0 -3.4v-1.2h1.2v1.1l-1.2 .1Z" class="g2_159"/>
<path d="M334 318.5H219.4c-7.6 0 -11.4 3.9 -11.4 11.5l-.1 17.8" class="g3_159"/>
<path d="M207.9 350.4l-1.1 -3.5l1.1 .9l1.2 -.9l-1.2 3.5Z" class="g2_159"/>
<path d="M207.9 350.4l-1.1 -3.5l1.1 .9l1.2 -.9l-1.2 3.5Zm11.5 14h23.1c7.6 0 11.4 3.8 11.4 11.4v17.8" class="g3_159"/>
<path d="M253.9 396.2l-1.1 -3.4l1.1 .8l1.2 -.8l-1.2 3.4Z" class="g2_159"/>
<path d="M253.9 396.2l-1.1 -3.4l1.1 .8l1.2 -.8l-1.2 3.4Z" class="g3_159"/>
</g>
<g clip-path="url(#c3_159)">
<path clip-path="url(#c1_159)" d="M150.1 628H542V743.7H150.1V628Z" class="g0_159"/>
<path d="M334 628.6h23v22.9H334V628.6Z" class="g0_159"/>
<path d="M334 628.6h23v22.9H334V628.6Z" class="g1_159"/>
<path d="M196.4 674.4h23v22.9h-23V674.4Z" class="g0_159"/>
<path d="M196.4 674.4h23v22.9h-23V674.4Z" class="g1_159"/>
<path d="M334 674.4h23v22.9H334V674.4Z" class="g0_159"/>
<path d="M334 674.4h23v22.9H334V674.4Z" class="g1_159"/>
<path d="M471.5 674.4h23v22.9h-23V674.4Z" class="g0_159"/>
<path d="M471.5 674.4h23v22.9h-23V674.4Z" class="g1_159"/>
<path d="M207.4 674.4v-1.2h1.1v1.2h-1.1Zm0 -3.5v-1.1h1.1V671l-1.1 -.1Zm.1 -3.6c.1 -.4 .3 -.8 .5 -1.2l1 .6c-.2 .3 -.3 .6 -.4 .9l-1.1 -.3Zm2.2 -3c.4 -.2 .7 -.4 1.1 -.6l.5 1.1c-.3 .1 -.7 .3 -.9 .5l-.7 -1ZM213 663c.5 -.1 .9 -.2 1.3 -.3l.2 1.1c-.4 .1 -.8 .2 -1.2 .3L213 663Zm3.5 -.5c.4 -.1 .8 -.1 1.2 -.1v1.1c-.4 .1 -.7 .1 -1.1 .1l-.1 -1.1Zm3.6 -.1h1.2v1.1h-1.2v-1.1Zm3.5 0h1.1v1.1h-1.1v-1.1Zm3.4 0h1.2v1.1H227v-1.1Zm3.5 0h1.1v1.1h-1.1v-1.1Zm3.4 0H235v1.1h-1.1v-1.1Zm3.4 0h1.2v1.1h-1.2v-1.1Zm3.5 0h1.1v1.1h-1.1v-1.1Zm3.4 0h1.2v1.1h-1.2v-1.1Zm3.4 0h1.2v1.1h-1.2v-1.1Zm3.5 0h1.1v1.1h-1.1v-1.1Zm3.4 0h1.2v1.1h-1.2v-1.1Zm3.5 0h1.1v1.1H258v-1.1Zm3.4 0h1.1v1.1h-1.1v-1.1Zm3.4 0H266v1.1h-1.2v-1.1Zm3.5 0h1.1v1.1h-1.1v-1.1Zm3.4 0h1.2v1.1h-1.2v-1.1Zm3.4 0h1.2v1.1h-1.2v-1.1Zm3.5 0h1.1v1.1h-1.1v-1.1Zm3.4 0h1.2v1.1H282v-1.1Zm3.5 0h1.1v1.1h-1.1v-1.1Zm3.4 0H290v1.1h-1.1v-1.1Zm3.4 0h1.2v1.1h-1.2v-1.1Zm3.5 0h1.1v1.1h-1.1v-1.1Zm3.4 0h1.2v1.1h-1.2v-1.1Zm3.4 0h1.2v1.1h-1.2v-1.1Zm3.5 0h1.1v1.1h-1.1v-1.1Zm3.4 0h1.2v1.1h-1.2v-1.1Zm3.5 0h1.1v1.1H313v-1.1Zm3.4 0h1.1v1.1h-1.1v-1.1Zm3.4 0H321v1.1h-1.2v-1.1Zm3.5 0h1.1v1.1h-1.1v-1.1Zm3.4 0h1.2v1.1h-1.2v-1.1Zm3.6 -.1c.4 0 .7 0 1.1 -.1l.1 1.2c-.4 0 -.8 0 -1.2 .1v-1.2Zm3.2 -.3c.4 -.1 .8 -.2 1.2 -.3l.3 1.1c-.4 .1 -.8 .2 -1.3 .3l-.2 -1.1Zm3.1 -1c.4 -.2 .7 -.4 1 -.6l.7 .9c-.4 .3 -.8 .5 -1.2 .7l-.5 -1Zm2.2 -2.1c.2 -.3 .3 -.6 .3 -.9l1.1 .2c0 .4 -.2 .8 -.4 1.2l-1 -.5Zm.4 -3.1v-1.2h1.1v1.2h-1.1Zm0 -3.5v-.8h1.1v.8h-1.1Z" class="g2_159"/>
<path d="M344.9 674.4v-1.2h1.2v1.2m-1.2 -3.5v-1.1h1.2v1.1m-1.2 -3.4v-1.1h1.2v1.1m-1.2 -3.4v-1.2h1.2v1.2m-1.2 -3.5v-1.1h1.2v1.1m-1.2 -3.4v-1.1h1.2v1.1m-1.2 -3.4v-1.2h1.2v1.2Z" class="g2_159"/>
<path d="M482.4 674.4v-1.2h1.2v1.2h-1.2Zm0 -3.4v-1.2h1.2v1.1l-1.2 .1Zm-.1 -3.4c-.1 -.3 -.2 -.6 -.4 -.9l1 -.6c.2 .4 .4 .8 .5 1.2l-1.1 .3Zm-1.7 -2.3c-.3 -.2 -.6 -.4 -1 -.5l.5 -1.1c.4 .2 .8 .4 1.1 .6l-.6 1Zm-3 -1.2c-.3 -.1 -.8 -.2 -1.2 -.3l.2 -1.1c.5 .1 .9 .2 1.3 .3l-.3 1.1Zm-3.2 -.5c-.4 0 -.8 0 -1.2 -.1l.1 -1.1c.4 0 .8 0 1.2 .1l-.1 1.1Zm-3.6 -.1h-1.1v-1.1h1.1v1.1Zm-3.4 0h-1.2v-1.1h1.2v1.1Zm-3.5 0h-1.1v-1.1h1.1v1.1Zm-3.4 0h-1.2v-1.1h1.2v1.1Zm-3.5 0h-1.1v-1.1H457v1.1Zm-3.4 0h-1.1v-1.1h1.1v1.1Zm-3.4 0H449v-1.1h1.2v1.1Zm-3.5 0h-1.1v-1.1h1.1v1.1Zm-3.4 0h-1.1v-1.1h1.1v1.1Zm-3.4 0h-1.2v-1.1h1.2v1.1Zm-3.5 0h-1.1v-1.1h1.1v1.1Zm-3.4 0h-1.2v-1.1H433v1.1Zm-3.5 0h-1.1v-1.1h1.1v1.1Zm-3.4 0H425v-1.1h1.1v1.1Zm-3.4 0h-1.2v-1.1h1.2v1.1Zm-3.5 0h-1.1v-1.1h1.1v1.1Zm-3.4 0h-1.1v-1.1h1.1v1.1Zm-3.4 0h-1.2v-1.1h1.2v1.1Zm-3.5 0h-1.1v-1.1h1.1v1.1Zm-3.4 0h-1.2v-1.1h1.2v1.1Zm-3.5 0h-1.1v-1.1H402v1.1Zm-3.4 0h-1.1v-1.1h1.1v1.1Zm-3.4 0H394v-1.1h1.2v1.1Zm-3.5 0h-1.1v-1.1h1.1v1.1Zm-3.4 0h-1.1v-1.1h1.1v1.1Zm-3.4 0h-1.2v-1.1h1.2v1.1Zm-3.5 0h-1.1v-1.1h1.1v1.1Zm-3.4 0h-1.2v-1.1H378v1.1Zm-3.5 0h-1.1v-1.1h1.1v1.1Zm-3.4 0H370v-1.1h1.1v1.1Zm-3.4 0h-1.2v-1.1h1.2v1.1Zm-3.5 0h-1.1v-1.1h1.1v1.1Zm-3.6 -.1c-.4 0 -.8 0 -1.2 0l.1 -1.2c.4 .1 .8 .1 1.2 .1l-.1 1.1Zm-3.4 -.3c-.4 -.1 -.8 -.2 -1.2 -.3l.3 -1.1c.3 .1 .7 .2 1.1 .2l-.2 1.2ZM353.8 662c-.4 -.3 -.8 -.5 -1.1 -.7l.7 -1c.3 .3 .6 .5 1 .6l-.6 1.1Zm-2.6 -2.7c-.2 -.4 -.3 -.8 -.4 -1.2l1.1 -.2c.1 .3 .2 .7 .3 1l-1 .4Zm-.5 -3.6v-1.2h1.2v1.2h-1.2Zm0 -3.5v-.7h1.1v.7h-1.1Z" class="g2_159"/>
<path d="M150.7 720.2h23v22.9h-23V720.2Z" class="g0_159"/>
<path d="M150.7 720.2h23v22.9h-23V720.2Z" class="g1_159"/>
<path d="M196.4 720.2h23v22.9h-23V720.2Z" class="g0_159"/>
<path d="M196.4 720.2h23v22.9h-23V720.2Z" class="g1_159"/>
<path d="M242.4 720.2h23v22.9h-23V720.2Z" class="g0_159"/>
<path d="M242.4 720.2h23v22.9h-23V720.2Z" class="g1_159"/>
<path d="M288.2 720.2h23v22.9h-23V720.2Z" class="g0_159"/>
<path d="M288.2 720.2h23v22.9h-23V720.2Z" class="g1_159"/>
<path d="M334 720.2h23v22.9H334V720.2Z" class="g0_159"/>
<path d="M334 720.2h23v22.9H334V720.2Z" class="g1_159"/>
<path d="M379.8 720.2h23.1v22.9H379.8V720.2Z" class="g0_159"/>
<path d="M379.8 720.2h23.1v22.9H379.8V720.2Z" class="g1_159"/>
<path d="M425.7 720.2h23v22.9h-23V720.2Z" class="g0_159"/>
<path d="M425.7 720.2h23v22.9h-23V720.2Z" class="g1_159"/>
<path d="M471.5 720.2h23v22.9h-23V720.2Z" class="g0_159"/>
<path d="M471.5 720.2h23v22.9h-23V720.2Z" class="g1_159"/>
<path d="M517.3 720.2h23.1v22.9H517.3V720.2Z" class="g0_159"/>
<path d="M517.3 720.2h23.1v22.9H517.3V720.2Z" class="g1_159"/>
<path d="M207.4 720.2v-1.1h1.1v1.1m-1.1 -3.4v-1.2h1.1v1.2m-1.1 -3.5v-1.1h1.1v1.1m-1.1 -3.4v-1.1h1.1v1.1m-1.1 -3.4v-1.2h1.1v1.2M207.4 703v-1.1h1.1V703m-1.1 -3.4v-1.2h1.1v1.2Z" class="g2_159"/>
<path d="M482.4 720.2v-1.1h1.2v1.1m-1.2 -3.4v-1.2h1.2v1.2m-1.2 -3.5v-1.1h1.2v1.1m-1.2 -3.4v-1.1h1.2v1.1m-1.2 -3.4v-1.2h1.2v1.2M482.4 703v-1.1h1.2V703m-1.2 -3.4v-1.2h1.2v1.2Z" class="g2_159"/>
<path d="M344.9 720.2v-1.1h1.2v1.1m-1.2 -3.4v-1.2h1.2v1.2m-1.2 -3.5v-1.1h1.2v1.1m-1.2 -3.4v-1.1h1.2v1.1m-1.2 -3.4v-1.2h1.2v1.2M344.9 703v-1.1h1.2V703m-1.2 -3.4v-1.2h1.2v1.2Z" class="g2_159"/>
<path d="M528.3 720.2v-1.1h1.1v1.1h-1.1Zm0 -3.4v-1.2h1.1v1.2h-1.1Zm-.2 -3.4c-.1 -.3 -.2 -.6 -.3 -.9l1 -.5c.2 .3 .3 .7 .4 1.2l-1.1 .2Zm-1.7 -2.3c-.3 -.2 -.6 -.3 -.9 -.5l.4 -1c.4 .1 .8 .3 1.2 .6l-.7 .9Zm-2.9 -1.2c-.4 -.1 -.8 -.1 -1.2 -.2l.1 -1.1c.5 0 .9 .1 1.3 .2l-.2 1.1Zm-3.3 -.5c-.4 0 -.8 0 -1.2 0l.1 -1.2c.4 0 .8 .1 1.2 .1l-.1 1.1Zm-3.6 -.1h-1.1v-1.1h1.1v1.1Zm-3.4 0H512v-1.1h1.2v1.1Zm-3.4 0h-1.2v-1.1h1.2v1.1Zm-3.5 0h-1.1v-1.1h1.1v1.1Zm-3.4 0h-1.2v-1.1h1.2v1.1Zm-3.6 0c-.4 0 -.8 0 -1.2 0l.1 -1.2c.4 .1 .7 .1 1.2 .1l-.1 1.1Zm-3.4 -.2c-.4 -.1 -.8 -.1 -1.2 -.2l.2 -1.1c.4 0 .7 .1 1.1 .1l-.1 1.2Zm-3.6 -.9c-.3 -.1 -.7 -.2 -1 -.4l.6 -1c.2 .1 .5 .3 .9 .4l-.5 1Zm-3 -2c-.3 -.3 -.5 -.7 -.6 -1l1 -.5c.1 .3 .3 .5 .5 .8l-.9 .7Zm-1.1 -3.6v-1.1h1.2v1.1h-1.2Zm0 -3.4v-1.1l1.1 -.1l.1 1.2h-1.2Z" class="g2_159"/>
<path d="M436.6 720.2v-1.1h1.2v1.1h-1.2Zm0 -3.4v-1.2h1.1v1.2h-1.1Zm.1 -3.6c.1 -.5 .3 -.9 .5 -1.2l1 .5c-.2 .3 -.3 .6 -.3 .9l-1.2 -.2Zm2.2 -3c.4 -.3 .7 -.5 1.1 -.7l.5 1.1c-.3 .1 -.7 .3 -.9 .5l-.7 -.9Zm3.3 -1.4c.4 -.1 .9 -.2 1.3 -.3l.2 1.2c-.4 0 -.8 .1 -1.2 .2l-.3 -1.1Zm3.5 -.5c.4 0 .8 -.1 1.2 -.1v1.2c-.4 0 -.8 0 -1.1 0l-.1 -1.1Zm3.6 -.1h1.2v1.1h-1.2v-1.1Zm3.5 0h1.1v1.1h-1.1v-1.1Zm3.4 0h1.2v1.1h-1.2v-1.1Zm3.5 0h1.1v1.1h-1.1v-1.1Zm3.4 0h1.1v1.1h-1.1v-1.1Zm3.5 0c.4 0 .8 0 1.2 -.1l.1 1.2c-.4 0 -.8 0 -1.3 0v-1.1Zm3.4 -.3c.3 0 .7 -.1 1 -.1l.2 1.1c-.3 .1 -.7 .1 -1.1 .2l-.1 -1.2Zm3.2 -.7c.4 -.1 .6 -.2 .9 -.4l.5 1c-.3 .2 -.6 .3 -1 .5l-.4 -1.1Zm2.6 -1.7c.2 -.2 .4 -.5 .5 -.7l1.1 .4c-.2 .4 -.4 .8 -.7 1.1l-.9 -.8Zm.9 -2.8v-1.1h1.1v1.1h-1.1Zm0 -3.4v-1.2h1.1v1.2h-1.1Z" class="g2_159"/>
<path d="M390.8 720.2v-1.1h1.1v1.1h-1.1Zm0 -3.4v-1.2h1.1v1.2h-1.1Zm-.2 -3.4c-.1 -.3 -.2 -.6 -.3 -.9l1 -.5c.2 .3 .3 .7 .4 1.2l-1.1 .2Zm-1.7 -2.3c-.3 -.2 -.6 -.3 -.9 -.5l.4 -1c.4 .1 .8 .3 1.2 .6l-.7 .9ZM386 709.9c-.4 -.1 -.8 -.1 -1.2 -.2l.1 -1.1c.5 0 .9 .1 1.3 .2l-.2 1.1Zm-3.3 -.5c-.4 0 -.8 0 -1.2 0l.1 -1.2c.4 0 .8 .1 1.2 .1l-.1 1.1Zm-3.6 -.1H378v-1.1h1.1v1.1Zm-3.4 0h-1.2v-1.1h1.2v1.1Zm-3.4 0h-1.2v-1.1h1.2v1.1Zm-3.5 0h-1.1v-1.1h1.1v1.1Zm-3.4 0h-1.2v-1.1h1.2v1.1Zm-3.6 0c-.4 0 -.8 0 -1.2 0l.1 -1.2c.4 .1 .7 .1 1.2 .1l-.1 1.1Zm-3.4 -.2c-.4 -.1 -.8 -.1 -1.2 -.2l.2 -1.1c.4 0 .7 .1 1.1 .1l-.1 1.2Zm-3.6 -.9c-.3 -.1 -.7 -.2 -1 -.4l.6 -1c.2 .1 .5 .3 .9 .4l-.5 1Zm-3 -2c-.3 -.3 -.5 -.7 -.6 -1l1 -.5c.1 .3 .3 .5 .5 .8l-.9 .7Zm-1.1 -3.6v-1.1h1.2v1.1h-1.2Zm0 -3.4v-1.1l1.1 -.1l.1 1.2h-1.2Z" class="g2_159"/>
<path d="M299.1 720.2v-1.1h1.2v1.1h-1.2Zm0 -3.4v-1.2h1.1v1.2h-1.1Zm.1 -3.6c.1 -.5 .3 -.9 .5 -1.2l1 .5c-.2 .3 -.3 .6 -.3 .9l-1.2 -.2Zm2.2 -3c.4 -.3 .7 -.5 1.1 -.7l.5 1.1c-.3 .1 -.7 .3 -.9 .5l-.7 -.9Zm3.3 -1.4c.4 -.1 .9 -.2 1.3 -.3l.2 1.2c-.4 0 -.8 .1 -1.2 .2l-.3 -1.1Zm3.5 -.5c.4 0 .8 -.1 1.2 -.1v1.2c-.4 0 -.8 0 -1.1 0l-.1 -1.1Zm3.6 -.1H313v1.1h-1.2v-1.1Zm3.5 0h1.1v1.1h-1.1v-1.1Zm3.4 0h1.2v1.1h-1.2v-1.1Zm3.5 0h1.1v1.1h-1.1v-1.1Zm3.4 0h1.1v1.1h-1.1v-1.1Zm3.5 0c.4 0 .8 0 1.2 -.1l.1 1.2c-.4 0 -.8 0 -1.3 0v-1.1Zm3.4 -.3c.3 0 .7 -.1 1 -.1l.2 1.1c-.3 .1 -.7 .1 -1.1 .2l-.1 -1.2Zm3.2 -.7c.4 -.1 .6 -.2 .9 -.4l.5 1c-.3 .2 -.6 .3 -1 .5l-.4 -1.1Zm2.6 -1.7c.2 -.2 .4 -.5 .5 -.7l1.1 .4c-.2 .4 -.4 .8 -.7 1.1l-.9 -.8Zm.9 -2.8v-1.1h1.1v1.1h-1.1Zm0 -3.4v-1.2h1.1v1.2h-1.1Z" class="g2_159"/>
<path d="M161.6 720.2v-1.1h1.2v1.1h-1.2Zm0 -3.4v-1.2h1.1v1.2h-1.1Zm.1 -3.6c.1 -.5 .3 -.9 .5 -1.2l1 .5c-.2 .3 -.3 .6 -.3 .9l-1.2 -.2Zm2.2 -3c.4 -.3 .7 -.5 1.1 -.7l.5 1.1c-.3 .1 -.7 .3 -.9 .5l-.7 -.9Zm3.3 -1.4c.4 -.1 .9 -.2 1.3 -.3l.2 1.2c-.4 0 -.8 .1 -1.2 .2l-.3 -1.1Zm3.5 -.5c.4 0 .8 -.1 1.2 -.1v1.2c-.4 0 -.8 0 -1.1 0l-.1 -1.1Zm3.6 -.1h1.2v1.1h-1.2v-1.1Zm3.5 0h1.1v1.1h-1.1v-1.1Zm3.4 0h1.2v1.1h-1.2v-1.1Zm3.5 0h1.1v1.1h-1.1v-1.1Zm3.4 0h1.1v1.1h-1.1v-1.1Zm3.5 0c.4 0 .8 0 1.2 -.1l.1 1.2c-.4 0 -.8 0 -1.3 0v-1.1Zm3.4 -.3c.3 0 .7 -.1 1 -.1l.3 1.1c-.4 .1 -.8 .1 -1.2 .2l-.1 -1.2Zm3.2 -.7c.3 -.2 .6 -.3 .9 -.4l.5 1c-.3 .1 -.6 .3 -1 .4l-.4 -1Zm2.6 -1.7c.2 -.3 .3 -.5 .5 -.8l1 .4c-.2 .4 -.4 .8 -.7 1.1l-.8 -.7Zm.8 -2.9v-1.1h1.1v1.1h-1.1Zm0 -3.4V698h1.1v1.2h-1.1Z" class="g2_159"/>
<path d="M253.4 720.2v-1.1h1.1v1.1h-1.1Zm0 -3.4v-1.2h1.1v1.2h-1.1Zm-.2 -3.4c0 -.3 -.2 -.6 -.3 -.9l1 -.5c.2 .3 .3 .7 .4 1.2l-1.1 .2Zm-1.7 -2.3c-.3 -.2 -.6 -.3 -.9 -.5l.4 -1c.5 .1 .8 .3 1.2 .6l-.7 .9Zm-2.9 -1.2c-.4 -.1 -.8 -.1 -1.2 -.2l.2 -1.1c.4 0 .8 .1 1.2 .2l-.2 1.1Zm-3.3 -.5c-.4 0 -.7 0 -1.1 0v-1.2c.4 0 .8 .1 1.2 .1l-.1 1.1Zm-3.6 -.1h-1.1v-1.1h1.1v1.1Zm-3.4 0h-1.1v-1.1h1.1v1.1Zm-3.4 0h-1.2v-1.1h1.2v1.1Zm-3.5 0h-1.1v-1.1h1.1v1.1Zm-3.4 0h-1.2v-1.1H228v1.1Zm-3.5 0c-.5 0 -.9 0 -1.3 0l.1 -1.2c.4 .1 .8 .1 1.2 .1v1.1Zm-3.6 -.2c-.3 0 -.7 -.1 -1 -.2l.2 -1.1c.3 .1 .6 .1 1 .2l-.2 1.1Zm-3.5 -.8c-.3 -.1 -.7 -.2 -1 -.4l.5 -1c.3 .1 .6 .2 .9 .3l-.4 1.1Zm-3 -1.9c-.3 -.3 -.6 -.7 -.7 -1l1 -.5c.1 .2 .3 .5 .5 .7l-.8 .8Zm-1.3 -3.5v-1.2h1.2v1.1l-1.2 .1Zm0 -3.5v-1.1h1.2v1.1h-1.2Z" class="g2_159"/>
<path d="M334 640H219.4c-7.6 0 -11.4 3.8 -11.4 11.5l-.1 17.7" class="g3_159"/>
<path d="M207.9 671.8l-1.1 -3.4l1.1 .8l1.2 -.8l-1.2 3.4Z" class="g2_159"/>
<path d="M207.9 671.8l-1.1 -3.4l1.1 .8l1.2 -.8l-1.2 3.4Zm11.5 14h23.1c7.6 0 11.4 3.9 11.4 11.5v17.8" class="g3_159"/>
<path d="M253.9 717.7l-1.1 -3.5l1.1 .9l1.2 -.9l-1.2 3.5Z" class="g2_159"/>
<path d="M253.9 717.7l-1.1 -3.5l1.1 .9l1.2 -.9l-1.2 3.5Zm5.8 14h74.9" class="g3_159"/>
<path d="M337.2 731.7l-3.4 1.1l.8 -1.1l-.8 -1.2l3.4 1.2Z" class="g2_159"/>
<path d="M337.2 731.7l-3.4 1.1l.8 -1.1l-.8 -1.2l3.4 1.2Z" class="g3_159"/>
<path d="M259.7 731.7c0 .7 -.2 1.5 -.5 2.2c-.3 .7 -.7 1.3 -1.2 1.8c-.5 .6 -1.2 1 -1.9 1.3c-.7 .3 -1.4 .4 -2.2 .4c-.7 0 -1.4 -.1 -2.1 -.4c-.8 -.3 -1.4 -.7 -1.9 -1.3c-.5 -.5 -1 -1.1 -1.3 -1.8c-.2 -.7 -.4 -1.5 -.4 -2.2c0 -.8 .2 -1.5 .4 -2.2c.3 -.7 .8 -1.3 1.3 -1.9c.5 -.5 1.1 -.9 1.9 -1.2c.7 -.3 1.4 -.5 2.1 -.5c.8 0 1.5 .2 2.2 .5c.7 .3 1.4 .7 1.9 1.2c.5 .6 .9 1.2 1.2 1.9c.3 .7 .5 1.4 .5 2.2Z" class="g2_159"/>
<path d="M351.2 731.7c0 .7 -.1 1.5 -.4 2.2c-.3 .7 -.7 1.3 -1.2 1.8c-.6 .6 -1.2 1 -1.9 1.3c-.7 .3 -1.4 .4 -2.2 .4c-.7 0 -1.5 -.1 -2.2 -.4c-.7 -.3 -1.3 -.7 -1.8 -1.3c-.6 -.5 -1 -1.1 -1.3 -1.8c-.3 -.7 -.4 -1.5 -.4 -2.2c0 -.8 .1 -1.5 .4 -2.2c.3 -.7 .7 -1.3 1.3 -1.9c.5 -.5 1.1 -.9 1.8 -1.2c.7 -.3 1.5 -.5 2.2 -.5c.8 0 1.5 .2 2.2 .5c.7 .3 1.3 .7 1.9 1.2c.5 .6 .9 1.2 1.2 1.9c.3 .7 .4 1.4 .4 2.2Z" class="g2_159"/>
</g>
<path d="M65 849.8H174.6" class="g4_159"/>
</svg>