<?xml version="1.0" encoding="UTF-8" standalone="no"?>
<!DOCTYPE svg PUBLIC "-//W3C//DTD SVG 1.1//EN"
"http://www.w3.org/Graphics/SVG/1.1/DTD/svg11.dtd">
<svg viewBox="0 0 714 1017" version="1.1" xmlns="http://www.w3.org/2000/svg" xmlns:xlink="http://www.w3.org/1999/xlink">
<defs>
<clipPath id="c0_100"><path d="M92.4 248.1V97H643.5V248.1Z"/></clipPath>
<clipPath id="c1_100"><path d="M138.2 556.4V521.2H597.7v35.2Z"/></clipPath>
<clipPath id="c2_100"><path d="M138.2 757.1v-81H597.7v81Z"/></clipPath>
<clipPath id="c3_100"><path d="M92.4 248.1V96.8H643.9V248.1Z"/></clipPath>
<clipPath id="c4_100"><path d="M138.2 556.4V519.7H598.1v36.7Z"/></clipPath>
<clipPath id="c5_100"><path d="M138.2 757.1V674.6H598.1v82.5Z"/></clipPath>
<style type="text/css"><![CDATA[
.g0_100{
fill: #FFF;
}
.g1_100{
fill: none;
stroke: #000;
stroke-width: 2.291;
stroke-miterlimit: 10;
}
.g2_100{
fill: none;
stroke: #000;
stroke-width: 1.145;
stroke-miterlimit: 10;
}
.g3_100{
fill: #000;
}
]]></style>
</defs>
<path d="M0 1017.7H717.2V-3.7H0V1017.7Z" class="g0_100"/>
<g clip-path="url(#c3_100)">
<path clip-path="url(#c0_100)" d="M92.4 97H643.5V248.3H92.4V97Z" class="g0_100"/>
<path d="M229.9 200.7H378.8v45.8H229.9V200.7Zm148.9 0H459v45.8H378.8V200.7Zm80.2 0H642.4v45.8H459V200.7Zm-339.1 0h110v45.8h-110V200.7Z" class="g1_100"/>
<path d="M93 97.6H322.1v34.3H93V97.6Z" class="g2_100"/>
<g clip-path="url(#c0_100)">
<image preserveAspectRatio="none" x="104" y="97" width="34" height="34" xlink:href="img/1.png"/>
<image preserveAspectRatio="none" x="161" y="97" width="35" height="34" xlink:href="img/2.png"/>
<image preserveAspectRatio="none" x="218" y="97" width="35" height="34" xlink:href="img/3.png"/>
<image preserveAspectRatio="none" x="276" y="97" width="34" height="34" xlink:href="img/4.png"/>
</g>
<path d="M119.9 131.9v23c0 7.6 0 15.2 0 22.9v15.6" class="g2_100"/>
<path d="M119.9 199.4l-2.7 -8l2.7 2l2.7 -2l-2.7 8Z" class="g3_100"/>
<path d="M119.9 199.4l-2.7 -8l2.7 2l2.7 -2l-2.7 8ZM180 131.9v34.4c0 7.7 3.9 11.5 11.5 11.5h27c7.6 0 11.4 2.6 11.4 7.8v7.8" class="g2_100"/>
<path d="M229.9 199.4l-2.7 -8l2.7 2l2.7 -2l-2.7 8Z" class="g3_100"/>
<path d="M229.9 199.4l-2.7 -8l2.7 2l2.7 -2l-2.7 8Zm6.3 -67.5v23c0 7.6 3.8 11.4 11.4 11.4H367.4c7.7 0 11.5 3.8 11.5 11.5l-.1 15.6" class="g2_100"/>
<path d="M378.8 199.4l-2.6 -8l2.6 2l2.7 -2l-2.7 8Z" class="g3_100"/>
<path d="M378.8 199.4l-2.6 -8l2.6 2l2.7 -2l-2.7 8ZM293.5 131.9v11.5c0 7.6 3.8 11.5 11.4 11.5H447.6c7.7 0 11.5 3.8 11.5 11.4v27.1" class="g2_100"/>
<path d="M459 199.4l-2.6 -8l2.7 2l2.6 -2l-2.7 8Z" class="g3_100"/>
<path d="M459 199.4l-2.6 -8l2.7 2l2.6 -2l-2.7 8Z" class="g2_100"/>
</g>
<g clip-path="url(#c4_100)">
<g clip-path="url(#c1_100)">
<path d="M138.2 521.2H597.7v35.5H138.2V521.2Z" class="g0_100"/>
<path d="M138.8 529c0 -4 7.7 -7.2 17.2 -7.2c4.5 0 8.9 .7 12.1 2.1c3.2 1.4 5.1 3.2 5.1 5.1v19.9c0 4 -7.7 7.2 -17.2 7.2c-9.5 0 -17.2 -3.2 -17.2 -7.2V529Zm34.4 0c0 4 -7.7 7.3 -17.2 7.3c-9.5 0 -17.2 -3.3 -17.2 -7.3m96.8 -7.2H317c.6 0 1.3 .1 1.9 .4c.7 .2 1.2 .6 1.7 1.1c.5 .5 .9 1 1.1 1.6c.3 .7 .4 1.3 .4 2V551c0 .7 -.1 1.3 -.4 2c-.2 .6 -.6 1.1 -1.1 1.6c-.5 .5 -1 .9 -1.7 1.1c-.6 .3 -1.3 .4 -1.9 .4H235.6c-.7 0 -1.3 -.1 -2 -.4c-.6 -.2 -1.2 -.6 -1.6 -1.1c-.5 -.5 -.9 -1 -1.2 -1.6c-.2 -.7 -.4 -1.3 -.4 -2V526.9c0 -.7 .2 -1.3 .4 -2c.3 -.6 .7 -1.1 1.2 -1.6c.4 -.5 1 -.9 1.6 -1.1c.7 -.3 1.3 -.4 2 -.4Zm136.4 0h81.3c.7 0 1.4 .1 2 .4c.6 .2 1.2 .6 1.7 1.1c.4 .5 .8 1 1.1 1.6c.2 .7 .4 1.3 .4 2V551c0 .7 -.2 1.3 -.4 2c-.3 .6 -.7 1.1 -1.1 1.6c-.5 .5 -1.1 .9 -1.7 1.1c-.6 .3 -1.3 .4 -2 .4H372c-.7 0 -1.4 -.1 -2 -.4c-.6 -.2 -1.2 -.6 -1.7 -1.1c-.5 -.5 -.8 -1 -1.1 -1.6c-.3 -.7 -.4 -1.3 -.4 -2V526.9c0 -.7 .1 -1.3 .4 -2c.3 -.6 .6 -1.1 1.1 -1.6c.5 -.5 1.1 -.9 1.7 -1.1c.6 -.3 1.3 -.4 2 -.4Zm138.6 0H592c.6 0 1.3 .1 1.9 .4c.7 .2 1.2 .6 1.7 1.1c.5 .5 .9 1 1.1 1.6c.3 .7 .4 1.3 .4 2V551c0 .7 -.1 1.3 -.4 2c-.2 .6 -.6 1.1 -1.1 1.6c-.5 .5 -1 .9 -1.7 1.1c-.6 .3 -1.3 .4 -1.9 .4H510.6c-.7 0 -1.3 -.1 -2 -.4c-.6 -.2 -1.2 -.6 -1.6 -1.1c-.5 -.5 -.9 -1 -1.2 -1.6c-.2 -.7 -.4 -1.3 -.4 -2V526.9c0 -.7 .2 -1.3 .4 -2c.3 -.6 .7 -1.1 1.2 -1.6c.4 -.5 1 -.9 1.6 -1.1c.7 -.3 1.3 -.4 2 -.4Z" class="g2_100"/>
</g>
</g>
<g clip-path="url(#c5_100)">
<g clip-path="url(#c2_100)">
<path d="M138.2 676.1H597.7v81.4H138.2V676.1Z" class="g0_100"/>
<path d="M138.8 683.9c0 -4 7.7 -7.2 17.2 -7.2c4.5 0 8.9 .7 12.1 2.1c3.2 1.4 5.1 3.2 5.1 5.1v19.9c0 4 -7.7 7.2 -17.2 7.2c-9.5 0 -17.2 -3.2 -17.2 -7.2V683.9Zm34.4 0c0 4 -7.7 7.3 -17.2 7.3c-9.5 0 -17.2 -3.3 -17.2 -7.3m96.8 38.6H317c.6 0 1.3 .1 1.9 .4c.7 .3 1.2 .6 1.7 1.1c.5 .5 .9 1.1 1.1 1.7c.3 .6 .4 1.3 .4 2v24c0 .7 -.1 1.4 -.4 2c-.2 .6 -.6 1.2 -1.1 1.7c-.5 .5 -1 .8 -1.7 1.1c-.6 .2 -1.3 .4 -1.9 .4H235.6c-.7 0 -1.3 -.2 -2 -.4c-.6 -.3 -1.2 -.6 -1.6 -1.1c-.5 -.5 -.9 -1.1 -1.2 -1.7c-.2 -.6 -.4 -1.3 -.4 -2v-24c0 -.7 .2 -1.4 .4 -2c.3 -.6 .7 -1.2 1.2 -1.7c.4 -.5 1 -.8 1.6 -1.1c.7 -.3 1.3 -.4 2 -.4Zm137.5 0h81.4c.6 0 1.3 .1 1.9 .4c.7 .3 1.2 .6 1.7 1.1c.5 .5 .9 1.1 1.1 1.7c.3 .6 .4 1.3 .4 2v24c0 .7 -.1 1.4 -.4 2c-.2 .6 -.6 1.2 -1.1 1.7c-.5 .5 -1 .8 -1.7 1.1c-.6 .2 -1.3 .4 -1.9 .4H373.1c-.7 0 -1.3 -.2 -2 -.4c-.6 -.3 -1.2 -.6 -1.6 -1.1c-.5 -.5 -.9 -1.1 -1.2 -1.7c-.2 -.6 -.4 -1.3 -.4 -2v-24c0 -.7 .2 -1.4 .4 -2c.3 -.6 .7 -1.2 1.2 -1.7c.4 -.5 1 -.8 1.6 -1.1c.7 -.3 1.3 -.4 2 -.4Zm137.5 0H592c.6 0 1.3 .1 1.9 .4c.7 .3 1.2 .6 1.7 1.1c.5 .5 .9 1.1 1.1 1.7c.3 .6 .4 1.3 .4 2v24c0 .7 -.1 1.4 -.4 2c-.2 .6 -.6 1.2 -1.1 1.7c-.5 .5 -1 .8 -1.7 1.1c-.6 .2 -1.3 .4 -1.9 .4H510.6c-.7 0 -1.3 -.2 -2 -.4c-.6 -.3 -1.2 -.6 -1.6 -1.1c-.5 -.5 -.9 -1.1 -1.2 -1.7c-.2 -.6 -.4 -1.3 -.4 -2v-24c0 -.7 .2 -1.4 .4 -2c.3 -.6 .7 -1.2 1.2 -1.7c.4 -.5 1 -.8 1.6 -1.1c.7 -.3 1.3 -.4 2 -.4Z" class="g2_100"/>
</g>
</g>
</svg>