<?xml version="1.0" encoding="UTF-8" standalone="no"?>
<!DOCTYPE svg PUBLIC "-//W3C//DTD SVG 1.1//EN"
"http://www.w3.org/Graphics/SVG/1.1/DTD/svg11.dtd">
<svg viewBox="0 0 714 1017" version="1.1" xmlns="http://www.w3.org/2000/svg" xmlns:xlink="http://www.w3.org/1999/xlink">
<defs>
<clipPath id="c0_394"><path d="M92.4 761.7V600.1H643.5V761.7Z"/></clipPath>
<clipPath id="c1_394"><path d="M92.4 762.2V598.7H643.9V762.2Z"/></clipPath>
<style type="text/css"><![CDATA[
.g0_394{
fill: #FFF;
}
.g1_394{
fill: #DDD;
}
.g2_394{
fill: none;
stroke: #000;
stroke-width: 1.145;
stroke-miterlimit: 10;
}
.g3_394{
fill: #000;
}
]]></style>
</defs>
<path d="M0 1017.7H717.2V-3.7H0V1017.7Z" class="g0_394"/>
<g clip-path="url(#c1_394)">
<path clip-path="url(#c0_394)" d="M92.4 600.1H643.5V761.7H92.4V600.1Z" class="g0_394"/>
<path d="M551.3 600.7h91.6v91.7H551.3V600.7Z" class="g1_394"/>
<path d="M551.3 600.7h91.6v91.7H551.3V600.7Z" class="g2_394"/>
<path d="M435 623.6h77.9c.4 0 .9 .1 1.3 .2c.5 0 .9 .2 1.3 .3c.4 .2 .8 .4 1.2 .7c.4 .2 .7 .5 1.1 .8c.3 .4 .6 .7 .8 1.1c.3 .4 .5 .8 .6 1.2c.2 .4 .4 .8 .4 1.3c.1 .4 .2 .8 .2 1.3v32.1c0 .4 -.1 .9 -.2 1.3c0 .5 -.2 .9 -.4 1.3c-.1 .4 -.3 .8 -.6 1.2c-.2 .4 -.5 .7 -.8 1c-.4 .4 -.7 .6 -1.1 .9c-.4 .3 -.8 .5 -1.2 .6c-.4 .2 -.8 .3 -1.3 .4c-.4 .1 -.9 .2 -1.3 .2H435c-.5 0 -.9 -.1 -1.4 -.2c-.4 -.1 -.8 -.2 -1.2 -.4c-.5 -.1 -.9 -.3 -1.2 -.6c-.4 -.3 -.8 -.5 -1.1 -.9c-.3 -.3 -.6 -.6 -.8 -1c-.3 -.4 -.5 -.8 -.7 -1.2c-.1 -.4 -.3 -.8 -.4 -1.3c0 -.4 -.1 -.9 -.1 -1.3V630.5c0 -.5 .1 -.9 .1 -1.3c.1 -.5 .3 -.9 .4 -1.3c.2 -.4 .4 -.8 .7 -1.2c.2 -.4 .5 -.7 .8 -1.1c.3 -.3 .7 -.6 1.1 -.8c.3 -.3 .7 -.5 1.2 -.7c.4 -.1 .8 -.3 1.2 -.3c.5 -.1 .9 -.2 1.4 -.2Z" class="g0_394"/>
<path d="M435 623.6h77.9c.4 0 .9 .1 1.3 .2c.5 0 .9 .2 1.3 .3c.4 .2 .8 .4 1.2 .7c.4 .2 .7 .5 1.1 .8c.3 .4 .6 .7 .8 1.1c.3 .4 .5 .8 .6 1.2c.2 .4 .4 .8 .4 1.3c.1 .4 .2 .8 .2 1.3v32.1c0 .4 -.1 .9 -.2 1.3c0 .5 -.2 .9 -.4 1.3c-.1 .4 -.3 .8 -.6 1.2c-.2 .4 -.5 .7 -.8 1c-.4 .4 -.7 .6 -1.1 .9c-.4 .3 -.8 .5 -1.2 .6c-.4 .2 -.8 .3 -1.3 .4c-.4 .1 -.9 .2 -1.3 .2H435c-.5 0 -.9 -.1 -1.4 -.2c-.4 -.1 -.8 -.2 -1.2 -.4c-.5 -.1 -.9 -.3 -1.2 -.6c-.4 -.3 -.8 -.5 -1.1 -.9c-.3 -.3 -.6 -.6 -.8 -1c-.3 -.4 -.5 -.8 -.7 -1.2c-.1 -.4 -.3 -.8 -.4 -1.3c0 -.4 -.1 -.9 -.1 -1.3V630.5c0 -.5 .1 -.9 .1 -1.3c.1 -.5 .3 -.9 .4 -1.3c.2 -.4 .4 -.8 .7 -1.2c.2 -.4 .5 -.7 .8 -1.1c.3 -.3 .7 -.6 1.1 -.8c.3 -.3 .7 -.5 1.2 -.7c.4 -.1 .8 -.3 1.2 -.3c.5 -.1 .9 -.2 1.4 -.2Z" class="g2_394"/>
<path d="M237.3 623.6h77.9c.5 0 .9 .1 1.4 .2c.4 0 .9 .2 1.3 .3c.4 .2 .8 .4 1.2 .7c.3 .2 .7 .5 1 .8c.3 .4 .6 .7 .9 1.1c.2 .4 .4 .8 .6 1.2c.2 .4 .3 .8 .4 1.3c.1 .4 .1 .8 .1 1.3v32.1c0 .4 0 .9 -.1 1.3c-.1 .5 -.2 .9 -.4 1.3c-.2 .4 -.4 .8 -.6 1.2c-.3 .4 -.6 .7 -.9 1c-.3 .4 -.7 .6 -1 .9c-.4 .3 -.8 .5 -1.2 .6c-.4 .2 -.9 .3 -1.3 .4c-.5 .1 -.9 .2 -1.4 .2H237.3c-.4 0 -.9 -.1 -1.3 -.2c-.5 -.1 -.9 -.2 -1.3 -.4c-.4 -.1 -.8 -.3 -1.2 -.6c-.4 -.3 -.7 -.5 -1 -.9c-.4 -.3 -.6 -.6 -.9 -1c-.2 -.4 -.5 -.8 -.6 -1.2c-.2 -.4 -.3 -.8 -.4 -1.3c-.1 -.4 -.2 -.9 -.2 -1.3V630.5c0 -.5 .1 -.9 .2 -1.3c.1 -.5 .2 -.9 .4 -1.3c.1 -.4 .4 -.8 .6 -1.2c.3 -.4 .5 -.7 .9 -1.1c.3 -.3 .6 -.6 1 -.8c.4 -.3 .8 -.5 1.2 -.7c.4 -.1 .8 -.3 1.3 -.3c.4 -.1 .9 -.2 1.3 -.2Z" class="g0_394"/>
<path d="M237.3 623.6h77.9c.5 0 .9 .1 1.4 .2c.4 0 .9 .2 1.3 .3c.4 .2 .8 .4 1.2 .7c.3 .2 .7 .5 1 .8c.3 .4 .6 .7 .9 1.1c.2 .4 .4 .8 .6 1.2c.2 .4 .3 .8 .4 1.3c.1 .4 .1 .8 .1 1.3v32.1c0 .4 0 .9 -.1 1.3c-.1 .5 -.2 .9 -.4 1.3c-.2 .4 -.4 .8 -.6 1.2c-.3 .4 -.6 .7 -.9 1c-.3 .4 -.7 .6 -1 .9c-.4 .3 -.8 .5 -1.2 .6c-.4 .2 -.9 .3 -1.3 .4c-.5 .1 -.9 .2 -1.4 .2H237.3c-.4 0 -.9 -.1 -1.3 -.2c-.5 -.1 -.9 -.2 -1.3 -.4c-.4 -.1 -.8 -.3 -1.2 -.6c-.4 -.3 -.7 -.5 -1 -.9c-.4 -.3 -.6 -.6 -.9 -1c-.2 -.4 -.5 -.8 -.6 -1.2c-.2 -.4 -.3 -.8 -.4 -1.3c-.1 -.4 -.2 -.9 -.2 -1.3V630.5c0 -.5 .1 -.9 .2 -1.3c.1 -.5 .2 -.9 .4 -1.3c.1 -.4 .4 -.8 .6 -1.2c.3 -.4 .5 -.7 .9 -1.1c.3 -.3 .6 -.6 1 -.8c.4 -.3 .8 -.5 1.2 -.7c.4 -.1 .8 -.3 1.3 -.3c.4 -.1 .9 -.2 1.3 -.2Z" class="g2_394"/>
<path d="M230.4 710.7c0 -3.8 20.6 -6.9 45.9 -6.9c12.1 0 23.8 .8 32.4 2.1c8.6 1.2 13.4 3 13.4 4.8v43.6c0 3.7 -20.5 6.8 -45.8 6.8c-25.3 0 -45.9 -3.1 -45.9 -6.8V710.7Z" class="g0_394"/>
<path d="M230.4 710.7c0 -3.8 20.6 -6.9 45.9 -6.9c12.1 0 23.8 .8 32.4 2.1c8.6 1.2 13.4 3 13.4 4.8v43.6c0 3.7 -20.5 6.8 -45.8 6.8c-25.3 0 -45.9 -3.1 -45.9 -6.8V710.7Zm91.7 0c0 3.8 -20.5 6.9 -45.8 6.9c-25.3 0 -45.9 -3.1 -45.9 -6.9" class="g2_394"/>
<path d="M99.8 623.6h77.9c.5 0 .9 .1 1.4 .2c.4 0 .9 .2 1.3 .3c.4 .2 .8 .4 1.2 .7c.3 .2 .7 .5 1 .8c.3 .4 .6 .7 .9 1.1c.2 .4 .4 .8 .6 1.2c.2 .4 .3 .8 .4 1.3c.1 .4 .1 .8 .1 1.3v32.1c0 .4 0 .9 -.1 1.3c-.1 .5 -.2 .9 -.4 1.3c-.2 .4 -.4 .8 -.6 1.2c-.3 .4 -.6 .7 -.9 1c-.3 .4 -.7 .6 -1 .9c-.4 .3 -.8 .5 -1.2 .6c-.4 .2 -.9 .3 -1.3 .4c-.5 .1 -.9 .2 -1.4 .2H99.8c-.4 0 -.9 -.1 -1.3 -.2c-.5 -.1 -.9 -.2 -1.3 -.4c-.4 -.1 -.8 -.3 -1.2 -.6c-.4 -.3 -.7 -.5 -1 -.9c-.4 -.3 -.6 -.6 -.9 -1c-.2 -.4 -.5 -.8 -.6 -1.2c-.2 -.4 -.3 -.8 -.4 -1.3C93 663.5 93 663 93 662.6V630.5c0 -.5 0 -.9 .1 -1.3c.1 -.5 .2 -.9 .4 -1.3c.1 -.4 .4 -.8 .6 -1.2c.3 -.4 .5 -.7 .9 -1.1c.3 -.3 .6 -.6 1 -.8c.4 -.3 .8 -.5 1.2 -.7c.4 -.1 .8 -.3 1.3 -.3c.4 -.1 .9 -.2 1.3 -.2Z" class="g0_394"/>
<path d="M99.8 623.6h77.9c.5 0 .9 .1 1.4 .2c.4 0 .9 .2 1.3 .3c.4 .2 .8 .4 1.2 .7c.3 .2 .7 .5 1 .8c.3 .4 .6 .7 .9 1.1c.2 .4 .4 .8 .6 1.2c.2 .4 .3 .8 .4 1.3c.1 .4 .1 .8 .1 1.3v32.1c0 .4 0 .9 -.1 1.3c-.1 .5 -.2 .9 -.4 1.3c-.2 .4 -.4 .8 -.6 1.2c-.3 .4 -.6 .7 -.9 1c-.3 .4 -.7 .6 -1 .9c-.4 .3 -.8 .5 -1.2 .6c-.4 .2 -.9 .3 -1.3 .4c-.5 .1 -.9 .2 -1.4 .2H99.8c-.4 0 -.9 -.1 -1.3 -.2c-.5 -.1 -.9 -.2 -1.3 -.4c-.4 -.1 -.8 -.3 -1.2 -.6c-.4 -.3 -.7 -.5 -1 -.9c-.4 -.3 -.6 -.6 -.9 -1c-.2 -.4 -.5 -.8 -.6 -1.2c-.2 -.4 -.3 -.8 -.4 -1.3C93 663.5 93 663 93 662.6V630.5c0 -.5 0 -.9 .1 -1.3c.1 -.5 .2 -.9 .4 -1.3c.1 -.4 .4 -.8 .6 -1.2c.3 -.4 .5 -.7 .9 -1.1c.3 -.3 .6 -.6 1 -.8c.4 -.3 .8 -.5 1.2 -.7c.4 -.1 .8 -.3 1.3 -.3c.4 -.1 .9 -.2 1.3 -.2Z" class="g2_394"/>
<path d="M99.8 692.4h77.9c.5 0 .9 0 1.4 .1c.4 .1 .9 .2 1.3 .4c.4 .2 .8 .4 1.2 .6c.3 .3 .7 .6 1 .9c.3 .3 .6 .7 .9 1c.2 .4 .4 .8 .6 1.2c.2 .4 .3 .9 .4 1.3c.1 .5 .1 .9 .1 1.4v32c0 .5 0 .9 -.1 1.4c-.1 .4 -.2 .8 -.4 1.3c-.2 .4 -.4 .8 -.6 1.2c-.3 .3 -.6 .7 -.9 1c-.3 .3 -.7 .6 -1 .8c-.4 .3 -.8 .5 -1.2 .7c-.4 .2 -.9 .3 -1.3 .4c-.5 .1 -.9 .1 -1.4 .1H99.8c-.4 0 -.9 0 -1.3 -.1c-.5 -.1 -.9 -.2 -1.3 -.4c-.4 -.2 -.8 -.4 -1.2 -.7c-.4 -.2 -.7 -.5 -1 -.8c-.4 -.3 -.6 -.7 -.9 -1c-.2 -.4 -.5 -.8 -.6 -1.2c-.2 -.5 -.3 -.9 -.4 -1.3c-.1 -.5 -.1 -.9 -.1 -1.4v-32c0 -.5 0 -.9 .1 -1.4c.1 -.4 .2 -.9 .4 -1.3c.1 -.4 .4 -.8 .6 -1.2c.3 -.3 .5 -.7 .9 -1c.3 -.3 .6 -.6 1 -.9c.4 -.2 .8 -.4 1.2 -.6c.4 -.2 .8 -.3 1.3 -.4c.4 -.1 .9 -.1 1.3 -.1Z" class="g0_394"/>
<path d="M99.8 692.4h77.9c.5 0 .9 0 1.4 .1c.4 .1 .9 .2 1.3 .4c.4 .2 .8 .4 1.2 .6c.3 .3 .7 .6 1 .9c.3 .3 .6 .7 .9 1c.2 .4 .4 .8 .6 1.2c.2 .4 .3 .9 .4 1.3c.1 .5 .1 .9 .1 1.4v32c0 .5 0 .9 -.1 1.4c-.1 .4 -.2 .8 -.4 1.3c-.2 .4 -.4 .8 -.6 1.2c-.3 .3 -.6 .7 -.9 1c-.3 .3 -.7 .6 -1 .8c-.4 .3 -.8 .5 -1.2 .7c-.4 .2 -.9 .3 -1.3 .4c-.5 .1 -.9 .1 -1.4 .1H99.8c-.4 0 -.9 0 -1.3 -.1c-.5 -.1 -.9 -.2 -1.3 -.4c-.4 -.2 -.8 -.4 -1.2 -.7c-.4 -.2 -.7 -.5 -1 -.8c-.4 -.3 -.6 -.7 -.9 -1c-.2 -.4 -.5 -.8 -.6 -1.2c-.2 -.5 -.3 -.9 -.4 -1.3c-.1 -.5 -.1 -.9 -.1 -1.4v-32c0 -.5 0 -.9 .1 -1.4c.1 -.4 .2 -.9 .4 -1.3c.1 -.4 .4 -.8 .6 -1.2c.3 -.3 .5 -.7 .9 -1c.3 -.3 .6 -.6 1 -.9c.4 -.2 .8 -.4 1.2 -.6c.4 -.2 .8 -.3 1.3 -.4c.4 -.1 .9 -.1 1.3 -.1Zm420 -45.9H544" class="g2_394"/>
<path d="M550 646.5l-8 2.7l2 -2.7l-2 -2.6l8 2.6Z" class="g3_394"/>
<path d="M550 646.5l-8 2.7l2 -2.7l-2 -2.6l8 2.6ZM230.4 658H219c-7.6 0 -11.5 3.8 -11.5 11.5v34.3c0 7.7 -2.6 11.5 -7.8 11.5h-7.8" class="g2_394"/>
<path d="M185.9 715.3l8 -2.7l-2 2.7l2 2.7l-8 -2.7Z" class="g3_394"/>
<path d="M185.9 715.3l8 -2.7l-2 2.7l2 2.7l-8 -2.7Zm90.4 -45.8v27" class="g2_394"/>
<path d="M276.3 702.6l-2.7 -8.1l2.7 2l2.7 -2l-2.7 8.1Z" class="g3_394"/>
<path d="M276.3 702.6l-2.7 -8.1l2.7 2l2.7 -2l-2.7 8.1ZM230.4 646.5H191.9" class="g2_394"/>
<path d="M185.9 646.5l8 -2.6l-2 2.6l2 2.7l-8 -2.7Z" class="g3_394"/>
<path d="M185.9 646.5l8 -2.6l-2 2.6l2 2.7l-8 -2.7Zm242.2 0H329.4" class="g2_394"/>
<path d="M323.4 646.5l8 -2.6l-2 2.6l2 2.7l-8 -2.7Z" class="g3_394"/>
<path d="M323.4 646.5l8 -2.6l-2 2.6l2 2.7l-8 -2.7Z" class="g2_394"/>
</g>
</svg>