<?xml version="1.0" encoding="UTF-8" standalone="no"?>
<!DOCTYPE svg PUBLIC "-//W3C//DTD SVG 1.1//EN"
"http://www.w3.org/Graphics/SVG/1.1/DTD/svg11.dtd">
<svg viewBox="0 0 714 1017" version="1.1" xmlns="http://www.w3.org/2000/svg" xmlns:xlink="http://www.w3.org/1999/xlink">
<defs>
<clipPath id="c0_86"><path d="M161.1 811.7V593.2H574.8V811.7Z"/></clipPath>
<clipPath id="c1_86"><path d="M229.9 319.4V272H506.4v47.4Z"/></clipPath>
<clipPath id="c2_86"><path d="M161.1 811.7v-220H575.2v220Z"/></clipPath>
<style type="text/css"><![CDATA[
.g0_86{
fill: #FFF;
}
.g1_86{
fill: none;
stroke: #000;
stroke-width: 1.145;
stroke-miterlimit: 10;
}
.g2_86{
fill: #000;
}
]]></style>
</defs>
<path d="M0 1017.7H717.2V-3.7H0V1017.7Z" class="g0_86"/>
<g clip-path="url(#c1_86)">
<path d="M229.9 272.1H506v47H229.9v-47Z" class="g0_86"/>
<path d="M230.5 272.7h45.8v45.8H230.5V272.7Zm45.8 0h45.8v45.8H276.3V272.7Zm45.8 0H368v45.8H322.1V272.7Zm45.9 0h45.8v45.8H368V272.7Zm45.8 0h45.8v45.8H413.8V272.7Zm45.8 0h45.9v45.8H459.6V272.7Z" class="g1_86"/>
<path d="M232.7 286.6h76.8v18H232.7v-18Z" class="g2_86"/>
<path d="M232.7 286.6h76.8v18H232.7v-18Z" class="g1_86"/>
<path d="M313.7 286.6h29v18h-29v-18Z" class="g2_86"/>
<path d="M313.7 286.6h29v18h-29v-18Z" class="g1_86"/>
<path d="M346.2 286.6h40.1v18H346.2v-18Z" class="g2_86"/>
<path d="M346.2 286.6h40.1v18H346.2v-18Z" class="g1_86"/>
<path d="M390 286.6H492.8v18H390v-18Z" class="g2_86"/>
<path d="M390 286.6H492.8v18H390v-18Z" class="g1_86"/>
</g>
<g clip-path="url(#c2_86)">
<g clip-path="url(#c0_86)">
<path d="M161.1 593.2H574.8V812H161.1V593.2Z" class="g0_86"/>
<path d="M390.9 674c0 1.5 -.2 3 -.5 4.4c-.3 1.5 -.7 2.9 -1.3 4.3c-.6 1.4 -1.3 2.7 -2.1 4c-.8 1.2 -1.8 2.4 -2.8 3.5c-1.1 1 -2.3 2 -3.5 2.8c-1.3 .9 -2.6 1.6 -4 2.1c-1.4 .6 -2.8 1 -4.3 1.3c-1.5 .3 -2.9 .5 -4.5 .5c-1.5 0 -2.9 -.2 -4.4 -.5c-1.5 -.3 -2.9 -.7 -4.3 -1.3c-1.4 -.5 -2.7 -1.2 -4 -2.1c-1.2 -.8 -2.4 -1.8 -3.5 -2.8c-1 -1.1 -2 -2.3 -2.8 -3.5c-.8 -1.3 -1.5 -2.6 -2.1 -4c-.6 -1.4 -1 -2.8 -1.3 -4.3c-.3 -1.4 -.5 -2.9 -.5 -4.4c0 -1.5 .2 -3 .5 -4.5c.3 -1.5 .7 -2.9 1.3 -4.3c.6 -1.4 1.3 -2.7 2.1 -4c.8 -1.2 1.8 -2.4 2.8 -3.4c1.1 -1.1 2.3 -2.1 3.5 -2.9c1.3 -.8 2.6 -1.5 4 -2.1c1.4 -.6 2.8 -1 4.3 -1.3c1.5 -.3 2.9 -.5 4.4 -.5c1.6 0 3 .2 4.5 .5c1.5 .3 2.9 .7 4.3 1.3c1.4 .6 2.7 1.3 4 2.1c1.2 .8 2.4 1.8 3.5 2.9c1 1 2 2.2 2.8 3.4c.8 1.3 1.5 2.6 2.1 4c.6 1.4 1 2.8 1.3 4.3c.3 1.5 .5 3 .5 4.5ZM253.4 730.1c0 1.5 -.2 3 -.5 4.5c-.3 1.5 -.7 2.9 -1.3 4.3c-.6 1.4 -1.3 2.7 -2.1 3.9c-.8 1.3 -1.8 2.4 -2.8 3.5c-1.1 1.1 -2.3 2 -3.5 2.9c-1.3 .8 -2.6 1.5 -4 2.1c-1.4 .6 -2.8 1 -4.3 1.3c-1.5 .3 -2.9 .4 -4.5 .4c-1.5 0 -2.9 -.1 -4.4 -.4c-1.5 -.3 -2.9 -.7 -4.3 -1.3c-1.4 -.6 -2.7 -1.3 -4 -2.1c-1.2 -.9 -2.4 -1.8 -3.5 -2.9c-1 -1.1 -2 -2.2 -2.8 -3.5c-.8 -1.2 -1.5 -2.5 -2.1 -3.9c-.6 -1.4 -1 -2.8 -1.3 -4.3c-.3 -1.5 -.5 -3 -.5 -4.5c0 -1.5 .2 -3 .5 -4.5c.3 -1.4 .7 -2.9 1.3 -4.3c.6 -1.4 1.3 -2.7 2.1 -3.9c.8 -1.3 1.8 -2.4 2.8 -3.5c1.1 -1.1 2.3 -2 3.5 -2.8c1.3 -.9 2.6 -1.6 4 -2.2c1.4 -.5 2.8 -1 4.3 -1.3c1.5 -.3 2.9 -.4 4.4 -.4c1.6 0 3 .1 4.5 .4c1.5 .3 2.9 .8 4.3 1.3c1.4 .6 2.7 1.3 4 2.2c1.2 .8 2.4 1.7 3.5 2.8c1 1.1 2 2.2 2.8 3.5c.8 1.2 1.5 2.5 2.1 3.9c.6 1.4 1 2.9 1.3 4.3c.3 1.5 .5 3 .5 4.5Zm275 0c0 1.5 -.2 3 -.5 4.5c-.3 1.5 -.7 2.9 -1.3 4.3c-.6 1.4 -1.3 2.7 -2.1 3.9c-.8 1.3 -1.8 2.4 -2.8 3.5c-1.1 1.1 -2.3 2 -3.5 2.9c-1.3 .8 -2.6 1.5 -4 2.1c-1.4 .6 -2.8 1 -4.3 1.3c-1.5 .3 -2.9 .4 -4.5 .4c-1.5 0 -2.9 -.1 -4.4 -.4c-1.5 -.3 -2.9 -.7 -4.3 -1.3c-1.4 -.6 -2.7 -1.3 -4 -2.1c-1.2 -.9 -2.4 -1.8 -3.5 -2.9c-1 -1.1 -2 -2.2 -2.8 -3.5c-.8 -1.2 -1.5 -2.5 -2.1 -3.9c-.6 -1.4 -1 -2.8 -1.3 -4.3c-.3 -1.5 -.5 -3 -.5 -4.5c0 -1.5 .2 -3 .5 -4.5c.3 -1.4 .7 -2.9 1.3 -4.3c.6 -1.4 1.3 -2.7 2.1 -3.9c.8 -1.3 1.8 -2.4 2.8 -3.5c1.1 -1.1 2.3 -2 3.5 -2.8c1.3 -.9 2.6 -1.6 4 -2.2c1.4 -.5 2.8 -1 4.3 -1.3c1.5 -.3 2.9 -.4 4.4 -.4c1.6 0 3 .1 4.5 .4c1.5 .3 2.9 .8 4.3 1.3c1.4 .6 2.7 1.3 4 2.2c1.2 .8 2.4 1.7 3.5 2.8c1 1.1 2 2.2 2.8 3.5c.8 1.2 1.5 2.5 2.1 3.9c.6 1.4 1 2.9 1.3 4.3c.3 1.5 .5 3 .5 4.5ZM207.5 788.5c0 1.5 -.1 3 -.4 4.5c-.3 1.5 -.7 2.9 -1.3 4.3c-.6 1.4 -1.3 2.7 -2.1 4c-.9 1.2 -1.8 2.4 -2.9 3.4c-1 1.1 -2.2 2.1 -3.5 2.9c-1.2 .8 -2.5 1.5 -3.9 2.1c-1.4 .6 -2.8 1 -4.3 1.3c-1.5 .3 -3 .5 -4.5 .5c-1.5 0 -3 -.2 -4.5 -.5c-1.4 -.3 -2.9 -.7 -4.3 -1.3c-1.3 -.6 -2.7 -1.3 -3.9 -2.1c-1.3 -.8 -2.4 -1.8 -3.5 -2.9c-1.1 -1 -2 -2.2 -2.8 -3.4c-.9 -1.3 -1.6 -2.6 -2.2 -4c-.5 -1.4 -1 -2.8 -1.3 -4.3c-.3 -1.5 -.4 -3 -.4 -4.5c0 -1.5 .1 -3 .4 -4.4c.3 -1.5 .8 -2.9 1.3 -4.3c.6 -1.4 1.3 -2.7 2.2 -4c.8 -1.2 1.7 -2.4 2.8 -3.5c1.1 -1 2.2 -2 3.5 -2.8c1.2 -.8 2.6 -1.6 3.9 -2.1c1.4 -.6 2.9 -1 4.3 -1.3c1.5 -.3 3 -.5 4.5 -.5c1.5 0 3 .2 4.5 .5c1.5 .3 2.9 .7 4.3 1.3c1.4 .5 2.7 1.3 3.9 2.1c1.3 .8 2.5 1.8 3.5 2.8c1.1 1.1 2 2.3 2.9 3.5c.8 1.3 1.5 2.6 2.1 4c.6 1.4 1 2.8 1.3 4.3c.3 1.4 .4 2.9 .4 4.4Zm91.7 0c0 1.5 -.1 3 -.4 4.5c-.3 1.5 -.8 2.9 -1.3 4.3c-.6 1.4 -1.3 2.7 -2.2 4c-.8 1.2 -1.7 2.4 -2.8 3.4c-1.1 1.1 -2.2 2.1 -3.5 2.9c-1.2 .8 -2.6 1.5 -3.9 2.1c-1.4 .6 -2.9 1 -4.3 1.3c-1.5 .3 -3 .5 -4.5 .5c-1.5 0 -3 -.2 -4.5 -.5c-1.5 -.3 -2.9 -.7 -4.3 -1.3c-1.4 -.6 -2.7 -1.3 -3.9 -2.1c-1.3 -.8 -2.5 -1.8 -3.5 -2.9c-1.1 -1 -2 -2.2 -2.9 -3.4c-.8 -1.3 -1.5 -2.6 -2.1 -4c-.6 -1.4 -1 -2.8 -1.3 -4.3c-.3 -1.5 -.4 -3 -.4 -4.5c0 -1.5 .1 -3 .4 -4.4c.3 -1.5 .7 -2.9 1.3 -4.3c.6 -1.4 1.3 -2.7 2.1 -4c.9 -1.2 1.8 -2.4 2.9 -3.5c1 -1 2.2 -2 3.5 -2.8c1.2 -.8 2.5 -1.6 3.9 -2.1c1.4 -.6 2.8 -1 4.3 -1.3c1.5 -.3 3 -.5 4.5 -.5c1.5 0 3 .2 4.5 .5c1.4 .3 2.9 .7 4.3 1.3c1.3 .5 2.7 1.3 3.9 2.1c1.3 .8 2.4 1.8 3.5 2.8c1.1 1.1 2 2.3 2.8 3.5c.9 1.3 1.6 2.6 2.2 4c.5 1.4 1 2.8 1.3 4.3c.3 1.4 .4 2.9 .4 4.4Zm183.3 0c0 1.5 -.1 3 -.4 4.5c-.3 1.5 -.7 2.9 -1.3 4.3c-.6 1.4 -1.3 2.7 -2.1 4c-.9 1.2 -1.8 2.4 -2.9 3.4c-1 1.1 -2.2 2.1 -3.5 2.9c-1.2 .8 -2.5 1.5 -3.9 2.1c-1.4 .6 -2.8 1 -4.3 1.3c-1.5 .3 -3 .5 -4.5 .5c-1.5 0 -3 -.2 -4.5 -.5c-1.4 -.3 -2.9 -.7 -4.3 -1.3c-1.3 -.6 -2.7 -1.3 -3.9 -2.1c-1.3 -.8 -2.4 -1.8 -3.5 -2.9c-1.1 -1 -2 -2.2 -2.8 -3.4c-.9 -1.3 -1.6 -2.6 -2.2 -4c-.5 -1.4 -1 -2.8 -1.3 -4.3c-.3 -1.5 -.4 -3 -.4 -4.5c0 -1.5 .1 -3 .4 -4.4c.3 -1.5 .8 -2.9 1.3 -4.3c.6 -1.4 1.3 -2.7 2.2 -4c.8 -1.2 1.7 -2.4 2.8 -3.5c1.1 -1 2.2 -2 3.5 -2.8c1.2 -.8 2.6 -1.6 3.9 -2.1c1.4 -.6 2.9 -1 4.3 -1.3c1.5 -.3 3 -.5 4.5 -.5c1.5 0 3 .2 4.5 .5c1.5 .3 2.9 .7 4.3 1.3c1.4 .5 2.7 1.3 3.9 2.1c1.3 .8 2.5 1.8 3.5 2.8c1.1 1.1 2 2.3 2.9 3.5c.8 1.3 1.5 2.6 2.1 4c.6 1.4 1 2.8 1.3 4.3c.3 1.4 .4 2.9 .4 4.4Zm91.7 0c0 1.5 -.1 3 -.4 4.5c-.3 1.5 -.8 2.9 -1.3 4.3c-.6 1.4 -1.3 2.7 -2.2 4c-.8 1.2 -1.7 2.4 -2.8 3.4c-1.1 1.1 -2.2 2.1 -3.5 2.9c-1.2 .8 -2.6 1.5 -3.9 2.1c-1.4 .6 -2.9 1 -4.3 1.3c-1.5 .3 -3 .5 -4.5 .5c-1.5 0 -3 -.2 -4.5 -.5c-1.5 -.3 -2.9 -.7 -4.3 -1.3c-1.4 -.6 -2.7 -1.3 -3.9 -2.1c-1.3 -.8 -2.5 -1.8 -3.5 -2.9c-1.1 -1 -2 -2.2 -2.9 -3.4c-.8 -1.3 -1.5 -2.6 -2.1 -4c-.6 -1.4 -1 -2.8 -1.3 -4.3c-.3 -1.5 -.4 -3 -.4 -4.5c0 -1.5 .1 -3 .4 -4.4c.3 -1.5 .7 -2.9 1.3 -4.3c.6 -1.4 1.3 -2.7 2.1 -4c.9 -1.2 1.8 -2.4 2.9 -3.5c1 -1 2.2 -2 3.5 -2.8c1.2 -.8 2.5 -1.6 3.9 -2.1c1.4 -.6 2.8 -1 4.3 -1.3c1.5 -.3 3 -.5 4.5 -.5c1.5 0 3 .2 4.5 .5c1.4 .3 2.9 .7 4.3 1.3c1.3 .5 2.7 1.3 3.9 2.1c1.3 .8 2.4 1.8 3.5 2.8c1.1 1.1 2 2.3 2.8 3.5c.9 1.3 1.6 2.6 2.2 4c.5 1.4 1 2.8 1.3 4.3c.3 1.4 .4 2.9 .4 4.4ZM345 674c-76.4 0 -114.6 8.6 -114.6 25.9" class="g1_86"/>
</g>
<path d="M230.4 705.9l-2.6 -8l2.6 2l2.7 -2l-2.7 8Z" class="g2_86"/>
<path d="M230.4 705.9l-2.6 -8l2.6 2l2.7 -2l-2.7 8Zm-22.9 24.2c-15.2 0 -22.9 9.4 -22.9 28.2" class="g1_86"/>
<path d="M184.6 764.3l-2.7 -8l2.7 2l2.7 -2l-2.7 8Z" class="g2_86"/>
<path d="M184.6 764.3l-2.7 -8l2.7 2l2.7 -2l-2.7 8ZM390.9 674c76.4 0 114.5 8.6 114.5 25.9" class="g1_86"/>
<path d="M505.4 705.9l-2.6 -8l2.6 2l2.7 -2l-2.7 8Z" class="g2_86"/>
<path d="M505.4 705.9l-2.6 -8l2.6 2l2.7 -2l-2.7 8Zm-252 24.2c15.2 0 22.9 9.4 22.9 28.2" class="g1_86"/>
<path d="M276.3 764.3l-2.7 -8l2.7 2l2.7 -2l-2.7 8Z" class="g2_86"/>
<path d="M276.3 764.3l-2.7 -8l2.7 2l2.7 -2l-2.7 8ZM528.4 730.1c15.2 0 22.9 9.4 22.9 28.2" class="g1_86"/>
<path d="M551.3 764.3l-2.7 -8l2.7 2l2.7 -2l-2.7 8Z" class="g2_86"/>
<path d="M551.3 764.3l-2.7 -8l2.7 2l2.7 -2l-2.7 8ZM482.5 730.1c-15.2 0 -22.9 9.4 -22.9 28.2" class="g1_86"/>
<path d="M459.6 764.3l-2.7 -8l2.7 2l2.7 -2l-2.7 8Z" class="g2_86"/>
<path d="M459.6 764.3l-2.7 -8l2.7 2l2.7 -2l-2.7 8ZM337 593.8h61.9c.4 0 .9 0 1.3 .2c.4 .2 .8 .4 1.1 .8c.3 .3 .6 .7 .8 1.1c.1 .4 .2 .8 .2 1.3v16c0 .5 -.1 .9 -.2 1.3c-.2 .5 -.5 .8 -.8 1.2c-.3 .3 -.7 .5 -1.1 .7c-.4 .2 -.9 .3 -1.3 .3H337c-.4 0 -.9 -.1 -1.3 -.3c-.4 -.2 -.8 -.4 -1.1 -.7c-.3 -.4 -.6 -.7 -.8 -1.2c-.1 -.4 -.2 -.8 -.2 -1.3v-16c0 -.5 .1 -.9 .2 -1.3c.2 -.4 .5 -.8 .8 -1.1c.3 -.4 .7 -.6 1.1 -.8c.4 -.2 .9 -.2 1.3 -.2Zm30.9 22.9c0 15.2 0 24.3 0 27" class="g1_86"/>
<path d="M367.9 649.8l-2.6 -8.1l2.6 2l2.7 -2l-2.7 8.1Z" class="g2_86"/>
<path d="M367.9 649.8l-2.6 -8.1l2.6 2l2.7 -2l-2.7 8.1Z" class="g1_86"/>
</g>
</svg>