<?xml version="1.0" encoding="UTF-8" standalone="no"?>
<!DOCTYPE svg PUBLIC "-//W3C//DTD SVG 1.1//EN"
"http://www.w3.org/Graphics/SVG/1.1/DTD/svg11.dtd">
<svg viewBox="0 0 714 1017" version="1.1" xmlns="http://www.w3.org/2000/svg" xmlns:xlink="http://www.w3.org/1999/xlink">
<defs>
<clipPath id="c0_290"><path d="M92.4 602.8V176.5H643.5V602.8Z"/></clipPath>
<clipPath id="c1_290"><path d="M92.4 602.9V175.2H643.9V602.9Z"/></clipPath>
<style type="text/css"><![CDATA[
.g0_290{
fill: #FFF;
}
.g1_290{
fill: none;
stroke: #000;
stroke-width: 1.145;
stroke-miterlimit: 10;
}
.g2_290{
fill: #000;
}
.g3_290{
fill: none;
stroke: #000;
stroke-width: 2.291;
stroke-miterlimit: 10;
}
]]></style>
</defs>
<path d="M0 1017.7H717.2V-3.7H0V1017.7Z" class="g0_290"/>
<g clip-path="url(#c1_290)">
<g clip-path="url(#c0_290)">
<path d="M92.4 176.5H643.5V602.8H92.4V176.5Z" class="g0_290"/>
<path d="M93 483c0 -39.7 549.9 -39.7 549.9 0v89.4c0 39.7 -549.9 39.7 -549.9 0V483Z" class="g0_290"/>
<path d="M93 483c0 -39.7 549.9 -39.7 549.9 0v89.4c0 39.7 -549.9 39.7 -549.9 0V483Zm0 0c0 29.8 549.9 29.8 549.9 0" class="g1_290"/>
</g>
<path d="M93 177.1H356.5V429.2H93V177.1Z" class="g0_290"/>
<path d="M93 177.1H356.5V429.2H93V177.1Z" class="g1_290"/>
<path d="M105 383.3h47c.6 0 1.3 .2 1.9 .4c.7 .3 1.2 .7 1.7 1.1c.5 .5 .9 1.1 1.1 1.7c.3 .6 .4 1.3 .4 2v24.1c0 .6 -.1 1.3 -.4 1.9c-.2 .7 -.6 1.2 -1.1 1.7c-.5 .5 -1 .9 -1.7 1.1c-.6 .3 -1.3 .4 -1.9 .4H105c-.7 0 -1.4 -.1 -2 -.4c-.6 -.2 -1.2 -.6 -1.7 -1.1c-.4 -.5 -.8 -1 -1.1 -1.7c-.2 -.6 -.4 -1.3 -.4 -1.9V388.5c0 -.7 .2 -1.4 .4 -2c.3 -.6 .7 -1.2 1.1 -1.7c.5 -.4 1.1 -.8 1.7 -1.1c.6 -.2 1.3 -.4 2 -.4Z" class="g0_290"/>
<path d="M111.9 382.8h3.4v1.1h-3.4v-1.1Zm6.8 0h3.5v1.1h-3.5v-1.1Zm6.9 0H129v1.1h-3.4v-1.1Zm6.9 0h3.4v1.1h-3.4v-1.1Zm6.9 0h3.4v1.1h-3.4v-1.1Zm6.8 0h3.5v1.1h-3.5v-1.1Zm7 .1c1.3 .3 2.5 1 3.3 2.1l-.9 .7c-.7 -.9 -1.6 -1.5 -2.7 -1.7l.3 -1.1Zm4.5 5.7v3.5h-1.2v-3.5h1.2Zm0 6.9v3.4h-1.2v-3.4h1.2Zm0 6.9v3.4h-1.2v-3.4h1.2Zm0 6.8v3.5h-1.2q0 -.1 0 -.1v-3.4h1.2Zm-1.4 7.1c-.9 1 -2 1.7 -3.4 1.9l-.2 -1.1c1.1 -.2 2 -.7 2.7 -1.6l.9 .8Zm-6.9 2H146v-1.2h3.4v1.2Zm-6.9 0h-3.4v-1.2h3.4v1.2Zm-6.8 0h-3.5v-1.2h3.5v1.2Zm-6.9 0h-3.4v-1.2h3.4v1.2Zm-6.9 0h-3.4v-1.2h3.4v1.2Zm-6.9 0h-3.4v-1.2H115v1.2Zm-6.8 0H105c-.1 0 -.2 0 -.3 0l.1 -1.2c0 0 .1 0 .2 0h3.2v1.2Zm-7 -1.5c-1.1 -.9 -1.7 -2.1 -1.9 -3.4l1.1 -.2c.2 1.1 .7 2 1.5 2.8l-.7 .8Zm-1.9 -6.9v-3.5h1.1v3.5H99.3Zm0 -6.9v-3.4h1.1V403H99.3Zm0 -6.9v-3.4h1.1v3.4H99.3Zm0 -6.8v-.8c0 -1 .2 -2 .7 -2.9l1 .6c-.4 .7 -.6 1.5 -.6 2.3v.8H99.3Zm3.8 -6.2c.6 -.2 1.2 -.3 1.9 -.3h3.4v1.1H105c-.5 0 -1 .1 -1.5 .3l-.4 -1.1Z" class="g2_290"/>
<path d="M138.8 330.6h22.9v22.9H138.8V330.6Z" class="g0_290"/>
<path d="M138.8 330.6h22.9v22.9H138.8V330.6Z" class="g1_290"/>
<path d="M161.7 330.6h22.9v22.9H161.7V330.6Z" class="g0_290"/>
<path d="M161.7 330.6h22.9v22.9H161.7V330.6Z" class="g1_290"/>
<path d="M184.6 330.6h22.9v22.9H184.6V330.6Z" class="g0_290"/>
<path d="M184.6 330.6h22.9v22.9H184.6V330.6Z" class="g1_290"/>
<path d="M184.6 353.5h22.9v23H184.6v-23Z" class="g0_290"/>
<path d="M184.6 353.5h22.9v23H184.6v-23Z" class="g1_290"/>
<path d="M161.7 353.5h22.9v23H161.7v-23Z" class="g0_290"/>
<path d="M161.7 353.5h22.9v23H161.7v-23Z" class="g1_290"/>
<path d="M138.8 353.5h22.9v23H138.8v-23Z" class="g0_290"/>
<path d="M138.8 353.5h22.9v23H138.8v-23Z" class="g1_290"/>
<path d="M168.6 512.8h22.9v22.9H168.6V512.8Z" class="g0_290"/>
<path d="M168.6 512.8h22.9v22.9H168.6V512.8Z" class="g1_290"/>
<path d="M191.5 512.8h22.9v22.9H191.5V512.8Z" class="g0_290"/>
<path d="M191.5 512.8h22.9v22.9H191.5V512.8Z" class="g1_290"/>
<path d="M191.5 535.7h22.9v22.9H191.5V535.7Z" class="g0_290"/>
<path d="M191.5 535.7h22.9v22.9H191.5V535.7Z" class="g1_290"/>
<path d="M168.6 535.7h22.9v22.9H168.6V535.7Z" class="g0_290"/>
<path d="M168.6 535.7h22.9v22.9H168.6V535.7Z" class="g1_290"/>
<path d="M168.6 558.6h22.9v23H168.6v-23Z" class="g0_290"/>
<path d="M168.6 558.6h22.9v23H168.6v-23Z" class="g1_290"/>
<path d="M191.5 558.6h22.9v23H191.5v-23Z" class="g0_290"/>
<path d="M191.5 558.6h22.9v23H191.5v-23Z" class="g1_290"/>
<path d="M214.4 512.8h22.9v22.9H214.4V512.8Z" class="g0_290"/>
<path d="M214.4 512.8h22.9v22.9H214.4V512.8Z" class="g1_290"/>
<path d="M237.3 512.8h22.9v22.9H237.3V512.8Z" class="g0_290"/>
<path d="M237.3 512.8h22.9v22.9H237.3V512.8Z" class="g1_290"/>
<path d="M260.2 512.8h23v22.9h-23V512.8Z" class="g0_290"/>
<path d="M260.2 512.8h23v22.9h-23V512.8Z" class="g1_290"/>
<path d="M283.2 512.8h22.9v22.9H283.2V512.8Z" class="g0_290"/>
<path d="M283.2 512.8h22.9v22.9H283.2V512.8Z" class="g1_290"/>
<path d="M283.2 535.7h22.9v22.9H283.2V535.7Z" class="g0_290"/>
<path d="M283.2 535.7h22.9v22.9H283.2V535.7Z" class="g1_290"/>
<path d="M260.2 535.7h23v22.9h-23V535.7Z" class="g0_290"/>
<path d="M260.2 535.7h23v22.9h-23V535.7Z" class="g1_290"/>
<path d="M237.3 535.7h22.9v22.9H237.3V535.7Z" class="g0_290"/>
<path d="M237.3 535.7h22.9v22.9H237.3V535.7Z" class="g1_290"/>
<path d="M214.4 535.7h22.9v22.9H214.4V535.7Z" class="g0_290"/>
<path d="M214.4 535.7h22.9v22.9H214.4V535.7Z" class="g1_290"/>
<path d="M214.4 558.6h22.9v23H214.4v-23Z" class="g0_290"/>
<path d="M214.4 558.6h22.9v23H214.4v-23Z" class="g1_290"/>
<path d="M237.3 558.6h22.9v23H237.3v-23Z" class="g0_290"/>
<path d="M237.3 558.6h22.9v23H237.3v-23Z" class="g1_290"/>
<path d="M260.2 558.6h23v23h-23v-23Z" class="g0_290"/>
<path d="M260.2 558.6h23v23h-23v-23Z" class="g1_290"/>
<path d="M283.2 558.6h22.9v23H283.2v-23Z" class="g0_290"/>
<path d="M283.2 558.6h22.9v23H283.2v-23Z" class="g1_290"/>
<path d="M306.1 558.6H329v23H306.1v-23Z" class="g0_290"/>
<path d="M306.1 558.6H329v23H306.1v-23Z" class="g1_290"/>
<path d="M145.7 558.6h22.9v23H145.7v-23Z" class="g0_290"/>
<path d="M145.7 558.6h22.9v23H145.7v-23Z" class="g1_290"/>
<path d="M306.1 512.8H329v22.9H306.1V512.8Z" class="g0_290"/>
<path d="M306.1 512.8H329v22.9H306.1V512.8Z" class="g1_290"/>
<path d="M145.7 512.8h22.9v22.9H145.7V512.8Z" class="g0_290"/>
<path d="M145.7 512.8h22.9v22.9H145.7V512.8Z" class="g1_290"/>
<path d="M145.7 535.7h22.9v22.9H145.7V535.7Z" class="g0_290"/>
<path d="M145.7 535.7h22.9v22.9H145.7V535.7Z" class="g1_290"/>
<path d="M306.1 535.7H329v22.9H306.1V535.7Z" class="g0_290"/>
<path d="M306.1 535.7H329v22.9H306.1V535.7Z" class="g1_290"/>
<path d="M259.2 427.1l.9 76.3" class="g3_290"/>
<path d="M259.1 420.3l3.2 9.1l-3.1 -2.3l-3 2.4l2.9 -9.2Z" class="g2_290"/>
<path d="M259.1 420.3l3.2 9.1l-3.1 -2.3l-3 2.4l2.9 -9.2Z" class="g3_290"/>
<path d="M260.2 510.2L257 501.1l3.1 2.3l3.1 -2.4l-3 9.2Z" class="g2_290"/>
<path d="M260.2 510.2L257 501.1l3.1 2.3l3.1 -2.4l-3 9.2ZM259.1 334.3v39.6" class="g3_290"/>
<path d="M259.1 327.5l3.1 9.1l-3.1 -2.3l-3.1 2.3l3.1 -9.1Z" class="g2_290"/>
<path d="M259.1 327.5l3.1 9.1l-3.1 -2.3l-3.1 2.3l3.1 -9.1Z" class="g3_290"/>
<path d="M259.1 380.8L256 371.6l3.1 2.3l3.1 -2.3l-3.1 9.2Z" class="g2_290"/>
<path d="M259.1 380.8L256 371.6l3.1 2.3l3.1 -2.3l-3.1 9.2ZM161.7 353.5l22.9 -22.9m0 22.9L161.7 330.6m45.8 22.9L184.6 330.6m0 22.9l22.9 -22.9" class="g3_290"/>
<path d="M166.4 413.6L155.3 402.4l11.1 -11.2v6.1h12.2c.5 0 1 -.4 1 -1V384.1h-6.2L184.7 373l11.2 11.1h-6.2v13.2c0 5.6 -4.5 10.2 -10.1 10.2H166.4v6.1Z" class="g0_290"/>
<path d="M166.4 413.6L155.3 402.4l11.1 -11.2v6.1h12.2c.5 0 1 -.4 1 -1V384.1h-6.2L184.7 373l11.2 11.1h-6.2v13.2c0 5.6 -4.5 10.2 -10.1 10.2H166.4v6.1Z" class="g1_290"/>
<path d="M105 290.5h47c.6 0 1.3 .2 1.9 .4c.7 .3 1.2 .6 1.7 1.1c.5 .5 .9 1.1 1.1 1.7c.3 .6 .4 1.3 .4 2v24c0 .7 -.1 1.4 -.4 2c-.2 .6 -.6 1.2 -1.1 1.7c-.5 .5 -1 .8 -1.7 1.1c-.6 .3 -1.3 .4 -1.9 .4H105c-.7 0 -1.4 -.1 -2 -.4c-.6 -.3 -1.2 -.6 -1.7 -1.1c-.4 -.5 -.8 -1.1 -1.1 -1.7c-.2 -.6 -.4 -1.3 -.4 -2v-24c0 -.7 .2 -1.4 .4 -2c.3 -.6 .7 -1.2 1.1 -1.7c.5 -.5 1.1 -.8 1.7 -1.1c.6 -.2 1.3 -.4 2 -.4Z" class="g0_290"/>
<path d="M111.9 289.9h3.4v1.2h-3.4v-1.2Zm6.8 0h3.5v1.2h-3.5v-1.2Zm6.9 0H129v1.2h-3.4v-1.2Zm6.9 0h3.4v1.2h-3.4v-1.2Zm6.9 0h3.4v1.2h-3.4v-1.2Zm6.8 0h3.5v1.2h-3.5v-1.2Zm7 .2c1.3 .3 2.5 1 3.3 2.1l-.9 .7c-.7 -.9 -1.6 -1.5 -2.7 -1.7l.3 -1.1Zm4.5 5.7v3.4h-1.2v-3.4h1.2Zm0 6.9v3.4h-1.2v-3.4h1.2Zm0 6.9V313h-1.2v-3.4h1.2Zm0 6.8v3.3q0 .1 0 .2l-1.2 -.1v-3.4h1.2Zm-1.4 7.1c-.9 1 -2 1.7 -3.4 1.9l-.2 -1.1c1.1 -.2 2 -.7 2.7 -1.6l.9 .8Zm-6.9 2H146v-1.2h3.4v1.2Zm-6.9 0h-3.4v-1.2h3.4v1.2Zm-6.8 0h-3.5v-1.2h3.5v1.2Zm-6.9 0h-3.4v-1.2h3.4v1.2Zm-6.9 0h-3.4v-1.2h3.4v1.2Zm-6.9 0h-3.4v-1.2H115v1.2Zm-6.8 0H105c-.1 0 -.2 0 -.3 0l.1 -1.2c0 0 .1 0 .2 0h3.2v1.2Zm-7 -1.5c-1.1 -.9 -1.7 -2.1 -1.9 -3.5l1.1 -.1c.2 1.1 .7 2 1.5 2.7l-.7 .9Zm-1.9 -6.9v-3.5h1.1v3.5H99.3Zm0 -6.9v-3.4h1.1v3.4H99.3Zm0 -6.9v-3.4h1.1v3.4H99.3Zm0 -6.9v-.7c0 -1 .2 -2 .7 -2.9l1 .6c-.4 .7 -.6 1.5 -.6 2.3v.7H99.3Zm3.8 -6.1c.6 -.2 1.2 -.4 1.9 -.4h3.4v1.2H105c-.5 0 -1 .1 -1.5 .3l-.4 -1.1Z" class="g2_290"/>
<path d="M259.1 245.8v35.3" class="g3_290"/>
<path d="M259.1 288L256 278.8l3.1 2.3l3.1 -2.3l-3.1 9.2Z" class="g2_290"/>
<path d="M259.1 288L256 278.8l3.1 2.3l3.1 -2.3l-3.1 9.2Z" class="g3_290"/>
<path d="M235.6 383.3h47c.7 0 1.3 .2 2 .4c.6 .3 1.1 .7 1.6 1.1c.5 .5 .9 1.1 1.1 1.7c.3 .6 .4 1.3 .4 2v24.1c0 .6 -.1 1.3 -.4 1.9c-.2 .7 -.6 1.2 -1.1 1.7c-.5 .5 -1 .9 -1.6 1.1c-.7 .3 -1.3 .4 -2 .4h-47c-.7 0 -1.3 -.1 -2 -.4c-.6 -.2 -1.2 -.6 -1.6 -1.1c-.5 -.5 -.9 -1 -1.2 -1.7c-.2 -.6 -.4 -1.3 -.4 -1.9V388.5c0 -.7 .2 -1.4 .4 -2c.3 -.6 .7 -1.2 1.2 -1.7c.4 -.4 1 -.8 1.6 -1.1c.7 -.2 1.3 -.4 2 -.4Z" class="g0_290"/>
<path d="M235.6 383.3h47c.7 0 1.3 .2 2 .4c.6 .3 1.1 .7 1.6 1.1c.5 .5 .9 1.1 1.1 1.7c.3 .6 .4 1.3 .4 2v24.1c0 .6 -.1 1.3 -.4 1.9c-.2 .7 -.6 1.2 -1.1 1.7c-.5 .5 -1 .9 -1.6 1.1c-.7 .3 -1.3 .4 -2 .4h-47c-.7 0 -1.3 -.1 -2 -.4c-.6 -.2 -1.2 -.6 -1.6 -1.1c-.5 -.5 -.9 -1 -1.2 -1.7c-.2 -.6 -.4 -1.3 -.4 -1.9V388.5c0 -.7 .2 -1.4 .4 -2c.3 -.6 .7 -1.2 1.2 -1.7c.4 -.4 1 -.8 1.6 -1.1c.7 -.2 1.3 -.4 2 -.4Z" class="g1_290"/>
<path d="M269.4 330.6h22.9v22.9H269.4V330.6Z" class="g0_290"/>
<path d="M269.4 330.6h22.9v22.9H269.4V330.6Z" class="g1_290"/>
<path d="M292.3 330.6h22.9v22.9H292.3V330.6Z" class="g0_290"/>
<path d="M292.3 330.6h22.9v22.9H292.3V330.6Z" class="g1_290"/>
<path d="M315.2 330.6h23v22.9h-23V330.6Z" class="g0_290"/>
<path d="M315.2 330.6h23v22.9h-23V330.6Z" class="g1_290"/>
<path d="M315.2 353.5h23v23h-23v-23Z" class="g0_290"/>
<path d="M315.2 353.5h23v23h-23v-23Z" class="g1_290"/>
<path d="M292.3 353.5h22.9v23H292.3v-23Z" class="g0_290"/>
<path d="M292.3 353.5h22.9v23H292.3v-23Z" class="g1_290"/>
<path d="M269.4 353.5h22.9v23H269.4v-23Z" class="g0_290"/>
<path d="M269.4 353.5h22.9v23H269.4v-23Z" class="g1_290"/>
<path d="M269.4 376.5l22.9 -23m0 23l-22.9 -23m22.9 0L269.4 330.6m0 22.9l22.9 -22.9" class="g3_290"/>
<path d="M297 413.6L285.9 402.4L297 391.2v6.1h12.2c.6 0 1 -.4 1 -1V384.1h-6.1L315.3 373l11.2 11.1h-6.1v13.2c0 5.6 -4.6 10.2 -10.2 10.2H297v6.1Z" class="g0_290"/>
<path d="M297 413.6L285.9 402.4L297 391.2v6.1h12.2c.6 0 1 -.4 1 -1V384.1h-6.1L315.3 373l11.2 11.1h-6.1v13.2c0 5.6 -4.6 10.2 -10.2 10.2H297v6.1Z" class="g1_290"/>
<path d="M235.6 290.5h47c.7 0 1.3 .2 2 .4c.6 .3 1.1 .6 1.6 1.1c.5 .5 .9 1.1 1.1 1.7c.3 .6 .4 1.3 .4 2v24c0 .7 -.1 1.4 -.4 2c-.2 .6 -.6 1.2 -1.1 1.7c-.5 .5 -1 .8 -1.6 1.1c-.7 .3 -1.3 .4 -2 .4h-47c-.7 0 -1.3 -.1 -2 -.4c-.6 -.3 -1.2 -.6 -1.6 -1.1c-.5 -.5 -.9 -1.1 -1.2 -1.7c-.2 -.6 -.4 -1.3 -.4 -2v-24c0 -.7 .2 -1.4 .4 -2c.3 -.6 .7 -1.2 1.2 -1.7c.4 -.5 1 -.8 1.6 -1.1c.7 -.2 1.3 -.4 2 -.4Z" class="g0_290"/>
<path d="M235.6 290.5h47c.7 0 1.3 .2 2 .4c.6 .3 1.1 .6 1.6 1.1c.5 .5 .9 1.1 1.1 1.7c.3 .6 .4 1.3 .4 2v24c0 .7 -.1 1.4 -.4 2c-.2 .6 -.6 1.2 -1.1 1.7c-.5 .5 -1 .8 -1.6 1.1c-.7 .3 -1.3 .4 -2 .4h-47c-.7 0 -1.3 -.1 -2 -.4c-.6 -.3 -1.2 -.6 -1.6 -1.1c-.5 -.5 -.9 -1.1 -1.2 -1.7c-.2 -.6 -.4 -1.3 -.4 -2v-24c0 -.7 .2 -1.4 .4 -2c.3 -.6 .7 -1.2 1.2 -1.7c.4 -.5 1 -.8 1.6 -1.1c.7 -.2 1.3 -.4 2 -.4Z" class="g1_290"/>
<path d="M237.9 221.8h42.4c.5 0 1 0 1.4 .1c.5 .1 1 .3 1.4 .4c.5 .2 .9 .5 1.3 .7c.4 .3 .8 .6 1.2 1c.3 .3 .6 .7 .9 1.1c.3 .4 .5 .8 .7 1.3c.2 .4 .3 .9 .4 1.4c.1 .5 .1 .9 .1 1.4v9.2c0 .5 0 .9 -.1 1.4c-.1 .5 -.2 1 -.4 1.4c-.2 .5 -.4 .9 -.7 1.3c-.3 .4 -.6 .8 -.9 1.1c-.4 .4 -.8 .7 -1.2 1c-.4 .2 -.8 .5 -1.3 .7c-.4 .2 -.9 .3 -1.4 .4c-.4 .1 -.9 .1 -1.4 .1H237.9c-.5 0 -1 0 -1.4 -.1c-.5 -.1 -1 -.2 -1.4 -.4c-.5 -.2 -.9 -.5 -1.3 -.7c-.4 -.3 -.8 -.6 -1.2 -1c-.3 -.3 -.6 -.7 -.9 -1.1c-.3 -.4 -.5 -.8 -.7 -1.3c-.2 -.4 -.3 -.9 -.4 -1.4c-.1 -.5 -.2 -.9 -.2 -1.4v-9.2c0 -.5 .1 -.9 .2 -1.4c.1 -.5 .2 -1 .4 -1.4c.2 -.5 .4 -.9 .7 -1.3c.3 -.4 .6 -.8 .9 -1.1c.4 -.4 .8 -.7 1.2 -1c.4 -.2 .8 -.5 1.3 -.7c.4 -.1 .9 -.3 1.4 -.4c.4 -.1 .9 -.1 1.4 -.1Z" class="g0_290"/>
<path d="M237.9 221.8h42.4c.5 0 1 0 1.4 .1c.5 .1 1 .3 1.4 .4c.5 .2 .9 .5 1.3 .7c.4 .3 .8 .6 1.2 1c.3 .3 .6 .7 .9 1.1c.3 .4 .5 .8 .7 1.3c.2 .4 .3 .9 .4 1.4c.1 .5 .1 .9 .1 1.4v9.2c0 .5 0 .9 -.1 1.4c-.1 .5 -.2 1 -.4 1.4c-.2 .5 -.4 .9 -.7 1.3c-.3 .4 -.6 .8 -.9 1.1c-.4 .4 -.8 .7 -1.2 1c-.4 .2 -.8 .5 -1.3 .7c-.4 .2 -.9 .3 -1.4 .4c-.4 .1 -.9 .1 -1.4 .1H237.9c-.5 0 -1 0 -1.4 -.1c-.5 -.1 -1 -.2 -1.4 -.4c-.5 -.2 -.9 -.5 -1.3 -.7c-.4 -.3 -.8 -.6 -1.2 -1c-.3 -.3 -.6 -.7 -.9 -1.1c-.3 -.4 -.5 -.8 -.7 -1.3c-.2 -.4 -.3 -.9 -.4 -1.4c-.1 -.5 -.2 -.9 -.2 -1.4v-9.2c0 -.5 .1 -.9 .2 -1.4c.1 -.5 .2 -1 .4 -1.4c.2 -.5 .4 -.9 .7 -1.3c.3 -.4 .6 -.8 .9 -1.1c.4 -.4 .8 -.7 1.2 -1c.4 -.2 .8 -.5 1.3 -.7c.4 -.1 .9 -.3 1.4 -.4c.4 -.1 .9 -.1 1.4 -.1ZM239 188.5h40.1c.6 0 1.2 .1 1.7 .2c.6 .1 1.1 .3 1.6 .5c.6 .2 1.1 .5 1.5 .8c.5 .3 .9 .7 1.3 1.1c.4 .4 .8 .8 1.1 1.3c.3 .4 .6 .9 .8 1.4c.2 .6 .4 1.1 .5 1.7c.1 .5 .1 1.1 .1 1.6v40.1c0 .6 0 1.2 -.1 1.7c-.1 .6 -.3 1.1 -.5 1.6c-.2 .5 -.5 1 -.8 1.5c-.3 .5 -.7 .9 -1.1 1.3c-.4 .4 -.8 .8 -1.3 1.1c-.4 .3 -.9 .6 -1.5 .8c-.5 .2 -1 .4 -1.6 .5c-.5 .1 -1.1 .1 -1.7 .1H239c-.5 0 -1.1 0 -1.6 -.1c-.6 -.1 -1.1 -.3 -1.6 -.5c-.6 -.2 -1.1 -.5 -1.5 -.8c-.5 -.3 -.9 -.7 -1.3 -1.1c-.4 -.4 -.8 -.8 -1.1 -1.3c-.3 -.5 -.6 -1 -.8 -1.5c-.2 -.5 -.4 -1 -.5 -1.6c-.1 -.5 -.2 -1.1 -.2 -1.7V197.1c0 -.5 .1 -1.1 .2 -1.6c.1 -.6 .3 -1.1 .5 -1.7c.2 -.5 .5 -1 .8 -1.4c.3 -.5 .7 -.9 1.1 -1.3c.4 -.4 .8 -.8 1.3 -1.1c.4 -.3 .9 -.6 1.5 -.8c.5 -.2 1 -.4 1.6 -.5c.5 -.1 1.1 -.2 1.6 -.2Z" class="g1_290"/>
<path d="M379.4 177.1H642.9V429.2H379.4V177.1Z" class="g0_290"/>
<path d="M379.4 177.1H642.9V429.2H379.4V177.1Z" class="g1_290"/>
<path d="M391.4 383.3h47c.7 0 1.4 .2 2 .4c.6 .3 1.2 .7 1.7 1.1c.4 .5 .8 1.1 1.1 1.7c.2 .6 .4 1.3 .4 2v24.1c0 .6 -.2 1.3 -.4 1.9c-.3 .7 -.7 1.2 -1.1 1.7c-.5 .5 -1.1 .9 -1.7 1.1c-.6 .3 -1.3 .4 -2 .4h-47c-.6 0 -1.3 -.1 -1.9 -.4c-.7 -.2 -1.2 -.6 -1.7 -1.1c-.5 -.5 -.9 -1 -1.1 -1.7c-.3 -.6 -.4 -1.3 -.4 -1.9V388.5c0 -.7 .1 -1.4 .4 -2c.2 -.6 .6 -1.2 1.1 -1.7c.5 -.4 1 -.8 1.7 -1.1c.6 -.2 1.3 -.4 1.9 -.4Z" class="g0_290"/>
<path d="M391.4 383.3h47c.7 0 1.4 .2 2 .4c.6 .3 1.2 .7 1.7 1.1c.4 .5 .8 1.1 1.1 1.7c.2 .6 .4 1.3 .4 2v24.1c0 .6 -.2 1.3 -.4 1.9c-.3 .7 -.7 1.2 -1.1 1.7c-.5 .5 -1.1 .9 -1.7 1.1c-.6 .3 -1.3 .4 -2 .4h-47c-.6 0 -1.3 -.1 -1.9 -.4c-.7 -.2 -1.2 -.6 -1.7 -1.1c-.5 -.5 -.9 -1 -1.1 -1.7c-.3 -.6 -.4 -1.3 -.4 -1.9V388.5c0 -.7 .1 -1.4 .4 -2c.2 -.6 .6 -1.2 1.1 -1.7c.5 -.4 1 -.8 1.7 -1.1c.6 -.2 1.3 -.4 1.9 -.4Z" class="g1_290"/>
<path d="M425.2 330.6h23v22.9h-23V330.6Z" class="g0_290"/>
<path d="M425.2 330.6h23v22.9h-23V330.6Z" class="g1_290"/>
<path d="M448.2 330.6h22.9v22.9H448.2V330.6Z" class="g0_290"/>
<path d="M448.2 330.6h22.9v22.9H448.2V330.6Z" class="g1_290"/>
<path d="M471.1 330.6H494v22.9H471.1V330.6Z" class="g0_290"/>
<path d="M471.1 330.6H494v22.9H471.1V330.6Z" class="g1_290"/>
<path d="M471.1 353.5H494v23H471.1v-23Z" class="g0_290"/>
<path d="M471.1 353.5H494v23H471.1v-23Z" class="g1_290"/>
<path d="M448.2 353.5h22.9v23H448.2v-23Z" class="g0_290"/>
<path d="M448.2 353.5h22.9v23H448.2v-23Z" class="g1_290"/>
<path d="M425.2 353.5h23v23h-23v-23Z" class="g0_290"/>
<path d="M425.2 353.5h23v23h-23v-23Z" class="g1_290"/>
<path d="M414.9 334.3v39.6" class="g3_290"/>
<path d="M414.9 327.5l3.1 9.1l-3.1 -2.3l-3 2.3l3 -9.1Z" class="g2_290"/>
<path d="M414.9 327.5l3.1 9.1l-3.1 -2.3l-3 2.3l3 -9.1Z" class="g3_290"/>
<path d="M414.9 380.8l-3 -9.2l3 2.3l3.1 -2.3l-3.1 9.2Z" class="g2_290"/>
<path d="M414.9 380.8l-3 -9.2l3 2.3l3.1 -2.3l-3.1 9.2Zm33.3 -27.3l22.9 -22.9m0 22.9L448.2 330.6M494 353.5L471.1 330.6m0 22.9L494 330.6" class="g3_290"/>
<path d="M452.8 413.6l-11 -11.2l11 -11.2v6.1H465c.6 0 1.1 -.4 1.1 -1V384.1h-6.2L471.1 373l11.3 11.1h-6.2v13.2c0 5.6 -4.5 10.2 -10.1 10.2H452.8v6.1Z" class="g0_290"/>
<path d="M452.8 413.6l-11 -11.2l11 -11.2v6.1H465c.6 0 1.1 -.4 1.1 -1V384.1h-6.2L471.1 373l11.3 11.1h-6.2v13.2c0 5.6 -4.5 10.2 -10.1 10.2H452.8v6.1Z" class="g1_290"/>
<path d="M391.4 290.5h47c.7 0 1.4 .2 2 .4c.6 .3 1.2 .6 1.7 1.1c.4 .5 .8 1.1 1.1 1.7c.2 .6 .4 1.3 .4 2v24c0 .7 -.2 1.4 -.4 2c-.3 .6 -.7 1.2 -1.1 1.7c-.5 .5 -1.1 .8 -1.7 1.1c-.6 .3 -1.3 .4 -2 .4h-47c-.6 0 -1.3 -.1 -1.9 -.4c-.7 -.3 -1.2 -.6 -1.7 -1.1c-.5 -.5 -.9 -1.1 -1.1 -1.7c-.3 -.6 -.4 -1.3 -.4 -2v-24c0 -.7 .1 -1.4 .4 -2c.2 -.6 .6 -1.2 1.1 -1.7c.5 -.5 1 -.8 1.7 -1.1c.6 -.2 1.3 -.4 1.9 -.4Z" class="g0_290"/>
<path d="M391.4 290.5h47c.7 0 1.4 .2 2 .4c.6 .3 1.2 .6 1.7 1.1c.4 .5 .8 1.1 1.1 1.7c.2 .6 .4 1.3 .4 2v24c0 .7 -.2 1.4 -.4 2c-.3 .6 -.7 1.2 -1.1 1.7c-.5 .5 -1.1 .8 -1.7 1.1c-.6 .3 -1.3 .4 -2 .4h-47c-.6 0 -1.3 -.1 -1.9 -.4c-.7 -.3 -1.2 -.6 -1.7 -1.1c-.5 -.5 -.9 -1.1 -1.1 -1.7c-.3 -.6 -.4 -1.3 -.4 -2v-24c0 -.7 .1 -1.4 .4 -2c.2 -.6 .6 -1.2 1.1 -1.7c.5 -.5 1 -.8 1.7 -1.1c.6 -.2 1.3 -.4 1.9 -.4Z" class="g1_290"/>
<path d="M393.7 221.8h42.4c.5 0 1 0 1.5 .1c.5 .1 .9 .3 1.4 .4c.4 .2 .9 .5 1.3 .7c.4 .3 .7 .6 1.1 1c.3 .3 .6 .7 .9 1.1c.3 .4 .5 .8 .7 1.3c.2 .4 .3 .9 .4 1.4c.1 .5 .2 .9 .2 1.4v9.2c0 .5 -.1 .9 -.2 1.4c-.1 .5 -.2 1 -.4 1.4c-.2 .5 -.4 .9 -.7 1.3c-.3 .4 -.6 .8 -.9 1.1c-.4 .4 -.7 .7 -1.1 1c-.4 .2 -.9 .5 -1.3 .7c-.5 .2 -.9 .3 -1.4 .4c-.5 .1 -1 .1 -1.5 .1H393.7c-.4 0 -.9 0 -1.4 -.1c-.5 -.1 -1 -.2 -1.4 -.4c-.5 -.2 -.9 -.5 -1.3 -.7c-.4 -.3 -.8 -.6 -1.1 -1c-.4 -.3 -.7 -.7 -1 -1.1c-.2 -.4 -.5 -.8 -.6 -1.3c-.2 -.4 -.4 -.9 -.5 -1.4c-.1 -.5 -.1 -.9 -.1 -1.4v-9.2c0 -.5 0 -.9 .1 -1.4c.1 -.5 .3 -1 .5 -1.4c.1 -.5 .4 -.9 .6 -1.3c.3 -.4 .6 -.8 1 -1.1c.3 -.4 .7 -.7 1.1 -1c.4 -.2 .8 -.5 1.3 -.7c.4 -.1 .9 -.3 1.4 -.4c.5 -.1 1 -.1 1.4 -.1Z" class="g0_290"/>
<path d="M393.7 221.8h42.4c.5 0 1 0 1.5 .1c.5 .1 .9 .3 1.4 .4c.4 .2 .9 .5 1.3 .7c.4 .3 .7 .6 1.1 1c.3 .3 .6 .7 .9 1.1c.3 .4 .5 .8 .7 1.3c.2 .4 .3 .9 .4 1.4c.1 .5 .2 .9 .2 1.4v9.2c0 .5 -.1 .9 -.2 1.4c-.1 .5 -.2 1 -.4 1.4c-.2 .5 -.4 .9 -.7 1.3c-.3 .4 -.6 .8 -.9 1.1c-.4 .4 -.7 .7 -1.1 1c-.4 .2 -.9 .5 -1.3 .7c-.5 .2 -.9 .3 -1.4 .4c-.5 .1 -1 .1 -1.5 .1H393.7c-.4 0 -.9 0 -1.4 -.1c-.5 -.1 -1 -.2 -1.4 -.4c-.5 -.2 -.9 -.5 -1.3 -.7c-.4 -.3 -.8 -.6 -1.1 -1c-.4 -.3 -.7 -.7 -1 -1.1c-.2 -.4 -.5 -.8 -.6 -1.3c-.2 -.4 -.4 -.9 -.5 -1.4c-.1 -.5 -.1 -.9 -.1 -1.4v-9.2c0 -.5 0 -.9 .1 -1.4c.1 -.5 .3 -1 .5 -1.4c.1 -.5 .4 -.9 .6 -1.3c.3 -.4 .6 -.8 1 -1.1c.3 -.4 .7 -.7 1.1 -1c.4 -.2 .8 -.5 1.3 -.7c.4 -.1 .9 -.3 1.4 -.4c.5 -.1 1 -.1 1.4 -.1Z" class="g1_290"/>
<path d="M414.9 245.8v35.3" class="g3_290"/>
<path d="M414.9 288l-3 -9.2l3 2.3l3.1 -2.3l-3.1 9.2Z" class="g2_290"/>
<path d="M414.9 288l-3 -9.2l3 2.3l3.1 -2.3l-3.1 9.2Z" class="g3_290"/>
<path d="M522.1 383.3H569c.7 0 1.4 .2 2 .4c.6 .3 1.2 .7 1.7 1.1c.5 .5 .8 1.1 1.1 1.7c.3 .6 .4 1.3 .4 2v24.1c0 .6 -.1 1.3 -.4 1.9c-.3 .7 -.6 1.2 -1.1 1.7c-.5 .5 -1.1 .9 -1.7 1.1c-.6 .3 -1.3 .4 -2 .4H522.1c-.7 0 -1.4 -.1 -2 -.4c-.6 -.2 -1.2 -.6 -1.7 -1.1c-.5 -.5 -.8 -1 -1.1 -1.7c-.3 -.6 -.4 -1.3 -.4 -1.9V388.5c0 -.7 .1 -1.4 .4 -2c.3 -.6 .6 -1.2 1.1 -1.7c.5 -.4 1.1 -.8 1.7 -1.1c.6 -.2 1.3 -.4 2 -.4Z" class="g0_290"/>
<path d="M528.9 382.8h3.5v1.1h-3.5v-1.1Zm6.9 0h3.5v1.1h-3.5v-1.1Zm6.9 0h3.4v1.1h-3.4v-1.1Zm6.9 0H553v1.1h-3.4v-1.1Zm6.8 0h3.5v1.1h-3.5v-1.1Zm6.9 0h3.5v1.1h-3.5v-1.1Zm7 .1c1.3 .3 2.4 1 3.3 2.1l-.9 .7c-.7 -.9 -1.6 -1.5 -2.7 -1.7l.3 -1.1Zm4.5 5.7v3.5h-1.2v-3.5h1.2Zm0 6.9v3.4h-1.2v-3.4h1.2Zm0 6.9v3.4h-1.2v-3.4h1.2Zm0 6.8v3.5h-1.2q0 -.1 0 -.1v-3.4h1.2Zm-1.4 7.1c-.9 1 -2 1.7 -3.4 1.9l-.2 -1.1c1.1 -.2 2 -.7 2.7 -1.6l.9 .8Zm-6.9 2h-3.4v-1.2h3.4v1.2Zm-6.9 0h-3.4v-1.2h3.4v1.2Zm-6.9 0h-3.4v-1.2h3.4v1.2Zm-6.8 0h-3.5v-1.2h3.5v1.2Zm-6.9 0h-3.4v-1.2H539v1.2Zm-6.9 0h-3.4v-1.2h3.4v1.2Zm-6.9 0h-3.1c-.1 0 -.2 0 -.3 0l.1 -1.2c0 0 .1 0 .2 0h3.1v1.2Zm-7 -1.5c-1 -.9 -1.6 -2.1 -1.8 -3.4l1.1 -.2c.2 1.1 .7 2 1.5 2.8l-.8 .8Zm-1.9 -6.9v-3.5h1.2v3.5h-1.2Zm0 -6.9v-3.4h1.2V403h-1.2Zm0 -6.9v-3.4h1.2v3.4h-1.2Zm0 -6.8v-.8c0 -1 .3 -2 .8 -2.9l1 .6c-.4 .7 -.6 1.5 -.6 2.3v.8h-1.2Zm3.9 -6.2c.6 -.2 1.2 -.3 1.9 -.3h3.4v1.1h-3.4c-.6 0 -1.1 .1 -1.6 .3l-.3 -1.1Z" class="g2_290"/>
<path d="M555.9 330.6h22.9v22.9H555.9V330.6Z" class="g0_290"/>
<path d="M555.9 330.6h22.9v22.9H555.9V330.6Z" class="g1_290"/>
<path d="M578.8 330.6h22.9v22.9H578.8V330.6Z" class="g0_290"/>
<path d="M578.8 330.6h22.9v22.9H578.8V330.6Z" class="g1_290"/>
<path d="M601.7 330.6h22.9v22.9H601.7V330.6Z" class="g0_290"/>
<path d="M601.7 330.6h22.9v22.9H601.7V330.6Z" class="g1_290"/>
<path d="M601.7 353.5h22.9v23H601.7v-23Z" class="g0_290"/>
<path d="M601.7 353.5h22.9v23H601.7v-23Z" class="g1_290"/>
<path d="M578.8 353.5h22.9v23H578.8v-23Z" class="g0_290"/>
<path d="M578.8 353.5h22.9v23H578.8v-23Z" class="g1_290"/>
<path d="M555.9 353.5h22.9v23H555.9v-23Z" class="g0_290"/>
<path d="M555.9 353.5h22.9v23H555.9v-23Z" class="g1_290"/>
<path d="M555.9 376.5l22.9 -23m0 23l-22.9 -23m22.9 0L555.9 330.6m0 22.9l22.9 -22.9" class="g3_290"/>
<path d="M583.5 413.6L572.4 402.4l11.1 -11.2v6.1h12.2c.5 0 1 -.4 1 -1V384.1h-6.2L601.8 373L613 384.1h-6.2v13.2c0 5.6 -4.5 10.2 -10.1 10.2H583.5v6.1Z" class="g0_290"/>
<path d="M583.5 413.6L572.4 402.4l11.1 -11.2v6.1h12.2c.5 0 1 -.4 1 -1V384.1h-6.2L601.8 373L613 384.1h-6.2v13.2c0 5.6 -4.5 10.2 -10.1 10.2H583.5v6.1Z" class="g1_290"/>
<path d="M522.1 290.5H569c.7 0 1.4 .2 2 .4c.6 .3 1.2 .6 1.7 1.1c.5 .5 .8 1.1 1.1 1.7c.3 .6 .4 1.3 .4 2v24c0 .7 -.1 1.4 -.4 2c-.3 .6 -.6 1.2 -1.1 1.7c-.5 .5 -1.1 .8 -1.7 1.1c-.6 .3 -1.3 .4 -2 .4H522.1c-.7 0 -1.4 -.1 -2 -.4c-.6 -.3 -1.2 -.6 -1.7 -1.1c-.5 -.5 -.8 -1.1 -1.1 -1.7c-.3 -.6 -.4 -1.3 -.4 -2v-24c0 -.7 .1 -1.4 .4 -2c.3 -.6 .6 -1.2 1.1 -1.7c.5 -.5 1.1 -.8 1.7 -1.1c.6 -.2 1.3 -.4 2 -.4Z" class="g0_290"/>
<path d="M528.9 289.9h3.5v1.2h-3.5v-1.2Zm6.9 0h3.5v1.2h-3.5v-1.2Zm6.9 0h3.4v1.2h-3.4v-1.2Zm6.9 0H553v1.2h-3.4v-1.2Zm6.8 0h3.5v1.2h-3.5v-1.2Zm6.9 0h3.5v1.2h-3.5v-1.2Zm7 .2c1.3 .3 2.4 1 3.3 2.1l-.9 .7c-.7 -.9 -1.6 -1.5 -2.7 -1.7l.3 -1.1Zm4.5 5.7v3.4h-1.2v-3.4h1.2Zm0 6.9v3.4h-1.2v-3.4h1.2Zm0 6.9V313h-1.2v-3.4h1.2Zm0 6.8v3.3q0 .1 0 .2l-1.2 -.1v-3.4h1.2Zm-1.4 7.1c-.9 1 -2 1.7 -3.4 1.9l-.2 -1.1c1.1 -.2 2 -.7 2.7 -1.6l.9 .8Zm-6.9 2h-3.4v-1.2h3.4v1.2Zm-6.9 0h-3.4v-1.2h3.4v1.2Zm-6.9 0h-3.4v-1.2h3.4v1.2Zm-6.8 0h-3.5v-1.2h3.5v1.2Zm-6.9 0h-3.4v-1.2H539v1.2Zm-6.9 0h-3.4v-1.2h3.4v1.2Zm-6.9 0h-3.1c-.1 0 -.2 0 -.3 0l.1 -1.2c0 0 .1 0 .2 0h3.1v1.2Zm-7 -1.5c-1 -.9 -1.6 -2.1 -1.8 -3.5l1.1 -.1c.2 1.1 .7 2 1.5 2.7l-.8 .9Zm-1.9 -6.9v-3.5h1.2v3.5h-1.2Zm0 -6.9v-3.4h1.2v3.4h-1.2Zm0 -6.9v-3.4h1.2v3.4h-1.2Zm0 -6.9v-.7c0 -1 .3 -2 .8 -2.9l1 .6c-.4 .7 -.6 1.5 -.6 2.3v.7h-1.2Zm3.9 -6.1c.6 -.2 1.2 -.4 1.9 -.4h3.4v1.2h-3.4c-.6 0 -1.1 .1 -1.6 .3l-.3 -1.1Z" class="g2_290"/>
<path d="M394.9 188.5H435c.5 0 1.1 .1 1.7 .2c.5 .1 1 .3 1.6 .5c.5 .2 1 .5 1.5 .8c.4 .3 .9 .7 1.3 1.1c.4 .4 .7 .8 1 1.3c.3 .4 .6 .9 .8 1.4c.2 .6 .4 1.1 .5 1.7c.1 .5 .2 1.1 .2 1.6v40.1c0 .6 -.1 1.2 -.2 1.7c-.1 .6 -.3 1.1 -.5 1.6c-.2 .5 -.5 1 -.8 1.5c-.3 .5 -.6 .9 -1 1.3c-.4 .4 -.9 .8 -1.3 1.1c-.5 .3 -1 .6 -1.5 .8c-.6 .2 -1.1 .4 -1.6 .5c-.6 .1 -1.2 .1 -1.7 .1H394.9c-.6 0 -1.1 0 -1.7 -.1c-.6 -.1 -1.1 -.3 -1.6 -.5c-.5 -.2 -1 -.5 -1.5 -.8c-.5 -.3 -.9 -.7 -1.3 -1.1c-.4 -.4 -.8 -.8 -1.1 -1.3c-.3 -.5 -.5 -1 -.8 -1.5c-.2 -.5 -.3 -1 -.5 -1.6c-.1 -.5 -.1 -1.1 -.1 -1.7V197.1c0 -.5 0 -1.1 .1 -1.6c.2 -.6 .3 -1.1 .5 -1.7c.3 -.5 .5 -1 .8 -1.4c.3 -.5 .7 -.9 1.1 -1.3c.4 -.4 .8 -.8 1.3 -1.1c.5 -.3 1 -.6 1.5 -.8c.5 -.2 1 -.4 1.6 -.5c.6 -.1 1.1 -.2 1.7 -.2Z" class="g1_290"/>
<path d="M273.4 245.8l118.3 41.6" class="g3_290"/>
<path d="M398.2 289.7l-9.7 -.2l3.2 -2.1l-1.1 -3.7l7.6 6Z" class="g2_290"/>
<path d="M398.2 289.7l-9.7 -.2l3.2 -2.1l-1.1 -3.7l7.6 6Zm2.4 -43.9L282.3 287.4" class="g3_290"/>
<path d="M275.8 289.7l7.7 -6l-1.2 3.7l3.2 2.1l-9.7 .2Z" class="g2_290"/>
<path d="M275.8 289.7l7.7 -6l-1.2 3.7l3.2 2.1l-9.7 .2Z" class="g3_290"/>
<path d="M367.9 512.8h23v22.9h-23V512.8Z" class="g0_290"/>
<path d="M367.9 512.8h23v22.9h-23V512.8Z" class="g1_290"/>
<path d="M390.9 512.8h22.9v22.9H390.9V512.8Z" class="g0_290"/>
<path d="M390.9 512.8h22.9v22.9H390.9V512.8Z" class="g1_290"/>
<path d="M390.9 535.7h22.9v22.9H390.9V535.7Z" class="g0_290"/>
<path d="M390.9 535.7h22.9v22.9H390.9V535.7Z" class="g1_290"/>
<path d="M367.9 535.7h23v22.9h-23V535.7Z" class="g0_290"/>
<path d="M367.9 535.7h23v22.9h-23V535.7Z" class="g1_290"/>
<path d="M367.9 558.6h23v23h-23v-23Z" class="g0_290"/>
<path d="M367.9 558.6h23v23h-23v-23Z" class="g1_290"/>
<path d="M390.9 558.6h22.9v23H390.9v-23Z" class="g0_290"/>
<path d="M390.9 558.6h22.9v23H390.9v-23Z" class="g1_290"/>
<path d="M413.8 512.8h22.9v22.9H413.8V512.8Z" class="g0_290"/>
<path d="M413.8 512.8h22.9v22.9H413.8V512.8Z" class="g1_290"/>
<path d="M436.7 512.8h22.9v22.9H436.7V512.8Z" class="g0_290"/>
<path d="M436.7 512.8h22.9v22.9H436.7V512.8Z" class="g1_290"/>
<path d="M459.6 512.8h22.9v22.9H459.6V512.8Z" class="g0_290"/>
<path d="M459.6 512.8h22.9v22.9H459.6V512.8Z" class="g1_290"/>
<path d="M482.5 512.8h22.9v22.9H482.5V512.8Z" class="g0_290"/>
<path d="M482.5 512.8h22.9v22.9H482.5V512.8Z" class="g1_290"/>
<path d="M482.5 535.7h22.9v22.9H482.5V535.7Z" class="g0_290"/>
<path d="M482.5 535.7h22.9v22.9H482.5V535.7Z" class="g1_290"/>
<path d="M459.6 535.7h22.9v22.9H459.6V535.7Z" class="g0_290"/>
<path d="M459.6 535.7h22.9v22.9H459.6V535.7Z" class="g1_290"/>
<path d="M436.7 535.7h22.9v22.9H436.7V535.7Z" class="g0_290"/>
<path d="M436.7 535.7h22.9v22.9H436.7V535.7Z" class="g1_290"/>
<path d="M413.8 535.7h22.9v22.9H413.8V535.7Z" class="g0_290"/>
<path d="M413.8 535.7h22.9v22.9H413.8V535.7Z" class="g1_290"/>
<path d="M413.8 558.6h22.9v23H413.8v-23Z" class="g0_290"/>
<path d="M413.8 558.6h22.9v23H413.8v-23Z" class="g1_290"/>
<path d="M436.7 558.6h22.9v23H436.7v-23Z" class="g0_290"/>
<path d="M436.7 558.6h22.9v23H436.7v-23Z" class="g1_290"/>
<path d="M459.6 558.6h22.9v23H459.6v-23Z" class="g0_290"/>
<path d="M459.6 558.6h22.9v23H459.6v-23Z" class="g1_290"/>
<path d="M482.5 558.6h22.9v23H482.5v-23Z" class="g0_290"/>
<path d="M482.5 558.6h22.9v23H482.5v-23Z" class="g1_290"/>
<path d="M505.4 558.6h23v23h-23v-23Z" class="g0_290"/>
<path d="M505.4 558.6h23v23h-23v-23Z" class="g1_290"/>
<path d="M528.4 558.6h22.9v23H528.4v-23Z" class="g0_290"/>
<path d="M528.4 558.6h22.9v23H528.4v-23Z" class="g1_290"/>
<path d="M505.4 512.8h23v22.9h-23V512.8Z" class="g0_290"/>
<path d="M505.4 512.8h23v22.9h-23V512.8Z" class="g1_290"/>
<path d="M528.4 512.8h22.9v22.9H528.4V512.8Z" class="g0_290"/>
<path d="M528.4 512.8h22.9v22.9H528.4V512.8Z" class="g1_290"/>
<path d="M528.4 535.7h22.9v22.9H528.4V535.7Z" class="g0_290"/>
<path d="M528.4 535.7h22.9v22.9H528.4V535.7Z" class="g1_290"/>
<path d="M505.4 535.7h23v22.9h-23V535.7Z" class="g0_290"/>
<path d="M505.4 535.7h23v22.9h-23V535.7Z" class="g1_290"/>
<path d="M414.8 427.1l-.9 76.3" class="g3_290"/>
<path d="M414.9 420.3l2.9 9.2l-3 -2.4l-3.1 2.3l3.2 -9.1Z" class="g2_290"/>
<path d="M414.9 420.3l2.9 9.2l-3 -2.4l-3.1 2.3l3.2 -9.1Z" class="g3_290"/>
<path d="M413.8 510.2L410.9 501l3 2.4l3.1 -2.3l-3.2 9.1Z" class="g2_290"/>
<path d="M413.8 510.2L410.9 501l3 2.4l3.1 -2.3l-3.2 9.1Z" class="g3_290"/>
</g>
</svg>