<?xml version="1.0" encoding="UTF-8" standalone="no"?>
<!DOCTYPE svg PUBLIC "-//W3C//DTD SVG 1.1//EN"
"http://www.w3.org/Graphics/SVG/1.1/DTD/svg11.dtd">
<svg viewBox="0 0 714 1017" version="1.1" xmlns="http://www.w3.org/2000/svg" xmlns:xlink="http://www.w3.org/1999/xlink">
<defs>
<clipPath id="c0_120"><path d="M91.6 542.8V390.5H643.9V542.8Z"/></clipPath>
<clipPath id="c1_120"><path d="M91.6 543.4V389H644.7V543.4Z"/></clipPath>
<clipPath id="c2_120"><path d="M154.9 883.6V790.4H582.7v93.2Z"/></clipPath>
<style type="text/css"><![CDATA[
.g0_120{
fill: #FFF;
}
.g1_120{
fill: none;
stroke: #000;
stroke-width: 1.145;
stroke-miterlimit: 10;
}
]]></style>
</defs>
<path d="M0 1017.7H717.2V-3.7H0V1017.7Z" class="g0_120"/>
<g clip-path="url(#c1_120)">
<path clip-path="url(#c0_120)" d="M91.6 390.5H643.9V542.8H91.6V390.5Z" class="g0_120"/>
<path d="M317.9 415.1h26.4v45.8H317.9V415.1Zm0 45.8h26.4v22.4H317.9V460.9Zm0 22.4h26.4v24.6H317.9V483.3Zm0 24.6h26.4v34.4H317.9V507.9Zm26.4 -92.8h49v45.8h-49V415.1Zm0 45.8h49v22.4h-49V460.9Zm0 22.4h49v24.6h-49V483.3Zm0 24.6h49v34.4h-49V507.9Zm49.3 -92.8H436v45.8H393.6V415.1Zm0 45.8H436v22.4H393.6V460.9Zm0 22.4H436v24.6H393.6V483.3Zm0 24.6H436v34.4H393.6V507.9ZM436 415.1h38.6v45.8H436V415.1Zm0 45.8h38.6v22.4H436V460.9Zm0 22.4h38.6v24.6H436V483.3Zm0 24.6h38.6v34.4H436V507.9Zm38.6 -92.8h27.1v45.8H474.6V415.1Zm0 45.8h27.1v22.4H474.6V460.9Zm0 22.4h27.1v24.6H474.6V483.3Zm0 24.6h27.1v34.4H474.6V507.9Zm27 -92.8h37.5v45.8H501.6V415.1Zm.1 45.8h37.5v22.4H501.7V460.9Zm-.1 22.4h37.5v24.6H501.6V483.3Zm0 24.6h37.5v34.4H501.6V507.9Zm37.5 -92.8h39.7v45.8H539.1V415.1Zm0 45.8h39.7v22.4H539.1V460.9Zm0 22.4h39.7v24.6H539.1V483.3Zm0 24.6h39.7v34.4H539.1V507.9Zm39.7 -92.8h24.8v45.8H578.8V415.1Zm0 45.8h24.8v22.4H578.8V460.9Zm0 22.4h24.8v24.6H578.8V483.3Zm0 24.6h24.8v34.4H578.8V507.9Zm24.8 -92.8h38.6v45.8H603.6V415.1Zm0 45.8h38.6v22.4H603.6V460.9Zm0 22.4h38.6v24.6H603.6V483.3Zm0 24.6h38.6v34.4H603.6V507.9ZM258.3 415.1h59.3v45.8H258.3V415.1Zm0 45.8h59.3v22.4H258.3V460.9Zm0 22.4h59.3v24.6H258.3V483.3Zm0 24.6h59.3v34.4H258.3V507.9ZM218.2 415.1h40.1v45.8H218.2V415.1Zm0 45.8h40.1v22.4H218.2V460.9Zm0 22.4h40.1v24.6H218.2V483.3Zm0 24.6h40.1v34.4H218.2V507.9ZM183.9 415.1h34.4v45.8H183.9V415.1Zm0 45.8h34.3v22.4H183.9V460.9Zm0 22.4h34.4v24.6H183.9V483.3Zm0 24.6h34.4v34.4H183.9V507.9ZM149.5 415.1h34.4v45.8H149.5V415.1Zm0 45.8h34.4v22.4H149.5V460.9Zm0 22.4h34.4v24.6H149.5V483.3Zm0 24.6h34.4v34.4H149.5V507.9Z" class="g1_120"/>
</g>
<g clip-path="url(#c2_120)">
<path d="M154.9 790.5H581.1v92.8H154.9V790.5Z" class="g0_120"/>
<path d="M155.5 814H361.7v68.7H155.5V814Zm275 0H579.4v68.7H430.5V814Zm-68.8 34.4h68.8m0 -6.9l-13.8 6.9l13.8 6.8m-275 -12.6H361.7m68.8 -.3H579.4" class="g1_120"/>
</g>
</svg>