<?xml version="1.0" encoding="UTF-8" standalone="no"?>
<!DOCTYPE svg PUBLIC "-//W3C//DTD SVG 1.1//EN"
"http://www.w3.org/Graphics/SVG/1.1/DTD/svg11.dtd">
<svg viewBox="0 0 714 1017" version="1.1" xmlns="http://www.w3.org/2000/svg" xmlns:xlink="http://www.w3.org/1999/xlink">
<defs>
<clipPath id="c0_467"><path d="M82.1 478.8V271.4H610.3V478.8Z"/></clipPath>
<clipPath id="c1_467"><path d="M86.7 356.8V330.4H113v26.4Z"/></clipPath>
<clipPath id="c2_467"><path d="M404.6 399.8V373.4H431v26.4Z"/></clipPath>
<clipPath id="c3_467"><path d="M288.9 337.9V311.5h26.4v26.4Z"/></clipPath>
<clipPath id="c4_467"><path d="M82.1 479.3V270H612.2V479.3Z"/></clipPath>
<style type="text/css"><![CDATA[
.g0_467{
fill: #FFF;
}
.g1_467{
fill: none;
stroke: #000;
stroke-width: 1.145;
stroke-miterlimit: 10;
}
.g2_467{
fill: #000;
}
.g3_467{
fill: #DDD;
}
.g4_467{
fill: none;
stroke: #000;
stroke-width: 0.608;
stroke-miterlimit: 10;
}
]]></style>
</defs>
<path d="M0 1017.7H717.2V-3.7H0V1017.7Z" class="g0_467"/>
<g clip-path="url(#c4_467)">
<path clip-path="url(#c0_467)" d="M82.1 271.4H610.3V478.8H82.1V271.4Z" class="g0_467"/>
<path d="M82.7 272H197.2v91.7H82.7V272Zm160.4 0H609.7v91.7H243.1V272ZM346.2 415c0 -3.1 59 -5.5 131.8 -5.5c34.9 0 68.4 .6 93.2 1.6c24.7 1 38.5 2.4 38.5 3.9v57.8c0 3 -59 5.4 -131.7 5.4c-72.8 0 -131.8 -2.4 -131.8 -5.4V415Zm263.5 0c0 3 -59 5.4 -131.7 5.4C405.2 420.4 346.2 418 346.2 415M598.3 294.9H495.2v57.3H598.3V294.9Zm-126.1 0H364.5v57.3H472.2V294.9Z" class="g1_467"/>
<path d="M447.8 317.6c-2.6 .4 -4.5 2.7 -4.5 5.4c0 2.7 1.9 5 4.5 5.4c.7 .1 1.7 .1 2.2 -.1c1.1 -.3 2 -.8 2.9 -1.9l.3 -.3l.3 .2c.2 .2 .5 .3 .6 .3c.4 .1 .7 0 .9 -.4c.1 -.2 .2 -.3 .2 -.8v-.7h.6l.3 .4c.4 .4 .6 .6 .8 .6c.3 0 .4 -.2 .8 -.6q.3 -.5 .5 -.5q.1 0 .4 .4c.2 .2 .4 .4 .5 .4c.1 .1 1.1 .1 1.2 0c.1 0 .3 -.2 .4 -.5c.2 -.2 .4 -.4 .4 -.4c0 0 .1 .1 .3 .2c.1 .2 .2 .3 .3 .3c.2 .1 1.3 .1 1.4 .1c.2 -.1 2.4 -2.1 2.5 -2.3c.2 -.3 .1 -.8 -.4 -1.2c-.4 -.3 -.7 -.5 -1.2 -.7l-.4 -.2h-8.4v-.2c0 -.4 -.1 -.7 -.3 -.9c-.2 -.3 -.4 -.3 -.7 -.3c-.2 0 -.3 0 -.5 .2c-.2 .1 -.3 .2 -.4 .3h-.1l-.3 -.3c-.9 -1 -1.8 -1.6 -2.9 -1.9c-.5 -.1 -1.6 -.2 -2.2 0Zm1.9 1.2c1.1 .3 2.1 1.1 2.8 2.2c.2 .3 .3 .5 .3 .5c.1 0 .3 -.2 .6 -.4l.6 -.4v1.2h1.3c.8 0 2.9 0 4.7 0c3.2 0 3.3 0 3.6 .1c.3 .1 .8 .4 .7 .5c0 0 -.4 .3 -.8 .7c-.8 .7 -.8 .8 -1 .8c-.2 0 -.3 -.1 -.5 -.3c-.3 -.3 -.4 -.4 -.9 -.4c-.6 0 -.7 .1 -1.1 .6c-.1 .2 -.3 .4 -.3 .4c-.1 0 -.2 -.2 -.4 -.4c-.2 -.2 -.4 -.4 -.4 -.4c-.2 -.1 -1.3 -.1 -1.4 0c-.1 0 -.3 .2 -.4 .3c-.1 .2 -.2 .3 -.3 .3c0 0 -.1 -.1 -.2 -.2c-.4 -.3 -.5 -.4 -1.7 -.4H454v.9c0 .4 0 .8 0 .8c-.1 0 -.3 -.2 -.6 -.4c-.3 -.2 -.6 -.3 -.6 -.3c0 0 -.1 .2 -.3 .5c-.7 1.1 -1.6 1.8 -2.8 2.2c-.5 .1 -1.3 .1 -1.9 0c-2.4 -.6 -3.8 -3 -3.2 -5.3c.1 -.5 .5 -1.3 .8 -1.7c1.1 -1.3 2.9 -1.8 4.3 -1.4Z" class="g2_467"/>
<path d="M446.4 322c-.2 0 -.5 .3 -.6 .5c-.2 .3 -.2 .7 0 .9c.2 .4 .6 .7 1.1 .6c.4 -.1 .8 -.5 .8 -1c0 -.2 -.1 -.6 -.3 -.7c-.2 -.3 -.7 -.4 -1 -.3Z" class="g2_467"/>
<path d="M447.8 300.4c-2.6 .5 -4.5 2.7 -4.5 5.4c0 2.7 1.9 5 4.5 5.4c.7 .1 1.7 .1 2.2 -.1c1.1 -.3 2 -.8 2.9 -1.8l.3 -.4l.3 .3c.2 .1 .5 .2 .6 .3c.4 .1 .7 -.1 .9 -.5c.1 -.1 .2 -.2 .2 -.8v-.6h.6l.3 .3c.4 .5 .6 .6 .8 .6c.3 0 .4 -.2 .8 -.6q.3 -.5 .5 -.5c.1 0 .1 .1 .4 .4c.2 .2 .4 .4 .5 .4c.1 .1 1.1 .1 1.2 0c.1 0 .3 -.2 .4 -.5c.2 -.2 .4 -.4 .4 -.4c0 0 .1 .1 .3 .3c.1 .1 .2 .2 .3 .3c.2 0 1.3 0 1.4 0c.2 -.1 2.4 -2.1 2.5 -2.3c.2 -.3 .1 -.7 -.4 -1.2c-.4 -.3 -.7 -.5 -1.2 -.7l-.4 -.1l-4.2 -.1h-4.2v-.2c0 -.4 -.1 -.7 -.3 -.9c-.2 -.3 -.4 -.3 -.7 -.3c-.2 0 -.3 .1 -.5 .2c-.2 .1 -.3 .2 -.4 .3l-.1 .1l-.3 -.4c-.9 -.9 -1.8 -1.6 -2.9 -1.9c-.5 -.1 -1.6 -.1 -2.2 0Zm1.9 1.2c1.1 .3 2.1 1.1 2.8 2.2c.2 .3 .3 .5 .3 .5c.1 0 .3 -.2 .6 -.4l.6 -.4v1.2h1.3c.8 0 2.9 0 4.7 0c3.2 0 3.3 0 3.6 .1c.3 .1 .8 .4 .7 .5c0 0 -.4 .3 -.8 .7q-.8 .8 -1 .8c-.2 0 -.3 0 -.5 -.3c-.3 -.3 -.4 -.4 -.9 -.4c-.6 0 -.7 .1 -1.1 .6c-.1 .2 -.3 .4 -.3 .4c-.1 0 -.2 -.1 -.4 -.4c-.2 -.2 -.4 -.4 -.4 -.4c-.2 -.1 -1.3 -.1 -1.4 0c-.1 0 -.3 .2 -.4 .4c-.1 .1 -.2 .3 -.3 .3c0 0 -.1 -.2 -.2 -.3c-.4 -.3 -.5 -.4 -1.7 -.4H454v.9c0 .4 0 .8 0 .8c-.1 0 -.3 -.2 -.6 -.4c-.3 -.2 -.6 -.3 -.6 -.3c0 0 -.1 .2 -.3 .5c-.7 1.1 -1.6 1.8 -2.8 2.2c-.5 .1 -1.3 .2 -1.9 0c-2.4 -.6 -3.8 -3 -3.2 -5.3c.1 -.5 .5 -1.3 .8 -1.7c1.1 -1.2 2.9 -1.8 4.3 -1.4Z" class="g2_467"/>
<path d="M446.4 304.8c-.2 0 -.5 .3 -.6 .5c-.2 .3 -.2 .7 0 1c.2 .3 .6 .6 1.1 .5c.4 0 .8 -.5 .8 -1c0 -.2 -.1 -.6 -.3 -.7c-.2 -.3 -.7 -.4 -1 -.3Z" class="g2_467"/>
<path d="M495.2 432.4H598.3v34.4H495.2V432.4Z" class="g3_467"/>
<path d="M495.2 432.4H598.3v34.4H495.2V432.4Z" class="g1_467"/>
<path d="M378.3 432.4h80.2v34.4H378.3V432.4Z" class="g3_467"/>
<path d="M378.3 432.4h80.2v34.4H378.3V432.4ZM418.4 374V359.5" class="g1_467"/>
<path d="M418.4 353.5l2.7 8l-2.7 -2l-2.7 2l2.7 -8Z" class="g2_467"/>
<path d="M418.4 353.5l2.7 8l-2.7 -2l-2.7 2l2.7 -8ZM346.2 294.9H261.4v45.8h84.8V294.9ZM204.5 317.8h49.6" class="g1_467"/>
<path d="M198.5 317.8l8.1 -2.6l-2.1 2.6l2.1 2.7l-8.1 -2.7Z" class="g2_467"/>
<path d="M198.5 317.8l8.1 -2.6l-2.1 2.6l2.1 2.7l-8.1 -2.7Z" class="g1_467"/>
<path d="M260.1 317.8l-8 2.7l2 -2.7l-2 -2.6l8 2.6Z" class="g2_467"/>
<path d="M260.1 317.8l-8 2.7l2 -2.7l-2 -2.6l8 2.6Z" class="g1_467"/>
<g clip-path="url(#c1_467)">
<path d="M112 355.7l-.7 -4.5c0 -.3 -.3 -.6 -.6 -.6l-1.8 -.3l-.2 -1.7c0 -.4 -.3 -.6 -.7 -.7l-1.1 -.1c-.3 -.1 -.6 -.3 -.7 -.7l-.3 -2.9c-.1 -.2 -.1 -.3 -.3 -.5l-1.8 -1.8l-4.6 4.6l10.1 10.1c.2 .1 .4 .2 .7 .2l1.3 -.2c.4 -.1 .7 -.5 .7 -.9Zm-2.4 -1.2L101.1 346l.6 -.7l8.6 8.5l-.7 .7Z" class="g2_467"/>
<path d="M105.7 337.3l-6.6 -6.5c-.4 -.5 -1.1 -.5 -1.6 0l-9.4 9.4c-.5 .4 -.5 1.2 0 1.6l6.5 6.6c.5 .4 1.2 .4 1.6 0l9.5 -9.5c.4 -.4 .4 -1.1 0 -1.6Zm-8.5 0l-2.6 2.6c-.4 .4 -1 .4 -1.4 0c-.4 -.4 -.4 -1 0 -1.4l2.6 -2.6c.4 -.4 1 -.4 1.4 0c.4 .4 .4 1 0 1.4Z" class="g2_467"/>
</g>
<path d="M546.7 375.7V359.5" class="g1_467"/>
<path d="M546.7 353.5l2.7 8l-2.7 -2l-2.6 2l2.6 -8Z" class="g2_467"/>
<path d="M546.7 353.5l2.7 8l-2.7 -2l-2.6 2l2.6 -8ZM418.4 425.1V400.3" class="g1_467"/>
<path d="M418.4 431.1l-2.7 -8l2.7 2l2.7 -2l-2.7 8Z" class="g2_467"/>
<path d="M418.4 431.1l-2.7 -8l2.7 2l2.7 -2l-2.7 8Z" class="g1_467"/>
<g clip-path="url(#c2_467)">
<path d="M429.9 398.7l-.6 -4.5c0 -.4 -.3 -.6 -.7 -.7l-1.7 -.2l-.2 -1.7c-.1 -.4 -.3 -.7 -.7 -.7l-1.1 -.2c-.4 0 -.7 -.3 -.7 -.6l-.4 -2.9c0 -.2 -.1 -.4 -.2 -.5l-1.8 -1.8l-4.6 4.6l10 10c.2 .2 .5 .3 .7 .2l1.4 -.2c.4 0 .7 -.4 .6 -.8Zm-2.3 -1.2L419 388.9l.7 -.6l8.5 8.5l-.6 .7Z" class="g2_467"/>
<path d="M423.6 380.3l-6.5 -6.6c-.5 -.4 -1.2 -.4 -1.6 0l-9.5 9.5c-.4 .4 -.4 1.1 0 1.6l6.6 6.5c.4 .5 1.2 .5 1.6 0l9.4 -9.4c.5 -.4 .5 -1.2 0 -1.6Zm-8.4 0l-2.6 2.6c-.4 .4 -1 .4 -1.4 0c-.4 -.4 -.4 -1 0 -1.4l2.6 -2.6c.4 -.4 1 -.4 1.4 0c.4 .4 .4 1 0 1.4Z" class="g2_467"/>
</g>
<path d="M546.7 425.1V398.6" class="g1_467"/>
<path d="M546.7 431.1l-2.6 -8l2.6 2l2.7 -2l-2.7 8Z" class="g2_467"/>
<path d="M546.7 431.1l-2.6 -8l2.6 2l2.7 -2l-2.7 8Z" class="g1_467"/>
<path d="M539.4 381.1c-2.6 .5 -4.5 2.8 -4.5 5.5c0 2.7 2 4.9 4.6 5.4c.6 .1 1.6 .1 2.2 -.1c1.1 -.3 1.9 -.9 2.9 -1.9l.3 -.3l.3 .2c.2 .2 .4 .3 .5 .3c.4 .1 .8 0 1 -.4c.1 -.2 .1 -.3 .1 -.8l.1 -.7h.5l.4 .4c.4 .4 .6 .6 .8 .6c.2 0 .4 -.2 .7 -.6c.3 -.5 .4 -.5 .5 -.5q.2 0 .5 .4c.2 .2 .4 .4 .4 .4c.2 .1 1.1 .1 1.3 0c.1 0 .2 -.2 .4 -.5c.2 -.2 .3 -.4 .3 -.4c.1 0 .2 .1 .3 .2c.1 .2 .3 .3 .4 .3c.2 .1 1.2 .1 1.4 .1c.2 -.1 2.4 -2.1 2.5 -2.3c.2 -.3 0 -.8 -.5 -1.2c-.3 -.3 -.6 -.5 -1.2 -.7l-.4 -.2h-8.4v-.2c0 -.5 0 -.7 -.2 -.9c-.2 -.3 -.4 -.3 -.7 -.3c-.2 0 -.3 0 -.6 .2c-.1 .1 -.3 .2 -.4 .3h-.1l-.3 -.3c-.8 -1 -1.7 -1.6 -2.8 -1.9c-.5 -.1 -1.7 -.2 -2.3 -.1Zm2 1.3c1.1 .3 2.1 1.1 2.8 2.2c.1 .3 .3 .5 .3 .5c0 0 .3 -.2 .6 -.4l.5 -.4v1.2H547c.7 0 2.8 0 4.7 0c3.2 0 3.3 0 3.5 .1c.4 .1 .8 .4 .8 .4c0 .1 -.4 .4 -.8 .8q-.9 .7 -1.1 .7q-.2 0 -.4 -.2c-.3 -.3 -.4 -.4 -.9 -.4c-.6 0 -.7 .1 -1.1 .6c-.2 .2 -.3 .4 -.4 .4c0 0 -.2 -.2 -.3 -.4c-.2 -.2 -.4 -.4 -.5 -.4c-.1 -.1 -1.2 -.1 -1.4 0c-.1 0 -.2 .2 -.3 .3c-.2 .2 -.3 .3 -.3 .3c0 0 -.1 -.1 -.3 -.2c-.3 -.3 -.4 -.4 -1.6 -.4h-1v.9c0 .4 0 .8 0 .8c0 0 -.2 -.2 -.5 -.4c-.3 -.2 -.6 -.3 -.6 -.3c0 0 -.2 .2 -.3 .4c-.7 1.1 -1.7 1.9 -2.8 2.3c-.5 .1 -1.3 .1 -2 0c-2.3 -.6 -3.8 -3 -3.2 -5.4c.2 -.4 .6 -1.2 .9 -1.6c1.1 -1.3 2.8 -1.8 4.3 -1.4Z" class="g2_467"/>
<path d="M538.1 385.6c-.3 0 -.6 .3 -.7 .5c-.1 .3 -.1 .7 0 .9c.2 .4 .7 .7 1.1 .6c.5 -.1 .9 -.6 .9 -1c0 -.3 -.1 -.6 -.3 -.8c-.2 -.2 -.7 -.3 -1 -.2Z" class="g2_467"/>
<path d="M521.1 375.7L521 359.5" class="g1_467"/>
<path d="M521 353.5l2.7 8l-2.7 -2l-2.7 2l2.7 -8Z" class="g2_467"/>
<path d="M521 353.5l2.7 8l-2.7 -2l-2.7 2l2.7 -8Zm0 71.6l.1 -26.5" class="g1_467"/>
<path d="M521 431.1l-2.7 -8l2.7 2l2.7 -2l-2.7 8Z" class="g2_467"/>
<path d="M521 431.1l-2.7 -8l2.7 2l2.7 -2l-2.7 8Z" class="g1_467"/>
<path d="M513.8 381.1c-2.6 .5 -4.5 2.8 -4.5 5.5c0 2.7 1.9 4.9 4.6 5.4c.6 .1 1.6 .1 2.2 -.1c1.1 -.3 1.9 -.9 2.8 -1.9l.3 -.3l.4 .2c.2 .2 .4 .3 .5 .3c.4 .1 .8 0 1 -.4c.1 -.2 .1 -.3 .1 -.8l.1 -.7h.5l.4 .4c.4 .4 .6 .6 .8 .6c.2 0 .4 -.2 .7 -.6c.3 -.5 .4 -.5 .5 -.5q.2 0 .5 .4c.2 .2 .3 .4 .4 .4c.2 .1 1.1 .1 1.3 0c0 0 .2 -.2 .4 -.5c.2 -.2 .3 -.4 .3 -.4c.1 0 .2 .1 .3 .2c.1 .2 .3 .3 .4 .3c.2 .1 1.2 .1 1.4 .1c.2 -.1 2.4 -2.1 2.5 -2.3c.2 -.3 0 -.8 -.5 -1.2c-.3 -.3 -.6 -.5 -1.2 -.7l-.4 -.2h-8.4v-.2c0 -.5 0 -.7 -.2 -.9c-.2 -.3 -.4 -.3 -.7 -.3c-.3 0 -.4 0 -.6 .2c-.1 .1 -.3 .2 -.4 .3h-.1l-.3 -.3c-.8 -1 -1.7 -1.6 -2.8 -1.9c-.5 -.1 -1.7 -.2 -2.3 -.1Zm2 1.3c1.1 .3 2.1 1.1 2.8 2.2c.1 .3 .3 .5 .3 .5c0 0 .3 -.2 .6 -.4l.5 -.4v1.2h1.4c.7 0 2.8 0 4.6 0c3.3 0 3.4 0 3.6 .1c.4 .1 .8 .4 .8 .4c0 .1 -.4 .4 -.9 .8q-.8 .7 -1 .7q-.2 0 -.4 -.2c-.3 -.3 -.4 -.4 -.9 -.4c-.7 0 -.7 .1 -1.1 .6c-.2 .2 -.4 .4 -.4 .4c0 0 -.2 -.2 -.3 -.4c-.2 -.2 -.4 -.4 -.5 -.4c-.1 -.1 -1.2 -.1 -1.4 0c-.1 0 -.2 .2 -.3 .3c-.2 .2 -.3 .3 -.3 .3c0 0 -.1 -.1 -.3 -.2c-.3 -.3 -.4 -.4 -1.6 -.4h-1v.9c0 .4 0 .8 0 .8c0 0 -.3 -.2 -.5 -.4c-.3 -.2 -.6 -.3 -.6 -.3c0 0 -.2 .2 -.3 .4c-.7 1.1 -1.7 1.9 -2.8 2.3c-.6 .1 -1.4 .1 -2 0c-2.3 -.6 -3.8 -3 -3.2 -5.4c.2 -.4 .6 -1.2 .9 -1.6c1 -1.3 2.8 -1.8 4.3 -1.4Z" class="g2_467"/>
<path d="M512.4 385.6c-.2 0 -.5 .3 -.6 .5c-.1 .3 -.1 .7 0 .9c.2 .4 .7 .7 1.1 .6c.5 -.1 .9 -.6 .9 -1c0 -.3 -.1 -.6 -.3 -.8c-.2 -.2 -.7 -.3 -1.1 -.2Z" class="g2_467"/>
<path d="M572.6 375.7l-.1 -16.2" class="g1_467"/>
<path d="M572.5 353.5l2.7 8l-2.7 -2l-2.6 2l2.6 -8Z" class="g2_467"/>
<path d="M572.5 353.5l2.7 8l-2.7 -2l-2.6 2l2.6 -8Zm0 71.6l.1 -26.5" class="g1_467"/>
<path d="M572.5 431.1l-2.6 -8l2.6 2l2.7 -2l-2.7 8Z" class="g2_467"/>
<path d="M572.5 431.1l-2.6 -8l2.6 2l2.7 -2l-2.7 8Z" class="g1_467"/>
<path d="M565.7 381.4c-2.5 .5 -4.3 2.7 -4.3 5.2c0 2.5 1.8 4.7 4.3 5.1c.7 .1 1.6 .1 2.1 0c1 -.3 1.9 -.9 2.7 -1.8l.3 -.4l.3 .3c.2 .1 .5 .2 .6 .2c.3 .2 .7 0 .9 -.3c.1 -.2 .1 -.3 .1 -.8v-.7h.6l.3 .4c.4 .4 .6 .5 .8 .5c.2 0 .4 -.1 .7 -.6q.3 -.4 .4 -.4c.2 0 .2 .1 .5 .4c.2 .2 .3 .4 .4 .4c.2 .1 1 .1 1.2 0c.1 0 .2 -.3 .4 -.5c.1 -.2 .3 -.4 .3 -.4c0 0 .2 .1 .3 .2c.1 .2 .3 .3 .3 .3c.2 .1 1.2 .1 1.4 .1c.1 -.1 2.3 -2 2.4 -2.2c.1 -.3 0 -.7 -.5 -1.1c-.3 -.3 -.6 -.5 -1.1 -.7l-.4 -.2h-8v-.2c0 -.4 -.1 -.7 -.2 -.9c-.2 -.2 -.4 -.2 -.7 -.2c-.2 0 -.3 0 -.5 .2c-.2 .1 -.3 .2 -.4 .2l-.1 .1l-.3 -.3c-.8 -.9 -1.7 -1.5 -2.7 -1.8c-.5 -.1 -1.6 -.2 -2.1 -.1Zm1.9 1.2c1 .3 1.9 1.1 2.6 2.1c.1 .3 .3 .5 .3 .5c0 0 .3 -.2 .6 -.4l.5 -.4v1.1h1.3c.7 .1 2.7 .1 4.4 .1c3 0 3.1 0 3.4 .1c.3 .1 .7 .3 .7 .4c0 0 -.4 .3 -.8 .7q-.8 .7 -1 .7q-.2 0 -.4 -.2c-.3 -.3 -.4 -.4 -.9 -.4c-.5 0 -.6 0 -1 .5c-.1 .3 -.3 .4 -.3 .4c0 0 -.2 -.1 -.4 -.3c-.1 -.2 -.3 -.4 -.4 -.4c-.1 -.1 -1.1 -.1 -1.3 0c-.1 0 -.2 .1 -.4 .3c-.1 .1 -.2 .3 -.2 .3c0 0 -.1 -.1 -.3 -.3c-.3 -.3 -.4 -.3 -1.5 -.3h-.9v.8c0 .4 0 .8 0 .8c-.1 0 -.3 -.2 -.6 -.4c-.3 -.2 -.5 -.3 -.5 -.3c0 0 -.2 .2 -.3 .4c-.7 1.1 -1.6 1.8 -2.6 2.2c-.6 .1 -1.3 .1 -1.9 0c-2.3 -.6 -3.6 -2.9 -3.1 -5.1c.2 -.4 .6 -1.2 .9 -1.5c1 -1.3 2.6 -1.8 4.1 -1.4Z" class="g2_467"/>
<path d="M564.4 385.6c-.2 .1 -.5 .3 -.6 .5c-.2 .3 -.2 .7 0 .9c.2 .4 .6 .6 1 .6c.5 -.1 .9 -.6 .9 -1c0 -.2 -.2 -.6 -.3 -.7c-.2 -.3 -.7 -.4 -1 -.3Z" class="g2_467"/>
<path d="M447.8 334.7c-2.6 .5 -4.5 2.8 -4.5 5.5c0 2.7 1.9 4.9 4.5 5.4c.7 .1 1.7 .1 2.2 -.1c1.1 -.3 2 -.9 2.9 -1.9l.3 -.3l.3 .2c.2 .2 .5 .3 .6 .3c.4 .1 .7 0 .9 -.4c.1 -.2 .2 -.3 .2 -.8v-.7h.6l.3 .4c.4 .4 .6 .6 .8 .6c.3 0 .4 -.2 .8 -.7q.3 -.4 .5 -.4q.1 0 .4 .4c.2 .2 .4 .4 .5 .4c.1 .1 1.1 .1 1.2 0c.1 0 .3 -.3 .4 -.5c.2 -.2 .4 -.4 .4 -.4c0 0 .1 .1 .3 .2c.1 .2 .2 .3 .3 .3c.2 .1 1.3 .1 1.4 .1c.2 -.1 2.4 -2.1 2.5 -2.3c.2 -.3 .1 -.8 -.4 -1.2c-.4 -.3 -.7 -.5 -1.2 -.7l-.4 -.2h-8.4v-.2c0 -.5 -.1 -.8 -.3 -1c-.2 -.2 -.4 -.2 -.7 -.2c-.2 0 -.3 0 -.5 .2c-.2 .1 -.3 .2 -.4 .2l-.1 .1l-.3 -.3c-.9 -1 -1.8 -1.6 -2.9 -1.9c-.5 -.1 -1.6 -.2 -2.2 -.1Zm1.9 1.3c1.1 .3 2.1 1.1 2.8 2.2c.2 .3 .3 .5 .3 .5c.1 0 .3 -.2 .6 -.4l.6 -.4V339l1.3 .1c.8 0 2.9 0 4.7 0c3.2 0 3.3 0 3.6 .1c.3 .1 .8 .4 .7 .4c0 .1 -.4 .4 -.8 .8q-.8 .7 -1 .7c-.2 0 -.3 0 -.5 -.2c-.3 -.3 -.4 -.4 -.9 -.4c-.6 0 -.7 .1 -1.1 .6c-.1 .2 -.3 .4 -.3 .4c-.1 0 -.2 -.2 -.4 -.4c-.2 -.2 -.4 -.4 -.4 -.4c-.2 -.1 -1.3 -.1 -1.4 0c-.1 0 -.3 .1 -.4 .3c-.1 .2 -.2 .3 -.3 .3c0 0 -.1 -.1 -.2 -.2c-.4 -.4 -.5 -.4 -1.7 -.4H454v.9c0 .4 0 .8 0 .8c-.1 0 -.3 -.2 -.6 -.4c-.3 -.2 -.6 -.4 -.6 -.4c0 0 -.1 .3 -.3 .5c-.7 1.1 -1.6 1.9 -2.8 2.3c-.5 .1 -1.3 .1 -1.9 0c-2.4 -.6 -3.8 -3 -3.2 -5.4c.1 -.4 .5 -1.2 .8 -1.6c1.1 -1.3 2.9 -1.8 4.3 -1.4Z" class="g2_467"/>
<path d="M446.4 339.2c-.2 0 -.5 .3 -.6 .5c-.2 .3 -.2 .7 0 .9c.2 .4 .6 .7 1.1 .6c.4 -.1 .8 -.6 .8 -1c0 -.3 -.1 -.6 -.3 -.8c-.2 -.2 -.7 -.3 -1 -.2Z" class="g2_467"/>
<g clip-path="url(#c3_467)">
<path d="M314.2 336.8l-.6 -4.5c-.1 -.3 -.3 -.6 -.7 -.6l-1.7 -.3l-.3 -1.7c0 -.4 -.3 -.6 -.6 -.7l-1.2 -.1c-.3 -.1 -.6 -.4 -.6 -.7l-.4 -2.9c0 -.2 -.1 -.3 -.2 -.5L306 323l-4.5 4.6l10 10.1c.2 .1 .4 .2 .7 .2l1.3 -.2c.5 -.1 .7 -.5 .7 -.9Zm-2.4 -1.2l-8.5 -8.5l.7 -.7l8.5 8.5l-.7 .7Z" class="g2_467"/>
<path d="M307.9 318.4l-6.5 -6.5c-.5 -.5 -1.2 -.5 -1.7 0l-9.4 9.4c-.4 .4 -.4 1.2 0 1.6l6.6 6.6c.4 .4 1.1 .4 1.6 0l9.4 -9.5c.5 -.4 .5 -1.1 0 -1.6Zm-8.4 0l-2.6 2.6c-.4 .4 -1.1 .4 -1.5 0c-.3 -.4 -.3 -1 0 -1.4l2.7 -2.6c.4 -.4 1 -.4 1.4 0c.4 .4 .4 1 0 1.4Z" class="g2_467"/>
</g>
</g>
<path d="M65 832.5H174.6" class="g4_467"/>
</svg>