<?xml version="1.0" encoding="UTF-8" standalone="no"?>
<!DOCTYPE svg PUBLIC "-//W3C//DTD SVG 1.1//EN"
"http://www.w3.org/Graphics/SVG/1.1/DTD/svg11.dtd">
<svg viewBox="0 0 714 1017" version="1.1" xmlns="http://www.w3.org/2000/svg" xmlns:xlink="http://www.w3.org/1999/xlink">
<defs>
<clipPath id="c0_197"><path d="M65 718.5V454.2H631V718.5Z"/></clipPath>
<clipPath id="c1_197"><path d="M76.4 496.9v-37h37v37Z"/></clipPath>
<clipPath id="c2_197"><path d="M227.7 496.9v-37h37v37Z"/></clipPath>
<clipPath id="c3_197"><path d="M374.3 496.9v-37h37v37Z"/></clipPath>
<clipPath id="c4_197"><path d="M523.3 496.9v-37h37v37Z"/></clipPath>
<clipPath id="c5_197"><path d="M65 718.5V452.7H633.3V718.5Z"/></clipPath>
<style type="text/css"><![CDATA[
.g0_197{
fill: #FFF;
}
.g1_197{
fill: none;
stroke: #000;
stroke-width: 1.145;
stroke-miterlimit: 10;
}
.g2_197{
fill: #000;
}
.g3_197{
fill: none;
stroke: #000;
stroke-width: 2.291;
stroke-miterlimit: 10;
}
]]></style>
</defs>
<path d="M0 1017.7H717.2V-3.7H0V1017.7Z" class="g0_197"/>
<g clip-path="url(#c5_197)">
<path clip-path="url(#c0_197)" d="M65 454.2H631V718.9H65V454.2Z" class="g0_197"/>
<path d="M67.8 454.7H182.4v45.9H67.8V454.7Z" class="g1_197"/>
<path clip-path="url(#c1_197)" d="M94.7 466.8C93 468 91.1 469.3 90 471.6c-1.8 3.9 3.7 8.2 4 8.4c0 0 .1 0 .2 0c0 0 .1 0 .1 0c.2 -.1 .2 -.3 .1 -.4c0 0 -2 -3.9 -1.9 -6.6c0 -1 1.4 -2.1 2.8 -3.2c1.3 -1.1 2.8 -2.3 3.6 -3.6c1.9 -3.1 -.2 -6.1 -.2 -6.2c-.1 -.1 -.3 -.1 -.4 -.1c-.1 .1 -.2 .2 -.2 .4c0 0 .5 2 -.7 4c-.4 .9 -1.5 1.6 -2.7 2.5Z" class="g2_197"/>
<path d="M101.9 468.1c.2 -.1 .2 -.2 .1 -.4c-.1 -.1 -.2 -.2 -.4 -.1c-.3 .1 -7.1 2.7 -7.1 5.9c0 2.2 1 3.3 1.6 4.2c.3 .3 .5 .6 .6 .9c.2 .7 -.3 1.9 -.5 2.4c0 .1 0 .2 .1 .3c0 .1 .1 .1 .2 .1c0 0 .1 0 .2 -.1c.1 0 2.8 -2 2.3 -4.3c-.1 -.9 -.6 -1.6 -1 -2.1c-.6 -.9 -1 -1.6 -.3 -2.8c.7 -1.3 4.2 -4 4.2 -4Z" class="g2_197"/>
<path d="M84.2 481.4c-.1 .4 -.1 .7 .1 1.1c.8 1 3.4 1.5 7.4 1.5c.6 0 1.1 0 1.7 0c6.4 -.2 8.8 -2.2 8.9 -2.3c.1 -.1 .2 -.2 .1 -.4c-.1 -.1 -.2 -.2 -.4 -.1c-2.2 .6 -6.4 .8 -9.4 .8c-3.2 0 -4.9 -.2 -5.3 -.4c.2 -.3 1.5 -.8 3.1 -1.1c.1 0 .2 -.2 .2 -.3c0 -.2 -.1 -.3 -.3 -.3c-.9 0 -5.6 .1 -6.1 1.5Z" class="g2_197"/>
<path d="M105.7 479.4c-1.4 0 -2.6 .7 -2.7 .7c-.1 0 -.2 .2 -.1 .3c0 .2 .1 .3 .3 .3c0 0 2.8 0 3.1 1.6c.2 1.4 -2.7 3.6 -3.8 4.3c-.1 .1 -.2 .3 -.1 .4c0 .1 .1 .2 .2 .2q.1 0 .1 0c.3 -.1 6.5 -1.5 5.9 -5.1c-.4 -2.2 -1.8 -2.7 -2.9 -2.7Z" class="g2_197"/>
<path d="M101.4 486.2c0 -.1 -.1 -.3 -.2 -.3l-1.5 -1.1c0 0 -.1 0 -.2 0c0 0 -1.6 .4 -3.9 .7c-.9 .1 -1.9 .1 -2.9 .1c-2.3 0 -3.8 -.3 -4 -.5V485c0 -.1 .2 -.2 .4 -.2c.1 -.1 .2 -.3 .2 -.4c-.1 -.2 -.2 -.3 -.4 -.2c-1.5 .3 -2.2 .8 -2.2 1.5c.1 1.1 2.7 1.7 4.9 1.9c.4 0 .7 0 1.1 0c3.7 0 8.4 -1.2 8.4 -1.2c.2 0 .2 -.1 .3 -.2Z" class="g2_197"/>
<path d="M90 488.6c.2 -.1 .2 -.2 .2 -.3c-.1 -.2 -.2 -.2 -.3 -.2c-.2 0 -2 0 -2.1 1.2c-.1 .3 0 .6 .3 .9c.6 .7 2.3 1.2 5.2 1.4c.4 0 .7 0 1 0c3.7 0 6.2 -1.2 6.3 -1.2c.1 -.1 .2 -.2 .2 -.3c0 -.1 -.1 -.2 -.2 -.2l-1.8 -1.2c-.1 0 -.2 -.1 -.3 0c0 0 -1.2 .2 -3 .5c-.3 0 -.8 0 -1.3 0c-1.8 0 -3.8 -.3 -4.2 -.5v-.1Z" class="g2_197"/>
<path d="M92.6 495.1c8.5 0 13 -1.5 13.9 -2.5c.3 -.3 .3 -.6 .3 -.8c-.1 -.5 -.5 -.9 -.6 -.9c-.1 -.1 -.3 0 -.4 .1c-.1 .1 -.1 .2 0 .4c.1 0 .1 .1 -.1 .3c-.3 .3 -3.8 1.3 -9.7 1.6c-.8 .1 -1.6 .1 -2.5 .1c-5.2 0 -9.1 -.7 -9.6 -1.2c.2 -.2 1.6 -.7 3 -.9c.2 -.1 .3 -.2 .3 -.4c-.1 -.2 -.2 -.3 -.4 -.2c0 0 -.2 0 -.3 0c-2.4 .1 -5.1 .5 -5.3 1.7c0 .4 .1 .7 .3 1c.7 .7 2.5 1.7 11.1 1.7Z" class="g2_197"/>
<path d="M108.1 492.9c-.1 -.1 -.2 0 -.3 .1c0 0 -1.3 1.3 -5.1 2.1c-1.5 .3 -4.2 .4 -8.2 .4c-3.9 0 -7.7 -.1 -7.7 -.1c-.2 0 -.3 .1 -.3 .2c-.1 .2 0 .3 .2 .4c0 0 4 .9 9.4 .9c2.6 0 5.1 -.2 7.5 -.6c4.4 -.8 4.7 -3 4.7 -3.1c0 -.1 0 -.3 -.2 -.3Z" class="g2_197"/>
<path d="M67.8 500.6H182.4V535H67.8V500.6Z" class="g1_197"/>
<path d="M154.9 486.8l17.2 9.8h-5.3v9.1h5.3l-17.2 9.8l-17.2 -9.8H143v-9.1h-5.3l17.2 -9.8Z" class="g0_197"/>
<path d="M154.9 486.8l17.2 9.8h-5.3v9.1h5.3l-17.2 9.8l-17.2 -9.8H143v-9.1h-5.3l17.2 -9.8ZM67.8 535H182.4v34.3H67.8V535Z" class="g1_197"/>
<path d="M153.8 521.2L171 531h-5.3v9.1H171l-17.2 9.8l-17.2 -9.8h5.3V531h-5.3l17.2 -9.8Z" class="g0_197"/>
<path d="M153.8 521.2L171 531h-5.3v9.1H171l-17.2 9.8l-17.2 -9.8h5.3V531h-5.3l17.2 -9.8Z" class="g1_197"/>
<path d="M78.1 662.1c0 -2.5 21.1 -4.5 47 -4.5c12.5 0 24.4 .4 33.2 1.3c8.8 .9 13.8 2 13.8 3.2v25.3c0 2.5 -21 4.5 -47 4.5c-25.9 0 -47 -2 -47 -4.5V662.1Z" class="g0_197"/>
<path d="M78.1 662.1c0 -2.5 21.1 -4.5 47 -4.5c12.5 0 24.4 .4 33.2 1.3c8.8 .9 13.8 2 13.8 3.2v25.3c0 2.5 -21 4.5 -47 4.5c-25.9 0 -47 -2 -47 -4.5V662.1Zm94 0c0 2.6 -21 4.6 -47 4.6c-25.9 0 -47 -2 -47 -4.6" class="g1_197"/>
<path d="M125.1 648.1L125 578.8" class="g3_197"/>
<path d="M125.1 655L122 645.8l3.1 2.3l3 -2.3l-3 9.2Z" class="g2_197"/>
<path d="M125.1 655L122 645.8l3.1 2.3l3 -2.3l-3 9.2Z" class="g3_197"/>
<path d="M125 571.9l3.1 9.2L125 578.8l-3 2.3l3 -9.2Z" class="g2_197"/>
<path d="M125 571.9l3.1 9.2L125 578.8l-3 2.3l3 -9.2Z" class="g3_197"/>
<path d="M66.7 596.8H183.6v34.4H66.7V596.8Z" class="g0_197"/>
<path d="M142.9 663.3c0 .1 -.2 .3 -.5 .4c-.3 .1 -.8 .3 -1.4 .4c-.6 .1 -1.2 .2 -2 .2c-.8 .1 -1.6 .1 -2.4 .1c-.9 0 -1.7 0 -2.4 -.1c-.8 0 -1.5 -.1 -2.1 -.2c-.6 -.1 -1 -.3 -1.3 -.4c-.4 -.1 -.5 -.3 -.5 -.4c0 -.2 .1 -.3 .5 -.5c.3 -.1 .7 -.2 1.3 -.3c.6 -.1 1.3 -.2 2.1 -.3c.7 0 1.5 -.1 2.4 -.1c.8 0 1.6 .1 2.4 .1c.8 .1 1.4 .2 2 .3c.6 .1 1.1 .2 1.4 .3c.3 .2 .5 .3 .5 .5Z" class="g0_197"/>
<path d="M219.1 454.7H331.4v45.9H219.1V454.7Z" class="g1_197"/>
<path clip-path="url(#c2_197)" d="M246 466.8c-1.7 1.2 -3.7 2.5 -4.7 4.8c-1.8 3.9 3.7 8.2 3.9 8.4q.1 0 .2 0q.1 0 .2 0c.1 -.1 .1 -.3 .1 -.4c0 0 -2 -3.9 -1.9 -6.6c0 -1 1.3 -2.1 2.7 -3.2c1.3 -1.1 2.8 -2.3 3.7 -3.6c1.9 -3.1 -.2 -6.1 -.3 -6.2c0 -.1 -.2 -.1 -.3 -.1c-.2 .1 -.2 .2 -.2 .4c0 0 .4 2 -.7 4c-.5 .9 -1.5 1.6 -2.7 2.5Z" class="g2_197"/>
<path d="M253.2 468.1c.1 -.1 .1 -.2 .1 -.4c-.1 -.1 -.3 -.2 -.4 -.1c-.3 .1 -7.1 2.7 -7.1 5.9c0 2.2 .9 3.3 1.6 4.2c.3 .3 .5 .6 .6 .9c.2 .7 -.3 1.9 -.5 2.4c-.1 .1 -.1 .2 0 .3c.1 .1 .2 .1 .2 .1c.1 0 .2 0 .2 -.1c.1 0 2.9 -2 2.4 -4.3c-.2 -.9 -.6 -1.6 -1 -2.1c-.6 -.9 -1.1 -1.6 -.4 -2.8c.8 -1.3 4.2 -4 4.3 -4Z" class="g2_197"/>
<path d="M235.4 481.4c-.1 .4 0 .7 .2 1.1c.7 1 3.3 1.5 7.4 1.5c.5 0 1.1 0 1.7 0c6.4 -.2 8.8 -2.2 8.9 -2.3c.1 -.1 .1 -.2 0 -.4c0 -.1 -.2 -.2 -.3 -.1c-2.3 .6 -6.5 .8 -9.4 .8c-3.3 0 -5 -.2 -5.4 -.4c.2 -.3 1.5 -.8 3.1 -1.1c.2 0 .3 -.2 .3 -.3c0 -.2 -.2 -.3 -.3 -.3c-1 0 -5.7 .1 -6.2 1.5Z" class="g2_197"/>
<path d="M256.9 479.4c-1.3 0 -2.6 .7 -2.6 .7c-.1 0 -.2 .2 -.2 .3c.1 .2 .2 .3 .3 .3c.1 0 2.8 0 3.1 1.6c.2 1.4 -2.6 3.6 -3.8 4.3c-.1 .1 -.1 .3 -.1 .4c.1 .1 .2 .2 .3 .2h.1c.2 -.1 6.5 -1.5 5.8 -5.1c-.4 -2.2 -1.8 -2.7 -2.9 -2.7Z" class="g2_197"/>
<path d="M252.6 486.2c0 -.1 0 -.3 -.1 -.3L251 484.8c-.1 0 -.2 0 -.3 0c0 0 -1.5 .4 -3.8 .7c-.9 .1 -1.9 .1 -3 .1c-2.2 0 -3.7 -.3 -3.9 -.5q-.1 0 -.1 -.1c.1 -.1 .3 -.2 .4 -.2c.2 -.1 .3 -.3 .2 -.4c0 -.2 -.2 -.3 -.3 -.2c-1.6 .3 -2.3 .8 -2.2 1.5c.1 1.1 2.7 1.7 4.9 1.9c.3 0 .7 0 1 0c3.7 0 8.4 -1.2 8.5 -1.2c.1 0 .2 -.1 .2 -.2Z" class="g2_197"/>
<path d="M241.3 488.6c.1 -.1 .2 -.2 .1 -.3c0 -.2 -.1 -.2 -.3 -.2c-.2 0 -2 0 -2.1 1.2c0 .3 .1 .6 .3 .9c.6 .7 2.4 1.2 5.3 1.4c.3 0 .7 0 1 0c3.7 0 6.2 -1.2 6.3 -1.2c.1 -.1 .1 -.2 .1 -.3c0 -.1 0 -.2 -.1 -.2L250 488.7c-.1 0 -.1 -.1 -.2 0c0 0 -1.2 .2 -3.1 .5c-.3 0 -.7 0 -1.2 0c-1.9 0 -3.9 -.3 -4.3 -.5l.1 -.1Z" class="g2_197"/>
<path d="M243.9 495.1c8.4 0 13 -1.5 13.8 -2.5c.3 -.3 .4 -.6 .3 -.8c0 -.5 -.5 -.9 -.5 -.9c-.2 -.1 -.3 0 -.4 .1c-.1 .1 -.1 .2 0 .4c0 0 0 .1 -.1 .3c-.4 .3 -3.9 1.3 -9.7 1.6c-.8 .1 -1.7 .1 -2.5 .1c-5.3 0 -9.1 -.7 -9.6 -1.2c.2 -.2 1.5 -.7 3 -.9c.1 -.1 .2 -.2 .2 -.4c0 -.2 -.2 -.3 -.3 -.2c-.1 0 -.2 0 -.4 0c-2.3 .1 -5.1 .5 -5.2 1.7c-.1 .4 0 .7 .3 1c.6 .7 2.5 1.7 11.1 1.7Z" class="g2_197"/>
<path d="M259.4 492.9c-.1 -.1 -.3 0 -.4 .1c0 0 -1.2 1.3 -5.1 2.1c-1.4 .3 -4.2 .4 -8.1 .4c-4 0 -7.7 -.1 -7.8 -.1c-.1 0 -.3 .1 -.3 .2c0 .2 .1 .3 .2 .4c.1 0 4 .9 9.4 .9c2.6 0 5.1 -.2 7.5 -.6c4.4 -.8 4.7 -3 4.8 -3.1c0 -.1 -.1 -.3 -.2 -.3Z" class="g2_197"/>
<path d="M219.1 500.6H331.4V535H219.1V500.6Z" class="g1_197"/>
<path d="M298.7 486.8l17.2 9.8h-5.3v9.1h5.3l-17.2 9.8l-17.2 -9.8h5.3v-9.1h-5.3l17.2 -9.8Z" class="g0_197"/>
<path d="M298.7 486.8l17.2 9.8h-5.3v9.1h5.3l-17.2 9.8l-17.2 -9.8h5.3v-9.1h-5.3l17.2 -9.8Z" class="g1_197"/>
<path d="M228.2 662.1c0 -2.5 21.1 -4.5 47 -4.5c12.5 0 24.4 .4 33.2 1.3c8.9 .9 13.8 2 13.8 3.2v25.3c0 2.5 -21 4.5 -47 4.5c-25.9 0 -47 -2 -47 -4.5V662.1Z" class="g0_197"/>
<path d="M228.2 662.1c0 -2.5 21.1 -4.5 47 -4.5c12.5 0 24.4 .4 33.2 1.3c8.9 .9 13.8 2 13.8 3.2v25.3c0 2.5 -21 4.5 -47 4.5c-25.9 0 -47 -2 -47 -4.5V662.1Zm94 0c0 2.6 -21 4.6 -47 4.6c-25.9 0 -47 -2 -47 -4.6" class="g1_197"/>
<path d="M275.2 648.1V544.4" class="g3_197"/>
<path d="M275.2 655l-3 -9.2l3 2.3l3.1 -2.3l-3.1 9.2Z" class="g2_197"/>
<path d="M275.2 655l-3 -9.2l3 2.3l3.1 -2.3l-3.1 9.2Z" class="g3_197"/>
<path d="M275.2 537.5l3.1 9.2l-3.1 -2.3l-3 2.3l3 -9.2Z" class="g2_197"/>
<path d="M275.2 537.5l3.1 9.2l-3.1 -2.3l-3 2.3l3 -9.2Z" class="g3_197"/>
<path d="M217.9 579.6H334.8V614H217.9V579.6Z" class="g0_197"/>
<path d="M294.1 663.3c0 .1 -.1 .3 -.5 .4c-.3 .1 -.7 .3 -1.3 .4c-.6 .1 -1.3 .2 -2.1 .2c-.7 .1 -1.5 .1 -2.4 .1c-.8 0 -1.6 0 -2.4 -.1c-.8 0 -1.4 -.1 -2 -.2c-.6 -.1 -1.1 -.3 -1.4 -.4c-.3 -.1 -.5 -.3 -.5 -.4c0 -.2 .2 -.3 .5 -.5c.3 -.1 .8 -.2 1.4 -.3c.6 -.1 1.2 -.2 2 -.3c.8 0 1.6 -.1 2.4 -.1c.9 0 1.7 .1 2.4 .1c.8 .1 1.5 .2 2.1 .3c.6 .1 1 .2 1.3 .3c.4 .2 .5 .3 .5 .5Z" class="g0_197"/>
<path d="M365.7 454.7H480.3v45.9H365.7V454.7Z" class="g1_197"/>
<path clip-path="url(#c3_197)" d="M392.6 466.8c-1.7 1.2 -3.6 2.5 -4.6 4.8c-1.8 3.9 3.7 8.2 3.9 8.4c0 0 .1 0 .2 0c0 0 .1 0 .2 0c.1 -.1 .1 -.3 0 -.4c0 0 -2 -3.9 -1.9 -6.6c0 -1 1.4 -2.1 2.8 -3.2c1.3 -1.1 2.8 -2.3 3.6 -3.6c1.9 -3.1 -.2 -6.1 -.2 -6.2c-.1 -.1 -.2 -.1 -.4 -.1c-.1 .1 -.2 .2 -.1 .4c0 0 .4 2 -.8 4c-.4 .9 -1.5 1.6 -2.7 2.5Z" class="g2_197"/>
<path d="M399.8 468.1c.2 -.1 .2 -.2 .1 -.4c0 -.1 -.2 -.2 -.3 -.1c-.3 .1 -7.2 2.7 -7.2 5.9c0 2.2 1 3.3 1.7 4.2c.2 .3 .5 .6 .5 .9c.3 .7 -.3 1.9 -.5 2.4c0 .1 0 .2 .1 .3q.1 .1 .2 .1q.1 0 .2 -.1c.1 0 2.8 -2 2.4 -4.3c-.2 -.9 -.7 -1.6 -1.1 -2.1c-.6 -.9 -1 -1.6 -.3 -2.8c.7 -1.3 4.2 -4 4.2 -4Z" class="g2_197"/>
<path d="M382.1 481.4c-.1 .4 -.1 .7 .2 1.1c.7 1 3.3 1.5 7.3 1.5c.6 0 1.1 0 1.7 0c6.5 -.2 8.8 -2.2 8.9 -2.3c.1 -.1 .2 -.2 .1 -.4c-.1 -.1 -.2 -.2 -.3 -.1c-2.3 .6 -6.5 .8 -9.5 .8c-3.2 0 -4.9 -.2 -5.3 -.4c.2 -.3 1.5 -.8 3.1 -1.1c.2 0 .3 -.2 .2 -.3c0 -.2 -.1 -.3 -.3 -.3c-.9 0 -5.6 .1 -6.1 1.5Z" class="g2_197"/>
<path d="M403.6 479.4c-1.3 0 -2.6 .7 -2.7 .7c-.1 0 -.1 .2 -.1 .3c0 .2 .2 .3 .3 .3c0 0 2.8 0 3.1 1.6c.2 1.4 -2.7 3.6 -3.8 4.3c-.1 .1 -.2 .3 -.1 .4c0 .1 .1 .2 .3 .2c.3 -.1 6.6 -1.5 5.9 -5.1c-.4 -2.2 -1.8 -2.7 -2.9 -2.7Z" class="g2_197"/>
<path d="M399.3 486.2c0 -.1 0 -.3 -.1 -.3l-1.5 -1.1c-.1 0 -.2 0 -.3 0c0 0 -1.6 .4 -3.9 .7c-.9 .1 -1.9 .1 -2.9 .1c-2.3 0 -3.8 -.3 -4 -.5V485c0 -.1 .3 -.2 .4 -.2c.1 -.1 .2 -.3 .2 -.4c-.1 -.2 -.2 -.3 -.4 -.2c-1.5 .3 -2.2 .8 -2.2 1.5c.1 1.1 2.7 1.7 5 1.9c.3 0 .6 0 1 0c3.7 0 8.4 -1.2 8.5 -1.2c.1 0 .2 -.1 .2 -.2Z" class="g2_197"/>
<path d="M388 488.6c.1 -.1 .1 -.2 .1 -.3c-.1 -.2 -.2 -.2 -.3 -.2c-.2 0 -2 0 -2.1 1.2c-.1 .3 0 .6 .3 .9c.6 .7 2.3 1.2 5.2 1.4c.4 0 .7 0 1.1 0c3.7 0 6.1 -1.2 6.2 -1.2c.1 -.1 .2 -.2 .2 -.3c0 -.1 0 -.2 -.1 -.2l-1.9 -1.2c-.1 0 -.2 -.1 -.3 0c0 0 -1.2 .2 -3 .5c-.3 0 -.8 0 -1.3 0c-1.8 0 -3.8 -.3 -4.2 -.5l.1 -.1Z" class="g2_197"/>
<path d="M390.5 495.1c8.5 0 13 -1.5 13.9 -2.5c.3 -.3 .3 -.6 .3 -.8c-.1 -.5 -.5 -.9 -.6 -.9c-.1 -.1 -.3 0 -.4 .1c-.1 .1 -.1 .2 0 .4c.1 0 .1 .1 0 .3c-.4 .3 -3.9 1.3 -9.8 1.6c-.8 .1 -1.6 .1 -2.5 .1c-5.2 0 -9.1 -.7 -9.6 -1.2c.2 -.2 1.6 -.7 3 -.9c.2 -.1 .3 -.2 .3 -.4c0 -.2 -.2 -.3 -.4 -.2c0 0 -.1 0 -.3 0c-2.4 .1 -5.1 .5 -5.3 1.7c0 .4 .1 .7 .4 1c.6 .7 2.4 1.7 11 1.7Z" class="g2_197"/>
<path d="M406.1 492.9c-.2 -.1 -.3 0 -.4 .1c0 0 -1.3 1.3 -5.1 2.1c-1.5 .3 -4.2 .4 -8.1 .4c-4 0 -7.8 -.1 -7.8 -.1c-.2 0 -.3 .1 -.3 .2c0 .2 .1 .3 .2 .4c.1 0 4 .9 9.4 .9c2.6 0 5.1 -.2 7.5 -.6c4.4 -.8 4.7 -3 4.7 -3.1c0 -.1 0 -.3 -.1 -.3Z" class="g2_197"/>
<path d="M376.1 662.1c0 -2.5 21 -4.5 46.9 -4.5c12.5 0 24.4 .4 33.3 1.3c8.8 .9 13.7 2 13.7 3.2v25.3c0 2.5 -21 4.5 -47 4.5c-25.9 0 -46.9 -2 -46.9 -4.5V662.1Z" class="g0_197"/>
<path d="M376.1 662.1c0 -2.5 21 -4.5 46.9 -4.5c12.5 0 24.4 .4 33.3 1.3c8.8 .9 13.7 2 13.7 3.2v25.3c0 2.5 -21 4.5 -47 4.5c-25.9 0 -46.9 -2 -46.9 -4.5V662.1Zm93.9 0c0 2.6 -21 4.6 -47 4.6c-25.9 0 -46.9 -2 -46.9 -4.6" class="g1_197"/>
<path d="M423 547.3V510" class="g3_197"/>
<path d="M423 554.2L420 545l3 2.3l3.1 -2.3l-3.1 9.2Z" class="g2_197"/>
<path d="M423 554.2L420 545l3 2.3l3.1 -2.3l-3.1 9.2Z" class="g3_197"/>
<path d="M423 503.1l3.1 9.2L423 510l-3 2.3l3 -9.2Z" class="g2_197"/>
<path d="M423 503.1l3.1 9.2L423 510l-3 2.3l3 -9.2Z" class="g3_197"/>
<path d="M397.8 521.2h51.6v17.2H397.8V521.2Z" class="g0_197"/>
<path d="M440.8 663.3c0 .1 -.2 .3 -.5 .4c-.3 .1 -.8 .3 -1.4 .4c-.5 .1 -1.2 .2 -2 .2c-.8 .1 -1.6 .1 -2.4 .1c-.8 0 -1.6 0 -2.4 -.1c-.8 0 -1.5 -.1 -2.1 -.2c-.6 -.1 -1 -.3 -1.3 -.4c-.3 -.1 -.5 -.3 -.5 -.4c0 -.2 .2 -.3 .5 -.5c.3 -.1 .7 -.2 1.3 -.3c.6 -.1 1.3 -.2 2.1 -.3c.8 0 1.6 -.1 2.4 -.1c.8 0 1.6 .1 2.4 .1c.8 .1 1.5 .2 2 .3c.6 .1 1.1 .2 1.4 .3c.3 .2 .5 .3 .5 .5Z" class="g0_197"/>
<path d="M403.6 556.7h38.9c.5 0 .9 .1 1.3 .3c.4 .2 .8 .4 1.1 .7c.4 .4 .6 .7 .8 1.1c.2 .5 .3 .9 .3 1.4v16c0 .5 -.1 .9 -.3 1.3c-.2 .4 -.4 .8 -.8 1.1c-.3 .4 -.7 .6 -1.1 .8c-.4 .2 -.8 .2 -1.3 .2H403.6c-.5 0 -.9 0 -1.4 -.2c-.4 -.2 -.8 -.4 -1.1 -.8c-.3 -.3 -.5 -.7 -.7 -1.1c-.2 -.4 -.3 -.8 -.3 -1.3v-16c0 -.5 .1 -.9 .3 -1.4c.2 -.4 .4 -.7 .7 -1.1c.3 -.3 .7 -.5 1.1 -.7c.5 -.2 .9 -.3 1.4 -.3Z" class="g0_197"/>
<path d="M403.6 556.7h38.9c.5 0 .9 .1 1.3 .3c.4 .2 .8 .4 1.1 .7c.4 .4 .6 .7 .8 1.1c.2 .5 .3 .9 .3 1.4v16c0 .5 -.1 .9 -.3 1.3c-.2 .4 -.4 .8 -.8 1.1c-.3 .4 -.7 .6 -1.1 .8c-.4 .2 -.8 .2 -1.3 .2H403.6c-.5 0 -.9 0 -1.4 -.2c-.4 -.2 -.8 -.4 -1.1 -.8c-.3 -.3 -.5 -.7 -.7 -1.1c-.2 -.4 -.3 -.8 -.3 -1.3v-16c0 -.5 .1 -.9 .3 -1.4c.2 -.4 .4 -.7 .7 -1.1c.3 -.3 .7 -.5 1.1 -.7c.5 -.2 .9 -.3 1.4 -.3Z" class="g1_197"/>
<path d="M423 648.1v-59" class="g3_197"/>
<path d="M423 655l-3 -9.2l3 2.3l3.1 -2.3L423 655Z" class="g2_197"/>
<path d="M423 655l-3 -9.2l3 2.3l3.1 -2.3L423 655Z" class="g3_197"/>
<path d="M423 582.2l3.1 9.2L423 589.1l-3 2.3l3 -9.2Z" class="g2_197"/>
<path d="M423 582.2l3.1 9.2L423 589.1l-3 2.3l3 -9.2Z" class="g3_197"/>
<path d="M365.7 602.6H482.6v34.3H365.7V602.6Z" class="g0_197"/>
<path d="M514.7 454.7H629.3v45.9H514.7V454.7Z" class="g1_197"/>
<path clip-path="url(#c4_197)" d="M541.6 466.8c-1.7 1.2 -3.6 2.5 -4.7 4.8c-1.8 3.9 3.7 8.2 3.9 8.4c.1 0 .2 0 .2 0c.1 0 .2 0 .2 0c.1 -.1 .2 -.3 .1 -.4c0 0 -2 -3.9 -1.9 -6.6c0 -1 1.3 -2.1 2.8 -3.2c1.3 -1.1 2.7 -2.3 3.6 -3.6c1.9 -3.1 -.2 -6.1 -.2 -6.2c-.1 -.1 -.3 -.1 -.4 -.1c-.1 .1 -.2 .2 -.2 .4c0 0 .4 2 -.7 4c-.5 .9 -1.5 1.6 -2.7 2.5Z" class="g2_197"/>
<path d="M548.8 468.1c.1 -.1 .2 -.2 .1 -.4c-.1 -.1 -.2 -.2 -.4 -.1c-.3 .1 -7.1 2.7 -7.1 5.9c0 2.2 .9 3.3 1.6 4.2c.3 .3 .5 .6 .6 .9c.2 .7 -.3 1.9 -.5 2.4c-.1 .1 0 .2 .1 .3c0 .1 .1 .1 .2 .1c0 0 .1 0 .1 -.1c.2 0 2.9 -2 2.4 -4.3c-.2 -.9 -.6 -1.6 -1 -2.1c-.6 -.9 -1 -1.6 -.4 -2.8c.8 -1.3 4.3 -4 4.3 -4Z" class="g2_197"/>
<path d="M531.1 481.4c-.2 .4 -.1 .7 .1 1.1c.8 1 3.4 1.5 7.4 1.5c.5 0 1.1 0 1.7 0c6.4 -.2 8.8 -2.2 8.9 -2.3c.1 -.1 .1 -.2 .1 -.4c-.1 -.1 -.2 -.2 -.4 -.1c-2.2 .6 -6.5 .8 -9.4 .8c-3.3 0 -4.9 -.2 -5.3 -.4c.2 -.3 1.5 -.8 3.1 -1.1c.1 0 .2 -.2 .2 -.3c0 -.2 -.1 -.3 -.3 -.3c-.9 0 -5.7 .1 -6.1 1.5Z" class="g2_197"/>
<path d="M552.5 479.4c-1.3 0 -2.5 .7 -2.6 .7c-.1 0 -.2 .2 -.1 .3c0 .2 .1 .3 .2 .3c.1 0 2.9 0 3.1 1.6c.3 1.4 -2.6 3.6 -3.7 4.3c-.2 .1 -.2 .3 -.2 .4c.1 .1 .2 .2 .3 .2c0 0 .1 0 .1 0c.3 -.1 6.5 -1.5 5.9 -5.1c-.4 -2.2 -1.9 -2.7 -3 -2.7Z" class="g2_197"/>
<path d="M548.2 486.2c.1 -.1 0 -.3 -.1 -.3l-1.5 -1.1q-.1 0 -.2 0c-.1 0 -1.6 .4 -3.9 .7c-.9 .1 -1.9 .1 -2.9 .1c-2.3 0 -3.8 -.3 -4 -.5V485c0 -.1 .2 -.2 .4 -.2c.1 -.1 .2 -.3 .1 -.4c0 -.2 -.2 -.3 -.3 -.2c-1.5 .3 -2.3 .8 -2.2 1.5c.1 1.1 2.7 1.7 4.9 1.9c.3 0 .7 0 1 0c0 0 .1 0 .1 0c3.6 0 8.4 -1.2 8.4 -1.2c.1 0 .2 -.1 .2 -.2Z" class="g2_197"/>
<path d="M536.9 488.6c.1 -.1 .2 -.2 .1 -.3c0 -.2 -.1 -.2 -.3 -.2c-.2 0 -1.9 0 -2.1 1.2c0 .3 .1 .6 .3 .9c.7 .7 2.4 1.2 5.3 1.4c.3 0 .7 0 1 0c3.7 0 6.2 -1.2 6.3 -1.2c.1 -.1 .2 -.2 .2 -.3c0 -.1 -.1 -.2 -.2 -.2l-1.9 -1.2c0 0 -.1 -.1 -.2 0c0 0 -1.2 .2 -3 .5c-.4 0 -.8 0 -1.3 0c-1.8 0 -3.8 -.3 -4.2 -.5v-.1Z" class="g2_197"/>
<path d="M539.5 495.1c8.4 0 13 -1.5 13.9 -2.5c.3 -.3 .3 -.6 .3 -.8c-.1 -.5 -.6 -.9 -.6 -.9c-.1 -.1 -.3 0 -.4 .1c-.1 .1 -.1 .2 0 .4c0 0 .1 .1 -.1 .3c-.3 .3 -3.9 1.3 -9.7 1.6c-.8 .1 -1.7 .1 -2.5 .1c-5.3 0 -9.1 -.7 -9.6 -1.2c.2 -.2 1.5 -.7 3 -.9c.2 -.1 .3 -.2 .2 -.4c0 -.2 -.1 -.3 -.3 -.2c0 0 -.2 0 -.3 0c-2.4 .1 -5.2 .5 -5.3 1.7c-.1 .4 0 .7 .3 1c.7 .7 2.5 1.7 11.1 1.7Z" class="g2_197"/>
<path d="M555 492.9c-.1 -.1 -.3 0 -.3 .1c-.1 0 -1.3 1.3 -5.1 2.1c-1.5 .3 -4.2 .4 -8.2 .4c-3.9 0 -7.7 -.1 -7.7 -.1c-.2 0 -.3 .1 -.4 .2c0 .2 .1 .3 .3 .4c0 0 4 .9 9.3 .9c2.6 0 5.2 -.2 7.5 -.6c4.5 -.8 4.8 -3 4.8 -3.1c0 -.1 -.1 -.3 -.2 -.3Z" class="g2_197"/>
<path d="M525 662.1c0 -2.5 21.1 -4.5 47 -4.5c12.4 0 24.4 .4 33.2 1.3c8.8 .9 13.8 2 13.8 3.2v25.3c0 2.5 -21.1 4.5 -47 4.5c-25.9 0 -47 -2 -47 -4.5V662.1Z" class="g0_197"/>
<path d="M525 662.1c0 -2.5 21.1 -4.5 47 -4.5c12.4 0 24.4 .4 33.2 1.3c8.8 .9 13.8 2 13.8 3.2v25.3c0 2.5 -21.1 4.5 -47 4.5c-25.9 0 -47 -2 -47 -4.5V662.1Zm94 0c0 2.6 -21.1 4.6 -47 4.6c-25.9 0 -47 -2 -47 -4.6" class="g1_197"/>
<path d="M589.8 663.3c0 .1 -.2 .3 -.5 .4c-.3 .1 -.8 .3 -1.4 .4c-.6 .1 -1.3 .2 -2 .2c-.8 .1 -1.6 .1 -2.4 .1c-.9 0 -1.7 0 -2.5 -.1c-.7 0 -1.4 -.1 -2 -.2c-.6 -.1 -1.1 -.3 -1.4 -.4c-.3 -.1 -.5 -.3 -.5 -.4c0 -.2 .2 -.3 .5 -.5c.3 -.1 .8 -.2 1.4 -.3c.6 -.1 1.3 -.2 2 -.3c.8 0 1.6 -.1 2.5 -.1c.8 0 1.6 .1 2.4 .1c.7 .1 1.4 .2 2 .3c.6 .1 1.1 .2 1.4 .3c.3 .2 .5 .3 .5 .5Z" class="g0_197"/>
<path d="M572 648.1V510" class="g3_197"/>
<path d="M572 655l-3.1 -9.2l3.1 2.3l3.1 -2.3L572 655Z" class="g2_197"/>
<path d="M572 655l-3.1 -9.2l3.1 2.3l3.1 -2.3L572 655Z" class="g3_197"/>
<path d="M572 503.1l3.1 9.2L572 510l-3.1 2.3l3.1 -9.2Z" class="g2_197"/>
<path d="M572 503.1l3.1 9.2L572 510l-3.1 2.3l3.1 -9.2Z" class="g3_197"/>
<path clip-path="url(#c0_197)" d="M514.7 562.5H631.6v34.3H514.7V562.5Z" class="g0_197"/>
</g>
</svg>