<?xml version="1.0" encoding="UTF-8" standalone="no"?>
<!DOCTYPE svg PUBLIC "-//W3C//DTD SVG 1.1//EN"
"http://www.w3.org/Graphics/SVG/1.1/DTD/svg11.dtd">
<svg viewBox="0 0 714 1017" version="1.1" xmlns="http://www.w3.org/2000/svg" xmlns:xlink="http://www.w3.org/1999/xlink">
<defs>
<clipPath id="c0_295"><path d="M65.4 573.2V399.1H626.9V573.2Z"/></clipPath>
<clipPath id="c1_295"><path d="M65.4 573.2V399.1H627.6V573.2Z"/></clipPath>
<style type="text/css"><![CDATA[
.g0_295{
fill: #FFF;
}
.g1_295{
fill: none;
stroke: #000;
stroke-width: 2.291;
stroke-miterlimit: 10;
}
.g2_295{
fill: none;
stroke: #000;
stroke-width: 1.145;
stroke-miterlimit: 10;
}
.g3_295{
fill: #000;
}
.g4_295{
fill: none;
stroke: #000;
stroke-width: 1.217;
stroke-miterlimit: 10;
}
]]></style>
</defs>
<path d="M0 1017.7H717.2V-3.7H0V1017.7Z" class="g0_295"/>
<path d="M67.1 187.1V182c0 -2.4 2 -4.3 4.4 -4.3h550c2.4 0 4.3 1.9 4.3 4.3v5.1c0 2.4 -1.9 4.3 -4.3 4.3H71.5c-2.4 0 -4.4 -1.9 -4.4 -4.3Z" class="g0_295"/>
<path d="M65 175.5v18.1" class="g4_295"/>
<g clip-path="url(#c1_295)">
<g clip-path="url(#c0_295)">
<path d="M65.4 399.1H626.9V573.2H65.4V399.1Z" class="g0_295"/>
<path d="M94.9 415.7c0 .9 -.1 1.8 -.3 2.8c-.2 .9 -.5 1.8 -.8 2.7c-.4 .8 -.8 1.6 -1.4 2.4c-.5 .8 -1.1 1.5 -1.7 2.2c-.7 .7 -1.4 1.3 -2.2 1.8c-.8 .5 -1.6 .9 -2.5 1.3c-.9 .4 -1.8 .6 -2.7 .8c-.9 .2 -1.8 .3 -2.8 .3c-.9 0 -1.8 -.1 -2.8 -.3c-.9 -.2 -1.8 -.4 -2.6 -.8c-.9 -.4 -1.7 -.8 -2.5 -1.3c-.8 -.5 -1.5 -1.1 -2.2 -1.8c-.7 -.7 -1.3 -1.4 -1.8 -2.2c-.5 -.8 -.9 -1.6 -1.3 -2.4c-.4 -.9 -.6 -1.8 -.8 -2.7c-.2 -1 -.3 -1.9 -.3 -2.8c0 -1 .1 -1.9 .3 -2.8c.2 -.9 .4 -1.8 .8 -2.7c.4 -.9 .8 -1.7 1.3 -2.5c.5 -.8 1.1 -1.5 1.8 -2.2c.7 -.6 1.4 -1.2 2.2 -1.7c.8 -.6 1.6 -1 2.5 -1.4c.8 -.3 1.7 -.6 2.6 -.8c1 -.2 1.9 -.3 2.8 -.3c1 0 1.9 .1 2.8 .3c.9 .2 1.8 .5 2.7 .8c.9 .4 1.7 .8 2.5 1.4c.8 .5 1.5 1.1 2.2 1.7c.6 .7 1.2 1.4 1.7 2.2c.6 .8 1 1.6 1.4 2.5c.3 .9 .6 1.8 .8 2.7c.2 .9 .3 1.8 .3 2.8Z" class="g1_295"/>
</g>
<path d="M94.9 415.7h514" class="g2_295"/>
<path d="M614.9 415.7l-8 2.6l2 -2.6l-2 -2.7l8 2.7Z" class="g3_295"/>
<path d="M614.9 415.7l-8 2.6l2 -2.6l-2 -2.7l8 2.7Z" class="g2_295"/>
<path clip-path="url(#c0_295)" d="M94.9 461.5c0 .9 -.1 1.9 -.3 2.8c-.2 .9 -.5 1.8 -.8 2.7c-.4 .9 -.8 1.7 -1.4 2.5c-.5 .7 -1.1 1.5 -1.7 2.1c-.7 .7 -1.4 1.3 -2.2 1.8c-.8 .5 -1.6 1 -2.5 1.3c-.9 .4 -1.8 .7 -2.7 .9c-.9 .1 -1.8 .2 -2.8 .2c-.9 0 -1.8 -.1 -2.8 -.2c-.9 -.2 -1.8 -.5 -2.6 -.9c-.9 -.3 -1.7 -.8 -2.5 -1.3c-.8 -.5 -1.5 -1.1 -2.2 -1.8c-.7 -.6 -1.3 -1.4 -1.8 -2.1c-.5 -.8 -.9 -1.6 -1.3 -2.5c-.4 -.9 -.6 -1.8 -.8 -2.7c-.2 -.9 -.3 -1.9 -.3 -2.8c0 -.9 .1 -1.9 .3 -2.8c.2 -.9 .4 -1.8 .8 -2.7c.4 -.8 .8 -1.7 1.3 -2.5c.5 -.7 1.1 -1.5 1.8 -2.1c.7 -.7 1.4 -1.3 2.2 -1.8c.8 -.5 1.6 -1 2.5 -1.3c.8 -.4 1.7 -.7 2.6 -.8c1 -.2 1.9 -.3 2.8 -.3c1 0 1.9 .1 2.8 .3c.9 .1 1.8 .4 2.7 .8c.9 .3 1.7 .8 2.5 1.3c.8 .5 1.5 1.1 2.2 1.8c.6 .6 1.2 1.4 1.7 2.1c.6 .8 1 1.7 1.4 2.5c.3 .9 .6 1.8 .8 2.7c.2 .9 .3 1.9 .3 2.8Z" class="g1_295"/>
<path d="M94.9 461.5h514" class="g2_295"/>
<path d="M614.9 461.5l-8 2.7l2 -2.7l-2 -2.7l8 2.7Z" class="g3_295"/>
<path d="M614.9 461.5l-8 2.7l2 -2.7l-2 -2.7l8 2.7Z" class="g2_295"/>
<path clip-path="url(#c0_295)" d="M94.9 507.3c0 1 -.1 1.9 -.3 2.8c-.2 1 -.5 1.8 -.8 2.7c-.4 .9 -.8 1.7 -1.4 2.5c-.5 .8 -1.1 1.5 -1.7 2.2c-.7 .6 -1.4 1.2 -2.2 1.7c-.8 .6 -1.6 1 -2.5 1.4c-.9 .3 -1.8 .6 -2.7 .8c-.9 .2 -1.8 .3 -2.8 .3c-.9 0 -1.8 -.1 -2.8 -.3c-.9 -.2 -1.8 -.5 -2.6 -.8c-.9 -.4 -1.7 -.8 -2.5 -1.4c-.8 -.5 -1.5 -1.1 -2.2 -1.7c-.7 -.7 -1.3 -1.4 -1.8 -2.2c-.5 -.8 -.9 -1.6 -1.3 -2.5c-.4 -.9 -.6 -1.7 -.8 -2.7c-.2 -.9 -.3 -1.8 -.3 -2.8c0 -.9 .1 -1.8 .3 -2.8c.2 -.9 .4 -1.8 .8 -2.6c.4 -.9 .8 -1.7 1.3 -2.5c.5 -.8 1.1 -1.5 1.8 -2.2c.7 -.7 1.4 -1.2 2.2 -1.8c.8 -.5 1.6 -.9 2.5 -1.3c.8 -.4 1.7 -.6 2.6 -.8c1 -.2 1.9 -.3 2.8 -.3c1 0 1.9 .1 2.8 .3c.9 .2 1.8 .4 2.7 .8c.9 .4 1.7 .8 2.5 1.3c.8 .6 1.5 1.1 2.2 1.8c.6 .7 1.2 1.4 1.7 2.2c.6 .8 1 1.6 1.4 2.5c.3 .8 .6 1.7 .8 2.6c.2 1 .3 1.9 .3 2.8Z" class="g1_295"/>
<path d="M94.9 507.3h514" class="g2_295"/>
<path d="M614.9 507.3l-8 2.7l2 -2.7l-2 -2.6l8 2.6Z" class="g3_295"/>
<path d="M614.9 507.3l-8 2.7l2 -2.7l-2 -2.6l8 2.6Z" class="g2_295"/>
<path clip-path="url(#c0_295)" d="M94.9 553.2c0 .9 -.1 1.8 -.3 2.8c-.2 .9 -.5 1.8 -.8 2.7c-.4 .8 -.8 1.6 -1.4 2.4c-.5 .8 -1.1 1.5 -1.7 2.2c-.7 .7 -1.4 1.3 -2.2 1.8c-.8 .5 -1.6 .9 -2.5 1.3c-.9 .4 -1.8 .6 -2.7 .8c-.9 .2 -1.8 .3 -2.8 .3c-.9 0 -1.8 -.1 -2.8 -.3c-.9 -.2 -1.8 -.4 -2.6 -.8c-.9 -.4 -1.7 -.8 -2.5 -1.3c-.8 -.5 -1.5 -1.1 -2.2 -1.8c-.7 -.7 -1.3 -1.4 -1.8 -2.2c-.5 -.8 -.9 -1.6 -1.3 -2.4c-.4 -.9 -.6 -1.8 -.8 -2.7c-.2 -1 -.3 -1.9 -.3 -2.8c0 -1 .1 -1.9 .3 -2.8c.2 -.9 .4 -1.8 .8 -2.7c.4 -.9 .8 -1.7 1.3 -2.5c.5 -.8 1.1 -1.5 1.8 -2.2c.7 -.6 1.4 -1.2 2.2 -1.7c.8 -.6 1.6 -1 2.5 -1.4c.8 -.3 1.7 -.6 2.6 -.8c1 -.2 1.9 -.3 2.8 -.3c1 0 1.9 .1 2.8 .3c.9 .2 1.8 .5 2.7 .8c.9 .4 1.7 .8 2.5 1.4c.8 .5 1.5 1.1 2.2 1.7c.6 .7 1.2 1.4 1.7 2.2c.6 .8 1 1.6 1.4 2.5c.3 .9 .6 1.8 .8 2.7c.2 .9 .3 1.8 .3 2.8Z" class="g1_295"/>
<path d="M94.9 553.2h514" class="g2_295"/>
<path d="M614.9 553.2l-8 2.6l2 -2.6l-2 -2.7l8 2.7Z" class="g3_295"/>
<path d="M614.9 553.2l-8 2.6l2 -2.6l-2 -2.7l8 2.7Z" class="g2_295"/>
<path d="M111.2 571.5v-1.1h1.2v1.1m-1.2 -3.4v-1.2h1.2v1.2m-1.2 -3.5v-1.1h1.2v1.1m-1.2 -3.4V560h1.2v1.2m-1.2 -3.4v-1.2h1.2v1.2m-1.2 -3.5v-1.1h1.2v1.1m-1.2 -3.4v-1.2h1.2v1.2m-1.2 -3.5v-1.1h1.2v1.1M111.2 544v-1.1h1.1V544m-1.1 -3.4v-1.2h1.1v1.2m-1.1 -3.5V536h1.1v1.1m-1.1 -3.4v-1.2h1.1v1.2m-1.1 -3.4v-1.2h1.1v1.2m-1.1 -3.5v-1.1h1.1v1.1m-1.1 -3.4v-1.2h1.1v1.2m-1.1 -3.5v-1.1h1.1v1.1m-1.1 -3.4v-1.1h1.1v1.1m-1.1 -3.4v-1.2h1.1v1.2m-1.1 -3.5v-1.1h1.1v1.1m-1.1 -3.4V505h1.1v1.2m-1.2 -3.4v-1.2h1.2v1.2m-1.2 -3.5v-1.1h1.2v1.1m-1.2 -3.4v-1.2h1.2v1.2m-1.2 -3.5v-1.1h1.2v1.1M111.1 489v-1.1h1.2V489m-1.2 -3.4v-1.2h1.2v1.2m-1.2 -3.5V481h1.2v1.1m-1.2 -3.4v-1.2h1.2v1.2m-1.2 -3.4v-1.2h1.2v1.2m-1.2 -3.5v-1.1h1.2v1.1m-1.2 -3.4v-1.2h1.1v1.2m-1.1 -3.5v-1.1h1.1v1.1m-1.1 -3.4v-1.1h1.1v1.1m-1.1 -3.4v-1.2h1.1v1.2m-1.1 -3.5v-1.1h1.1v1.1m-1.1 -3.4V450h1.1v1.2m-1.1 -3.4v-1.2h1.1v1.2m-1.1 -3.5v-1.1h1.1v1.1m-1.1 -3.4v-1.2h1.1v1.2m-1.1 -3.5v-1.1h1.1v1.1M111.1 434v-1.1h1.1V434m-1.1 -3.4v-1.2h1.1v1.2M111 427.1V426h1.2v1.1M111 423.7v-1.2h1.2v1.2M111 420.3v-1.2h1.2v1.2M111 416.8v-1.1h1.2v1.1M111 413.4v-1.2h1.2v1.2M111 409.9v-1.1h1.2v1.1M111 406.5v-1.1h1.2v1.1M111 403.1v-1.2h1.2v1.2M111 399.6v0h1.2Z" class="g3_295"/>
<path d="M265.9 571.5v-1.1h1.2v1.1m-1.2 -3.4v-1.2h1.2v1.2m-1.2 -3.5v-1.1h1.2v1.1m-1.2 -3.4V560h1.2v1.2m-1.2 -3.4v-1.2h1.2v1.2m-1.2 -3.5v-1.1H267l.1 1.1m-1.2 -3.4v-1.2H267v1.2m-1.1 -3.5v-1.1H267v1.1M265.9 544v-1.1H267V544m-1.1 -3.4v-1.2H267v1.2m-1.1 -3.5V536H267v1.1m-1.1 -3.4v-1.2H267v1.2m-1.1 -3.4v-1.2H267v1.2m-1.1 -3.5v-1.1H267v1.1m-1.1 -3.4v-1.2H267v1.2m-1.1 -3.5v-1.1H267v1.1m-1.1 -3.4v-1.1H267v1.1m-1.2 -3.4v-1.2H267v1.2m-1.2 -3.5v-1.1H267v1.1m-1.2 -3.4V505H267v1.2m-1.2 -3.4v-1.2H267v1.2m-1.2 -3.5v-1.1H267v1.1m-1.2 -3.4v-1.2H267v1.2m-1.2 -3.5v-1.1H267v1.1M265.8 489v-1.1H267V489m-1.2 -3.4v-1.2H267v1.2m-1.2 -3.5V481H267v1.1m-1.2 -3.4v-1.2h1.1v1.2m-1.1 -3.4v-1.2h1.1v1.2m-1.1 -3.5v-1.1h1.1v1.1m-1.1 -3.4v-1.2h1.1v1.2m-1.1 -3.5v-1.1h1.1v1.1m-1.1 -3.4v-1.1h1.1v1.1m-1.1 -3.4v-1.2h1.1v1.2m-1.1 -3.5v-1.1h1.1v1.1m-1.1 -3.4V450h1.1v1.2m-1.1 -3.4v-1.2h1.1v1.2m-1.1 -3.5v-1.1h1.1v1.1m-1.1 -3.4v-1.2h1.1v1.2m-1.2 -3.5v-1.1h1.2v1.1M265.7 434v-1.1h1.2V434m-1.2 -3.4v-1.2h1.2v1.2m-1.2 -3.5V426h1.2v1.1m-1.2 -3.4v-1.2h1.2v1.2m-1.2 -3.4v-1.2h1.2v1.2m-1.2 -3.5v-1.1h1.2v1.1m-1.2 -3.4v-1.2h1.2v1.2m-1.2 -3.5v-1.1h1.2v1.1m-1.2 -3.4v-1.1h1.2v1.1m-1.2 -3.4v-1.2h1.1v1.2Z" class="g3_295"/>
<path d="M214.4 571.5v-1.1h1.1v1.1m-1.1 -3.4v-1.2h1.1v1.2m-1.1 -3.5v-1.1h1.1v1.1m-1.1 -3.4V560h1.1v1.2m-1.2 -3.4v-1.2h1.2v1.2m-1.2 -3.5v-1.1h1.2v1.1m-1.2 -3.4v-1.2h1.2v1.2m-1.2 -3.5v-1.1h1.2v1.1M214.3 544v-1.1h1.2V544m-1.2 -3.4v-1.2h1.2v1.2m-1.2 -3.5V536h1.2v1.1m-1.2 -3.4v-1.2h1.2v1.2m-1.2 -3.4v-1.2h1.2v1.2m-1.2 -3.5v-1.1h1.2v1.1m-1.2 -3.4v-1.2h1.1v1.2m-1.1 -3.5v-1.1h1.1v1.1m-1.1 -3.4v-1.1h1.1v1.1m-1.1 -3.4v-1.2h1.1v1.2m-1.1 -3.5v-1.1h1.1v1.1m-1.1 -3.4V505h1.1v1.2m-1.1 -3.4v-1.2h1.1v1.2m-1.1 -3.5v-1.1h1.1v1.1m-1.1 -3.4v-1.2h1.1v1.2m-1.1 -3.5v-1.1h1.1v1.1M214.3 489v-1.1h1.1V489m-1.1 -3.4l-.1 -1.2h1.2v1.2m-1.2 -3.5V481h1.2v1.1m-1.2 -3.4v-1.2h1.2v1.2m-1.2 -3.4v-1.2h1.2v1.2m-1.2 -3.5v-1.1h1.2v1.1m-1.2 -3.4v-1.2h1.2v1.2m-1.2 -3.5v-1.1h1.2v1.1m-1.2 -3.4v-1.1h1.2v1.1m-1.2 -3.4v-1.2h1.2v1.2m-1.2 -3.5v-1.1h1.2v1.1m-1.2 -3.4V450h1.1l.1 1.2m-1.2 -3.4v-1.2h1.1v1.2m-1.1 -3.5v-1.1h1.1v1.1m-1.1 -3.4v-1.2h1.1v1.2m-1.1 -3.5v-1.1h1.1v1.1M214.2 434v-1.1h1.1V434m-1.1 -3.4v-1.2h1.1v1.2m-1.1 -3.5V426h1.1v1.1m-1.1 -3.4v-1.2h1.1v1.2m-1.1 -3.4v-1.2h1.1v1.2m-1.1 -3.5v-1.1h1.1v1.1m-1.1 -3.4v-1.2h1.1v1.2m-1.2 -3.5v-1.1h1.2v1.1m-1.2 -3.4v-1.1h1.2v1.1m-1.2 -3.4v-1.2h1.2v1.2Z" class="g3_295"/>
<path d="M162.8 571.5v-1.1h1.1v1.1m-1.1 -3.4v-1.2h1.1v1.2m-1.1 -3.5v-1.1h1.1v1.1m-1.1 -3.4V560h1.1v1.2m-1.1 -3.4v-1.2h1.1v1.2m-1.1 -3.5v-1.1h1.1v1.1m-1.1 -3.4v-1.2h1.1v1.2m-1.1 -3.5v-1.1h1.1v1.1M162.8 544v-1.1h1.1V544m-1.1 -3.4v-1.2h1.1v1.2m-1.1 -3.5V536h1.1v1.1m-1.1 -3.4v-1.2h1.1v1.2m-1.2 -3.4v-1.2h1.2v1.2m-1.2 -3.5v-1.1h1.2v1.1m-1.2 -3.4v-1.2h1.2v1.2m-1.2 -3.5v-1.1h1.2v1.1m-1.2 -3.4v-1.1h1.2v1.1m-1.2 -3.4v-1.2h1.2v1.2m-1.2 -3.5v-1.1h1.2v1.1m-1.2 -3.4V505h1.2v1.2m-1.2 -3.4v-1.2h1.2v1.2m-1.2 -3.5v-1.1h1.2v1.1m-1.2 -3.4v-1.2h1.1v1.2m-1.1 -3.5v-1.1h1.1v1.1M162.7 489v-1.1h1.1V489m-1.1 -3.4v-1.2h1.1v1.2m-1.1 -3.5V481h1.1v1.1m-1.1 -3.4v-1.2h1.1v1.2m-1.1 -3.4v-1.2h1.1v1.2m-1.1 -3.5v-1.1h1.1v1.1m-1.1 -3.4v-1.2h1.1v1.2m-1.1 -3.5v-1.1h1.1v1.1m-1.1 -3.4v-1.1h1.1v1.1m-1.1 -3.4l-.1 -1.2h1.2v1.2m-1.2 -3.5v-1.1h1.2v1.1m-1.2 -3.4V450h1.2v1.2m-1.2 -3.4v-1.2h1.2v1.2m-1.2 -3.5v-1.1h1.2v1.1m-1.2 -3.4v-1.2h1.2v1.2m-1.2 -3.5v-1.1h1.2v1.1M162.6 434v-1.1h1.2V434m-1.2 -3.4v-1.2h1.2v1.2m-1.2 -3.5V426h1.2v1.1m-1.2 -3.4v-1.2h1.1l.1 1.2m-1.2 -3.4v-1.2h1.1v1.2m-1.1 -3.5v-1.1h1.1v1.1m-1.1 -3.4v-1.2h1.1v1.2m-1.1 -3.5v-1.1h1.1v1.1m-1.1 -3.4v-1.1h1.1v1.1m-1.1 -3.4v-1.2h1.1v1.2Z" class="g3_295"/>
<path d="M317.5 571.5v-1.1h1.1v1.1m-1.1 -3.4v-1.2h1.1v1.2m-1.1 -3.5v-1.1h1.1v1.1m-1.1 -3.4V560h1.1v1.2m-1.1 -3.4v-1.2h1.1v1.2m-1.1 -3.5v-1.1h1.1v1.1m-1.1 -3.4v-1.2h1.1v1.2m-1.1 -3.5v-1.1h1.1v1.1M317.5 544v-1.1h1.1V544m-1.2 -3.4v-1.2h1.2v1.2m-1.2 -3.5V536h1.2v1.1m-1.2 -3.4v-1.2h1.2v1.2m-1.2 -3.4v-1.2h1.2v1.2m-1.2 -3.5v-1.1h1.2v1.1m-1.2 -3.4v-1.2h1.2v1.2m-1.2 -3.5v-1.1h1.2v1.1m-1.2 -3.4v-1.1h1.2v1.1m-1.2 -3.4v-1.2h1.2v1.2m-1.2 -3.5v-1.1h1.2v1.1m-1.2 -3.4V505h1.1v1.2m-1.1 -3.4v-1.2h1.1v1.2m-1.1 -3.5v-1.1h1.1v1.1m-1.1 -3.4v-1.2h1.1v1.2m-1.1 -3.5v-1.1h1.1v1.1M317.4 489v-1.1h1.1V489m-1.1 -3.4v-1.2h1.1v1.2m-1.1 -3.5V481h1.1v1.1m-1.1 -3.4v-1.2h1.1v1.2m-1.1 -3.4v-1.2h1.1v1.2m-1.1 -3.5v-1.1h1.1v1.1m-1.1 -3.4v-1.2h1.1v1.2m-1.2 -3.5v-1.1h1.2v1.1m-1.2 -3.4v-1.1h1.2v1.1m-1.2 -3.4v-1.2h1.2v1.2m-1.2 -3.5v-1.1h1.2v1.1m-1.2 -3.4V450h1.2v1.2m-1.2 -3.4v-1.2h1.2v1.2m-1.2 -3.5v-1.1h1.2v1.1m-1.2 -3.4v-1.2h1.2v1.2m-1.2 -3.5v-1.1h1.2v1.1M317.3 434v-1.1h1.2V434m-1.2 -3.4v-1.2h1.1v1.2m-1.1 -3.5V426h1.1v1.1m-1.1 -3.4v-1.2h1.1v1.2m-1.1 -3.4v-1.2h1.1v1.2m-1.1 -3.5v-1.1h1.1v1.1m-1.1 -3.4v-1.2h1.1v1.2m-1.1 -3.5v-1.1h1.1v1.1m-1.1 -3.4v-1.1h1.1v1.1m-1.1 -3.4v-1.2h1.1v1.2Z" class="g3_295"/>
<path d="M369.1 571.5v-1.1h1.1v1.1M369 568.1v-1.2h1.2v1.2M369 564.6v-1.1h1.2v1.1M369 561.2V560h1.2v1.2M369 557.8v-1.2h1.2v1.2M369 554.3v-1.1h1.2v1.1M369 550.9v-1.2h1.2v1.2M369 547.4v-1.1h1.2v1.1M369 544v-1.1h1.2V544M369 540.6v-1.2h1.2v1.2M369 537.1V536h1.2v1.1M369 533.7v-1.2h1.1v1.2M369 530.3v-1.2h1.1v1.2M369 526.8v-1.1h1.1v1.1M369 523.4v-1.2h1.1v1.2M369 519.9v-1.1h1.1v1.1M369 516.5v-1.1h1.1v1.1M369 513.1v-1.2h1.1v1.2M369 509.6v-1.1h1.1v1.1M369 506.2V505h1.1v1.2M369 502.8v-1.2h1.1v1.2M369 499.3v-1.1h1.1v1.1M369 495.9v-1.2h1.1v1.2m-1.2 -3.5v-1.1h1.2v1.1M368.9 489v-1.1h1.2V489m-1.2 -3.4v-1.2h1.2v1.2m-1.2 -3.5V481h1.2v1.1m-1.2 -3.4v-1.2h1.2v1.2m-1.2 -3.4v-1.2h1.2v1.2m-1.2 -3.5v-1.1h1.2v1.1m-1.2 -3.4v-1.2h1.2v1.2m-1.2 -3.5v-1.1h1.2v1.1m-1.2 -3.4v-1.1h1.2v1.1m-1.2 -3.4v-1.2H370v1.2m-1.1 -3.5v-1.1H370v1.1m-1.1 -3.4V450H370v1.2m-1.1 -3.4v-1.2H370v1.2m-1.1 -3.5v-1.1H370v1.1m-1.1 -3.4v-1.2H370v1.2m-1.1 -3.5v-1.1H370v1.1M368.9 434v-1.1H370V434m-1.1 -3.4v-1.2H370v1.2m-1.1 -3.5V426H370v1.1m-1.1 -3.4v-1.2H370v1.2m-1.1 -3.4l-.1 -1.2H370v1.2m-1.2 -3.5v-1.1H370v1.1m-1.2 -3.4v-1.2H370v1.2m-1.2 -3.5v-1.1H370v1.1m-1.2 -3.4v-1.1H370v1.1m-1.2 -3.4v-1.2H370v1.2Z" class="g3_295"/>
<path d="M420.6 571.5v-1.1h1.2v1.1m-1.2 -3.4v-1.2h1.2v1.2m-1.2 -3.5v-1.1h1.2v1.1m-1.2 -3.4V560h1.2v1.2m-1.2 -3.4v-1.2h1.1l.1 1.2m-1.2 -3.5v-1.1h1.1v1.1m-1.1 -3.4v-1.2h1.1v1.2m-1.1 -3.5v-1.1h1.1v1.1M420.6 544v-1.1h1.1V544m-1.1 -3.4v-1.2h1.1v1.2m-1.1 -3.5V536h1.1v1.1m-1.1 -3.4v-1.2h1.1v1.2m-1.1 -3.4v-1.2h1.1v1.2m-1.1 -3.5v-1.1h1.1v1.1m-1.1 -3.4v-1.2h1.1v1.2m-1.1 -3.5v-1.1h1.1v1.1m-1.1 -3.4v-1.1h1.1v1.1m-1.1 -3.4v-1.2h1.1v1.2m-1.1 -3.5v-1.1h1.1v1.1m-1.1 -3.4V505h1.1v1.2m-1.1 -3.4v-1.2h1.1v1.2m-1.1 -3.5v-1.1h1.1v1.1m-1.1 -3.4v-1.2h1.1v1.2m-1.1 -3.5v-1.1h1.1v1.1M420.5 489v-1.1h1.2V489m-1.2 -3.4v-1.2h1.2v1.2m-1.2 -3.5V481h1.2v1.1m-1.2 -3.4v-1.2h1.2v1.2m-1.2 -3.4v-1.2h1.2v1.2m-1.2 -3.5v-1.1h1.2v1.1m-1.2 -3.4v-1.2h1.2v1.2m-1.2 -3.5v-1.1h1.2v1.1m-1.2 -3.4v-1.1h1.2v1.1m-1.2 -3.4v-1.2h1.2v1.2m-1.2 -3.5v-1.1h1.2v1.1m-1.2 -3.4V450h1.2v1.2m-1.2 -3.4v-1.2h1.2v1.2m-1.2 -3.5v-1.1h1.2v1.1m-1.2 -3.4v-1.2h1.2v1.2m-1.2 -3.5v-1.1h1.2v1.1M420.5 434v-1.1h1.2V434m-1.2 -3.4v-1.2h1.1v1.2m-1.1 -3.5V426h1.1v1.1m-1.1 -3.4v-1.2h1.1v1.2m-1.1 -3.4v-1.2h1.1v1.2m-1.1 -3.5v-1.1h1.1v1.1m-1.1 -3.4v-1.2h1.1v1.2m-1.1 -3.5v-1.1h1.1v1.1m-1.1 -3.4v-1.1h1.1v1.1m-1.1 -3.4v-1.2h1.1v1.2Z" class="g3_295"/>
<path d="M472.2 571.5v-1.1h1.1v1.1m-1.1 -3.4v-1.2h1.1v1.2m-1.1 -3.5v-1.1h1.1v1.1m-1.1 -3.4V560h1.1v1.2m-1.1 -3.4l-.1 -1.2h1.2v1.2m-1.2 -3.5v-1.1h1.2v1.1m-1.2 -3.4v-1.2h1.2v1.2m-1.2 -3.5v-1.1h1.2v1.1M472.1 544v-1.1h1.2V544m-1.2 -3.4v-1.2h1.2v1.2m-1.2 -3.5V536h1.2v1.1m-1.2 -3.4v-1.2h1.1v1.2m-1.1 -3.4v-1.2h1.1v1.2m-1.1 -3.5v-1.1h1.1v1.1m-1.1 -3.4v-1.2h1.1v1.2m-1.1 -3.5v-1.1h1.1v1.1m-1.1 -3.4v-1.1h1.1v1.1m-1.1 -3.4v-1.2h1.1v1.2m-1.1 -3.5v-1.1h1.1v1.1M472 506.2V505h1.2v1.2M472 502.8v-1.2h1.2v1.2M472 499.3v-1.1h1.2v1.1M472 495.9v-1.2h1.2v1.2M472 492.4v-1.1h1.2v1.1M472 489v-1.1h1.2V489M472 485.6v-1.2h1.1l.1 1.2M472 482.1V481h1.1v1.1M472 478.7v-1.2h1.1v1.2M472 475.3v-1.2h1.1v1.2M472 471.8v-1.1h1.1v1.1M472 468.4v-1.2h1.1v1.2M472 464.9v-1.1h1.1v1.1M472 461.5v-1.1h1.1v1.1M472 458.1l-.1 -1.2h1.2v1.2m-1.2 -3.5v-1.1h1.2v1.1m-1.2 -3.4V450h1.2v1.2m-1.2 -3.4v-1.2h1.2v1.2m-1.2 -3.5v-1.1h1.2v1.1m-1.2 -3.4v-1.2h1.2v1.2m-1.2 -3.5v-1.1h1.2v1.1M471.9 434v-1.1H473V434m-1.1 -3.4v-1.2H473v1.2m-1.1 -3.5V426H473v1.1m-1.1 -3.4v-1.2H473v1.2m-1.1 -3.4v-1.2H473v1.2m-1.1 -3.5v-1.1H473v1.1m-1.1 -3.4v-1.2H473v1.2m-1.1 -3.5v-1.1H473v1.1m-1.2 -3.4v-1.1H473v1.1m-1.2 -3.4v-1.2H473v1.2Z" class="g3_295"/>
<path d="M523.7 571.5v-1.1h1.2v1.1m-1.2 -3.4v-1.2h1.2v1.2m-1.2 -3.5v-1.1h1.2v1.1m-1.2 -3.4V560h1.2v1.2m-1.2 -3.4v-1.2h1.2v1.2m-1.2 -3.5v-1.1h1.1l.1 1.1m-1.2 -3.4v-1.2h1.1v1.2m-1.1 -3.5v-1.1h1.1v1.1M523.7 544v-1.1h1.1V544m-1.1 -3.4v-1.2h1.1v1.2m-1.1 -3.5V536h1.1v1.1m-1.1 -3.4v-1.2h1.1v1.2m-1.1 -3.4v-1.2h1.1v1.2m-1.1 -3.5l-.1 -1.1h1.2v1.1m-1.2 -3.4v-1.2h1.2v1.2m-1.2 -3.5v-1.1h1.2v1.1m-1.2 -3.4v-1.1h1.2v1.1m-1.2 -3.4v-1.2h1.2v1.2m-1.2 -3.5v-1.1h1.2v1.1m-1.2 -3.4V505h1.2v1.2m-1.2 -3.4v-1.2h1.1v1.2m-1.1 -3.5v-1.1h1.1v1.1m-1.1 -3.4v-1.2h1.1v1.2m-1.1 -3.5v-1.1h1.1v1.1M523.6 489v-1.1h1.1V489m-1.1 -3.4v-1.2h1.1v1.2m-1.1 -3.5V481h1.1v1.1m-1.1 -3.4v-1.2h1.1v1.2m-1.2 -3.4v-1.2h1.2v1.2m-1.2 -3.5v-1.1h1.2v1.1m-1.2 -3.4v-1.2h1.2v1.2m-1.2 -3.5v-1.1h1.2v1.1m-1.2 -3.4v-1.1h1.2v1.1m-1.2 -3.4v-1.2h1.2v1.2m-1.2 -3.5v-1.1h1.1l.1 1.1m-1.2 -3.4V450h1.1v1.2m-1.1 -3.4v-1.2h1.1v1.2m-1.1 -3.5v-1.1h1.1v1.1m-1.1 -3.4v-1.2h1.1v1.2m-1.1 -3.5v-1.1h1.1v1.1M523.5 434v-1.1h1.1V434m-1.1 -3.4v-1.2h1.1v1.2m-1.1 -3.5l-.1 -1.1h1.2v1.1m-1.2 -3.4v-1.2h1.2v1.2m-1.2 -3.4v-1.2h1.2v1.2m-1.2 -3.5v-1.1h1.2v1.1m-1.2 -3.4v-1.2h1.2v1.2m-1.2 -3.5v-1.1h1.2v1.1m-1.2 -3.4v-1.1h1.2v1.1m-1.2 -3.4v-1.2h1.1v1.2Z" class="g3_295"/>
<path d="M575.3 571.5v-1.1h1.1v1.1m-1.1 -3.4v-1.2h1.1v1.2m-1.1 -3.5v-1.1h1.1v1.1m-1.1 -3.4V560h1.1v1.2m-1.1 -3.4v-1.2h1.1v1.2m-1.1 -3.5v-1.1h1.1v1.1m-1.1 -3.4v-1.2h1.1v1.2m-1.1 -3.5v-1.1h1.1v1.1M575.2 544v-1.1h1.2V544m-1.2 -3.4v-1.2h1.2v1.2m-1.2 -3.5V536h1.2v1.1m-1.2 -3.4v-1.2h1.2v1.2m-1.2 -3.4v-1.2h1.2v1.2m-1.2 -3.5v-1.1h1.2v1.1m-1.2 -3.4v-1.2h1.2v1.2m-1.2 -3.5v-1.1h1.1v1.1m-1.1 -3.4v-1.1h1.1v1.1m-1.1 -3.4v-1.2h1.1v1.2m-1.1 -3.5v-1.1h1.1v1.1m-1.1 -3.4V505h1.1v1.2m-1.1 -3.4v-1.2h1.1v1.2m-1.1 -3.5v-1.1h1.1v1.1m-1.1 -3.4l-.1 -1.2h1.2v1.2m-1.2 -3.5v-1.1h1.2v1.1M575.1 489v-1.1h1.2V489m-1.2 -3.4v-1.2h1.2v1.2m-1.2 -3.5V481h1.2v1.1m-1.2 -3.4v-1.2h1.2v1.2m-1.2 -3.4v-1.2h1.2v1.2m-1.2 -3.5v-1.1h1.1v1.1m-1.1 -3.4v-1.2h1.1v1.2m-1.1 -3.5v-1.1h1.1v1.1m-1.1 -3.4v-1.1h1.1v1.1m-1.1 -3.4v-1.2h1.1v1.2m-1.1 -3.5v-1.1h1.1v1.1m-1.1 -3.4V450h1.1v1.2m-1.1 -3.4v-1.2h1.1v1.2M575 444.3v-1.1h1.2v1.1M575 440.9v-1.2h1.2v1.2M575 437.4v-1.1h1.2v1.1M575 434v-1.1h1.2V434M575 430.6v-1.2h1.2v1.2M575 427.1V426h1.2v1.1M575 423.7v-1.2h1.2v1.2M575 420.3v-1.2h1.1v1.2M575 416.8v-1.1h1.1v1.1M575 413.4v-1.2h1.1v1.2M575 409.9v-1.1h1.1v1.1M575 406.5v-1.1h1.1v1.1M575 403.1v-1.2h1.1v1.2Z" class="g3_295"/>
<path d="M124.4 409.4H253.9c.8 0 1.5 .1 2.2 .4c.7 .3 1.3 .7 1.8 1.2c.6 .6 1 1.2 1.3 1.9c.3 .7 .4 1.4 .4 2.2c0 .8 -.1 1.5 -.4 2.2c-.3 .7 -.7 1.3 -1.3 1.8c-.5 .6 -1.1 1 -1.8 1.3c-.7 .3 -1.4 .4 -2.2 .4H124.4c-.7 0 -1.5 -.1 -2.2 -.4c-.7 -.3 -1.3 -.7 -1.8 -1.3c-.6 -.5 -1 -1.1 -1.3 -1.8c-.3 -.7 -.4 -1.4 -.4 -2.2c0 -.8 .1 -1.5 .4 -2.2c.3 -.7 .7 -1.3 1.3 -1.9c.5 -.5 1.1 -.9 1.8 -1.2c.7 -.3 1.5 -.4 2.2 -.4Z" class="g0_295"/>
<path d="M124.4 409.4H253.9c.8 0 1.5 .1 2.2 .4c.7 .3 1.3 .7 1.8 1.2c.6 .6 1 1.2 1.3 1.9c.3 .7 .4 1.4 .4 2.2c0 .8 -.1 1.5 -.4 2.2c-.3 .7 -.7 1.3 -1.3 1.8c-.5 .6 -1.1 1 -1.8 1.3c-.7 .3 -1.4 .4 -2.2 .4H124.4c-.7 0 -1.5 -.1 -2.2 -.4c-.7 -.3 -1.3 -.7 -1.8 -1.3c-.6 -.5 -1 -1.1 -1.3 -1.8c-.3 -.7 -.4 -1.4 -.4 -2.2c0 -.8 .1 -1.5 .4 -2.2c.3 -.7 .7 -1.3 1.3 -1.9c.5 -.5 1.1 -.9 1.8 -1.2c.7 -.3 1.5 -.4 2.2 -.4Z" class="g2_295"/>
<path d="M173.6 401.3h33v25.3h-33V401.3Z" class="g0_295"/>
<path d="M382.2 455.2H511.7c.8 0 1.5 .1 2.2 .4c.7 .3 1.3 .7 1.9 1.3c.5 .5 .9 1.1 1.2 1.8c.3 .7 .4 1.5 .4 2.2c0 .8 -.1 1.5 -.4 2.2c-.3 .7 -.7 1.3 -1.2 1.9c-.6 .5 -1.2 .9 -1.9 1.2c-.7 .3 -1.4 .5 -2.2 .5H382.2c-.7 0 -1.5 -.2 -2.2 -.5c-.7 -.3 -1.3 -.7 -1.8 -1.2c-.6 -.6 -1 -1.2 -1.3 -1.9c-.3 -.7 -.4 -1.4 -.4 -2.2c0 -.7 .1 -1.5 .4 -2.2c.3 -.7 .7 -1.3 1.3 -1.8c.5 -.6 1.1 -1 1.8 -1.3c.7 -.3 1.5 -.4 2.2 -.4Z" class="g0_295"/>
<path d="M382.2 455.2H511.7c.8 0 1.5 .1 2.2 .4c.7 .3 1.3 .7 1.9 1.3c.5 .5 .9 1.1 1.2 1.8c.3 .7 .4 1.5 .4 2.2c0 .8 -.1 1.5 -.4 2.2c-.3 .7 -.7 1.3 -1.2 1.9c-.6 .5 -1.2 .9 -1.9 1.2c-.7 .3 -1.4 .5 -2.2 .5H382.2c-.7 0 -1.5 -.2 -2.2 -.5c-.7 -.3 -1.3 -.7 -1.8 -1.2c-.6 -.6 -1 -1.2 -1.3 -1.9c-.3 -.7 -.4 -1.4 -.4 -2.2c0 -.7 .1 -1.5 .4 -2.2c.3 -.7 .7 -1.3 1.3 -1.8c.5 -.6 1.1 -1 1.8 -1.3c.7 -.3 1.5 -.4 2.2 -.4Z" class="g2_295"/>
<path d="M430.4 447.2h33v25.2h-33V447.2Z" class="g0_295"/>
<path d="M175.1 501H460.4c.7 0 1.5 .2 2.2 .5c.7 .3 1.3 .7 1.8 1.2c.6 .6 1 1.2 1.3 1.9c.3 .7 .4 1.4 .4 2.2c0 .7 -.1 1.5 -.4 2.2c-.3 .7 -.7 1.3 -1.3 1.8c-.5 .6 -1.1 1 -1.8 1.3c-.7 .2 -1.5 .4 -2.2 .4H175.1c-.8 0 -1.5 -.2 -2.2 -.4c-.7 -.3 -1.4 -.7 -1.9 -1.3c-.5 -.5 -.9 -1.1 -1.2 -1.8c-.3 -.7 -.5 -1.5 -.5 -2.2c0 -.8 .2 -1.5 .5 -2.2c.3 -.7 .7 -1.3 1.2 -1.9c.5 -.5 1.2 -.9 1.9 -1.2c.7 -.3 1.4 -.5 2.2 -.5Z" class="g0_295"/>
<path d="M175.1 501H460.4c.7 0 1.5 .2 2.2 .5c.7 .3 1.3 .7 1.8 1.2c.6 .6 1 1.2 1.3 1.9c.3 .7 .4 1.4 .4 2.2c0 .7 -.1 1.5 -.4 2.2c-.3 .7 -.7 1.3 -1.3 1.8c-.5 .6 -1.1 1 -1.8 1.3c-.7 .2 -1.5 .4 -2.2 .4H175.1c-.8 0 -1.5 -.2 -2.2 -.4c-.7 -.3 -1.4 -.7 -1.9 -1.3c-.5 -.5 -.9 -1.1 -1.2 -1.8c-.3 -.7 -.5 -1.5 -.5 -2.2c0 -.8 .2 -1.5 .5 -2.2c.3 -.7 .7 -1.3 1.2 -1.9c.5 -.5 1.2 -.9 1.9 -1.2c.7 -.3 1.4 -.5 2.2 -.5Z" class="g2_295"/>
<path d="M220.3 492.4h44.3v25.2H220.3V492.4Z" class="g0_295"/>
<path d="M374.6 492.4h45.1v25.2H374.6V492.4Z" class="g0_295"/>
<path d="M279.2 546.9H564.5c.8 0 1.5 .1 2.2 .4c.7 .3 1.3 .7 1.9 1.2c.5 .6 .9 1.2 1.2 1.9c.3 .7 .4 1.4 .4 2.2c0 .8 -.1 1.5 -.4 2.2c-.3 .7 -.7 1.3 -1.2 1.8c-.6 .6 -1.2 1 -1.9 1.3c-.7 .3 -1.4 .4 -2.2 .4H279.2c-.8 0 -1.5 -.1 -2.2 -.4c-.7 -.3 -1.3 -.7 -1.9 -1.3c-.5 -.5 -.9 -1.1 -1.2 -1.8c-.3 -.7 -.4 -1.4 -.4 -2.2c0 -.8 .1 -1.5 .4 -2.2c.3 -.7 .7 -1.3 1.2 -1.9c.6 -.5 1.2 -.9 1.9 -1.2c.7 -.3 1.4 -.4 2.2 -.4Z" class="g0_295"/>
<path d="M279.2 546.9H564.5c.8 0 1.5 .1 2.2 .4c.7 .3 1.3 .7 1.9 1.2c.5 .6 .9 1.2 1.2 1.9c.3 .7 .4 1.4 .4 2.2c0 .8 -.1 1.5 -.4 2.2c-.3 .7 -.7 1.3 -1.2 1.8c-.6 .6 -1.2 1 -1.9 1.3c-.7 .3 -1.4 .4 -2.2 .4H279.2c-.8 0 -1.5 -.1 -2.2 -.4c-.7 -.3 -1.3 -.7 -1.9 -1.3c-.5 -.5 -.9 -1.1 -1.2 -1.8c-.3 -.7 -.4 -1.4 -.4 -2.2c0 -.8 .1 -1.5 .4 -2.2c.3 -.7 .7 -1.3 1.2 -1.9c.6 -.5 1.2 -.9 1.9 -1.2c.7 -.3 1.4 -.4 2.2 -.4Z" class="g2_295"/>
<path d="M322.8 538.8h45.4v25.3H322.8V538.8Z" class="g0_295"/>
<path d="M478.6 538.8h44.2v25.3H478.6V538.8Z" class="g0_295"/>
</g>
<path d="M67.1 660.8v-5.1c0 -2.4 2 -4.3 4.4 -4.3h550c2.4 0 4.3 1.9 4.3 4.3v5.1c0 2.4 -1.9 4.3 -4.3 4.3H71.5c-2.4 0 -4.4 -1.9 -4.4 -4.3Z" class="g0_295"/>
<path d="M65 649.2v18.1" class="g4_295"/>
</svg>