<?xml version="1.0" encoding="UTF-8" standalone="no"?>
<!DOCTYPE svg PUBLIC "-//W3C//DTD SVG 1.1//EN"
"http://www.w3.org/Graphics/SVG/1.1/DTD/svg11.dtd">
<svg viewBox="0 0 714 1017" version="1.1" xmlns="http://www.w3.org/2000/svg" xmlns:xlink="http://www.w3.org/1999/xlink">
<defs>
<clipPath id="c0_291"><path d="M70.7 673.5V304.6H621.9V673.5Z"/></clipPath>
<clipPath id="c1_291"><path d="M70.7 674.2V304.5H622.3V674.2Z"/></clipPath>
<style type="text/css"><![CDATA[
.g0_291{
fill: #FFF;
}
.g1_291{
fill: none;
stroke: #000;
stroke-width: 1.145;
stroke-miterlimit: 10;
}
.g2_291{
fill: none;
stroke: #000;
stroke-width: 2.291;
stroke-miterlimit: 10;
}
.g3_291{
fill: #000;
}
]]></style>
</defs>
<path d="M0 1017.7H717.2V-3.7H0V1017.7Z" class="g0_291"/>
<g clip-path="url(#c1_291)">
<g clip-path="url(#c0_291)">
<path d="M70.7 304.6H621.9V673.5H70.7V304.6Z" class="g0_291"/>
<path d="M71.3 553.8c0 -39.7 550 -39.7 550 0v89.4c0 39.7 -550 39.7 -550 0V553.8Z" class="g0_291"/>
<path d="M71.3 553.8c0 -39.7 550 -39.7 550 0v89.4c0 39.7 -550 39.7 -550 0V553.8Zm0 0c0 29.8 550 29.8 550 0" class="g1_291"/>
</g>
<path d="M71.3 385.4H334.8V500H71.3V385.4Z" class="g0_291"/>
<path d="M71.3 385.4H334.8V500H71.3V385.4Z" class="g1_291"/>
<path d="M140 620.3c0 .8 0 1.6 -.1 2.4c-.1 .9 -.2 1.7 -.4 2.5c-.2 .8 -.4 1.6 -.7 2.4c-.3 .8 -.6 1.5 -.9 2.3c-.4 .8 -.8 1.5 -1.2 2.2c-.5 .8 -1 1.5 -1.5 2.2c-.5 .7 -1.1 1.3 -1.7 2c-.6 .6 -1.2 1.2 -1.8 1.8c-.7 .6 -1.4 1.1 -2.1 1.7c-.8 .5 -1.5 1 -2.3 1.4c-.8 .5 -1.6 .9 -2.4 1.3c-.8 .4 -1.7 .7 -2.5 1.1c-.9 .3 -1.8 .5 -2.7 .8c-.9 .2 -1.8 .4 -2.7 .6c-.9 .1 -1.9 .3 -2.8 .4c-.9 0 -1.9 .1 -2.8 .1c-.9 0 -1.9 -.1 -2.8 -.1c-.9 -.1 -1.9 -.3 -2.8 -.4c-.9 -.2 -1.8 -.4 -2.7 -.6c-.9 -.3 -1.8 -.5 -2.7 -.8c-.8 -.4 -1.7 -.7 -2.5 -1.1c-.8 -.4 -1.6 -.8 -2.4 -1.3c-.8 -.4 -1.5 -.9 -2.3 -1.4c-.7 -.6 -1.4 -1.1 -2.1 -1.7c-.6 -.6 -1.2 -1.2 -1.8 -1.8c-.6 -.7 -1.2 -1.3 -1.7 -2c-.5 -.7 -1 -1.4 -1.5 -2.2c-.4 -.7 -.8 -1.4 -1.2 -2.2c-.3 -.8 -.6 -1.5 -.9 -2.3c-.3 -.8 -.5 -1.6 -.7 -2.4c-.2 -.8 -.3 -1.6 -.4 -2.5c-.1 -.8 -.1 -1.6 -.1 -2.4c0 -.9 0 -1.7 .1 -2.5c.1 -.8 .2 -1.6 .4 -2.5c.2 -.8 .4 -1.6 .7 -2.4c.3 -.7 .6 -1.5 .9 -2.3c.4 -.7 .8 -1.5 1.2 -2.2c.5 -.7 1 -1.5 1.5 -2.1c.5 -.7 1.1 -1.4 1.7 -2c.6 -.7 1.2 -1.3 1.8 -1.9c.7 -.5 1.4 -1.1 2.1 -1.6c.8 -.5 1.5 -1 2.3 -1.5c.8 -.5 1.6 -.9 2.4 -1.3c.8 -.4 1.7 -.7 2.5 -1c.9 -.3 1.8 -.6 2.7 -.9c.9 -.2 1.8 -.4 2.7 -.6c.9 -.1 1.9 -.2 2.8 -.3c.9 -.1 1.9 -.1 2.8 -.1c.9 0 1.9 0 2.8 .1c.9 .1 1.9 .2 2.8 .3c.9 .2 1.8 .4 2.7 .6c.9 .3 1.8 .6 2.7 .9c.8 .3 1.7 .6 2.5 1c.8 .4 1.6 .8 2.4 1.3c.8 .5 1.5 1 2.3 1.5c.7 .5 1.4 1.1 2.1 1.6c.6 .6 1.2 1.2 1.8 1.9c.6 .6 1.2 1.3 1.7 2c.5 .6 1 1.4 1.5 2.1c.4 .7 .8 1.5 1.2 2.2c.3 .8 .6 1.6 .9 2.3c.3 .8 .5 1.6 .7 2.4c.2 .9 .3 1.7 .4 2.5c.1 .8 .1 1.6 .1 2.5Z" class="g0_291"/>
<path d="M140 620.3c0 .8 0 1.6 -.1 2.4c-.1 .9 -.2 1.7 -.4 2.5c-.2 .8 -.4 1.6 -.7 2.4c-.3 .8 -.6 1.5 -.9 2.3c-.4 .8 -.8 1.5 -1.2 2.2c-.5 .8 -1 1.5 -1.5 2.2c-.5 .7 -1.1 1.3 -1.7 2c-.6 .6 -1.2 1.2 -1.8 1.8c-.7 .6 -1.4 1.1 -2.1 1.7c-.8 .5 -1.5 1 -2.3 1.4c-.8 .5 -1.6 .9 -2.4 1.3c-.8 .4 -1.7 .7 -2.5 1.1c-.9 .3 -1.8 .5 -2.7 .8c-.9 .2 -1.8 .4 -2.7 .6c-.9 .1 -1.9 .3 -2.8 .4c-.9 0 -1.9 .1 -2.8 .1c-.9 0 -1.9 -.1 -2.8 -.1c-.9 -.1 -1.9 -.3 -2.8 -.4c-.9 -.2 -1.8 -.4 -2.7 -.6c-.9 -.3 -1.8 -.5 -2.7 -.8c-.8 -.4 -1.7 -.7 -2.5 -1.1c-.8 -.4 -1.6 -.8 -2.4 -1.3c-.8 -.4 -1.5 -.9 -2.3 -1.4c-.7 -.6 -1.4 -1.1 -2.1 -1.7c-.6 -.6 -1.2 -1.2 -1.8 -1.8c-.6 -.7 -1.2 -1.3 -1.7 -2c-.5 -.7 -1 -1.4 -1.5 -2.2c-.4 -.7 -.8 -1.4 -1.2 -2.2c-.3 -.8 -.6 -1.5 -.9 -2.3c-.3 -.8 -.5 -1.6 -.7 -2.4c-.2 -.8 -.3 -1.6 -.4 -2.5c-.1 -.8 -.1 -1.6 -.1 -2.4c0 -.9 0 -1.7 .1 -2.5c.1 -.8 .2 -1.6 .4 -2.5c.2 -.8 .4 -1.6 .7 -2.4c.3 -.7 .6 -1.5 .9 -2.3c.4 -.7 .8 -1.5 1.2 -2.2c.5 -.7 1 -1.5 1.5 -2.1c.5 -.7 1.1 -1.4 1.7 -2c.6 -.7 1.2 -1.3 1.8 -1.9c.7 -.5 1.4 -1.1 2.1 -1.6c.8 -.5 1.5 -1 2.3 -1.5c.8 -.5 1.6 -.9 2.4 -1.3c.8 -.4 1.7 -.7 2.5 -1c.9 -.3 1.8 -.6 2.7 -.9c.9 -.2 1.8 -.4 2.7 -.6c.9 -.1 1.9 -.2 2.8 -.3c.9 -.1 1.9 -.1 2.8 -.1c.9 0 1.9 0 2.8 .1c.9 .1 1.9 .2 2.8 .3c.9 .2 1.8 .4 2.7 .6c.9 .3 1.8 .6 2.7 .9c.8 .3 1.7 .6 2.5 1c.8 .4 1.6 .8 2.4 1.3c.8 .5 1.5 1 2.3 1.5c.7 .5 1.4 1.1 2.1 1.6c.6 .6 1.2 1.2 1.8 1.9c.6 .6 1.2 1.3 1.7 2c.5 .6 1 1.4 1.5 2.1c.4 .7 .8 1.5 1.2 2.2c.3 .8 .6 1.6 .9 2.3c.3 .8 .5 1.6 .7 2.4c.2 .9 .3 1.7 .4 2.5c.1 .8 .1 1.6 .1 2.5Zm-28.6 25.2H140m0 -157v41.8c0 7.7 -3.8 11.5 -11.4 11.5H120c-5.7 0 -8.6 3.8 -8.6 11.4v32.4" class="g2_291"/>
<path d="M111.4 592.5l-3.1 -9.2l3.1 2.3l3.1 -2.3l-3.1 9.2Z" class="g3_291"/>
<path d="M111.4 592.5l-3.1 -9.2l3.1 2.3l3.1 -2.3l-3.1 9.2Z" class="g2_291"/>
<path d="M89.2 396.8H190.9c.4 0 .9 .1 1.3 .1c.4 .1 .8 .3 1.2 .4c.4 .2 .7 .4 1.1 .6c.3 .2 .7 .5 1 .8c.3 .3 .5 .6 .8 1c.2 .3 .4 .7 .6 1.1c.1 .4 .2 .8 .3 1.2c.1 .4 .1 .8 .1 1.2v78.9c0 .4 0 .8 -.1 1.2c-.1 .4 -.2 .8 -.3 1.2c-.2 .4 -.4 .8 -.6 1.1c-.3 .4 -.5 .7 -.8 1c-.3 .3 -.7 .6 -1 .8c-.4 .2 -.7 .4 -1.1 .6c-.4 .2 -.8 .3 -1.2 .4c-.4 .1 -.9 .1 -1.3 .1H89.2c-.4 0 -.9 0 -1.3 -.1c-.4 -.1 -.8 -.2 -1.2 -.4c-.4 -.2 -.7 -.4 -1.1 -.6c-.3 -.2 -.7 -.5 -1 -.8c-.3 -.3 -.5 -.6 -.8 -1c-.2 -.3 -.4 -.7 -.6 -1.1c-.1 -.4 -.2 -.8 -.3 -1.2c-.1 -.4 -.1 -.8 -.1 -1.2V403.2c0 -.4 0 -.8 .1 -1.2c.1 -.4 .2 -.8 .3 -1.2c.2 -.4 .4 -.8 .6 -1.1c.3 -.4 .5 -.7 .8 -1c.3 -.3 .7 -.6 1 -.8c.4 -.2 .7 -.4 1.1 -.6c.4 -.1 .8 -.3 1.2 -.4c.4 0 .9 -.1 1.3 -.1Z" class="g0_291"/>
<path d="M89.2 396.8H190.9c.4 0 .9 .1 1.3 .1c.4 .1 .8 .3 1.2 .4c.4 .2 .7 .4 1.1 .6c.3 .2 .7 .5 1 .8c.3 .3 .5 .6 .8 1c.2 .3 .4 .7 .6 1.1c.1 .4 .2 .8 .3 1.2c.1 .4 .1 .8 .1 1.2v78.9c0 .4 0 .8 -.1 1.2c-.1 .4 -.2 .8 -.3 1.2c-.2 .4 -.4 .8 -.6 1.1c-.3 .4 -.5 .7 -.8 1c-.3 .3 -.7 .6 -1 .8c-.4 .2 -.7 .4 -1.1 .6c-.4 .2 -.8 .3 -1.2 .4c-.4 .1 -.9 .1 -1.3 .1H89.2c-.4 0 -.9 0 -1.3 -.1c-.4 -.1 -.8 -.2 -1.2 -.4c-.4 -.2 -.7 -.4 -1.1 -.6c-.3 -.2 -.7 -.5 -1 -.8c-.3 -.3 -.5 -.6 -.8 -1c-.2 -.3 -.4 -.7 -.6 -1.1c-.1 -.4 -.2 -.8 -.3 -1.2c-.1 -.4 -.1 -.8 -.1 -1.2V403.2c0 -.4 0 -.8 .1 -1.2c.1 -.4 .2 -.8 .3 -1.2c.2 -.4 .4 -.8 .6 -1.1c.3 -.4 .5 -.7 .8 -1c.3 -.3 .7 -.6 1 -.8c.4 -.2 .7 -.4 1.1 -.6c.4 -.1 .8 -.3 1.2 -.4c.4 0 .9 -.1 1.3 -.1Z" class="g1_291"/>
<path d="M137.2 396.8h51.5c.6 0 1.2 .1 1.7 .2c.6 .1 1.1 .3 1.6 .5c.6 .2 1 .5 1.5 .8c.5 .3 .9 .6 1.3 1c.4 .4 .8 .9 1.1 1.3c.3 .5 .6 1 .8 1.5c.2 .6 .4 1.1 .5 1.6c.1 .6 .1 1.2 .1 1.7v40.1c0 .6 0 1.1 -.1 1.7c-.1 .6 -.3 1.1 -.5 1.6c-.2 .5 -.5 1 -.8 1.5c-.3 .5 -.7 .9 -1.1 1.3c-.4 .4 -.8 .8 -1.3 1.1c-.5 .3 -.9 .5 -1.5 .8c-.5 .2 -1 .3 -1.6 .5c-.5 .1 -1.1 .1 -1.7 .1H137.2c-.6 0 -1.1 0 -1.7 -.1c-.5 -.2 -1.1 -.3 -1.6 -.5c-.5 -.3 -1 -.5 -1.5 -.8c-.5 -.3 -.9 -.7 -1.3 -1.1c-.4 -.4 -.7 -.8 -1.1 -1.3c-.3 -.5 -.5 -1 -.8 -1.5c-.2 -.5 -.3 -1 -.4 -1.6c-.2 -.6 -.2 -1.1 -.2 -1.7V405.4c0 -.5 0 -1.1 .2 -1.7c.1 -.5 .2 -1 .4 -1.6c.3 -.5 .5 -1 .8 -1.5c.4 -.4 .7 -.9 1.1 -1.3c.4 -.4 .8 -.7 1.3 -1c.5 -.3 1 -.6 1.5 -.8c.5 -.2 1.1 -.4 1.6 -.5c.6 -.1 1.1 -.2 1.7 -.2Z" class="g0_291"/>
<path d="M137.2 396.8h51.5c.6 0 1.2 .1 1.7 .2c.6 .1 1.1 .3 1.6 .5c.6 .2 1 .5 1.5 .8c.5 .3 .9 .6 1.3 1c.4 .4 .8 .9 1.1 1.3c.3 .5 .6 1 .8 1.5c.2 .6 .4 1.1 .5 1.6c.1 .6 .1 1.2 .1 1.7v40.1c0 .6 0 1.1 -.1 1.7c-.1 .6 -.3 1.1 -.5 1.6c-.2 .5 -.5 1 -.8 1.5c-.3 .5 -.7 .9 -1.1 1.3c-.4 .4 -.8 .8 -1.3 1.1c-.5 .3 -.9 .5 -1.5 .8c-.5 .2 -1 .3 -1.6 .5c-.5 .1 -1.1 .1 -1.7 .1H137.2c-.6 0 -1.1 0 -1.7 -.1c-.5 -.2 -1.1 -.3 -1.6 -.5c-.5 -.3 -1 -.5 -1.5 -.8c-.5 -.3 -.9 -.7 -1.3 -1.1c-.4 -.4 -.7 -.8 -1.1 -1.3c-.3 -.5 -.5 -1 -.8 -1.5c-.2 -.5 -.3 -1 -.4 -1.6c-.2 -.6 -.2 -1.1 -.2 -1.7V405.4c0 -.5 0 -1.1 .2 -1.7c.1 -.5 .2 -1 .4 -1.6c.3 -.5 .5 -1 .8 -1.5c.4 -.4 .7 -.9 1.1 -1.3c.4 -.4 .8 -.7 1.3 -1c.5 -.3 1 -.6 1.5 -.8c.5 -.2 1.1 -.4 1.6 -.5c.6 -.1 1.1 -.2 1.7 -.2Z" class="g1_291"/>
<path d="M213.4 305.2H373.8v66.4H213.4V305.2Z" class="g0_291"/>
<path d="M213.4 305.2H373.8v66.4H213.4V305.2Z" class="g1_291"/>
<path d="M230 328.1h47c.7 0 1.3 .1 1.9 .4c.7 .2 1.2 .6 1.7 1.1c.5 .5 .9 1 1.1 1.7c.3 .6 .4 1.2 .4 1.9v24.1c0 .7 -.1 1.3 -.4 2c-.2 .6 -.6 1.2 -1.1 1.6c-.5 .5 -1 .9 -1.7 1.2c-.6 .2 -1.2 .4 -1.9 .4H230c-.7 0 -1.3 -.2 -2 -.4c-.6 -.3 -1.2 -.7 -1.7 -1.2c-.4 -.4 -.8 -1 -1.1 -1.6c-.2 -.7 -.4 -1.3 -.4 -2V333.2c0 -.7 .2 -1.3 .4 -1.9c.3 -.7 .7 -1.2 1.1 -1.7c.5 -.5 1.1 -.9 1.7 -1.1c.7 -.3 1.3 -.4 2 -.4Z" class="g0_291"/>
<path d="M230 328.1h47c.7 0 1.3 .1 1.9 .4c.7 .2 1.2 .6 1.7 1.1c.5 .5 .9 1 1.1 1.7c.3 .6 .4 1.2 .4 1.9v24.1c0 .7 -.1 1.3 -.4 2c-.2 .6 -.6 1.2 -1.1 1.6c-.5 .5 -1 .9 -1.7 1.2c-.6 .2 -1.2 .4 -1.9 .4H230c-.7 0 -1.3 -.2 -2 -.4c-.6 -.3 -1.2 -.7 -1.7 -1.2c-.4 -.4 -.8 -1 -1.1 -1.6c-.2 -.7 -.4 -1.3 -.4 -2V333.2c0 -.7 .2 -1.3 .4 -1.9c.3 -.7 .7 -1.2 1.1 -1.7c.5 -.5 1.1 -.9 1.7 -1.1c.7 -.3 1.3 -.4 2 -.4Zm-1.7 68.7h95.1v91.7H228.3V396.8Z" class="g1_291"/>
<path d="M133.7 454.1h58.5c.7 0 1.3 .1 2 .4c.6 .3 1.1 .6 1.6 1.1c.5 .5 .9 1.1 1.1 1.7c.3 .6 .4 1.3 .4 2v24c0 .7 -.1 1.4 -.4 2c-.2 .6 -.6 1.2 -1.1 1.7c-.5 .5 -1 .8 -1.6 1.1c-.7 .3 -1.3 .4 -2 .4H133.7c-.6 0 -1.3 -.1 -1.9 -.4c-.7 -.3 -1.2 -.6 -1.7 -1.1c-.5 -.5 -.9 -1.1 -1.1 -1.7c-.3 -.6 -.4 -1.3 -.4 -2v-24c0 -.7 .1 -1.4 .4 -2c.2 -.6 .6 -1.2 1.1 -1.7c.5 -.5 1 -.8 1.7 -1.1c.6 -.3 1.3 -.4 1.9 -.4Z" class="g0_291"/>
<path d="M133.7 454.1h58.5c.7 0 1.3 .1 2 .4c.6 .3 1.1 .6 1.6 1.1c.5 .5 .9 1.1 1.1 1.7c.3 .6 .4 1.3 .4 2v24c0 .7 -.1 1.4 -.4 2c-.2 .6 -.6 1.2 -1.1 1.7c-.5 .5 -1 .8 -1.6 1.1c-.7 .3 -1.3 .4 -2 .4H133.7c-.6 0 -1.3 -.1 -1.9 -.4c-.7 -.3 -1.2 -.6 -1.7 -1.1c-.5 -.5 -.9 -1.1 -1.1 -1.7c-.3 -.6 -.4 -1.3 -.4 -2v-24c0 -.7 .1 -1.4 .4 -2c.2 -.6 .6 -1.2 1.1 -1.7c.5 -.5 1 -.8 1.7 -1.1c.6 -.3 1.3 -.4 1.9 -.4Z" class="g1_291"/>
<path d="M230.6 454.1l-11.7 17.2v-11H205.6v11L193.9 454.1l11.7 -17.2v11h13.3v-11l11.7 17.2Z" class="g0_291"/>
<path d="M230.6 454.1l-11.7 17.2v-11H205.6v11L193.9 454.1l11.7 -17.2v11h13.3v-11l11.7 17.2Z" class="g1_291"/>
<path d="M136.6 401.4h22.9v22.9H136.6V401.4Z" class="g0_291"/>
<path d="M136.6 401.4h22.9v22.9H136.6V401.4Z" class="g1_291"/>
<path d="M159.5 424.3L136.6 401.4m0 22.9l22.9 -22.9" class="g2_291"/>
<path d="M163 401.4h22.9v22.9H163V401.4Z" class="g0_291"/>
<path d="M163 401.4h22.9v22.9H163V401.4Z" class="g1_291"/>
<path d="M185.9 424.3L163 401.4m0 22.9l22.9 -22.9" class="g2_291"/>
<path d="M152.1 581.3h95.1v67.6H152.1V581.3Z" class="g0_291"/>
<path d="M152.1 581.3h95.1v67.6H152.1V581.3Z" class="g1_291"/>
<path d="M156.1 587h95.1v67.6H156.1V587Z" class="g0_291"/>
<path d="M156.1 587h95.1v67.6H156.1V587Z" class="g1_291"/>
<path d="M160.1 592.8h95.1v67.6H160.1V592.8Z" class="g0_291"/>
<path d="M160.1 592.8h95.1v67.6H160.1V592.8Z" class="g1_291"/>
<path d="M180.2 488.5l-.3 89.1" class="g2_291"/>
<path d="M179.9 584.5l-3.1 -9.2l3.1 2.3l3.1 -2.3l-3.1 9.2Z" class="g3_291"/>
<path d="M179.9 584.5l-3.1 -9.2l3.1 2.3l3.1 -2.3l-3.1 9.2Z" class="g2_291"/>
<path d="M357.8 385.4H621.3V500H357.8V385.4Z" class="g0_291"/>
<path d="M357.8 385.4H621.3V500H357.8V385.4Z" class="g1_291"/>
<path d="M375.6 396.8H477.4c.4 0 .8 .1 1.2 .1c.4 .1 .8 .3 1.2 .4c.4 .2 .8 .4 1.1 .6c.4 .2 .7 .5 1 .8c.3 .3 .6 .6 .8 1c.2 .3 .4 .7 .6 1.1c.2 .4 .3 .8 .4 1.2c.1 .4 .1 .8 .1 1.2v78.9c0 .4 0 .8 -.1 1.2c-.1 .4 -.2 .8 -.4 1.2c-.2 .4 -.4 .8 -.6 1.1c-.2 .4 -.5 .7 -.8 1c-.3 .3 -.6 .6 -1 .8c-.3 .2 -.7 .4 -1.1 .6c-.4 .2 -.8 .3 -1.2 .4c-.4 .1 -.8 .1 -1.2 .1H375.6c-.4 0 -.8 0 -1.2 -.1c-.4 -.1 -.8 -.2 -1.2 -.4c-.4 -.2 -.8 -.4 -1.1 -.6c-.4 -.2 -.7 -.5 -1 -.8c-.3 -.3 -.6 -.6 -.8 -1c-.2 -.3 -.4 -.7 -.6 -1.1c-.2 -.4 -.3 -.8 -.4 -1.2c0 -.4 -.1 -.8 -.1 -1.2V403.2c0 -.4 .1 -.8 .1 -1.2c.1 -.4 .2 -.8 .4 -1.2c.2 -.4 .4 -.8 .6 -1.1c.2 -.4 .5 -.7 .8 -1c.3 -.3 .6 -.6 1 -.8c.3 -.2 .7 -.4 1.1 -.6c.4 -.1 .8 -.3 1.2 -.4c.4 0 .8 -.1 1.2 -.1Z" class="g0_291"/>
<path d="M375.6 396.8H477.4c.4 0 .8 .1 1.2 .1c.4 .1 .8 .3 1.2 .4c.4 .2 .8 .4 1.1 .6c.4 .2 .7 .5 1 .8c.3 .3 .6 .6 .8 1c.2 .3 .4 .7 .6 1.1c.2 .4 .3 .8 .4 1.2c.1 .4 .1 .8 .1 1.2v78.9c0 .4 0 .8 -.1 1.2c-.1 .4 -.2 .8 -.4 1.2c-.2 .4 -.4 .8 -.6 1.1c-.2 .4 -.5 .7 -.8 1c-.3 .3 -.6 .6 -1 .8c-.3 .2 -.7 .4 -1.1 .6c-.4 .2 -.8 .3 -1.2 .4c-.4 .1 -.8 .1 -1.2 .1H375.6c-.4 0 -.8 0 -1.2 -.1c-.4 -.1 -.8 -.2 -1.2 -.4c-.4 -.2 -.8 -.4 -1.1 -.6c-.4 -.2 -.7 -.5 -1 -.8c-.3 -.3 -.6 -.6 -.8 -1c-.2 -.3 -.4 -.7 -.6 -1.1c-.2 -.4 -.3 -.8 -.4 -1.2c0 -.4 -.1 -.8 -.1 -1.2V403.2c0 -.4 .1 -.8 .1 -1.2c.1 -.4 .2 -.8 .4 -1.2c.2 -.4 .4 -.8 .6 -1.1c.2 -.4 .5 -.7 .8 -1c.3 -.3 .6 -.6 1 -.8c.3 -.2 .7 -.4 1.1 -.6c.4 -.1 .8 -.3 1.2 -.4c.4 0 .8 -.1 1.2 -.1Z" class="g1_291"/>
<path d="M423.6 396.8h51.6c.6 0 1.1 .1 1.7 .2c.5 .1 1.1 .3 1.6 .5c.5 .2 1 .5 1.5 .8c.4 .3 .9 .6 1.3 1c.4 .4 .7 .9 1 1.3c.4 .5 .6 1 .8 1.5c.3 .6 .4 1.1 .5 1.6c.1 .6 .2 1.2 .2 1.7v40.1c0 .6 -.1 1.1 -.2 1.7c-.1 .6 -.2 1.1 -.5 1.6c-.2 .5 -.4 1 -.8 1.5c-.3 .5 -.6 .9 -1 1.3c-.4 .4 -.9 .8 -1.3 1.1c-.5 .3 -1 .5 -1.5 .8c-.5 .2 -1.1 .3 -1.6 .5c-.6 .1 -1.1 .1 -1.7 .1H423.6c-.5 0 -1.1 0 -1.6 -.1c-.6 -.2 -1.1 -.3 -1.6 -.5c-.6 -.3 -1.1 -.5 -1.5 -.8c-.5 -.3 -.9 -.7 -1.3 -1.1c-.4 -.4 -.8 -.8 -1.1 -1.3c-.3 -.5 -.6 -1 -.8 -1.5c-.2 -.5 -.4 -1 -.5 -1.6c-.1 -.6 -.2 -1.1 -.2 -1.7V405.4c0 -.5 .1 -1.1 .2 -1.7c.1 -.5 .3 -1 .5 -1.6c.2 -.5 .5 -1 .8 -1.5c.3 -.4 .7 -.9 1.1 -1.3c.4 -.4 .8 -.7 1.3 -1c.4 -.3 .9 -.6 1.5 -.8c.5 -.2 1 -.4 1.6 -.5c.5 -.1 1.1 -.2 1.6 -.2Z" class="g0_291"/>
<path d="M423.6 396.8h51.6c.6 0 1.1 .1 1.7 .2c.5 .1 1.1 .3 1.6 .5c.5 .2 1 .5 1.5 .8c.4 .3 .9 .6 1.3 1c.4 .4 .7 .9 1 1.3c.4 .5 .6 1 .8 1.5c.3 .6 .4 1.1 .5 1.6c.1 .6 .2 1.2 .2 1.7v40.1c0 .6 -.1 1.1 -.2 1.7c-.1 .6 -.2 1.1 -.5 1.6c-.2 .5 -.4 1 -.8 1.5c-.3 .5 -.6 .9 -1 1.3c-.4 .4 -.9 .8 -1.3 1.1c-.5 .3 -1 .5 -1.5 .8c-.5 .2 -1.1 .3 -1.6 .5c-.6 .1 -1.1 .1 -1.7 .1H423.6c-.5 0 -1.1 0 -1.6 -.1c-.6 -.2 -1.1 -.3 -1.6 -.5c-.6 -.3 -1.1 -.5 -1.5 -.8c-.5 -.3 -.9 -.7 -1.3 -1.1c-.4 -.4 -.8 -.8 -1.1 -1.3c-.3 -.5 -.6 -1 -.8 -1.5c-.2 -.5 -.4 -1 -.5 -1.6c-.1 -.6 -.2 -1.1 -.2 -1.7V405.4c0 -.5 .1 -1.1 .2 -1.7c.1 -.5 .3 -1 .5 -1.6c.2 -.5 .5 -1 .8 -1.5c.3 -.4 .7 -.9 1.1 -1.3c.4 -.4 .8 -.7 1.3 -1c.4 -.3 .9 -.6 1.5 -.8c.5 -.2 1 -.4 1.6 -.5c.5 -.1 1.1 -.2 1.6 -.2Zm91.1 0h95.1v91.7H514.7V396.8Z" class="g1_291"/>
<path d="M420.2 454.1h58.4c.7 0 1.4 .1 2 .4c.6 .3 1.2 .6 1.7 1.1c.5 .5 .8 1.1 1.1 1.7c.3 .6 .4 1.3 .4 2v24c0 .7 -.1 1.4 -.4 2c-.3 .6 -.6 1.2 -1.1 1.7c-.5 .5 -1.1 .8 -1.7 1.1c-.6 .3 -1.3 .4 -2 .4H420.2c-.7 0 -1.3 -.1 -2 -.4c-.6 -.3 -1.2 -.6 -1.6 -1.1c-.5 -.5 -.9 -1.1 -1.2 -1.7c-.2 -.6 -.4 -1.3 -.4 -2v-24c0 -.7 .2 -1.4 .4 -2c.3 -.6 .7 -1.2 1.2 -1.7c.4 -.5 1 -.8 1.6 -1.1c.7 -.3 1.3 -.4 2 -.4Z" class="g0_291"/>
<path d="M420.2 454.1h58.4c.7 0 1.4 .1 2 .4c.6 .3 1.2 .6 1.7 1.1c.5 .5 .8 1.1 1.1 1.7c.3 .6 .4 1.3 .4 2v24c0 .7 -.1 1.4 -.4 2c-.3 .6 -.6 1.2 -1.1 1.7c-.5 .5 -1.1 .8 -1.7 1.1c-.6 .3 -1.3 .4 -2 .4H420.2c-.7 0 -1.3 -.1 -2 -.4c-.6 -.3 -1.2 -.6 -1.6 -1.1c-.5 -.5 -.9 -1.1 -1.2 -1.7c-.2 -.6 -.4 -1.3 -.4 -2v-24c0 -.7 .2 -1.4 .4 -2c.3 -.6 .7 -1.2 1.2 -1.7c.4 -.5 1 -.8 1.6 -1.1c.7 -.3 1.3 -.4 2 -.4Z" class="g1_291"/>
<path d="M517 454.1l-11.7 17.2v-11H492v11L480.4 454.1L492 436.9v11h13.3v-11L517 454.1Z" class="g0_291"/>
<path d="M517 454.1l-11.7 17.2v-11H492v11L480.4 454.1L492 436.9v11h13.3v-11L517 454.1Z" class="g1_291"/>
<path d="M423.1 401.4H446v22.9H423.1V401.4Z" class="g0_291"/>
<path d="M423.1 401.4H446v22.9H423.1V401.4Z" class="g1_291"/>
<path d="M446 424.3L423.1 401.4m0 22.9L446 401.4" class="g2_291"/>
<path d="M449.4 401.4h22.9v22.9H449.4V401.4Z" class="g0_291"/>
<path d="M449.4 401.4h22.9v22.9H449.4V401.4Z" class="g1_291"/>
<path d="M472.3 424.3L449.4 401.4m0 22.9l22.9 -22.9" class="g2_291"/>
<path d="M426.5 620.3c0 .8 0 1.6 -.1 2.4c-.1 .9 -.3 1.7 -.4 2.5c-.2 .8 -.5 1.6 -.7 2.4c-.3 .8 -.6 1.5 -1 2.3c-.3 .8 -.7 1.5 -1.2 2.2c-.4 .8 -.9 1.5 -1.4 2.2c-.5 .7 -1.1 1.3 -1.7 2c-.6 .6 -1.2 1.2 -1.9 1.8c-.6 .6 -1.3 1.1 -2.1 1.7c-.7 .5 -1.4 1 -2.2 1.4c-.8 .5 -1.6 .9 -2.4 1.3c-.9 .4 -1.7 .7 -2.6 1.1c-.8 .3 -1.7 .5 -2.6 .8c-.9 .2 -1.8 .4 -2.8 .6c-.9 .1 -1.8 .3 -2.7 .4c-1 0 -1.9 .1 -2.8 .1c-1 0 -1.9 -.1 -2.8 -.1c-1 -.1 -1.9 -.3 -2.8 -.4c-.9 -.2 -1.9 -.4 -2.8 -.6c-.9 -.3 -1.7 -.5 -2.6 -.8c-.9 -.4 -1.7 -.7 -2.5 -1.1c-.9 -.4 -1.7 -.8 -2.5 -1.3c-.7 -.4 -1.5 -.9 -2.2 -1.4c-.7 -.6 -1.4 -1.1 -2.1 -1.7c-.7 -.6 -1.3 -1.2 -1.9 -1.8c-.6 -.7 -1.1 -1.3 -1.7 -2c-.5 -.7 -1 -1.4 -1.4 -2.2c-.4 -.7 -.8 -1.4 -1.2 -2.2c-.4 -.8 -.7 -1.5 -1 -2.3c-.2 -.8 -.5 -1.6 -.6 -2.4c-.2 -.8 -.4 -1.6 -.4 -2.5c-.1 -.8 -.2 -1.6 -.2 -2.4c0 -.9 .1 -1.7 .2 -2.5c0 -.8 .2 -1.6 .4 -2.5c.1 -.8 .4 -1.6 .6 -2.4c.3 -.7 .6 -1.5 1 -2.3c.4 -.7 .8 -1.5 1.2 -2.2c.4 -.7 .9 -1.5 1.4 -2.1c.6 -.7 1.1 -1.4 1.7 -2c.6 -.7 1.2 -1.3 1.9 -1.9c.7 -.5 1.4 -1.1 2.1 -1.6c.7 -.5 1.5 -1 2.2 -1.5c.8 -.5 1.6 -.9 2.5 -1.3c.8 -.4 1.6 -.7 2.5 -1c.9 -.3 1.7 -.6 2.6 -.9c.9 -.2 1.9 -.4 2.8 -.6c.9 -.1 1.8 -.2 2.8 -.3c.9 -.1 1.8 -.1 2.8 -.1c.9 0 1.8 0 2.8 .1c.9 .1 1.8 .2 2.7 .3c1 .2 1.9 .4 2.8 .6c.9 .3 1.8 .6 2.6 .9c.9 .3 1.7 .6 2.6 1c.8 .4 1.6 .8 2.4 1.3c.8 .5 1.5 1 2.2 1.5c.8 .5 1.5 1.1 2.1 1.6c.7 .6 1.3 1.2 1.9 1.9c.6 .6 1.2 1.3 1.7 2c.5 .6 1 1.4 1.4 2.1c.5 .7 .9 1.5 1.2 2.2c.4 .8 .7 1.6 1 2.3c.2 .8 .5 1.6 .7 2.4c.1 .9 .3 1.7 .4 2.5c.1 .8 .1 1.6 .1 2.5Z" class="g0_291"/>
<path d="M426.5 620.3c0 .8 0 1.6 -.1 2.4c-.1 .9 -.3 1.7 -.4 2.5c-.2 .8 -.5 1.6 -.7 2.4c-.3 .8 -.6 1.5 -1 2.3c-.3 .8 -.7 1.5 -1.2 2.2c-.4 .8 -.9 1.5 -1.4 2.2c-.5 .7 -1.1 1.3 -1.7 2c-.6 .6 -1.2 1.2 -1.9 1.8c-.6 .6 -1.3 1.1 -2.1 1.7c-.7 .5 -1.4 1 -2.2 1.4c-.8 .5 -1.6 .9 -2.4 1.3c-.9 .4 -1.7 .7 -2.6 1.1c-.8 .3 -1.7 .5 -2.6 .8c-.9 .2 -1.8 .4 -2.8 .6c-.9 .1 -1.8 .3 -2.7 .4c-1 0 -1.9 .1 -2.8 .1c-1 0 -1.9 -.1 -2.8 -.1c-1 -.1 -1.9 -.3 -2.8 -.4c-.9 -.2 -1.9 -.4 -2.8 -.6c-.9 -.3 -1.7 -.5 -2.6 -.8c-.9 -.4 -1.7 -.7 -2.5 -1.1c-.9 -.4 -1.7 -.8 -2.5 -1.3c-.7 -.4 -1.5 -.9 -2.2 -1.4c-.7 -.6 -1.4 -1.1 -2.1 -1.7c-.7 -.6 -1.3 -1.2 -1.9 -1.8c-.6 -.7 -1.1 -1.3 -1.7 -2c-.5 -.7 -1 -1.4 -1.4 -2.2c-.4 -.7 -.8 -1.4 -1.2 -2.2c-.4 -.8 -.7 -1.5 -1 -2.3c-.2 -.8 -.5 -1.6 -.6 -2.4c-.2 -.8 -.4 -1.6 -.4 -2.5c-.1 -.8 -.2 -1.6 -.2 -2.4c0 -.9 .1 -1.7 .2 -2.5c0 -.8 .2 -1.6 .4 -2.5c.1 -.8 .4 -1.6 .6 -2.4c.3 -.7 .6 -1.5 1 -2.3c.4 -.7 .8 -1.5 1.2 -2.2c.4 -.7 .9 -1.5 1.4 -2.1c.6 -.7 1.1 -1.4 1.7 -2c.6 -.7 1.2 -1.3 1.9 -1.9c.7 -.5 1.4 -1.1 2.1 -1.6c.7 -.5 1.5 -1 2.2 -1.5c.8 -.5 1.6 -.9 2.5 -1.3c.8 -.4 1.6 -.7 2.5 -1c.9 -.3 1.7 -.6 2.6 -.9c.9 -.2 1.9 -.4 2.8 -.6c.9 -.1 1.8 -.2 2.8 -.3c.9 -.1 1.8 -.1 2.8 -.1c.9 0 1.8 0 2.8 .1c.9 .1 1.8 .2 2.7 .3c1 .2 1.9 .4 2.8 .6c.9 .3 1.8 .6 2.6 .9c.9 .3 1.7 .6 2.6 1c.8 .4 1.6 .8 2.4 1.3c.8 .5 1.5 1 2.2 1.5c.8 .5 1.5 1.1 2.1 1.6c.7 .6 1.3 1.2 1.9 1.9c.6 .6 1.2 1.3 1.7 2c.5 .6 1 1.4 1.4 2.1c.5 .7 .9 1.5 1.2 2.2c.4 .8 .7 1.6 1 2.3c.2 .8 .5 1.6 .7 2.4c.1 .9 .3 1.7 .4 2.5c.1 .8 .1 1.6 .1 2.5Zm-28.6 25.2h28.6" class="g2_291"/>
<path d="M438.5 581.3h95.1v67.6H438.5V581.3Z" class="g0_291"/>
<path d="M438.5 581.3h95.1v67.6H438.5V581.3Z" class="g1_291"/>
<path d="M442.5 587h95.2v67.6H442.5V587Z" class="g0_291"/>
<path d="M442.5 587h95.2v67.6H442.5V587Z" class="g1_291"/>
<path d="M446.6 592.8h95.1v67.6H446.6V592.8Z" class="g0_291"/>
<path d="M446.6 592.8h95.1v67.6H446.6V592.8Z" class="g1_291"/>
<path d="M426.5 488.5v41.8c0 7.7 -3.8 11.5 -11.5 11.5h-8.5c-5.8 0 -8.6 3.8 -8.6 11.4v32.4" class="g2_291"/>
<path d="M397.9 592.5l-3.1 -9.2l3.1 2.3l3 -2.3l-3 9.2Z" class="g3_291"/>
<path d="M397.9 592.5l-3.1 -9.2l3.1 2.3l3 -2.3l-3 9.2Zm68.7 -104l-.3 89.1" class="g2_291"/>
<path d="M466.3 584.5l-3 -9.2l3 2.3l3.1 -2.3l-3.1 9.2Z" class="g3_291"/>
<path d="M466.3 584.5l-3 -9.2l3 2.3l3.1 -2.3l-3.1 9.2Z" class="g2_291"/>
<path d="M310.2 328.1h47c.7 0 1.3 .1 2 .4c.6 .2 1.1 .6 1.6 1.1c.5 .5 .9 1 1.1 1.7c.3 .6 .4 1.2 .4 1.9v24.1c0 .7 -.1 1.3 -.4 2c-.2 .6 -.6 1.2 -1.1 1.6c-.5 .5 -1 .9 -1.6 1.2c-.7 .2 -1.3 .4 -2 .4h-47c-.7 0 -1.3 -.2 -2 -.4c-.6 -.3 -1.2 -.7 -1.6 -1.2c-.5 -.4 -.9 -1 -1.2 -1.6c-.2 -.7 -.4 -1.3 -.4 -2V333.2c0 -.7 .2 -1.3 .4 -1.9c.3 -.7 .7 -1.2 1.2 -1.7c.4 -.5 1 -.9 1.6 -1.1c.7 -.3 1.3 -.4 2 -.4Z" class="g0_291"/>
<path d="M310.2 328.1h47c.7 0 1.3 .1 2 .4c.6 .2 1.1 .6 1.6 1.1c.5 .5 .9 1 1.1 1.7c.3 .6 .4 1.2 .4 1.9v24.1c0 .7 -.1 1.3 -.4 2c-.2 .6 -.6 1.2 -1.1 1.6c-.5 .5 -1 .9 -1.6 1.2c-.7 .2 -1.3 .4 -2 .4h-47c-.7 0 -1.3 -.2 -2 -.4c-.6 -.3 -1.2 -.7 -1.6 -1.2c-.5 -.4 -.9 -1 -1.2 -1.6c-.2 -.7 -.4 -1.3 -.4 -2V333.2c0 -.7 .2 -1.3 .4 -1.9c.3 -.7 .7 -1.2 1.2 -1.7c.4 -.5 1 -.9 1.6 -1.1c.7 -.3 1.3 -.4 2 -.4Z" class="g1_291"/>
<path d="M185.4 394.9l1.1 -.2l.3 1.1l-1.1 .2m2 -1.6l1.1 -.3l.2 1.1l-1.1 .3m2 -1.7l1.1 -.2l.3 1.1l-1.1 .2m1.9 -1.6l1.1 -.3l.3 1.1l-1.1 .3m1.9 -1.7l1.1 -.2l.3 1.1l-1.1 .2m2 -1.6l1.1 -.3l.2 1.1l-1.1 .3m2 -1.7l1.1 -.2l.3 1.1l-1.1 .2m1.9 -1.6l1.1 -.3l.3 1.1l-1.1 .3m1.9 -1.7l1.1 -.2l.3 1.1l-1.1 .2m2 -1.6l1.1 -.3l.2 1.1l-1.1 .3m2 -1.7l1.1 -.2l.3 1.1l-1.1 .2m1.9 -1.6l1.1 -.3l.3 1.1l-1.1 .3m1.9 -1.7l1.1 -.2l.3 1.1l-1.1 .3m2 -1.7l1.1 -.3l.2 1.1l-1.1 .3m2 -1.7l1.1 -.2l.3 1.1l-1.1 .3m1.9 -1.7l1.1 -.3l.3 1.1l-1.1 .3m1.9 -1.7l1.1 -.2l.3 1.1l-1.1 .3m2 -1.7l1.1 -.3l.2 1.1l-1.1 .3m2 -1.7l1.1 -.2l.3 1.1l-1.1 .3m1.9 -1.7l1.1 -.3l.3 1.1l-1.1 .3m1.9 -1.7l1.1 -.2l.3 1.1l-1.1 .3m2 -1.7l1.1 -.3l.2 1.1l-1.1 .3m2 -1.7l1.1 -.2l.3 1.1l-1.1 .3m1.9 -1.7l1.1 -.3l.3 1.1l-1.1 .3m1.9 -1.7l1.1 -.2l.3 1.1l-1.1 .3m2 -1.7l1.1 -.3l.2 1.1l-1.1 .3m2 -1.7l1.1 -.2l.3 1.1l-1.1 .3m1.9 -1.7l1.1 -.3l.3 1.1l-1.1 .3m1.9 -1.6l1.1 -.3l.3 1.1l-1.1 .3m2 -1.7l1.1 -.3l.2 1.1l-1.1 .3m2 -1.6l1.1 -.3l.3 1.1l-1.1 .3m1.9 -1.7l1.1 -.3l.3 1.1l-1.1 .3m1.9 -1.6l1.1 -.3l.3 1.1l-1.1 .3m2 -1.7l1.1 -.3l.2 1.1l-1.1 .3m2 -1.6l1.1 -.3l.3 1.1l-1.1 .3m1.9 -1.7l1.1 -.3l.3 1.1l-1.1 .3m1.9 -1.6l1.1 -.3l.3 1.1l-1.1 .3m2 -1.7l1.1 -.3l.2 1.1l-1.1 .3m2 -1.6l1.1 -.3l.3 1.1l-1.1 .3m1.9 -1.7l1.1 -.3l.3 1.1l-1.1 .3m1.9 -1.6l1.1 -.3l.3 1.1l-1.1 .3m2 -1.7l1.1 -.3l.2 1.1l-1.1 .3m2 -1.6l1.1 -.3l.3 1.1l-1.1 .3m1.9 -1.7l1.1 -.3l.3 1.1l-1.1 .3m1.9 -1.6l1.1 -.3l.3 1.1l-1.1 .3m2 -1.7l1.1 -.3l.2 1.2l-1.1 .2m2 -1.6l1.1 -.3l.3 1.1l-1.1 .3m1.9 -1.7l1.1 -.3l.3 1.2l-1.1 .2m1.9 -1.6l1.1 -.3l.3 1.1l-1.1 .3m2 -1.7l1.1 -.3l.2 1.2l-1.1 .2m2 -1.6l1.1 -.3l.3 1.1l-1.1 .3m1.9 -1.7l1.1 -.3l.3 1.2l-1.1 .2m1.9 -1.6l1.1 -.3l.3 1.1l-1.1 .3m2 -1.7l1.1 -.3l.2 1.2l-1.1 .2m2 -1.6l1.1 -.3l.3 1.1l-1.1 .3m1.9 -1.7l1.1 -.3l.3 1.2l-1.1 .2m1.9 -1.6l1.1 -.3l.3 1.1l-1.1 .3m2 -1.7l1.1 -.3l.2 1.2l-1.1 .2Z" class="g3_291"/>
<path d="M181.4 396.5l5.1 -3.2l-.9 2.2l1.8 1.5l-6 -.5Z" class="g3_291"/>
<path d="M181.4 396.5l5.1 -3.2l-.9 2.2l1.8 1.5l-6 -.5Z" class="g1_291"/>
<path d="M318.1 362.8L313 366l.9 -2.2l-1.8 -1.5l6 .5Z" class="g3_291"/>
<path d="M318.1 362.8L313 366l.9 -2.2l-1.8 -1.5l6 .5Z" class="g1_291"/>
<path d="M426.9 395.2l-1.1 -.4l.4 -1l1.1 .4m-2.6 .2l-1 -.5l.4 -1l1.1 .4m-2.6 .2l-1.1 -.4L422 392l1 .5m-2.5 .2l-1.1 -.5l.5 -1l1 .4m-2.5 .2l-1.1 -.4l.4 -1.1l1.1 .4m-2.6 .2l-1 -.4l.4 -1.1l1.1 .5m-2.6 .2l-1 -.5l.4 -1l1.1 .4m-2.6 .2l-1.1 -.4l.5 -1.1l1 .4m-2.5 .2l-1.1 -.4l.4 -1.1l1.1 .5m-2.5 .2l-1.1 -.5l.4 -1l1.1 .4m-2.6 .2l-1 -.4l.4 -1.1l1.1 .4m-2.6 .2l-1 -.4l.4 -1.1l1 .5m-2.5 .2l-1.1 -.5l.5 -1l1 .4m-2.5 .2l-1.1 -.4l.4 -1.1l1.1 .4m-2.6 .2l-1 -.4l.4 -1.1l1.1 .5m-2.6 .2l-1 -.5l.4 -1l1.1 .4m-2.6 .2l-1.1 -.4l.5 -1.1l1 .4m-2.5 .2l-1.1 -.4l.5 -1.1l1 .5m-2.5 .2l-1.1 -.5l.4 -1l1.1 .4m-2.6 .2l-1 -.4l.4 -1.1l1.1 .4m-2.6 .2l-1 -.4l.4 -1.1l1 .5m-2.5 .2l-1.1 -.5l.5 -1l1 .4m-2.5 .2l-1.1 -.4l.4 -1.1l1.1 .4m-2.5 .2l-1.1 -.4l.4 -1.1l1.1 .5m-2.6 .2l-1 -.5l.4 -1l1.1 .4m-2.6 .2l-1.1 -.4l.5 -1.1l1 .4m-2.5 .2l-1.1 -.4l.5 -1.1l1 .5m-2.5 .2l-1.1 -.5l.4 -1l1.1 .4m-2.6 .2l-1 -.4l.4 -1.1l1.1 .4m-2.6 .2l-1 -.4l.4 -1.1l1.1 .5m-2.6 .2l-1.1 -.5l.5 -1l1 .4m-2.5 .2L360 368l.4 -1.1l1.1 .4m-2.5 .2l-1.1 -.4l.4 -1.1l1.1 .5m-2.6 .2l-1 -.5l.4 -1l1.1 .4m-2.6 .2l-1 -.4l.4 -1.1l1 .4Z" class="g3_291"/>
<path d="M431 396.3l-6 -.4l2.1 -1.2l-.6 -2.3l4.5 3.9Z" class="g3_291"/>
<path d="M431 396.3l-6 -.4l2.1 -1.2l-.6 -2.3l4.5 3.9Z" class="g1_291"/>
<path d="M349.2 362.9l6 .4l-2 1.3l.6 2.3l-4.6 -4Z" class="g3_291"/>
<path d="M349.2 362.9l6 .4l-2 1.3l.6 2.3l-4.6 -4Z" class="g1_291"/>
</g>
</svg>