<?xml version="1.0" encoding="UTF-8" standalone="no"?>
<!DOCTYPE svg PUBLIC "-//W3C//DTD SVG 1.1//EN"
"http://www.w3.org/Graphics/SVG/1.1/DTD/svg11.dtd">
<svg viewBox="0 0 714 1017" version="1.1" xmlns="http://www.w3.org/2000/svg" xmlns:xlink="http://www.w3.org/1999/xlink">
<defs>
<clipPath id="c0_95"><path d="M70 680.9V341.7H622.3V680.9Z"/></clipPath>
<clipPath id="c1_95"><path d="M70 680.9V341.7H623V680.9Z"/></clipPath>
<style type="text/css"><![CDATA[
.g0_95{
fill: #FFF;
}
.g1_95{
fill: none;
stroke: #000;
stroke-width: 1.145;
stroke-miterlimit: 10;
}
.g2_95{
fill: #000;
}
]]></style>
</defs>
<path d="M0 1017.7H717.2V-3.7H0V1017.7Z" class="g0_95"/>
<g clip-path="url(#c1_95)">
<path clip-path="url(#c0_95)" d="M70 341.7H622.3V680.9H70V341.7Z" class="g0_95"/>
<path d="M70.6 510.7h45.8V568H70.6V510.7Zm45.8 0h45.8V568H116.4V510.7Zm45.8 0h45.9V568H162.2V510.7Zm45.9 0h45.8V568H208.1V510.7ZM299.7 568h45.9v57.3H299.7V568Zm0 -57.3h45.9V568H299.7V510.7ZM70.6 568h45.8v57.3H70.6V568Zm45.8 0h45.8v57.3H116.4V568Zm45.8 0h45.9v57.3H162.2V568Zm45.9 0h45.8v57.3H208.1V568Zm45.8 0h45.8v57.3H253.9V568Zm0 -57.3h45.8V568H253.9V510.7ZM70.6 395h45.8v58.4H70.6V395Zm45.8 0h45.8v58.4H116.4V395Zm45.8 0h45.9v58.4H162.2V395Zm45.9 0h45.8v58.4H208.1V395Z" class="g1_95"/>
<path d="M412 495.3h3.5v1.1H412m6.9 -1.1h3.4v1.1h-3.4m6.9 -1.1h3.4v1.1h-3.4m6.8 -1.1h3.5v1.1h-3.5m6.9 -1.1H443v1.1h-3.5m6.9 -1.1h3.4v1.1h-3.4m6.9 -1.1h3.4v1.1h-3.4m6.8 -1.1h3.5v1.1h-3.5m6.9 -1.1h3.5v1.1H467m6.9 -1.1h3.4v1.1h-3.4m6.9 -1.1h3.4v1.1h-3.4m6.8 -1.1h3.5v1.1h-3.5m6.9 -1.1H498v1.1h-3.5m6.9 -1.1h3.4v1.1h-3.4m6.9 -1.1h3.4v1.1h-3.4m6.8 -1.1h3.5v1.1h-3.5m6.9 -1.1h3.5v1.1H522m6.9 -1.1h3.4v1.1h-3.4m6.9 -1.1h3.4v1.1h-3.4m6.8 -1.1h3.5v1.1h-3.5m6.9 -1.1H553v1.1h-3.5m6.9 -1.1h3.4v1.1h-3.4m6.9 -1.1h3.4v1.1h-3.4m6.8 -1.1h3.5v1.1h-3.5m6.9 -1.1h3.5v1.1H577m6.9 -1.1h3.4v1.1h-3.4m6.9 -1.1h3.4v1.1h-3.4m6.8 -1.1h3.5v1.1h-3.5m6.9 -1.1H608v1.1h-3.5m6.9 -1.1h3.4v1.1h-3.4m6.9 -1.1h2.3v1.1h-2.3Z" class="g2_95"/>
<path d="M138.7 510.7v-3.4h1.2v3.4h-1.2Zm0 -6.8v-3.5h1.2v3.5h-1.2Zm0 -6.9v-3.5h1.2V497h-1.2Zm-.3 -6.9c-.2 -1.1 -.6 -2.1 -1.1 -3l1 -.6c.6 1 1 2.1 1.2 3.4l-1.1 .2Zm-3.1 -5.4c-.8 -.6 -1.8 -1.1 -2.9 -1.4l.3 -1.1c1.3 .3 2.4 .9 3.3 1.6l-.7 .9Zm-6.1 -2c-.4 0 -.9 0 -1.3 0h-2.2v-1.2h2.2c.5 0 .9 0 1.4 .1l-.1 1.1Zm-6.9 0h-3.5v-1.2h3.5v1.2Zm-6.9 0H112v-1.2h3.4v1.2Zm-6.9 0h-3.4v-1.2h3.4v1.2Zm-7.1 -.3c-1.3 -.3 -2.4 -.6 -3.4 -1.1l.6 -1c.8 .4 1.9 .7 3 .9l-.2 1.2Zm-6.2 -3.3c-.7 -.9 -1.3 -2 -1.7 -3.3l1.1 -.3c.3 1.1 .8 2 1.5 2.8l-.9 .8Zm-2.3 -6.8c0 -.3 0 -.6 0 -.9v-2.6h1.2v2.6c0 .3 0 .6 0 .9H92.9Zm0 -7v-3.4h1.2v3.4H92.9Z" class="g2_95"/>
<path d="M93.5 454.7l2.6 8l-2.6 -2l-2.7 2l2.7 -8Z" class="g2_95"/>
<path d="M93.5 454.7l2.6 8l-2.6 -2l-2.7 2l2.7 -8Z" class="g1_95"/>
<path d="M94.1 625.3v3.5H92.9v-3.5h1.2Zm0 6.9v3.4H92.9v-3.4h1.2Zm0 6.9v3.4H92.9v-3.4h1.2Zm0 6.8v3.5H92.9v-3.5h1.2Zm0 6.9v3.5H92.9v-3.5h1.2Zm0 6.9c0 1.2 .1 2.4 .3 3.4l-1.2 .3c-.2 -1.1 -.3 -2.4 -.3 -3.7h1.2Zm1.4 6.5c.5 .9 1.2 1.7 2 2.3l-.7 .9c-1 -.7 -1.7 -1.6 -2.3 -2.7l1 -.5Zm4.9 3.8c.9 .3 2 .5 3.2 .5l-.1 1.2c-1.3 -.1 -2.4 -.3 -3.5 -.6l.4 -1.1Zm6.7 .6h3.4v1.1h-3.4v-1.1Zm6.9 0h3.4v1.1H114v-1.1Zm6.8 0h3.5v1.1h-3.5v-1.1Zm6.9 0h3.4v1.1h-3.4v-1.1Zm6.9 0H138v1.1h-3.4v-1.1Zm6.9 0h3.4v1.1h-3.4v-1.1Zm6.8 0h3.5v1.1h-3.5v-1.1Zm6.9 0h3.4v1.1h-3.4v-1.1Zm6.9 0h3.4v1.1h-3.4v-1.1Zm6.9 0h3.4v1.1H169v-1.1Zm6.8 0h3.5v1.1h-3.5v-1.1Zm6.9 0h3.4v1.1h-3.4v-1.1Zm6.9 0H193v1.1h-3.4v-1.1Zm6.9 0h3.4v1.1h-3.4v-1.1Zm6.8 0h3.5v1.1h-3.5v-1.1Zm6.9 0h3.4v1.1h-3.4v-1.1Zm6.9 0h3.4v1.1h-3.4v-1.1Zm6.9 0h3.4v1.1H224v-1.1Zm6.8 0h3.5v1.1h-3.5v-1.1Zm6.9 0h3.4v1.1h-3.4v-1.1Zm6.9 0H248v1.1h-3.4v-1.1Zm6.9 0h3.4v1.1h-3.4v-1.1Zm6.8 0h3.5v1.1h-3.5v-1.1Zm6.9 0h3.4v1.1h-3.4v-1.1Zm6.9 0h3.4v1.1h-3.4v-1.1Zm6.9 0h3.4v1.1H279v-1.1Zm6.8 0h3.5v1.1h-3.5v-1.1Zm6.9 0h3.4v1.1h-3.4v-1.1Zm6.9 0H303v1.1h-3.4v-1.1Zm6.9 0h3.4v1.1h-3.4v-1.1Zm6.8 0h3.5v1.1h-3.5v-1.1Zm6.9 0h3.4v1.1h-3.4v-1.1Zm6.9 0h3.4v1.1h-3.4v-1.1Zm6.9 0h3.4v1.1H334v-1.1Zm6.8 0h3.5v1.1h-3.5v-1.1Zm6.9 0h3.4v1.1h-3.4v-1.1Zm6.9 0H358v1.1h-3.4v-1.1Zm6.9 0h3.4v1.1h-3.4v-1.1Zm6.8 0h3.5v1.1h-3.5v-1.1Zm6.9 0h3.4v1.1h-3.4v-1.1Zm7 -.1c1.1 -.2 2.1 -.4 3.1 -.8l.4 1.1c-1 .4 -2.2 .6 -3.4 .8l-.1 -1.1ZM388 668c.7 -.7 1.3 -1.6 1.8 -2.6l1 .5c-.5 1.1 -1.2 2.1 -2 2.9L388 668Zm2.6 -5.7c.2 -.8 .2 -1.7 .2 -2.6v-.9H392v.9c0 1 -.1 1.9 -.2 2.8l-1.2 -.2Zm.2 -6.9V652H392v3.4h-1.2Zm0 -6.9v-3.4H392v3.4h-1.2Zm0 -6.8v-3.5H392v3.5h-1.2Zm0 -6.9v-3.5H392v3.5h-1.2Zm0 -6.9v-3.4H392v3.4h-1.2Zm0 -6.9v-3.4H392V621h-1.2Zm0 -6.8v-3.5H392v3.5h-1.2Zm0 -6.9v-3.5H392v3.5h-1.2Zm0 -6.9V597H392v3.4h-1.2Zm0 -6.9v-3.4H392v3.4h-1.2Zm0 -6.8v-3.5H392v3.5h-1.2Zm0 -6.9v-3.5H392v3.5h-1.2Zm0 -6.9v-3.4H392v3.4h-1.2Zm0 -6.9v-3.4H392V566h-1.2Zm0 -6.8v-3.5H392v3.5h-1.2Zm0 -6.9v-3.5H392v3.5h-1.2Zm0 -6.9V542H392v3.4h-1.2Zm0 -6.9v-3.4H392v3.4h-1.2Zm0 -6.8v-3.5H392v3.5h-1.2Zm0 -6.9v-3.5H392v3.5h-1.2Zm0 -6.9v-3.4H392v3.4h-1.2Zm0 -6.9v-3.4H392V511h-1.2Zm0 -6.8v-3.5H392v3.5h-1.2Zm0 -6.9v-3.5H392v3.5h-1.2Zm0 -6.9V487H392v3.4h-1.2Zm0 -6.9v-3.4H392v3.4h-1.2Zm0 -6.8v-3.5H392v3.5h-1.2Zm0 -6.9v-3.5H392v3.5h-1.2Zm0 -6.9v-3.4H392v3.4h-1.2Zm0 -6.9v-3.4H392V456h-1.2Zm0 -6.8v-3.5H392v3.5h-1.2Zm0 -6.9v-3.5H392v3.5h-1.2Zm0 -6.9V432H392v3.4h-1.2Zm0 -6.9v-3.4H392v3.4h-1.2Zm0 -6.8v-3.5H392v3.5h-1.2Zm0 -6.9v-3.5H392v3.5h-1.2Zm0 -6.9v-3.4H392v3.4h-1.2Zm0 -6.9v-3.4H392V401h-1.2Zm0 -6.8v-3.5H392v3.5h-1.2Zm0 -6.9v-3.5H392v3.5h-1.2Zm0 -6.9V377H392v3.4h-1.2Zm0 -6.9v-3.4H392v3.4h-1.2Zm0 -6.8v-3.5H392v3.5h-1.2Zm-.1 -7c-.1 -1.2 -.3 -2.2 -.7 -3.1l1.1 -.4c.4 1 .6 2.1 .8 3.4l-1.2 .1Zm-2.3 -5.9c-.7 -.7 -1.6 -1.4 -2.6 -1.8l.5 -1.1c1.1 .6 2.1 1.3 2.9 2.2l-.8 .7Zm-5.7 -2.7c-.8 -.1 -1.8 -.2 -2.8 -.2h-.7v-1.2h.7c1.1 0 2.1 .1 3 .3l-.2 1.1Zm-6.9 -.2h-3.4v-1.2h3.4v1.2Zm-6.9 0h-3.4v-1.2h3.4v1.2Zm-6.9 0h-3.4v-1.2H362v1.2Zm-6.8 0h-3.5v-1.2h3.5v1.2Zm-6.9 0h-3.4v-1.2h3.4v1.2Zm-6.9 0H338v-1.2h3.4v1.2Zm-6.9 0h-3.4v-1.2h3.4v1.2Zm-6.8 0h-3.5v-1.2h3.5v1.2Zm-6.9 0h-3.4v-1.2h3.4v1.2Zm-6.9 0h-3.4v-1.2h3.4v1.2Zm-6.9 0h-3.4v-1.2H307v1.2Zm-6.8 0h-3.5v-1.2h3.5v1.2Zm-6.9 0h-3.4v-1.2h3.4v1.2Zm-6.9 0H283v-1.2h3.4v1.2Zm-6.9 0h-3.4v-1.2h3.4v1.2Zm-6.8 0h-3.5v-1.2h3.5v1.2Zm-6.9 0h-3.4v-1.2h3.4v1.2Zm-6.9 0h-3.4v-1.2h3.4v1.2Zm-6.9 0h-3.4v-1.2H252v1.2Zm-6.8 0h-3.5v-1.2h3.5v1.2Zm-6.9 0h-3.4v-1.2h3.4v1.2Zm-6.9 0H228v-1.2h3.4v1.2Zm-6.9 0h-3.4v-1.2h3.4v1.2Zm-6.8 0h-3.5v-1.2h3.5v1.2Zm-6.9 0h-3.4v-1.2h3.4v1.2Zm-6.9 0h-3.4v-1.2h3.4v1.2Zm-6.9 0h-3.4v-1.2H197v1.2Zm-6.8 0h-3.5v-1.2h3.5v1.2Zm-6.9 0h-3.4v-1.2h3.4v1.2Zm-6.9 0H173v-1.2h3.4v1.2Zm-6.9 0h-3.4v-1.2h3.4v1.2Zm-6.8 0h-3.5v-1.2h3.5v1.2Zm-6.9 0h-3.4v-1.2h3.4v1.2Zm-7 .1c-1.1 .1 -2.2 .3 -3.1 .7l-.4 -1.1c1 -.4 2.2 -.6 3.4 -.8l.1 1.2Zm-5.9 2.3c-.8 .7 -1.4 1.5 -1.9 2.5l-1 -.5c.6 -1.1 1.3 -2.1 2.2 -2.9l.7 .9Zm-2.8 5.5c-.1 .9 -.2 1.9 -.2 3v.5h-1.2v-.5c0 -1.1 .1 -2.2 .3 -3.1l1.1 .1Zm-.2 7v3.4h-1.2v-3.4h1.2Zm0 6.8v3.5h-1.2v-3.5h1.2Zm0 6.9V383h-1.2v-3.5h1.2Zm0 6.9v1.3h-1.2v-1.3h1.2Z" class="g2_95"/>
<path d="M139.3 393.7l-2.7 -8l2.7 2l2.7 -2l-2.7 8Z" class="g2_95"/>
<path d="M139.3 393.7l-2.7 -8l2.7 2l2.7 -2l-2.7 8Z" class="g1_95"/>
<path d="M231.6 625.3v3.5h-1.2v-3.5h1.2Zm0 6.9v3.4h-1.2v-3.4h1.2Zm0 6.9v3.4h-1.2v-3.4h1.2Zm0 6.8v2.3c0 .5 0 .9 0 1.3h-1.2c0 -.4 0 -.8 0 -1.3v-2.3h1.2Zm.5 6.8c.3 1.1 .8 2.1 1.4 2.9l-.9 .7c-.7 -1 -1.2 -2.1 -1.6 -3.3l1.1 -.3Zm3.8 5c.8 .5 1.8 .8 3 1.1l-.3 1.1c-1.2 -.3 -2.3 -.7 -3.3 -1.3l.6 -.9Zm6.4 1.4h3.4v1.2h-3.4v-1.2Zm6.9 0h3.4v1.2h-3.4v-1.2Zm6.8 0h3.5v1.2H256v-1.2Zm6.9 0h3.5v1.2h-3.5v-1.2Zm6.9 0h3.4v1.2h-3.4v-1.2Zm6.9 0h3.4v1.2h-3.4v-1.2Zm6.8 0H287v1.2h-3.5v-1.2Zm6.9 0h3.5v1.2h-3.5v-1.2Zm6.9 0h3.4v1.2h-3.4v-1.2Zm6.9 0h3.4v1.2h-3.4v-1.2Zm6.8 0h3.5v1.2H311v-1.2Zm6.9 0h3.5v1.2h-3.5v-1.2Zm6.9 0h3.4v1.2h-3.4v-1.2Zm6.9 0h3.4v1.2h-3.4v-1.2Zm6.8 0H342v1.2h-3.5v-1.2Zm6.9 0h3.5v1.2h-3.5v-1.2Zm6.9 0h3.4v1.2h-3.4v-1.2Zm6.9 0h3.4v1.2h-3.4v-1.2Zm6.8 0h2.5c.3 0 .7 0 1.1 0v1.1c-.4 .1 -.7 .1 -1.1 .1H366v-1.2Zm6.8 -.5c1.1 -.3 2.1 -.8 2.9 -1.4l.7 1c-.9 .6 -2 1.1 -3.3 1.5l-.3 -1.1Zm5 -3.7c.5 -.8 .9 -1.8 1.2 -3l1.1 .3c-.3 1.2 -.7 2.4 -1.3 3.3l-1 -.6Zm1.6 -6.3c0 -.2 0 -.3 0 -.4v-3.1h1.1v3.1c0 .1 0 .3 0 .4h-1.1Zm0 -6.9v-3.5h1.1v3.5h-1.1Zm0 -6.9v-3.5h1.1v3.5h-1.1Zm0 -6.9v-3.4h1.1v3.4h-1.1Zm0 -6.9v-3.4h1.1V621h-1.1Zm0 -6.8v-3.5h1.1v3.5h-1.1Zm0 -6.9v-3.5h1.1v3.5h-1.1Zm0 -6.9V597h1.1v3.4h-1.1Zm0 -6.9v-3.4h1.1v3.4h-1.1Zm0 -6.8v-3.5h1.1v3.5h-1.1Zm0 -6.9v-3.5h1.1v3.5h-1.1Zm0 -6.9v-3.4h1.1v3.4h-1.1Zm0 -6.9v-3.4h1.1V566h-1.1Zm0 -6.8v-3.5h1.1v3.5h-1.1Zm0 -6.9v-3.5h1.1v3.5h-1.1Zm0 -6.9V542h1.1v3.4h-1.1Zm0 -6.9v-3.4h1.1v3.4h-1.1Zm0 -6.8v-3.5h1.1v3.5h-1.1Zm0 -6.9v-3.5h1.1v3.5h-1.1Zm0 -6.9v-3.4h1.1v3.4h-1.1Zm0 -6.9v-3.4h1.1V511h-1.1Zm0 -6.8v-3.5h1.1v3.5h-1.1Zm0 -6.9v-3.5h1.1v3.5h-1.1Zm0 -6.9V487h1.1v3.4h-1.1Zm0 -6.9v-3.4h1.1v3.4h-1.1Zm0 -6.8v-3.5h1.1v3.5h-1.1Zm0 -6.9v-3.5h1.1v3.5h-1.1Zm0 -6.9v-3.4h1.1v3.4h-1.1Zm0 -6.9v-3.4h1.1V456h-1.1Zm0 -6.8v-3.5h1.1v3.5h-1.1Zm0 -6.9v-3.5h1.1v3.5h-1.1Zm0 -6.9V432h1.1v3.4h-1.1Zm0 -6.9v-3.4h1.1v3.4h-1.1Zm0 -6.8v-3.5h1.1v3.5h-1.1Zm0 -6.9v-3.5h1.1v3.5h-1.1Zm0 -6.9v-3.4h1.1v3.4h-1.1Zm0 -6.9v-3.4h1.1V401h-1.1Zm0 -6.8v-3.5h1.1v3.5h-1.1Zm0 -6.9v-3.5h1.1v3.5h-1.1Zm0 -6.9V377h1.1v3.4h-1.1Zm0 -6.9v-.3c0 -1.1 -.1 -2.2 -.3 -3.1l1.1 -.3c.2 1.1 .3 2.2 .3 3.4v.3h-1.1ZM378.1 367c-.5 -1 -1.2 -1.8 -2 -2.4l.8 -.9c.9 .8 1.6 1.7 2.2 2.8l-1 .5Zm-4.8 -4c-1 -.3 -2 -.5 -3.1 -.6l.1 -1.1c1.2 .1 2.3 .3 3.3 .6l-.3 1.1Zm-6.7 -.7h-3.4v-1.1h3.4v1.1Zm-6.8 0h-3.5v-1.1h3.5v1.1Zm-6.9 0h-3.5v-1.1h3.5v1.1Zm-6.9 0h-3.4v-1.1H346v1.1Zm-6.9 0h-3.4v-1.1h3.4v1.1Zm-6.8 0h-3.5v-1.1h3.5v1.1Zm-6.9 0h-3.5v-1.1h3.5v1.1Zm-6.9 0h-3.4v-1.1h3.4v1.1Zm-6.9 0h-3.4v-1.1h3.4v1.1Zm-6.8 0h-3.5v-1.1h3.5v1.1Zm-6.9 0h-3.5v-1.1h3.5v1.1Zm-6.9 0h-3.4v-1.1H291v1.1Zm-6.9 0h-3.4v-1.1h3.4v1.1Zm-6.8 0h-3.5v-1.1h3.5v1.1Zm-6.9 0h-3.5v-1.1h3.5v1.1Zm-6.9 0h-3.4v-1.1h3.4v1.1Zm-6.9 0h-3.4v-1.1h3.4v1.1Zm-6.8 0h-3.5v-1.1h3.5v1.1Zm-6.9 0h-3.5v-1.1h3.5v1.1Zm-6.9 0h-3.4v-1.1H236v1.1Zm-6.9 0h-3.4v-1.1h3.4v1.1Zm-6.8 0h-3.5v-1.1h3.5v1.1Zm-6.9 0h-3.5v-1.1h3.5v1.1Zm-6.9 0h-3.4v-1.1h3.4v1.1Zm-6.9 0h-3.4v-1.1h3.4v1.1Zm-6.9 .1c-1.2 .2 -2.2 .4 -3.1 .7l-.4 -1.1c1 -.3 2.1 -.6 3.3 -.7l.2 1.1Zm-5.9 2.3c-.8 .7 -1.5 1.6 -1.9 2.5l-1.1 -.5c.6 -1.1 1.3 -2 2.2 -2.8l.8 .8Zm-2.9 5.6c-.1 .9 -.2 1.9 -.2 2.9v.6h-1.1v-.6c0 -1.1 .1 -2.1 .2 -3.1l1.1 .2Zm-.2 6.9v3.5h-1.1v-3.5h1.1Zm0 6.9v3.4h-1.1v-3.4h1.1Z" class="g2_95"/>
<path d="M185.1 393.7l-2.6 -8l2.6 2l2.7 -2l-2.7 8Z" class="g2_95"/>
<path d="M185.1 393.7l-2.6 -8l2.6 2l2.7 -2l-2.7 8Z" class="g1_95"/>
<path d="M277.4 625.3v3.5h-1.2v-3.5h1.2Zm0 6.9v3.4h-1.2v-3.4h1.2Zm.1 6.9c.2 1.2 .4 2.2 .8 3.1l-1.1 .5c-.4 -1 -.6 -2.2 -.8 -3.4l1.1 -.2Zm2.5 5.8c.8 .8 1.6 1.3 2.7 1.8l-.5 1c-1.1 -.5 -2.1 -1.1 -3 -2l.8 -.8Zm5.8 2.6c.7 .1 1.6 .2 2.5 .2h1v1.1h-1c-1 0 -1.9 -.1 -2.7 -.2l.2 -1.1Zm6.9 .2h3.4v1.1h-3.4v-1.1Zm6.9 0H303v1.1h-3.4v-1.1Zm6.9 0h3.4v1.1h-3.4v-1.1Zm6.8 0h3.5v1.1h-3.5v-1.1Zm6.9 0h3.4v1.1h-3.4v-1.1Zm6.9 0h3.4v1.1h-3.4v-1.1Zm6.9 0h3.4v1.1H334v-1.1Zm6.8 0h3.5v1.1h-3.5v-1.1Zm6.9 0h3.4v1.1h-3.4v-1.1Zm6.9 0H357c.4 0 .7 0 1.1 -.1l.1 1.2c-.4 0 -.8 0 -1.2 0h-2.4v-1.1Zm6.7 -.6c1.2 -.3 2.1 -.7 3 -1.3l.6 .9c-.9 .7 -2 1.2 -3.3 1.5l-.3 -1.1Zm5.1 -3.6c.5 -.9 .9 -1.9 1.1 -3l1.2 .2c-.3 1.3 -.8 2.4 -1.3 3.4l-1 -.6Zm1.5 -6.4c0 -.1 0 -.2 0 -.3v-3.2h1.2v3.2c0 .1 0 .2 0 .3h-1.2Zm0 -6.9v-3.4h1.2v3.4h-1.2Zm0 -6.9v-3.4h1.2v3.4h-1.2Zm0 -6.9V613h1.2v3.4h-1.2Zm0 -6.8v-3.5h1.2v3.5h-1.2Zm0 -6.9v-3.4h1.2v3.4h-1.2Zm0 -6.9v-3.4h1.2v3.4h-1.2Zm0 -6.9v-3.4h1.2v3.4h-1.2Zm0 -6.8v-3.5h1.2v3.5h-1.2Zm0 -6.9v-3.4h1.2v3.4h-1.2Zm0 -6.9v-3.4h1.2v3.4h-1.2Zm0 -6.9V558h1.2v3.4h-1.2Zm0 -6.8v-3.5h1.2v3.5h-1.2Zm0 -6.9v-3.4h1.2v3.4h-1.2Zm0 -6.9v-3.4h1.2v3.4h-1.2Zm0 -6.9v-3.4h1.2v3.4h-1.2Zm0 -6.8v-3.5h1.2v3.5h-1.2Zm0 -6.9v-3.4h1.2v3.4h-1.2Zm0 -6.9v-3.4h1.2v3.4h-1.2Zm0 -6.9V503h1.2v3.4h-1.2Zm0 -6.8v-3.5h1.2v3.5h-1.2Zm0 -6.9v-3.4h1.2v3.4h-1.2Zm0 -6.9v-3.4h1.2v3.4h-1.2Zm0 -6.9v-3.4h1.2v3.4h-1.2Zm0 -6.8v-3.5h1.2v3.5h-1.2Zm0 -6.9v-3.4h1.2v3.4h-1.2Zm0 -6.9v-3.4h1.2v3.4h-1.2Zm0 -6.9V448h1.2v3.4h-1.2Zm0 -6.8v-3.5h1.2v3.5h-1.2Zm0 -6.9v-3.4h1.2v3.4h-1.2Zm0 -6.9v-3.4h1.2v3.4h-1.2Zm0 -6.9v-3.4h1.2v3.4h-1.2Zm0 -6.8v-3.5h1.2v3.5h-1.2Zm0 -6.9v-3.4h1.2v3.4h-1.2Zm0 -6.9v-3.4h1.2v3.4h-1.2Zm0 -6.9V393h1.2v3.4h-1.2Zm0 -6.8v-3.5h1.2v3.5h-1.2Zm-.1 -7c-.1 -1.1 -.4 -2.2 -.7 -3.1l1.1 -.4c.3 1 .6 2.1 .7 3.4l-1.1 .1Zm-2.4 -5.9c-.7 -.7 -1.5 -1.3 -2.5 -1.8l.5 -1c1.1 .5 2.1 1.2 2.9 2.1l-.9 .7ZM359.8 374c-.8 -.1 -1.8 -.2 -2.8 -.2h-.7v-1.1h.7c1.1 0 2.1 0 3 .2l-.2 1.1Zm-6.9 -.2h-3.5v-1.1h3.5v1.1Zm-6.9 0h-3.4v-1.1H346v1.1Zm-6.9 0h-3.4v-1.1h3.4v1.1Zm-6.8 0h-3.5v-1.1h3.5v1.1Zm-6.9 0h-3.5v-1.1h3.5v1.1Zm-6.9 0h-3.4v-1.1h3.4v1.1Zm-6.9 0h-3.4v-1.1h3.4v1.1Zm-6.8 0h-3.5v-1.1h3.5v1.1Zm-6.9 0h-3.5v-1.1h3.5v1.1Zm-6.9 0h-3.4v-1.1H291v1.1Zm-6.9 0h-3.4v-1.1h3.4v1.1Zm-6.8 0h-3.5v-1.1h3.5v1.1Zm-6.9 0h-3.5v-1.1h3.5v1.1Zm-6.9 0h-3.4v-1.1h3.4v1.1Zm-6.9 0h-3.4v-1.1h3.4v1.1Zm-6.8 0h-3.5v-1.1h3.5v1.1Zm-6.9 0h-.5c-1.1 0 -2.1 .1 -3.1 .2l-.1 -1.2c1 -.1 2.1 -.1 3.2 -.1h.5v1.1Zm-6.8 .8c-1.1 .4 -2 .9 -2.7 1.5l-.8 -.9c.8 -.7 1.9 -1.2 3.2 -1.7l.3 1.1Zm-4.3 4c-.2 .6 -.2 1.2 -.2 1.9V382h-1.2v-1.5c0 -.8 .1 -1.5 .3 -2.2l1.1 .3Zm-.2 6.8v2.3h-1.2v-2.3h1.2Z" class="g2_95"/>
<path d="M231 393.7l-2.7 -8l2.7 2l2.6 -2l-2.6 8Z" class="g2_95"/>
<path d="M231 393.7l-2.7 -8l2.7 2l2.6 -2l-2.6 8Z" class="g1_95"/>
</g>
</svg>