<?xml version="1.0" encoding="UTF-8" standalone="no"?>
<!DOCTYPE svg PUBLIC "-//W3C//DTD SVG 1.1//EN"
"http://www.w3.org/Graphics/SVG/1.1/DTD/svg11.dtd">
<svg viewBox="0 0 714 1017" version="1.1" xmlns="http://www.w3.org/2000/svg" xmlns:xlink="http://www.w3.org/1999/xlink">
<defs>
<clipPath id="c0_119"><path d="M80.6 433.9V97H612.3V433.9Z"/></clipPath>
<clipPath id="c1_119"><path d="M80.6 434.7V95.5H612.3V434.7Z"/></clipPath>
<style type="text/css"><![CDATA[
.g0_119{
fill: #FFF;
}
.g1_119{
fill: none;
stroke: #000;
stroke-width: 2.291;
stroke-miterlimit: 10;
}
.g2_119{
fill: none;
stroke: #000;
stroke-width: 1.145;
stroke-miterlimit: 10;
}
.g3_119{
fill: #000;
}
]]></style>
</defs>
<path d="M0 1017.7H717.2V-3.7H0V1017.7Z" class="g0_119"/>
<g clip-path="url(#c1_119)">
<path d="M80.6 97H612.3V433.9H80.6V97Z" class="g0_119"/>
<path d="M383.5 200.7H610.6v45.8H383.5V200.7Zm-301.1 0H312.7v45.8H82.4V200.7Zm0 -102H312.7v91.7H82.4V98.7Zm301.1 0H610.6v91.7H383.5V98.7ZM382.6 364h228v68.7h-228V364Z" class="g1_119"/>
<path d="M382.5 386.9H610.6v22.9H382.5V386.9Zm0 22.9H610.6v22.9H382.5V409.8Zm0 -45.8H610.6v22.9H382.5V364Z" class="g2_119"/>
<path clip-path="url(#c0_119)" d="M81.4 259.1H312.7v91.7H81.4V259.1Z" class="g1_119"/>
<path d="M82.4 200.7H312.7v22.9H82.4V200.7Zm0 -79.1H312.7v23H82.4v-23Zm0 102H312.7v22.9H82.4V223.6Zm0 -79H312.7v22.9H82.4V144.6Zm0 22.9H312.7v22.9H82.4V167.5Zm0 -68.8H312.7v22.9H82.4V98.7Zm301.1 102H610.6v22.9H383.5V200.7Zm0 -79.1H610.6v23H383.5v-23Zm0 102H610.6v22.9H383.5V223.6Zm0 -79H610.6v22.9H383.5V144.6Zm0 22.9H610.6v22.9H383.5V167.5Zm0 -68.8H610.6v22.9H383.5V98.7ZM81.4 282.1H312.7V305H81.4V282.1Zm0 45.8H312.7v22.9H81.4V327.9Zm0 -22.9H312.7v22.9H81.4V305Zm0 -45.9H312.7v23H81.4v-23Z" class="g2_119"/>
<path d="M382.5 259.1H610.6v91.7H382.5V259.1Z" class="g1_119"/>
<path d="M381.4 259.1H610.6v23H381.4v-23Zm-68.7 11.5H347c7.7 0 11.5 3.8 11.5 11.5V364c0 7.7 2.8 11.5 8.3 11.5l8.4 -.1" class="g2_119"/>
<path d="M381.2 375.4l-8 2.7l2 -2.7l-2 -2.6l8 2.6Z" class="g3_119"/>
<path d="M381.2 375.4l-8 2.7l2 -2.7l-2 -2.6l8 2.6ZM312.7 293.5h11.4c7.7 0 11.5 3.8 11.5 11.5v81.9c0 7.7 3.8 11.5 11.4 11.5h28.3" class="g2_119"/>
<path d="M381.3 398.4l-8 2.6l2 -2.6l-2 -2.7l8 2.7Z" class="g3_119"/>
<path d="M381.3 398.4l-8 2.6l2 -2.6l-2 -2.7l8 2.7ZM289.8 350.8l-.1 60.2c0 7.6 3.9 11.5 11.5 11.5l74.5 -.1" class="g2_119"/>
<path d="M381.7 422.4l-8 2.7l2 -2.7l-2 -2.7l8 2.7Z" class="g3_119"/>
<path d="M381.7 422.4l-8 2.7l2 -2.7l-2 -2.7l8 2.7Z" class="g2_119"/>
<path d="M186.5 392.5l.8 -3.4l1.1 .3l-.8 3.4m.5 -7l.8 -3.3l1.1 .2l-.8 3.4m.5 -7l.8 -3.3l1.1 .2l-.8 3.4m.5 -7l.8 -3.3l1.1 .3l-.8 3.3m.5 -7l.8 -3.3l1.1 .3L194 366m.5 -6.9l.8 -3.4l1.1 .3l-.8 3.3Z" class="g3_119"/>
<path d="M196.7 352.1l.5 4.8l-1.3 -1.5l-1.7 .8l2.5 -4.1Z" class="g3_119"/>
<path d="M196.7 352.1l.5 4.8l-1.3 -1.5l-1.7 .8l2.5 -4.1Z" class="g2_119"/>
<path d="M226.6 392.1l3.3 -1.1l.3 1.1l-3.2 1.1m6.1 -3.2l3.3 -1.1l.4 1.1l-3.3 1m6.2 -3.2l3.2 -1l.4 1.1l-3.3 1m6.2 -3.2l3.3 -1.1l.3 1.1l-3.2 1.1m6.2 -3.2l3.2 -1.1l.4 1.1l-3.3 1.1m6.2 -3.2l3.3 -1.1l.3 1.1l-3.3 1m6.2 -3.2l3.3 -1l.4 1.1l-3.3 1m6.2 -3.2l3.2 -1.1l.4 1.1l-3.3 1.1m6.2 -3.2l3.3 -1.1l.3 1.1l-3.2 1.1m6.1 -3.2l3.3 -1.1l.4 1.1l-3.3 1m6.2 -3.2l3.3 -1l.3 1.1l-3.3 1m6.2 -3.2l3.3 -1.1l.3 1.1l-3.2 1.1m6.2 -3.2l3.2 -1.1l.4 1.1l-3.3 1.1m6.2 -3.2l3.3 -1.1l.3 1.1l-3.2 1m6.1 -3.2l3.3 -1l.4 1.1l-3.3 1m6.2 -3.2l3.2 -1.1l.4 1.1l-3.3 1.1m6.2 -3.2l3.3 -1.1l.3 1.1l-3.2 1.1m6.2 -3.2l3.2 -1.1l.4 1.1l-3.3 1m6.2 -3.2l3.3 -1l.3 1.1l-3.3 1m6.2 -3.2l3.3 -1.1l.4 1.1l-3.3 1.1m6.2 -3.2l3.2 -1.1l.4 1.1l-3.3 1.1m6.2 -3.2l3.3 -1.1l.3 1.1l-3.2 1m6.1 -3.2l3.3 -1l.4 1.1l-3.3 1m6.2 -3.2l.8 -.3l.3 1.1l-.8 .3Z" class="g3_119"/>
<path d="M381.2 342.4l-3.9 2.9l.7 -1.8l-1.6 -1.1h4.8Z" class="g3_119"/>
<path d="M381.2 342.4l-3.9 2.9l.7 -1.8l-1.6 -1.1h4.8Z" class="g2_119"/>
<path d="M336.4 235.2l17.7 -.3m-6.5 4.7l9.1 -4.8l-9.3 -4.4" class="g1_119"/>
</g>
</svg>