<?xml version="1.0" encoding="UTF-8" standalone="no"?>
<!DOCTYPE svg PUBLIC "-//W3C//DTD SVG 1.1//EN"
"http://www.w3.org/Graphics/SVG/1.1/DTD/svg11.dtd">
<svg viewBox="0 0 714 1017" version="1.1" xmlns="http://www.w3.org/2000/svg" xmlns:xlink="http://www.w3.org/1999/xlink">
<defs>
<clipPath id="c0_110"><path d="M185.4 190.1V96.9H588.8v93.2Z"/></clipPath>
<clipPath id="c1_110"><path d="M213.7 428.9V335.7H560.5v93.2Z"/></clipPath>
<style type="text/css"><![CDATA[
.g0_110{
fill: #FFF;
}
.g1_110{
fill: none;
stroke: #000;
stroke-width: 1.145;
stroke-miterlimit: 10;
}
.g2_110{
fill: none;
stroke: #000;
stroke-width: 3.437;
stroke-miterlimit: 10;
}
]]></style>
</defs>
<path d="M0 1017.7H717.2V-3.7H0V1017.7Z" class="g0_110"/>
<g clip-path="url(#c0_110)">
<path d="M185.4 97H587.6v92.8H185.4V97Z" class="g0_110"/>
<path d="M186.6 97.6h56.7v34.3H186.6V97.6Zm56.7 0h57.3v34.3H243.3V97.6Zm57.3 0h57.3v34.3H300.6V97.6Zm114.6 0h57.3v34.3H415.2V97.6Zm57.3 0h57.3v34.3H472.5V97.6Zm57.3 0h57.3v34.3H529.8V97.6ZM302.6 154.9H470.4v34.3H302.6V154.9Z" class="g1_110"/>
<path d="M357.9 97.6h57.3v34.3H357.9V97.6Z" class="g0_110"/>
<path d="M357.9 97.6h57.3v34.3H357.9V97.6Z" class="g1_110"/>
<path d="M386 131.9v15.3m-5.2 -6.5L386 151l5.1 -10.3" class="g2_110"/>
</g>
<g clip-path="url(#c1_110)">
<path d="M213.7 335.8H558.6v92.8H213.7V335.8Z" class="g0_110"/>
<path d="M214.2 336.4h57.3v34.3H214.2V336.4Zm57.3 0h57.3v34.3H271.5V336.4Zm57.3 0h23.5v34.3H328.8V336.4Zm80.2 0h57.3v34.3H409V336.4Zm57.3 0h34.4v34.3H466.3V336.4Zm34.4 0H558v34.3H500.7V336.4ZM283.9 393.7H489.5V428H283.9V393.7Z" class="g1_110"/>
<path d="M352.3 336.4H409v34.3H352.3V336.4Z" class="g0_110"/>
<path d="M352.3 336.4H409v34.3H352.3V336.4Z" class="g1_110"/>
<path d="M387.2 370.7V386M382 379.5l5.2 10.3l5.1 -10.3" class="g2_110"/>
</g>
</svg>