<?xml version="1.0" encoding="UTF-8" standalone="no"?>
<!DOCTYPE svg PUBLIC "-//W3C//DTD SVG 1.1//EN"
"http://www.w3.org/Graphics/SVG/1.1/DTD/svg11.dtd">
<svg viewBox="0 0 714 1017" version="1.1" xmlns="http://www.w3.org/2000/svg" xmlns:xlink="http://www.w3.org/1999/xlink">
<defs>
<clipPath id="c0_88"><path d="M87.1 607.4V239.6H648.5V607.4Z"/></clipPath>
<clipPath id="c1_88"><path d="M87.1 607.7V239.5H649.3V607.7Z"/></clipPath>
<style type="text/css"><![CDATA[
.g0_88{
fill: #FFF;
}
.g1_88{
fill: none;
stroke: #000;
stroke-width: 2.291;
stroke-miterlimit: 10;
}
.g2_88{
fill: none;
stroke: #000;
stroke-width: 1.145;
stroke-miterlimit: 10;
}
.g3_88{
fill: #000;
}
.g4_88{
fill: #DDD;
}
]]></style>
</defs>
<path d="M0 1017.7H717.2V-3.7H0V1017.7Z" class="g0_88"/>
<g clip-path="url(#c1_88)">
<path clip-path="url(#c0_88)" d="M87.1 239.6H648.5V607.4H87.1V239.6Z" class="g0_88"/>
<path d="M348.9 241.3h31.6v45.8H348.9V241.3ZM163.8 333h31.5v45.8H163.8V333Zm185.1 0h31.6v45.8H348.9V333Zm183.3 0h31.6v45.8H532.2V333Zm-441 80.2h31.6V459H91.2V413.2Zm73.2 0H196V459H164.4V413.2Zm73.3 0h31.6V459H237.7V413.2Zm74.5 0h31.6V459H312.2V413.2Zm73.4 0h31.5V459H385.6V413.2Zm73.3 0h31.6V459H458.9V413.2Zm73.3 0h31.6V459H532.2V413.2Zm73.8 0h31.5V459H606V413.2Z" class="g1_88"/>
<path d="M348.9 275.7c-112.9 0 -169.4 16.6 -169.3 50" class="g2_88"/>
<path d="M179.6 331.7l-2.7 -8.1l2.7 2.1l2.6 -2.1l-2.6 8.1Z" class="g3_88"/>
<path d="M179.6 331.7l-2.7 -8.1l2.7 2.1l2.6 -2.1l-2.6 8.1Zm15.7 35.6c38.8 0 58.2 12.9 58.2 38.6" class="g2_88"/>
<path d="M253.5 411.9l-2.6 -8l2.6 2l2.7 -2l-2.7 8Z" class="g3_88"/>
<path d="M253.5 411.9l-2.6 -8l2.6 2l2.7 -2l-2.7 8ZM364.7 287.1c0 0 0 12.9 0 38.6" class="g2_88"/>
<path d="M364.7 331.7L362 323.6l2.7 2.1l2.6 -2.1l-2.6 8.1Z" class="g3_88"/>
<path d="M364.7 331.7L362 323.6l2.7 2.1l2.6 -2.1l-2.6 8.1Zm15.8 35.6c13.9 0 20.9 12.9 20.8 38.6" class="g2_88"/>
<path d="M401.3 411.9l-2.6 -8l2.6 2l2.7 -2l-2.7 8Z" class="g3_88"/>
<path d="M401.3 411.9l-2.6 -8l2.6 2l2.7 -2l-2.7 8ZM348.9 367.3C335 367.3 328 380.2 328 405.9" class="g2_88"/>
<path d="M328 411.9l-2.7 -8l2.7 2l2.7 -2l-2.7 8Z" class="g3_88"/>
<path d="M328 411.9l-2.7 -8l2.7 2l2.7 -2l-2.7 8ZM179.6 378.8c-.1 11.4 .1 20.5 .3 27.1" class="g2_88"/>
<path d="M180.1 411.9L177.2 404l2.7 1.9l2.6 -2.1l-2.4 8.1Z" class="g3_88"/>
<path d="M180.1 411.9L177.2 404l2.7 1.9l2.6 -2.1l-2.4 8.1ZM163.8 367.3c-37.9 0 -56.8 12.9 -56.8 38.6" class="g2_88"/>
<path d="M107 411.9l-2.7 -8l2.7 2l2.7 -2l-2.7 8Z" class="g3_88"/>
<path d="M107 411.9l-2.7 -8l2.7 2l2.7 -2l-2.7 8ZM380.5 275.7c111.7 0 167.5 16.6 167.5 50" class="g2_88"/>
<path d="M548 331.7l-2.7 -8.1l2.7 2.1l2.7 -2.1l-2.7 8.1Z" class="g3_88"/>
<path d="M548 331.7l-2.7 -8.1l2.7 2.1l2.7 -2.1l-2.7 8.1Zm0 47.1c0 0 0 9 0 27.1" class="g2_88"/>
<path d="M548 411.9l-2.7 -8l2.7 2l2.7 -2l-2.7 8Z" class="g3_88"/>
<path d="M548 411.9l-2.7 -8l2.7 2l2.7 -2l-2.7 8ZM532.2 367.3c-38.3 0 -57.5 12.9 -57.5 38.6" class="g2_88"/>
<path d="M474.7 411.9l-2.7 -8l2.7 2l2.7 -2l-2.7 8Z" class="g3_88"/>
<path d="M474.7 411.9l-2.7 -8l2.7 2l2.7 -2l-2.7 8Zm89.1 -44.6c38.6 0 57.9 12.9 57.9 38.6" class="g2_88"/>
<path d="M621.8 411.9l-2.7 -8l2.6 2l2.7 -2l-2.6 8Z" class="g3_88"/>
<path d="M621.8 411.9l-2.7 -8l2.6 2l2.7 -2l-2.6 8Z" class="g2_88"/>
<path d="M88.8 504.8h34.4v45.9H88.8V504.8Zm34.4 0h34.2v45.9H123.2V504.8Zm34.3 0h34.3v45.9H157.5V504.8Zm34.4 0h34.3v45.9H191.9V504.8Zm34.4 0h34.3v45.9H226.3V504.8Zm34.4 0h34.2v45.9H260.7V504.8Zm34.3 0h34.3v45.9H295V504.8Zm34.4 0h34.3v45.9H329.4V504.8Zm34.4 0h34.3v45.9H363.8V504.8Z" class="g1_88"/>
<path d="M398.2 504.8h34.2v45.9H398.2V504.8Z" class="g4_88"/>
<path d="M398.2 504.8h34.2v45.9H398.2V504.8Z" class="g2_88"/>
<path d="M432.5 504.8h34.3v45.9H432.5V504.8Z" class="g1_88"/>
<path d="M466.9 504.8h34.3v45.9H466.9V504.8Z" class="g4_88"/>
<path d="M466.9 504.8h34.3v45.9H466.9V504.8Z" class="g2_88"/>
<path d="M501.3 504.8h34.3v45.9H501.3V504.8Zm34.4 0h34.2v45.9H535.7V504.8Zm34.3 0h34.3v45.9H570V504.8Z" class="g1_88"/>
<path d="M604.4 504.8h34.3v45.9H604.4V504.8Z" class="g2_88"/>
<path d="M604.3 596.9V560.1" class="g1_88"/>
<path d="M604.3 553.2l3.1 9.2l-3.1 -2.3l-3 2.3l3 -9.2Z" class="g3_88"/>
<path d="M604.3 553.2l3.1 9.2l-3.1 -2.3l-3 2.3l3 -9.2Z" class="g1_88"/>
</g>
</svg>