<?xml version="1.0" encoding="UTF-8" standalone="no"?>
<!DOCTYPE svg PUBLIC "-//W3C//DTD SVG 1.1//EN"
"http://www.w3.org/Graphics/SVG/1.1/DTD/svg11.dtd">
<svg viewBox="0 0 714 1017" version="1.1" xmlns="http://www.w3.org/2000/svg" xmlns:xlink="http://www.w3.org/1999/xlink">
<defs>
<clipPath id="c0_89"><path d="M69.1 375V155H623.7V375Z"/></clipPath>
<clipPath id="c1_89"><path d="M69.1 375V155H625.2V375Z"/></clipPath>
<style type="text/css"><![CDATA[
.g0_89{
fill: #FFF;
}
.g1_89{
fill: none;
stroke: #000;
stroke-width: 1.145;
stroke-miterlimit: 10;
}
.g2_89{
fill: #000;
}
.g3_89{
fill: none;
stroke: #000;
stroke-width: 0.608;
stroke-miterlimit: 10;
}
]]></style>
</defs>
<path d="M0 1017.7H717.2V-3.7H0V1017.7Z" class="g0_89"/>
<g clip-path="url(#c1_89)">
<g clip-path="url(#c0_89)">
<path d="M69.1 155H623.7V375H69.1V155Z" class="g0_89"/>
<path d="M69.6 328.6H173.9v45.8H69.6V328.6Zm132.9 0H311.8v45.8H202.5V328.6Zm136.1 0H456.2v45.8H338.6V328.6Zm142.8 0h141v45.8h-141V328.6ZM254 225.5H436.2v45.8H254V225.5Z" class="g1_89"/>
</g>
<path d="M327.7 248.4c0 .4 0 .8 -.1 1.2c-.1 .4 -.2 .8 -.4 1.2c-.1 .4 -.3 .8 -.6 1.1c-.2 .3 -.5 .7 -.7 1c-.3 .2 -.7 .5 -1 .7c-.3 .3 -.7 .5 -1.1 .6c-.4 .2 -.8 .3 -1.2 .4c-.4 .1 -.8 .1 -1.2 .1c-.4 0 -.8 0 -1.2 -.1c-.5 -.1 -.8 -.2 -1.2 -.4c-.4 -.1 -.8 -.3 -1.1 -.6c-.4 -.2 -.7 -.5 -1 -.7c-.3 -.3 -.5 -.7 -.8 -1c-.2 -.3 -.4 -.7 -.5 -1.1c-.2 -.4 -.3 -.8 -.4 -1.2c-.1 -.4 -.1 -.8 -.1 -1.2c0 -.4 0 -.8 .1 -1.2c.1 -.4 .2 -.8 .4 -1.2c.1 -.4 .3 -.8 .5 -1.1c.3 -.4 .5 -.7 .8 -1c.3 -.3 .6 -.5 1 -.8c.3 -.2 .7 -.4 1.1 -.5c.4 -.2 .7 -.3 1.2 -.4c.4 -.1 .8 -.1 1.2 -.1c.4 0 .8 0 1.2 .1c.4 .1 .8 .2 1.2 .4c.4 .1 .8 .3 1.1 .5c.3 .3 .7 .5 1 .8c.2 .3 .5 .6 .7 1c.3 .3 .5 .7 .6 1.1c.2 .4 .3 .8 .4 1.2c.1 .4 .1 .8 .1 1.2Z" class="g2_89"/>
<path d="M327.7 248.4c0 .4 0 .8 -.1 1.2c-.1 .4 -.2 .8 -.4 1.2c-.1 .4 -.3 .8 -.6 1.1c-.2 .3 -.5 .7 -.7 1c-.3 .2 -.7 .5 -1 .7c-.3 .3 -.7 .5 -1.1 .6c-.4 .2 -.8 .3 -1.2 .4c-.4 .1 -.8 .1 -1.2 .1c-.4 0 -.8 0 -1.2 -.1c-.5 -.1 -.8 -.2 -1.2 -.4c-.4 -.1 -.8 -.3 -1.1 -.6c-.4 -.2 -.7 -.5 -1 -.7c-.3 -.3 -.5 -.7 -.8 -1c-.2 -.3 -.4 -.7 -.5 -1.1c-.2 -.4 -.3 -.8 -.4 -1.2c-.1 -.4 -.1 -.8 -.1 -1.2c0 -.4 0 -.8 .1 -1.2c.1 -.4 .2 -.8 .4 -1.2c.1 -.4 .3 -.8 .5 -1.1c.3 -.4 .5 -.7 .8 -1c.3 -.3 .6 -.5 1 -.8c.3 -.2 .7 -.4 1.1 -.5c.4 -.2 .7 -.3 1.2 -.4c.4 -.1 .8 -.1 1.2 -.1c.4 0 .8 0 1.2 .1c.4 .1 .8 .2 1.2 .4c.4 .1 .8 .3 1.1 .5c.3 .3 .7 .5 1 .8c.2 .3 .5 .6 .7 1c.3 .3 .5 .7 .6 1.1c.2 .4 .3 .8 .4 1.2c.1 .4 .1 .8 .1 1.2Z" class="g1_89"/>
<path d="M378.4 248.4c0 .4 -.1 .8 -.2 1.2c0 .4 -.2 .8 -.3 1.2c-.2 .4 -.4 .8 -.6 1.1c-.2 .3 -.5 .7 -.8 1c-.3 .2 -.6 .5 -.9 .7c-.4 .3 -.8 .5 -1.1 .6c-.4 .2 -.8 .3 -1.2 .4c-.4 .1 -.8 .1 -1.3 .1c-.4 0 -.8 0 -1.2 -.1c-.4 -.1 -.8 -.2 -1.2 -.4c-.4 -.1 -.7 -.3 -1.1 -.6c-.3 -.2 -.6 -.5 -.9 -.7c-.3 -.3 -.6 -.7 -.8 -1c-.2 -.3 -.4 -.7 -.6 -1.1c-.1 -.4 -.3 -.8 -.4 -1.2c0 -.4 -.1 -.8 -.1 -1.2c0 -.4 .1 -.8 .1 -1.2c.1 -.4 .3 -.8 .4 -1.2c.2 -.4 .4 -.8 .6 -1.1c.2 -.4 .5 -.7 .8 -1c.3 -.3 .6 -.5 .9 -.8c.4 -.2 .7 -.4 1.1 -.5c.4 -.2 .8 -.3 1.2 -.4c.4 -.1 .8 -.1 1.2 -.1c.5 0 .9 0 1.3 .1c.4 .1 .8 .2 1.2 .4c.3 .1 .7 .3 1.1 .5c.3 .3 .6 .5 .9 .8c.3 .3 .6 .6 .8 1c.2 .3 .4 .7 .6 1.1c.1 .4 .3 .8 .3 1.2c.1 .4 .2 .8 .2 1.2Z" class="g2_89"/>
<path d="M378.4 248.4c0 .4 -.1 .8 -.2 1.2c0 .4 -.2 .8 -.3 1.2c-.2 .4 -.4 .8 -.6 1.1c-.2 .3 -.5 .7 -.8 1c-.3 .2 -.6 .5 -.9 .7c-.4 .3 -.8 .5 -1.1 .6c-.4 .2 -.8 .3 -1.2 .4c-.4 .1 -.8 .1 -1.3 .1c-.4 0 -.8 0 -1.2 -.1c-.4 -.1 -.8 -.2 -1.2 -.4c-.4 -.1 -.7 -.3 -1.1 -.6c-.3 -.2 -.6 -.5 -.9 -.7c-.3 -.3 -.6 -.7 -.8 -1c-.2 -.3 -.4 -.7 -.6 -1.1c-.1 -.4 -.3 -.8 -.4 -1.2c0 -.4 -.1 -.8 -.1 -1.2c0 -.4 .1 -.8 .1 -1.2c.1 -.4 .3 -.8 .4 -1.2c.2 -.4 .4 -.8 .6 -1.1c.2 -.4 .5 -.7 .8 -1c.3 -.3 .6 -.5 .9 -.8c.4 -.2 .7 -.4 1.1 -.5c.4 -.2 .8 -.3 1.2 -.4c.4 -.1 .8 -.1 1.2 -.1c.5 0 .9 0 1.3 .1c.4 .1 .8 .2 1.2 .4c.3 .1 .7 .3 1.1 .5c.3 .3 .6 .5 .9 .8c.3 .3 .6 .6 .8 1c.2 .3 .4 .7 .6 1.1c.1 .4 .3 .8 .3 1.2c.1 .4 .2 .8 .2 1.2Z" class="g1_89"/>
<path d="M428.2 248.4c0 .4 0 .8 -.1 1.2c-.1 .4 -.2 .8 -.4 1.2c-.1 .4 -.3 .8 -.5 1.1c-.3 .4 -.5 .7 -.8 1c-.3 .3 -.6 .5 -1 .8c-.3 .2 -.7 .4 -1.1 .5c-.4 .2 -.8 .3 -1.2 .4c-.4 .1 -.8 .1 -1.2 .1c-.4 0 -.8 0 -1.2 -.1c-.4 -.1 -.8 -.2 -1.2 -.4c-.4 -.1 -.8 -.3 -1.1 -.5c-.3 -.3 -.7 -.5 -1 -.8c-.2 -.3 -.5 -.6 -.7 -1c-.3 -.3 -.5 -.7 -.6 -1.1c-.2 -.4 -.3 -.8 -.4 -1.2c-.1 -.4 -.1 -.8 -.1 -1.2c0 -.4 0 -.8 .1 -1.2c.1 -.4 .2 -.8 .4 -1.2c.1 -.4 .3 -.8 .6 -1.1c.2 -.4 .5 -.7 .7 -1c.3 -.3 .7 -.5 1 -.7c.3 -.3 .7 -.5 1.1 -.6c.4 -.2 .8 -.3 1.2 -.4c.4 -.1 .8 -.1 1.2 -.1c.4 0 .8 0 1.2 .1c.4 .1 .8 .2 1.2 .4c.4 .1 .8 .3 1.1 .6c.4 .2 .7 .4 1 .7c.3 .3 .5 .6 .8 1c.2 .3 .4 .7 .5 1.1c.2 .4 .3 .8 .4 1.2c.1 .4 .1 .8 .1 1.2Z" class="g2_89"/>
<path d="M428.2 248.4c0 .4 0 .8 -.1 1.2c-.1 .4 -.2 .8 -.4 1.2c-.1 .4 -.3 .8 -.5 1.1c-.3 .4 -.5 .7 -.8 1c-.3 .3 -.6 .5 -1 .8c-.3 .2 -.7 .4 -1.1 .5c-.4 .2 -.8 .3 -1.2 .4c-.4 .1 -.8 .1 -1.2 .1c-.4 0 -.8 0 -1.2 -.1c-.4 -.1 -.8 -.2 -1.2 -.4c-.4 -.1 -.8 -.3 -1.1 -.5c-.3 -.3 -.7 -.5 -1 -.8c-.2 -.3 -.5 -.6 -.7 -1c-.3 -.3 -.5 -.7 -.6 -1.1c-.2 -.4 -.3 -.8 -.4 -1.2c-.1 -.4 -.1 -.8 -.1 -1.2c0 -.4 0 -.8 .1 -1.2c.1 -.4 .2 -.8 .4 -1.2c.1 -.4 .3 -.8 .6 -1.1c.2 -.4 .5 -.7 .7 -1c.3 -.3 .7 -.5 1 -.7c.3 -.3 .7 -.5 1.1 -.6c.4 -.2 .8 -.3 1.2 -.4c.4 -.1 .8 -.1 1.2 -.1c.4 0 .8 0 1.2 .1c.4 .1 .8 .2 1.2 .4c.4 .1 .8 .3 1.1 .6c.4 .2 .7 .4 1 .7c.3 .3 .5 .6 .8 1c.2 .3 .4 .7 .5 1.1c.2 .4 .3 .8 .4 1.2c.1 .4 .1 .8 .1 1.2Zm-106.8 6.3c0 24.7 -10.7 37 -32.1 37c-21.4 0 -32.1 9.9 -32.1 29.6" class="g1_89"/>
<path d="M257.2 327.3l-2.7 -8l2.7 2l2.7 -2l-2.7 8Z" class="g2_89"/>
<path d="M257.2 327.3l-2.7 -8l2.7 2l2.7 -2l-2.7 8ZM372 254.7c0 24.7 4.3 37 12.7 37c8.4 0 12.7 9.9 12.7 29.6" class="g1_89"/>
<path d="M397.4 327.3l-2.7 -8l2.7 2l2.6 -2l-2.6 8Z" class="g2_89"/>
<path d="M397.4 327.3l-2.7 -8l2.7 2l2.6 -2l-2.6 8Zm24.5 -72.6c0 24.7 21.7 37 65 37c43.4 0 65 9.9 65 29.6" class="g1_89"/>
<path d="M551.9 327.3l-2.7 -8l2.7 2l2.7 -2l-2.7 8Z" class="g2_89"/>
<path d="M551.9 327.3l-2.7 -8l2.7 2l2.7 -2l-2.7 8Z" class="g1_89"/>
<path d="M277.1 248.4c0 .4 -.1 .8 -.2 1.2c0 .4 -.2 .8 -.3 1.2c-.2 .4 -.4 .8 -.6 1.1c-.2 .4 -.5 .7 -.8 1c-.3 .3 -.6 .5 -.9 .8c-.4 .2 -.7 .4 -1.1 .5c-.4 .2 -.8 .3 -1.2 .4c-.4 .1 -.8 .1 -1.2 .1c-.5 0 -.9 0 -1.3 -.1c-.4 -.1 -.8 -.2 -1.2 -.4c-.3 -.1 -.7 -.3 -1.1 -.5c-.3 -.3 -.6 -.5 -.9 -.8c-.3 -.3 -.6 -.6 -.8 -1c-.2 -.3 -.4 -.7 -.6 -1.1c-.1 -.4 -.3 -.8 -.3 -1.2c-.1 -.4 -.2 -.8 -.2 -1.2c0 -.4 .1 -.8 .2 -1.2c0 -.4 .2 -.8 .3 -1.2c.2 -.4 .4 -.8 .6 -1.1c.2 -.4 .5 -.7 .8 -1c.3 -.3 .6 -.5 .9 -.7c.4 -.3 .8 -.5 1.1 -.6c.4 -.2 .8 -.3 1.2 -.4c.4 -.1 .8 -.1 1.3 -.1c.4 0 .8 0 1.2 .1c.4 .1 .8 .2 1.2 .4c.4 .1 .7 .3 1.1 .6c.3 .2 .6 .4 .9 .7c.3 .3 .6 .6 .8 1c.2 .3 .4 .7 .6 1.1c.1 .4 .3 .8 .3 1.2c.1 .4 .2 .8 .2 1.2Z" class="g2_89"/>
<path d="M277.1 248.4c0 .4 -.1 .8 -.2 1.2c0 .4 -.2 .8 -.3 1.2c-.2 .4 -.4 .8 -.6 1.1c-.2 .4 -.5 .7 -.8 1c-.3 .3 -.6 .5 -.9 .8c-.4 .2 -.7 .4 -1.1 .5c-.4 .2 -.8 .3 -1.2 .4c-.4 .1 -.8 .1 -1.2 .1c-.5 0 -.9 0 -1.3 -.1c-.4 -.1 -.8 -.2 -1.2 -.4c-.3 -.1 -.7 -.3 -1.1 -.5c-.3 -.3 -.6 -.5 -.9 -.8c-.3 -.3 -.6 -.6 -.8 -1c-.2 -.3 -.4 -.7 -.6 -1.1c-.1 -.4 -.3 -.8 -.3 -1.2c-.1 -.4 -.2 -.8 -.2 -1.2c0 -.4 .1 -.8 .2 -1.2c0 -.4 .2 -.8 .3 -1.2c.2 -.4 .4 -.8 .6 -1.1c.2 -.4 .5 -.7 .8 -1c.3 -.3 .6 -.5 .9 -.7c.4 -.3 .8 -.5 1.1 -.6c.4 -.2 .8 -.3 1.2 -.4c.4 -.1 .8 -.1 1.3 -.1c.4 0 .8 0 1.2 .1c.4 .1 .8 .2 1.2 .4c.4 .1 .7 .3 1.1 .6c.3 .2 .6 .4 .9 .7c.3 .3 .6 .6 .8 1c.2 .3 .4 .7 .6 1.1c.1 .4 .3 .8 .3 1.2c.1 .4 .2 .8 .2 1.2Zm37 -92.8H376c.5 0 .9 .1 1.3 .2c.4 .2 .8 .5 1.1 .8c.3 .3 .6 .7 .8 1.1c.1 .4 .2 .9 .2 1.3v16.1c0 .4 -.1 .9 -.2 1.3c-.2 .4 -.5 .8 -.8 1.1c-.3 .3 -.7 .6 -1.1 .7c-.4 .2 -.8 .3 -1.3 .3H314.1c-.4 0 -.9 -.1 -1.3 -.3c-.4 -.1 -.8 -.4 -1.1 -.7c-.3 -.3 -.6 -.7 -.8 -1.1c-.1 -.4 -.2 -.9 -.2 -1.3V159c0 -.4 .1 -.9 .2 -1.3c.2 -.4 .5 -.8 .8 -1.1c.3 -.3 .7 -.6 1.1 -.8c.4 -.1 .9 -.2 1.3 -.2Zm31 22.9c0 0 0 13.2 0 39.7" class="g1_89"/>
<path d="M345.1 224.2l-2.7 -8l2.7 2l2.7 -2l-2.7 8Z" class="g2_89"/>
<path d="M345.1 224.2l-2.7 -8l2.7 2l2.7 -2l-2.7 8Zm-74.3 30.5c-.1 24.7 -24.9 37 -74.5 37c-49.7 0 -74.5 9.9 -74.5 29.6" class="g1_89"/>
<path d="M121.8 327.3l-2.7 -8l2.7 2l2.7 -2l-2.7 8Z" class="g2_89"/>
<path d="M121.8 327.3l-2.7 -8l2.7 2l2.7 -2l-2.7 8Zm52.1 12.8c0 0 7.1 0 21.3 0" class="g1_89"/>
<path d="M201.3 340.1l-8.1 2.6l2 -2.6l-2 -2.7l8.1 2.7Z" class="g2_89"/>
<path d="M201.3 340.1l-8.1 2.6l2 -2.6l-2 -2.7l8.1 2.7Zm1.2 22.9c0 0 -7.1 0 -21.3 0" class="g1_89"/>
<path d="M175.2 363l8 -2.7l-2 2.7l2 2.6l-8 -2.6Z" class="g2_89"/>
<path d="M175.2 363l8 -2.7l-2 2.7l2 2.6l-8 -2.6ZM311.8 340.1c0 0 6.5 0 19.5 0" class="g1_89"/>
<path d="M337.3 340.1l-8 2.6l2 -2.6l-2 -2.7l8 2.7Z" class="g2_89"/>
<path d="M337.3 340.1l-8 2.6l2 -2.6l-2 -2.7l8 2.7ZM481.4 363c0 0 -6 0 -17.9 0" class="g1_89"/>
<path d="M457.5 363l8 -2.7l-2 2.7l2 2.6l-8 -2.6Z" class="g2_89"/>
<path d="M457.5 363l8 -2.7l-2 2.7l2 2.6l-8 -2.6Zm-1.3 -22.9c0 0 6 0 17.9 0" class="g1_89"/>
<path d="M480.1 340.1l-8 2.6l2 -2.6l-2 -2.7l8 2.7Z" class="g2_89"/>
<path d="M480.1 340.1l-8 2.6l2 -2.6l-2 -2.7l8 2.7ZM338.6 363c0 0 -6.5 0 -19.5 0" class="g1_89"/>
<path d="M313.1 363l8 -2.7l-2 2.7l2 2.6l-8 -2.6Z" class="g2_89"/>
<path d="M313.1 363l8 -2.7l-2 2.7l2 2.6l-8 -2.6Z" class="g1_89"/>
</g>
<path d="M65 815.1H174.6" class="g3_89"/>
</svg>