<?xml version="1.0" encoding="UTF-8" standalone="no"?>
<!DOCTYPE svg PUBLIC "-//W3C//DTD SVG 1.1//EN"
"http://www.w3.org/Graphics/SVG/1.1/DTD/svg11.dtd">
<svg viewBox="0 0 714 1017" version="1.1" xmlns="http://www.w3.org/2000/svg" xmlns:xlink="http://www.w3.org/1999/xlink">
<defs>
<clipPath id="c0_236"><path d="M155.8 883.4V695.5h424V883.4Z"/></clipPath>
<clipPath id="c1_236"><path d="M155.8 883.6V694.2H580.5V883.6Z"/></clipPath>
<style type="text/css"><![CDATA[
.g0_236{
fill: #FFF;
}
.g1_236{
fill: none;
stroke: #000;
stroke-width: 1.145;
stroke-miterlimit: 10;
}
.g2_236{
fill: #000;
}
]]></style>
</defs>
<path d="M0 1017.7H717.2V-3.7H0V1017.7Z" class="g0_236"/>
<g clip-path="url(#c1_236)">
<path clip-path="url(#c0_236)" d="M155.8 695.5h424V883.4h-424V695.5Z" class="g0_236"/>
<path d="M164.4 708.7H523.8" class="g1_236"/>
<path d="M529.8 708.7l-8 4l2 -4l-2 -4l8 4Z" class="g2_236"/>
<path d="M529.8 708.7l-8 4l2 -4l-2 -4l8 4Zm-342.5 1.7V852.7" class="g1_236"/>
<path d="M189 708.7c0 .2 0 .5 -.1 .7c-.1 .2 -.2 .4 -.4 .5c-.1 .2 -.3 .3 -.5 .4c-.2 .1 -.5 .1 -.7 .1c-.2 0 -.4 0 -.6 -.1c-.2 -.1 -.4 -.2 -.6 -.4c-.2 -.1 -.3 -.3 -.4 -.5c-.1 -.2 -.1 -.5 -.1 -.7c0 -.2 0 -.4 .1 -.6c.1 -.3 .2 -.4 .4 -.6c.2 -.2 .4 -.3 .6 -.4c.2 -.1 .4 -.1 .6 -.1c.2 0 .5 0 .7 .1c.2 .1 .4 .2 .5 .4c.2 .2 .3 .3 .4 .6c.1 .2 .1 .4 .1 .6Z" class="g2_236"/>
<path d="M189 708.7c0 .2 0 .5 -.1 .7c-.1 .2 -.2 .4 -.4 .5c-.1 .2 -.3 .3 -.5 .4c-.2 .1 -.5 .1 -.7 .1c-.2 0 -.4 0 -.6 -.1c-.2 -.1 -.4 -.2 -.6 -.4c-.2 -.1 -.3 -.3 -.4 -.5c-.1 -.2 -.1 -.5 -.1 -.7c0 -.2 0 -.4 .1 -.6c.1 -.3 .2 -.4 .4 -.6c.2 -.2 .4 -.3 .6 -.4c.2 -.1 .4 -.1 .6 -.1c.2 0 .5 0 .7 .1c.2 .1 .4 .2 .5 .4c.2 .2 .3 .3 .4 .6c.1 .2 .1 .4 .1 .6Z" class="g1_236"/>
<path d="M187.3 858.7l-2.6 -8l2.6 2l2.7 -2l-2.7 8Z" class="g2_236"/>
<path d="M187.3 858.7l-2.6 -8l2.6 2l2.7 -2l-2.7 8Zm0 1.3H279v22.9H187.3V860Zm11.5 -32.1H313.4v22.9H198.8V827.9Zm0 -117.5V820.6" class="g1_236"/>
<path d="M200.5 708.7c0 .2 0 .5 -.1 .7c-.1 .2 -.2 .4 -.4 .5c-.2 .2 -.4 .3 -.6 .4c-.2 .1 -.4 .1 -.6 .1c-.2 0 -.5 0 -.7 -.1c-.2 -.1 -.4 -.2 -.5 -.4c-.2 -.1 -.3 -.3 -.4 -.5c-.1 -.2 -.1 -.5 -.1 -.7c0 -.2 0 -.4 .1 -.6c.1 -.3 .2 -.4 .4 -.6c.1 -.2 .3 -.3 .5 -.4c.2 -.1 .5 -.1 .7 -.1c.2 0 .4 0 .6 .1c.2 .1 .4 .2 .6 .4c.2 .2 .3 .3 .4 .6c.1 .2 .1 .4 .1 .6Z" class="g2_236"/>
<path d="M200.5 708.7c0 .2 0 .5 -.1 .7c-.1 .2 -.2 .4 -.4 .5c-.2 .2 -.4 .3 -.6 .4c-.2 .1 -.4 .1 -.6 .1c-.2 0 -.5 0 -.7 -.1c-.2 -.1 -.4 -.2 -.5 -.4c-.2 -.1 -.3 -.3 -.4 -.5c-.1 -.2 -.1 -.5 -.1 -.7c0 -.2 0 -.4 .1 -.6c.1 -.3 .2 -.4 .4 -.6c.1 -.2 .3 -.3 .5 -.4c.2 -.1 .5 -.1 .7 -.1c.2 0 .4 0 .6 .1c.2 .1 .4 .2 .6 .4c.2 .2 .3 .3 .4 .6c.1 .2 .1 .4 .1 .6Z" class="g1_236"/>
<path d="M198.8 826.6l-2.7 -8l2.7 2l2.6 -2l-2.6 8Z" class="g2_236"/>
<path d="M198.8 826.6l-2.7 -8l2.7 2l2.6 -2l-2.6 8ZM210.2 710.4v78.1" class="g1_236"/>
<path d="M212 708.7c0 .2 -.1 .5 -.2 .7c-.1 .2 -.2 .4 -.3 .5c-.2 .2 -.4 .3 -.6 .4c-.2 .1 -.4 .1 -.7 .1c-.2 0 -.4 0 -.6 -.1c-.2 -.1 -.4 -.2 -.6 -.4c-.1 -.1 -.3 -.3 -.4 -.5c0 -.2 -.1 -.5 -.1 -.7c0 -.2 .1 -.4 .1 -.6c.1 -.3 .3 -.4 .4 -.6c.2 -.2 .4 -.3 .6 -.4c.2 -.1 .4 -.1 .6 -.1c.3 0 .5 0 .7 .1c.2 .1 .4 .2 .6 .4c.1 .2 .2 .3 .3 .6c.1 .2 .2 .4 .2 .6Z" class="g2_236"/>
<path d="M212 708.7c0 .2 -.1 .5 -.2 .7c-.1 .2 -.2 .4 -.3 .5c-.2 .2 -.4 .3 -.6 .4c-.2 .1 -.4 .1 -.7 .1c-.2 0 -.4 0 -.6 -.1c-.2 -.1 -.4 -.2 -.6 -.4c-.1 -.1 -.3 -.3 -.4 -.5c0 -.2 -.1 -.5 -.1 -.7c0 -.2 .1 -.4 .1 -.6c.1 -.3 .3 -.4 .4 -.6c.2 -.2 .4 -.3 .6 -.4c.2 -.1 .4 -.1 .6 -.1c.3 0 .5 0 .7 .1c.2 .1 .4 .2 .6 .4c.1 .2 .2 .3 .3 .6c.1 .2 .2 .4 .2 .6Z" class="g1_236"/>
<path d="M210.2 794.5l-2.6 -8l2.6 2l2.7 -2l-2.7 8Z" class="g2_236"/>
<path d="M210.2 794.5l-2.6 -8l2.6 2l2.7 -2l-2.7 8Z" class="g1_236"/>
<path d="M212.5 795.2h1.2v1.2h-1.2v-1.2Zm2.3 0H216v1.2h-1.2v-1.2Zm2.3 0h1.2v1.2h-1.2v-1.2Zm2.3 0h1.2v1.2h-1.2v-1.2Zm2.3 0h1.1v1.2h-1.1v-1.2Zm2.3 0h1.1v1.2H224v-1.2Zm2.3 0h1.1v1.2h-1.1v-1.2Zm2.3 0h1.1v1.2h-1.1v-1.2Zm2.3 0H232v1.2h-1.1v-1.2Zm2.3 0h1.1v1.2h-1.1v-1.2Zm2.2 0h1.2v1.2h-1.2v-1.2Zm2.3 0h1.2v1.2h-1.2v-1.2Zm2.3 0h1.2v1.2H240v-1.2Zm2.3 0h1.2v1.2h-1.2v-1.2Zm2.3 0h1.2v1.2h-1.2v-1.2Zm2.3 0h1.2v1.2h-1.2v-1.2Zm2.3 0h1.1v1.2h-1.1v-1.2Zm2.3 0h1.1v1.2h-1.1v-1.2Zm2.3 0h1.1v1.2h-1.1v-1.2Zm2.3 0h1.1v1.2h-1.1v-1.2Zm2.3 0h1.1v1.2h-1.1v-1.2Zm2.3 0h1.1v1.2h-1.1v-1.2Zm2.2 0h1.2v1.2h-1.2v-1.2Zm2.3 0h1.2v1.2h-1.2v-1.2Zm2.3 0h1.2v1.2h-1.2v-1.2Zm2.3 0H271v1.2h-1.2v-1.2Zm2.3 0h1.2v1.2h-1.2v-1.2Zm2.3 0h1.2v1.2h-1.2v-1.2Zm2.3 0h1.1v1.2h-1.1v-1.2Zm2.3 0h1.1v1.2H279v-1.2Zm2.3 0h1.1v1.2h-1.1v-1.2Zm2.3 0h1.1v1.2h-1.1v-1.2Zm2.3 0H287v1.2h-1.1v-1.2Zm2.3 0h1.1v1.2h-1.1v-1.2Zm2.2 0h1.2v1.2h-1.2v-1.2Zm2.3 0h1.2v1.2h-1.2v-1.2Zm2.3 0h1.2v1.2H295v-1.2Zm2.3 0h1.2v1.2h-1.2v-1.2Zm2.3 0h1.2v1.2h-1.2v-1.2Zm2.3 0h1.2v1.2h-1.2v-1.2Zm2.3 0h1.1v1.2h-1.1v-1.2Zm2.3 0h1.1v1.2h-1.1v-1.2Zm2.3 0h1.1v1.2h-1.1v-1.2Zm2.3 0h1.1v1.2h-1.1v-1.2Zm2.8 .6v1.1h-1.1v-1.1h1.1Zm0 2.3v1.1h-1.1v-1.1h1.1Zm0 2.3v1.1h-1.1v-1.1h1.1Zm0 2.3v1.1h-1.1v-1.1h1.1Zm0 2.3v1.1h-1.1V805h1.1Zm0 2.3v1.1h-1.1v-1.1h1.1Zm0 2.2v1.2h-1.1v-1.2h1.1Zm0 2.3V813h-1.1v-1.2h1.1Zm0 2.3v1.2h-1.1v-1.2h1.1Zm0 2.3v1.2h-1.1v-1.2h1.1Zm-.5 2.9h-1.2v-1.2h1.2v1.2Zm-2.3 0h-1.2v-1.2h1.2v1.2Zm-2.3 0h-1.2v-1.2h1.2v1.2Zm-2.3 0h-1.2v-1.2h1.2v1.2Zm-2.3 0h-1.1v-1.2h1.1v1.2Zm-2.3 0h-1.1v-1.2h1.1v1.2Zm-2.3 0h-1.1v-1.2h1.1v1.2Zm-2.3 0h-1.1v-1.2h1.1v1.2Zm-2.3 0h-1.1v-1.2H295v1.2Zm-2.3 0h-1.1v-1.2h1.1v1.2Zm-2.3 0h-1.1v-1.2h1.1v1.2Zm-2.2 0H287v-1.2h1.2v1.2Zm-2.3 0h-1.2v-1.2h1.2v1.2Zm-2.3 0h-1.2v-1.2h1.2v1.2Zm-2.3 0h-1.2v-1.2h1.2v1.2Zm-2.3 0h-1.2v-1.2H279v1.2Zm-2.3 0h-1.1v-1.2h1.1v1.2Zm-2.3 0h-1.1v-1.2h1.1v1.2Zm-2.3 0H271v-1.2h1.1v1.2Zm-2.3 0h-1.1v-1.2h1.1v1.2Zm-2.3 0h-1.1v-1.2h1.1v1.2Zm-2.3 0h-1.1v-1.2h1.1v1.2Zm-2.3 0h-1.1v-1.2h1.1v1.2Zm-2.2 0h-1.2v-1.2h1.2v1.2Zm-2.3 0h-1.2v-1.2h1.2v1.2Zm-2.3 0h-1.2v-1.2h1.2v1.2Zm-2.3 0h-1.2v-1.2h1.2v1.2Zm-2.3 0h-1.2v-1.2h1.2v1.2Zm-2.3 0h-1.1v-1.2h1.1v1.2Zm-2.3 0h-1.1v-1.2h1.1v1.2Zm-2.3 0h-1.1v-1.2h1.1v1.2Zm-2.3 0h-1.1v-1.2h1.1v1.2Zm-2.3 0h-1.1v-1.2H240v1.2Zm-2.3 0h-1.1v-1.2h1.1v1.2Zm-2.3 0h-1.1v-1.2h1.1v1.2Zm-2.2 0H232v-1.2h1.2v1.2Zm-2.3 0h-1.2v-1.2h1.2v1.2Zm-2.3 0h-1.2v-1.2h1.2v1.2Zm-2.3 0h-1.2v-1.2h1.2v1.2Zm-2.3 0h-1.2v-1.2H224v1.2Zm-2.3 0h-1.1v-1.2h1.1v1.2Zm-2.3 0h-1.1v-1.2h1.1v1.2Zm-2.3 0H216v-1.2h1.1v1.2Zm-2.3 0h-1.1v-1.2h1.1v1.2Zm-2.3 0h-1.1v-1.2h1.1v1.2Zm-2.8 -.6v-1.1h1.1v1.1h-1.1Zm0 -2.3v-1.1h1.1v1.1h-1.1Zm0 -2.3V813h1.1v1.1h-1.1Zm0 -2.3v-1.1h1.1v1.1h-1.1Zm0 -2.3v-1.1h1.1v1.1h-1.1Zm0 -2.2v-1.2h1.1v1.2h-1.1Zm0 -2.3v-1.2h1.1V805h-1.1Zm0 -2.3v-1.2h1.1v1.2h-1.1Zm0 -2.3v-1.2h1.1v1.2h-1.1Zm0 -2.3v-1.2h1.1v1.2h-1.1Zm.5 -2.9h1.2v1.2h-1.2v-1.2Z" class="g2_236"/>
<path d="M313.4 795.8h68.7v22.9H313.4V795.8ZM221.7 710.4v46" class="g1_236"/>
<path d="M223.4 708.7c0 .2 0 .5 -.1 .7c-.1 .2 -.2 .4 -.4 .5c-.1 .2 -.3 .3 -.5 .4c-.3 .1 -.5 .1 -.7 .1c-.2 0 -.5 0 -.7 -.1c-.2 -.1 -.4 -.2 -.5 -.4c-.2 -.1 -.3 -.3 -.4 -.5c-.1 -.2 -.1 -.5 -.1 -.7c0 -.2 0 -.4 .1 -.6c.1 -.3 .2 -.4 .4 -.6c.1 -.2 .3 -.3 .5 -.4c.2 -.1 .5 -.1 .7 -.1c.2 0 .4 0 .7 .1c.2 .1 .4 .2 .5 .4c.2 .2 .3 .3 .4 .6c.1 .2 .1 .4 .1 .6Z" class="g2_236"/>
<path d="M223.4 708.7c0 .2 0 .5 -.1 .7c-.1 .2 -.2 .4 -.4 .5c-.1 .2 -.3 .3 -.5 .4c-.3 .1 -.5 .1 -.7 .1c-.2 0 -.5 0 -.7 -.1c-.2 -.1 -.4 -.2 -.5 -.4c-.2 -.1 -.3 -.3 -.4 -.5c-.1 -.2 -.1 -.5 -.1 -.7c0 -.2 0 -.4 .1 -.6c.1 -.3 .2 -.4 .4 -.6c.1 -.2 .3 -.3 .5 -.4c.2 -.1 .5 -.1 .7 -.1c.2 0 .4 0 .7 .1c.2 .1 .4 .2 .5 .4c.2 .2 .3 .3 .4 .6c.1 .2 .1 .4 .1 .6Z" class="g1_236"/>
<path d="M221.7 762.4l-2.7 -8l2.7 2l2.7 -2l-2.7 8Z" class="g2_236"/>
<path d="M221.7 762.4l-2.7 -8l2.7 2l2.7 -2l-2.7 8Z" class="g1_236"/>
<path d="M224 763.1h1.1v1.2H224v-1.2Zm2.3 0h1.1v1.2h-1.1v-1.2Zm2.3 0h1.1v1.2h-1.1v-1.2Zm2.3 0H232v1.2h-1.1v-1.2Zm2.3 0h1.1v1.2h-1.1v-1.2Zm2.2 0h1.2v1.2h-1.2v-1.2Zm2.3 0h1.2v1.2h-1.2v-1.2Zm2.3 0h1.2v1.2H240v-1.2Zm2.3 0h1.2v1.2h-1.2v-1.2Zm2.3 0h1.2v1.2h-1.2v-1.2Zm2.3 0h1.2v1.2h-1.2v-1.2Zm2.3 0h1.1v1.2h-1.1v-1.2Zm2.3 0h1.1v1.2h-1.1v-1.2Zm2.3 0h1.1v1.2h-1.1v-1.2Zm2.3 0h1.1v1.2h-1.1v-1.2Zm2.3 0h1.1v1.2h-1.1v-1.2Zm2.3 0h1.1v1.2h-1.1v-1.2Zm2.2 0h1.2v1.2h-1.2v-1.2Zm2.3 0h1.2v1.2h-1.2v-1.2Zm2.3 0h1.2v1.2h-1.2v-1.2Zm2.3 0H271v1.2h-1.2v-1.2Zm2.3 0h1.2v1.2h-1.2v-1.2Zm2.3 0h1.2v1.2h-1.2v-1.2Zm2.3 0h1.1v1.2h-1.1v-1.2Zm2.3 0h1.1v1.2H279v-1.2Zm2.3 0h1.1v1.2h-1.1v-1.2Zm2.3 0h1.1v1.2h-1.1v-1.2Zm2.3 0H287v1.2h-1.1v-1.2Zm2.3 0h1.1v1.2h-1.1v-1.2Zm2.2 0h1.2v1.2h-1.2v-1.2Zm2.3 0h1.2v1.2h-1.2v-1.2Zm2.3 0h1.2v1.2H295v-1.2Zm2.3 0h1.2v1.2h-1.2v-1.2Zm2.3 0h1.2v1.2h-1.2v-1.2Zm2.3 0h1.2v1.2h-1.2v-1.2Zm2.3 0h1.1v1.2h-1.1v-1.2Zm2.3 0h1.1v1.2h-1.1v-1.2Zm2.3 0h1.1v1.2h-1.1v-1.2Zm2.3 0h1.1v1.2h-1.1v-1.2Zm2.3 0h1.1v1.2h-1.1v-1.2Zm2.3 0h1.1v1.2h-1.1v-1.2Zm2.2 0h1.2v1.2h-1.2v-1.2Zm2.3 0h1.2v1.2h-1.2v-1.2Zm2.3 0h1.2v1.2h-1.2v-1.2Zm2.3 0H326v1.2h-1.2v-1.2Zm2.3 0h1.2v1.2h-1.2v-1.2Zm2.3 0h1.2v1.2h-1.2v-1.2Zm2.3 0h1.1v1.2h-1.1v-1.2Zm2.3 0h1.1v1.2H334v-1.2Zm2.3 0h1.1v1.2h-1.1v-1.2Zm2.3 0h1.1v1.2h-1.1v-1.2Zm2.3 0H342v1.2h-1.1v-1.2Zm2.3 0h1.1v1.2h-1.1v-1.2Zm2.2 0h1.2v1.2h-1.2v-1.2Zm2.3 0h1.2v1.2h-1.2v-1.2Zm2.3 0h1.2v1.2H350v-1.2Zm2.3 0h1.2v1.2h-1.2v-1.2Zm2.3 0h1.2v1.2h-1.2v-1.2Zm2.3 0h1.2v1.2h-1.2v-1.2Zm2.3 0h1.1v1.2h-1.1v-1.2Zm2.3 0h1.1v1.2h-1.1v-1.2Zm2.3 0h1.1v1.2h-1.1v-1.2Zm2.3 0h1.1v1.2h-1.1v-1.2Zm2.3 0h1.1v1.2h-1.1v-1.2Zm2.3 0h1.1v1.2h-1.1v-1.2Zm2.2 0h1.2v1.2h-1.2v-1.2Zm2.3 0h1.2v1.2h-1.2v-1.2Zm2.3 0h1.2v1.2h-1.2v-1.2Zm2.3 0H381v1.2h-1.2v-1.2Zm2.9 .6v1.2h-1.2v-1.2h1.2Zm0 2.3v1.1h-1.2V766h1.2Zm0 2.3v1.1h-1.2v-1.1h1.2Zm0 2.3v1.1h-1.2v-1.1h1.2Zm0 2.3V774h-1.2v-1.1h1.2Zm0 2.3v1.1h-1.2v-1.1h1.2Zm0 2.3v1.1h-1.2v-1.1h1.2Zm0 2.3v1.1h-1.2v-1.1h1.2Zm0 2.2v1.2h-1.2V782h1.2Zm0 2.3v1.2h-1.2v-1.2h1.2Zm-.6 2.9H381v-1.1h1.1v1.1Zm-2.3 0h-1.1v-1.1h1.1v1.1Zm-2.3 0h-1.1v-1.1h1.1v1.1Zm-2.3 0h-1.1v-1.1h1.1v1.1Zm-2.3 0h-1.1v-1.1h1.1v1.1Zm-2.2 0h-1.2v-1.1h1.2v1.1Zm-2.3 0h-1.2v-1.1h1.2v1.1Zm-2.3 0h-1.2v-1.1h1.2v1.1Zm-2.3 0h-1.2v-1.1h1.2v1.1Zm-2.3 0h-1.2v-1.1h1.2v1.1Zm-2.3 0h-1.1v-1.1h1.1v1.1Zm-2.3 0h-1.1v-1.1h1.1v1.1Zm-2.3 0h-1.1v-1.1h1.1v1.1Zm-2.3 0h-1.1v-1.1h1.1v1.1Zm-2.3 0h-1.1v-1.1H350v1.1Zm-2.3 0h-1.1v-1.1h1.1v1.1Zm-2.3 0h-1.1v-1.1h1.1v1.1Zm-2.2 0H342v-1.1h1.2v1.1Zm-2.3 0h-1.2v-1.1h1.2v1.1Zm-2.3 0h-1.2v-1.1h1.2v1.1Zm-2.3 0h-1.2v-1.1h1.2v1.1Zm-2.3 0h-1.2v-1.1H334v1.1Zm-2.3 0h-1.1v-1.1h1.1v1.1Zm-2.3 0h-1.1v-1.1h1.1v1.1Zm-2.3 0H326v-1.1h1.1v1.1Zm-2.3 0h-1.1v-1.1h1.1v1.1Zm-2.3 0h-1.1v-1.1h1.1v1.1Zm-2.3 0h-1.1v-1.1h1.1v1.1Zm-2.3 0h-1.1v-1.1h1.1v1.1Zm-2.2 0h-1.2v-1.1h1.2v1.1Zm-2.3 0h-1.2v-1.1h1.2v1.1Zm-2.3 0h-1.2v-1.1h1.2v1.1Zm-2.3 0h-1.2v-1.1h1.2v1.1Zm-2.3 0h-1.2v-1.1h1.2v1.1Zm-2.3 0h-1.1v-1.1h1.1v1.1Zm-2.3 0h-1.1v-1.1h1.1v1.1Zm-2.3 0h-1.1v-1.1h1.1v1.1Zm-2.3 0h-1.1v-1.1h1.1v1.1Zm-2.3 0h-1.1v-1.1H295v1.1Zm-2.3 0h-1.1v-1.1h1.1v1.1Zm-2.3 0h-1.1v-1.1h1.1v1.1Zm-2.2 0H287v-1.1h1.2v1.1Zm-2.3 0h-1.2v-1.1h1.2v1.1Zm-2.3 0h-1.2v-1.1h1.2v1.1Zm-2.3 0h-1.2v-1.1h1.2v1.1Zm-2.3 0h-1.2v-1.1H279v1.1Zm-2.3 0h-1.1v-1.1h1.1v1.1Zm-2.3 0h-1.1v-1.1h1.1v1.1Zm-2.3 0H271v-1.1h1.1v1.1Zm-2.3 0h-1.1v-1.1h1.1v1.1Zm-2.3 0h-1.1v-1.1h1.1v1.1Zm-2.3 0h-1.1v-1.1h1.1v1.1Zm-2.3 0h-1.1v-1.1h1.1v1.1Zm-2.2 0h-1.2v-1.1h1.2v1.1Zm-2.3 0h-1.2v-1.1h1.2v1.1Zm-2.3 0h-1.2v-1.1h1.2v1.1Zm-2.3 0h-1.2v-1.1h1.2v1.1Zm-2.3 0h-1.2v-1.1h1.2v1.1Zm-2.3 0h-1.1v-1.1h1.1v1.1Zm-2.3 0h-1.1v-1.1h1.1v1.1Zm-2.3 0h-1.1v-1.1h1.1v1.1Zm-2.3 0h-1.1v-1.1h1.1v1.1Zm-2.3 0h-1.1v-1.1H240v1.1Zm-2.3 0h-1.1v-1.1h1.1v1.1Zm-2.3 0h-1.1v-1.1h1.1v1.1Zm-2.2 0H232v-1.1h1.2v1.1Zm-2.3 0h-1.2v-1.1h1.2v1.1Zm-2.3 0h-1.2v-1.1h1.2v1.1Zm-2.3 0h-1.2v-1.1h1.2v1.1Zm-2.3 0h-1.2v-1.1H224v1.1Zm-2.9 -.6v-1.1h1.2v1.1h-1.2Zm0 -2.3v-1.1h1.2v1.1h-1.2Zm0 -2.3v-1.1h1.2V782h-1.2Zm0 -2.2v-1.2h1.2v1.2h-1.2Zm0 -2.3v-1.2h1.2v1.2h-1.2Zm0 -2.3V774h1.2v1.2h-1.2Zm0 -2.3v-1.2h1.2v1.2h-1.2Zm0 -2.3v-1.2h1.2v1.2h-1.2Zm0 -2.3v-1.2h1.2v1.2h-1.2Zm0 -2.3v-1.1h1.2V766h-1.2Zm.6 -2.9h1.1v1.2h-1.1v-1.2Z" class="g2_236"/>
<path d="M233.2 710.4v13.9" class="g1_236"/>
<path d="M234.9 708.7c0 .2 -.1 .5 -.2 .7c0 .2 -.2 .4 -.3 .5c-.2 .2 -.4 .3 -.6 .4c-.2 .1 -.4 .1 -.6 .1c-.3 0 -.5 0 -.7 -.1c-.2 -.1 -.4 -.2 -.6 -.4c-.1 -.1 -.2 -.3 -.3 -.5c-.1 -.2 -.2 -.5 -.2 -.7c0 -.2 .1 -.4 .2 -.6c.1 -.3 .2 -.4 .3 -.6c.2 -.2 .4 -.3 .6 -.4c.2 -.1 .4 -.1 .7 -.1c.2 0 .4 0 .6 .1c.2 .1 .4 .2 .6 .4c.1 .2 .3 .3 .3 .6c.1 .2 .2 .4 .2 .6Z" class="g2_236"/>
<path d="M234.9 708.7c0 .2 -.1 .5 -.2 .7c0 .2 -.2 .4 -.3 .5c-.2 .2 -.4 .3 -.6 .4c-.2 .1 -.4 .1 -.6 .1c-.3 0 -.5 0 -.7 -.1c-.2 -.1 -.4 -.2 -.6 -.4c-.1 -.1 -.2 -.3 -.3 -.5c-.1 -.2 -.2 -.5 -.2 -.7c0 -.2 .1 -.4 .2 -.6c.1 -.3 .2 -.4 .3 -.6c.2 -.2 .4 -.3 .6 -.4c.2 -.1 .4 -.1 .7 -.1c.2 0 .4 0 .6 .1c.2 .1 .4 .2 .6 .4c.1 .2 .3 .3 .3 .6c.1 .2 .2 .4 .2 .6Z" class="g1_236"/>
<path d="M233.2 730.3l-2.7 -8l2.7 2l2.6 -2l-2.6 8Z" class="g2_236"/>
<path d="M233.2 730.3l-2.7 -8l2.7 2l2.6 -2l-2.6 8Z" class="g1_236"/>
<path d="M235.4 731.1h1.2v1.1h-1.2v-1.1Zm2.3 0h1.2v1.1h-1.2v-1.1Zm2.3 0h1.2v1.1H240v-1.1Zm2.3 0h1.2v1.1h-1.2v-1.1Zm2.3 0h1.2v1.1h-1.2v-1.1Zm2.3 0h1.2v1.1h-1.2v-1.1Zm2.3 0h1.1v1.1h-1.1v-1.1Zm2.3 0h1.1v1.1h-1.1v-1.1Zm2.3 0h1.1v1.1h-1.1v-1.1Zm2.3 0h1.1v1.1h-1.1v-1.1Zm2.3 0h1.1v1.1h-1.1v-1.1Zm2.3 0h1.1v1.1h-1.1v-1.1Zm2.2 0h1.2v1.1h-1.2v-1.1Zm2.3 0h1.2v1.1h-1.2v-1.1Zm2.3 0h1.2v1.1h-1.2v-1.1Zm2.3 0H271v1.1h-1.2v-1.1Zm2.3 0h1.2v1.1h-1.2v-1.1Zm2.3 0h1.2v1.1h-1.2v-1.1Zm2.3 0h1.1v1.1h-1.1v-1.1Zm2.3 0h1.1v1.1H279v-1.1Zm2.3 0h1.1v1.1h-1.1v-1.1Zm2.3 0h1.1v1.1h-1.1v-1.1Zm2.3 0H287v1.1h-1.1v-1.1Zm2.3 0h1.1v1.1h-1.1v-1.1Zm2.2 0h1.2v1.1h-1.2v-1.1Zm2.3 0h1.2v1.1h-1.2v-1.1Zm2.3 0h1.2v1.1H295v-1.1Zm2.3 0h1.2v1.1h-1.2v-1.1Zm2.3 0h1.2v1.1h-1.2v-1.1Zm2.3 0h1.2v1.1h-1.2v-1.1Zm2.3 0h1.1v1.1h-1.1v-1.1Zm2.3 0h1.1v1.1h-1.1v-1.1Zm2.3 0h1.1v1.1h-1.1v-1.1Zm2.3 0h1.1v1.1h-1.1v-1.1Zm2.3 0h1.1v1.1h-1.1v-1.1Zm2.3 0h1.1v1.1h-1.1v-1.1Zm2.2 0h1.2v1.1h-1.2v-1.1Zm2.3 0h1.2v1.1h-1.2v-1.1Zm2.3 0h1.2v1.1h-1.2v-1.1Zm2.3 0H326v1.1h-1.2v-1.1Zm2.3 0h1.2v1.1h-1.2v-1.1Zm2.3 0h1.2v1.1h-1.2v-1.1Zm2.3 0h1.1v1.1h-1.1v-1.1Zm2.3 0h1.1v1.1H334v-1.1Zm2.3 0h1.1v1.1h-1.1v-1.1Zm2.3 0h1.1v1.1h-1.1v-1.1Zm2.3 0H342v1.1h-1.1v-1.1Zm2.3 0h1.1v1.1h-1.1v-1.1Zm2.2 0h1.2v1.1h-1.2v-1.1Zm2.3 0h1.2v1.1h-1.2v-1.1Zm2.3 0h1.2v1.1H350v-1.1Zm2.3 0h1.2v1.1h-1.2v-1.1Zm2.3 0h1.2v1.1h-1.2v-1.1Zm2.3 0h1.2v1.1h-1.2v-1.1Zm2.3 0h1.1v1.1h-1.1v-1.1Zm2.3 0h1.1v1.1h-1.1v-1.1Zm2.3 0h1.1v1.1h-1.1v-1.1Zm2.3 0h1.1v1.1h-1.1v-1.1Zm2.3 0h1.1v1.1h-1.1v-1.1Zm2.3 0h1.1v1.1h-1.1v-1.1Zm2.2 0h1.2v1.1h-1.2v-1.1Zm2.3 0h1.2v1.1h-1.2v-1.1Zm2.3 0h1.2v1.1h-1.2v-1.1Zm2.3 0H381v1.1h-1.2v-1.1Zm2.9 .5v1.2h-1.2v-1.2h1.2Zm0 2.3v1.2h-1.2v-1.2h1.2Zm0 2.3v1.2h-1.2v-1.2h1.2Zm0 2.3v1.1h-1.2v-1.1h1.2Zm0 2.3v1.1h-1.2v-1.1h1.2Zm0 2.3v1.1h-1.2v-1.1h1.2Zm0 2.3v1.1h-1.2v-1.1h1.2Zm0 2.3v1.1h-1.2v-1.1h1.2Zm0 2.3v1.1h-1.2V750h1.2Zm0 2.3v1.1h-1.2v-1.1h1.2Zm-.6 2.8H381V754h1.1v1.1Zm-2.3 0h-1.1V754h1.1v1.1Zm-2.3 0h-1.1V754h1.1v1.1Zm-2.3 0h-1.1V754h1.1v1.1Zm-2.3 0h-1.1V754h1.1v1.1Zm-2.2 0h-1.2V754h1.2v1.1Zm-2.3 0h-1.2V754h1.2v1.1Zm-2.3 0h-1.2V754h1.2v1.1Zm-2.3 0h-1.2V754h1.2v1.1Zm-2.3 0h-1.2V754h1.2v1.1Zm-2.3 0h-1.1V754h1.1v1.1Zm-2.3 0h-1.1V754h1.1v1.1Zm-2.3 0h-1.1V754h1.1v1.1Zm-2.3 0h-1.1V754h1.1v1.1Zm-2.3 0h-1.1V754H350v1.1Zm-2.3 0h-1.1V754h1.1v1.1Zm-2.3 0h-1.1V754h1.1v1.1Zm-2.2 0H342V754h1.2v1.1Zm-2.3 0h-1.2V754h1.2v1.1Zm-2.3 0h-1.2V754h1.2v1.1Zm-2.3 0h-1.2V754h1.2v1.1Zm-2.3 0h-1.2V754H334v1.1Zm-2.3 0h-1.1V754h1.1v1.1Zm-2.3 0h-1.1V754h1.1v1.1Zm-2.3 0H326V754h1.1v1.1Zm-2.3 0h-1.1V754h1.1v1.1Zm-2.3 0h-1.1V754h1.1v1.1Zm-2.3 0h-1.1V754h1.1v1.1Zm-2.3 0h-1.1V754h1.1v1.1Zm-2.2 0h-1.2V754h1.2v1.1Zm-2.3 0h-1.2V754h1.2v1.1Zm-2.3 0h-1.2V754h1.2v1.1Zm-2.3 0h-1.2V754h1.2v1.1Zm-2.3 0h-1.2V754h1.2v1.1Zm-2.3 0h-1.1V754h1.1v1.1Zm-2.3 0h-1.1V754h1.1v1.1Zm-2.3 0h-1.1V754h1.1v1.1Zm-2.3 0h-1.1V754h1.1v1.1Zm-2.3 0h-1.1V754H295v1.1Zm-2.3 0h-1.1V754h1.1v1.1Zm-2.3 0h-1.1V754h1.1v1.1Zm-2.2 0H287V754h1.2v1.1Zm-2.3 0h-1.2V754h1.2v1.1Zm-2.3 0h-1.2V754h1.2v1.1Zm-2.3 0h-1.2V754h1.2v1.1Zm-2.3 0h-1.2V754H279v1.1Zm-2.3 0h-1.1V754h1.1v1.1Zm-2.3 0h-1.1V754h1.1v1.1Zm-2.3 0H271V754h1.1v1.1Zm-2.3 0h-1.1V754h1.1v1.1Zm-2.3 0h-1.1V754h1.1v1.1Zm-2.3 0h-1.1V754h1.1v1.1Zm-2.3 0h-1.1V754h1.1v1.1Zm-2.2 0h-1.2V754h1.2v1.1Zm-2.3 0h-1.2V754h1.2v1.1Zm-2.3 0h-1.2V754h1.2v1.1Zm-2.3 0h-1.2V754h1.2v1.1Zm-2.3 0h-1.2V754h1.2v1.1Zm-2.3 0h-1.1V754h1.1v1.1Zm-2.3 0h-1.1V754h1.1v1.1Zm-2.3 0h-1.1V754h1.1v1.1Zm-2.3 0h-1.1V754h1.1v1.1Zm-2.3 0h-1.1V754H240v1.1Zm-2.3 0h-1.1V754h1.1v1.1Zm-2.3 0h-1.1V754h1.1v1.1Zm-2.8 -.6v-1.1h1.1v1.1h-1.1Zm0 -2.2v-1.2h1.1v1.2h-1.1Zm0 -2.3v-1.2h1.1V750h-1.1Zm0 -2.3v-1.2h1.1v1.2h-1.1Zm0 -2.3v-1.2h1.1v1.2h-1.1Zm0 -2.3v-1.2h1.1v1.2h-1.1Zm0 -2.3v-1.2h1.1v1.2h-1.1Zm0 -2.3v-1.1h1.1v1.1h-1.1Zm0 -2.3v-1.1h1.1v1.1h-1.1Zm0 -2.3v-1.1h1.1v1.1h-1.1Zm.6 -2.8h1.1v1.1h-1.1v-1.1Z" class="g2_236"/>
<path d="M382.1 731.6h57.3v22.9H382.1V731.6Zm0 32.1h68.8v22.9H382.1V763.7Z" class="g1_236"/>
</g>
</svg>