<?xml version="1.0" encoding="UTF-8" standalone="no"?>
<!DOCTYPE svg PUBLIC "-//W3C//DTD SVG 1.1//EN"
"http://www.w3.org/Graphics/SVG/1.1/DTD/svg11.dtd">
<svg viewBox="0 0 714 1017" version="1.1" xmlns="http://www.w3.org/2000/svg" xmlns:xlink="http://www.w3.org/1999/xlink">
<defs>
<clipPath id="c0_108"><path d="M225.2 812V776.8h322V812Z"/></clipPath>
<clipPath id="c1_108"><path d="M225.2 812V775.3H547.6V812Z"/></clipPath>
<style type="text/css"><![CDATA[
.g0_108{
fill: #FFF;
}
.g1_108{
fill: none;
stroke: #000;
stroke-width: 1.145;
stroke-miterlimit: 10;
}
.g2_108{
fill: none;
stroke: #000;
stroke-width: 3.437;
stroke-miterlimit: 10;
}
.g3_108{
fill: none;
stroke: #000;
stroke-width: 0.608;
stroke-miterlimit: 10;
}
]]></style>
</defs>
<path d="M0 1017.7H717.2V-3.7H0V1017.7Z" class="g0_108"/>
<g clip-path="url(#c1_108)">
<path clip-path="url(#c0_108)" d="M225.2 776.8h322v35.5h-322V776.8Z" class="g0_108"/>
<path d="M226.4 777.4h22.9v34.3H226.4V777.4Z" class="g0_108"/>
<path clip-path="url(#c0_108)" d="M226.4 777.4h22.9v34.3H226.4V777.4Z" class="g1_108"/>
<path d="M249.3 777.4h22.9v34.3H249.3V777.4Z" class="g0_108"/>
<path clip-path="url(#c0_108)" d="M249.3 777.4h22.9v34.3H249.3V777.4Z" class="g1_108"/>
<path d="M272.2 777.4h22.9v34.3H272.2V777.4Z" class="g0_108"/>
<path clip-path="url(#c0_108)" d="M272.2 777.4h22.9v34.3H272.2V777.4Z" class="g1_108"/>
<path d="M295.1 777.4H318v34.3H295.1V777.4Z" class="g0_108"/>
<path clip-path="url(#c0_108)" d="M295.1 777.4H318v34.3H295.1V777.4Z" class="g1_108"/>
<path d="M318 777.4h23v34.3H318V777.4Z" class="g0_108"/>
<path clip-path="url(#c0_108)" d="M318 777.4h23v34.3H318V777.4Z" class="g1_108"/>
<path d="M341 777.4h22.9v34.3H341V777.4Z" class="g0_108"/>
<path clip-path="url(#c0_108)" d="M341 777.4h22.9v34.3H341V777.4Z" class="g1_108"/>
<path d="M363.9 777.4h22.9v34.3H363.9V777.4Z" class="g0_108"/>
<path clip-path="url(#c0_108)" d="M363.9 777.4h22.9v34.3H363.9V777.4Z" class="g1_108"/>
<path d="M386.8 777.4h22.9v34.3H386.8V777.4Z" class="g0_108"/>
<path clip-path="url(#c0_108)" d="M386.8 777.4h22.9v34.3H386.8V777.4Z" class="g1_108"/>
<path d="M478.5 777.4h33.8v34.3H478.5V777.4Z" class="g0_108"/>
<path clip-path="url(#c0_108)" d="M478.5 777.4h33.8v34.3H478.5V777.4Z" class="g1_108"/>
<path d="M512.3 777.4h34.3v34.3H512.3V777.4Z" class="g0_108"/>
<path clip-path="url(#c0_108)" d="M512.3 777.4h34.3v34.3H512.3V777.4Z" class="g1_108"/>
<path d="M426.3 794.5H453m-6.5 5.2l10.4 -5.2l-10.4 -5.1" class="g2_108"/>
</g>
<path d="M86.6 832.5H196.2" class="g3_108"/>
</svg>