<?xml version="1.0" encoding="UTF-8" standalone="no"?>
<!DOCTYPE svg PUBLIC "-//W3C//DTD SVG 1.1//EN"
"http://www.w3.org/Graphics/SVG/1.1/DTD/svg11.dtd">
<svg viewBox="0 0 714 1017" version="1.1" xmlns="http://www.w3.org/2000/svg" xmlns:xlink="http://www.w3.org/1999/xlink">
<defs>
<clipPath id="c0_231"><path d="M142.4 534.8V299.6H551.9V534.8Z"/></clipPath>
<style type="text/css"><![CDATA[
.g0_231{
fill: #FFF;
}
.g1_231{
fill: none;
stroke: #000;
stroke-width: 1.145;
stroke-miterlimit: 10;
}
.g2_231{
fill: #000;
}
.g3_231{
fill: #CCC;
}
]]></style>
</defs>
<path d="M0 1017.7H717.2V-3.7H0V1017.7Z" class="g0_231"/>
<g clip-path="url(#c0_231)">
<path d="M142.4 300.9H550.3V534.6H142.4V300.9Z" class="g0_231"/>
<path d="M143 381.7h45.8v22.9H143V381.7Z" class="g0_231"/>
<path d="M143 381.7h45.8v22.9H143V381.7Z" class="g1_231"/>
<path d="M188.8 381.7h45.8v22.9H188.8V381.7Z" class="g0_231"/>
<path d="M188.8 381.7h45.8v22.9H188.8V381.7Z" class="g1_231"/>
<path d="M143 404.6h45.8v22.9H143V404.6Z" class="g0_231"/>
<path d="M143 404.6h45.8v22.9H143V404.6Z" class="g1_231"/>
<path d="M188.8 404.6h45.8v22.9H188.8V404.6Z" class="g0_231"/>
<path d="M188.8 404.6h45.8v22.9H188.8V404.6Z" class="g1_231"/>
<path d="M143 427.5h45.8v22.9H143V427.5Z" class="g0_231"/>
<path d="M143 427.5h45.8v22.9H143V427.5Z" class="g1_231"/>
<path d="M188.8 427.5h45.8v22.9H188.8V427.5Z" class="g0_231"/>
<path d="M188.8 427.5h45.8v22.9H188.8V427.5Z" class="g1_231"/>
<path d="M143 450.4h45.8v22.9H143V450.4Z" class="g0_231"/>
<path d="M143 450.4h45.8v22.9H143V450.4Z" class="g1_231"/>
<path d="M188.8 450.4h45.8v22.9H188.8V450.4Z" class="g0_231"/>
<path d="M188.8 450.4h45.8v22.9H188.8V450.4Z" class="g1_231"/>
<path d="M143 473.3h45.8v23H143v-23Z" class="g0_231"/>
<path d="M143 473.3h45.8v23H143v-23Z" class="g1_231"/>
<path d="M188.8 473.3h45.8v23H188.8v-23Z" class="g0_231"/>
<path d="M188.8 473.3h45.8v23H188.8v-23Z" class="g1_231"/>
<path d="M458.1 381.7h45.8v22.9H458.1V381.7Z" class="g0_231"/>
<path d="M465 381.1h3.4v1.2H465v-1.2Zm6.8 0h3.5v1.2h-3.5v-1.2Zm6.9 0h3.4v1.2h-3.4v-1.2Zm6.9 0H489v1.2h-3.4v-1.2Zm6.9 0h3.4v1.2h-3.4v-1.2Zm6.8 0h3.5v1.2h-3.5v-1.2Zm5.2 2.9v3.4h-1.2V384h1.2Zm0 6.8v3.5h-1.2v-3.5h1.2Zm0 6.9v3.5h-1.2v-3.5h1.2Zm-.6 7.5h-3.4V404h3.4v1.2Zm-6.9 0h-3.4V404H497v1.2Zm-6.8 0h-3.5V404h3.5v1.2Zm-6.9 0h-3.4V404h3.4v1.2Zm-6.9 0H473V404h3.4v1.2Zm-6.9 0h-3.4V404h3.4v1.2Zm-6.8 0h-3.5V404h3.5v1.2Zm-5.2 -2.9v-3.4h1.2v3.4h-1.2Zm0 -6.9V392h1.2v3.4h-1.2Zm0 -6.8v-3.5h1.2v3.5h-1.2Zm.6 -7.5h3.4v1.2h-3.4v-1.2Z" class="g2_231"/>
<path d="M503.9 381.7h45.9v22.9H503.9V381.7Z" class="g0_231"/>
<path d="M510.8 381.1h3.4v1.2h-3.4v-1.2Zm6.9 0h3.4v1.2h-3.4v-1.2Zm6.8 0H528v1.2h-3.5v-1.2Zm6.9 0h3.5v1.2h-3.5v-1.2Zm6.9 0h3.4v1.2h-3.4v-1.2Zm6.9 0h3.4v1.2h-3.4v-1.2Zm5.1 2.9v3.4h-1.1V384h1.1Zm0 6.8v3.5h-1.1v-3.5h1.1Zm0 6.9v3.5h-1.1v-3.5h1.1Zm-.5 7.5h-3.5V404h3.5v1.2Zm-6.9 0h-3.5V404h3.5v1.2Zm-6.9 0h-3.4V404H536v1.2Zm-6.9 0h-3.4V404h3.4v1.2Zm-6.8 0h-3.5V404h3.5v1.2Zm-6.9 0h-3.5V404h3.5v1.2Zm-6.9 0h-3.4V404h3.4v1.2Zm-5.2 -2.9v-3.4h1.2v3.4h-1.2Zm0 -6.9V392h1.2v3.4h-1.2Zm0 -6.8v-3.5h1.2v3.5h-1.2Zm.6 -7.5h3.5v1.2h-3.5v-1.2Z" class="g2_231"/>
<path d="M458.1 404.6h45.8v22.9H458.1V404.6Z" class="g3_231"/>
<path d="M465 404h3.4v1.2H465V404Zm6.8 0h3.5v1.2h-3.5V404Zm6.9 0h3.4v1.2h-3.4V404Zm6.9 0H489v1.2h-3.4V404Zm6.9 0h3.4v1.2h-3.4V404Zm6.8 0h3.5v1.2h-3.5V404Zm5.2 2.9v3.4h-1.2v-3.4h1.2Zm0 6.9v3.4h-1.2v-3.4h1.2Zm0 6.8v3.5h-1.2v-3.5h1.2Zm-.6 7.5h-3.4v-1.2h3.4v1.2Zm-6.9 0h-3.4v-1.2H497v1.2Zm-6.8 0h-3.5v-1.2h3.5v1.2Zm-6.9 0h-3.4v-1.2h3.4v1.2Zm-6.9 0H473v-1.2h3.4v1.2Zm-6.9 0h-3.4v-1.2h3.4v1.2Zm-6.8 0h-3.5v-1.2h3.5v1.2Zm-5.2 -2.9v-3.4h1.2v3.4h-1.2Zm0 -6.9v-3.4h1.2v3.4h-1.2Zm0 -6.8V408h1.2v3.5h-1.2Zm.6 -7.5h3.4v1.2h-3.4V404Z" class="g2_231"/>
<path d="M503.9 404.6h45.9v22.9H503.9V404.6Z" class="g3_231"/>
<path d="M510.8 404h3.4v1.2h-3.4V404Zm6.9 0h3.4v1.2h-3.4V404Zm6.8 0H528v1.2h-3.5V404Zm6.9 0h3.5v1.2h-3.5V404Zm6.9 0h3.4v1.2h-3.4V404Zm6.9 0h3.4v1.2h-3.4V404Zm5.1 2.9v3.4h-1.1v-3.4h1.1Zm0 6.9v3.4h-1.1v-3.4h1.1Zm0 6.8v3.5h-1.1v-3.5h1.1Zm-.5 7.5h-3.5v-1.2h3.5v1.2Zm-6.9 0h-3.5v-1.2h3.5v1.2Zm-6.9 0h-3.4v-1.2H536v1.2Zm-6.9 0h-3.4v-1.2h3.4v1.2Zm-6.8 0h-3.5v-1.2h3.5v1.2Zm-6.9 0h-3.5v-1.2h3.5v1.2Zm-6.9 0h-3.4v-1.2h3.4v1.2Zm-5.2 -2.9v-3.4h1.2v3.4h-1.2Zm0 -6.9v-3.4h1.2v3.4h-1.2Zm0 -6.8V408h1.2v3.5h-1.2Zm.6 -7.5h3.5v1.2h-3.5V404Z" class="g2_231"/>
<path d="M458.1 427.5h45.8v22.9H458.1V427.5Z" class="g0_231"/>
<path d="M465 426.9h3.4v1.2H465v-1.2Zm6.8 0h3.5v1.2h-3.5v-1.2Zm6.9 0h3.4v1.2h-3.4v-1.2Zm6.9 0H489v1.2h-3.4v-1.2Zm6.9 0h3.4v1.2h-3.4v-1.2Zm6.8 0h3.5v1.2h-3.5v-1.2Zm5.2 2.9v3.4h-1.2v-3.4h1.2Zm0 6.9v3.4h-1.2v-3.4h1.2Zm0 6.9V447h-1.2v-3.4h1.2Zm-.6 7.4h-3.4v-1.1h3.4V451Zm-6.9 0h-3.4v-1.1H497V451Zm-6.8 0h-3.5v-1.1h3.5V451Zm-6.9 0h-3.4v-1.1h3.4V451Zm-6.9 0H473v-1.1h3.4V451Zm-6.9 0h-3.4v-1.1h3.4V451Zm-6.8 0h-3.5v-1.1h3.5V451Zm-5.2 -2.9v-3.4h1.2v3.4h-1.2Zm0 -6.8v-3.5h1.2v3.5h-1.2Zm0 -6.9V431h1.2v3.4h-1.2Zm.6 -7.5h3.4v1.2h-3.4v-1.2Z" class="g2_231"/>
<path d="M503.9 427.5h45.9v22.9H503.9V427.5Z" class="g0_231"/>
<path d="M510.8 426.9h3.4v1.2h-3.4v-1.2Zm6.9 0h3.4v1.2h-3.4v-1.2Zm6.8 0H528v1.2h-3.5v-1.2Zm6.9 0h3.5v1.2h-3.5v-1.2Zm6.9 0h3.4v1.2h-3.4v-1.2Zm6.9 0h3.4v1.2h-3.4v-1.2Zm5.1 2.9v3.4h-1.1v-3.4h1.1Zm0 6.9v3.4h-1.1v-3.4h1.1Zm0 6.9V447h-1.1v-3.4h1.1Zm-.5 7.4h-3.5v-1.1h3.5V451Zm-6.9 0h-3.5v-1.1h3.5V451Zm-6.9 0h-3.4v-1.1H536V451Zm-6.9 0h-3.4v-1.1h3.4V451Zm-6.8 0h-3.5v-1.1h3.5V451Zm-6.9 0h-3.5v-1.1h3.5V451Zm-6.9 0h-3.4v-1.1h3.4V451Zm-5.2 -2.9v-3.4h1.2v3.4h-1.2Zm0 -6.8v-3.5h1.2v3.5h-1.2Zm0 -6.9V431h1.2v3.4h-1.2Zm.6 -7.5h3.5v1.2h-3.5v-1.2Z" class="g2_231"/>
<path d="M458.1 450.4h45.8v22.9H458.1V450.4Z" class="g0_231"/>
<path d="M465 449.9h3.4V451H465v-1.1Zm6.8 0h3.5V451h-3.5v-1.1Zm6.9 0h3.4V451h-3.4v-1.1Zm6.9 0H489V451h-3.4v-1.1Zm6.9 0h3.4V451h-3.4v-1.1Zm6.8 0h3.5V451h-3.5v-1.1Zm5.2 2.8v3.5h-1.2v-3.5h1.2Zm0 6.9V463h-1.2v-3.4h1.2Zm0 6.9v3.4h-1.2v-3.4h1.2Zm-.6 7.4h-3.4v-1.1h3.4v1.1Zm-6.9 0h-3.4v-1.1H497v1.1Zm-6.8 0h-3.5v-1.1h3.5v1.1Zm-6.9 0h-3.4v-1.1h3.4v1.1Zm-6.9 0H473v-1.1h3.4v1.1Zm-6.9 0h-3.4v-1.1h3.4v1.1Zm-6.8 0h-3.5v-1.1h3.5v1.1Zm-5.2 -2.8v-3.5h1.2v3.5h-1.2Zm0 -6.9v-3.5h1.2v3.5h-1.2Zm0 -6.9v-3.4h1.2v3.4h-1.2Zm.6 -7.4h3.4V451h-3.4v-1.1Z" class="g2_231"/>
<path d="M503.9 450.4h45.9v22.9H503.9V450.4Z" class="g0_231"/>
<path d="M510.8 449.9h3.4V451h-3.4v-1.1Zm6.9 0h3.4V451h-3.4v-1.1Zm6.8 0H528V451h-3.5v-1.1Zm6.9 0h3.5V451h-3.5v-1.1Zm6.9 0h3.4V451h-3.4v-1.1Zm6.9 0h3.4V451h-3.4v-1.1Zm5.1 2.8v3.5h-1.1v-3.5h1.1Zm0 6.9V463h-1.1v-3.4h1.1Zm0 6.9v3.4h-1.1v-3.4h1.1Zm-.5 7.4h-3.5v-1.1h3.5v1.1Zm-6.9 0h-3.5v-1.1h3.5v1.1Zm-6.9 0h-3.4v-1.1H536v1.1Zm-6.9 0h-3.4v-1.1h3.4v1.1Zm-6.8 0h-3.5v-1.1h3.5v1.1Zm-6.9 0h-3.5v-1.1h3.5v1.1Zm-6.9 0h-3.4v-1.1h3.4v1.1Zm-5.2 -2.8v-3.5h1.2v3.5h-1.2Zm0 -6.9v-3.5h1.2v3.5h-1.2Zm0 -6.9v-3.4h1.2v3.4h-1.2Zm.6 -7.4h3.5V451h-3.5v-1.1Z" class="g2_231"/>
<path d="M458.1 473.3h45.8v23H458.1v-23Z" class="g3_231"/>
<path d="M465 472.8h3.4v1.1H465v-1.1Zm6.8 0h3.5v1.1h-3.5v-1.1Zm6.9 0h3.4v1.1h-3.4v-1.1Zm6.9 0H489v1.1h-3.4v-1.1Zm6.9 0h3.4v1.1h-3.4v-1.1Zm6.8 0h3.5v1.1h-3.5v-1.1Zm5.2 2.8v3.5h-1.2v-3.5h1.2Zm0 6.9V486h-1.2v-3.5h1.2Zm0 6.9v3.4h-1.2v-3.4h1.2Zm-.6 7.4h-3.4v-1.1h3.4v1.1Zm-6.9 0h-3.4v-1.1H497v1.1Zm-6.8 0h-3.5v-1.1h3.5v1.1Zm-6.9 0h-3.4v-1.1h3.4v1.1Zm-6.9 0H473v-1.1h3.4v1.1Zm-6.9 0h-3.4v-1.1h3.4v1.1Zm-6.8 0h-3.5v-1.1h3.5v1.1ZM457.5 494v-3.5h1.2V494h-1.2Zm0 -6.9v-3.4h1.2v3.4h-1.2Zm0 -6.9v-3.4h1.2v3.4h-1.2Zm.6 -7.4h3.4v1.1h-3.4v-1.1Z" class="g2_231"/>
<path d="M503.9 473.3h45.9v23H503.9v-23Z" class="g3_231"/>
<path d="M510.8 472.8h3.4v1.1h-3.4v-1.1Zm6.9 0h3.4v1.1h-3.4v-1.1Zm6.8 0H528v1.1h-3.5v-1.1Zm6.9 0h3.5v1.1h-3.5v-1.1Zm6.9 0h3.4v1.1h-3.4v-1.1Zm6.9 0h3.4v1.1h-3.4v-1.1Zm5.1 2.8v3.5h-1.1v-3.5h1.1Zm0 6.9V486h-1.1v-3.5h1.1Zm0 6.9v3.4h-1.1v-3.4h1.1Zm-.5 7.4h-3.5v-1.1h3.5v1.1Zm-6.9 0h-3.5v-1.1h3.5v1.1Zm-6.9 0h-3.4v-1.1H536v1.1Zm-6.9 0h-3.4v-1.1h3.4v1.1Zm-6.8 0h-3.5v-1.1h3.5v1.1Zm-6.9 0h-3.5v-1.1h3.5v1.1Zm-6.9 0h-3.4v-1.1h3.4v1.1ZM503.3 494v-3.5h1.2V494h-1.2Zm0 -6.9v-3.4h1.2v3.4h-1.2Zm0 -6.9v-3.4h1.2v3.4h-1.2Zm.6 -7.4h3.5v1.1h-3.5v-1.1Z" class="g2_231"/>
<path d="M303.4 347.3h91.7v22.9H303.4V347.3Z" class="g0_231"/>
<path d="M303.4 347.3h91.7v22.9H303.4V347.3Z" class="g1_231"/>
<path d="M303.4 370.2h91.7v22.9H303.4V370.2Z" class="g0_231"/>
<path d="M303.4 370.2h91.7v22.9H303.4V370.2Z" class="g1_231"/>
<path d="M303.4 393.1h91.7v23H303.4v-23Z" class="g0_231"/>
<path d="M303.4 393.1h91.7v23H303.4v-23Z" class="g1_231"/>
<path d="M303.4 416.1h91.7V439H303.4V416.1Z" class="g3_231"/>
<path d="M303.4 416.1h91.7V439H303.4V416.1Z" class="g1_231"/>
<path d="M303.4 439h91.7v22.9H303.4V439Z" class="g0_231"/>
<path d="M303.4 439h91.7v22.9H303.4V439Z" class="g1_231"/>
<path d="M303.4 461.9h91.7v22.9H303.4V461.9Z" class="g0_231"/>
<path d="M303.4 461.9h91.7v22.9H303.4V461.9Z" class="g1_231"/>
<path d="M303.4 484.8h91.7v22.9H303.4V484.8Z" class="g3_231"/>
<path d="M303.4 484.8h91.7v22.9H303.4V484.8ZM234.6 393.1h23c7.6 0 11.4 -3.8 11.4 -11.4V370.2c0 -7.6 3.8 -11.4 11.5 -11.4h15.6" class="g1_231"/>
<path d="M302.1 358.8l-8 2.6l2 -2.6l-2 -2.7l8 2.7Z" class="g2_231"/>
<path d="M302.1 358.8l-8 2.6l2 -2.6l-2 -2.7l8 2.7Zm-67.5 57.3h23c7.6 0 11.4 3.8 11.4 11.4V439c0 7.6 3.8 11.4 11.5 11.4h15.6" class="g1_231"/>
<path d="M302.1 450.4l-8 2.7l2 -2.7l-2 -2.6l8 2.6Z" class="g2_231"/>
<path d="M302.1 450.4l-8 2.7l2 -2.7l-2 -2.6l8 2.6ZM234.6 439H269c7.7 0 11.5 -3.8 11.5 -11.5V393.1c0 -7.6 2.6 -11.4 7.8 -11.4h7.8" class="g1_231"/>
<path d="M302.1 381.7l-8 2.6l2 -2.6l-2 -2.7l8 2.7Z" class="g2_231"/>
<path d="M302.1 381.7l-8 2.6l2 -2.6l-2 -2.7l8 2.7Zm-67.5 80.2h23c7.6 0 11.4 1.9 11.4 5.7v2.9c0 1.9 3.8 2.8 11.5 2.8h15.6" class="g1_231"/>
<path d="M302.1 473.3l-8 2.7l2 -2.7l-2 -2.6l8 2.6Z" class="g2_231"/>
<path d="M302.1 473.3l-8 2.7l2 -2.7l-2 -2.6l8 2.6Zm156 -80.2h-8.6c-5.7 0 -8.6 -3.8 -8.6 -11.4V370.2c0 -7.6 -3.8 -11.4 -11.5 -11.4h-27" class="g1_231"/>
<path d="M396.3 358.8l8.1 -2.7l-2 2.7l2 2.6l-8.1 -2.6Z" class="g2_231"/>
<path d="M396.3 358.8l8.1 -2.7l-2 2.7l2 2.6l-8.1 -2.6Zm61.8 57.3h-8.6c-5.7 0 -8.6 3.8 -8.6 11.4v57.3c0 7.6 -3.8 11.5 -11.5 11.5h-27" class="g1_231"/>
<path d="M396.3 496.3l8.1 -2.7l-2 2.7l2 2.6l-8.1 -2.6Z" class="g2_231"/>
<path d="M396.3 496.3l8.1 -2.7l-2 2.7l2 2.6l-8.1 -2.6ZM458.1 439H440.9c-7.6 0 -11.5 -3.8 -11.5 -11.5V393.1c0 -7.6 -3.8 -11.4 -11.4 -11.4H402.4" class="g1_231"/>
<path d="M396.3 381.7l8.1 -2.7l-2 2.7l2 2.6l-8.1 -2.6Z" class="g2_231"/>
<path d="M396.3 381.7l8.1 -2.7l-2 2.7l2 2.6l-8.1 -2.6Zm61.8 80.2H440.9c-7.6 0 -11.5 1.9 -11.5 5.7v2.9c0 1.9 -3.8 2.8 -11.4 2.8H402.4" class="g1_231"/>
<path d="M396.3 473.3l8.1 -2.6l-2 2.6l2 2.7l-8.1 -2.7Z" class="g2_231"/>
<path d="M396.3 473.3l8.1 -2.6l-2 2.6l2 2.7l-8.1 -2.7Zm61.8 11.5H429.4C421.8 484.8 418 481 418 473.3V439c0 -7.7 -2.6 -11.5 -7.8 -11.5h-7.8" class="g1_231"/>
<path d="M396.3 427.5l8.1 -2.7l-2 2.7l2 2.7l-8.1 -2.7Z" class="g2_231"/>
<path d="M396.3 427.5l8.1 -2.7l-2 2.7l2 2.7l-8.1 -2.7Z" class="g1_231"/>
<path d="M143 301.5h45.8v80.2H143V301.5Z" class="g0_231"/>
<path d="M143 301.5h45.8v80.2H143V301.5Z" class="g1_231"/>
<path d="M188.8 301.5h45.8v80.2H188.8V301.5Z" class="g0_231"/>
<path d="M188.8 301.5h45.8v80.2H188.8V301.5Z" class="g1_231"/>
<path d="M458.1 301.5h45.8v80.2H458.1V301.5Z" class="g0_231"/>
<path d="M465 300.9h3.4V302H465v-1.1Zm6.8 0h3.5V302h-3.5v-1.1Zm6.9 0h3.4V302h-3.4v-1.1Zm6.9 0H489V302h-3.4v-1.1Zm6.9 0h3.4V302h-3.4v-1.1Zm6.8 0h3.5V302h-3.5v-1.1Zm5.2 2.9v3.4h-1.2v-3.4h1.2Zm0 6.8v3.5h-1.2v-3.5h1.2Zm0 6.9V321h-1.2v-3.5h1.2Zm0 6.9v3.4h-1.2v-3.4h1.2Zm0 6.9v3.4h-1.2v-3.4h1.2Zm0 6.8v3.5h-1.2v-3.5h1.2Zm0 6.9v3.5h-1.2V345h1.2Zm0 6.9v3.4h-1.2v-3.4h1.2Zm0 6.9v3.4h-1.2v-3.4h1.2Zm0 6.8v3.5h-1.2v-3.5h1.2Zm0 6.9V376h-1.2v-3.5h1.2Zm0 6.9v2.9h-1.7v-1.2h1.1v.6h-.6v-2.3h1.2Zm-5.2 2.9h-3.4v-1.2h3.4v1.2Zm-6.8 0H489v-1.2h3.5v1.2Zm-6.9 0h-3.5v-1.2h3.5v1.2Zm-6.9 0h-3.4v-1.2h3.4v1.2Zm-6.9 0h-3.4v-1.2h3.4v1.2Zm-6.8 0h-3.5v-1.2H465v1.2Zm-7.5 -.6v-3.5h1.2v3.5h-1.2Zm0 -6.9v-3.4h1.2v3.4h-1.2Zm0 -6.9v-3.4h1.2v3.4h-1.2Zm0 -6.8v-3.5h1.2v3.5h-1.2Zm0 -6.9v-3.5h1.2v3.5h-1.2Zm0 -6.9v-3.4h1.2v3.4h-1.2Zm0 -6.9V337h1.2v3.4h-1.2Zm0 -6.8v-3.5h1.2v3.5h-1.2Zm0 -6.9v-3.5h1.2v3.5h-1.2Zm0 -6.9v-3.4h1.2v3.4h-1.2Zm0 -6.9v-3.4h1.2v3.4h-1.2Zm0 -6.8v-3.5h1.2v3.5h-1.2Zm.6 -5.2h3.4V302h-3.4v-1.1Z" class="g2_231"/>
<path d="M503.9 301.5h45.9v80.2H503.9V301.5Z" class="g0_231"/>
<path d="M510.8 300.9h3.4V302h-3.4v-1.1Zm6.9 0h3.4V302h-3.4v-1.1Zm6.8 0H528V302h-3.5v-1.1Zm6.9 0h3.5V302h-3.5v-1.1Zm6.9 0h3.4V302h-3.4v-1.1Zm6.9 0h3.4V302h-3.4v-1.1Zm5.1 2.9v3.4h-1.1v-3.4h1.1Zm0 6.8v3.5h-1.1v-3.5h1.1Zm0 6.9V321h-1.1v-3.5h1.1Zm0 6.9v3.4h-1.1v-3.4h1.1Zm0 6.9v3.4h-1.1v-3.4h1.1Zm0 6.8v3.5h-1.1v-3.5h1.1Zm0 6.9v3.5h-1.1V345h1.1Zm0 6.9v3.4h-1.1v-3.4h1.1Zm0 6.9v3.4h-1.1v-3.4h1.1Zm0 6.8v3.5h-1.1v-3.5h1.1Zm0 6.9V376h-1.1v-3.5h1.1Zm0 6.9v2.9h-1.7v-1.2h1.2v.6h-.6v-2.3h1.1Zm-5.1 2.9h-3.5v-1.2h3.5v1.2Zm-6.9 0h-3.4v-1.2h3.4v1.2Zm-6.9 0H528v-1.2h3.4v1.2Zm-6.9 0h-3.4v-1.2h3.4v1.2Zm-6.8 0h-3.5v-1.2h3.5v1.2Zm-6.9 0h-3.4v-1.2h3.4v1.2Zm-7.5 -.6v-3.5h1.2v3.5h-1.2Zm0 -6.9v-3.4h1.2v3.4h-1.2Zm0 -6.9v-3.4h1.2v3.4h-1.2Zm0 -6.8v-3.5h1.2v3.5h-1.2Zm0 -6.9v-3.5h1.2v3.5h-1.2Zm0 -6.9v-3.4h1.2v3.4h-1.2Zm0 -6.9V337h1.2v3.4h-1.2Zm0 -6.8v-3.5h1.2v3.5h-1.2Zm0 -6.9v-3.5h1.2v3.5h-1.2Zm0 -6.9v-3.4h1.2v3.4h-1.2Zm0 -6.9v-3.4h1.2v3.4h-1.2Zm0 -6.8v-3.5h1.2v3.5h-1.2Zm.6 -5.2h3.5V302h-3.5v-1.1Z" class="g2_231"/>
</g>
</svg>