<?xml version="1.0" encoding="UTF-8" standalone="no"?>
<!DOCTYPE svg PUBLIC "-//W3C//DTD SVG 1.1//EN"
"http://www.w3.org/Graphics/SVG/1.1/DTD/svg11.dtd">
<svg viewBox="0 0 714 1017" version="1.1" xmlns="http://www.w3.org/2000/svg" xmlns:xlink="http://www.w3.org/1999/xlink">
<defs>
<clipPath id="c0_94"><path d="M89.3 640.6V304.8h558V640.6Z"/></clipPath>
<clipPath id="c1_94"><path d="M89.3 641.1V303.4H648.4V641.1Z"/></clipPath>
<style type="text/css"><![CDATA[
.g0_94{
fill: #FFF;
}
.g1_94{
fill: #000;
}
.g2_94{
fill: none;
stroke: #000;
stroke-width: 1.145;
stroke-miterlimit: 10;
}
]]></style>
</defs>
<path d="M0 1017.7H717.2V-3.7H0V1017.7Z" class="g0_94"/>
<g clip-path="url(#c1_94)">
<path clip-path="url(#c0_94)" d="M89.3 304.8h558V640.6H89.3V304.8Z" class="g0_94"/>
<path d="M257.2 304.8h1.2V306h-1.2v-1.2Zm2.3 0h1.1V306h-1.1v-1.2Zm2.3 0h1.1V306h-1.1v-1.2Zm2.3 0h1.1V306h-1.1v-1.2Zm2.3 0h1.1V306h-1.1v-1.2Zm2.3 0h1.1V306h-1.1v-1.2Zm2.3 0h1.1V306H271v-1.2Zm2.2 0h1.2V306h-1.2v-1.2Zm2.3 0h1.2V306h-1.2v-1.2Zm2.3 0H279V306h-1.2v-1.2Zm2.3 0h1.2V306h-1.2v-1.2Zm2.3 0h1.2V306h-1.2v-1.2Zm2.3 0h1.2V306h-1.2v-1.2Zm2.3 0h1.1V306H287v-1.2Zm2.3 0h1.1V306h-1.1v-1.2Zm2.3 0h1.1V306h-1.1v-1.2Zm2.3 0H295V306h-1.1v-1.2Zm2.3 0h1.1V306h-1.1v-1.2Zm2.3 0h1.1V306h-1.1v-1.2Zm2.2 0h1.2V306h-1.2v-1.2Zm2.3 0h1.2V306H303v-1.2Zm2.3 0h1.2V306h-1.2v-1.2Zm2.3 0h1.2V306h-1.2v-1.2Zm2.3 0h1.2V306h-1.2v-1.2Zm2.3 0h1.2V306h-1.2v-1.2Zm2.3 0h1.1V306h-1.1v-1.2Zm2.3 0h1.1V306h-1.1v-1.2Zm2.3 0h1.1V306h-1.1v-1.2Zm2.3 0h1.1V306h-1.1v-1.2Zm2.3 0h1.1V306h-1.1v-1.2Zm2.3 0h1.1V306H326v-1.2Zm2.2 0h1.2V306h-1.2v-1.2Zm2.3 0h1.2V306h-1.2v-1.2Zm2.3 0H334V306h-1.2v-1.2Zm2.3 0h1.2V306h-1.2v-1.2Zm2.3 0h1.2V306h-1.2v-1.2Zm2.3 0h1.2V306h-1.2v-1.2Zm2.3 0h1.1V306H342v-1.2Zm2.3 0h1.1V306h-1.1v-1.2Zm2.3 0h1.1V306h-1.1v-1.2Zm2.3 0H350V306h-1.1v-1.2Zm2.3 0h1.1V306h-1.1v-1.2Zm2.3 0h1.1V306h-1.1v-1.2Zm2.2 0h1.2V306h-1.2v-1.2Zm2.3 0h1.2V306H358v-1.2Zm2.3 0h1.2V306h-1.2v-1.2Zm2.3 0h1.2V306h-1.2v-1.2Zm2.3 0h1.2V306h-1.2v-1.2Zm2.3 0h1.2V306h-1.2v-1.2Zm2.3 0h1.1V306h-1.1v-1.2Zm2.3 0h1.1V306h-1.1v-1.2Zm2.3 0h1.1V306h-1.1v-1.2Zm2.3 0h1.1V306h-1.1v-1.2Zm2.3 0h1.1V306h-1.1v-1.2Zm2.3 0h1.1V306H381v-1.2Zm2.2 0h1.2V306h-1.2v-1.2Zm2.3 0h1.2V306h-1.2v-1.2Zm2.3 0H389V306h-1.2v-1.2Zm2.3 0h1.2V306h-1.2v-1.2Zm2.3 0h1.2V306h-1.2v-1.2Zm2.3 0h1.2V306h-1.2v-1.2Zm2.3 0h1.1V306H397v-1.2Zm2.3 0h1.1V306h-1.1v-1.2Zm2.3 0h1.1V306h-1.1v-1.2Zm2.3 0H405V306h-1.1v-1.2Zm2.3 0h1.1V306h-1.1v-1.2Zm2.3 0h1.1V306h-1.1v-1.2Zm2.2 0h1.2V306h-1.2v-1.2Zm2.3 0h1.2V306H413v-1.2Zm2.3 0h1.2V306h-1.2v-1.2Zm2.3 0h1.2V306h-1.2v-1.2Zm2.3 0h1.2V306h-1.2v-1.2Zm2.3 0h1.2V306h-1.2v-1.2Zm2.3 0h1.1V306h-1.1v-1.2Zm2.3 0h1.1V306h-1.1v-1.2Zm2.3 0h1.1V306h-1.1v-1.2Zm2.3 0h1.1V306h-1.1v-1.2Zm2.3 0h1.1V306h-1.1v-1.2Zm2.3 0h1.1V306H436v-1.2Zm2.2 0h1.2V306h-1.2v-1.2Zm2.3 0h1.2V306h-1.2v-1.2Zm2.3 0H444V306h-1.2v-1.2Zm2.3 0h1.2V306h-1.2v-1.2Zm2.3 0h1.2V306h-1.2v-1.2Zm2.3 0h1.2V306h-1.2v-1.2Zm2.3 0h1.1V306H452v-1.2Zm2.3 0h1.1V306h-1.1v-1.2Zm2.3 0h1.1V306h-1.1v-1.2Zm2.3 0H460V306h-1.1v-1.2Zm2.3 0h1.1V306h-1.1v-1.2Zm2.3 0h1.1V306h-1.1v-1.2Zm2.2 0h1.2V306h-1.2v-1.2Zm2.3 0h1.2V306H468v-1.2Zm2.3 0h1.2V306h-1.2v-1.2Zm2.3 0h1.2V306h-1.2v-1.2Zm2.3 0h1.2V306h-1.2v-1.2Zm2.3 0h1.2V306h-1.2v-1.2Zm2.3 0h1.1V306h-1.1v-1.2Zm2.3 0h1.1V306h-1.1v-1.2Zm2.3 0h1.1V306h-1.1v-1.2Zm2.3 0h1.1V306h-1.1v-1.2Zm2.3 0h1.1V306h-1.1v-1.2Zm2.3 0h1.1V306H491v-1.2Zm2.2 0h1.2V306h-1.2v-1.2Zm2.3 0h1.2V306h-1.2v-1.2Zm2.3 0H499V306h-1.2v-1.2Zm2.3 0h1.2V306h-1.2v-1.2Zm2.3 0h1.2V306h-1.2v-1.2Zm2.3 0h1.2V306h-1.2v-1.2Zm2.3 0h1.1V306H507v-1.2Zm2.3 0h1.1V306h-1.1v-1.2Zm2.3 0h1.1V306h-1.1v-1.2Zm2.3 0H515V306h-1.1v-1.2Zm2.3 0h1.1V306h-1.1v-1.2Zm2.3 0h1.1V306h-1.1v-1.2Zm2.2 0h1.2V306h-1.2v-1.2Zm2.3 0h1.2V306H523v-1.2Zm2.3 0h1.2V306h-1.2v-1.2Zm2.3 0h.4c.3 0 .5 .1 .8 .1l-.2 1.1c-.2 0 -.4 0 -.6 0h-.4v-1.2Zm2.5 .5c.4 .1 .8 .4 1.1 .7l-.7 .9c-.3 -.3 -.6 -.4 -.9 -.6l.5 -1Zm2.1 1.7c.3 .3 .5 .7 .7 1.2l-1.1 .4c-.1 -.4 -.3 -.7 -.5 -1l.9 -.6Zm1 2.4c0 .2 0 .4 0 .7v.5h-1.1v-.5c0 -.2 0 -.4 -.1 -.6l1.2 -.1Zm0 2.3v1.2h-1.1v-1.2h1.1Zm0 2.3v1.2h-1.1V314h1.1Zm0 2.3v1.2h-1.1v-1.2h1.1Zm0 2.3v1.2h-1.1v-1.2h1.1Zm0 2.3V322h-1.1v-1.1h1.1Zm0 2.3v1.1h-1.1v-1.1h1.1Zm0 2.3v1.1h-1.1v-1.1h1.1Zm0 2.3v1.1h-1.1v-1.1h1.1Zm0 2.3v1.1h-1.1v-1.1h1.1Zm0 2.3c0 .4 -.1 .8 -.3 1.2l-1.1 -.4c.2 -.3 .2 -.6 .3 -.9l1.1 .1Zm-.9 2.4c-.3 .4 -.6 .8 -.9 1.1l-.8 -.9c.3 -.2 .6 -.5 .8 -.8l.9 .6Zm-2.1 1.8c-.4 .2 -.8 .3 -1.2 .4l-.2 -1.1c.3 -.1 .6 -.2 .9 -.3l.5 1Zm-2.4 .5h-1.2V336h1.2v1.1Zm-2.3 0h-1.2V336h1.2v1.1Zm-2.3 0H522V336h1.2v1.1Zm-2.3 0h-1.1V336h1.1v1.1Zm-2.3 0h-1.1V336h1.1v1.1Zm-2.3 0h-1.1V336h1.1v1.1Zm-2.3 0h-1.1V336H514v1.1Zm-2.3 0h-1.1V336h1.1v1.1Zm-2.3 0h-1.1V336h1.1v1.1Zm-2.3 0H506V336h1.1v1.1Zm-2.2 0h-1.2V336h1.2v1.1Zm-2.3 0h-1.2V336h1.2v1.1Zm-2.3 0h-1.2V336h1.2v1.1Zm-2.3 0h-1.2V336H498v1.1Zm-2.3 0h-1.2V336h1.2v1.1Zm-2.3 0h-1.1V336h1.1v1.1Zm-2.3 0H490V336h1.1v1.1Zm-2.3 0h-1.1V336h1.1v1.1Zm-2.3 0h-1.1V336h1.1v1.1Zm-2.3 0h-1.1V336h1.1v1.1Zm-2.3 0h-1.1V336h1.1v1.1Zm-2.3 0h-1.1V336h1.1v1.1Zm-2.2 0h-1.2V336h1.2v1.1Zm-2.3 0h-1.2V336h1.2v1.1Zm-2.3 0h-1.2V336h1.2v1.1Zm-2.3 0h-1.2V336h1.2v1.1Zm-2.3 0H467V336h1.2v1.1Zm-2.3 0h-1.1V336h1.1v1.1Zm-2.3 0h-1.1V336h1.1v1.1Zm-2.3 0h-1.1V336h1.1v1.1Zm-2.3 0h-1.1V336H459v1.1Zm-2.3 0h-1.1V336h1.1v1.1Zm-2.3 0h-1.1V336h1.1v1.1Zm-2.3 0H451V336h1.1v1.1Zm-2.2 0h-1.2V336h1.2v1.1Zm-2.3 0h-1.2V336h1.2v1.1Zm-2.3 0h-1.2V336h1.2v1.1Zm-2.3 0h-1.2V336H443v1.1Zm-2.3 0h-1.2V336h1.2v1.1Zm-2.3 0h-1.1V336h1.1v1.1Zm-2.3 0H435V336h1.1v1.1Zm-2.3 0h-1.1V336h1.1v1.1Zm-2.3 0h-1.1V336h1.1v1.1Zm-2.3 0h-1.1V336h1.1v1.1Zm-2.3 0h-1.1V336h1.1v1.1Zm-2.3 0h-1.1V336h1.1v1.1Zm-2.2 0h-1.2V336h1.2v1.1Zm-2.3 0h-1.2V336h1.2v1.1Zm-2.3 0h-1.2V336h1.2v1.1Zm-2.3 0h-1.2V336h1.2v1.1Zm-2.3 0H412V336h1.2v1.1Zm-2.3 0h-1.1V336h1.1v1.1Zm-2.3 0h-1.1V336h1.1v1.1Zm-2.3 0h-1.1V336h1.1v1.1Zm-2.3 0h-1.1V336H404v1.1Zm-2.3 0h-1.1V336h1.1v1.1Zm-2.3 0h-1.1V336h1.1v1.1Zm-2.3 0H396V336h1.1v1.1Zm-2.2 0h-1.2V336h1.2v1.1Zm-2.3 0h-1.2V336h1.2v1.1Zm-2.3 0h-1.2V336h1.2v1.1Zm-2.3 0h-1.2V336H388v1.1Zm-2.3 0h-1.2V336h1.2v1.1Zm-2.3 0h-1.1V336h1.1v1.1Zm-2.3 0H380V336h1.1v1.1Zm-2.3 0h-1.1V336h1.1v1.1Zm-2.3 0h-1.1V336h1.1v1.1Zm-2.3 0h-1.1V336h1.1v1.1Zm-2.3 0h-1.1V336h1.1v1.1Zm-2.3 0h-1.1V336h1.1v1.1Zm-2.2 0h-1.2V336h1.2v1.1Zm-2.3 0h-1.2V336h1.2v1.1Zm-2.3 0h-1.2V336h1.2v1.1Zm-2.3 0h-1.2V336h1.2v1.1Zm-2.3 0H357V336h1.2v1.1Zm-2.3 0h-1.1V336h1.1v1.1Zm-2.3 0h-1.1V336h1.1v1.1Zm-2.3 0h-1.1V336h1.1v1.1Zm-2.3 0h-1.1V336H349v1.1Zm-2.3 0h-1.1V336h1.1v1.1Zm-2.3 0h-1.1V336h1.1v1.1Zm-2.3 0H341V336h1.1v1.1Zm-2.2 0h-1.2V336h1.2v1.1Zm-2.3 0h-1.2V336h1.2v1.1Zm-2.3 0h-1.2V336h1.2v1.1Zm-2.3 0h-1.2V336H333v1.1Zm-2.3 0h-1.2V336h1.2v1.1Zm-2.3 0h-1.1V336h1.1v1.1Zm-2.3 0H325V336h1.1v1.1Zm-2.3 0h-1.1V336h1.1v1.1Zm-2.3 0h-1.1V336h1.1v1.1Zm-2.3 0h-1.1V336h1.1v1.1Zm-2.3 0h-1.1V336h1.1v1.1Zm-2.3 0h-1.1V336h1.1v1.1Zm-2.2 0h-1.2V336h1.2v1.1Zm-2.3 0h-1.2V336h1.2v1.1Zm-2.3 0h-1.2V336h1.2v1.1Zm-2.3 0h-1.2V336h1.2v1.1Zm-2.3 0H302V336h1.2v1.1Zm-2.3 0h-1.1V336h1.1v1.1Zm-2.3 0h-1.1V336h1.1v1.1Zm-2.3 0h-1.1V336h1.1v1.1Zm-2.3 0h-1.1V336H294v1.1Zm-2.3 0h-1.1V336h1.1v1.1Zm-2.3 0h-1.1V336h1.1v1.1Zm-2.3 0H286V336h1.1v1.1Zm-2.2 0h-1.2V336h1.2v1.1Zm-2.3 0h-1.2V336h1.2v1.1Zm-2.3 0h-1.2V336h1.2v1.1Zm-2.3 0h-1.2V336H278v1.1Zm-2.3 0h-1.2V336h1.2v1.1Zm-2.3 0h-1.1V336h1.1v1.1Zm-2.3 0H270V336h1.1v1.1Zm-2.3 0h-1.1V336h1.1v1.1Zm-2.3 0h-1.1V336h1.1v1.1Zm-2.3 0h-1.1V336h1.1v1.1Zm-2.3 0h-1.1V336h1.1v1.1Zm-2.3 0h-1.1V336h1.1v1.1Zm-2.2 0h-1.2V336h1.2v1.1Zm-2.3 0h-.2c-.3 0 -.7 0 -1.1 -.1l.3 -1.1c.3 0 .5 .1 .8 .1h.2v1.1Zm-2.5 -.5c-.4 -.2 -.8 -.5 -1.1 -.8l.7 -.9c.3 .3 .6 .5 .9 .6l-.5 1.1Zm-2.1 -1.8c-.2 -.4 -.4 -.8 -.5 -1.2l1 -.4c.2 .3 .3 .6 .5 .9l-1 .7Zm-.8 -2.5c0 -.1 0 -.3 0 -.4v-.8h1.1v.8c0 .1 0 .2 0 .3l-1.1 .1Zm0 -2.3v-1.2h1.1V330h-1.1Zm0 -2.3v-1.1h1.1v1.1h-1.1Zm0 -2.3v-1.1h1.1v1.1h-1.1Zm0 -2.3V322h1.1v1.1h-1.1Zm0 -2.3v-1.1h1.1v1.1h-1.1Zm0 -2.3v-1.1h1.1v1.1h-1.1Zm0 -2.3v-1.1h1.1v1.1h-1.1Zm0 -2.2v-1.2h1.1V314h-1.1Zm0 -2.3v-1.2h1.1v1.2h-1.1Zm0 -2.4c.1 -.4 .2 -.8 .4 -1.2l1 .4c-.1 .3 -.2 .7 -.2 1l-1.2 -.2Zm1 -2.4c.3 -.4 .7 -.7 1 -1l.7 .9c-.3 .2 -.5 .5 -.7 .8l-1 -.7Zm2.2 -1.7c.4 -.1 .8 -.2 1.3 -.3l.1 1.1c-.3 .1 -.6 .2 -1 .3l-.4 -1.1Zm2 -.4h1.2V306h-1.2v-1.2Z" class="g1_94"/>
<path d="M245.7 520.8H303v91.7H245.7V520.8Z" class="g2_94"/>
<path d="M190.7 304.8h1.1V306h-1.1v-1.2Zm2.3 0h1.1V306H193v-1.2Zm2.3 0h1.1V306h-1.1v-1.2Zm2.2 0h1.2V306h-1.2v-1.2Zm2.3 0H201V306h-1.2v-1.2Zm2.3 0h1.2V306h-1.2v-1.2Zm2.3 0h1.2V306h-1.2v-1.2Zm2.3 0h1.2V306h-1.2v-1.2Zm2.3 0h1.1V306H209v-1.2Zm2.3 0h1.1V306h-1.1v-1.2Zm2.3 0h1.1V306h-1.1v-1.2Zm2.3 0H217V306h-1.1v-1.2Zm2.3 0h1.1V306h-1.1v-1.2Zm2.3 0h1.1V306h-1.1v-1.2Zm2.3 0h1.1V306h-1.1v-1.2Zm2.2 0h1.2V306H225v-1.2Zm2.3 0h1.2V306h-1.2v-1.2Zm2.3 0h1.2V306h-1.2v-1.2Zm2.3 0h1.2V306h-1.2v-1.2Zm2.3 0h1.2V306h-1.2v-1.2Zm2.3 0h1.1V306h-1.1v-1.2Zm2.3 0h1.1V306h-1.1v-1.2Zm2.3 0h1.1V306h-1.1v-1.2Zm2.3 0h1.1V306h-1.1v-1.2Zm2.8 .6v1.2h-1.1v-1.2h1.1Zm0 2.3v1.1h-1.1v-1.1h1.1Zm0 2.3v1.1h-1.1V310h1.1Zm0 2.3v1.1h-1.1v-1.1h1.1Zm0 2.3v1.1h-1.1v-1.1h1.1Zm0 2.3V318h-1.1v-1.1h1.1Zm0 2.3v1.1h-1.1v-1.1h1.1Zm0 2.2v1.2h-1.1v-1.2h1.1Zm0 2.3v1.2h-1.1v-1.2h1.1Zm0 2.3v1.2h-1.1V326h1.1Zm0 2.3v1.2h-1.1v-1.2h1.1Zm0 2.3v1.2h-1.1v-1.2h1.1Zm0 2.3v1.2h-1.1v-1.2h1.1Zm0 2.3v1.1h-1.1v-1.1h1.1Zm0 2.3v1.1h-1.1v-1.1h1.1Zm0 2.3v1.1h-1.1v-1.1h1.1Zm0 2.3v1.1h-1.1v-1.1h1.1Zm0 2.3v1.1h-1.1v-1.1h1.1Zm0 2.3v1.1h-1.1v-1.1h1.1Zm0 2.2v1.2h-1.1v-1.2h1.1Zm0 2.3v1.2h-1.1v-1.2h1.1Zm0 2.3v1.2h-1.1v-1.2h1.1Zm0 2.3V357h-1.1v-1.2h1.1Zm0 2.3v1.2h-1.1v-1.2h1.1Zm0 2.3v1.2h-1.1v-1.2h1.1Zm0 2.3v1.1h-1.1v-1.1h1.1Zm0 2.3v1.1h-1.1V365h1.1Zm0 2.3v1.1h-1.1v-1.1h1.1Zm0 2.3v1.1h-1.1v-1.1h1.1Zm0 2.3V373h-1.1v-1.1h1.1Zm0 2.3v1.1h-1.1v-1.1h1.1Zm0 2.2v1.2h-1.1v-1.2h1.1Zm0 2.3v1.2h-1.1v-1.2h1.1Zm0 2.3v1.2h-1.1V381h1.1Zm0 2.3v1.2h-1.1v-1.2h1.1Zm0 2.3v1.2h-1.1v-1.2h1.1Zm0 2.3v1.2h-1.1v-1.2h1.1Zm0 2.3v1.1h-1.1v-1.1h1.1Zm0 2.3v1.1h-1.1v-1.1h1.1Zm0 2.3v1.1h-1.1v-1.1h1.1Zm0 2.3v1.1h-1.1v-1.1h1.1Zm0 2.3v1.1h-1.1v-1.1h1.1Zm0 2.3v1.1h-1.1v-1.1h1.1Zm0 2.2v1.2h-1.1v-1.2h1.1Zm0 2.3v1.2h-1.1v-1.2h1.1Zm0 2.3v1.2h-1.1v-1.2h1.1Zm0 2.3V412h-1.1v-1.2h1.1Zm0 2.3v1.2h-1.1v-1.2h1.1Zm0 2.3v1.2h-1.1v-1.2h1.1Zm0 2.3v1.1h-1.1v-1.1h1.1Zm0 2.3v1.1h-1.1V420h1.1Zm0 2.3v1.1h-1.1v-1.1h1.1Zm0 2.3v1.1h-1.1v-1.1h1.1Zm0 2.3V428h-1.1v-1.1h1.1Zm0 2.3v1.1h-1.1v-1.1h1.1Zm0 2.2v1.2h-1.1v-1.2h1.1Zm0 2.3v1.2h-1.1v-1.2h1.1Zm0 2.3v1.2h-1.1V436h1.1Zm0 2.3v1.2h-1.1v-1.2h1.1Zm0 2.3v.7h-1.6v-1.1h1.1v.5h-.6v-.1h1.1Zm-2.7 .7h-1.1v-1.1h1.1v1.1Zm-2.3 0h-1.1v-1.1h1.1v1.1Zm-2.3 0h-1.1v-1.1h1.1v1.1Zm-2.3 0h-1.1v-1.1h1.1v1.1Zm-2.3 0h-1.1v-1.1h1.1v1.1Zm-2.3 0h-1.1v-1.1H232v1.1Zm-2.2 0h-1.2v-1.1h1.2v1.1Zm-2.3 0h-1.2v-1.1h1.2v1.1Zm-2.3 0H224v-1.1h1.2v1.1Zm-2.3 0h-1.2v-1.1h1.2v1.1Zm-2.3 0h-1.2v-1.1h1.2v1.1Zm-2.3 0h-1.2v-1.1h1.2v1.1Zm-2.3 0h-1.1v-1.1H216v1.1Zm-2.3 0h-1.1v-1.1h1.1v1.1Zm-2.3 0h-1.1v-1.1h1.1v1.1Zm-2.3 0H208v-1.1h1.1v1.1Zm-2.3 0h-1.1v-1.1h1.1v1.1Zm-2.3 0h-1.1v-1.1h1.1v1.1Zm-2.2 0h-1.2v-1.1h1.2v1.1Zm-2.3 0h-1.2v-1.1H200v1.1Zm-2.3 0h-1.2v-1.1h1.2v1.1Zm-2.3 0h-1.2v-1.1h1.2v1.1Zm-2.3 0h-1.2v-1.1h1.2v1.1Zm-2.3 0h-1.2v-1.1h1.2v1.1Zm-2.3 0h-.7v-1.6h1.1v1h-.5v-.5h.1v1.1Zm-.7 -2.7v-1.2h1.1v1.2h-1.1Zm0 -2.3v-1.2h1.1v1.2h-1.1Zm0 -2.3v-1.2h1.1V434h-1.1Zm0 -2.3v-1.1h1.1v1.1h-1.1Zm0 -2.3v-1.1h1.1v1.1h-1.1Zm0 -2.3V426h1.1v1.1h-1.1Zm0 -2.3v-1.1h1.1v1.1h-1.1Zm0 -2.3v-1.1h1.1v1.1h-1.1Zm0 -2.3v-1.1h1.1v1.1h-1.1Zm0 -2.3v-1.1h1.1v1.1h-1.1Zm0 -2.2v-1.2h1.1v1.2h-1.1Zm0 -2.3v-1.2h1.1v1.2h-1.1Zm0 -2.3v-1.2h1.1v1.2h-1.1Zm0 -2.3v-1.2h1.1v1.2h-1.1Zm0 -2.3v-1.2h1.1v1.2h-1.1Zm0 -2.3v-1.1h1.1v1.1h-1.1Zm0 -2.3v-1.1h1.1v1.1h-1.1Zm0 -2.3v-1.1h1.1v1.1h-1.1Zm0 -2.3v-1.1h1.1v1.1h-1.1Zm0 -2.3v-1.1h1.1V395h-1.1Zm0 -2.3v-1.1h1.1v1.1h-1.1Zm0 -2.3v-1.1h1.1v1.1h-1.1Zm0 -2.2V387h1.1v1.2h-1.1Zm0 -2.3v-1.2h1.1v1.2h-1.1Zm0 -2.3v-1.2h1.1v1.2h-1.1Zm0 -2.3v-1.2h1.1v1.2h-1.1Zm0 -2.3v-1.2h1.1V379h-1.1Zm0 -2.3v-1.1h1.1v1.1h-1.1Zm0 -2.3v-1.1h1.1v1.1h-1.1Zm0 -2.3V371h1.1v1.1h-1.1Zm0 -2.3v-1.1h1.1v1.1h-1.1Zm0 -2.3v-1.1h1.1v1.1h-1.1Zm0 -2.3v-1.1h1.1v1.1h-1.1Zm0 -2.3v-1.1h1.1v1.1h-1.1Zm0 -2.2v-1.2h1.1v1.2h-1.1Zm0 -2.3v-1.2h1.1v1.2h-1.1Zm0 -2.3v-1.2h1.1v1.2h-1.1Zm0 -2.3v-1.2h1.1v1.2h-1.1Zm0 -2.3v-1.2h1.1v1.2h-1.1Zm0 -2.3v-1.1h1.1v1.1h-1.1Zm0 -2.3v-1.1h1.1v1.1h-1.1Zm0 -2.3v-1.1h1.1v1.1h-1.1Zm0 -2.3v-1.1h1.1v1.1h-1.1Zm0 -2.3v-1.1h1.1V340h-1.1Zm0 -2.3v-1.1h1.1v1.1h-1.1Zm0 -2.3v-1.1h1.1v1.1h-1.1Zm0 -2.2V332h1.1v1.2h-1.1Zm0 -2.3v-1.2h1.1v1.2h-1.1Zm0 -2.3v-1.2h1.1v1.2h-1.1Zm0 -2.3v-1.2h1.1v1.2h-1.1Zm0 -2.3v-1.2h1.1V324h-1.1Zm0 -2.3v-1.1h1.1v1.1h-1.1Zm0 -2.3v-1.1h1.1v1.1h-1.1Zm0 -2.3V316h1.1v1.1h-1.1Zm0 -2.3v-1.1h1.1v1.1h-1.1Zm0 -2.3v-1.1h1.1v1.1h-1.1Zm0 -2.3v-1.1h1.1v1.1h-1.1Zm0 -2.3v-1.1h1.1v1.1h-1.1Zm0 -2.2v-.9h1.7V306h-1.1v-.6h.5v.3h-1.1Z" class="g1_94"/>
<path d="M199.8 310.7h34.6c.5 0 .9 0 1.3 .2c.5 .2 .8 .4 1.2 .8c.3 .3 .5 .7 .7 1.1c.2 .4 .3 .8 .3 1.3v16c0 .5 -.1 .9 -.3 1.3c-.2 .5 -.4 .8 -.7 1.2c-.4 .3 -.7 .5 -1.2 .7c-.4 .2 -.8 .3 -1.3 .3H199.8c-.5 0 -.9 -.1 -1.3 -.3c-.4 -.2 -.8 -.4 -1.1 -.7c-.4 -.4 -.6 -.7 -.8 -1.2c-.2 -.4 -.2 -.8 -.2 -1.3v-16c0 -.5 0 -.9 .2 -1.3c.2 -.4 .4 -.8 .8 -1.1c.3 -.4 .7 -.6 1.1 -.8c.4 -.2 .8 -.2 1.3 -.2Zm0 33.7h34.6c.5 0 .9 .1 1.3 .2c.5 .2 .8 .4 1.2 .8c.3 .3 .5 .7 .7 1.1c.2 .4 .3 .8 .3 1.3v16c0 .5 -.1 .9 -.3 1.4c-.2 .4 -.4 .8 -.7 1.1c-.4 .3 -.7 .5 -1.2 .7c-.4 .2 -.8 .3 -1.3 .3H199.8c-.5 0 -.9 -.1 -1.3 -.3c-.4 -.2 -.8 -.4 -1.1 -.7c-.4 -.3 -.6 -.7 -.8 -1.1c-.2 -.5 -.2 -.9 -.2 -1.4v-16c0 -.5 0 -.9 .2 -1.3c.2 -.4 .4 -.8 .8 -1.1c.3 -.4 .7 -.6 1.1 -.8c.4 -.1 .8 -.2 1.3 -.2Zm0 34.3h34.6c.5 0 .9 .1 1.3 .3c.5 .2 .8 .4 1.2 .7c.3 .4 .5 .7 .7 1.2c.2 .4 .3 .8 .3 1.3v16c0 .5 -.1 .9 -.3 1.3c-.2 .5 -.4 .8 -.7 1.1c-.4 .4 -.7 .6 -1.2 .8c-.4 .2 -.8 .3 -1.3 .3H199.8c-.5 0 -.9 -.1 -1.3 -.3c-.4 -.2 -.8 -.4 -1.1 -.8c-.4 -.3 -.6 -.6 -.8 -1.1c-.2 -.4 -.2 -.8 -.2 -1.3v-16c0 -.5 0 -.9 .2 -1.3c.2 -.5 .4 -.8 .8 -1.2c.3 -.3 .7 -.5 1.1 -.7c.4 -.2 .8 -.3 1.3 -.3Zm0 34.4h34.6c.5 0 .9 .1 1.3 .3c.5 .2 .8 .4 1.2 .7c.3 .3 .5 .7 .7 1.1c.2 .5 .3 .9 .3 1.4v16c0 .4 -.1 .9 -.3 1.3c-.2 .4 -.4 .8 -.7 1.1c-.4 .3 -.7 .6 -1.2 .8c-.4 .1 -.8 .2 -1.3 .2H199.8c-.5 0 -.9 -.1 -1.3 -.2c-.4 -.2 -.8 -.5 -1.1 -.8c-.4 -.3 -.6 -.7 -.8 -1.1c-.2 -.4 -.2 -.9 -.2 -1.3v-16c0 -.5 0 -.9 .2 -1.4c.2 -.4 .4 -.8 .8 -1.1c.3 -.3 .7 -.5 1.1 -.7c.4 -.2 .8 -.3 1.3 -.3ZM259.9 312.9h31.4c.4 0 .8 0 1.1 .2c.3 .1 .6 .3 .9 .6c.3 .2 .5 .5 .6 .9c.1 .3 .2 .7 .2 1v13c0 .4 -.1 .7 -.2 1c-.1 .4 -.3 .7 -.6 .9c-.3 .3 -.6 .5 -.9 .6c-.3 .2 -.7 .3 -1.1 .3H259.9c-.4 0 -.7 -.1 -1.1 -.3c-.3 -.1 -.6 -.3 -.9 -.6c-.2 -.2 -.4 -.5 -.6 -.9c-.1 -.3 -.2 -.6 -.2 -1v-13c0 -.3 .1 -.7 .2 -1c.2 -.4 .4 -.7 .6 -.9c.3 -.3 .6 -.5 .9 -.6c.4 -.2 .7 -.2 1.1 -.2Zm45.8 0h31.5c.3 0 .7 0 1 .2c.4 .1 .7 .3 .9 .6c.3 .2 .5 .5 .6 .9c.2 .3 .2 .7 .2 1v13c0 .4 0 .7 -.2 1c-.1 .4 -.3 .7 -.6 .9c-.2 .3 -.5 .5 -.9 .6c-.3 .2 -.7 .3 -1 .3H305.7c-.3 0 -.7 -.1 -1 -.3c-.4 -.1 -.7 -.3 -.9 -.6c-.3 -.2 -.5 -.5 -.6 -.9c-.2 -.3 -.2 -.6 -.2 -1v-13c0 -.3 0 -.7 .2 -1c.1 -.4 .3 -.7 .6 -.9c.2 -.3 .5 -.5 .9 -.6c.3 -.2 .7 -.2 1 -.2Zm-52.8 256h31.4c.4 0 .7 .1 1.1 .3c.3 .1 .6 .3 .9 .6c.2 .2 .4 .5 .6 .9c.1 .3 .2 .7 .2 1v13c0 .3 -.1 .7 -.2 1c-.2 .4 -.4 .7 -.6 .9c-.3 .3 -.6 .5 -.9 .6c-.4 .2 -.7 .2 -1.1 .2H252.9c-.4 0 -.8 0 -1.1 -.2c-.3 -.1 -.6 -.3 -.9 -.6c-.3 -.2 -.5 -.5 -.6 -.9c-.1 -.3 -.2 -.7 -.2 -1v-13c0 -.3 .1 -.7 .2 -1c.1 -.4 .3 -.7 .6 -.9c.3 -.3 .6 -.5 .9 -.6c.3 -.2 .7 -.3 1.1 -.3Zm7 -222.3h31.4c.4 0 .8 0 1.1 .2c.3 .1 .6 .3 .9 .6c.3 .2 .5 .5 .6 .9c.1 .3 .2 .7 .2 1v13c0 .4 -.1 .7 -.2 1.1c-.1 .3 -.3 .6 -.6 .9c-.3 .2 -.6 .4 -.9 .6c-.3 .1 -.7 .2 -1.1 .2H259.9c-.4 0 -.7 -.1 -1.1 -.2c-.3 -.2 -.6 -.4 -.9 -.6c-.2 -.3 -.4 -.6 -.6 -.9c-.1 -.4 -.2 -.7 -.2 -1.1v-13c0 -.3 .1 -.7 .2 -1c.2 -.4 .4 -.7 .6 -.9c.3 -.3 .6 -.5 .9 -.6c.4 -.2 .7 -.2 1.1 -.2Zm45.8 0h31.5c.3 0 .7 0 1 .2c.4 .1 .7 .3 .9 .6c.3 .2 .5 .5 .6 .9c.2 .3 .2 .7 .2 1v13c0 .4 0 .7 -.2 1.1c-.1 .3 -.3 .6 -.6 .9c-.2 .2 -.5 .4 -.9 .6c-.3 .1 -.7 .2 -1 .2H305.7c-.3 0 -.7 -.1 -1 -.2c-.4 -.2 -.7 -.4 -.9 -.6c-.3 -.3 -.5 -.6 -.6 -.9c-.2 -.4 -.2 -.7 -.2 -1.1v-13c0 -.3 0 -.7 .2 -1c.1 -.4 .3 -.7 .6 -.9c.2 -.3 .5 -.5 .9 -.6c.3 -.2 .7 -.2 1 -.2Zm45.9 0H383c.4 0 .7 0 1.1 .2c.3 .1 .6 .3 .9 .6c.2 .2 .4 .5 .6 .9c.1 .3 .2 .7 .2 1v13c0 .4 -.1 .7 -.2 1.1c-.2 .3 -.4 .6 -.6 .9c-.3 .2 -.6 .4 -.9 .6c-.4 .1 -.7 .2 -1.1 .2H351.6c-.4 0 -.8 -.1 -1.1 -.2c-.3 -.2 -.6 -.4 -.9 -.6c-.3 -.3 -.5 -.6 -.6 -.9c-.1 -.4 -.2 -.7 -.2 -1.1v-13c0 -.3 .1 -.7 .2 -1c.1 -.4 .3 -.7 .6 -.9c.3 -.3 .6 -.5 .9 -.6c.3 -.2 .7 -.2 1.1 -.2ZM259.9 381h31.4c.4 0 .8 0 1.1 .2c.3 .1 .6 .3 .9 .6c.3 .2 .5 .5 .6 .9c.1 .3 .2 .7 .2 1v13c0 .3 -.1 .7 -.2 1c-.1 .4 -.3 .7 -.6 .9c-.3 .3 -.6 .5 -.9 .6c-.3 .2 -.7 .2 -1.1 .2H259.9c-.4 0 -.7 0 -1.1 -.2c-.3 -.1 -.6 -.3 -.9 -.6c-.2 -.2 -.4 -.5 -.6 -.9c-.1 -.3 -.2 -.7 -.2 -1v-13c0 -.3 .1 -.7 .2 -1c.2 -.4 .4 -.7 .6 -.9c.3 -.3 .6 -.5 .9 -.6c.4 -.2 .7 -.2 1.1 -.2Zm45.8 0h31.5c.3 0 .7 0 1 .2c.4 .1 .7 .3 .9 .6c.3 .2 .5 .5 .6 .9c.2 .3 .2 .7 .2 1v13c0 .3 0 .7 -.2 1c-.1 .4 -.3 .7 -.6 .9c-.2 .3 -.5 .5 -.9 .6c-.3 .2 -.7 .2 -1 .2H305.7c-.3 0 -.7 0 -1 -.2c-.4 -.1 -.7 -.3 -.9 -.6c-.3 -.2 -.5 -.5 -.6 -.9c-.2 -.3 -.2 -.7 -.2 -1v-13c0 -.3 0 -.7 .2 -1c.1 -.4 .3 -.7 .6 -.9c.2 -.3 .5 -.5 .9 -.6c.3 -.2 .7 -.2 1 -.2Zm45.9 0H383c.4 0 .7 0 1.1 .2c.3 .1 .6 .3 .9 .6c.2 .2 .4 .5 .6 .9c.1 .3 .2 .7 .2 1v13c0 .3 -.1 .7 -.2 1c-.2 .4 -.4 .7 -.6 .9c-.3 .3 -.6 .5 -.9 .6c-.4 .2 -.7 .2 -1.1 .2H351.6c-.4 0 -.8 0 -1.1 -.2c-.3 -.1 -.6 -.3 -.9 -.6c-.3 -.2 -.5 -.5 -.6 -.9c-.1 -.3 -.2 -.7 -.2 -1v-13c0 -.3 .1 -.7 .2 -1c.1 -.4 .3 -.7 .6 -.9c.3 -.3 .6 -.5 .9 -.6c.3 -.2 .7 -.2 1.1 -.2Zm-91.7 34.3h31.4c.4 0 .8 .1 1.1 .2c.3 .2 .6 .4 .9 .6c.3 .3 .5 .6 .6 .9c.1 .4 .2 .7 .2 1.1V431c0 .4 -.1 .8 -.2 1.1c-.1 .3 -.3 .6 -.6 .9c-.3 .3 -.6 .5 -.9 .6c-.3 .1 -.7 .2 -1.1 .2H259.9c-.4 0 -.7 -.1 -1.1 -.2c-.3 -.1 -.6 -.3 -.9 -.6c-.2 -.3 -.4 -.6 -.6 -.9c-.1 -.3 -.2 -.7 -.2 -1.1V418.1c0 -.4 .1 -.7 .2 -1.1c.2 -.3 .4 -.6 .6 -.9c.3 -.2 .6 -.4 .9 -.6c.4 -.1 .7 -.2 1.1 -.2Zm45.8 0h31.5c.3 0 .7 .1 1 .2c.4 .2 .7 .4 .9 .6c.3 .3 .5 .6 .6 .9c.2 .4 .2 .7 .2 1.1V431c0 .4 0 .8 -.2 1.1c-.1 .3 -.3 .6 -.6 .9c-.2 .3 -.5 .5 -.9 .6c-.3 .1 -.7 .2 -1 .2H305.7c-.3 0 -.7 -.1 -1 -.2c-.4 -.1 -.7 -.3 -.9 -.6c-.3 -.3 -.5 -.6 -.6 -.9c-.2 -.3 -.2 -.7 -.2 -1.1V418.1c0 -.4 0 -.7 .2 -1.1c.1 -.3 .3 -.6 .6 -.9c.2 -.2 .5 -.4 .9 -.6c.3 -.1 .7 -.2 1 -.2ZM398.5 381H430c.4 0 .7 0 1 .2c.4 .1 .7 .3 .9 .6c.3 .2 .5 .5 .6 .9c.2 .3 .3 .7 .3 1v13c0 .3 -.1 .7 -.3 1c-.1 .4 -.3 .7 -.6 .9c-.2 .3 -.5 .5 -.9 .6c-.3 .2 -.6 .2 -1 .2H398.5c-.3 0 -.7 0 -1 -.2c-.4 -.1 -.7 -.3 -.9 -.6c-.3 -.2 -.5 -.5 -.6 -.9c-.2 -.3 -.2 -.7 -.2 -1v-13c0 -.3 0 -.7 .2 -1c.1 -.4 .3 -.7 .6 -.9c.2 -.3 .5 -.5 .9 -.6c.3 -.2 .7 -.2 1 -.2Zm45.9 0h31.4c.4 0 .7 0 1.1 .2c.3 .1 .6 .3 .9 .6c.2 .2 .4 .5 .6 .9c.1 .3 .2 .7 .2 1v13c0 .3 -.1 .7 -.2 1c-.2 .4 -.4 .7 -.6 .9c-.3 .3 -.6 .5 -.9 .6c-.4 .2 -.7 .2 -1.1 .2H444.4c-.4 0 -.7 0 -1.1 -.2c-.3 -.1 -.6 -.3 -.9 -.6c-.2 -.2 -.4 -.5 -.6 -.9c-.1 -.3 -.2 -.7 -.2 -1v-13c0 -.3 .1 -.7 .2 -1c.2 -.4 .4 -.7 .6 -.9c.3 -.3 .6 -.5 .9 -.6c.4 -.2 .7 -.2 1.1 -.2Zm45.8 0h31.5c.3 0 .7 0 1 .2c.4 .1 .7 .3 .9 .6c.3 .2 .5 .5 .6 .9c.2 .3 .2 .7 .2 1v13c0 .3 0 .7 -.2 1c-.1 .4 -.3 .7 -.6 .9c-.2 .3 -.5 .5 -.9 .6c-.3 .2 -.7 .2 -1 .2H490.2c-.4 0 -.7 0 -1.1 -.2c-.3 -.1 -.6 -.3 -.9 -.6c-.2 -.2 -.4 -.5 -.6 -.9c-.1 -.3 -.2 -.7 -.2 -1v-13c0 -.3 .1 -.7 .2 -1c.2 -.4 .4 -.7 .6 -.9c.3 -.3 .6 -.5 .9 -.6c.4 -.2 .7 -.2 1.1 -.2ZM188.4 520.8h57.3v91.7H188.4V520.8Zm114.6 0h57.3v91.7H303V520.8Zm57.3 0h57.2v91.7H360.3V520.8Zm57.2 0h57.3v91.7H417.5V520.8Zm57.3 0h57.3v91.7H474.8V520.8Zm114.6 0h57.3v91.7H589.4V520.8Zm-336.5 4.6h31.4c.4 0 .7 .1 1.1 .2c.3 .2 .6 .4 .9 .6c.2 .3 .4 .6 .6 .9c.1 .4 .2 .7 .2 1.1v12.9c0 .4 -.1 .7 -.2 1.1c-.2 .3 -.4 .6 -.6 .9c-.3 .2 -.6 .4 -.9 .6c-.4 .1 -.7 .2 -1.1 .2H252.9c-.4 0 -.8 -.1 -1.1 -.2c-.3 -.2 -.6 -.4 -.9 -.6c-.3 -.3 -.5 -.6 -.6 -.9c-.1 -.4 -.2 -.7 -.2 -1.1V528.2c0 -.4 .1 -.7 .2 -1.1c.1 -.3 .3 -.6 .6 -.9c.3 -.2 .6 -.4 .9 -.6c.3 -.1 .7 -.2 1.1 -.2Zm0 21.8h31.4c.4 0 .7 0 1.1 .2c.3 .1 .6 .3 .9 .6c.2 .2 .4 .5 .6 .9c.1 .3 .2 .7 .2 1v13c0 .4 -.1 .7 -.2 1.1c-.2 .3 -.4 .6 -.6 .9c-.3 .2 -.6 .4 -.9 .6c-.4 .1 -.7 .2 -1.1 .2H252.9c-.4 0 -.8 -.1 -1.1 -.2c-.3 -.2 -.6 -.4 -.9 -.6c-.3 -.3 -.5 -.6 -.6 -.9c-.1 -.4 -.2 -.7 -.2 -1.1v-13c0 -.3 .1 -.7 .2 -1c.1 -.4 .3 -.7 .6 -.9c.3 -.3 .6 -.5 .9 -.6c.3 -.2 .7 -.2 1.1 -.2ZM351.6 312.9H383c.4 0 .7 0 1.1 .2c.3 .1 .6 .3 .9 .6c.2 .2 .4 .5 .6 .9c.1 .3 .2 .7 .2 1v13c0 .4 -.1 .7 -.2 1c-.2 .4 -.4 .7 -.6 .9c-.3 .3 -.6 .5 -.9 .6c-.4 .2 -.7 .3 -1.1 .3H351.6c-.4 0 -.8 -.1 -1.1 -.3c-.3 -.1 -.6 -.3 -.9 -.6c-.3 -.2 -.5 -.5 -.6 -.9c-.1 -.3 -.2 -.6 -.2 -1v-13c0 -.3 .1 -.7 .2 -1c.1 -.4 .3 -.7 .6 -.9c.3 -.3 .6 -.5 .9 -.6c.3 -.2 .7 -.2 1.1 -.2ZM310.2 525.4h31.4c.4 0 .7 .1 1.1 .2c.3 .2 .6 .4 .9 .6c.2 .3 .4 .6 .6 .9c.1 .4 .2 .7 .2 1.1v12.9c0 .4 -.1 .7 -.2 1.1c-.2 .3 -.4 .6 -.6 .9c-.3 .2 -.6 .4 -.9 .6c-.4 .1 -.7 .2 -1.1 .2H310.2c-.4 0 -.8 -.1 -1.1 -.2c-.3 -.2 -.6 -.4 -.9 -.6c-.3 -.3 -.5 -.6 -.6 -.9c-.1 -.4 -.2 -.7 -.2 -1.1V528.2c0 -.4 .1 -.7 .2 -1.1c.1 -.3 .3 -.6 .6 -.9c.3 -.2 .6 -.4 .9 -.6c.3 -.1 .7 -.2 1.1 -.2Zm0 21.8h31.4c.4 0 .7 0 1.1 .2c.3 .1 .6 .3 .9 .6c.2 .2 .4 .5 .6 .9c.1 .3 .2 .7 .2 1v13c0 .4 -.1 .7 -.2 1.1c-.2 .3 -.4 .6 -.6 .9c-.3 .2 -.6 .4 -.9 .6c-.4 .1 -.7 .2 -1.1 .2H310.2c-.4 0 -.8 -.1 -1.1 -.2c-.3 -.2 -.6 -.4 -.9 -.6c-.3 -.3 -.5 -.6 -.6 -.9c-.1 -.4 -.2 -.7 -.2 -1.1v-13c0 -.3 .1 -.7 .2 -1c.1 -.4 .3 -.7 .6 -.9c.3 -.3 .6 -.5 .9 -.6c.3 -.2 .7 -.2 1.1 -.2Zm0 21.7h31.4c.4 0 .7 .1 1.1 .3c.3 .1 .6 .3 .9 .6c.2 .2 .4 .5 .6 .9c.1 .3 .2 .7 .2 1v13c0 .3 -.1 .7 -.2 1c-.2 .4 -.4 .7 -.6 .9c-.3 .3 -.6 .5 -.9 .6c-.4 .2 -.7 .2 -1.1 .2H310.2c-.4 0 -.8 0 -1.1 -.2c-.3 -.1 -.6 -.3 -.9 -.6c-.3 -.2 -.5 -.5 -.6 -.9c-.1 -.3 -.2 -.7 -.2 -1v-13c0 -.3 .1 -.7 .2 -1c.1 -.4 .3 -.7 .6 -.9c.3 -.3 .6 -.5 .9 -.6c.3 -.2 .7 -.3 1.1 -.3Zm57.2 -43.5h31.5c.4 0 .7 .1 1 .2c.4 .2 .7 .4 .9 .6c.3 .3 .5 .6 .6 .9c.2 .4 .3 .7 .3 1.1v12.9c0 .4 -.1 .7 -.3 1.1c-.1 .3 -.3 .6 -.6 .9c-.2 .2 -.5 .4 -.9 .6c-.3 .1 -.6 .2 -1 .2H367.4c-.3 0 -.7 -.1 -1 -.2c-.4 -.2 -.7 -.4 -.9 -.6c-.3 -.3 -.5 -.6 -.6 -.9c-.2 -.4 -.2 -.7 -.2 -1.1V528.2c0 -.4 0 -.7 .2 -1.1c.1 -.3 .3 -.6 .6 -.9c.2 -.2 .5 -.4 .9 -.6c.3 -.1 .7 -.2 1 -.2Zm0 21.8h31.5c.4 0 .7 0 1 .2c.4 .1 .7 .3 .9 .6c.3 .2 .5 .5 .6 .9c.2 .3 .3 .7 .3 1v13c0 .4 -.1 .7 -.3 1.1c-.1 .3 -.3 .6 -.6 .9c-.2 .2 -.5 .4 -.9 .6c-.3 .1 -.6 .2 -1 .2H367.4c-.3 0 -.7 -.1 -1 -.2c-.4 -.2 -.7 -.4 -.9 -.6c-.3 -.3 -.5 -.6 -.6 -.9c-.2 -.4 -.2 -.7 -.2 -1.1v-13c0 -.3 0 -.7 .2 -1c.1 -.4 .3 -.7 .6 -.9c.2 -.3 .5 -.5 .9 -.6c.3 -.2 .7 -.2 1 -.2Zm0 21.7h31.5c.4 0 .7 .1 1 .3c.4 .1 .7 .3 .9 .6c.3 .2 .5 .5 .6 .9c.2 .3 .3 .7 .3 1v13c0 .3 -.1 .7 -.3 1c-.1 .4 -.3 .7 -.6 .9c-.2 .3 -.5 .5 -.9 .6c-.3 .2 -.6 .2 -1 .2H367.4c-.3 0 -.7 0 -1 -.2c-.4 -.1 -.7 -.3 -.9 -.6c-.3 -.2 -.5 -.5 -.6 -.9c-.2 -.3 -.2 -.7 -.2 -1v-13c0 -.3 0 -.7 .2 -1c.1 -.4 .3 -.7 .6 -.9c.2 -.3 .5 -.5 .9 -.6c.3 -.2 .7 -.3 1 -.3Zm0 22h31.5c.4 0 .7 0 1 .2c.4 .1 .7 .3 .9 .6c.3 .3 .5 .6 .6 .9c.2 .3 .3 .7 .3 1.1v12.9c0 .4 -.1 .7 -.3 1.1c-.1 .3 -.3 .6 -.6 .9c-.2 .2 -.5 .4 -.9 .6c-.3 .1 -.6 .2 -1 .2H367.4c-.3 0 -.7 -.1 -1 -.2c-.4 -.2 -.7 -.4 -.9 -.6c-.3 -.3 -.5 -.6 -.6 -.9c-.2 -.4 -.2 -.7 -.2 -1.1V593.7c0 -.4 0 -.8 .2 -1.1c.1 -.3 .3 -.6 .6 -.9c.2 -.3 .5 -.5 .9 -.6c.3 -.2 .7 -.2 1 -.2Zm57.3 -65.5h31.5c.3 0 .7 .1 1 .2c.4 .2 .7 .4 .9 .6c.3 .3 .5 .6 .6 .9c.2 .4 .3 .7 .3 1.1v12.9c0 .4 -.1 .7 -.3 1.1c-.1 .3 -.3 .6 -.6 .9c-.2 .2 -.5 .4 -.9 .6c-.3 .1 -.7 .2 -1 .2H424.7c-.3 0 -.7 -.1 -1 -.2c-.4 -.2 -.7 -.4 -.9 -.6c-.3 -.3 -.5 -.6 -.6 -.9c-.2 -.4 -.2 -.7 -.2 -1.1V528.2c0 -.4 0 -.7 .2 -1.1c.1 -.3 .3 -.6 .6 -.9c.2 -.2 .5 -.4 .9 -.6c.3 -.1 .7 -.2 1 -.2Zm0 21.8h31.5c.3 0 .7 0 1 .2c.4 .1 .7 .3 .9 .6c.3 .2 .5 .5 .6 .9c.2 .3 .3 .7 .3 1v13c0 .4 -.1 .7 -.3 1.1c-.1 .3 -.3 .6 -.6 .9c-.2 .2 -.5 .4 -.9 .6c-.3 .1 -.7 .2 -1 .2H424.7c-.3 0 -.7 -.1 -1 -.2c-.4 -.2 -.7 -.4 -.9 -.6c-.3 -.3 -.5 -.6 -.6 -.9c-.2 -.4 -.2 -.7 -.2 -1.1v-13c0 -.3 0 -.7 .2 -1c.1 -.4 .3 -.7 .6 -.9c.2 -.3 .5 -.5 .9 -.6c.3 -.2 .7 -.2 1 -.2ZM482 525.4h31.5c.3 0 .7 .1 1 .2c.4 .2 .7 .4 .9 .6c.3 .3 .5 .6 .6 .9c.2 .4 .2 .7 .2 1.1v12.9c0 .4 0 .7 -.2 1.1c-.1 .3 -.3 .6 -.6 .9c-.2 .2 -.5 .4 -.9 .6c-.3 .1 -.7 .2 -1 .2H482c-.3 0 -.7 -.1 -1 -.2c-.4 -.2 -.7 -.4 -.9 -.6c-.3 -.3 -.5 -.6 -.6 -.9c-.2 -.4 -.2 -.7 -.2 -1.1V528.2c0 -.4 0 -.7 .2 -1.1c.1 -.3 .3 -.6 .6 -.9c.2 -.2 .5 -.4 .9 -.6c.3 -.1 .7 -.2 1 -.2Zm0 21.8h31.5c.3 0 .7 0 1 .2c.4 .1 .7 .3 .9 .6c.3 .2 .5 .5 .6 .9c.2 .3 .2 .7 .2 1v13c0 .4 0 .7 -.2 1.1c-.1 .3 -.3 .6 -.6 .9c-.2 .2 -.5 .4 -.9 .6c-.3 .1 -.7 .2 -1 .2H482c-.3 0 -.7 -.1 -1 -.2c-.4 -.2 -.7 -.4 -.9 -.6c-.3 -.3 -.5 -.6 -.6 -.9c-.2 -.4 -.2 -.7 -.2 -1.1v-13c0 -.3 0 -.7 .2 -1c.1 -.4 .3 -.7 .6 -.9c.2 -.3 .5 -.5 .9 -.6c.3 -.2 .7 -.2 1 -.2Z" class="g2_94"/>
<path d="M217.6 440.7v3.5h-1.2v-3.5m1.2 6.9v3.5h-1.2v-3.5m1.2 6.9v3.4h-1.2v-3.4m1.2 6.9v3.4h-1.2v-3.4m1.2 6.8v3.5h-1.2v-3.5m1.2 6.9v3.5h-1.2v-3.5m1.2 6.9v3.4h-1.2V482m1.2 6.9v3.4h-1.2v-3.4m1.2 6.8v3.5h-1.2v-3.5m1.2 6.9v3.5h-1.2v-3.5m1.2 6.9v3.4h-1.2v-3.4Z" class="g1_94"/>
<path d="M217 519.5l-2.6 -8l2.6 2l2.7 -2l-2.7 8Z" class="g1_94"/>
<path d="M217 519.5l-2.6 -8l2.6 2l2.7 -2l-2.7 8Z" class="g2_94"/>
<path d="M257.2 339.7h1.2v1.1h-1.2v-1.1Zm2.3 0h1.1v1.1h-1.1v-1.1Zm2.3 0h1.1v1.1h-1.1v-1.1Zm2.3 0h1.1v1.1h-1.1v-1.1Zm2.3 0h1.1v1.1h-1.1v-1.1Zm2.3 0h1.1v1.1h-1.1v-1.1Zm2.3 0h1.1v1.1H271v-1.1Zm2.2 0h1.2v1.1h-1.2v-1.1Zm2.3 0h1.2v1.1h-1.2v-1.1Zm2.3 0H279v1.1h-1.2v-1.1Zm2.3 0h1.2v1.1h-1.2v-1.1Zm2.3 0h1.2v1.1h-1.2v-1.1Zm2.3 0h1.2v1.1h-1.2v-1.1Zm2.3 0h1.1v1.1H287v-1.1Zm2.3 0h1.1v1.1h-1.1v-1.1Zm2.3 0h1.1v1.1h-1.1v-1.1Zm2.3 0H295v1.1h-1.1v-1.1Zm2.3 0h1.1v1.1h-1.1v-1.1Zm2.3 0h1.1v1.1h-1.1v-1.1Zm2.2 0h1.2v1.1h-1.2v-1.1Zm2.3 0h1.2v1.1H303v-1.1Zm2.3 0h1.2v1.1h-1.2v-1.1Zm2.3 0h1.2v1.1h-1.2v-1.1Zm2.3 0h1.2v1.1h-1.2v-1.1Zm2.3 0h1.2v1.1h-1.2v-1.1Zm2.3 0h1.1v1.1h-1.1v-1.1Zm2.3 0h1.1v1.1h-1.1v-1.1Zm2.3 0h1.1v1.1h-1.1v-1.1Zm2.3 0h1.1v1.1h-1.1v-1.1Zm2.3 0h1.1v1.1h-1.1v-1.1Zm2.3 0h1.1v1.1H326v-1.1Zm2.2 0h1.2v1.1h-1.2v-1.1Zm2.3 0h1.2v1.1h-1.2v-1.1Zm2.3 0H334v1.1h-1.2v-1.1Zm2.3 0h1.2v1.1h-1.2v-1.1Zm2.3 0h1.2v1.1h-1.2v-1.1Zm2.3 0h1.2v1.1h-1.2v-1.1Zm2.3 0h1.1v1.1H342v-1.1Zm2.3 0h1.1v1.1h-1.1v-1.1Zm2.3 0h1.1v1.1h-1.1v-1.1Zm2.3 0H350v1.1h-1.1v-1.1Zm2.3 0h1.1v1.1h-1.1v-1.1Zm2.3 0h1.1v1.1h-1.1v-1.1Zm2.2 0h1.2v1.1h-1.2v-1.1Zm2.3 0h1.2v1.1H358v-1.1Zm2.3 0h1.2v1.1h-1.2v-1.1Zm2.3 0h1.2v1.1h-1.2v-1.1Zm2.3 0h1.2v1.1h-1.2v-1.1Zm2.3 0h1.2v1.1h-1.2v-1.1Zm2.3 0h1.1v1.1h-1.1v-1.1Zm2.3 0h1.1v1.1h-1.1v-1.1Zm2.3 0h1.1v1.1h-1.1v-1.1Zm2.3 0h1.1v1.1h-1.1v-1.1Zm2.3 0h1.1v1.1h-1.1v-1.1Zm2.3 0h1.1v1.1H381v-1.1Zm2.2 0h1.2v1.1h-1.2v-1.1Zm2.3 0h1.2v1.1h-1.2v-1.1Zm2.3 0H389v1.1h-1.2v-1.1Zm2.3 0h1.2v1.1h-1.2v-1.1Zm2.3 0h1.2v1.1h-1.2v-1.1Zm2.3 0h1.2v1.1h-1.2v-1.1Zm2.3 0h1.1v1.1H397v-1.1Zm2.3 0h1.1v1.1h-1.1v-1.1Zm2.3 0h1.1v1.1h-1.1v-1.1Zm2.3 0H405v1.1h-1.1v-1.1Zm2.3 0h1.1v1.1h-1.1v-1.1Zm2.3 0h1.1v1.1h-1.1v-1.1Zm2.2 0h1.2v1.1h-1.2v-1.1Zm2.3 0h1.2v1.1H413v-1.1Zm2.3 0h1.2v1.1h-1.2v-1.1Zm2.3 0h1.2v1.1h-1.2v-1.1Zm2.3 0h1.2v1.1h-1.2v-1.1Zm2.3 0h1.2v1.1h-1.2v-1.1Zm2.3 0h1.1v1.1h-1.1v-1.1Zm2.3 0h1.1v1.1h-1.1v-1.1Zm2.3 0h1.1v1.1h-1.1v-1.1Zm2.3 0h1.1v1.1h-1.1v-1.1Zm2.3 0h1.1v1.1h-1.1v-1.1Zm2.3 0h1.1v1.1H436v-1.1Zm2.2 0h1.2v1.1h-1.2v-1.1Zm2.3 0h1.2v1.1h-1.2v-1.1Zm2.3 0H444v1.1h-1.2v-1.1Zm2.3 0h1.2v1.1h-1.2v-1.1Zm2.3 0h1.2v1.1h-1.2v-1.1Zm2.3 0h1.2v1.1h-1.2v-1.1Zm2.3 0h1.1v1.1H452v-1.1Zm2.3 0h1.1v1.1h-1.1v-1.1Zm2.3 0h1.1v1.1h-1.1v-1.1Zm2.3 0H460v1.1h-1.1v-1.1Zm2.3 0h1.1v1.1h-1.1v-1.1Zm2.3 0h1.1v1.1h-1.1v-1.1Zm2.2 0h1.2v1.1h-1.2v-1.1Zm2.3 0h1.2v1.1H468v-1.1Zm2.3 0h1.2v1.1h-1.2v-1.1Zm2.3 0h1.2v1.1h-1.2v-1.1Zm2.3 0h1.2v1.1h-1.2v-1.1Zm2.3 0h1.2v1.1h-1.2v-1.1Zm2.3 0h1.1v1.1h-1.1v-1.1Zm2.3 0h1.1v1.1h-1.1v-1.1Zm2.3 0h1.1v1.1h-1.1v-1.1Zm2.3 0h1.1v1.1h-1.1v-1.1Zm2.3 0h1.1v1.1h-1.1v-1.1Zm2.3 0h1.1v1.1H491v-1.1Zm2.2 0h1.2v1.1h-1.2v-1.1Zm2.3 0h1.2v1.1h-1.2v-1.1Zm2.3 0H499v1.1h-1.2v-1.1Zm2.3 0h1.2v1.1h-1.2v-1.1Zm2.3 0h1.2v1.1h-1.2v-1.1Zm2.3 0h1.2v1.1h-1.2v-1.1Zm2.3 0h1.1v1.1H507v-1.1Zm2.3 0h1.1v1.1h-1.1v-1.1Zm2.3 0h1.1v1.1h-1.1v-1.1Zm2.3 0H515v1.1h-1.1v-1.1Zm2.3 0h1.1v1.1h-1.1v-1.1Zm2.3 0h1.1v1.1h-1.1v-1.1Zm2.2 0h1.2v1.1h-1.2v-1.1Zm2.3 0h1.2v1.1H523v-1.1Zm2.3 0h1.2v1.1h-1.2v-1.1Zm2.3 0h.4c.3 0 .5 0 .8 .1l-.2 1.1c-.2 0 -.4 -.1 -.6 -.1h-.4v-1.1Zm2.5 .4c.4 .2 .8 .4 1.1 .7l-.7 .9c-.3 -.2 -.6 -.4 -.9 -.5l.5 -1.1Zm2.1 1.7c.3 .4 .5 .8 .7 1.2l-1.1 .4c-.1 -.3 -.3 -.6 -.5 -.9l.9 -.7Zm1 2.5c0 .2 0 .4 0 .6v.5h-1.1v-.5c0 -.1 0 -.3 -.1 -.5l1.2 -.1Zm0 2.3v1.1h-1.1v-1.1h1.1Zm0 2.3V350h-1.1v-1.1h1.1Zm0 2.3v1.1h-1.1v-1.1h1.1Zm0 2.3v1.1h-1.1v-1.1h1.1Zm0 2.3v1.1h-1.1v-1.1h1.1Zm0 2.2v1.2h-1.1V358h1.1Zm0 2.3v1.2h-1.1v-1.2h1.1Zm0 2.3v1.2h-1.1v-1.2h1.1Zm0 2.3v1.2h-1.1v-1.2h1.1Zm0 2.3c0 .5 -.1 .9 -.3 1.3l-1.1 -.4c.2 -.3 .2 -.6 .3 -1l1.1 .1Zm-.9 2.5c-.3 .4 -.6 .7 -.9 1l-.8 -.9c.3 -.2 .6 -.5 .8 -.8l.9 .7Zm-2.1 1.8c-.4 .2 -.8 .3 -1.2 .4l-.2 -1.2c.3 0 .6 -.1 .9 -.3l.5 1.1Zm-2.4 .5h-1.2v-1.2h1.2V372Zm-2.3 0h-1.2v-1.2h1.2V372Zm-2.3 0H522v-1.2h1.2V372Zm-2.3 0h-1.1v-1.2h1.1V372Zm-2.3 0h-1.1v-1.2h1.1V372Zm-2.3 0h-1.1v-1.2h1.1V372Zm-2.3 0h-1.1v-1.2H514V372Zm-2.3 0h-1.1v-1.2h1.1V372Zm-2.3 0h-1.1v-1.2h1.1V372Zm-2.3 0H506v-1.2h1.1V372Zm-2.2 0h-1.2v-1.2h1.2V372Zm-2.3 0h-1.2v-1.2h1.2V372Zm-2.3 0h-1.2v-1.2h1.2V372Zm-2.3 0h-1.2v-1.2H498V372Zm-2.3 0h-1.2v-1.2h1.2V372Zm-2.3 0h-1.1v-1.2h1.1V372Zm-2.3 0H490v-1.2h1.1V372Zm-2.3 0h-1.1v-1.2h1.1V372Zm-2.3 0h-1.1v-1.2h1.1V372Zm-2.3 0h-1.1v-1.2h1.1V372Zm-2.3 0h-1.1v-1.2h1.1V372Zm-2.3 0h-1.1v-1.2h1.1V372Zm-2.2 0h-1.2v-1.2h1.2V372Zm-2.3 0h-1.2v-1.2h1.2V372Zm-2.3 0h-1.2v-1.2h1.2V372Zm-2.3 0h-1.2v-1.2h1.2V372Zm-2.3 0H467v-1.2h1.2V372Zm-2.3 0h-1.1v-1.2h1.1V372Zm-2.3 0h-1.1v-1.2h1.1V372Zm-2.3 0h-1.1v-1.2h1.1V372Zm-2.3 0h-1.1v-1.2H459V372Zm-2.3 0h-1.1v-1.2h1.1V372Zm-2.3 0h-1.1v-1.2h1.1V372Zm-2.3 0H451v-1.2h1.1V372Zm-2.2 0h-1.2v-1.2h1.2V372Zm-2.3 0h-1.2v-1.2h1.2V372Zm-2.3 0h-1.2v-1.2h1.2V372Zm-2.3 0h-1.2v-1.2H443V372Zm-2.3 0h-1.2v-1.2h1.2V372Zm-2.3 0h-1.1v-1.2h1.1V372Zm-2.3 0H435v-1.2h1.1V372Zm-2.3 0h-1.1v-1.2h1.1V372Zm-2.3 0h-1.1v-1.2h1.1V372Zm-2.3 0h-1.1v-1.2h1.1V372Zm-2.3 0h-1.1v-1.2h1.1V372Zm-2.3 0h-1.1v-1.2h1.1V372Zm-2.2 0h-1.2v-1.2h1.2V372Zm-2.3 0h-1.2v-1.2h1.2V372Zm-2.3 0h-1.2v-1.2h1.2V372Zm-2.3 0h-1.2v-1.2h1.2V372Zm-2.3 0H412v-1.2h1.2V372Zm-2.3 0h-1.1v-1.2h1.1V372Zm-2.3 0h-1.1v-1.2h1.1V372Zm-2.3 0h-1.1v-1.2h1.1V372Zm-2.3 0h-1.1v-1.2H404V372Zm-2.3 0h-1.1v-1.2h1.1V372Zm-2.3 0h-1.1v-1.2h1.1V372Zm-2.3 0H396v-1.2h1.1V372Zm-2.2 0h-1.2v-1.2h1.2V372Zm-2.3 0h-1.2v-1.2h1.2V372Zm-2.3 0h-1.2v-1.2h1.2V372Zm-2.3 0h-1.2v-1.2H388V372Zm-2.3 0h-1.2v-1.2h1.2V372Zm-2.3 0h-1.1v-1.2h1.1V372Zm-2.3 0H380v-1.2h1.1V372Zm-2.3 0h-1.1v-1.2h1.1V372Zm-2.3 0h-1.1v-1.2h1.1V372Zm-2.3 0h-1.1v-1.2h1.1V372Zm-2.3 0h-1.1v-1.2h1.1V372Zm-2.3 0h-1.1v-1.2h1.1V372Zm-2.2 0h-1.2v-1.2h1.2V372Zm-2.3 0h-1.2v-1.2h1.2V372Zm-2.3 0h-1.2v-1.2h1.2V372Zm-2.3 0h-1.2v-1.2h1.2V372Zm-2.3 0H357v-1.2h1.2V372Zm-2.3 0h-1.1v-1.2h1.1V372Zm-2.3 0h-1.1v-1.2h1.1V372Zm-2.3 0h-1.1v-1.2h1.1V372Zm-2.3 0h-1.1v-1.2H349V372Zm-2.3 0h-1.1v-1.2h1.1V372Zm-2.3 0h-1.1v-1.2h1.1V372Zm-2.3 0H341v-1.2h1.1V372Zm-2.2 0h-1.2v-1.2h1.2V372Zm-2.3 0h-1.2v-1.2h1.2V372Zm-2.3 0h-1.2v-1.2h1.2V372Zm-2.3 0h-1.2v-1.2H333V372Zm-2.3 0h-1.2v-1.2h1.2V372Zm-2.3 0h-1.1v-1.2h1.1V372Zm-2.3 0H325v-1.2h1.1V372Zm-2.3 0h-1.1v-1.2h1.1V372Zm-2.3 0h-1.1v-1.2h1.1V372Zm-2.3 0h-1.1v-1.2h1.1V372Zm-2.3 0h-1.1v-1.2h1.1V372Zm-2.3 0h-1.1v-1.2h1.1V372Zm-2.2 0h-1.2v-1.2h1.2V372Zm-2.3 0h-1.2v-1.2h1.2V372Zm-2.3 0h-1.2v-1.2h1.2V372Zm-2.3 0h-1.2v-1.2h1.2V372Zm-2.3 0H302v-1.2h1.2V372Zm-2.3 0h-1.1v-1.2h1.1V372Zm-2.3 0h-1.1v-1.2h1.1V372Zm-2.3 0h-1.1v-1.2h1.1V372Zm-2.3 0h-1.1v-1.2H294V372Zm-2.3 0h-1.1v-1.2h1.1V372Zm-2.3 0h-1.1v-1.2h1.1V372Zm-2.3 0H286v-1.2h1.1V372Zm-2.2 0h-1.2v-1.2h1.2V372Zm-2.3 0h-1.2v-1.2h1.2V372Zm-2.3 0h-1.2v-1.2h1.2V372Zm-2.3 0h-1.2v-1.2H278V372Zm-2.3 0h-1.2v-1.2h1.2V372Zm-2.3 0h-1.1v-1.2h1.1V372Zm-2.3 0H270v-1.2h1.1V372Zm-2.3 0h-1.1v-1.2h1.1V372Zm-2.3 0h-1.1v-1.2h1.1V372Zm-2.3 0h-1.1v-1.2h1.1V372Zm-2.3 0h-1.1v-1.2h1.1V372Zm-2.3 0h-1.1v-1.2h1.1V372Zm-2.2 0h-1.2v-1.2h1.2V372Zm-2.3 0h-.2c-.3 0 -.7 -.1 -1.1 -.1l.3 -1.2c.3 .1 .5 .1 .8 .1h.2V372Zm-2.5 -.6c-.4 -.2 -.8 -.4 -1.1 -.7l.7 -.9c.3 .2 .6 .4 .9 .6l-.5 1Zm-2.1 -1.8c-.2 -.4 -.4 -.8 -.5 -1.2l1 -.4c.2 .4 .3 .7 .5 1l-1 .6Zm-.8 -2.4c0 -.2 0 -.3 0 -.5V366h1.1v.7c0 .1 0 .3 0 .4l-1.1 .1Zm0 -2.3v-1.2h1.1v1.2h-1.1Zm0 -2.3v-1.2h1.1v1.2h-1.1Zm0 -2.3v-1.2h1.1v1.2h-1.1Zm0 -2.3v-1.2h1.1V358h-1.1Zm0 -2.3v-1.2h1.1v1.2h-1.1Zm0 -2.3v-1.2h1.1v1.2h-1.1Zm0 -2.3V350h1.1v1.1h-1.1Zm0 -2.3v-1.1h1.1v1.1h-1.1Zm0 -2.3v-1.1h1.1v1.1h-1.1Zm0 -2.3c.1 -.4 .2 -.9 .4 -1.3l1 .5c-.1 .3 -.2 .6 -.2 .9l-1.2 -.1Zm1 -2.4c.3 -.4 .7 -.7 1 -1l.7 .9c-.3 .2 -.5 .5 -.7 .7l-1 -.6Zm2.2 -1.7c.4 -.2 .8 -.3 1.3 -.4l.1 1.2c-.3 0 -.6 .1 -1 .2l-.4 -1Zm2 -.4h1.2v1.1h-1.2v-1.1Z" class="g1_94"/>
<path d="M257.2 374.1h1.2v1.1h-1.2v-1.1Zm2.3 0h1.1v1.1h-1.1v-1.1Zm2.3 0h1.1v1.1h-1.1v-1.1Zm2.3 0h1.1v1.1h-1.1v-1.1Zm2.3 0h1.1v1.1h-1.1v-1.1Zm2.3 0h1.1v1.1h-1.1v-1.1Zm2.3 0h1.1v1.1H271v-1.1Zm2.2 0h1.2v1.1h-1.2v-1.1Zm2.3 0h1.2v1.1h-1.2v-1.1Zm2.3 0H279v1.1h-1.2v-1.1Zm2.3 0h1.2v1.1h-1.2v-1.1Zm2.3 0h1.2v1.1h-1.2v-1.1Zm2.3 0h1.2v1.1h-1.2v-1.1Zm2.3 0h1.1v1.1H287v-1.1Zm2.3 0h1.1v1.1h-1.1v-1.1Zm2.3 0h1.1v1.1h-1.1v-1.1Zm2.3 0H295v1.1h-1.1v-1.1Zm2.3 0h1.1v1.1h-1.1v-1.1Zm2.3 0h1.1v1.1h-1.1v-1.1Zm2.2 0h1.2v1.1h-1.2v-1.1Zm2.3 0h1.2v1.1H303v-1.1Zm2.3 0h1.2v1.1h-1.2v-1.1Zm2.3 0h1.2v1.1h-1.2v-1.1Zm2.3 0h1.2v1.1h-1.2v-1.1Zm2.3 0h1.2v1.1h-1.2v-1.1Zm2.3 0h1.1v1.1h-1.1v-1.1Zm2.3 0h1.1v1.1h-1.1v-1.1Zm2.3 0h1.1v1.1h-1.1v-1.1Zm2.3 0h1.1v1.1h-1.1v-1.1Zm2.3 0h1.1v1.1h-1.1v-1.1Zm2.3 0h1.1v1.1H326v-1.1Zm2.2 0h1.2v1.1h-1.2v-1.1Zm2.3 0h1.2v1.1h-1.2v-1.1Zm2.3 0H334v1.1h-1.2v-1.1Zm2.3 0h1.2v1.1h-1.2v-1.1Zm2.3 0h1.2v1.1h-1.2v-1.1Zm2.3 0h1.2v1.1h-1.2v-1.1Zm2.3 0h1.1v1.1H342v-1.1Zm2.3 0h1.1v1.1h-1.1v-1.1Zm2.3 0h1.1v1.1h-1.1v-1.1Zm2.3 0H350v1.1h-1.1v-1.1Zm2.3 0h1.1v1.1h-1.1v-1.1Zm2.3 0h1.1v1.1h-1.1v-1.1Zm2.2 0h1.2v1.1h-1.2v-1.1Zm2.3 0h1.2v1.1H358v-1.1Zm2.3 0h1.2v1.1h-1.2v-1.1Zm2.3 0h1.2v1.1h-1.2v-1.1Zm2.3 0h1.2v1.1h-1.2v-1.1Zm2.3 0h1.2v1.1h-1.2v-1.1Zm2.3 0h1.1v1.1h-1.1v-1.1Zm2.3 0h1.1v1.1h-1.1v-1.1Zm2.3 0h1.1v1.1h-1.1v-1.1Zm2.3 0h1.1v1.1h-1.1v-1.1Zm2.3 0h1.1v1.1h-1.1v-1.1Zm2.3 0h1.1v1.1H381v-1.1Zm2.2 0h1.2v1.1h-1.2v-1.1Zm2.3 0h1.2v1.1h-1.2v-1.1Zm2.3 0H389v1.1h-1.2v-1.1Zm2.3 0h1.2v1.1h-1.2v-1.1Zm2.3 0h1.2v1.1h-1.2v-1.1Zm2.3 0h1.2v1.1h-1.2v-1.1Zm2.3 0h1.1v1.1H397v-1.1Zm2.3 0h1.1v1.1h-1.1v-1.1Zm2.3 0h1.1v1.1h-1.1v-1.1Zm2.3 0H405v1.1h-1.1v-1.1Zm2.3 0h1.1v1.1h-1.1v-1.1Zm2.3 0h1.1v1.1h-1.1v-1.1Zm2.2 0h1.2v1.1h-1.2v-1.1Zm2.3 0h1.2v1.1H413v-1.1Zm2.3 0h1.2v1.1h-1.2v-1.1Zm2.3 0h1.2v1.1h-1.2v-1.1Zm2.3 0h1.2v1.1h-1.2v-1.1Zm2.3 0h1.2v1.1h-1.2v-1.1Zm2.3 0h1.1v1.1h-1.1v-1.1Zm2.3 0h1.1v1.1h-1.1v-1.1Zm2.3 0h1.1v1.1h-1.1v-1.1Zm2.3 0h1.1v1.1h-1.1v-1.1Zm2.3 0h1.1v1.1h-1.1v-1.1Zm2.3 0h1.1v1.1H436v-1.1Zm2.2 0h1.2v1.1h-1.2v-1.1Zm2.3 0h1.2v1.1h-1.2v-1.1Zm2.3 0H444v1.1h-1.2v-1.1Zm2.3 0h1.2v1.1h-1.2v-1.1Zm2.3 0h1.2v1.1h-1.2v-1.1Zm2.3 0h1.2v1.1h-1.2v-1.1Zm2.3 0h1.1v1.1H452v-1.1Zm2.3 0h1.1v1.1h-1.1v-1.1Zm2.3 0h1.1v1.1h-1.1v-1.1Zm2.3 0H460v1.1h-1.1v-1.1Zm2.3 0h1.1v1.1h-1.1v-1.1Zm2.3 0h1.1v1.1h-1.1v-1.1Zm2.2 0h1.2v1.1h-1.2v-1.1Zm2.3 0h1.2v1.1H468v-1.1Zm2.3 0h1.2v1.1h-1.2v-1.1Zm2.3 0h1.2v1.1h-1.2v-1.1Zm2.3 0h1.2v1.1h-1.2v-1.1Zm2.3 0h1.2v1.1h-1.2v-1.1Zm2.3 0h1.1v1.1h-1.1v-1.1Zm2.3 0h1.1v1.1h-1.1v-1.1Zm2.3 0h1.1v1.1h-1.1v-1.1Zm2.3 0h1.1v1.1h-1.1v-1.1Zm2.3 0h1.1v1.1h-1.1v-1.1Zm2.3 0h1.1v1.1H491v-1.1Zm2.2 0h1.2v1.1h-1.2v-1.1Zm2.3 0h1.2v1.1h-1.2v-1.1Zm2.3 0H499v1.1h-1.2v-1.1Zm2.3 0h1.2v1.1h-1.2v-1.1Zm2.3 0h1.2v1.1h-1.2v-1.1Zm2.3 0h1.2v1.1h-1.2v-1.1Zm2.3 0h1.1v1.1H507v-1.1Zm2.3 0h1.1v1.1h-1.1v-1.1Zm2.3 0h1.1v1.1h-1.1v-1.1Zm2.3 0H515v1.1h-1.1v-1.1Zm2.3 0h1.1v1.1h-1.1v-1.1Zm2.3 0h1.1v1.1h-1.1v-1.1Zm2.2 0h1.2v1.1h-1.2v-1.1Zm2.3 0h1.2v1.1H523v-1.1Zm2.3 0h1.2v1.1h-1.2v-1.1Zm2.3 0h.4c.3 0 .5 0 .8 0l-.2 1.2c-.2 -.1 -.4 -.1 -.6 -.1h-.4v-1.1Zm2.5 .4c.4 .2 .8 .4 1.1 .7l-.7 .9c-.3 -.2 -.6 -.4 -.9 -.6l.5 -1Zm2.1 1.7c.3 .4 .5 .8 .7 1.2l-1.1 .4c-.1 -.3 -.3 -.6 -.5 -.9l.9 -.7Zm1 2.4c0 .3 0 .5 0 .7v.5h-1.1v-.5c0 -.2 0 -.3 -.1 -.5l1.2 -.2Zm0 2.4v1.1h-1.1V381h1.1Zm0 2.3v1.1h-1.1v-1.1h1.1Zm0 2.2v1.2h-1.1v-1.2h1.1Zm0 2.3V389h-1.1v-1.2h1.1Zm0 2.3v1.2h-1.1v-1.2h1.1Zm0 2.3v1.2h-1.1v-1.2h1.1Zm0 2.3v1.2h-1.1v-1.2h1.1Zm0 2.3v1.1h-1.1V397h1.1Zm0 2.3v1.1h-1.1v-1.1h1.1Zm0 2.3c0 .4 -.1 .9 -.3 1.3l-1.1 -.4c.2 -.3 .2 -.7 .3 -1l1.1 .1Zm-.9 2.5c-.3 .4 -.6 .7 -.9 1l-.8 -.9c.3 -.2 .6 -.5 .8 -.8l.9 .7Zm-2.1 1.7c-.4 .2 -.8 .4 -1.2 .4l-.2 -1.1c.3 0 .6 -.1 .9 -.3l.5 1Zm-2.4 .5h-1.2v-1.1h1.2v1.1Zm-2.3 0h-1.2v-1.1h1.2v1.1Zm-2.3 0H522v-1.1h1.2v1.1Zm-2.3 0h-1.1v-1.1h1.1v1.1Zm-2.3 0h-1.1v-1.1h1.1v1.1Zm-2.3 0h-1.1v-1.1h1.1v1.1Zm-2.3 0h-1.1v-1.1H514v1.1Zm-2.3 0h-1.1v-1.1h1.1v1.1Zm-2.3 0h-1.1v-1.1h1.1v1.1Zm-2.3 0H506v-1.1h1.1v1.1Zm-2.2 0h-1.2v-1.1h1.2v1.1Zm-2.3 0h-1.2v-1.1h1.2v1.1Zm-2.3 0h-1.2v-1.1h1.2v1.1Zm-2.3 0h-1.2v-1.1H498v1.1Zm-2.3 0h-1.2v-1.1h1.2v1.1Zm-2.3 0h-1.1v-1.1h1.1v1.1Zm-2.3 0H490v-1.1h1.1v1.1Zm-2.3 0h-1.1v-1.1h1.1v1.1Zm-2.3 0h-1.1v-1.1h1.1v1.1Zm-2.3 0h-1.1v-1.1h1.1v1.1Zm-2.3 0h-1.1v-1.1h1.1v1.1Zm-2.3 0h-1.1v-1.1h1.1v1.1Zm-2.2 0h-1.2v-1.1h1.2v1.1Zm-2.3 0h-1.2v-1.1h1.2v1.1Zm-2.3 0h-1.2v-1.1h1.2v1.1Zm-2.3 0h-1.2v-1.1h1.2v1.1Zm-2.3 0H467v-1.1h1.2v1.1Zm-2.3 0h-1.1v-1.1h1.1v1.1Zm-2.3 0h-1.1v-1.1h1.1v1.1Zm-2.3 0h-1.1v-1.1h1.1v1.1Zm-2.3 0h-1.1v-1.1H459v1.1Zm-2.3 0h-1.1v-1.1h1.1v1.1Zm-2.3 0h-1.1v-1.1h1.1v1.1Zm-2.3 0H451v-1.1h1.1v1.1Zm-2.2 0h-1.2v-1.1h1.2v1.1Zm-2.3 0h-1.2v-1.1h1.2v1.1Zm-2.3 0h-1.2v-1.1h1.2v1.1Zm-2.3 0h-1.2v-1.1H443v1.1Zm-2.3 0h-1.2v-1.1h1.2v1.1Zm-2.3 0h-1.1v-1.1h1.1v1.1Zm-2.3 0H435v-1.1h1.1v1.1Zm-2.3 0h-1.1v-1.1h1.1v1.1Zm-2.3 0h-1.1v-1.1h1.1v1.1Zm-2.3 0h-1.1v-1.1h1.1v1.1Zm-2.3 0h-1.1v-1.1h1.1v1.1Zm-2.3 0h-1.1v-1.1h1.1v1.1Zm-2.2 0h-1.2v-1.1h1.2v1.1Zm-2.3 0h-1.2v-1.1h1.2v1.1Zm-2.3 0h-1.2v-1.1h1.2v1.1Zm-2.3 0h-1.2v-1.1h1.2v1.1Zm-2.3 0H412v-1.1h1.2v1.1Zm-2.3 0h-1.1v-1.1h1.1v1.1Zm-2.3 0h-1.1v-1.1h1.1v1.1Zm-2.3 0h-1.1v-1.1h1.1v1.1Zm-2.3 0h-1.1v-1.1H404v1.1Zm-2.3 0h-1.1v-1.1h1.1v1.1Zm-2.3 0h-1.1v-1.1h1.1v1.1Zm-2.3 0H396v-1.1h1.1v1.1Zm-2.2 0h-1.2v-1.1h1.2v1.1Zm-2.3 0h-1.2v-1.1h1.2v1.1Zm-2.3 0h-1.2v-1.1h1.2v1.1Zm-2.3 0h-1.2v-1.1H388v1.1Zm-2.3 0h-1.2v-1.1h1.2v1.1Zm-2.3 0h-1.1v-1.1h1.1v1.1Zm-2.3 0H380v-1.1h1.1v1.1Zm-2.3 0h-1.1v-1.1h1.1v1.1Zm-2.3 0h-1.1v-1.1h1.1v1.1Zm-2.3 0h-1.1v-1.1h1.1v1.1Zm-2.3 0h-1.1v-1.1h1.1v1.1Zm-2.3 0h-1.1v-1.1h1.1v1.1Zm-2.2 0h-1.2v-1.1h1.2v1.1Zm-2.3 0h-1.2v-1.1h1.2v1.1Zm-2.3 0h-1.2v-1.1h1.2v1.1Zm-2.3 0h-1.2v-1.1h1.2v1.1Zm-2.3 0H357v-1.1h1.2v1.1Zm-2.3 0h-1.1v-1.1h1.1v1.1Zm-2.3 0h-1.1v-1.1h1.1v1.1Zm-2.3 0h-1.1v-1.1h1.1v1.1Zm-2.3 0h-1.1v-1.1H349v1.1Zm-2.3 0h-1.1v-1.1h1.1v1.1Zm-2.3 0h-1.1v-1.1h1.1v1.1Zm-2.3 0H341v-1.1h1.1v1.1Zm-2.2 0h-1.2v-1.1h1.2v1.1Zm-2.3 0h-1.2v-1.1h1.2v1.1Zm-2.3 0h-1.2v-1.1h1.2v1.1Zm-2.3 0h-1.2v-1.1H333v1.1Zm-2.3 0h-1.2v-1.1h1.2v1.1Zm-2.3 0h-1.1v-1.1h1.1v1.1Zm-2.3 0H325v-1.1h1.1v1.1Zm-2.3 0h-1.1v-1.1h1.1v1.1Zm-2.3 0h-1.1v-1.1h1.1v1.1Zm-2.3 0h-1.1v-1.1h1.1v1.1Zm-2.3 0h-1.1v-1.1h1.1v1.1Zm-2.3 0h-1.1v-1.1h1.1v1.1Zm-2.2 0h-1.2v-1.1h1.2v1.1Zm-2.3 0h-1.2v-1.1h1.2v1.1Zm-2.3 0h-1.2v-1.1h1.2v1.1Zm-2.3 0h-1.2v-1.1h1.2v1.1Zm-2.3 0H302v-1.1h1.2v1.1Zm-2.3 0h-1.1v-1.1h1.1v1.1Zm-2.3 0h-1.1v-1.1h1.1v1.1Zm-2.3 0h-1.1v-1.1h1.1v1.1Zm-2.3 0h-1.1v-1.1H294v1.1Zm-2.3 0h-1.1v-1.1h1.1v1.1Zm-2.3 0h-1.1v-1.1h1.1v1.1Zm-2.3 0H286v-1.1h1.1v1.1Zm-2.2 0h-1.2v-1.1h1.2v1.1Zm-2.3 0h-1.2v-1.1h1.2v1.1Zm-2.3 0h-1.2v-1.1h1.2v1.1Zm-2.3 0h-1.2v-1.1H278v1.1Zm-2.3 0h-1.2v-1.1h1.2v1.1Zm-2.3 0h-1.1v-1.1h1.1v1.1Zm-2.3 0H270v-1.1h1.1v1.1Zm-2.3 0h-1.1v-1.1h1.1v1.1Zm-2.3 0h-1.1v-1.1h1.1v1.1Zm-2.3 0h-1.1v-1.1h1.1v1.1Zm-2.3 0h-1.1v-1.1h1.1v1.1Zm-2.3 0h-1.1v-1.1h1.1v1.1Zm-2.2 0h-1.2v-1.1h1.2v1.1Zm-2.3 0h-.2c-.3 0 -.7 0 -1.1 -.1l.3 -1.1c.3 .1 .5 .1 .8 .1h.2v1.1Zm-2.5 -.5c-.4 -.2 -.8 -.5 -1.1 -.8l.7 -.8c.3 .2 .6 .4 .9 .6l-.5 1ZM250.5 404c-.2 -.4 -.4 -.8 -.5 -1.2l1 -.4c.2 .4 .3 .7 .5 1l-1 .6Zm-.8 -2.5c0 -.1 0 -.2 0 -.4v-.7h1.1v.7c0 .1 0 .2 0 .3l-1.1 .1Zm0 -2.3v-1.1h1.1v1.1h-1.1Zm0 -2.3v-1.1h1.1v1.1h-1.1Zm0 -2.3v-1.1h1.1v1.1h-1.1Zm0 -2.2v-1.2h1.1v1.2h-1.1Zm0 -2.3v-1.2h1.1v1.2h-1.1Zm0 -2.3v-1.2h1.1v1.2h-1.1Zm0 -2.3v-1.2h1.1v1.2h-1.1Zm0 -2.3V382h1.1v1.2h-1.1Zm0 -2.3v-1.2h1.1v1.2h-1.1Zm0 -2.3c.1 -.5 .2 -.9 .4 -1.3l1 .4c-.1 .4 -.2 .7 -.2 1l-1.2 -.1Zm1 -2.5c.3 -.3 .7 -.7 1 -1l.7 1c-.3 .2 -.5 .4 -.7 .7l-1 -.7Zm2.2 -1.6c.4 -.2 .8 -.3 1.3 -.4l.1 1.2c-.3 0 -.6 .1 -1 .2l-.4 -1Zm2 -.4h1.2v1.1h-1.2v-1.1Z" class="g1_94"/>
<path d="M257.2 408.4h1.2v1.2h-1.2v-1.2Zm2.3 0h1.1v1.2h-1.1v-1.2Zm2.3 0h1.1v1.2h-1.1v-1.2Zm2.3 0h1.1v1.2h-1.1v-1.2Zm2.3 0h1.1v1.2h-1.1v-1.2Zm2.3 0h1.1v1.2h-1.1v-1.2Zm2.3 0h1.1v1.2H271v-1.2Zm2.2 0h1.2v1.2h-1.2v-1.2Zm2.3 0h1.2v1.2h-1.2v-1.2Zm2.3 0H279v1.2h-1.2v-1.2Zm2.3 0h1.2v1.2h-1.2v-1.2Zm2.3 0h1.2v1.2h-1.2v-1.2Zm2.3 0h1.2v1.2h-1.2v-1.2Zm2.3 0h1.1v1.2H287v-1.2Zm2.3 0h1.1v1.2h-1.1v-1.2Zm2.3 0h1.1v1.2h-1.1v-1.2Zm2.3 0H295v1.2h-1.1v-1.2Zm2.3 0h1.1v1.2h-1.1v-1.2Zm2.3 0h1.1v1.2h-1.1v-1.2Zm2.2 0h1.2v1.2h-1.2v-1.2Zm2.3 0h1.2v1.2H303v-1.2Zm2.3 0h1.2v1.2h-1.2v-1.2Zm2.3 0h1.2v1.2h-1.2v-1.2Zm2.3 0h1.2v1.2h-1.2v-1.2Zm2.3 0h1.2v1.2h-1.2v-1.2Zm2.3 0h1.1v1.2h-1.1v-1.2Zm2.3 0h1.1v1.2h-1.1v-1.2Zm2.3 0h1.1v1.2h-1.1v-1.2Zm2.3 0h1.1v1.2h-1.1v-1.2Zm2.3 0h1.1v1.2h-1.1v-1.2Zm2.3 0h1.1v1.2H326v-1.2Zm2.2 0h1.2v1.2h-1.2v-1.2Zm2.3 0h1.2v1.2h-1.2v-1.2Zm2.3 0H334v1.2h-1.2v-1.2Zm2.3 0h1.2v1.2h-1.2v-1.2Zm2.3 0h1.2v1.2h-1.2v-1.2Zm2.3 0h1.2v1.2h-1.2v-1.2Zm2.3 0h1.1v1.2H342v-1.2Zm2.3 0h1.1v1.2h-1.1v-1.2Zm2.3 0h1.1v1.2h-1.1v-1.2Zm2.3 0H350v1.2h-1.1v-1.2Zm2.3 0h1.1v1.2h-1.1v-1.2Zm2.3 0h1.1v1.2h-1.1v-1.2Zm2.2 0h1.2v1.2h-1.2v-1.2Zm2.3 0h1.2v1.2H358v-1.2Zm2.3 0h1.2v1.2h-1.2v-1.2Zm2.3 0h1.2v1.2h-1.2v-1.2Zm2.3 0h1.2v1.2h-1.2v-1.2Zm2.3 0h1.2v1.2h-1.2v-1.2Zm2.3 0h1.1v1.2h-1.1v-1.2Zm2.3 0h1.1v1.2h-1.1v-1.2Zm2.3 0h1.1v1.2h-1.1v-1.2Zm2.3 0h1.1v1.2h-1.1v-1.2Zm2.3 0h1.1v1.2h-1.1v-1.2Zm2.3 0h1.1v1.2H381v-1.2Zm2.2 0h1.2v1.2h-1.2v-1.2Zm2.3 0h1.2v1.2h-1.2v-1.2Zm2.3 0H389v1.2h-1.2v-1.2Zm2.3 0h1.2v1.2h-1.2v-1.2Zm2.3 0h1.2v1.2h-1.2v-1.2Zm2.3 0h1.2v1.2h-1.2v-1.2Zm2.3 0h1.1v1.2H397v-1.2Zm2.3 0h1.1v1.2h-1.1v-1.2Zm2.3 0h1.1v1.2h-1.1v-1.2Zm2.3 0H405v1.2h-1.1v-1.2Zm2.3 0h1.1v1.2h-1.1v-1.2Zm2.3 0h1.1v1.2h-1.1v-1.2Zm2.2 0h1.2v1.2h-1.2v-1.2Zm2.3 0h1.2v1.2H413v-1.2Zm2.3 0h1.2v1.2h-1.2v-1.2Zm2.3 0h1.2v1.2h-1.2v-1.2Zm2.3 0h1.2v1.2h-1.2v-1.2Zm2.3 0h1.2v1.2h-1.2v-1.2Zm2.3 0h1.1v1.2h-1.1v-1.2Zm2.3 0h1.1v1.2h-1.1v-1.2Zm2.3 0h1.1v1.2h-1.1v-1.2Zm2.3 0h1.1v1.2h-1.1v-1.2Zm2.3 0h1.1v1.2h-1.1v-1.2Zm2.3 0h1.1v1.2H436v-1.2Zm2.2 0h1.2v1.2h-1.2v-1.2Zm2.3 0h1.2v1.2h-1.2v-1.2Zm2.3 0H444v1.2h-1.2v-1.2Zm2.3 0h1.2v1.2h-1.2v-1.2Zm2.3 0h1.2v1.2h-1.2v-1.2Zm2.3 0h1.2v1.2h-1.2v-1.2Zm2.3 0h1.1v1.2H452v-1.2Zm2.3 0h1.1v1.2h-1.1v-1.2Zm2.3 0h1.1v1.2h-1.1v-1.2Zm2.3 0H460v1.2h-1.1v-1.2Zm2.3 0h1.1v1.2h-1.1v-1.2Zm2.3 0h1.1v1.2h-1.1v-1.2Zm2.2 0h1.2v1.2h-1.2v-1.2Zm2.3 0h1.2v1.2H468v-1.2Zm2.3 0h1.2v1.2h-1.2v-1.2Zm2.3 0h1.2v1.2h-1.2v-1.2Zm2.3 0h1.2v1.2h-1.2v-1.2Zm2.3 0h1.2v1.2h-1.2v-1.2Zm2.3 0h1.1v1.2h-1.1v-1.2Zm2.3 0h1.1v1.2h-1.1v-1.2Zm2.3 0h1.1v1.2h-1.1v-1.2Zm2.3 0h1.1v1.2h-1.1v-1.2Zm2.3 0h1.1v1.2h-1.1v-1.2Zm2.3 0h1.1v1.2H491v-1.2Zm2.2 0h1.2v1.2h-1.2v-1.2Zm2.3 0h1.2v1.2h-1.2v-1.2Zm2.3 0H499v1.2h-1.2v-1.2Zm2.3 0h1.2v1.2h-1.2v-1.2Zm2.3 0h1.2v1.2h-1.2v-1.2Zm2.3 0h1.2v1.2h-1.2v-1.2Zm2.3 0h1.1v1.2H507v-1.2Zm2.3 0h1.1v1.2h-1.1v-1.2Zm2.3 0h1.1v1.2h-1.1v-1.2Zm2.3 0H515v1.2h-1.1v-1.2Zm2.3 0h1.1v1.2h-1.1v-1.2Zm2.3 0h1.1v1.2h-1.1v-1.2Zm2.2 0h1.2v1.2h-1.2v-1.2Zm2.3 0h1.2v1.2H523v-1.2Zm2.3 0h1.2v1.2h-1.2v-1.2Zm2.3 0h.4c.3 0 .5 .1 .8 .1l-.2 1.1c-.2 0 -.4 0 -.6 0h-.4v-1.2Zm2.5 .5c.4 .2 .8 .4 1.1 .7l-.7 .9c-.3 -.3 -.6 -.4 -.9 -.6l.5 -1Zm2.1 1.7c.3 .3 .5 .7 .7 1.2l-1.1 .4c-.1 -.4 -.3 -.7 -.5 -1l.9 -.6Zm1 2.4c0 .2 0 .5 0 .7v.5h-1.1v-.5c0 -.2 0 -.4 -.1 -.5l1.2 -.2Zm0 2.3v1.2h-1.1v-1.2h1.1Zm0 2.3v1.2h-1.1v-1.2h1.1Zm0 2.3v1.2h-1.1v-1.2h1.1Zm0 2.3v1.2h-1.1v-1.2h1.1Zm0 2.3v1.1h-1.1v-1.1h1.1Zm0 2.3v1.1h-1.1v-1.1h1.1Zm0 2.3v1.1h-1.1v-1.1h1.1Zm0 2.3v1.1h-1.1v-1.1h1.1Zm0 2.3v1.1h-1.1v-1.1h1.1Zm0 2.3c0 .4 -.1 .8 -.3 1.2l-1.1 -.3c.2 -.4 .2 -.7 .3 -1l1.1 .1Zm-.9 2.4c-.3 .4 -.6 .8 -.9 1.1l-.8 -.9c.3 -.2 .6 -.5 .8 -.8l.9 .6Zm-2.1 1.8c-.4 .2 -.8 .3 -1.2 .4l-.2 -1.1c.3 -.1 .6 -.2 .9 -.3l.5 1Zm-2.4 .5h-1.2v-1.1h1.2v1.1Zm-2.3 0h-1.2v-1.1h1.2v1.1Zm-2.3 0H522v-1.1h1.2v1.1Zm-2.3 0h-1.1v-1.1h1.1v1.1Zm-2.3 0h-1.1v-1.1h1.1v1.1Zm-2.3 0h-1.1v-1.1h1.1v1.1Zm-2.3 0h-1.1v-1.1H514v1.1Zm-2.3 0h-1.1v-1.1h1.1v1.1Zm-2.3 0h-1.1v-1.1h1.1v1.1Zm-2.3 0H506v-1.1h1.1v1.1Zm-2.2 0h-1.2v-1.1h1.2v1.1Zm-2.3 0h-1.2v-1.1h1.2v1.1Zm-2.3 0h-1.2v-1.1h1.2v1.1Zm-2.3 0h-1.2v-1.1H498v1.1Zm-2.3 0h-1.2v-1.1h1.2v1.1Zm-2.3 0h-1.1v-1.1h1.1v1.1Zm-2.3 0H490v-1.1h1.1v1.1Zm-2.3 0h-1.1v-1.1h1.1v1.1Zm-2.3 0h-1.1v-1.1h1.1v1.1Zm-2.3 0h-1.1v-1.1h1.1v1.1Zm-2.3 0h-1.1v-1.1h1.1v1.1Zm-2.3 0h-1.1v-1.1h1.1v1.1Zm-2.2 0h-1.2v-1.1h1.2v1.1Zm-2.3 0h-1.2v-1.1h1.2v1.1Zm-2.3 0h-1.2v-1.1h1.2v1.1Zm-2.3 0h-1.2v-1.1h1.2v1.1Zm-2.3 0H467v-1.1h1.2v1.1Zm-2.3 0h-1.1v-1.1h1.1v1.1Zm-2.3 0h-1.1v-1.1h1.1v1.1Zm-2.3 0h-1.1v-1.1h1.1v1.1Zm-2.3 0h-1.1v-1.1H459v1.1Zm-2.3 0h-1.1v-1.1h1.1v1.1Zm-2.3 0h-1.1v-1.1h1.1v1.1Zm-2.3 0H451v-1.1h1.1v1.1Zm-2.2 0h-1.2v-1.1h1.2v1.1Zm-2.3 0h-1.2v-1.1h1.2v1.1Zm-2.3 0h-1.2v-1.1h1.2v1.1Zm-2.3 0h-1.2v-1.1H443v1.1Zm-2.3 0h-1.2v-1.1h1.2v1.1Zm-2.3 0h-1.1v-1.1h1.1v1.1Zm-2.3 0H435v-1.1h1.1v1.1Zm-2.3 0h-1.1v-1.1h1.1v1.1Zm-2.3 0h-1.1v-1.1h1.1v1.1Zm-2.3 0h-1.1v-1.1h1.1v1.1Zm-2.3 0h-1.1v-1.1h1.1v1.1Zm-2.3 0h-1.1v-1.1h1.1v1.1Zm-2.2 0h-1.2v-1.1h1.2v1.1Zm-2.3 0h-1.2v-1.1h1.2v1.1Zm-2.3 0h-1.2v-1.1h1.2v1.1Zm-2.3 0h-1.2v-1.1h1.2v1.1Zm-2.3 0H412v-1.1h1.2v1.1Zm-2.3 0h-1.1v-1.1h1.1v1.1Zm-2.3 0h-1.1v-1.1h1.1v1.1Zm-2.3 0h-1.1v-1.1h1.1v1.1Zm-2.3 0h-1.1v-1.1H404v1.1Zm-2.3 0h-1.1v-1.1h1.1v1.1Zm-2.3 0h-1.1v-1.1h1.1v1.1Zm-2.3 0H396v-1.1h1.1v1.1Zm-2.2 0h-1.2v-1.1h1.2v1.1Zm-2.3 0h-1.2v-1.1h1.2v1.1Zm-2.3 0h-1.2v-1.1h1.2v1.1Zm-2.3 0h-1.2v-1.1H388v1.1Zm-2.3 0h-1.2v-1.1h1.2v1.1Zm-2.3 0h-1.1v-1.1h1.1v1.1Zm-2.3 0H380v-1.1h1.1v1.1Zm-2.3 0h-1.1v-1.1h1.1v1.1Zm-2.3 0h-1.1v-1.1h1.1v1.1Zm-2.3 0h-1.1v-1.1h1.1v1.1Zm-2.3 0h-1.1v-1.1h1.1v1.1Zm-2.3 0h-1.1v-1.1h1.1v1.1Zm-2.2 0h-1.2v-1.1h1.2v1.1Zm-2.3 0h-1.2v-1.1h1.2v1.1Zm-2.3 0h-1.2v-1.1h1.2v1.1Zm-2.3 0h-1.2v-1.1h1.2v1.1Zm-2.3 0H357v-1.1h1.2v1.1Zm-2.3 0h-1.1v-1.1h1.1v1.1Zm-2.3 0h-1.1v-1.1h1.1v1.1Zm-2.3 0h-1.1v-1.1h1.1v1.1Zm-2.3 0h-1.1v-1.1H349v1.1Zm-2.3 0h-1.1v-1.1h1.1v1.1Zm-2.3 0h-1.1v-1.1h1.1v1.1Zm-2.3 0H341v-1.1h1.1v1.1Zm-2.2 0h-1.2v-1.1h1.2v1.1Zm-2.3 0h-1.2v-1.1h1.2v1.1Zm-2.3 0h-1.2v-1.1h1.2v1.1Zm-2.3 0h-1.2v-1.1H333v1.1Zm-2.3 0h-1.2v-1.1h1.2v1.1Zm-2.3 0h-1.1v-1.1h1.1v1.1Zm-2.3 0H325v-1.1h1.1v1.1Zm-2.3 0h-1.1v-1.1h1.1v1.1Zm-2.3 0h-1.1v-1.1h1.1v1.1Zm-2.3 0h-1.1v-1.1h1.1v1.1Zm-2.3 0h-1.1v-1.1h1.1v1.1Zm-2.3 0h-1.1v-1.1h1.1v1.1Zm-2.2 0h-1.2v-1.1h1.2v1.1Zm-2.3 0h-1.2v-1.1h1.2v1.1Zm-2.3 0h-1.2v-1.1h1.2v1.1Zm-2.3 0h-1.2v-1.1h1.2v1.1Zm-2.3 0H302v-1.1h1.2v1.1Zm-2.3 0h-1.1v-1.1h1.1v1.1Zm-2.3 0h-1.1v-1.1h1.1v1.1Zm-2.3 0h-1.1v-1.1h1.1v1.1Zm-2.3 0h-1.1v-1.1H294v1.1Zm-2.3 0h-1.1v-1.1h1.1v1.1Zm-2.3 0h-1.1v-1.1h1.1v1.1Zm-2.3 0H286v-1.1h1.1v1.1Zm-2.2 0h-1.2v-1.1h1.2v1.1Zm-2.3 0h-1.2v-1.1h1.2v1.1Zm-2.3 0h-1.2v-1.1h1.2v1.1Zm-2.3 0h-1.2v-1.1H278v1.1Zm-2.3 0h-1.2v-1.1h1.2v1.1Zm-2.3 0h-1.1v-1.1h1.1v1.1Zm-2.3 0H270v-1.1h1.1v1.1Zm-2.3 0h-1.1v-1.1h1.1v1.1Zm-2.3 0h-1.1v-1.1h1.1v1.1Zm-2.3 0h-1.1v-1.1h1.1v1.1Zm-2.3 0h-1.1v-1.1h1.1v1.1Zm-2.3 0h-1.1v-1.1h1.1v1.1Zm-2.2 0h-1.2v-1.1h1.2v1.1Zm-2.3 0h-.2c-.3 0 -.7 0 -1.1 -.1l.3 -1.1c.3 0 .5 .1 .8 .1h.2v1.1Zm-2.5 -.5c-.4 -.2 -.8 -.5 -1.1 -.8l.7 -.8c.3 .2 .6 .4 .9 .6l-.5 1Zm-2.1 -1.8c-.2 -.4 -.4 -.8 -.5 -1.2l1 -.4c.2 .3 .3 .6 .5 .9l-1 .7Zm-.8 -2.5c0 -.1 0 -.3 0 -.4v-.8h1.1v.8c0 .1 0 .2 0 .3l-1.1 .1Zm0 -2.3v-1.1h1.1v1.1h-1.1Zm0 -2.3v-1.1h1.1v1.1h-1.1Zm0 -2.3v-1.1h1.1V429h-1.1Zm0 -2.3v-1.1h1.1v1.1h-1.1Zm0 -2.3v-1.1h1.1v1.1h-1.1Zm0 -2.3V421h1.1v1.1h-1.1Zm0 -2.2v-1.2h1.1v1.2h-1.1Zm0 -2.3v-1.2h1.1v1.2h-1.1Zm0 -2.3v-1.2h1.1v1.2h-1.1Zm0 -2.4c.1 -.4 .2 -.8 .4 -1.2l1 .4c-.1 .3 -.2 .7 -.2 1l-1.2 -.2Zm1 -2.4c.3 -.4 .7 -.7 1 -1l.7 .9c-.3 .3 -.5 .5 -.7 .8l-1 -.7Zm2.2 -1.7c.4 -.1 .8 -.2 1.3 -.3l.1 1.1c-.3 .1 -.6 .2 -1 .3l-.4 -1.1Zm2 -.4h1.2v1.2h-1.2v-1.2Z" class="g1_94"/>
<path d="M532.7 320.4h3.4v1.1h-3.4v-1.1Zm6.8 0H543v1.1h-3.5v-1.1Zm7.1 .2c1.3 .2 2.4 .5 3.4 1l-.5 1c-.9 -.4 -1.9 -.7 -3 -.9l.1 -1.1Zm6.3 3.1c.8 .9 1.4 2 1.9 3.2l-1.1 .4c-.4 -1.1 -1 -2 -1.6 -2.8l.8 -.8Zm2.6 6.6c.1 .7 .1 1.4 .1 2.1v1.5h-1.1v-1.5c0 -.7 -.1 -1.4 -.1 -2l1.1 -.1Zm.1 7.1v3.4h-1.1v-3.4h1.1Zm0 6.8v3.5h-1.1v-3.5h1.1Zm0 6.9v3.4h-1.1v-3.4h1.1Zm0 6.9v3.4h-1.1V358h1.1Zm0 6.9v3.4h-1.1v-3.4h1.1Zm0 6.8v3.5h-1.1v-3.5h1.1Zm0 6.9V382h-1.1v-3.4h1.1Zm0 6.9v3.4h-1.1v-3.4h1.1Zm0 6.9v3.4h-1.1v-3.4h1.1Zm0 6.8v3.5h-1.1v-3.5h1.1Zm0 6.9v3.4h-1.1v-3.4h1.1Zm0 6.9v3.4h-1.1V413h1.1Zm0 6.9v3.4h-1.1v-3.4h1.1Zm0 6.8v3.5h-1.1v-3.5h1.1Zm0 6.9V437h-1.1v-3.4h1.1Zm0 6.9v3.4h-1.1v-3.4h1.1Zm0 6.9v3.4h-1.1v-3.4h1.1Zm0 7c-.1 1.2 -.3 2.4 -.6 3.5l-1.1 -.4c.3 -.9 .5 -2 .5 -3.2l1.2 .1Zm-2.1 6.7c-.7 1 -1.6 1.8 -2.6 2.5l-.6 -1c.9 -.6 1.7 -1.3 2.3 -2.1l.9 .6Zm-6 3.7c-1.1 .3 -2.3 .4 -3.6 .4v-1.1c1.2 0 2.4 -.1 3.4 -.4l.2 1.1Zm-7.1 .4H537v-1.1h3.4v1.1Zm-6.8 0h-3.5v-1.1h3.5v1.1Zm-6.9 0h-3.5v-1.1h3.5v1.1Zm-6.9 0h-3.4v-1.1h3.4v1.1Zm-6.9 0h-3.4v-1.1h3.4v1.1Zm-6.8 0h-3.5v-1.1h3.5v1.1Zm-6.9 0h-3.5v-1.1h3.5v1.1Zm-6.9 0h-3.4v-1.1h3.4v1.1Zm-6.9 0H482v-1.1h3.4v1.1Zm-6.8 0h-3.5v-1.1h3.5v1.1Zm-6.9 0h-3.5v-1.1h3.5v1.1Zm-6.9 0h-3.4v-1.1h3.4v1.1Zm-6.9 0h-3.4v-1.1h3.4v1.1Zm-6.8 0h-3.5v-1.1h3.5v1.1Zm-6.9 0h-3.5v-1.1h3.5v1.1Zm-6.9 0h-3.4v-1.1h3.4v1.1Zm-6.9 0H427v-1.1h3.4v1.1Zm-6.8 0h-3.5v-1.1h3.5v1.1Zm-6.9 0h-3.5v-1.1h3.5v1.1Zm-6.9 0h-3.4v-1.1h3.4v1.1Zm-6.9 0h-3.4v-1.1h3.4v1.1Zm-6.8 0h-3.5v-1.1h3.5v1.1Zm-6.9 0h-3.5v-1.1h3.5v1.1Zm-6.9 0h-3.4v-1.1h3.4v1.1Zm-6.9 0H372v-1.1h3.4v1.1Zm-6.8 0h-3.5v-1.1h3.5v1.1Zm-6.9 0h-3.5v-1.1h3.5v1.1Zm-6.9 0h-3.4v-1.1h3.4v1.1Zm-6.9 0h-3.4v-1.1h3.4v1.1Zm-6.8 0h-3.5v-1.1h3.5v1.1Zm-6.9 0h-3.5v-1.1h3.5v1.1Zm-6.9 0h-3.4v-1.1h3.4v1.1Zm-6.9 0H317v-1.1h3.4v1.1Zm-6.8 0h-3.5v-1.1h3.5v1.1Zm-6.9 0h-3.5v-1.1h3.5v1.1Zm-6.9 0h-3.4v-1.1h3.4v1.1Zm-6.9 0h-3.4v-1.1h3.4v1.1Zm-6.8 0h-.3c-1.2 0 -2.2 .1 -3.2 .3l-.2 -1.1c1 -.2 2.1 -.3 3.4 -.3h.3v1.1Zm-6.6 1.3c-.9 .5 -1.7 1.2 -2.4 2l-.9 -.8c.8 -.9 1.7 -1.6 2.8 -2.2l.5 1Zm-3.9 4.8c-.3 1 -.6 2 -.6 3.2l-1.2 -.1c.1 -1.3 .3 -2.4 .7 -3.4l1.1 .3Zm-.7 6.7v3.4h-1.2V478h1.2Zm0 6.9v3.4h-1.2v-3.4h1.2Zm0 6.9v3.4h-1.2v-3.4h1.2Zm0 6.8v3.5h-1.2v-3.5h1.2Zm0 6.9v3.4h-1.2v-3.4h1.2Zm0 6.9v1.1h-1.2v-1.1h1.2Z" class="g1_94"/>
<path d="M274.3 519.5l-2.7 -8l2.7 2l2.7 -2l-2.7 8Z" class="g1_94"/>
<path d="M274.3 519.5l-2.7 -8l2.7 2l2.7 -2l-2.7 8Z" class="g2_94"/>
<path d="M532.7 355.2h3.4v1.2h-3.4v-1.2Zm6.8 0H543v1.2h-3.5v-1.2Zm6.9 0h3.4v1.2h-3.4v-1.2Zm6.9 0H555c.7 0 1.3 .1 1.9 .1l-.1 1.2c-.6 -.1 -1.1 -.1 -1.8 -.1h-1.7v-1.2Zm7 .8c1.2 .4 2.3 1 3.2 1.8l-.7 .9c-.8 -.7 -1.8 -1.2 -2.9 -1.6l.4 -1.1Zm5.4 4.6c.5 1 .9 2.1 1.1 3.4l-1.1 .2c-.2 -1.2 -.6 -2.2 -1 -3.1l1 -.5Zm1.4 7.1v3.4h-1.2v-3.4h1.2Zm0 6.8V378h-1.2v-3.5h1.2Zm0 6.9v3.4h-1.2v-3.4h1.2Zm0 6.9v3.4h-1.2v-3.4h1.2Zm0 6.9v3.4h-1.2v-3.4h1.2Zm0 6.8v3.5h-1.2V402h1.2Zm0 6.9v3.4h-1.2v-3.4h1.2Zm0 6.9v3.4h-1.2v-3.4h1.2Zm0 6.9v3.4h-1.2v-3.4h1.2Zm0 6.8V433h-1.2v-3.5h1.2Zm0 6.9v3.4h-1.2v-3.4h1.2Zm0 6.9v3.4h-1.2v-3.4h1.2Zm0 6.9v3.4h-1.2v-3.4h1.2Zm0 6.8v3.5h-1.2V457h1.2Zm0 6.9v.8c0 1 -.1 2 -.2 2.9l-1.2 -.2c.2 -.8 .2 -1.7 .2 -2.7v-.8h1.2Zm-1.2 7.1c-.5 1.1 -1.2 2.1 -2.1 2.9l-.8 -.8c.8 -.7 1.4 -1.6 1.9 -2.6l1 .5Zm-5.2 4.8c-1 .4 -2.1 .6 -3.4 .8l-.1 -1.2c1.1 -.1 2.2 -.3 3.1 -.7l.4 1.1Zm-7 .9h-3.5v-1.1h3.5v1.1Zm-6.9 0h-3.5v-1.1h3.5v1.1Zm-6.9 0h-3.4v-1.1h3.4v1.1Zm-6.9 0h-3.4v-1.1H533v1.1Zm-6.8 0h-3.5v-1.1h3.5v1.1Zm-6.9 0h-3.5v-1.1h3.5v1.1Zm-6.9 0H509v-1.1h3.4v1.1Zm-6.9 0h-3.4v-1.1h3.4v1.1Zm-6.8 0h-3.5v-1.1h3.5v1.1Zm-6.9 0h-3.5v-1.1h3.5v1.1Zm-6.9 0h-3.4v-1.1h3.4v1.1Zm-6.9 0h-3.4v-1.1H478v1.1Zm-6.8 0h-3.5v-1.1h3.5v1.1Zm-6.9 0h-3.5v-1.1h3.5v1.1Zm-6.9 0H454v-1.1h3.4v1.1Zm-6.9 0h-3.4v-1.1h3.4v1.1Zm-6.8 0h-3.5v-1.1h3.5v1.1Zm-6.9 0h-3.5v-1.1h3.5v1.1Zm-6.9 0h-3.4v-1.1h3.4v1.1Zm-6.9 0h-3.4v-1.1H423v1.1Zm-6.8 0h-3.5v-1.1h3.5v1.1Zm-6.9 0h-3.5v-1.1h3.5v1.1Zm-6.9 0H399v-1.1h3.4v1.1Zm-6.9 0h-3.4v-1.1h3.4v1.1Zm-6.8 0h-3.5v-1.1h3.5v1.1Zm-6.9 0h-3.5v-1.1h3.5v1.1Zm-6.9 0h-3.4v-1.1h3.4v1.1Zm-6.9 0h-3.4v-1.1H368v1.1Zm-6.8 0h-3.5v-1.1h3.5v1.1Zm-6.9 0h-3.5v-1.1h3.5v1.1Zm-6.9 0H344v-1.1h3.4v1.1Zm-6.9 .2c-1.2 .1 -2.2 .4 -3.1 .8l-.5 -1c1 -.5 2.2 -.8 3.4 -1l.2 1.2Zm-5.7 2.6c-.7 .8 -1.3 1.7 -1.7 2.7l-1.1 -.4c.5 -1.2 1.1 -2.2 1.9 -3.1l.9 .8Zm-2.5 5.8c-.1 .7 -.1 1.5 -.1 2.3v1.2H331v-1.2c0 -.9 .1 -1.7 .2 -2.4l1.1 .1Zm-.1 7v3.4H331v-3.4h1.2Zm0 6.8v3.5H331v-3.5h1.2Zm0 6.9v3.5H331V506h1.2Zm0 6.9v.6H331v-.6h1.2Z" class="g1_94"/>
<path d="M331.6 519.5l-2.7 -8l2.7 2l2.7 -2l-2.7 8Z" class="g1_94"/>
<path d="M331.6 519.5l-2.7 -8l2.7 2l2.7 -2l-2.7 8Z" class="g2_94"/>
<path d="M532.7 389.6h3.4v1.2h-3.4v-1.2Zm6.8 0H543v1.2h-3.5v-1.2Zm6.9 0h3.4v1.2h-3.4v-1.2Zm6.9 0h3.4v1.2h-3.4v-1.2Zm6.9 0h3.4v1.2h-3.4v-1.2Zm6.9 0c1.3 .1 2.5 .2 3.6 .5l-.3 1.1c-1 -.3 -2.1 -.4 -3.3 -.4v-1.2Zm6.9 1.9c1 .6 1.9 1.4 2.6 2.4l-1 .7c-.6 -.9 -1.3 -1.6 -2.2 -2.2l.6 -.9Zm4 5.7c.3 1.1 .5 2.3 .5 3.6h-1.1c-.1 -1.2 -.2 -2.3 -.5 -3.3l1.1 -.3Zm.5 7.1v3.5h-1.1v-3.5h1.1Zm0 6.9v3.4h-1.1v-3.4h1.1Zm0 6.9v3.4h-1.1v-3.4h1.1Zm0 6.9v3.4h-1.1V425h1.1Zm0 6.8v3.5h-1.1v-3.5h1.1Zm0 6.9v3.4h-1.1v-3.4h1.1Zm0 6.9V449h-1.1v-3.4h1.1Zm0 6.9v3.4h-1.1v-3.4h1.1Zm0 6.8v3.5h-1.1v-3.5h1.1Zm0 6.9v3.4h-1.1v-3.4h1.1Zm0 6.9v3c0 .2 0 .3 0 .5h-1.1c0 -.2 0 -.3 0 -.5v-3h1.1Zm-.4 7.1c-.3 1.2 -.7 2.3 -1.3 3.3l-1 -.6c.5 -.9 .9 -1.8 1.2 -3l1.1 .3Zm-3.8 5.9c-.9 .7 -2 1.2 -3.3 1.5l-.3 -1.1c1.2 -.3 2.1 -.7 3 -1.3l.6 .9Zm-6.8 2c-.3 .1 -.6 .1 -1 .1H564V487h2.5c.3 0 .7 0 1 0v1.1Zm-7 .1h-3.4V487h3.4v1.2Zm-6.8 0h-3.5V487h3.5v1.2Zm-6.9 0h-3.5V487h3.5v1.2Zm-6.9 0h-3.4V487h3.4v1.2Zm-6.9 0h-3.4V487H533v1.2Zm-6.8 0h-3.5V487h3.5v1.2Zm-6.9 0h-3.5V487h3.5v1.2Zm-6.9 0H509V487h3.4v1.2Zm-6.9 0h-3.4V487h3.4v1.2Zm-6.8 0h-3.5V487h3.5v1.2Zm-6.9 0h-3.5V487h3.5v1.2Zm-6.9 0h-3.4V487h3.4v1.2Zm-6.9 0h-3.4V487H478v1.2Zm-6.8 0h-3.5V487h3.5v1.2Zm-6.9 0h-3.5V487h3.5v1.2Zm-6.9 0H454V487h3.4v1.2Zm-6.9 0h-3.4V487h3.4v1.2Zm-6.8 0h-3.5V487h3.5v1.2Zm-6.9 0h-3.5V487h3.5v1.2Zm-6.9 0h-3.4V487h3.4v1.2Zm-6.9 0h-3.4V487H423v1.2Zm-6.8 0h-3.5V487h3.5v1.2Zm-6.9 0h-3.5V487h3.5v1.2Zm-6.9 0h-2c-.6 0 -1 0 -1.5 0l-.1 -1.1c.5 -.1 1 -.1 1.6 -.1h2v1.2Zm-6.7 .6c-1.1 .3 -2.1 .8 -2.9 1.5l-.7 -.9c.9 -.8 2 -1.3 3.3 -1.7l.3 1.1Zm-4.9 3.9c-.5 .8 -.8 1.8 -1 3l-1.2 -.2c.3 -1.3 .7 -2.4 1.2 -3.4l1 .6Zm-1.3 6.4v3.5h-1.2v-3.5h1.2Zm0 6.9v3.5h-1.2V506h1.2Zm0 6.9v.6h-1.2v-.6h1.2Z" class="g1_94"/>
<path d="M388.9 519.5l-2.7 -8l2.7 2l2.7 -2l-2.7 8Z" class="g1_94"/>
<path d="M388.9 519.5l-2.7 -8l2.7 2l2.7 -2l-2.7 8Z" class="g2_94"/>
<path d="M532.7 424h3.4v1.1h-3.4V424Zm6.8 0H543v1.1h-3.5V424Zm6.9 0h3.4v1.1h-3.4V424Zm6.9 0h3.4v1.1h-3.4V424Zm6.9 0h3.4v1.1h-3.4V424Zm6.8 0h3.5v1.1H567V424Zm6.9 0h3.4v1.1h-3.4V424Zm7.1 .2c1.3 .2 2.4 .6 3.4 1l-.5 1.1c-.9 -.5 -1.9 -.8 -3.1 -.9l.2 -1.2Zm6.3 3.2c.8 .9 1.4 1.9 1.8 3.1l-1 .4c-.4 -1.1 -1 -2 -1.7 -2.8l.9 -.7Zm2.6 6.5c.1 .7 .1 1.4 .1 2.1v1.6h-1.2V436c0 -.7 0 -1.3 -.1 -2l1.2 -.1Zm.1 7.1v3.4h-1.2V441H590Zm0 6.9v3.4h-1.2v-3.4H590Zm0 6.8v3.5h-1.2v-3.5H590Zm0 6.9v3.5h-1.2v-3.5H590Zm0 6.9v3.4h-1.2v-3.4H590Zm0 6.9v3.4h-1.2v-3.4H590Zm0 6.8v3.5h-1.2v-3.5H590Zm-.1 7.1c-.1 1.2 -.3 2.4 -.6 3.4l-1.1 -.4c.3 -.9 .5 -1.9 .6 -3.1l1.1 .1Zm-2.4 6.6c-.7 1 -1.6 1.7 -2.7 2.3l-.6 -1c1 -.5 1.8 -1.2 2.5 -2l.8 .7Zm-6.1 3.4c-1.1 .2 -2.2 .3 -3.4 .3h-.3v-1.1h.3c1.1 0 2.2 -.1 3.2 -.3l.2 1.1Zm-7.1 .3h-3.5v-1.1h3.5v1.1Zm-6.9 0H564v-1.1h3.4v1.1Zm-6.9 0h-3.4v-1.1h3.4v1.1Zm-6.8 0h-3.5v-1.1h3.5v1.1Zm-6.9 0h-3.5v-1.1h3.5v1.1Zm-6.9 0h-3.4v-1.1h3.4v1.1Zm-6.9 0h-3.4v-1.1H533v1.1Zm-6.8 0h-3.5v-1.1h3.5v1.1Zm-6.9 0h-3.5v-1.1h3.5v1.1Zm-6.9 0H509v-1.1h3.4v1.1Zm-6.9 0h-3.4v-1.1h3.4v1.1Zm-6.8 0h-3.5v-1.1h3.5v1.1Zm-6.9 0h-3.5v-1.1h3.5v1.1Zm-6.9 0h-3.4v-1.1h3.4v1.1Zm-6.9 0h-3.4v-1.1H478v1.1Zm-6.8 0h-3.5v-1.1h3.5v1.1Zm-6.9 0h-3.5v-1.1h3.5v1.1Zm-6.9 0c-1.3 0 -2.4 .1 -3.5 .3l-.1 -1.2c1.1 -.1 2.3 -.2 3.6 -.2v1.1Zm-6.7 1.1c-1.1 .4 -1.9 1 -2.6 1.7l-.8 -.8c.7 -.8 1.7 -1.5 3 -2l.4 1.1Zm-3.8 4.4c-.1 .4 -.1 .8 -.1 1.2v2.2h-1.2v-2.2c0 -.5 .1 -1 .1 -1.4l1.2 .2Zm-.1 6.8v1.6h-1.2v-1.6h1.2Z" class="g1_94"/>
<path d="M446.2 519.5l-2.7 -8l2.7 2l2.7 -2l-2.7 8Z" class="g1_94"/>
<path d="M446.2 519.5l-2.7 -8l2.7 2l2.7 -2l-2.7 8Zm-57.3 93v9.2c0 6.1 3.8 9.1 11.5 9.1h17.1c7.7 0 15.3 0 23 0H492c7.7 0 11.5 -1.8 11.5 -5.5v-5.5" class="g2_94"/>
<path d="M503.5 613.8l2.6 8l-2.6 -2l-2.7 2l2.7 -8Z" class="g1_94"/>
<path d="M503.5 613.8l2.6 8l-2.6 -2l-2.7 2l2.7 -8Z" class="g2_94"/>
<path d="M422.1 625.1h49.3V640H422.1V625.1Z" class="g0_94"/>
<path d="M532.1 520.8h57.3v91.7H532.1V520.8Z" class="g2_94"/>
</g>
</svg>