<?xml version="1.0" encoding="UTF-8" standalone="no"?>
<!DOCTYPE svg PUBLIC "-//W3C//DTD SVG 1.1//EN"
"http://www.w3.org/Graphics/SVG/1.1/DTD/svg11.dtd">
<svg viewBox="0 0 714 1017" version="1.1" xmlns="http://www.w3.org/2000/svg" xmlns:xlink="http://www.w3.org/1999/xlink">
<defs>
<clipPath id="c0_347"><path d="M92.9 496.1V325.4H599.4V496.1Z"/></clipPath>
<clipPath id="c1_347"><path d="M92.9 496.6V324H600.1V496.6Z"/></clipPath>
<style type="text/css"><![CDATA[
.g0_347{
fill: #FFF;
}
.g1_347{
fill: none;
stroke: #000;
stroke-width: 1.145;
stroke-miterlimit: 10;
}
.g2_347{
fill: #000;
}
]]></style>
</defs>
<path d="M0 1017.7H717.2V-3.7H0V1017.7Z" class="g0_347"/>
<g clip-path="url(#c1_347)">
<path clip-path="url(#c0_347)" d="M92.9 325.4H599.4V496.1H92.9V325.4Z" class="g0_347"/>
<path d="M220.1 326h81.3c.7 0 1.4 .1 2 .4c.7 .2 1.2 .6 1.7 1.1c.5 .5 .9 1 1.1 1.7c.3 .6 .4 1.2 .4 1.9v24.1c0 .7 -.1 1.3 -.4 2c-.2 .6 -.6 1.2 -1.1 1.6c-.5 .5 -1 .9 -1.7 1.2c-.6 .2 -1.3 .3 -2 .3H220.1c-.7 0 -1.3 -.1 -2 -.3c-.6 -.3 -1.2 -.7 -1.7 -1.2c-.4 -.4 -.8 -1 -1.1 -1.6c-.2 -.7 -.4 -1.3 -.4 -2V331.1c0 -.7 .2 -1.3 .4 -1.9c.3 -.7 .7 -1.2 1.1 -1.7c.5 -.5 1.1 -.9 1.7 -1.1c.7 -.3 1.3 -.4 2 -.4Z" class="g0_347"/>
<path d="M220.1 326h81.3c.7 0 1.4 .1 2 .4c.7 .2 1.2 .6 1.7 1.1c.5 .5 .9 1 1.1 1.7c.3 .6 .4 1.2 .4 1.9v24.1c0 .7 -.1 1.3 -.4 2c-.2 .6 -.6 1.2 -1.1 1.6c-.5 .5 -1 .9 -1.7 1.2c-.6 .2 -1.3 .3 -2 .3H220.1c-.7 0 -1.3 -.1 -2 -.3c-.6 -.3 -1.2 -.7 -1.7 -1.2c-.4 -.4 -.8 -1 -1.1 -1.6c-.2 -.7 -.4 -1.3 -.4 -2V331.1c0 -.7 .2 -1.3 .4 -1.9c.3 -.7 .7 -1.2 1.1 -1.7c.5 -.5 1.1 -.9 1.7 -1.1c.7 -.3 1.3 -.4 2 -.4Z" class="g1_347"/>
<path d="M397.7 415.3h81.4c.6 0 1.3 .1 1.9 .3c.7 .3 1.2 .7 1.7 1.2c.5 .4 .9 1 1.1 1.6c.3 .7 .4 1.3 .4 2v24.1c0 .7 -.1 1.3 -.4 1.9c-.2 .7 -.6 1.2 -1.1 1.7c-.5 .5 -1 .9 -1.7 1.1c-.6 .3 -1.3 .4 -1.9 .4H397.7c-.7 0 -1.3 -.1 -2 -.4c-.6 -.2 -1.2 -.6 -1.6 -1.1c-.5 -.5 -.9 -1 -1.2 -1.7c-.2 -.6 -.4 -1.2 -.4 -1.9V420.4c0 -.7 .2 -1.3 .4 -2c.3 -.6 .7 -1.2 1.2 -1.6c.4 -.5 1 -.9 1.6 -1.2c.7 -.2 1.3 -.3 2 -.3Z" class="g0_347"/>
<path d="M397.7 415.3h81.4c.6 0 1.3 .1 1.9 .3c.7 .3 1.2 .7 1.7 1.2c.5 .4 .9 1 1.1 1.6c.3 .7 .4 1.3 .4 2v24.1c0 .7 -.1 1.3 -.4 1.9c-.2 .7 -.6 1.2 -1.1 1.7c-.5 .5 -1 .9 -1.7 1.1c-.6 .3 -1.3 .4 -1.9 .4H397.7c-.7 0 -1.3 -.1 -2 -.4c-.6 -.2 -1.2 -.6 -1.6 -1.1c-.5 -.5 -.9 -1 -1.2 -1.7c-.2 -.6 -.4 -1.2 -.4 -1.9V420.4c0 -.7 .2 -1.3 .4 -2c.3 -.6 .7 -1.2 1.2 -1.6c.4 -.5 1 -.9 1.6 -1.2c.7 -.2 1.3 -.3 2 -.3Z" class="g1_347"/>
<path d="M178.3 415.3h81.3c.7 0 1.4 .1 2 .3c.6 .3 1.2 .7 1.7 1.2c.5 .4 .8 1 1.1 1.6c.3 .7 .4 1.3 .4 2v24.1c0 .7 -.1 1.3 -.4 1.9c-.3 .7 -.6 1.2 -1.1 1.7c-.5 .5 -1.1 .9 -1.7 1.1c-.6 .3 -1.3 .4 -2 .4H178.3c-.7 0 -1.4 -.1 -2 -.4c-.6 -.2 -1.2 -.6 -1.7 -1.1c-.5 -.5 -.8 -1 -1.1 -1.7c-.3 -.6 -.4 -1.2 -.4 -1.9V420.4c0 -.7 .1 -1.3 .4 -2c.3 -.6 .6 -1.2 1.1 -1.6c.5 -.5 1.1 -.9 1.7 -1.2c.6 -.2 1.3 -.3 2 -.3Z" class="g0_347"/>
<path d="M178.3 415.3h81.3c.7 0 1.4 .1 2 .3c.6 .3 1.2 .7 1.7 1.2c.5 .4 .8 1 1.1 1.6c.3 .7 .4 1.3 .4 2v24.1c0 .7 -.1 1.3 -.4 1.9c-.3 .7 -.6 1.2 -1.1 1.7c-.5 .5 -1.1 .9 -1.7 1.1c-.6 .3 -1.3 .4 -2 .4H178.3c-.7 0 -1.4 -.1 -2 -.4c-.6 -.2 -1.2 -.6 -1.7 -1.1c-.5 -.5 -.8 -1 -1.1 -1.7c-.3 -.6 -.4 -1.2 -.4 -1.9V420.4c0 -.7 .1 -1.3 .4 -2c.3 -.6 .6 -1.2 1.1 -1.6c.5 -.5 1.1 -.9 1.7 -1.2c.6 -.2 1.3 -.3 2 -.3ZM306.6 351.8l102.6 59.8" class="g1_347"/>
<path d="M414.3 414.6l-8.2 -1.7l3.1 -1.3l-.4 -3.3l5.5 6.3Z" class="g2_347"/>
<path d="M414.3 414.6l-8.2 -1.7l3.1 -1.3l-.4 -3.3l5.5 6.3ZM214.9 360.3l-37.4 49.1" class="g1_347"/>
<path d="M173.9 414.2l2.7 -8l.9 3.2l3.4 .1l-7 4.7Z" class="g2_347"/>
<path d="M173.9 414.2l2.7 -8l.9 3.2l3.4 .1l-7 4.7Z" class="g1_347"/>
<path d="M199.5 426.7h81.3c.7 0 1.4 .1 2 .4c.6 .3 1.2 .6 1.7 1.1c.5 .5 .8 1.1 1.1 1.7c.2 .6 .4 1.3 .4 2v24c0 .7 -.2 1.4 -.4 2c-.3 .6 -.6 1.2 -1.1 1.7c-.5 .5 -1.1 .8 -1.7 1.1c-.6 .3 -1.3 .4 -2 .4H199.5c-.7 0 -1.4 -.1 -2 -.4c-.6 -.3 -1.2 -.6 -1.7 -1.1c-.5 -.5 -.8 -1.1 -1.1 -1.7c-.3 -.6 -.4 -1.3 -.4 -2v-24c0 -.7 .1 -1.4 .4 -2c.3 -.6 .6 -1.2 1.1 -1.7c.5 -.5 1.1 -.8 1.7 -1.1c.6 -.3 1.3 -.4 2 -.4Z" class="g0_347"/>
<path d="M199.5 426.7h81.3c.7 0 1.4 .1 2 .4c.6 .3 1.2 .6 1.7 1.1c.5 .5 .8 1.1 1.1 1.7c.2 .6 .4 1.3 .4 2v24c0 .7 -.2 1.4 -.4 2c-.3 .6 -.6 1.2 -1.1 1.7c-.5 .5 -1.1 .8 -1.7 1.1c-.6 .3 -1.3 .4 -2 .4H199.5c-.7 0 -1.4 -.1 -2 -.4c-.6 -.3 -1.2 -.6 -1.7 -1.1c-.5 -.5 -.8 -1.1 -1.1 -1.7c-.3 -.6 -.4 -1.3 -.4 -2v-24c0 -.7 .1 -1.4 .4 -2c.3 -.6 .6 -1.2 1.1 -1.7c.5 -.5 1.1 -.8 1.7 -1.1c.6 -.3 1.3 -.4 2 -.4Z" class="g1_347"/>
<path d="M220.1 438.2h81.3c.7 0 1.4 .1 2 .4c.7 .2 1.2 .6 1.7 1.1c.5 .5 .9 1 1.1 1.7c.3 .6 .4 1.2 .4 1.9v24.1c0 .7 -.1 1.3 -.4 2c-.2 .6 -.6 1.2 -1.1 1.6c-.5 .5 -1 .9 -1.7 1.2c-.6 .2 -1.3 .3 -2 .3H220.1c-.7 0 -1.3 -.1 -2 -.3c-.6 -.3 -1.2 -.7 -1.7 -1.2c-.4 -.4 -.8 -1 -1.1 -1.6c-.2 -.7 -.4 -1.3 -.4 -2V443.3c0 -.7 .2 -1.3 .4 -1.9c.3 -.7 .7 -1.2 1.1 -1.7c.5 -.5 1.1 -.9 1.7 -1.1c.7 -.3 1.3 -.4 2 -.4Z" class="g0_347"/>
<path d="M220.1 438.2h81.3c.7 0 1.4 .1 2 .4c.7 .2 1.2 .6 1.7 1.1c.5 .5 .9 1 1.1 1.7c.3 .6 .4 1.2 .4 1.9v24.1c0 .7 -.1 1.3 -.4 2c-.2 .6 -.6 1.2 -1.1 1.6c-.5 .5 -1 .9 -1.7 1.2c-.6 .2 -1.3 .3 -2 .3H220.1c-.7 0 -1.3 -.1 -2 -.3c-.6 -.3 -1.2 -.7 -1.7 -1.2c-.4 -.4 -.8 -1 -1.1 -1.6c-.2 -.7 -.4 -1.3 -.4 -2V443.3c0 -.7 .2 -1.3 .4 -1.9c.3 -.7 .7 -1.2 1.1 -1.7c.5 -.5 1.1 -.9 1.7 -1.1c.7 -.3 1.3 -.4 2 -.4Z" class="g1_347"/>
<path d="M240.7 449.6h81.4c.7 0 1.3 .2 1.9 .4c.7 .3 1.2 .7 1.7 1.1c.5 .5 .9 1.1 1.1 1.7c.3 .6 .4 1.3 .4 2v24c0 .7 -.1 1.4 -.4 2c-.2 .7 -.6 1.2 -1.1 1.7c-.5 .5 -1 .9 -1.7 1.1c-.6 .3 -1.2 .4 -1.9 .4H240.7c-.7 0 -1.3 -.1 -2 -.4c-.6 -.2 -1.1 -.6 -1.6 -1.1c-.5 -.5 -.9 -1 -1.1 -1.7c-.3 -.6 -.4 -1.3 -.4 -2v-24c0 -.7 .1 -1.4 .4 -2c.2 -.6 .6 -1.2 1.1 -1.7c.5 -.4 1 -.8 1.6 -1.1c.7 -.2 1.3 -.4 2 -.4Z" class="g0_347"/>
<path d="M240.7 449.6h81.4c.7 0 1.3 .2 1.9 .4c.7 .3 1.2 .7 1.7 1.1c.5 .5 .9 1.1 1.1 1.7c.3 .6 .4 1.3 .4 2v24c0 .7 -.1 1.4 -.4 2c-.2 .7 -.6 1.2 -1.1 1.7c-.5 .5 -1 .9 -1.7 1.1c-.6 .3 -1.2 .4 -1.9 .4H240.7c-.7 0 -1.3 -.1 -2 -.4c-.6 -.2 -1.1 -.6 -1.6 -1.1c-.5 -.5 -.9 -1 -1.1 -1.7c-.3 -.6 -.4 -1.3 -.4 -2v-24c0 -.7 .1 -1.4 .4 -2c.2 -.6 .6 -1.2 1.1 -1.7c.5 -.4 1 -.8 1.6 -1.1c.7 -.2 1.3 -.4 2 -.4Z" class="g1_347"/>
<path d="M260.8 461.1h81.3c.7 0 1.4 .1 2 .4c.6 .2 1.2 .6 1.7 1.1c.5 .5 .8 1 1.1 1.7c.3 .6 .4 1.3 .4 1.9v24.1c0 .7 -.1 1.3 -.4 2c-.3 .6 -.6 1.2 -1.1 1.7c-.5 .4 -1.1 .8 -1.7 1.1c-.6 .2 -1.3 .4 -2 .4H260.8c-.7 0 -1.4 -.2 -2 -.4c-.6 -.3 -1.2 -.7 -1.7 -1.1c-.5 -.5 -.8 -1.1 -1.1 -1.7c-.3 -.7 -.4 -1.3 -.4 -2V466.2c0 -.6 .1 -1.3 .4 -1.9c.3 -.7 .6 -1.2 1.1 -1.7c.5 -.5 1.1 -.9 1.7 -1.1c.6 -.3 1.3 -.4 2 -.4Z" class="g0_347"/>
<path d="M260.8 461.1h81.3c.7 0 1.4 .1 2 .4c.6 .2 1.2 .6 1.7 1.1c.5 .5 .8 1 1.1 1.7c.3 .6 .4 1.3 .4 1.9v24.1c0 .7 -.1 1.3 -.4 2c-.3 .6 -.6 1.2 -1.1 1.7c-.5 .4 -1.1 .8 -1.7 1.1c-.6 .2 -1.3 .4 -2 .4H260.8c-.7 0 -1.4 -.2 -2 -.4c-.6 -.3 -1.2 -.7 -1.7 -1.1c-.5 -.5 -.8 -1.1 -1.1 -1.7c-.3 -.7 -.4 -1.3 -.4 -2V466.2c0 -.6 .1 -1.3 .4 -1.9c.3 -.7 .6 -1.2 1.1 -1.7c.5 -.5 1.1 -.9 1.7 -1.1c.6 -.3 1.3 -.4 2 -.4Z" class="g1_347"/>
<path d="M403.1 327.7h47.7c.6 0 1.2 .1 1.8 .4c.6 .2 1.1 .5 1.6 1c.4 .4 .8 1 1 1.6c.2 .5 .4 1.2 .4 1.8v22.4c0 .7 -.2 1.3 -.4 1.9c-.2 .5 -.6 1.1 -1 1.5c-.5 .5 -1 .8 -1.6 1.1c-.6 .2 -1.2 .3 -1.8 .3H403.1c-.7 0 -1.3 -.1 -1.9 -.3c-.6 -.3 -1.1 -.6 -1.5 -1.1c-.5 -.4 -.8 -1 -1.1 -1.5c-.2 -.6 -.3 -1.2 -.3 -1.9V332.5c0 -.6 .1 -1.3 .3 -1.8c.3 -.6 .6 -1.2 1.1 -1.6c.4 -.5 .9 -.8 1.5 -1c.6 -.3 1.2 -.4 1.9 -.4Z" class="g0_347"/>
<path d="M403.1 327.7h47.7c.6 0 1.2 .1 1.8 .4c.6 .2 1.1 .5 1.6 1c.4 .4 .8 1 1 1.6c.2 .5 .4 1.2 .4 1.8v22.4c0 .7 -.2 1.3 -.4 1.9c-.2 .5 -.6 1.1 -1 1.5c-.5 .5 -1 .8 -1.6 1.1c-.6 .2 -1.2 .3 -1.8 .3H403.1c-.7 0 -1.3 -.1 -1.9 -.3c-.6 -.3 -1.1 -.6 -1.5 -1.1c-.5 -.4 -.8 -1 -1.1 -1.5c-.2 -.6 -.3 -1.2 -.3 -1.9V332.5c0 -.6 .1 -1.3 .3 -1.8c.3 -.6 .6 -1.2 1.1 -1.6c.4 -.5 .9 -.8 1.5 -1c.6 -.3 1.2 -.4 1.9 -.4Z" class="g1_347"/>
<path d="M408.8 333.4h47.7c.6 0 1.2 .1 1.8 .4c.6 .2 1.1 .6 1.6 1c.4 .5 .8 1 1 1.6c.3 .6 .4 1.2 .4 1.8v22.4c0 .7 -.1 1.3 -.4 1.9c-.2 .6 -.6 1.1 -1 1.5c-.5 .5 -1 .8 -1.6 1.1c-.6 .2 -1.2 .3 -1.8 .3H408.8c-.6 0 -1.2 -.1 -1.8 -.3c-.6 -.3 -1.1 -.6 -1.6 -1.1c-.4 -.4 -.8 -.9 -1 -1.5c-.3 -.6 -.4 -1.2 -.4 -1.9V338.2c0 -.6 .1 -1.2 .4 -1.8c.2 -.6 .6 -1.1 1 -1.6c.5 -.4 1 -.8 1.6 -1c.6 -.3 1.2 -.4 1.8 -.4Z" class="g0_347"/>
<path d="M408.8 333.4h47.7c.6 0 1.2 .1 1.8 .4c.6 .2 1.1 .6 1.6 1c.4 .5 .8 1 1 1.6c.3 .6 .4 1.2 .4 1.8v22.4c0 .7 -.1 1.3 -.4 1.9c-.2 .6 -.6 1.1 -1 1.5c-.5 .5 -1 .8 -1.6 1.1c-.6 .2 -1.2 .3 -1.8 .3H408.8c-.6 0 -1.2 -.1 -1.8 -.3c-.6 -.3 -1.1 -.6 -1.6 -1.1c-.4 -.4 -.8 -.9 -1 -1.5c-.3 -.6 -.4 -1.2 -.4 -1.9V338.2c0 -.6 .1 -1.2 .4 -1.8c.2 -.6 .6 -1.1 1 -1.6c.5 -.4 1 -.8 1.6 -1c.6 -.3 1.2 -.4 1.8 -.4Z" class="g1_347"/>
<path d="M414.5 339.1h47.7c.7 0 1.3 .2 1.9 .4c.5 .3 1.1 .6 1.5 1.1c.5 .4 .8 .9 1.1 1.5c.2 .6 .3 1.2 .3 1.9v22.4c0 .6 -.1 1.2 -.3 1.8c-.3 .6 -.6 1.1 -1.1 1.6c-.4 .4 -1 .8 -1.5 1c-.6 .3 -1.2 .4 -1.9 .4H414.5c-.6 0 -1.2 -.1 -1.8 -.4c-.6 -.2 -1.1 -.6 -1.6 -1c-.4 -.5 -.8 -1 -1 -1.6c-.2 -.6 -.4 -1.2 -.4 -1.8V344c0 -.7 .2 -1.3 .4 -1.9c.2 -.6 .6 -1.1 1 -1.5c.5 -.5 1 -.8 1.6 -1.1c.6 -.2 1.2 -.4 1.8 -.4Z" class="g0_347"/>
<path d="M414.5 339.1h47.7c.7 0 1.3 .2 1.9 .4c.5 .3 1.1 .6 1.5 1.1c.5 .4 .8 .9 1.1 1.5c.2 .6 .3 1.2 .3 1.9v22.4c0 .6 -.1 1.2 -.3 1.8c-.3 .6 -.6 1.1 -1.1 1.6c-.4 .4 -1 .8 -1.5 1c-.6 .3 -1.2 .4 -1.9 .4H414.5c-.6 0 -1.2 -.1 -1.8 -.4c-.6 -.2 -1.1 -.6 -1.6 -1c-.4 -.5 -.8 -1 -1 -1.6c-.2 -.6 -.4 -1.2 -.4 -1.8V344c0 -.7 .2 -1.3 .4 -1.9c.2 -.6 .6 -1.1 1 -1.5c.5 -.5 1 -.8 1.6 -1.1c.6 -.2 1.2 -.4 1.8 -.4Zm-107.9 4.1l84.4 .5" class="g1_347"/>
<path d="M397 343.7l-8 2.6l2 -2.6L389 341l8 2.7Z" class="g2_347"/>
<path d="M397 343.7l-8 2.6l2 -2.6L389 341l8 2.7Zm41.4 71.6V378.5" class="g1_347"/>
<path d="M438.4 372.5l2.6 8l-2.6 -2l-2.7 2l2.7 -8Z" class="g2_347"/>
<path d="M438.4 372.5l2.6 8l-2.6 -2l-2.7 2l2.7 -8ZM165.1 415.3h-5.7c-3.9 0 -5.8 3.8 -5.8 11.4v17.2c0 7.6 -1.9 11.5 -5.7 11.5H145c-1.9 0 -.9 0 2.9 0h2.9c1.9 0 2.8 3.8 2.8 11.4V484c0 7.6 1.9 11.5 5.8 11.5h5.7M472.8 371.8h2.4c1.6 0 2.4 -3.6 2.4 -10.9v-5.4c0 -3.7 .8 -5.5 2.4 -5.5h1.3c.8 0 .4 0 -1.3 0h-1.2c-.8 0 -1.2 -3.6 -1.2 -10.9v-5.4c0 -3.6 -.8 -5.4 -2.4 -5.4h-2.4m-234.9 32L211 420.1" class="g1_347"/>
<path d="M208.6 425.6l.8 -8.4l1.6 2.9l3.3 -.7l-5.7 6.2Z" class="g2_347"/>
<path d="M208.6 425.6l.8 -8.4l1.6 2.9l3.3 -.7l-5.7 6.2Zm52.2 -65.3v70.6" class="g1_347"/>
<path d="M260.8 436.9l-2.7 -8l2.7 2l2.6 -2l-2.6 8Z" class="g2_347"/>
<path d="M260.8 436.9l-2.7 -8l2.7 2l2.6 -2l-2.6 8Zm22.9 -76.6l19 82.2" class="g1_347"/>
<path d="M304 448.4l-4.4 -7.2l3.1 1.3l2.1 -2.5l-.8 8.4Z" class="g2_347"/>
<path d="M304 448.4l-4.4 -7.2l3.1 1.3l2.1 -2.5l-.8 8.4Zm2.6 -88.1l38 94" class="g1_347"/>
<path d="M346.8 459.9l-5.5 -6.4l3.3 .8l1.7 -2.8l.5 8.4Z" class="g2_347"/>
<path d="M346.8 459.9l-5.5 -6.4l3.3 .8l1.7 -2.8l.5 8.4Zm45.7 -36.1l-99.2 2.7" class="g1_347"/>
<path d="M287.3 426.7l7.9 -2.9l-1.9 2.7l2.1 2.6l-8.1 -2.4Z" class="g2_347"/>
<path d="M287.3 426.7l7.9 -2.9l-1.9 2.7l2.1 2.6l-8.1 -2.4Zm105.2 5.7l-78.6 5.3" class="g1_347"/>
<path d="M307.9 438.1l7.8 -3.2l-1.8 2.8l2.2 2.5l-8.2 -2.1Z" class="g2_347"/>
<path d="M307.9 438.1l7.8 -3.2l-1.8 2.8l2.2 2.5l-8.2 -2.1Zm84.6 -22.8H272.1" class="g1_347"/>
<path d="M266.1 415.3l8 -2.7l-2 2.7l2 2.6l-8 -2.6Z" class="g2_347"/>
<path d="M266.1 415.3l8 -2.7l-2 2.7l2 2.6l-8 -2.6ZM392.5 441l-58 7.7" class="g1_347"/>
<path d="M328.5 449.5l7.6 -3.7l-1.6 2.9l2.3 2.4l-8.3 -1.6Z" class="g2_347"/>
<path d="M328.5 449.5l7.6 -3.7l-1.6 2.9l2.3 2.4l-8.3 -1.6Zm64 .1l-38.1 9.7" class="g1_347"/>
<path d="M348.5 460.8l7.1 -4.6l-1.2 3.1l2.6 2.1l-8.5 -.6Z" class="g2_347"/>
<path d="M348.5 460.8l7.1 -4.6l-1.2 3.1l2.6 2.1l-8.5 -.6Z" class="g1_347"/>
</g>
</svg>