<?xml version="1.0" encoding="UTF-8" standalone="no"?>
<!DOCTYPE svg PUBLIC "-//W3C//DTD SVG 1.1//EN"
"http://www.w3.org/Graphics/SVG/1.1/DTD/svg11.dtd">
<svg viewBox="0 0 714 1017" version="1.1" xmlns="http://www.w3.org/2000/svg" xmlns:xlink="http://www.w3.org/1999/xlink">
<defs>
<clipPath id="c0_127"><path d="M109.6 352.3V167.8H582.8V352.3Z"/></clipPath>
<clipPath id="c1_127"><path d="M74.6 883.3V653H618.5V883.3Z"/></clipPath>
<clipPath id="c2_127"><path d="M109.6 352.6V167.7H584.7V352.6Z"/></clipPath>
<clipPath id="c3_127"><path d="M74.6 883.6V652.9H618.5V883.6Z"/></clipPath>
<style type="text/css"><![CDATA[
.g0_127{
fill: #FFF;
}
.g1_127{
fill: none;
stroke: #000;
stroke-width: 1.145;
stroke-miterlimit: 10;
}
.g2_127{
fill: #000;
}
.g3_127{
fill: none;
stroke: #000;
stroke-width: 2.291;
stroke-miterlimit: 10;
}
]]></style>
</defs>
<path d="M0 1017.7H717.2V-3.7H0V1017.7Z" class="g0_127"/>
<g clip-path="url(#c2_127)">
<path clip-path="url(#c0_127)" d="M109.6 167.8H582.8V352.3H109.6V167.8Z" class="g0_127"/>
<path d="M111.3 256.6c0 -4.4 105.2 -8 234.9 -8c62.3 0 122 .8 166.1 2.3c44.1 1.5 68.8 3.6 68.8 5.7v87.1c0 2.1 -24.7 4.2 -68.8 5.7c-44.1 1.5 -103.8 2.3 -166.1 2.3c-129.7 0 -234.9 -3.6 -234.9 -8V256.6Z" class="g0_127"/>
<path d="M111.3 256.6c0 -4.4 105.2 -8 234.9 -8c62.3 0 122 .8 166.1 2.3c44.1 1.5 68.8 3.6 68.8 5.7v87.1c0 2.1 -24.7 4.2 -68.8 5.7c-44.1 1.5 -103.8 2.3 -166.1 2.3c-129.7 0 -234.9 -3.6 -234.9 -8V256.6Zm469.8 0c0 2.1 -24.7 4.2 -68.8 5.7c-44.1 1.5 -103.8 2.3 -166.1 2.3c-129.7 0 -234.9 -3.6 -234.9 -8" class="g1_127"/>
<path d="M133.1 278.4h34.4v22.9H133.1V278.4Z" class="g0_127"/>
<path d="M133.1 278.4h34.4v22.9H133.1V278.4Z" class="g1_127"/>
<path d="M178.9 278.4h34.4v22.9H178.9V278.4Z" class="g0_127"/>
<path d="M178.9 278.4h34.4v22.9H178.9V278.4Z" class="g1_127"/>
<path d="M224.7 278.4h34.4v22.9H224.7V278.4Z" class="g0_127"/>
<path d="M224.7 278.4h34.4v22.9H224.7V278.4Z" class="g1_127"/>
<path d="M133.1 307h34.4v22.9H133.1V307Z" class="g0_127"/>
<path d="M133.1 307h34.4v22.9H133.1V307Z" class="g1_127"/>
<path d="M178.9 307h34.4v22.9H178.9V307Z" class="g0_127"/>
<path d="M178.9 307h34.4v22.9H178.9V307Z" class="g1_127"/>
<path d="M224.7 307h34.4v22.9H224.7V307Z" class="g0_127"/>
<path d="M224.7 307h34.4v22.9H224.7V307Z" class="g1_127"/>
<path d="M283.2 278.4h34.4v22.9H283.2V278.4Z" class="g0_127"/>
<path d="M283.2 278.4h34.4v22.9H283.2V278.4Z" class="g1_127"/>
<path d="M329 278.4h34.4v22.9H329V278.4Z" class="g0_127"/>
<path d="M329 278.4h34.4v22.9H329V278.4Z" class="g1_127"/>
<path d="M374.9 278.4h34.3v22.9H374.9V278.4Z" class="g0_127"/>
<path d="M374.9 278.4h34.3v22.9H374.9V278.4Z" class="g1_127"/>
<path d="M283.2 307h34.4v22.9H283.2V307Z" class="g0_127"/>
<path d="M283.2 307h34.4v22.9H283.2V307Z" class="g1_127"/>
<path d="M329 307h34.4v22.9H329V307Z" class="g0_127"/>
<path d="M329 307h34.4v22.9H329V307Z" class="g1_127"/>
<path d="M374.9 307h34.3v22.9H374.9V307Z" class="g0_127"/>
<path d="M374.9 307h34.3v22.9H374.9V307Z" class="g1_127"/>
<path d="M432.1 278.4h34.4v22.9H432.1V278.4Z" class="g0_127"/>
<path d="M432.1 278.4h34.4v22.9H432.1V278.4Z" class="g1_127"/>
<path d="M478 278.4h34.4v22.9H478V278.4Z" class="g0_127"/>
<path d="M478 278.4h34.4v22.9H478V278.4Z" class="g1_127"/>
<path d="M523.8 278.4h34.4v22.9H523.8V278.4Z" class="g0_127"/>
<path d="M523.8 278.4h34.4v22.9H523.8V278.4Z" class="g1_127"/>
<path d="M432.1 307h34.4v22.9H432.1V307Z" class="g0_127"/>
<path d="M432.1 307h34.4v22.9H432.1V307Z" class="g1_127"/>
<path d="M478 307h34.4v22.9H478V307Z" class="g0_127"/>
<path d="M478 307h34.4v22.9H478V307Z" class="g1_127"/>
<path d="M523.8 307h34.4v22.9H523.8V307Z" class="g0_127"/>
<path d="M523.8 307h34.4v22.9H523.8V307Z" class="g1_127"/>
<path d="M134.2 269.8h3.5v1.1h-3.5v-1.1Zm6.9 0h3.4v1.1h-3.4v-1.1Zm6.9 0h3.4v1.1H148v-1.1Zm6.9 0h3.4v1.1h-3.4v-1.1Zm6.8 0h3.5v1.1h-3.5v-1.1Zm6.9 0H172v1.1h-3.4v-1.1Zm6.9 0h3.4v1.1h-3.4v-1.1Zm6.9 0h3.4v1.1h-3.4v-1.1Zm6.8 0h3.5v1.1h-3.5v-1.1Zm6.9 0h3.4v1.1h-3.4v-1.1Zm6.9 0h3.4v1.1H203v-1.1Zm6.9 0h3.4v1.1h-3.4v-1.1Zm6.8 0h3.5v1.1h-3.5v-1.1Zm6.9 0H227v1.1h-3.4v-1.1Zm6.9 0h3.4v1.1h-3.4v-1.1Zm6.9 0h3.4v1.1h-3.4v-1.1Zm6.8 0h3.5v1.1h-3.5v-1.1Zm6.9 0h3.4v1.1h-3.4v-1.1Zm6.9 0h3.4v1.1H258v-1.1Zm7.4 .6v3.4h-1.1v-3.4h1.1Zm0 6.8v3.5h-1.1v-3.5h1.1Zm0 6.9v3.4h-1.1v-3.4h1.1Zm0 6.9v3.4h-1.1V291h1.1Zm0 6.9v3.4h-1.1v-3.4h1.1Zm0 6.8v3.5h-1.1v-3.5h1.1Zm0 6.9V315h-1.1v-3.4h1.1Zm0 6.9v3.4h-1.1v-3.4h1.1Zm0 6.9v3.4h-1.1v-3.4h1.1Zm0 6.8v3.5h-1.1v-3.5h1.1Zm-.5 7.5h-3.5v-1.2h3.5v1.2Zm-6.9 0h-3.5v-1.2H258v1.2Zm-6.9 0h-3.4v-1.2h3.4v1.2Zm-6.9 0h-3.4v-1.2h3.4v1.2Zm-6.8 0h-3.5v-1.2h3.5v1.2Zm-6.9 0H227v-1.2h3.5v1.2Zm-6.9 0h-3.4v-1.2h3.4v1.2Zm-6.9 0h-3.4v-1.2h3.4v1.2Zm-6.8 0h-3.5v-1.2h3.5v1.2Zm-6.9 0h-3.5v-1.2H203v1.2Zm-6.9 0h-3.4v-1.2h3.4v1.2Zm-6.9 0h-3.4v-1.2h3.4v1.2Zm-6.8 0h-3.5v-1.2h3.5v1.2Zm-6.9 0H172v-1.2h3.5v1.2Zm-6.9 0h-3.4v-1.2h3.4v1.2Zm-6.9 0h-3.4v-1.2h3.4v1.2Zm-6.8 0h-3.5v-1.2h3.5v1.2Zm-6.9 0h-3.5v-1.2H148v1.2Zm-6.9 0h-3.4v-1.2h3.4v1.2Zm-6.9 0h-3.4v-1.2h3.4v1.2Zm-7.4 -.6v-3.4h1.1v3.4h-1.1Zm0 -6.9v-3.4h1.1v3.4h-1.1Zm0 -6.8v-3.5h1.1v3.5h-1.1Zm0 -6.9V315h1.1v3.5h-1.1Zm0 -6.9v-3.4h1.1v3.4h-1.1Zm0 -6.9v-3.4h1.1v3.4h-1.1Zm0 -6.8v-3.5h1.1v3.5h-1.1Zm0 -6.9v-3.5h1.1V291h-1.1Zm0 -6.9v-3.4h1.1v3.4h-1.1Zm0 -6.9v-3.4h1.1v3.4h-1.1Zm.6 -7.4h3.4v1.1h-3.4v-1.1Z" class="g2_127"/>
<path d="M284.3 269.8h3.5v1.1h-3.5v-1.1Zm6.9 0h3.4v1.1h-3.4v-1.1Zm6.9 0h3.4v1.1h-3.4v-1.1Zm6.9 0h3.4v1.1H305v-1.1Zm6.8 0h3.5v1.1h-3.5v-1.1Zm6.9 0h3.4v1.1h-3.4v-1.1Zm6.9 0H329v1.1h-3.4v-1.1Zm6.9 0h3.4v1.1h-3.4v-1.1Zm6.8 0h3.5v1.1h-3.5v-1.1Zm6.9 0h3.4v1.1h-3.4v-1.1Zm6.9 0h3.4v1.1h-3.4v-1.1Zm6.9 0h3.4v1.1H360v-1.1Zm6.8 0h3.5v1.1h-3.5v-1.1Zm6.9 0h3.4v1.1h-3.4v-1.1Zm6.9 0H384v1.1h-3.4v-1.1Zm6.9 0h3.4v1.1h-3.4v-1.1Zm6.8 0h3.5v1.1h-3.5v-1.1Zm6.9 0h3.4v1.1h-3.4v-1.1Zm6.9 0h3.4v1.1h-3.4v-1.1Zm7.4 .6v3.4h-1.1v-3.4h1.1Zm0 6.8v3.5h-1.1v-3.5h1.1Zm0 6.9v3.4h-1.1v-3.4h1.1Zm0 6.9v3.4h-1.1V291h1.1Zm0 6.9v3.4h-1.1v-3.4h1.1Zm0 6.8v3.5h-1.1v-3.5h1.1Zm0 6.9V315h-1.1v-3.4h1.1Zm0 6.9v3.4h-1.1v-3.4h1.1Zm0 6.9v3.4h-1.1v-3.4h1.1Zm0 6.8v3.5h-1.1v-3.5h1.1Zm-.5 7.5h-3.5v-1.2H415v1.2Zm-6.9 0h-3.5v-1.2h3.5v1.2Zm-6.9 0h-3.4v-1.2h3.4v1.2Zm-6.9 0h-3.4v-1.2h3.4v1.2Zm-6.8 0H384v-1.2h3.5v1.2Zm-6.9 0h-3.5v-1.2h3.5v1.2Zm-6.9 0h-3.4v-1.2h3.4v1.2Zm-6.9 0h-3.4v-1.2h3.4v1.2Zm-6.8 0h-3.5v-1.2H360v1.2Zm-6.9 0h-3.5v-1.2h3.5v1.2Zm-6.9 0h-3.4v-1.2h3.4v1.2Zm-6.9 0h-3.4v-1.2h3.4v1.2Zm-6.8 0H329v-1.2h3.5v1.2Zm-6.9 0h-3.5v-1.2h3.5v1.2Zm-6.9 0h-3.4v-1.2h3.4v1.2Zm-6.9 0h-3.4v-1.2h3.4v1.2Zm-6.8 0h-3.5v-1.2H305v1.2Zm-6.9 0h-3.5v-1.2h3.5v1.2Zm-6.9 0h-3.4v-1.2h3.4v1.2Zm-6.9 0h-3.4v-1.2h3.4v1.2Zm-7.4 -.6v-3.4H278v3.4h-1.1Zm0 -6.9v-3.4H278v3.4h-1.1Zm0 -6.8v-3.5H278v3.5h-1.1Zm0 -6.9V315H278v3.5h-1.1Zm0 -6.9v-3.4H278v3.4h-1.1Zm0 -6.9v-3.4H278v3.4h-1.1Zm0 -6.8v-3.5H278v3.5h-1.1Zm0 -6.9v-3.5H278V291h-1.1Zm0 -6.9v-3.4H278v3.4h-1.1Zm0 -6.9v-3.4H278v3.4h-1.1Zm.6 -7.4h3.4v1.1h-3.4v-1.1Z" class="g2_127"/>
<path d="M433.3 269.8h3.4v1.1h-3.4v-1.1Zm6.9 0h3.4v1.1h-3.4v-1.1Zm6.8 0h3.5v1.1H447v-1.1Zm6.9 0h3.5v1.1h-3.5v-1.1Zm6.9 0h3.4v1.1h-3.4v-1.1Zm6.9 0h3.4v1.1h-3.4v-1.1Zm6.8 0H478v1.1h-3.5v-1.1Zm6.9 0h3.5v1.1h-3.5v-1.1Zm6.9 0h3.4v1.1h-3.4v-1.1Zm6.9 0h3.4v1.1h-3.4v-1.1Zm6.8 0h3.5v1.1H502v-1.1Zm6.9 0h3.5v1.1h-3.5v-1.1Zm6.9 0h3.4v1.1h-3.4v-1.1Zm6.9 0h3.4v1.1h-3.4v-1.1Zm6.8 0H533v1.1h-3.5v-1.1Zm6.9 0h3.5v1.1h-3.5v-1.1Zm6.9 0h3.4v1.1h-3.4v-1.1Zm6.9 0h3.4v1.1h-3.4v-1.1Zm6.8 0h3.5v1.1H557v-1.1Zm7.5 .6v3.4h-1.2v-3.4h1.2Zm0 6.8v3.5h-1.2v-3.5h1.2Zm0 6.9v3.4h-1.2v-3.4h1.2Zm0 6.9v3.4h-1.2V291h1.2Zm0 6.9v3.4h-1.2v-3.4h1.2Zm0 6.8v3.5h-1.2v-3.5h1.2Zm0 6.9V315h-1.2v-3.4h1.2Zm0 6.9v3.4h-1.2v-3.4h1.2Zm0 6.9v3.4h-1.2v-3.4h1.2Zm0 6.8v3.5h-1.2v-3.5h1.2Zm-.6 7.5h-3.4v-1.2h3.4v1.2Zm-6.9 0h-3.4v-1.2H557v1.2Zm-6.8 0h-3.5v-1.2h3.5v1.2Zm-6.9 0h-3.4v-1.2h3.4v1.2Zm-6.9 0H533v-1.2h3.4v1.2Zm-6.9 0h-3.4v-1.2h3.4v1.2Zm-6.8 0h-3.5v-1.2h3.5v1.2Zm-6.9 0h-3.4v-1.2h3.4v1.2Zm-6.9 0h-3.4v-1.2h3.4v1.2Zm-6.9 0h-3.4v-1.2H502v1.2Zm-6.8 0h-3.5v-1.2h3.5v1.2Zm-6.9 0h-3.4v-1.2h3.4v1.2Zm-6.9 0H478v-1.2h3.4v1.2Zm-6.9 0h-3.4v-1.2h3.4v1.2Zm-6.8 0h-3.5v-1.2h3.5v1.2Zm-6.9 0h-3.4v-1.2h3.4v1.2Zm-6.9 0h-3.4v-1.2h3.4v1.2Zm-6.9 0h-3.4v-1.2H447v1.2Zm-6.8 0h-3.5v-1.2h3.5v1.2Zm-6.9 0h-3.4v-1.2h3.4v1.2Zm-7.5 -.6v-3.4H427v3.4h-1.2Zm0 -6.9v-3.4H427v3.4h-1.2Zm0 -6.8v-3.5H427v3.5h-1.2Zm0 -6.9V315H427v3.5h-1.2Zm0 -6.9v-3.4H427v3.4h-1.2Zm0 -6.9v-3.4H427v3.4h-1.2Zm0 -6.8v-3.5H427v3.5h-1.2Zm0 -6.9v-3.5H427V291h-1.2Zm0 -6.9v-3.4H427v3.4h-1.2Zm0 -6.9v-3.4H427v3.4h-1.2Zm.6 -7.4h3.5v1.1h-3.5v-1.1Z" class="g2_127"/>
<path d="M117 168.4H241.9c.5 0 .9 0 1.4 .1c.4 .1 .8 .2 1.3 .4c.4 .2 .8 .4 1.2 .6c.3 .3 .7 .6 1 .9c.3 .3 .6 .7 .9 1c.2 .4 .4 .8 .6 1.2c.2 .4 .3 .9 .4 1.3c.1 .4 .1 .9 .1 1.3v32.1c0 .5 0 .9 -.1 1.4c-.1 .4 -.2 .8 -.4 1.3c-.2 .4 -.4 .8 -.6 1.2c-.3 .3 -.6 .7 -.9 1c-.3 .3 -.7 .6 -1 .8c-.4 .3 -.8 .5 -1.2 .7c-.5 .2 -.9 .3 -1.3 .4c-.5 .1 -.9 .1 -1.4 .1H117c-.4 0 -.9 0 -1.3 -.1c-.4 -.1 -.9 -.2 -1.3 -.4c-.4 -.2 -.8 -.4 -1.2 -.7c-.4 -.2 -.7 -.5 -1 -.8c-.3 -.3 -.6 -.7 -.9 -1c-.2 -.4 -.4 -.8 -.6 -1.2c-.2 -.5 -.3 -.9 -.4 -1.3c-.1 -.5 -.1 -.9 -.1 -1.4V175.2c0 -.4 0 -.9 .1 -1.3c.1 -.4 .2 -.9 .4 -1.3c.2 -.4 .4 -.8 .6 -1.2c.3 -.3 .6 -.7 .9 -1c.3 -.3 .6 -.6 1 -.9c.4 -.2 .8 -.4 1.2 -.6c.4 -.2 .9 -.3 1.3 -.4c.4 -.1 .9 -.1 1.3 -.1Z" class="g0_127"/>
<path d="M117 168.4H241.9c.5 0 .9 0 1.4 .1c.4 .1 .8 .2 1.3 .4c.4 .2 .8 .4 1.2 .6c.3 .3 .7 .6 1 .9c.3 .3 .6 .7 .9 1c.2 .4 .4 .8 .6 1.2c.2 .4 .3 .9 .4 1.3c.1 .4 .1 .9 .1 1.3v32.1c0 .5 0 .9 -.1 1.4c-.1 .4 -.2 .8 -.4 1.3c-.2 .4 -.4 .8 -.6 1.2c-.3 .3 -.6 .7 -.9 1c-.3 .3 -.7 .6 -1 .8c-.4 .3 -.8 .5 -1.2 .7c-.5 .2 -.9 .3 -1.3 .4c-.5 .1 -.9 .1 -1.4 .1H117c-.4 0 -.9 0 -1.3 -.1c-.4 -.1 -.9 -.2 -1.3 -.4c-.4 -.2 -.8 -.4 -1.2 -.7c-.4 -.2 -.7 -.5 -1 -.8c-.3 -.3 -.6 -.7 -.9 -1c-.2 -.4 -.4 -.8 -.6 -1.2c-.2 -.5 -.3 -.9 -.4 -1.3c-.1 -.5 -.1 -.9 -.1 -1.4V175.2c0 -.4 0 -.9 .1 -1.3c.1 -.4 .2 -.9 .4 -1.3c.2 -.4 .4 -.8 .6 -1.2c.3 -.3 .6 -.7 .9 -1c.3 -.3 .6 -.6 1 -.9c.4 -.2 .8 -.4 1.2 -.6c.4 -.2 .9 -.3 1.3 -.4c.4 -.1 .9 -.1 1.3 -.1Z" class="g1_127"/>
<path d="M450.5 168.4H575.4c.4 0 .9 0 1.3 .1c.5 .1 .9 .2 1.3 .4c.4 .2 .8 .4 1.2 .6c.4 .3 .7 .6 1 .9c.4 .3 .6 .7 .9 1c.2 .4 .5 .8 .6 1.2c.2 .4 .3 .9 .4 1.3c.1 .4 .1 .9 .1 1.3v32.1c0 .5 0 .9 -.1 1.4c-.1 .4 -.2 .8 -.4 1.3c-.1 .4 -.4 .8 -.6 1.2c-.3 .3 -.5 .7 -.9 1c-.3 .3 -.6 .6 -1 .8c-.4 .3 -.8 .5 -1.2 .7c-.4 .2 -.8 .3 -1.3 .4c-.4 .1 -.9 .1 -1.3 .1H450.5c-.5 0 -.9 0 -1.4 -.1c-.4 -.1 -.8 -.2 -1.3 -.4c-.4 -.2 -.8 -.4 -1.1 -.7c-.4 -.2 -.8 -.5 -1.1 -.8c-.3 -.3 -.6 -.7 -.8 -1c-.3 -.4 -.5 -.8 -.7 -1.2c-.1 -.5 -.3 -.9 -.4 -1.3c-.1 -.5 -.1 -.9 -.1 -1.4V175.2c0 -.4 0 -.9 .1 -1.3c.1 -.4 .3 -.9 .4 -1.3c.2 -.4 .4 -.8 .7 -1.2c.2 -.3 .5 -.7 .8 -1c.3 -.3 .7 -.6 1.1 -.9c.3 -.2 .7 -.4 1.1 -.6c.5 -.2 .9 -.3 1.3 -.4c.5 -.1 .9 -.1 1.4 -.1Z" class="g0_127"/>
<path d="M450.5 168.4H575.4c.4 0 .9 0 1.3 .1c.5 .1 .9 .2 1.3 .4c.4 .2 .8 .4 1.2 .6c.4 .3 .7 .6 1 .9c.4 .3 .6 .7 .9 1c.2 .4 .5 .8 .6 1.2c.2 .4 .3 .9 .4 1.3c.1 .4 .1 .9 .1 1.3v32.1c0 .5 0 .9 -.1 1.4c-.1 .4 -.2 .8 -.4 1.3c-.1 .4 -.4 .8 -.6 1.2c-.3 .3 -.5 .7 -.9 1c-.3 .3 -.6 .6 -1 .8c-.4 .3 -.8 .5 -1.2 .7c-.4 .2 -.8 .3 -1.3 .4c-.4 .1 -.9 .1 -1.3 .1H450.5c-.5 0 -.9 0 -1.4 -.1c-.4 -.1 -.8 -.2 -1.3 -.4c-.4 -.2 -.8 -.4 -1.1 -.7c-.4 -.2 -.8 -.5 -1.1 -.8c-.3 -.3 -.6 -.7 -.8 -1c-.3 -.4 -.5 -.8 -.7 -1.2c-.1 -.5 -.3 -.9 -.4 -1.3c-.1 -.5 -.1 -.9 -.1 -1.4V175.2c0 -.4 0 -.9 .1 -1.3c.1 -.4 .3 -.9 .4 -1.3c.2 -.4 .4 -.8 .7 -1.2c.2 -.3 .5 -.7 .8 -1c.3 -.3 .7 -.6 1.1 -.9c.3 -.2 .7 -.4 1.1 -.6c.5 -.2 .9 -.3 1.3 -.4c.5 -.1 .9 -.1 1.4 -.1Z" class="g1_127"/>
<path d="M283.8 168.4H408.7c.4 0 .9 0 1.3 .1c.4 .1 .9 .2 1.3 .4c.4 .2 .8 .4 1.2 .6c.3 .3 .7 .6 1 .9c.3 .3 .6 .7 .9 1c.2 .4 .4 .8 .6 1.2c.2 .4 .3 .9 .4 1.3c.1 .4 .1 .9 .1 1.3v32.1c0 .5 0 .9 -.1 1.4c-.1 .4 -.2 .8 -.4 1.3c-.2 .4 -.4 .8 -.6 1.2c-.3 .3 -.6 .7 -.9 1c-.3 .3 -.7 .6 -1 .8c-.4 .3 -.8 .5 -1.2 .7c-.4 .2 -.9 .3 -1.3 .4c-.4 .1 -.9 .1 -1.3 .1H283.8c-.5 0 -.9 0 -1.4 -.1c-.4 -.1 -.9 -.2 -1.3 -.4c-.4 -.2 -.8 -.4 -1.2 -.7c-.3 -.2 -.7 -.5 -1 -.8c-.3 -.3 -.6 -.7 -.9 -1c-.2 -.4 -.4 -.8 -.6 -1.2c-.2 -.5 -.3 -.9 -.4 -1.3c-.1 -.5 -.1 -.9 -.1 -1.4V175.2c0 -.4 0 -.9 .1 -1.3c.1 -.4 .2 -.9 .4 -1.3c.2 -.4 .4 -.8 .6 -1.2c.3 -.3 .6 -.7 .9 -1c.3 -.3 .7 -.6 1 -.9c.4 -.2 .8 -.4 1.2 -.6c.4 -.2 .9 -.3 1.3 -.4c.5 -.1 .9 -.1 1.4 -.1Z" class="g0_127"/>
<path d="M283.8 168.4H408.7c.4 0 .9 0 1.3 .1c.4 .1 .9 .2 1.3 .4c.4 .2 .8 .4 1.2 .6c.3 .3 .7 .6 1 .9c.3 .3 .6 .7 .9 1c.2 .4 .4 .8 .6 1.2c.2 .4 .3 .9 .4 1.3c.1 .4 .1 .9 .1 1.3v32.1c0 .5 0 .9 -.1 1.4c-.1 .4 -.2 .8 -.4 1.3c-.2 .4 -.4 .8 -.6 1.2c-.3 .3 -.6 .7 -.9 1c-.3 .3 -.7 .6 -1 .8c-.4 .3 -.8 .5 -1.2 .7c-.4 .2 -.9 .3 -1.3 .4c-.4 .1 -.9 .1 -1.3 .1H283.8c-.5 0 -.9 0 -1.4 -.1c-.4 -.1 -.9 -.2 -1.3 -.4c-.4 -.2 -.8 -.4 -1.2 -.7c-.3 -.2 -.7 -.5 -1 -.8c-.3 -.3 -.6 -.7 -.9 -1c-.2 -.4 -.4 -.8 -.6 -1.2c-.2 -.5 -.3 -.9 -.4 -1.3c-.1 -.5 -.1 -.9 -.1 -1.4V175.2c0 -.4 0 -.9 .1 -1.3c.1 -.4 .2 -.9 .4 -1.3c.2 -.4 .4 -.8 .6 -1.2c.3 -.3 .6 -.7 .9 -1c.3 -.3 .7 -.6 1 -.9c.4 -.2 .8 -.4 1.2 -.6c.4 -.2 .9 -.3 1.3 -.4c.5 -.1 .9 -.1 1.4 -.1Zm62.4 45.8v27.1" class="g1_127"/>
<path d="M346.2 247.3l-2.7 -8l2.7 2l2.7 -2l-2.7 8Z" class="g2_127"/>
<path d="M346.2 247.3l-2.7 -8l2.7 2l2.7 -2l-2.7 8ZM512.9 214.2l.1 29.4" class="g1_127"/>
<path d="M513 249.6l-2.7 -8l2.7 2l2.6 -2l-2.6 8Z" class="g2_127"/>
<path d="M513 249.6l-2.7 -8l2.7 2l2.6 -2l-2.6 8ZM179.5 214.2l-.1 29.4" class="g1_127"/>
<path d="M179.4 249.6l-2.6 -8l2.6 2l2.7 -2l-2.7 8Z" class="g2_127"/>
<path d="M179.4 249.6l-2.6 -8l2.6 2l2.7 -2l-2.7 8Z" class="g1_127"/>
</g>
<g clip-path="url(#c3_127)">
<path clip-path="url(#c1_127)" d="M74.6 653H618.8V883.3H74.6V653Z" class="g0_127"/>
<path d="M203.8 653.6h99c1 0 2 .1 3 .3c1 .2 1.9 .4 2.9 .8c.9 .4 1.8 .9 2.6 1.4c.8 .6 1.6 1.2 2.3 1.9c.7 .7 1.3 1.5 1.9 2.3c.6 .9 1 1.7 1.4 2.7c.4 .9 .7 1.8 .9 2.8c.2 1 .3 2 .3 3v71c0 1 -.1 2 -.3 3c-.2 1 -.5 1.9 -.9 2.9c-.4 .9 -.8 1.8 -1.4 2.6c-.6 .8 -1.2 1.6 -1.9 2.3c-.7 .7 -1.5 1.3 -2.3 1.9c-.8 .6 -1.7 1 -2.6 1.4c-1 .4 -1.9 .7 -2.9 .9c-1 .2 -2 .3 -3 .3h-99c-1 0 -2 -.1 -3 -.3c-.9 -.2 -1.9 -.5 -2.8 -.9c-.9 -.4 -1.8 -.8 -2.6 -1.4c-.9 -.6 -1.6 -1.2 -2.4 -1.9c-.7 -.7 -1.3 -1.5 -1.8 -2.3c-.6 -.8 -1.1 -1.7 -1.5 -2.6c-.3 -1 -.6 -1.9 -.8 -2.9c-.2 -1 -.3 -2 -.3 -3v-71c0 -1 .1 -2 .3 -3c.2 -1 .5 -1.9 .8 -2.8c.4 -1 .9 -1.8 1.5 -2.7c.5 -.8 1.1 -1.6 1.8 -2.3c.8 -.7 1.5 -1.3 2.4 -1.9c.8 -.5 1.7 -1 2.6 -1.4c.9 -.4 1.9 -.6 2.8 -.8c1 -.2 2 -.3 3 -.3Z" class="g0_127"/>
<path d="M203.8 653.6h99c1 0 2 .1 3 .3c1 .2 1.9 .4 2.9 .8c.9 .4 1.8 .9 2.6 1.4c.8 .6 1.6 1.2 2.3 1.9c.7 .7 1.3 1.5 1.9 2.3c.6 .9 1 1.7 1.4 2.7c.4 .9 .7 1.8 .9 2.8c.2 1 .3 2 .3 3v71c0 1 -.1 2 -.3 3c-.2 1 -.5 1.9 -.9 2.9c-.4 .9 -.8 1.8 -1.4 2.6c-.6 .8 -1.2 1.6 -1.9 2.3c-.7 .7 -1.5 1.3 -2.3 1.9c-.8 .6 -1.7 1 -2.6 1.4c-1 .4 -1.9 .7 -2.9 .9c-1 .2 -2 .3 -3 .3h-99c-1 0 -2 -.1 -3 -.3c-.9 -.2 -1.9 -.5 -2.8 -.9c-.9 -.4 -1.8 -.8 -2.6 -1.4c-.9 -.6 -1.6 -1.2 -2.4 -1.9c-.7 -.7 -1.3 -1.5 -1.8 -2.3c-.6 -.8 -1.1 -1.7 -1.5 -2.6c-.3 -1 -.6 -1.9 -.8 -2.9c-.2 -1 -.3 -2 -.3 -3v-71c0 -1 .1 -2 .3 -3c.2 -1 .5 -1.9 .8 -2.8c.4 -1 .9 -1.8 1.5 -2.7c.5 -.8 1.1 -1.6 1.8 -2.3c.8 -.7 1.5 -1.3 2.4 -1.9c.8 -.5 1.7 -1 2.6 -1.4c.9 -.4 1.9 -.6 2.8 -.8c1 -.2 2 -.3 3 -.3Z" class="g1_127"/>
<path d="M201.2 659.3H231v22.9H201.2V659.3Z" class="g0_127"/>
<path d="M201.2 659.3H231v22.9H201.2V659.3Z" class="g3_127"/>
<path d="M237.9 659.3h29.7v22.9H237.9V659.3Z" class="g0_127"/>
<path d="M237.9 659.3h29.7v22.9H237.9V659.3Z" class="g3_127"/>
<path d="M274.5 659.3h29.8v22.9H274.5V659.3Z" class="g0_127"/>
<path d="M274.5 659.3h29.8v22.9H274.5V659.3Z" class="g3_127"/>
<path d="M201.2 693.7H231v22.9H201.2V693.7Z" class="g0_127"/>
<path d="M203.5 693.1h1.1v1.1h-1.1v-1.1Zm2.3 0h1.1v1.1h-1.1v-1.1Zm2.3 0h1.1v1.1h-1.1v-1.1Zm2.3 0h1.1v1.1h-1.1v-1.1Zm2.2 0h1.2v1.1h-1.2v-1.1Zm2.3 0h1.2v1.1h-1.2v-1.1Zm2.3 0h1.2v1.1h-1.2v-1.1Zm2.3 0h1.2v1.1h-1.2v-1.1Zm2.3 0H223v1.1h-1.2v-1.1Zm2.3 0h1.2v1.1h-1.2v-1.1Zm2.3 0h1.1v1.1h-1.1v-1.1Zm2.3 0h1.1v1.1h-1.1v-1.1Zm2.8 .6v1.1h-1.1v-1.1h1.1Zm0 2.3v1.1h-1.1V696h1.1Zm0 2.3v1.1h-1.1v-1.1h1.1Zm0 2.3v1.1h-1.1v-1.1h1.1Zm0 2.3V704h-1.1v-1.1h1.1Zm0 2.3v1.1h-1.1v-1.1h1.1Zm0 2.2v1.2h-1.1v-1.2h1.1Zm0 2.3v1.2h-1.1v-1.2h1.1Zm0 2.3v1.2h-1.1V712h1.1Zm0 2.3v1.2h-1.1v-1.2h1.1Zm-.6 2.9h-1.1V716h1.1v1.2Zm-2.3 0h-1.1V716h1.1v1.2Zm-2.2 0h-1.2V716h1.2v1.2Zm-2.3 0h-1.2V716h1.2v1.2Zm-2.3 0h-1.2V716h1.2v1.2Zm-2.3 0h-1.2V716h1.2v1.2Zm-2.3 0H216V716h1.2v1.2Zm-2.3 0h-1.2V716h1.2v1.2Zm-2.3 0h-1.1V716h1.1v1.2Zm-2.3 0h-1.1V716h1.1v1.2Zm-2.3 0h-1.1V716H208v1.2Zm-2.3 0h-1.1V716h1.1v1.2Zm-2.3 0h-1.1V716h1.1v1.2Zm-2.8 -.7v-1.1h1.2v1.1h-1.2Zm0 -2.2v-1.2h1.2v1.2h-1.2Zm0 -2.3v-1.2h1.2V712h-1.2Zm0 -2.3v-1.2h1.2v1.2h-1.2Zm0 -2.3v-1.2h1.2v1.2h-1.2Zm0 -2.3v-1.2h1.2v1.2h-1.2Zm0 -2.3v-1.1h1.2v1.1h-1.2Zm0 -2.3v-1.1h1.2v1.1h-1.2Zm0 -2.3v-1.1h1.2v1.1h-1.2Zm0 -2.3v-1.1h1.2v1.1h-1.2Zm.6 -2.8h1.1v1.1h-1.1v-1.1Z" class="g2_127"/>
<path d="M237.9 693.7h29.7v22.9H237.9V693.7Z" class="g0_127"/>
<path d="M240.1 693.1h1.2v1.1h-1.2v-1.1Zm2.3 0h1.2v1.1h-1.2v-1.1Zm2.3 0h1.2v1.1h-1.2v-1.1Zm2.3 0h1.2v1.1H247v-1.1Zm2.3 0h1.2v1.1h-1.2v-1.1Zm2.3 0h1.2v1.1h-1.2v-1.1Zm2.3 0H255v1.1h-1.1v-1.1Zm2.3 0h1.1v1.1h-1.1v-1.1Zm2.3 0h1.1v1.1h-1.1v-1.1Zm2.3 0h1.1v1.1h-1.1v-1.1Zm2.3 0h1.1v1.1h-1.1v-1.1Zm2.3 0h1.1v1.1h-1.1v-1.1Zm2.8 .6v1.1h-1.1v-1.1h1.1Zm0 2.3v1.1h-1.1V696h1.1Zm0 2.3v1.1h-1.1v-1.1h1.1Zm0 2.3v1.1h-1.1v-1.1h1.1Zm0 2.3V704h-1.1v-1.1h1.1Zm0 2.3v1.1h-1.1v-1.1h1.1Zm0 2.2v1.2h-1.1v-1.2h1.1Zm0 2.3v1.2h-1.1v-1.2h1.1Zm0 2.3v1.2h-1.1V712h1.1Zm0 2.3v1.2h-1.1v-1.2h1.1Zm-.6 2.9h-1.1V716h1.1v1.2Zm-2.3 0h-1.1V716h1.1v1.2Zm-2.3 0h-1.1V716H263v1.2Zm-2.3 0h-1.1V716h1.1v1.2Zm-2.3 0h-1.1V716h1.1v1.2Zm-2.3 0H255V716h1.1v1.2Zm-2.2 0h-1.2V716h1.2v1.2Zm-2.3 0h-1.2V716h1.2v1.2Zm-2.3 0h-1.2V716h1.2v1.2Zm-2.3 0h-1.2V716H247v1.2Zm-2.3 0h-1.2V716h1.2v1.2Zm-2.3 0h-1.2V716h1.2v1.2Zm-2.3 0H239V716h1.1v1.2Zm-2.8 -.7v-1.1h1.1v1.1h-1.1Zm0 -2.2v-1.2h1.1v1.2h-1.1Zm0 -2.3v-1.2h1.1V712h-1.1Zm0 -2.3v-1.2h1.1v1.2h-1.1Zm0 -2.3v-1.2h1.1v1.2h-1.1Zm0 -2.3v-1.2h1.1v1.2h-1.1Zm0 -2.3v-1.1h1.1v1.1h-1.1Zm0 -2.3v-1.1h1.1v1.1h-1.1Zm0 -2.3v-1.1h1.1v1.1h-1.1Zm0 -2.3v-1.1h1.1v1.1h-1.1Zm.6 -2.8H239v1.1h-1.1v-1.1Z" class="g2_127"/>
<path d="M274.5 693.7h29.8v22.9H274.5V693.7Z" class="g0_127"/>
<path d="M276.8 693.1H278v1.1h-1.2v-1.1Zm2.3 0h1.2v1.1h-1.2v-1.1Zm2.3 0h1.1v1.1h-1.1v-1.1Zm2.3 0h1.1v1.1h-1.1v-1.1Zm2.3 0h1.1v1.1H286v-1.1Zm2.3 0h1.1v1.1h-1.1v-1.1Zm2.3 0h1.1v1.1h-1.1v-1.1Zm2.3 0H294v1.1h-1.1v-1.1Zm2.2 0h1.2v1.1h-1.2v-1.1Zm2.3 0h1.2v1.1h-1.2v-1.1Zm2.3 0h1.2v1.1h-1.2v-1.1Zm2.3 0h1.2v1.1H302v-1.1Zm2.9 .6v1.1h-1.2v-1.1h1.2Zm0 2.3v1.1h-1.2V696h1.2Zm0 2.3v1.1h-1.2v-1.1h1.2Zm0 2.3v1.1h-1.2v-1.1h1.2Zm0 2.3V704h-1.2v-1.1h1.2Zm0 2.3v1.1h-1.2v-1.1h1.2Zm0 2.2v1.2h-1.2v-1.2h1.2Zm0 2.3v1.2h-1.2v-1.2h1.2Zm0 2.3v1.2h-1.2V712h1.2Zm0 2.3v1.2h-1.2v-1.2h1.2Zm-.6 2.9h-1.2V716h1.2v1.2Zm-2.3 0h-1.2V716H302v1.2Zm-2.3 0h-1.2V716h1.2v1.2Zm-2.3 0h-1.2V716h1.2v1.2Zm-2.3 0H294V716h1.1v1.2Zm-2.3 0h-1.1V716h1.1v1.2Zm-2.3 0h-1.1V716h1.1v1.2Zm-2.3 0h-1.1V716h1.1v1.2Zm-2.3 0h-1.1V716h1.1v1.2Zm-2.3 0h-1.1V716h1.1v1.2Zm-2.2 0h-1.2V716h1.2v1.2Zm-2.3 0h-1.2V716h1.2v1.2Zm-2.3 0h-1.2V716h1.2v1.2Zm-2.9 -.7v-1.1h1.2v1.1h-1.2Zm0 -2.2v-1.2h1.2v1.2h-1.2Zm0 -2.3v-1.2h1.2V712h-1.2Zm0 -2.3v-1.2h1.2v1.2h-1.2Zm0 -2.3v-1.2h1.2v1.2h-1.2Zm0 -2.3v-1.2h1.2v1.2h-1.2Zm0 -2.3v-1.1h1.2v1.1h-1.2Zm0 -2.3v-1.1h1.2v1.1h-1.2Zm0 -2.3v-1.1h1.2v1.1h-1.2Zm0 -2.3v-1.1h1.2v1.1h-1.2Zm.6 -2.8h1.2v1.1h-1.2v-1.1Z" class="g2_127"/>
<path d="M201.2 726.9H231v22.9H201.2V726.9Z" class="g0_127"/>
<path d="M203.5 726.3h1.1v1.2h-1.1v-1.2Zm2.3 0h1.1v1.2h-1.1v-1.2Zm2.3 0h1.1v1.2h-1.1v-1.2Zm2.3 0h1.1v1.2h-1.1v-1.2Zm2.2 0h1.2v1.2h-1.2v-1.2Zm2.3 0h1.2v1.2h-1.2v-1.2Zm2.3 0h1.2v1.2h-1.2v-1.2Zm2.3 0h1.2v1.2h-1.2v-1.2Zm2.3 0H223v1.2h-1.2v-1.2Zm2.3 0h1.2v1.2h-1.2v-1.2Zm2.3 0h1.1v1.2h-1.1v-1.2Zm2.3 0h1.1v1.2h-1.1v-1.2Zm2.8 .6v1.2h-1.1v-1.2h1.1Zm0 2.3v1.2h-1.1v-1.2h1.1Zm0 2.3v1.2h-1.1v-1.2h1.1Zm0 2.3v1.1h-1.1v-1.1h1.1Zm0 2.3v1.1h-1.1v-1.1h1.1Zm0 2.3v1.1h-1.1v-1.1h1.1Zm0 2.3v1.1h-1.1v-1.1h1.1Zm0 2.3v1.1h-1.1V743h1.1Zm0 2.3v1.1h-1.1v-1.1h1.1Zm0 2.3v1.1h-1.1v-1.1h1.1Zm-.6 2.8h-1.1v-1.2h1.1v1.2Zm-2.3 0h-1.1v-1.2h1.1v1.2Zm-2.2 0h-1.2v-1.2h1.2v1.2Zm-2.3 0h-1.2v-1.2h1.2v1.2Zm-2.3 0h-1.2v-1.2h1.2v1.2Zm-2.3 0h-1.2v-1.2h1.2v1.2Zm-2.3 0H216v-1.2h1.2v1.2Zm-2.3 0h-1.2v-1.2h1.2v1.2Zm-2.3 0h-1.1v-1.2h1.1v1.2Zm-2.3 0h-1.1v-1.2h1.1v1.2Zm-2.3 0h-1.1v-1.2H208v1.2Zm-2.3 0h-1.1v-1.2h1.1v1.2Zm-2.3 0h-1.1v-1.2h1.1v1.2Zm-2.8 -.6v-1.2h1.2v1.2h-1.2Zm0 -2.3v-1.2h1.2v1.2h-1.2Zm0 -2.3V744h1.2v1.2h-1.2Zm0 -2.3v-1.1h1.2v1.1h-1.2Zm0 -2.3v-1.1h1.2v1.1h-1.2Zm0 -2.3v-1.1h1.2v1.1h-1.2Zm0 -2.3v-1.1h1.2V736h-1.2Zm0 -2.3v-1.1h1.2v1.1h-1.2Zm0 -2.3v-1.1h1.2v1.1h-1.2Zm0 -2.2V728h1.2v1.2h-1.2Zm.6 -2.9h1.1v1.2h-1.1v-1.2Z" class="g2_127"/>
<path d="M237.9 726.9h29.7v22.9H237.9V726.9Z" class="g0_127"/>
<path d="M240.1 726.3h1.2v1.2h-1.2v-1.2Zm2.3 0h1.2v1.2h-1.2v-1.2Zm2.3 0h1.2v1.2h-1.2v-1.2Zm2.3 0h1.2v1.2H247v-1.2Zm2.3 0h1.2v1.2h-1.2v-1.2Zm2.3 0h1.2v1.2h-1.2v-1.2Zm2.3 0H255v1.2h-1.1v-1.2Zm2.3 0h1.1v1.2h-1.1v-1.2Zm2.3 0h1.1v1.2h-1.1v-1.2Zm2.3 0h1.1v1.2h-1.1v-1.2Zm2.3 0h1.1v1.2h-1.1v-1.2Zm2.3 0h1.1v1.2h-1.1v-1.2Zm2.8 .6v1.2h-1.1v-1.2h1.1Zm0 2.3v1.2h-1.1v-1.2h1.1Zm0 2.3v1.2h-1.1v-1.2h1.1Zm0 2.3v1.1h-1.1v-1.1h1.1Zm0 2.3v1.1h-1.1v-1.1h1.1Zm0 2.3v1.1h-1.1v-1.1h1.1Zm0 2.3v1.1h-1.1v-1.1h1.1Zm0 2.3v1.1h-1.1V743h1.1Zm0 2.3v1.1h-1.1v-1.1h1.1Zm0 2.3v1.1h-1.1v-1.1h1.1Zm-.6 2.8h-1.1v-1.2h1.1v1.2Zm-2.3 0h-1.1v-1.2h1.1v1.2Zm-2.3 0h-1.1v-1.2H263v1.2Zm-2.3 0h-1.1v-1.2h1.1v1.2Zm-2.3 0h-1.1v-1.2h1.1v1.2Zm-2.3 0H255v-1.2h1.1v1.2Zm-2.2 0h-1.2v-1.2h1.2v1.2Zm-2.3 0h-1.2v-1.2h1.2v1.2Zm-2.3 0h-1.2v-1.2h1.2v1.2Zm-2.3 0h-1.2v-1.2H247v1.2Zm-2.3 0h-1.2v-1.2h1.2v1.2Zm-2.3 0h-1.2v-1.2h1.2v1.2Zm-2.3 0H239v-1.2h1.1v1.2Zm-2.8 -.6v-1.2h1.1v1.2h-1.1Zm0 -2.3v-1.2h1.1v1.2h-1.1Zm0 -2.3V744h1.1v1.2h-1.1Zm0 -2.3v-1.1h1.1v1.1h-1.1Zm0 -2.3v-1.1h1.1v1.1h-1.1Zm0 -2.3v-1.1h1.1v1.1h-1.1Zm0 -2.3v-1.1h1.1V736h-1.1Zm0 -2.3v-1.1h1.1v1.1h-1.1Zm0 -2.3v-1.1h1.1v1.1h-1.1Zm0 -2.2V728h1.1v1.2h-1.1Zm.6 -2.9H239v1.2h-1.1v-1.2Z" class="g2_127"/>
<path d="M274.5 726.9h29.8v22.9H274.5V726.9Z" class="g0_127"/>
<path d="M276.8 726.3H278v1.2h-1.2v-1.2Zm2.3 0h1.2v1.2h-1.2v-1.2Zm2.3 0h1.1v1.2h-1.1v-1.2Zm2.3 0h1.1v1.2h-1.1v-1.2Zm2.3 0h1.1v1.2H286v-1.2Zm2.3 0h1.1v1.2h-1.1v-1.2Zm2.3 0h1.1v1.2h-1.1v-1.2Zm2.3 0H294v1.2h-1.1v-1.2Zm2.2 0h1.2v1.2h-1.2v-1.2Zm2.3 0h1.2v1.2h-1.2v-1.2Zm2.3 0h1.2v1.2h-1.2v-1.2Zm2.3 0h1.2v1.2H302v-1.2Zm2.9 .6v1.2h-1.2v-1.2h1.2Zm0 2.3v1.2h-1.2v-1.2h1.2Zm0 2.3v1.2h-1.2v-1.2h1.2Zm0 2.3v1.1h-1.2v-1.1h1.2Zm0 2.3v1.1h-1.2v-1.1h1.2Zm0 2.3v1.1h-1.2v-1.1h1.2Zm0 2.3v1.1h-1.2v-1.1h1.2Zm0 2.3v1.1h-1.2V743h1.2Zm0 2.3v1.1h-1.2v-1.1h1.2Zm0 2.3v1.1h-1.2v-1.1h1.2Zm-.6 2.8h-1.2v-1.2h1.2v1.2Zm-2.3 0h-1.2v-1.2H302v1.2Zm-2.3 0h-1.2v-1.2h1.2v1.2Zm-2.3 0h-1.2v-1.2h1.2v1.2Zm-2.3 0H294v-1.2h1.1v1.2Zm-2.3 0h-1.1v-1.2h1.1v1.2Zm-2.3 0h-1.1v-1.2h1.1v1.2Zm-2.3 0h-1.1v-1.2h1.1v1.2Zm-2.3 0h-1.1v-1.2h1.1v1.2Zm-2.3 0h-1.1v-1.2h1.1v1.2Zm-2.2 0h-1.2v-1.2h1.2v1.2Zm-2.3 0h-1.2v-1.2h1.2v1.2Zm-2.3 0h-1.2v-1.2h1.2v1.2Zm-2.9 -.6v-1.2h1.2v1.2h-1.2Zm0 -2.3v-1.2h1.2v1.2h-1.2Zm0 -2.3V744h1.2v1.2h-1.2Zm0 -2.3v-1.1h1.2v1.1h-1.2Zm0 -2.3v-1.1h1.2v1.1h-1.2Zm0 -2.3v-1.1h1.2v1.1h-1.2Zm0 -2.3v-1.1h1.2V736h-1.2Zm0 -2.3v-1.1h1.2v1.1h-1.2Zm0 -2.3v-1.1h1.2v1.1h-1.2Zm0 -2.2V728h1.2v1.2h-1.2Zm.6 -2.9h1.2v1.2h-1.2v-1.2Z" class="g2_127"/>
<path d="M351.1 653.6h99c1 0 2 .1 2.9 .3c1 .2 2 .4 2.9 .8c.9 .4 1.8 .9 2.6 1.4c.9 .6 1.6 1.2 2.3 1.9c.7 .7 1.4 1.5 1.9 2.3c.6 .9 1.1 1.7 1.4 2.7c.4 .9 .7 1.8 .9 2.8c.2 1 .3 2 .3 3v71c0 1 -.1 2 -.3 3c-.2 1 -.5 1.9 -.9 2.9c-.3 .9 -.8 1.8 -1.4 2.6c-.5 .8 -1.2 1.6 -1.9 2.3c-.7 .7 -1.4 1.3 -2.3 1.9c-.8 .6 -1.7 1 -2.6 1.4c-.9 .4 -1.9 .7 -2.9 .9c-.9 .2 -1.9 .3 -2.9 .3h-99c-1 0 -2 -.1 -3 -.3c-1 -.2 -2 -.5 -2.9 -.9c-.9 -.4 -1.8 -.8 -2.6 -1.4c-.8 -.6 -1.6 -1.2 -2.3 -1.9c-.7 -.7 -1.4 -1.5 -1.9 -2.3c-.6 -.8 -1 -1.7 -1.4 -2.6c-.4 -1 -.7 -1.9 -.9 -2.9c-.2 -1 -.3 -2 -.3 -3v-71c0 -1 .1 -2 .3 -3c.2 -1 .5 -1.9 .9 -2.8c.4 -1 .8 -1.8 1.4 -2.7c.5 -.8 1.2 -1.6 1.9 -2.3c.7 -.7 1.5 -1.3 2.3 -1.9c.8 -.5 1.7 -1 2.6 -1.4c.9 -.4 1.9 -.6 2.9 -.8c1 -.2 2 -.3 3 -.3Z" class="g0_127"/>
<path d="M351.1 653.6h99c1 0 2 .1 2.9 .3c1 .2 2 .4 2.9 .8c.9 .4 1.8 .9 2.6 1.4c.9 .6 1.6 1.2 2.3 1.9c.7 .7 1.4 1.5 1.9 2.3c.6 .9 1.1 1.7 1.4 2.7c.4 .9 .7 1.8 .9 2.8c.2 1 .3 2 .3 3v71c0 1 -.1 2 -.3 3c-.2 1 -.5 1.9 -.9 2.9c-.3 .9 -.8 1.8 -1.4 2.6c-.5 .8 -1.2 1.6 -1.9 2.3c-.7 .7 -1.4 1.3 -2.3 1.9c-.8 .6 -1.7 1 -2.6 1.4c-.9 .4 -1.9 .7 -2.9 .9c-.9 .2 -1.9 .3 -2.9 .3h-99c-1 0 -2 -.1 -3 -.3c-1 -.2 -2 -.5 -2.9 -.9c-.9 -.4 -1.8 -.8 -2.6 -1.4c-.8 -.6 -1.6 -1.2 -2.3 -1.9c-.7 -.7 -1.4 -1.5 -1.9 -2.3c-.6 -.8 -1 -1.7 -1.4 -2.6c-.4 -1 -.7 -1.9 -.9 -2.9c-.2 -1 -.3 -2 -.3 -3v-71c0 -1 .1 -2 .3 -3c.2 -1 .5 -1.9 .9 -2.8c.4 -1 .8 -1.8 1.4 -2.7c.5 -.8 1.2 -1.6 1.9 -2.3c.7 -.7 1.5 -1.3 2.3 -1.9c.8 -.5 1.7 -1 2.6 -1.4c.9 -.4 1.9 -.6 2.9 -.8c1 -.2 2 -.3 3 -.3Z" class="g1_127"/>
<path d="M348.4 659.3h29.8v22.9H348.4V659.3Z" class="g0_127"/>
<path d="M348.4 659.3h29.8v22.9H348.4V659.3Z" class="g3_127"/>
<path d="M385.1 659.3h29.8v22.9H385.1V659.3Z" class="g0_127"/>
<path d="M385.1 659.3h29.8v22.9H385.1V659.3Z" class="g3_127"/>
<path d="M421.8 659.3h29.7v22.9H421.8V659.3Z" class="g0_127"/>
<path d="M421.8 659.3h29.7v22.9H421.8V659.3Z" class="g3_127"/>
<path d="M348.4 693.7h29.8v22.9H348.4V693.7Z" class="g0_127"/>
<path d="M350.7 693.1h1.2v1.1h-1.2v-1.1Zm2.3 0h1.2v1.1H353v-1.1Zm2.3 0h1.1v1.1h-1.1v-1.1Zm2.3 0h1.1v1.1h-1.1v-1.1Zm2.3 0H361v1.1h-1.1v-1.1Zm2.3 0h1.1v1.1h-1.1v-1.1Zm2.3 0h1.1v1.1h-1.1v-1.1Zm2.3 0h1.1v1.1h-1.1v-1.1Zm2.3 0h1.1v1.1h-1.1v-1.1Zm2.2 0h1.2v1.1h-1.2v-1.1Zm2.3 0h1.2v1.1h-1.2v-1.1Zm2.3 0h1.2v1.1h-1.2v-1.1Zm2.9 .6v1.1h-1.2v-1.1h1.2Zm0 2.3v1.1h-1.2V696h1.2Zm0 2.3v1.1h-1.2v-1.1h1.2Zm0 2.3v1.1h-1.2v-1.1h1.2Zm0 2.3V704h-1.2v-1.1h1.2Zm0 2.3v1.1h-1.2v-1.1h1.2Zm0 2.2v1.2h-1.2v-1.2h1.2Zm0 2.3v1.2h-1.2v-1.2h1.2Zm0 2.3v1.2h-1.2V712h1.2Zm0 2.3v1.2h-1.2v-1.2h1.2Zm-.6 2.9H377V716h1.2v1.2Zm-2.3 0h-1.2V716h1.2v1.2Zm-2.3 0h-1.2V716h1.2v1.2Zm-2.3 0h-1.1V716h1.1v1.2Zm-2.3 0h-1.1V716H369v1.2Zm-2.3 0h-1.1V716h1.1v1.2Zm-2.3 0h-1.1V716h1.1v1.2Zm-2.3 0H361V716h1.1v1.2Zm-2.3 0h-1.1V716h1.1v1.2Zm-2.3 0h-1.1V716h1.1v1.2Zm-2.2 0h-1.2V716h1.2v1.2Zm-2.3 0h-1.2V716H353v1.2Zm-2.3 0h-1.2V716h1.2v1.2Zm-2.8 -.7v-1.1H349v1.1h-1.1Zm0 -2.2v-1.2H349v1.2h-1.1Zm0 -2.3v-1.2H349V712h-1.1Zm0 -2.3v-1.2H349v1.2h-1.1Zm0 -2.3v-1.2H349v1.2h-1.1Zm0 -2.3v-1.2H349v1.2h-1.1Zm0 -2.3v-1.1H349v1.1h-1.1Zm0 -2.3v-1.1H349v1.1h-1.1Zm0 -2.3v-1.1H349v1.1h-1.1Zm0 -2.3v-1.1H349v1.1h-1.1Zm.5 -2.8h1.2v1.1h-1.2v-1.1Z" class="g2_127"/>
<path d="M385.1 693.7h29.8v22.9H385.1V693.7Z" class="g0_127"/>
<path d="M387.4 693.1h1.1v1.1h-1.1v-1.1Zm2.3 0h1.1v1.1h-1.1v-1.1Zm2.3 0h1.1v1.1H392v-1.1Zm2.3 0h1.1v1.1h-1.1v-1.1Zm2.3 0h1.1v1.1h-1.1v-1.1Zm2.2 0H400v1.1h-1.2v-1.1Zm2.3 0h1.2v1.1h-1.2v-1.1Zm2.3 0h1.2v1.1h-1.2v-1.1Zm2.3 0h1.2v1.1h-1.2v-1.1Zm2.3 0h1.2v1.1H408v-1.1Zm2.3 0h1.1v1.1h-1.1v-1.1Zm2.3 0h1.1v1.1h-1.1v-1.1Zm2.8 .6v1.1h-1.1v-1.1h1.1Zm0 2.3v1.1h-1.1V696h1.1Zm0 2.3v1.1h-1.1v-1.1h1.1Zm0 2.3v1.1h-1.1v-1.1h1.1Zm0 2.3V704h-1.1v-1.1h1.1Zm0 2.3v1.1h-1.1v-1.1h1.1Zm0 2.2v1.2h-1.1v-1.2h1.1Zm0 2.3v1.2h-1.1v-1.2h1.1Zm0 2.3v1.2h-1.1V712h1.1Zm0 2.3v1.2h-1.1v-1.2h1.1Zm-.6 2.9h-1.1V716h1.1v1.2Zm-2.3 0h-1.1V716h1.1v1.2Zm-2.2 0h-1.2V716h1.2v1.2Zm-2.3 0h-1.2V716H408v1.2Zm-2.3 0h-1.2V716h1.2v1.2Zm-2.3 0h-1.2V716h1.2v1.2Zm-2.3 0h-1.2V716h1.2v1.2Zm-2.3 0h-1.1V716h1.1v1.2Zm-2.3 0h-1.1V716h1.1v1.2Zm-2.3 0h-1.1V716h1.1v1.2Zm-2.3 0h-1.1V716h1.1v1.2Zm-2.3 0h-1.1V716h1.1v1.2Zm-2.3 0h-1.1V716h1.1v1.2Zm-2.8 -.7v-1.1h1.2v1.1h-1.2Zm0 -2.2v-1.2h1.2v1.2h-1.2Zm0 -2.3v-1.2h1.2V712h-1.2Zm0 -2.3v-1.2h1.2v1.2h-1.2Zm0 -2.3v-1.2h1.2v1.2h-1.2Zm0 -2.3v-1.2h1.2v1.2h-1.2Zm0 -2.3v-1.1h1.2v1.1h-1.2Zm0 -2.3v-1.1h1.2v1.1h-1.2Zm0 -2.3v-1.1h1.2v1.1h-1.2Zm0 -2.3v-1.1h1.2v1.1h-1.2Zm.6 -2.8h1.1v1.1h-1.1v-1.1Z" class="g2_127"/>
<path d="M421.8 693.7h29.7v22.9H421.8V693.7Z" class="g0_127"/>
<path d="M424.1 693.1h1.1v1.1h-1.1v-1.1Zm2.2 0h1.2v1.1h-1.2v-1.1Zm2.3 0h1.2v1.1h-1.2v-1.1Zm2.3 0h1.2v1.1h-1.2v-1.1Zm2.3 0h1.2v1.1h-1.2v-1.1Zm2.3 0h1.2v1.1h-1.2v-1.1Zm2.3 0h1.1v1.1h-1.1v-1.1Zm2.3 0h1.1v1.1h-1.1v-1.1Zm2.3 0h1.1v1.1h-1.1v-1.1Zm2.3 0h1.1v1.1h-1.1v-1.1Zm2.3 0h1.1v1.1H447v-1.1Zm2.3 0h1.1v1.1h-1.1v-1.1Zm2.8 .6v1.1H451v-1.1h1.1Zm0 2.3v1.1H451V696h1.1Zm0 2.3v1.1H451v-1.1h1.1Zm0 2.3v1.1H451v-1.1h1.1Zm0 2.3V704H451v-1.1h1.1Zm0 2.3v1.1H451v-1.1h1.1Zm0 2.2v1.2H451v-1.2h1.1Zm0 2.3v1.2H451v-1.2h1.1Zm0 2.3v1.2H451V712h1.1Zm0 2.3v1.2H451v-1.2h1.1Zm-.6 2.9h-1.1V716h1.1v1.2Zm-2.3 0h-1.1V716h1.1v1.2Zm-2.3 0h-1.1V716h1.1v1.2Zm-2.3 0h-1.1V716h1.1v1.2Zm-2.3 0h-1.1V716h1.1v1.2Zm-2.3 0h-1.1V716H440v1.2Zm-2.2 0h-1.2V716h1.2v1.2Zm-2.3 0h-1.2V716h1.2v1.2Zm-2.3 0H432V716h1.2v1.2Zm-2.3 0h-1.2V716h1.2v1.2Zm-2.3 0h-1.2V716h1.2v1.2Zm-2.3 0h-1.1V716h1.1v1.2Zm-2.3 0h-1.1V716H424v1.2Zm-2.8 -.7v-1.1h1.1v1.1h-1.1Zm0 -2.2v-1.2h1.1v1.2h-1.1Zm0 -2.3v-1.2h1.1V712h-1.1Zm0 -2.3v-1.2h1.1v1.2h-1.1Zm0 -2.3v-1.2h1.1v1.2h-1.1Zm0 -2.3v-1.2h1.1v1.2h-1.1Zm0 -2.3v-1.1h1.1v1.1h-1.1Zm0 -2.3v-1.1h1.1v1.1h-1.1Zm0 -2.3v-1.1h1.1v1.1h-1.1Zm0 -2.3v-1.1h1.1v1.1h-1.1Zm.6 -2.8h1.1v1.1h-1.1v-1.1Z" class="g2_127"/>
<path d="M385.1 726.9h29.8v22.9H385.1V726.9Z" class="g0_127"/>
<path d="M387.4 726.3h1.1v1.2h-1.1v-1.2Zm2.3 0h1.1v1.2h-1.1v-1.2Zm2.3 0h1.1v1.2H392v-1.2Zm2.3 0h1.1v1.2h-1.1v-1.2Zm2.3 0h1.1v1.2h-1.1v-1.2Zm2.2 0H400v1.2h-1.2v-1.2Zm2.3 0h1.2v1.2h-1.2v-1.2Zm2.3 0h1.2v1.2h-1.2v-1.2Zm2.3 0h1.2v1.2h-1.2v-1.2Zm2.3 0h1.2v1.2H408v-1.2Zm2.3 0h1.1v1.2h-1.1v-1.2Zm2.3 0h1.1v1.2h-1.1v-1.2Zm2.8 .6v1.2h-1.1v-1.2h1.1Zm0 2.3v1.2h-1.1v-1.2h1.1Zm0 2.3v1.2h-1.1v-1.2h1.1Zm0 2.3v1.1h-1.1v-1.1h1.1Zm0 2.3v1.1h-1.1v-1.1h1.1Zm0 2.3v1.1h-1.1v-1.1h1.1Zm0 2.3v1.1h-1.1v-1.1h1.1Zm0 2.3v1.1h-1.1V743h1.1Zm0 2.3v1.1h-1.1v-1.1h1.1Zm0 2.3v1.1h-1.1v-1.1h1.1Zm-.6 2.8h-1.1v-1.2h1.1v1.2Zm-2.3 0h-1.1v-1.2h1.1v1.2Zm-2.2 0h-1.2v-1.2h1.2v1.2Zm-2.3 0h-1.2v-1.2H408v1.2Zm-2.3 0h-1.2v-1.2h1.2v1.2Zm-2.3 0h-1.2v-1.2h1.2v1.2Zm-2.3 0h-1.2v-1.2h1.2v1.2Zm-2.3 0h-1.1v-1.2h1.1v1.2Zm-2.3 0h-1.1v-1.2h1.1v1.2Zm-2.3 0h-1.1v-1.2h1.1v1.2Zm-2.3 0h-1.1v-1.2h1.1v1.2Zm-2.3 0h-1.1v-1.2h1.1v1.2Zm-2.3 0h-1.1v-1.2h1.1v1.2Zm-2.8 -.6v-1.2h1.2v1.2h-1.2Zm0 -2.3v-1.2h1.2v1.2h-1.2Zm0 -2.3V744h1.2v1.2h-1.2Zm0 -2.3v-1.1h1.2v1.1h-1.2Zm0 -2.3v-1.1h1.2v1.1h-1.2Zm0 -2.3v-1.1h1.2v1.1h-1.2Zm0 -2.3v-1.1h1.2V736h-1.2Zm0 -2.3v-1.1h1.2v1.1h-1.2Zm0 -2.3v-1.1h1.2v1.1h-1.2Zm0 -2.2V728h1.2v1.2h-1.2Zm.6 -2.9h1.1v1.2h-1.1v-1.2Z" class="g2_127"/>
<path d="M421.8 726.9h29.7v22.9H421.8V726.9Z" class="g0_127"/>
<path d="M424.1 726.3h1.1v1.2h-1.1v-1.2Zm2.2 0h1.2v1.2h-1.2v-1.2Zm2.3 0h1.2v1.2h-1.2v-1.2Zm2.3 0h1.2v1.2h-1.2v-1.2Zm2.3 0h1.2v1.2h-1.2v-1.2Zm2.3 0h1.2v1.2h-1.2v-1.2Zm2.3 0h1.1v1.2h-1.1v-1.2Zm2.3 0h1.1v1.2h-1.1v-1.2Zm2.3 0h1.1v1.2h-1.1v-1.2Zm2.3 0h1.1v1.2h-1.1v-1.2Zm2.3 0h1.1v1.2H447v-1.2Zm2.3 0h1.1v1.2h-1.1v-1.2Zm2.8 .6v1.2H451v-1.2h1.1Zm0 2.3v1.2H451v-1.2h1.1Zm0 2.3v1.2H451v-1.2h1.1Zm0 2.3v1.1H451v-1.1h1.1Zm0 2.3v1.1H451v-1.1h1.1Zm0 2.3v1.1H451v-1.1h1.1Zm0 2.3v1.1H451v-1.1h1.1Zm0 2.3v1.1H451V743h1.1Zm0 2.3v1.1H451v-1.1h1.1Zm0 2.3v1.1H451v-1.1h1.1Zm-.6 2.8h-1.1v-1.2h1.1v1.2Zm-2.3 0h-1.1v-1.2h1.1v1.2Zm-2.3 0h-1.1v-1.2h1.1v1.2Zm-2.3 0h-1.1v-1.2h1.1v1.2Zm-2.3 0h-1.1v-1.2h1.1v1.2Zm-2.3 0h-1.1v-1.2H440v1.2Zm-2.2 0h-1.2v-1.2h1.2v1.2Zm-2.3 0h-1.2v-1.2h1.2v1.2Zm-2.3 0H432v-1.2h1.2v1.2Zm-2.3 0h-1.2v-1.2h1.2v1.2Zm-2.3 0h-1.2v-1.2h1.2v1.2Zm-2.3 0h-1.1v-1.2h1.1v1.2Zm-2.3 0h-1.1v-1.2H424v1.2Zm-2.8 -.6v-1.2h1.1v1.2h-1.1Zm0 -2.3v-1.2h1.1v1.2h-1.1Zm0 -2.3V744h1.1v1.2h-1.1Zm0 -2.3v-1.1h1.1v1.1h-1.1Zm0 -2.3v-1.1h1.1v1.1h-1.1Zm0 -2.3v-1.1h1.1v1.1h-1.1Zm0 -2.3v-1.1h1.1V736h-1.1Zm0 -2.3v-1.1h1.1v1.1h-1.1Zm0 -2.3v-1.1h1.1v1.1h-1.1Zm0 -2.2V728h1.1v1.2h-1.1Zm.6 -2.9h1.1v1.2h-1.1v-1.2Z" class="g2_127"/>
<path d="M504 653.6h99c1 0 2 .1 3 .3c1 .2 1.9 .4 2.9 .8c.9 .4 1.8 .9 2.6 1.4c.8 .6 1.6 1.2 2.3 1.9c.7 .7 1.3 1.5 1.9 2.3c.6 .9 1 1.7 1.4 2.7c.4 .9 .7 1.8 .9 2.8c.2 1 .3 2 .3 3v71c0 1 -.1 2 -.3 3c-.2 1 -.5 1.9 -.9 2.9c-.4 .9 -.8 1.8 -1.4 2.6c-.6 .8 -1.2 1.6 -1.9 2.3c-.7 .7 -1.5 1.3 -2.3 1.9c-.8 .6 -1.7 1 -2.6 1.4c-1 .4 -1.9 .7 -2.9 .9c-1 .2 -2 .3 -3 .3H504c-1 0 -2 -.1 -3 -.3c-.9 -.2 -1.9 -.5 -2.8 -.9c-.9 -.4 -1.8 -.8 -2.6 -1.4c-.9 -.6 -1.6 -1.2 -2.3 -1.9c-.8 -.7 -1.4 -1.5 -1.9 -2.3c-.6 -.8 -1.1 -1.7 -1.4 -2.6c-.4 -1 -.7 -1.9 -.9 -2.9c-.2 -1 -.3 -2 -.3 -3v-71c0 -1 .1 -2 .3 -3c.2 -1 .5 -1.9 .9 -2.8c.3 -1 .8 -1.8 1.4 -2.7c.5 -.8 1.1 -1.6 1.9 -2.3c.7 -.7 1.4 -1.3 2.3 -1.9c.8 -.5 1.7 -1 2.6 -1.4c.9 -.4 1.9 -.6 2.8 -.8c1 -.2 2 -.3 3 -.3Z" class="g0_127"/>
<path d="M504 653.6h99c1 0 2 .1 3 .3c1 .2 1.9 .4 2.9 .8c.9 .4 1.8 .9 2.6 1.4c.8 .6 1.6 1.2 2.3 1.9c.7 .7 1.3 1.5 1.9 2.3c.6 .9 1 1.7 1.4 2.7c.4 .9 .7 1.8 .9 2.8c.2 1 .3 2 .3 3v71c0 1 -.1 2 -.3 3c-.2 1 -.5 1.9 -.9 2.9c-.4 .9 -.8 1.8 -1.4 2.6c-.6 .8 -1.2 1.6 -1.9 2.3c-.7 .7 -1.5 1.3 -2.3 1.9c-.8 .6 -1.7 1 -2.6 1.4c-1 .4 -1.9 .7 -2.9 .9c-1 .2 -2 .3 -3 .3H504c-1 0 -2 -.1 -3 -.3c-.9 -.2 -1.9 -.5 -2.8 -.9c-.9 -.4 -1.8 -.8 -2.6 -1.4c-.9 -.6 -1.6 -1.2 -2.3 -1.9c-.8 -.7 -1.4 -1.5 -1.9 -2.3c-.6 -.8 -1.1 -1.7 -1.4 -2.6c-.4 -1 -.7 -1.9 -.9 -2.9c-.2 -1 -.3 -2 -.3 -3v-71c0 -1 .1 -2 .3 -3c.2 -1 .5 -1.9 .9 -2.8c.3 -1 .8 -1.8 1.4 -2.7c.5 -.8 1.1 -1.6 1.9 -2.3c.7 -.7 1.4 -1.3 2.3 -1.9c.8 -.5 1.7 -1 2.6 -1.4c.9 -.4 1.9 -.6 2.8 -.8c1 -.2 2 -.3 3 -.3Z" class="g1_127"/>
<path d="M501.4 659.3h29.8v22.9H501.4V659.3Z" class="g0_127"/>
<path d="M501.4 659.3h29.8v22.9H501.4V659.3Z" class="g3_127"/>
<path d="M538.1 659.3h29.7v22.9H538.1V659.3Z" class="g0_127"/>
<path d="M538.1 659.3h29.7v22.9H538.1V659.3Z" class="g3_127"/>
<path d="M574.7 659.3h29.8v22.9H574.7V659.3Z" class="g0_127"/>
<path d="M574.7 659.3h29.8v22.9H574.7V659.3Z" class="g3_127"/>
<path d="M501.4 693.7h29.8v22.9H501.4V693.7Z" class="g0_127"/>
<path d="M503.7 693.1h1.1v1.1h-1.1v-1.1Zm2.3 0h1.1v1.1H506v-1.1Zm2.3 0h1.1v1.1h-1.1v-1.1Zm2.3 0h1.1v1.1h-1.1v-1.1Zm2.3 0H514v1.1h-1.1v-1.1Zm2.2 0h1.2v1.1h-1.2v-1.1Zm2.3 0h1.2v1.1h-1.2v-1.1Zm2.3 0h1.2v1.1h-1.2v-1.1Zm2.3 0h1.2v1.1H522v-1.1Zm2.3 0h1.2v1.1h-1.2v-1.1Zm2.3 0h1.2v1.1h-1.2v-1.1Zm2.3 0H530v1.1h-1.1v-1.1Zm2.8 .6v1.1h-1.1v-1.1h1.1Zm0 2.3v1.1h-1.1V696h1.1Zm0 2.3v1.1h-1.1v-1.1h1.1Zm0 2.3v1.1h-1.1v-1.1h1.1Zm0 2.3V704h-1.1v-1.1h1.1Zm0 2.3v1.1h-1.1v-1.1h1.1Zm0 2.2v1.2h-1.1v-1.2h1.1Zm0 2.3v1.2h-1.1v-1.2h1.1Zm0 2.3v1.2h-1.1V712h1.1Zm0 2.3v1.2h-1.1v-1.2h1.1Zm-.6 2.9H530V716h1.1v1.2Zm-2.2 0h-1.2V716h1.2v1.2Zm-2.3 0h-1.2V716h1.2v1.2Zm-2.3 0h-1.2V716h1.2v1.2Zm-2.3 0h-1.2V716H522v1.2Zm-2.3 0h-1.2V716h1.2v1.2Zm-2.3 0h-1.2V716h1.2v1.2Zm-2.3 0H514V716h1.1v1.2Zm-2.3 0h-1.1V716h1.1v1.2Zm-2.3 0h-1.1V716h1.1v1.2Zm-2.3 0h-1.1V716h1.1v1.2Zm-2.3 0h-1.1V716h1.1v1.2Zm-2.3 0h-1.1V716h1.1v1.2Zm-2.8 -.7v-1.1H502v1.1h-1.2Zm0 -2.2v-1.2H502v1.2h-1.2Zm0 -2.3v-1.2H502V712h-1.2Zm0 -2.3v-1.2H502v1.2h-1.2Zm0 -2.3v-1.2H502v1.2h-1.2Zm0 -2.3v-1.2H502v1.2h-1.2Zm0 -2.3v-1.1H502v1.1h-1.2Zm0 -2.3v-1.1H502v1.1h-1.2Zm0 -2.3v-1.1H502v1.1h-1.2Zm0 -2.3v-1.1H502v1.1h-1.2Zm.6 -2.8h1.1v1.1h-1.1v-1.1Z" class="g2_127"/>
<path d="M538.1 693.7h29.7v22.9H538.1V693.7Z" class="g0_127"/>
<path d="M540.4 693.1h1.1v1.1h-1.1v-1.1Zm2.2 0h1.2v1.1h-1.2v-1.1Zm2.3 0h1.2v1.1h-1.2v-1.1Zm2.3 0h1.2v1.1h-1.2v-1.1Zm2.3 0h1.2v1.1h-1.2v-1.1Zm2.3 0H553v1.1h-1.2v-1.1Zm2.3 0h1.2v1.1h-1.2v-1.1Zm2.3 0h1.1v1.1h-1.1v-1.1Zm2.3 0h1.1v1.1h-1.1v-1.1Zm2.3 0h1.1v1.1H561v-1.1Zm2.3 0h1.1v1.1h-1.1v-1.1Zm2.3 0h1.1v1.1h-1.1v-1.1Zm2.8 .6v1.1h-1.1v-1.1h1.1Zm0 2.3v1.1h-1.1V696h1.1Zm0 2.3v1.1h-1.1v-1.1h1.1Zm0 2.3v1.1h-1.1v-1.1h1.1Zm0 2.3V704h-1.1v-1.1h1.1Zm0 2.3v1.1h-1.1v-1.1h1.1Zm0 2.2v1.2h-1.1v-1.2h1.1Zm0 2.3v1.2h-1.1v-1.2h1.1Zm0 2.3v1.2h-1.1V712h1.1Zm0 2.3v1.2h-1.1v-1.2h1.1Zm-.6 2.9h-1.1V716h1.1v1.2Zm-2.3 0h-1.1V716h1.1v1.2Zm-2.3 0h-1.1V716h1.1v1.2Zm-2.3 0h-1.1V716h1.1v1.2Zm-2.3 0h-1.1V716h1.1v1.2Zm-2.2 0h-1.2V716h1.2v1.2Zm-2.3 0h-1.2V716h1.2v1.2Zm-2.3 0h-1.2V716h1.2v1.2Zm-2.3 0h-1.2V716h1.2v1.2Zm-2.3 0H546V716h1.2v1.2Zm-2.3 0h-1.2V716h1.2v1.2Zm-2.3 0h-1.1V716h1.1v1.2Zm-2.3 0h-1.1V716h1.1v1.2Zm-2.8 -.7v-1.1h1.1v1.1h-1.1Zm0 -2.2v-1.2h1.1v1.2h-1.1Zm0 -2.3v-1.2h1.1V712h-1.1Zm0 -2.3v-1.2h1.1v1.2h-1.1Zm0 -2.3v-1.2h1.1v1.2h-1.1Zm0 -2.3v-1.2h1.1v1.2h-1.1Zm0 -2.3v-1.1h1.1v1.1h-1.1Zm0 -2.3v-1.1h1.1v1.1h-1.1Zm0 -2.3v-1.1h1.1v1.1h-1.1Zm0 -2.3v-1.1h1.1v1.1h-1.1Zm.6 -2.8h1.1v1.1h-1.1v-1.1Z" class="g2_127"/>
<path d="M574.7 693.7h29.8v22.9H574.7V693.7Z" class="g0_127"/>
<path d="M577 693.1h1.2v1.1H577v-1.1Zm2.3 0h1.2v1.1h-1.2v-1.1Zm2.3 0h1.2v1.1h-1.2v-1.1Zm2.3 0H585v1.1h-1.1v-1.1Zm2.3 0h1.1v1.1h-1.1v-1.1Zm2.3 0h1.1v1.1h-1.1v-1.1Zm2.3 0h1.1v1.1h-1.1v-1.1Zm2.3 0h1.1v1.1h-1.1v-1.1Zm2.3 0h1.1v1.1h-1.1v-1.1Zm2.2 0h1.2v1.1h-1.2v-1.1Zm2.3 0h1.2v1.1h-1.2v-1.1Zm2.3 0h1.2v1.1h-1.2v-1.1Zm2.9 .6v1.1h-1.2v-1.1h1.2Zm0 2.3v1.1h-1.2V696h1.2Zm0 2.3v1.1h-1.2v-1.1h1.2Zm0 2.3v1.1h-1.2v-1.1h1.2Zm0 2.3V704h-1.2v-1.1h1.2Zm0 2.3v1.1h-1.2v-1.1h1.2Zm0 2.2v1.2h-1.2v-1.2h1.2Zm0 2.3v1.2h-1.2v-1.2h1.2Zm0 2.3v1.2h-1.2V712h1.2Zm0 2.3v1.2h-1.2v-1.2h1.2Zm-.6 2.9h-1.2V716h1.2v1.2Zm-2.3 0H601V716h1.2v1.2Zm-2.3 0h-1.2V716h1.2v1.2Zm-2.3 0h-1.1V716h1.1v1.2Zm-2.3 0h-1.1V716h1.1v1.2Zm-2.3 0h-1.1V716H593v1.2Zm-2.3 0h-1.1V716h1.1v1.2Zm-2.3 0h-1.1V716h1.1v1.2Zm-2.3 0H585V716h1.1v1.2Zm-2.2 0h-1.2V716h1.2v1.2Zm-2.3 0h-1.2V716h1.2v1.2Zm-2.3 0h-1.2V716h1.2v1.2Zm-2.3 0h-1.2V716H577v1.2Zm-2.8 -.7v-1.1h1.1v1.1h-1.1Zm0 -2.2v-1.2h1.1v1.2h-1.1Zm0 -2.3v-1.2h1.1V712h-1.1Zm0 -2.3v-1.2h1.1v1.2h-1.1Zm0 -2.3v-1.2h1.1v1.2h-1.1Zm0 -2.3v-1.2h1.1v1.2h-1.1Zm0 -2.3v-1.1h1.1v1.1h-1.1Zm0 -2.3v-1.1h1.1v1.1h-1.1Zm0 -2.3v-1.1h1.1v1.1h-1.1Zm0 -2.3v-1.1h1.1v1.1h-1.1Zm.5 -2.8h1.2v1.1h-1.2v-1.1Z" class="g2_127"/>
<path d="M501.4 726.9h29.8v22.9H501.4V726.9Z" class="g0_127"/>
<path d="M503.7 726.3h1.1v1.2h-1.1v-1.2Zm2.3 0h1.1v1.2H506v-1.2Zm2.3 0h1.1v1.2h-1.1v-1.2Zm2.3 0h1.1v1.2h-1.1v-1.2Zm2.3 0H514v1.2h-1.1v-1.2Zm2.2 0h1.2v1.2h-1.2v-1.2Zm2.3 0h1.2v1.2h-1.2v-1.2Zm2.3 0h1.2v1.2h-1.2v-1.2Zm2.3 0h1.2v1.2H522v-1.2Zm2.3 0h1.2v1.2h-1.2v-1.2Zm2.3 0h1.2v1.2h-1.2v-1.2Zm2.3 0H530v1.2h-1.1v-1.2Zm2.8 .6v1.2h-1.1v-1.2h1.1Zm0 2.3v1.2h-1.1v-1.2h1.1Zm0 2.3v1.2h-1.1v-1.2h1.1Zm0 2.3v1.1h-1.1v-1.1h1.1Zm0 2.3v1.1h-1.1v-1.1h1.1Zm0 2.3v1.1h-1.1v-1.1h1.1Zm0 2.3v1.1h-1.1v-1.1h1.1Zm0 2.3v1.1h-1.1V743h1.1Zm0 2.3v1.1h-1.1v-1.1h1.1Zm0 2.3v1.1h-1.1v-1.1h1.1Zm-.6 2.8H530v-1.2h1.1v1.2Zm-2.2 0h-1.2v-1.2h1.2v1.2Zm-2.3 0h-1.2v-1.2h1.2v1.2Zm-2.3 0h-1.2v-1.2h1.2v1.2Zm-2.3 0h-1.2v-1.2H522v1.2Zm-2.3 0h-1.2v-1.2h1.2v1.2Zm-2.3 0h-1.2v-1.2h1.2v1.2Zm-2.3 0H514v-1.2h1.1v1.2Zm-2.3 0h-1.1v-1.2h1.1v1.2Zm-2.3 0h-1.1v-1.2h1.1v1.2Zm-2.3 0h-1.1v-1.2h1.1v1.2Zm-2.3 0h-1.1v-1.2h1.1v1.2Zm-2.3 0h-1.1v-1.2h1.1v1.2Zm-2.8 -.6v-1.2H502v1.2h-1.2Zm0 -2.3v-1.2H502v1.2h-1.2Zm0 -2.3V744H502v1.2h-1.2Zm0 -2.3v-1.1H502v1.1h-1.2Zm0 -2.3v-1.1H502v1.1h-1.2Zm0 -2.3v-1.1H502v1.1h-1.2Zm0 -2.3v-1.1H502V736h-1.2Zm0 -2.3v-1.1H502v1.1h-1.2Zm0 -2.3v-1.1H502v1.1h-1.2Zm0 -2.2V728H502v1.2h-1.2Zm.6 -2.9h1.1v1.2h-1.1v-1.2Z" class="g2_127"/>
<path d="M574.7 726.9h29.8v22.9H574.7V726.9Z" class="g0_127"/>
<path d="M577 726.3h1.2v1.2H577v-1.2Zm2.3 0h1.2v1.2h-1.2v-1.2Zm2.3 0h1.2v1.2h-1.2v-1.2Zm2.3 0H585v1.2h-1.1v-1.2Zm2.3 0h1.1v1.2h-1.1v-1.2Zm2.3 0h1.1v1.2h-1.1v-1.2Zm2.3 0h1.1v1.2h-1.1v-1.2Zm2.3 0h1.1v1.2h-1.1v-1.2Zm2.3 0h1.1v1.2h-1.1v-1.2Zm2.2 0h1.2v1.2h-1.2v-1.2Zm2.3 0h1.2v1.2h-1.2v-1.2Zm2.3 0h1.2v1.2h-1.2v-1.2Zm2.9 .6v1.2h-1.2v-1.2h1.2Zm0 2.3v1.2h-1.2v-1.2h1.2Zm0 2.3v1.2h-1.2v-1.2h1.2Zm0 2.3v1.1h-1.2v-1.1h1.2Zm0 2.3v1.1h-1.2v-1.1h1.2Zm0 2.3v1.1h-1.2v-1.1h1.2Zm0 2.3v1.1h-1.2v-1.1h1.2Zm0 2.3v1.1h-1.2V743h1.2Zm0 2.3v1.1h-1.2v-1.1h1.2Zm0 2.3v1.1h-1.2v-1.1h1.2Zm-.6 2.8h-1.2v-1.2h1.2v1.2Zm-2.3 0H601v-1.2h1.2v1.2Zm-2.3 0h-1.2v-1.2h1.2v1.2Zm-2.3 0h-1.1v-1.2h1.1v1.2Zm-2.3 0h-1.1v-1.2h1.1v1.2Zm-2.3 0h-1.1v-1.2H593v1.2Zm-2.3 0h-1.1v-1.2h1.1v1.2Zm-2.3 0h-1.1v-1.2h1.1v1.2Zm-2.3 0H585v-1.2h1.1v1.2Zm-2.2 0h-1.2v-1.2h1.2v1.2Zm-2.3 0h-1.2v-1.2h1.2v1.2Zm-2.3 0h-1.2v-1.2h1.2v1.2Zm-2.3 0h-1.2v-1.2H577v1.2Zm-2.8 -.6v-1.2h1.1v1.2h-1.1Zm0 -2.3v-1.2h1.1v1.2h-1.1Zm0 -2.3V744h1.1v1.2h-1.1Zm0 -2.3v-1.1h1.1v1.1h-1.1Zm0 -2.3v-1.1h1.1v1.1h-1.1Zm0 -2.3v-1.1h1.1v1.1h-1.1Zm0 -2.3v-1.1h1.1V736h-1.1Zm0 -2.3v-1.1h1.1v1.1h-1.1Zm0 -2.3v-1.1h1.1v1.1h-1.1Zm0 -2.2V728h1.1v1.2h-1.1Zm.5 -2.9h1.2v1.2h-1.2v-1.2Z" class="g2_127"/>
<path d="M348.4 726.9h29.8v22.9H348.4V726.9Z" class="g0_127"/>
<path d="M350.7 726.3h1.2v1.2h-1.2v-1.2Zm2.3 0h1.2v1.2H353v-1.2Zm2.3 0h1.1v1.2h-1.1v-1.2Zm2.3 0h1.1v1.2h-1.1v-1.2Zm2.3 0H361v1.2h-1.1v-1.2Zm2.3 0h1.1v1.2h-1.1v-1.2Zm2.3 0h1.1v1.2h-1.1v-1.2Zm2.3 0h1.1v1.2h-1.1v-1.2Zm2.3 0h1.1v1.2h-1.1v-1.2Zm2.2 0h1.2v1.2h-1.2v-1.2Zm2.3 0h1.2v1.2h-1.2v-1.2Zm2.3 0h1.2v1.2h-1.2v-1.2Zm2.9 .6v1.2h-1.2v-1.2h1.2Zm0 2.3v1.2h-1.2v-1.2h1.2Zm0 2.3v1.2h-1.2v-1.2h1.2Zm0 2.3v1.1h-1.2v-1.1h1.2Zm0 2.3v1.1h-1.2v-1.1h1.2Zm0 2.3v1.1h-1.2v-1.1h1.2Zm0 2.3v1.1h-1.2v-1.1h1.2Zm0 2.3v1.1h-1.2V743h1.2Zm0 2.3v1.1h-1.2v-1.1h1.2Zm0 2.3v1.1h-1.2v-1.1h1.2Zm-.6 2.8H377v-1.2h1.2v1.2Zm-2.3 0h-1.2v-1.2h1.2v1.2Zm-2.3 0h-1.2v-1.2h1.2v1.2Zm-2.3 0h-1.1v-1.2h1.1v1.2Zm-2.3 0h-1.1v-1.2H369v1.2Zm-2.3 0h-1.1v-1.2h1.1v1.2Zm-2.3 0h-1.1v-1.2h1.1v1.2Zm-2.3 0H361v-1.2h1.1v1.2Zm-2.3 0h-1.1v-1.2h1.1v1.2Zm-2.3 0h-1.1v-1.2h1.1v1.2Zm-2.2 0h-1.2v-1.2h1.2v1.2Zm-2.3 0h-1.2v-1.2H353v1.2Zm-2.3 0h-1.2v-1.2h1.2v1.2Zm-2.8 -.6v-1.2H349v1.2h-1.1Zm0 -2.3v-1.2H349v1.2h-1.1Zm0 -2.3V744H349v1.2h-1.1Zm0 -2.3v-1.1H349v1.1h-1.1Zm0 -2.3v-1.1H349v1.1h-1.1Zm0 -2.3v-1.1H349v1.1h-1.1Zm0 -2.3v-1.1H349V736h-1.1Zm0 -2.3v-1.1H349v1.1h-1.1Zm0 -2.3v-1.1H349v1.1h-1.1Zm0 -2.2V728H349v1.2h-1.1Zm.5 -2.9h1.2v1.2h-1.2v-1.2Z" class="g2_127"/>
<path d="M538.1 726.9h29.7v22.9H538.1V726.9Z" class="g0_127"/>
<path d="M540.4 726.3h1.1v1.2h-1.1v-1.2Zm2.2 0h1.2v1.2h-1.2v-1.2Zm2.3 0h1.2v1.2h-1.2v-1.2Zm2.3 0h1.2v1.2h-1.2v-1.2Zm2.3 0h1.2v1.2h-1.2v-1.2Zm2.3 0H553v1.2h-1.2v-1.2Zm2.3 0h1.2v1.2h-1.2v-1.2Zm2.3 0h1.1v1.2h-1.1v-1.2Zm2.3 0h1.1v1.2h-1.1v-1.2Zm2.3 0h1.1v1.2H561v-1.2Zm2.3 0h1.1v1.2h-1.1v-1.2Zm2.3 0h1.1v1.2h-1.1v-1.2Zm2.8 .6v1.2h-1.1v-1.2h1.1Zm0 2.3v1.2h-1.1v-1.2h1.1Zm0 2.3v1.2h-1.1v-1.2h1.1Zm0 2.3v1.1h-1.1v-1.1h1.1Zm0 2.3v1.1h-1.1v-1.1h1.1Zm0 2.3v1.1h-1.1v-1.1h1.1Zm0 2.3v1.1h-1.1v-1.1h1.1Zm0 2.3v1.1h-1.1V743h1.1Zm0 2.3v1.1h-1.1v-1.1h1.1Zm0 2.3v1.1h-1.1v-1.1h1.1Zm-.6 2.8h-1.1v-1.2h1.1v1.2Zm-2.3 0h-1.1v-1.2h1.1v1.2Zm-2.3 0h-1.1v-1.2h1.1v1.2Zm-2.3 0h-1.1v-1.2h1.1v1.2Zm-2.3 0h-1.1v-1.2h1.1v1.2Zm-2.2 0h-1.2v-1.2h1.2v1.2Zm-2.3 0h-1.2v-1.2h1.2v1.2Zm-2.3 0h-1.2v-1.2h1.2v1.2Zm-2.3 0h-1.2v-1.2h1.2v1.2Zm-2.3 0H546v-1.2h1.2v1.2Zm-2.3 0h-1.2v-1.2h1.2v1.2Zm-2.3 0h-1.1v-1.2h1.1v1.2Zm-2.3 0h-1.1v-1.2h1.1v1.2Zm-2.8 -.6v-1.2h1.1v1.2h-1.1Zm0 -2.3v-1.2h1.1v1.2h-1.1Zm0 -2.3V744h1.1v1.2h-1.1Zm0 -2.3v-1.1h1.1v1.1h-1.1Zm0 -2.3v-1.1h1.1v1.1h-1.1Zm0 -2.3v-1.1h1.1v1.1h-1.1Zm0 -2.3v-1.1h1.1V736h-1.1Zm0 -2.3v-1.1h1.1v1.1h-1.1Zm0 -2.3v-1.1h1.1v1.1h-1.1Zm0 -2.2V728h1.1v1.2h-1.1Zm.6 -2.9h1.1v1.2h-1.1v-1.2Z" class="g2_127"/>
<path d="M206.1 780.8h96.7c1 0 2 .1 3 .3c1 .1 1.9 .4 2.9 .8c.9 .4 1.8 .9 2.6 1.4c.8 .6 1.6 1.2 2.3 1.9c.7 .7 1.3 1.5 1.9 2.3c.6 .9 1 1.7 1.4 2.7c.4 .9 .7 1.8 .9 2.8c.2 1 .3 2 .3 3v71c0 1 -.1 2 -.3 3c-.2 1 -.5 1.9 -.9 2.9c-.4 .9 -.8 1.8 -1.4 2.6c-.6 .8 -1.2 1.6 -1.9 2.3c-.7 .7 -1.5 1.3 -2.3 1.9c-.8 .5 -1.7 1 -2.6 1.4c-1 .4 -1.9 .7 -2.9 .9c-1 .2 -2 .3 -3 .3H206.1c-1 0 -2 -.1 -3 -.3c-.9 -.2 -1.9 -.5 -2.8 -.9c-.9 -.4 -1.8 -.9 -2.7 -1.4c-.8 -.6 -1.6 -1.2 -2.3 -1.9c-.7 -.7 -1.3 -1.5 -1.9 -2.3c-.5 -.8 -1 -1.7 -1.4 -2.6c-.3 -1 -.6 -1.9 -.8 -2.9c-.2 -1 -.3 -2 -.3 -3V796c0 -1 .1 -2 .3 -3c.2 -1 .5 -1.9 .8 -2.8c.4 -1 .9 -1.8 1.4 -2.7c.6 -.8 1.2 -1.6 1.9 -2.3c.7 -.7 1.5 -1.3 2.3 -1.9c.9 -.5 1.8 -1 2.7 -1.4c.9 -.4 1.9 -.7 2.8 -.8c1 -.2 2 -.3 3 -.3Z" class="g0_127"/>
<path d="M206.1 780.8h96.7c1 0 2 .1 3 .3c1 .1 1.9 .4 2.9 .8c.9 .4 1.8 .9 2.6 1.4c.8 .6 1.6 1.2 2.3 1.9c.7 .7 1.3 1.5 1.9 2.3c.6 .9 1 1.7 1.4 2.7c.4 .9 .7 1.8 .9 2.8c.2 1 .3 2 .3 3v71c0 1 -.1 2 -.3 3c-.2 1 -.5 1.9 -.9 2.9c-.4 .9 -.8 1.8 -1.4 2.6c-.6 .8 -1.2 1.6 -1.9 2.3c-.7 .7 -1.5 1.3 -2.3 1.9c-.8 .5 -1.7 1 -2.6 1.4c-1 .4 -1.9 .7 -2.9 .9c-1 .2 -2 .3 -3 .3H206.1c-1 0 -2 -.1 -3 -.3c-.9 -.2 -1.9 -.5 -2.8 -.9c-.9 -.4 -1.8 -.9 -2.7 -1.4c-.8 -.6 -1.6 -1.2 -2.3 -1.9c-.7 -.7 -1.3 -1.5 -1.9 -2.3c-.5 -.8 -1 -1.7 -1.4 -2.6c-.3 -1 -.6 -1.9 -.8 -2.9c-.2 -1 -.3 -2 -.3 -3V796c0 -1 .1 -2 .3 -3c.2 -1 .5 -1.9 .8 -2.8c.4 -1 .9 -1.8 1.4 -2.7c.6 -.8 1.2 -1.6 1.9 -2.3c.7 -.7 1.5 -1.3 2.3 -1.9c.9 -.5 1.8 -1 2.7 -1.4c.9 -.4 1.9 -.7 2.8 -.8c1 -.2 2 -.3 3 -.3Z" class="g1_127"/>
<path d="M203.5 852.9h29.7v23H203.5v-23Z" class="g0_127"/>
<path d="M203.5 852.9h29.7v23H203.5v-23Z" class="g3_127"/>
<path d="M240.1 852.9h29.8v23H240.1v-23Z" class="g0_127"/>
<path d="M240.1 852.9h29.8v23H240.1v-23Z" class="g3_127"/>
<path d="M276.8 852.9h29.8v23H276.8v-23Z" class="g0_127"/>
<path d="M276.8 852.9h29.8v23H276.8v-23Z" class="g3_127"/>
<path d="M203.5 787.6h29.7v23H203.5v-23Z" class="g0_127"/>
<path d="M205.8 787.1h1.1v1.1h-1.1v-1.1Zm2.3 0h1.1v1.1h-1.1v-1.1Zm2.3 0h1.1v1.1h-1.1v-1.1Zm2.2 0h1.2v1.1h-1.2v-1.1Zm2.3 0h1.2v1.1h-1.2v-1.1Zm2.3 0h1.2v1.1h-1.2v-1.1Zm2.3 0h1.2v1.1h-1.2v-1.1Zm2.3 0H223v1.1h-1.2v-1.1Zm2.3 0h1.2v1.1h-1.2v-1.1Zm2.3 0h1.1v1.1h-1.1v-1.1Zm2.3 0h1.1v1.1h-1.1v-1.1Zm2.3 0h1.1v1.1H231v-1.1Zm2.8 .6v1.1h-1.1v-1.1h1.1Zm0 2.2v1.2h-1.1v-1.2h1.1Zm0 2.3v1.2h-1.1v-1.2h1.1Zm0 2.3v1.2h-1.1v-1.2h1.1Zm0 2.3V798h-1.1v-1.2h1.1Zm0 2.3v1.2h-1.1v-1.2h1.1Zm0 2.3v1.2h-1.1v-1.2h1.1Zm0 2.3v1.1h-1.1v-1.1h1.1Zm0 2.3v1.1h-1.1V806h1.1Zm0 2.3v1.1h-1.1v-1.1h1.1Zm-.6 2.8h-1.1V810h1.1v1.1Zm-2.3 0h-1.1V810h1.1v1.1Zm-2.3 0h-1.1V810h1.1v1.1Zm-2.2 0h-1.2V810h1.2v1.1Zm-2.3 0h-1.2V810h1.2v1.1Zm-2.3 0h-1.2V810h1.2v1.1Zm-2.3 0h-1.2V810h1.2v1.1Zm-2.3 0H216V810h1.2v1.1Zm-2.3 0h-1.2V810h1.2v1.1Zm-2.3 0h-1.1V810h1.1v1.1Zm-2.3 0h-1.1V810h1.1v1.1Zm-2.3 0h-1.1V810H208v1.1Zm-2.3 0h-1.1V810h1.1v1.1Zm-2.8 -.6v-1.1h1.2v1.1h-1.2Zm0 -2.3v-1.1h1.2v1.1h-1.2Zm0 -2.3v-1.1h1.2v1.1h-1.2Zm0 -2.3v-1.1h1.2v1.1h-1.2Zm0 -2.3v-1.1h1.2v1.1h-1.2Zm0 -2.3v-1.1h1.2V799h-1.2Zm0 -2.2v-1.2h1.2v1.2h-1.2Zm0 -2.3v-1.2h1.2v1.2h-1.2Zm0 -2.3V791h1.2v1.2h-1.2Zm0 -2.3v-1.2h1.2v1.2h-1.2Zm.6 -2.8h1.1v1.1h-1.1v-1.1Z" class="g2_127"/>
<path d="M240.1 787.6h29.8v23H240.1v-23Z" class="g0_127"/>
<path d="M242.4 787.1h1.2v1.1h-1.2v-1.1Zm2.3 0h1.2v1.1h-1.2v-1.1Zm2.3 0h1.2v1.1H247v-1.1Zm2.3 0h1.2v1.1h-1.2v-1.1Zm2.3 0h1.2v1.1h-1.2v-1.1Zm2.3 0H255v1.1h-1.1v-1.1Zm2.3 0h1.1v1.1h-1.1v-1.1Zm2.3 0h1.1v1.1h-1.1v-1.1Zm2.3 0h1.1v1.1h-1.1v-1.1Zm2.3 0h1.1v1.1h-1.1v-1.1Zm2.3 0h1.1v1.1h-1.1v-1.1Zm2.2 0h1.2v1.1h-1.2v-1.1Zm2.9 .6v1.1h-1.2v-1.1h1.2Zm0 2.2v1.2h-1.2v-1.2h1.2Zm0 2.3v1.2h-1.2v-1.2h1.2Zm0 2.3v1.2h-1.2v-1.2h1.2Zm0 2.3V798h-1.2v-1.2h1.2Zm0 2.3v1.2h-1.2v-1.2h1.2Zm0 2.3v1.2h-1.2v-1.2h1.2Zm0 2.3v1.1h-1.2v-1.1h1.2Zm0 2.3v1.1h-1.2V806h1.2Zm0 2.3v1.1h-1.2v-1.1h1.2Zm-.6 2.8h-1.2V810h1.2v1.1Zm-2.3 0h-1.1V810h1.1v1.1Zm-2.3 0h-1.1V810h1.1v1.1Zm-2.3 0h-1.1V810H263v1.1Zm-2.3 0h-1.1V810h1.1v1.1Zm-2.3 0h-1.1V810h1.1v1.1Zm-2.3 0H255V810h1.1v1.1Zm-2.2 0h-1.2V810h1.2v1.1Zm-2.3 0h-1.2V810h1.2v1.1Zm-2.3 0h-1.2V810h1.2v1.1Zm-2.3 0h-1.2V810H247v1.1Zm-2.3 0h-1.2V810h1.2v1.1Zm-2.3 0h-1.2V810h1.2v1.1Zm-2.8 -.6v-1.1h1.1v1.1h-1.1Zm0 -2.3v-1.1h1.1v1.1h-1.1Zm0 -2.3v-1.1h1.1v1.1h-1.1Zm0 -2.3v-1.1h1.1v1.1h-1.1Zm0 -2.3v-1.1h1.1v1.1h-1.1Zm0 -2.3v-1.1h1.1V799h-1.1Zm0 -2.2v-1.2h1.1v1.2h-1.1Zm0 -2.3v-1.2h1.1v1.2h-1.1Zm0 -2.3V791h1.1v1.2h-1.1Zm0 -2.3v-1.2h1.1v1.2h-1.1Zm.5 -2.8h1.2v1.1h-1.2v-1.1Z" class="g2_127"/>
<path d="M276.8 787.6h29.8v23H276.8v-23Z" class="g0_127"/>
<path d="M279.1 787.1h1.2v1.1h-1.2v-1.1Zm2.3 0h1.1v1.1h-1.1v-1.1Zm2.3 0h1.1v1.1h-1.1v-1.1Zm2.3 0h1.1v1.1H286v-1.1Zm2.3 0h1.1v1.1h-1.1v-1.1Zm2.3 0h1.1v1.1h-1.1v-1.1Zm2.3 0H294v1.1h-1.1v-1.1Zm2.2 0h1.2v1.1h-1.2v-1.1Zm2.3 0h1.2v1.1h-1.2v-1.1Zm2.3 0h1.2v1.1h-1.2v-1.1Zm2.3 0h1.2v1.1H302v-1.1Zm2.3 0h1.2v1.1h-1.2v-1.1Zm2.9 .6v1.1H306v-1.1h1.2Zm0 2.2v1.2H306v-1.2h1.2Zm0 2.3v1.2H306v-1.2h1.2Zm0 2.3v1.2H306v-1.2h1.2Zm0 2.3V798H306v-1.2h1.2Zm0 2.3v1.2H306v-1.2h1.2Zm0 2.3v1.2H306v-1.2h1.2Zm0 2.3v1.1H306v-1.1h1.2Zm0 2.3v1.1H306V806h1.2Zm0 2.3v1.1H306v-1.1h1.2Zm-.6 2.8h-1.2V810h1.2v1.1Zm-2.3 0h-1.2V810h1.2v1.1Zm-2.3 0h-1.2V810H302v1.1Zm-2.3 0h-1.2V810h1.2v1.1Zm-2.3 0h-1.2V810h1.2v1.1Zm-2.3 0H294V810h1.1v1.1Zm-2.3 0h-1.1V810h1.1v1.1Zm-2.3 0h-1.1V810h1.1v1.1Zm-2.3 0h-1.1V810h1.1v1.1Zm-2.3 0h-1.1V810h1.1v1.1Zm-2.3 0h-1.1V810h1.1v1.1Zm-2.2 0h-1.2V810h1.2v1.1Zm-2.3 0h-1.2V810h1.2v1.1Zm-2.9 -.6v-1.1h1.2v1.1h-1.2Zm0 -2.3v-1.1h1.2v1.1h-1.2Zm0 -2.3v-1.1h1.2v1.1h-1.2Zm0 -2.3v-1.1h1.2v1.1h-1.2Zm0 -2.3v-1.1h1.2v1.1h-1.2Zm0 -2.3v-1.1h1.2V799h-1.2Zm0 -2.2v-1.2h1.2v1.2h-1.2Zm0 -2.3v-1.2h1.2v1.2h-1.2Zm0 -2.3V791h1.2v1.2h-1.2Zm0 -2.3v-1.2h1.2v1.2h-1.2Zm.6 -2.8H278v1.1h-1.2v-1.1Z" class="g2_127"/>
<path d="M203.5 820.9h29.7v22.9H203.5V820.9Z" class="g0_127"/>
<path d="M205.8 820.3h1.1v1.1h-1.1v-1.1Zm2.3 0h1.1v1.1h-1.1v-1.1Zm2.3 0h1.1v1.1h-1.1v-1.1Zm2.2 0h1.2v1.1h-1.2v-1.1Zm2.3 0h1.2v1.1h-1.2v-1.1Zm2.3 0h1.2v1.1h-1.2v-1.1Zm2.3 0h1.2v1.1h-1.2v-1.1Zm2.3 0H223v1.1h-1.2v-1.1Zm2.3 0h1.2v1.1h-1.2v-1.1Zm2.3 0h1.1v1.1h-1.1v-1.1Zm2.3 0h1.1v1.1h-1.1v-1.1Zm2.3 0h1.1v1.1H231v-1.1Zm2.8 .6V822h-1.1v-1.1h1.1Zm0 2.3v1.1h-1.1v-1.1h1.1Zm0 2.3v1.1h-1.1v-1.1h1.1Zm0 2.3v1.1h-1.1v-1.1h1.1Zm0 2.3v1.1h-1.1v-1.1h1.1Zm0 2.2v1.2h-1.1v-1.2h1.1Zm0 2.3v1.2h-1.1v-1.2h1.1Zm0 2.3v1.2h-1.1v-1.2h1.1Zm0 2.3v1.2h-1.1v-1.2h1.1Zm0 2.3v1.2h-1.1v-1.2h1.1Zm-.6 2.9h-1.1v-1.2h1.1v1.2Zm-2.3 0h-1.1v-1.2h1.1v1.2Zm-2.3 0h-1.1v-1.2h1.1v1.2Zm-2.2 0h-1.2v-1.2h1.2v1.2Zm-2.3 0h-1.2v-1.2h1.2v1.2Zm-2.3 0h-1.2v-1.2h1.2v1.2Zm-2.3 0h-1.2v-1.2h1.2v1.2Zm-2.3 0H216v-1.2h1.2v1.2Zm-2.3 0h-1.2v-1.2h1.2v1.2Zm-2.3 0h-1.1v-1.2h1.1v1.2Zm-2.3 0h-1.1v-1.2h1.1v1.2Zm-2.3 0h-1.1v-1.2H208v1.2Zm-2.3 0h-1.1v-1.2h1.1v1.2Zm-2.8 -.7v-1.1h1.2v1.1h-1.2Zm0 -2.3v-1.1h1.2v1.1h-1.2Zm0 -2.2V838h1.2v1.2h-1.2Zm0 -2.3v-1.2h1.2v1.2h-1.2Zm0 -2.3v-1.2h1.2v1.2h-1.2Zm0 -2.3v-1.2h1.2v1.2h-1.2Zm0 -2.3v-1.2h1.2V830h-1.2Zm0 -2.3v-1.2h1.2v1.2h-1.2Zm0 -2.3v-1.1h1.2v1.1h-1.2Zm0 -2.3V822h1.2v1.1h-1.2Zm.6 -2.8h1.1v1.1h-1.1v-1.1Z" class="g2_127"/>
<path d="M276.8 820.9h29.8v22.9H276.8V820.9Z" class="g0_127"/>
<path d="M279.1 820.3h1.2v1.1h-1.2v-1.1Zm2.3 0h1.1v1.1h-1.1v-1.1Zm2.3 0h1.1v1.1h-1.1v-1.1Zm2.3 0h1.1v1.1H286v-1.1Zm2.3 0h1.1v1.1h-1.1v-1.1Zm2.3 0h1.1v1.1h-1.1v-1.1Zm2.3 0H294v1.1h-1.1v-1.1Zm2.2 0h1.2v1.1h-1.2v-1.1Zm2.3 0h1.2v1.1h-1.2v-1.1Zm2.3 0h1.2v1.1h-1.2v-1.1Zm2.3 0h1.2v1.1H302v-1.1Zm2.3 0h1.2v1.1h-1.2v-1.1Zm2.9 .6V822H306v-1.1h1.2Zm0 2.3v1.1H306v-1.1h1.2Zm0 2.3v1.1H306v-1.1h1.2Zm0 2.3v1.1H306v-1.1h1.2Zm0 2.3v1.1H306v-1.1h1.2Zm0 2.2v1.2H306v-1.2h1.2Zm0 2.3v1.2H306v-1.2h1.2Zm0 2.3v1.2H306v-1.2h1.2Zm0 2.3v1.2H306v-1.2h1.2Zm0 2.3v1.2H306v-1.2h1.2Zm-.6 2.9h-1.2v-1.2h1.2v1.2Zm-2.3 0h-1.2v-1.2h1.2v1.2Zm-2.3 0h-1.2v-1.2H302v1.2Zm-2.3 0h-1.2v-1.2h1.2v1.2Zm-2.3 0h-1.2v-1.2h1.2v1.2Zm-2.3 0H294v-1.2h1.1v1.2Zm-2.3 0h-1.1v-1.2h1.1v1.2Zm-2.3 0h-1.1v-1.2h1.1v1.2Zm-2.3 0h-1.1v-1.2h1.1v1.2Zm-2.3 0h-1.1v-1.2h1.1v1.2Zm-2.3 0h-1.1v-1.2h1.1v1.2Zm-2.2 0h-1.2v-1.2h1.2v1.2Zm-2.3 0h-1.2v-1.2h1.2v1.2Zm-2.9 -.7v-1.1h1.2v1.1h-1.2Zm0 -2.3v-1.1h1.2v1.1h-1.2Zm0 -2.2V838h1.2v1.2h-1.2Zm0 -2.3v-1.2h1.2v1.2h-1.2Zm0 -2.3v-1.2h1.2v1.2h-1.2Zm0 -2.3v-1.2h1.2v1.2h-1.2Zm0 -2.3v-1.2h1.2V830h-1.2Zm0 -2.3v-1.2h1.2v1.2h-1.2Zm0 -2.3v-1.1h1.2v1.1h-1.2Zm0 -2.3V822h1.2v1.1h-1.2Zm.6 -2.8H278v1.1h-1.2v-1.1Z" class="g2_127"/>
<path d="M240.1 820.9h29.8v22.9H240.1V820.9Z" class="g0_127"/>
<path d="M242.4 820.3h1.2v1.1h-1.2v-1.1Zm2.3 0h1.2v1.1h-1.2v-1.1Zm2.3 0h1.2v1.1H247v-1.1Zm2.3 0h1.2v1.1h-1.2v-1.1Zm2.3 0h1.2v1.1h-1.2v-1.1Zm2.3 0H255v1.1h-1.1v-1.1Zm2.3 0h1.1v1.1h-1.1v-1.1Zm2.3 0h1.1v1.1h-1.1v-1.1Zm2.3 0h1.1v1.1h-1.1v-1.1Zm2.3 0h1.1v1.1h-1.1v-1.1Zm2.3 0h1.1v1.1h-1.1v-1.1Zm2.2 0h1.2v1.1h-1.2v-1.1Zm2.9 .6V822h-1.2v-1.1h1.2Zm0 2.3v1.1h-1.2v-1.1h1.2Zm0 2.3v1.1h-1.2v-1.1h1.2Zm0 2.3v1.1h-1.2v-1.1h1.2Zm0 2.3v1.1h-1.2v-1.1h1.2Zm0 2.2v1.2h-1.2v-1.2h1.2Zm0 2.3v1.2h-1.2v-1.2h1.2Zm0 2.3v1.2h-1.2v-1.2h1.2Zm0 2.3v1.2h-1.2v-1.2h1.2Zm0 2.3v1.2h-1.2v-1.2h1.2Zm-.6 2.9h-1.2v-1.2h1.2v1.2Zm-2.3 0h-1.1v-1.2h1.1v1.2Zm-2.3 0h-1.1v-1.2h1.1v1.2Zm-2.3 0h-1.1v-1.2H263v1.2Zm-2.3 0h-1.1v-1.2h1.1v1.2Zm-2.3 0h-1.1v-1.2h1.1v1.2Zm-2.3 0H255v-1.2h1.1v1.2Zm-2.2 0h-1.2v-1.2h1.2v1.2Zm-2.3 0h-1.2v-1.2h1.2v1.2Zm-2.3 0h-1.2v-1.2h1.2v1.2Zm-2.3 0h-1.2v-1.2H247v1.2Zm-2.3 0h-1.2v-1.2h1.2v1.2Zm-2.3 0h-1.2v-1.2h1.2v1.2Zm-2.8 -.7v-1.1h1.1v1.1h-1.1Zm0 -2.3v-1.1h1.1v1.1h-1.1Zm0 -2.2V838h1.1v1.2h-1.1Zm0 -2.3v-1.2h1.1v1.2h-1.1Zm0 -2.3v-1.2h1.1v1.2h-1.1Zm0 -2.3v-1.2h1.1v1.2h-1.1Zm0 -2.3v-1.2h1.1V830h-1.1Zm0 -2.3v-1.2h1.1v1.2h-1.1Zm0 -2.3v-1.1h1.1v1.1h-1.1Zm0 -2.3V822h1.1v1.1h-1.1Zm.5 -2.8h1.2v1.1h-1.2v-1.1Z" class="g2_127"/>
<path d="M188.6 679.5h-3.5v-1.1h3.5v1.1Zm-6.9 0h-3.4v-1.1h3.4v1.1Zm-6.9 0h-3.4v-1.1h3.4v1.1Zm-6.8 0h-3.5v-1.1H168v1.1Zm-6.9 0h-3.5v-1.1h3.5v1.1Zm-6.9 0h-3.4v-1.1h3.4v1.1Zm-6.9 0h-3.4v-1.2h3.4v1.2Zm-6.8 0H137v-1.2h3.5v1.2Zm-6.9 0h-3.5v-1.2h3.5v1.2Zm-6.9 0h-3.4v-1.2h3.4v1.2Zm-6.9 0h-3.4v-1.2h3.4v1.2Zm-6.9 0c-1.2 0 -2.3 .2 -3.3 .4l-.3 -1.1c1.1 -.3 2.3 -.4 3.6 -.5v1.2Zm-6.3 1.6c-.9 .6 -1.6 1.3 -2.2 2.2l-1 -.6c.7 -1 1.6 -1.9 2.6 -2.5l.6 .9Zm-3.5 5.2c-.3 1 -.4 2.1 -.4 3.3l-1.2 -.1c.1 -1.3 .2 -2.4 .5 -3.5l1.1 .3Zm-.5 6.8v3.4h-1.1v-3.4h1.1Zm0 6.8v1.8h-1.1v-1.8h1.1Z" class="g2_127"/>
<path d="M190.9 857.5l-3.5 -.1v-1.1h3.5v1.2Zm-6.9 -.1h-3.4v-1.1H184v1.1Zm-6.9 0h-3.4v-1.1h3.4v1.1Zm-6.8 0h-3.5v-1.1h3.5v1.1Zm-6.9 0h-3.5v-1.1h3.5v1.1Zm-6.9 0h-3.4v-1.1h3.4v1.1Zm-6.9 0h-3.4v-1.1h3.4v1.1Zm-6.8 0h-3.5v-1.1h3.5v1.1Zm-6.9 0h-3.5v-1.1h3.5v1.1Zm-6.9 0h-3.4v-1.1H129v1.1Zm-6.9 0h-3.4v-1.1h3.4v1.1Zm-6.8 0h-1.8c-.6 0 -1.3 0 -1.9 -.1l.1 -1.1c.6 0 1.2 .1 1.8 .1h1.8v1.1Zm-7.1 -.8c-1.2 -.4 -2.3 -1 -3.2 -1.8l.8 -.8c.8 .6 1.7 1.2 2.8 1.6l-.4 1ZM102.8 852c-.5 -1 -.8 -2.1 -1 -3.4l1.1 -.2c.2 1.2 .5 2.2 1 3.1l-1.1 .5Zm-1.3 -7v-3.5h1.1V845h-1.1Zm0 -6.9v-3.5h1.1v3.5h-1.1Zm0 -6.9v-3.4h1.1v3.4h-1.1Zm0 -6.9v-3.4h1.1v3.4h-1.1Zm0 -6.8V814h1.1v3.5h-1.1Zm0 -6.9v-3.5h1.1v3.5h-1.1Zm0 -6.9v-3.4h1.1v3.4h-1.1Zm0 -6.9v-3.4h1.1v3.4h-1.1Zm0 -6.8v-3.5h1.1V790h-1.1Zm0 -6.9v-3.5h1.1v3.5h-1.1Zm0 -6.9v-3.4h1.1v3.4h-1.1Zm0 -6.9v-3.4h1.1v3.4h-1.1Zm0 -6.8V759h1.1v3.5h-1.1Zm0 -6.9v-3.5h1.1v3.5h-1.1Zm0 -6.9v-3.4h1.1v3.4h-1.1Zm0 -6.9v0h1.1h-1.1Z" class="g2_127"/>
<path d="M188.6 730.3h-3.5v-1.2h3.5v1.2Zm-6.9 0l-3.4 -.1v-1.1h3.4v1.2Zm-6.9 -.1H172c-.2 0 -.4 0 -.7 0v-1.1c.2 0 .4 0 .7 0h2.8v1.1Zm-6.8 .5c-1.1 .2 -2.1 .7 -3 1.2l-.6 -1c1 -.6 2.1 -1 3.3 -1.3l.3 1.1Zm-5.2 3.4c-.5 .8 -1 1.8 -1.3 2.9l-1.1 -.2c.4 -1.3 .8 -2.4 1.5 -3.4l.9 .7Zm-1.7 6.2c0 .3 0 .6 0 .8v2.7h-1.2v-2.7c0 -.3 0 -.5 .1 -.8h1.1Zm0 7v3.4h-1.2v-3.4h1.2Zm0 6.9v2.5h-1.2v-2.5h1.2Z" class="g2_127"/>
<path d="M188.6 704.9h-3.5v-1.1l3.5 -.1v1.2Zm-6.9 0h-3.4v-1.1h3.4v1.1Zm-6.9 0h-3.4v-1.1h3.4v1.1Zm-6.8 0h-3.5v-1.1H168v1.1Zm-6.9 0h-3.5v-1.1h3.5v1.1Zm-6.9 .3c-1.1 .3 -2.1 .6 -3 1.1l-.6 -1c1 -.5 2.1 -.9 3.4 -1.2l.2 1.1Zm-5.4 3.1c-.6 .8 -1.1 1.8 -1.4 2.9l-1.1 -.3c.3 -1.3 .9 -2.3 1.6 -3.3l.9 .7Zm-2 6.1c0 .5 0 .9 0 1.4v2.1h-1.2v-2.1c0 -.5 0 -1 .1 -1.5l1.1 .1Zm0 7v3.4h-1.2v-3.4h1.2Zm0 6.8v3.5h-1.2v-3.5h1.2Zm0 6.9v3.5h-1.2v-3.5h1.2Zm0 6.9v3.4h-1.2V742h1.2Zm0 6.9v3.4h-1.2v-3.4h1.2Zm0 6.8v1h-1.2v-1h1.2Z" class="g2_127"/>
<path d="M190.9 832.1h-3.5v-1.2h3.5v1.2Zm-6.9 0h-3.4v-1.2H184v1.2Zm-6.9 0h-3.4v-1.2h3.4v1.2Zm-6.8 0h-3.5v-1.2h3.5v1.2Zm-6.9 0h-3.5v-1.2h3.5v1.2Zm-7 0c-1.3 -.1 -2.5 -.3 -3.5 -.6l.3 -1.1c1 .3 2 .4 3.2 .5v1.2Zm-6.8 -2.2c-1 -.7 -1.7 -1.6 -2.4 -2.7l1 -.6c.6 1 1.3 1.7 2.1 2.4l-.7 .9Zm-3.6 -6c-.3 -1.1 -.4 -2.3 -.4 -3.7h1.2c0 1.3 .1 2.4 .3 3.4l-1.1 .3Zm-.4 -7.1v-3.5h1.2v3.5h-1.2Zm0 -6.9v-3.4h1.2v3.4h-1.2Zm0 -6.9v-3.4h1.2V803h-1.2Zm0 -6.9v-3.4h1.2v3.4h-1.2Z" class="g2_127"/>
<path d="M190.9 806.7h-3.5v-1.1h3.5v1.1Zm-6.9 0h-3.4v-1.2H184v1.2Zm-6.9 0h-3.4v-1.2h3.4v1.2Zm-7 -.1c-1.3 0 -2.4 -.2 -3.4 -.4l.2 -1.1c1 .2 2.1 .3 3.2 .4v1.1ZM163.3 805c-1.2 -.7 -2.1 -1.6 -2.6 -2.7l1 -.5c.4 .9 1.2 1.6 2.2 2.2l-.6 1Zm-3.4 -6.3v-3.4h1.2v3.4h-1.2Z" class="g2_127"/>
<path d="M353.3 780.8h96.8c1 0 2 .1 2.9 .3c1 .1 2 .4 2.9 .8c.9 .4 1.8 .9 2.6 1.4c.9 .6 1.6 1.2 2.3 1.9c.7 .7 1.4 1.5 1.9 2.3c.6 .9 1.1 1.7 1.4 2.7c.4 .9 .7 1.8 .9 2.8c.2 1 .3 2 .3 3v71c0 1 -.1 2 -.3 3c-.2 1 -.5 1.9 -.9 2.9c-.3 .9 -.8 1.8 -1.4 2.6c-.5 .8 -1.2 1.6 -1.9 2.3c-.7 .7 -1.4 1.3 -2.3 1.9c-.8 .5 -1.7 1 -2.6 1.4c-.9 .4 -1.9 .7 -2.9 .9c-.9 .2 -1.9 .3 -2.9 .3H353.3c-1 0 -1.9 -.1 -2.9 -.3c-1 -.2 -2 -.5 -2.9 -.9c-.9 -.4 -1.8 -.9 -2.6 -1.4c-.8 -.6 -1.6 -1.2 -2.3 -1.9c-.7 -.7 -1.4 -1.5 -1.9 -2.3c-.6 -.8 -1 -1.7 -1.4 -2.6c-.4 -1 -.7 -1.9 -.9 -2.9c-.2 -1 -.3 -2 -.3 -3V796c0 -1 .1 -2 .3 -3c.2 -1 .5 -1.9 .9 -2.8c.4 -1 .8 -1.8 1.4 -2.7c.5 -.8 1.2 -1.6 1.9 -2.3c.7 -.7 1.5 -1.3 2.3 -1.9c.8 -.5 1.7 -1 2.6 -1.4c.9 -.4 1.9 -.7 2.9 -.8c1 -.2 1.9 -.3 2.9 -.3Z" class="g0_127"/>
<path d="M353.3 780.8h96.8c1 0 2 .1 2.9 .3c1 .1 2 .4 2.9 .8c.9 .4 1.8 .9 2.6 1.4c.9 .6 1.6 1.2 2.3 1.9c.7 .7 1.4 1.5 1.9 2.3c.6 .9 1.1 1.7 1.4 2.7c.4 .9 .7 1.8 .9 2.8c.2 1 .3 2 .3 3v71c0 1 -.1 2 -.3 3c-.2 1 -.5 1.9 -.9 2.9c-.3 .9 -.8 1.8 -1.4 2.6c-.5 .8 -1.2 1.6 -1.9 2.3c-.7 .7 -1.4 1.3 -2.3 1.9c-.8 .5 -1.7 1 -2.6 1.4c-.9 .4 -1.9 .7 -2.9 .9c-.9 .2 -1.9 .3 -2.9 .3H353.3c-1 0 -1.9 -.1 -2.9 -.3c-1 -.2 -2 -.5 -2.9 -.9c-.9 -.4 -1.8 -.9 -2.6 -1.4c-.8 -.6 -1.6 -1.2 -2.3 -1.9c-.7 -.7 -1.4 -1.5 -1.9 -2.3c-.6 -.8 -1 -1.7 -1.4 -2.6c-.4 -1 -.7 -1.9 -.9 -2.9c-.2 -1 -.3 -2 -.3 -3V796c0 -1 .1 -2 .3 -3c.2 -1 .5 -1.9 .9 -2.8c.4 -1 .8 -1.8 1.4 -2.7c.5 -.8 1.2 -1.6 1.9 -2.3c.7 -.7 1.5 -1.3 2.3 -1.9c.8 -.5 1.7 -1 2.6 -1.4c.9 -.4 1.9 -.7 2.9 -.8c1 -.2 1.9 -.3 2.9 -.3Z" class="g1_127"/>
<path d="M350.7 852.9h29.8v23H350.7v-23Z" class="g0_127"/>
<path d="M350.7 852.9h29.8v23H350.7v-23Z" class="g3_127"/>
<path d="M387.4 852.9h29.8v23H387.4v-23Z" class="g0_127"/>
<path d="M387.4 852.9h29.8v23H387.4v-23Z" class="g3_127"/>
<path d="M424.1 852.9h29.7v23H424.1v-23Z" class="g0_127"/>
<path d="M424.1 852.9h29.7v23H424.1v-23Z" class="g3_127"/>
<path d="M350.7 787.6h29.8v23H350.7v-23Z" class="g0_127"/>
<path d="M353 787.1h1.2v1.1H353v-1.1Zm2.3 0h1.1v1.1h-1.1v-1.1Zm2.3 0h1.1v1.1h-1.1v-1.1Zm2.3 0H361v1.1h-1.1v-1.1Zm2.3 0h1.1v1.1h-1.1v-1.1Zm2.3 0h1.1v1.1h-1.1v-1.1Zm2.3 0h1.1v1.1h-1.1v-1.1Zm2.3 0h1.1v1.1h-1.1v-1.1Zm2.2 0h1.2v1.1h-1.2v-1.1Zm2.3 0h1.2v1.1h-1.2v-1.1Zm2.3 0h1.2v1.1h-1.2v-1.1Zm2.3 0h1.2v1.1h-1.2v-1.1Zm2.9 .6v1.1h-1.2v-1.1h1.2Zm0 2.2v1.2h-1.2v-1.2h1.2Zm0 2.3v1.2h-1.2v-1.2h1.2Zm0 2.3v1.2h-1.2v-1.2h1.2Zm0 2.3V798h-1.2v-1.2h1.2Zm0 2.3v1.2h-1.2v-1.2h1.2Zm0 2.3v1.2h-1.2v-1.2h1.2Zm0 2.3v1.1h-1.2v-1.1h1.2Zm0 2.3v1.1h-1.2V806h1.2Zm0 2.3v1.1h-1.2v-1.1h1.2Zm-.6 2.8h-1.2V810h1.2v1.1Zm-2.3 0H377V810h1.2v1.1Zm-2.3 0h-1.2V810h1.2v1.1Zm-2.3 0h-1.2V810h1.2v1.1Zm-2.3 0h-1.1V810h1.1v1.1Zm-2.3 0h-1.1V810H369v1.1Zm-2.3 0h-1.1V810h1.1v1.1Zm-2.3 0h-1.1V810h1.1v1.1Zm-2.3 0H361V810h1.1v1.1Zm-2.3 0h-1.1V810h1.1v1.1Zm-2.3 0h-1.1V810h1.1v1.1Zm-2.2 0h-1.2V810h1.2v1.1Zm-2.3 0h-1.2V810H353v1.1Zm-2.9 -.6v-1.1h1.2v1.1h-1.2Zm0 -2.3v-1.1h1.2v1.1h-1.2Zm0 -2.3v-1.1h1.2v1.1h-1.2Zm0 -2.3v-1.1h1.2v1.1h-1.2Zm0 -2.3v-1.1h1.2v1.1h-1.2Zm0 -2.3v-1.1h1.2V799h-1.2Zm0 -2.2v-1.2h1.2v1.2h-1.2Zm0 -2.3v-1.2h1.2v1.2h-1.2Zm0 -2.3V791h1.2v1.2h-1.2Zm0 -2.3v-1.2h1.2v1.2h-1.2Zm.6 -2.8h1.2v1.1h-1.2v-1.1Z" class="g2_127"/>
<path d="M387.4 787.6h29.8v23H387.4v-23Z" class="g0_127"/>
<path d="M389.7 787.1h1.1v1.1h-1.1v-1.1Zm2.3 0h1.1v1.1H392v-1.1Zm2.3 0h1.1v1.1h-1.1v-1.1Zm2.3 0h1.1v1.1h-1.1v-1.1Zm2.2 0H400v1.1h-1.2v-1.1Zm2.3 0h1.2v1.1h-1.2v-1.1Zm2.3 0h1.2v1.1h-1.2v-1.1Zm2.3 0h1.2v1.1h-1.2v-1.1Zm2.3 0h1.2v1.1H408v-1.1Zm2.3 0h1.1v1.1h-1.1v-1.1Zm2.3 0h1.1v1.1h-1.1v-1.1Zm2.3 0H416v1.1h-1.1v-1.1Zm2.8 .6v1.1h-1.1v-1.1h1.1Zm0 2.2v1.2h-1.1v-1.2h1.1Zm0 2.3v1.2h-1.1v-1.2h1.1Zm0 2.3v1.2h-1.1v-1.2h1.1Zm0 2.3V798h-1.1v-1.2h1.1Zm0 2.3v1.2h-1.1v-1.2h1.1Zm0 2.3v1.2h-1.1v-1.2h1.1Zm0 2.3v1.1h-1.1v-1.1h1.1Zm0 2.3v1.1h-1.1V806h1.1Zm0 2.3v1.1h-1.1v-1.1h1.1Zm-.6 2.8H416V810h1.1v1.1Zm-2.3 0h-1.1V810h1.1v1.1Zm-2.3 0h-1.1V810h1.1v1.1Zm-2.2 0h-1.2V810h1.2v1.1Zm-2.3 0h-1.2V810H408v1.1Zm-2.3 0h-1.2V810h1.2v1.1Zm-2.3 0h-1.2V810h1.2v1.1Zm-2.3 0h-1.2V810h1.2v1.1Zm-2.3 0h-1.1V810h1.1v1.1Zm-2.3 0h-1.1V810h1.1v1.1Zm-2.3 0h-1.1V810h1.1v1.1Zm-2.3 0h-1.1V810h1.1v1.1Zm-2.3 0h-1.1V810h1.1v1.1Zm-2.8 -.6v-1.1H388v1.1h-1.2Zm0 -2.3v-1.1H388v1.1h-1.2Zm0 -2.3v-1.1H388v1.1h-1.2Zm0 -2.3v-1.1H388v1.1h-1.2Zm0 -2.3v-1.1H388v1.1h-1.2Zm0 -2.3v-1.1H388V799h-1.2Zm0 -2.2v-1.2H388v1.2h-1.2Zm0 -2.3v-1.2H388v1.2h-1.2Zm0 -2.3V791H388v1.2h-1.2Zm0 -2.3v-1.2H388v1.2h-1.2Zm.6 -2.8h1.1v1.1h-1.1v-1.1Z" class="g2_127"/>
<path d="M424.1 787.6h29.7v23H424.1v-23Z" class="g0_127"/>
<path d="M426.3 787.1h1.2v1.1h-1.2v-1.1Zm2.3 0h1.2v1.1h-1.2v-1.1Zm2.3 0h1.2v1.1h-1.2v-1.1Zm2.3 0h1.2v1.1h-1.2v-1.1Zm2.3 0h1.2v1.1h-1.2v-1.1Zm2.3 0h1.1v1.1h-1.1v-1.1Zm2.3 0h1.1v1.1h-1.1v-1.1Zm2.3 0h1.1v1.1h-1.1v-1.1Zm2.3 0h1.1v1.1h-1.1v-1.1Zm2.3 0h1.1v1.1H447v-1.1Zm2.3 0h1.1v1.1h-1.1v-1.1Zm2.3 0h1.1v1.1h-1.1v-1.1Zm2.8 .6v1.1h-1.2v-1.1h1.2Zm0 2.2v1.2h-1.2v-1.2h1.2Zm0 2.3v1.2h-1.2v-1.2h1.2Zm0 2.3v1.2h-1.2v-1.2h1.2Zm0 2.3V798h-1.2v-1.2h1.2Zm0 2.3v1.2h-1.2v-1.2h1.2Zm0 2.3v1.2h-1.2v-1.2h1.2Zm0 2.3v1.1h-1.2v-1.1h1.2Zm0 2.3v1.1h-1.2V806h1.2Zm0 2.3v1.1h-1.2v-1.1h1.2Zm-.6 2.8h-1.1V810h1.1v1.1Zm-2.3 0h-1.1V810h1.1v1.1Zm-2.3 0h-1.1V810h1.1v1.1Zm-2.3 0h-1.1V810h1.1v1.1Zm-2.3 0h-1.1V810h1.1v1.1Zm-2.3 0h-1.1V810h1.1v1.1Zm-2.3 0h-1.1V810H440v1.1Zm-2.2 0h-1.2V810h1.2v1.1Zm-2.3 0h-1.2V810h1.2v1.1Zm-2.3 0H432V810h1.2v1.1Zm-2.3 0h-1.2V810h1.2v1.1Zm-2.3 0h-1.2V810h1.2v1.1Zm-2.3 0h-1.1V810h1.1v1.1Zm-2.8 -.6v-1.1h1.1v1.1h-1.1Zm0 -2.3v-1.1h1.1v1.1h-1.1Zm0 -2.3v-1.1h1.1v1.1h-1.1Zm0 -2.3v-1.1h1.1v1.1h-1.1Zm0 -2.3v-1.1h1.1v1.1h-1.1Zm0 -2.3v-1.1h1.1V799h-1.1Zm0 -2.2v-1.2h1.1v1.2h-1.1Zm0 -2.3v-1.2h1.1v1.2h-1.1Zm0 -2.3V791h1.1v1.2h-1.1Zm0 -2.3v-1.2h1.1v1.2h-1.1Zm.6 -2.8h1.1v1.1h-1.1v-1.1Z" class="g2_127"/>
<path d="M350.7 820.9h29.8v22.9H350.7V820.9Z" class="g0_127"/>
<path d="M353 820.3h1.2v1.1H353v-1.1Zm2.3 0h1.1v1.1h-1.1v-1.1Zm2.3 0h1.1v1.1h-1.1v-1.1Zm2.3 0H361v1.1h-1.1v-1.1Zm2.3 0h1.1v1.1h-1.1v-1.1Zm2.3 0h1.1v1.1h-1.1v-1.1Zm2.3 0h1.1v1.1h-1.1v-1.1Zm2.3 0h1.1v1.1h-1.1v-1.1Zm2.2 0h1.2v1.1h-1.2v-1.1Zm2.3 0h1.2v1.1h-1.2v-1.1Zm2.3 0h1.2v1.1h-1.2v-1.1Zm2.3 0h1.2v1.1h-1.2v-1.1Zm2.9 .6V822h-1.2v-1.1h1.2Zm0 2.3v1.1h-1.2v-1.1h1.2Zm0 2.3v1.1h-1.2v-1.1h1.2Zm0 2.3v1.1h-1.2v-1.1h1.2Zm0 2.3v1.1h-1.2v-1.1h1.2Zm0 2.2v1.2h-1.2v-1.2h1.2Zm0 2.3v1.2h-1.2v-1.2h1.2Zm0 2.3v1.2h-1.2v-1.2h1.2Zm0 2.3v1.2h-1.2v-1.2h1.2Zm0 2.3v1.2h-1.2v-1.2h1.2Zm-.6 2.9h-1.2v-1.2h1.2v1.2Zm-2.3 0H377v-1.2h1.2v1.2Zm-2.3 0h-1.2v-1.2h1.2v1.2Zm-2.3 0h-1.2v-1.2h1.2v1.2Zm-2.3 0h-1.1v-1.2h1.1v1.2Zm-2.3 0h-1.1v-1.2H369v1.2Zm-2.3 0h-1.1v-1.2h1.1v1.2Zm-2.3 0h-1.1v-1.2h1.1v1.2Zm-2.3 0H361v-1.2h1.1v1.2Zm-2.3 0h-1.1v-1.2h1.1v1.2Zm-2.3 0h-1.1v-1.2h1.1v1.2Zm-2.2 0h-1.2v-1.2h1.2v1.2Zm-2.3 0h-1.2v-1.2H353v1.2Zm-2.9 -.7v-1.1h1.2v1.1h-1.2Zm0 -2.3v-1.1h1.2v1.1h-1.2Zm0 -2.2V838h1.2v1.2h-1.2Zm0 -2.3v-1.2h1.2v1.2h-1.2Zm0 -2.3v-1.2h1.2v1.2h-1.2Zm0 -2.3v-1.2h1.2v1.2h-1.2Zm0 -2.3v-1.2h1.2V830h-1.2Zm0 -2.3v-1.2h1.2v1.2h-1.2Zm0 -2.3v-1.1h1.2v1.1h-1.2Zm0 -2.3V822h1.2v1.1h-1.2Zm.6 -2.8h1.2v1.1h-1.2v-1.1Z" class="g2_127"/>
<path d="M424.1 820.9h29.7v22.9H424.1V820.9Z" class="g0_127"/>
<path d="M426.3 820.3h1.2v1.1h-1.2v-1.1Zm2.3 0h1.2v1.1h-1.2v-1.1Zm2.3 0h1.2v1.1h-1.2v-1.1Zm2.3 0h1.2v1.1h-1.2v-1.1Zm2.3 0h1.2v1.1h-1.2v-1.1Zm2.3 0h1.1v1.1h-1.1v-1.1Zm2.3 0h1.1v1.1h-1.1v-1.1Zm2.3 0h1.1v1.1h-1.1v-1.1Zm2.3 0h1.1v1.1h-1.1v-1.1Zm2.3 0h1.1v1.1H447v-1.1Zm2.3 0h1.1v1.1h-1.1v-1.1Zm2.3 0h1.1v1.1h-1.1v-1.1Zm2.8 .6V822h-1.2v-1.1h1.2Zm0 2.3v1.1h-1.2v-1.1h1.2Zm0 2.3v1.1h-1.2v-1.1h1.2Zm0 2.3v1.1h-1.2v-1.1h1.2Zm0 2.3v1.1h-1.2v-1.1h1.2Zm0 2.2v1.2h-1.2v-1.2h1.2Zm0 2.3v1.2h-1.2v-1.2h1.2Zm0 2.3v1.2h-1.2v-1.2h1.2Zm0 2.3v1.2h-1.2v-1.2h1.2Zm0 2.3v1.2h-1.2v-1.2h1.2Zm-.6 2.9h-1.1v-1.2h1.1v1.2Zm-2.3 0h-1.1v-1.2h1.1v1.2Zm-2.3 0h-1.1v-1.2h1.1v1.2Zm-2.3 0h-1.1v-1.2h1.1v1.2Zm-2.3 0h-1.1v-1.2h1.1v1.2Zm-2.3 0h-1.1v-1.2h1.1v1.2Zm-2.3 0h-1.1v-1.2H440v1.2Zm-2.2 0h-1.2v-1.2h1.2v1.2Zm-2.3 0h-1.2v-1.2h1.2v1.2Zm-2.3 0H432v-1.2h1.2v1.2Zm-2.3 0h-1.2v-1.2h1.2v1.2Zm-2.3 0h-1.2v-1.2h1.2v1.2Zm-2.3 0h-1.1v-1.2h1.1v1.2Zm-2.8 -.7v-1.1h1.1v1.1h-1.1Zm0 -2.3v-1.1h1.1v1.1h-1.1Zm0 -2.2V838h1.1v1.2h-1.1Zm0 -2.3v-1.2h1.1v1.2h-1.1Zm0 -2.3v-1.2h1.1v1.2h-1.1Zm0 -2.3v-1.2h1.1v1.2h-1.1Zm0 -2.3v-1.2h1.1V830h-1.1Zm0 -2.3v-1.2h1.1v1.2h-1.1Zm0 -2.3v-1.1h1.1v1.1h-1.1Zm0 -2.3V822h1.1v1.1h-1.1Zm.6 -2.8h1.1v1.1h-1.1v-1.1Z" class="g2_127"/>
<path d="M387.4 820.9h29.8v22.9H387.4V820.9Z" class="g0_127"/>
<path d="M389.7 820.3h1.1v1.1h-1.1v-1.1Zm2.3 0h1.1v1.1H392v-1.1Zm2.3 0h1.1v1.1h-1.1v-1.1Zm2.3 0h1.1v1.1h-1.1v-1.1Zm2.2 0H400v1.1h-1.2v-1.1Zm2.3 0h1.2v1.1h-1.2v-1.1Zm2.3 0h1.2v1.1h-1.2v-1.1Zm2.3 0h1.2v1.1h-1.2v-1.1Zm2.3 0h1.2v1.1H408v-1.1Zm2.3 0h1.1v1.1h-1.1v-1.1Zm2.3 0h1.1v1.1h-1.1v-1.1Zm2.3 0H416v1.1h-1.1v-1.1Zm2.8 .6V822h-1.1v-1.1h1.1Zm0 2.3v1.1h-1.1v-1.1h1.1Zm0 2.3v1.1h-1.1v-1.1h1.1Zm0 2.3v1.1h-1.1v-1.1h1.1Zm0 2.3v1.1h-1.1v-1.1h1.1Zm0 2.2v1.2h-1.1v-1.2h1.1Zm0 2.3v1.2h-1.1v-1.2h1.1Zm0 2.3v1.2h-1.1v-1.2h1.1Zm0 2.3v1.2h-1.1v-1.2h1.1Zm0 2.3v1.2h-1.1v-1.2h1.1Zm-.6 2.9H416v-1.2h1.1v1.2Zm-2.3 0h-1.1v-1.2h1.1v1.2Zm-2.3 0h-1.1v-1.2h1.1v1.2Zm-2.2 0h-1.2v-1.2h1.2v1.2Zm-2.3 0h-1.2v-1.2H408v1.2Zm-2.3 0h-1.2v-1.2h1.2v1.2Zm-2.3 0h-1.2v-1.2h1.2v1.2Zm-2.3 0h-1.2v-1.2h1.2v1.2Zm-2.3 0h-1.1v-1.2h1.1v1.2Zm-2.3 0h-1.1v-1.2h1.1v1.2Zm-2.3 0h-1.1v-1.2h1.1v1.2Zm-2.3 0h-1.1v-1.2h1.1v1.2Zm-2.3 0h-1.1v-1.2h1.1v1.2Zm-2.8 -.7v-1.1H388v1.1h-1.2Zm0 -2.3v-1.1H388v1.1h-1.2Zm0 -2.2V838H388v1.2h-1.2Zm0 -2.3v-1.2H388v1.2h-1.2Zm0 -2.3v-1.2H388v1.2h-1.2Zm0 -2.3v-1.2H388v1.2h-1.2Zm0 -2.3v-1.2H388V830h-1.2Zm0 -2.3v-1.2H388v1.2h-1.2Zm0 -2.3v-1.1H388v1.1h-1.2Zm0 -2.3V822H388v1.1h-1.2Zm.6 -2.8h1.1v1.1h-1.1v-1.1Z" class="g2_127"/>
<path d="M504 780.8h99c1 0 2 .1 3 .3c1 .1 1.9 .4 2.9 .8c.9 .4 1.8 .9 2.6 1.4c.8 .6 1.6 1.2 2.3 1.9c.7 .7 1.3 1.5 1.9 2.3c.6 .9 1 1.7 1.4 2.7c.4 .9 .7 1.8 .9 2.8c.2 1 .3 2 .3 3v71c0 1 -.1 2 -.3 3c-.2 1 -.5 1.9 -.9 2.9c-.4 .9 -.8 1.8 -1.4 2.6c-.6 .8 -1.2 1.6 -1.9 2.3c-.7 .7 -1.5 1.3 -2.3 1.9c-.8 .5 -1.7 1 -2.6 1.4c-1 .4 -1.9 .7 -2.9 .9c-1 .2 -2 .3 -3 .3H504c-1 0 -2 -.1 -3 -.3c-.9 -.2 -1.9 -.5 -2.8 -.9c-.9 -.4 -1.8 -.9 -2.6 -1.4c-.9 -.6 -1.6 -1.2 -2.3 -1.9c-.8 -.7 -1.4 -1.5 -1.9 -2.3c-.6 -.8 -1.1 -1.7 -1.4 -2.6c-.4 -1 -.7 -1.9 -.9 -2.9c-.2 -1 -.3 -2 -.3 -3V796c0 -1 .1 -2 .3 -3c.2 -1 .5 -1.9 .9 -2.8c.3 -1 .8 -1.8 1.4 -2.7c.5 -.8 1.1 -1.6 1.9 -2.3c.7 -.7 1.4 -1.3 2.3 -1.9c.8 -.5 1.7 -1 2.6 -1.4c.9 -.4 1.9 -.7 2.8 -.8c1 -.2 2 -.3 3 -.3Z" class="g0_127"/>
<path d="M504 780.8h99c1 0 2 .1 3 .3c1 .1 1.9 .4 2.9 .8c.9 .4 1.8 .9 2.6 1.4c.8 .6 1.6 1.2 2.3 1.9c.7 .7 1.3 1.5 1.9 2.3c.6 .9 1 1.7 1.4 2.7c.4 .9 .7 1.8 .9 2.8c.2 1 .3 2 .3 3v71c0 1 -.1 2 -.3 3c-.2 1 -.5 1.9 -.9 2.9c-.4 .9 -.8 1.8 -1.4 2.6c-.6 .8 -1.2 1.6 -1.9 2.3c-.7 .7 -1.5 1.3 -2.3 1.9c-.8 .5 -1.7 1 -2.6 1.4c-1 .4 -1.9 .7 -2.9 .9c-1 .2 -2 .3 -3 .3H504c-1 0 -2 -.1 -3 -.3c-.9 -.2 -1.9 -.5 -2.8 -.9c-.9 -.4 -1.8 -.9 -2.6 -1.4c-.9 -.6 -1.6 -1.2 -2.3 -1.9c-.8 -.7 -1.4 -1.5 -1.9 -2.3c-.6 -.8 -1.1 -1.7 -1.4 -2.6c-.4 -1 -.7 -1.9 -.9 -2.9c-.2 -1 -.3 -2 -.3 -3V796c0 -1 .1 -2 .3 -3c.2 -1 .5 -1.9 .9 -2.8c.3 -1 .8 -1.8 1.4 -2.7c.5 -.8 1.1 -1.6 1.9 -2.3c.7 -.7 1.4 -1.3 2.3 -1.9c.8 -.5 1.7 -1 2.6 -1.4c.9 -.4 1.9 -.7 2.8 -.8c1 -.2 2 -.3 3 -.3Z" class="g1_127"/>
<path d="M501.4 852.9h29.8v23H501.4v-23Z" class="g0_127"/>
<path d="M501.4 852.9h29.8v23H501.4v-23Z" class="g3_127"/>
<path d="M538.1 852.9h29.7v23H538.1v-23Z" class="g0_127"/>
<path d="M538.1 852.9h29.7v23H538.1v-23Z" class="g3_127"/>
<path d="M574.7 852.9h29.8v23H574.7v-23Z" class="g0_127"/>
<path d="M574.7 852.9h29.8v23H574.7v-23Z" class="g3_127"/>
<path d="M501.4 787.6h29.8v23H501.4v-23Z" class="g0_127"/>
<path d="M503.7 787.1h1.1v1.1h-1.1v-1.1Zm2.3 0h1.1v1.1H506v-1.1Zm2.3 0h1.1v1.1h-1.1v-1.1Zm2.3 0h1.1v1.1h-1.1v-1.1Zm2.3 0H514v1.1h-1.1v-1.1Zm2.2 0h1.2v1.1h-1.2v-1.1Zm2.3 0h1.2v1.1h-1.2v-1.1Zm2.3 0h1.2v1.1h-1.2v-1.1Zm2.3 0h1.2v1.1H522v-1.1Zm2.3 0h1.2v1.1h-1.2v-1.1Zm2.3 0h1.2v1.1h-1.2v-1.1Zm2.3 0H530v1.1h-1.1v-1.1Zm2.8 .6v1.1h-1.1v-1.1h1.1Zm0 2.2v1.2h-1.1v-1.2h1.1Zm0 2.3v1.2h-1.1v-1.2h1.1Zm0 2.3v1.2h-1.1v-1.2h1.1Zm0 2.3V798h-1.1v-1.2h1.1Zm0 2.3v1.2h-1.1v-1.2h1.1Zm0 2.3v1.2h-1.1v-1.2h1.1Zm0 2.3v1.1h-1.1v-1.1h1.1Zm0 2.3v1.1h-1.1V806h1.1Zm0 2.3v1.1h-1.1v-1.1h1.1Zm-.6 2.8H530V810h1.1v1.1Zm-2.2 0h-1.2V810h1.2v1.1Zm-2.3 0h-1.2V810h1.2v1.1Zm-2.3 0h-1.2V810h1.2v1.1Zm-2.3 0h-1.2V810H522v1.1Zm-2.3 0h-1.2V810h1.2v1.1Zm-2.3 0h-1.2V810h1.2v1.1Zm-2.3 0H514V810h1.1v1.1Zm-2.3 0h-1.1V810h1.1v1.1Zm-2.3 0h-1.1V810h1.1v1.1Zm-2.3 0h-1.1V810h1.1v1.1Zm-2.3 0h-1.1V810h1.1v1.1Zm-2.3 0h-1.1V810h1.1v1.1Zm-2.8 -.6v-1.1H502v1.1h-1.2Zm0 -2.3v-1.1H502v1.1h-1.2Zm0 -2.3v-1.1H502v1.1h-1.2Zm0 -2.3v-1.1H502v1.1h-1.2Zm0 -2.3v-1.1H502v1.1h-1.2Zm0 -2.3v-1.1H502V799h-1.2Zm0 -2.2v-1.2H502v1.2h-1.2Zm0 -2.3v-1.2H502v1.2h-1.2Zm0 -2.3V791H502v1.2h-1.2Zm0 -2.3v-1.2H502v1.2h-1.2Zm.6 -2.8h1.1v1.1h-1.1v-1.1Z" class="g2_127"/>
<path d="M538.1 787.6h29.7v23H538.1v-23Z" class="g0_127"/>
<path d="M540.4 787.1h1.1v1.1h-1.1v-1.1Zm2.2 0h1.2v1.1h-1.2v-1.1Zm2.3 0h1.2v1.1h-1.2v-1.1Zm2.3 0h1.2v1.1h-1.2v-1.1Zm2.3 0h1.2v1.1h-1.2v-1.1Zm2.3 0H553v1.1h-1.2v-1.1Zm2.3 0h1.2v1.1h-1.2v-1.1Zm2.3 0h1.1v1.1h-1.1v-1.1Zm2.3 0h1.1v1.1h-1.1v-1.1Zm2.3 0h1.1v1.1H561v-1.1Zm2.3 0h1.1v1.1h-1.1v-1.1Zm2.3 0h1.1v1.1h-1.1v-1.1Zm2.8 .6v1.1h-1.1v-1.1h1.1Zm0 2.2v1.2h-1.1v-1.2h1.1Zm0 2.3v1.2h-1.1v-1.2h1.1Zm0 2.3v1.2h-1.1v-1.2h1.1Zm0 2.3V798h-1.1v-1.2h1.1Zm0 2.3v1.2h-1.1v-1.2h1.1Zm0 2.3v1.2h-1.1v-1.2h1.1Zm0 2.3v1.1h-1.1v-1.1h1.1Zm0 2.3v1.1h-1.1V806h1.1Zm0 2.3v1.1h-1.1v-1.1h1.1Zm-.6 2.8h-1.1V810h1.1v1.1Zm-2.3 0h-1.1V810h1.1v1.1Zm-2.3 0h-1.1V810h1.1v1.1Zm-2.3 0h-1.1V810h1.1v1.1Zm-2.3 0h-1.1V810h1.1v1.1Zm-2.2 0h-1.2V810h1.2v1.1Zm-2.3 0h-1.2V810h1.2v1.1Zm-2.3 0h-1.2V810h1.2v1.1Zm-2.3 0h-1.2V810h1.2v1.1Zm-2.3 0H546V810h1.2v1.1Zm-2.3 0h-1.2V810h1.2v1.1Zm-2.3 0h-1.1V810h1.1v1.1Zm-2.3 0h-1.1V810h1.1v1.1Zm-2.8 -.6v-1.1h1.1v1.1h-1.1Zm0 -2.3v-1.1h1.1v1.1h-1.1Zm0 -2.3v-1.1h1.1v1.1h-1.1Zm0 -2.3v-1.1h1.1v1.1h-1.1Zm0 -2.3v-1.1h1.1v1.1h-1.1Zm0 -2.3v-1.1h1.1V799h-1.1Zm0 -2.2v-1.2h1.1v1.2h-1.1Zm0 -2.3v-1.2h1.1v1.2h-1.1Zm0 -2.3V791h1.1v1.2h-1.1Zm0 -2.3v-1.2h1.1v1.2h-1.1Zm.6 -2.8h1.1v1.1h-1.1v-1.1Z" class="g2_127"/>
<path d="M574.7 787.6h29.8v23H574.7v-23Z" class="g0_127"/>
<path d="M577 787.1h1.2v1.1H577v-1.1Zm2.3 0h1.2v1.1h-1.2v-1.1Zm2.3 0h1.2v1.1h-1.2v-1.1Zm2.3 0H585v1.1h-1.1v-1.1Zm2.3 0h1.1v1.1h-1.1v-1.1Zm2.3 0h1.1v1.1h-1.1v-1.1Zm2.3 0h1.1v1.1h-1.1v-1.1Zm2.3 0h1.1v1.1h-1.1v-1.1Zm2.3 0h1.1v1.1h-1.1v-1.1Zm2.2 0h1.2v1.1h-1.2v-1.1Zm2.3 0h1.2v1.1h-1.2v-1.1Zm2.3 0h1.2v1.1h-1.2v-1.1Zm2.9 .6v1.1h-1.2v-1.1h1.2Zm0 2.2v1.2h-1.2v-1.2h1.2Zm0 2.3v1.2h-1.2v-1.2h1.2Zm0 2.3v1.2h-1.2v-1.2h1.2Zm0 2.3V798h-1.2v-1.2h1.2Zm0 2.3v1.2h-1.2v-1.2h1.2Zm0 2.3v1.2h-1.2v-1.2h1.2Zm0 2.3v1.1h-1.2v-1.1h1.2Zm0 2.3v1.1h-1.2V806h1.2Zm0 2.3v1.1h-1.2v-1.1h1.2Zm-.6 2.8h-1.2V810h1.2v1.1Zm-2.3 0H601V810h1.2v1.1Zm-2.3 0h-1.2V810h1.2v1.1Zm-2.3 0h-1.1V810h1.1v1.1Zm-2.3 0h-1.1V810h1.1v1.1Zm-2.3 0h-1.1V810H593v1.1Zm-2.3 0h-1.1V810h1.1v1.1Zm-2.3 0h-1.1V810h1.1v1.1Zm-2.3 0H585V810h1.1v1.1Zm-2.2 0h-1.2V810h1.2v1.1Zm-2.3 0h-1.2V810h1.2v1.1Zm-2.3 0h-1.2V810h1.2v1.1Zm-2.3 0h-1.2V810H577v1.1Zm-2.8 -.6v-1.1h1.1v1.1h-1.1Zm0 -2.3v-1.1h1.1v1.1h-1.1Zm0 -2.3v-1.1h1.1v1.1h-1.1Zm0 -2.3v-1.1h1.1v1.1h-1.1Zm0 -2.3v-1.1h1.1v1.1h-1.1Zm0 -2.3v-1.1h1.1V799h-1.1Zm0 -2.2v-1.2h1.1v1.2h-1.1Zm0 -2.3v-1.2h1.1v1.2h-1.1Zm0 -2.3V791h1.1v1.2h-1.1Zm0 -2.3v-1.2h1.1v1.2h-1.1Zm.5 -2.8h1.2v1.1h-1.2v-1.1Z" class="g2_127"/>
<path d="M501.4 820.9h29.8v22.9H501.4V820.9Z" class="g0_127"/>
<path d="M503.7 820.3h1.1v1.1h-1.1v-1.1Zm2.3 0h1.1v1.1H506v-1.1Zm2.3 0h1.1v1.1h-1.1v-1.1Zm2.3 0h1.1v1.1h-1.1v-1.1Zm2.3 0H514v1.1h-1.1v-1.1Zm2.2 0h1.2v1.1h-1.2v-1.1Zm2.3 0h1.2v1.1h-1.2v-1.1Zm2.3 0h1.2v1.1h-1.2v-1.1Zm2.3 0h1.2v1.1H522v-1.1Zm2.3 0h1.2v1.1h-1.2v-1.1Zm2.3 0h1.2v1.1h-1.2v-1.1Zm2.3 0H530v1.1h-1.1v-1.1Zm2.8 .6V822h-1.1v-1.1h1.1Zm0 2.3v1.1h-1.1v-1.1h1.1Zm0 2.3v1.1h-1.1v-1.1h1.1Zm0 2.3v1.1h-1.1v-1.1h1.1Zm0 2.3v1.1h-1.1v-1.1h1.1Zm0 2.2v1.2h-1.1v-1.2h1.1Zm0 2.3v1.2h-1.1v-1.2h1.1Zm0 2.3v1.2h-1.1v-1.2h1.1Zm0 2.3v1.2h-1.1v-1.2h1.1Zm0 2.3v1.2h-1.1v-1.2h1.1Zm-.6 2.9H530v-1.2h1.1v1.2Zm-2.2 0h-1.2v-1.2h1.2v1.2Zm-2.3 0h-1.2v-1.2h1.2v1.2Zm-2.3 0h-1.2v-1.2h1.2v1.2Zm-2.3 0h-1.2v-1.2H522v1.2Zm-2.3 0h-1.2v-1.2h1.2v1.2Zm-2.3 0h-1.2v-1.2h1.2v1.2Zm-2.3 0H514v-1.2h1.1v1.2Zm-2.3 0h-1.1v-1.2h1.1v1.2Zm-2.3 0h-1.1v-1.2h1.1v1.2Zm-2.3 0h-1.1v-1.2h1.1v1.2Zm-2.3 0h-1.1v-1.2h1.1v1.2Zm-2.3 0h-1.1v-1.2h1.1v1.2Zm-2.8 -.7v-1.1H502v1.1h-1.2Zm0 -2.3v-1.1H502v1.1h-1.2Zm0 -2.2V838H502v1.2h-1.2Zm0 -2.3v-1.2H502v1.2h-1.2Zm0 -2.3v-1.2H502v1.2h-1.2Zm0 -2.3v-1.2H502v1.2h-1.2Zm0 -2.3v-1.2H502V830h-1.2Zm0 -2.3v-1.2H502v1.2h-1.2Zm0 -2.3v-1.1H502v1.1h-1.2Zm0 -2.3V822H502v1.1h-1.2Zm.6 -2.8h1.1v1.1h-1.1v-1.1Z" class="g2_127"/>
<path d="M574.7 820.9h29.8v22.9H574.7V820.9Z" class="g0_127"/>
<path d="M577 820.3h1.2v1.1H577v-1.1Zm2.3 0h1.2v1.1h-1.2v-1.1Zm2.3 0h1.2v1.1h-1.2v-1.1Zm2.3 0H585v1.1h-1.1v-1.1Zm2.3 0h1.1v1.1h-1.1v-1.1Zm2.3 0h1.1v1.1h-1.1v-1.1Zm2.3 0h1.1v1.1h-1.1v-1.1Zm2.3 0h1.1v1.1h-1.1v-1.1Zm2.3 0h1.1v1.1h-1.1v-1.1Zm2.2 0h1.2v1.1h-1.2v-1.1Zm2.3 0h1.2v1.1h-1.2v-1.1Zm2.3 0h1.2v1.1h-1.2v-1.1Zm2.9 .6V822h-1.2v-1.1h1.2Zm0 2.3v1.1h-1.2v-1.1h1.2Zm0 2.3v1.1h-1.2v-1.1h1.2Zm0 2.3v1.1h-1.2v-1.1h1.2Zm0 2.3v1.1h-1.2v-1.1h1.2Zm0 2.2v1.2h-1.2v-1.2h1.2Zm0 2.3v1.2h-1.2v-1.2h1.2Zm0 2.3v1.2h-1.2v-1.2h1.2Zm0 2.3v1.2h-1.2v-1.2h1.2Zm0 2.3v1.2h-1.2v-1.2h1.2Zm-.6 2.9h-1.2v-1.2h1.2v1.2Zm-2.3 0H601v-1.2h1.2v1.2Zm-2.3 0h-1.2v-1.2h1.2v1.2Zm-2.3 0h-1.1v-1.2h1.1v1.2Zm-2.3 0h-1.1v-1.2h1.1v1.2Zm-2.3 0h-1.1v-1.2H593v1.2Zm-2.3 0h-1.1v-1.2h1.1v1.2Zm-2.3 0h-1.1v-1.2h1.1v1.2Zm-2.3 0H585v-1.2h1.1v1.2Zm-2.2 0h-1.2v-1.2h1.2v1.2Zm-2.3 0h-1.2v-1.2h1.2v1.2Zm-2.3 0h-1.2v-1.2h1.2v1.2Zm-2.3 0h-1.2v-1.2H577v1.2Zm-2.8 -.7v-1.1h1.1v1.1h-1.1Zm0 -2.3v-1.1h1.1v1.1h-1.1Zm0 -2.2V838h1.1v1.2h-1.1Zm0 -2.3v-1.2h1.1v1.2h-1.1Zm0 -2.3v-1.2h1.1v1.2h-1.1Zm0 -2.3v-1.2h1.1v1.2h-1.1Zm0 -2.3v-1.2h1.1V830h-1.1Zm0 -2.3v-1.2h1.1v1.2h-1.1Zm0 -2.3v-1.1h1.1v1.1h-1.1Zm0 -2.3V822h1.1v1.1h-1.1Zm.5 -2.8h1.2v1.1h-1.2v-1.1Z" class="g2_127"/>
<path d="M538.1 820.9h29.7v22.9H538.1V820.9Z" class="g0_127"/>
<path d="M540.4 820.3h1.1v1.1h-1.1v-1.1Zm2.2 0h1.2v1.1h-1.2v-1.1Zm2.3 0h1.2v1.1h-1.2v-1.1Zm2.3 0h1.2v1.1h-1.2v-1.1Zm2.3 0h1.2v1.1h-1.2v-1.1Zm2.3 0H553v1.1h-1.2v-1.1Zm2.3 0h1.2v1.1h-1.2v-1.1Zm2.3 0h1.1v1.1h-1.1v-1.1Zm2.3 0h1.1v1.1h-1.1v-1.1Zm2.3 0h1.1v1.1H561v-1.1Zm2.3 0h1.1v1.1h-1.1v-1.1Zm2.3 0h1.1v1.1h-1.1v-1.1Zm2.8 .6V822h-1.1v-1.1h1.1Zm0 2.3v1.1h-1.1v-1.1h1.1Zm0 2.3v1.1h-1.1v-1.1h1.1Zm0 2.3v1.1h-1.1v-1.1h1.1Zm0 2.3v1.1h-1.1v-1.1h1.1Zm0 2.2v1.2h-1.1v-1.2h1.1Zm0 2.3v1.2h-1.1v-1.2h1.1Zm0 2.3v1.2h-1.1v-1.2h1.1Zm0 2.3v1.2h-1.1v-1.2h1.1Zm0 2.3v1.2h-1.1v-1.2h1.1Zm-.6 2.9h-1.1v-1.2h1.1v1.2Zm-2.3 0h-1.1v-1.2h1.1v1.2Zm-2.3 0h-1.1v-1.2h1.1v1.2Zm-2.3 0h-1.1v-1.2h1.1v1.2Zm-2.3 0h-1.1v-1.2h1.1v1.2Zm-2.2 0h-1.2v-1.2h1.2v1.2Zm-2.3 0h-1.2v-1.2h1.2v1.2Zm-2.3 0h-1.2v-1.2h1.2v1.2Zm-2.3 0h-1.2v-1.2h1.2v1.2Zm-2.3 0H546v-1.2h1.2v1.2Zm-2.3 0h-1.2v-1.2h1.2v1.2Zm-2.3 0h-1.1v-1.2h1.1v1.2Zm-2.3 0h-1.1v-1.2h1.1v1.2Zm-2.8 -.7v-1.1h1.1v1.1h-1.1Zm0 -2.3v-1.1h1.1v1.1h-1.1Zm0 -2.2V838h1.1v1.2h-1.1Zm0 -2.3v-1.2h1.1v1.2h-1.1Zm0 -2.3v-1.2h1.1v1.2h-1.1Zm0 -2.3v-1.2h1.1v1.2h-1.1Zm0 -2.3v-1.2h1.1V830h-1.1Zm0 -2.3v-1.2h1.1v1.2h-1.1Zm0 -2.3v-1.1h1.1v1.1h-1.1Zm0 -2.3V822h1.1v1.1h-1.1Zm.6 -2.8h1.1v1.1h-1.1v-1.1Z" class="g2_127"/>
</g>
</svg>