<?xml version="1.0" encoding="UTF-8" standalone="no"?>
<!DOCTYPE svg PUBLIC "-//W3C//DTD SVG 1.1//EN"
"http://www.w3.org/Graphics/SVG/1.1/DTD/svg11.dtd">
<svg viewBox="0 0 714 1017" version="1.1" xmlns="http://www.w3.org/2000/svg" xmlns:xlink="http://www.w3.org/1999/xlink">
<defs>
<clipPath id="c0_109"><path d="M140.1 369.6V261H589.3V369.6Z"/></clipPath>
<clipPath id="c1_109"><path d="M101.5 559.8V467H628.6v92.8Z"/></clipPath>
<clipPath id="c2_109"><path d="M140.1 369.6v-110H589.3v110Z"/></clipPath>
<clipPath id="c3_109"><path d="M101.5 560.1V466.9H630.1v93.2Z"/></clipPath>
<clipPath id="c4_109"><path d="M163.8 810V716.8H567.1V810Z"/></clipPath>
<style type="text/css"><![CDATA[
.g0_109{
fill: #FFF;
}
.g1_109{
fill: none;
stroke: #000;
stroke-width: 1.145;
stroke-miterlimit: 10;
}
.g2_109{
fill: #000;
}
.g3_109{
fill: none;
stroke: #000;
stroke-width: 3.437;
stroke-miterlimit: 10;
}
]]></style>
</defs>
<path d="M0 1017.7H717.2V-3.7H0V1017.7Z" class="g0_109"/>
<g clip-path="url(#c2_109)">
<path clip-path="url(#c0_109)" d="M140.1 261H589.3V369.9H140.1V261Z" class="g0_109"/>
<path d="M164.2 261.6h22.9V296H164.2V261.6Z" class="g0_109"/>
<path d="M164.2 261.6h22.9V296H164.2V261.6Z" class="g1_109"/>
<path d="M187.1 261.6H210V296H187.1V261.6Z" class="g0_109"/>
<path d="M187.1 261.6H210V296H187.1V261.6Z" class="g1_109"/>
<path d="M210 261.6h23V296H210V261.6Z" class="g0_109"/>
<path d="M210 261.6h23V296H210V261.6Z" class="g1_109"/>
<path d="M233 261.6h22.9V296H233V261.6Z" class="g0_109"/>
<path d="M233 261.6h22.9V296H233V261.6Z" class="g1_109"/>
<path d="M255.9 261.6h22.9V296H255.9V261.6Z" class="g0_109"/>
<path d="M255.9 261.6h22.9V296H255.9V261.6Z" class="g1_109"/>
<path d="M278.2 261.6h22.9V296H278.2V261.6Z" class="g0_109"/>
<path d="M278.2 261.6h22.9V296H278.2V261.6Z" class="g1_109"/>
<path d="M301.1 261.6H324V296H301.1V261.6Z" class="g0_109"/>
<path d="M301.1 261.6H324V296H301.1V261.6Z" class="g1_109"/>
<path d="M324 261.6h23V296H324V261.6Z" class="g0_109"/>
<path d="M324 261.6h23V296H324V261.6Z" class="g1_109"/>
<path d="M416.3 261.6H588.6V296H416.3V261.6Z" class="g0_109"/>
<path d="M416.3 261.6H588.6V296H416.3V261.6Z" class="g1_109"/>
<path d="M186.9 302.8c-.1 1.2 -.2 2.4 -.3 3.5l-1.1 -.1c.1 -1.1 .2 -2.3 .3 -3.5l1.1 .1Zm-.7 7.1c-.2 1.2 -.4 2.4 -.6 3.6l-1.1 -.3c.2 -1.1 .4 -2.3 .5 -3.5l1.2 .2Zm-1.4 7c-.2 1.1 -.5 2.1 -.8 3.1l-1.1 -.3c.3 -1 .6 -2 .8 -3.1l1.1 .3Zm-2 6.5c-.5 1.1 -1.1 2.2 -1.6 3.1l-1 -.6c.5 -.8 1 -1.9 1.5 -3l1.1 .5Zm-3.8 5.9c-1.1 1 -2.2 1.6 -3.4 1.6v-1.1c.8 -.1 1.7 -.5 2.6 -1.3l.8 .8Zm-6.8 .4c-.8 -.7 -1.6 -1.6 -2.4 -2.7l1 -.7c.7 1.1 1.4 1.9 2.1 2.5l-.7 .9Zm-4 -5.9c-.5 -1 -.9 -2.1 -1.3 -3.4l1.1 -.3c.4 1.2 .8 2.3 1.2 3.2l-1 .5ZM166 317.3c-.3 -1 -.5 -2.2 -.7 -3.3l1.1 -.3c.2 1.2 .5 2.3 .7 3.3l-1.1 .3Zm-1.4 -6.9c-.1 -1.2 -.3 -2.4 -.4 -3.6l1.1 -.1c.2 1.2 .3 2.4 .5 3.5l-1.2 .2Zm-.7 -7.1c-.1 -1.1 -.2 -2.3 -.2 -3.4l1.1 -.1c.1 1.2 .1 2.3 .2 3.4l-1.1 .1Zm-.3 -6.8V296c0 -1 0 -1.9 .1 -2.9h1.1c0 1 0 1.9 0 2.9v.5h-1.2Zm.2 -6.8c.1 -1.2 .2 -2.4 .3 -3.5l1.1 .1c-.1 1.1 -.2 2.3 -.2 3.4h-1.2Zm.7 -7.1c.2 -1.2 .4 -2.4 .6 -3.6l1.1 .2c-.2 1.2 -.4 2.4 -.6 3.6l-1.1 -.2Zm1.3 -7c.3 -1.1 .5 -2.2 .8 -3.2l1.1 .3c-.3 1 -.5 2.1 -.8 3.1l-1.1 -.2Zm2 -6.5c.5 -1.2 1 -2.3 1.5 -3.2l1 .6c-.5 .9 -1 1.9 -1.4 3l-1.1 -.4Zm3.6 -6.1c1 -1 2.1 -1.7 3.2 -1.9l.2 1.1c-.9 .2 -1.7 .7 -2.6 1.6l-.8 -.8Zm6.8 -1c.8 .6 1.7 1.5 2.4 2.6l-.9 .7c-.7 -1.1 -1.4 -1.8 -2.2 -2.4l.7 -.9Zm4.2 5.7c.4 1 .9 2.1 1.3 3.3l-1.1 .4c-.4 -1.2 -.8 -2.2 -1.3 -3.2l1.1 -.5Zm2.2 6.5c.3 1.1 .5 2.2 .8 3.3l-1.1 .3c-.3 -1.2 -.5 -2.3 -.8 -3.3l1.1 -.3Zm1.4 6.9c.2 1.1 .4 2.3 .5 3.6l-1.1 .1c-.2 -1.2 -.3 -2.4 -.5 -3.5l1.1 -.2Zm.8 7.1c.1 1.1 .2 2.3 .2 3.4l-1.1 .1c-.1 -1.2 -.1 -2.3 -.2 -3.4l1.1 -.1Zm.3 6.8v1c0 1.1 0 2.2 0 3.4l-1.2 -.1c.1 -1.1 .1 -2.2 .1 -3.3v-.9l1.1 -.1Z" class="g2_109"/>
<path d="M278.6 302.8c-.1 1.2 -.2 2.4 -.3 3.5l-1.1 -.1c.1 -1.1 .2 -2.3 .2 -3.4h1.2Zm-.7 7.1c-.2 1.2 -.4 2.4 -.6 3.6l-1.1 -.2c.2 -1.2 .4 -2.4 .5 -3.6l1.2 .2Zm-1.3 7c-.3 1.1 -.5 2.1 -.8 3.1l-1.1 -.3c.3 -1 .5 -2 .8 -3.1l1.1 .3Zm-2 6.5c-.5 1.2 -1 2.2 -1.5 3.2l-1 -.6c.5 -.9 1 -1.9 1.4 -3l1.1 .4Zm-3.7 6c-1.1 1 -2.2 1.5 -3.4 1.5v-1.1c.9 0 1.7 -.4 2.6 -1.2l.8 .8Zm-6.8 0c-.7 -.7 -1.5 -1.6 -2.2 -2.8l1 -.6c.7 1.1 1.3 2 2 2.6l-.8 .8Zm-3.7 -6c-.4 -1 -.8 -2.1 -1.2 -3.4l1.1 -.3c.4 1.2 .8 2.3 1.2 3.3l-1.1 .4Zm-2 -6.5c-.3 -1.1 -.5 -2.2 -.7 -3.4l1.1 -.2c.2 1.1 .5 2.3 .7 3.3l-1.1 .3Zm-1.3 -7c-.1 -1.2 -.3 -2.4 -.4 -3.6l1.1 -.1c.2 1.2 .3 2.4 .5 3.5l-1.2 .2Zm-.7 -7.1c0 -1.1 -.1 -2.3 -.1 -3.4l1.1 -.1c0 1.2 .1 2.3 .2 3.5h-1.2Zm-.2 -6.8v0c0 -1.1 0 -2.2 .1 -3.4l1.1 .1c0 1.1 0 2.2 0 3.3h-1.2Zm.2 -6.8c.1 -1.2 .2 -2.4 .3 -3.5l1.1 .1c-.1 1.1 -.2 2.3 -.2 3.4h-1.2Zm.7 -7.1c.2 -1.2 .4 -2.4 .6 -3.6l1.1 .2c-.2 1.2 -.4 2.4 -.5 3.6l-1.2 -.2Zm1.3 -7c.3 -1.1 .5 -2.1 .8 -3.1l1.1 .3c-.3 1 -.5 2 -.8 3.1l-1.1 -.3Zm2 -6.5c.5 -1.2 1 -2.2 1.5 -3.2l1 .6c-.5 .9 -1 1.9 -1.4 3l-1.1 -.4Zm3.7 -6c1.1 -1 2.2 -1.5 3.4 -1.6v1.2c-.9 0 -1.7 .4 -2.6 1.2l-.8 -.8Zm6.8 -.1c.7 .7 1.4 1.7 2.1 2.9l-1 .6c-.6 -1.1 -1.2 -2 -1.9 -2.6l.8 -.9Zm3.7 6.1c.4 1 .8 2.1 1.1 3.3l-1.1 .4c-.3 -1.2 -.7 -2.3 -1.1 -3.3l1.1 -.4Zm2 6.5c.2 1.1 .5 2.2 .7 3.4l-1.1 .2c-.2 -1.2 -.5 -2.3 -.7 -3.4l1.1 -.2Zm1.3 7c.1 1.1 .3 2.3 .4 3.5l-1.2 .1c-.1 -1.2 -.2 -2.3 -.4 -3.5l1.2 -.1Zm.7 7c0 1.2 .1 2.3 .1 3.5h-1.1c0 -1.1 -.1 -2.3 -.2 -3.4l1.2 -.1Zm.2 6.9v0c0 1.1 0 2.2 -.1 3.4l-1.1 -.1c0 -1.1 0 -2.2 0 -3.3h1.2Z" class="g2_109"/>
<path d="M255.3 334.9c0 3.2 -2.6 5.8 -5.7 5.8H215.2c-3.2 0 -5.7 2.5 -5.7 5.7c0 -3.2 -2.6 -5.7 -5.8 -5.7H169.4c-3.2 0 -5.8 -2.6 -5.8 -5.8m183.4 0c0 3.2 -2.6 5.8 -5.8 5.8H306.9c-3.2 0 -5.8 2.5 -5.8 5.7c0 -3.2 -2.5 -5.7 -5.7 -5.7H261c-3.1 0 -5.7 -2.6 -5.7 -5.8" class="g1_109"/>
<path d="M364.1 278.2h26.7m-6.4 5.2l10.3 -5.2l-10.3 -5.1" class="g3_109"/>
<path d="M232.7 302.8c0 1.2 -.1 2.4 -.3 3.5l-1.1 -.1c.1 -1.1 .2 -2.3 .3 -3.5l1.1 .1Zm-.7 7.1c-.2 1.2 -.4 2.4 -.6 3.6l-1.1 -.3c.2 -1.1 .4 -2.3 .6 -3.5l1.1 .2Zm-1.3 7c-.3 1.1 -.6 2.1 -.9 3.1l-1.1 -.3c.3 -1 .6 -2 .9 -3.1l1.1 .3Zm-2.1 6.5c-.5 1.1 -1 2.2 -1.6 3.1l-1 -.6c.6 -.8 1.1 -1.9 1.5 -3l1.1 .5Zm-3.8 5.9c-1.1 1 -2.2 1.6 -3.3 1.6l-.1 -1.1c.9 -.1 1.8 -.5 2.6 -1.3l.8 .8Zm-6.8 .4c-.8 -.7 -1.6 -1.6 -2.3 -2.7l.9 -.7c.7 1.1 1.4 1.9 2.1 2.5l-.7 .9Zm-4 -5.9c-.4 -1 -.9 -2.1 -1.3 -3.4l1.1 -.3c.4 1.2 .8 2.3 1.3 3.2l-1.1 .5Zm-2.1 -6.5c-.3 -1 -.6 -2.2 -.8 -3.3l1.1 -.3c.2 1.2 .5 2.3 .8 3.3l-1.1 .3Zm-1.4 -6.9c-.2 -1.2 -.3 -2.4 -.5 -3.6l1.2 -.1c.1 1.2 .2 2.4 .4 3.5l-1.1 .2Zm-.8 -7.1c-.1 -1.1 -.1 -2.3 -.2 -3.4l1.2 -.1c0 1.2 .1 2.3 .2 3.4l-1.2 .1Zm-.2 -6.8V296c0 -1 0 -1.9 0 -2.9h1.1c0 1 0 1.9 0 2.9v.5h-1.1Zm.2 -6.8c0 -1.2 .1 -2.4 .2 -3.5l1.2 .1c-.1 1.1 -.2 2.3 -.3 3.4h-1.1Zm.6 -7.1c.2 -1.2 .4 -2.4 .6 -3.6l1.1 .2c-.2 1.2 -.4 2.4 -.5 3.6l-1.2 -.2Zm1.3 -7c.3 -1.1 .6 -2.2 .9 -3.2l1.1 .3c-.3 1 -.6 2.1 -.9 3.1l-1.1 -.2Zm2 -6.5c.5 -1.2 1 -2.3 1.5 -3.2l1 .6c-.5 .9 -.9 1.9 -1.4 3l-1.1 -.4Zm3.6 -6.1c1 -1 2.1 -1.7 3.2 -1.9l.2 1.1c-.8 .2 -1.7 .7 -2.6 1.6l-.8 -.8Zm6.8 -1c.9 .6 1.7 1.5 2.5 2.6l-1 .7c-.7 -1.1 -1.4 -1.8 -2.1 -2.4l.6 -.9Zm4.2 5.7c.5 1 .9 2.1 1.3 3.3l-1.1 .4c-.4 -1.2 -.8 -2.2 -1.2 -3.2l1 -.5Zm2.2 6.5c.3 1.1 .6 2.2 .8 3.3l-1.1 .3c-.2 -1.2 -.5 -2.3 -.8 -3.3l1.1 -.3Zm1.5 6.9c.1 1.1 .3 2.3 .4 3.6l-1.1 .1c-.1 -1.2 -.3 -2.4 -.5 -3.5l1.2 -.2Zm.8 7.1c0 1.1 .1 2.3 .2 3.4l-1.2 .1c0 -1.2 -.1 -2.3 -.2 -3.4l1.2 -.1Zm.2 6.8l.1 1c0 1.1 -.1 2.2 -.1 3.4l-1.1 -.1c0 -1.1 0 -2.2 0 -3.3v-.9l1.1 -.1Z" class="g2_109"/>
</g>
<g clip-path="url(#c3_109)">
<path clip-path="url(#c1_109)" d="M101.5 467H628.6v92.8H101.5V467Z" class="g0_109"/>
<path d="M188.6 524.8H531.8v34.4H188.6V524.8Z" class="g0_109"/>
<path d="M359.9 524.8H531.8v34.4H359.9V524.8Zm-171.3 0H359.9v34.4H188.6V524.8Z" class="g1_109"/>
<path clip-path="url(#c1_109)" d="M102.6 467.5h526v34.4h-526V467.5Z" class="g0_109"/>
<path d="M102.6 467.5h51.6v34.4H102.6V467.5Zm154.7 0h85.4v34.4H257.3V467.5Zm-103.1 0h51.6v34.4H154.2V467.5Zm51.6 0h51.5v34.4H205.8V467.5Zm136.9 0h51.6v34.4H342.7V467.5Zm51.6 0h51.5v34.4H394.3V467.5Zm51.5 0h45.8v34.4H445.8V467.5Zm45.8 0H577v34.4H491.6V467.5Zm85.4 0h51.6v34.4H577V467.5Z" class="g1_109"/>
<path d="M359.6 501.9v15.3m-5.2 -6.5l5.2 10.3l5.1 -10.3" class="g3_109"/>
</g>
<g clip-path="url(#c4_109)">
<path d="M163.8 716.8H566v92.9H163.8V716.8Z" class="g0_109"/>
<path d="M293.6 774.7H431.1v34.4H293.6V774.7ZM164.9 717.4h56.8v34.4H164.9V717.4Zm56.8 0h56.7v34.4H221.7V717.4Zm56.7 0h58.9v34.4H278.4V717.4Zm115.2 0h57.2v34.4H393.6V717.4Zm57.2 0h57.3v34.4H450.8V717.4Zm57.3 0h57.3v34.4H508.1V717.4Z" class="g1_109"/>
<path d="M337.3 717.4h56.2v34.4H337.3V717.4Z" class="g0_109"/>
<path d="M337.3 717.4h56.2v34.4H337.3V717.4Z" class="g1_109"/>
<path d="M364.8 751.8V767m-5.1 -6.4l5.1 10.3L370 760.6" class="g3_109"/>
</g>
</svg>