<?xml version="1.0" encoding="UTF-8" standalone="no"?>
<!DOCTYPE svg PUBLIC "-//W3C//DTD SVG 1.1//EN"
"http://www.w3.org/Graphics/SVG/1.1/DTD/svg11.dtd">
<svg viewBox="0 0 714 1017" version="1.1" xmlns="http://www.w3.org/2000/svg" xmlns:xlink="http://www.w3.org/1999/xlink">
<defs>
<clipPath id="c0_162"><path d="M137.5 652.8V405.3H598.1V652.8Z"/></clipPath>
<clipPath id="c1_162"><path d="M137.5 652.8V405.3H598.9V652.8Z"/></clipPath>
<style type="text/css"><![CDATA[
.g0_162{
fill: #FFF;
}
.g1_162{
fill: none;
stroke: #000;
stroke-width: 1.145;
stroke-miterlimit: 10;
}
.g2_162{
fill: #000;
}
.g3_162{
fill: none;
stroke: #000;
stroke-width: 2.291;
stroke-miterlimit: 10;
}
.g4_162{
fill: none;
stroke: #000;
stroke-width: 0.608;
stroke-miterlimit: 10;
}
]]></style>
</defs>
<path d="M0 1017.7H717.2V-3.7H0V1017.7Z" class="g0_162"/>
<g clip-path="url(#c1_162)">
<path clip-path="url(#c0_162)" d="M137.5 405.3H598.1V652.8H137.5V405.3Z" class="g0_162"/>
<path d="M161 643V421.1" class="g1_162"/>
<path d="M161 415.1l2.6 8.1L161 421.1l-2.7 2.1l2.7 -8.1Z" class="g2_162"/>
<path d="M161 415.1l2.6 8.1L161 421.1l-2.7 2.1l2.7 -8.1ZM161 643H566.2" class="g1_162"/>
<path d="M572.2 643l-8 2.7l2 -2.7l-2 -2.7l8 2.7Z" class="g2_162"/>
<path d="M572.2 643l-8 2.7l2 -2.7l-2 -2.7l8 2.7Z" class="g1_162"/>
<path d="M161 505.5H573.5M161 643L252.6 413.8" class="g3_162"/>
</g>
<path d="M86.6 849.8H196.2" class="g4_162"/>
</svg>