<?xml version="1.0" encoding="UTF-8" standalone="no"?>
<!DOCTYPE svg PUBLIC "-//W3C//DTD SVG 1.1//EN"
"http://www.w3.org/Graphics/SVG/1.1/DTD/svg11.dtd">
<svg viewBox="0 0 714 1017" version="1.1" xmlns="http://www.w3.org/2000/svg" xmlns:xlink="http://www.w3.org/1999/xlink">
<defs>
<clipPath id="c0_350"><path d="M103 806.9V664.8H632.4V806.9Z"/></clipPath>
<clipPath id="c1_350"><path d="M103 807.1V663.5H634.7V807.1Z"/></clipPath>
<style type="text/css"><![CDATA[
.g0_350{
fill: #FFF;
}
.g1_350{
fill: none;
stroke: #000;
stroke-width: 1.145;
stroke-miterlimit: 10;
}
.g2_350{
fill: none;
stroke: #000;
stroke-width: 2.291;
stroke-miterlimit: 10;
}
.g3_350{
fill: #000;
}
]]></style>
</defs>
<path d="M0 1017.7H717.2V-3.7H0V1017.7Z" class="g0_350"/>
<g clip-path="url(#c1_350)">
<path clip-path="url(#c0_350)" d="M103 664.8H632.4V806.9H103V664.8Z" class="g0_350"/>
<path d="M171.3 692.9H629.6M171.3 727.3H629.6M171.3 761.7H629.6M171.3 796H629.6" class="g1_350"/>
<path d="M189.5 693.7l82.3 30.9" class="g2_350"/>
<path d="M189.6 692.9c0 .3 0 .6 -.2 .9c-.1 .3 -.2 .5 -.5 .7c-.2 .2 -.4 .4 -.7 .5c-.3 .1 -.6 .2 -.9 .2c-.3 0 -.6 -.1 -.9 -.2c-.2 -.1 -.5 -.3 -.7 -.5c-.2 -.2 -.4 -.4 -.5 -.7c-.1 -.3 -.2 -.6 -.2 -.9c0 -.3 .1 -.6 .2 -.9c.1 -.3 .3 -.5 .5 -.7c.2 -.2 .5 -.4 .7 -.5c.3 -.1 .6 -.2 .9 -.2c.3 0 .6 .1 .9 .2c.3 .1 .5 .3 .7 .5c.3 .2 .4 .4 .5 .7c.2 .3 .2 .6 .2 .9Z" class="g3_350"/>
<path d="M189.6 692.9c0 .3 0 .6 -.2 .9c-.1 .3 -.2 .5 -.5 .7c-.2 .2 -.4 .4 -.7 .5c-.3 .1 -.6 .2 -.9 .2c-.3 0 -.6 -.1 -.9 -.2c-.2 -.1 -.5 -.3 -.7 -.5c-.2 -.2 -.4 -.4 -.5 -.7c-.1 -.3 -.2 -.6 -.2 -.9c0 -.3 .1 -.6 .2 -.9c.1 -.3 .3 -.5 .5 -.7c.2 -.2 .5 -.4 .7 -.5c.3 -.1 .6 -.2 .9 -.2c.3 0 .6 .1 .9 .2c.3 .1 .5 .3 .7 .5c.3 .2 .4 .4 .5 .7c.2 .3 .2 .6 .2 .9Z" class="g2_350"/>
<path d="M276.6 726.4l-7.2 -.3l2.4 -1.5l-.8 -2.8l5.6 4.6Z" class="g3_350"/>
<path d="M276.6 726.4l-7.2 -.3l2.4 -1.5l-.8 -2.8l5.6 4.6ZM189.2 694.3L272.8 757" class="g2_350"/>
<path d="M189.6 692.9c0 .3 0 .6 -.2 .9c-.1 .3 -.2 .5 -.5 .7c-.2 .2 -.4 .4 -.7 .5c-.3 .1 -.6 .2 -.9 .2c-.3 0 -.6 -.1 -.9 -.2c-.2 -.1 -.5 -.3 -.7 -.5c-.2 -.2 -.4 -.4 -.5 -.7c-.1 -.3 -.2 -.6 -.2 -.9c0 -.3 .1 -.6 .2 -.9c.1 -.3 .3 -.5 .5 -.7c.2 -.2 .5 -.4 .7 -.5c.3 -.1 .6 -.2 .9 -.2c.3 0 .6 .1 .9 .2c.3 .1 .5 .3 .7 .5c.3 .2 .4 .4 .5 .7c.2 .3 .2 .6 .2 .9Z" class="g3_350"/>
<path d="M189.6 692.9c0 .3 0 .6 -.2 .9c-.1 .3 -.2 .5 -.5 .7c-.2 .2 -.4 .4 -.7 .5c-.3 .1 -.6 .2 -.9 .2c-.3 0 -.6 -.1 -.9 -.2c-.2 -.1 -.5 -.3 -.7 -.5c-.2 -.2 -.4 -.4 -.5 -.7c-.1 -.3 -.2 -.6 -.2 -.9c0 -.3 .1 -.6 .2 -.9c.1 -.3 .3 -.5 .5 -.7c.2 -.2 .5 -.4 .7 -.5c.3 -.1 .6 -.2 .9 -.2c.3 0 .6 .1 .9 .2c.3 .1 .5 .3 .7 .5c.3 .2 .4 .4 .5 .7c.2 .3 .2 .6 .2 .9Z" class="g2_350"/>
<path d="M276.9 760.1l-6.8 -2.3l2.7 -.8v-2.8l4.1 5.9Z" class="g3_350"/>
<path d="M276.9 760.1l-6.8 -2.3l2.7 -.8v-2.8l4.1 5.9ZM188.8 694.6l85.1 95.7" class="g2_350"/>
<path d="M189.6 692.9c0 .3 0 .6 -.2 .9c-.1 .3 -.2 .5 -.5 .7c-.2 .2 -.4 .4 -.7 .5c-.3 .1 -.6 .2 -.9 .2c-.3 0 -.6 -.1 -.9 -.2c-.2 -.1 -.5 -.3 -.7 -.5c-.2 -.2 -.4 -.4 -.5 -.7c-.1 -.3 -.2 -.6 -.2 -.9c0 -.3 .1 -.6 .2 -.9c.1 -.3 .3 -.5 .5 -.7c.2 -.2 .5 -.4 .7 -.5c.3 -.1 .6 -.2 .9 -.2c.3 0 .6 .1 .9 .2c.3 .1 .5 .3 .7 .5c.3 .2 .4 .4 .5 .7c.2 .3 .2 .6 .2 .9Z" class="g3_350"/>
<path d="M189.6 692.9c0 .3 0 .6 -.2 .9c-.1 .3 -.2 .5 -.5 .7c-.2 .2 -.4 .4 -.7 .5c-.3 .1 -.6 .2 -.9 .2c-.3 0 -.6 -.1 -.9 -.2c-.2 -.1 -.5 -.3 -.7 -.5c-.2 -.2 -.4 -.4 -.5 -.7c-.1 -.3 -.2 -.6 -.2 -.9c0 -.3 .1 -.6 .2 -.9c.1 -.3 .3 -.5 .5 -.7c.2 -.2 .5 -.4 .7 -.5c.3 -.1 .6 -.2 .9 -.2c.3 0 .6 .1 .9 .2c.3 .1 .5 .3 .7 .5c.3 .2 .4 .4 .5 .7c.2 .3 .2 .6 .2 .9Z" class="g2_350"/>
<path d="M277.3 794.1L271 790.5l2.9 -.2l.5 -2.8l2.9 6.6Z" class="g3_350"/>
<path d="M277.3 794.1L271 790.5l2.9 -.2l.5 -2.8l2.9 6.6Zm3.5 .6l83.7 -62.8" class="g2_350"/>
<path d="M281.3 796c0 .3 -.1 .6 -.2 .9c-.1 .3 -.3 .5 -.5 .7c-.2 .3 -.5 .4 -.7 .5c-.3 .2 -.6 .2 -.9 .2c-.3 0 -.6 0 -.9 -.2c-.3 -.1 -.5 -.2 -.7 -.5c-.2 -.2 -.4 -.4 -.5 -.7c-.1 -.3 -.2 -.6 -.2 -.9c0 -.3 .1 -.6 .2 -.8c.1 -.3 .3 -.6 .5 -.8c.2 -.2 .4 -.4 .7 -.5c.3 -.1 .6 -.2 .9 -.2c.3 0 .6 .1 .9 .2c.2 .1 .5 .3 .7 .5c.2 .2 .4 .5 .5 .8c.1 .2 .2 .5 .2 .8Z" class="g3_350"/>
<path d="M281.3 796c0 .3 -.1 .6 -.2 .9c-.1 .3 -.3 .5 -.5 .7c-.2 .3 -.5 .4 -.7 .5c-.3 .2 -.6 .2 -.9 .2c-.3 0 -.6 0 -.9 -.2c-.3 -.1 -.5 -.2 -.7 -.5c-.2 -.2 -.4 -.4 -.5 -.7c-.1 -.3 -.2 -.6 -.2 -.9c0 -.3 .1 -.6 .2 -.8c.1 -.3 .3 -.6 .5 -.8c.2 -.2 .4 -.4 .7 -.5c.3 -.1 .6 -.2 .9 -.2c.3 0 .6 .1 .9 .2c.2 .1 .5 .3 .7 .5c.2 .2 .4 .5 .5 .8c.1 .2 .2 .5 .2 .8Z" class="g2_350"/>
<path d="M368.6 728.8l-4.1 6v-2.9l-2.8 -.8l6.9 -2.3Z" class="g3_350"/>
<path d="M368.6 728.8l-4.1 6v-2.9l-2.8 -.8l6.9 -2.3Zm-87.5 31.9l71 -30.4" class="g2_350"/>
<path d="M281.3 761.7c0 .3 -.1 .5 -.2 .8c-.1 .3 -.3 .6 -.5 .8c-.2 .2 -.5 .4 -.7 .5c-.3 .1 -.6 .1 -.9 .1c-.3 0 -.6 0 -.9 -.1c-.3 -.1 -.5 -.3 -.7 -.5c-.2 -.2 -.4 -.5 -.5 -.8c-.1 -.3 -.2 -.5 -.2 -.8c0 -.4 .1 -.6 .2 -.9c.1 -.3 .3 -.6 .5 -.8c.2 -.2 .4 -.3 .7 -.5c.3 -.1 .6 -.1 .9 -.1c.3 0 .6 0 .9 .1c.2 .2 .5 .3 .7 .5c.2 .2 .4 .5 .5 .8c.1 .3 .2 .5 .2 .9Z" class="g3_350"/>
<path d="M281.3 761.7c0 .3 -.1 .5 -.2 .8c-.1 .3 -.3 .6 -.5 .8c-.2 .2 -.5 .4 -.7 .5c-.3 .1 -.6 .1 -.9 .1c-.3 0 -.6 0 -.9 -.1c-.3 -.1 -.5 -.3 -.7 -.5c-.2 -.2 -.4 -.5 -.5 -.8c-.1 -.3 -.2 -.5 -.2 -.8c0 -.4 .1 -.6 .2 -.9c.1 -.3 .3 -.6 .5 -.8c.2 -.2 .4 -.3 .7 -.5c.3 -.1 .6 -.1 .9 -.1c.3 0 .6 0 .9 .1c.2 .2 .5 .3 .7 .5c.2 .2 .4 .5 .5 .8c.1 .3 .2 .5 .2 .9Z" class="g2_350"/>
<path d="M356.8 728.3l-5.4 4.8l.7 -2.8l-2.5 -1.4l7.2 -.6Z" class="g3_350"/>
<path d="M356.8 728.3l-5.4 4.8l.7 -2.8l-2.5 -1.4l7.2 -.6Zm16 -.2l82.3 30.8" class="g2_350"/>
<path d="M372.9 727.3c0 .3 0 .6 -.1 .9c-.1 .2 -.3 .5 -.5 .7c-.2 .2 -.5 .4 -.8 .5c-.2 .1 -.5 .2 -.8 .2c-.3 0 -.6 -.1 -.9 -.2c-.3 -.1 -.6 -.3 -.8 -.5c-.2 -.2 -.3 -.5 -.5 -.7c-.1 -.3 -.1 -.6 -.1 -.9c0 -.3 0 -.6 .1 -.9c.2 -.3 .3 -.5 .5 -.7c.2 -.3 .5 -.4 .8 -.5c.3 -.2 .6 -.2 .9 -.2c.3 0 .6 0 .8 .2c.3 .1 .6 .2 .8 .5c.2 .2 .4 .4 .5 .7c.1 .3 .1 .6 .1 .9Z" class="g3_350"/>
<path d="M372.9 727.3c0 .3 0 .6 -.1 .9c-.1 .2 -.3 .5 -.5 .7c-.2 .2 -.5 .4 -.8 .5c-.2 .1 -.5 .2 -.8 .2c-.3 0 -.6 -.1 -.9 -.2c-.3 -.1 -.6 -.3 -.8 -.5c-.2 -.2 -.3 -.5 -.5 -.7c-.1 -.3 -.1 -.6 -.1 -.9c0 -.3 0 -.6 .1 -.9c.2 -.3 .3 -.5 .5 -.7c.2 -.3 .5 -.4 .8 -.5c.3 -.2 .6 -.2 .9 -.2c.3 0 .6 0 .8 .2c.3 .1 .6 .2 .8 .5c.2 .2 .4 .4 .5 .7c.1 .3 .1 .6 .1 .9Z" class="g2_350"/>
<path d="M459.9 760.7l-7.2 -.2l2.4 -1.6l-.8 -2.7l5.6 4.5Z" class="g3_350"/>
<path d="M459.9 760.7l-7.2 -.2l2.4 -1.6l-.8 -2.7l5.6 4.5Zm-87.4 -32l83.6 62.7" class="g2_350"/>
<path d="M372.9 727.3c0 .3 0 .6 -.1 .9c-.1 .2 -.3 .5 -.5 .7c-.2 .2 -.5 .4 -.8 .5c-.2 .1 -.5 .2 -.8 .2c-.3 0 -.6 -.1 -.9 -.2c-.3 -.1 -.6 -.3 -.8 -.5c-.2 -.2 -.3 -.5 -.5 -.7c-.1 -.3 -.1 -.6 -.1 -.9c0 -.3 0 -.6 .1 -.9c.2 -.3 .3 -.5 .5 -.7c.2 -.3 .5 -.4 .8 -.5c.3 -.2 .6 -.2 .9 -.2c.3 0 .6 0 .8 .2c.3 .1 .6 .2 .8 .5c.2 .2 .4 .4 .5 .7c.1 .3 .1 .6 .1 .9Z" class="g3_350"/>
<path d="M372.9 727.3c0 .3 0 .6 -.1 .9c-.1 .2 -.3 .5 -.5 .7c-.2 .2 -.5 .4 -.8 .5c-.2 .1 -.5 .2 -.8 .2c-.3 0 -.6 -.1 -.9 -.2c-.3 -.1 -.6 -.3 -.8 -.5c-.2 -.2 -.3 -.5 -.5 -.7c-.1 -.3 -.1 -.6 -.1 -.9c0 -.3 0 -.6 .1 -.9c.2 -.3 .3 -.5 .5 -.7c.2 -.3 .5 -.4 .8 -.5c.3 -.2 .6 -.2 .9 -.2c.3 0 .6 0 .8 .2c.3 .1 .6 .2 .8 .5c.2 .2 .4 .4 .5 .7c.1 .3 .1 .6 .1 .9Z" class="g2_350"/>
<path d="M460.3 794.5l-6.9 -2.3l2.7 -.8v-2.9l4.2 6Z" class="g3_350"/>
<path d="M460.3 794.5l-6.9 -2.3l2.7 -.8v-2.9l4.2 6Zm3.9 .2l83.6 -62.8" class="g2_350"/>
<path d="M464.6 796c0 .3 0 .6 -.2 .9c-.1 .3 -.2 .5 -.5 .7c-.2 .3 -.4 .4 -.7 .5c-.3 .2 -.6 .2 -.9 .2c-.3 0 -.6 0 -.9 -.2c-.2 -.1 -.5 -.2 -.7 -.5c-.2 -.2 -.4 -.4 -.5 -.7c-.1 -.3 -.2 -.6 -.2 -.9c0 -.3 .1 -.6 .2 -.8c.1 -.3 .3 -.6 .5 -.8c.2 -.2 .5 -.4 .7 -.5c.3 -.1 .6 -.2 .9 -.2c.3 0 .6 .1 .9 .2c.3 .1 .5 .3 .7 .5c.3 .2 .4 .5 .5 .8c.2 .2 .2 .5 .2 .8Z" class="g3_350"/>
<path d="M464.6 796c0 .3 0 .6 -.2 .9c-.1 .3 -.2 .5 -.5 .7c-.2 .3 -.4 .4 -.7 .5c-.3 .2 -.6 .2 -.9 .2c-.3 0 -.6 0 -.9 -.2c-.2 -.1 -.5 -.2 -.7 -.5c-.2 -.2 -.4 -.4 -.5 -.7c-.1 -.3 -.2 -.6 -.2 -.9c0 -.3 .1 -.6 .2 -.8c.1 -.3 .3 -.6 .5 -.8c.2 -.2 .5 -.4 .7 -.5c.3 -.1 .6 -.2 .9 -.2c.3 0 .6 .1 .9 .2c.3 .1 .5 .3 .7 .5c.3 .2 .4 .5 .5 .8c.2 .2 .2 .5 .2 .8Z" class="g2_350"/>
<path d="M551.9 728.8l-4.1 6v-2.9l-2.7 -.8l6.8 -2.3Z" class="g3_350"/>
<path d="M551.9 728.8l-4.1 6v-2.9l-2.7 -.8l6.8 -2.3Zm-87.5 31.9l71 -30.4" class="g2_350"/>
<path d="M464.6 761.7c0 .3 0 .5 -.2 .8c-.1 .3 -.2 .6 -.5 .8c-.2 .2 -.4 .4 -.7 .5c-.3 .1 -.6 .1 -.9 .1c-.3 0 -.6 0 -.9 -.1c-.2 -.1 -.5 -.3 -.7 -.5c-.2 -.2 -.4 -.5 -.5 -.8c-.1 -.3 -.2 -.5 -.2 -.8c0 -.4 .1 -.6 .2 -.9c.1 -.3 .3 -.6 .5 -.8c.2 -.2 .5 -.3 .7 -.5c.3 -.1 .6 -.1 .9 -.1c.3 0 .6 0 .9 .1c.3 .2 .5 .3 .7 .5c.3 .2 .4 .5 .5 .8c.2 .3 .2 .5 .2 .9Z" class="g3_350"/>
<path d="M464.6 761.7c0 .3 0 .5 -.2 .8c-.1 .3 -.2 .6 -.5 .8c-.2 .2 -.4 .4 -.7 .5c-.3 .1 -.6 .1 -.9 .1c-.3 0 -.6 0 -.9 -.1c-.2 -.1 -.5 -.3 -.7 -.5c-.2 -.2 -.4 -.5 -.5 -.8c-.1 -.3 -.2 -.5 -.2 -.8c0 -.4 .1 -.6 .2 -.9c.1 -.3 .3 -.6 .5 -.8c.2 -.2 .5 -.3 .7 -.5c.3 -.1 .6 -.1 .9 -.1c.3 0 .6 0 .9 .1c.3 .2 .5 .3 .7 .5c.3 .2 .4 .5 .5 .8c.2 .3 .2 .5 .2 .9Z" class="g2_350"/>
<path d="M540.2 728.3l-5.4 4.8l.6 -2.8l-2.5 -1.4l7.3 -.6Z" class="g3_350"/>
<path d="M540.2 728.3l-5.4 4.8l.6 -2.8l-2.5 -1.4l7.3 -.6ZM562.7 727l37.9 -29.4" class="g2_350"/>
<path d="M563.2 728.4c0 .3 -.1 .6 -.2 .9c-.1 .3 -.3 .5 -.5 .7c-.2 .3 -.5 .4 -.8 .5c-.2 .2 -.5 .2 -.8 .2c-.3 0 -.6 0 -.9 -.2c-.3 -.1 -.5 -.2 -.8 -.5c-.2 -.2 -.3 -.4 -.5 -.7c-.1 -.3 -.1 -.6 -.1 -.9c0 -.3 0 -.6 .1 -.9c.2 -.2 .3 -.5 .5 -.7c.3 -.2 .5 -.4 .8 -.5c.3 -.1 .6 -.2 .9 -.2c.3 0 .6 .1 .8 .2c.3 .1 .6 .3 .8 .5c.2 .2 .4 .5 .5 .7c.1 .3 .2 .6 .2 .9Z" class="g3_350"/>
<path d="M563.2 728.4c0 .3 -.1 .6 -.2 .9c-.1 .3 -.3 .5 -.5 .7c-.2 .3 -.5 .4 -.8 .5c-.2 .2 -.5 .2 -.8 .2c-.3 0 -.6 0 -.9 -.2c-.3 -.1 -.5 -.2 -.8 -.5c-.2 -.2 -.3 -.4 -.5 -.7c-.1 -.3 -.1 -.6 -.1 -.9c0 -.3 0 -.6 .1 -.9c.2 -.2 .3 -.5 .5 -.7c.3 -.2 .5 -.4 .8 -.5c.3 -.1 .6 -.2 .9 -.2c.3 0 .6 .1 .8 .2c.3 .1 .6 .3 .8 .5c.2 .2 .4 .5 .5 .7c.1 .3 .2 .6 .2 .9Z" class="g2_350"/>
<path d="M604.7 694.5l-4.1 6v-2.9l-2.8 -.7l6.9 -2.4Z" class="g3_350"/>
<path d="M604.7 694.5l-4.1 6v-2.9l-2.8 -.7l6.9 -2.4Z" class="g2_350"/>
</g>
</svg>