<?xml version="1.0" encoding="UTF-8" standalone="no"?>
<!DOCTYPE svg PUBLIC "-//W3C//DTD SVG 1.1//EN"
"http://www.w3.org/Graphics/SVG/1.1/DTD/svg11.dtd">
<svg viewBox="0 0 714 1017" version="1.1" xmlns="http://www.w3.org/2000/svg" xmlns:xlink="http://www.w3.org/1999/xlink">
<defs>
<clipPath id="c0_472"><path d="M103.7 693.2V552.7H633.9V693.2Z"/></clipPath>
<style type="text/css"><![CDATA[
.g0_472{
fill: #FFF;
}
.g1_472{
fill: #000;
}
.g2_472{
fill: none;
stroke: #000;
stroke-width: 1.145;
stroke-miterlimit: 10;
}
]]></style>
</defs>
<path d="M0 1017.7H717.2V-3.7H0V1017.7Z" class="g0_472"/>
<g clip-path="url(#c0_472)">
<path d="M103.7 552.8H632V692.6H103.7V552.8Z" class="g0_472"/>
<path d="M120.9 599.4c-9.3 0 -16.8 -7.5 -16.8 -16.8c0 -9.3 7.5 -16.9 16.8 -16.9c9.3 0 16.9 7.6 16.9 16.9c0 9.3 -7.6 16.8 -16.9 16.8Zm10.4 -5.7c-.8 -.5 -1.9 -.7 -3.3 -1.1c-1.6 -.4 -3.8 -.7 -3.6 -2.6c-1.3 1.2 -3.5 1.6 -5.3 .9c-.6 -.2 -.9 -.7 -1.4 -.7c.2 1.9 -2.1 2.1 -3.6 2.4c-1.5 .4 -2.6 .7 -3.4 1.3c2.7 2.4 6.3 4 10.2 4c4 0 7.7 -1.6 10.4 -4.2Zm-9.2 -20.6c-5.1 -.4 -7.6 3.1 -6.9 8.2c-.2 .1 -.5 .1 -.6 .3c.1 1.6 .3 2.8 1.5 3.3c.5 2.5 2.3 5.5 5.5 5.1c2.6 -.4 4 -2.8 4.5 -5.1c1.1 -.5 1.5 -1.9 1.4 -3.3c0 -.3 -.4 -.1 -.6 -.3c.9 -4 -1.4 -7.9 -4.8 -8.2Zm-1.2 -5.8c-8.4 0 -15.2 6.9 -15.2 15.3c0 4 1.5 7.6 4 10.3c.3 -.3 .6 -.5 .9 -.6c1.6 -.9 3.8 -.8 5.8 -1.8c0 -.6 0 -1.1 0 -1.7c-.8 -.7 -1 -1.9 -1.5 -2.9c-.3 -.6 -.9 -1 -1.1 -1.6c-.3 -.7 -.6 -1.6 -.5 -2.6c0 -.5 .3 -.8 .4 -1.3c.1 -.6 -.1 -1.3 0 -1.9c.3 -3.6 2.9 -6.3 6.3 -6.7c.7 0 1.4 0 2.1 0c3.7 .6 6.1 3.2 6.4 7.2c0 .4 -.2 .9 -.1 1.5c.1 .4 .5 .9 .5 1.4c.1 1.6 -.7 3 -1.7 4c-.2 1.2 -.8 2 -1.4 2.9c0 .5 0 1.1 0 1.7c1.7 .9 3.9 .9 5.6 1.7c.3 .2 .6 .4 .9 .6c2.4 -2.7 3.9 -6.3 3.9 -10.2c0 -8.4 -6.8 -15.3 -15.3 -15.3Z" class="g1_472"/>
<path d="M256.7 553.9H394.2v57.3H256.7V553.9Zm-118 29.3l110.7 -.6" class="g2_472"/>
<path d="M255.4 582.6l-8 2.7l2 -2.7l-2 -2.6l8 2.6Z" class="g1_472"/>
<path d="M255.4 582.6l-8 2.7l2 -2.7l-2 -2.6l8 2.6Z" class="g2_472"/>
<path d="M167.3 567.1h63.1v34.4H167.3V567.1Z" class="g0_472"/>
<path d="M516.8 553.9H631.4v57.3H516.8V553.9ZM394.2 582.6H509.5" class="g2_472"/>
<path d="M515.5 582.6l-8 2.7l2 -2.7l-2 -2.7l8 2.7Z" class="g1_472"/>
<path d="M515.5 582.6l-8 2.7l2 -2.7l-2 -2.7l8 2.7Z" class="g2_472"/>
<path d="M425.2 567.1h63v34.4h-63V567.1Z" class="g0_472"/>
<path d="M256.7 663.9c0 -3.8 30.8 -6.8 68.8 -6.8c18.2 0 35.7 .7 48.6 2c12.9 1.3 20.1 3 20.1 4.8v21.2c0 3.8 -30.8 6.9 -68.7 6.9c-38 0 -68.8 -3.1 -68.8 -6.9V663.9Z" class="g0_472"/>
<path d="M256.7 663.9c0 -3.8 30.8 -6.8 68.8 -6.8c18.2 0 35.7 .7 48.6 2c12.9 1.3 20.1 3 20.1 4.8v21.2c0 3.8 -30.8 6.9 -68.7 6.9c-38 0 -68.8 -3.1 -68.8 -6.9V663.9Zm137.5 0c0 3.8 -30.8 6.9 -68.7 6.9c-38 0 -68.8 -3.1 -68.8 -6.9m68.8 -52.7v38.6" class="g2_472"/>
<path d="M325.5 655.8l-2.7 -8l2.7 2l2.6 -2l-2.6 8Z" class="g1_472"/>
<path d="M325.5 655.8l-2.7 -8l2.7 2l2.6 -2l-2.6 8Z" class="g2_472"/>
<path d="M286.5 626.7h80.2v17.2H286.5V626.7Z" class="g0_472"/>
</g>
</svg>