<?xml version="1.0" encoding="UTF-8" standalone="no"?>
<!DOCTYPE svg PUBLIC "-//W3C//DTD SVG 1.1//EN"
"http://www.w3.org/Graphics/SVG/1.1/DTD/svg11.dtd">
<svg viewBox="0 0 714 1017" version="1.1" xmlns="http://www.w3.org/2000/svg" xmlns:xlink="http://www.w3.org/1999/xlink">
<defs>
<clipPath id="c0_225"><path d="M136.4 814V655.2H555.7V814Z"/></clipPath>
<clipPath id="c1_225"><path d="M136.4 814V655.1H558V814Z"/></clipPath>
<style type="text/css"><![CDATA[
.g0_225{
fill: #FFF;
}
.g1_225{
fill: none;
stroke: #000;
stroke-width: 1.145;
stroke-miterlimit: 10;
}
.g2_225{
fill: #000;
}
.g3_225{
fill: none;
stroke: #000;
stroke-width: 2.291;
stroke-miterlimit: 10;
}
.g4_225{
fill: none;
stroke: #000;
stroke-width: 0.608;
stroke-miterlimit: 10;
}
]]></style>
</defs>
<path d="M0 1017.7H717.2V-3.7H0V1017.7Z" class="g0_225"/>
<g clip-path="url(#c1_225)">
<path clip-path="url(#c0_225)" d="M136.4 655.2H555.7V814.5H136.4V655.2Z" class="g0_225"/>
<path d="M145 804.7H538.7" class="g1_225"/>
<path d="M544.7 804.7l-8 2.7l2 -2.7l-2 -2.6l8 2.6Z" class="g2_225"/>
<path d="M544.7 804.7l-8 2.7l2 -2.7l-2 -2.6l8 2.6Z" class="g1_225"/>
<path d="M182.8 667.2H496.7" class="g3_225"/>
<path d="M182.8 667.2c0 .5 -.1 .9 -.3 1.3c-.2 .5 -.4 .8 -.7 1.2c-.4 .3 -.7 .5 -1.2 .7c-.4 .2 -.8 .3 -1.3 .3c-.4 0 -.9 -.1 -1.3 -.3c-.4 -.2 -.8 -.4 -1.1 -.7c-.3 -.4 -.6 -.7 -.7 -1.2c-.2 -.4 -.3 -.8 -.3 -1.3c0 -.4 .1 -.9 .3 -1.3c.1 -.4 .4 -.8 .7 -1.1c.3 -.3 .7 -.6 1.1 -.8c.4 -.1 .9 -.2 1.3 -.2c.5 0 .9 .1 1.3 .2c.5 .2 .8 .5 1.2 .8c.3 .3 .5 .7 .7 1.1c.2 .4 .3 .9 .3 1.3Z" class="g2_225"/>
<path d="M182.8 667.2c0 .5 -.1 .9 -.3 1.3c-.2 .5 -.4 .8 -.7 1.2c-.4 .3 -.7 .5 -1.2 .7c-.4 .2 -.8 .3 -1.3 .3c-.4 0 -.9 -.1 -1.3 -.3c-.4 -.2 -.8 -.4 -1.1 -.7c-.3 -.4 -.6 -.7 -.7 -1.2c-.2 -.4 -.3 -.8 -.3 -1.3c0 -.4 .1 -.9 .3 -1.3c.1 -.4 .4 -.8 .7 -1.1c.3 -.3 .7 -.6 1.1 -.8c.4 -.1 .9 -.2 1.3 -.2c.5 0 .9 .1 1.3 .2c.5 .2 .8 .5 1.2 .8c.3 .3 .5 .7 .7 1.1c.2 .4 .3 .9 .3 1.3Z" class="g3_225"/>
<path d="M503.6 667.2c0 .5 -.1 .9 -.3 1.3c-.1 .5 -.4 .8 -.7 1.2c-.3 .3 -.7 .5 -1.1 .7c-.4 .2 -.9 .3 -1.3 .3c-.5 0 -.9 -.1 -1.4 -.3c-.4 -.2 -.7 -.4 -1.1 -.7c-.3 -.4 -.5 -.7 -.7 -1.2c-.2 -.4 -.3 -.8 -.3 -1.3c0 -.4 .1 -.9 .3 -1.3c.2 -.4 .4 -.8 .7 -1.1c.4 -.3 .7 -.6 1.1 -.8c.5 -.1 .9 -.2 1.4 -.2c.4 0 .9 .1 1.3 .2c.4 .2 .8 .5 1.1 .8c.3 .3 .6 .7 .7 1.1c.2 .4 .3 .9 .3 1.3Z" class="g2_225"/>
<path d="M503.6 667.2c0 .5 -.1 .9 -.3 1.3c-.1 .5 -.4 .8 -.7 1.2c-.3 .3 -.7 .5 -1.1 .7c-.4 .2 -.9 .3 -1.3 .3c-.5 0 -.9 -.1 -1.4 -.3c-.4 -.2 -.7 -.4 -1.1 -.7c-.3 -.4 -.5 -.7 -.7 -1.2c-.2 -.4 -.3 -.8 -.3 -1.3c0 -.4 .1 -.9 .3 -1.3c.2 -.4 .4 -.8 .7 -1.1c.4 -.3 .7 -.6 1.1 -.8c.5 -.1 .9 -.2 1.4 -.2c.4 0 .9 .1 1.3 .2c.4 .2 .8 .5 1.1 .8c.3 .3 .6 .7 .7 1.1c.2 .4 .3 .9 .3 1.3Zm-275 34.4H405.1" class="g3_225"/>
<path d="M228.6 701.6c0 .5 -.1 .9 -.3 1.3c-.1 .4 -.4 .8 -.7 1.1c-.3 .3 -.7 .6 -1.1 .8c-.4 .1 -.9 .2 -1.3 .2c-.5 0 -.9 -.1 -1.4 -.2c-.4 -.2 -.7 -.5 -1.1 -.8c-.3 -.3 -.5 -.7 -.7 -1.1c-.2 -.4 -.3 -.8 -.3 -1.3c0 -.5 .1 -.9 .3 -1.3c.2 -.4 .4 -.8 .7 -1.1c.4 -.4 .7 -.6 1.1 -.8c.5 -.2 .9 -.2 1.4 -.2c.4 0 .9 0 1.3 .2c.4 .2 .8 .4 1.1 .8c.3 .3 .6 .7 .7 1.1c.2 .4 .3 .8 .3 1.3Z" class="g2_225"/>
<path d="M228.6 701.6c0 .5 -.1 .9 -.3 1.3c-.1 .4 -.4 .8 -.7 1.1c-.3 .3 -.7 .6 -1.1 .8c-.4 .1 -.9 .2 -1.3 .2c-.5 0 -.9 -.1 -1.4 -.2c-.4 -.2 -.7 -.5 -1.1 -.8c-.3 -.3 -.5 -.7 -.7 -1.1c-.2 -.4 -.3 -.8 -.3 -1.3c0 -.5 .1 -.9 .3 -1.3c.2 -.4 .4 -.8 .7 -1.1c.4 -.4 .7 -.6 1.1 -.8c.5 -.2 .9 -.2 1.4 -.2c.4 0 .9 0 1.3 .2c.4 .2 .8 .4 1.1 .8c.3 .3 .6 .7 .7 1.1c.2 .4 .3 .8 .3 1.3Z" class="g3_225"/>
<path d="M411.9 701.6c0 .5 -.1 .9 -.2 1.3c-.2 .4 -.5 .8 -.8 1.1c-.3 .3 -.7 .6 -1.1 .8c-.4 .1 -.9 .2 -1.3 .2c-.5 0 -.9 -.1 -1.3 -.2c-.4 -.2 -.8 -.5 -1.1 -.8c-.4 -.3 -.6 -.7 -.8 -1.1c-.2 -.4 -.2 -.8 -.2 -1.3c0 -.5 0 -.9 .2 -1.3c.2 -.4 .4 -.8 .8 -1.1c.3 -.4 .7 -.6 1.1 -.8c.4 -.2 .8 -.2 1.3 -.2c.4 0 .9 0 1.3 .2c.4 .2 .8 .4 1.1 .8c.3 .3 .6 .7 .8 1.1c.1 .4 .2 .8 .2 1.3Z" class="g2_225"/>
<path d="M411.9 701.6c0 .5 -.1 .9 -.2 1.3c-.2 .4 -.5 .8 -.8 1.1c-.3 .3 -.7 .6 -1.1 .8c-.4 .1 -.9 .2 -1.3 .2c-.5 0 -.9 -.1 -1.3 -.2c-.4 -.2 -.8 -.5 -1.1 -.8c-.4 -.3 -.6 -.7 -.8 -1.1c-.2 -.4 -.2 -.8 -.2 -1.3c0 -.5 0 -.9 .2 -1.3c.2 -.4 .4 -.8 .8 -1.1c.3 -.4 .7 -.6 1.1 -.8c.4 -.2 .8 -.2 1.3 -.2c.4 0 .9 0 1.3 .2c.4 .2 .8 .4 1.1 .8c.3 .3 .6 .7 .8 1.1c.1 .4 .2 .8 .2 1.3ZM274.4 736H450.9" class="g3_225"/>
<path d="M274.4 736c0 .4 -.1 .9 -.2 1.3c-.2 .4 -.5 .8 -.8 1.1c-.3 .3 -.7 .6 -1.1 .7c-.4 .2 -.9 .3 -1.3 .3c-.5 0 -.9 -.1 -1.3 -.3c-.4 -.1 -.8 -.4 -1.1 -.7c-.4 -.3 -.6 -.7 -.8 -1.1c-.2 -.4 -.2 -.9 -.2 -1.3c0 -.5 0 -.9 .2 -1.3c.2 -.5 .4 -.8 .8 -1.2c.3 -.3 .7 -.5 1.1 -.7c.4 -.2 .8 -.3 1.3 -.3c.4 0 .9 .1 1.3 .3c.4 .2 .8 .4 1.1 .7c.3 .4 .6 .7 .8 1.2c.1 .4 .2 .8 .2 1.3Z" class="g2_225"/>
<path d="M274.4 736c0 .4 -.1 .9 -.2 1.3c-.2 .4 -.5 .8 -.8 1.1c-.3 .3 -.7 .6 -1.1 .7c-.4 .2 -.9 .3 -1.3 .3c-.5 0 -.9 -.1 -1.3 -.3c-.4 -.1 -.8 -.4 -1.1 -.7c-.4 -.3 -.6 -.7 -.8 -1.1c-.2 -.4 -.2 -.9 -.2 -1.3c0 -.5 0 -.9 .2 -1.3c.2 -.5 .4 -.8 .8 -1.2c.3 -.3 .7 -.5 1.1 -.7c.4 -.2 .8 -.3 1.3 -.3c.4 0 .9 .1 1.3 .3c.4 .2 .8 .4 1.1 .7c.3 .4 .6 .7 .8 1.2c.1 .4 .2 .8 .2 1.3Z" class="g3_225"/>
<path d="M457.8 736c0 .4 -.1 .9 -.3 1.3c-.2 .4 -.4 .8 -.7 1.1c-.4 .3 -.7 .6 -1.2 .7c-.4 .2 -.8 .3 -1.3 .3c-.4 0 -.9 -.1 -1.3 -.3c-.4 -.1 -.8 -.4 -1.1 -.7c-.3 -.3 -.6 -.7 -.7 -1.1c-.2 -.4 -.3 -.9 -.3 -1.3c0 -.5 .1 -.9 .3 -1.3c.1 -.5 .4 -.8 .7 -1.2c.3 -.3 .7 -.5 1.1 -.7c.4 -.2 .9 -.3 1.3 -.3c.5 0 .9 .1 1.3 .3c.5 .2 .8 .4 1.2 .7c.3 .4 .5 .7 .7 1.2c.2 .4 .3 .8 .3 1.3Z" class="g2_225"/>
<path d="M457.8 736c0 .4 -.1 .9 -.3 1.3c-.2 .4 -.4 .8 -.7 1.1c-.4 .3 -.7 .6 -1.2 .7c-.4 .2 -.8 .3 -1.3 .3c-.4 0 -.9 -.1 -1.3 -.3c-.4 -.1 -.8 -.4 -1.1 -.7c-.3 -.3 -.6 -.7 -.7 -1.1c-.2 -.4 -.3 -.9 -.3 -1.3c0 -.5 .1 -.9 .3 -1.3c.1 -.5 .4 -.8 .7 -1.2c.3 -.3 .7 -.5 1.1 -.7c.4 -.2 .9 -.3 1.3 -.3c.5 0 .9 .1 1.3 .3c.5 .2 .8 .4 1.2 .7c.3 .4 .5 .7 .7 1.2c.2 .4 .3 .8 .3 1.3ZM320.3 770.3h38.9" class="g3_225"/>
<path d="M320.3 770.3c0 .5 -.1 .9 -.3 1.4c-.2 .4 -.4 .8 -.7 1.1c-.4 .3 -.7 .5 -1.2 .7c-.4 .2 -.8 .3 -1.3 .3c-.4 0 -.9 -.1 -1.3 -.3c-.4 -.2 -.8 -.4 -1.1 -.7c-.3 -.3 -.6 -.7 -.7 -1.1c-.2 -.5 -.3 -.9 -.3 -1.4c0 -.4 .1 -.8 .3 -1.3c.1 -.4 .4 -.8 .7 -1.1c.3 -.3 .7 -.6 1.1 -.7c.4 -.2 .9 -.3 1.3 -.3c.5 0 .9 .1 1.3 .3c.5 .1 .8 .4 1.2 .7c.3 .3 .5 .7 .7 1.1c.2 .5 .3 .9 .3 1.3Z" class="g2_225"/>
<path d="M320.3 770.3c0 .5 -.1 .9 -.3 1.4c-.2 .4 -.4 .8 -.7 1.1c-.4 .3 -.7 .5 -1.2 .7c-.4 .2 -.8 .3 -1.3 .3c-.4 0 -.9 -.1 -1.3 -.3c-.4 -.2 -.8 -.4 -1.1 -.7c-.3 -.3 -.6 -.7 -.7 -1.1c-.2 -.5 -.3 -.9 -.3 -1.4c0 -.4 .1 -.8 .3 -1.3c.1 -.4 .4 -.8 .7 -1.1c.3 -.3 .7 -.6 1.1 -.7c.4 -.2 .9 -.3 1.3 -.3c.5 0 .9 .1 1.3 .3c.5 .1 .8 .4 1.2 .7c.3 .3 .5 .7 .7 1.1c.2 .5 .3 .9 .3 1.3Z" class="g3_225"/>
<path d="M366.1 770.3c0 .5 -.1 .9 -.3 1.4c-.1 .4 -.4 .8 -.7 1.1c-.3 .3 -.7 .5 -1.1 .7c-.4 .2 -.9 .3 -1.3 .3c-.5 0 -.9 -.1 -1.4 -.3c-.4 -.2 -.7 -.4 -1.1 -.7c-.3 -.3 -.5 -.7 -.7 -1.1c-.2 -.5 -.3 -.9 -.3 -1.4c0 -.4 .1 -.8 .3 -1.3c.2 -.4 .4 -.8 .7 -1.1c.4 -.3 .7 -.6 1.1 -.7c.5 -.2 .9 -.3 1.4 -.3c.4 0 .9 .1 1.3 .3c.4 .1 .8 .4 1.1 .7c.3 .3 .6 .7 .7 1.1c.2 .5 .3 .9 .3 1.3Z" class="g2_225"/>
<path d="M366.1 770.3c0 .5 -.1 .9 -.3 1.4c-.1 .4 -.4 .8 -.7 1.1c-.3 .3 -.7 .5 -1.1 .7c-.4 .2 -.9 .3 -1.3 .3c-.5 0 -.9 -.1 -1.4 -.3c-.4 -.2 -.7 -.4 -1.1 -.7c-.3 -.3 -.5 -.7 -.7 -1.1c-.2 -.5 -.3 -.9 -.3 -1.4c0 -.4 .1 -.8 .3 -1.3c.2 -.4 .4 -.8 .7 -1.1c.4 -.3 .7 -.6 1.1 -.7c.5 -.2 .9 -.3 1.4 -.3c.4 0 .9 .1 1.3 .3c.4 .1 .8 .4 1.1 .7c.3 .3 .6 .7 .7 1.1c.2 .5 .3 .9 .3 1.3Z" class="g3_225"/>
<path d="M167.9 667.2c0 .8 -.1 1.5 -.3 2.3c-.1 .7 -.3 1.4 -.6 2.1c-.3 .7 -.6 1.4 -1.1 2c-.4 .6 -.9 1.2 -1.4 1.7c-.5 .6 -1.1 1 -1.7 1.4c-.7 .5 -1.3 .8 -2 1.1c-.7 .3 -1.4 .5 -2.2 .7c-.7 .1 -1.4 .2 -2.2 .2c-.7 0 -1.5 -.1 -2.2 -.2c-.8 -.2 -1.5 -.4 -2.2 -.7c-.7 -.3 -1.3 -.6 -2 -1.1c-.6 -.4 -1.2 -.8 -1.7 -1.4c-.5 -.5 -1 -1.1 -1.4 -1.7c-.4 -.6 -.8 -1.3 -1.1 -2c-.3 -.7 -.5 -1.4 -.6 -2.1c-.2 -.8 -.2 -1.5 -.2 -2.3c0 -.7 0 -1.5 .2 -2.2c.1 -.8 .3 -1.5 .6 -2.2c.3 -.7 .7 -1.3 1.1 -1.9c.4 -.7 .9 -1.2 1.4 -1.8c.5 -.5 1.1 -1 1.7 -1.4c.7 -.4 1.3 -.8 2 -1.1c.7 -.3 1.4 -.5 2.2 -.6c.7 -.2 1.5 -.2 2.2 -.2c.8 0 1.5 0 2.2 .2c.8 .1 1.5 .3 2.2 .6c.7 .3 1.3 .7 2 1.1c.6 .4 1.2 .9 1.7 1.4c.5 .6 1 1.1 1.4 1.8c.5 .6 .8 1.2 1.1 1.9c.3 .7 .5 1.4 .6 2.2c.2 .7 .3 1.5 .3 2.2Z" class="g0_225"/>
<path d="M167.9 667.2c0 .8 -.1 1.5 -.3 2.3c-.1 .7 -.3 1.4 -.6 2.1c-.3 .7 -.6 1.4 -1.1 2c-.4 .6 -.9 1.2 -1.4 1.7c-.5 .6 -1.1 1 -1.7 1.4c-.7 .5 -1.3 .8 -2 1.1c-.7 .3 -1.4 .5 -2.2 .7c-.7 .1 -1.4 .2 -2.2 .2c-.7 0 -1.5 -.1 -2.2 -.2c-.8 -.2 -1.5 -.4 -2.2 -.7c-.7 -.3 -1.3 -.6 -2 -1.1c-.6 -.4 -1.2 -.8 -1.7 -1.4c-.5 -.5 -1 -1.1 -1.4 -1.7c-.4 -.6 -.8 -1.3 -1.1 -2c-.3 -.7 -.5 -1.4 -.6 -2.1c-.2 -.8 -.2 -1.5 -.2 -2.3c0 -.7 0 -1.5 .2 -2.2c.1 -.8 .3 -1.5 .6 -2.2c.3 -.7 .7 -1.3 1.1 -1.9c.4 -.7 .9 -1.2 1.4 -1.8c.5 -.5 1.1 -1 1.7 -1.4c.7 -.4 1.3 -.8 2 -1.1c.7 -.3 1.4 -.5 2.2 -.6c.7 -.2 1.5 -.2 2.2 -.2c.8 0 1.5 0 2.2 .2c.8 .1 1.5 .3 2.2 .6c.7 .3 1.3 .7 2 1.1c.6 .4 1.2 .9 1.7 1.4c.5 .6 1 1.1 1.4 1.8c.5 .6 .8 1.2 1.1 1.9c.3 .7 .5 1.4 .6 2.2c.2 .7 .3 1.5 .3 2.2Z" class="g1_225"/>
<path d="M167.9 701.6c0 .7 -.1 1.5 -.3 2.2c-.1 .8 -.3 1.5 -.6 2.2c-.3 .7 -.6 1.3 -1.1 2c-.4 .6 -.9 1.2 -1.4 1.7c-.5 .5 -1.1 1 -1.7 1.4c-.7 .4 -1.3 .8 -2 1.1c-.7 .3 -1.4 .5 -2.2 .6c-.7 .2 -1.4 .3 -2.2 .3c-.7 0 -1.5 -.1 -2.2 -.3c-.8 -.1 -1.5 -.3 -2.2 -.6c-.7 -.3 -1.3 -.7 -2 -1.1c-.6 -.4 -1.2 -.9 -1.7 -1.4c-.5 -.5 -1 -1.1 -1.4 -1.7c-.4 -.7 -.8 -1.3 -1.1 -2c-.3 -.7 -.5 -1.4 -.6 -2.2c-.2 -.7 -.2 -1.5 -.2 -2.2c0 -.8 0 -1.5 .2 -2.2c.1 -.8 .3 -1.5 .6 -2.2c.3 -.7 .7 -1.3 1.1 -2c.4 -.6 .9 -1.2 1.4 -1.7c.5 -.5 1.1 -1 1.7 -1.4c.7 -.4 1.3 -.8 2 -1.1c.7 -.3 1.4 -.5 2.2 -.6c.7 -.2 1.5 -.3 2.2 -.3c.8 0 1.5 .1 2.2 .3c.8 .1 1.5 .3 2.2 .6c.7 .3 1.3 .7 2 1.1c.6 .4 1.2 .9 1.7 1.4c.5 .5 1 1.1 1.4 1.7c.5 .7 .8 1.3 1.1 2c.3 .7 .5 1.4 .6 2.2c.2 .7 .3 1.4 .3 2.2Z" class="g0_225"/>
<path d="M167.9 701.6c0 .7 -.1 1.5 -.3 2.2c-.1 .8 -.3 1.5 -.6 2.2c-.3 .7 -.6 1.3 -1.1 2c-.4 .6 -.9 1.2 -1.4 1.7c-.5 .5 -1.1 1 -1.7 1.4c-.7 .4 -1.3 .8 -2 1.1c-.7 .3 -1.4 .5 -2.2 .6c-.7 .2 -1.4 .3 -2.2 .3c-.7 0 -1.5 -.1 -2.2 -.3c-.8 -.1 -1.5 -.3 -2.2 -.6c-.7 -.3 -1.3 -.7 -2 -1.1c-.6 -.4 -1.2 -.9 -1.7 -1.4c-.5 -.5 -1 -1.1 -1.4 -1.7c-.4 -.7 -.8 -1.3 -1.1 -2c-.3 -.7 -.5 -1.4 -.6 -2.2c-.2 -.7 -.2 -1.5 -.2 -2.2c0 -.8 0 -1.5 .2 -2.2c.1 -.8 .3 -1.5 .6 -2.2c.3 -.7 .7 -1.3 1.1 -2c.4 -.6 .9 -1.2 1.4 -1.7c.5 -.5 1.1 -1 1.7 -1.4c.7 -.4 1.3 -.8 2 -1.1c.7 -.3 1.4 -.5 2.2 -.6c.7 -.2 1.5 -.3 2.2 -.3c.8 0 1.5 .1 2.2 .3c.8 .1 1.5 .3 2.2 .6c.7 .3 1.3 .7 2 1.1c.6 .4 1.2 .9 1.7 1.4c.5 .5 1 1.1 1.4 1.7c.5 .7 .8 1.3 1.1 2c.3 .7 .5 1.4 .6 2.2c.2 .7 .3 1.4 .3 2.2Z" class="g1_225"/>
<path d="M167.9 736c0 .7 -.1 1.5 -.3 2.2c-.1 .7 -.3 1.5 -.6 2.2c-.3 .7 -.6 1.3 -1.1 1.9c-.4 .7 -.9 1.2 -1.4 1.8c-.5 .5 -1.1 1 -1.7 1.4c-.7 .4 -1.3 .8 -2 1.1c-.7 .2 -1.4 .5 -2.2 .6c-.7 .2 -1.4 .2 -2.2 .2c-.7 0 -1.5 0 -2.2 -.2c-.8 -.1 -1.5 -.4 -2.2 -.6c-.7 -.3 -1.3 -.7 -2 -1.1c-.6 -.4 -1.2 -.9 -1.7 -1.4c-.5 -.6 -1 -1.1 -1.4 -1.8c-.4 -.6 -.8 -1.2 -1.1 -1.9c-.3 -.7 -.5 -1.5 -.6 -2.2c-.2 -.7 -.2 -1.5 -.2 -2.2c0 -.8 0 -1.5 .2 -2.3c.1 -.7 .3 -1.4 .6 -2.1c.3 -.7 .7 -1.4 1.1 -2c.4 -.6 .9 -1.2 1.4 -1.7c.5 -.6 1.1 -1 1.7 -1.5c.7 -.4 1.3 -.7 2 -1c.7 -.3 1.4 -.5 2.2 -.7c.7 -.1 1.5 -.2 2.2 -.2c.8 0 1.5 .1 2.2 .2c.8 .2 1.5 .4 2.2 .7c.7 .3 1.3 .6 2 1c.6 .5 1.2 .9 1.7 1.5c.5 .5 1 1.1 1.4 1.7c.5 .6 .8 1.3 1.1 2c.3 .7 .5 1.4 .6 2.1c.2 .8 .3 1.5 .3 2.3Z" class="g0_225"/>
<path d="M167.9 736c0 .7 -.1 1.5 -.3 2.2c-.1 .7 -.3 1.5 -.6 2.2c-.3 .7 -.6 1.3 -1.1 1.9c-.4 .7 -.9 1.2 -1.4 1.8c-.5 .5 -1.1 1 -1.7 1.4c-.7 .4 -1.3 .8 -2 1.1c-.7 .2 -1.4 .5 -2.2 .6c-.7 .2 -1.4 .2 -2.2 .2c-.7 0 -1.5 0 -2.2 -.2c-.8 -.1 -1.5 -.4 -2.2 -.6c-.7 -.3 -1.3 -.7 -2 -1.1c-.6 -.4 -1.2 -.9 -1.7 -1.4c-.5 -.6 -1 -1.1 -1.4 -1.8c-.4 -.6 -.8 -1.2 -1.1 -1.9c-.3 -.7 -.5 -1.5 -.6 -2.2c-.2 -.7 -.2 -1.5 -.2 -2.2c0 -.8 0 -1.5 .2 -2.3c.1 -.7 .3 -1.4 .6 -2.1c.3 -.7 .7 -1.4 1.1 -2c.4 -.6 .9 -1.2 1.4 -1.7c.5 -.6 1.1 -1 1.7 -1.5c.7 -.4 1.3 -.7 2 -1c.7 -.3 1.4 -.5 2.2 -.7c.7 -.1 1.5 -.2 2.2 -.2c.8 0 1.5 .1 2.2 .2c.8 .2 1.5 .4 2.2 .7c.7 .3 1.3 .6 2 1c.6 .5 1.2 .9 1.7 1.5c.5 .5 1 1.1 1.4 1.7c.5 .6 .8 1.3 1.1 2c.3 .7 .5 1.4 .6 2.1c.2 .8 .3 1.5 .3 2.3Z" class="g1_225"/>
<path d="M167.9 770.3c0 .8 -.1 1.5 -.3 2.3c-.1 .7 -.3 1.4 -.6 2.1c-.3 .7 -.6 1.4 -1.1 2c-.4 .6 -.9 1.2 -1.4 1.7c-.5 .6 -1.1 1.1 -1.7 1.5c-.7 .4 -1.3 .7 -2 1c-.7 .3 -1.4 .5 -2.2 .7c-.7 .1 -1.4 .2 -2.2 .2c-.7 0 -1.5 -.1 -2.2 -.2c-.8 -.2 -1.5 -.4 -2.2 -.7c-.7 -.3 -1.3 -.6 -2 -1c-.6 -.4 -1.2 -.9 -1.7 -1.5c-.5 -.5 -1 -1.1 -1.4 -1.7c-.4 -.6 -.8 -1.3 -1.1 -2c-.3 -.7 -.5 -1.4 -.6 -2.1c-.2 -.8 -.2 -1.5 -.2 -2.3c0 -.7 0 -1.5 .2 -2.2c.1 -.7 .3 -1.4 .6 -2.1c.3 -.7 .7 -1.4 1.1 -2c.4 -.6 .9 -1.2 1.4 -1.8c.5 -.5 1.1 -1 1.7 -1.4c.7 -.4 1.3 -.8 2 -1c.7 -.3 1.4 -.5 2.2 -.7c.7 -.1 1.5 -.2 2.2 -.2c.8 0 1.5 .1 2.2 .2c.8 .2 1.5 .4 2.2 .7c.7 .2 1.3 .6 2 1c.6 .4 1.2 .9 1.7 1.4c.5 .6 1 1.2 1.4 1.8c.5 .6 .8 1.3 1.1 2c.3 .7 .5 1.4 .6 2.1c.2 .7 .3 1.5 .3 2.2Z" class="g0_225"/>
<path d="M167.9 770.3c0 .8 -.1 1.5 -.3 2.3c-.1 .7 -.3 1.4 -.6 2.1c-.3 .7 -.6 1.4 -1.1 2c-.4 .6 -.9 1.2 -1.4 1.7c-.5 .6 -1.1 1.1 -1.7 1.5c-.7 .4 -1.3 .7 -2 1c-.7 .3 -1.4 .5 -2.2 .7c-.7 .1 -1.4 .2 -2.2 .2c-.7 0 -1.5 -.1 -2.2 -.2c-.8 -.2 -1.5 -.4 -2.2 -.7c-.7 -.3 -1.3 -.6 -2 -1c-.6 -.4 -1.2 -.9 -1.7 -1.5c-.5 -.5 -1 -1.1 -1.4 -1.7c-.4 -.6 -.8 -1.3 -1.1 -2c-.3 -.7 -.5 -1.4 -.6 -2.1c-.2 -.8 -.2 -1.5 -.2 -2.3c0 -.7 0 -1.5 .2 -2.2c.1 -.7 .3 -1.4 .6 -2.1c.3 -.7 .7 -1.4 1.1 -2c.4 -.6 .9 -1.2 1.4 -1.8c.5 -.5 1.1 -1 1.7 -1.4c.7 -.4 1.3 -.8 2 -1c.7 -.3 1.4 -.5 2.2 -.7c.7 -.1 1.5 -.2 2.2 -.2c.8 0 1.5 .1 2.2 .2c.8 .2 1.5 .4 2.2 .7c.7 .2 1.3 .6 2 1c.6 .4 1.2 .9 1.7 1.4c.5 .6 1 1.2 1.4 1.8c.5 .6 .8 1.3 1.1 2c.3 .7 .5 1.4 .6 2.1c.2 .7 .3 1.5 .3 2.2Z" class="g1_225"/>
</g>
<path d="M65 832.5H174.6" class="g4_225"/>
</svg>