<?xml version="1.0" encoding="UTF-8" standalone="no"?>
<!DOCTYPE svg PUBLIC "-//W3C//DTD SVG 1.1//EN"
"http://www.w3.org/Graphics/SVG/1.1/DTD/svg11.dtd">
<svg viewBox="0 0 714 1017" version="1.1" xmlns="http://www.w3.org/2000/svg" xmlns:xlink="http://www.w3.org/1999/xlink">
<defs>
<clipPath id="c0_87"><path d="M99.7 883.6V688.2H593.5V883.6Z"/></clipPath>
<clipPath id="c1_87"><path d="M99.7 883.6V688.1h495V883.6Z"/></clipPath>
<style type="text/css"><![CDATA[
.g0_87{
fill: #FFF;
}
.g1_87{
fill: none;
stroke: #000;
stroke-width: 1.145;
stroke-miterlimit: 10;
}
.g2_87{
fill: #000;
}
]]></style>
</defs>
<path d="M0 1017.7H717.2V-3.7H0V1017.7Z" class="g0_87"/>
<g clip-path="url(#c1_87)">
<path clip-path="url(#c0_87)" d="M99.7 688.2H593.5V884.1H99.7V688.2Z" class="g0_87"/>
<path d="M254.3 746.1h194v45.8h-194V746.1Z" class="g1_87"/>
<path d="M323.4 769c0 .4 -.1 .8 -.2 1.2c0 .4 -.2 .8 -.3 1.2c-.2 .4 -.4 .8 -.6 1.1c-.2 .3 -.5 .7 -.8 1c-.3 .2 -.6 .5 -.9 .7c-.4 .3 -.8 .5 -1.1 .6c-.4 .2 -.8 .3 -1.2 .4c-.4 .1 -.8 .1 -1.3 .1c-.4 0 -.8 0 -1.2 -.1c-.4 -.1 -.8 -.2 -1.2 -.4c-.4 -.1 -.7 -.3 -1.1 -.6c-.3 -.2 -.6 -.5 -.9 -.7c-.3 -.3 -.6 -.7 -.8 -1c-.2 -.3 -.4 -.7 -.6 -1.1c-.1 -.4 -.3 -.8 -.4 -1.2c0 -.4 -.1 -.8 -.1 -1.2c0 -.4 .1 -.8 .1 -1.2c.1 -.4 .3 -.8 .4 -1.2c.2 -.4 .4 -.8 .6 -1.1c.2 -.4 .5 -.7 .8 -1c.3 -.3 .6 -.5 .9 -.8c.4 -.2 .7 -.4 1.1 -.5c.4 -.2 .8 -.3 1.2 -.4c.4 -.1 .8 -.1 1.2 -.1c.5 0 .9 0 1.3 .1c.4 .1 .8 .2 1.2 .4c.3 .1 .7 .3 1.1 .5c.3 .3 .6 .5 .9 .8c.3 .3 .6 .6 .8 1c.2 .3 .4 .7 .6 1.1c.1 .4 .3 .8 .3 1.2c.1 .4 .2 .8 .2 1.2Z" class="g2_87"/>
<path d="M323.4 769c0 .4 -.1 .8 -.2 1.2c0 .4 -.2 .8 -.3 1.2c-.2 .4 -.4 .8 -.6 1.1c-.2 .3 -.5 .7 -.8 1c-.3 .2 -.6 .5 -.9 .7c-.4 .3 -.8 .5 -1.1 .6c-.4 .2 -.8 .3 -1.2 .4c-.4 .1 -.8 .1 -1.3 .1c-.4 0 -.8 0 -1.2 -.1c-.4 -.1 -.8 -.2 -1.2 -.4c-.4 -.1 -.7 -.3 -1.1 -.6c-.3 -.2 -.6 -.5 -.9 -.7c-.3 -.3 -.6 -.7 -.8 -1c-.2 -.3 -.4 -.7 -.6 -1.1c-.1 -.4 -.3 -.8 -.4 -1.2c0 -.4 -.1 -.8 -.1 -1.2c0 -.4 .1 -.8 .1 -1.2c.1 -.4 .3 -.8 .4 -1.2c.2 -.4 .4 -.8 .6 -1.1c.2 -.4 .5 -.7 .8 -1c.3 -.3 .6 -.5 .9 -.8c.4 -.2 .7 -.4 1.1 -.5c.4 -.2 .8 -.3 1.2 -.4c.4 -.1 .8 -.1 1.2 -.1c.5 0 .9 0 1.3 .1c.4 .1 .8 .2 1.2 .4c.3 .1 .7 .3 1.1 .5c.3 .3 .6 .5 .9 .8c.3 .3 .6 .6 .8 1c.2 .3 .4 .7 .6 1.1c.1 .4 .3 .8 .3 1.2c.1 .4 .2 .8 .2 1.2Z" class="g1_87"/>
<path d="M380.4 769c0 .4 -.1 .8 -.2 1.2c0 .4 -.2 .8 -.3 1.2c-.2 .4 -.4 .8 -.6 1.1c-.2 .3 -.5 .7 -.8 1c-.3 .2 -.6 .5 -.9 .7c-.4 .3 -.8 .5 -1.1 .6c-.4 .2 -.8 .3 -1.2 .4c-.4 .1 -.8 .1 -1.3 .1c-.4 0 -.8 0 -1.2 -.1c-.4 -.1 -.8 -.2 -1.2 -.4c-.4 -.1 -.7 -.3 -1.1 -.6c-.3 -.2 -.6 -.5 -.9 -.7c-.3 -.3 -.6 -.7 -.8 -1c-.2 -.3 -.4 -.7 -.6 -1.1c-.1 -.4 -.3 -.8 -.3 -1.2c-.1 -.4 -.2 -.8 -.2 -1.2c0 -.4 .1 -.8 .2 -1.2c0 -.4 .2 -.8 .3 -1.2c.2 -.4 .4 -.8 .6 -1.1c.2 -.4 .5 -.7 .8 -1c.3 -.3 .6 -.5 .9 -.8c.4 -.2 .7 -.4 1.1 -.5c.4 -.2 .8 -.3 1.2 -.4c.4 -.1 .8 -.1 1.2 -.1c.5 0 .9 0 1.3 .1c.4 .1 .8 .2 1.2 .4c.3 .1 .7 .3 1.1 .5c.3 .3 .6 .5 .9 .8c.3 .3 .6 .6 .8 1c.2 .3 .4 .7 .6 1.1c.1 .4 .3 .8 .3 1.2c.1 .4 .2 .8 .2 1.2Z" class="g2_87"/>
<path d="M380.4 769c0 .4 -.1 .8 -.2 1.2c0 .4 -.2 .8 -.3 1.2c-.2 .4 -.4 .8 -.6 1.1c-.2 .3 -.5 .7 -.8 1c-.3 .2 -.6 .5 -.9 .7c-.4 .3 -.8 .5 -1.1 .6c-.4 .2 -.8 .3 -1.2 .4c-.4 .1 -.8 .1 -1.3 .1c-.4 0 -.8 0 -1.2 -.1c-.4 -.1 -.8 -.2 -1.2 -.4c-.4 -.1 -.7 -.3 -1.1 -.6c-.3 -.2 -.6 -.5 -.9 -.7c-.3 -.3 -.6 -.7 -.8 -1c-.2 -.3 -.4 -.7 -.6 -1.1c-.1 -.4 -.3 -.8 -.3 -1.2c-.1 -.4 -.2 -.8 -.2 -1.2c0 -.4 .1 -.8 .2 -1.2c0 -.4 .2 -.8 .3 -1.2c.2 -.4 .4 -.8 .6 -1.1c.2 -.4 .5 -.7 .8 -1c.3 -.3 .6 -.5 .9 -.8c.4 -.2 .7 -.4 1.1 -.5c.4 -.2 .8 -.3 1.2 -.4c.4 -.1 .8 -.1 1.2 -.1c.5 0 .9 0 1.3 .1c.4 .1 .8 .2 1.2 .4c.3 .1 .7 .3 1.1 .5c.3 .3 .6 .5 .9 .8c.3 .3 .6 .6 .8 1c.2 .3 .4 .7 .6 1.1c.1 .4 .3 .8 .3 1.2c.1 .4 .2 .8 .2 1.2Z" class="g1_87"/>
<path d="M439.1 769c0 .4 0 .8 -.1 1.2c-.1 .4 -.2 .8 -.4 1.2c-.1 .4 -.3 .8 -.6 1.1c-.2 .3 -.4 .7 -.7 1c-.3 .2 -.7 .5 -1 .7c-.3 .3 -.7 .5 -1.1 .6c-.4 .2 -.8 .3 -1.2 .4c-.4 .1 -.8 .1 -1.2 .1c-.4 0 -.8 0 -1.2 -.1c-.4 -.1 -.8 -.2 -1.2 -.4c-.4 -.1 -.8 -.3 -1.1 -.6c-.4 -.2 -.7 -.5 -1 -.7c-.3 -.3 -.5 -.7 -.8 -1c-.2 -.3 -.4 -.7 -.5 -1.1c-.2 -.4 -.3 -.8 -.4 -1.2c-.1 -.4 -.1 -.8 -.1 -1.2c0 -.4 0 -.8 .1 -1.2c.1 -.4 .2 -.8 .4 -1.2c.1 -.4 .3 -.8 .5 -1.1c.3 -.4 .5 -.7 .8 -1c.3 -.3 .6 -.5 1 -.8c.3 -.2 .7 -.4 1.1 -.5c.4 -.2 .8 -.3 1.2 -.4c.4 -.1 .8 -.1 1.2 -.1c.4 0 .8 0 1.2 .1c.4 .1 .8 .2 1.2 .4c.4 .1 .8 .3 1.1 .5c.3 .3 .7 .5 1 .8c.3 .3 .5 .6 .7 1c.3 .3 .5 .7 .6 1.1c.2 .4 .3 .8 .4 1.2c.1 .4 .1 .8 .1 1.2Z" class="g2_87"/>
<path clip-path="url(#c0_87)" d="M439.1 769c0 .4 0 .8 -.1 1.2c-.1 .4 -.2 .8 -.4 1.2c-.1 .4 -.3 .8 -.6 1.1c-.2 .3 -.4 .7 -.7 1c-.3 .2 -.7 .5 -1 .7c-.3 .3 -.7 .5 -1.1 .6c-.4 .2 -.8 .3 -1.2 .4c-.4 .1 -.8 .1 -1.2 .1c-.4 0 -.8 0 -1.2 -.1c-.4 -.1 -.8 -.2 -1.2 -.4c-.4 -.1 -.8 -.3 -1.1 -.6c-.4 -.2 -.7 -.5 -1 -.7c-.3 -.3 -.5 -.7 -.8 -1c-.2 -.3 -.4 -.7 -.5 -1.1c-.2 -.4 -.3 -.8 -.4 -1.2c-.1 -.4 -.1 -.8 -.1 -1.2c0 -.4 0 -.8 .1 -1.2c.1 -.4 .2 -.8 .4 -1.2c.1 -.4 .3 -.8 .5 -1.1c.3 -.4 .5 -.7 .8 -1c.3 -.3 .6 -.5 1 -.8c.3 -.2 .7 -.4 1.1 -.5c.4 -.2 .8 -.3 1.2 -.4c.4 -.1 .8 -.1 1.2 -.1c.4 0 .8 0 1.2 .1c.4 .1 .8 .2 1.2 .4c.4 .1 .8 .3 1.1 .5c.3 .3 .7 .5 1 .8c.3 .3 .5 .6 .7 1c.3 .3 .5 .7 .6 1.1c.2 .4 .3 .8 .4 1.2c.1 .4 .1 .8 .1 1.2ZM251 837.7h88.7v45.9H251V837.7Zm112.8 0h79.1v45.9H363.8V837.7Zm103.1 0H591.8v45.9H466.9V837.7ZM317 775.3c.1 20.8 -3.6 31.3 -10.8 31.3c-7.2 0 -10.8 7.9 -10.8 23.8" class="g1_87"/>
<path d="M295.4 836.4l-2.7 -8l2.7 2l2.6 -2l-2.6 8Z" class="g2_87"/>
<path d="M295.4 836.4l-2.7 -8l2.7 2l2.6 -2l-2.6 8ZM374 775.3c0 20.8 4.9 31.3 14.7 31.3c9.7 0 14.6 7.9 14.6 23.8" class="g1_87"/>
<path d="M403.3 836.4l-2.6 -8l2.6 2l2.7 -2l-2.7 8Z" class="g2_87"/>
<path d="M403.3 836.4l-2.6 -8l2.6 2l2.7 -2l-2.7 8Zm29.5 -61.1c0 20.8 16.1 31.3 48.3 31.3c32.2 0 48.3 7.9 48.3 23.8" class="g1_87"/>
<path d="M529.4 836.4l-2.7 -8l2.7 2l2.6 -2l-2.6 8Z" class="g2_87"/>
<path d="M529.4 836.4l-2.7 -8l2.7 2l2.6 -2l-2.6 8Z" class="g1_87"/>
<path d="M275.8 769c0 .4 0 .8 -.1 1.2c-.1 .4 -.2 .8 -.4 1.2c-.1 .4 -.3 .8 -.5 1.1c-.3 .3 -.5 .7 -.8 1c-.3 .2 -.6 .5 -1 .7c-.3 .3 -.7 .5 -1.1 .6c-.4 .2 -.7 .3 -1.2 .4c-.4 .1 -.8 .1 -1.2 .1c-.4 0 -.8 0 -1.2 -.1c-.4 -.1 -.8 -.2 -1.2 -.4c-.4 -.1 -.7 -.3 -1.1 -.6c-.3 -.2 -.7 -.5 -1 -.7c-.2 -.3 -.5 -.7 -.7 -1c-.3 -.3 -.5 -.7 -.6 -1.1c-.2 -.4 -.3 -.8 -.4 -1.2c-.1 -.4 -.1 -.8 -.1 -1.2c0 -.4 0 -.8 .1 -1.2c.1 -.4 .2 -.8 .4 -1.2c.1 -.4 .3 -.8 .6 -1.1c.2 -.4 .5 -.7 .7 -1c.3 -.3 .7 -.5 1 -.8c.4 -.2 .7 -.4 1.1 -.5c.4 -.2 .8 -.3 1.2 -.4c.4 -.1 .8 -.1 1.2 -.1c.4 0 .8 0 1.2 .1c.5 .1 .8 .2 1.2 .4c.4 .1 .8 .3 1.1 .5c.4 .3 .7 .5 1 .8c.3 .3 .5 .6 .8 1c.2 .3 .4 .7 .5 1.1c.2 .4 .3 .8 .4 1.2c.1 .4 .1 .8 .1 1.2Z" class="g2_87"/>
<path d="M275.8 769c0 .4 0 .8 -.1 1.2c-.1 .4 -.2 .8 -.4 1.2c-.1 .4 -.3 .8 -.5 1.1c-.3 .3 -.5 .7 -.8 1c-.3 .2 -.6 .5 -1 .7c-.3 .3 -.7 .5 -1.1 .6c-.4 .2 -.7 .3 -1.2 .4c-.4 .1 -.8 .1 -1.2 .1c-.4 0 -.8 0 -1.2 -.1c-.4 -.1 -.8 -.2 -1.2 -.4c-.4 -.1 -.7 -.3 -1.1 -.6c-.3 -.2 -.7 -.5 -1 -.7c-.2 -.3 -.5 -.7 -.7 -1c-.3 -.3 -.5 -.7 -.6 -1.1c-.2 -.4 -.3 -.8 -.4 -1.2c-.1 -.4 -.1 -.8 -.1 -1.2c0 -.4 0 -.8 .1 -1.2c.1 -.4 .2 -.8 .4 -1.2c.1 -.4 .3 -.8 .6 -1.1c.2 -.4 .5 -.7 .7 -1c.3 -.3 .7 -.5 1 -.8c.4 -.2 .7 -.4 1.1 -.5c.4 -.2 .8 -.3 1.2 -.4c.4 -.1 .8 -.1 1.2 -.1c.4 0 .8 0 1.2 .1c.5 .1 .8 .2 1.2 .4c.4 .1 .8 .3 1.1 .5c.4 .3 .7 .5 1 .8c.3 .3 .5 .6 .8 1c.2 .3 .4 .7 .5 1.1c.2 .4 .3 .8 .4 1.2c.1 .4 .1 .8 .1 1.2Zm44.6 -80.2h61.8c.5 0 .9 .1 1.3 .2c.5 .2 .8 .5 1.2 .8c.3 .3 .5 .7 .7 1.1c.2 .4 .3 .9 .3 1.3v16.1c0 .4 -.1 .8 -.3 1.3c-.2 .4 -.4 .8 -.7 1.1c-.4 .3 -.7 .6 -1.2 .7c-.4 .2 -.8 .3 -1.3 .3H320.4c-.5 0 -.9 -.1 -1.4 -.3c-.4 -.1 -.8 -.4 -1.1 -.7c-.3 -.3 -.5 -.7 -.7 -1.1c-.2 -.5 -.3 -.9 -.3 -1.3V692.2c0 -.4 .1 -.9 .3 -1.3c.2 -.4 .4 -.8 .7 -1.1c.3 -.3 .7 -.6 1.1 -.8c.5 -.1 .9 -.2 1.4 -.2Zm30.9 22.9c0 0 0 9 0 27.1" class="g1_87"/>
<path d="M351.3 744.8l-2.7 -8l2.7 2l2.7 -2l-2.7 8Z" class="g2_87"/>
<path clip-path="url(#c0_87)" d="M351.3 744.8l-2.7 -8l2.7 2l2.7 -2l-2.7 8ZM100 837.7H225.2v45.9H100V837.7ZM269.5 775.3c0 20.8 -17.8 31.3 -53.5 31.3c-35.6 0 -53.4 7.9 -53.4 23.8" class="g1_87"/>
<path d="M162.6 836.4l-2.7 -8l2.7 2l2.7 -2l-2.7 8Z" class="g2_87"/>
<path d="M162.6 836.4l-2.7 -8l2.7 2l2.7 -2l-2.7 8Z" class="g1_87"/>
</g>
</svg>