<?xml version="1.0" encoding="UTF-8" standalone="no"?>
<!DOCTYPE svg PUBLIC "-//W3C//DTD SVG 1.1//EN"
"http://www.w3.org/Graphics/SVG/1.1/DTD/svg11.dtd">
<svg viewBox="0 0 714 1017" version="1.1" xmlns="http://www.w3.org/2000/svg" xmlns:xlink="http://www.w3.org/1999/xlink">
<defs>
<clipPath id="c0_121"><path d="M70 399.9v-136H622.3v136Z"/></clipPath>
<clipPath id="c1_121"><path d="M70 399.9V262.4H623V399.9Z"/></clipPath>
<style type="text/css"><![CDATA[
.g0_121{
fill: #FFF;
}
.g1_121{
fill: none;
stroke: #000;
stroke-width: 2.291;
stroke-miterlimit: 10;
}
.g2_121{
fill: none;
stroke: #000;
stroke-width: 1.145;
stroke-miterlimit: 10;
}
.g3_121{
fill: #000;
}
.g4_121{
fill: none;
stroke: #000;
stroke-width: 1.217;
stroke-miterlimit: 10;
}
.g5_121{
fill: none;
stroke: #000;
stroke-width: 1.156;
stroke-miterlimit: 10;
}
.g6_121{
fill: none;
stroke: #000;
stroke-width: 0.76;
stroke-miterlimit: 10;
}
.g7_121{
fill: none;
stroke: #000;
stroke-width: 0.608;
stroke-miterlimit: 10;
}
]]></style>
</defs>
<path d="M0 1017.7H717.2V-3.7H0V1017.7Z" class="g0_121"/>
<g clip-path="url(#c1_121)">
<path clip-path="url(#c0_121)" d="M70 263.9H622.3V400.3H70V263.9Z" class="g0_121"/>
<path d="M173.7 265.6H437.2V300H173.7V265.6Z" class="g1_121"/>
<path d="M173.7 265.6H231V300H173.7V265.6Zm57.3 0h57.3V300H231V265.6Zm57.3 0h45.8V300H288.3V265.6Zm45.8 0h57.3V300H334.1V265.6Zm57.3 0h45.8V300H391.4V265.6Z" class="g2_121"/>
<path d="M173.7 357.3H620.6v33.2H173.7V357.3Z" class="g1_121"/>
<path d="M173.7 357.3h91.7v33.2H173.7V357.3Zm91.7 0h80.2v33.2H265.4V357.3Zm80.2 0H448.7v33.2H345.6V357.3Zm103.1 0h91.7v33.2H448.7V357.3Zm91.7 0h80.2v33.2H540.4V357.3Z" class="g2_121"/>
<path d="M173.1 357.3v-3.4h1.2v3.4m-1.2 -6.9V347h1.2v3.4m-1.2 -6.9v-3.4h1.2v3.4m-1.2 -6.8v-3.5h1.2v3.5m-1.2 -6.9v-3.4h1.2v3.4m-1.2 -6.9v-3.4h1.2v3.4M173.1 316v-3.4h1.2V316m-1.2 -6.8v-3.5h1.2v3.5m-1.2 -6.9V300h1.2v2.3Z" class="g3_121"/>
<path d="M264.9 357.6l-1.8 -3l1 -.5l1.7 2.9m-4.5 -5.3l-1.7 -2.9l.9 -.6l1.8 2.9m-4.5 -5.3L256 342.9l1 -.6l1.8 2.9m-4.5 -5.3L252.5 337l1 -.6l1.7 2.9M250.7 334l-1.8 -2.9l1 -.6l1.8 2.9m-4.5 -5.3l-1.8 -2.9l1 -.6l1.8 2.9m-4.6 -5.3l-1.7 -2.9l1 -.6l1.7 2.9m-4.5 -5.3l-1.8 -2.9l1 -.6l1.8 2.9m-4.5 -5.3l-1.8 -2.9l1 -.6l1.7 2.9M233 304.5l-1.7 -2.9l.9 -.6l1.8 2.9Z" class="g3_121"/>
<path d="M345.2 357.7l-2.5 -2.4l.8 -.8l2.5 2.4m-5.7 -4.1l-2.4 -2.4l.8 -.8l2.4 2.4m-5.7 -4L333 345.6l.8 -.9l2.4 2.5m-5.6 -4.1l-2.5 -2.4l.9 -.8l2.4 2.4m-5.7 -4l-2.4 -2.5l.8 -.8l2.4 2.4m-5.6 -4L318.4 331l.8 -.8l2.5 2.4M316 328.5l-2.4 -2.4l.8 -.8l2.4 2.4m-5.7 -4l-2.4 -2.5l.8 -.8l2.4 2.5m-5.6 -4.1l-2.5 -2.4l.8 -.8l2.5 2.4m-5.7 -4L299 311.5l.8 -.8l2.4 2.4m-5.7 -4l-2.4 -2.4l.8 -.8l2.5 2.4m-5.7 -4.1l-2.4 -2.4l.8 -.8l2.4 2.4Z" class="g3_121"/>
<path d="M448.4 357.8l-3 -1.5l.5 -1l3 1.5m-6.6 -2.1l-3.1 -1.5l.5 -1l3.1 1.5m-6.7 -2l-3 -1.6l.5 -1l3 1.5m-6.6 -2l-3.1 -1.5l.5 -1.1l3.1 1.6m-6.7 -2.1l-3 -1.5l.5 -1l3 1.5m-6.6 -2.1l-3.1 -1.5l.5 -1l3.1 1.5m-6.7 -2l-3 -1.6l.5 -1l3 1.5m-6.6 -2l-3.1 -1.5l.5 -1.1l3.1 1.6m-6.7 -2.1l-3 -1.5l.5 -1l3.1 1.5m-6.7 -2.1L390 328.6l.5 -1l3.1 1.5m-6.7 -2l-3 -1.6l.5 -1l3.1 1.5m-6.7 -2l-3.1 -1.5l.5 -1.1l3.1 1.6m-6.7 -2.1l-3 -1.5l.5 -1l3.1 1.5m-6.7 -2.1l-3.1 -1.5l.5 -1l3.1 1.5m-6.7 -2l-3 -1.6l.5 -1l3.1 1.5m-6.7 -2l-3.1 -1.5l.5 -1.1l3.1 1.6M350 308.6l-3 -1.5l.5 -1l3.1 1.5m-6.7 -2.1L340.8 304l.5 -1l3.1 1.5m-6.7 -2l-3 -1.6l.5 -1l3.1 1.5Z" class="g3_121"/>
<path d="M540.1 357.8l-3.2 -1.2l.5 -1.1l3.2 1.3m-6.9 -1.4l-3.2 -1.3l.4 -1l3.2 1.2m-6.8 -1.4l-3.2 -1.2l.4 -1.1l3.2 1.2m-6.8 -1.4l-3.2 -1.2l.4 -1.1l3.2 1.3M514.5 348l-3.2 -1.3l.4 -1l3.2 1.2m-6.8 -1.4l-3.2 -1.2l.4 -1.1l3.2 1.2M501.6 343l-3.2 -1.2l.5 -1.1l3.2 1.3m-6.9 -1.4L492 339.3l.4 -1l3.2 1.2m-6.8 -1.4l-3.2 -1.2l.4 -1.1l3.2 1.2m-6.8 -1.4l-3.2 -1.2l.4 -1.1l3.2 1.3M476 333.2l-3.2 -1.3l.4 -1l3.2 1.2m-6.8 -1.4l-3.2 -1.2l.4 -1.1l3.2 1.2m-6.9 -1.4L459.9 327l.5 -1.1l3.2 1.2m-6.9 -1.3l-3.2 -1.3l.4 -1.1l3.2 1.3m-6.8 -1.4L447.1 322l.4 -1l3.2 1.2m-6.8 -1.4l-3.2 -1.2l.4 -1.1l3.2 1.2m-6.8 -1.4l-3.2 -1.2l.4 -1.1l3.2 1.3m-6.8 -1.4l-3.2 -1.3l.4 -1l3.2 1.2m-6.9 -1.4l-3.2 -1.2l.5 -1.1l3.2 1.2m-6.9 -1.4L415 309.7l.4 -1.1l3.2 1.3m-6.8 -1.4l-3.2 -1.3l.4 -1l3.2 1.2M405.4 306l-3.2 -1.2l.4 -1.1l3.2 1.2M399 303.5l-3.2 -1.2l.4 -1.1l3.2 1.3m-6.8 -1.4l-1.4 -.6l.4 -1l1.4 .5Z" class="g3_121"/>
<path d="M620.4 357.8l-3.3 -1l.4 -1.1l3.2 1.1m-6.9 -1l-3.3 -1l.4 -1.1l3.3 1m-6.9 -1l-3.3 -1l.3 -1.1l3.3 1.1m-6.9 -1l-3.3 -1l.4 -1.1l3.2 1m-6.9 -1l-3.2 -1l.3 -1.1l3.3 1.1m-6.9 -1l-3.3 -1l.3 -1.1l3.3 1m-6.9 -1l-3.3 -1l.4 -1.1l3.3 1m-6.9 -.9l-3.3 -1l.3 -1.1l3.3 1m-6.9 -1l-3.3 -1l.4 -1.1l3.2 1m-6.9 -.9l-3.2 -1l.3 -1.1l3.3 1m-6.9 -1l-3.3 -1l.3 -1.1l3.3 1m-6.9 -.9l-3.3 -1l.4 -1.1l3.3 1m-7 -1l-3.2 -1l.3 -1.1l3.3 1m-6.9 -.9l-3.3 -1l.3 -1.1l3.3 1m-6.9 -1l-3.3 -1l.4 -1.1l3.3 1m-6.9 -.9l-3.3 -1L519 325l3.3 1m-6.9 -1l-3.3 -1l.4 -1.1l3.2 1m-6.9 -.9l-3.2 -1l.3 -1.1l3.3 1m-6.9 -1l-3.3 -1l.3 -1.1l3.3 1m-6.9 -.9l-3.3 -1l.4 -1.1l3.3 1m-6.9 -1l-3.3 -1l.3 -1.1l3.3 1m-6.9 -.9l-3.3 -1l.4 -1.1l3.2 1m-6.9 -1l-3.3 -1l.4 -1.1l3.3 1m-6.9 -.9l-3.3 -1l.3 -1.1l3.3 1m-6.9 -1l-3.3 -1l.4 -1.1l3.2 1m-6.9 -.9l-3.2 -1l.3 -1.1l3.3 1m-6.9 -1l-3.3 -1l.3 -1.1l3.3 1m-6.9 -.9l-3.3 -1l.4 -1.1l3.3 1Z" class="g3_121"/>
</g>
<path d="M83.2 489.2H629" class="g4_121"/>
<path d="M83.2 516.1H629" class="g5_121"/>
<path d="M83.2 542.9H629M83.2 569.4H629M83.2 595.9H629M83.2 622.4H629" class="g6_121"/>
<path d="M83.2 649.2H629" class="g4_121"/>
<path d="M65 832.5H174.6" class="g7_121"/>
</svg>