<?xml version="1.0" encoding="UTF-8" standalone="no"?>
<!DOCTYPE svg PUBLIC "-//W3C//DTD SVG 1.1//EN"
"http://www.w3.org/Graphics/SVG/1.1/DTD/svg11.dtd">
<svg viewBox="0 0 714 1017" version="1.1" xmlns="http://www.w3.org/2000/svg" xmlns:xlink="http://www.w3.org/1999/xlink">
<defs>
<style type="text/css"><![CDATA[
.g0_69{
fill: #FFF;
}
.g1_69{
fill: none;
stroke: #000;
stroke-width: 0.608;
stroke-miterlimit: 10;
}
.g2_69{
fill: none;
stroke: #000;
stroke-width: 0.608;
stroke-miterlimit: 10;
stroke-dasharray: 5,5;
}
.g3_69{
fill: #D3D3D3;
stroke: #000;
stroke-width: 0.608;
stroke-miterlimit: 10;
}
]]></style>
</defs>
<path d="M0 1017.7H717.2V-3.7H0V1017.7Z" class="g0_69"/>
<path d="M223.2 722.4V540.5m0 181.9H617.3" class="g1_69"/>
<path d="M272.5 722.4V540.5m49.2 181.9V540.5M371 722.4V540.5m49.3 181.9V540.5m49.2 181.9V540.5m49.3 181.9V540.5M568 722.4V540.5m49.3 181.9V540.5" class="g2_69"/>
<path d="M223.2 570.8h49.3V549.1H223.2v21.7Z" class="g3_69"/>
<path d="M223.2 601.1h122V579.4h-122v21.7Z" class="g3_69"/>
<path d="M223.2 631.4H420.3V609.8H223.2v21.6Z" class="g3_69"/>
<path d="M223.2 661.7H469.5V640.1H223.2v21.6Z" class="g3_69"/>
<path d="M223.2 692H553.3V670.4H223.2V692Z" class="g3_69"/>
<path d="M223.2 722.4H576.7V700.7H223.2v21.7Z" class="g3_69"/>
</svg>