<?xml version="1.0" encoding="UTF-8" standalone="no"?>
<!DOCTYPE svg PUBLIC "-//W3C//DTD SVG 1.1//EN"
"http://www.w3.org/Graphics/SVG/1.1/DTD/svg11.dtd">
<svg viewBox="0 0 714 1017" version="1.1" xmlns="http://www.w3.org/2000/svg" xmlns:xlink="http://www.w3.org/1999/xlink">
<defs>
<clipPath id="c0_388"><path d="M132.9 701.6V435.8H602.7V701.6Z"/></clipPath>
<clipPath id="c1_388"><path d="M132.9 701.6V435.8H603.4V701.6Z"/></clipPath>
<style type="text/css"><![CDATA[
.g0_388{
fill: #FFF;
}
.g1_388{
fill: none;
stroke: #000;
stroke-width: 1.145;
stroke-miterlimit: 10;
}
.g2_388{
fill: none;
stroke: #000;
stroke-width: 2.291;
stroke-miterlimit: 10;
}
.g3_388{
fill: #000;
}
]]></style>
</defs>
<path d="M0 1017.7H717.2V-3.7H0V1017.7Z" class="g0_388"/>
<g clip-path="url(#c1_388)">
<path clip-path="url(#c0_388)" d="M132.9 435.8H602.7V701.6H132.9V435.8Z" class="g0_388"/>
<path d="M339.7 546.4c0 -4.5 12.3 -8.1 27.5 -8.1c7.3 0 14.3 .9 19.5 2.4c5.2 1.5 8.1 3.5 8.1 5.7v48.4c0 4.5 -12.4 8.1 -27.6 8.1c-15.2 0 -27.5 -3.6 -27.5 -8.1V546.4Z" class="g0_388"/>
<path d="M339.7 546.4c0 -4.5 12.3 -8.1 27.5 -8.1c7.3 0 14.3 .9 19.5 2.4c5.2 1.5 8.1 3.5 8.1 5.7v48.4c0 4.5 -12.4 8.1 -27.6 8.1c-15.2 0 -27.5 -3.6 -27.5 -8.1V546.4Zm55.1 0c0 4.4 -12.4 8 -27.6 8c-15.2 0 -27.5 -3.6 -27.5 -8" class="g1_388"/>
<path d="M546 546.4c0 -4.5 12.3 -8.1 27.5 -8.1c7.3 0 14.3 .9 19.4 2.4c5.2 1.5 8.1 3.5 8.1 5.7v48.4c0 4.5 -12.3 8.1 -27.5 8.1c-15.2 0 -27.5 -3.6 -27.5 -8.1V546.4Z" class="g0_388"/>
<path d="M546 546.4c0 -4.5 12.3 -8.1 27.5 -8.1c7.3 0 14.3 .9 19.4 2.4c5.2 1.5 8.1 3.5 8.1 5.7v48.4c0 4.5 -12.3 8.1 -27.5 8.1c-15.2 0 -27.5 -3.6 -27.5 -8.1V546.4Zm55 0c0 4.4 -12.3 8 -27.5 8c-15.2 0 -27.5 -3.6 -27.5 -8" class="g1_388"/>
<path d="M367.1 516.6l.1 15.6" class="g2_388"/>
<path d="M367.2 535.7l-1.6 -4.6l1.6 1.1l1.5 -1.1l-1.5 4.6Z" class="g3_388"/>
<path d="M367.2 535.7l-1.6 -4.6l1.6 1.1l1.5 -1.1l-1.5 4.6ZM299.8 516.2l50.1 20.6" class="g2_388"/>
<path d="M353 538.1l-4.8 -.3l1.7 -1l-.5 -1.8l3.6 3.1Z" class="g3_388"/>
<path d="M353 538.1l-4.8 -.3l1.7 -1l-.5 -1.8l3.6 3.1Zm84.5 -20.4l103.4 24.6" class="g2_388"/>
<path d="M544.2 543.1l-4.8 .4l1.5 -1.2l-.8 -1.7l4.1 2.5Z" class="g3_388"/>
<path d="M544.2 543.1l-4.8 .4l1.5 -1.2l-.8 -1.7l4.1 2.5ZM505.7 516.6l50 19.9" class="g2_388"/>
<path d="M558.9 537.8l-4.8 -.3l1.6 -1l-.5 -1.8l3.7 3.1Z" class="g3_388"/>
<path d="M558.9 537.8l-4.8 -.3l1.6 -1l-.5 -1.8l3.7 3.1ZM575 516.6l-.4 15.8" class="g2_388"/>
<path d="M574.5 535.8l-1.4 -4.6l1.5 1.2l1.5 -1.2l-1.6 4.6Z" class="g3_388"/>
<path d="M574.5 535.8l-1.4 -4.6l1.5 1.2l1.5 -1.2l-1.6 4.6ZM229.7 516.6l103.4 26.8" class="g2_388"/>
<path d="M336.5 544.2l-4.8 .3l1.4 -1.1l-.7 -1.8l4.1 2.6Z" class="g3_388"/>
<path d="M336.5 544.2l-4.8 .3l1.4 -1.1l-.7 -1.8l4.1 2.6Z" class="g2_388"/>
<path d="M339.7 627.7c0 -4.4 12.3 -8 27.5 -8c7.3 0 14.3 .8 19.5 2.3c5.2 1.5 8.1 3.6 8.1 5.7V692c0 4.4 -12.4 8 -27.6 8c-15.2 0 -27.5 -3.6 -27.5 -8V627.7Z" class="g0_388"/>
<path d="M339.7 627.7c0 -4.4 12.3 -8 27.5 -8c7.3 0 14.3 .8 19.5 2.3c5.2 1.5 8.1 3.6 8.1 5.7V692c0 4.4 -12.4 8 -27.6 8c-15.2 0 -27.5 -3.6 -27.5 -8V627.7Zm55.1 0c0 4.5 -12.4 8 -27.6 8c-15.2 0 -27.5 -3.5 -27.5 -8" class="g1_388"/>
<path d="M367.1 603.1v10.7" class="g2_388"/>
<path d="M367.1 617.2l-1.5 -4.6l1.5 1.2l1.5 -1.2l-1.5 4.6Z" class="g3_388"/>
<path d="M367.1 617.2l-1.5 -4.6l1.5 1.2l1.5 -1.2l-1.5 4.6ZM162.8 516.6l185.5 101" class="g2_388"/>
<path d="M351.3 619.3l-4.7 -.9l1.7 -.8l-.3 -1.9l3.3 3.6Z" class="g3_388"/>
<path d="M351.3 619.3l-4.7 -.9l1.7 -.8l-.3 -1.9l3.3 3.6Z" class="g2_388"/>
<path d="M133.5 444.4c0 -4.4 12.3 -8 27.5 -8c7.3 0 14.3 .8 19.4 2.3c5.2 1.5 8.1 3.6 8.1 5.7v64.2c0 4.4 -12.3 8 -27.5 8c-15.2 0 -27.5 -3.6 -27.5 -8V444.4Z" class="g0_388"/>
<path d="M133.5 444.4c0 -4.4 12.3 -8 27.5 -8c7.3 0 14.3 .8 19.4 2.3c5.2 1.5 8.1 3.6 8.1 5.7v64.2c0 4.4 -12.3 8 -27.5 8c-15.2 0 -27.5 -3.6 -27.5 -8V444.4Zm55 0c0 4.4 -12.3 8 -27.5 8c-15.2 0 -27.5 -3.6 -27.5 -8" class="g1_388"/>
<path d="M202.2 478.8c0 -4.5 12.3 -8.1 27.5 -8.1c7.3 0 14.3 .9 19.5 2.4c5.2 1.5 8.1 3.5 8.1 5.7v29.8c0 4.4 -12.4 8 -27.6 8c-15.2 0 -27.5 -3.6 -27.5 -8V478.8Z" class="g0_388"/>
<path d="M202.2 478.8c0 -4.5 12.3 -8.1 27.5 -8.1c7.3 0 14.3 .9 19.5 2.4c5.2 1.5 8.1 3.5 8.1 5.7v29.8c0 4.4 -12.4 8 -27.6 8c-15.2 0 -27.5 -3.6 -27.5 -8V478.8Zm55.1 0c0 4.4 -12.4 8 -27.6 8c-15.2 0 -27.5 -3.6 -27.5 -8" class="g1_388"/>
<path d="M271 478.8c0 -4.5 12.3 -8.1 27.5 -8.1c7.3 0 14.3 .9 19.4 2.4c5.2 1.5 8.1 3.5 8.1 5.7v29.8c0 4.4 -12.3 8 -27.5 8c-15.2 0 -27.5 -3.6 -27.5 -8V478.8Z" class="g0_388"/>
<path d="M271 478.8c0 -4.5 12.3 -8.1 27.5 -8.1c7.3 0 14.3 .9 19.4 2.4c5.2 1.5 8.1 3.5 8.1 5.7v29.8c0 4.4 -12.3 8 -27.5 8c-15.2 0 -27.5 -3.6 -27.5 -8V478.8Zm55 0c0 4.4 -12.3 8 -27.5 8c-15.2 0 -27.5 -3.6 -27.5 -8" class="g1_388"/>
<path d="M339.7 478.8c0 -4.5 12.3 -8.1 27.5 -8.1c7.3 0 14.3 .9 19.5 2.4c5.2 1.5 8.1 3.5 8.1 5.7v29.8c0 4.4 -12.4 8 -27.6 8c-15.2 0 -27.5 -3.6 -27.5 -8V478.8Z" class="g0_388"/>
<path d="M339.7 478.8c0 -4.5 12.3 -8.1 27.5 -8.1c7.3 0 14.3 .9 19.5 2.4c5.2 1.5 8.1 3.5 8.1 5.7v29.8c0 4.4 -12.4 8 -27.6 8c-15.2 0 -27.5 -3.6 -27.5 -8V478.8Zm55.1 0c0 4.4 -12.4 8 -27.6 8c-15.2 0 -27.5 -3.6 -27.5 -8" class="g1_388"/>
<path d="M408.5 478.8c0 -4.5 12.3 -8.1 27.5 -8.1c7.3 0 14.3 .9 19.4 2.4c5.2 1.5 8.1 3.5 8.1 5.7v29.8c0 4.4 -12.3 8 -27.5 8c-15.2 0 -27.5 -3.6 -27.5 -8V478.8Z" class="g0_388"/>
<path d="M408.5 478.8c0 -4.5 12.3 -8.1 27.5 -8.1c7.3 0 14.3 .9 19.4 2.4c5.2 1.5 8.1 3.5 8.1 5.7v29.8c0 4.4 -12.3 8 -27.5 8c-15.2 0 -27.5 -3.6 -27.5 -8V478.8Zm55 0c0 4.4 -12.3 8 -27.5 8c-15.2 0 -27.5 -3.6 -27.5 -8" class="g1_388"/>
<path d="M477.2 478.8c0 -4.5 12.3 -8.1 27.5 -8.1c7.3 0 14.3 .9 19.5 2.4c5.2 1.5 8.1 3.5 8.1 5.7v29.8c0 4.4 -12.4 8 -27.6 8c-15.2 0 -27.5 -3.6 -27.5 -8V478.8Z" class="g0_388"/>
<path d="M477.2 478.8c0 -4.5 12.3 -8.1 27.5 -8.1c7.3 0 14.3 .9 19.5 2.4c5.2 1.5 8.1 3.5 8.1 5.7v29.8c0 4.4 -12.4 8 -27.6 8c-15.2 0 -27.5 -3.6 -27.5 -8V478.8Zm55.1 0c0 4.4 -12.4 8 -27.6 8c-15.2 0 -27.5 -3.6 -27.5 -8" class="g1_388"/>
<path d="M546 478.8c0 -4.5 12.3 -8.1 27.5 -8.1c7.3 0 14.3 .9 19.4 2.4c5.2 1.5 8.1 3.5 8.1 5.7v29.8c0 4.4 -12.3 8 -27.5 8c-15.2 0 -27.5 -3.6 -27.5 -8V478.8Z" class="g0_388"/>
<path d="M546 478.8c0 -4.5 12.3 -8.1 27.5 -8.1c7.3 0 14.3 .9 19.4 2.4c5.2 1.5 8.1 3.5 8.1 5.7v29.8c0 4.4 -12.3 8 -27.5 8c-15.2 0 -27.5 -3.6 -27.5 -8V478.8Zm55 0c0 4.4 -12.3 8 -27.5 8c-15.2 0 -27.5 -3.6 -27.5 -8" class="g1_388"/>
</g>
</svg>