<?xml version="1.0" encoding="UTF-8" standalone="no"?>
<!DOCTYPE svg PUBLIC "-//W3C//DTD SVG 1.1//EN"
"http://www.w3.org/Graphics/SVG/1.1/DTD/svg11.dtd">
<svg viewBox="0 0 714 1017" version="1.1" xmlns="http://www.w3.org/2000/svg" xmlns:xlink="http://www.w3.org/1999/xlink">
<defs>
<clipPath id="c0_228"><path d="M86.6 366.5V193.8H653.8V366.5Z"/></clipPath>
<clipPath id="c1_228"><path d="M98.4 696.8V589.1H638.1V696.8Z"/></clipPath>
<clipPath id="c2_228"><path d="M86.6 366.5V192.4H654.9V366.5Z"/></clipPath>
<clipPath id="c3_228"><path d="M98.4 697.6v-110H639.3v110Z"/></clipPath>
<style type="text/css"><![CDATA[
.g0_228{
fill: #FFF;
}
.g1_228{
fill: #CCC;
}
.g2_228{
fill: none;
stroke: #000;
stroke-width: 1.145;
stroke-miterlimit: 10;
}
.g3_228{
fill: #000;
}
]]></style>
</defs>
<path d="M0 1017.7H717.2V-3.7H0V1017.7Z" class="g0_228"/>
<g clip-path="url(#c2_228)">
<path clip-path="url(#c0_228)" d="M86.6 193.8H653.8V366.9H86.6V193.8Z" class="g0_228"/>
<path d="M224.7 274.6h91.7V309H224.7V274.6Z" class="g1_228"/>
<path d="M224.7 274.6h91.7V309H224.7V274.6Z" class="g2_228"/>
<path d="M327.8 274.6h91.7V309H327.8V274.6Z" class="g1_228"/>
<path d="M327.8 274.6h91.7V309H327.8V274.6Z" class="g2_228"/>
<path d="M430.9 274.6h91.7V309H430.9V274.6Z" class="g1_228"/>
<path d="M430.9 274.6h91.7V309H430.9V274.6Z" class="g2_228"/>
<path d="M534.1 274.6h57.3V309H534.1V274.6Z" class="g1_228"/>
<path d="M534.1 274.6h91.6V309H534.1V274.6Zm51.4 -56.7h11.7v37.6h11L591.4 274L574.5 255.5h11V217.9Z" class="g2_228"/>
<path d="M545.5 228.8l22.9 -34.4h80.2l-22.9 34.4H545.5Z" class="g0_228"/>
<path d="M545.5 228.8l22.9 -34.4h80.2l-22.9 34.4H545.5ZM362 217.9h11.8v37.6h11L367.9 274L351.1 255.5H362V217.9Z" class="g2_228"/>
<path d="M322.1 228.8L345 194.4h80.2l-22.9 34.4H322.1Z" class="g0_228"/>
<path d="M322.1 228.8L345 194.4h80.2l-22.9 34.4H322.1Zm51.5 11.4h38.6" class="g2_228"/>
<path d="M418.2 240.2l-8 2.7l2 -2.7l-2 -2.6l8 2.6Z" class="g3_228"/>
<path d="M418.2 240.2l-8 2.7l2 -2.7l-2 -2.6l8 2.6Zm180 0h38.6" class="g2_228"/>
<path d="M642.8 240.2l-8 2.7l2 -2.7l-2 -2.6l8 2.6Z" class="g3_228"/>
<path d="M642.8 240.2l-8 2.7l2 -2.7l-2 -2.6l8 2.6ZM425.2 343.4c0 -7.7 16.2 -11.5 48.7 -11.5c32.5 0 48.7 -3.8 48.7 -11.5m-97.4 23c0 -7.7 -16.2 -11.5 -48.7 -11.5c-32.5 0 -48.7 -3.8 -48.7 -11.5m-148.9 23c0 -7.7 22.9 -11.5 68.7 -11.5c45.8 0 68.8 -3.8 68.8 -11.5m-137.5 23c0 -7.7 -30.6 -11.5 -91.7 -11.5" class="g2_228"/>
<path d="M121.6 274.6h91.6V309H121.6V274.6Z" class="g1_228"/>
<path d="M121.6 274.6h91.6V309H121.6V274.6Zm62.8 -56.7h11.8v37.6h11L190.3 274L173.5 255.5h10.9V217.9Z" class="g2_228"/>
<path d="M144.5 228.8l22.9 -34.4h80.2l-22.9 34.4H144.5Z" class="g0_228"/>
<path d="M144.5 228.8l22.9 -34.4h80.2l-22.9 34.4H144.5ZM196 240.2h38.6" class="g2_228"/>
<path d="M240.6 240.2l-8 2.7l2 -2.7l-2 -2.6l8 2.6Z" class="g3_228"/>
<path d="M240.6 240.2l-8 2.7l2 -2.7l-2 -2.6l8 2.6Z" class="g2_228"/>
</g>
<g clip-path="url(#c3_228)">
<path clip-path="url(#c1_228)" d="M98.4 589.1H638.1V696.8H98.4V589.1Z" class="g0_228"/>
<path d="M209 605.7h45.8v22.9H209V605.7Z" class="g1_228"/>
<path d="M209 605.7h45.8v22.9H209V605.7Z" class="g2_228"/>
<path d="M272 605.7h45.9v22.9H272V605.7Z" class="g1_228"/>
<path d="M272 605.7h45.9v22.9H272V605.7Z" class="g2_228"/>
<path d="M335 605.7h45.9v22.9H335V605.7Z" class="g1_228"/>
<path d="M335 605.7h45.9v22.9H335V605.7Z" class="g2_228"/>
<path d="M398.1 605.7h34.3v22.9H398.1V605.7Z" class="g1_228"/>
<path d="M398.1 605.7h45.8v22.9H398.1V605.7ZM327 663c0 -7.7 9.1 -11.5 27.2 -11.5c18.2 0 27.1 -3.8 26.7 -11.4M327 663c0 -7.7 -9.1 -11.5 -27.2 -11.5c-18.1 0 -27.4 -3.8 -27.8 -11.4M168.9 663c0 -7.7 14.3 -11.5 43 -11.5c28.6 0 42.9 -3.8 42.9 -11.4M168.9 663c0 -7.7 -22.9 -11.5 -68.8 -11.5" class="g2_228"/>
<path d="M146 605.7h45.8v22.9H146V605.7Z" class="g1_228"/>
<path d="M146 605.7h45.8v22.9H146V605.7Zm315.1 0h45.8v22.9H461.1V605.7Zm63 0h45.8v22.9H524.1V605.7ZM547 663c0 -7.7 -14.2 -11.5 -42.7 -11.5c-28.4 0 -42.8 -3.8 -43.2 -11.4M547 663c0 -7.7 14.4 -11.5 43.3 -11.5c28.8 0 43 -3.8 42.7 -11.4M587.1 605.7H633v22.9H587.1V605.7Z" class="g2_228"/>
</g>
</svg>