<?xml version="1.0" encoding="UTF-8" standalone="no"?>
<!DOCTYPE svg PUBLIC "-//W3C//DTD SVG 1.1//EN"
"http://www.w3.org/Graphics/SVG/1.1/DTD/svg11.dtd">
<svg viewBox="0 0 714 1017" version="1.1" xmlns="http://www.w3.org/2000/svg" xmlns:xlink="http://www.w3.org/1999/xlink">
<defs>
<clipPath id="c0_229"><path d="M65 379V211.1H636.3V379Z"/></clipPath>
<clipPath id="c1_229"><path d="M139.5 642.9V585H553.1v57.9Z"/></clipPath>
<clipPath id="c2_229"><path d="M65 379V211H636.3V379Z"/></clipPath>
<clipPath id="c3_229"><path d="M139.5 642.9V584.8h414v58.1Z"/></clipPath>
<style type="text/css"><![CDATA[
.g0_229{
fill: #FFF;
}
.g1_229{
fill: #CCC;
}
.g2_229{
fill: none;
stroke: #000;
stroke-width: 1.145;
stroke-miterlimit: 10;
}
.g3_229{
fill: #000;
}
]]></style>
</defs>
<path d="M0 1017.7H717.2V-3.7H0V1017.7Z" class="g0_229"/>
<g clip-path="url(#c2_229)">
<path clip-path="url(#c0_229)" d="M65 211.1H636.7V379.5H65V211.1Z" class="g0_229"/>
<path d="M357.7 247.2h45.9v22.9H357.7V247.2Z" class="g1_229"/>
<path d="M357.7 247.2h45.9v22.9H357.7V247.2Z" class="g2_229"/>
<path d="M426.5 247.2h45.8v22.9H426.5V247.2Z" class="g1_229"/>
<path d="M426.5 247.2h45.8v22.9H426.5V247.2Z" class="g2_229"/>
<path d="M495.2 247.2h34.4v22.9H495.2V247.2Z" class="g1_229"/>
<path d="M495.2 247.2h45.9v22.9H495.2V247.2Z" class="g2_229"/>
<path d="M289 247.2h45.8v22.9H289V247.2Z" class="g1_229"/>
<path d="M289 247.2h45.8v22.9H289V247.2Z" class="g2_229"/>
<path d="M564 247.2h45.8v22.9H564V247.2Z" class="g1_229"/>
<path d="M564 247.2h45.8v22.9H564V247.2Z" class="g2_229"/>
<path d="M191.6 230h45.8v22.9H191.6V230Z" class="g1_229"/>
<path d="M191.6 230h45.8v22.9H191.6V230Z" class="g2_229"/>
<path d="M352 252.9h45.8v22.9H352V252.9Z" class="g1_229"/>
<path d="M352 252.9h45.8v22.9H352V252.9Z" class="g2_229"/>
<path d="M420.7 252.9h45.9v22.9H420.7V252.9Z" class="g1_229"/>
<path d="M420.7 252.9h45.9v22.9H420.7V252.9Z" class="g2_229"/>
<path d="M523.9 252.9h11.4v22.9H523.9V252.9Z" class="g0_229"/>
<path d="M489.5 252.9h34.4v22.9H489.5V252.9Z" class="g1_229"/>
<path d="M489.5 252.9h45.8v22.9H489.5V252.9Zm-77.9 57.3c0 -7.6 10.2 -11.4 30.6 -11.4c20.5 0 30.5 -3.9 30.1 -11.5m-60.7 22.9c0 -7.6 -9.9 -11.4 -29.5 -11.4c-19.7 0 -29.7 -3.9 -30.1 -11.5" class="g2_229"/>
<path d="M134.3 230h45.8v22.9H134.3V230Z" class="g1_229"/>
<path d="M134.3 230h45.8v22.9H134.3V230Z" class="g2_229"/>
<path d="M283.2 252.9h45.9v22.9H283.2V252.9Z" class="g1_229"/>
<path d="M283.2 252.9h45.9v22.9H283.2V252.9Z" class="g2_229"/>
<path d="M558.2 252.9h45.9v22.9H558.2V252.9Z" class="g1_229"/>
<path d="M558.2 252.9h45.9v22.9H558.2V252.9Zm45.9 11.5h11.4c7.7 0 11.5 -3.8 11.5 -11.5V241.5C627 233.8 623.2 230 615.5 230H271.8c-7.7 0 -11.5 3.8 -11.5 11.5v11.4c0 7.7 2.6 11.5 7.8 11.5h7.8" class="g2_229"/>
<path d="M282 264.4l-8.1 2.6l2 -2.6l-2 -2.7l8.1 2.7Z" class="g3_229"/>
<path d="M282 264.4l-8.1 2.6l2 -2.6l-2 -2.7l8.1 2.7Zm47.1 0c0 0 5.2 0 15.6 0" class="g2_229"/>
<path d="M350.7 264.4l-8 2.6l2 -2.6l-2 -2.7l8 2.7Z" class="g3_229"/>
<path d="M350.7 264.4l-8 2.6l2 -2.6l-2 -2.7l8 2.7Zm47.1 0c0 0 5.2 0 15.6 0" class="g2_229"/>
<path d="M419.5 264.4l-8.1 2.6l2 -2.6l-2 -2.7l8.1 2.7Z" class="g3_229"/>
<path d="M419.5 264.4l-8.1 2.6l2 -2.6l-2 -2.7l8.1 2.7Zm115.8 0c0 0 5.2 0 15.6 0" class="g2_229"/>
<path d="M557 264.4l-8.1 2.6l2 -2.6l-2 -2.7l8.1 2.7Z" class="g3_229"/>
<path d="M557 264.4l-8.1 2.6l2 -2.6l-2 -2.7l8.1 2.7Zm-90.4 0c0 0 5.2 0 15.6 0" class="g2_229"/>
<path d="M488.2 264.4l-8 2.6l2 -2.6l-2 -2.7l8 2.7Z" class="g3_229"/>
<path d="M488.2 264.4l-8 2.6l2 -2.6l-2 -2.7l8 2.7Z" class="g2_229"/>
<path d="M134.3 264.4h45.8v22.9H134.3V264.4Z" class="g1_229"/>
<path d="M134.3 264.4h45.8v22.9H134.3V264.4Z" class="g2_229"/>
<path d="M77 264.4h45.8v22.9H77V264.4Z" class="g1_229"/>
<path d="M77 264.4h45.8v22.9H77V264.4ZM443.7 356c0 -7.6 -30 -11.4 -90 -11.4c-60 0 -89.9 -3.8 -89.9 -11.5M443.7 356c0 -7.6 30.5 -11.4 91.6 -11.4c61.1 0 91.7 -3.8 91.7 -11.5M157.2 356c0 -7.6 -13.3 -11.4 -39.8 -11.4c-26.6 0 -40 -3.8 -40.4 -11.5M157.2 356c0 -7.6 13.5 -11.4 40.4 -11.4c26.9 0 40.2 -3.8 39.8 -11.5" class="g2_229"/>
</g>
<g clip-path="url(#c3_229)">
<g clip-path="url(#c1_229)">
<path d="M139.5 585H553.1v58.4H139.5V585Z" class="g0_229"/>
<path d="M380.7 585.5H552.5v57.3H380.7V585.5Zm-240.7 0H369.2v57.3H140V585.5Z" class="g2_229"/>
</g>
<path d="M243.2 608.5H289v22.9H243.2V608.5Z" class="g1_229"/>
<path d="M250 607.9h3.5V609H250v-1.1Zm6.9 0h3.5V609h-3.5v-1.1Zm6.9 0h3.4V609h-3.4v-1.1Zm6.9 0h3.4V609h-3.4v-1.1Zm6.8 0H281V609h-3.5v-1.1Zm6.9 0h3.5V609h-3.5v-1.1Zm5.2 2.8v3.5h-1.2v-3.5h1.2Zm0 6.9v3.5h-1.2v-3.5h1.2Zm0 6.9v3.4h-1.2v-3.4h1.2Zm-.6 7.4h-3.4v-1.1H289v1.1Zm-6.9 0h-3.4v-1.1h3.4v1.1Zm-6.8 0h-3.5v-1.1h3.5v1.1Zm-6.9 0h-3.5v-1.1h3.5v1.1Zm-6.9 0h-3.4v-1.1h3.4v1.1Zm-6.9 0h-3.4v-1.1h3.4v1.1Zm-6.8 0h-3.5v-1.1h3.5v1.1Zm-5.2 -2.8v-3.5h1.1v3.5h-1.1Zm0 -6.9v-3.4h1.1v3.4h-1.1Zm0 -6.9v-3.4h1.1v3.4h-1.1Zm.6 -7.4h3.4V609h-3.4v-1.1Z" class="g3_229"/>
<path d="M311.9 608.5h45.9v22.9H311.9V608.5Z" class="g1_229"/>
<path d="M318.8 607.9h3.4V609h-3.4v-1.1Zm6.9 0h3.4V609h-3.4v-1.1Zm6.8 0H336V609h-3.5v-1.1Zm6.9 0h3.5V609h-3.5v-1.1Zm6.9 0h3.4V609h-3.4v-1.1Zm6.9 0h3.4V609h-3.4v-1.1Zm5.1 2.8v3.5h-1.1v-3.5h1.1Zm0 6.9v3.5h-1.1v-3.5h1.1Zm0 6.9v3.4h-1.1v-3.4h1.1Zm-.5 7.4h-3.5v-1.1h3.5v1.1Zm-6.9 0h-3.5v-1.1h3.5v1.1Zm-6.9 0h-3.4v-1.1H344v1.1Zm-6.9 0h-3.4v-1.1h3.4v1.1Zm-6.8 0h-3.5v-1.1h3.5v1.1Zm-6.9 0h-3.5v-1.1h3.5v1.1Zm-6.9 0h-3.4v-1.1h3.4v1.1Zm-5.2 -2.8v-3.5h1.2v3.5h-1.2Zm0 -6.9v-3.4h1.2v3.4h-1.2Zm0 -6.9v-3.4h1.2v3.4h-1.2Zm.6 -7.4h3.5V609h-3.5v-1.1Z" class="g3_229"/>
<path d="M438 608.5h11.4v22.9H438V608.5Z" class="g0_229"/>
<path d="M403.6 608.5H438v22.9H403.6V608.5Z" class="g1_229"/>
<path d="M410.5 607.9h3.4V609h-3.4v-1.1Zm6.8 0h3.5V609h-3.5v-1.1Zm6.9 0h3.5V609h-3.5v-1.1Zm6.9 0h3.4V609h-3.4v-1.1Zm6.9 0h3.4V609H438v-1.1Zm6.8 0h3.5V609h-3.5v-1.1Zm5.2 2.8v3.5h-1.2v-3.5H450Zm0 6.9v3.5h-1.2v-3.5H450Zm0 6.9v3.4h-1.2v-3.4H450Zm-.6 7.4H446v-1.1h3.4v1.1Zm-6.9 0h-3.4v-1.1h3.4v1.1Zm-6.8 0h-3.5v-1.1h3.5v1.1Zm-6.9 0h-3.4v-1.1h3.4v1.1Zm-6.9 0h-3.4v-1.1h3.4v1.1Zm-6.9 0h-3.4v-1.1H415v1.1Zm-6.8 0h-3.5v-1.1h3.5v1.1ZM403 629.1v-3.5h1.2v3.5H403Zm0 -6.9v-3.4h1.2v3.4H403Zm0 -6.9v-3.4h1.2v3.4H403Zm.6 -7.4H407V609h-3.4v-1.1Z" class="g3_229"/>
<path d="M174.4 608.5h45.9v22.9H174.4V608.5Z" class="g1_229"/>
<path d="M181.3 607.9h3.4V609h-3.4v-1.1Zm6.9 0h3.4V609h-3.4v-1.1Zm6.8 0h3.5V609H195v-1.1Zm6.9 0h3.5V609h-3.5v-1.1Zm6.9 0h3.4V609h-3.4v-1.1Zm6.9 0h3.4V609h-3.4v-1.1Zm5.1 2.8v3.5h-1.1v-3.5h1.1Zm0 6.9v3.5h-1.1v-3.5h1.1Zm0 6.9v3.4h-1.1v-3.4h1.1Zm-.5 7.4h-3.5v-1.1h3.5v1.1Zm-6.9 0h-3.5v-1.1h3.5v1.1Zm-6.9 0h-3.4v-1.1h3.4v1.1Zm-6.9 0h-3.4v-1.1h3.4v1.1Zm-6.8 0h-3.5v-1.1h3.5v1.1Zm-6.9 0h-3.5v-1.1h3.5v1.1Zm-6.9 0h-3.4v-1.1H179v1.1Zm-5.2 -2.8v-3.5H175v3.5h-1.2Zm0 -6.9v-3.4H175v3.4h-1.2Zm0 -6.9v-3.4H175v3.4h-1.2Zm.6 -7.4h3.5V609h-3.5v-1.1Z" class="g3_229"/>
<path d="M472.3 608.5h45.9v22.9H472.3V608.5Z" class="g1_229"/>
<path d="M479.2 607.9h3.5V609h-3.5v-1.1Zm6.9 0h3.4V609h-3.4v-1.1Zm6.9 0h3.4V609H493v-1.1Zm6.8 0h3.5V609h-3.5v-1.1Zm6.9 0h3.5V609h-3.5v-1.1Zm6.9 0H517V609h-3.4v-1.1Zm5.1 2.8v3.5h-1.1v-3.5h1.1Zm0 6.9v3.5h-1.1v-3.5h1.1Zm0 6.9v3.4h-1.1v-3.4h1.1Zm-.5 7.4h-3.5v-1.1h3.5v1.1Zm-6.9 0h-3.4v-1.1h3.4v1.1Zm-6.9 0H501v-1.1h3.4v1.1Zm-6.9 0h-3.4v-1.1h3.4v1.1Zm-6.8 0h-3.5v-1.1h3.5v1.1Zm-6.9 0h-3.4v-1.1h3.4v1.1Zm-6.9 0h-3.4v-1.1h3.4v1.1Zm-5.1 -2.8v-3.5h1.1v3.5h-1.1Zm0 -6.9v-3.4h1.1v3.4h-1.1Zm0 -6.9v-3.4h1.1v3.4h-1.1Zm.5 -7.4h3.5V609h-3.5v-1.1Z" class="g3_229"/>
<path d="M518.2 619.9h11.4c7.7 0 11.5 -3.8 11.5 -11.4v-5.8c0 -3.8 -3.8 -5.7 -11.5 -5.7H163c-7.7 0 -11.5 3.8 -11.5 11.5v5.7c0 3.8 2.6 5.7 7.8 5.7h7.8" class="g2_229"/>
<path d="M173.1 619.9l-8 2.7l2 -2.7l-2 -2.7l8 2.7Z" class="g3_229"/>
<path d="M173.1 619.9l-8 2.7l2 -2.7l-2 -2.7l8 2.7Zm47.2 0c0 0 5.2 0 15.6 0" class="g2_229"/>
<path d="M241.9 619.9l-8 2.7l2 -2.7l-2 -2.7l8 2.7Z" class="g3_229"/>
<path d="M241.9 619.9l-8 2.7l2 -2.7l-2 -2.7l8 2.7Zm47.1 0c0 0 5.2 0 15.6 0" class="g2_229"/>
<path d="M310.6 619.9l-8 2.7l2 -2.7l-2 -2.7l8 2.7Z" class="g3_229"/>
<path d="M310.6 619.9l-8 2.7l2 -2.7l-2 -2.7l8 2.7Zm138.8 0c0 0 5.2 0 15.6 0" class="g2_229"/>
<path d="M471.1 619.9l-8.1 2.7l2 -2.7l-2 -2.7l8.1 2.7Z" class="g3_229"/>
<path d="M471.1 619.9l-8.1 2.7l2 -2.7l-2 -2.7l8.1 2.7Zm-113.3 0c0 0 12.8 0 38.5 0" class="g2_229"/>
<path d="M402.3 619.9l-8 2.7l2 -2.7l-2 -2.7l8 2.7Z" class="g3_229"/>
<path d="M402.3 619.9l-8 2.7l2 -2.7l-2 -2.7l8 2.7Z" class="g2_229"/>
</g>
</svg>