<?xml version="1.0" encoding="UTF-8" standalone="no"?>
<!DOCTYPE svg PUBLIC "-//W3C//DTD SVG 1.1//EN"
"http://www.w3.org/Graphics/SVG/1.1/DTD/svg11.dtd">
<svg viewBox="0 0 714 1017" version="1.1" xmlns="http://www.w3.org/2000/svg" xmlns:xlink="http://www.w3.org/1999/xlink">
<defs>
<clipPath id="c0_417"><path d="M249.4 366.9V280H479.7v86.9Z"/></clipPath>
<clipPath id="c1_417"><path d="M249.4 654.4V566.2H479.7v88.2Z"/></clipPath>
<clipPath id="c2_417"><path d="M249.4 366.9V279.8H480.1v87.1Z"/></clipPath>
<clipPath id="c3_417"><path d="M249.4 654.9V564.8H480.1v90.1Z"/></clipPath>
<style type="text/css"><![CDATA[
.g0_417{
fill: #FFF;
}
.g1_417{
fill: none;
stroke: #000;
stroke-width: 1.145;
stroke-miterlimit: 10;
}
]]></style>
</defs>
<path d="M0 1017.7H717.2V-3.7H0V1017.7Z" class="g0_417"/>
<g clip-path="url(#c2_417)">
<path clip-path="url(#c0_417)" d="M249.4 280H479.7v87.1H249.4V280Z" class="g0_417"/>
<path d="M250 340.1c0 -4.8 20.5 -8.7 45.8 -8.7c12.2 0 23.8 .9 32.4 2.5c8.6 1.7 13.4 3.9 13.4 6.2v17.3c0 4.8 -20.5 8.7 -45.8 8.7c-25.3 0 -45.8 -3.9 -45.8 -8.7V340.1Z" class="g0_417"/>
<path d="M250 340.1c0 -4.8 20.5 -8.7 45.8 -8.7c12.2 0 23.8 .9 32.4 2.5c8.6 1.7 13.4 3.9 13.4 6.2v17.3c0 4.8 -20.5 8.7 -45.8 8.7c-25.3 0 -45.8 -3.9 -45.8 -8.7V340.1Zm91.6 0c0 4.8 -20.5 8.7 -45.8 8.7c-25.3 0 -45.8 -3.9 -45.8 -8.7" class="g1_417"/>
<path d="M250 323.7c0 -4.8 20.5 -8.7 45.8 -8.7c12.2 0 23.8 .9 32.4 2.5c8.6 1.7 13.4 3.9 13.4 6.2V341c0 4.8 -20.5 8.7 -45.8 8.7C270.5 349.7 250 345.8 250 341V323.7Z" class="g0_417"/>
<path d="M250 323.7c0 -4.8 20.5 -8.7 45.8 -8.7c12.2 0 23.8 .9 32.4 2.5c8.6 1.7 13.4 3.9 13.4 6.2V341c0 4.8 -20.5 8.7 -45.8 8.7C270.5 349.7 250 345.8 250 341V323.7Zm91.6 0c0 4.8 -20.5 8.7 -45.8 8.7c-25.3 0 -45.8 -3.9 -45.8 -8.7" class="g1_417"/>
<path d="M250 306.5c0 -4.8 20.5 -8.7 45.8 -8.7c12.2 0 23.8 .9 32.4 2.5c8.6 1.7 13.4 3.9 13.4 6.2v17.3c0 4.8 -20.5 8.7 -45.8 8.7c-25.3 0 -45.8 -3.9 -45.8 -8.7V306.5Z" class="g0_417"/>
<path d="M250 306.5c0 -4.8 20.5 -8.7 45.8 -8.7c12.2 0 23.8 .9 32.4 2.5c8.6 1.7 13.4 3.9 13.4 6.2v17.3c0 4.8 -20.5 8.7 -45.8 8.7c-25.3 0 -45.8 -3.9 -45.8 -8.7V306.5Zm91.6 0c0 4.8 -20.5 8.7 -45.8 8.7c-25.3 0 -45.8 -3.9 -45.8 -8.7" class="g1_417"/>
<path d="M250 289.3c0 -4.8 20.5 -8.7 45.8 -8.7c12.2 0 23.8 .9 32.4 2.6c8.6 1.6 13.4 3.8 13.4 6.1v17.3c0 4.8 -20.5 8.7 -45.8 8.7c-25.3 0 -45.8 -3.9 -45.8 -8.7V289.3Z" class="g0_417"/>
<path d="M250 289.3c0 -4.8 20.5 -8.7 45.8 -8.7c12.2 0 23.8 .9 32.4 2.6c8.6 1.6 13.4 3.8 13.4 6.1v17.3c0 4.8 -20.5 8.7 -45.8 8.7c-25.3 0 -45.8 -3.9 -45.8 -8.7V289.3Zm91.6 0c0 4.9 -20.5 8.8 -45.8 8.8c-25.3 0 -45.8 -3.9 -45.8 -8.8" class="g1_417"/>
<path d="M387.5 340.1c0 -4.8 20.5 -8.7 45.8 -8.7c12.2 0 23.8 .9 32.4 2.5c8.6 1.7 13.4 3.9 13.4 6.2v17.3c0 4.8 -20.5 8.7 -45.8 8.7c-25.3 0 -45.8 -3.9 -45.8 -8.7V340.1Z" class="g0_417"/>
<path d="M387.5 340.1c0 -4.8 20.5 -8.7 45.8 -8.7c12.2 0 23.8 .9 32.4 2.5c8.6 1.7 13.4 3.9 13.4 6.2v17.3c0 4.8 -20.5 8.7 -45.8 8.7c-25.3 0 -45.8 -3.9 -45.8 -8.7V340.1Zm91.6 0c0 4.8 -20.5 8.7 -45.8 8.7c-25.3 0 -45.8 -3.9 -45.8 -8.7" class="g1_417"/>
<path d="M387.5 323.7c0 -4.8 20.5 -8.7 45.8 -8.7c12.2 0 23.8 .9 32.4 2.5c8.6 1.7 13.4 3.9 13.4 6.2V341c0 4.8 -20.5 8.7 -45.8 8.7c-25.3 0 -45.8 -3.9 -45.8 -8.7V323.7Z" class="g0_417"/>
<path d="M387.5 323.7c0 -4.8 20.5 -8.7 45.8 -8.7c12.2 0 23.8 .9 32.4 2.5c8.6 1.7 13.4 3.9 13.4 6.2V341c0 4.8 -20.5 8.7 -45.8 8.7c-25.3 0 -45.8 -3.9 -45.8 -8.7V323.7Zm91.6 0c0 4.8 -20.5 8.7 -45.8 8.7c-25.3 0 -45.8 -3.9 -45.8 -8.7" class="g1_417"/>
<path d="M387.5 306.5c0 -4.8 20.5 -8.7 45.8 -8.7c12.2 0 23.8 .9 32.4 2.5c8.6 1.7 13.4 3.9 13.4 6.2v17.3c0 4.8 -20.5 8.7 -45.8 8.7c-25.3 0 -45.8 -3.9 -45.8 -8.7V306.5Z" class="g0_417"/>
<path d="M387.5 306.5c0 -4.8 20.5 -8.7 45.8 -8.7c12.2 0 23.8 .9 32.4 2.5c8.6 1.7 13.4 3.9 13.4 6.2v17.3c0 4.8 -20.5 8.7 -45.8 8.7c-25.3 0 -45.8 -3.9 -45.8 -8.7V306.5Zm91.6 0c0 4.8 -20.5 8.7 -45.8 8.7c-25.3 0 -45.8 -3.9 -45.8 -8.7" class="g1_417"/>
<path d="M387.5 289.3c0 -4.8 20.5 -8.7 45.8 -8.7c12.2 0 23.8 .9 32.4 2.6c8.6 1.6 13.4 3.8 13.4 6.1v17.3c0 4.8 -20.5 8.7 -45.8 8.7c-25.3 0 -45.8 -3.9 -45.8 -8.7V289.3Z" class="g0_417"/>
<path d="M387.5 289.3c0 -4.8 20.5 -8.7 45.8 -8.7c12.2 0 23.8 .9 32.4 2.6c8.6 1.6 13.4 3.8 13.4 6.1v17.3c0 4.8 -20.5 8.7 -45.8 8.7c-25.3 0 -45.8 -3.9 -45.8 -8.7V289.3Zm91.6 0c0 4.9 -20.5 8.8 -45.8 8.8c-25.3 0 -45.8 -3.9 -45.8 -8.8" class="g1_417"/>
</g>
<g clip-path="url(#c3_417)">
<path clip-path="url(#c1_417)" d="M249.4 566.2H479.7v88.2H249.4V566.2Z" class="g0_417"/>
<path d="M250 626.6c0 -4.8 20.5 -8.7 45.8 -8.7c12.2 0 23.8 .9 32.4 2.6c8.6 1.6 13.4 3.8 13.4 6.1v17.3c0 4.8 -20.5 8.7 -45.8 8.7c-25.3 0 -45.8 -3.9 -45.8 -8.7V626.6Z" class="g0_417"/>
<path d="M250 626.6c0 -4.8 20.5 -8.7 45.8 -8.7c12.2 0 23.8 .9 32.4 2.6c8.6 1.6 13.4 3.8 13.4 6.1v17.3c0 4.8 -20.5 8.7 -45.8 8.7c-25.3 0 -45.8 -3.9 -45.8 -8.7V626.6Zm91.6 0c0 4.9 -20.5 8.8 -45.8 8.8c-25.3 0 -45.8 -3.9 -45.8 -8.8" class="g1_417"/>
<path d="M250 609.9c0 -4.9 20.5 -8.8 45.8 -8.8c12.2 0 23.8 .9 32.4 2.6c8.6 1.6 13.4 3.8 13.4 6.2v17.2c0 4.9 -20.5 8.8 -45.8 8.8C270.5 635.9 250 632 250 627.1V609.9Z" class="g0_417"/>
<path d="M250 609.9c0 -4.9 20.5 -8.8 45.8 -8.8c12.2 0 23.8 .9 32.4 2.6c8.6 1.6 13.4 3.8 13.4 6.2v17.2c0 4.9 -20.5 8.8 -45.8 8.8C270.5 635.9 250 632 250 627.1V609.9Zm91.6 0c0 4.8 -20.5 8.7 -45.8 8.7c-25.3 0 -45.8 -3.9 -45.8 -8.7" class="g1_417"/>
<path d="M250 592.7c0 -4.8 20.5 -8.8 45.8 -8.8c12.2 0 23.8 1 32.4 2.6c8.6 1.6 13.4 3.9 13.4 6.2V610c0 4.8 -20.5 8.7 -45.8 8.7C270.5 618.7 250 614.8 250 610V592.7Z" class="g0_417"/>
<path d="M250 592.7c0 -4.8 20.5 -8.8 45.8 -8.8c12.2 0 23.8 1 32.4 2.6c8.6 1.6 13.4 3.9 13.4 6.2V610c0 4.8 -20.5 8.7 -45.8 8.7C270.5 618.7 250 614.8 250 610V592.7Zm91.6 0c0 4.8 -20.5 8.7 -45.8 8.7c-25.3 0 -45.8 -3.9 -45.8 -8.7" class="g1_417"/>
<path d="M250 575.5c0 -4.8 20.5 -8.7 45.8 -8.7c12.2 0 23.8 .9 32.4 2.5c8.6 1.7 13.4 3.9 13.4 6.2v17.3c0 4.8 -20.5 8.7 -45.8 8.7c-25.3 0 -45.8 -3.9 -45.8 -8.7V575.5Z" class="g0_417"/>
<path d="M250 575.5c0 -4.8 20.5 -8.7 45.8 -8.7c12.2 0 23.8 .9 32.4 2.5c8.6 1.7 13.4 3.9 13.4 6.2v17.3c0 4.8 -20.5 8.7 -45.8 8.7c-25.3 0 -45.8 -3.9 -45.8 -8.7V575.5Zm91.6 0c0 4.8 -20.5 8.7 -45.8 8.7c-25.3 0 -45.8 -3.9 -45.8 -8.7" class="g1_417"/>
<path d="M387.5 626.6c0 -4.8 20.5 -8.7 45.8 -8.7c12.2 0 23.8 .9 32.4 2.6c8.6 1.6 13.4 3.8 13.4 6.1v17.3c0 4.8 -20.5 8.7 -45.8 8.7c-25.3 0 -45.8 -3.9 -45.8 -8.7V626.6Z" class="g0_417"/>
<path d="M387.5 626.6c0 -4.8 20.5 -8.7 45.8 -8.7c12.2 0 23.8 .9 32.4 2.6c8.6 1.6 13.4 3.8 13.4 6.1v17.3c0 4.8 -20.5 8.7 -45.8 8.7c-25.3 0 -45.8 -3.9 -45.8 -8.7V626.6Zm91.6 0c0 4.9 -20.5 8.8 -45.8 8.8c-25.3 0 -45.8 -3.9 -45.8 -8.8" class="g1_417"/>
<path d="M387.5 609.9c0 -4.9 20.5 -8.8 45.8 -8.8c12.2 0 23.8 .9 32.4 2.6c8.6 1.6 13.4 3.8 13.4 6.2v17.2c0 4.9 -20.5 8.8 -45.8 8.8c-25.3 0 -45.8 -3.9 -45.8 -8.8V609.9Z" class="g0_417"/>
<path d="M387.5 609.9c0 -4.9 20.5 -8.8 45.8 -8.8c12.2 0 23.8 .9 32.4 2.6c8.6 1.6 13.4 3.8 13.4 6.2v17.2c0 4.9 -20.5 8.8 -45.8 8.8c-25.3 0 -45.8 -3.9 -45.8 -8.8V609.9Zm91.6 0c0 4.8 -20.5 8.7 -45.8 8.7c-25.3 0 -45.8 -3.9 -45.8 -8.7" class="g1_417"/>
<path d="M387.5 592.7c0 -4.8 20.5 -8.8 45.8 -8.8c12.2 0 23.8 1 32.4 2.6c8.6 1.6 13.4 3.9 13.4 6.2V610c0 4.8 -20.5 8.7 -45.8 8.7c-25.3 0 -45.8 -3.9 -45.8 -8.7V592.7Z" class="g0_417"/>
<path d="M387.5 592.7c0 -4.8 20.5 -8.8 45.8 -8.8c12.2 0 23.8 1 32.4 2.6c8.6 1.6 13.4 3.9 13.4 6.2V610c0 4.8 -20.5 8.7 -45.8 8.7c-25.3 0 -45.8 -3.9 -45.8 -8.7V592.7Zm91.6 0c0 4.8 -20.5 8.7 -45.8 8.7c-25.3 0 -45.8 -3.9 -45.8 -8.7" class="g1_417"/>
<path d="M387.5 575.5c0 -4.8 20.5 -8.7 45.8 -8.7c12.2 0 23.8 .9 32.4 2.5c8.6 1.7 13.4 3.9 13.4 6.2v17.3c0 4.8 -20.5 8.7 -45.8 8.7c-25.3 0 -45.8 -3.9 -45.8 -8.7V575.5Z" class="g0_417"/>
<path d="M387.5 575.5c0 -4.8 20.5 -8.7 45.8 -8.7c12.2 0 23.8 .9 32.4 2.5c8.6 1.7 13.4 3.9 13.4 6.2v17.3c0 4.8 -20.5 8.7 -45.8 8.7c-25.3 0 -45.8 -3.9 -45.8 -8.7V575.5Zm91.6 0c0 4.8 -20.5 8.7 -45.8 8.7c-25.3 0 -45.8 -3.9 -45.8 -8.7" class="g1_417"/>
</g>
</svg>