<?xml version="1.0" encoding="UTF-8" standalone="no"?>
<!DOCTYPE svg PUBLIC "-//W3C//DTD SVG 1.1//EN"
"http://www.w3.org/Graphics/SVG/1.1/DTD/svg11.dtd">
<svg viewBox="0 0 714 1017" version="1.1" xmlns="http://www.w3.org/2000/svg" xmlns:xlink="http://www.w3.org/1999/xlink">
<defs>
<clipPath id="c0_349"><path d="M177.6 826.4V687.8h338V826.4Z"/></clipPath>
<clipPath id="c1_349"><path d="M177.6 826.8V687.7H516.8V826.8Z"/></clipPath>
<style type="text/css"><![CDATA[
.g0_349{
fill: #FFF;
}
.g1_349{
fill: none;
stroke: #000;
stroke-width: 1.145;
stroke-miterlimit: 10;
}
.g2_349{
fill: #000;
}
]]></style>
</defs>
<path d="M0 1017.7H717.2V-3.7H0V1017.7Z" class="g0_349"/>
<g clip-path="url(#c1_349)">
<path clip-path="url(#c0_349)" d="M177.6 687.8h338V826.4h-338V687.8Z" class="g0_349"/>
<path d="M307.1 688.4h81.3c.7 0 1.4 .1 2 .4c.6 .2 1.2 .6 1.7 1.1c.5 .5 .8 1 1.1 1.7c.3 .6 .4 1.2 .4 1.9v24.1c0 .7 -.1 1.3 -.4 2c-.3 .6 -.6 1.2 -1.1 1.6c-.5 .5 -1.1 .9 -1.7 1.2c-.6 .2 -1.3 .4 -2 .4H307.1c-.7 0 -1.4 -.2 -2 -.4c-.6 -.3 -1.2 -.7 -1.7 -1.2c-.4 -.4 -.8 -1 -1.1 -1.6c-.2 -.7 -.4 -1.3 -.4 -2V693.5c0 -.7 .2 -1.3 .4 -1.9c.3 -.7 .7 -1.2 1.1 -1.7c.5 -.5 1.1 -.9 1.7 -1.1c.6 -.3 1.3 -.4 2 -.4Z" class="g0_349"/>
<path d="M307.1 688.4h81.3c.7 0 1.4 .1 2 .4c.6 .2 1.2 .6 1.7 1.1c.5 .5 .8 1 1.1 1.7c.3 .6 .4 1.2 .4 1.9v24.1c0 .7 -.1 1.3 -.4 2c-.3 .6 -.6 1.2 -1.1 1.6c-.5 .5 -1.1 .9 -1.7 1.2c-.6 .2 -1.3 .4 -2 .4H307.1c-.7 0 -1.4 -.2 -2 -.4c-.6 -.3 -1.2 -.7 -1.7 -1.2c-.4 -.4 -.8 -1 -1.1 -1.6c-.2 -.7 -.4 -1.3 -.4 -2V693.5c0 -.7 .2 -1.3 .4 -1.9c.3 -.7 .7 -1.2 1.1 -1.7c.5 -.5 1.1 -.9 1.7 -1.1c.6 -.3 1.3 -.4 2 -.4Z" class="g1_349"/>
<path d="M183.3 764h81.4c.7 0 1.3 .1 2 .4c.6 .3 1.2 .6 1.6 1.1c.5 .5 .9 1.1 1.2 1.7c.2 .6 .3 1.3 .3 2v24c0 .7 -.1 1.4 -.3 2c-.3 .6 -.7 1.2 -1.2 1.7c-.4 .5 -1 .8 -1.6 1.1c-.7 .2 -1.3 .4 -2 .4H183.3c-.6 0 -1.3 -.2 -1.9 -.4c-.7 -.3 -1.2 -.6 -1.7 -1.1c-.5 -.5 -.9 -1.1 -1.1 -1.7c-.3 -.6 -.4 -1.3 -.4 -2v-24c0 -.7 .1 -1.4 .4 -2c.2 -.6 .6 -1.2 1.1 -1.7c.5 -.5 1 -.8 1.7 -1.1c.6 -.3 1.3 -.4 1.9 -.4Z" class="g0_349"/>
<path d="M183.3 764h81.4c.7 0 1.3 .1 2 .4c.6 .3 1.2 .6 1.6 1.1c.5 .5 .9 1.1 1.2 1.7c.2 .6 .3 1.3 .3 2v24c0 .7 -.1 1.4 -.3 2c-.3 .6 -.7 1.2 -1.2 1.7c-.4 .5 -1 .8 -1.6 1.1c-.7 .2 -1.3 .4 -2 .4H183.3c-.6 0 -1.3 -.2 -1.9 -.4c-.7 -.3 -1.2 -.6 -1.7 -1.1c-.5 -.5 -.9 -1.1 -1.1 -1.7c-.3 -.6 -.4 -1.3 -.4 -2v-24c0 -.7 .1 -1.4 .4 -2c.2 -.6 .6 -1.2 1.1 -1.7c.5 -.5 1 -.8 1.7 -1.1c.6 -.3 1.3 -.4 1.9 -.4ZM324.8 722.8c0 13.7 -12.9 20.6 -38.9 20.6c-26 0 -39 4.4 -39 13.3" class="g1_349"/>
<path d="M246.9 762.7l-2.6 -8l2.6 2l2.7 -2l-2.7 8Z" class="g2_349"/>
<path d="M246.9 762.7l-2.6 -8l2.6 2l2.7 -2l-2.7 8Z" class="g1_349"/>
<path d="M307.1 764h81.3c.7 0 1.4 .1 2 .4c.6 .3 1.2 .6 1.7 1.1c.5 .5 .8 1.1 1.1 1.7c.3 .6 .4 1.3 .4 2v24c0 .7 -.1 1.4 -.4 2c-.3 .6 -.6 1.2 -1.1 1.7c-.5 .5 -1.1 .8 -1.7 1.1c-.6 .2 -1.3 .4 -2 .4H307.1c-.7 0 -1.4 -.2 -2 -.4c-.6 -.3 -1.2 -.6 -1.7 -1.1c-.4 -.5 -.8 -1.1 -1.1 -1.7c-.2 -.6 -.4 -1.3 -.4 -2v-24c0 -.7 .2 -1.4 .4 -2c.3 -.6 .7 -1.2 1.1 -1.7c.5 -.5 1.1 -.8 1.7 -1.1c.6 -.3 1.3 -.4 2 -.4Z" class="g0_349"/>
<path d="M307.1 764h81.3c.7 0 1.4 .1 2 .4c.6 .3 1.2 .6 1.7 1.1c.5 .5 .8 1.1 1.1 1.7c.3 .6 .4 1.3 .4 2v24c0 .7 -.1 1.4 -.4 2c-.3 .6 -.6 1.2 -1.1 1.7c-.5 .5 -1.1 .8 -1.7 1.1c-.6 .2 -1.3 .4 -2 .4H307.1c-.7 0 -1.4 -.2 -2 -.4c-.6 -.3 -1.2 -.6 -1.7 -1.1c-.4 -.5 -.8 -1.1 -1.1 -1.7c-.2 -.6 -.4 -1.3 -.4 -2v-24c0 -.7 .2 -1.4 .4 -2c.3 -.6 .7 -1.2 1.1 -1.7c.5 -.5 1.1 -.8 1.7 -1.1c.6 -.3 1.3 -.4 2 -.4Z" class="g1_349"/>
<path d="M428.5 764h81.4c.7 0 1.3 .1 2 .4c.6 .3 1.2 .6 1.6 1.1c.5 .5 .9 1.1 1.2 1.7c.2 .6 .4 1.3 .4 2v24c0 .7 -.2 1.4 -.4 2c-.3 .6 -.7 1.2 -1.2 1.7c-.4 .5 -1 .8 -1.6 1.1c-.7 .2 -1.3 .4 -2 .4H428.5c-.6 0 -1.3 -.2 -1.9 -.4c-.7 -.3 -1.2 -.6 -1.7 -1.1c-.5 -.5 -.9 -1.1 -1.1 -1.7c-.3 -.6 -.4 -1.3 -.4 -2v-24c0 -.7 .1 -1.4 .4 -2c.2 -.6 .6 -1.2 1.1 -1.7c.5 -.5 1 -.8 1.7 -1.1c.6 -.3 1.3 -.4 1.9 -.4Z" class="g0_349"/>
<path d="M428.5 764h81.4c.7 0 1.3 .1 2 .4c.6 .3 1.2 .6 1.6 1.1c.5 .5 .9 1.1 1.2 1.7c.2 .6 .4 1.3 .4 2v24c0 .7 -.2 1.4 -.4 2c-.3 .6 -.7 1.2 -1.2 1.7c-.4 .5 -1 .8 -1.6 1.1c-.7 .2 -1.3 .4 -2 .4H428.5c-.6 0 -1.3 -.2 -1.9 -.4c-.7 -.3 -1.2 -.6 -1.7 -1.1c-.5 -.5 -.9 -1.1 -1.1 -1.7c-.3 -.6 -.4 -1.3 -.4 -2v-24c0 -.7 .1 -1.4 .4 -2c.2 -.6 .6 -1.2 1.1 -1.7c.5 -.5 1 -.8 1.7 -1.1c.6 -.3 1.3 -.4 1.9 -.4ZM347.8 722.8v33.9" class="g1_349"/>
<path d="M347.8 762.7l-2.7 -8l2.7 2l2.6 -2l-2.6 8Z" class="g2_349"/>
<path d="M347.8 762.7l-2.7 -8l2.7 2l2.6 -2l-2.6 8Zm22.9 -39.9c0 13.7 12.6 20.6 37.8 20.6c25.2 0 37.8 4.4 37.8 13.3" class="g1_349"/>
<path d="M446.3 762.7l-2.7 -8l2.7 2l2.7 -2l-2.7 8Z" class="g2_349"/>
<path d="M446.3 762.7l-2.7 -8l2.7 2l2.7 -2l-2.7 8Z" class="g1_349"/>
<path d="M267.6 777.8c0 .7 -.1 1.4 -.3 2.2c-.1 .7 -.3 1.4 -.6 2.1c-.3 .7 -.7 1.4 -1.1 2c-.4 .6 -.9 1.2 -1.4 1.8c-.5 .5 -1.1 1 -1.7 1.4c-.7 .4 -1.3 .8 -2 1c-.7 .3 -1.4 .5 -2.2 .7c-.7 .1 -1.5 .2 -2.2 .2c-.8 0 -1.5 -.1 -2.2 -.2c-.8 -.2 -1.5 -.4 -2.2 -.7c-.7 -.2 -1.3 -.6 -2 -1c-.6 -.4 -1.2 -.9 -1.7 -1.4c-.5 -.6 -1 -1.2 -1.4 -1.8c-.4 -.6 -.8 -1.3 -1.1 -2c-.3 -.7 -.5 -1.4 -.6 -2.1c-.2 -.8 -.3 -1.5 -.3 -2.2c0 -.8 .1 -1.5 .3 -2.3c.1 -.7 .3 -1.4 .6 -2.1c.3 -.7 .7 -1.4 1.1 -2c.4 -.6 .9 -1.2 1.4 -1.8c.5 -.5 1.1 -1 1.7 -1.4c.7 -.4 1.3 -.7 2 -1c.7 -.3 1.4 -.5 2.2 -.7c.7 -.1 1.4 -.2 2.2 -.2c.7 0 1.5 .1 2.2 .2c.8 .2 1.5 .4 2.2 .7c.7 .3 1.3 .6 2 1c.6 .4 1.2 .9 1.7 1.4c.5 .6 1 1.2 1.4 1.8c.4 .6 .8 1.3 1.1 2c.3 .7 .5 1.4 .6 2.1c.2 .8 .3 1.5 .3 2.3Z" class="g2_349"/>
<path d="M267.6 777.8c0 .7 -.1 1.4 -.3 2.2c-.1 .7 -.3 1.4 -.6 2.1c-.3 .7 -.7 1.4 -1.1 2c-.4 .6 -.9 1.2 -1.4 1.8c-.5 .5 -1.1 1 -1.7 1.4c-.7 .4 -1.3 .8 -2 1c-.7 .3 -1.4 .5 -2.2 .7c-.7 .1 -1.5 .2 -2.2 .2c-.8 0 -1.5 -.1 -2.2 -.2c-.8 -.2 -1.5 -.4 -2.2 -.7c-.7 -.2 -1.3 -.6 -2 -1c-.6 -.4 -1.2 -.9 -1.7 -1.4c-.5 -.6 -1 -1.2 -1.4 -1.8c-.4 -.6 -.8 -1.3 -1.1 -2c-.3 -.7 -.5 -1.4 -.6 -2.1c-.2 -.8 -.3 -1.5 -.3 -2.2c0 -.8 .1 -1.5 .3 -2.3c.1 -.7 .3 -1.4 .6 -2.1c.3 -.7 .7 -1.4 1.1 -2c.4 -.6 .9 -1.2 1.4 -1.8c.5 -.5 1.1 -1 1.7 -1.4c.7 -.4 1.3 -.7 2 -1c.7 -.3 1.4 -.5 2.2 -.7c.7 -.1 1.4 -.2 2.2 -.2c.7 0 1.5 .1 2.2 .2c.8 .2 1.5 .4 2.2 .7c.7 .3 1.3 .6 2 1c.6 .4 1.2 .9 1.7 1.4c.5 .6 1 1.2 1.4 1.8c.4 .6 .8 1.3 1.1 2c.3 .7 .5 1.4 .6 2.1c.2 .8 .3 1.5 .3 2.3Z" class="g1_349"/>
<path d="M325.4 803.1c0 1.3 -.3 2.5 -1 3.6l-1 -.7c.6 -.9 .9 -1.8 .9 -2.9h1.1Zm-3.5 6.1c-.9 .6 -2 1.2 -3.2 1.7l-.4 -1c1.1 -.5 2.1 -1.1 2.9 -1.6l.7 .9Zm-6.6 2.9c-1 .3 -2 .6 -3.2 .8l-.3 -1.1c1.2 -.2 2.2 -.5 3.2 -.8l.3 1.1Zm-6.7 1.5c-1 .1 -2.2 .3 -3.4 .4l-.1 -1.1c1.2 -.1 2.3 -.3 3.3 -.5l.2 1.2Zm-6.8 .8c-1.1 .1 -2.3 .2 -3.4 .2l-.1 -1.1c1.2 -.1 2.3 -.2 3.4 -.2l.1 1.1Zm-7 .4c-1.1 .1 -2.2 .1 -3.3 .1v-1.1c1.1 0 2.2 -.1 3.3 -.1v1.1ZM288 815h-3.6v-1.2H288V815Zm-7.1 -.1c-1.2 0 -2.3 0 -3.4 -.1l.1 -1.1c1 0 2.1 .1 3.3 .1v1.1Zm-6.9 -.2c-1.2 -.1 -2.3 -.2 -3.4 -.3l.1 -1.1c1 .1 2.2 .2 3.3 .2v1.2Zm-6.9 -.6c-1.2 -.1 -2.3 -.3 -3.4 -.4l.2 -1.2c1 .2 2.2 .3 3.4 .5l-.2 1.1Zm-6.8 -1c-1.2 -.3 -2.3 -.5 -3.3 -.8l.3 -1.1c1 .2 2 .5 3.2 .7l-.2 1.2Zm-6.7 -2c-1.2 -.5 -2.3 -1 -3.2 -1.6l.6 -.9c.9 .5 1.9 1 3 1.5l-.4 1Zm-5.9 -4c-.8 -1 -1.2 -2.1 -1.3 -3.4l1.1 -.1c.1 1.1 .5 2 1.1 2.9l-.9 .6Z" class="g2_349"/>
<path d="M324.8 799.7l1.6 4.5l-1.6 -1.1l-1.5 1.1l1.5 -4.5Z" class="g2_349"/>
<path d="M324.8 799.7l1.6 4.5l-1.6 -1.1l-1.5 1.1l1.5 -4.5Z" class="g1_349"/>
<path d="M246.9 799.7l1.6 4.5l-1.6 -1.1l-1.5 1.1l1.5 -4.5Z" class="g2_349"/>
<path d="M246.9 799.7l1.6 4.5l-1.6 -1.1l-1.5 1.1l1.5 -4.5Z" class="g1_349"/>
<path d="M446.9 803.1c0 1.2 -.3 2.4 -.7 3.6l-1.1 -.5c.4 -1 .6 -2 .6 -3.1h1.2Zm-2.6 6.6c-.7 .8 -1.5 1.6 -2.5 2.4l-.7 -.9c.9 -.7 1.7 -1.5 2.3 -2.2l.9 .7Zm-5.5 4.4c-.9 .5 -1.9 1 -3 1.5l-.4 -1.1c1 -.4 1.9 -.9 2.8 -1.4l.6 1Zm-6.3 2.9c-1.1 .3 -2.2 .7 -3.3 1.1l-.4 -1.1c1.2 -.4 2.2 -.7 3.3 -1.1l.4 1.1Zm-6.5 2c-1.1 .3 -2.2 .6 -3.4 .9l-.2 -1.2c1.1 -.2 2.3 -.5 3.3 -.8l.3 1.1Zm-7 1.7c-1.1 .2 -2.1 .4 -3.2 .6l-.2 -1.1c1.1 -.2 2.1 -.4 3.1 -.6l.3 1.1Zm-6.5 1.2c-1.1 .2 -2.2 .3 -3.4 .5l-.1 -1.1c1.1 -.2 2.2 -.4 3.4 -.6l.1 1.2Zm-7 1c-1.1 .2 -2.3 .3 -3.5 .5l-.1 -1.2c1.2 -.1 2.3 -.3 3.5 -.4l.1 1.1Zm-6.7 .8c-1.1 .1 -2.2 .3 -3.3 .4l-.1 -1.2c1.1 -.1 2.2 -.2 3.3 -.3l.1 1.1Zm-6.8 .7c-1.1 .1 -2.3 .2 -3.5 .3l-.1 -1.2c1.2 -.1 2.4 -.2 3.5 -.3l.1 1.2Zm-7.2 .6l-3.3 .2l-.1 -1.2l3.4 -.2V825Zm-6.6 .4l-3.3 .2l-.1 -1.2l3.4 -.2v1.2Zm-6.8 .3l-3.5 .2v-1.2l3.5 -.1v1.1Zm-7.1 .3l-3.6 .1V825l3.6 -.1V826Zm-6.8 .2l-3.3 .1v-1.2l3.3 -.1v1.2Zm-6.7 .1l-3.4 .1v-1.2h3.4v1.1Zm-6.9 .1h-3.6v-1.1h3.6v1.1Zm-7.2 0h-3.6v-1.1h3.6v1.1Zm-7.2 0h-3.6v-1.1h3.6v1.1Zm-7.1 0l-3.4 -.1v-1.1h3.5l-.1 1.2Zm-6.7 -.1l-3.3 -.1V825l3.3 .1v1.2Zm-6.6 -.2l-3.6 -.1v-1.2l3.6 .1v1.2Zm-7.2 -.3l-3.5 -.1v-1.1l3.5 .1v1.1Zm-6.9 -.3l-3.4 -.2l.1 -1.1l3.3 .2v1.1Zm-6.6 -.4l-3.5 -.2l.1 -1.1l3.4 .2v1.1Zm-7.1 -.5c-1.2 -.1 -2.4 -.2 -3.5 -.3l.1 -1.1c1.1 .1 2.3 .2 3.5 .3l-.1 1.1Zm-6.9 -.6c-1.2 -.1 -2.3 -.2 -3.3 -.3l.1 -1.2c1.1 .2 2.2 .3 3.3 .4l-.1 1.1Zm-6.5 -.7c-1.3 -.1 -2.5 -.3 -3.6 -.5l.1 -1.1c1.2 .2 2.4 .3 3.6 .5l-.1 1.1Zm-7.2 -1c-1.2 -.1 -2.3 -.3 -3.4 -.5l.2 -1.1c1.1 .1 2.2 .3 3.4 .5l-.2 1.1Zm-6.6 -1.1c-1.2 -.2 -2.2 -.4 -3.3 -.6l.2 -1.2c1.1 .3 2.2 .5 3.3 .7l-.2 1.1Zm-6.9 -1.5c-1.2 -.2 -2.3 -.5 -3.4 -.8l.3 -1.1c1.1 .3 2.2 .5 3.3 .8l-.2 1.1Zm-6.5 -1.8c-1.2 -.3 -2.3 -.7 -3.4 -1.1l.5 -1.1c1 .4 2.1 .8 3.3 1.1l-.4 1.1ZM234 815.4c-1 -.5 -2 -1 -2.8 -1.5l.5 -1c.9 .5 1.8 1 2.8 1.4l-.5 1.1Zm-5.9 -3.6c-.9 -.8 -1.7 -1.6 -2.4 -2.5l.9 -.7c.6 .8 1.4 1.5 2.2 2.3l-.7 .9Zm-4.2 -5.6c-.3 -1 -.5 -2 -.5 -3.1h1.2c0 .9 .1 1.8 .4 2.7l-1.1 .4Z" class="g2_349"/>
<path d="M446.3 799.7l1.5 4.5l-1.5 -1.1l-1.5 1.1l1.5 -4.5Z" class="g2_349"/>
<path d="M446.3 799.7l1.5 4.5l-1.5 -1.1l-1.5 1.1l1.5 -4.5Z" class="g1_349"/>
<path d="M224 799.7l1.5 4.5L224 803.1l-1.5 1.1l1.5 -4.5Z" class="g2_349"/>
<path d="M224 799.7l1.5 4.5L224 803.1l-1.5 1.1l1.5 -4.5Z" class="g1_349"/>
</g>
</svg>