<?xml version="1.0" encoding="UTF-8" standalone="no"?>
<!DOCTYPE svg PUBLIC "-//W3C//DTD SVG 1.1//EN"
"http://www.w3.org/Graphics/SVG/1.1/DTD/svg11.dtd">
<svg viewBox="0 0 714 1017" version="1.1" xmlns="http://www.w3.org/2000/svg" xmlns:xlink="http://www.w3.org/1999/xlink">
<defs>
<clipPath id="c0_266"><path d="M86.6 652.6V498.2H650.4V652.6Z"/></clipPath>
<clipPath id="c1_266"><path d="M86.6 652.6V496.7H651.9V652.6Z"/></clipPath>
<style type="text/css"><![CDATA[
.g0_266{
fill: #FFF;
}
.g1_266{
fill: none;
stroke: #000;
stroke-width: 1.145;
stroke-miterlimit: 10;
}
.g2_266{
fill: #000;
fill-opacity: 0.05;
}
.g3_266{
fill: #000;
}
]]></style>
</defs>
<path d="M0 1017.7H717.2V-3.7H0V1017.7Z" class="g0_266"/>
<g clip-path="url(#c1_266)">
<path clip-path="url(#c0_266)" d="M86.6 498.2H650.4V652.9H86.6V498.2Z" class="g0_266"/>
<path d="M87.2 542.1H94l16 16V571H87.2V542.1Z" class="g0_266"/>
<path d="M87.2 542.1H94l16 16V571H87.2V542.1Z" class="g1_266"/>
<path d="M94 542.1v16h16l-16 -16Z" class="g2_266"/>
<path d="M94 542.1v16h16" class="g1_266"/>
<path d="M133 498.6h22.9v28.8H133V498.6Z" class="g0_266"/>
<path d="M133 498.6h22.9v28.8H133V498.6Zm2.3 0v28.8m18.3 -28.8v28.8" class="g1_266"/>
<path d="M133 542.6h22.9v28.8H133V542.6Z" class="g0_266"/>
<path d="M133 542.6h22.9v28.8H133V542.6Zm2.3 0v28.8m18.3 -28.8v28.8" class="g1_266"/>
<path d="M133 583.4h22.9v28.8H133V583.4Z" class="g0_266"/>
<path d="M133 583.4h22.9v28.8H133V583.4Zm2.3 0v28.8m18.3 -28.8v28.8m-43.1 -57l19.1 -35.8" class="g1_266"/>
<path d="M132.4 514.1l-1.4 8.4l-1.4 -3.1l-3.3 .5l6.1 -5.8Z" class="g3_266"/>
<path d="M132.4 514.1l-1.4 8.4l-1.4 -3.1l-3.3 .5l6.1 -5.8Zm-22.4 44l15.7 -.7" class="g1_266"/>
<path d="M131.7 557.1l-7.8 3l1.8 -2.7l-2.1 -2.6l8.1 2.3Z" class="g3_266"/>
<path d="M131.7 557.1l-7.8 3l1.8 -2.7l-2.1 -2.6l8.1 2.3ZM110 571l18.3 21.3" class="g1_266"/>
<path d="M132.2 596.8l-7.3 -4.3l3.4 -.2L129 589l3.2 7.8Z" class="g3_266"/>
<path d="M132.2 596.8l-7.3 -4.3l3.4 -.2L129 589l3.2 7.8Z" class="g1_266"/>
<path d="M276.2 542.1h8L299.1 557v14H276.2V542.1Z" class="g0_266"/>
<path d="M276.2 542.1h8L299.1 557v14H276.2V542.1Z" class="g1_266"/>
<path d="M284.2 542.1V557h14.9L284.2 542.1Z" class="g2_266"/>
<path d="M284.2 542.1V557h14.9" class="g1_266"/>
<path d="M322.1 498.6H345v28.8H322.1V498.6Z" class="g0_266"/>
<path d="M322.1 498.6H345v28.8H322.1V498.6Zm2.3 0v28.8m18.3 -28.8v28.8" class="g1_266"/>
<path d="M322.1 542.1H345V571H322.1V542.1Z" class="g0_266"/>
<path d="M322.1 542.1H345V571H322.1V542.1Zm2.3 0V571m18.3 -28.9V571" class="g1_266"/>
<path d="M322.1 583.4H345v28.8H322.1V583.4Z" class="g0_266"/>
<path d="M322.1 583.4H345v28.8H322.1V583.4Zm2.3 0v28.8m18.3 -28.8v28.8M299.1 512.3l15.7 .5" class="g1_266"/>
<path d="M320.8 513l-8.1 2.4l2.1 -2.6l-1.9 -2.7l7.9 2.9Z" class="g3_266"/>
<path d="M320.8 513l-8.1 2.4l2.1 -2.6l-1.9 -2.7l7.9 2.9Zm-21.7 44l15.7 -.3" class="g1_266"/>
<path d="M320.8 556.6l-8 2.8l2 -2.7l-2.1 -2.6l8.1 2.5Z" class="g3_266"/>
<path d="M320.8 556.6l-8 2.8l2 -2.7l-2.1 -2.6l8.1 2.5Zm-21.7 41.6l15.7 -.3" class="g1_266"/>
<path d="M320.8 597.8l-8 2.8l2 -2.7l-2.1 -2.6l8.1 2.5Z" class="g3_266"/>
<path d="M320.8 597.8l-8 2.8l2 -2.7l-2.1 -2.6l8.1 2.5Z" class="g1_266"/>
<path d="M276.2 583.4h8l14.9 14.8v14H276.2V583.4Z" class="g0_266"/>
<path d="M276.2 583.4h8l14.9 14.8v14H276.2V583.4Z" class="g1_266"/>
<path d="M284.2 583.4v14.8h14.9L284.2 583.4Z" class="g2_266"/>
<path d="M284.2 583.4v14.8h14.9" class="g1_266"/>
<path d="M276.2 498.6h9.1l13.8 13.7v15.1H276.2V498.6Z" class="g0_266"/>
<path d="M276.2 498.6h9.1l13.8 13.7v15.1H276.2V498.6Z" class="g1_266"/>
<path d="M285.3 498.6v13.7h13.8L285.3 498.6Z" class="g2_266"/>
<path d="M285.3 498.6v13.7h13.8" class="g1_266"/>
<path d="M465.3 502.2h6.9l16 16.1v92.8H465.3V502.2Z" class="g0_266"/>
<path d="M465.3 502.2h6.9l16 16.1v92.8H465.3V502.2Z" class="g1_266"/>
<path d="M472.2 502.2v16.1h16l-16 -16.1Z" class="g2_266"/>
<path d="M472.2 502.2v16.1h16" class="g1_266"/>
<path d="M529.5 498.6h22.9v28.8H529.5V498.6Z" class="g0_266"/>
<path d="M529.5 498.6h22.9v28.8H529.5V498.6Zm2.3 0v28.8m18.3 -28.8v28.8" class="g1_266"/>
<path d="M529.5 542.1h22.9V571H529.5V542.1Z" class="g0_266"/>
<path d="M529.5 542.1h22.9V571H529.5V542.1Zm2.3 0V571m18.3 -28.9V571" class="g1_266"/>
<path d="M529.5 583.4h22.9v28.8H529.5V583.4Z" class="g0_266"/>
<path d="M529.5 583.4h22.9v28.8H529.5V583.4Zm2.3 0v28.8m18.3 -28.8v28.8M511.5 553.3l15 -33.6" class="g1_266"/>
<path d="M529 514.2l-.9 8.4l-1.6 -2.9l-3.3 .7l5.8 -6.2Z" class="g3_266"/>
<path d="M529 514.2l-.9 8.4l-1.6 -2.9l-3.3 .7l5.8 -6.2Zm-16.1 42.3h9.3" class="g1_266"/>
<path d="M528.2 556.5l-8 2.7l2 -2.7l-2 -2.6l8 2.6Z" class="g3_266"/>
<path d="M528.2 556.5l-8 2.7l2 -2.7l-2 -2.6l8 2.6Zm-16.7 3.3l14.9 31.4" class="g1_266"/>
<path d="M528.9 596.6l-5.8 -6.1l3.3 .7l1.5 -3l1 8.4Z" class="g3_266"/>
<path d="M528.9 596.6l-5.8 -6.1l3.3 .7l1.5 -3l1 8.4Z" class="g1_266"/>
<path d="M512.9 556.5c0 .6 -.2 1.2 -.4 1.8c-.2 .6 -.5 1.1 -1 1.5c-.4 .4 -.9 .7 -1.5 1c-.5 .2 -1.1 .3 -1.7 .3c-.6 0 -1.2 -.1 -1.8 -.3c-.5 -.3 -1 -.6 -1.5 -1c-.4 -.4 -.7 -.9 -1 -1.5c-.2 -.6 -.3 -1.2 -.3 -1.8c0 -.6 .1 -1.2 .3 -1.7c.3 -.6 .6 -1.1 1 -1.5c.5 -.4 1 -.8 1.5 -1c.6 -.2 1.2 -.3 1.8 -.3c.6 0 1.2 .1 1.7 .3c.6 .2 1.1 .6 1.5 1c.5 .4 .8 .9 1 1.5c.2 .5 .4 1.1 .4 1.7Z" class="g0_266"/>
<path d="M512.9 556.5c0 .6 -.2 1.2 -.4 1.8c-.2 .6 -.5 1.1 -1 1.5c-.4 .4 -.9 .7 -1.5 1c-.5 .2 -1.1 .3 -1.7 .3c-.6 0 -1.2 -.1 -1.8 -.3c-.5 -.3 -1 -.6 -1.5 -1c-.4 -.4 -.7 -.9 -1 -1.5c-.2 -.6 -.3 -1.2 -.3 -1.8c0 -.6 .1 -1.2 .3 -1.7c.3 -.6 .6 -1.1 1 -1.5c.5 -.4 1 -.8 1.5 -1c.6 -.2 1.2 -.3 1.8 -.3c.6 0 1.2 .1 1.7 .3c.6 .2 1.1 .6 1.5 1c.5 .4 .8 .9 1 1.5c.2 .5 .4 1.1 .4 1.7Zm-24.7 .1h8.2" class="g1_266"/>
<path d="M502.4 556.5l-8 2.8l2 -2.7l-2 -2.7l8 2.6Z" class="g3_266"/>
<path d="M502.4 556.5l-8 2.8l2 -2.7l-2 -2.7l8 2.6Z" class="g1_266"/>
<path d="M239.6 569.9c-7.8 0 -14.1 -6.3 -14.1 -14c0 -7.8 6.3 -14.1 14.1 -14.1c7.7 0 14 6.3 14 14.1c0 7.7 -6.3 14 -14 14Zm8.6 -4.7c-.7 -.5 -1.5 -.7 -2.7 -1c-1.4 -.3 -3.2 -.6 -3 -2.1c-1.1 .9 -2.9 1.3 -4.4 .7c-.5 -.2 -.8 -.6 -1.2 -.6c.1 1.5 -1.8 1.7 -3 2c-1.3 .3 -2.2 .6 -2.9 1.1c2.3 2 5.3 3.3 8.6 3.3c3.3 0 6.4 -1.3 8.6 -3.4ZM240.5 548c-4.2 -.4 -6.3 2.5 -5.7 6.8c-.2 .1 -.4 .1 -.5 .3c0 1.2 .3 2.3 1.2 2.7c.5 2.1 2 4.5 4.6 4.2c2.2 -.3 3.3 -2.3 3.8 -4.2c.9 -.4 1.2 -1.6 1.1 -2.8c0 -.2 -.3 -.1 -.4 -.2c.7 -3.3 -1.2 -6.6 -4.1 -6.8Zm-.9 -4.9c-7 0 -12.7 5.7 -12.7 12.8c0 3.3 1.2 6.3 3.3 8.5c.3 -.2 .5 -.3 .8 -.5c1.3 -.7 3.1 -.6 4.8 -1.4c0 -.5 0 -1 0 -1.5c-.7 -.6 -.8 -1.6 -1.3 -2.4c-.2 -.5 -.7 -.8 -.9 -1.3c-.2 -.6 -.5 -1.3 -.4 -2.2c0 -.4 .3 -.7 .4 -1.1c0 -.5 -.1 -1.1 0 -1.6c.2 -2.9 2.4 -5.2 5.2 -5.6c.6 0 1.2 0 1.8 0c3 .5 5.1 2.8 5.3 6c0 .4 -.1 .9 -.1 1.3c.1 .4 .4 .7 .4 1.2c.1 1.3 -.5 2.5 -1.4 3.3c-.2 1 -.7 1.7 -1.2 2.4c0 .5 0 .9 0 1.4c1.4 .8 3.3 .8 4.7 1.5c.3 .1 .5 .3 .7 .4c2.1 -2.2 3.3 -5.2 3.3 -8.4c0 -7.1 -5.7 -12.8 -12.7 -12.8Z" class="g3_266"/>
<path d="M178.9 542.1h22.9V571H178.9V542.1Z" class="g0_266"/>
<path d="M178.9 542.1h22.9V571H178.9V542.1Zm2.3 0V571m18.3 -28.9V571M155.9 513L175 543.2" class="g1_266"/>
<path d="M178.3 548.2l-6.6 -5.3l3.3 .3l1.2 -3.2l2.1 8.2Z" class="g3_266"/>
<path d="M178.3 548.2l-6.6 -5.3l3.3 .3l1.2 -3.2l2.1 8.2ZM155.9 557l15.7 -.3" class="g1_266"/>
<path d="M177.7 556.6l-8 2.8l1.9 -2.7l-2 -2.6l8.1 2.5Z" class="g3_266"/>
<path d="M177.7 556.6l-8 2.8l1.9 -2.7l-2 -2.6l8.1 2.5Zm-21.8 41.2l19 -28" class="g1_266"/>
<path d="M178.2 564.8L176 573l-1.1 -3.2l-3.4 .2l6.7 -5.2Z" class="g3_266"/>
<path d="M178.2 564.8L176 573l-1.1 -3.2l-3.4 .2l6.7 -5.2Zm23.6 -8.3h16.7" class="g1_266"/>
<path d="M224.5 556.4l-8 2.7l2 -2.6l-2 -2.7l8 2.6Z" class="g3_266"/>
<path d="M224.5 556.4l-8 2.7l2 -2.6l-2 -2.7l8 2.6Z" class="g1_266"/>
<path d="M367.9 542.1h22.9V571H367.9V542.1Z" class="g0_266"/>
<path d="M367.9 542.1h22.9V571H367.9V542.1Zm2.3 0V571m18.3 -28.9V571" class="g1_266"/>
<path d="M427.5 569.9c-7.7 0 -14 -6.3 -14 -14c0 -7.8 6.3 -14.1 14 -14.1c7.7 0 14 6.3 14 14.1c0 7.7 -6.3 14 -14 14Zm8.7 -4.7c-.7 -.5 -1.6 -.7 -2.8 -1c-1.3 -.3 -3.2 -.6 -3 -2.1c-1.1 .9 -2.9 1.3 -4.4 .7c-.5 -.2 -.8 -.6 -1.2 -.6c.1 1.5 -1.7 1.7 -3 2c-1.2 .3 -2.1 .6 -2.8 1.1c2.2 2 5.2 3.3 8.5 3.3c3.3 0 6.4 -1.3 8.7 -3.4ZM428.5 548c-4.3 -.4 -6.4 2.5 -5.8 6.8c-.2 .1 -.4 .1 -.4 .3c0 1.2 .2 2.3 1.1 2.7c.5 2.1 2 4.5 4.6 4.2c2.2 -.3 3.4 -2.3 3.8 -4.2c.9 -.4 1.2 -1.6 1.2 -2.8c-.1 -.2 -.4 -.1 -.5 -.2c.8 -3.3 -1.2 -6.6 -4 -6.8Zm-1 -4.9c-7 0 -12.7 5.7 -12.7 12.8c0 3.3 1.3 6.3 3.3 8.5c.3 -.2 .5 -.3 .8 -.5c1.4 -.7 3.1 -.6 4.8 -1.4c0 -.5 0 -1 0 -1.5c-.7 -.6 -.8 -1.6 -1.2 -2.4c-.3 -.5 -.7 -.8 -1 -1.3c-.2 -.6 -.5 -1.3 -.4 -2.2c.1 -.4 .3 -.7 .4 -1.1c0 -.5 -.1 -1.1 0 -1.6c.3 -2.9 2.4 -5.2 5.3 -5.6c.5 0 1.1 0 1.7 0c3 .5 5.1 2.8 5.3 6c0 .4 -.1 .9 -.1 1.3c.1 .4 .4 .7 .4 1.2c.1 1.3 -.5 2.5 -1.3 3.3c-.3 1 -.8 1.7 -1.2 2.4c0 .5 0 .9 0 1.4c1.4 .8 3.2 .8 4.6 1.5c.3 .1 .5 .3 .8 .4c2 -2.2 3.2 -5.2 3.2 -8.4c0 -7.1 -5.7 -12.8 -12.7 -12.8Z" class="g3_266"/>
<path d="M390.8 556.5h15.7" class="g1_266"/>
<path d="M412.5 556.4l-8 2.7l2 -2.6l-2.1 -2.7l8.1 2.6Z" class="g3_266"/>
<path d="M412.5 556.4l-8 2.7l2 -2.6l-2.1 -2.7l8.1 2.6Zm-67.5 .1h15.6" class="g1_266"/>
<path d="M366.6 556.5l-8 2.7l2 -2.7l-2 -2.6l8 2.6Z" class="g3_266"/>
<path d="M366.6 556.5l-8 2.7l2 -2.7l-2 -2.6l8 2.6ZM345 513l19 30.1" class="g1_266"/>
<path d="M367.2 548.2l-6.5 -5.3l3.3 .2l1.2 -3.1l2 8.2Z" class="g3_266"/>
<path d="M367.2 548.2l-6.5 -5.3l3.3 .2l1.2 -3.1l2 8.2ZM345 597.8l18.8 -28" class="g1_266"/>
<path d="M367.2 564.8l-2.3 8.2l-1.1 -3.2l-3.3 .2l6.7 -5.2Z" class="g3_266"/>
<path d="M367.2 564.8l-2.3 8.2l-1.1 -3.2l-3.3 .2l6.7 -5.2Z" class="g1_266"/>
<path d="M574.2 542.1h24V571h-24V542.1Z" class="g0_266"/>
<path d="M574.2 542.1h24V571h-24V542.1Zm2.3 0V571m19.4 -28.9V571m2.3 -14.5h15.6" class="g1_266"/>
<path d="M619.9 556.5l-8.1 2.7l2 -2.7l-2 -2.6l8.1 2.6Z" class="g3_266"/>
<path d="M619.9 556.5l-8.1 2.7l2 -2.7l-2 -2.6l8.1 2.6Z" class="g1_266"/>
<path d="M634.9 570c-7.7 0 -14 -6.3 -14 -14c0 -7.8 6.3 -14.1 14 -14.1c7.7 0 14 6.3 14 14.1c0 7.7 -6.3 14 -14 14Zm8.7 -4.7c-.7 -.5 -1.6 -.7 -2.8 -1c-1.4 -.3 -3.2 -.6 -3 -2.1c-1.1 .9 -2.9 1.3 -4.4 .7c-.5 -.2 -.8 -.6 -1.2 -.6c.1 1.6 -1.7 1.7 -3 2c-1.3 .3 -2.1 .6 -2.8 1.1c2.2 2 5.2 3.3 8.5 3.3c3.3 0 6.4 -1.3 8.7 -3.4Zm-7.7 -17.2c-4.3 -.4 -6.4 2.5 -5.8 6.8c-.2 .1 -.4 .1 -.4 .3c0 1.3 .2 2.3 1.1 2.7c.5 2.1 2 4.5 4.6 4.2c2.2 -.3 3.4 -2.3 3.8 -4.2c.9 -.4 1.2 -1.6 1.2 -2.8c-.1 -.2 -.4 -.1 -.5 -.2c.8 -3.3 -1.2 -6.6 -4 -6.8Zm-1 -4.9c-7 0 -12.7 5.7 -12.7 12.8c0 3.3 1.2 6.3 3.3 8.6c.3 -.2 .5 -.4 .8 -.6c1.3 -.7 3.1 -.6 4.8 -1.4c0 -.5 0 -1 0 -1.5c-.7 -.6 -.8 -1.6 -1.2 -2.4c-.3 -.5 -.7 -.8 -1 -1.3c-.2 -.6 -.5 -1.3 -.4 -2.2c.1 -.4 .3 -.7 .4 -1.1c0 -.5 -.1 -1.1 0 -1.6c.2 -2.9 2.4 -5.2 5.2 -5.5c.6 0 1.2 0 1.8 0c3 .4 5.1 2.7 5.3 6c0 .3 -.1 .8 -.1 1.2c.1 .4 .4 .7 .4 1.2c.1 1.3 -.5 2.5 -1.4 3.3c-.2 1 -.7 1.7 -1.1 2.4c0 .5 0 1 0 1.4c1.4 .9 3.2 .8 4.6 1.5c.3 .1 .5 .3 .8 .5c2 -2.3 3.2 -5.3 3.2 -8.5c0 -7.1 -5.7 -12.8 -12.7 -12.8Z" class="g3_266"/>
<path d="M552.4 513l18 30.1" class="g1_266"/>
<path d="M573.5 548.2l-6.4 -5.5l3.3 .4l1.3 -3.1l1.8 8.2Z" class="g3_266"/>
<path d="M573.5 548.2l-6.4 -5.5l3.3 .4l1.3 -3.1l1.8 8.2Zm-21.1 8.3h14.5" class="g1_266"/>
<path d="M572.9 556.5l-8 2.7l2 -2.7l-2 -2.6l8 2.6Z" class="g3_266"/>
<path d="M572.9 556.5l-8 2.7l2 -2.7l-2 -2.6l8 2.6Zm-20.5 41.3l17.8 -27.9" class="g1_266"/>
<path d="M573.5 564.8l-2.1 8.2l-1.2 -3.1l-3.3 .3l6.6 -5.4Z" class="g3_266"/>
<path d="M573.5 564.8l-2.1 8.2l-1.2 -3.1l-3.3 .3l6.6 -5.4Z" class="g1_266"/>
</g>
</svg>