<?xml version="1.0" encoding="UTF-8" standalone="no"?>
<!DOCTYPE svg PUBLIC "-//W3C//DTD SVG 1.1//EN"
"http://www.w3.org/Graphics/SVG/1.1/DTD/svg11.dtd">
<svg viewBox="0 0 714 1017" version="1.1" xmlns="http://www.w3.org/2000/svg" xmlns:xlink="http://www.w3.org/1999/xlink">
<defs>
<clipPath id="c0_304"><path d="M247.5 559.5V439.2H488.1V559.5Z"/></clipPath>
<clipPath id="c1_304"><path d="M247.5 778.2V657.9H488.1V778.2Z"/></clipPath>
<clipPath id="c2_304"><path d="M247.5 559.9V439.2H488.9V559.9Z"/></clipPath>
<clipPath id="c3_304"><path d="M247.5 778.5V657.8H488.9V778.5Z"/></clipPath>
<style type="text/css"><![CDATA[
.g0_304{
fill: #FFF;
}
.g1_304{
fill: #000;
}
.g2_304{
fill: none;
stroke: #000;
stroke-width: 1.145;
stroke-miterlimit: 10;
}
.g3_304{
fill: none;
stroke: #000;
stroke-width: 4.583;
stroke-miterlimit: 10;
}
]]></style>
</defs>
<path d="M0 1017.7H717.2V-3.7H0V1017.7Z" class="g0_304"/>
<g clip-path="url(#c2_304)">
<path d="M247.5 439.2H488.1V559.5H247.5V439.2Z" class="g0_304"/>
<path clip-path="url(#c0_304)" d="M248.1 439.8H488.7V560.1H248.1V439.8Z" class="g0_304"/>
<path d="M275.6 500.5c0 -.7 -.1 -1.5 -.3 -2.2c-.1 -.8 -.3 -1.5 -.6 -2.2c-.3 -.7 -.7 -1.3 -1.1 -1.9c-.4 -.7 -.9 -1.2 -1.4 -1.8c-.5 -.5 -1.1 -1 -1.7 -1.4c-.7 -.4 -1.3 -.8 -2 -1.1c-.7 -.3 -1.4 -.5 -2.2 -.6c-.7 -.2 -1.5 -.2 -2.2 -.2c-.8 0 -1.5 0 -2.2 .2c-.8 .1 -1.5 .3 -2.2 .6c-.7 .3 -1.3 .7 -2 1.1c-.6 .4 -1.2 .9 -1.7 1.4c-.5 .6 -1 1.1 -1.4 1.8c-.5 .6 -.8 1.2 -1.1 1.9c-.3 .7 -.5 1.4 -.6 2.2c-.2 .7 -.3 1.5 -.3 2.2c0 .8 .1 1.5 .3 2.3c.1 .7 .3 1.4 .6 2.1c.3 .7 .6 1.4 1.1 2c.4 .6 .9 1.2 1.4 1.7c.5 .6 1.1 1 1.7 1.5c.7 .4 1.3 .7 2 1c.7 .3 1.4 .5 2.2 .7c.7 .1 1.4 .2 2.2 .2c.7 0 1.5 -.1 2.2 -.2c.8 -.2 1.5 -.4 2.2 -.7c.7 -.3 1.3 -.6 2 -1c.6 -.5 1.2 -.9 1.7 -1.5c.5 -.5 1 -1.1 1.4 -1.7c.4 -.6 .8 -1.3 1.1 -2c.3 -.7 .5 -1.4 .6 -2.1c.2 -.8 .3 -1.5 .3 -2.3Z" class="g1_304"/>
<path d="M275.6 500.5c0 -.7 -.1 -1.5 -.3 -2.2c-.1 -.8 -.3 -1.5 -.6 -2.2c-.3 -.7 -.7 -1.3 -1.1 -1.9c-.4 -.7 -.9 -1.2 -1.4 -1.8c-.5 -.5 -1.1 -1 -1.7 -1.4c-.7 -.4 -1.3 -.8 -2 -1.1c-.7 -.3 -1.4 -.5 -2.2 -.6c-.7 -.2 -1.5 -.2 -2.2 -.2c-.8 0 -1.5 0 -2.2 .2c-.8 .1 -1.5 .3 -2.2 .6c-.7 .3 -1.3 .7 -2 1.1c-.6 .4 -1.2 .9 -1.7 1.4c-.5 .6 -1 1.1 -1.4 1.8c-.5 .6 -.8 1.2 -1.1 1.9c-.3 .7 -.5 1.4 -.6 2.2c-.2 .7 -.3 1.5 -.3 2.2c0 .8 .1 1.5 .3 2.3c.1 .7 .3 1.4 .6 2.1c.3 .7 .6 1.4 1.1 2c.4 .6 .9 1.2 1.4 1.7c.5 .6 1.1 1 1.7 1.5c.7 .4 1.3 .7 2 1c.7 .3 1.4 .5 2.2 .7c.7 .1 1.4 .2 2.2 .2c.7 0 1.5 -.1 2.2 -.2c.8 -.2 1.5 -.4 2.2 -.7c.7 -.3 1.3 -.6 2 -1c.6 -.5 1.2 -.9 1.7 -1.5c.5 -.5 1 -1.1 1.4 -1.7c.4 -.6 .8 -1.3 1.1 -2c.3 -.7 .5 -1.4 .6 -2.1c.2 -.8 .3 -1.5 .3 -2.3Z" class="g2_304"/>
<path d="M367.2 454.7c0 -.8 -.1 -1.5 -.2 -2.2c-.2 -.8 -.4 -1.5 -.7 -2.2c-.2 -.7 -.6 -1.4 -1 -2c-.4 -.6 -.9 -1.2 -1.4 -1.7c-.6 -.5 -1.2 -1 -1.8 -1.4c-.6 -.5 -1.3 -.8 -2 -1.1c-.7 -.3 -1.4 -.5 -2.1 -.6c-.7 -.2 -1.5 -.3 -2.2 -.3c-.8 0 -1.5 .1 -2.3 .3c-.7 .1 -1.4 .3 -2.1 .6c-.7 .3 -1.4 .6 -2 1.1c-.6 .4 -1.2 .9 -1.7 1.4c-.6 .5 -1.1 1.1 -1.5 1.7c-.4 .6 -.7 1.3 -1 2c-.3 .7 -.5 1.4 -.7 2.2c-.1 .7 -.2 1.4 -.2 2.2c0 .7 .1 1.5 .2 2.2c.2 .8 .4 1.5 .7 2.2c.3 .7 .6 1.3 1 2c.4 .6 .9 1.2 1.5 1.7c.5 .5 1.1 1 1.7 1.4c.6 .4 1.3 .8 2 1.1c.7 .3 1.4 .5 2.1 .6c.8 .2 1.5 .2 2.3 .2c.7 0 1.5 0 2.2 -.2c.7 -.1 1.4 -.3 2.1 -.6c.7 -.3 1.4 -.7 2 -1.1c.6 -.4 1.2 -.9 1.8 -1.4c.5 -.5 1 -1.1 1.4 -1.7c.4 -.7 .8 -1.3 1 -2c.3 -.7 .5 -1.4 .7 -2.2c.1 -.7 .2 -1.5 .2 -2.2Z" class="g0_304"/>
<path d="M367.2 454.7c0 -.8 -.1 -1.5 -.2 -2.2c-.2 -.8 -.4 -1.5 -.7 -2.2c-.2 -.7 -.6 -1.4 -1 -2c-.4 -.6 -.9 -1.2 -1.4 -1.7c-.6 -.5 -1.2 -1 -1.8 -1.4c-.6 -.5 -1.3 -.8 -2 -1.1c-.7 -.3 -1.4 -.5 -2.1 -.6c-.7 -.2 -1.5 -.3 -2.2 -.3c-.8 0 -1.5 .1 -2.3 .3c-.7 .1 -1.4 .3 -2.1 .6c-.7 .3 -1.4 .6 -2 1.1c-.6 .4 -1.2 .9 -1.7 1.4c-.6 .5 -1.1 1.1 -1.5 1.7c-.4 .6 -.7 1.3 -1 2c-.3 .7 -.5 1.4 -.7 2.2c-.1 .7 -.2 1.4 -.2 2.2c0 .7 .1 1.5 .2 2.2c.2 .8 .4 1.5 .7 2.2c.3 .7 .6 1.3 1 2c.4 .6 .9 1.2 1.5 1.7c.5 .5 1.1 1 1.7 1.4c.6 .4 1.3 .8 2 1.1c.7 .3 1.4 .5 2.1 .6c.8 .2 1.5 .2 2.3 .2c.7 0 1.5 0 2.2 -.2c.7 -.1 1.4 -.3 2.1 -.6c.7 -.3 1.4 -.7 2 -1.1c.6 -.4 1.2 -.9 1.8 -1.4c.5 -.5 1 -1.1 1.4 -1.7c.4 -.7 .8 -1.3 1 -2c.3 -.7 .5 -1.4 .7 -2.2c.1 -.7 .2 -1.5 .2 -2.2Z" class="g3_304"/>
<path d="M348.9 546.4c0 -.8 -.1 -1.5 -.2 -2.3c-.2 -.7 -.4 -1.4 -.7 -2.1c-.3 -.7 -.6 -1.4 -1 -2c-.5 -.6 -.9 -1.2 -1.5 -1.7c-.5 -.6 -1.1 -1.1 -1.7 -1.5c-.6 -.4 -1.3 -.7 -2 -1c-.7 -.3 -1.4 -.5 -2.1 -.7c-.8 -.1 -1.5 -.2 -2.3 -.2c-.7 0 -1.5 .1 -2.2 .2c-.7 .2 -1.5 .4 -2.2 .7c-.7 .3 -1.3 .6 -1.9 1c-.7 .4 -1.2 .9 -1.8 1.5c-.5 .5 -1 1.1 -1.4 1.7c-.4 .6 -.8 1.3 -1.1 2c-.2 .7 -.5 1.4 -.6 2.1c-.2 .8 -.2 1.5 -.2 2.3c0 .7 0 1.5 .2 2.2c.1 .7 .4 1.4 .6 2.1c.3 .7 .7 1.4 1.1 2c.4 .6 .9 1.2 1.4 1.8c.6 .5 1.1 1 1.8 1.4c.6 .4 1.2 .8 1.9 1c.7 .3 1.5 .5 2.2 .7c.7 .1 1.5 .2 2.2 .2c.8 0 1.5 -.1 2.3 -.2c.7 -.2 1.4 -.4 2.1 -.7c.7 -.2 1.4 -.6 2 -1c.6 -.4 1.2 -.9 1.7 -1.4c.6 -.6 1 -1.2 1.5 -1.8c.4 -.6 .7 -1.3 1 -2c.3 -.7 .5 -1.4 .7 -2.1c.1 -.7 .2 -1.5 .2 -2.2Z" class="g0_304"/>
<path d="M348.9 546.4c0 -.8 -.1 -1.5 -.2 -2.3c-.2 -.7 -.4 -1.4 -.7 -2.1c-.3 -.7 -.6 -1.4 -1 -2c-.5 -.6 -.9 -1.2 -1.5 -1.7c-.5 -.6 -1.1 -1.1 -1.7 -1.5c-.6 -.4 -1.3 -.7 -2 -1c-.7 -.3 -1.4 -.5 -2.1 -.7c-.8 -.1 -1.5 -.2 -2.3 -.2c-.7 0 -1.5 .1 -2.2 .2c-.7 .2 -1.5 .4 -2.2 .7c-.7 .3 -1.3 .6 -1.9 1c-.7 .4 -1.2 .9 -1.8 1.5c-.5 .5 -1 1.1 -1.4 1.7c-.4 .6 -.8 1.3 -1.1 2c-.2 .7 -.5 1.4 -.6 2.1c-.2 .8 -.2 1.5 -.2 2.3c0 .7 0 1.5 .2 2.2c.1 .7 .4 1.4 .6 2.1c.3 .7 .7 1.4 1.1 2c.4 .6 .9 1.2 1.4 1.8c.6 .5 1.1 1 1.8 1.4c.6 .4 1.2 .8 1.9 1c.7 .3 1.5 .5 2.2 .7c.7 .1 1.5 .2 2.2 .2c.8 0 1.5 -.1 2.3 -.2c.7 -.2 1.4 -.4 2.1 -.7c.7 -.2 1.4 -.6 2 -1c.6 -.4 1.2 -.9 1.7 -1.4c.6 -.6 1 -1.2 1.5 -1.8c.4 -.6 .7 -1.3 1 -2c.3 -.7 .5 -1.4 .7 -2.1c.1 -.7 .2 -1.5 .2 -2.2Z" class="g2_304"/>
<path d="M406.2 489.1c0 -.8 -.1 -1.5 -.2 -2.3c-.2 -.7 -.4 -1.4 -.7 -2.1c-.3 -.7 -.6 -1.4 -1.1 -2c-.4 -.6 -.8 -1.2 -1.4 -1.7c-.5 -.6 -1.1 -1 -1.7 -1.5c-.6 -.4 -1.3 -.7 -2 -1c-.7 -.3 -1.4 -.5 -2.1 -.7c-.8 -.1 -1.5 -.2 -2.3 -.2c-.7 0 -1.5 .1 -2.2 .2c-.8 .2 -1.5 .4 -2.2 .7c-.7 .3 -1.3 .6 -1.9 1c-.7 .5 -1.3 .9 -1.8 1.5c-.5 .5 -1 1.1 -1.4 1.7c-.4 .6 -.8 1.3 -1.1 2c-.3 .7 -.5 1.4 -.6 2.1c-.2 .8 -.2 1.5 -.2 2.3c0 .7 0 1.5 .2 2.2c.1 .7 .3 1.5 .6 2.1c.3 .7 .7 1.4 1.1 2c.4 .7 .9 1.2 1.4 1.8c.5 .5 1.1 1 1.8 1.4c.6 .4 1.2 .8 1.9 1.1c.7 .2 1.4 .5 2.2 .6c.7 .1 1.5 .2 2.2 .2c.8 0 1.5 -.1 2.3 -.2c.7 -.1 1.4 -.4 2.1 -.6c.7 -.3 1.4 -.7 2 -1.1c.6 -.4 1.2 -.9 1.7 -1.4c.6 -.6 1 -1.1 1.4 -1.8c.5 -.6 .8 -1.3 1.1 -2c.3 -.6 .5 -1.4 .7 -2.1c.1 -.7 .2 -1.5 .2 -2.2Z" class="g0_304"/>
<path d="M406.2 489.1c0 -.8 -.1 -1.5 -.2 -2.3c-.2 -.7 -.4 -1.4 -.7 -2.1c-.3 -.7 -.6 -1.4 -1.1 -2c-.4 -.6 -.8 -1.2 -1.4 -1.7c-.5 -.6 -1.1 -1 -1.7 -1.5c-.6 -.4 -1.3 -.7 -2 -1c-.7 -.3 -1.4 -.5 -2.1 -.7c-.8 -.1 -1.5 -.2 -2.3 -.2c-.7 0 -1.5 .1 -2.2 .2c-.8 .2 -1.5 .4 -2.2 .7c-.7 .3 -1.3 .6 -1.9 1c-.7 .5 -1.3 .9 -1.8 1.5c-.5 .5 -1 1.1 -1.4 1.7c-.4 .6 -.8 1.3 -1.1 2c-.3 .7 -.5 1.4 -.6 2.1c-.2 .8 -.2 1.5 -.2 2.3c0 .7 0 1.5 .2 2.2c.1 .7 .3 1.5 .6 2.1c.3 .7 .7 1.4 1.1 2c.4 .7 .9 1.2 1.4 1.8c.5 .5 1.1 1 1.8 1.4c.6 .4 1.2 .8 1.9 1.1c.7 .2 1.4 .5 2.2 .6c.7 .1 1.5 .2 2.2 .2c.8 0 1.5 -.1 2.3 -.2c.7 -.1 1.4 -.4 2.1 -.6c.7 -.3 1.4 -.7 2 -1.1c.6 -.4 1.2 -.9 1.7 -1.4c.6 -.6 1 -1.1 1.4 -1.8c.5 -.6 .8 -1.3 1.1 -2c.3 -.6 .5 -1.4 .7 -2.1c.1 -.7 .2 -1.5 .2 -2.2Z" class="g2_304"/>
<path d="M481.8 466.1c0 -.7 -.1 -1.4 -.2 -2.2c-.2 -.7 -.4 -1.4 -.7 -2.1c-.3 -.7 -.6 -1.4 -1 -2c-.4 -.6 -.9 -1.2 -1.5 -1.8c-.5 -.5 -1.1 -1 -1.7 -1.4c-.6 -.4 -1.3 -.8 -2 -1c-.7 -.3 -1.4 -.5 -2.1 -.7c-.8 -.1 -1.5 -.2 -2.3 -.2c-.7 0 -1.5 .1 -2.2 .2c-.7 .2 -1.4 .4 -2.1 .7c-.7 .2 -1.4 .6 -2 1c-.6 .4 -1.2 .9 -1.8 1.4c-.5 .6 -1 1.2 -1.4 1.8c-.4 .6 -.8 1.3 -1 2c-.3 .7 -.5 1.4 -.7 2.1c-.1 .8 -.2 1.5 -.2 2.2c0 .8 .1 1.5 .2 2.3c.2 .7 .4 1.4 .7 2.1c.2 .7 .6 1.4 1 2c.4 .6 .9 1.2 1.4 1.8c.6 .5 1.2 1 1.8 1.4c.6 .4 1.3 .7 2 1c.7 .3 1.4 .5 2.1 .7c.7 .1 1.5 .2 2.2 .2c.8 0 1.5 -.1 2.3 -.2c.7 -.2 1.4 -.4 2.1 -.7c.7 -.3 1.4 -.6 2 -1c.6 -.4 1.2 -.9 1.7 -1.4c.6 -.6 1.1 -1.2 1.5 -1.8c.4 -.6 .7 -1.3 1 -2c.3 -.7 .5 -1.4 .7 -2.1c.1 -.8 .2 -1.5 .2 -2.3Z" class="g0_304"/>
<path d="M481.8 466.1c0 -.7 -.1 -1.4 -.2 -2.2c-.2 -.7 -.4 -1.4 -.7 -2.1c-.3 -.7 -.6 -1.4 -1 -2c-.4 -.6 -.9 -1.2 -1.5 -1.8c-.5 -.5 -1.1 -1 -1.7 -1.4c-.6 -.4 -1.3 -.8 -2 -1c-.7 -.3 -1.4 -.5 -2.1 -.7c-.8 -.1 -1.5 -.2 -2.3 -.2c-.7 0 -1.5 .1 -2.2 .2c-.7 .2 -1.4 .4 -2.1 .7c-.7 .2 -1.4 .6 -2 1c-.6 .4 -1.2 .9 -1.8 1.4c-.5 .6 -1 1.2 -1.4 1.8c-.4 .6 -.8 1.3 -1 2c-.3 .7 -.5 1.4 -.7 2.1c-.1 .8 -.2 1.5 -.2 2.2c0 .8 .1 1.5 .2 2.3c.2 .7 .4 1.4 .7 2.1c.2 .7 .6 1.4 1 2c.4 .6 .9 1.2 1.4 1.8c.6 .5 1.2 1 1.8 1.4c.6 .4 1.3 .7 2 1c.7 .3 1.4 .5 2.1 .7c.7 .1 1.5 .2 2.2 .2c.8 0 1.5 -.1 2.3 -.2c.7 -.2 1.4 -.4 2.1 -.7c.7 -.3 1.4 -.6 2 -1c.6 -.4 1.2 -.9 1.7 -1.4c.6 -.6 1.1 -1.2 1.5 -1.8c.4 -.6 .7 -1.3 1 -2c.3 -.7 .5 -1.4 .7 -2.1c.1 -.8 .2 -1.5 .2 -2.3Z" class="g2_304"/>
<path d="M470.3 546.4c0 -.8 0 -1.5 -.2 -2.3c-.1 -.7 -.3 -1.4 -.6 -2.1c-.3 -.7 -.7 -1.4 -1.1 -2c-.4 -.6 -.9 -1.2 -1.4 -1.7c-.5 -.6 -1.1 -1.1 -1.8 -1.5c-.6 -.4 -1.2 -.7 -1.9 -1c-.7 -.3 -1.4 -.5 -2.2 -.7c-.7 -.1 -1.5 -.2 -2.2 -.2c-.8 0 -1.5 .1 -2.3 .2c-.7 .2 -1.4 .4 -2.1 .7c-.7 .3 -1.4 .6 -2 1c-.6 .4 -1.2 .9 -1.7 1.5c-.6 .5 -1 1.1 -1.4 1.7c-.5 .6 -.8 1.3 -1.1 2c-.3 .7 -.5 1.4 -.7 2.1c-.1 .8 -.2 1.5 -.2 2.3c0 .7 .1 1.5 .2 2.2c.2 .7 .4 1.4 .7 2.1c.3 .7 .6 1.4 1.1 2c.4 .6 .8 1.2 1.4 1.8c.5 .5 1.1 1 1.7 1.4c.6 .4 1.3 .8 2 1c.7 .3 1.4 .5 2.1 .7c.8 .1 1.5 .2 2.3 .2c.7 0 1.5 -.1 2.2 -.2c.8 -.2 1.5 -.4 2.2 -.7c.7 -.2 1.3 -.6 1.9 -1c.7 -.4 1.3 -.9 1.8 -1.4c.5 -.6 1 -1.2 1.4 -1.8c.4 -.6 .8 -1.3 1.1 -2c.3 -.7 .5 -1.4 .6 -2.1c.2 -.7 .2 -1.5 .2 -2.2Z" class="g0_304"/>
<path d="M470.3 546.4c0 -.8 0 -1.5 -.2 -2.3c-.1 -.7 -.3 -1.4 -.6 -2.1c-.3 -.7 -.7 -1.4 -1.1 -2c-.4 -.6 -.9 -1.2 -1.4 -1.7c-.5 -.6 -1.1 -1.1 -1.8 -1.5c-.6 -.4 -1.2 -.7 -1.9 -1c-.7 -.3 -1.4 -.5 -2.2 -.7c-.7 -.1 -1.5 -.2 -2.2 -.2c-.8 0 -1.5 .1 -2.3 .2c-.7 .2 -1.4 .4 -2.1 .7c-.7 .3 -1.4 .6 -2 1c-.6 .4 -1.2 .9 -1.7 1.5c-.6 .5 -1 1.1 -1.4 1.7c-.5 .6 -.8 1.3 -1.1 2c-.3 .7 -.5 1.4 -.7 2.1c-.1 .8 -.2 1.5 -.2 2.3c0 .7 .1 1.5 .2 2.2c.2 .7 .4 1.4 .7 2.1c.3 .7 .6 1.4 1.1 2c.4 .6 .8 1.2 1.4 1.8c.5 .5 1.1 1 1.7 1.4c.6 .4 1.3 .8 2 1c.7 .3 1.4 .5 2.1 .7c.8 .1 1.5 .2 2.3 .2c.7 0 1.5 -.1 2.2 -.2c.8 -.2 1.5 -.4 2.2 -.7c.7 -.2 1.3 -.6 1.9 -1c.7 -.4 1.3 -.9 1.8 -1.4c.5 -.6 1 -1.2 1.4 -1.8c.4 -.6 .8 -1.3 1.1 -2c.3 -.7 .5 -1.4 .6 -2.1c.2 -.7 .2 -1.5 .2 -2.2Zm-196 -51L339 463.1" class="g2_304"/>
<path d="M344.4 460.4l-6 6l.6 -3.3l-3 -1.5l8.4 -1.2Z" class="g1_304"/>
<path d="M344.4 460.4l-6 6l.6 -3.3l-3 -1.5l8.4 -1.2Zm20 1.8l16.3 14.4" class="g2_304"/>
<path d="M385.2 480.6l-7.8 -3.3l3.3 -.7l.2 -3.3l4.3 7.3Z" class="g1_304"/>
<path d="M385.2 480.6l-7.8 -3.3l3.3 -.7l.2 -3.3l4.3 7.3Zm-36.3 65.8h91.2" class="g2_304"/>
<path d="M446.1 546.4l-8 2.6l2 -2.6l-2 -2.7l8 2.7Z" class="g1_304"/>
<path d="M446.1 546.4l-8 2.6l2 -2.6l-2 -2.7l8 2.7ZM405.7 485.7l46.7 -14.1" class="g2_304"/>
<path d="M458.2 469.8l-6.9 4.9l1.1 -3.1l-2.7 -2l8.5 .2Z" class="g1_304"/>
<path d="M458.2 469.8l-6.9 4.9l1.1 -3.1l-2.7 -2l8.5 .2Zm.7 -4.8l-84.5 -8.4" class="g2_304"/>
<path d="M368.4 456l8.3 -1.9l-2.3 2.5l1.8 2.8L368.4 456Z" class="g1_304"/>
<path d="M368.4 456l8.3 -1.9l-2.3 2.5l1.8 2.8L368.4 456Zm81.9 82.8L408.7 501.6" class="g2_304"/>
<path d="M404.2 497.6l7.8 3.3l-3.3 .7l-.3 3.3l-4.2 -7.3Z" class="g1_304"/>
<path d="M404.2 497.6l7.8 3.3l-3.3 .7l-.3 3.3l-4.2 -7.3Z" class="g2_304"/>
</g>
<g clip-path="url(#c3_304)">
<path d="M247.5 657.9H488.1V778.2H247.5V657.9Z" class="g0_304"/>
<path clip-path="url(#c1_304)" d="M248.1 658.5H488.7V778.8H248.1V658.5Z" class="g0_304"/>
<path d="M275.6 719.2c0 -.8 -.1 -1.5 -.3 -2.2c-.1 -.8 -.3 -1.5 -.6 -2.2c-.3 -.7 -.7 -1.4 -1.1 -2c-.4 -.6 -.9 -1.2 -1.4 -1.7c-.5 -.5 -1.1 -1 -1.7 -1.4c-.7 -.5 -1.3 -.8 -2 -1.1c-.7 -.3 -1.4 -.5 -2.2 -.6c-.7 -.2 -1.5 -.3 -2.2 -.3c-.8 0 -1.5 .1 -2.2 .3c-.8 .1 -1.5 .3 -2.2 .6c-.7 .3 -1.3 .6 -2 1.1c-.6 .4 -1.2 .9 -1.7 1.4c-.5 .5 -1 1.1 -1.4 1.7c-.5 .6 -.8 1.3 -1.1 2c-.3 .7 -.5 1.4 -.6 2.2c-.2 .7 -.3 1.4 -.3 2.2c0 .7 .1 1.5 .3 2.2c.1 .8 .3 1.5 .6 2.2c.3 .7 .6 1.3 1.1 2c.4 .6 .9 1.2 1.4 1.7c.5 .5 1.1 1 1.7 1.4c.7 .4 1.3 .8 2 1.1c.7 .3 1.4 .5 2.2 .6c.7 .2 1.4 .2 2.2 .2c.7 0 1.5 0 2.2 -.2c.8 -.1 1.5 -.3 2.2 -.6c.7 -.3 1.3 -.7 2 -1.1c.6 -.4 1.2 -.9 1.7 -1.4c.5 -.5 1 -1.1 1.4 -1.7c.4 -.7 .8 -1.3 1.1 -2c.3 -.7 .5 -1.4 .6 -2.2c.2 -.7 .3 -1.5 .3 -2.2Z" class="g1_304"/>
<path d="M275.6 719.2c0 -.8 -.1 -1.5 -.3 -2.2c-.1 -.8 -.3 -1.5 -.6 -2.2c-.3 -.7 -.7 -1.4 -1.1 -2c-.4 -.6 -.9 -1.2 -1.4 -1.7c-.5 -.5 -1.1 -1 -1.7 -1.4c-.7 -.5 -1.3 -.8 -2 -1.1c-.7 -.3 -1.4 -.5 -2.2 -.6c-.7 -.2 -1.5 -.3 -2.2 -.3c-.8 0 -1.5 .1 -2.2 .3c-.8 .1 -1.5 .3 -2.2 .6c-.7 .3 -1.3 .6 -2 1.1c-.6 .4 -1.2 .9 -1.7 1.4c-.5 .5 -1 1.1 -1.4 1.7c-.5 .6 -.8 1.3 -1.1 2c-.3 .7 -.5 1.4 -.6 2.2c-.2 .7 -.3 1.4 -.3 2.2c0 .7 .1 1.5 .3 2.2c.1 .8 .3 1.5 .6 2.2c.3 .7 .6 1.3 1.1 2c.4 .6 .9 1.2 1.4 1.7c.5 .5 1.1 1 1.7 1.4c.7 .4 1.3 .8 2 1.1c.7 .3 1.4 .5 2.2 .6c.7 .2 1.4 .2 2.2 .2c.7 0 1.5 0 2.2 -.2c.8 -.1 1.5 -.3 2.2 -.6c.7 -.3 1.3 -.7 2 -1.1c.6 -.4 1.2 -.9 1.7 -1.4c.5 -.5 1 -1.1 1.4 -1.7c.4 -.7 .8 -1.3 1.1 -2c.3 -.7 .5 -1.4 .6 -2.2c.2 -.7 .3 -1.5 .3 -2.2Z" class="g2_304"/>
<path d="M367.2 673.4c0 -.8 -.1 -1.5 -.2 -2.3c-.2 -.7 -.4 -1.4 -.7 -2.1c-.2 -.7 -.6 -1.4 -1 -2c-.4 -.6 -.9 -1.2 -1.4 -1.7c-.6 -.6 -1.2 -1.1 -1.8 -1.5c-.6 -.4 -1.3 -.7 -2 -1c-.7 -.3 -1.4 -.5 -2.1 -.7c-.7 -.1 -1.5 -.2 -2.2 -.2c-.8 0 -1.5 .1 -2.3 .2c-.7 .2 -1.4 .4 -2.1 .7c-.7 .3 -1.4 .6 -2 1c-.6 .4 -1.2 .9 -1.7 1.5c-.6 .5 -1.1 1.1 -1.5 1.7c-.4 .6 -.7 1.3 -1 2c-.3 .7 -.5 1.4 -.7 2.1c-.1 .8 -.2 1.5 -.2 2.3c0 .7 .1 1.5 .2 2.2c.2 .7 .4 1.4 .7 2.1c.3 .7 .6 1.4 1 2c.4 .6 .9 1.2 1.5 1.8c.5 .5 1.1 1 1.7 1.4c.6 .4 1.3 .8 2 1c.7 .3 1.4 .5 2.1 .7c.8 .1 1.5 .2 2.3 .2c.7 0 1.5 -.1 2.2 -.2c.7 -.2 1.4 -.4 2.1 -.7c.7 -.2 1.4 -.6 2 -1c.6 -.4 1.2 -.9 1.8 -1.4c.5 -.6 1 -1.2 1.4 -1.8c.4 -.6 .8 -1.3 1 -2c.3 -.7 .5 -1.4 .7 -2.1c.1 -.7 .2 -1.5 .2 -2.2Z" class="g0_304"/>
<path d="M367.2 673.4c0 -.8 -.1 -1.5 -.2 -2.3c-.2 -.7 -.4 -1.4 -.7 -2.1c-.2 -.7 -.6 -1.4 -1 -2c-.4 -.6 -.9 -1.2 -1.4 -1.7c-.6 -.6 -1.2 -1.1 -1.8 -1.5c-.6 -.4 -1.3 -.7 -2 -1c-.7 -.3 -1.4 -.5 -2.1 -.7c-.7 -.1 -1.5 -.2 -2.2 -.2c-.8 0 -1.5 .1 -2.3 .2c-.7 .2 -1.4 .4 -2.1 .7c-.7 .3 -1.4 .6 -2 1c-.6 .4 -1.2 .9 -1.7 1.5c-.6 .5 -1.1 1.1 -1.5 1.7c-.4 .6 -.7 1.3 -1 2c-.3 .7 -.5 1.4 -.7 2.1c-.1 .8 -.2 1.5 -.2 2.3c0 .7 .1 1.5 .2 2.2c.2 .7 .4 1.4 .7 2.1c.3 .7 .6 1.4 1 2c.4 .6 .9 1.2 1.5 1.8c.5 .5 1.1 1 1.7 1.4c.6 .4 1.3 .8 2 1c.7 .3 1.4 .5 2.1 .7c.8 .1 1.5 .2 2.3 .2c.7 0 1.5 -.1 2.2 -.2c.7 -.2 1.4 -.4 2.1 -.7c.7 -.2 1.4 -.6 2 -1c.6 -.4 1.2 -.9 1.8 -1.4c.5 -.6 1 -1.2 1.4 -1.8c.4 -.6 .8 -1.3 1 -2c.3 -.7 .5 -1.4 .7 -2.1c.1 -.7 .2 -1.5 .2 -2.2Z" class="g3_304"/>
<path d="M348.9 765c0 -.7 -.1 -1.5 -.2 -2.2c-.2 -.8 -.4 -1.5 -.7 -2.2c-.3 -.7 -.6 -1.3 -1 -1.9c-.5 -.7 -.9 -1.2 -1.5 -1.8c-.5 -.5 -1.1 -1 -1.7 -1.4c-.6 -.4 -1.3 -.8 -2 -1.1c-.7 -.3 -1.4 -.5 -2.1 -.6c-.8 -.2 -1.5 -.2 -2.3 -.2c-.7 0 -1.5 0 -2.2 .2c-.7 .1 -1.5 .3 -2.2 .6c-.7 .3 -1.3 .7 -1.9 1.1c-.7 .4 -1.2 .9 -1.8 1.4c-.5 .6 -1 1.1 -1.4 1.8c-.4 .6 -.8 1.2 -1.1 1.9c-.2 .7 -.5 1.4 -.6 2.2c-.2 .7 -.2 1.5 -.2 2.2c0 .8 0 1.5 .2 2.3c.1 .7 .4 1.4 .6 2.1c.3 .7 .7 1.4 1.1 2c.4 .6 .9 1.2 1.4 1.7c.6 .6 1.1 1 1.8 1.4c.6 .5 1.2 .8 1.9 1.1c.7 .3 1.5 .5 2.2 .7c.7 .1 1.5 .2 2.2 .2c.8 0 1.5 -.1 2.3 -.2c.7 -.2 1.4 -.4 2.1 -.7c.7 -.3 1.4 -.6 2 -1.1c.6 -.4 1.2 -.8 1.7 -1.4c.6 -.5 1 -1.1 1.5 -1.7c.4 -.6 .7 -1.3 1 -2c.3 -.7 .5 -1.4 .7 -2.1c.1 -.8 .2 -1.5 .2 -2.3Z" class="g0_304"/>
<path d="M348.9 765c0 -.7 -.1 -1.5 -.2 -2.2c-.2 -.8 -.4 -1.5 -.7 -2.2c-.3 -.7 -.6 -1.3 -1 -1.9c-.5 -.7 -.9 -1.2 -1.5 -1.8c-.5 -.5 -1.1 -1 -1.7 -1.4c-.6 -.4 -1.3 -.8 -2 -1.1c-.7 -.3 -1.4 -.5 -2.1 -.6c-.8 -.2 -1.5 -.2 -2.3 -.2c-.7 0 -1.5 0 -2.2 .2c-.7 .1 -1.5 .3 -2.2 .6c-.7 .3 -1.3 .7 -1.9 1.1c-.7 .4 -1.2 .9 -1.8 1.4c-.5 .6 -1 1.1 -1.4 1.8c-.4 .6 -.8 1.2 -1.1 1.9c-.2 .7 -.5 1.4 -.6 2.2c-.2 .7 -.2 1.5 -.2 2.2c0 .8 0 1.5 .2 2.3c.1 .7 .4 1.4 .6 2.1c.3 .7 .7 1.4 1.1 2c.4 .6 .9 1.2 1.4 1.7c.6 .6 1.1 1 1.8 1.4c.6 .5 1.2 .8 1.9 1.1c.7 .3 1.5 .5 2.2 .7c.7 .1 1.5 .2 2.2 .2c.8 0 1.5 -.1 2.3 -.2c.7 -.2 1.4 -.4 2.1 -.7c.7 -.3 1.4 -.6 2 -1.1c.6 -.4 1.2 -.8 1.7 -1.4c.6 -.5 1 -1.1 1.5 -1.7c.4 -.6 .7 -1.3 1 -2c.3 -.7 .5 -1.4 .7 -2.1c.1 -.8 .2 -1.5 .2 -2.3Z" class="g2_304"/>
<path d="M406.2 706.6c0 -.8 -.1 -1.5 -.2 -2.3c-.2 -.7 -.4 -1.4 -.7 -2.1c-.3 -.7 -.6 -1.4 -1.1 -2c-.4 -.6 -.8 -1.2 -1.4 -1.7c-.5 -.5 -1.1 -1 -1.7 -1.4c-.6 -.5 -1.3 -.8 -2 -1.1c-.7 -.3 -1.4 -.5 -2.1 -.7c-.8 -.1 -1.5 -.2 -2.3 -.2c-.7 0 -1.5 .1 -2.2 .2c-.8 .2 -1.5 .4 -2.2 .7c-.7 .3 -1.3 .6 -1.9 1.1c-.7 .4 -1.3 .9 -1.8 1.4c-.5 .5 -1 1.1 -1.4 1.7c-.4 .6 -.8 1.3 -1.1 2c-.3 .7 -.5 1.4 -.6 2.1c-.2 .8 -.2 1.5 -.2 2.3c0 .7 0 1.5 .2 2.2c.1 .8 .3 1.5 .6 2.2c.3 .7 .7 1.3 1.1 2c.4 .6 .9 1.2 1.4 1.7c.5 .5 1.1 1 1.8 1.4c.6 .4 1.2 .8 1.9 1.1c.7 .3 1.4 .5 2.2 .6c.7 .2 1.5 .2 2.2 .2c.8 0 1.5 0 2.3 -.2c.7 -.1 1.4 -.3 2.1 -.6c.7 -.3 1.4 -.7 2 -1.1c.6 -.4 1.2 -.9 1.7 -1.4c.6 -.5 1 -1.1 1.4 -1.7c.5 -.7 .8 -1.3 1.1 -2c.3 -.7 .5 -1.4 .7 -2.2c.1 -.7 .2 -1.5 .2 -2.2Z" class="g0_304"/>
<path d="M406.2 706.6c0 -.8 -.1 -1.5 -.2 -2.3c-.2 -.7 -.4 -1.4 -.7 -2.1c-.3 -.7 -.6 -1.4 -1.1 -2c-.4 -.6 -.8 -1.2 -1.4 -1.7c-.5 -.5 -1.1 -1 -1.7 -1.4c-.6 -.5 -1.3 -.8 -2 -1.1c-.7 -.3 -1.4 -.5 -2.1 -.7c-.8 -.1 -1.5 -.2 -2.3 -.2c-.7 0 -1.5 .1 -2.2 .2c-.8 .2 -1.5 .4 -2.2 .7c-.7 .3 -1.3 .6 -1.9 1.1c-.7 .4 -1.3 .9 -1.8 1.4c-.5 .5 -1 1.1 -1.4 1.7c-.4 .6 -.8 1.3 -1.1 2c-.3 .7 -.5 1.4 -.6 2.1c-.2 .8 -.2 1.5 -.2 2.3c0 .7 0 1.5 .2 2.2c.1 .8 .3 1.5 .6 2.2c.3 .7 .7 1.3 1.1 2c.4 .6 .9 1.2 1.4 1.7c.5 .5 1.1 1 1.8 1.4c.6 .4 1.2 .8 1.9 1.1c.7 .3 1.4 .5 2.2 .6c.7 .2 1.5 .2 2.2 .2c.8 0 1.5 0 2.3 -.2c.7 -.1 1.4 -.3 2.1 -.6c.7 -.3 1.4 -.7 2 -1.1c.6 -.4 1.2 -.9 1.7 -1.4c.6 -.5 1 -1.1 1.4 -1.7c.5 -.7 .8 -1.3 1.1 -2c.3 -.7 .5 -1.4 .7 -2.2c.1 -.7 .2 -1.5 .2 -2.2Z" class="g2_304"/>
<path d="M481.8 684.8c0 -.7 -.1 -1.5 -.2 -2.2c-.2 -.8 -.4 -1.5 -.7 -2.2c-.3 -.7 -.6 -1.3 -1 -2c-.4 -.6 -.9 -1.2 -1.5 -1.7c-.5 -.5 -1.1 -1 -1.7 -1.4c-.6 -.4 -1.3 -.8 -2 -1.1c-.7 -.3 -1.4 -.5 -2.1 -.6c-.8 -.2 -1.5 -.2 -2.3 -.2c-.7 0 -1.5 0 -2.2 .2c-.7 .1 -1.4 .3 -2.1 .6c-.7 .3 -1.4 .7 -2 1.1c-.6 .4 -1.2 .9 -1.8 1.4c-.5 .5 -1 1.1 -1.4 1.7c-.4 .7 -.8 1.3 -1 2c-.3 .7 -.5 1.4 -.7 2.2c-.1 .7 -.2 1.5 -.2 2.2c0 .8 .1 1.5 .2 2.2c.2 .8 .4 1.5 .7 2.2c.2 .7 .6 1.4 1 2c.4 .6 .9 1.2 1.4 1.7c.6 .5 1.2 1 1.8 1.4c.6 .5 1.3 .8 2 1.1c.7 .3 1.4 .5 2.1 .7c.7 .1 1.5 .2 2.2 .2c.8 0 1.5 -.1 2.3 -.2c.7 -.2 1.4 -.4 2.1 -.7c.7 -.3 1.4 -.6 2 -1.1c.6 -.4 1.2 -.9 1.7 -1.4c.6 -.5 1.1 -1.1 1.5 -1.7c.4 -.6 .7 -1.3 1 -2c.3 -.7 .5 -1.4 .7 -2.2c.1 -.7 .2 -1.4 .2 -2.2Z" class="g0_304"/>
<path d="M481.8 684.8c0 -.7 -.1 -1.5 -.2 -2.2c-.2 -.8 -.4 -1.5 -.7 -2.2c-.3 -.7 -.6 -1.3 -1 -2c-.4 -.6 -.9 -1.2 -1.5 -1.7c-.5 -.5 -1.1 -1 -1.7 -1.4c-.6 -.4 -1.3 -.8 -2 -1.1c-.7 -.3 -1.4 -.5 -2.1 -.6c-.8 -.2 -1.5 -.2 -2.3 -.2c-.7 0 -1.5 0 -2.2 .2c-.7 .1 -1.4 .3 -2.1 .6c-.7 .3 -1.4 .7 -2 1.1c-.6 .4 -1.2 .9 -1.8 1.4c-.5 .5 -1 1.1 -1.4 1.7c-.4 .7 -.8 1.3 -1 2c-.3 .7 -.5 1.4 -.7 2.2c-.1 .7 -.2 1.5 -.2 2.2c0 .8 .1 1.5 .2 2.2c.2 .8 .4 1.5 .7 2.2c.2 .7 .6 1.4 1 2c.4 .6 .9 1.2 1.4 1.7c.6 .5 1.2 1 1.8 1.4c.6 .5 1.3 .8 2 1.1c.7 .3 1.4 .5 2.1 .7c.7 .1 1.5 .2 2.2 .2c.8 0 1.5 -.1 2.3 -.2c.7 -.2 1.4 -.4 2.1 -.7c.7 -.3 1.4 -.6 2 -1.1c.6 -.4 1.2 -.9 1.7 -1.4c.6 -.5 1.1 -1.1 1.5 -1.7c.4 -.6 .7 -1.3 1 -2c.3 -.7 .5 -1.4 .7 -2.2c.1 -.7 .2 -1.4 .2 -2.2Z" class="g2_304"/>
<path d="M470.3 765c0 -.7 0 -1.5 -.2 -2.2c-.1 -.8 -.3 -1.5 -.6 -2.2c-.3 -.7 -.7 -1.3 -1.1 -1.9c-.4 -.7 -.9 -1.2 -1.4 -1.8c-.5 -.5 -1.1 -1 -1.8 -1.4c-.6 -.4 -1.2 -.8 -1.9 -1.1c-.7 -.3 -1.4 -.5 -2.2 -.6c-.7 -.2 -1.5 -.2 -2.2 -.2c-.8 0 -1.5 0 -2.3 .2c-.7 .1 -1.4 .3 -2.1 .6c-.7 .3 -1.4 .7 -2 1.1c-.6 .4 -1.2 .9 -1.7 1.4c-.6 .6 -1 1.1 -1.4 1.8c-.5 .6 -.8 1.2 -1.1 1.9c-.3 .7 -.5 1.4 -.7 2.2c-.1 .7 -.2 1.5 -.2 2.2c0 .8 .1 1.5 .2 2.3c.2 .7 .4 1.4 .7 2.1c.3 .7 .6 1.4 1.1 2c.4 .6 .8 1.2 1.4 1.7c.5 .6 1.1 1 1.7 1.4c.6 .5 1.3 .8 2 1.1c.7 .3 1.4 .5 2.1 .7c.8 .1 1.5 .2 2.3 .2c.7 0 1.5 -.1 2.2 -.2c.8 -.2 1.5 -.4 2.2 -.7c.7 -.3 1.3 -.6 1.9 -1.1c.7 -.4 1.3 -.8 1.8 -1.4c.5 -.5 1 -1.1 1.4 -1.7c.4 -.6 .8 -1.3 1.1 -2c.3 -.7 .5 -1.4 .6 -2.1c.2 -.8 .2 -1.5 .2 -2.3Z" class="g0_304"/>
<path d="M470.3 765c0 -.7 0 -1.5 -.2 -2.2c-.1 -.8 -.3 -1.5 -.6 -2.2c-.3 -.7 -.7 -1.3 -1.1 -1.9c-.4 -.7 -.9 -1.2 -1.4 -1.8c-.5 -.5 -1.1 -1 -1.8 -1.4c-.6 -.4 -1.2 -.8 -1.9 -1.1c-.7 -.3 -1.4 -.5 -2.2 -.6c-.7 -.2 -1.5 -.2 -2.2 -.2c-.8 0 -1.5 0 -2.3 .2c-.7 .1 -1.4 .3 -2.1 .6c-.7 .3 -1.4 .7 -2 1.1c-.6 .4 -1.2 .9 -1.7 1.4c-.6 .6 -1 1.1 -1.4 1.8c-.5 .6 -.8 1.2 -1.1 1.9c-.3 .7 -.5 1.4 -.7 2.2c-.1 .7 -.2 1.5 -.2 2.2c0 .8 .1 1.5 .2 2.3c.2 .7 .4 1.4 .7 2.1c.3 .7 .6 1.4 1.1 2c.4 .6 .8 1.2 1.4 1.7c.5 .6 1.1 1 1.7 1.4c.6 .5 1.3 .8 2 1.1c.7 .3 1.4 .5 2.1 .7c.8 .1 1.5 .2 2.3 .2c.7 0 1.5 -.1 2.2 -.2c.8 -.2 1.5 -.4 2.2 -.7c.7 -.3 1.3 -.6 1.9 -1.1c.7 -.4 1.3 -.8 1.8 -1.4c.5 -.5 1 -1.1 1.4 -1.7c.4 -.6 .8 -1.3 1.1 -2c.3 -.7 .5 -1.4 .6 -2.1c.2 -.8 .2 -1.5 .2 -2.3ZM345.5 678.5l-64.6 32.3" class="g2_304"/>
<path d="M275.5 713.5l6 -6l-.6 3.3l3 1.5l-8.4 1.2Z" class="g1_304"/>
<path d="M275.5 713.5l6 -6l-.6 3.3l3 1.5l-8.4 1.2Zm69.9 43.3L381.6 720" class="g2_304"/>
<path d="M385.8 715.7l-3.7 7.6l-.5 -3.3l-3.3 -.5l7.5 -3.8Z" class="g1_304"/>
<path d="M385.8 715.7l-3.7 7.6l-.5 -3.3l-3.3 -.5l7.5 -3.8Zm.3 -16.6L370 685.5" class="g2_304"/>
<path d="M365.5 681.6l7.8 3.2l-3.3 .7l-.2 3.3l-4.3 -7.2Z" class="g1_304"/>
<path d="M365.5 681.6l7.8 3.2l-3.3 .7l-.2 3.3l-4.3 -7.2ZM447.4 765H356.2" class="g2_304"/>
<path d="M350.2 765l8 -2.6l-2 2.6l2 2.7l-8 -2.7Z" class="g1_304"/>
<path d="M350.2 765l8 -2.6l-2 2.6l2 2.7l-8 -2.7ZM460.5 690.7l-107 64.6" class="g2_304"/>
<path d="M348.3 758.4l5.5 -6.4l-.3 3.3l3.1 1.3l-8.3 1.8Z" class="g1_304"/>
<path d="M348.3 758.4l5.5 -6.4l-.3 3.3l3.1 1.3l-8.3 1.8Z" class="g2_304"/>
</g>
</svg>