<?xml version="1.0" encoding="UTF-8" standalone="no"?>
<!DOCTYPE svg PUBLIC "-//W3C//DTD SVG 1.1//EN"
"http://www.w3.org/Graphics/SVG/1.1/DTD/svg11.dtd">
<svg viewBox="0 0 714 1017" version="1.1" xmlns="http://www.w3.org/2000/svg" xmlns:xlink="http://www.w3.org/1999/xlink">
<defs>
<clipPath id="c0_57"><path d="M114.9 400.2v-291H577.8v291Z"/></clipPath>
<clipPath id="c1_57"><path d="M114.9 401V107.7H579.4V401Z"/></clipPath>
<style type="text/css"><![CDATA[
.g0_57{
fill: #FFF;
}
.g1_57{
fill: none;
stroke: #000;
stroke-width: 1.145;
stroke-miterlimit: 10;
}
.g2_57{
fill: #000;
}
]]></style>
</defs>
<path d="M0 1017.7H717.2V-3.7H0V1017.7Z" class="g0_57"/>
<g clip-path="url(#c1_57)">
<path d="M114.9 109.2H577.8v291H114.9v-291Z" class="g0_57"/>
<path d="M124.7 235.8h119c.6 0 1.2 .1 1.8 .2c.6 .1 1.2 .3 1.8 .5c.5 .2 1.1 .5 1.6 .9c.5 .3 .9 .7 1.4 1.1c.4 .4 .8 .9 1.1 1.4c.4 .5 .6 1.1 .9 1.6c.2 .6 .4 1.2 .5 1.8c.1 .5 .2 1.2 .2 1.8v43.2c0 .6 -.1 1.2 -.2 1.8c-.1 .6 -.3 1.2 -.5 1.8c-.3 .5 -.5 1.1 -.9 1.6c-.3 .5 -.7 1 -1.1 1.4c-.5 .4 -.9 .8 -1.4 1.1c-.5 .4 -1.1 .7 -1.6 .9c-.6 .2 -1.2 .4 -1.8 .5c-.6 .1 -1.2 .2 -1.8 .2h-119c-.6 0 -1.2 -.1 -1.8 -.2c-.6 -.1 -1.1 -.3 -1.7 -.5c-.6 -.2 -1.1 -.5 -1.6 -.9c-.5 -.3 -1 -.7 -1.4 -1.1c-.4 -.4 -.8 -.9 -1.2 -1.4c-.3 -.5 -.6 -1.1 -.8 -1.6c-.2 -.6 -.4 -1.2 -.5 -1.8c-.2 -.6 -.2 -1.2 -.2 -1.8V245.1c0 -.6 0 -1.3 .2 -1.8c.1 -.6 .3 -1.2 .5 -1.8c.2 -.5 .5 -1.1 .8 -1.6c.4 -.5 .8 -1 1.2 -1.4c.4 -.4 .9 -.8 1.4 -1.1c.5 -.4 1 -.7 1.6 -.9c.6 -.2 1.1 -.4 1.7 -.5c.6 -.1 1.2 -.2 1.8 -.2Z" class="g0_57"/>
<path clip-path="url(#c0_57)" d="M124.7 235.8h119c.6 0 1.2 .1 1.8 .2c.6 .1 1.2 .3 1.8 .5c.5 .2 1.1 .5 1.6 .9c.5 .3 .9 .7 1.4 1.1c.4 .4 .8 .9 1.1 1.4c.4 .5 .6 1.1 .9 1.6c.2 .6 .4 1.2 .5 1.8c.1 .5 .2 1.2 .2 1.8v43.2c0 .6 -.1 1.2 -.2 1.8c-.1 .6 -.3 1.2 -.5 1.8c-.3 .5 -.5 1.1 -.9 1.6c-.3 .5 -.7 1 -1.1 1.4c-.5 .4 -.9 .8 -1.4 1.1c-.5 .4 -1.1 .7 -1.6 .9c-.6 .2 -1.2 .4 -1.8 .5c-.6 .1 -1.2 .2 -1.8 .2h-119c-.6 0 -1.2 -.1 -1.8 -.2c-.6 -.1 -1.1 -.3 -1.7 -.5c-.6 -.2 -1.1 -.5 -1.6 -.9c-.5 -.3 -1 -.7 -1.4 -1.1c-.4 -.4 -.8 -.9 -1.2 -1.4c-.3 -.5 -.6 -1.1 -.8 -1.6c-.2 -.6 -.4 -1.2 -.5 -1.8c-.2 -.6 -.2 -1.2 -.2 -1.8V245.1c0 -.6 0 -1.3 .2 -1.8c.1 -.6 .3 -1.2 .5 -1.8c.2 -.5 .5 -1.1 .8 -1.6c.4 -.5 .8 -1 1.2 -1.4c.4 -.4 .9 -.8 1.4 -1.1c.5 -.4 1 -.7 1.6 -.9c.6 -.2 1.1 -.4 1.7 -.5c.6 -.1 1.2 -.2 1.8 -.2Zm-9.4 27.5H252.8" class="g1_57"/>
<path d="M457 235.8H565.7c.6 0 1.2 .1 1.8 .2c.6 .1 1.2 .3 1.7 .5c.6 .2 1.1 .5 1.6 .9c.5 .3 1 .7 1.4 1.1c.5 .4 .9 .9 1.2 1.4c.3 .5 .6 1.1 .9 1.6c.2 .6 .4 1.2 .5 1.8c.1 .5 .2 1.2 .2 1.8v43.2c0 .6 -.1 1.2 -.2 1.8c-.1 .6 -.3 1.2 -.5 1.8c-.3 .5 -.6 1.1 -.9 1.6c-.3 .5 -.7 1 -1.2 1.4c-.4 .4 -.9 .8 -1.4 1.1c-.5 .4 -1 .7 -1.6 .9c-.5 .2 -1.1 .4 -1.7 .5c-.6 .1 -1.2 .2 -1.8 .2H457c-.6 0 -1.2 -.1 -1.8 -.2c-.6 -.1 -1.1 -.3 -1.7 -.5c-.6 -.2 -1.1 -.5 -1.6 -.9c-.5 -.3 -1 -.7 -1.4 -1.1c-.4 -.4 -.8 -.9 -1.2 -1.4c-.3 -.5 -.6 -1.1 -.8 -1.6c-.3 -.6 -.4 -1.2 -.6 -1.8c-.1 -.6 -.1 -1.2 -.1 -1.8V245.1c0 -.6 0 -1.3 .1 -1.8c.2 -.6 .3 -1.2 .6 -1.8c.2 -.5 .5 -1.1 .8 -1.6c.4 -.5 .8 -1 1.2 -1.4c.4 -.4 .9 -.8 1.4 -1.1c.5 -.4 1 -.7 1.6 -.9c.6 -.2 1.1 -.4 1.7 -.5c.6 -.1 1.2 -.2 1.8 -.2Z" class="g0_57"/>
<path d="M457 235.8H565.7c.6 0 1.2 .1 1.8 .2c.6 .1 1.2 .3 1.7 .5c.6 .2 1.1 .5 1.6 .9c.5 .3 1 .7 1.4 1.1c.5 .4 .9 .9 1.2 1.4c.3 .5 .6 1.1 .9 1.6c.2 .6 .4 1.2 .5 1.8c.1 .5 .2 1.2 .2 1.8v43.2c0 .6 -.1 1.2 -.2 1.8c-.1 .6 -.3 1.2 -.5 1.8c-.3 .5 -.6 1.1 -.9 1.6c-.3 .5 -.7 1 -1.2 1.4c-.4 .4 -.9 .8 -1.4 1.1c-.5 .4 -1 .7 -1.6 .9c-.5 .2 -1.1 .4 -1.7 .5c-.6 .1 -1.2 .2 -1.8 .2H457c-.6 0 -1.2 -.1 -1.8 -.2c-.6 -.1 -1.1 -.3 -1.7 -.5c-.6 -.2 -1.1 -.5 -1.6 -.9c-.5 -.3 -1 -.7 -1.4 -1.1c-.4 -.4 -.8 -.9 -1.2 -1.4c-.3 -.5 -.6 -1.1 -.8 -1.6c-.3 -.6 -.4 -1.2 -.6 -1.8c-.1 -.6 -.1 -1.2 -.1 -1.8V245.1c0 -.6 0 -1.3 .1 -1.8c.2 -.6 .3 -1.2 .6 -1.8c.2 -.5 .5 -1.1 .8 -1.6c.4 -.5 .8 -1 1.2 -1.4c.4 -.4 .9 -.8 1.4 -1.1c.5 -.4 1 -.7 1.6 -.9c.6 -.2 1.1 -.4 1.7 -.5c.6 -.1 1.2 -.2 1.8 -.2Zm-9.2 28.6H575m-322 2.3H440.5" class="g1_57"/>
<path d="M446.5 266.7l-8 2.7l2 -2.7l-2 -2.7l8 2.7Z" class="g2_57"/>
<path d="M446.5 266.7l-8 2.7l2 -2.7l-2 -2.7l8 2.7Z" class="g1_57"/>
<path d="M124.8 335.5H243.4c.6 0 1.2 0 1.8 .2c.6 .1 1.2 .3 1.8 .5c.6 .2 1.1 .5 1.6 .9c.5 .3 1 .7 1.5 1.1c.4 .5 .8 1 1.1 1.5c.4 .5 .7 1 .9 1.6c.2 .6 .4 1.2 .5 1.8c.2 .6 .2 1.2 .2 1.8V389c0 .7 0 1.3 -.2 1.9c-.1 .6 -.3 1.2 -.5 1.8c-.2 .5 -.5 1.1 -.9 1.6c-.3 .5 -.7 1 -1.1 1.4c-.5 .5 -1 .9 -1.5 1.2c-.5 .4 -1 .6 -1.6 .9c-.6 .2 -1.2 .4 -1.8 .5c-.6 .1 -1.2 .2 -1.8 .2H124.8c-.6 0 -1.3 -.1 -1.9 -.2c-.6 -.1 -1.2 -.3 -1.7 -.5c-.6 -.3 -1.2 -.5 -1.7 -.9c-.5 -.3 -1 -.7 -1.4 -1.2c-.4 -.4 -.8 -.9 -1.2 -1.4c-.3 -.5 -.6 -1.1 -.8 -1.6c-.3 -.6 -.5 -1.2 -.6 -1.8c-.1 -.6 -.2 -1.2 -.2 -1.9V344.9c0 -.6 .1 -1.2 .2 -1.8c.1 -.6 .3 -1.2 .6 -1.8c.2 -.6 .5 -1.1 .8 -1.6c.4 -.5 .8 -1 1.2 -1.5c.4 -.4 .9 -.8 1.4 -1.1c.5 -.4 1.1 -.7 1.7 -.9c.5 -.2 1.1 -.4 1.7 -.5c.6 -.2 1.3 -.2 1.9 -.2Z" class="g0_57"/>
<path clip-path="url(#c0_57)" d="M124.8 335.5H243.4c.6 0 1.2 0 1.8 .2c.6 .1 1.2 .3 1.8 .5c.6 .2 1.1 .5 1.6 .9c.5 .3 1 .7 1.5 1.1c.4 .5 .8 1 1.1 1.5c.4 .5 .7 1 .9 1.6c.2 .6 .4 1.2 .5 1.8c.2 .6 .2 1.2 .2 1.8V389c0 .7 0 1.3 -.2 1.9c-.1 .6 -.3 1.2 -.5 1.8c-.2 .5 -.5 1.1 -.9 1.6c-.3 .5 -.7 1 -1.1 1.4c-.5 .5 -1 .9 -1.5 1.2c-.5 .4 -1 .6 -1.6 .9c-.6 .2 -1.2 .4 -1.8 .5c-.6 .1 -1.2 .2 -1.8 .2H124.8c-.6 0 -1.3 -.1 -1.9 -.2c-.6 -.1 -1.2 -.3 -1.7 -.5c-.6 -.3 -1.2 -.5 -1.7 -.9c-.5 -.3 -1 -.7 -1.4 -1.2c-.4 -.4 -.8 -.9 -1.2 -1.4c-.3 -.5 -.6 -1.1 -.8 -1.6c-.3 -.6 -.5 -1.2 -.6 -1.8c-.1 -.6 -.2 -1.2 -.2 -1.9V344.9c0 -.6 .1 -1.2 .2 -1.8c.1 -.6 .3 -1.2 .6 -1.8c.2 -.6 .5 -1.1 .8 -1.6c.4 -.5 .8 -1 1.2 -1.5c.4 -.4 .9 -.8 1.4 -1.1c.5 -.4 1.1 -.7 1.7 -.9c.5 -.2 1.1 -.4 1.7 -.5c.6 -.2 1.3 -.2 1.9 -.2ZM115.3 363H252.8M184.1 296.5v31.7" class="g1_57"/>
<path d="M184.1 334.2l-2.7 -8l2.7 2l2.7 -2l-2.7 8Z" class="g2_57"/>
<path d="M184.1 334.2l-2.7 -8l2.7 2l2.7 -2l-2.7 8Z" class="g1_57"/>
<path d="M169.3 304.5h31v16.1h-31V304.5Z" class="g0_57"/>
<path d="M281.4 109.6h131c.7 0 1.3 .1 1.9 .2c.6 .1 1.2 .3 1.8 .5c.5 .3 1.1 .6 1.6 .9c.5 .4 1 .7 1.4 1.2c.5 .4 .9 .9 1.2 1.4c.4 .5 .7 1.1 .9 1.7c.2 .5 .4 1.1 .5 1.7c.2 .6 .2 1.3 .2 1.9v44.2c0 .6 0 1.2 -.2 1.8c-.1 .7 -.3 1.2 -.5 1.8c-.2 .6 -.5 1.1 -.9 1.7c-.3 .5 -.7 1 -1.2 1.4c-.4 .4 -.9 .8 -1.4 1.2c-.5 .3 -1.1 .6 -1.6 .8c-.6 .3 -1.2 .5 -1.8 .6c-.6 .1 -1.2 .2 -1.9 .2h-131c-.6 0 -1.2 -.1 -1.8 -.2c-.6 -.1 -1.2 -.3 -1.8 -.6c-.6 -.2 -1.1 -.5 -1.6 -.8c-.6 -.4 -1 -.8 -1.5 -1.2c-.4 -.4 -.8 -.9 -1.1 -1.4c-.4 -.6 -.7 -1.1 -.9 -1.7c-.3 -.6 -.4 -1.1 -.6 -1.8c-.1 -.6 -.1 -1.2 -.1 -1.8V119.1c0 -.6 0 -1.3 .1 -1.9c.2 -.6 .3 -1.2 .6 -1.7c.2 -.6 .5 -1.2 .9 -1.7c.3 -.5 .7 -1 1.1 -1.4c.5 -.5 .9 -.8 1.5 -1.2c.5 -.3 1 -.6 1.6 -.9c.6 -.2 1.2 -.4 1.8 -.5c.6 -.1 1.2 -.2 1.8 -.2Z" class="g0_57"/>
<path d="M281.4 109.6h131c.7 0 1.3 .1 1.9 .2c.6 .1 1.2 .3 1.8 .5c.5 .3 1.1 .6 1.6 .9c.5 .4 1 .7 1.4 1.2c.5 .4 .9 .9 1.2 1.4c.4 .5 .7 1.1 .9 1.7c.2 .5 .4 1.1 .5 1.7c.2 .6 .2 1.3 .2 1.9v44.2c0 .6 0 1.2 -.2 1.8c-.1 .7 -.3 1.2 -.5 1.8c-.2 .6 -.5 1.1 -.9 1.7c-.3 .5 -.7 1 -1.2 1.4c-.4 .4 -.9 .8 -1.4 1.2c-.5 .3 -1.1 .6 -1.6 .8c-.6 .3 -1.2 .5 -1.8 .6c-.6 .1 -1.2 .2 -1.9 .2h-131c-.6 0 -1.2 -.1 -1.8 -.2c-.6 -.1 -1.2 -.3 -1.8 -.6c-.6 -.2 -1.1 -.5 -1.6 -.8c-.6 -.4 -1 -.8 -1.5 -1.2c-.4 -.4 -.8 -.9 -1.1 -1.4c-.4 -.6 -.7 -1.1 -.9 -1.7c-.3 -.6 -.4 -1.1 -.6 -1.8c-.1 -.6 -.1 -1.2 -.1 -1.8V119.1c0 -.6 0 -1.3 .1 -1.9c.2 -.6 .3 -1.2 .6 -1.7c.2 -.6 .5 -1.2 .9 -1.7c.3 -.5 .7 -1 1.1 -1.4c.5 -.5 .9 -.8 1.5 -1.2c.5 -.3 1 -.6 1.6 -.9c.6 -.2 1.2 -.4 1.8 -.5c.6 -.1 1.2 -.2 1.8 -.2ZM272 137.1H421.9M184.2 235.8L340.1 175.4" class="g1_57"/>
<path d="M345.7 173.2l-6.5 5.4l.9 -3.2l-2.8 -1.8l8.4 -.4Z" class="g2_57"/>
<path d="M345.7 173.2l-6.5 5.4l.9 -3.2l-2.8 -1.8l8.4 -.4Z" class="g1_57"/>
<path d="M238.1 180.8h68.7v22.9H238.1V180.8Z" class="g0_57"/>
<path d="M203.7 207.1H341.2v23H203.7v-23Z" class="g0_57"/>
</g>
</svg>