<?xml version="1.0" encoding="UTF-8" standalone="no"?>
<!DOCTYPE svg PUBLIC "-//W3C//DTD SVG 1.1//EN"
"http://www.w3.org/Graphics/SVG/1.1/DTD/svg11.dtd">
<svg viewBox="0 0 714 1017" version="1.1" xmlns="http://www.w3.org/2000/svg" xmlns:xlink="http://www.w3.org/1999/xlink">
<defs>
<clipPath id="c0_238"><path d="M88.5 443.1V290.7H647.7V443.1Z"/></clipPath>
<clipPath id="c1_238"><path d="M88.5 443.6V289.3H647.7V443.6Z"/></clipPath>
<style type="text/css"><![CDATA[
.g0_238{
fill: #FFF;
}
.g1_238{
fill: none;
stroke: #000;
stroke-width: 0.76;
stroke-miterlimit: 10;
}
.g2_238{
fill: none;
stroke: #000;
stroke-width: 1.145;
stroke-miterlimit: 10;
}
.g3_238{
fill: #000;
}
.g4_238{
fill: none;
stroke: #000;
stroke-width: 1.217;
stroke-miterlimit: 10;
}
]]></style>
</defs>
<path d="M0 1017.7H717.2V-3.7H0V1017.7Z" class="g0_238"/>
<path d="M104.9 120.8H645.6M104.9 164.6H645.6M104.9 208.5H645.6M104.9 235H645.6" class="g1_238"/>
<path d="M104.9 279.1H645.6" class="g4_238"/>
<g clip-path="url(#c1_238)">
<path clip-path="url(#c0_238)" d="M88.5 290.7H647.7V443.1H88.5V290.7Z" class="g0_238"/>
<path d="M97.1 407H319" class="g2_238"/>
<path d="M325 407l-8 4l2 -4l-2 -4l8 4Z" class="g3_238"/>
<path d="M325 407l-8 4l2 -4l-2 -4l8 4ZM108.6 361.2v38.5" class="g2_238"/>
<path d="M108.6 405.7l-2.7 -8l2.7 2l2.6 -2l-2.6 8Z" class="g3_238"/>
<path d="M108.6 405.7l-2.7 -8l2.7 2l2.6 -2l-2.6 8ZM234.3 361.2v38.5" class="g2_238"/>
<path d="M234.3 405.7l-2.7 -8l2.7 2l2.7 -2l-2.7 8Z" class="g3_238"/>
<path d="M234.3 405.7l-2.7 -8l2.7 2l2.7 -2l-2.7 8Zm45.8 -44.5v38.5" class="g2_238"/>
<path d="M280.1 405.7l-2.6 -8l2.6 2l2.7 -2l-2.7 8Z" class="g3_238"/>
<path d="M280.1 405.7l-2.6 -8l2.6 2l2.7 -2l-2.7 8Zm.4 7V417c0 2.9 -3.9 4.3 -11.5 4.3H206c-7.7 0 -11.5 1.5 -11.5 4.3v2.2c0 1.4 0 .7 0 -2.2v-2.1c0 -1.5 -3.8 -2.2 -11.4 -2.2H120c-7.6 0 -11.4 -1.4 -11.4 -4.3v-4.3M406.5 407H628.4" class="g2_238"/>
<path d="M634.4 407l-8 4l2 -4l-2 -4l8 4Z" class="g3_238"/>
<path d="M634.4 407l-8 4l2 -4l-2 -4l8 4ZM418 361.2v38.5" class="g2_238"/>
<path d="M418 405.7l-2.7 -8l2.7 2l2.6 -2l-2.6 8Z" class="g3_238"/>
<path d="M418 405.7l-2.7 -8l2.7 2l2.6 -2l-2.6 8ZM543.7 361.2v38.5" class="g2_238"/>
<path d="M543.7 405.7l-2.7 -8l2.7 2l2.6 -2l-2.6 8Z" class="g3_238"/>
<path d="M543.7 405.7l-2.7 -8l2.7 2l2.6 -2l-2.6 8Zm45.8 -44.5v38.5" class="g2_238"/>
<path d="M589.5 405.7l-2.7 -8l2.7 2l2.7 -2l-2.7 8Z" class="g3_238"/>
<path d="M589.5 405.7l-2.7 -8l2.7 2l2.7 -2l-2.7 8Zm.3 7V417c0 2.9 -3.8 4.3 -11.4 4.3h-5.8c-3.8 0 -5.7 1.5 -5.7 4.3v2.2c0 1.4 0 .7 0 -2.2v-2.1c0 -1.5 -3.8 -2.2 -11.4 -2.2h-5.8c-3.8 0 -5.7 -1.4 -5.7 -4.3v-4.3" class="g2_238"/>
</g>
</svg>