<?xml version="1.0" encoding="UTF-8" standalone="no"?>
<!DOCTYPE svg PUBLIC "-//W3C//DTD SVG 1.1//EN"
"http://www.w3.org/Graphics/SVG/1.1/DTD/svg11.dtd">
<svg viewBox="0 0 714 1017" version="1.1" xmlns="http://www.w3.org/2000/svg" xmlns:xlink="http://www.w3.org/1999/xlink">
<defs>
<clipPath id="c0_134"><path d="M87.1 457.6V234.7H649.3V457.6Z"/></clipPath>
<clipPath id="c1_134"><path d="M90.5 326.4V296.6h29.8v29.8Z"/></clipPath>
<clipPath id="c2_134"><path d="M147.1 347.7V311.9h31.2v35.8Z"/></clipPath>
<clipPath id="c3_134"><path d="M387.5 381.4V347h34.3v34.4Z"/></clipPath>
<clipPath id="c4_134"><path d="M147.1 452V416.1h31.2V452Z"/></clipPath>
<clipPath id="c5_134"><path d="M284.3 399.3V363.5h31.2v35.8Z"/></clipPath>
<clipPath id="c6_134"><path d="M547.7 310.3V280.5h29.8v29.8Z"/></clipPath>
<clipPath id="c7_134"><path d="M590.7 313.1V277.3h31.1v35.8Z"/></clipPath>
<clipPath id="c8_134"><path d="M547.7 379.1V349.3h29.8v29.8Z"/></clipPath>
<clipPath id="c9_134"><path d="M590.7 381.9V346h31.1v35.9Z"/></clipPath>
<clipPath id="ca_134"><path d="M547.7 448.9V419.2h29.8v29.7Z"/></clipPath>
<clipPath id="cb_134"><path d="M590.7 451.7V415.9h31.1v35.8Z"/></clipPath>
<clipPath id="cc_134"><path d="M90.5 430.6V400.8h29.8v29.8Z"/></clipPath>
<clipPath id="cd_134"><path d="M227.4 377.9V348.2h29.8v29.7Z"/></clipPath>
<clipPath id="ce_134"><path d="M387.5 312.6V278.3h34.3v34.3Z"/></clipPath>
<clipPath id="cf_134"><path d="M87.1 457.6v-223H649.3v223Z"/></clipPath>
<style type="text/css"><![CDATA[
.g0_134{
fill: #FFF;
}
.g1_134{
fill: none;
stroke: #000;
stroke-width: 2.291;
stroke-miterlimit: 10;
}
.g2_134{
fill: none;
stroke: #000;
stroke-width: 1.145;
stroke-miterlimit: 10;
}
.g3_134{
fill: #000;
}
.g4_134{
fill: none;
stroke: #000;
stroke-width: 1.217;
stroke-miterlimit: 10;
}
.g5_134{
fill: none;
stroke: #000;
stroke-width: 1.156;
stroke-miterlimit: 10;
}
.g6_134{
fill: none;
stroke: #000;
stroke-width: 0.76;
stroke-miterlimit: 10;
}
]]></style>
</defs>
<path d="M0 1017.7H717.2V-3.7H0V1017.7Z" class="g0_134"/>
<g clip-path="url(#cf_134)">
<path clip-path="url(#c0_134)" d="M87.1 234.7H649.7V458.2H87.1V234.7Z" class="g0_134"/>
<path d="M225.7 324.7H340.9v80.2H225.7V324.7Zm156.6 17.2h119v45.8h-119V341.9ZM88.8 273.1H203.4v80.2H88.8V273.1Z" class="g1_134"/>
<path d="M123.2 307.5h80.2v45.8H123.2V307.5Z" class="g2_134"/>
<path clip-path="url(#c1_134)" d="M105.2 302.1c-1.3 1 -2.9 2.1 -3.7 3.9c-1.5 3.1 2.9 6.6 3.1 6.7q.1 .1 .2 .1c0 0 .1 0 .1 -.1c.1 0 .1 -.2 .1 -.3c0 0 -1.6 -3.1 -1.6 -5.3c.1 -.8 1.1 -1.6 2.3 -2.5c1 -.9 2.2 -1.9 2.9 -3c1.5 -2.5 -.2 -4.9 -.2 -4.9c0 -.1 -.2 -.1 -.3 -.1c-.1 .1 -.1 .2 -.1 .3c0 0 .3 1.6 -.6 3.3c-.4 .6 -1.2 1.2 -2.2 1.9Z" class="g3_134"/>
<path d="M111 303.2c.1 -.1 .2 -.2 .1 -.3c-.1 -.1 -.2 -.2 -.3 -.1c-.2 .1 -5.7 2.2 -5.7 4.7c0 1.8 .7 2.7 1.3 3.4c.2 .3 .4 .5 .4 .7c.2 .6 -.2 1.6 -.4 1.9c0 .1 0 .3 .1 .3c0 .1 .1 .1 .1 .1q.1 0 .2 -.1c.1 0 2.3 -1.6 1.9 -3.5c-.1 -.7 -.5 -1.2 -.8 -1.7c-.5 -.7 -.8 -1.2 -.3 -2.2c.6 -1.1 3.4 -3.2 3.4 -3.2Z" class="g3_134"/>
<path d="M96.7 313.9c-.1 .3 0 .6 .2 .8c.6 .9 2.7 1.3 5.9 1.3c.4 0 .9 0 1.4 0c5.1 -.2 7.1 -1.8 7.1 -1.9c.1 0 .2 -.2 .1 -.3c-.1 -.1 -.2 -.1 -.3 -.1c-1.8 .5 -5.2 .7 -7.6 .7c-2.6 0 -3.9 -.2 -4.3 -.3c.2 -.3 1.2 -.7 2.5 -.9c.2 -.1 .2 -.2 .2 -.3c0 -.1 -.1 -.2 -.2 -.2c-.8 0 -4.6 0 -5 1.2Z" class="g3_134"/>
<path d="M114 312.3c-1 0 -2 .5 -2.1 .5c-.1 .1 -.1 .2 -.1 .3c0 .1 .1 .2 .2 .2c.1 0 2.3 0 2.5 1.3c.2 1.1 -2.1 2.9 -3 3.5c-.1 .1 -.2 .2 -.1 .3c0 .1 .1 .1 .2 .1h.1c.2 0 5.2 -1.1 4.7 -4.1c-.3 -1.7 -1.5 -2.1 -2.4 -2.1Z" class="g3_134"/>
<path d="M110.6 317.7q0 -.1 -.1 -.2l-1.2 -.9c-.1 0 -.2 0 -.2 0c0 0 -1.3 .3 -3.1 .6c-.8 0 -1.6 .1 -2.4 .1c-1.8 0 -3 -.2 -3.2 -.4c0 0 0 -.1 0 -.1c0 -.1 .2 -.2 .3 -.2c.1 -.1 .2 -.2 .1 -.3c0 -.1 -.1 -.2 -.3 -.2c-1.2 .3 -1.8 .7 -1.7 1.2c.1 1 2.2 1.4 4 1.5c.2 .1 .5 .1 .8 .1c3 0 6.8 -1 6.8 -1c.1 0 .2 -.1 .2 -.2Z" class="g3_134"/>
<path d="M101.5 319.7c.1 -.1 .1 -.2 .1 -.3c-.1 -.1 -.2 -.2 -.3 -.2c-.1 .1 -1.6 .1 -1.7 1c0 .3 .1 .5 .3 .8c.5 .6 1.9 .9 4.2 1.1c.3 0 .6 0 .8 0c3 0 5 -.9 5.1 -1c.1 0 .1 -.1 .1 -.2c0 -.1 0 -.2 -.1 -.2l-1.5 -.9q-.1 -.1 -.2 -.1c0 0 -1 .2 -2.4 .4c-.3 .1 -.7 .1 -1.1 .1c-1.4 0 -3.1 -.2 -3.4 -.4c0 0 0 -.1 .1 -.1Z" class="g3_134"/>
<path d="M103.5 324.9c6.8 0 10.5 -1.2 11.2 -2c.2 -.2 .3 -.5 .2 -.7c0 -.4 -.4 -.6 -.4 -.7c-.1 0 -.3 0 -.3 .1c-.1 .1 -.1 .2 0 .3c0 .1 0 .2 -.1 .3c-.3 .2 -3.1 1 -7.8 1.3c-.7 0 -1.4 0 -2 0c-4.3 0 -7.4 -.6 -7.8 -.9c.2 -.2 1.3 -.6 2.4 -.8c.2 0 .3 -.1 .2 -.3c0 -.1 -.1 -.2 -.2 -.2c-.1 0 -.2 .1 -.3 .1c-1.9 .1 -4.1 .3 -4.2 1.3c-.1 .3 0 .6 .2 .8c.5 .6 2 1.4 8.9 1.4Z" class="g3_134"/>
<path d="M116 323.1c-.1 0 -.2 0 -.3 .1c0 0 -1 1.1 -4.1 1.7c-1.1 .2 -3.3 .4 -6.5 .4c-3.2 0 -6.2 -.2 -6.3 -.2c-.1 0 -.2 .1 -.2 .2c0 .2 0 .3 .2 .3c0 0 3.2 .8 7.5 .8c2.1 0 4.1 -.2 6 -.5c3.6 -.7 3.9 -2.4 3.9 -2.5c0 -.1 -.1 -.2 -.2 -.3Z" class="g3_134"/>
<path clip-path="url(#c2_134)" d="M156.5 344.1v-6.9l1.8 -1.3l1.2 .8l-.9 .7l4.1 2.4l4.1 -2.4l-.9 -.7l1.2 -.8l1.8 1.2v7l-6.2 3.6l-6.2 -3.6Zm5.6 -3.1l-4.3 -2.5v4.9l4.2 2.4l.1 -4.8Zm5.6 2.4l-.1 -4.9l-4.2 2.5v4.8l4.3 -2.4Zm-20.6 -4.6l.1 -7.1l1.7 -1.2l1.3 .8l-1 .7l4.2 2.4l1.8 -1l.6 1.2l-1.8 1v4.9l1.1 -.6l.1 1.5l-1.8 1l-6.3 -3.6Zm5.6 -3.2l-4.2 -2.5l-.1 5l4.3 2.3v-4.8Zm17.5 5.8v-1.6l1.2 .6l-.1 -4.8l-1.8 -1l.7 -1.2l1.8 1l4.2 -2.4l-.9 -.7l1.2 -.8l1.7 1.2v7.1l-6.2 3.6l-1.8 -1ZM177 338v-4.9l-4.3 2.5v4.8L177 338Zm-20.5 -4.6v-7.1l6.2 -3.6l6.3 3.7v6.9l-6.3 3.8l-6.2 -3.7Zm5.5 -3.2l-4.2 -2.4v4.9l4.2 2.4v-4.9Zm5.6 2.5v-4.9l-4.2 2.4v4.9l4.2 -2.4Zm-.8 -6.1l-4.1 -2.5l-4.2 2.5l4.2 2.4l4.1 -2.4Zm-19.7 1.3v-7l6.3 -3.6l6.3 3.7v1.9l-1.3 .8v-1.4l-4.3 2.5l-.1 4.9l1.2 -.6v1.5l-1.8 .9l-6.3 -3.6Zm5.6 -3.1l-4.2 -2.4v4.9l4.2 2.4v-4.9Zm4.8 -3.5l-4.1 -2.5l-4.1 2.4l4.1 2.4l4.1 -2.3Zm12.7 9.3v-1.5l1.2 .6l-.1 -4.9l-4.2 -2.4v1.2l-1.3 -.7V321l6.2 -3.7l6.3 3.5V328l-6.3 3.6l-1.8 -1Zm6.7 -3.3v-4.9l-4.2 2.4v4.9l4.2 -2.4Zm-.8 -6L172 318.8l-4.1 2.4l4.1 2.4l4.1 -2.3Zm-14 -1.8l-4.3 -2.4v1.2l-1.4 -.8v-2l6.3 -3.6l6.3 3.7v1.9l-1.3 .7l-.1 -1.2l-4.2 2.5v2h-1.3v-2Zm4.7 -3.7l-4.1 -2.4l-4.1 2.4l4.2 2.4l4 -2.4Z" class="g3_134"/>
<path d="M392.5 368.3c0 .5 .4 .9 .9 .9c.6 0 1 -.4 1 -.9v-7.7c0 -.4 -.2 -.8 -.6 -1c-.3 -.1 -.8 0 -1.1 .3l-2.5 2.5c-.3 .3 -.3 1 0 1.4c.4 .3 1.1 .3 1.4 0l.9 -.9v5.4Z" class="g3_134"/>
<path clip-path="url(#c3_134)" d="M398.3 351.2l.8 -.8v5.3c0 .5 .4 1 1 1c.5 0 1 -.5 1 -1V348c0 -.4 -.3 -.8 -.6 -.9c-.4 -.2 -.8 -.1 -1.1 .2l-2.5 2.5c-.4 .4 -.4 1 0 1.4c.4 .4 1 .4 1.4 0Z" class="g3_134"/>
<path d="M409.5 359.6c-.3 -.1 -.8 0 -1.1 .3l-2.4 2.5c-.4 .3 -.4 1 0 1.4c.3 .3 1 .3 1.3 0l.9 -.9v5.4c0 .5 .4 .9 .9 .9c.6 0 1 -.4 1 -.9v-7.7c0 -.4 -.2 -.8 -.6 -1Z" class="g3_134"/>
<path d="M405.2 371.8c-.3 -.2 -.8 -.1 -1 .2l-2.5 2.5c-.4 .4 -.4 1 0 1.4c.4 .4 1 .4 1.4 0l.8 -.8V378c0 .5 .4 1 1 1c.5 0 .9 -.5 .9 -1v-5.3c0 -.4 -.2 -.8 -.6 -.9Z" class="g3_134"/>
<path d="M403.6 365.9V363c0 -1.9 -1.6 -3.4 -3.4 -3.4h-.1c-1.8 0 -3.4 1.5 -3.4 3.4v2.9c0 1.8 1.6 3.3 3.4 3.3h.1c1.8 0 3.4 -1.5 3.4 -3.3Zm-2 0c0 .7 -.6 1.4 -1.4 1.4h-.1c-.8 0 -1.4 -.7 -1.4 -1.4V363c0 -.8 .6 -1.5 1.4 -1.5h.1c.8 0 1.4 .7 1.4 1.5v2.9Z" class="g3_134"/>
<path d="M416 359.6h-.1c-1.9 0 -3.4 1.5 -3.4 3.4v2.9c0 1.8 1.5 3.3 3.4 3.3h.1c1.8 0 3.3 -1.5 3.3 -3.3V363c0 -1.9 -1.5 -3.4 -3.3 -3.4Zm1.4 6.3c0 .7 -.7 1.4 -1.4 1.4h-.1c-.8 0 -1.4 -.7 -1.4 -1.4V363c0 -.8 .6 -1.5 1.4 -1.5h.1c.7 0 1.4 .7 1.4 1.5v2.9Z" class="g3_134"/>
<path d="M406.8 347v0c-1.9 0 -3.4 1.5 -3.4 3.4v2.9c0 1.9 1.5 3.4 3.4 3.4c.6 0 1 -.5 1 -1c0 -.5 -.4 -1 -1 -1c-.8 0 -1.4 -.6 -1.4 -1.4v-2.9c0 -.8 .6 -1.4 1.4 -1.4c.8 0 1.4 .6 1.4 1.4c0 .5 .5 1 1 1c.6 0 1 -.5 1 -1c0 -1.9 -1.5 -3.4 -3.4 -3.4Z" class="g3_134"/>
<path d="M416 347h-.1c-1.9 0 -3.4 1.5 -3.4 3.4v2.9c0 1.9 1.5 3.4 3.4 3.4h.1c1.8 0 3.3 -1.5 3.3 -3.4v-2.9c0 -1.9 -1.5 -3.4 -3.3 -3.4Zm1.4 6.3c0 .8 -.7 1.4 -1.4 1.4h-.1c-.8 0 -1.4 -.6 -1.4 -1.4v-2.9c0 -.8 .6 -1.4 1.4 -1.4h.1c.7 0 1.4 .6 1.4 1.4v2.9Z" class="g3_134"/>
<path d="M395.6 371.7h-.1c-1.8 0 -3.4 1.5 -3.4 3.4V378c0 1.9 1.6 3.4 3.4 3.4h.1c1.8 0 3.4 -1.5 3.4 -3.4v-2.9c0 -1.9 -1.6 -3.4 -3.4 -3.4ZM397 378c0 .8 -.6 1.4 -1.4 1.4h-.1c-.8 0 -1.4 -.6 -1.4 -1.4v-2.9c0 -.8 .6 -1.4 1.4 -1.4h.1c.8 0 1.4 .6 1.4 1.4V378Z" class="g3_134"/>
<path d="M123.2 273.1h80.2v34.4H123.2V273.1Z" class="g2_134"/>
<g clip-path="url(#c0_134)">
<path d="M88.8 377.3H203.4v80.3H88.8V377.3Z" class="g1_134"/>
<path d="M123.2 411.7h80.2v45.9H123.2V411.7Z" class="g2_134"/>
</g>
<path clip-path="url(#c4_134)" d="M156.5 448.3v-6.9l1.8 -1.2l1.2 .7l-.9 .7l4.1 2.4l4.1 -2.4l-.9 -.7l1.2 -.7l1.8 1.2v6.9l-6.2 3.7l-6.2 -3.7Zm5.6 -3.1l-4.3 -2.4v4.9L162 450l.1 -4.8Zm5.6 2.4l-.1 -4.8l-4.2 2.4v4.9l4.3 -2.5ZM147.1 443l.1 -7.1l1.7 -1.1l1.3 .8l-1 .6l4.2 2.5l1.8 -1.1l.6 1.3l-1.8 1v4.8l1.1 -.6l.1 1.5l-1.8 1L147.1 443Zm5.6 -3.2l-4.2 -2.4l-.1 4.9l4.3 2.4v-4.9Zm17.5 5.8v-1.5l1.2 .6l-.1 -4.9l-1.8 -1l.7 -1.1l1.8 1l4.2 -2.5l-.9 -.7l1.2 -.7l1.7 1.1v7.2l-6.2 3.5l-1.8 -1Zm6.8 -3.3v-4.9l-4.3 2.4v4.9l4.3 -2.4Zm-20.5 -4.6v-7.2l6.2 -3.5l6.3 3.6v6.9l-6.3 3.9l-6.2 -3.7Zm5.5 -3.2L157.8 432v4.9l4.2 2.4v-4.8Zm5.6 2.4V432l-4.2 2.4v5l4.2 -2.5Zm-.8 -6l-4.1 -2.5l-4.2 2.5l4.2 2.3l4.1 -2.3Zm-19.7 1.3v-7.1l6.3 -3.6l6.3 3.8v1.9l-1.3 .7v-1.4l-4.3 2.6L154 434l1.2 -.7v1.6l-1.8 .9l-6.3 -3.6Zm5.6 -3.1l-4.2 -2.4v4.9l4.2 2.3v-4.8Zm4.8 -3.6L153.4 423l-4.1 2.5l4.1 2.3l4.1 -2.3Zm12.7 9.4v-1.6l1.2 .7l-.1 -4.9l-4.2 -2.5v1.3l-1.3 -.7v-2l6.2 -3.7l6.3 3.6v7.1l-6.3 3.6l-1.8 -.9Zm6.7 -3.4v-4.8l-4.2 2.4V434l4.2 -2.5Zm-.8 -6L172 423l-4.1 2.5l4.1 2.3l4.1 -2.3Zm-14 -1.8l-4.3 -2.4v1.2l-1.4 -.7v-2l6.3 -3.6l6.3 3.6v2l-1.3 .7l-.1 -1.2l-4.2 2.4v2.1h-1.3v-2.1Zm4.7 -3.7l-4.1 -2.4l-4.1 2.4l4.2 2.4l4 -2.4Z" class="g3_134"/>
<path d="M123.2 377.3h80.2v34.4H123.2V377.3ZM260.7 359h80.2v45.9H260.7V359Z" class="g2_134"/>
<path clip-path="url(#c5_134)" d="M293.7 395.6v-6.9l1.8 -1.2l1.2 .8l-.9 .6l4.1 2.5l4.2 -2.5l-1 -.6l1.3 -.8l1.7 1.2v6.9l-6.2 3.7l-6.2 -3.7Zm5.6 -3.1L295 390.1V395l4.2 2.4l.1 -4.9Zm5.6 2.4v-4.8l-4.3 2.4v4.9l4.3 -2.5Zm-20.5 -4.5v-7.1l1.8 -1.2l1.2 .8l-1 .6l4.2 2.5l1.8 -1.1l.6 1.3l-1.8 1V392l1.1 -.5l.1 1.4l-1.8 1.1l-6.2 -3.6Zm5.5 -3.3l-4.2 -2.4v4.9l4.2 2.4v-4.9Zm17.5 5.8v-1.5l1.2 .6v-4.8l-1.8 -1.1l.6 -1.1l1.8 1l4.2 -2.5l-.9 -.6l1.2 -.8l1.7 1.1v7.2l-6.2 3.5l-1.8 -1Zm6.8 -3.3v-4.9l-4.3 2.4V392l4.3 -2.4ZM293.7 385v-7.2l6.2 -3.5l6.3 3.6v6.9l-6.3 3.9L293.7 385Zm5.5 -3.2L295 379.3v4.9l4.2 2.4v-4.8Zm5.7 2.4v-4.9l-4.3 2.4v5l4.3 -2.5Zm-.9 -6l-4.1 -2.5l-4.2 2.5l4.2 2.3l4.1 -2.3Zm-19.7 1.3l.1 -7.1l6.2 -3.6l6.3 3.8v1.9l-1.3 .7v-1.3l-4.3 2.5l-.1 4.9l1.2 -.7v1.6l-1.8 .9l-6.3 -3.6Zm5.7 -3.1L285.7 374v4.9l4.2 2.4l.1 -4.9Zm4.7 -3.6l-4.1 -2.5l-4.1 2.5l4.1 2.4l4.1 -2.4Zm12.7 9.4v-1.6l1.2 .7v-4.9L304.3 374v1.2l-1.3 -.7v-1.9l6.3 -3.8l6.2 3.6v7.1l-6.3 3.7l-1.8 -1Zm6.7 -3.3V374l-4.2 2.4v4.9l4.2 -2.4Zm-.8 -6.1l-4.1 -2.5l-4.1 2.5l4.1 2.4l4.1 -2.4Zm-14 -1.8L295 368.6v1.2l-1.3 -.7v-2l6.2 -3.6l6.3 3.7v1.9l-1.3 .7v-1.2l-4.3 2.4v2.1h-1.3V371Zm4.7 -3.7L299.9 365l-4.1 2.3l4.2 2.4l4 -2.4Z" class="g3_134"/>
<path d="M260.7 324.7h80.2V359H260.7V324.7Z" class="g2_134"/>
<path d="M123.2 373.9V356.7" class="g1_134"/>
<path d="M126.6 377.3c0 .5 -.1 .9 -.3 1.4c-.1 .4 -.4 .8 -.7 1.1c-.3 .3 -.7 .6 -1.1 .7c-.5 .2 -.9 .3 -1.3 .3c-.5 0 -.9 -.1 -1.4 -.3c-.4 -.1 -.8 -.4 -1.1 -.7c-.3 -.3 -.5 -.7 -.7 -1.1c-.2 -.5 -.3 -.9 -.3 -1.4c0 -.4 .1 -.8 .3 -1.3c.2 -.4 .4 -.8 .7 -1.1c.3 -.3 .7 -.6 1.1 -.7c.5 -.2 .9 -.3 1.4 -.3c.4 0 .8 .1 1.3 .3c.4 .1 .8 .4 1.1 .7c.3 .3 .6 .7 .7 1.1c.2 .5 .3 .9 .3 1.3Z" class="g3_134"/>
<path d="M126.6 377.3c0 .5 -.1 .9 -.3 1.4c-.1 .4 -.4 .8 -.7 1.1c-.3 .3 -.7 .6 -1.1 .7c-.5 .2 -.9 .3 -1.3 .3c-.5 0 -.9 -.1 -1.4 -.3c-.4 -.1 -.8 -.4 -1.1 -.7c-.3 -.3 -.5 -.7 -.7 -1.1c-.2 -.5 -.3 -.9 -.3 -1.4c0 -.4 .1 -.8 .3 -1.3c.2 -.4 .4 -.8 .7 -1.1c.3 -.3 .7 -.6 1.1 -.7c.5 -.2 .9 -.3 1.4 -.3c.4 0 .8 .1 1.3 .3c.4 .1 .8 .4 1.1 .7c.3 .3 .6 .7 .7 1.1c.2 .5 .3 .9 .3 1.3Z" class="g1_134"/>
<path d="M126.6 353.3c0 .5 -.1 .9 -.3 1.3c-.1 .4 -.4 .8 -.7 1.1c-.3 .4 -.7 .6 -1.1 .8c-.5 .2 -.9 .2 -1.3 .2c-.5 0 -.9 0 -1.4 -.2c-.4 -.2 -.8 -.4 -1.1 -.8c-.3 -.3 -.5 -.7 -.7 -1.1c-.2 -.4 -.3 -.8 -.3 -1.3c0 -.4 .1 -.9 .3 -1.3c.2 -.4 .4 -.8 .7 -1.1c.3 -.3 .7 -.6 1.1 -.8c.5 -.1 .9 -.2 1.4 -.2c.4 0 .8 .1 1.3 .2c.4 .2 .8 .5 1.1 .8c.3 .3 .6 .7 .7 1.1c.2 .4 .3 .9 .3 1.3Z" class="g3_134"/>
<path d="M126.6 353.3c0 .5 -.1 .9 -.3 1.3c-.1 .4 -.4 .8 -.7 1.1c-.3 .4 -.7 .6 -1.1 .8c-.5 .2 -.9 .2 -1.3 .2c-.5 0 -.9 0 -1.4 -.2c-.4 -.2 -.8 -.4 -1.1 -.8c-.3 -.3 -.5 -.7 -.7 -1.1c-.2 -.4 -.3 -.8 -.3 -1.3c0 -.4 .1 -.9 .3 -1.3c.2 -.4 .4 -.8 .7 -1.1c.3 -.3 .7 -.6 1.1 -.8c.5 -.1 .9 -.2 1.4 -.2c.4 0 .8 .1 1.3 .2c.4 .2 .8 .5 1.1 .8c.3 .3 .6 .7 .7 1.1c.2 .4 .3 .9 .3 1.3ZM283.3 321.2v-6.8c0 -4.6 -3.8 -6.9 -11.4 -6.9H206.8" class="g1_134"/>
<path d="M286.7 324.7c0 .4 -.1 .9 -.2 1.3c-.2 .4 -.5 .8 -.8 1.1c-.3 .3 -.7 .6 -1.1 .7c-.4 .2 -.9 .3 -1.3 .3c-.5 0 -.9 -.1 -1.3 -.3c-.5 -.1 -.8 -.4 -1.1 -.7c-.4 -.3 -.6 -.7 -.8 -1.1c-.2 -.4 -.3 -.9 -.3 -1.3c0 -.5 .1 -.9 .3 -1.4c.2 -.4 .4 -.7 .8 -1.1c.3 -.3 .6 -.5 1.1 -.7c.4 -.2 .8 -.3 1.3 -.3c.4 0 .9 .1 1.3 .3c.4 .2 .8 .4 1.1 .7c.3 .4 .6 .7 .8 1.1c.1 .5 .2 .9 .2 1.4Z" class="g3_134"/>
<path d="M286.7 324.7c0 .4 -.1 .9 -.2 1.3c-.2 .4 -.5 .8 -.8 1.1c-.3 .3 -.7 .6 -1.1 .7c-.4 .2 -.9 .3 -1.3 .3c-.5 0 -.9 -.1 -1.3 -.3c-.5 -.1 -.8 -.4 -1.1 -.7c-.4 -.3 -.6 -.7 -.8 -1.1c-.2 -.4 -.3 -.9 -.3 -1.3c0 -.5 .1 -.9 .3 -1.4c.2 -.4 .4 -.7 .8 -1.1c.3 -.3 .6 -.5 1.1 -.7c.4 -.2 .8 -.3 1.3 -.3c.4 0 .9 .1 1.3 .3c.4 .2 .8 .4 1.1 .7c.3 .4 .6 .7 .8 1.1c.1 .5 .2 .9 .2 1.4Z" class="g1_134"/>
<path d="M206.8 307.5c0 .4 -.1 .9 -.3 1.3c-.1 .4 -.4 .8 -.7 1.1c-.3 .3 -.7 .6 -1.1 .8c-.4 .1 -.9 .2 -1.3 .2c-.5 0 -.9 -.1 -1.4 -.2c-.4 -.2 -.7 -.5 -1.1 -.8c-.3 -.3 -.5 -.7 -.7 -1.1c-.2 -.4 -.3 -.9 -.3 -1.3c0 -.5 .1 -.9 .3 -1.3c.2 -.5 .4 -.8 .7 -1.2c.4 -.3 .7 -.5 1.1 -.7c.5 -.2 .9 -.3 1.4 -.3c.4 0 .9 .1 1.3 .3c.4 .2 .8 .4 1.1 .7c.3 .4 .6 .7 .7 1.2c.2 .4 .3 .8 .3 1.3Z" class="g3_134"/>
<path d="M206.8 307.5c0 .4 -.1 .9 -.3 1.3c-.1 .4 -.4 .8 -.7 1.1c-.3 .3 -.7 .6 -1.1 .8c-.4 .1 -.9 .2 -1.3 .2c-.5 0 -.9 -.1 -1.4 -.2c-.4 -.2 -.7 -.5 -1.1 -.8c-.3 -.3 -.5 -.7 -.7 -1.1c-.2 -.4 -.3 -.9 -.3 -1.3c0 -.5 .1 -.9 .3 -1.3c.2 -.5 .4 -.8 .7 -1.2c.4 -.3 .7 -.5 1.1 -.7c.5 -.2 .9 -.3 1.4 -.3c.4 0 .9 .1 1.3 .3c.4 .2 .8 .4 1.1 .7c.3 .4 .6 .7 .7 1.2c.2 .4 .3 .8 .3 1.3Zm76.5 100.8v6.9c0 4.6 -3.8 6.9 -11.4 6.9H206.8" class="g1_134"/>
<path d="M286.7 404.9c0 .4 -.1 .9 -.2 1.3c-.2 .4 -.5 .8 -.8 1.1c-.3 .3 -.7 .6 -1.1 .7c-.4 .2 -.9 .3 -1.3 .3c-.5 0 -.9 -.1 -1.3 -.3c-.5 -.1 -.8 -.4 -1.1 -.7c-.4 -.3 -.6 -.7 -.8 -1.1c-.2 -.4 -.3 -.9 -.3 -1.3c0 -.5 .1 -.9 .3 -1.3c.2 -.5 .4 -.8 .8 -1.2c.3 -.3 .6 -.5 1.1 -.7c.4 -.2 .8 -.3 1.3 -.3c.4 0 .9 .1 1.3 .3c.4 .2 .8 .4 1.1 .7c.3 .4 .6 .7 .8 1.2c.1 .4 .2 .8 .2 1.3Z" class="g3_134"/>
<path d="M286.7 404.9c0 .4 -.1 .9 -.2 1.3c-.2 .4 -.5 .8 -.8 1.1c-.3 .3 -.7 .6 -1.1 .7c-.4 .2 -.9 .3 -1.3 .3c-.5 0 -.9 -.1 -1.3 -.3c-.5 -.1 -.8 -.4 -1.1 -.7c-.4 -.3 -.6 -.7 -.8 -1.1c-.2 -.4 -.3 -.9 -.3 -1.3c0 -.5 .1 -.9 .3 -1.3c.2 -.5 .4 -.8 .8 -1.2c.3 -.3 .6 -.5 1.1 -.7c.4 -.2 .8 -.3 1.3 -.3c.4 0 .9 .1 1.3 .3c.4 .2 .8 .4 1.1 .7c.3 .4 .6 .7 .8 1.2c.1 .4 .2 .8 .2 1.3Z" class="g1_134"/>
<path d="M206.8 422.1c0 .4 -.1 .9 -.3 1.3c-.1 .4 -.4 .8 -.7 1.1c-.3 .3 -.7 .6 -1.1 .7c-.4 .2 -.9 .3 -1.3 .3c-.5 0 -.9 -.1 -1.4 -.3c-.4 -.1 -.7 -.4 -1.1 -.7c-.3 -.3 -.5 -.7 -.7 -1.1c-.2 -.4 -.3 -.9 -.3 -1.3c0 -.5 .1 -.9 .3 -1.4c.2 -.4 .4 -.7 .7 -1.1c.4 -.3 .7 -.5 1.1 -.7c.5 -.2 .9 -.3 1.4 -.3c.4 0 .9 .1 1.3 .3c.4 .2 .8 .4 1.1 .7c.3 .4 .6 .7 .7 1.1c.2 .5 .3 .9 .3 1.4Z" class="g3_134"/>
<path d="M206.8 422.1c0 .4 -.1 .9 -.3 1.3c-.1 .4 -.4 .8 -.7 1.1c-.3 .3 -.7 .6 -1.1 .7c-.4 .2 -.9 .3 -1.3 .3c-.5 0 -.9 -.1 -1.4 -.3c-.4 -.1 -.7 -.4 -1.1 -.7c-.3 -.3 -.5 -.7 -.7 -1.1c-.2 -.4 -.3 -.9 -.3 -1.3c0 -.5 .1 -.9 .3 -1.4c.2 -.4 .4 -.7 .7 -1.1c.4 -.3 .7 -.5 1.1 -.7c.5 -.2 .9 -.3 1.4 -.3c.4 0 .9 .1 1.3 .3c.4 .2 .8 .4 1.1 .7c.3 .4 .6 .7 .7 1.1c.2 .5 .3 .9 .3 1.4ZM546 273.1h81.3v45.8H546V273.1Z" class="g1_134"/>
<path d="M581.5 273.1h45.8v45.8H581.5V273.1Z" class="g2_134"/>
<path clip-path="url(#c6_134)" d="M562.4 286.1c-1.4 .9 -2.9 2 -3.7 3.8c-1.5 3.2 2.9 6.7 3.1 6.8c.1 0 .1 .1 .2 .1c0 0 .1 -.1 .1 -.1c.1 -.1 .1 -.2 .1 -.3c0 0 -1.6 -3.1 -1.6 -5.3c.1 -.8 1.1 -1.7 2.3 -2.6c1 -.8 2.2 -1.8 2.9 -2.9c1.5 -2.5 -.2 -4.9 -.2 -4.9c-.1 -.1 -.2 -.2 -.3 -.1c-.1 0 -.2 .1 -.1 .2c0 .1 .3 1.7 -.6 3.3c-.4 .7 -1.2 1.3 -2.2 2Z" class="g3_134"/>
<path d="M568.2 287.2c.1 -.1 .1 -.3 .1 -.4c-.1 -.1 -.2 -.1 -.3 -.1c-.2 .1 -5.7 2.2 -5.7 4.8c0 1.8 .7 2.7 1.3 3.4c.2 .2 .4 .5 .4 .7c.2 .5 -.2 1.5 -.4 1.9c0 .1 0 .2 .1 .3c0 0 .1 0 .1 0q.1 0 .2 0c.1 -.1 2.3 -1.6 1.9 -3.5c-.2 -.7 -.5 -1.2 -.8 -1.7c-.5 -.7 -.9 -1.2 -.3 -2.2c.6 -1.1 3.4 -3.2 3.4 -3.2Z" class="g3_134"/>
<path d="M553.9 297.9c-.1 .3 0 .6 .2 .8c.6 .8 2.7 1.3 5.9 1.3c.4 0 .9 0 1.4 0c5.1 -.2 7.1 -1.8 7.1 -1.9c.1 -.1 .1 -.2 .1 -.3c-.1 -.1 -.2 -.2 -.3 -.1c-1.8 .5 -5.2 .6 -7.6 .6c-2.6 0 -3.9 -.1 -4.3 -.3c.2 -.2 1.2 -.6 2.5 -.9c.1 0 .2 -.1 .2 -.2c0 -.2 -.1 -.3 -.2 -.3c-.8 0 -4.6 .1 -5 1.3Z" class="g3_134"/>
<path d="M571.2 296.2c-1 0 -2.1 .6 -2.1 .6c-.1 0 -.1 .2 -.1 .3c0 .1 .1 .1 .2 .1c0 0 2.3 .1 2.5 1.4c.2 1.1 -2.1 2.9 -3 3.5c-.1 0 -.2 .1 -.1 .3c0 0 .1 .1 .2 .1c.3 0 5.3 -1.2 4.8 -4.1c-.4 -1.8 -1.5 -2.2 -2.4 -2.2Z" class="g3_134"/>
<path d="M567.8 301.7c0 -.1 -.1 -.2 -.1 -.2l-1.2 -.9c-.1 0 -.2 0 -.2 0c-.1 0 -1.3 .3 -3.2 .5c-.7 .1 -1.5 .1 -2.3 .1c-1.9 0 -3.1 -.2 -3.2 -.3c-.1 -.1 0 -.1 0 -.1c0 -.1 .2 -.2 .3 -.2c.1 -.1 .2 -.2 .1 -.3c0 -.2 -.1 -.2 -.3 -.2c-1.2 .3 -1.8 .7 -1.7 1.2c0 .9 2.2 1.4 3.9 1.5c.3 0 .6 0 .9 0c2.9 0 6.7 -.9 6.8 -.9c.1 0 .1 -.1 .2 -.2Z" class="g3_134"/>
<path d="M558.7 303.7c0 -.1 .1 -.2 .1 -.3c-.1 -.1 -.2 -.2 -.3 -.2c-.2 0 -1.6 .1 -1.7 1c0 .3 .1 .5 .3 .7c.5 .6 1.8 1 4.2 1.1c.3 0 .5 .1 .8 .1c3 0 5 -1 5.1 -1c0 -.1 .1 -.1 .1 -.2c0 -.1 0 -.2 -.1 -.2l-1.5 -1c-.1 0 -.2 0 -.2 0c0 0 -1 .2 -2.5 .4c-.2 0 -.6 0 -1 0c-1.5 0 -3.1 -.2 -3.4 -.3q0 -.1 .1 -.1Z" class="g3_134"/>
<path d="M560.7 308.9c6.8 -.1 10.5 -1.3 11.2 -2c.2 -.3 .3 -.5 .2 -.7c0 -.4 -.4 -.7 -.4 -.7c-.1 -.1 -.3 0 -.4 0c0 .1 0 .3 0 .4c.1 0 .1 .1 0 .2c-.3 .3 -3.1 1.1 -7.8 1.3c-.7 .1 -1.4 .1 -2.1 .1c-4.2 0 -7.3 -.6 -7.7 -.9c.2 -.3 1.3 -.6 2.4 -.8c.2 0 .3 -.2 .2 -.3c0 -.1 -.1 -.2 -.2 -.2c-.1 0 -.2 0 -.3 0c-1.9 .1 -4.1 .4 -4.3 1.4c0 .3 .1 .6 .3 .8c.5 .6 2 1.4 8.9 1.4Z" class="g3_134"/>
<path d="M573.2 307.1c-.1 0 -.2 0 -.3 .1c0 0 -1 1 -4.1 1.7c-1.1 .2 -3.4 .3 -6.5 .3c-3.2 0 -6.2 -.1 -6.3 -.1c-.1 0 -.2 .1 -.2 .2c0 .1 0 .2 .2 .3c0 0 3.2 .7 7.5 .7c2.1 0 4.1 -.2 6 -.5c3.6 -.6 3.8 -2.4 3.9 -2.5c0 -.1 -.1 -.2 -.2 -.2Z" class="g3_134"/>
<path clip-path="url(#c7_134)" d="M600 309.4v-6.8l1.8 -1.3l1.2 .8l-.9 .7l4.1 2.4l4.2 -2.4l-.9 -.7l1.2 -.8l1.7 1.2v6.9l-6.2 3.7L600 309.4Zm5.6 -3l-4.3 -2.5v4.9l4.3 2.4v-4.8Zm5.6 2.3v-4.8l-4.3 2.5v4.8l4.3 -2.5Zm-20.5 -4.5v-7.1l1.8 -1.2l1.2 .8l-1 .7l4.2 2.4l1.8 -1.1l.6 1.3l-1.7 1v4.9l1.1 -.6v1.5l-1.8 1l-6.2 -3.6Zm5.5 -3.2L592 298.5v4.9l4.2 2.4V301Zm17.5 5.8v-1.6l1.2 .6V301l-1.8 -1.1l.7 -1.1l1.8 1l4.2 -2.4l-1 -.7l1.2 -.8l1.8 1.2l-.1 7.1l-6.1 3.5l-1.9 -.9Zm6.8 -3.4v-4.9l-4.2 2.5v4.8l4.2 -2.4ZM600 298.8v-7.1l6.2 -3.6l6.3 3.6v6.9l-6.3 3.9L600 298.8Zm5.5 -3.2l-4.2 -2.4V298l4.2 2.5v-4.9Zm5.7 2.4v-4.8l-4.3 2.4v4.9l4.3 -2.5Zm-.8 -6l-4.2 -2.5l-4.1 2.5l4.1 2.3l4.2 -2.3Zm-19.7 1.3v-7l6.2 -3.6l6.3 3.7v1.9l-1.3 .8v-1.4l-4.3 2.5v4.9l1.1 -.6V296l-1.8 .9l-6.2 -3.6Zm5.6 -3.1L592 287.8v4.9l4.2 2.4l.1 -4.9Zm4.7 -3.6l-4.1 -2.5l-4.1 2.5l4.1 2.4l4.1 -2.4Zm12.7 9.4v-1.5l1.2 .6v-4.9l-4.3 -2.4V289l-1.3 -.7v-1.9l6.3 -3.7l6.2 3.5v7.2l-6.3 3.6l-1.8 -1Zm6.7 -3.3l.1 -4.9l-4.3 2.4v4.9l4.2 -2.4Zm-.8 -6.1l-4.1 -2.5l-4.1 2.5l4.1 2.4l4.1 -2.4Zm-14 -1.7l-4.3 -2.5v1.3l-1.3 -.8v-2l6.2 -3.6l6.3 3.7v1.9l-1.3 .7v-1.2l-4.3 2.5v2h-1.3v-2Zm4.7 -3.7l-4.1 -2.4l-4.1 2.4l4.2 2.4l4 -2.4Z" class="g3_134"/>
<path d="M546 341.9h81.3v45.8H546V341.9Z" class="g1_134"/>
<path d="M581.5 341.9h45.8v45.8H581.5V341.9Z" class="g2_134"/>
<path clip-path="url(#c8_134)" d="M562.4 354.8c-1.4 1 -2.9 2.1 -3.7 3.9c-1.5 3.2 2.9 6.6 3.1 6.8q.1 0 .2 0c0 0 .1 0 .1 -.1c.1 0 .1 -.1 .1 -.3c0 0 -1.6 -3.1 -1.6 -5.3c.1 -.7 1.1 -1.6 2.3 -2.5c1 -.9 2.2 -1.8 2.9 -3c1.5 -2.4 -.2 -4.9 -.2 -4.9c-.1 -.1 -.2 -.1 -.3 -.1c-.1 .1 -.2 .2 -.1 .3c0 0 .3 1.6 -.6 3.3c-.4 .7 -1.2 1.2 -2.2 1.9Z" class="g3_134"/>
<path d="M568.2 355.9c.1 -.1 .1 -.2 .1 -.3c-.1 -.1 -.2 -.2 -.3 -.1c-.2 .1 -5.7 2.2 -5.7 4.7c0 1.8 .7 2.7 1.3 3.4c.2 .3 .4 .5 .4 .7c.2 .6 -.2 1.6 -.4 1.9c0 .1 0 .3 .1 .3c0 .1 .1 .1 .1 .1q.1 0 .2 0c.1 -.1 2.3 -1.7 1.9 -3.6c-.2 -.7 -.5 -1.2 -.8 -1.7c-.5 -.7 -.9 -1.2 -.3 -2.1c.6 -1.2 3.4 -3.3 3.4 -3.3Z" class="g3_134"/>
<path d="M553.9 366.6c-.1 .3 0 .6 .2 .8c.6 .9 2.7 1.3 5.9 1.3c.4 0 .9 0 1.4 0c5.1 -.2 7.1 -1.8 7.1 -1.9c.1 0 .1 -.2 .1 -.3c-.1 -.1 -.2 -.1 -.3 -.1c-1.8 .5 -5.2 .7 -7.6 .7c-2.6 0 -3.9 -.2 -4.3 -.3c.2 -.3 1.2 -.7 2.5 -.9c.1 -.1 .2 -.2 .2 -.3c0 -.1 -.1 -.2 -.2 -.2c-.8 0 -4.6 0 -5 1.2Z" class="g3_134"/>
<path d="M571.2 365c-1 0 -2.1 .5 -2.1 .5c-.1 .1 -.1 .2 -.1 .3c0 .1 .1 .2 .2 .2c0 0 2.3 0 2.5 1.3c.2 1.1 -2.1 2.9 -3 3.5c-.1 .1 -.2 .2 -.1 .3c0 .1 .1 .2 .2 .2v-.1c.3 0 5.3 -1.1 4.8 -4c-.4 -1.8 -1.5 -2.2 -2.4 -2.2Z" class="g3_134"/>
<path d="M567.8 370.4c0 0 -.1 -.1 -.1 -.2l-1.2 -.8c-.1 -.1 -.2 -.1 -.2 -.1c-.1 0 -1.3 .4 -3.2 .6c-.7 0 -1.5 .1 -2.3 .1c-1.9 0 -3.1 -.2 -3.2 -.4c-.1 0 0 -.1 0 -.1c0 -.1 .2 -.2 .3 -.2c.1 0 .2 -.2 .1 -.3c0 -.1 -.1 -.2 -.3 -.2c-1.2 .3 -1.8 .7 -1.7 1.3c0 .9 2.2 1.3 3.9 1.5c.3 0 .6 0 .9 0c2.9 0 6.7 -1 6.8 -1c.1 0 .1 -.1 .2 -.2Z" class="g3_134"/>
<path d="M558.7 372.4c0 -.1 .1 -.2 .1 -.3c-.1 -.1 -.2 -.1 -.3 -.1c-.2 0 -1.6 0 -1.7 .9c0 .3 .1 .6 .3 .8c.5 .6 1.8 .9 4.2 1.1c.3 0 .5 0 .8 0c3 0 5 -.9 5.1 -1c0 0 .1 -.1 .1 -.2q0 -.1 -.1 -.2l-1.5 -.9c-.1 -.1 -.2 -.1 -.2 -.1c0 0 -1 .2 -2.5 .4c-.2 .1 -.6 .1 -1 .1c-1.5 0 -3.1 -.2 -3.4 -.4c0 0 0 -.1 .1 -.1Z" class="g3_134"/>
<path d="M560.7 377.6c6.8 0 10.5 -1.2 11.2 -2c.2 -.2 .3 -.5 .2 -.7c0 -.4 -.4 -.6 -.4 -.6c-.1 -.1 -.3 -.1 -.4 0c0 .1 0 .2 0 .3c.1 .1 .1 .2 0 .3c-.3 .2 -3.1 1 -7.8 1.3c-.7 0 -1.4 0 -2.1 0c-4.2 0 -7.3 -.5 -7.7 -.9c.2 -.2 1.3 -.6 2.4 -.8c.2 0 .3 -.1 .2 -.2c0 -.2 -.1 -.3 -.2 -.2c-.1 0 -.2 0 -.3 0c-1.9 .1 -4.1 .3 -4.3 1.3c0 .3 .1 .6 .3 .8c.5 .6 2 1.4 8.9 1.4Z" class="g3_134"/>
<path d="M573.2 375.8c-.1 0 -.2 0 -.3 .1c0 0 -1 1.1 -4.1 1.7c-1.1 .2 -3.4 .4 -6.5 .4c-3.2 0 -6.2 -.2 -6.3 -.2c-.1 0 -.2 .1 -.2 .2c0 .2 0 .3 .2 .3c0 0 3.2 .8 7.5 .8c2.1 0 4.1 -.2 6 -.5c3.6 -.7 3.8 -2.4 3.9 -2.5c0 -.1 -.1 -.2 -.2 -.3Z" class="g3_134"/>
<path clip-path="url(#c9_134)" d="M600 378.2v-6.9l1.8 -1.3l1.2 .8l-.9 .7l4.1 2.4l4.2 -2.4l-.9 -.7l1.2 -.8l1.7 1.2v7l-6.2 3.7L600 378.2Zm5.6 -3.1l-4.3 -2.5v4.9l4.3 2.4v-4.8Zm5.6 2.4v-4.9l-4.3 2.5V380l4.3 -2.5Zm-20.5 -4.6v-7.1l1.8 -1.1l1.2 .7l-1 .7l4.2 2.5l1.8 -1.1l.6 1.2l-1.7 1v4.9l1.1 -.6v1.5l-1.8 1l-6.2 -3.6Zm5.5 -3.2L592 367.3v4.9l4.2 2.4v-4.9Zm17.5 5.8V374l1.2 .5v-4.8l-1.8 -1l.7 -1.1l1.8 .9l4.2 -2.4l-1 -.7l1.2 -.7l1.8 1.1l-.1 7.2l-6.1 3.5l-1.9 -1Zm6.8 -3.3v-4.9l-4.2 2.4v4.9l4.2 -2.4ZM600 367.6v-7.2l6.2 -3.5l6.3 3.6v6.9l-6.3 3.8L600 367.6Zm5.5 -3.3l-4.2 -2.4v4.9l4.2 2.4v-4.9Zm5.7 2.5v-4.9l-4.3 2.4v4.9l4.3 -2.4Zm-.8 -6l-4.2 -2.5l-4.1 2.4l4.1 2.4l4.2 -2.3Zm-19.7 1.3V355l6.2 -3.6l6.3 3.7V357l-1.3 .8v-1.4l-4.3 2.6v4.9l1.1 -.7v1.6l-1.8 .9l-6.2 -3.6Zm5.6 -3.1L592 356.5v4.9l4.2 2.4l.1 -4.8Zm4.7 -3.6l-4.1 -2.5l-4.1 2.5l4.1 2.3l4.1 -2.3Zm12.7 9.4v-1.6l1.2 .7V359l-4.3 -2.5v1.3l-1.3 -.8v-1.9l6.3 -3.7l6.2 3.6v7.1l-6.3 3.6l-1.8 -.9Zm6.7 -3.4l.1 -4.8l-4.3 2.4v4.9l4.2 -2.5Zm-.8 -6l-4.1 -2.5l-4.1 2.5l4.1 2.3l4.1 -2.3Zm-14 -1.8l-4.3 -2.4v1.2l-1.3 -.7v-2l6.2 -3.6l6.3 3.6v2l-1.3 .7v-1.2l-4.3 2.4v2h-1.3v-2Zm4.7 -3.7l-4.1 -2.4l-4.1 2.4l4.2 2.4l4 -2.4Z" class="g3_134"/>
<g clip-path="url(#c0_134)">
<path d="M546 411.7h81.3v45.9H546V411.7Z" class="g1_134"/>
<path d="M581.5 411.7h45.8v45.9H581.5V411.7Z" class="g2_134"/>
</g>
<path clip-path="url(#ca_134)" d="M562.4 424.7c-1.4 1 -2.9 2.1 -3.7 3.9c-1.5 3.1 2.9 6.6 3.1 6.7q.1 .1 .2 .1c0 0 .1 0 .1 -.1c.1 -.1 .1 -.2 .1 -.3c0 0 -1.6 -3.1 -1.6 -5.3c.1 -.8 1.1 -1.6 2.3 -2.6c1 -.8 2.2 -1.8 2.9 -2.9c1.5 -2.5 -.2 -4.9 -.2 -4.9c-.1 -.1 -.2 -.2 -.3 -.1c-.1 0 -.2 .2 -.1 .3c0 0 .3 1.6 -.6 3.2c-.4 .7 -1.2 1.3 -2.2 2Z" class="g3_134"/>
<path d="M568.2 425.8c.1 -.1 .1 -.2 .1 -.3c-.1 -.1 -.2 -.2 -.3 -.1c-.2 0 -5.7 2.2 -5.7 4.7c0 1.8 .7 2.7 1.3 3.4c.2 .3 .4 .5 .4 .7c.2 .5 -.2 1.6 -.4 1.9c0 .1 0 .2 .1 .3c0 .1 .1 .1 .1 .1q.1 0 .2 -.1c.1 0 2.3 -1.6 1.9 -3.5c-.2 -.7 -.5 -1.2 -.8 -1.7c-.5 -.7 -.9 -1.2 -.3 -2.2c.6 -1.1 3.4 -3.2 3.4 -3.2Z" class="g3_134"/>
<path d="M553.9 436.5c-.1 .3 0 .6 .2 .8c.6 .8 2.7 1.3 5.9 1.3c.4 0 .9 0 1.4 0c5.1 -.2 7.1 -1.8 7.1 -1.9c.1 -.1 .1 -.2 .1 -.3c-.1 -.1 -.2 -.1 -.3 -.1c-1.8 .5 -5.2 .7 -7.6 .7c-2.6 0 -3.9 -.2 -4.3 -.4c.2 -.2 1.2 -.6 2.5 -.9c.1 0 .2 -.1 .2 -.2c0 -.2 -.1 -.2 -.2 -.2c-.8 0 -4.6 0 -5 1.2Z" class="g3_134"/>
<path d="M571.2 434.9c-1 0 -2.1 .5 -2.1 .5c-.1 .1 -.1 .2 -.1 .3c0 .1 .1 .2 .2 .2c0 0 2.3 0 2.5 1.3c.2 1.1 -2.1 2.9 -3 3.5c-.1 0 -.2 .2 -.1 .3c0 .1 .1 .1 .2 .1c.3 0 5.3 -1.1 4.8 -4.1c-.4 -1.8 -1.5 -2.1 -2.4 -2.1Z" class="g3_134"/>
<path d="M567.8 440.3c0 -.1 -.1 -.2 -.1 -.2l-1.2 -.9c-.1 0 -.2 0 -.2 0c-.1 0 -1.3 .3 -3.2 .5c-.7 .1 -1.5 .2 -2.3 .2c-1.9 0 -3.1 -.3 -3.2 -.4c-.1 -.1 0 -.1 0 -.1c0 -.1 .2 -.2 .3 -.2c.1 -.1 .2 -.2 .1 -.3c0 -.1 -.1 -.2 -.3 -.2c-1.2 .3 -1.8 .7 -1.7 1.2c0 .9 2.2 1.4 3.9 1.5c.3 0 .6 .1 .9 .1c2.9 0 6.7 -1 6.8 -1c.1 0 .1 -.1 .2 -.2Z" class="g3_134"/>
<path d="M558.7 442.3c0 -.1 .1 -.2 .1 -.3c-.1 -.1 -.2 -.2 -.3 -.2c-.2 0 -1.6 .1 -1.7 1c0 .3 .1 .5 .3 .7c.5 .7 1.8 1 4.2 1.1c.3 .1 .5 .1 .8 .1c3 0 5 -1 5.1 -1c0 0 .1 -.1 .1 -.2c0 -.1 0 -.2 -.1 -.2l-1.5 -1c-.1 0 -.2 0 -.2 0c0 0 -1 .2 -2.5 .4c-.2 .1 -.6 .1 -1 .1c-1.5 0 -3.1 -.3 -3.4 -.4q0 -.1 .1 -.1Z" class="g3_134"/>
<path d="M560.7 447.5c6.8 0 10.5 -1.2 11.2 -2c.2 -.3 .3 -.5 .2 -.7c0 -.4 -.4 -.6 -.4 -.7c-.1 0 -.3 0 -.4 .1c0 .1 0 .2 0 .3c.1 0 .1 .1 0 .3c-.3 .2 -3.1 1 -7.8 1.3c-.7 0 -1.4 0 -2.1 0c-4.2 0 -7.3 -.6 -7.7 -.9c.2 -.2 1.3 -.6 2.4 -.8c.2 0 .3 -.1 .2 -.3c0 -.1 -.1 -.2 -.2 -.2c-.1 0 -.2 0 -.3 0c-1.9 .2 -4.1 .4 -4.3 1.4c0 .3 .1 .6 .3 .8c.5 .6 2 1.4 8.9 1.4Z" class="g3_134"/>
<path d="M573.2 445.7c-.1 0 -.2 0 -.3 .1c0 0 -1 1.1 -4.1 1.7c-1.1 .2 -3.4 .3 -6.5 .3c-3.2 0 -6.2 -.1 -6.3 -.1c-.1 0 -.2 .1 -.2 .2c0 .1 0 .3 .2 .3c0 0 3.2 .7 7.5 .7c2.1 0 4.1 -.1 6 -.5c3.6 -.6 3.8 -2.4 3.9 -2.4c0 -.1 -.1 -.2 -.2 -.3Z" class="g3_134"/>
<path clip-path="url(#cb_134)" d="M600 448.1v-6.9l1.8 -1.3l1.2 .8l-.9 .7l4.1 2.4l4.2 -2.4l-.9 -.7l1.2 -.8l1.7 1.2v7l-6.2 3.6L600 448.1Zm5.6 -3.1l-4.3 -2.5v4.9l4.3 2.4V445Zm5.6 2.4v-4.9l-4.3 2.5v4.9l4.3 -2.5Zm-20.5 -4.6v-7.1l1.8 -1.2l1.2 .8l-1 .7l4.2 2.4l1.8 -1l.6 1.2l-1.7 1v4.9l1.1 -.6v1.5l-1.8 1l-6.2 -3.6Zm5.5 -3.2L592 437.1v5l4.2 2.4v-4.9Zm17.5 5.8v-1.6l1.2 .6v-4.8l-1.8 -1l.7 -1.2l1.8 1l4.2 -2.4l-1 -.7l1.2 -.8l1.8 1.2l-.1 7.1l-6.1 3.6l-1.9 -1Zm6.8 -3.4v-4.9l-4.2 2.5v4.8l4.2 -2.4ZM600 437.4v-7.1l6.2 -3.6l6.3 3.7v6.9l-6.3 3.8L600 437.4Zm5.5 -3.2l-4.2 -2.4v4.9l4.2 2.4v-4.9Zm5.7 2.5v-4.9l-4.3 2.4v4.9l4.3 -2.4Zm-.8 -6.1l-4.2 -2.4l-4.1 2.4l4.1 2.4l4.2 -2.4Zm-19.7 1.3v-7l6.2 -3.6l6.3 3.7v1.9l-1.3 .8v-1.4l-4.3 2.5v4.9l1.1 -.6v1.5l-1.8 .9l-6.2 -3.6Zm5.6 -3.1L592 426.4v4.9l4.2 2.4l.1 -4.9Zm4.7 -3.5l-4.1 -2.5l-4.1 2.4l4.1 2.4l4.1 -2.3Zm12.7 9.3v-1.5l1.2 .6v-4.9l-4.3 -2.4v1.2l-1.3 -.7V425l6.3 -3.7l6.2 3.6V432l-6.3 3.6l-1.8 -1Zm6.7 -3.3l.1 -4.8l-4.3 2.3v4.9l4.2 -2.4Zm-.8 -6l-4.1 -2.5l-4.1 2.5l4.1 2.3l4.1 -2.3Zm-14 -1.8l-4.3 -2.4v1.2l-1.3 -.8v-2l6.2 -3.6l6.3 3.7v1.9l-1.3 .7V421l-4.3 2.5v2h-1.3v-2Zm4.7 -3.7l-4.1 -2.4l-4.1 2.4l4.2 2.4l4 -2.4Z" class="g3_134"/>
<path d="M592.9 338.4v-16" class="g1_134"/>
<path d="M596.4 341.9c0 .4 -.1 .8 -.3 1.3c-.2 .4 -.4 .8 -.7 1.1c-.3 .3 -.7 .6 -1.1 .7c-.5 .2 -.9 .3 -1.4 .3c-.4 0 -.8 -.1 -1.3 -.3c-.4 -.1 -.8 -.4 -1.1 -.7c-.3 -.3 -.6 -.7 -.7 -1.1c-.2 -.5 -.3 -.9 -.3 -1.3c0 -.5 .1 -.9 .3 -1.4c.1 -.4 .4 -.8 .7 -1.1c.3 -.3 .7 -.6 1.1 -.7c.5 -.2 .9 -.3 1.3 -.3c.5 0 .9 .1 1.4 .3c.4 .1 .8 .4 1.1 .7c.3 .3 .5 .7 .7 1.1c.2 .5 .3 .9 .3 1.4Z" class="g3_134"/>
<path d="M596.4 341.9c0 .4 -.1 .8 -.3 1.3c-.2 .4 -.4 .8 -.7 1.1c-.3 .3 -.7 .6 -1.1 .7c-.5 .2 -.9 .3 -1.4 .3c-.4 0 -.8 -.1 -1.3 -.3c-.4 -.1 -.8 -.4 -1.1 -.7c-.3 -.3 -.6 -.7 -.7 -1.1c-.2 -.5 -.3 -.9 -.3 -1.3c0 -.5 .1 -.9 .3 -1.4c.1 -.4 .4 -.8 .7 -1.1c.3 -.3 .7 -.6 1.1 -.7c.5 -.2 .9 -.3 1.3 -.3c.5 0 .9 .1 1.4 .3c.4 .1 .8 .4 1.1 .7c.3 .3 .5 .7 .7 1.1c.2 .5 .3 .9 .3 1.4Z" class="g1_134"/>
<path d="M596.4 318.9c0 .5 -.1 .9 -.3 1.3c-.2 .5 -.4 .8 -.7 1.2c-.3 .3 -.7 .5 -1.1 .7c-.5 .2 -.9 .3 -1.4 .3c-.4 0 -.8 -.1 -1.3 -.3c-.4 -.2 -.8 -.4 -1.1 -.7c-.3 -.4 -.6 -.7 -.7 -1.2c-.2 -.4 -.3 -.8 -.3 -1.3c0 -.4 .1 -.9 .3 -1.3c.1 -.4 .4 -.8 .7 -1.1c.3 -.3 .7 -.6 1.1 -.7c.5 -.2 .9 -.3 1.3 -.3c.5 0 .9 .1 1.4 .3c.4 .1 .8 .4 1.1 .7c.3 .3 .5 .7 .7 1.1c.2 .4 .3 .9 .3 1.3Z" class="g3_134"/>
<path d="M596.4 318.9c0 .5 -.1 .9 -.3 1.3c-.2 .5 -.4 .8 -.7 1.2c-.3 .3 -.7 .5 -1.1 .7c-.5 .2 -.9 .3 -1.4 .3c-.4 0 -.8 -.1 -1.3 -.3c-.4 -.2 -.8 -.4 -1.1 -.7c-.3 -.4 -.6 -.7 -.7 -1.2c-.2 -.4 -.3 -.8 -.3 -1.3c0 -.4 .1 -.9 .3 -1.3c.1 -.4 .4 -.8 .7 -1.1c.3 -.3 .7 -.6 1.1 -.7c.5 -.2 .9 -.3 1.3 -.3c.5 0 .9 .1 1.4 .3c.4 .1 .8 .4 1.1 .7c.3 .3 .5 .7 .7 1.1c.2 .4 .3 .9 .3 1.3Zm-3.5 89.4V391.1" class="g1_134"/>
<path d="M596.4 411.7c0 .5 -.1 .9 -.3 1.3c-.2 .5 -.4 .8 -.7 1.2c-.3 .3 -.7 .5 -1.1 .7c-.5 .2 -.9 .3 -1.4 .3c-.4 0 -.8 -.1 -1.3 -.3c-.4 -.2 -.8 -.4 -1.1 -.7c-.3 -.4 -.6 -.7 -.7 -1.2c-.2 -.4 -.3 -.8 -.3 -1.3c0 -.4 .1 -.9 .3 -1.3c.1 -.4 .4 -.8 .7 -1.1c.3 -.3 .7 -.6 1.1 -.8c.5 -.1 .9 -.2 1.3 -.2c.5 0 .9 .1 1.4 .2c.4 .2 .8 .5 1.1 .8c.3 .3 .5 .7 .7 1.1c.2 .4 .3 .9 .3 1.3Z" class="g3_134"/>
<path d="M596.4 411.7c0 .5 -.1 .9 -.3 1.3c-.2 .5 -.4 .8 -.7 1.2c-.3 .3 -.7 .5 -1.1 .7c-.5 .2 -.9 .3 -1.4 .3c-.4 0 -.8 -.1 -1.3 -.3c-.4 -.2 -.8 -.4 -1.1 -.7c-.3 -.4 -.6 -.7 -.7 -1.2c-.2 -.4 -.3 -.8 -.3 -1.3c0 -.4 .1 -.9 .3 -1.3c.1 -.4 .4 -.8 .7 -1.1c.3 -.3 .7 -.6 1.1 -.8c.5 -.1 .9 -.2 1.3 -.2c.5 0 .9 .1 1.4 .2c.4 .2 .8 .5 1.1 .8c.3 .3 .5 .7 .7 1.1c.2 .4 .3 .9 .3 1.3Z" class="g1_134"/>
<path d="M596.4 387.7c0 .4 -.1 .9 -.3 1.3c-.2 .4 -.4 .8 -.7 1.1c-.3 .3 -.7 .6 -1.1 .8c-.5 .1 -.9 .2 -1.4 .2c-.4 0 -.8 -.1 -1.3 -.2c-.4 -.2 -.8 -.5 -1.1 -.8c-.3 -.3 -.6 -.7 -.7 -1.1c-.2 -.4 -.3 -.9 -.3 -1.3c0 -.5 .1 -.9 .3 -1.3c.1 -.5 .4 -.8 .7 -1.1c.3 -.4 .7 -.6 1.1 -.8c.5 -.2 .9 -.3 1.3 -.3c.5 0 .9 .1 1.4 .3c.4 .2 .8 .4 1.1 .8c.3 .3 .5 .6 .7 1.1c.2 .4 .3 .8 .3 1.3Z" class="g3_134"/>
<path d="M596.4 387.7c0 .4 -.1 .9 -.3 1.3c-.2 .4 -.4 .8 -.7 1.1c-.3 .3 -.7 .6 -1.1 .8c-.5 .1 -.9 .2 -1.4 .2c-.4 0 -.8 -.1 -1.3 -.2c-.4 -.2 -.8 -.5 -1.1 -.8c-.3 -.3 -.6 -.7 -.7 -1.1c-.2 -.4 -.3 -.9 -.3 -1.3c0 -.5 .1 -.9 .3 -1.3c.1 -.5 .4 -.8 .7 -1.1c.3 -.4 .7 -.6 1.1 -.8c.5 -.2 .9 -.3 1.3 -.3c.5 0 .9 .1 1.4 .3c.4 .2 .8 .4 1.1 .8c.3 .3 .5 .6 .7 1.1c.2 .4 .3 .8 .3 1.3Zm34.4 47h4c2.6 0 4 -3.9 4 -11.5V307.5c0 -7.7 -1.4 -11.5 -4 -11.5h-4" class="g1_134"/>
<path d="M630.8 434.6c0 .5 -.1 .9 -.3 1.4c-.2 .4 -.4 .7 -.7 1.1c-.4 .3 -.7 .5 -1.2 .7c-.4 .2 -.8 .3 -1.3 .3c-.4 0 -.9 -.1 -1.3 -.3c-.4 -.2 -.8 -.4 -1.1 -.7c-.3 -.4 -.6 -.7 -.8 -1.1c-.1 -.5 -.2 -.9 -.2 -1.4c0 -.4 .1 -.9 .2 -1.3c.2 -.4 .5 -.8 .8 -1.1c.3 -.3 .7 -.6 1.1 -.7c.4 -.2 .9 -.3 1.3 -.3c.5 0 .9 .1 1.3 .3c.5 .1 .8 .4 1.2 .7c.3 .3 .5 .7 .7 1.1c.2 .4 .3 .9 .3 1.3Z" class="g3_134"/>
<path d="M630.8 434.6c0 .5 -.1 .9 -.3 1.4c-.2 .4 -.4 .7 -.7 1.1c-.4 .3 -.7 .5 -1.2 .7c-.4 .2 -.8 .3 -1.3 .3c-.4 0 -.9 -.1 -1.3 -.3c-.4 -.2 -.8 -.4 -1.1 -.7c-.3 -.4 -.6 -.7 -.8 -1.1c-.1 -.5 -.2 -.9 -.2 -1.4c0 -.4 .1 -.9 .2 -1.3c.2 -.4 .5 -.8 .8 -1.1c.3 -.3 .7 -.6 1.1 -.7c.4 -.2 .9 -.3 1.3 -.3c.5 0 .9 .1 1.3 .3c.5 .1 .8 .4 1.2 .7c.3 .3 .5 .7 .7 1.1c.2 .4 .3 .9 .3 1.3Z" class="g1_134"/>
<path d="M630.8 296c0 .5 -.1 .9 -.3 1.3c-.2 .5 -.4 .8 -.7 1.1c-.4 .4 -.7 .6 -1.2 .8c-.4 .2 -.8 .3 -1.3 .3c-.4 0 -.9 -.1 -1.3 -.3c-.4 -.2 -.8 -.4 -1.1 -.8c-.3 -.3 -.6 -.6 -.8 -1.1c-.1 -.4 -.2 -.8 -.2 -1.3c0 -.4 .1 -.9 .2 -1.3c.2 -.4 .5 -.8 .8 -1.1c.3 -.3 .7 -.6 1.1 -.8c.4 -.1 .9 -.2 1.3 -.2c.5 0 .9 .1 1.3 .2c.5 .2 .8 .5 1.2 .8c.3 .3 .5 .7 .7 1.1c.2 .4 .3 .9 .3 1.3Z" class="g3_134"/>
<path d="M630.8 296c0 .5 -.1 .9 -.3 1.3c-.2 .5 -.4 .8 -.7 1.1c-.4 .4 -.7 .6 -1.2 .8c-.4 .2 -.8 .3 -1.3 .3c-.4 0 -.9 -.1 -1.3 -.3c-.4 -.2 -.8 -.4 -1.1 -.8c-.3 -.3 -.6 -.6 -.8 -1.1c-.1 -.4 -.2 -.8 -.2 -1.3c0 -.4 .1 -.9 .2 -1.3c.2 -.4 .5 -.8 .8 -1.1c.3 -.3 .7 -.6 1.1 -.8c.4 -.1 .9 -.2 1.3 -.2c.5 0 .9 .1 1.3 .2c.5 .2 .8 .5 1.2 .8c.3 .3 .5 .7 .7 1.1c.2 .4 .3 .9 .3 1.3Z" class="g1_134"/>
<path clip-path="url(#cc_134)" d="M105.2 406.4c-1.3 .9 -2.9 2 -3.7 3.8c-1.5 3.2 2.9 6.6 3.1 6.8q.1 0 .2 0c0 0 .1 0 .1 0c.1 -.1 .1 -.2 .1 -.3c0 0 -1.6 -3.1 -1.6 -5.3c.1 -.8 1.1 -1.7 2.3 -2.6c1 -.8 2.2 -1.8 2.9 -2.9c1.5 -2.5 -.2 -4.9 -.2 -5c0 -.1 -.2 -.1 -.3 0c-.1 0 -.1 .1 -.1 .2c0 0 .3 1.7 -.6 3.3c-.4 .7 -1.2 1.3 -2.2 2Z" class="g3_134"/>
<path d="M111 407.4c.1 0 .2 -.2 .1 -.3c-.1 -.1 -.2 -.1 -.3 -.1c-.2 .1 -5.7 2.2 -5.7 4.8c0 1.7 .7 2.7 1.3 3.4c.2 .2 .4 .5 .4 .6c.2 .6 -.2 1.6 -.4 2c0 .1 0 .2 .1 .3c0 0 .1 0 .1 0q.1 0 .2 0c.1 -.1 2.3 -1.6 1.9 -3.5c-.1 -.7 -.5 -1.3 -.8 -1.7c-.5 -.7 -.8 -1.3 -.3 -2.2c.6 -1.1 3.4 -3.2 3.4 -3.3Z" class="g3_134"/>
<path d="M96.7 418.2c-.1 .3 0 .5 .2 .8c.6 .8 2.7 1.3 5.9 1.3c.4 0 .9 0 1.4 -.1c5.1 -.1 7.1 -1.8 7.1 -1.8c.1 -.1 .2 -.2 .1 -.3c-.1 -.1 -.2 -.2 -.3 -.1c-1.8 .5 -5.2 .6 -7.6 .6c-2.6 0 -3.9 -.2 -4.3 -.3c.2 -.2 1.2 -.6 2.5 -.9c.2 0 .2 -.1 .2 -.3c0 -.1 -.1 -.2 -.2 -.2c-.8 0 -4.6 .1 -5 1.3Z" class="g3_134"/>
<path d="M114 416.5c-1 0 -2 .6 -2.1 .6c-.1 0 -.1 .1 -.1 .3c0 .1 .1 .1 .2 .1c.1 0 2.3 .1 2.5 1.3c.2 1.2 -2.1 2.9 -3 3.5c-.1 .1 -.2 .2 -.1 .3c0 .1 .1 .2 .2 .2h.1c.2 -.1 5.2 -1.2 4.7 -4.1c-.3 -1.8 -1.5 -2.2 -2.4 -2.2Z" class="g3_134"/>
<path d="M110.6 422c0 -.1 0 -.2 -.1 -.3l-1.2 -.8c-.1 0 -.2 -.1 -.2 0c0 0 -1.3 .3 -3.1 .5c-.8 .1 -1.6 .1 -2.4 .1c-1.8 0 -3 -.2 -3.2 -.3q0 -.1 0 -.1c0 -.1 .2 -.2 .3 -.3c.1 0 .2 -.1 .1 -.3c0 -.1 -.1 -.2 -.3 -.1c-1.2 .3 -1.8 .7 -1.7 1.2c.1 .9 2.2 1.4 4 1.5c.2 0 .5 0 .8 0c3 0 6.8 -.9 6.8 -.9c.1 0 .2 -.1 .2 -.2Z" class="g3_134"/>
<path d="M101.5 423.9c.1 0 .1 -.1 .1 -.2c-.1 -.1 -.2 -.2 -.3 -.2c-.1 0 -1.6 .1 -1.7 1c0 .2 .1 .5 .3 .7c.5 .6 1.9 1 4.2 1.1c.3 0 .6 0 .8 0c3 0 5 -.9 5.1 -.9q.1 -.1 .1 -.2c0 -.1 0 -.2 -.1 -.3l-1.5 -.9q-.1 0 -.2 0c0 0 -1 .2 -2.4 .4c-.3 0 -.7 0 -1.1 0c-1.4 0 -3.1 -.2 -3.4 -.4l.1 -.1Z" class="g3_134"/>
<path d="M103.5 429.1c6.8 0 10.5 -1.2 11.2 -1.9c.2 -.3 .3 -.6 .2 -.7c0 -.4 -.4 -.7 -.4 -.7c-.1 -.1 -.3 -.1 -.3 0c-.1 .1 -.1 .3 0 .4c0 0 0 .1 -.1 .2c-.3 .3 -3.1 1.1 -7.8 1.3c-.7 .1 -1.4 .1 -2 .1c-4.3 0 -7.4 -.6 -7.8 -.9c.2 -.3 1.3 -.6 2.4 -.8c.2 0 .3 -.2 .2 -.3c0 -.1 -.1 -.2 -.2 -.2c-.1 0 -.2 0 -.3 0c-1.9 .1 -4.1 .4 -4.2 1.4c-.1 .3 0 .6 .2 .8c.5 .6 2 1.3 8.9 1.3Z" class="g3_134"/>
<path d="M116 427.4c-.1 -.1 -.2 0 -.3 0c0 .1 -1 1.1 -4.1 1.7c-1.1 .3 -3.3 .4 -6.5 .4c-3.2 0 -6.2 -.1 -6.3 -.1c-.1 0 -.2 .1 -.2 .2c0 .1 0 .2 .2 .3c0 0 3.2 .7 7.5 .7c2.1 0 4.1 -.2 6 -.5c3.6 -.6 3.9 -2.4 3.9 -2.5c0 -.1 -.1 -.2 -.2 -.2Z" class="g3_134"/>
<path clip-path="url(#cd_134)" d="M242.2 353.7c-1.4 .9 -3 2 -3.8 3.8c-1.5 3.2 3 6.7 3.1 6.8c.1 0 .1 .1 .2 .1c.1 0 .1 -.1 .2 -.1c0 -.1 .1 -.2 0 -.3c0 0 -1.6 -3.1 -1.5 -5.3c0 -.8 1.1 -1.7 2.2 -2.6c1.1 -.8 2.2 -1.8 2.9 -2.9c1.6 -2.5 -.1 -4.9 -.2 -4.9c0 -.1 -.1 -.2 -.3 -.1c-.1 0 -.1 .1 -.1 .2c0 .1 .3 1.7 -.6 3.3c-.4 .7 -1.2 1.3 -2.1 2Z" class="g3_134"/>
<path d="M248 354.8c.1 -.1 .1 -.2 0 -.4c0 -.1 -.2 -.1 -.3 -.1c-.2 .1 -5.7 2.2 -5.7 4.8c0 1.8 .8 2.7 1.3 3.4c.2 .2 .4 .5 .5 .7c.1 .5 -.3 1.6 -.4 1.9c-.1 .1 -.1 .2 0 .3c.1 0 .1 .1 .2 .1c0 0 .1 -.1 .1 -.1c.1 -.1 2.3 -1.6 1.9 -3.5c-.1 -.7 -.5 -1.2 -.8 -1.7c-.5 -.7 -.8 -1.2 -.3 -2.2c.6 -1.1 3.4 -3.2 3.5 -3.2Z" class="g3_134"/>
<path d="M233.7 365.5c-.1 .3 -.1 .6 .1 .8c.6 .8 2.7 1.3 5.9 1.3c.5 0 .9 0 1.4 0c5.2 -.2 7.1 -1.8 7.2 -1.9c.1 -.1 .1 -.2 0 -.3c0 -.1 -.1 -.2 -.3 -.1c-1.8 .5 -5.2 .6 -7.5 .6c-2.7 0 -4 -.1 -4.3 -.3c.1 -.2 1.2 -.6 2.5 -.9c.1 0 .2 -.1 .2 -.2c-.1 -.2 -.2 -.3 -.3 -.3c-.7 0 -4.5 .1 -4.9 1.3Z" class="g3_134"/>
<path d="M251 363.8c-1.1 0 -2.1 .6 -2.2 .6c-.1 0 -.1 .2 -.1 .3c0 .1 .1 .2 .3 .2c0 0 2.2 0 2.4 1.3c.2 1.1 -2.1 2.9 -3 3.5c-.1 0 -.1 .2 -.1 .3c0 .1 .1 .1 .2 .1q.1 0 .1 0c.2 0 5.2 -1.2 4.7 -4.1c-.3 -1.8 -1.4 -2.2 -2.3 -2.2Z" class="g3_134"/>
<path d="M247.5 369.3c0 -.1 0 -.2 -.1 -.2l-1.2 -.9q-.1 0 -.2 0c0 0 -1.3 .3 -3.1 .5c-.7 .1 -1.6 .1 -2.4 .1c-1.8 0 -3 -.2 -3.2 -.3q0 -.1 0 -.1c0 -.1 .2 -.2 .3 -.2c.1 -.1 .2 -.2 .2 -.3c-.1 -.2 -.2 -.2 -.3 -.2c-1.2 .3 -1.8 .7 -1.8 1.2c.1 .9 2.2 1.4 4 1.5c.2 0 .5 0 .8 0c3 0 6.8 -.9 6.8 -.9c.1 0 .2 -.1 .2 -.2Z" class="g3_134"/>
<path d="M238.4 371.3c.1 -.1 .1 -.2 .1 -.3c0 -.1 -.1 -.2 -.2 -.2c-.2 0 -1.6 .1 -1.7 1c-.1 .3 0 .5 .2 .7c.5 .6 1.9 1 4.2 1.1c.3 0 .6 .1 .9 .1c2.9 0 4.9 -1 5 -1q.1 -.1 .1 -.2c0 -.1 0 -.2 -.1 -.2l-1.5 -1q-.1 0 -.2 0c0 0 -1 .2 -2.4 .4c-.3 0 -.6 .1 -1.1 .1c-1.4 0 -3 -.3 -3.4 -.4q0 -.1 .1 -.1Z" class="g3_134"/>
<path d="M240.5 376.5c6.8 0 10.4 -1.3 11.1 -2c.3 -.3 .3 -.5 .3 -.7c-.1 -.4 -.5 -.7 -.5 -.7c-.1 -.1 -.2 0 -.3 .1c-.1 0 -.1 .2 0 .3c0 0 .1 .1 -.1 .2c-.3 .3 -3.1 1.1 -7.8 1.3c-.7 .1 -1.3 .1 -2 .1c-4.2 0 -7.3 -.6 -7.7 -.9c.1 -.3 1.2 -.6 2.4 -.8c.1 0 .2 -.2 .2 -.3c0 -.1 -.2 -.2 -.3 -.2c0 0 -.1 0 -.3 0c-1.9 .1 -4.1 .4 -4.2 1.4c-.1 .3 0 .6 .2 .8c.6 .6 2.1 1.4 9 1.4Z" class="g3_134"/>
<path d="M253 374.7c-.1 0 -.3 0 -.3 .1c0 0 -1.1 1 -4.1 1.7c-1.2 .2 -3.4 .3 -6.6 .3c-3.2 0 -6.2 -.1 -6.2 -.1c-.2 0 -.3 .1 -.3 .2c0 .1 .1 .2 .2 .3c0 0 3.2 .7 7.5 .7c2.1 0 4.2 -.1 6.1 -.5c3.5 -.6 3.8 -2.4 3.8 -2.5c0 -.1 -.1 -.2 -.1 -.2Z" class="g3_134"/>
<path d="M382.3 273.1h119v45.8h-119V273.1Z" class="g1_134"/>
<path d="M427 273.1h74.3v45.8H427V273.1Z" class="g2_134"/>
<path clip-path="url(#ce_134)" d="M404.5 284.6c-1.6 1.1 -3.4 2.4 -4.4 4.5c-1.6 3.7 3.5 7.6 3.7 7.8c0 .1 .1 .1 .1 .1c.1 0 .2 0 .2 -.1c.1 -.1 .2 -.2 .1 -.3c0 -.1 -1.9 -3.6 -1.8 -6.2c0 -.9 1.3 -1.9 2.6 -3c1.2 -.9 2.6 -2 3.4 -3.3c1.7 -2.9 -.2 -5.7 -.2 -5.7c-.1 -.1 -.3 -.2 -.4 -.1c-.1 0 -.2 .2 -.1 .3c0 0 .3 1.9 -.7 3.8c-.5 .8 -1.4 1.4 -2.5 2.2Z" class="g3_134"/>
<path d="M411.2 285.9c.1 -.1 .1 -.3 0 -.4c0 -.1 -.2 -.2 -.3 -.1c-.3 .1 -6.6 2.5 -6.6 5.5c0 2 .9 3.1 1.5 3.9c.2 .3 .5 .6 .5 .8c.2 .6 -.2 1.8 -.4 2.2c-.1 .1 -.1 .3 0 .4q.1 0 .2 0q.1 0 .2 0c.1 -.1 2.6 -1.9 2.2 -4.1c-.2 -.8 -.6 -1.4 -1 -1.9c-.5 -.9 -.9 -1.5 -.3 -2.6c.7 -1.2 3.9 -3.7 4 -3.7Z" class="g3_134"/>
<path d="M394.7 298.3c-.1 .3 -.1 .6 .1 .9c.7 1 3.1 1.5 6.9 1.5c.5 0 1 0 1.6 0c5.9 -.3 8.1 -2.1 8.2 -2.2c.1 -.1 .2 -.2 .1 -.3c-.1 -.1 -.2 -.2 -.3 -.2c-2.1 .6 -6 .8 -8.8 .8c-3 0 -4.6 -.2 -4.9 -.4c.1 -.2 1.3 -.7 2.8 -1c.2 0 .3 -.2 .3 -.3c0 -.2 -.2 -.3 -.3 -.3c-.9 0 -5.3 .1 -5.7 1.5Z" class="g3_134"/>
<path d="M414.6 296.4c-1.2 0 -2.4 .6 -2.4 .6c-.1 .1 -.2 .2 -.1 .3c0 .2 .1 .2 .2 .2c.1 0 2.7 .1 2.9 1.5c.2 1.3 -2.5 3.4 -3.5 4.1c-.1 .1 -.2 .2 -.1 .3c0 .1 .1 .2 .2 .2q.1 0 .1 0c.2 0 6.1 -1.3 5.5 -4.7c-.4 -2.1 -1.7 -2.5 -2.8 -2.5Z" class="g3_134"/>
<path d="M410.6 302.7c.1 -.1 0 -.2 -.1 -.3l-1.4 -1c0 0 -.1 0 -.2 0c0 0 -1.5 .4 -3.6 .6c-.8 .1 -1.8 .1 -2.7 .1c-2.1 0 -3.5 -.2 -3.7 -.4c0 0 0 -.1 0 -.1c0 -.1 .2 -.2 .3 -.2c.2 -.1 .2 -.2 .2 -.4c0 -.1 -.2 -.2 -.3 -.2c-1.4 .4 -2.1 .8 -2.1 1.4c.1 1.1 2.6 1.6 4.6 1.8c.3 0 .6 0 1 0c3.4 0 7.8 -1.1 7.8 -1.1c.1 0 .2 -.1 .2 -.2Z" class="g3_134"/>
<path d="M400.1 304.9c.1 0 .2 -.2 .1 -.3c0 -.1 -.1 -.2 -.2 -.2c-.2 0 -1.9 .1 -2 1.2c0 .3 .1 .6 .3 .8c.6 .7 2.2 1.1 4.9 1.3c.3 0 .6 0 .9 0c3.5 0 5.8 -1.1 5.9 -1.1c0 -.1 .1 -.1 .1 -.3c0 -.1 0 -.2 -.1 -.2L408.2 305c0 0 -.1 0 -.2 0c0 0 -1.1 .2 -2.8 .4c-.3 .1 -.7 .1 -1.2 .1c-1.7 0 -3.6 -.3 -3.9 -.4q0 -.1 0 -.2Z" class="g3_134"/>
<path d="M402.5 310.9c7.9 0 12.1 -1.4 12.9 -2.2c.3 -.3 .3 -.6 .3 -.8c-.1 -.5 -.5 -.8 -.5 -.8c-.2 -.1 -.3 -.1 -.4 0c-.1 .1 -.1 .3 0 .4c0 .1 .1 .2 -.1 .3c-.3 .3 -3.6 1.2 -9 1.5c-.8 0 -1.6 .1 -2.4 .1c-4.8 0 -8.4 -.7 -8.9 -1.1c.2 -.3 1.5 -.7 2.8 -.9c.2 0 .3 -.2 .3 -.3c-.1 -.2 -.2 -.3 -.4 -.3c0 0 -.1 .1 -.3 .1c-2.2 .1 -4.8 .4 -4.9 1.5c0 .4 .1 .7 .3 1c.6 .6 2.3 1.5 10.3 1.5Z" class="g3_134"/>
<path d="M416.9 308.9c-.1 0 -.2 0 -.3 .1c0 0 -1.2 1.2 -4.7 1.9c-1.4 .3 -3.9 .5 -7.6 .5c-3.7 0 -7.2 -.2 -7.2 -.2c-.2 0 -.3 .1 -.3 .3c0 .1 .1 .2 .2 .3c.1 0 3.7 .8 8.7 .8c2.4 0 4.8 -.2 7 -.5c4.1 -.8 4.4 -2.8 4.4 -2.9c0 -.1 -.1 -.2 -.2 -.3Z" class="g3_134"/>
<path d="M427 341.9h74.3v45.8H427V341.9Z" class="g2_134"/>
<g clip-path="url(#c0_134)">
<path d="M382.3 411.7h119v45.9h-119V411.7Z" class="g1_134"/>
<path d="M427 411.7h74.3v45.9H427V411.7Z" class="g2_134"/>
</g>
<path d="M387.5 416.9v34.4h34.3V416.9H387.5Zm27.3 9c.2 0 .3 0 .4 0v.4c-.1 0 -.2 0 -.3 0c-.4 0 -.5 .2 -.5 .6v.4h.7v.4h-.7v2.5h-.5v-2.5h-.5v-.4h.5v-.4c0 -.4 .1 -.6 .3 -.8c.2 -.1 .4 -.2 .6 -.2Zm-15.6 .1c.1 0 .2 0 .3 .1c0 0 0 .1 0 .2q0 .1 0 .2c-.1 .1 -.2 .1 -.3 .1c0 0 -.1 0 -.2 -.1c0 -.1 -.1 -.1 -.1 -.2c0 -.1 .1 -.2 .1 -.2c.1 -.1 .2 -.1 .2 -.1Zm-5.3 .2h.6l1.4 3.3h.1l1.4 -3.3h.6v4h-.5l.1 -3.5l-1.5 3.5h-.3l-1.5 -3.5l.1 3.5h-.5v-4Zm22.4 .3v.8h.7v.4h-.7v1.6c0 .2 0 .4 0 .4c.1 .1 .2 .2 .4 .2c.1 0 .2 -.1 .3 -.1v.4c-.1 0 -.3 .1 -.5 .1c-.5 0 -.7 -.3 -.7 -.9v-1.7h-.5v-.4h.5v-.7c.1 0 .3 -.1 .5 -.1Zm1.8 .2c.2 0 .4 .1 .5 .2c.2 .2 .2 .4 .2 .6c0 .2 0 .4 -.2 .5c-.1 .2 -.3 .2 -.5 .2c-.2 0 -.4 0 -.6 -.2c-.1 -.1 -.2 -.3 -.2 -.5c0 -.2 .1 -.4 .2 -.6c.2 -.1 .4 -.2 .6 -.2Zm0 .1c-.2 0 -.4 .1 -.5 .2c-.1 .1 -.2 .3 -.2 .5c0 .2 .1 .3 .2 .5c.1 .1 .3 .2 .5 .2c.2 0 .3 -.1 .5 -.2c.1 -.2 .1 -.3 .1 -.5c0 -.2 0 -.4 -.1 -.5c-.2 -.1 -.3 -.2 -.5 -.2Zm-.3 .2h.3c.1 0 .2 0 .2 .1c.1 0 .1 .1 .1 .2c0 0 0 .1 -.1 .1c0 .1 -.1 .1 -.1 .1c0 0 .1 .1 .1 .2l.1 .3h-.1l-.1 -.3q-.1 -.1 -.2 -.1h-.1v.4h-.1v-1Zm.1 .1v.3h.2c.1 0 .2 0 .2 -.1c0 -.1 -.1 -.1 -.1 -.1c0 -.1 -.1 -.1 -.2 -.1h-.1Zm-6.1 .1c.4 0 .7 .2 1 .4c.2 .3 .3 .7 .3 1.1c0 .5 -.1 .9 -.3 1.1c-.3 .3 -.7 .5 -1.1 .5c-.4 0 -.8 -.2 -1 -.5c-.3 -.2 -.4 -.6 -.4 -1c0 -.5 .1 -.9 .4 -1.2c.3 -.2 .6 -.4 1.1 -.4Zm-10.1 .1c.2 0 .4 0 .6 .1v.5c-.2 -.2 -.4 -.2 -.6 -.2c-.3 0 -.6 .1 -.8 .3c-.2 .2 -.3 .5 -.3 .8c0 .3 .1 .6 .3 .8c.2 .2 .4 .3 .7 .3c.3 0 .5 -.1 .7 -.3v.5c-.2 .1 -.5 .2 -.8 .2c-.4 0 -.7 -.2 -1 -.4c-.2 -.3 -.3 -.6 -.3 -1.1c0 -.4 .1 -.8 .4 -1.1c.3 -.3 .6 -.4 1.1 -.4Zm4.5 0c.4 0 .8 .1 1 .4c.2 .2 .4 .6 .4 1.1c0 .4 -.2 .8 -.4 1.1c-.3 .2 -.6 .4 -1.1 .4c-.4 0 -.7 -.2 -1 -.4c-.2 -.3 -.4 -.7 -.4 -1.1c0 -.5 .2 -.9 .5 -1.2c.2 -.2 .6 -.3 1 -.3Zm2.9 0c.2 0 .4 0 .6 .1v.5c-.2 -.2 -.4 -.3 -.6 -.3c-.2 0 -.3 .1 -.4 .2c-.1 0 -.1 .1 -.1 .2c0 .2 0 .3 .1 .4c0 0 .2 .1 .4 .2c.3 .1 .4 .2 .5 .3c.2 .1 .2 .3 .2 .5c0 .3 0 .5 -.2 .6c-.2 .2 -.5 .3 -.8 .3c-.3 0 -.5 -.1 -.7 -.2v-.5c.2 .2 .5 .3 .7 .3c.4 0 .6 -.2 .6 -.4c0 -.1 0 -.2 -.1 -.3c-.1 -.1 -.3 -.2 -.5 -.3c-.2 -.1 -.4 -.2 -.5 -.3c-.1 -.1 -.2 -.3 -.2 -.5c0 -.2 .1 -.4 .3 -.6c.2 -.2 .4 -.2 .7 -.2Zm-4.8 0c.1 0 .2 0 .2 0v.5c0 -.1 -.2 -.1 -.3 -.1c-.2 0 -.4 .1 -.5 .2c-.1 .2 -.2 .5 -.2 .8v1.5H403v-2.9h.5v.6c.1 -.2 .2 -.4 .3 -.5c.1 -.1 .3 -.1 .5 -.1Zm-5.3 0h.5v2.9H399v-2.9Zm7.2 .3c-.3 0 -.6 .1 -.7 .3c-.2 .2 -.3 .5 -.3 .9c0 .3 .1 .6 .3 .8c.1 .2 .4 .3 .7 .3c.3 0 .5 -.1 .7 -.3c.1 -.2 .2 -.5 .2 -.8c0 -.4 -.1 -.7 -.3 -.9c-.1 -.2 -.3 -.3 -.6 -.3Zm5.5 0c-.2 0 -.5 .1 -.7 .3c-.1 .2 -.2 .5 -.2 .9c0 .3 .1 .6 .2 .8c.2 .2 .4 .3 .7 .3c.3 0 .6 -.1 .7 -.3c.2 -.2 .3 -.5 .3 -.8c0 -.4 -.1 -.7 -.3 -.9c-.1 -.2 -.4 -.3 -.7 -.3Zm-17.8 3.9h1.6l5.7 8.9v-8.9h1.2v10.6h-1.5L395.1 433v9.1h-1.2V431.5Zm10.8 0h5.4v1.1H406v3.6h3.8v1.1H406V441h4.3v1.1h-5.6V431.5Zm6.8 0h7.3v1.1h-3v9.5h-1.3v-9.5h-3v-1.1Zm-20.2 9.1c.2 0 .4 .1 .6 .2c.1 .2 .2 .4 .2 .6c0 .3 -.1 .5 -.2 .6c-.2 .2 -.4 .3 -.6 .3c-.3 0 -.4 -.1 -.6 -.3c-.2 -.1 -.2 -.3 -.2 -.6c0 -.2 0 -.4 .2 -.6c.2 -.1 .3 -.2 .6 -.2Z" class="g3_134"/>
<path d="M501.3 296h37.4" class="g2_134"/>
<path d="M544.7 296l-8 2.7l2 -2.7l-2 -2.7l8 2.7Z" class="g3_134"/>
<path d="M544.7 296l-8 2.7l2 -2.7l-2 -2.7l8 2.7Z" class="g2_134"/>
<path d="M517.3 290.3h14.9V304H517.3V290.3Z" class="g0_134"/>
<path d="M501.3 364.8h37.4" class="g2_134"/>
<path d="M544.7 364.8l-8 2.6l2 -2.6l-2 -2.7l8 2.7Z" class="g3_134"/>
<path d="M544.7 364.8l-8 2.6l2 -2.6l-2 -2.7l8 2.7Z" class="g2_134"/>
<path d="M517.3 359h14.9v13.8H517.3V359Z" class="g0_134"/>
<path d="M501.3 434.6h37.4" class="g2_134"/>
<path d="M544.7 434.6l-8 2.7l2 -2.7l-2 -2.6l8 2.6Z" class="g3_134"/>
<path d="M544.7 434.6l-8 2.7l2 -2.7l-2 -2.6l8 2.6Z" class="g2_134"/>
<path d="M517.3 428.9h14.9v13.8H517.3V428.9Z" class="g0_134"/>
</g>
<path d="M86.6 812.9H605.5" class="g4_134"/>
<path d="M86.6 839.8H605.5" class="g5_134"/>
<path d="M86.6 866.6H605.5" class="g6_134"/>
</svg>