<?xml version="1.0" encoding="UTF-8" standalone="no"?>
<!DOCTYPE svg PUBLIC "-//W3C//DTD SVG 1.1//EN"
"http://www.w3.org/Graphics/SVG/1.1/DTD/svg11.dtd">
<svg viewBox="0 0 714 1017" version="1.1" xmlns="http://www.w3.org/2000/svg" xmlns:xlink="http://www.w3.org/1999/xlink">
<defs>
<clipPath id="c0_105"><path d="M72.2 361.1V215.9H619.9V361.1Z"/></clipPath>
<clipPath id="c1_105"><path d="M70.7 718.7V625.9H621.9v92.8Z"/></clipPath>
<clipPath id="c2_105"><path d="M72.2 361.1V214.5h550V361.1Z"/></clipPath>
<clipPath id="c3_105"><path d="M70.7 719V625.8H622.3V719Z"/></clipPath>
<style type="text/css"><![CDATA[
.g0_105{
fill: #FFF;
}
.g1_105{
fill: none;
stroke: #000;
stroke-width: 1.145;
stroke-miterlimit: 10;
}
.g2_105{
fill: none;
stroke: #000;
stroke-width: 2.291;
stroke-miterlimit: 10;
}
.g3_105{
fill: #000;
}
.g4_105{
fill: none;
stroke: #000;
stroke-width: 3.437;
stroke-miterlimit: 10;
}
]]></style>
</defs>
<path d="M0 1017.7H717.2V-3.7H0V1017.7Z" class="g0_105"/>
<g clip-path="url(#c2_105)">
<path clip-path="url(#c0_105)" d="M72.2 215.9H619.9V361.5H72.2V215.9Z" class="g0_105"/>
<path d="M72.8 262.4H267.6v45.8H72.8V262.4Zm412.5 0H599.8v45.8H485.3V262.4ZM79.6 273.8h45.9v22.9H79.6V273.8Zm52.7 0h32.1v22.9H132.3V273.8Zm39 0h43.5v22.9H171.3V273.8Zm50.4 0h39v22.9h-39V273.8ZM279 262.4H473.8v45.8H279V262.4Zm6.9 11.4h34.4v22.9H285.9V273.8Zm40.1 0h28.6v22.9H326V273.8Zm35.5 0h48.1v22.9H361.5V273.8Zm55 0h50.4v22.9H416.5V273.8Zm75.6 0h34.4v22.9H492.1V273.8Zm41.3 0H593v22.9H533.4V273.8Z" class="g1_105"/>
<path d="M283.6 343.7V318.8" class="g2_105"/>
<path d="M283.6 311.9l3.1 9.2l-3.1 -2.3l-3.1 2.3l3.1 -9.2Z" class="g3_105"/>
<path d="M283.6 311.9l3.1 9.2l-3.1 -2.3l-3.1 2.3l3.1 -9.2ZM530 343.7V318.8" class="g2_105"/>
<path d="M530 311.9l3 9.2l-3 -2.3l-3.1 2.3l3.1 -9.2Z" class="g3_105"/>
<path d="M530 311.9l3 9.2l-3 -2.3l-3.1 2.3l3.1 -9.2ZM413.1 343.7V318.8" class="g2_105"/>
<path d="M413.1 311.9l3 9.2l-3 -2.3l-3.1 2.3l3.1 -9.2Z" class="g3_105"/>
<path d="M413.1 311.9l3 9.2l-3 -2.3l-3.1 2.3l3.1 -9.2Zm183.3 31.8V318.8" class="g2_105"/>
<path d="M596.4 311.9l3.1 9.2l-3.1 -2.3l-3.1 2.3l3.1 -9.2Z" class="g3_105"/>
<path d="M596.4 311.9l3.1 9.2l-3.1 -2.3l-3.1 2.3l3.1 -9.2Z" class="g2_105"/>
<path d="M203.9 254.2l-31.1 31.1l31.1 31.1l-2.6 2.6L170.2 287.9L139.1 319l-2.7 -2.6l31.1 -31.1L136.4 254.2l2.7 -2.7l31.1 31.1l31.1 -31.1l2.6 2.7Z" class="g3_105"/>
</g>
<g clip-path="url(#c3_105)">
<path clip-path="url(#c1_105)" d="M70.7 625.9H621.9v92.8H70.7V625.9Z" class="g0_105"/>
<path d="M71.3 626.4h149v22.9H71.3V626.4Zm0 22.9h149v23H71.3v-23Zm0 23h149v22.9H71.3V672.3Zm0 22.9h149v22.9H71.3V695.2ZM323.4 637.9H584.6v22.9H323.4V637.9Zm0 22.9h275v22.9h-275V660.8Zm0 22.9H621.3v22.9H323.4V683.7Z" class="g1_105"/>
<path d="M248.9 672.3H287m-6.4 5.1l10.3 -5.1l-10.3 -5.2" class="g4_105"/>
</g>
</svg>