<?xml version="1.0" encoding="UTF-8" standalone="no"?>
<!DOCTYPE svg PUBLIC "-//W3C//DTD SVG 1.1//EN"
"http://www.w3.org/Graphics/SVG/1.1/DTD/svg11.dtd">
<svg viewBox="0 0 714 1017" version="1.1" xmlns="http://www.w3.org/2000/svg" xmlns:xlink="http://www.w3.org/1999/xlink">
<defs>
<clipPath id="c0_106"><path d="M87.1 279.1V161.4H649.3V279.1Z"/></clipPath>
<clipPath id="c1_106"><path d="M87.1 279.1V159.9H649.3V279.1Z"/></clipPath>
<style type="text/css"><![CDATA[
.g0_106{
fill: #FFF;
}
.g1_106{
fill: none;
stroke: #000;
stroke-width: 1.145;
stroke-miterlimit: 10;
}
.g2_106{
fill: #000;
}
.g3_106{
fill: none;
stroke: #000;
stroke-width: 3.437;
stroke-miterlimit: 10;
}
.g4_106{
fill: none;
stroke: #000;
stroke-width: 0.608;
stroke-miterlimit: 10;
}
]]></style>
</defs>
<path d="M0 1017.7H717.2V-3.7H0V1017.7Z" class="g0_106"/>
<g clip-path="url(#c1_106)">
<path clip-path="url(#c0_106)" d="M87.1 161.4H649.7v118H87.1v-118Z" class="g0_106"/>
<path d="M454.3 174.5h126v23h-126v-23Zm0 23H614.7v22.9H454.3V197.5Zm0 22.9H626.2v22.9H454.3V220.4Zm0 22.9H649.1v22.9H454.3V243.3ZM87.6 186h275v22.9H87.6V186Zm0 22.9h275v22.9H87.6V208.9Zm0 22.9h298v22.9H87.6V231.8Z" class="g1_106"/>
<path d="M503.6 277.7v-2.3h2.3v2.3h-2.3Zm0 -4.6v-2.3h2.3v2.3h-2.3Zm0 -4.6v-2.3h2.3v2.3h-2.3Zm0 -4.6v-2.3h2.3v2.3h-2.3Zm0 -4.6V257h2.3v2.3h-2.3Zm0 -4.6c0 -.8 0 -1.6 -.1 -2.4l2.3 -.1c0 .8 .1 1.7 .1 2.5h-2.3Zm-.2 -4.5c-.1 -.8 -.2 -1.6 -.4 -2.2l2.3 -.5c.1 .7 .3 1.6 .3 2.5l-2.2 .2Zm-.9 -4.1c-.3 -.7 -.6 -1.1 -1 -1.4l1.4 -1.8c.7 .5 1.2 1.3 1.7 2.3l-2.1 .9ZM500 244.4h-1.3c-.7 0 -1.3 -.3 -1.7 -1l1.9 -1.3h-.2H500v2.3Zm-3.9 -3.6c-.1 -.7 -.2 -1.4 -.3 -2.3l2.3 -.2c.1 .8 .1 1.5 .2 2l-2.2 .5Zm-.5 -4.7c0 -.7 0 -1.4 0 -2.2l2.3 -.1c0 .8 0 1.5 0 2.2l-2.3 .1Zm-.1 -4.7v-2.3h2.3v2.3h-2.3Zm0 -4.6v-.7c0 -.7 0 -1.3 0 -1.8l2.2 -.2c.1 .6 .1 1.3 .1 2v.7h-2.3Zm-.4 -4.2c-.3 -.6 -.5 -.9 -.9 -1l.8 -2.2c1 .4 1.7 1.1 2.2 2.3l-2.1 .9Zm-3 -1.1c-.9 -.2 -1.5 -1.2 -1.8 -2.9l2.3 -.4c.1 .5 .2 .9 .3 1.2c0 -.1 -.1 -.1 -.3 -.2l-.5 2.3ZM490 216.2c0 -.7 -.1 -1.5 -.1 -2.4l2.3 -.1c0 .9 .1 1.7 .1 2.4l-2.3 .1Zm-.2 -4.6c0 -.8 0 -1.6 0 -2.5h2.3c0 .9 0 1.7 0 2.5h-2.3Zm0 -4.8v-2.3h2.3v2.3h-2.3Zm0 -4.8c0 -.8 -.1 -1.5 -.2 -2.1l2.3 -.4c.1 .7 .2 1.5 .2 2.4l-2.3 .1Zm-.7 -3.4q.1 0 .1 0h-.8c-.7 0 -1.2 -.5 -1.5 -1.4l2.3 -.6q0 .1 0 .1c-.2 -.3 -.4 -.4 -.8 -.4h.8c.5 0 .9 .1 1.3 .4l-1.4 1.9Zm-2.5 -4c0 -.6 -.1 -1.3 -.1 -2.1l2.3 -.1c0 .8 0 1.5 .1 2.1l-2.3 .1Zm-.2 -4.5c0 -.7 0 -1.5 0 -2.3h2.3c0 .8 0 1.6 0 2.3h-2.3Zm0 -4.7v-2.3h2.3v2.3h-2.3Zm0 -4.6v-2.3h2.3v2.3h-2.3Zm0 -4.6v-2.3h2.3v2.3h-2.3Zm0 -4.6v-2.3h2.3v2.3h-2.3Zm0 -4.5v-2.3h2.3v2.3h-2.3Z" class="g2_106"/>
<path d="M551.7 276.5v-2.3H554v2.3h-2.3Zm0 -4.6v-2.3H554v2.3h-2.3Zm0 -4.6v-2.2H554v2.2h-2.3Zm0 -4.5v-2.3H554v2.3h-2.3Zm0 -4.6v-2.3H554v2.3h-2.3Zm-.1 -4.7c0 -.7 -.1 -1.4 -.2 -2l2.2 -.4c.1 .7 .2 1.4 .3 2.2l-2.3 .2Zm-.8 -4.2c-.2 -.6 -.5 -1.2 -.8 -1.7l1.9 -1.2c.4 .6 .8 1.3 1.1 2.2l-2.2 .7Zm-2.1 -3c-.5 -.3 -1 -.5 -1.7 -.6l.5 -2.3c.9 .2 1.7 .5 2.5 1l-1.3 1.9Zm-3.8 -.7h-2.3v-2.3h2.3v2.3ZM539.8 244c-.4 -.6 -.8 -1.5 -1.1 -2.5l2.3 -.6c.2 .8 .4 1.4 .7 1.8l-1.9 1.3Zm-1.5 -4.8c-.1 -.8 -.2 -1.5 -.2 -2.4l2.2 -.1c.1 .8 .2 1.5 .3 2.2l-2.3 .3Zm-.3 -4.7c0 -.5 -.1 -1 -.1 -1.5v-1h2.3v1c0 .5 0 1 .1 1.4l-2.3 .1Zm-.1 -4.8v-2.3h2.3v2.3h-2.3Zm-.2 -4.6c-.1 -.6 -.3 -1.1 -.5 -1.5l1.8 -1.3c.5 .6 .8 1.4 1 2.3l-2.3 .5ZM536 222.8c-.3 -.1 -.6 -.1 -.9 -.1h-1.3v-2.3h1.3c.5 0 1 0 1.5 .2l-.6 2.2ZM531 221c-.2 -.6 -.5 -1.5 -.6 -2.5l2.2 -.4c.2 .9 .3 1.5 .5 2L531 221Zm-.9 -4.8c0 -.8 -.1 -1.5 -.1 -2.4h2.3c0 .8 .1 1.5 .1 2.2l-2.3 .2Zm-.2 -4.7c0 -.5 0 -.9 0 -1.4v-1h2.3v1c0 .4 0 .9 0 1.4h-2.3Zm0 -4.7v-2.3h2.3v2.3h-2.3Zm-.2 -4.5c-.2 -.6 -.5 -1 -.8 -1.4l1.6 -1.6c.6 .6 1.1 1.4 1.3 2.3l-2.1 .7Zm-2.2 -2.2c-.6 -.2 -1.3 -.4 -2.1 -.4v-2.2c1.1 0 2.1 .1 2.9 .4l-.8 2.2Zm-4.4 -.4h-.6c-1 0 -1.7 -.4 -2.3 -1.3l1.9 -1.3c.1 .2 .3 .4 .4 .4h.6v2.2Zm-3.9 -3.9c-.2 -.6 -.3 -1.4 -.4 -2.2l2.3 -.3c.1 .8 .2 1.4 .3 2l-2.2 .5Zm-.6 -4.6c-.1 -.7 -.1 -1.5 -.1 -2.3l2.3 -.1c0 .8 0 1.6 .1 2.3l-2.3 .1Zm-.1 -4.8v-2.3h2.3v2.3h-2.3Zm0 -4.6v-2.3h2.3v2.3h-2.3Zm0 -4.5V175h2.3v2.3h-2.3Zm0 -4.6v-2.3h2.3v2.3h-2.3Zm0 -4.6v-2.3h2.3v2.3h-2.3Zm0 -4.6v-.4h2.3v.4h-2.3Z" class="g2_106"/>
<path d="M598.7 277.7v-2.3H601v2.3h-2.3Zm0 -4.6v-2.3H601v2.3h-2.3Zm0 -4.6v-2.3H601v2.3h-2.3Zm0 -4.6v-2.3H601v2.3h-2.3Zm0 -4.6V257H601v2.3h-2.3Zm-.1 -4.6c0 -.8 -.1 -1.5 -.2 -2.2l2.3 -.4c.1 .8 .2 1.6 .2 2.5l-2.3 .1Zm-.7 -4.1c-.2 -.7 -.5 -1.3 -.9 -1.9l1.9 -1.2c.5 .7 .9 1.4 1.2 2.3l-2.2 .8Zm-2.1 -3.3c-.5 -.4 -1.1 -.8 -1.7 -1l.9 -2.1c.8 .3 1.6 .8 2.2 1.3l-1.4 1.8Zm-3.6 -1.5c-.6 -.2 -1.4 -.2 -2.1 -.2H590v-2.3h.1c.9 0 1.7 .1 2.5 .2l-.4 2.3Zm-4.5 -.2h-2.3v-2.3h2.3v2.3Zm-5.1 -.8c-.7 -.5 -1.3 -1.3 -1.8 -2.2l2 -1c.3 .6 .7 1 1.1 1.3l-1.3 1.9Zm-2.7 -4.5c-.2 -.7 -.3 -1.6 -.4 -2.5l2.2 -.3c.1 .8 .3 1.6 .5 2.2l-2.3 .6Zm-.6 -4.7c-.1 -.8 -.1 -1.7 -.1 -2.6h2.3c0 .9 0 1.7 .1 2.4l-2.3 .2Zm-.1 -4.9v-2.2h2.3v2.2h-2.3Zm0 -4.7c-.1 -.8 -.2 -1.5 -.3 -2.1l2.2 -.5c.2 .7 .3 1.5 .3 2.4l-2.2 .2Zm-.9 -3.3c-.1 0 -.2 0 -.3 0h-1.1c-.3 0 -.6 -.1 -.8 -.3l1.3 -1.9c-.1 -.1 -.3 -.1 -.5 -.1H578c.6 0 1.1 .1 1.5 .4l-1.2 1.9ZM575 219.4c-.1 -.6 -.2 -1.4 -.2 -2.3l2.3 -.1c0 .8 .1 1.6 .2 2.2l-2.3 .2Zm-.3 -4.7c0 -.7 -.1 -1.4 -.1 -2.2h2.3c0 .7 0 1.5 .1 2.1l-2.3 .1Zm-.1 -4.7v-2.3h2.3V210h-2.3Zm0 -4.6v-1.1c0 -.3 0 -.6 -.1 -.9l2.2 -.6c.1 .5 .2 1 .2 1.5v1.1h-2.3Zm-.9 -3.4c-.4 -.4 -.9 -.8 -1.6 -1.1l1 -2.1c.9 .5 1.6 1 2.2 1.6l-1.6 1.6Zm-3.5 -1.7c-.6 -.1 -1.3 -.3 -2.1 -.4l.3 -2.2c.8 .1 1.6 .2 2.4 .4l-.6 2.2Zm-4.3 -.5c-.5 0 -1 -.1 -1.6 -.1h-.8v-2.2h.8c.6 0 1.2 0 1.7 0l-.1 2.3Zm-4.7 -.1h-2.3v-2.2h2.3v2.2Zm-4.7 0c-1 -.1 -1.8 -.4 -2.6 -.8l1.1 -2c.5 .3 1.1 .4 1.7 .5l-.2 2.3Zm-4.7 -2.6c-.5 -.6 -.9 -1.3 -1.2 -2.2l2.1 -.8c.3 .6 .6 1.2 .9 1.6l-1.8 1.4Zm-1.9 -4.7c-.2 -.7 -.3 -1.5 -.4 -2.2l2.3 -.3c.1 .7 .2 1.4 .3 2l-2.2 .5Zm-.5 -4.7c0 -.2 0 -.4 0 -.6v-1.8h2.3v1.8c0 .2 0 .4 0 .5l-2.3 .1Zm0 -4.7v-2.3h2.3V183h-2.3Zm0 -4.6v-2.3h2.3v2.3h-2.3Zm0 -4.6v-2.3h2.3v2.3h-2.3Zm0 -4.5V167h2.3v2.3h-2.3Zm0 -4.6v-1.6h2.3v1.6h-2.3Z" class="g2_106"/>
<path d="M391.3 220.4h38.1m-6.4 5.1l10.3 -5.1L423 215.2" class="g3_106"/>
</g>
<path d="M86.6 849.8H196.2" class="g4_106"/>
</svg>