<?xml version="1.0" encoding="UTF-8" standalone="no"?>
<!DOCTYPE svg PUBLIC "-//W3C//DTD SVG 1.1//EN"
"http://www.w3.org/Graphics/SVG/1.1/DTD/svg11.dtd">
<svg viewBox="0 0 714 1017" version="1.1" xmlns="http://www.w3.org/2000/svg" xmlns:xlink="http://www.w3.org/1999/xlink">
<defs>
<clipPath id="c0_101"><path d="M65 526.6V388H628.7V526.6Z"/></clipPath>
<clipPath id="c1_101"><path d="M110.3 264.9V96.9H583.9v168Z"/></clipPath>
<clipPath id="c2_101"><path d="M65 527V387.9H630.2V527Z"/></clipPath>
<style type="text/css"><![CDATA[
.g0_101{
fill: #FFF;
}
.g1_101{
fill: none;
stroke: #000;
stroke-width: 1.145;
stroke-miterlimit: 10;
}
.g2_101{
fill: #000;
}
]]></style>
</defs>
<path d="M0 1017.7H717.2V-3.7H0V1017.7Z" class="g0_101"/>
<g clip-path="url(#c1_101)">
<path d="M110.3 97H582.4V264.3H110.3V97Z" class="g0_101"/>
<path d="M110.9 162.1c0 -4 7.7 -7.2 17.2 -7.2c4.5 0 8.9 .7 12.1 2.1c3.3 1.3 5.1 3.2 5.1 5.1V182c0 4 -7.7 7.2 -17.2 7.2c-9.5 0 -17.2 -3.2 -17.2 -7.2V162.1Zm34.4 0c0 4 -7.7 7.3 -17.2 7.3c-9.5 0 -17.2 -3.3 -17.2 -7.3m5.7 -58.8h22.9v22.9H116.6V103.3Zm5.8 0V97.6m5.7 0v5.7m5.7 -5.7v5.7m-11.4 28.6v-5.7m5.7 0v5.7m5.7 -5.7v5.7M139.5 109h5.8m0 5.8h-5.8m5.8 5.7h-5.8M110.9 109h5.7m0 5.8h-5.7m5.7 5.7h-5.7M207.7 97.6h81.4c.7 0 1.3 .1 1.9 .4c.7 .2 1.2 .6 1.7 1.1c.5 .5 .9 1 1.1 1.7c.3 .6 .4 1.2 .4 1.9v24.1c0 .7 -.1 1.3 -.4 2c-.2 .6 -.6 1.2 -1.1 1.6c-.5 .5 -1 .9 -1.7 1.2c-.6 .2 -1.2 .3 -1.9 .3H207.7c-.7 0 -1.3 -.1 -2 -.3c-.6 -.3 -1.1 -.7 -1.6 -1.2c-.5 -.4 -.9 -1 -1.1 -1.6c-.3 -.7 -.4 -1.3 -.4 -2V102.7c0 -.7 .1 -1.3 .4 -1.9c.2 -.7 .6 -1.2 1.1 -1.7c.5 -.5 1 -.9 1.6 -1.1c.7 -.3 1.3 -.4 2 -.4Zm-1.1 57.3h81.3c.7 0 1.4 .1 2 .4c.6 .2 1.2 .6 1.7 1.1c.5 .5 .8 1 1.1 1.6c.3 .7 .4 1.3 .4 2v24.1c0 .7 -.1 1.3 -.4 2c-.3 .6 -.6 1.1 -1.1 1.6c-.5 .5 -1.1 .9 -1.7 1.1c-.6 .3 -1.3 .4 -2 .4H206.6c-.7 0 -1.4 -.1 -2 -.4c-.6 -.2 -1.2 -.6 -1.7 -1.1c-.5 -.5 -.8 -1 -1.1 -1.6c-.3 -.7 -.4 -1.3 -.4 -2V160c0 -.7 .1 -1.3 .4 -2c.3 -.6 .6 -1.1 1.1 -1.6c.5 -.5 1.1 -.9 1.7 -1.1c.6 -.3 1.3 -.4 2 -.4Zm137.5 0h81.3c.7 0 1.4 .1 2 .4c.6 .2 1.2 .6 1.7 1.1c.5 .5 .8 1 1.1 1.6c.3 .7 .4 1.3 .4 2v24.1c0 .7 -.1 1.3 -.4 2c-.3 .6 -.6 1.1 -1.1 1.6c-.5 .5 -1.1 .9 -1.7 1.1c-.6 .3 -1.3 .4 -2 .4H344.1c-.7 0 -1.4 -.1 -2 -.4c-.6 -.2 -1.2 -.6 -1.7 -1.1c-.5 -.5 -.8 -1 -1.1 -1.6c-.3 -.7 -.4 -1.3 -.4 -2V160c0 -.7 .1 -1.3 .4 -2c.3 -.6 .6 -1.1 1.1 -1.6c.5 -.5 1.1 -.9 1.7 -1.1c.6 -.3 1.3 -.4 2 -.4ZM206.6 229.3h81.3c.7 0 1.4 .2 2 .4c.6 .3 1.2 .7 1.7 1.2c.5 .4 .8 1 1.1 1.6c.3 .7 .4 1.3 .4 2v24.1c0 .6 -.1 1.3 -.4 1.9c-.3 .7 -.6 1.2 -1.1 1.7c-.5 .5 -1.1 .9 -1.7 1.1c-.6 .3 -1.3 .4 -2 .4H206.6c-.7 0 -1.4 -.1 -2 -.4c-.6 -.2 -1.2 -.6 -1.7 -1.1c-.5 -.5 -.8 -1 -1.1 -1.7c-.3 -.6 -.4 -1.3 -.4 -1.9V234.5c0 -.7 .1 -1.3 .4 -2c.3 -.6 .6 -1.2 1.1 -1.6c.5 -.5 1.1 -.9 1.7 -1.2c.6 -.2 1.3 -.4 2 -.4Zm137.5 0h81.3c.7 0 1.4 .2 2 .4c.6 .3 1.2 .7 1.7 1.2c.5 .4 .8 1 1.1 1.6c.3 .7 .4 1.3 .4 2v24.1c0 .6 -.1 1.3 -.4 1.9c-.3 .7 -.6 1.2 -1.1 1.7c-.5 .5 -1.1 .9 -1.7 1.1c-.6 .3 -1.3 .4 -2 .4H344.1c-.7 0 -1.4 -.1 -2 -.4c-.6 -.2 -1.2 -.6 -1.7 -1.1c-.5 -.5 -.8 -1 -1.1 -1.7c-.3 -.6 -.4 -1.3 -.4 -1.9V234.5c0 -.7 .1 -1.3 .4 -2c.3 -.6 .6 -1.2 1.1 -1.6c.5 -.5 1.1 -.9 1.7 -1.2c.6 -.2 1.3 -.4 2 -.4Zm137.5 0h81.3c.7 0 1.4 .2 2 .4c.6 .3 1.2 .7 1.7 1.2c.5 .4 .8 1 1.1 1.6c.3 .7 .4 1.3 .4 2v24.1c0 .6 -.1 1.3 -.4 1.9c-.3 .7 -.6 1.2 -1.1 1.7c-.5 .5 -1.1 .9 -1.7 1.1c-.6 .3 -1.3 .4 -2 .4H481.6c-.7 0 -1.4 -.1 -2 -.4c-.6 -.2 -1.2 -.6 -1.7 -1.1c-.5 -.5 -.8 -1 -1.1 -1.7c-.3 -.6 -.4 -1.3 -.4 -1.9V234.5c0 -.7 .1 -1.3 .4 -2c.3 -.6 .6 -1.2 1.1 -1.6c.5 -.5 1.1 -.9 1.7 -1.2c.6 -.2 1.3 -.4 2 -.4ZM247.3 189.2V222" class="g1_101"/>
<path d="M247.3 228.1L244.6 220l2.7 2l2.6 -2l-2.6 8.1Z" class="g2_101"/>
<path d="M247.3 228.1L244.6 220l2.7 2l2.6 -2l-2.6 8.1Zm22.9 -38.9l85 37.2" class="g1_101"/>
<path d="M360.7 228.8l-8.5 -.7l3 -1.7l-.8 -3.2l6.3 5.6Z" class="g2_101"/>
<path d="M360.7 228.8l-8.5 -.7l3 -1.7l-.8 -3.2l6.3 5.6Zm1.1 -39.6l-85 37.2" class="g1_101"/>
<path d="M271.3 228.8l6.3 -5.6l-.8 3.2l3 1.7l-8.5 .7Z" class="g2_101"/>
<path d="M271.3 228.8l6.3 -5.6l-.8 3.2l3 1.7l-8.5 .7ZM384.8 189.2V222" class="g1_101"/>
<path d="M384.8 228.1L382.1 220l2.7 2l2.6 -2l-2.6 8.1Z" class="g2_101"/>
<path d="M384.8 228.1L382.1 220l2.7 2l2.6 -2l-2.6 8.1Zm22.9 -38.9l85 37.2" class="g1_101"/>
<path d="M498.2 228.8l-8.5 -.7l3 -1.7l-.8 -3.2l6.3 5.6Z" class="g2_101"/>
<path d="M498.2 228.8l-8.5 -.7l3 -1.7l-.8 -3.2l6.3 5.6Z" class="g1_101"/>
<path d="M110.9 142.8H112V144h-1.1m5.7 -1.2h1.2V144h-1.2m5.8 -1.2h1.1V144h-1.1m5.7 -1.2h1.1V144h-1.1m5.7 -1.2H135V144h-1.2m5.7 -1.2h1.2V144h-1.2m5.8 -1.2h1.1V144h-1.1m5.7 -1.2h1.1V144H151m5.7 -1.2h1.2V144h-1.2m5.8 -1.2h1.1V144h-1.1m5.7 -1.2h1.1V144h-1.1m5.7 -1.2h1.2V144h-1.2m5.7 -1.2h1.2V144h-1.2m5.8 -1.2h1.1V144h-1.1m5.7 -1.2h1.2V144h-1.2m5.7 -1.2H198V144h-1.2m5.8 -1.2h1.1V144h-1.1m5.7 -1.2h1.1V144h-1.1m5.7 -1.2h1.2V144H214m5.8 -1.2h1.1V144h-1.1m5.7 -1.2h1.1V144h-1.1m5.7 -1.2h1.2V144h-1.2m5.7 -1.2h1.2V144h-1.2m5.8 -1.2h1.1V144h-1.1m5.7 -1.2h1.1V144h-1.1m5.7 -1.2h1.2V144h-1.2m5.8 -1.2H261V144h-1.1m5.7 -1.2h1.1V144h-1.1m5.7 -1.2h1.2V144h-1.2m5.7 -1.2h1.2V144H277m5.8 -1.2h1.1V144h-1.1m5.7 -1.2h1.1V144h-1.1m5.7 -1.2h1.2V144h-1.2m5.8 -1.2h1.1V144H300m5.7 -1.2h1.1V144h-1.1m5.7 -1.2h1.2V144h-1.2m5.7 -1.2h1.2V144h-1.2m5.8 -1.2H324V144h-1.1m5.7 -1.2h1.2V144h-1.2m5.7 -1.2h1.2V144h-1.2m5.8 -1.2h1.1V144h-1.1m5.7 -1.2h1.1V144h-1.1m5.7 -1.2h1.2V144h-1.2m5.8 -1.2h1.1V144h-1.1m5.7 -1.2h1.1V144H363m5.7 -1.2h1.2V144h-1.2m5.7 -1.2h1.2V144h-1.2m5.8 -1.2h1.1V144h-1.1m5.7 -1.2H387V144h-1.1m5.7 -1.2h1.2V144h-1.2m5.8 -1.2h1.1V144h-1.1m5.7 -1.2h1.1V144h-1.1m5.7 -1.2H410V144h-1.2m5.7 -1.2h1.2V144h-1.2m5.8 -1.2h1.1V144h-1.1m5.7 -1.2h1.1V144H426m5.7 -1.2h1.2V144h-1.2m5.8 -1.2h1.1V144h-1.1m5.7 -1.2h1.1V144h-1.1m5.7 -1.2h1.2V144h-1.2m5.7 -1.2h1.2V144h-1.2m5.8 -1.2h1.1V144h-1.1m5.7 -1.2h1.2V144h-1.2m5.7 -1.2H473V144h-1.2m5.8 -1.2h1.1V144h-1.1m5.7 -1.2h1.1V144h-1.1m5.7 -1.2h1.2V144H489m5.8 -1.2h1.1V144h-1.1m5.7 -1.2h1.1V144h-1.1m5.7 -1.2h1.2V144h-1.2m5.7 -1.2h1.2V144h-1.2m5.8 -1.2h1.1V144h-1.1m5.7 -1.2h1.1V144h-1.1m5.7 -1.2h1.2V144h-1.2m5.8 -1.2H536V144h-1.1m5.7 -1.2h1.1V144h-1.1m5.7 -1.2h1.2V144h-1.2m5.7 -1.2h1.2V144H552m5.8 -1.2h1.1V144h-1.1m5.7 -1.2h1.1V144h-1.1m5.7 -1.2h1.2V144h-1.2m5.8 -1.2h1.1V144H575Z" class="g2_101"/>
</g>
<g clip-path="url(#c2_101)">
<path clip-path="url(#c0_101)" d="M65 388H628.7V526.6H65V388Z" class="g0_101"/>
<path d="M65.5 452c0 -4 7.7 -7.3 17.2 -7.3c4.6 0 8.9 .8 12.2 2.1c3.2 1.4 5 3.2 5 5.2v19.8c0 4 -7.7 7.3 -17.2 7.3c-9.5 0 -17.2 -3.3 -17.2 -7.3V452Zm34.4 0c0 4 -7.7 7.2 -17.2 7.2C73.2 459.2 65.5 456 65.5 452" class="g1_101"/>
<path d="M67.8 432.7H69v1.1H67.8m5.8 -1.1h1.1v1.1H73.6m5.7 -1.1h1.1v1.2H79.3M85 432.7h1.2v1.2H85m5.7 -1.2h1.2v1.2H90.7m5.8 -1.2l1.1 .1v1.1H96.5m5.7 -1.1h1.1v1.1h-1.1m5.7 -1.1h1.2v1.1h-1.2m5.8 -1.1h1.1v1.1h-1.1m5.7 -1.1h1.1v1.1h-1.1m5.7 -1.1h1.2V434h-1.2m5.7 -1.2H132V434h-1.2m5.8 -1.2h1.1V434h-1.1m5.7 -1.2h1.2l-.1 1.2h-1.1m5.7 -1.1h1.2V434H148m5.8 -1.1h1.1V434h-1.1m5.7 -1.1h1.1V434h-1.1m5.7 -1.1h1.2V434h-1.2m5.8 -1.1h1.1V434h-1.2m5.8 -1.1h1.1v1.2h-1.1m5.7 -1.2h1.2v1.2h-1.2m5.7 -1.2h1.2v1.2h-1.2m5.8 -1.2l1.1 .1v1.1h-1.1m5.7 -1.1h1.1v1.1h-1.1m5.7 -1.1h1.2v1.1h-1.2m5.8 -1.1h1.1v1.1h-1.1m5.7 -1.1h1.1v1.1h-1.1m5.7 -1.1h1.2v1.2h-1.2m5.7 -1.2h1.2v1.2h-1.2M234 433h1.1v1.2H234m5.7 -1.2h1.1v1.2h-1.1m5.7 -1.1h1.2v1.1h-1.2m5.8 -1.1h1.1v1.1h-1.1m5.7 -1.1H258v1.1h-1.1m5.7 -1.1h1.2v1.1h-1.2m5.7 -1.1h1.2v1.1h-1.2m5.8 -1.1h1.1v1.2h-1.1m5.7 -1.2H281l-.1 1.2h-1.1m5.7 -1.2h1.2v1.2h-1.2m5.8 -1.2h1.1v1.2h-1.1m5.7 -1.1h1.1v1.1H297m5.7 -1.1h1.2v1.1h-1.2m5.8 -1.1h1.1v1.1h-1.2m5.8 -1.1h1.1v1.1h-1.1m5.7 -1.1h1.2v1.2h-1.2m5.7 -1.2h1.2v1.2h-1.2m5.8 -1.2h1.1v1.2h-1.1m5.7 -1.2h1.1v1.2h-1.1m5.7 -1.1H344v1.1h-1.2m5.8 -1.1h1.1v1.1h-1.1m5.7 -1.1h1.1v1.1h-1.1m5.7 -1.1h1.2v1.1H360m5.7 -1.1h1.2v1.1h-1.2m5.8 -1.1h1.1v1.2h-1.1m5.7 -1.2h1.1v1.2h-1.1m5.7 -1.2h1.2v1.2h-1.2m5.8 -1.2h1.1v1.2h-1.1m5.7 -1.1h1.1v1.1h-1.1m5.7 -1.1h1.2v1.1h-1.2m5.7 -1.1H407v1.1h-1.2m5.8 -1.1h1.1v1.1h-1.1m5.7 -1.1h1.2l-.1 1.2h-1.1m5.7 -1.2h1.2v1.2H423m5.8 -1.2h1.1v1.2h-1.1m5.7 -1.2h1.1v1.2h-1.1m5.7 -1.1h1.2v1.1h-1.2m5.8 -1.1h1.1v1.1h-1.2m5.8 -1.1h1.1v1.1h-1.1m5.7 -1.1h1.2v1.1h-1.2m5.7 -1.1h1.2v1.1h-1.2m5.8 -1.1H470v1.2h-1.1m5.7 -1.2h1.1v1.2h-1.1m5.7 -1.2h1.2v1.2h-1.2m5.8 -1.2h1.1v1.2h-1.1m5.7 -1.1h1.1v1.1h-1.1m5.7 -1.1h1.2v1.1h-1.2m5.7 -1.1h1.2v1.1h-1.2m5.8 -1.1h1.1v1.1H509m5.7 -1.1h1.1v1.2h-1.1m5.7 -1.2h1.2v1.2h-1.2m5.8 -1.2h1.1v1.2h-1.1m5.7 -1.2H533v1.2h-1.1m5.7 -1.1h1.2v1.1h-1.2m5.7 -1.1h1.2v1.1h-1.2m5.8 -1.1h1.1v1.1h-1.1m5.7 -1.1H556l-.1 1.1h-1.1m5.7 -1.1h1.2v1.1h-1.2m5.8 -1.1h1.1v1.2h-1.1m5.7 -1.2h1.1v1.2H572m5.7 -1.2h1.2v1.2h-1.2m5.8 -1.2h1.1v1.2h-1.2m5.8 -1.1h1.1v1.1h-1.1m5.7 -1.1h1.2v1.1h-1.2m5.7 -1.1h1.2v1.1h-1.2m5.8 -1.1h1.1v1.1h-1.1m5.7 -1.1h1.1V435h-1.1m5.7 -1.2H619V435h-1.2m5.8 -1.2h1.1V435h-1.1Z" class="g2_101"/>
<path d="M71.3 394.3H94.2v22.9H71.3V394.3Zm5.7 0v-5.7m5.7 0v5.7m5.8 -5.7v5.7M77 423v-5.8m5.7 0V423m5.8 -5.8V423m5.7 -23h5.7m0 5.8H94.2m5.7 5.7H94.2M65.5 400h5.8m0 5.8H65.5m5.8 5.7H65.5m96.9 -22.9h81.3c.7 0 1.4 .1 2 .4c.6 .2 1.2 .6 1.7 1.1c.4 .5 .8 1 1.1 1.7c.2 .6 .4 1.2 .4 1.9v24.1c0 .7 -.2 1.3 -.4 2c-.3 .6 -.7 1.2 -1.1 1.6c-.5 .5 -1.1 .9 -1.7 1.2c-.6 .2 -1.3 .4 -2 .4H162.4c-.7 0 -1.4 -.2 -2 -.4c-.6 -.3 -1.2 -.7 -1.7 -1.2c-.5 -.4 -.8 -1 -1.1 -1.6c-.3 -.7 -.4 -1.3 -.4 -2V393.7c0 -.7 .1 -1.3 .4 -1.9c.3 -.7 .6 -1.2 1.1 -1.7c.5 -.5 1.1 -.9 1.7 -1.1c.6 -.3 1.3 -.4 2 -.4Zm-1 56.1h81c.7 0 1.4 .2 2 .4c.7 .3 1.3 .7 1.8 1.2c.5 .5 .8 1.1 1.1 1.7c.3 .7 .4 1.3 .4 2v24.9c0 .7 -.1 1.4 -.4 2.1c-.3 .6 -.6 1.2 -1.1 1.7c-.5 .5 -1.1 .9 -1.8 1.1c-.6 .3 -1.3 .4 -2 .4h-81c-.7 0 -1.4 -.1 -2.1 -.4c-.6 -.2 -1.2 -.6 -1.7 -1.1c-.5 -.5 -.9 -1.1 -1.1 -1.7c-.3 -.7 -.4 -1.4 -.4 -2.1V450c0 -.7 .1 -1.3 .4 -2c.2 -.6 .6 -1.2 1.1 -1.7c.5 -.5 1.1 -.9 1.7 -1.2c.7 -.2 1.4 -.4 2.1 -.4Zm-.2 47h81.4c.6 0 1.3 .1 1.9 .4c.7 .3 1.2 .6 1.7 1.1c.5 .5 .9 1.1 1.1 1.7c.3 .6 .4 1.3 .4 2v24c0 .7 -.1 1.4 -.4 2c-.2 .6 -.6 1.2 -1.1 1.7c-.5 .4 -1 .8 -1.7 1.1c-.6 .2 -1.3 .4 -1.9 .4H161.2c-.7 0 -1.3 -.2 -2 -.4c-.6 -.3 -1.2 -.7 -1.6 -1.1c-.5 -.5 -.9 -1.1 -1.2 -1.7c-.2 -.6 -.3 -1.3 -.3 -2v-24c0 -.7 .1 -1.4 .3 -2c.3 -.6 .7 -1.2 1.2 -1.7c.4 -.5 1 -.8 1.6 -1.1c.7 -.3 1.3 -.4 2 -.4Zm127.2 0h81.4c.6 0 1.3 .1 1.9 .4c.7 .3 1.2 .6 1.7 1.1c.5 .5 .9 1.1 1.1 1.7c.3 .6 .4 1.3 .4 2v24c0 .7 -.1 1.4 -.4 2c-.2 .6 -.6 1.2 -1.1 1.7c-.5 .4 -1 .8 -1.7 1.1c-.6 .2 -1.3 .4 -1.9 .4H288.4c-.7 0 -1.3 -.2 -2 -.4c-.6 -.3 -1.2 -.7 -1.6 -1.1c-.5 -.5 -.9 -1.1 -1.2 -1.7c-.2 -.6 -.4 -1.3 -.4 -2v-24c0 -.7 .2 -1.4 .4 -2c.3 -.6 .7 -1.2 1.2 -1.7c.4 -.5 1 -.8 1.6 -1.1c.7 -.3 1.3 -.4 2 -.4Zm126 0h81.4c.7 0 1.3 .1 2 .4c.6 .3 1.2 .6 1.6 1.1c.5 .5 .9 1.1 1.2 1.7c.2 .6 .4 1.3 .4 2v24c0 .7 -.2 1.4 -.4 2c-.3 .6 -.7 1.2 -1.2 1.7c-.4 .4 -1 .8 -1.6 1.1c-.7 .2 -1.3 .4 -2 .4H414.4c-.6 0 -1.3 -.2 -1.9 -.4c-.7 -.3 -1.2 -.7 -1.7 -1.1c-.5 -.5 -.9 -1.1 -1.1 -1.7c-.3 -.6 -.4 -1.3 -.4 -2v-24c0 -.7 .1 -1.4 .4 -2c.2 -.6 .6 -1.2 1.1 -1.7c.5 -.5 1 -.8 1.7 -1.1c.6 -.3 1.3 -.4 1.9 -.4Zm126.1 0h81.3c.7 0 1.4 .1 2 .4c.6 .3 1.2 .6 1.7 1.1c.5 .5 .8 1.1 1.1 1.7c.3 .6 .4 1.3 .4 2v24c0 .7 -.1 1.4 -.4 2c-.3 .6 -.6 1.2 -1.1 1.7c-.5 .4 -1.1 .8 -1.7 1.1c-.6 .2 -1.3 .4 -2 .4H540.5c-.7 0 -1.4 -.2 -2 -.4c-.6 -.3 -1.2 -.7 -1.7 -1.1c-.4 -.5 -.8 -1.1 -1.1 -1.7c-.2 -.6 -.4 -1.3 -.4 -2v-24c0 -.7 .2 -1.4 .4 -2c.3 -.6 .7 -1.2 1.1 -1.7c.5 -.5 1.1 -.8 1.7 -1.1c.6 -.3 1.3 -.4 2 -.4Z" class="g1_101"/>
</g>
</svg>