<?xml version="1.0" encoding="UTF-8" standalone="no"?>
<!DOCTYPE svg PUBLIC "-//W3C//DTD SVG 1.1//EN"
"http://www.w3.org/Graphics/SVG/1.1/DTD/svg11.dtd">
<svg viewBox="0 0 714 1017" version="1.1" xmlns="http://www.w3.org/2000/svg" xmlns:xlink="http://www.w3.org/1999/xlink">
<defs>
<clipPath id="c0_151"><path d="M87.4 426.2V253.5H605.3V426.2Z"/></clipPath>
<clipPath id="c1_151"><path d="M87.4 426.2V252H606.9V426.2Z"/></clipPath>
<style type="text/css"><![CDATA[
.g0_151{
fill: #FFF;
}
.g1_151{
fill: none;
stroke: #000;
stroke-width: 1.145;
stroke-miterlimit: 10;
}
.g2_151{
fill: #000;
}
]]></style>
</defs>
<path d="M0 1017.7H717.2V-3.7H0V1017.7Z" class="g0_151"/>
<g clip-path="url(#c1_151)">
<path clip-path="url(#c0_151)" d="M87.4 253.5H605.3v173H87.4v-173Z" class="g0_151"/>
<path d="M178.5 265.5H282.8v34.4H178.5V265.5ZM88 341.5c0 -4 7.7 -7.2 17.2 -7.2c4.5 0 8.9 .8 12.1 2.1c3.2 1.4 5.1 3.2 5.1 5.1v19.9c0 4 -7.7 7.3 -17.2 7.3C95.7 368.7 88 365.4 88 361.4V341.5Zm34.4 0c0 4 -7.7 7.3 -17.2 7.3C95.7 348.8 88 345.5 88 341.5m5.7 -70.2h22.9v22.9H93.7V271.3Zm5.7 0v-5.8m5.8 0v5.8m5.7 -5.8v5.8M99.4 299.9v-5.7m5.8 0v5.7m5.7 -5.7v5.7M116.6 277h5.8m0 5.7h-5.8m5.8 5.8h-5.8M88 277h5.7m0 5.7H88m5.7 5.8H88m90.5 45.8h91.7v34.4H178.5V334.3Zm91.7 0H384.8v34.4H270.2V334.3Zm114.6 0H489v34.4H384.8V334.3Zm104.2 0H592.1v34.4H489V334.3Z" class="g1_151"/>
<path d="M88 310.8h3.4v1.1H88m6.9 -1.1h3.4v1.1H94.9m6.8 -1.1h3.5v1.1h-3.5m6.9 -1.1H112v1.1h-3.4m6.9 -1.1h3.4v1.1h-3.4m6.9 -1.1h3.4v1.1h-3.4m6.8 -1.1h3.5v1.1h-3.5m6.9 -1.1h3.4v1.1h-3.4m6.9 -1.1h3.4v1.1H143m6.9 -1.1h3.4v1.1h-3.4m6.8 -1.1h3.5v1.1h-3.5m6.9 -1.1H167v1.1h-3.4m6.9 -1.1h3.4v1.1h-3.4m6.9 -1.1h3.4v1.1h-3.4m6.8 -1.1h3.5v1.1h-3.5m6.9 -1.1h3.4v1.1h-3.4m6.9 -1.1h3.4v1.1H198m6.9 -1.1h3.4v1.1h-3.4m6.8 -1.1h3.5v1.1h-3.5m6.9 -1.1H222v1.1h-3.4m6.9 -1.1h3.4v1.1h-3.4m6.9 -1.1h3.4v1.1h-3.4m6.8 -1.1h3.5v1.1h-3.5m6.9 -1.1h3.4v1.1h-3.4m6.9 -1.1h3.4v1.1H253m6.9 -1.1h3.4v1.1h-3.4m6.8 -1.1h3.5v1.1h-3.5m6.9 -1.1H277v1.1h-3.4m6.9 -1.1h3.4v1.1h-3.4m6.9 -1.1h3.4v1.1h-3.4m6.8 -1.1h3.5v1.1h-3.5m6.9 -1.1h3.4v1.1h-3.4m6.9 -1.1h3.4v1.1H308m6.9 -1.1h3.4v1.1h-3.4m6.8 -1.1h3.5v1.1h-3.5m6.9 -1.1H332v1.1h-3.4m6.9 -1.1h3.4v1.1h-3.4m6.9 -1.1h3.4v1.1h-3.4m6.8 -1.1h3.5v1.1h-3.5m6.9 -1.1h3.4v1.1h-3.4m6.9 -1.1h3.4v1.1H363m6.9 -1.1h3.4v1.1h-3.4m6.8 -1.1h3.5v1.1h-3.5m6.9 -1.1H387v1.1h-3.4m6.9 -1.1h3.4v1.1h-3.4m6.9 -1.1h3.4v1.1h-3.4m6.8 -1.1h3.5v1.1h-3.5m6.9 -1.1h3.4v1.1h-3.4m6.9 -1.1h3.4v1.1H418m6.9 -1.1h3.4v1.1h-3.4m6.8 -1.1h3.5v1.1h-3.5m6.9 -1.1H442v1.1h-3.4m6.9 -1.1h3.4v1.1h-3.4m6.9 -1.1h3.4v1.1h-3.4m6.8 -1.1h3.5v1.1h-3.5m6.9 -1.1h3.4v1.1h-3.4m6.9 -1.1h3.4v1.1H473m6.9 -1.1h3.4v1.1h-3.4m6.8 -1.1h3.5v1.1h-3.5m6.9 -1.1H497v1.1h-3.4m6.9 -1.1h3.4v1.1h-3.4m6.9 -1.1h3.4v1.1h-3.4m6.8 -1.1h3.5v1.1h-3.5m6.9 -1.1h3.4v1.1h-3.4m6.9 -1.1h3.4v1.1H528m6.9 -1.1h3.4v1.1h-3.4m6.8 -1.1h3.5v1.1h-3.5m6.9 -1.1H552v1.1h-3.4m6.9 -1.1h3.4v1.1h-3.4m6.9 -1.1h3.4v1.1h-3.4m6.8 -1.1h3.5v1.1h-3.5m6.9 -1.1h3.4v1.1h-3.4m6.9 -1.1h3.4v1.1H583m6.9 -1.1h3.4v1.1h-3.4m6.8 -1.1h3.5v1.1h-3.5Z" class="g2_151"/>
<path clip-path="url(#c0_151)" d="M178.5 391.6h91.7V426H178.5V391.6Zm91.7 0H384.8V426H270.2V391.6Zm114.6 0H489V426H384.8V391.6Zm104.2 0H592.1V426H489V391.6ZM282.8 265.5H387v34.4H282.8V265.5Z" class="g1_151"/>
<path d="M282.8 334.3c0 .7 -.1 1.5 -.2 2.2c-.2 .8 -.4 1.5 -.7 2.2c-.3 .7 -.6 1.3 -1.1 1.9c-.4 .7 -.9 1.3 -1.4 1.8c-.5 .5 -1.1 1 -1.7 1.4c-.6 .4 -1.3 .8 -2 1.1c-.7 .3 -1.4 .5 -2.2 .6c-.7 .2 -1.4 .2 -2.2 .2c-.7 0 -1.5 0 -2.2 -.2c-.8 -.1 -1.5 -.3 -2.2 -.6c-.7 -.3 -1.3 -.7 -2 -1.1c-.6 -.4 -1.2 -.9 -1.7 -1.4c-.5 -.5 -1 -1.1 -1.4 -1.8c-.4 -.6 -.8 -1.2 -1.1 -1.9c-.3 -.7 -.5 -1.4 -.6 -2.2c-.2 -.7 -.2 -1.5 -.2 -2.2c0 -.8 0 -1.5 .2 -2.3c.1 -.7 .3 -1.4 .6 -2.1c.3 -.7 .7 -1.4 1.1 -2c.4 -.6 .9 -1.2 1.4 -1.7c.5 -.6 1.1 -1 1.7 -1.4c.7 -.5 1.3 -.8 2 -1.1c.7 -.3 1.4 -.5 2.2 -.7c.7 -.1 1.5 -.2 2.2 -.2c.8 0 1.5 .1 2.2 .2c.8 .2 1.5 .4 2.2 .7c.7 .3 1.4 .6 2 1.1c.6 .4 1.2 .8 1.7 1.4c.5 .5 1 1.1 1.4 1.7c.5 .6 .8 1.3 1.1 2c.3 .7 .5 1.4 .7 2.1c.1 .8 .2 1.5 .2 2.3Z" class="g2_151"/>
<path d="M191.1 391.6c0 .7 -.1 1.5 -.2 2.2c-.2 .7 -.4 1.5 -.7 2.2c-.3 .7 -.6 1.3 -1 1.9c-.4 .7 -.9 1.2 -1.5 1.8c-.5 .5 -1.1 1 -1.7 1.4c-.6 .4 -1.3 .8 -2 1.1c-.7 .2 -1.4 .5 -2.1 .6c-.8 .2 -1.5 .2 -2.3 .2c-.7 0 -1.5 0 -2.2 -.2c-.7 -.1 -1.4 -.4 -2.1 -.6c-.7 -.3 -1.4 -.7 -2 -1.1c-.6 -.4 -1.2 -.9 -1.8 -1.4c-.5 -.6 -1 -1.1 -1.4 -1.8c-.4 -.6 -.8 -1.2 -1 -1.9c-.3 -.7 -.5 -1.5 -.7 -2.2c-.1 -.7 -.2 -1.5 -.2 -2.2c0 -.8 .1 -1.5 .2 -2.3c.2 -.7 .4 -1.4 .7 -2.1c.2 -.7 .6 -1.4 1 -2c.4 -.6 .9 -1.2 1.4 -1.7c.6 -.6 1.2 -1 1.8 -1.5c.6 -.4 1.3 -.7 2 -1c.7 -.3 1.4 -.5 2.1 -.7c.7 -.1 1.5 -.2 2.2 -.2c.8 0 1.5 .1 2.3 .2c.7 .2 1.4 .4 2.1 .7c.7 .3 1.4 .6 2 1c.6 .5 1.2 .9 1.7 1.5c.6 .5 1.1 1.1 1.5 1.7c.4 .6 .7 1.3 1 2c.3 .7 .5 1.4 .7 2.1c.1 .8 .2 1.5 .2 2.3Z" class="g2_151"/>
<path d="M397.4 391.6c0 .7 -.1 1.5 -.3 2.2c-.1 .7 -.3 1.5 -.6 2.2c-.3 .7 -.7 1.3 -1.1 1.9c-.4 .7 -.9 1.2 -1.4 1.8c-.5 .5 -1.1 1 -1.7 1.4c-.7 .4 -1.3 .8 -2 1.1c-.7 .2 -1.4 .5 -2.2 .6c-.7 .2 -1.5 .2 -2.2 .2c-.8 0 -1.5 0 -2.2 -.2c-.8 -.1 -1.5 -.4 -2.2 -.6c-.7 -.3 -1.3 -.7 -2 -1.1c-.6 -.4 -1.2 -.9 -1.7 -1.4c-.5 -.6 -1 -1.1 -1.4 -1.8c-.4 -.6 -.8 -1.2 -1.1 -1.9c-.3 -.7 -.5 -1.5 -.6 -2.2c-.2 -.7 -.3 -1.5 -.3 -2.2c0 -.8 .1 -1.5 .3 -2.3c.1 -.7 .3 -1.4 .6 -2.1c.3 -.7 .7 -1.4 1.1 -2c.4 -.6 .9 -1.2 1.4 -1.7c.5 -.6 1.1 -1 1.7 -1.5c.7 -.4 1.3 -.7 2 -1c.7 -.3 1.4 -.5 2.2 -.7c.7 -.1 1.4 -.2 2.2 -.2c.7 0 1.5 .1 2.2 .2c.8 .2 1.5 .4 2.2 .7c.7 .3 1.3 .6 2 1c.6 .5 1.2 .9 1.7 1.5c.5 .5 1 1.1 1.4 1.7c.4 .6 .8 1.3 1.1 2c.3 .7 .5 1.4 .6 2.1c.2 .8 .3 1.5 .3 2.3Z" class="g2_151"/>
<path d="M191.1 334.3c0 .7 -.1 1.5 -.2 2.2c-.2 .8 -.4 1.5 -.7 2.2c-.3 .7 -.6 1.3 -1 1.9c-.4 .7 -.9 1.3 -1.5 1.8c-.5 .5 -1.1 1 -1.7 1.4c-.6 .4 -1.3 .8 -2 1.1c-.7 .3 -1.4 .5 -2.1 .6c-.8 .2 -1.5 .2 -2.3 .2c-.7 0 -1.5 0 -2.2 -.2c-.7 -.1 -1.4 -.3 -2.1 -.6c-.7 -.3 -1.4 -.7 -2 -1.1c-.6 -.4 -1.2 -.9 -1.8 -1.4c-.5 -.5 -1 -1.1 -1.4 -1.8c-.4 -.6 -.8 -1.2 -1 -1.9c-.3 -.7 -.5 -1.4 -.7 -2.2c-.1 -.7 -.2 -1.5 -.2 -2.2c0 -.8 .1 -1.5 .2 -2.3c.2 -.7 .4 -1.4 .7 -2.1c.2 -.7 .6 -1.4 1 -2c.4 -.6 .9 -1.2 1.4 -1.7c.6 -.6 1.2 -1 1.8 -1.4c.6 -.5 1.3 -.8 2 -1.1c.7 -.3 1.4 -.5 2.1 -.7c.7 -.1 1.5 -.2 2.2 -.2c.8 0 1.5 .1 2.3 .2c.7 .2 1.4 .4 2.1 .7c.7 .3 1.4 .6 2 1.1c.6 .4 1.2 .8 1.7 1.4c.6 .5 1.1 1.1 1.5 1.7c.4 .6 .7 1.3 1 2c.3 .7 .5 1.4 .7 2.1c.1 .8 .2 1.5 .2 2.3Z" class="g2_151"/>
<path d="M293.1 265.5c0 .8 -.1 1.5 -.2 2.3c-.2 .7 -.4 1.4 -.7 2.1c-.3 .7 -.6 1.4 -1 2c-.5 .6 -.9 1.2 -1.5 1.7c-.5 .6 -1.1 1 -1.7 1.5c-.6 .4 -1.3 .7 -2 1c-.7 .3 -1.4 .5 -2.1 .7c-.8 .1 -1.5 .2 -2.3 .2c-.7 0 -1.5 -.1 -2.2 -.2c-.7 -.2 -1.5 -.4 -2.2 -.7c-.7 -.3 -1.3 -.6 -1.9 -1c-.7 -.5 -1.2 -.9 -1.8 -1.5c-.5 -.5 -1 -1.1 -1.4 -1.7c-.4 -.6 -.8 -1.3 -1.1 -2c-.2 -.7 -.5 -1.4 -.6 -2.1c-.2 -.8 -.2 -1.5 -.2 -2.3c0 -.7 0 -1.5 .2 -2.2c.1 -.7 .4 -1.5 .6 -2.2c.3 -.6 .7 -1.3 1.1 -1.9c.4 -.7 .9 -1.2 1.4 -1.8c.6 -.5 1.1 -1 1.8 -1.4c.6 -.4 1.2 -.8 1.9 -1.1c.7 -.2 1.5 -.5 2.2 -.6c.7 -.2 1.5 -.2 2.2 -.2c.8 0 1.5 0 2.3 .2c.7 .1 1.4 .4 2.1 .6c.7 .3 1.4 .7 2 1.1c.6 .4 1.2 .9 1.7 1.4c.6 .6 1 1.1 1.5 1.8c.4 .6 .7 1.3 1 1.9c.3 .7 .5 1.5 .7 2.2c.1 .7 .2 1.5 .2 2.2Z" class="g2_151"/>
</g>
</svg>