<?xml version="1.0" encoding="UTF-8" standalone="no"?>
<!DOCTYPE svg PUBLIC "-//W3C//DTD SVG 1.1//EN"
"http://www.w3.org/Graphics/SVG/1.1/DTD/svg11.dtd">
<svg viewBox="0 0 714 1017" version="1.1" xmlns="http://www.w3.org/2000/svg" xmlns:xlink="http://www.w3.org/1999/xlink">
<defs>
<clipPath id="c0_296"><path d="M87.1 271.2V97H648.5V271.2Z"/></clipPath>
<clipPath id="c1_296"><path d="M92.4 653.4V491.8H643.5V653.4Z"/></clipPath>
<clipPath id="c2_296"><path d="M87.1 271.2V97H649.3V271.2Z"/></clipPath>
<clipPath id="c3_296"><path d="M92.4 653.9V490.4H643.9V653.9Z"/></clipPath>
<style type="text/css"><![CDATA[
.g0_296{
fill: #FFF;
}
.g1_296{
fill: none;
stroke: #000;
stroke-width: 2.291;
stroke-miterlimit: 10;
}
.g2_296{
fill: none;
stroke: #000;
stroke-width: 1.145;
stroke-miterlimit: 10;
}
.g3_296{
fill: #000;
}
.g4_296{
fill: #DDD;
}
.g5_296{
fill: none;
stroke: #000;
stroke-width: 0.81;
stroke-miterlimit: 10;
}
.g6_296{
fill: none;
stroke: #000;
stroke-width: 0.608;
stroke-miterlimit: 10;
}
]]></style>
</defs>
<path d="M0 1017.7H717.2V-3.7H0V1017.7Z" class="g0_296"/>
<g clip-path="url(#c2_296)">
<g clip-path="url(#c0_296)">
<path d="M87.1 97H648.5V271.2H87.1V97Z" class="g0_296"/>
<path d="M116.5 113.6c0 1 -.1 1.9 -.3 2.8c-.2 .9 -.4 1.8 -.8 2.7c-.3 .9 -.8 1.7 -1.3 2.5c-.5 .8 -1.1 1.5 -1.8 2.1c-.7 .7 -1.4 1.3 -2.2 1.8c-.7 .5 -1.6 1 -2.4 1.3c-.9 .4 -1.8 .7 -2.7 .9c-.9 .1 -1.9 .2 -2.8 .2c-1 0 -1.9 -.1 -2.8 -.2c-.9 -.2 -1.8 -.5 -2.7 -.9c-.9 -.3 -1.7 -.8 -2.5 -1.3c-.8 -.5 -1.5 -1.1 -2.1 -1.8c-.7 -.6 -1.3 -1.3 -1.8 -2.1c-.5 -.8 -1 -1.6 -1.3 -2.5c-.4 -.9 -.7 -1.8 -.9 -2.7c-.1 -.9 -.2 -1.8 -.2 -2.8c0 -.9 .1 -1.9 .2 -2.8c.2 -.9 .5 -1.8 .9 -2.7c.3 -.8 .8 -1.7 1.3 -2.4c.5 -.8 1.1 -1.5 1.8 -2.2c.6 -.7 1.3 -1.3 2.1 -1.8c.8 -.5 1.6 -1 2.5 -1.3c.9 -.4 1.8 -.6 2.7 -.8c.9 -.2 1.8 -.3 2.8 -.3c.9 0 1.9 .1 2.8 .3c.9 .2 1.8 .4 2.7 .8c.8 .3 1.7 .8 2.4 1.3c.8 .5 1.5 1.1 2.2 1.8c.7 .7 1.3 1.4 1.8 2.2c.5 .7 1 1.6 1.3 2.4c.4 .9 .6 1.8 .8 2.7c.2 .9 .3 1.9 .3 2.8Z" class="g1_296"/>
</g>
<path d="M116.5 113.6H630.6" class="g2_296"/>
<path d="M636.6 113.6l-8 2.7l2 -2.7l-2 -2.7l8 2.7Z" class="g3_296"/>
<path d="M636.6 113.6l-8 2.7l2 -2.7l-2 -2.7l8 2.7Z" class="g2_296"/>
<path clip-path="url(#c0_296)" d="M116.5 159.4c0 1 -.1 1.9 -.3 2.8c-.2 1 -.4 1.9 -.8 2.7c-.3 .9 -.8 1.7 -1.3 2.5c-.5 .8 -1.1 1.5 -1.8 2.2c-.7 .6 -1.4 1.2 -2.2 1.8c-.7 .5 -1.6 .9 -2.4 1.3c-.9 .3 -1.8 .6 -2.7 .8c-.9 .2 -1.9 .3 -2.8 .3c-1 0 -1.9 -.1 -2.8 -.3c-.9 -.2 -1.8 -.5 -2.7 -.8c-.9 -.4 -1.7 -.8 -2.5 -1.3c-.8 -.6 -1.5 -1.2 -2.1 -1.8c-.7 -.7 -1.3 -1.4 -1.8 -2.2c-.5 -.8 -1 -1.6 -1.3 -2.5c-.4 -.8 -.7 -1.7 -.9 -2.7c-.1 -.9 -.2 -1.8 -.2 -2.8c0 -.9 .1 -1.8 .2 -2.7c.2 -1 .5 -1.9 .9 -2.7c.3 -.9 .8 -1.7 1.3 -2.5c.5 -.8 1.1 -1.5 1.8 -2.2c.6 -.6 1.3 -1.2 2.1 -1.8c.8 -.5 1.6 -.9 2.5 -1.3c.9 -.3 1.8 -.6 2.7 -.8c.9 -.2 1.8 -.3 2.8 -.3c.9 0 1.9 .1 2.8 .3c.9 .2 1.8 .5 2.7 .8c.8 .4 1.7 .8 2.4 1.3c.8 .6 1.5 1.2 2.2 1.8c.7 .7 1.3 1.4 1.8 2.2c.5 .8 1 1.6 1.3 2.5c.4 .8 .6 1.7 .8 2.7c.2 .9 .3 1.8 .3 2.7Z" class="g1_296"/>
<path d="M116.5 159.4H630.6" class="g2_296"/>
<path d="M636.6 159.4l-8 2.7l2 -2.7l-2 -2.6l8 2.6Z" class="g3_296"/>
<path d="M636.6 159.4l-8 2.7l2 -2.7l-2 -2.6l8 2.6Z" class="g2_296"/>
<path clip-path="url(#c0_296)" d="M116.5 205.3c0 .9 -.1 1.9 -.3 2.8c-.2 .9 -.4 1.8 -.8 2.7c-.3 .8 -.8 1.7 -1.3 2.4c-.5 .8 -1.1 1.5 -1.8 2.2c-.7 .7 -1.4 1.3 -2.2 1.8c-.7 .5 -1.6 1 -2.4 1.3c-.9 .4 -1.8 .6 -2.7 .8c-.9 .2 -1.9 .3 -2.8 .3c-1 0 -1.9 -.1 -2.8 -.3c-.9 -.2 -1.8 -.4 -2.7 -.8c-.9 -.3 -1.7 -.8 -2.5 -1.3c-.8 -.5 -1.5 -1.1 -2.1 -1.8c-.7 -.7 -1.3 -1.4 -1.8 -2.2c-.5 -.7 -1 -1.6 -1.3 -2.4c-.4 -.9 -.7 -1.8 -.9 -2.7c-.1 -.9 -.2 -1.9 -.2 -2.8c0 -1 .1 -1.9 .2 -2.8c.2 -.9 .5 -1.8 .9 -2.7c.3 -.9 .8 -1.7 1.3 -2.5c.5 -.8 1.1 -1.5 1.8 -2.1c.6 -.7 1.3 -1.3 2.1 -1.8c.8 -.6 1.6 -1 2.5 -1.4c.9 -.3 1.8 -.6 2.7 -.8c.9 -.1 1.8 -.2 2.8 -.2c.9 0 1.9 .1 2.8 .2c.9 .2 1.8 .5 2.7 .8c.8 .4 1.7 .8 2.4 1.4c.8 .5 1.5 1.1 2.2 1.8c.7 .6 1.3 1.3 1.8 2.1c.5 .8 1 1.6 1.3 2.5c.4 .9 .6 1.8 .8 2.7c.2 .9 .3 1.8 .3 2.8Z" class="g1_296"/>
<path d="M116.5 205.3H630.6" class="g2_296"/>
<path d="M636.6 205.3l-8 2.7l2 -2.7l-2 -2.7l8 2.7Z" class="g3_296"/>
<path d="M636.6 205.3l-8 2.7l2 -2.7l-2 -2.7l8 2.7Z" class="g2_296"/>
<path clip-path="url(#c0_296)" d="M116.5 251.1c0 1 -.1 1.9 -.3 2.8c-.2 .9 -.4 1.8 -.8 2.7c-.3 .9 -.8 1.7 -1.3 2.5c-.5 .8 -1.1 1.5 -1.8 2.1c-.7 .7 -1.4 1.3 -2.2 1.8c-.7 .5 -1.6 1 -2.4 1.3c-.9 .4 -1.8 .7 -2.7 .9c-.9 .1 -1.9 .2 -2.8 .2c-1 0 -1.9 -.1 -2.8 -.2c-.9 -.2 -1.8 -.5 -2.7 -.9C95.8 264 95 263.5 94.2 263c-.8 -.5 -1.5 -1.1 -2.1 -1.8c-.7 -.6 -1.3 -1.3 -1.8 -2.1c-.5 -.8 -1 -1.6 -1.3 -2.5c-.4 -.9 -.7 -1.8 -.9 -2.7c-.1 -.9 -.2 -1.8 -.2 -2.8c0 -.9 .1 -1.9 .2 -2.8c.2 -.9 .5 -1.8 .9 -2.7c.3 -.8 .8 -1.7 1.3 -2.4c.5 -.8 1.1 -1.5 1.8 -2.2c.6 -.7 1.3 -1.3 2.1 -1.8c.8 -.5 1.6 -1 2.5 -1.3c.9 -.4 1.8 -.6 2.7 -.8c.9 -.2 1.8 -.3 2.8 -.3c.9 0 1.9 .1 2.8 .3c.9 .2 1.8 .4 2.7 .8c.8 .3 1.7 .8 2.4 1.3c.8 .5 1.5 1.1 2.2 1.8c.7 .7 1.3 1.4 1.8 2.2c.5 .7 1 1.6 1.3 2.4c.4 .9 .6 1.8 .8 2.7c.2 .9 .3 1.9 .3 2.8Z" class="g1_296"/>
<path d="M116.5 251.1H630.6" class="g2_296"/>
<path d="M636.6 251.1l-8 2.7l2 -2.7l-2 -2.7l8 2.7Z" class="g3_296"/>
<path d="M636.6 251.1l-8 2.7l2 -2.7l-2 -2.7l8 2.7Z" class="g2_296"/>
<path d="M132.9 269.4v-1.1H134v1.1M132.9 266v-1.1H134V266m-1.1 -3.4v-1.2H134v1.2m-1.1 -3.5V258H134v1.1m-1.1 -3.4v-1.1H134v1.1m-1.1 -3.4v-1.2H134v1.2m-1.1 -3.5v-1.1H134v1.1m-1.1 -3.4v-1.2H134v1.2m-1.1 -3.5v-1.1H134v1.1m-1.1 -3.4v-1.1H134v1.1m-1.2 -3.4v-1.2H134v1.2m-1.2 -3.5v-1.1H134v1.1m-1.2 -3.4v-1.1H134v1.1m-1.2 -3.4v-1.2H134v1.2m-1.2 -3.5v-1.1H134v1.1m-1.2 -3.4v-1.2H134v1.2m-1.2 -3.5v-1.1H134v1.1M132.8 211v-1.1H134V211m-1.2 -3.4v-1.2H134v1.2m-1.2 -3.5V203H134v1.1m-1.2 -3.4v-1.1h1.1v1.1m-1.1 -3.4v-1.2h1.1v1.2m-1.1 -3.5v-1.1h1.1v1.1m-1.1 -3.4v-1.2h1.1v1.2m-1.1 -3.5v-1.1h1.1v1.1m-1.1 -3.4v-1.1h1.1v1.1m-1.1 -3.4v-1.2h1.1v1.2m-1.1 -3.5v-1.1h1.1v1.1m-1.1 -3.4v-1.1h1.1v1.1m-1.1 -3.4v-1.2h1.1v1.2m-1.1 -3.5v-1.1h1.1v1.1m-1.1 -3.4v-1.2h1.1v1.2m-1.2 -3.5v-1.1h1.2v1.1M132.7 156v-1.1h1.2V156m-1.2 -3.4v-1.2h1.2v1.2m-1.2 -3.5V148h1.2v1.1m-1.2 -3.4v-1.1h1.2v1.1m-1.2 -3.4v-1.2h1.2v1.2m-1.2 -3.5v-1.1h1.2v1.1m-1.2 -3.4v-1.2h1.2v1.2m-1.2 -3.5v-1.1h1.2v1.1m-1.2 -3.4v-1.1h1.2v1.1m-1.2 -3.4v-1.2h1.1v1.2m-1.1 -3.5v-1.1h1.1v1.1m-1.1 -3.4v-1.1h1.1v1.1m-1.1 -3.4v-1.2h1.1v1.2m-1.1 -3.5v-1.1h1.1v1.1m-1.1 -3.4v-1.2h1.1v1.2m-1.1 -3.5v-1.1h1.1v1.1M132.7 101V99.9h1.1V101m-1.1 -3.4v0h1.1Z" class="g3_296"/>
<path d="M287.6 269.4v-1.1h1.1v1.1M287.6 266v-1.1h1.1V266m-1.1 -3.4v-1.2h1.1v1.2m-1.1 -3.5V258h1.1v1.1m-1.1 -3.4v-1.1h1.1v1.1m-1.1 -3.4v-1.2h1.1v1.2m-1.1 -3.5v-1.1h1.1v1.1m-1.2 -3.4v-1.2h1.2v1.2m-1.2 -3.5v-1.1h1.2v1.1m-1.2 -3.4v-1.1h1.2v1.1m-1.2 -3.4v-1.2h1.2v1.2m-1.2 -3.5v-1.1h1.2v1.1m-1.2 -3.4v-1.1h1.2v1.1m-1.2 -3.4v-1.2h1.2v1.2m-1.2 -3.5v-1.1h1.2v1.1m-1.2 -3.4v-1.2h1.2v1.2m-1.2 -3.5v-1.1h1.2v1.1M287.5 211v-1.1h1.1V211m-1.1 -3.4v-1.2h1.1v1.2m-1.1 -3.5V203h1.1v1.1m-1.1 -3.4v-1.1h1.1v1.1m-1.1 -3.4v-1.2h1.1v1.2m-1.1 -3.5v-1.1h1.1v1.1m-1.1 -3.4v-1.2h1.1v1.2m-1.1 -3.5v-1.1h1.1v1.1m-1.1 -3.4v-1.1h1.1v1.1m-1.1 -3.4v-1.2h1.1v1.2m-1.1 -3.5v-1.1h1.1v1.1m-1.1 -3.4v-1.1h1.1v1.1m-1.2 -3.4v-1.2h1.2v1.2m-1.2 -3.5v-1.1h1.2v1.1m-1.2 -3.4v-1.2h1.2v1.2m-1.2 -3.5v-1.1h1.2v1.1M287.4 156v-1.1h1.2V156m-1.2 -3.4v-1.2h1.2v1.2m-1.2 -3.5V148h1.2v1.1m-1.2 -3.4v-1.1h1.2v1.1m-1.2 -3.4v-1.2h1.2v1.2m-1.2 -3.5v-1.1h1.2v1.1m-1.2 -3.4v-1.2h1.1v1.2m-1.1 -3.5v-1.1h1.1v1.1m-1.1 -3.4v-1.1h1.1v1.1m-1.1 -3.4v-1.2h1.1v1.2m-1.1 -3.5v-1.1h1.1v1.1m-1.1 -3.4v-1.1h1.1v1.1m-1.1 -3.4v-1.2h1.1v1.2m-1.1 -3.5v-1.1h1.1v1.1m-1.1 -3.4v-1.2h1.1v1.2m-1.1 -3.5v-1.1h1.1v1.1M287.4 101V99.9h1.1V101Z" class="g3_296"/>
<path d="M236 269.4v-1.1h1.2v1.1M236 266v-1.1h1.2V266M236 262.6v-1.2h1.2v1.2M236 259.1V258h1.1l.1 1.1M236 255.7v-1.1h1.1v1.1M236 252.3v-1.2h1.1v1.2M236 248.8v-1.1h1.1v1.1M236 245.4v-1.2h1.1v1.2M236 241.9v-1.1h1.1v1.1M236 238.5v-1.1h1.1v1.1M236 235.1v-1.2h1.1v1.2M236 231.6v-1.1h1.1v1.1M236 228.2v-1.1h1.1v1.1M236 224.8v-1.2h1.1v1.2M236 221.3v-1.1h1.1v1.1m-1.2 -3.4v-1.2h1.2v1.2m-1.2 -3.5v-1.1h1.2v1.1M235.9 211v-1.1h1.2V211m-1.2 -3.4v-1.2h1.2v1.2m-1.2 -3.5V203h1.2v1.1m-1.2 -3.4v-1.1h1.2v1.1m-1.2 -3.4v-1.2h1.2v1.2m-1.2 -3.5v-1.1h1.2v1.1m-1.2 -3.4v-1.2h1.2v1.2m-1.2 -3.5v-1.1h1.2v1.1m-1.2 -3.4v-1.1H237v1.1m-1.1 -3.4v-1.2H237v1.2m-1.1 -3.5v-1.1H237v1.1m-1.1 -3.4v-1.1H237v1.1m-1.1 -3.4v-1.2H237v1.2m-1.1 -3.5v-1.1H237v1.1m-1.1 -3.4v-1.2H237v1.2m-1.1 -3.5v-1.1H237v1.1M235.9 156v-1.1H237V156m-1.1 -3.4v-1.2H237v1.2m-1.1 -3.5V148H237v1.1m-1.1 -3.4v-1.1H237v1.1m-1.2 -3.4v-1.2H237v1.2m-1.2 -3.5v-1.1H237v1.1m-1.2 -3.4v-1.2H237v1.2m-1.2 -3.5v-1.1H237v1.1m-1.2 -3.4v-1.1H237v1.1m-1.2 -3.4v-1.2H237v1.2m-1.2 -3.5v-1.1H237v1.1m-1.2 -3.4v-1.1H237v1.1m-1.2 -3.4v-1.2H237v1.2m-1.2 -3.5v-1.1H237v1.1m-1.2 -3.4v-1.2h1.1v1.2m-1.1 -3.5v-1.1h1.1v1.1M235.8 101V99.9h1.1V101Z" class="g3_296"/>
<path d="M184.5 269.4v-1.1h1.1v1.1M184.5 266v-1.1h1.1V266m-1.2 -3.4v-1.2h1.2v1.2m-1.2 -3.5V258h1.2v1.1m-1.2 -3.4v-1.1h1.2v1.1m-1.2 -3.4v-1.2h1.2v1.2m-1.2 -3.5v-1.1h1.2v1.1m-1.2 -3.4v-1.2h1.2v1.2m-1.2 -3.5v-1.1h1.2v1.1m-1.2 -3.4v-1.1h1.2v1.1m-1.2 -3.4v-1.2h1.2v1.2m-1.2 -3.5v-1.1h1.1l.1 1.1m-1.2 -3.4v-1.1h1.1v1.1m-1.1 -3.4v-1.2h1.1v1.2m-1.1 -3.5v-1.1h1.1v1.1m-1.1 -3.4v-1.2h1.1v1.2m-1.1 -3.5v-1.1h1.1v1.1M184.4 211v-1.1h1.1V211m-1.1 -3.4v-1.2h1.1v1.2m-1.1 -3.5V203h1.1v1.1m-1.1 -3.4v-1.1h1.1v1.1m-1.1 -3.4v-1.2h1.1v1.2m-1.1 -3.5v-1.1h1.1v1.1m-1.1 -3.4l-.1 -1.2h1.2v1.2m-1.2 -3.5v-1.1h1.2v1.1m-1.2 -3.4v-1.1h1.2v1.1m-1.2 -3.4v-1.2h1.2v1.2m-1.2 -3.5v-1.1h1.2v1.1m-1.2 -3.4v-1.1h1.2v1.1m-1.2 -3.4v-1.2h1.2v1.2m-1.2 -3.5v-1.1h1.2v1.1m-1.2 -3.4v-1.2h1.2v1.2m-1.2 -3.5v-1.1h1.2v1.1M184.3 156v-1.1h1.1l.1 1.1m-1.2 -3.4v-1.2h1.1v1.2m-1.1 -3.5V148h1.1v1.1m-1.1 -3.4v-1.1h1.1v1.1m-1.1 -3.4v-1.2h1.1v1.2m-1.1 -3.5v-1.1h1.1v1.1m-1.1 -3.4v-1.2h1.1v1.2m-1.1 -3.5v-1.1h1.1v1.1m-1.1 -3.4v-1.1h1.1v1.1m-1.1 -3.4v-1.2h1.1v1.2m-1.1 -3.5v-1.1h1.1v1.1m-1.1 -3.4v-1.1h1.1v1.1m-1.2 -3.4v-1.2h1.2v1.2m-1.2 -3.5v-1.1h1.2v1.1m-1.2 -3.4v-1.2h1.2v1.2m-1.2 -3.5v-1.1h1.2v1.1M184.2 101V99.9h1.2V101Z" class="g3_296"/>
<path d="M339.1 269.4v-1.1h1.2v1.1M339.1 266v-1.1h1.2V266m-1.2 -3.4v-1.2h1.2v1.2m-1.2 -3.5V258h1.2v1.1m-1.2 -3.4v-1.1h1.2v1.1m-1.2 -3.4v-1.2h1.2v1.2m-1.2 -3.5v-1.1h1.2v1.1m-1.2 -3.4v-1.2h1.2v1.2m-1.2 -3.5v-1.1h1.2v1.1m-1.2 -3.4v-1.1h1.1v1.1m-1.1 -3.4v-1.2h1.1v1.2m-1.1 -3.5v-1.1h1.1v1.1m-1.1 -3.4v-1.1h1.1v1.1m-1.1 -3.4v-1.2h1.1v1.2m-1.1 -3.5v-1.1h1.1v1.1m-1.1 -3.4v-1.2h1.1v1.2m-1.1 -3.5v-1.1h1.1v1.1M339.1 211v-1.1h1.1V211m-1.1 -3.4v-1.2h1.1v1.2m-1.1 -3.5V203h1.1v1.1m-1.1 -3.4v-1.1h1.1v1.1M339 197.3v-1.2h1.2v1.2M339 193.8v-1.1h1.2v1.1M339 190.4v-1.2h1.2v1.2M339 186.9v-1.1h1.2v1.1M339 183.5v-1.1h1.2v1.1M339 180.1v-1.2h1.2v1.2M339 176.6v-1.1h1.2v1.1M339 173.2v-1.1h1.2v1.1M339 169.8v-1.2h1.2v1.2M339 166.3v-1.1h1.2v1.1M339 162.9v-1.2h1.1v1.2M339 159.4v-1.1h1.1v1.1M339 156v-1.1h1.1V156M339 152.6v-1.2h1.1v1.2M339 149.1V148h1.1v1.1M339 145.7v-1.1h1.1v1.1M339 142.3v-1.2h1.1v1.2M339 138.8v-1.1h1.1v1.1M339 135.4v-1.2h1.1v1.2M339 131.9v-1.1h1.1v1.1M339 128.5v-1.1h1.1v1.1M339 125.1l-.1 -1.2h1.2v1.2m-1.2 -3.5v-1.1h1.2v1.1m-1.2 -3.4v-1.1h1.2v1.1m-1.2 -3.4v-1.2h1.2v1.2m-1.2 -3.5v-1.1h1.2v1.1m-1.2 -3.4v-1.2h1.2v1.2m-1.2 -3.5v-1.1h1.2v1.1M338.9 101V99.9h1.2V101Z" class="g3_296"/>
<path d="M390.7 269.4v-1.1h1.2v1.1M390.7 266v-1.1h1.1V266m-1.1 -3.4v-1.2h1.1v1.2m-1.1 -3.5V258h1.1v1.1m-1.1 -3.4v-1.1h1.1v1.1m-1.1 -3.4v-1.2h1.1v1.2m-1.1 -3.5v-1.1h1.1v1.1m-1.1 -3.4v-1.2h1.1v1.2m-1.1 -3.5v-1.1h1.1v1.1m-1.1 -3.4v-1.1h1.1v1.1m-1.1 -3.4v-1.2h1.1v1.2m-1.1 -3.5v-1.1h1.1v1.1m-1.1 -3.4l-.1 -1.1h1.2v1.1m-1.2 -3.4v-1.2h1.2v1.2m-1.2 -3.5v-1.1h1.2v1.1m-1.2 -3.4v-1.2h1.2v1.2m-1.2 -3.5v-1.1h1.2v1.1M390.6 211v-1.1h1.2V211m-1.2 -3.4v-1.2h1.2v1.2m-1.2 -3.5V203h1.2v1.1m-1.2 -3.4v-1.1h1.2v1.1m-1.2 -3.4v-1.2h1.2v1.2m-1.2 -3.5v-1.1h1.1l.1 1.1m-1.2 -3.4v-1.2h1.1v1.2m-1.1 -3.5v-1.1h1.1v1.1m-1.1 -3.4v-1.1h1.1v1.1m-1.1 -3.4v-1.2h1.1v1.2m-1.1 -3.5v-1.1h1.1v1.1m-1.1 -3.4v-1.1h1.1v1.1m-1.1 -3.4v-1.2h1.1v1.2m-1.1 -3.5v-1.1h1.1v1.1m-1.1 -3.4v-1.2h1.1v1.2m-1.1 -3.5v-1.1h1.1v1.1M390.6 156v-1.1h1.1V156m-1.2 -3.4v-1.2h1.2v1.2m-1.2 -3.5V148h1.2v1.1m-1.2 -3.4v-1.1h1.2v1.1m-1.2 -3.4v-1.2h1.2v1.2m-1.2 -3.5v-1.1h1.2v1.1m-1.2 -3.4v-1.2h1.2v1.2m-1.2 -3.5v-1.1h1.2v1.1m-1.2 -3.4v-1.1h1.2v1.1m-1.2 -3.4v-1.2h1.2v1.2m-1.2 -3.5v-1.1h1.2v1.1m-1.2 -3.4v-1.1h1.1v1.1m-1.1 -3.4v-1.2h1.1v1.2m-1.1 -3.5v-1.1h1.1v1.1m-1.1 -3.4v-1.2h1.1v1.2m-1.1 -3.5v-1.1h1.1v1.1M390.5 101V99.9h1.1V101Z" class="g3_296"/>
<path d="M442.3 269.4v-1.1h1.1v1.1M442.3 266v-1.1h1.1V266m-1.1 -3.4v-1.2h1.1v1.2m-1.1 -3.5V258h1.1v1.1m-1.1 -3.4v-1.1h1.1v1.1m-1.1 -3.4v-1.2h1.1v1.2m-1.1 -3.5v-1.1h1.1v1.1m-1.2 -3.4v-1.2h1.2v1.2m-1.2 -3.5v-1.1h1.2v1.1m-1.2 -3.4v-1.1h1.2v1.1m-1.2 -3.4v-1.2h1.2v1.2m-1.2 -3.5v-1.1h1.2v1.1m-1.2 -3.4v-1.1h1.2v1.1m-1.2 -3.4v-1.2h1.2v1.2m-1.2 -3.5v-1.1h1.2v1.1m-1.2 -3.4v-1.2h1.2v1.2m-1.2 -3.5v-1.1h1.2v1.1M442.2 211v-1.1h1.2V211m-1.2 -3.4v-1.2h1.2v1.2m-1.2 -3.5V203h1.2v1.1m-1.2 -3.4v-1.1h1.2v1.1m-1.2 -3.4v-1.2h1.2v1.2m-1.2 -3.5v-1.1h1.2v1.1m-1.2 -3.4v-1.2h1.2v1.2m-1.2 -3.5v-1.1h1.1v1.1m-1.1 -3.4v-1.1h1.1v1.1m-1.1 -3.4v-1.2h1.1v1.2m-1.1 -3.5v-1.1h1.1v1.1m-1.1 -3.4v-1.1h1.1v1.1m-1.1 -3.4v-1.2h1.1v1.2m-1.1 -3.5v-1.1h1.1v1.1m-1.1 -3.4v-1.2h1.1v1.2m-1.1 -3.5v-1.1h1.1v1.1M442.2 156v-1.1h1.1V156m-1.1 -3.4v-1.2h1.1v1.2m-1.1 -3.5V148h1.1v1.1m-1.1 -3.4v-1.1h1.1v1.1m-1.1 -3.4v-1.2h1.1v1.2m-1.1 -3.5v-1.1h1.1v1.1m-1.1 -3.4v-1.2h1.1v1.2m-1.1 -3.5v-1.1h1.1v1.1m-1.1 -3.4v-1.1h1.1v1.1m-1.1 -3.4v-1.2h1.1v1.2m-1.1 -3.5l-.1 -1.1h1.2v1.1m-1.2 -3.4v-1.1h1.2v1.1m-1.2 -3.4v-1.2h1.2v1.2m-1.2 -3.5v-1.1h1.2v1.1m-1.2 -3.4v-1.2h1.2v1.2m-1.2 -3.5v-1.1h1.2v1.1M442.1 101V99.9h1.2V101Z" class="g3_296"/>
<path d="M493.8 269.4v-1.1H495v1.1M493.8 266v-1.1H495V266m-1.2 -3.4v-1.2H495v1.2m-1.2 -3.5V258H495v1.1m-1.2 -3.4v-1.1h1.1v1.1m-1.1 -3.4v-1.2h1.1v1.2m-1.1 -3.5v-1.1h1.1v1.1m-1.1 -3.4v-1.2h1.1v1.2m-1.1 -3.5v-1.1h1.1v1.1m-1.1 -3.4v-1.1h1.1v1.1m-1.1 -3.4v-1.2h1.1v1.2m-1.1 -3.5v-1.1h1.1v1.1m-1.2 -3.4v-1.1h1.2v1.1m-1.2 -3.4v-1.2h1.2v1.2m-1.2 -3.5v-1.1h1.2v1.1m-1.2 -3.4v-1.2h1.2v1.2m-1.2 -3.5v-1.1h1.2v1.1M493.7 211v-1.1h1.2V211m-1.2 -3.4v-1.2h1.2v1.2m-1.2 -3.5V203h1.1v1.1m-1.1 -3.4v-1.1h1.1v1.1m-1.1 -3.4v-1.2h1.1v1.2m-1.1 -3.5v-1.1h1.1v1.1m-1.1 -3.4v-1.2h1.1v1.2m-1.1 -3.5v-1.1h1.1v1.1m-1.1 -3.4v-1.1h1.1v1.1m-1.1 -3.4l-.1 -1.2h1.2v1.2m-1.2 -3.5v-1.1h1.2v1.1m-1.2 -3.4v-1.1h1.2v1.1m-1.2 -3.4v-1.2h1.2v1.2m-1.2 -3.5v-1.1h1.2v1.1m-1.2 -3.4v-1.2h1.2v1.2m-1.2 -3.5v-1.1h1.2v1.1M493.6 156v-1.1h1.1V156m-1.1 -3.4v-1.2h1.1v1.2m-1.1 -3.5V148h1.1v1.1m-1.1 -3.4v-1.1h1.1v1.1m-1.1 -3.4v-1.2h1.1v1.2m-1.1 -3.5v-1.1h1.1v1.1m-1.1 -3.4v-1.2h1.1v1.2m-1.1 -3.5v-1.1h1.1v1.1m-1.2 -3.4v-1.1h1.2v1.1m-1.2 -3.4v-1.2h1.2v1.2m-1.2 -3.5v-1.1h1.2v1.1m-1.2 -3.4v-1.1h1.2v1.1m-1.2 -3.4v-1.2h1.2v1.2m-1.2 -3.5v-1.1h1.2v1.1m-1.2 -3.4v-1.2h1.2v1.2m-1.2 -3.5v-1.1h1.1v1.1M493.5 101V99.9h1.1V101Z" class="g3_296"/>
<path d="M545.4 269.4v-1.1h1.1v1.1M545.4 266v-1.1h1.1V266m-1.1 -3.4v-1.2h1.1v1.2m-1.1 -3.5V258h1.1v1.1m-1.1 -3.4v-1.1h1.1v1.1m-1.1 -3.4v-1.2h1.1v1.2m-1.1 -3.5v-1.1h1.1v1.1m-1.2 -3.4v-1.2h1.2v1.2m-1.2 -3.5v-1.1h1.2v1.1m-1.2 -3.4v-1.1h1.2v1.1m-1.2 -3.4v-1.2h1.2v1.2m-1.2 -3.5v-1.1h1.2v1.1m-1.2 -3.4v-1.1h1.2v1.1m-1.2 -3.4v-1.2h1.1v1.2m-1.1 -3.5v-1.1h1.1v1.1m-1.1 -3.4v-1.2h1.1v1.2m-1.1 -3.5v-1.1h1.1v1.1M545.3 211v-1.1h1.1V211m-1.1 -3.4v-1.2h1.1v1.2m-1.1 -3.5V203h1.1v1.1m-1.1 -3.4v-1.1h1.1v1.1m-1.2 -3.4v-1.2h1.2v1.2m-1.2 -3.5v-1.1h1.2v1.1m-1.2 -3.4v-1.2h1.2v1.2m-1.2 -3.5v-1.1h1.2v1.1m-1.2 -3.4v-1.1h1.2v1.1m-1.2 -3.4v-1.2h1.2v1.2m-1.2 -3.5v-1.1h1.2v1.1m-1.2 -3.4v-1.1h1.1v1.1m-1.1 -3.4v-1.2h1.1v1.2m-1.1 -3.5v-1.1h1.1v1.1m-1.1 -3.4v-1.2h1.1v1.2m-1.1 -3.5v-1.1h1.1v1.1M545.2 156v-1.1h1.1V156m-1.1 -3.4v-1.2h1.1v1.2m-1.1 -3.5V148h1.1v1.1m-1.2 -3.4v-1.1h1.2v1.1m-1.2 -3.4v-1.2h1.2v1.2m-1.2 -3.5v-1.1h1.2v1.1m-1.2 -3.4v-1.2h1.2v1.2m-1.2 -3.5v-1.1h1.2v1.1m-1.2 -3.4v-1.1h1.2v1.1m-1.2 -3.4v-1.2h1.1v1.2m-1.1 -3.5v-1.1h1.1v1.1m-1.1 -3.4v-1.1h1.1v1.1m-1.1 -3.4v-1.2h1.1v1.2m-1.1 -3.5v-1.1h1.1v1.1m-1.1 -3.4v-1.2h1.1v1.2m-1.1 -3.5v-1.1h1.1v1.1M545.1 101V99.9h1.1V101Z" class="g3_296"/>
<path d="M597 269.4v-1.1h1.1v1.1M596.9 266v-1.1h1.2V266m-1.2 -3.4v-1.2h1.2v1.2m-1.2 -3.5V258h1.2v1.1m-1.2 -3.4v-1.1h1.2v1.1m-1.2 -3.4v-1.2h1.2v1.2m-1.2 -3.5v-1.1h1.2v1.1m-1.2 -3.4v-1.2h1.2v1.2m-1.2 -3.5v-1.1H598v1.1m-1.1 -3.4v-1.1H598v1.1m-1.1 -3.4v-1.2H598v1.2m-1.1 -3.5v-1.1H598v1.1m-1.1 -3.4v-1.1H598v1.1m-1.1 -3.4v-1.2H598v1.2m-1.1 -3.5v-1.1H598v1.1m-1.1 -3.4v-1.2H598v1.2m-1.2 -3.5v-1.1H598v1.1M596.8 211v-1.1H598V211m-1.2 -3.4v-1.2H598v1.2m-1.2 -3.5V203H598v1.1m-1.2 -3.4v-1.1H598v1.1m-1.2 -3.4v-1.2H598v1.2m-1.2 -3.5v-1.1h1.1l.1 1.1m-1.2 -3.4v-1.2h1.1v1.2m-1.1 -3.5v-1.1h1.1v1.1m-1.1 -3.4v-1.1h1.1v1.1m-1.1 -3.4v-1.2h1.1v1.2m-1.1 -3.5v-1.1h1.1v1.1m-1.1 -3.4v-1.1h1.1v1.1m-1.1 -3.4v-1.2h1.1v1.2m-1.2 -3.5v-1.1h1.2v1.1m-1.2 -3.4v-1.2h1.2v1.2m-1.2 -3.5v-1.1h1.2v1.1M596.7 156v-1.1h1.2V156m-1.2 -3.4v-1.2h1.2v1.2m-1.2 -3.5V148h1.2v1.1m-1.2 -3.4v-1.1h1.2v1.1m-1.2 -3.4v-1.2h1.1v1.2m-1.1 -3.5v-1.1h1.1v1.1m-1.1 -3.4v-1.2h1.1v1.2m-1.1 -3.5v-1.1h1.1v1.1m-1.1 -3.4v-1.1h1.1v1.1m-1.1 -3.4v-1.2h1.1v1.2m-1.1 -3.5v-1.1h1.1v1.1m-1.1 -3.4v-1.1h1.1v1.1m-1.2 -3.4v-1.2h1.2v1.2m-1.2 -3.5v-1.1h1.2v1.1m-1.2 -3.4v-1.2h1.2v1.2m-1.2 -3.5v-1.1h1.2v1.1M596.6 101V99.9h1.2V101Z" class="g3_296"/>
<path d="M146.1 107.3H275.6c.7 0 1.4 .2 2.1 .4c.7 .3 1.4 .8 1.9 1.3c.5 .5 1 1.1 1.2 1.8c.3 .8 .5 1.5 .5 2.2c0 .8 -.2 1.5 -.5 2.2c-.2 .7 -.7 1.4 -1.2 1.9c-.5 .5 -1.2 .9 -1.9 1.2c-.7 .3 -1.4 .5 -2.1 .5H146.1c-.8 0 -1.5 -.2 -2.2 -.5c-.7 -.3 -1.3 -.7 -1.9 -1.2c-.5 -.5 -.9 -1.2 -1.2 -1.9c-.3 -.7 -.5 -1.4 -.5 -2.2c0 -.7 .2 -1.4 .5 -2.2c.3 -.7 .7 -1.3 1.2 -1.8c.6 -.5 1.2 -1 1.9 -1.3c.7 -.2 1.4 -.4 2.2 -.4Z" class="g0_296"/>
<path d="M146.1 107.3H275.6c.7 0 1.4 .2 2.1 .4c.7 .3 1.4 .8 1.9 1.3c.5 .5 1 1.1 1.2 1.8c.3 .8 .5 1.5 .5 2.2c0 .8 -.2 1.5 -.5 2.2c-.2 .7 -.7 1.4 -1.2 1.9c-.5 .5 -1.2 .9 -1.9 1.2c-.7 .3 -1.4 .5 -2.1 .5H146.1c-.8 0 -1.5 -.2 -2.2 -.5c-.7 -.3 -1.3 -.7 -1.9 -1.2c-.5 -.5 -.9 -1.2 -1.2 -1.9c-.3 -.7 -.5 -1.4 -.5 -2.2c0 -.7 .2 -1.4 .5 -2.2c.3 -.7 .7 -1.3 1.2 -1.8c.6 -.5 1.2 -1 1.9 -1.3c.7 -.2 1.4 -.4 2.2 -.4Z" class="g2_296"/>
<path d="M195.3 99.3h32.9v25.2H195.3V99.3Z" class="g0_296"/>
<path d="M300.8 153.1H430.2c.8 0 1.5 .2 2.2 .5c.7 .3 1.4 .7 1.9 1.2c.5 .6 .9 1.2 1.2 1.9c.3 .7 .5 1.4 .5 2.2c0 .7 -.2 1.5 -.5 2.2c-.3 .7 -.7 1.3 -1.2 1.8c-.5 .6 -1.2 1 -1.9 1.3c-.7 .3 -1.4 .4 -2.2 .4H300.8c-.8 0 -1.5 -.1 -2.2 -.4c-.7 -.3 -1.4 -.7 -1.9 -1.3c-.5 -.5 -.9 -1.1 -1.2 -1.8c-.3 -.7 -.5 -1.5 -.5 -2.2c0 -.8 .2 -1.5 .5 -2.2c.3 -.7 .7 -1.3 1.2 -1.9c.5 -.5 1.2 -.9 1.9 -1.2c.7 -.3 1.4 -.5 2.2 -.5Z" class="g0_296"/>
<path d="M300.8 153.1H430.2c.8 0 1.5 .2 2.2 .5c.7 .3 1.4 .7 1.9 1.2c.5 .6 .9 1.2 1.2 1.9c.3 .7 .5 1.4 .5 2.2c0 .7 -.2 1.5 -.5 2.2c-.3 .7 -.7 1.3 -1.2 1.8c-.5 .6 -1.2 1 -1.9 1.3c-.7 .3 -1.4 .4 -2.2 .4H300.8c-.8 0 -1.5 -.1 -2.2 -.4c-.7 -.3 -1.4 -.7 -1.9 -1.3c-.5 -.5 -.9 -1.1 -1.2 -1.8c-.3 -.7 -.5 -1.5 -.5 -2.2c0 -.8 .2 -1.5 .5 -2.2c.3 -.7 .7 -1.3 1.2 -1.9c.5 -.5 1.2 -.9 1.9 -1.2c.7 -.3 1.4 -.5 2.2 -.5Z" class="g2_296"/>
<path d="M348.9 145.1h33v25.2h-33V145.1Z" class="g0_296"/>
<path d="M196.7 199H482c.8 0 1.5 .1 2.2 .4c.7 .3 1.3 .7 1.9 1.3c.5 .5 .9 1.1 1.2 1.8c.3 .7 .5 1.4 .5 2.2c0 .8 -.2 1.5 -.5 2.2c-.3 .7 -.7 1.3 -1.2 1.9c-.6 .5 -1.2 .9 -1.9 1.2c-.7 .3 -1.4 .4 -2.2 .4H196.7c-.7 0 -1.5 -.1 -2.2 -.4c-.7 -.3 -1.3 -.7 -1.8 -1.2c-.6 -.6 -1 -1.2 -1.3 -1.9c-.3 -.7 -.4 -1.4 -.4 -2.2c0 -.8 .1 -1.5 .4 -2.2c.3 -.7 .7 -1.3 1.3 -1.8c.5 -.6 1.1 -1 1.8 -1.3c.7 -.3 1.5 -.4 2.2 -.4Z" class="g0_296"/>
<path d="M196.7 199H482c.8 0 1.5 .1 2.2 .4c.7 .3 1.3 .7 1.9 1.3c.5 .5 .9 1.1 1.2 1.8c.3 .7 .5 1.4 .5 2.2c0 .8 -.2 1.5 -.5 2.2c-.3 .7 -.7 1.3 -1.2 1.9c-.6 .5 -1.2 .9 -1.9 1.2c-.7 .3 -1.4 .4 -2.2 .4H196.7c-.7 0 -1.5 -.1 -2.2 -.4c-.7 -.3 -1.3 -.7 -1.8 -1.2c-.6 -.6 -1 -1.2 -1.3 -1.9c-.3 -.7 -.4 -1.4 -.4 -2.2c0 -.8 .1 -1.5 .4 -2.2c.3 -.7 .7 -1.3 1.3 -1.8c.5 -.6 1.1 -1 1.8 -1.3c.7 -.3 1.5 -.4 2.2 -.4Z" class="g2_296"/>
<path d="M242 190.4h44.2v25.2H242V190.4Z" class="g0_296"/>
<path d="M396.2 190.4h45.2v25.2H396.2V190.4Z" class="g0_296"/>
<path d="M248.1 244.8H533.5c.7 0 1.4 .2 2.1 .4c.7 .3 1.4 .8 1.9 1.3c.5 .5 1 1.1 1.2 1.8c.3 .8 .5 1.5 .5 2.2c0 .8 -.2 1.5 -.5 2.2c-.2 .7 -.7 1.4 -1.2 1.9c-.5 .5 -1.2 .9 -1.9 1.2c-.7 .3 -1.4 .5 -2.1 .5H248.1c-.7 0 -1.4 -.2 -2.2 -.5c-.7 -.3 -1.3 -.7 -1.8 -1.2c-.5 -.5 -1 -1.2 -1.3 -1.9c-.2 -.7 -.4 -1.4 -.4 -2.2c0 -.7 .2 -1.4 .4 -2.2c.3 -.7 .8 -1.3 1.3 -1.8c.5 -.5 1.1 -1 1.8 -1.3c.8 -.2 1.5 -.4 2.2 -.4Z" class="g4_296"/>
<path d="M248.1 244.8H533.5c.7 0 1.4 .2 2.1 .4c.7 .3 1.4 .8 1.9 1.3c.5 .5 1 1.1 1.2 1.8c.3 .8 .5 1.5 .5 2.2c0 .8 -.2 1.5 -.5 2.2c-.2 .7 -.7 1.4 -1.2 1.9c-.5 .5 -1.2 .9 -1.9 1.2c-.7 .3 -1.4 .5 -2.1 .5H248.1c-.7 0 -1.4 -.2 -2.2 -.5c-.7 -.3 -1.3 -.7 -1.8 -1.2c-.5 -.5 -1 -1.2 -1.3 -1.9c-.2 -.7 -.4 -1.4 -.4 -2.2c0 -.7 .2 -1.4 .4 -2.2c.3 -.7 .8 -1.3 1.3 -1.8c.5 -.5 1.1 -1 1.8 -1.3c.8 -.2 1.5 -.4 2.2 -.4Z" class="g2_296"/>
<path d="M291.7 236.8h45.4V262H291.7V236.8Z" class="g0_296"/>
<path d="M447.6 236.8h44.2V262H447.6V236.8Z" class="g0_296"/>
<path d="M300.8 108.5H430.2c.8 0 1.5 .1 2.2 .4c.7 .3 1.4 .7 1.9 1.2c.5 .6 .9 1.2 1.2 1.9c.3 .7 .5 1.4 .5 2.2c0 .7 -.2 1.5 -.5 2.2c-.3 .7 -.7 1.3 -1.2 1.8c-.5 .6 -1.2 1 -1.9 1.3c-.7 .3 -1.4 .4 -2.2 .4H300.8c-.8 0 -1.5 -.1 -2.2 -.4c-.7 -.3 -1.4 -.7 -1.9 -1.3c-.5 -.5 -.9 -1.1 -1.2 -1.8c-.3 -.7 -.5 -1.5 -.5 -2.2c0 -.8 .2 -1.5 .5 -2.2c.3 -.7 .7 -1.3 1.2 -1.9c.5 -.5 1.2 -.9 1.9 -1.2c.7 -.3 1.4 -.4 2.2 -.4Z" class="g4_296"/>
<path d="M300.8 108.5H430.2c.8 0 1.5 .1 2.2 .4c.7 .3 1.4 .7 1.9 1.2c.5 .6 .9 1.2 1.2 1.9c.3 .7 .5 1.4 .5 2.2c0 .7 -.2 1.5 -.5 2.2c-.3 .7 -.7 1.3 -1.2 1.8c-.5 .6 -1.2 1 -1.9 1.3c-.7 .3 -1.4 .4 -2.2 .4H300.8c-.8 0 -1.5 -.1 -2.2 -.4c-.7 -.3 -1.4 -.7 -1.9 -1.3c-.5 -.5 -.9 -1.1 -1.2 -1.8c-.3 -.7 -.5 -1.5 -.5 -2.2c0 -.8 .2 -1.5 .5 -2.2c.3 -.7 .7 -1.3 1.2 -1.9c.5 -.5 1.2 -.9 1.9 -1.2c.7 -.3 1.4 -.4 2.2 -.4Z" class="g2_296"/>
<path d="M349.9 100.4h33v25.2h-33V100.4Z" class="g0_296"/>
<path d="M146.1 153.1H275.6c.7 0 1.4 .2 2.1 .5c.7 .3 1.4 .7 1.9 1.2c.5 .6 1 1.2 1.2 1.9c.3 .7 .5 1.4 .5 2.2c0 .7 -.2 1.5 -.5 2.2c-.2 .7 -.7 1.3 -1.2 1.8c-.5 .6 -1.2 1 -1.9 1.3c-.7 .3 -1.4 .4 -2.1 .4H146.1c-.8 0 -1.5 -.1 -2.2 -.4c-.7 -.3 -1.3 -.7 -1.9 -1.3c-.5 -.5 -.9 -1.1 -1.2 -1.8c-.3 -.7 -.5 -1.5 -.5 -2.2c0 -.8 .2 -1.5 .5 -2.2c.3 -.7 .7 -1.3 1.2 -1.9c.6 -.5 1.2 -.9 1.9 -1.2c.7 -.3 1.4 -.5 2.2 -.5Z" class="g4_296"/>
<path d="M146.1 153.1H275.6c.7 0 1.4 .2 2.1 .5c.7 .3 1.4 .7 1.9 1.2c.5 .6 1 1.2 1.2 1.9c.3 .7 .5 1.4 .5 2.2c0 .7 -.2 1.5 -.5 2.2c-.2 .7 -.7 1.3 -1.2 1.8c-.5 .6 -1.2 1 -1.9 1.3c-.7 .3 -1.4 .4 -2.1 .4H146.1c-.8 0 -1.5 -.1 -2.2 -.4c-.7 -.3 -1.3 -.7 -1.9 -1.3c-.5 -.5 -.9 -1.1 -1.2 -1.8c-.3 -.7 -.5 -1.5 -.5 -2.2c0 -.8 .2 -1.5 .5 -2.2c.3 -.7 .7 -1.3 1.2 -1.9c.6 -.5 1.2 -.9 1.9 -1.2c.7 -.3 1.4 -.5 2.2 -.5Z" class="g2_296"/>
<path d="M193.1 145.1h33v25.2h-33V145.1Z" class="g0_296"/>
</g>
<g clip-path="url(#c3_296)">
<path clip-path="url(#c1_296)" d="M92.4 491.8H643.5V653.4H92.4V491.8Z" class="g0_296"/>
<path d="M202.9 629.9V492.4m-56.1 45.8h28.6v28.7H146.8V538.2Zm-34.4 45.9h28.7v28.6H112.4V584.1ZM93 526.8h28.6v28.6H93V526.8Zm137.4 -.5h28.7v28.6H230.4V526.3Zm19.5 57.3h28.7v28.6H249.9V583.6Zm34.4 -45.9h28.6v28.7H284.3V537.7Z" class="g2_296"/>
<path d="M140.6 598.1l1.8 -2.9l1 .6l-1.8 2.9m2.7 -6.4l1.8 -2.9l1 .6l-1.9 2.9m2.8 -6.4l1.8 -2.9l1 .6l-1.9 2.9m2.8 -6.4l1.8 -2.9l1 .6l-1.9 2.9m2.8 -6.4l1.8 -2.9l1 .6l-1.9 2.9m2.7 -6.4l1.6 -2.5l1 .6l-1.6 2.5Z" class="g3_296"/>
<path d="M119.1 584.3l-1.4 -3.2l1.1 -.4l1.3 3.2M116.3 578L115 574.8l1 -.4l1.4 3.1m-3.8 -5.8l-1.3 -3.2l1 -.4l1.4 3.1m-3.8 -5.8l-1.3 -3.2l1 -.5l1.4 3.2M108.2 559l-1.4 -3.1l1.1 -.5l1.4 3.2Z" class="g3_296"/>
<path d="M121.9 540.6l2.8 2.1l-.7 .9l-2.7 -2m6.2 3.1l2.7 2.1l-.6 .9l-2.8 -2m6.2 3.1l2.8 2.1l-.7 .9l-2.8 -2.1m6.2 3.2l2.8 2l-.7 1l-2.8 -2.1m6.3 3.2l2.7 2l-.7 1l-2.7 -2.1Z" class="g3_296"/>
<path d="M259.3 540.1l3.2 1.4l-.5 1l-3.1 -1.4m6.7 1.8l3.1 1.4l-.5 1.1l-3.1 -1.5m6.8 1.8l3.1 1.5l-.5 1l-3.1 -1.4m6.7 1.8l3.1 1.4l-.4 1.1l-3.2 -1.5m6.8 1.8l.1 .1l-.4 1.1l-.2 -.1Z" class="g3_296"/>
<path d="M271.1 583.1l2.9 -1.9l.6 1l-2.9 1.8m5.2 -4.6l2.9 -1.8l.6 .9l-2.9 1.9m5.2 -4.7l2.9 -1.8l.7 1l-3 1.8m5.2 -4.6l3 -1.9l.6 1l-2.9 1.8m5.2 -4.6l2.9 -1.9l.6 1l-2.9 1.8Z" class="g3_296"/>
<path d="M257.2 583.8l-1.4 -3.1l1.1 -.5l1.4 3.1m-3.9 -5.8L253 574.4l1 -.5l1.4 3.2m-3.8 -5.8l-1.5 -3.2l1.1 -.4l1.4 3.1M248.7 565l-1.4 -3.1l1 -.5l1.5 3.1m-3.9 -5.8l-1.4 -3.1l1 -.5l1.4 3.2Z" class="g3_296"/>
<path d="M518.1 629.9V492.4" class="g2_296"/>
<path d="M499.7 549.7c-12.8 0 -16 11.5 -5.8 13.8c-10.2 5 1.3 16 9.7 11.4c5.7 9.2 25 9.2 31.4 0c12.8 0 12.8 -9.2 4.8 -13.7c8 -9.2 -4.8 -18.4 -16 -13.8c-8 -6.9 -20.9 -6.9 -24.1 2.3Z" class="g0_296"/>
<path d="M499.7 549.7c-12.8 0 -16 11.5 -5.8 13.8c-10.2 5 1.3 16 9.7 11.4c5.7 9.2 25 9.2 31.4 0c12.8 0 12.8 -9.2 4.8 -13.7c8 -9.2 -4.8 -18.4 -16 -13.8c-8 -6.9 -20.9 -6.9 -24.1 2.3ZM443.6 538.2h28.6v28.7H443.6V538.2Zm-34.4 45.9h28.6v28.6H409.2V584.1ZM389.7 526.8h28.7v28.6H389.7V526.8Zm170.7 0h28.7v28.6H560.4V526.8Zm19.5 57.3h28.7v28.6H579.9V584.1Zm34.4 -45.9h28.6v28.7H614.3V538.2Z" class="g2_296"/>
<path d="M437.4 590.9l2.2 -2.7l.9 .7l-2.2 2.7m3.5 -6l2.2 -2.7l.8 .7l-2.1 2.7m3.4 -6l2.2 -2.7l.9 .7L447 581m3.5 -6l2.2 -2.7l.9 .7l-2.2 2.7m3.5 -6.1l2.2 -2.6l.9 .7l-2.2 2.7Z" class="g3_296"/>
<path d="M415.8 584.3l-1.3 -3.2l1 -.4l1.4 3.2M413.1 578l-1.3 -3.2l1 -.4l1.4 3.1m-3.8 -5.8L409 568.5l1.1 -.4l1.4 3.1m-3.8 -5.8l-1.4 -3.2l1.1 -.5l1.3 3.2M405 559l-1.4 -3.1l1.1 -.5l1.3 3.2Z" class="g3_296"/>
<path d="M418.7 540.6l2.8 2.1l-.7 .9l-2.8 -2m6.2 3.1l2.8 2.1l-.7 .9l-2.7 -2m6.2 3.1l2.7 2.1l-.6 .9l-2.8 -2.1m6.2 3.2l2.8 2l-.7 1l-2.8 -2.1m6.2 3.2l2.8 2l-.7 1l-2.8 -2.1Z" class="g3_296"/>
<path d="M601.1 583.6l2.9 -1.8l.6 .9l-2.9 1.9m5.2 -4.7l2.9 -1.8l.6 1l-2.9 1.8m5.2 -4.6l2.9 -1.9l.7 1l-3 1.8m5.2 -4.6l3 -1.9l.6 1l-2.9 1.8m5.2 -4.6l2.9 -1.8l.6 .9l-2.9 1.9Z" class="g3_296"/>
<path d="M192.4 557.9l10.5 10.5l10.5 -10.5l4.8 4.8l-10.5 10.5l10.5 10.5l-4.8 4.8L202.9 578l-10.5 10.5l-4.8 -4.8l10.5 -10.5L187.6 562.7l4.8 -4.8Z" class="g3_296"/>
<path d="M192.4 557.9l10.5 10.5l10.5 -10.5l4.8 4.8l-10.5 10.5l10.5 10.5l-4.8 4.8L202.9 578l-10.5 10.5l-4.8 -4.8l10.5 -10.5L187.6 562.7l4.8 -4.8Z" class="g5_296"/>
<path d="M472.3 544.8l3.4 .6l-.2 1.1l-3.4 -.5m7 -.1l3.4 .5l-.2 1.2l-3.4 -.6m7 0l3.4 .5l-.2 1.1l-3.4 -.5m7 -.1l3.4 .6l-.2 1.1l-3.4 -.5m7 -.1h.3l-.2 1.2l-.3 -.1Z" class="g3_296"/>
<path d="M437.6 605l3.1 -1.4l.5 1l-3.1 1.5m5.7 -4l3.1 -1.4l.5 1l-3.1 1.5m5.8 -4l3.1 -1.4l.5 1l-3.2 1.5m5.8 -4l3.1 -1.4l.5 1l-3.1 1.5m5.7 -4l3.1 -1.4l.5 1l-3.1 1.5m5.8 -4l3.1 -1.4l.5 1l-3.2 1.5m5.8 -4l3.1 -1.4l.5 1l-3.1 1.4m5.7 -3.9l3.1 -1.5l.5 1.1l-3.1 1.4m5.7 -3.9l3.2 -1.5l.4 1.1l-3.1 1.4m5.8 -3.9l3.1 -1.5l.5 1.1l-3.1 1.4m5.7 -3.9l3.1 -1.5l.5 1.1l-3.1 1.4Z" class="g3_296"/>
<path d="M539.8 549.2l2.7 -2.1l.7 .9l-2.7 2.2m4.7 -5.2l2.7 -2.1l.7 .9l-2.7 2.1m4.8 -5.1l2.7 -2.1l.7 .9l-2.7 2.1m4.7 -5.1l2.7 -2.1l.7 .9l-2.7 2.1Z" class="g3_296"/>
<path d="M577.9 559.6l6.7 6.6l6.6 -6.6l3 3l-6.6 6.6l6.6 6.6l-3 3.1l-6.6 -6.6l-6.7 6.6l-3 -3.1l6.6 -6.6l-6.6 -6.6l3 -3Z" class="g3_296"/>
<path d="M577.9 559.6l6.7 6.6l6.6 -6.6l3 3l-6.6 6.6l6.6 6.6l-3 3.1l-6.6 -6.6l-6.7 6.6l-3 -3.1l6.6 -6.6l-6.6 -6.6l3 -3Z" class="g5_296"/>
<path d="M595.1 536.7l6.6 6.6l6.7 -6.6l3 3l-6.6 6.6l6.6 6.6l-3 3.1l-6.7 -6.7l-6.6 6.7l-3 -3.1l6.6 -6.6l-6.6 -6.6l3 -3Z" class="g3_296"/>
<path d="M595.1 536.7l6.6 6.6l6.7 -6.6l3 3l-6.6 6.6l6.6 6.6l-3 3.1l-6.7 -6.7l-6.6 6.7l-3 -3.1l6.6 -6.6l-6.6 -6.6l3 -3Z" class="g5_296"/>
<path d="M553.9 580.2l6.6 6.6l6.6 -6.6l3 3l-6.6 6.7l6.6 6.6l-3 3l-6.6 -6.6l-6.6 6.6l-3.1 -3l6.7 -6.6l-6.7 -6.7l3.1 -3Z" class="g3_296"/>
<path d="M553.9 580.2l6.6 6.6l6.6 -6.6l3 3l-6.6 6.7l6.6 6.6l-3 3l-6.6 -6.6l-6.6 6.6l-3.1 -3l6.7 -6.6l-6.7 -6.7l3.1 -3Z" class="g5_296"/>
</g>
<path d="M86.6 815.1H196.2" class="g6_296"/>
</svg>