<?xml version="1.0" encoding="UTF-8" standalone="no"?>
<!DOCTYPE svg PUBLIC "-//W3C//DTD SVG 1.1//EN"
"http://www.w3.org/Graphics/SVG/1.1/DTD/svg11.dtd">
<svg viewBox="0 0 714 1017" version="1.1" xmlns="http://www.w3.org/2000/svg" xmlns:xlink="http://www.w3.org/1999/xlink">
<defs>
<clipPath id="c0_182"><path d="M93.1 236.8V97h550V236.8Z"/></clipPath>
<clipPath id="c1_182"><path d="M246.6 700.3V560.6H489.5V700.3Z"/></clipPath>
<clipPath id="c2_182"><path d="M93.1 237.4V96.9h550V237.4Z"/></clipPath>
<clipPath id="c3_182"><path d="M246.6 701V560.4H491V701Z"/></clipPath>
<style type="text/css"><![CDATA[
.g0_182{
fill: #FFF;
}
.g1_182{
fill: none;
stroke: #000;
stroke-width: 2.291;
stroke-miterlimit: 10;
}
.g2_182{
fill: none;
stroke: #000;
stroke-width: 1.145;
stroke-miterlimit: 10;
}
.g3_182{
fill: #000;
}
]]></style>
</defs>
<path d="M0 1017.7H717.2V-3.7H0V1017.7Z" class="g0_182"/>
<g clip-path="url(#c2_182)">
<path clip-path="url(#c0_182)" d="M93.1 97h550V236.8H93.1V97Z" class="g0_182"/>
<path d="M202.6 98.7h34.3v22.9H202.6V98.7Z" class="g0_182"/>
<path d="M202.6 98.7h34.3v22.9H202.6V98.7Z" class="g1_182"/>
<path d="M133.8 144.6h34.3v22.9H133.8V144.6Z" class="g0_182"/>
<path d="M133.8 144.6h34.3v22.9H133.8V144.6Z" class="g1_182"/>
<path d="M202.6 144.6h34.3v22.9H202.6V144.6Z" class="g0_182"/>
<path d="M202.6 144.6h34.3v22.9H202.6V144.6Z" class="g1_182"/>
<path d="M264.3 144.6h34.3v22.9H264.3V144.6Z" class="g0_182"/>
<path d="M264.3 144.6h34.3v22.9H264.3V144.6Zm-113.3 0v-5.8c0 -3.8 3.8 -5.7 11.4 -5.7h37.3c7.6 0 11.4 -1.9 11.4 -5.7l.1 -5.8m8.5 23v-23m61.8 23v-5.8c0 -3.8 -3.8 -5.7 -11.5 -5.7H239.8c-7.7 0 -11.5 -1.9 -11.5 -5.7v-5.8" class="g1_182"/>
<path d="M93.8 213.3h34.3v22.9H93.8V213.3Z" class="g0_182"/>
<path clip-path="url(#c0_182)" d="M93.8 213.3h34.3v22.9H93.8V213.3Z" class="g1_182"/>
<path d="M128.1 213.3h34.3v22.9H128.1V213.3Z" class="g0_182"/>
<path clip-path="url(#c0_182)" d="M128.1 213.3h34.3v22.9H128.1V213.3Z" class="g1_182"/>
<path d="M162.4 213.3h34.3v22.9H162.4V213.3Z" class="g0_182"/>
<path clip-path="url(#c0_182)" d="M162.4 213.3h34.3v22.9H162.4V213.3Z" class="g1_182"/>
<path d="M196.9 213.3h34.3v22.9H196.9V213.3Z" class="g0_182"/>
<path clip-path="url(#c0_182)" d="M196.9 213.3h34.3v22.9H196.9V213.3Z" class="g1_182"/>
<path d="M231.3 213.3h34.3v22.9H231.3V213.3Z" class="g0_182"/>
<path clip-path="url(#c0_182)" d="M231.3 213.3h34.3v22.9H231.3V213.3Z" class="g1_182"/>
<path d="M265.6 213.3h34.2v22.9H265.6V213.3Z" class="g0_182"/>
<path clip-path="url(#c0_182)" d="M265.6 213.3h34.2v22.9H265.6V213.3Z" class="g1_182"/>
<path d="M299.8 213.3h34.3v22.9H299.8V213.3Z" class="g0_182"/>
<path clip-path="url(#c0_182)" d="M299.8 213.3h34.3v22.9H299.8V213.3Z" class="g1_182"/>
<path d="M504 98.7h34.3v22.9H504V98.7Z" class="g0_182"/>
<path d="M504 98.7h34.3v22.9H504V98.7Z" class="g1_182"/>
<path d="M436.3 144.6h34.3v22.9H436.3V144.6Z" class="g0_182"/>
<path d="M436.3 144.6h34.3v22.9H436.3V144.6Z" class="g1_182"/>
<path d="M503.9 144.6h34.3v22.9H503.9V144.6Z" class="g0_182"/>
<path d="M503.9 144.6h34.3v22.9H503.9V144.6Z" class="g1_182"/>
<path d="M572.6 144.6h34.2v22.9H572.6V144.6Z" class="g0_182"/>
<path d="M572.6 144.6h34.2v22.9H572.6V144.6Zm-119.1 0v-5.8c0 -3.8 3.8 -5.7 11.4 -5.7h36.2c7.7 0 11.5 -1.9 11.5 -5.7v-5.8m8.4 23l.1 -23m68.6 23v-5.8c0 -3.8 -3.8 -5.7 -11.4 -5.7H541.1c-7.6 0 -11.4 -1.9 -11.4 -5.7v-5.8" class="g1_182"/>
<path d="M400.8 213.3h34.3v22.9H400.8V213.3Z" class="g0_182"/>
<path clip-path="url(#c0_182)" d="M400.8 213.3h34.3v22.9H400.8V213.3Z" class="g1_182"/>
<path d="M435.1 213.3h34.2v22.9H435.1V213.3Z" class="g0_182"/>
<path clip-path="url(#c0_182)" d="M435.1 213.3h34.2v22.9H435.1V213.3Z" class="g1_182"/>
<path d="M469.5 213.3h34.3v22.9H469.5V213.3Z" class="g0_182"/>
<path clip-path="url(#c0_182)" d="M469.5 213.3h34.3v22.9H469.5V213.3Z" class="g1_182"/>
<path d="M503.8 213.3h34.3v22.9H503.8V213.3Z" class="g0_182"/>
<path clip-path="url(#c0_182)" d="M503.8 213.3h34.3v22.9H503.8V213.3Z" class="g1_182"/>
<path d="M538.3 213.3h34.3v22.9H538.3V213.3Z" class="g0_182"/>
<path clip-path="url(#c0_182)" d="M538.3 213.3h34.3v22.9H538.3V213.3Z" class="g1_182"/>
<path d="M572.6 213.3h34.2v22.9H572.6V213.3Z" class="g0_182"/>
<path clip-path="url(#c0_182)" d="M572.6 213.3h34.2v22.9H572.6V213.3Z" class="g1_182"/>
<path d="M606.8 213.3h34.3v22.9H606.8V213.3Z" class="g0_182"/>
<path clip-path="url(#c0_182)" d="M606.8 213.3h34.3v22.9H606.8V213.3Z" class="g1_182"/>
<path d="M133.8 167.5l-28.3 41.2" class="g2_182"/>
<path d="M103.1 212.2l1.7 -5.8l.7 2.3l2.4 -.1l-4.8 3.6Z" class="g3_182"/>
<path d="M103.1 212.2l1.7 -5.8l.7 2.3l2.4 -.1l-4.8 3.6Zm56.4 -44.7L147 208" class="g2_182"/>
<path d="M145.7 212.1l-.1 -6.1l1.4 2l2.2 -.8l-3.5 4.9Z" class="g3_182"/>
<path d="M145.7 212.1l-.1 -6.1l1.4 2l2.2 -.8l-3.5 4.9ZM151 167.5L138.4 208" class="g2_182"/>
<path d="M137.1 212.1L137 206l1.4 2l2.2 -.8l-3.5 4.9Z" class="g3_182"/>
<path d="M137.1 212.1L137 206l1.4 2l2.2 -.8l-3.5 4.9ZM290 167.5l1.1 40.2" class="g2_182"/>
<path d="M291.2 212l-2 -5.7l1.9 1.4l1.9 -1.5l-1.8 5.8Z" class="g3_182"/>
<path d="M291.2 212l-2 -5.7l1.9 1.4l1.9 -1.5l-1.8 5.8Zm7.4 -44.5l16.3 40.6" class="g2_182"/>
<path d="M316.5 212.1l-3.9 -4.6l2.3 .6l1.2 -2l.4 6Z" class="g3_182"/>
<path d="M316.5 212.1l-3.9 -4.6l2.3 .6l1.2 -2l.4 6ZM272.9 167.5l1.1 40.2" class="g2_182"/>
<path d="M274.1 212L272 206.3l2 1.4l1.8 -1.5l-1.7 5.8Z" class="g3_182"/>
<path d="M274.1 212L272 206.3l2 1.4l1.8 -1.5l-1.7 5.8Zm7.4 -44.5l1.1 40.2" class="g2_182"/>
<path d="M282.7 212l-2.1 -5.7l2 1.4l1.8 -1.5l-1.7 5.8Z" class="g3_182"/>
<path d="M282.7 212l-2.1 -5.7l2 1.4l1.8 -1.5l-1.7 5.8ZM436.3 167.5l6.5 40.3" class="g2_182"/>
<path d="M443.4 212l-2.8 -5.3l2.2 1.1l1.6 -1.7l-1 5.9Z" class="g3_182"/>
<path d="M443.4 212l-2.8 -5.3l2.2 1.1l1.6 -1.7l-1 5.9Zm1.5 -44.5l-32.1 41.4" class="g2_182"/>
<path d="M410.1 212.3l2 -5.7l.7 2.3h2.3l-5 3.4Z" class="g3_182"/>
<path d="M410.1 212.3l2 -5.7l.7 2.3h2.3l-5 3.4ZM512.5 167.5l80.8 43.2" class="g2_182"/>
<path d="M597.1 212.7l-5.9 -1l2.1 -1l-.3 -2.4l4.1 4.4Z" class="g3_182"/>
<path d="M597.1 212.7l-5.9 -1l2.1 -1l-.3 -2.4l4.1 4.4ZM142.4 167.5l-28.3 41.2" class="g2_182"/>
<path d="M111.7 212.2l1.7 -5.8l.7 2.3l2.4 -.1l-4.8 3.6Z" class="g3_182"/>
<path d="M111.7 212.2l1.7 -5.8l.7 2.3l2.4 -.1l-4.8 3.6Zm99.5 -44.7l-20.6 40.8" class="g2_182"/>
<path d="M188.7 212.2l.9 -6l1 2.1l2.4 -.4l-4.3 4.3Z" class="g3_182"/>
<path d="M188.7 212.2l.9 -6l1 2.1l2.4 -.4l-4.3 4.3Zm13.9 -44.7l-20.5 40.8" class="g2_182"/>
<path d="M180.1 212.2l.9 -6l1.1 2.1l2.3 -.4l-4.3 4.3Z" class="g3_182"/>
<path d="M180.1 212.2l.9 -6l1.1 2.1l2.3 -.4l-4.3 4.3Zm56.8 -44.7l2.6 40.2" class="g2_182"/>
<path d="M239.8 212l-2.3 -5.6l2 1.3l1.8 -1.5l-1.5 5.8Z" class="g3_182"/>
<path d="M239.8 212l-2.3 -5.6l2 1.3l1.8 -1.5l-1.5 5.8Zm24.5 -44.5l-14 40.5" class="g2_182"/>
<path d="M248.8 212.1l.1 -6.1l1.4 2l2.2 -.7l-3.7 4.8Z" class="g3_182"/>
<path d="M248.8 212.1l.1 -6.1l1.4 2l2.2 -.7l-3.7 4.8ZM453.5 167.5l105.3 43.7" class="g2_182"/>
<path d="M562.8 212.8l-6 -.4l2 -1.2l-.6 -2.3l4.6 3.9Z" class="g3_182"/>
<path d="M562.8 212.8l-6 -.4l2 -1.2l-.6 -2.3l4.6 3.9ZM462 167.5L476.2 208" class="g2_182"/>
<path d="M477.7 212.1L474 207.3l2.2 .7l1.4 -2l.1 6.1Z" class="g3_182"/>
<path d="M477.7 212.1L474 207.3l2.2 .7l1.4 -2l.1 6.1ZM521 167.5l-31 41.3" class="g2_182"/>
<path d="M487.4 212.3l1.9 -5.7l.7 2.2h2.4l-5 3.5Z" class="g3_182"/>
<path d="M487.4 212.3l1.9 -5.7l.7 2.2h2.4l-5 3.5Zm42.2 -44.8l15.3 40.6" class="g2_182"/>
<path d="M546.4 212.1l-3.8 -4.7l2.3 .7l1.3 -2l.2 6Z" class="g3_182"/>
<path d="M546.4 212.1l-3.8 -4.7l2.3 .7l1.3 -2l.2 6Zm34.7 -44.6L423.3 211.8" class="g2_182"/>
<path d="M419.1 213l5 -3.4l-.8 2.2l1.9 1.4l-6.1 -.2Z" class="g3_182"/>
<path d="M419.1 213l5 -3.4l-.8 2.2l1.9 1.4l-6.1 -.2Zm-251 -45.5l2.5 40.2" class="g2_182"/>
<path d="M170.9 212l-2.2 -5.6l1.9 1.3l1.9 -1.5l-1.6 5.8Z" class="g3_182"/>
<path d="M170.9 212l-2.2 -5.6l1.9 1.3l1.9 -1.5l-1.6 5.8Zm57.4 -44.5L215.7 208" class="g2_182"/>
<path d="M214.4 212.1l-.1 -6.1l1.4 2l2.2 -.8l-3.5 4.9Z" class="g3_182"/>
<path d="M214.4 212.1l-.1 -6.1l1.4 2l2.2 -.8l-3.5 4.9Zm5.3 -44.6L207.1 208" class="g2_182"/>
<path d="M205.8 212.1l-.1 -6.1l1.4 2l2.3 -.8l-3.6 4.9Z" class="g3_182"/>
<path d="M205.8 212.1l-.1 -6.1l1.4 2l2.3 -.8l-3.6 4.9ZM470.6 167.5l-16.3 40.6" class="g2_182"/>
<path d="M452.7 212.1l.3 -6l1.3 2l2.3 -.6l-3.9 4.6Z" class="g3_182"/>
<path d="M452.7 212.1l.3 -6l1.3 2l2.3 -.6l-3.9 4.6Zm51.2 -44.6l22.9 40.9" class="g2_182"/>
<path d="M528.9 212.2l-4.5 -4.1l2.4 .3l1 -2.1l1.1 5.9Z" class="g3_182"/>
<path d="M528.9 212.2l-4.5 -4.1l2.4 .3l1 -2.1l1.1 5.9Zm9.3 -44.7l89.3 43.4" class="g2_182"/>
<path d="M631.4 212.7l-6 -.7l2.1 -1.1l-.4 -2.4l4.3 4.2Z" class="g3_182"/>
<path d="M631.4 212.7l-6 -.7l2.1 -1.1l-.4 -2.4l4.3 4.2ZM572.6 167.5l-15.2 40.6" class="g2_182"/>
<path d="M555.9 212.1l.2 -6l1.3 2l2.2 -.7l-3.7 4.7Z" class="g3_182"/>
<path d="M555.9 212.1l.2 -6l1.3 2l2.2 -.7l-3.7 4.7Zm33.8 -44.6l-7.5 40.3" class="g2_182"/>
<path d="M581.4 212l-.9 -5.9l1.7 1.7l2.1 -1l-2.9 5.2Z" class="g3_182"/>
<path d="M581.4 212l-.9 -5.9l1.7 1.7l2.1 -1l-2.9 5.2Zm16.9 -44.5l15.2 40.6" class="g2_182"/>
<path d="M615 212.1l-3.8 -4.7l2.3 .7l1.2 -2l.3 6Z" class="g3_182"/>
<path d="M615 212.1l-3.8 -4.7l2.3 .7l1.2 -2l.3 6Zm-8.2 -44.6l-89.4 43.4" class="g2_182"/>
<path d="M513.5 212.7l4.3 -4.2l-.4 2.4l2.1 1.1l-6 .7Z" class="g3_182"/>
<path d="M513.5 212.7l4.3 -4.2l-.4 2.4l2.1 1.1l-6 .7Z" class="g2_182"/>
</g>
<g clip-path="url(#c3_182)">
<path clip-path="url(#c1_182)" d="M246.6 560.6H489.5V700.3H246.6V560.6Z" class="g0_182"/>
<path d="M351.6 562.3h34.3v22.9H351.6V562.3Z" class="g0_182"/>
<path d="M351.6 562.3h34.3v22.9H351.6V562.3Z" class="g1_182"/>
<path d="M282.9 608.1h34.3V631H282.9V608.1Z" class="g0_182"/>
<path d="M282.9 608.1h34.3V631H282.9V608.1Z" class="g1_182"/>
<path d="M351.3 608.1h34.3V631H351.3V608.1Z" class="g0_182"/>
<path d="M351.3 608.1h34.3V631H351.3V608.1Z" class="g1_182"/>
<path d="M418.9 608.1h34.3V631H418.9V608.1Z" class="g0_182"/>
<path d="M418.9 608.1h34.3V631H418.9V608.1Zm-118.8 0v-5.7c0 -3.8 3.8 -5.8 11.4 -5.8h37.2c7.6 0 11.4 -1.9 11.4 -5.7l.1 -5.7m8.3 22.9v-5.7c0 -3.8 0 -7.7 .1 -11.5l.1 -5.7m67.4 22.9v-5.7c0 -3.8 -3.8 -5.8 -11.5 -5.8H388.8c-7.7 0 -11.5 -1.9 -11.5 -5.7v-5.7" class="g1_182"/>
<path d="M248.3 676.9h34.3v22.9H248.3V676.9Z" class="g0_182"/>
<path clip-path="url(#c1_182)" d="M248.3 676.9h34.3v22.9H248.3V676.9Z" class="g1_182"/>
<path d="M282.7 676.9h34.2v22.9H282.7V676.9Z" class="g0_182"/>
<path clip-path="url(#c1_182)" d="M282.7 676.9h34.2v22.9H282.7V676.9Z" class="g1_182"/>
<path d="M317.2 676.9h34.3v22.9H317.2V676.9Z" class="g0_182"/>
<path clip-path="url(#c1_182)" d="M317.2 676.9h34.3v22.9H317.2V676.9Z" class="g1_182"/>
<path d="M351.6 676.9h34.3v22.9H351.6V676.9Z" class="g0_182"/>
<path clip-path="url(#c1_182)" d="M351.6 676.9h34.3v22.9H351.6V676.9Z" class="g1_182"/>
<path d="M385.9 676.9h34.3v22.9H385.9V676.9Z" class="g0_182"/>
<path clip-path="url(#c1_182)" d="M385.9 676.9h34.3v22.9H385.9V676.9Z" class="g1_182"/>
<path d="M420.2 676.9h34.2v22.9H420.2V676.9Z" class="g0_182"/>
<path clip-path="url(#c1_182)" d="M420.2 676.9h34.2v22.9H420.2V676.9Z" class="g1_182"/>
<path d="M454.4 676.9h34.3v22.9H454.4V676.9Z" class="g0_182"/>
<path clip-path="url(#c1_182)" d="M454.4 676.9h34.3v22.9H454.4V676.9Z" class="g1_182"/>
<path d="M282.9 631l-23.3 41" class="g2_182"/>
<path d="M257.5 675.7l1.2 -5.9l.9 2.2l2.4 -.3l-4.5 4Z" class="g3_182"/>
<path d="M257.5 675.7l1.2 -5.9l.9 2.2l2.4 -.3l-4.5 4Zm34 -44.7l7.3 40.4" class="g2_182"/>
<path d="M299.6 675.6l-2.9 -5.3l2.1 1.1l1.6 -1.8l-.8 6Z" class="g3_182"/>
<path d="M299.6 675.6l-2.9 -5.3l2.1 1.1l1.6 -1.8l-.8 6ZM359.9 631l-22.8 41" class="g2_182"/>
<path d="M335 675.7l1.1 -5.9l1 2.2l2.3 -.3l-4.4 4Z" class="g3_182"/>
<path d="M335 675.7l1.1 -5.9l1 2.2l2.3 -.3l-4.4 4ZM300.1 631l-31.3 41.4" class="g2_182"/>
<path d="M266.2 675.8l1.9 -5.7l.7 2.3h2.4l-5 3.4Z" class="g3_182"/>
<path d="M266.2 675.8l1.9 -5.7l.7 2.3h2.4l-5 3.4ZM308.6 631l-.2 40.3" class="g2_182"/>
<path d="M308.4 675.6l-1.9 -5.8l1.9 1.5l1.9 -1.4l-1.9 5.7Z" class="g3_182"/>
<path d="M308.4 675.6l-1.9 -5.8l1.9 1.5l1.9 -1.4l-1.9 5.7ZM368.5 631l.2 40.3" class="g2_182"/>
<path d="M368.7 675.6l-1.9 -5.7l1.9 1.4l1.9 -1.5l-1.9 5.8Z" class="g3_182"/>
<path d="M368.7 675.6l-1.9 -5.7l1.9 1.4l1.9 -1.5l-1.9 5.8ZM377 631l-30.7 41.4" class="g2_182"/>
<path d="M343.7 675.8l1.9 -5.7l.7 2.3h2.3l-4.9 3.4Z" class="g3_182"/>
<path d="M343.7 675.8l1.9 -5.7l.7 2.3h2.3l-4.9 3.4ZM427.5 631l1.1 40.3" class="g2_182"/>
<path d="M428.7 675.6l-2.1 -5.7l2 1.4l1.8 -1.5l-1.7 5.8Z" class="g3_182"/>
<path d="M428.7 675.6l-2.1 -5.7l2 1.4l1.8 -1.5l-1.7 5.8ZM317.2 631l7.6 40.4" class="g2_182"/>
<path d="M325.5 675.6l-2.9 -5.3l2.2 1.1l1.6 -1.8l-.9 6Z" class="g3_182"/>
<path d="M325.5 675.6l-2.9 -5.3l2.2 1.1l1.6 -1.8l-.9 6ZM351.3 631l7.8 40.4" class="g2_182"/>
<path d="M359.9 675.6l-3 -5.3l2.2 1.1l1.6 -1.8l-.8 6Z" class="g3_182"/>
<path d="M359.9 675.6l-3 -5.3l2.2 1.1l1.6 -1.8l-.8 6ZM385.6 631l-7.3 40.4" class="g2_182"/>
<path d="M377.5 675.6l-.8 -6l1.6 1.8l2.1 -1.1l-2.9 5.3Z" class="g3_182"/>
<path d="M377.5 675.6l-.8 -6l1.6 1.8l2.1 -1.1l-2.9 5.3ZM418.9 631l-14.1 40.6" class="g2_182"/>
<path d="M403.4 675.6l.1 -6l1.3 2l2.3 -.7l-3.7 4.7Z" class="g3_182"/>
<path d="M403.4 675.6l.1 -6l1.3 2l2.3 -.7l-3.7 4.7ZM436.1 631l-29.8 41.3" class="g2_182"/>
<path d="M403.8 675.8l1.8 -5.8l.7 2.3h2.4l-4.9 3.5Z" class="g3_182"/>
<path d="M403.8 675.8l1.8 -5.8l.7 2.3h2.4l-4.9 3.5ZM444.6 631l1.1 40.3" class="g2_182"/>
<path d="M445.8 675.6l-2 -5.7l1.9 1.4l1.9 -1.5l-1.8 5.8Z" class="g3_182"/>
<path d="M445.8 675.6l-2 -5.7l1.9 1.4l1.9 -1.5l-1.8 5.8ZM453.2 631l8.6 40.4" class="g2_182"/>
<path d="M462.7 675.6l-3 -5.2l2.1 1l1.6 -1.8l-.7 6Z" class="g3_182"/>
<path d="M462.7 675.6l-3 -5.2l2.1 1l1.6 -1.8l-.7 6Z" class="g2_182"/>
</g>
</svg>