<?xml version="1.0" encoding="UTF-8" standalone="no"?>
<!DOCTYPE svg PUBLIC "-//W3C//DTD SVG 1.1//EN"
"http://www.w3.org/Graphics/SVG/1.1/DTD/svg11.dtd">
<svg viewBox="0 0 714 1017" version="1.1" xmlns="http://www.w3.org/2000/svg" xmlns:xlink="http://www.w3.org/1999/xlink">
<defs>
<clipPath id="c0_219"><path d="M92.9 797V393.6H599.4V797Z"/></clipPath>
<clipPath id="c1_219"><path d="M92.9 797V393.6H600.1V797Z"/></clipPath>
<style type="text/css"><![CDATA[
.g0_219{
fill: #FFF;
}
.g1_219{
fill: none;
stroke: #000;
stroke-width: 1.217;
stroke-miterlimit: 10;
}
.g2_219{
fill: none;
stroke: #000;
stroke-width: 1.156;
stroke-miterlimit: 10;
}
.g3_219{
fill: none;
stroke: #000;
stroke-width: 0.76;
stroke-miterlimit: 10;
}
.g4_219{
fill: none;
stroke: #000;
stroke-width: 2.291;
stroke-miterlimit: 10;
}
.g5_219{
fill: none;
stroke: #000;
stroke-width: 1.145;
stroke-miterlimit: 10;
}
.g6_219{
fill: #000;
}
.g7_219{
fill: none;
stroke: #000;
stroke-width: 0.608;
stroke-miterlimit: 10;
}
]]></style>
</defs>
<path d="M0 1017.7H717.2V-3.7H0V1017.7Z" class="g0_219"/>
<path d="M65 97.6H623.2" class="g1_219"/>
<path d="M65 159.3H623.2" class="g2_219"/>
<path d="M65 186H623.2M65 212.5H623.2M65 239H623.2M65 282.9H623.2M65 309.4H623.2M65 335.9H623.2" class="g3_219"/>
<path d="M65 362.7H623.2" class="g1_219"/>
<g clip-path="url(#c1_219)">
<path clip-path="url(#c0_219)" d="M92.9 393.6H599.4V797H92.9V393.6Z" class="g0_219"/>
<path d="M278 395.3H415.5v34.4H278V395.3Z" class="g0_219"/>
<path d="M278 395.3H415.5v34.4H278V395.3Z" class="g4_219"/>
<path d="M94.6 475.5H232.1v34.4H94.6V475.5Z" class="g0_219"/>
<path d="M94.6 475.5H232.1v34.4H94.6V475.5Z" class="g4_219"/>
<path d="M461.3 475.5H598.8v34.4H461.3V475.5Z" class="g0_219"/>
<path d="M461.3 475.5H598.8v34.4H461.3V475.5Z" class="g5_219"/>
<path d="M94.6 601.6H232.1V636H94.6V601.6Z" class="g0_219"/>
<path d="M94.6 601.6H232.1V636H94.6V601.6Z" class="g5_219"/>
<path d="M461.3 601.6H598.8V636H461.3V601.6Z" class="g0_219"/>
<path d="M461.3 601.6H598.8V636H461.3V601.6Z" class="g5_219"/>
<path d="M278 681.8H415.5v34.4H278V681.8Z" class="g0_219"/>
<path d="M278 681.8H415.5v34.4H278V681.8Z" class="g4_219"/>
<path d="M278 762H415.5v34.4H278V762Z" class="g0_219"/>
<path clip-path="url(#c0_219)" d="M278 762H415.5v34.4H278V762Z" class="g4_219"/>
<path d="M346.7 762V723.5" class="g5_219"/>
<path d="M346.7 717.5l2.7 8l-2.7 -2l-2.7 2l2.7 -8Z" class="g6_219"/>
<path d="M346.7 717.5l2.7 8l-2.7 -2l-2.7 2l2.7 -8Z" class="g5_219"/>
<path d="M307.2 732.8h79v13.7h-79V732.8Z" class="g0_219"/>
<path d="M312.3 681.8L170.4 638.1" class="g5_219"/>
<path d="M164.6 636.3l8.5 -.2l-2.7 2l1.1 3.2l-6.9 -5Z" class="g6_219"/>
<path d="M164.6 636.3l8.5 -.2l-2.7 2l1.1 3.2l-6.9 -5Z" class="g5_219"/>
<path d="M176.6 652.6H299.2v13.7H176.6V652.6Z" class="g0_219"/>
<path d="M381.1 681.8l142 -43.7" class="g5_219"/>
<path d="M528.8 636.3l-6.9 5l1.2 -3.2l-2.7 -2l8.4 .2Z" class="g6_219"/>
<path d="M528.8 636.3l-6.9 5l1.2 -3.2l-2.7 -2l8.4 .2Z" class="g5_219"/>
<path d="M389.7 645.7H521.4v27.5H389.7V645.7Z" class="g0_219"/>
<path d="M163.4 601.6V517.2" class="g5_219"/>
<path d="M163.4 511.2l2.6 8l-2.6 -2l-2.7 2l2.7 -8Z" class="g6_219"/>
<path d="M163.4 511.2l2.6 8l-2.6 -2l-2.7 2l2.7 -8Z" class="g5_219"/>
<path d="M97.5 535.7H229.3V577H97.5V535.7Z" class="g0_219"/>
<path d="M530 601.6V517.2" class="g5_219"/>
<path d="M530 511.2l2.7 8l-2.7 -2l-2.6 2l2.6 -8Z" class="g6_219"/>
<path d="M530 511.2l2.7 8l-2.7 -2l-2.6 2l2.6 -8Z" class="g5_219"/>
<path d="M468.7 542.6H591.3v27.5H468.7V542.6Z" class="g0_219"/>
<path d="M495.7 601.6L238.9 495.5" class="g5_219"/>
<path d="M233.3 493.2l8.4 .6l-2.8 1.7l.8 3.3l-6.4 -5.6Z" class="g6_219"/>
<path d="M233.3 493.2l8.4 .6l-2.8 1.7l.8 3.3l-6.4 -5.6Z" class="g5_219"/>
<path d="M300.3 534.6H427.5v27.5H300.3V534.6Z" class="g0_219"/>
<path d="M530 475.5L388.1 431.9" class="g5_219"/>
<path d="M382.3 430.1l8.5 -.2l-2.7 2l1.1 3.1l-6.9 -4.9Z" class="g6_219"/>
<path d="M382.3 430.1l8.5 -.2l-2.7 2l1.1 3.1l-6.9 -4.9Z" class="g5_219"/>
<path d="M392 446.3H519.2v13.8H392V446.3Z" class="g0_219"/>
<path d="M163.4 475.5l142 -43.6" class="g5_219"/>
<path d="M311.1 430.1l-6.9 4.9l1.2 -3.1l-2.7 -2l8.4 .2Z" class="g6_219"/>
<path d="M311.1 430.1l-6.9 4.9l1.2 -3.1l-2.7 -2l8.4 .2Z" class="g5_219"/>
<path d="M214.4 446.3h46.9v13.8H214.4V446.3Z" class="g0_219"/>
</g>
<path d="M65 815.1H174.6" class="g7_219"/>
</svg>