<?xml version="1.0" encoding="UTF-8" standalone="no"?>
<!DOCTYPE svg PUBLIC "-//W3C//DTD SVG 1.1//EN"
"http://www.w3.org/Graphics/SVG/1.1/DTD/svg11.dtd">
<svg viewBox="0 0 714 1017" version="1.1" xmlns="http://www.w3.org/2000/svg" xmlns:xlink="http://www.w3.org/1999/xlink">
<defs>
<style type="text/css"><![CDATA[
.g0_172{
fill: #FFF;
}
.g1_172{
fill: none;
stroke: #000;
stroke-width: 1.217;
stroke-miterlimit: 10;
}
]]></style>
</defs>
<path d="M0 1017.7H717.2V-3.7H0V1017.7Z" class="g0_172"/>
<path d="M88.8 521.8V476.2c0 -2.4 1.9 -4.3 4.3 -4.3h550c2.4 0 4.3 1.9 4.3 4.3v45.6c0 2.4 -1.9 4.3 -4.3 4.3H93.1c-2.4 0 -4.3 -1.9 -4.3 -4.3Z" class="g0_172"/>
<path d="M86.6 469.7v58.6" class="g1_172"/>
<path d="M88.8 673.4V599.6c0 -2.3 1.9 -4.3 4.3 -4.3h550c2.4 0 4.3 2 4.3 4.3v73.8c0 2.4 -1.9 4.3 -4.3 4.3H93.1c-2.4 0 -4.3 -1.9 -4.3 -4.3Z" class="g0_172"/>
<path d="M86.6 593.2v86.7" class="g1_172"/>
</svg>