<?xml version="1.0" encoding="UTF-8" standalone="no"?>
<!DOCTYPE svg PUBLIC "-//W3C//DTD SVG 1.1//EN"
"http://www.w3.org/Graphics/SVG/1.1/DTD/svg11.dtd">
<svg viewBox="0 0 714 1017" version="1.1" xmlns="http://www.w3.org/2000/svg" xmlns:xlink="http://www.w3.org/1999/xlink">
<defs>
<clipPath id="c0_336"><path d="M91.6 433.3V261.4H643.9V433.3Z"/></clipPath>
<clipPath id="c1_336"><path d="M91.6 695.6V529.4H643.9V695.6Z"/></clipPath>
<clipPath id="c2_336"><path d="M91.6 434.1V259.9H644.7V434.1Z"/></clipPath>
<clipPath id="c3_336"><path d="M91.6 695.9V529.4H644.7V695.9Z"/></clipPath>
<style type="text/css"><![CDATA[
.g0_336{
fill: #FFF;
}
.g1_336{
fill: none;
stroke: #000;
stroke-width: 1.145;
stroke-miterlimit: 10;
}
.g2_336{
fill: none;
stroke: #000;
stroke-width: 2.291;
stroke-miterlimit: 10;
}
.g3_336{
fill: #000;
}
.g4_336{
fill: none;
stroke: #000;
stroke-width: 0.81;
stroke-miterlimit: 10;
}
]]></style>
</defs>
<path d="M0 1017.7H717.2V-3.7H0V1017.7Z" class="g0_336"/>
<g clip-path="url(#c2_336)">
<path clip-path="url(#c0_336)" d="M91.6 261.4H643.9V433.3H91.6V261.4Z" class="g0_336"/>
<path d="M191.9 317H641.1M191.9 352.5H641.1M191.9 386.9h65.5" class="g1_336"/>
<path d="M204.7 320L224 346.3" class="g2_336"/>
<path d="M205.7 318.1c0 .3 -.1 .6 -.2 .9c-.1 .3 -.3 .5 -.5 .7c-.2 .2 -.5 .4 -.8 .5c-.2 .1 -.5 .2 -.8 .2c-.3 0 -.6 -.1 -.9 -.2c-.3 -.1 -.5 -.3 -.8 -.5c-.2 -.2 -.3 -.4 -.5 -.7c-.1 -.3 -.1 -.6 -.1 -.9c0 -.3 0 -.6 .1 -.9c.2 -.2 .3 -.5 .5 -.7c.3 -.2 .5 -.4 .8 -.5c.3 -.1 .6 -.2 .9 -.2c.3 0 .6 .1 .8 .2c.3 .1 .6 .3 .8 .5c.2 .2 .4 .5 .5 .7c.1 .3 .2 .6 .2 .9Z" class="g3_336"/>
<path d="M205.7 318.1c0 .3 -.1 .6 -.2 .9c-.1 .3 -.3 .5 -.5 .7c-.2 .2 -.5 .4 -.8 .5c-.2 .1 -.5 .2 -.8 .2c-.3 0 -.6 -.1 -.9 -.2c-.3 -.1 -.5 -.3 -.8 -.5c-.2 -.2 -.3 -.4 -.5 -.7c-.1 -.3 -.1 -.6 -.1 -.9c0 -.3 0 -.6 .1 -.9c.2 -.2 .3 -.5 .5 -.7c.3 -.2 .5 -.4 .8 -.5c.3 -.1 .6 -.2 .9 -.2c.3 0 .6 .1 .8 .2c.3 .1 .6 .3 .8 .5c.2 .2 .4 .5 .5 .7c.1 .3 .2 .6 .2 .9Z" class="g2_336"/>
<path d="M227.1 350.4l-6 -4.2l2.9 .1l.8 -2.8l2.3 6.9Z" class="g3_336"/>
<path d="M227.1 350.4l-6 -4.2l2.9 .1l.8 -2.8l2.3 6.9Zm3.1 .5l27.3 -27.3" class="g2_336"/>
<path d="M230.9 352.5c0 .3 -.1 .6 -.2 .9c-.1 .2 -.3 .5 -.5 .7c-.2 .2 -.5 .4 -.8 .5c-.2 .1 -.5 .2 -.8 .2c-.3 0 -.6 -.1 -.9 -.2c-.3 -.1 -.5 -.3 -.7 -.5c-.3 -.2 -.4 -.5 -.5 -.7c-.2 -.3 -.2 -.6 -.2 -.9c0 -.3 0 -.6 .2 -.9c.1 -.3 .2 -.5 .5 -.7c.2 -.3 .4 -.4 .7 -.5c.3 -.2 .6 -.2 .9 -.2c.3 0 .6 0 .8 .2c.3 .1 .6 .2 .8 .5c.2 .2 .4 .4 .5 .7c.1 .3 .2 .6 .2 .9Z" class="g3_336"/>
<path d="M230.9 352.5c0 .3 -.1 .6 -.2 .9c-.1 .2 -.3 .5 -.5 .7c-.2 .2 -.5 .4 -.8 .5c-.2 .1 -.5 .2 -.8 .2c-.3 0 -.6 -.1 -.9 -.2c-.3 -.1 -.5 -.3 -.7 -.5c-.3 -.2 -.4 -.5 -.5 -.7c-.2 -.3 -.2 -.6 -.2 -.9c0 -.3 0 -.6 .2 -.9c.1 -.3 .2 -.5 .5 -.7c.2 -.3 .4 -.4 .7 -.5c.3 -.2 .6 -.2 .9 -.2c.3 0 .6 0 .8 .2c.3 .1 .6 .2 .8 .5c.2 .2 .4 .4 .5 .7c.1 .3 .2 .6 .2 .9Z" class="g2_336"/>
<path d="M261.1 319.9l-3.2 6.5l-.4 -2.8l-2.9 -.4l6.5 -3.3Z" class="g3_336"/>
<path d="M261.1 319.9l-3.2 6.5l-.4 -2.8l-2.9 -.4l6.5 -3.3Zm2.9 1.4l29.9 59.8" class="g2_336"/>
<path d="M265.2 319.3c0 .3 0 .5 -.1 .8c-.2 .3 -.3 .6 -.5 .8c-.2 .2 -.5 .4 -.8 .5c-.3 .1 -.6 .1 -.9 .1c-.3 0 -.6 0 -.8 -.1c-.3 -.1 -.6 -.3 -.8 -.5c-.2 -.2 -.4 -.5 -.5 -.8c-.1 -.3 -.1 -.5 -.1 -.8c0 -.4 0 -.6 .1 -.9c.1 -.3 .3 -.6 .5 -.8c.2 -.2 .5 -.3 .8 -.5c.2 -.1 .5 -.1 .8 -.1c.3 0 .6 0 .9 .1c.3 .2 .6 .3 .8 .5c.2 .2 .3 .5 .5 .8c.1 .3 .1 .5 .1 .9Z" class="g3_336"/>
<path d="M265.2 319.3c0 .3 0 .5 -.1 .8c-.2 .3 -.3 .6 -.5 .8c-.2 .2 -.5 .4 -.8 .5c-.3 .1 -.6 .1 -.9 .1c-.3 0 -.6 0 -.8 -.1c-.3 -.1 -.6 -.3 -.8 -.5c-.2 -.2 -.4 -.5 -.5 -.8c-.1 -.3 -.1 -.5 -.1 -.8c0 -.4 0 -.6 .1 -.9c.1 -.3 .3 -.6 .5 -.8c.2 -.2 .5 -.3 .8 -.5c.2 -.1 .5 -.1 .8 -.1c.3 0 .6 0 .9 .1c.3 .2 .6 .3 .8 .5c.2 .2 .3 .5 .5 .8c.1 .3 .1 .5 .1 .9Z" class="g2_336"/>
<path d="M296.2 385.7l-5.1 -5.1l2.8 .5l1.3 -2.6l1 7.2Z" class="g3_336"/>
<path d="M296.2 385.7l-5.1 -5.1l2.8 .5l1.3 -2.6l1 7.2Z" class="g2_336"/>
<path d="M191.9 421.2H641.1" class="g1_336"/>
<path d="M366.8 320.3L398 413.9" class="g2_336"/>
<path d="M368.4 318.1c0 .3 -.1 .6 -.2 .9c-.1 .3 -.3 .5 -.5 .7c-.2 .2 -.5 .4 -.8 .5c-.2 .1 -.5 .2 -.8 .2c-.3 0 -.6 -.1 -.9 -.2c-.3 -.1 -.5 -.3 -.7 -.5c-.3 -.2 -.4 -.4 -.5 -.7c-.2 -.3 -.2 -.6 -.2 -.9c0 -.3 0 -.6 .2 -.9c.1 -.2 .2 -.5 .5 -.7c.2 -.2 .4 -.4 .7 -.5c.3 -.1 .6 -.2 .9 -.2c.3 0 .6 .1 .8 .2c.3 .1 .6 .3 .8 .5c.2 .2 .4 .5 .5 .7c.1 .3 .2 .6 .2 .9Z" class="g3_336"/>
<path d="M368.4 318.1c0 .3 -.1 .6 -.2 .9c-.1 .3 -.3 .5 -.5 .7c-.2 .2 -.5 .4 -.8 .5c-.2 .1 -.5 .2 -.8 .2c-.3 0 -.6 -.1 -.9 -.2c-.3 -.1 -.5 -.3 -.7 -.5c-.3 -.2 -.4 -.4 -.5 -.7c-.2 -.3 -.2 -.6 -.2 -.9c0 -.3 0 -.6 .2 -.9c.1 -.2 .2 -.5 .5 -.7c.2 -.2 .4 -.4 .7 -.5c.3 -.1 .6 -.2 .9 -.2c.3 0 .6 .1 .8 .2c.3 .1 .6 .3 .8 .5c.2 .2 .4 .5 .5 .7c.1 .3 .2 .6 .2 .9Z" class="g2_336"/>
<path d="M399.6 418.8L395.3 413l2.7 .9l1.6 -2.3v7.2Z" class="g3_336"/>
<path d="M399.6 418.8L395.3 413l2.7 .9l1.6 -2.3v7.2Zm1.6 .3l31.2 -93.7" class="g2_336"/>
<path d="M402.7 421.2c0 .3 0 .6 -.1 .9c-.2 .3 -.3 .5 -.5 .8c-.2 .2 -.5 .3 -.8 .5c-.3 .1 -.6 .1 -.9 .1c-.3 0 -.6 0 -.8 -.1c-.3 -.2 -.6 -.3 -.8 -.5c-.2 -.3 -.4 -.5 -.5 -.8c-.1 -.3 -.1 -.6 -.1 -.9c0 -.3 0 -.6 .1 -.8c.1 -.3 .3 -.6 .5 -.8c.2 -.2 .5 -.4 .8 -.5c.2 -.1 .5 -.2 .8 -.2c.3 0 .6 .1 .9 .2c.3 .1 .6 .3 .8 .5c.2 .2 .3 .5 .5 .8c.1 .2 .1 .5 .1 .8Z" class="g3_336"/>
<path d="M402.7 421.2c0 .3 0 .6 -.1 .9c-.2 .3 -.3 .5 -.5 .8c-.2 .2 -.5 .3 -.8 .5c-.3 .1 -.6 .1 -.9 .1c-.3 0 -.6 0 -.8 -.1c-.3 -.2 -.6 -.3 -.8 -.5c-.2 -.3 -.4 -.5 -.5 -.8c-.1 -.3 -.1 -.6 -.1 -.9c0 -.3 0 -.6 .1 -.8c.1 -.3 .3 -.6 .5 -.8c.2 -.2 .5 -.4 .8 -.5c.2 -.1 .5 -.2 .8 -.2c.3 0 .6 .1 .9 .2c.3 .1 .6 .3 .8 .5c.2 .2 .3 .5 .5 .8c.1 .2 .1 .5 .1 .8Z" class="g2_336"/>
<path d="M434 320.5v7.3l-1.6 -2.4l-2.7 .9l4.3 -5.8Z" class="g3_336"/>
<path d="M434 320.5v7.3l-1.6 -2.4l-2.7 .9l4.3 -5.8Zm71.2 -.8L532.5 347" class="g2_336"/>
<path d="M505.9 318.1c0 .3 -.1 .6 -.2 .9c-.1 .3 -.3 .5 -.5 .7c-.2 .2 -.5 .4 -.8 .5c-.2 .1 -.5 .2 -.8 .2c-.3 0 -.6 -.1 -.9 -.2c-.3 -.1 -.5 -.3 -.7 -.5c-.3 -.2 -.4 -.4 -.5 -.7c-.2 -.3 -.2 -.6 -.2 -.9c0 -.3 0 -.6 .2 -.9c.1 -.2 .2 -.5 .5 -.7c.2 -.2 .4 -.4 .7 -.5c.3 -.1 .6 -.2 .9 -.2c.3 0 .6 .1 .8 .2c.3 .1 .6 .3 .8 .5c.2 .2 .4 .5 .5 .7c.1 .3 .2 .6 .2 .9Z" class="g3_336"/>
<path d="M505.9 318.1c0 .3 -.1 .6 -.2 .9c-.1 .3 -.3 .5 -.5 .7c-.2 .2 -.5 .4 -.8 .5c-.2 .1 -.5 .2 -.8 .2c-.3 0 -.6 -.1 -.9 -.2c-.3 -.1 -.5 -.3 -.7 -.5c-.3 -.2 -.4 -.4 -.5 -.7c-.2 -.3 -.2 -.6 -.2 -.9c0 -.3 0 -.6 .2 -.9c.1 -.2 .2 -.5 .5 -.7c.2 -.2 .4 -.4 .7 -.5c.3 -.1 .6 -.2 .9 -.2c.3 0 .6 .1 .8 .2c.3 .1 .6 .3 .8 .5c.2 .2 .4 .5 .5 .7c.1 .3 .2 .6 .2 .9Z" class="g2_336"/>
<path d="M536.1 350.7l-6.5 -3.3l2.9 -.4l.4 -2.8l3.2 6.5Z" class="g3_336"/>
<path d="M536.1 350.7l-6.5 -3.3l2.9 -.4l.4 -2.8l3.2 6.5Zm3.5 .2l27.3 -27.3" class="g2_336"/>
<path d="M540.2 352.5c0 .3 0 .6 -.1 .9c-.2 .2 -.3 .5 -.5 .7c-.2 .2 -.5 .4 -.8 .5c-.3 .1 -.6 .2 -.9 .2c-.3 0 -.6 -.1 -.8 -.2c-.3 -.1 -.6 -.3 -.8 -.5c-.2 -.2 -.4 -.5 -.5 -.7c-.1 -.3 -.1 -.6 -.1 -.9c0 -.3 0 -.6 .1 -.9c.1 -.3 .3 -.5 .5 -.7c.2 -.3 .5 -.4 .8 -.5c.2 -.2 .5 -.2 .8 -.2c.3 0 .6 0 .9 .2c.3 .1 .6 .2 .8 .5c.2 .2 .3 .4 .5 .7c.1 .3 .1 .6 .1 .9Z" class="g3_336"/>
<path d="M540.2 352.5c0 .3 0 .6 -.1 .9c-.2 .2 -.3 .5 -.5 .7c-.2 .2 -.5 .4 -.8 .5c-.3 .1 -.6 .2 -.9 .2c-.3 0 -.6 -.1 -.8 -.2c-.3 -.1 -.6 -.3 -.8 -.5c-.2 -.2 -.4 -.5 -.5 -.7c-.1 -.3 -.1 -.6 -.1 -.9c0 -.3 0 -.6 .1 -.9c.1 -.3 .3 -.5 .5 -.7c.2 -.3 .5 -.4 .8 -.5c.2 -.2 .5 -.2 .8 -.2c.3 0 .6 0 .9 .2c.3 .1 .6 .2 .8 .5c.2 .2 .3 .4 .5 .7c.1 .3 .1 .6 .1 .9Z" class="g2_336"/>
<path d="M570.5 319.9l-3.2 6.5l-.4 -2.8l-2.9 -.4l6.5 -3.3Z" class="g3_336"/>
<path d="M570.5 319.9l-3.2 6.5l-.4 -2.8l-2.9 -.4l6.5 -3.3Zm-272.2 .3L328.2 380" class="g2_336"/>
<path d="M299.6 318.1c0 .3 0 .6 -.2 .9c-.1 .3 -.2 .5 -.5 .7c-.2 .2 -.4 .4 -.7 .5c-.3 .1 -.6 .2 -.9 .2c-.3 0 -.6 -.1 -.9 -.2c-.2 -.1 -.5 -.3 -.7 -.5c-.2 -.2 -.4 -.4 -.5 -.7c-.1 -.3 -.2 -.6 -.2 -.9c0 -.3 .1 -.6 .2 -.9c.1 -.2 .3 -.5 .5 -.7c.2 -.2 .5 -.4 .7 -.5c.3 -.1 .6 -.2 .9 -.2c.3 0 .6 .1 .9 .2c.3 .1 .5 .3 .7 .5c.3 .2 .4 .5 .5 .7c.2 .3 .2 .6 .2 .9Z" class="g3_336"/>
<path d="M299.6 318.1c0 .3 0 .6 -.2 .9c-.1 .3 -.2 .5 -.5 .7c-.2 .2 -.4 .4 -.7 .5c-.3 .1 -.6 .2 -.9 .2c-.3 0 -.6 -.1 -.9 -.2c-.2 -.1 -.5 -.3 -.7 -.5c-.2 -.2 -.4 -.4 -.5 -.7c-.1 -.3 -.2 -.6 -.2 -.9c0 -.3 .1 -.6 .2 -.9c.1 -.2 .3 -.5 .5 -.7c.2 -.2 .5 -.4 .7 -.5c.3 -.1 .6 -.2 .9 -.2c.3 0 .6 .1 .9 .2c.3 .1 .5 .3 .7 .5c.3 .2 .4 .5 .5 .7c.2 .3 .2 .6 .2 .9Z" class="g2_336"/>
<path d="M330.6 384.6l-5.2 -5.2l2.8 .6l1.3 -2.6l1.1 7.2Z" class="g3_336"/>
<path d="M330.6 384.6l-5.2 -5.2l2.8 .6l1.3 -2.6l1.1 7.2Zm2.1 .2L362.6 325" class="g2_336"/>
<path d="M334 386.9c0 .3 -.1 .6 -.2 .8c-.1 .3 -.3 .6 -.5 .8c-.2 .2 -.4 .4 -.7 .5c-.3 .1 -.6 .1 -.9 .1c-.3 0 -.6 0 -.9 -.1c-.3 -.1 -.5 -.3 -.7 -.5c-.2 -.2 -.4 -.5 -.5 -.8c-.1 -.2 -.2 -.5 -.2 -.8c0 -.3 .1 -.6 .2 -.9c.1 -.3 .3 -.5 .5 -.8c.2 -.2 .4 -.3 .7 -.5c.3 -.1 .6 -.1 .9 -.1c.3 0 .6 0 .9 .1c.3 .2 .5 .3 .7 .5c.2 .3 .4 .5 .5 .8c.1 .3 .2 .6 .2 .9Z" class="g3_336"/>
<path d="M334 386.9c0 .3 -.1 .6 -.2 .8c-.1 .3 -.3 .6 -.5 .8c-.2 .2 -.4 .4 -.7 .5c-.3 .1 -.6 .1 -.9 .1c-.3 0 -.6 0 -.9 -.1c-.3 -.1 -.5 -.3 -.7 -.5c-.2 -.2 -.4 -.5 -.5 -.8c-.1 -.2 -.2 -.5 -.2 -.8c0 -.3 .1 -.6 .2 -.9c.1 -.3 .3 -.5 .5 -.8c.2 -.2 .4 -.3 .7 -.5c.3 -.1 .6 -.1 .9 -.1c.3 0 .6 0 .9 .1c.3 .2 .5 .3 .7 .5c.2 .3 .4 .5 .5 .8c.1 .3 .2 .6 .2 .9Z" class="g2_336"/>
<path d="M364.9 320.4l-1 7.2L362.6 325l-2.8 .5l5.1 -5.1Z" class="g3_336"/>
<path d="M364.9 320.4l-1 7.2L362.6 325l-2.8 .5l5.1 -5.1Z" class="g2_336"/>
<path d="M308.8 386.9H641.1" class="g1_336"/>
<path d="M254.2 377.1l6.5 6.5l6.5 -6.5l3.3 3.3l-6.5 6.5l6.5 6.5l-3.3 3.3l-6.5 -6.5l-6.5 6.5l-3.3 -3.3l6.5 -6.5l-6.5 -6.5l3.3 -3.3Z" class="g3_336"/>
<path d="M254.2 377.1l6.5 6.5l6.5 -6.5l3.3 3.3l-6.5 6.5l6.5 6.5l-3.3 3.3l-6.5 -6.5l-6.5 6.5l-3.3 -3.3l6.5 -6.5l-6.5 -6.5l3.3 -3.3Z" class="g4_336"/>
<path d="M435.8 320.2L465.7 380" class="g2_336"/>
<path d="M437.1 318.1c0 .3 0 .6 -.2 .9c-.1 .3 -.2 .5 -.5 .7c-.2 .2 -.4 .4 -.7 .5c-.3 .1 -.6 .2 -.9 .2c-.3 0 -.6 -.1 -.9 -.2c-.2 -.1 -.5 -.3 -.7 -.5c-.2 -.2 -.4 -.4 -.5 -.7c-.1 -.3 -.2 -.6 -.2 -.9c0 -.3 .1 -.6 .2 -.9c.1 -.2 .3 -.5 .5 -.7c.2 -.2 .5 -.4 .7 -.5c.3 -.1 .6 -.2 .9 -.2c.3 0 .6 .1 .9 .2c.3 .1 .5 .3 .7 .5c.3 .2 .4 .5 .5 .7c.2 .3 .2 .6 .2 .9Z" class="g3_336"/>
<path d="M437.1 318.1c0 .3 0 .6 -.2 .9c-.1 .3 -.2 .5 -.5 .7c-.2 .2 -.4 .4 -.7 .5c-.3 .1 -.6 .2 -.9 .2c-.3 0 -.6 -.1 -.9 -.2c-.2 -.1 -.5 -.3 -.7 -.5c-.2 -.2 -.4 -.4 -.5 -.7c-.1 -.3 -.2 -.6 -.2 -.9c0 -.3 .1 -.6 .2 -.9c.1 -.2 .3 -.5 .5 -.7c.2 -.2 .5 -.4 .7 -.5c.3 -.1 .6 -.2 .9 -.2c.3 0 .6 .1 .9 .2c.3 .1 .5 .3 .7 .5c.3 .2 .4 .5 .5 .7c.2 .3 .2 .6 .2 .9Z" class="g2_336"/>
<path d="M468 384.6l-5.1 -5.2l2.8 .6l1.3 -2.6l1 7.2Z" class="g3_336"/>
<path d="M468 384.6l-5.1 -5.2l2.8 .6l1.3 -2.6l1 7.2Zm2.2 .2L500.1 325" class="g2_336"/>
<path d="M471.5 386.9c0 .3 -.1 .6 -.2 .8c-.1 .3 -.3 .6 -.5 .8c-.2 .2 -.4 .4 -.7 .5c-.3 .1 -.6 .1 -.9 .1c-.3 0 -.6 0 -.9 -.1c-.3 -.1 -.5 -.3 -.7 -.5c-.2 -.2 -.4 -.5 -.5 -.8c-.1 -.2 -.2 -.5 -.2 -.8c0 -.3 .1 -.6 .2 -.9c.1 -.3 .3 -.5 .5 -.8c.2 -.2 .4 -.3 .7 -.5c.3 -.1 .6 -.1 .9 -.1c.3 0 .6 0 .9 .1c.3 .2 .5 .3 .7 .5c.2 .3 .4 .5 .5 .8c.1 .3 .2 .6 .2 .9Z" class="g3_336"/>
<path d="M471.5 386.9c0 .3 -.1 .6 -.2 .8c-.1 .3 -.3 .6 -.5 .8c-.2 .2 -.4 .4 -.7 .5c-.3 .1 -.6 .1 -.9 .1c-.3 0 -.6 0 -.9 -.1c-.3 -.1 -.5 -.3 -.7 -.5c-.2 -.2 -.4 -.5 -.5 -.8c-.1 -.2 -.2 -.5 -.2 -.8c0 -.3 .1 -.6 .2 -.9c.1 -.3 .3 -.5 .5 -.8c.2 -.2 .4 -.3 .7 -.5c.3 -.1 .6 -.1 .9 -.1c.3 0 .6 0 .9 .1c.3 .2 .5 .3 .7 .5c.2 .3 .4 .5 .5 .8c.1 .3 .2 .6 .2 .9Z" class="g2_336"/>
<path d="M502.4 320.4l-1 7.2L500.1 325l-2.8 .5l5.1 -5.1Z" class="g3_336"/>
<path d="M502.4 320.4l-1 7.2L500.1 325l-2.8 .5l5.1 -5.1Z" class="g2_336"/>
</g>
<g clip-path="url(#c3_336)">
<path clip-path="url(#c1_336)" d="M91.6 529.4H643.9V695.6H91.6V529.4Z" class="g0_336"/>
<path d="M188.5 581.3l141.1 -.1M188.5 615.7H641.1M188.5 650H641.1" class="g1_336"/>
<path d="M201.4 583.1l22.3 27.7" class="g2_336"/>
<path d="M202.2 581.3c0 .3 0 .6 -.2 .9c-.1 .3 -.2 .5 -.5 .7c-.2 .2 -.4 .4 -.7 .5c-.3 .1 -.6 .2 -.9 .2c-.3 0 -.6 -.1 -.9 -.2c-.2 -.1 -.5 -.3 -.7 -.5c-.2 -.2 -.4 -.4 -.5 -.7c-.1 -.3 -.2 -.6 -.2 -.9c0 -.3 .1 -.6 .2 -.9c.1 -.3 .3 -.5 .5 -.7c.2 -.2 .5 -.4 .7 -.5c.3 -.1 .6 -.2 .9 -.2c.3 0 .6 .1 .9 .2c.3 .1 .5 .3 .7 .5c.3 .2 .4 .4 .5 .7c.2 .3 .2 .6 .2 .9Z" class="g3_336"/>
<path d="M202.2 581.3c0 .3 0 .6 -.2 .9c-.1 .3 -.2 .5 -.5 .7c-.2 .2 -.4 .4 -.7 .5c-.3 .1 -.6 .2 -.9 .2c-.3 0 -.6 -.1 -.9 -.2c-.2 -.1 -.5 -.3 -.7 -.5c-.2 -.2 -.4 -.4 -.5 -.7c-.1 -.3 -.2 -.6 -.2 -.9c0 -.3 .1 -.6 .2 -.9c.1 -.3 .3 -.5 .5 -.7c.2 -.2 .5 -.4 .7 -.5c.3 -.1 .6 -.2 .9 -.2c.3 0 .6 .1 .9 .2c.3 .1 .5 .3 .7 .5c.3 .2 .4 .4 .5 .7c.2 .3 .2 .6 .2 .9Z" class="g2_336"/>
<path d="M227 614.8l-6.1 -3.9l2.8 -.1l.7 -2.8l2.6 6.8Z" class="g3_336"/>
<path d="M227 614.8l-6.1 -3.9l2.8 -.1l.7 -2.8l2.6 6.8Zm3.2 .4l27.3 -27.3" class="g2_336"/>
<path d="M230.9 616.8c0 .3 -.1 .6 -.2 .9c-.1 .3 -.3 .5 -.5 .7c-.2 .2 -.5 .4 -.8 .5c-.2 .1 -.5 .2 -.8 .2c-.3 0 -.6 -.1 -.9 -.2c-.3 -.1 -.5 -.3 -.7 -.5c-.3 -.2 -.4 -.4 -.5 -.7c-.2 -.3 -.2 -.6 -.2 -.9c0 -.3 0 -.6 .2 -.9c.1 -.2 .2 -.5 .5 -.7c.2 -.2 .4 -.4 .7 -.5c.3 -.1 .6 -.2 .9 -.2c.3 0 .6 .1 .8 .2c.3 .1 .6 .3 .8 .5c.2 .2 .4 .5 .5 .7c.1 .3 .2 .6 .2 .9Z" class="g3_336"/>
<path d="M230.9 616.8c0 .3 -.1 .6 -.2 .9c-.1 .3 -.3 .5 -.5 .7c-.2 .2 -.5 .4 -.8 .5c-.2 .1 -.5 .2 -.8 .2c-.3 0 -.6 -.1 -.9 -.2c-.3 -.1 -.5 -.3 -.7 -.5c-.3 -.2 -.4 -.4 -.5 -.7c-.2 -.3 -.2 -.6 -.2 -.9c0 -.3 0 -.6 .2 -.9c.1 -.2 .2 -.5 .5 -.7c.2 -.2 .4 -.4 .7 -.5c.3 -.1 .6 -.2 .9 -.2c.3 0 .6 .1 .8 .2c.3 .1 .6 .3 .8 .5c.2 .2 .4 .5 .5 .7c.1 .3 .2 .6 .2 .9Z" class="g2_336"/>
<path d="M261.1 584.2l-3.2 6.5l-.4 -2.8l-2.9 -.4l6.5 -3.3Z" class="g3_336"/>
<path d="M261.1 584.2l-3.2 6.5l-.4 -2.8l-2.9 -.4l6.5 -3.3Z" class="g2_336"/>
<path d="M188.5 684.4H641.1" class="g1_336"/>
<path d="M492.8 584.6L524 678.2" class="g2_336"/>
<path d="M494.4 582.4c0 .3 -.1 .6 -.2 .9c-.1 .3 -.3 .5 -.5 .8c-.2 .2 -.4 .3 -.7 .5c-.3 .1 -.6 .1 -.9 .1c-.3 0 -.6 0 -.9 -.1c-.2 -.2 -.5 -.3 -.7 -.5c-.2 -.3 -.4 -.5 -.5 -.8c-.1 -.3 -.2 -.6 -.2 -.9c0 -.3 .1 -.6 .2 -.8c.1 -.3 .3 -.6 .5 -.8c.2 -.2 .5 -.4 .7 -.5c.3 -.1 .6 -.2 .9 -.2c.3 0 .6 .1 .9 .2c.3 .1 .5 .3 .7 .5c.2 .2 .4 .5 .5 .8c.1 .2 .2 .5 .2 .8Z" class="g3_336"/>
<path d="M494.4 582.4c0 .3 -.1 .6 -.2 .9c-.1 .3 -.3 .5 -.5 .8c-.2 .2 -.4 .3 -.7 .5c-.3 .1 -.6 .1 -.9 .1c-.3 0 -.6 0 -.9 -.1c-.2 -.2 -.5 -.3 -.7 -.5c-.2 -.3 -.4 -.5 -.5 -.8c-.1 -.3 -.2 -.6 -.2 -.9c0 -.3 .1 -.6 .2 -.8c.1 -.3 .3 -.6 .5 -.8c.2 -.2 .5 -.4 .7 -.5c.3 -.1 .6 -.2 .9 -.2c.3 0 .6 .1 .9 .2c.3 .1 .5 .3 .7 .5c.2 .2 .4 .5 .5 .8c.1 .2 .2 .5 .2 .8Z" class="g2_336"/>
<path d="M525.7 683.1l-4.4 -5.8l2.7 .9l1.7 -2.3v7.2Z" class="g3_336"/>
<path d="M525.7 683.1l-4.4 -5.8l2.7 .9l1.7 -2.3v7.2Zm1.5 .3l31.2 -93.6" class="g2_336"/>
<path d="M528.8 685.6c0 .3 -.1 .6 -.2 .8c-.1 .3 -.3 .6 -.5 .8c-.2 .2 -.5 .4 -.7 .5c-.3 .1 -.6 .2 -.9 .2c-.3 0 -.6 -.1 -.9 -.2c-.3 -.1 -.5 -.3 -.7 -.5c-.2 -.2 -.4 -.5 -.5 -.8c-.1 -.2 -.2 -.5 -.2 -.8c0 -.3 .1 -.6 .2 -.9c.1 -.3 .3 -.5 .5 -.8c.2 -.2 .4 -.3 .7 -.5c.3 -.1 .6 -.1 .9 -.1c.3 0 .6 0 .9 .1c.2 .2 .5 .3 .7 .5c.2 .3 .4 .5 .5 .8c.1 .3 .2 .6 .2 .9Z" class="g3_336"/>
<path d="M528.8 685.6c0 .3 -.1 .6 -.2 .8c-.1 .3 -.3 .6 -.5 .8c-.2 .2 -.5 .4 -.7 .5c-.3 .1 -.6 .2 -.9 .2c-.3 0 -.6 -.1 -.9 -.2c-.3 -.1 -.5 -.3 -.7 -.5c-.2 -.2 -.4 -.5 -.5 -.8c-.1 -.2 -.2 -.5 -.2 -.8c0 -.3 .1 -.6 .2 -.9c.1 -.3 .3 -.5 .5 -.8c.2 -.2 .4 -.3 .7 -.5c.3 -.1 .6 -.1 .9 -.1c.3 0 .6 0 .9 .1c.2 .2 .5 .3 .7 .5c.2 .3 .4 .5 .5 .8c.1 .3 .2 .6 .2 .9Z" class="g2_336"/>
<path d="M560 584.9v7.2l-1.6 -2.3l-2.7 .9l4.3 -5.8Z" class="g3_336"/>
<path d="M560 584.9v7.2l-1.6 -2.3l-2.7 .9l4.3 -5.8Zm-296.3 -.3l19.7 59.3" class="g2_336"/>
<path d="M265.2 582.4c0 .3 0 .6 -.1 .9c-.2 .3 -.3 .5 -.5 .8c-.2 .2 -.5 .3 -.8 .5c-.3 .1 -.6 .1 -.9 .1c-.3 0 -.6 0 -.8 -.1c-.3 -.2 -.6 -.3 -.8 -.5c-.2 -.3 -.4 -.5 -.5 -.8c-.1 -.3 -.1 -.6 -.1 -.9c0 -.3 0 -.6 .1 -.8c.1 -.3 .3 -.6 .5 -.8c.2 -.2 .5 -.4 .8 -.5c.2 -.1 .5 -.2 .8 -.2c.3 0 .6 .1 .9 .2c.3 .1 .6 .3 .8 .5c.2 .2 .3 .5 .5 .8c.1 .2 .1 .5 .1 .8Z" class="g3_336"/>
<path d="M265.2 582.4c0 .3 0 .6 -.1 .9c-.2 .3 -.3 .5 -.5 .8c-.2 .2 -.5 .3 -.8 .5c-.3 .1 -.6 .1 -.9 .1c-.3 0 -.6 0 -.8 -.1c-.3 -.2 -.6 -.3 -.8 -.5c-.2 -.3 -.4 -.5 -.5 -.8c-.1 -.3 -.1 -.6 -.1 -.9c0 -.3 0 -.6 .1 -.8c.1 -.3 .3 -.6 .5 -.8c.2 -.2 .5 -.4 .8 -.5c.2 -.1 .5 -.2 .8 -.2c.3 0 .6 .1 .9 .2c.3 .1 .6 .3 .8 .5c.2 .2 .3 .5 .5 .8c.1 .2 .1 .5 .1 .8Z" class="g2_336"/>
<path d="M285 648.8L280.7 643l2.7 .9l1.6 -2.4v7.3Z" class="g3_336"/>
<path d="M285 648.8L280.7 643l2.7 .9l1.6 -2.4v7.3Zm1.9 .3l29.9 -59.8" class="g2_336"/>
<path d="M288.2 651.2c0 .3 -.1 .6 -.2 .9c-.1 .2 -.3 .5 -.5 .7c-.2 .2 -.5 .4 -.8 .5c-.2 .1 -.5 .2 -.8 .2c-.3 0 -.6 -.1 -.9 -.2c-.3 -.1 -.5 -.3 -.8 -.5c-.2 -.2 -.3 -.5 -.5 -.7c-.1 -.3 -.1 -.6 -.1 -.9c0 -.3 0 -.6 .1 -.9c.2 -.3 .3 -.5 .5 -.7c.3 -.2 .5 -.4 .8 -.5c.3 -.1 .6 -.2 .9 -.2c.3 0 .6 .1 .8 .2c.3 .1 .6 .3 .8 .5c.2 .2 .4 .4 .5 .7c.1 .3 .2 .6 .2 .9Z" class="g3_336"/>
<path d="M288.2 651.2c0 .3 -.1 .6 -.2 .9c-.1 .2 -.3 .5 -.5 .7c-.2 .2 -.5 .4 -.8 .5c-.2 .1 -.5 .2 -.8 .2c-.3 0 -.6 -.1 -.9 -.2c-.3 -.1 -.5 -.3 -.8 -.5c-.2 -.2 -.3 -.5 -.5 -.7c-.1 -.3 -.1 -.6 -.1 -.9c0 -.3 0 -.6 .1 -.9c.2 -.3 .3 -.5 .5 -.7c.3 -.2 .5 -.4 .8 -.5c.3 -.1 .6 -.2 .9 -.2c.3 0 .6 .1 .8 .2c.3 .1 .6 .3 .8 .5c.2 .2 .4 .4 .5 .7c.1 .3 .2 .6 .2 .9Z" class="g2_336"/>
<path d="M319.1 584.7l-1 7.2l-1.3 -2.6l-2.8 .6l5.1 -5.2Z" class="g3_336"/>
<path d="M319.1 584.7l-1 7.2l-1.3 -2.6l-2.8 .6l5.1 -5.2Z" class="g2_336"/>
<path d="M326.4 571.5l6.5 6.5l6.5 -6.5l3.3 3.2l-6.6 6.5l6.6 6.6l-3.3 3.2l-6.5 -6.5l-6.5 6.5l-3.3 -3.2l6.5 -6.6l-6.5 -6.5l3.3 -3.2Z" class="g3_336"/>
<path d="M326.4 571.5l6.5 6.5l6.5 -6.5l3.3 3.2l-6.6 6.5l6.6 6.6l-3.3 3.2l-6.5 -6.5l-6.5 6.5l-3.3 -3.2l6.5 -6.6l-6.5 -6.5l3.3 -3.2Z" class="g4_336"/>
<path d="M356.2 582.9l27.4 28.4" class="g2_336"/>
<path d="M356.9 581.3c0 .3 -.1 .6 -.2 .9c-.1 .3 -.3 .5 -.5 .7c-.2 .2 -.4 .4 -.7 .5c-.3 .1 -.6 .2 -.9 .2c-.3 0 -.6 -.1 -.9 -.2c-.2 -.1 -.5 -.3 -.7 -.5c-.2 -.2 -.4 -.4 -.5 -.7c-.1 -.3 -.2 -.6 -.2 -.9c0 -.3 .1 -.6 .2 -.9c.1 -.3 .3 -.5 .5 -.7c.2 -.2 .5 -.4 .7 -.5c.3 -.1 .6 -.2 .9 -.2c.3 0 .6 .1 .9 .2c.3 .1 .5 .3 .7 .5c.2 .2 .4 .4 .5 .7c.1 .3 .2 .6 .2 .9Z" class="g3_336"/>
<path d="M356.9 581.3c0 .3 -.1 .6 -.2 .9c-.1 .3 -.3 .5 -.5 .7c-.2 .2 -.4 .4 -.7 .5c-.3 .1 -.6 .2 -.9 .2c-.3 0 -.6 -.1 -.9 -.2c-.2 -.1 -.5 -.3 -.7 -.5c-.2 -.2 -.4 -.4 -.5 -.7c-.1 -.3 -.2 -.6 -.2 -.9c0 -.3 .1 -.6 .2 -.9c.1 -.3 .3 -.5 .5 -.7c.2 -.2 .5 -.4 .7 -.5c.3 -.1 .6 -.2 .9 -.2c.3 0 .6 .1 .9 .2c.3 .1 .5 .3 .7 .5c.2 .2 .4 .4 .5 .7c.1 .3 .2 .6 .2 .9Z" class="g2_336"/>
<path d="M387.2 615l-6.4 -3.4l2.8 -.3l.5 -2.9l3.1 6.6Z" class="g3_336"/>
<path d="M387.2 615l-6.4 -3.4l2.8 -.3l.5 -2.9l3.1 6.6Zm3.4 -.9l27.2 -26.3" class="g2_336"/>
<path d="M391.3 615.7c0 .3 -.1 .6 -.2 .8c-.1 .3 -.3 .6 -.5 .8c-.2 .2 -.5 .4 -.7 .5c-.3 .1 -.6 .2 -.9 .2c-.3 0 -.6 -.1 -.9 -.2c-.3 -.1 -.5 -.3 -.7 -.5c-.2 -.2 -.4 -.5 -.5 -.8c-.1 -.2 -.2 -.5 -.2 -.8c0 -.3 .1 -.6 .2 -.9c.1 -.3 .3 -.5 .5 -.8c.2 -.2 .4 -.3 .7 -.4c.3 -.2 .6 -.2 .9 -.2c.3 0 .6 0 .9 .2c.2 .1 .5 .2 .7 .4c.2 .3 .4 .5 .5 .8c.1 .3 .2 .6 .2 .9Z" class="g3_336"/>
<path d="M391.3 615.7c0 .3 -.1 .6 -.2 .8c-.1 .3 -.3 .6 -.5 .8c-.2 .2 -.5 .4 -.7 .5c-.3 .1 -.6 .2 -.9 .2c-.3 0 -.6 -.1 -.9 -.2c-.3 -.1 -.5 -.3 -.7 -.5c-.2 -.2 -.4 -.5 -.5 -.8c-.1 -.2 -.2 -.5 -.2 -.8c0 -.3 .1 -.6 .2 -.9c.1 -.3 .3 -.5 .5 -.8c.2 -.2 .4 -.3 .7 -.4c.3 -.2 .6 -.2 .9 -.2c.3 0 .6 0 .9 .2c.2 .1 .5 .2 .7 .4c.2 .3 .4 .5 .5 .8c.1 .3 .2 .6 .2 .9Z" class="g2_336"/>
<path d="M421.5 584.2l-3.3 6.4l-.4 -2.8l-2.8 -.4l6.5 -3.2Z" class="g3_336"/>
<path d="M421.5 584.2l-3.3 6.4l-.4 -2.8l-2.8 -.4l6.5 -3.2Z" class="g2_336"/>
<path d="M349.1 581.3l292 1.1" class="g1_336"/>
<path d="M424.4 584.5l29.9 59.8" class="g2_336"/>
<path d="M425.7 582.4c0 .3 -.1 .6 -.2 .9c-.1 .3 -.3 .5 -.5 .8c-.2 .2 -.5 .3 -.8 .5c-.2 .1 -.5 .1 -.8 .1c-.3 0 -.6 0 -.9 -.1c-.3 -.2 -.5 -.3 -.8 -.5c-.2 -.3 -.3 -.5 -.5 -.8c-.1 -.3 -.1 -.6 -.1 -.9c0 -.3 0 -.6 .1 -.8c.2 -.3 .3 -.6 .5 -.8c.3 -.2 .5 -.4 .8 -.5c.3 -.1 .6 -.2 .9 -.2c.3 0 .6 .1 .8 .2c.3 .1 .6 .3 .8 .5c.2 .2 .4 .5 .5 .8c.1 .2 .2 .5 .2 .8Z" class="g3_336"/>
<path d="M425.7 582.4c0 .3 -.1 .6 -.2 .9c-.1 .3 -.3 .5 -.5 .8c-.2 .2 -.5 .3 -.8 .5c-.2 .1 -.5 .1 -.8 .1c-.3 0 -.6 0 -.9 -.1c-.3 -.2 -.5 -.3 -.8 -.5c-.2 -.3 -.3 -.5 -.5 -.8c-.1 -.3 -.1 -.6 -.1 -.9c0 -.3 0 -.6 .1 -.8c.2 -.3 .3 -.6 .5 -.8c.3 -.2 .5 -.4 .8 -.5c.3 -.1 .6 -.2 .9 -.2c.3 0 .6 .1 .8 .2c.3 .1 .6 .3 .8 .5c.2 .2 .4 .5 .5 .8c.1 .2 .2 .5 .2 .8Z" class="g2_336"/>
<path d="M456.6 648.9l-5.1 -5.1l2.8 .5l1.3 -2.6l1 7.2Z" class="g3_336"/>
<path d="M456.6 648.9l-5.1 -5.1l2.8 .5l1.3 -2.6l1 7.2Zm2.2 .2l29.9 -59.8" class="g2_336"/>
<path d="M460 651.2c0 .3 0 .6 -.1 .9c-.2 .2 -.3 .5 -.5 .7c-.3 .2 -.5 .4 -.8 .5c-.3 .1 -.6 .2 -.9 .2c-.3 0 -.6 -.1 -.8 -.2c-.3 -.1 -.6 -.3 -.8 -.5c-.2 -.2 -.4 -.5 -.5 -.7c-.1 -.3 -.2 -.6 -.2 -.9c0 -.3 .1 -.6 .2 -.9c.1 -.3 .3 -.5 .5 -.7c.2 -.2 .5 -.4 .8 -.5c.2 -.1 .5 -.2 .8 -.2c.3 0 .6 .1 .9 .2c.3 .1 .5 .3 .8 .5c.2 .2 .3 .4 .5 .7c.1 .3 .1 .6 .1 .9Z" class="g3_336"/>
<path d="M460 651.2c0 .3 0 .6 -.1 .9c-.2 .2 -.3 .5 -.5 .7c-.3 .2 -.5 .4 -.8 .5c-.3 .1 -.6 .2 -.9 .2c-.3 0 -.6 -.1 -.8 -.2c-.3 -.1 -.6 -.3 -.8 -.5c-.2 -.2 -.4 -.5 -.5 -.7c-.1 -.3 -.2 -.6 -.2 -.9c0 -.3 .1 -.6 .2 -.9c.1 -.3 .3 -.5 .5 -.7c.2 -.2 .5 -.4 .8 -.5c.2 -.1 .5 -.2 .8 -.2c.3 0 .6 .1 .9 .2c.3 .1 .5 .3 .8 .5c.2 .2 .3 .4 .5 .7c.1 .3 .1 .6 .1 .9Z" class="g2_336"/>
<path d="M491 584.7l-1.1 7.2l-1.2 -2.6l-2.9 .6l5.2 -5.2Z" class="g3_336"/>
<path d="M491 584.7l-1.1 7.2l-1.2 -2.6l-2.9 .6l5.2 -5.2Zm71.5 -.6l27.3 27.3" class="g2_336"/>
<path d="M563.2 582.4c0 .3 -.1 .6 -.2 .9c-.1 .3 -.3 .5 -.5 .8c-.2 .2 -.5 .3 -.8 .5c-.2 .1 -.5 .1 -.8 .1c-.3 0 -.6 0 -.9 -.1c-.3 -.2 -.5 -.3 -.8 -.5c-.2 -.3 -.3 -.5 -.5 -.8c-.1 -.3 -.1 -.6 -.1 -.9c0 -.3 0 -.6 .1 -.8c.2 -.3 .3 -.6 .5 -.8c.3 -.2 .5 -.4 .8 -.5c.3 -.1 .6 -.2 .9 -.2c.3 0 .6 .1 .8 .2c.3 .1 .6 .3 .8 .5c.2 .2 .4 .5 .5 .8c.1 .2 .2 .5 .2 .8Z" class="g3_336"/>
<path d="M563.2 582.4c0 .3 -.1 .6 -.2 .9c-.1 .3 -.3 .5 -.5 .8c-.2 .2 -.5 .3 -.8 .5c-.2 .1 -.5 .1 -.8 .1c-.3 0 -.6 0 -.9 -.1c-.3 -.2 -.5 -.3 -.8 -.5c-.2 -.3 -.3 -.5 -.5 -.8c-.1 -.3 -.1 -.6 -.1 -.9c0 -.3 0 -.6 .1 -.8c.2 -.3 .3 -.6 .5 -.8c.3 -.2 .5 -.4 .8 -.5c.3 -.1 .6 -.2 .9 -.2c.3 0 .6 .1 .8 .2c.3 .1 .6 .3 .8 .5c.2 .2 .4 .5 .5 .8c.1 .2 .2 .5 .2 .8Z" class="g2_336"/>
<path d="M593.4 615l-6.5 -3.2l2.9 -.4l.4 -2.9l3.2 6.5Z" class="g3_336"/>
<path d="M593.4 615l-6.5 -3.2l2.9 -.4l.4 -2.9l3.2 6.5Zm3.5 .2l27.3 -27.3" class="g2_336"/>
<path d="M597.5 616.8c0 .3 0 .6 -.1 .9c-.2 .3 -.3 .5 -.5 .7c-.3 .2 -.5 .4 -.8 .5c-.3 .1 -.6 .2 -.9 .2c-.3 0 -.6 -.1 -.8 -.2c-.3 -.1 -.6 -.3 -.8 -.5c-.2 -.2 -.4 -.4 -.5 -.7c-.1 -.3 -.2 -.6 -.2 -.9c0 -.3 .1 -.6 .2 -.9c.1 -.2 .3 -.5 .5 -.7c.2 -.2 .5 -.4 .8 -.5c.2 -.1 .5 -.2 .8 -.2c.3 0 .6 .1 .9 .2c.3 .1 .5 .3 .8 .5c.2 .2 .3 .5 .5 .7c.1 .3 .1 .6 .1 .9Z" class="g3_336"/>
<path d="M597.5 616.8c0 .3 0 .6 -.1 .9c-.2 .3 -.3 .5 -.5 .7c-.3 .2 -.5 .4 -.8 .5c-.3 .1 -.6 .2 -.9 .2c-.3 0 -.6 -.1 -.8 -.2c-.3 -.1 -.6 -.3 -.8 -.5c-.2 -.2 -.4 -.4 -.5 -.7c-.1 -.3 -.2 -.6 -.2 -.9c0 -.3 .1 -.6 .2 -.9c.1 -.2 .3 -.5 .5 -.7c.2 -.2 .5 -.4 .8 -.5c.2 -.1 .5 -.2 .8 -.2c.3 0 .6 .1 .9 .2c.3 .1 .5 .3 .8 .5c.2 .2 .3 .5 .5 .7c.1 .3 .1 .6 .1 .9Z" class="g2_336"/>
<path d="M627.8 584.2l-3.2 6.5l-.4 -2.8l-2.9 -.4l6.5 -3.3Z" class="g3_336"/>
<path d="M627.8 584.2l-3.2 6.5l-.4 -2.8l-2.9 -.4l6.5 -3.3Z" class="g2_336"/>
</g>
</svg>