<?xml version="1.0" encoding="UTF-8" standalone="no"?>
<!DOCTYPE svg PUBLIC "-//W3C//DTD SVG 1.1//EN"
"http://www.w3.org/Graphics/SVG/1.1/DTD/svg11.dtd">
<svg viewBox="0 0 714 1017" version="1.1" xmlns="http://www.w3.org/2000/svg" xmlns:xlink="http://www.w3.org/1999/xlink">
<defs>
<clipPath id="c0_307"><path d="M123.3 832.5V672.3H569.1V832.5Z"/></clipPath>
<clipPath id="c1_307"><path d="M123.3 832.5V672.1H571V832.5Z"/></clipPath>
<style type="text/css"><![CDATA[
.g0_307{
fill: #FFF;
}
.g1_307{
fill: none;
stroke: #000;
stroke-width: 1.145;
stroke-miterlimit: 10;
}
.g2_307{
fill: #000;
}
.g3_307{
fill: none;
stroke: #000;
stroke-width: 2.291;
stroke-miterlimit: 10;
}
]]></style>
</defs>
<path d="M0 1017.7H717.2V-3.7H0V1017.7Z" class="g0_307"/>
<g clip-path="url(#c1_307)">
<path clip-path="url(#c0_307)" d="M123.3 672.3H569.1V832.7H123.3V672.3Z" class="g0_307"/>
<path d="M146.8 684.3H552" class="g1_307"/>
<path d="M558 684.3l-8 2.7l2 -2.7l-2 -2.7l8 2.7Z" class="g2_307"/>
<path d="M558 684.3l-8 2.7l2 -2.7l-2 -2.7l8 2.7ZM146.8 730.1H552" class="g1_307"/>
<path d="M558 730.1l-8 2.7l2 -2.7l-2 -2.6l8 2.6Z" class="g2_307"/>
<path d="M558 730.1l-8 2.7l2 -2.7l-2 -2.6l8 2.6ZM146.8 776H552" class="g1_307"/>
<path d="M558 776l-8 2.7l2 -2.7l-2 -2.7l8 2.7Z" class="g2_307"/>
<path d="M558 776l-8 2.7l2 -2.7l-2 -2.7l8 2.7ZM146.8 821.8H552" class="g1_307"/>
<path d="M558 821.8l-8 2.7l2 -2.7l-2 -2.7l8 2.7Z" class="g2_307"/>
<path d="M558 821.8l-8 2.7l2 -2.7l-2 -2.7l8 2.7Z" class="g1_307"/>
<path d="M195.1 686.7l36.7 36.8" class="g3_307"/>
<path d="M196.1 684.3c0 .5 -.1 .9 -.3 1.3c-.1 .5 -.4 .8 -.7 1.1c-.3 .4 -.7 .6 -1.1 .8c-.4 .2 -.9 .3 -1.3 .3c-.5 0 -.9 -.1 -1.4 -.3c-.4 -.2 -.7 -.4 -1.1 -.8c-.3 -.3 -.5 -.6 -.7 -1.1c-.2 -.4 -.3 -.8 -.3 -1.3c0 -.4 .1 -.9 .3 -1.3c.2 -.4 .4 -.8 .7 -1.1c.4 -.3 .7 -.6 1.1 -.8c.5 -.1 .9 -.2 1.4 -.2c.4 0 .9 .1 1.3 .2c.4 .2 .8 .5 1.1 .8c.3 .3 .6 .7 .7 1.1c.2 .4 .3 .9 .3 1.3Z" class="g2_307"/>
<path d="M196.1 684.3c0 .5 -.1 .9 -.3 1.3c-.1 .5 -.4 .8 -.7 1.1c-.3 .4 -.7 .6 -1.1 .8c-.4 .2 -.9 .3 -1.3 .3c-.5 0 -.9 -.1 -1.4 -.3c-.4 -.2 -.7 -.4 -1.1 -.8c-.3 -.3 -.5 -.6 -.7 -1.1c-.2 -.4 -.3 -.8 -.3 -1.3c0 -.4 .1 -.9 .3 -1.3c.2 -.4 .4 -.8 .7 -1.1c.4 -.3 .7 -.6 1.1 -.8c.5 -.1 .9 -.2 1.4 -.2c.4 0 .9 .1 1.3 .2c.4 .2 .8 .5 1.1 .8c.3 .3 .6 .7 .7 1.1c.2 .4 .3 .9 .3 1.3Z" class="g3_307"/>
<path d="M236.7 728.3L228 724l3.8 -.5l.6 -3.8l4.3 8.6Z" class="g2_307"/>
<path d="M236.7 728.3L228 724l3.8 -.5l.6 -3.8l4.3 8.6Z" class="g3_307"/>
<path d="M201.8 699.2h27.5v17.2H201.8V699.2Z" class="g0_307"/>
<path d="M285.4 687.6l41.8 125.3" class="g3_307"/>
<path d="M287.8 684.3c0 .5 -.1 .9 -.3 1.3c-.2 .5 -.4 .8 -.7 1.1c-.4 .4 -.7 .6 -1.2 .8c-.4 .2 -.8 .3 -1.3 .3c-.4 0 -.9 -.1 -1.3 -.3c-.4 -.2 -.8 -.4 -1.1 -.8c-.3 -.3 -.6 -.6 -.7 -1.1c-.2 -.4 -.3 -.8 -.3 -1.3c0 -.4 .1 -.9 .3 -1.3c.1 -.4 .4 -.8 .7 -1.1c.3 -.3 .7 -.6 1.1 -.8c.4 -.1 .9 -.2 1.3 -.2c.5 0 .9 .1 1.3 .2c.5 .2 .8 .5 1.2 .8c.3 .3 .5 .7 .7 1.1c.2 .4 .3 .9 .3 1.3Z" class="g2_307"/>
<path d="M287.8 684.3c0 .5 -.1 .9 -.3 1.3c-.2 .5 -.4 .8 -.7 1.1c-.4 .4 -.7 .6 -1.2 .8c-.4 .2 -.8 .3 -1.3 .3c-.4 0 -.9 -.1 -1.3 -.3c-.4 -.2 -.8 -.4 -1.1 -.8c-.3 -.3 -.6 -.6 -.7 -1.1c-.2 -.4 -.3 -.8 -.3 -1.3c0 -.4 .1 -.9 .3 -1.3c.1 -.4 .4 -.8 .7 -1.1c.3 -.3 .7 -.6 1.1 -.8c.4 -.1 .9 -.2 1.3 -.2c.5 0 .9 .1 1.3 .2c.5 .2 .8 .5 1.2 .8c.3 .3 .5 .7 .7 1.1c.2 .4 .3 .9 .3 1.3Z" class="g3_307"/>
<path d="M329.3 819.4l-5.7 -7.7l3.6 1.2l2.1 -3.2v9.7Z" class="g2_307"/>
<path d="M329.3 819.4l-5.7 -7.7l3.6 1.2l2.1 -3.2v9.7Zm-43.4 -132l40 80.1" class="g3_307"/>
<path d="M287.8 684.3c0 .5 -.1 .9 -.3 1.3c-.2 .5 -.4 .8 -.7 1.1c-.4 .4 -.7 .6 -1.2 .8c-.4 .2 -.8 .3 -1.3 .3c-.4 0 -.9 -.1 -1.3 -.3c-.4 -.2 -.8 -.4 -1.1 -.8c-.3 -.3 -.6 -.6 -.7 -1.1c-.2 -.4 -.3 -.8 -.3 -1.3c0 -.4 .1 -.9 .3 -1.3c.1 -.4 .4 -.8 .7 -1.1c.3 -.3 .7 -.6 1.1 -.8c.4 -.1 .9 -.2 1.3 -.2c.5 0 .9 .1 1.3 .2c.5 .2 .8 .5 1.2 .8c.3 .3 .5 .7 .7 1.1c.2 .4 .3 .9 .3 1.3Z" class="g2_307"/>
<path d="M287.8 684.3c0 .5 -.1 .9 -.3 1.3c-.2 .5 -.4 .8 -.7 1.1c-.4 .4 -.7 .6 -1.2 .8c-.4 .2 -.8 .3 -1.3 .3c-.4 0 -.9 -.1 -1.3 -.3c-.4 -.2 -.8 -.4 -1.1 -.8c-.3 -.3 -.6 -.6 -.7 -1.1c-.2 -.4 -.3 -.8 -.3 -1.3c0 -.4 .1 -.9 .3 -1.3c.1 -.4 .4 -.8 .7 -1.1c.3 -.3 .7 -.6 1.1 -.8c.4 -.1 .9 -.2 1.3 -.2c.5 0 .9 .1 1.3 .2c.5 .2 .8 .5 1.2 .8c.3 .3 .5 .7 .7 1.1c.2 .4 .3 .9 .3 1.3Z" class="g3_307"/>
<path d="M329 773.7l-6.8 -6.8l3.7 .6l1.8 -3.4l1.3 9.6Z" class="g2_307"/>
<path d="M329 773.7l-6.8 -6.8l3.7 .6l1.8 -3.4l1.3 9.6Z" class="g3_307"/>
<path d="M269.4 699.2h66.5v17.2H269.4V699.2Z" class="g0_307"/>
<path d="M332.6 773.6l36.7 -36.8" class="g3_307"/>
<path d="M333.6 776c0 .4 -.1 .9 -.3 1.3c-.1 .4 -.4 .8 -.7 1.1c-.3 .3 -.7 .6 -1.1 .8c-.4 .1 -.9 .2 -1.3 .2c-.5 0 -.9 -.1 -1.4 -.2c-.4 -.2 -.7 -.5 -1.1 -.8c-.3 -.3 -.5 -.7 -.7 -1.1c-.2 -.4 -.3 -.9 -.3 -1.3c0 -.5 .1 -.9 .3 -1.3c.2 -.5 .4 -.8 .7 -1.1c.4 -.4 .7 -.6 1.1 -.8c.5 -.2 .9 -.3 1.4 -.3c.4 0 .9 .1 1.3 .3c.4 .2 .8 .4 1.1 .8c.3 .3 .6 .6 .7 1.1c.2 .4 .3 .8 .3 1.3Z" class="g2_307"/>
<path d="M333.6 776c0 .4 -.1 .9 -.3 1.3c-.1 .4 -.4 .8 -.7 1.1c-.3 .3 -.7 .6 -1.1 .8c-.4 .1 -.9 .2 -1.3 .2c-.5 0 -.9 -.1 -1.4 -.2c-.4 -.2 -.7 -.5 -1.1 -.8c-.3 -.3 -.5 -.7 -.7 -1.1c-.2 -.4 -.3 -.9 -.3 -1.3c0 -.5 .1 -.9 .3 -1.3c.2 -.5 .4 -.8 .7 -1.1c.4 -.4 .7 -.6 1.1 -.8c.5 -.2 .9 -.3 1.4 -.3c.4 0 .9 .1 1.3 .3c.4 .2 .8 .4 1.1 .8c.3 .3 .6 .6 .7 1.1c.2 .4 .3 .8 .3 1.3Z" class="g3_307"/>
<path d="M374.2 732l-4.3 8.6l-.6 -3.8l-3.8 -.5l8.7 -4.3Z" class="g2_307"/>
<path d="M374.2 732l-4.3 8.6l-.6 -3.8l-3.8 -.5l8.7 -4.3Z" class="g3_307"/>
<path d="M339.3 746.2h27.5v17.2H339.3V746.2Z" class="g0_307"/>
<path d="M378.4 732.6l36.8 36.7" class="g3_307"/>
<path d="M379.4 730.1c0 .5 -.1 .9 -.2 1.4c-.2 .4 -.5 .8 -.8 1.1c-.3 .3 -.7 .6 -1.1 .7c-.4 .2 -.8 .3 -1.3 .3c-.5 0 -.9 -.1 -1.3 -.3c-.4 -.1 -.8 -.4 -1.1 -.7c-.4 -.3 -.6 -.7 -.8 -1.1c-.2 -.5 -.2 -.9 -.2 -1.4c0 -.4 0 -.8 .2 -1.3c.2 -.4 .4 -.8 .8 -1.1c.3 -.3 .7 -.6 1.1 -.7c.4 -.2 .8 -.3 1.3 -.3c.5 0 .9 .1 1.3 .3c.4 .1 .8 .4 1.1 .7c.3 .3 .6 .7 .8 1.1c.1 .5 .2 .9 .2 1.3Z" class="g2_307"/>
<path d="M379.4 730.1c0 .5 -.1 .9 -.2 1.4c-.2 .4 -.5 .8 -.8 1.1c-.3 .3 -.7 .6 -1.1 .7c-.4 .2 -.8 .3 -1.3 .3c-.5 0 -.9 -.1 -1.3 -.3c-.4 -.1 -.8 -.4 -1.1 -.7c-.4 -.3 -.6 -.7 -.8 -1.1c-.2 -.5 -.2 -.9 -.2 -1.4c0 -.4 0 -.8 .2 -1.3c.2 -.4 .4 -.8 .8 -1.1c.3 -.3 .7 -.6 1.1 -.7c.4 -.2 .8 -.3 1.3 -.3c.5 0 .9 .1 1.3 .3c.4 .1 .8 .4 1.1 .7c.3 .3 .6 .7 .8 1.1c.1 .5 .2 .9 .2 1.3Z" class="g3_307"/>
<path d="M420 774.2l-8.6 -4.3l3.8 -.6l.5 -3.8l4.3 8.7Z" class="g2_307"/>
<path d="M420 774.2l-8.6 -4.3l3.8 -.6l.5 -3.8l4.3 8.7Z" class="g3_307"/>
<path d="M387.5 745h22.9v17.2H387.5V745Z" class="g0_307"/>
<path d="M423.4 772.9l40 -80.1" class="g3_307"/>
<path d="M425.3 776c0 .4 -.1 .9 -.3 1.3c-.2 .4 -.4 .8 -.7 1.1c-.4 .3 -.7 .6 -1.2 .8c-.4 .1 -.8 .2 -1.3 .2c-.4 0 -.9 -.1 -1.3 -.2c-.4 -.2 -.8 -.5 -1.1 -.8c-.3 -.3 -.6 -.7 -.7 -1.1c-.2 -.4 -.3 -.9 -.3 -1.3c0 -.5 .1 -.9 .3 -1.3c.1 -.5 .4 -.8 .7 -1.1c.3 -.4 .7 -.6 1.1 -.8c.4 -.2 .9 -.3 1.3 -.3c.5 0 .9 .1 1.3 .3c.5 .2 .8 .4 1.2 .8c.3 .3 .5 .6 .7 1.1c.2 .4 .3 .8 .3 1.3Z" class="g2_307"/>
<path d="M425.3 776c0 .4 -.1 .9 -.3 1.3c-.2 .4 -.4 .8 -.7 1.1c-.4 .3 -.7 .6 -1.2 .8c-.4 .1 -.8 .2 -1.3 .2c-.4 0 -.9 -.1 -1.3 -.2c-.4 -.2 -.8 -.5 -1.1 -.8c-.3 -.3 -.6 -.7 -.7 -1.1c-.2 -.4 -.3 -.9 -.3 -1.3c0 -.5 .1 -.9 .3 -1.3c.1 -.5 .4 -.8 .7 -1.1c.3 -.4 .7 -.6 1.1 -.8c.4 -.2 .9 -.3 1.3 -.3c.5 0 .9 .1 1.3 .3c.5 .2 .8 .4 1.2 .8c.3 .3 .5 .6 .7 1.1c.2 .4 .3 .8 .3 1.3Z" class="g3_307"/>
<path d="M466.5 686.6l-1.3 9.6l-1.8 -3.4l-3.7 .6l6.8 -6.8Z" class="g2_307"/>
<path d="M466.5 686.6l-1.3 9.6l-1.8 -3.4l-3.7 .6l6.8 -6.8Z" class="g3_307"/>
<path d="M439 700.4h34.4v17.1H439V700.4Z" class="g0_307"/>
</g>
</svg>