<?xml version="1.0" encoding="UTF-8" standalone="no"?>
<!DOCTYPE svg PUBLIC "-//W3C//DTD SVG 1.1//EN"
"http://www.w3.org/Graphics/SVG/1.1/DTD/svg11.dtd">
<svg viewBox="0 0 714 1017" version="1.1" xmlns="http://www.w3.org/2000/svg" xmlns:xlink="http://www.w3.org/1999/xlink">
<defs>
<clipPath id="c0_312"><path d="M114.6 767.1V525.8H621.8V767.1Z"/></clipPath>
<clipPath id="c1_312"><path d="M114.6 767.1V525.7H621.8V767.1Z"/></clipPath>
<style type="text/css"><![CDATA[
.g0_312{
fill: #FFF;
}
.g1_312{
fill: none;
stroke: #000;
stroke-width: 1.145;
stroke-miterlimit: 10;
}
.g2_312{
fill: #000;
}
.g3_312{
fill: none;
stroke: #000;
stroke-width: 2.291;
stroke-miterlimit: 10;
}
]]></style>
</defs>
<path d="M0 1017.7H717.2V-3.7H0V1017.7Z" class="g0_312"/>
<g clip-path="url(#c1_312)">
<path clip-path="url(#c0_312)" d="M114.6 525.8H622.2V767.6H114.6V525.8Z" class="g0_312"/>
<path d="M185 675.4H322.5v45.8H185V675.4Z" class="g0_312"/>
<path d="M185 675.4H322.5v45.8H185V675.4Z" class="g1_312"/>
<path d="M414.2 675.4H551.7v45.8H414.2V675.4Z" class="g0_312"/>
<path d="M414.2 675.4H551.7v45.8H414.2V675.4Z" class="g1_312"/>
<path d="M201.6 618.1H305.9c.7 0 1.4 .1 2 .4c.6 .2 1.2 .6 1.7 1.1c.4 .5 .8 1 1.1 1.7c.2 .6 .4 1.2 .4 1.9v24.1c0 .7 -.2 1.3 -.4 2c-.3 .6 -.7 1.2 -1.1 1.6c-.5 .5 -1.1 .9 -1.7 1.2c-.6 .2 -1.3 .3 -2 .3H201.6c-.6 0 -1.3 -.1 -1.9 -.3c-.7 -.3 -1.2 -.7 -1.7 -1.2c-.5 -.4 -.9 -1 -1.1 -1.6c-.3 -.7 -.4 -1.3 -.4 -2V623.2c0 -.7 .1 -1.3 .4 -1.9c.2 -.7 .6 -1.2 1.1 -1.7c.5 -.5 1 -.9 1.7 -1.1c.6 -.3 1.3 -.4 1.9 -.4Z" class="g0_312"/>
<path d="M201.6 618.1H305.9c.7 0 1.4 .1 2 .4c.6 .2 1.2 .6 1.7 1.1c.4 .5 .8 1 1.1 1.7c.2 .6 .4 1.2 .4 1.9v24.1c0 .7 -.2 1.3 -.4 2c-.3 .6 -.7 1.2 -1.1 1.6c-.5 .5 -1.1 .9 -1.7 1.2c-.6 .2 -1.3 .3 -2 .3H201.6c-.6 0 -1.3 -.1 -1.9 -.3c-.7 -.3 -1.2 -.7 -1.7 -1.2c-.5 -.4 -.9 -1 -1.1 -1.6c-.3 -.7 -.4 -1.3 -.4 -2V623.2c0 -.7 .1 -1.3 .4 -1.9c.2 -.7 .6 -1.2 1.1 -1.7c.5 -.5 1 -.9 1.7 -1.1c.6 -.3 1.3 -.4 1.9 -.4Z" class="g1_312"/>
<path d="M430.8 618.1H535.1c.7 0 1.3 .1 2 .4c.6 .2 1.1 .6 1.6 1.1c.5 .5 .9 1 1.1 1.7c.3 .6 .4 1.2 .4 1.9v24.1c0 .7 -.1 1.3 -.4 2c-.2 .6 -.6 1.2 -1.1 1.6c-.5 .5 -1 .9 -1.6 1.2c-.7 .2 -1.3 .3 -2 .3H430.8c-.7 0 -1.3 -.1 -2 -.3c-.6 -.3 -1.2 -.7 -1.6 -1.2c-.5 -.4 -.9 -1 -1.2 -1.6c-.2 -.7 -.3 -1.3 -.3 -2V623.2c0 -.7 .1 -1.3 .3 -1.9c.3 -.7 .7 -1.2 1.2 -1.7c.4 -.5 1 -.9 1.6 -1.1c.7 -.3 1.3 -.4 2 -.4Z" class="g0_312"/>
<path d="M430.8 618.1H535.1c.7 0 1.3 .1 2 .4c.6 .2 1.1 .6 1.6 1.1c.5 .5 .9 1 1.1 1.7c.3 .6 .4 1.2 .4 1.9v24.1c0 .7 -.1 1.3 -.4 2c-.2 .6 -.6 1.2 -1.1 1.6c-.5 .5 -1 .9 -1.6 1.2c-.7 .2 -1.3 .3 -2 .3H430.8c-.7 0 -1.3 -.1 -2 -.3c-.6 -.3 -1.2 -.7 -1.6 -1.2c-.5 -.4 -.9 -1 -1.2 -1.6c-.2 -.7 -.3 -1.3 -.3 -2V623.2c0 -.7 .1 -1.3 .3 -1.9c.3 -.7 .7 -1.2 1.2 -1.7c.4 -.5 1 -.9 1.6 -1.1c.7 -.3 1.3 -.4 2 -.4Z" class="g1_312"/>
<path d="M316.2 526.4H420.5c.7 0 1.3 .1 2 .4c.6 .3 1.2 .6 1.6 1.1c.5 .5 .9 1.1 1.2 1.7c.2 .6 .4 1.3 .4 2v24c0 .7 -.2 1.4 -.4 2c-.3 .6 -.7 1.2 -1.2 1.7c-.4 .5 -1 .8 -1.6 1.1c-.7 .2 -1.3 .4 -2 .4H316.2c-.7 0 -1.3 -.2 -1.9 -.4c-.7 -.3 -1.2 -.6 -1.7 -1.1c-.5 -.5 -.9 -1.1 -1.1 -1.7c-.3 -.6 -.4 -1.3 -.4 -2v-24c0 -.7 .1 -1.4 .4 -2c.2 -.6 .6 -1.2 1.1 -1.7c.5 -.5 1 -.8 1.7 -1.1c.6 -.3 1.2 -.4 1.9 -.4Z" class="g0_312"/>
<path d="M316.2 526.4H420.5c.7 0 1.3 .1 2 .4c.6 .3 1.2 .6 1.6 1.1c.5 .5 .9 1.1 1.2 1.7c.2 .6 .4 1.3 .4 2v24c0 .7 -.2 1.4 -.4 2c-.3 .6 -.7 1.2 -1.2 1.7c-.4 .5 -1 .8 -1.6 1.1c-.7 .2 -1.3 .4 -2 .4H316.2c-.7 0 -1.3 -.2 -1.9 -.4c-.7 -.3 -1.2 -.6 -1.7 -1.1c-.5 -.5 -.9 -1.1 -1.1 -1.7c-.3 -.6 -.4 -1.3 -.4 -2v-24c0 -.7 .1 -1.4 .4 -2c.2 -.6 .6 -1.2 1.1 -1.7c.5 -.5 1 -.8 1.7 -1.1c.6 -.3 1.2 -.4 1.9 -.4Zm-62.4 149v-23m229.1 23v-23M311.1 635.3H425.7M253.8 618.1l85.9 -57.3m143.2 57.3L397 560.8" class="g1_312"/>
<path d="M116.3 594h6.9v2.3h-6.9M130 594h6.9v2.3H130M143.8 594h6.9v2.3h-6.9M157.5 594h6.9v2.3h-6.9M171.3 594h6.9v2.3h-6.9M185 594h6.9v2.3H185M198.8 594h6.9v2.3h-6.9M212.5 594h6.9v2.3h-6.9M226.3 594h6.9v2.3h-6.9M240 594h6.9v2.3H240M253.8 594h6.9v2.3h-6.9M267.5 594h6.9v2.3h-6.9M281.3 594h6.9v2.3h-6.9M295 594h6.9v2.3H295M308.8 594h6.9v2.3h-6.9M322.5 594h6.9v2.3h-6.9M336.3 594h6.9v2.3h-6.9M350 594h6.9v2.3H350M363.8 594h6.9v2.3h-6.9M377.5 594h6.9v2.3h-6.9M391.3 594h6.9v2.3h-6.9M405 594h6.9v2.3H405M418.8 594h6.9v2.3h-6.9M432.5 594h6.9v2.3h-6.9M446.3 594h6.9v2.3h-6.9M460 594h6.9v2.3H460M473.8 594h6.9v2.3h-6.9M487.5 594h6.9v2.3h-6.9M501.3 594h6.9v2.3h-6.9M515 594h6.9v2.3H515M528.8 594h6.9v2.3h-6.9M542.5 594h6.9v2.3h-6.9M556.3 594h6.9v2.3h-6.9M570 594h6.9v2.3H570M583.8 594h6.9v2.3h-6.9M597.5 594h6.9v2.3h-6.9M611.3 594h6.9v2.3h-6.9Z" class="g2_312"/>
<path d="M369.5 595.2V602h-2.3v-6.8m2.3 13.7v6.9h-2.3v-6.9m2.3 13.8v6.8h-2.3v-6.8m2.3 13.7v6.9h-2.3v-6.9m2.3 13.8V657h-2.3v-6.8m2.3 13.7v6.9h-2.3v-6.9m2.3 13.8v6.8h-2.3v-6.8m2.3 13.7v6.9h-2.3v-6.9m2.3 13.8V712h-2.3v-6.8m2.3 13.7v6.9h-2.3v-6.9m2.3 13.8v6.8h-2.3v-6.8m2.3 13.7v6.9h-2.3v-6.9Z" class="g2_312"/>
<path d="M317.4 704V692.6h73.3v-5.3l28.7 11l-28.7 10.9V704H317.4Z" class="g0_312"/>
<path d="M317.4 704V692.6h73.3v-5.3l28.7 11l-28.7 10.9V704H317.4Z" class="g1_312"/>
<path d="M116.3 682c0 -3.6 10.2 -6.6 22.9 -6.6c6.1 0 11.9 .7 16.2 1.9c4.3 1.3 6.7 3 6.7 4.7v32.5c0 1.8 -2.4 3.5 -6.7 4.7c-4.3 1.3 -10.1 2 -16.2 2c-12.7 0 -22.9 -3 -22.9 -6.7V682Z" class="g0_312"/>
<path d="M116.3 682c0 -3.6 10.2 -6.6 22.9 -6.6c6.1 0 11.9 .7 16.2 1.9c4.3 1.3 6.7 3 6.7 4.7v32.5c0 1.8 -2.4 3.5 -6.7 4.7c-4.3 1.3 -10.1 2 -16.2 2c-12.7 0 -22.9 -3 -22.9 -6.7V682Zm45.8 0c0 1.8 -2.4 3.5 -6.7 4.8c-4.3 1.2 -10.1 1.9 -16.2 1.9c-12.7 0 -22.9 -3 -22.9 -6.7" class="g1_312"/>
<path d="M574.6 682c0 -3.6 10.3 -6.6 22.9 -6.6c6.1 0 11.9 .7 16.2 1.9c4.3 1.3 6.7 3 6.7 4.7v32.5c0 1.8 -2.4 3.5 -6.7 4.7c-4.3 1.3 -10.1 2 -16.2 2c-12.6 0 -22.9 -3 -22.9 -6.7V682Z" class="g0_312"/>
<path d="M574.6 682c0 -3.6 10.3 -6.6 22.9 -6.6c6.1 0 11.9 .7 16.2 1.9c4.3 1.3 6.7 3 6.7 4.7v32.5c0 1.8 -2.4 3.5 -6.7 4.7c-4.3 1.3 -10.1 2 -16.2 2c-12.6 0 -22.9 -3 -22.9 -6.7V682Zm45.8 0c0 1.8 -2.4 3.5 -6.7 4.8c-4.3 1.2 -10.1 1.9 -16.2 1.9c-12.6 0 -22.9 -3 -22.9 -6.7" class="g1_312"/>
<path d="M162.1 698.3H185m389.6 0H551.7" class="g3_312"/>
<path d="M448.6 675.4l-166.2 -23m5.8 23l166.1 -23" class="g1_312"/>
</g>
</svg>