<?xml version="1.0" encoding="UTF-8" standalone="no"?>
<!DOCTYPE svg PUBLIC "-//W3C//DTD SVG 1.1//EN"
"http://www.w3.org/Graphics/SVG/1.1/DTD/svg11.dtd">
<svg viewBox="0 0 714 1017" version="1.1" xmlns="http://www.w3.org/2000/svg" xmlns:xlink="http://www.w3.org/1999/xlink">
<defs>
<clipPath id="c0_168"><path d="M103 775.7V554.6H632.4V775.7Z"/></clipPath>
<clipPath id="c1_168"><path d="M103 776.1V554.5H634.7V776.1Z"/></clipPath>
<style type="text/css"><![CDATA[
.g0_168{
fill: #FFF;
}
.g1_168{
fill: none;
stroke: #000;
stroke-width: 1.145;
stroke-miterlimit: 10;
}
.g2_168{
fill: #333;
}
.g3_168{
fill: #666;
}
.g4_168{
fill: #999;
}
.g5_168{
fill: #CCC;
}
.g6_168{
fill: #000;
}
]]></style>
</defs>
<path d="M0 1017.7H717.2V-3.7H0V1017.7Z" class="g0_168"/>
<g clip-path="url(#c1_168)">
<path clip-path="url(#c0_168)" d="M103 554.6H632.4V775.7H103V554.6Z" class="g0_168"/>
<path d="M206.7 662.9h11.5v45.8H206.7V662.9Z" class="g0_168"/>
<path d="M206.7 662.9h11.5v45.8H206.7V662.9Z" class="g1_168"/>
<path d="M183.8 662.9h11.5v45.8H183.8V662.9Z" class="g2_168"/>
<path d="M183.8 662.9h11.5v45.8H183.8V662.9Z" class="g1_168"/>
<path d="M252.5 662.9H264v45.8H252.5V662.9Z" class="g3_168"/>
<path d="M252.5 662.9H264v45.8H252.5V662.9Z" class="g1_168"/>
<path d="M195.3 662.9h11.4v45.8H195.3V662.9Z" class="g4_168"/>
<path d="M195.3 662.9h11.4v45.8H195.3V662.9Z" class="g1_168"/>
<path d="M172.3 662.9h11.5v45.8H172.3V662.9Z" class="g5_168"/>
<path d="M172.3 662.9h11.5v45.8H172.3V662.9Z" class="g1_168"/>
<path d="M264 662.9h11.5v45.8H264V662.9Z" class="g6_168"/>
<path d="M264 662.9h11.5v45.8H264V662.9Z" class="g1_168"/>
<path d="M241.1 662.9h11.4v45.8H241.1V662.9Z" class="g0_168"/>
<path d="M241.1 662.9h11.4v45.8H241.1V662.9Z" class="g1_168"/>
<path d="M286.9 662.9h11.5v45.8H286.9V662.9Z" class="g2_168"/>
<path d="M286.9 662.9h11.5v45.8H286.9V662.9Z" class="g1_168"/>
<path d="M275.5 662.9h11.4v45.8H275.5V662.9Z" class="g3_168"/>
<path d="M275.5 662.9h11.4v45.8H275.5V662.9Z" class="g1_168"/>
<path d="M321.3 662.9h11.5v45.8H321.3V662.9Z" class="g4_168"/>
<path d="M321.3 662.9h11.5v45.8H321.3V662.9Z" class="g1_168"/>
<path d="M229.6 662.9h11.5v45.8H229.6V662.9Z" class="g5_168"/>
<path d="M229.6 662.9h11.5v45.8H229.6V662.9Z" class="g1_168"/>
<path d="M218.2 662.9h11.4v45.8H218.2V662.9Z" class="g6_168"/>
<path d="M218.2 662.9h11.4v45.8H218.2V662.9Z" class="g1_168"/>
<path d="M298.4 662.9h11.4v45.8H298.4V662.9Z" class="g0_168"/>
<path d="M298.4 662.9h11.4v45.8H298.4V662.9Z" class="g1_168"/>
<path d="M309.8 662.9h11.5v45.8H309.8V662.9Z" class="g2_168"/>
<path d="M309.8 662.9h11.5v45.8H309.8V662.9Z" class="g1_168"/>
<path d="M344.2 662.9h11.5v45.8H344.2V662.9Z" class="g3_168"/>
<path d="M344.2 662.9h11.5v45.8H344.2V662.9Z" class="g1_168"/>
<path d="M367.1 662.9h11.5v45.8H367.1V662.9Z" class="g4_168"/>
<path d="M367.1 662.9h11.5v45.8H367.1V662.9Z" class="g1_168"/>
<path d="M355.7 662.9h11.4v45.8H355.7V662.9Z" class="g5_168"/>
<path d="M355.7 662.9h11.4v45.8H355.7V662.9Z" class="g1_168"/>
<path d="M332.8 662.9h11.4v45.8H332.8V662.9Z" class="g6_168"/>
<path d="M332.8 662.9h11.4v45.8H332.8V662.9ZM264 555.2H516.1v57.3H264V555.2ZM246.8 662.9V650.3c0 -7.7 3.8 -11.5 11.5 -11.5h22.9c7.6 0 11.4 -3.8 11.4 -11.4V614" class="g1_168"/>
<path d="M292.6 608l2.7 8l-2.7 -2l-2.6 2l2.6 -8Z" class="g6_168"/>
<path d="M292.6 608l2.7 8l-2.7 -2l-2.6 2l2.6 -8Zm-80.2 54.9V638.8c0 -7.6 3.9 -11.4 11.5 -11.4h45.8c7.7 0 11.5 -2.3 11.5 -6.7V614" class="g1_168"/>
<path d="M281.2 608l2.7 8l-2.7 -2l-2.7 2l2.7 -8Z" class="g6_168"/>
<path d="M281.2 608l2.7 8l-2.7 -2l-2.7 2l2.7 -8ZM115.1 677c0 -4 7.7 -7.2 17.2 -7.2c4.5 0 8.9 .7 12.1 2.1c3.3 1.3 5.1 3.2 5.1 5.1v19.9c0 4 -7.7 7.2 -17.2 7.2c-9.5 0 -17.2 -3.2 -17.2 -7.2V677Zm34.4 0c0 4 -7.7 7.3 -17.2 7.3c-9.5 0 -17.2 -3.3 -17.2 -7.3m5.7 -104.6h22.9v22.9H120.8V572.4Zm5.7 0v-5.8m5.8 0v5.8m5.7 -5.8v5.8M126.5 601v-5.7m5.8 0V601m5.7 -5.7V601m5.7 -22.9h5.8m0 5.7h-5.8m5.8 5.8h-5.8M115.1 578.1h5.7m0 5.7h-5.7m5.7 5.8h-5.7" class="g1_168"/>
<path d="M103.6 649.7h3.5v1.2h-3.5m6.9 -1.2h3.4v1.2h-3.4m6.9 -1.2h3.4v1.2h-3.4m6.9 -1.2h3.4v1.2h-3.4m6.8 -1.2h3.5v1.2h-3.5m6.9 -1.2h3.4v1.2H138m6.9 -1.2h3.4v1.2h-3.4m6.9 -1.2h3.4v1.2h-3.4m6.8 -1.2h3.5v1.2h-3.5m6.9 -1.2h3.4v1.2h-3.4m6.9 -1.2h3.4v1.2h-3.4m6.9 -1.2h3.4v1.2h-3.4m6.8 -1.2h3.5v1.2h-3.5m6.9 -1.2h3.4v1.2H193m6.9 -1.2h3.4v1.2h-3.4m6.9 -1.2h3.4v1.2h-3.4m6.8 -1.2h3.5v1.2h-3.5m6.9 -1.2h3.4v1.2h-3.4m6.9 -1.2h3.4v1.2h-3.4m6.9 -1.2h3.4v1.2h-3.4m6.8 -1.2h3.5v1.2h-3.5m6.9 -1.2h3.4v1.2H248m6.9 -1.2h3.4v1.2h-3.4m6.9 -1.2h3.4v1.2h-3.4m6.8 -1.2h3.5v1.2h-3.5m6.9 -1.2h3.4v1.2h-3.4m6.9 -1.2h3.4v1.2h-3.4m6.9 -1.2h3.4v1.2h-3.4m6.8 -1.2h3.5v1.2h-3.5m6.9 -1.2h3.4v1.2H303m6.9 -1.2h3.4v1.2h-3.4m6.9 -1.2h3.4v1.2h-3.4m6.8 -1.2h3.5v1.2h-3.5m6.9 -1.2h3.4v1.2h-3.4m6.9 -1.2h3.4v1.2h-3.4m6.9 -1.2h3.4v1.2h-3.4m6.8 -1.2h3.5v1.2h-3.5m6.9 -1.2h3.4v1.2H358m6.9 -1.2h3.4v1.2h-3.4m6.9 -1.2h3.4v1.2h-3.4m6.8 -1.2h3.5v1.2h-3.5m6.9 -1.2h3.4v1.2h-3.4m6.9 -1.2h3.4v1.2h-3.4m6.9 -1.2h3.4v1.2h-3.4m6.8 -1.2h3.5v1.2h-3.5m6.9 -1.2h3.4v1.2H413m6.9 -1.2h3.4v1.2h-3.4m6.9 -1.2h3.4v1.2h-3.4m6.8 -1.2h3.5v1.2h-3.5m6.9 -1.2h3.4v1.2h-3.4m6.9 -1.2h3.4v1.2h-3.4m6.9 -1.2h3.4v1.2h-3.4m6.8 -1.2h3.5v1.2h-3.5m6.9 -1.2h3.4v1.2H468m6.9 -1.2h3.4v1.2h-3.4m6.9 -1.2h3.4v1.2h-3.4m6.8 -1.2h3.5v1.2h-3.5m6.9 -1.2h3.4v1.2h-3.4m6.9 -1.2h3.4v1.2h-3.4m6.9 -1.2h3.4v1.2h-3.4m6.8 -1.2h3.5v1.2h-3.5m6.9 -1.2h3.4v1.2H523m6.9 -1.2h3.4v1.2h-3.4m6.9 -1.2h3.4v1.2h-3.4m6.8 -1.2h3.5v1.2h-3.5m6.9 -1.2h3.4v1.2h-3.4m6.9 -1.2h3.4v1.2h-3.4m6.9 -1.2h3.4v1.2h-3.4m6.8 -1.2h3.5v1.2h-3.5m6.9 -1.2h3.4v1.2H578m6.9 -1.2h3.4v1.2h-3.4m6.9 -1.2h3.4v1.2h-3.4m6.8 -1.2h3.5v1.2h-3.5m6.9 -1.2h3.4v1.2h-3.4m6.9 -1.2h3.4v1.2h-3.4m6.9 -1.2h3.4v1.2h-3.4m6.8 -1.2h3.5v1.2h-3.5Z" class="g6_168"/>
<path d="M275.5 560.9h11.4v45.8H275.5V560.9Z" class="g0_168"/>
<path d="M275.5 560.9h11.4v45.8H275.5V560.9Z" class="g1_168"/>
<path d="M550.5 662.9h11.4v45.8H550.5V662.9Z" class="g2_168"/>
<path d="M550.5 662.9h11.4v45.8H550.5V662.9Z" class="g1_168"/>
<path d="M504.6 662.9h11.5v45.8H504.6V662.9Z" class="g3_168"/>
<path d="M504.6 662.9h11.5v45.8H504.6V662.9Z" class="g1_168"/>
<path d="M470.2 662.9h11.5v45.8H470.2V662.9Z" class="g4_168"/>
<path d="M470.2 662.9h11.5v45.8H470.2V662.9Z" class="g1_168"/>
<path d="M424.4 662.9h11.5v45.8H424.4V662.9Z" class="g5_168"/>
<path d="M424.4 662.9h11.5v45.8H424.4V662.9Z" class="g1_168"/>
<path d="M607.7 662.9h11.5v45.8H607.7V662.9Z" class="g6_168"/>
<path d="M607.7 662.9h11.5v45.8H607.7V662.9Z" class="g1_168"/>
<path d="M286.9 560.9h11.5v45.8H286.9V560.9Z" class="g0_168"/>
<path d="M286.9 560.9h11.5v45.8H286.9V560.9Z" class="g1_168"/>
<path d="M561.9 662.9h11.5v45.8H561.9V662.9Z" class="g2_168"/>
<path d="M561.9 662.9h11.5v45.8H561.9V662.9Z" class="g1_168"/>
<path d="M516.1 662.9h11.4v45.8H516.1V662.9Z" class="g3_168"/>
<path d="M516.1 662.9h11.4v45.8H516.1V662.9Z" class="g1_168"/>
<path d="M481.7 662.9h11.5v45.8H481.7V662.9Z" class="g4_168"/>
<path d="M481.7 662.9h11.5v45.8H481.7V662.9Z" class="g1_168"/>
<path d="M435.9 662.9h11.4v45.8H435.9V662.9Z" class="g5_168"/>
<path d="M435.9 662.9h11.4v45.8H435.9V662.9Z" class="g1_168"/>
<path d="M596.3 662.9h11.4v45.8H596.3V662.9Z" class="g6_168"/>
<path d="M596.3 662.9h11.4v45.8H596.3V662.9Z" class="g1_168"/>
<path d="M298.4 560.9h11.4v45.8H298.4V560.9Z" class="g0_168"/>
<path d="M298.4 560.9h11.4v45.8H298.4V560.9Z" class="g1_168"/>
<path d="M573.4 662.9h11.4v45.8H573.4V662.9Z" class="g2_168"/>
<path d="M573.4 662.9h11.4v45.8H573.4V662.9Z" class="g1_168"/>
<path d="M527.5 662.9H539v45.8H527.5V662.9Z" class="g3_168"/>
<path d="M527.5 662.9H539v45.8H527.5V662.9Z" class="g1_168"/>
<path d="M458.8 662.9h11.4v45.8H458.8V662.9Z" class="g4_168"/>
<path d="M458.8 662.9h11.4v45.8H458.8V662.9Z" class="g1_168"/>
<path d="M413 662.9h11.4v45.8H413V662.9Z" class="g5_168"/>
<path d="M413 662.9h11.4v45.8H413V662.9Z" class="g1_168"/>
<path d="M619.2 662.9h11.5v45.8H619.2V662.9Z" class="g6_168"/>
<path d="M619.2 662.9h11.5v45.8H619.2V662.9Zm-315.1 0V614" class="g1_168"/>
<path d="M304.1 608l2.7 8l-2.7 -2l-2.7 2l2.7 -8Z" class="g6_168"/>
<path d="M304.1 608l2.7 8l-2.7 -2l-2.7 2l2.7 -8Zm-126 100.7v45.9c0 7.6 3.8 11.4 11.4 11.4H407.2c7.7 0 11.5 -3.8 11.5 -11.4V716" class="g1_168"/>
<path d="M418.7 710l2.7 8l-2.7 -2l-2.7 2l2.7 -8Z" class="g6_168"/>
<path d="M418.7 710l2.7 8l-2.7 -2l-2.7 2l2.7 -8ZM189.5 708.7v34.4c0 7.6 3.8 11.5 11.5 11.5H415.2m6.9 0H544.7c7.7 0 11.5 -3.9 11.5 -11.5V716" class="g1_168"/>
<path d="M556.2 710l2.7 8l-2.7 -2l-2.7 2l2.7 -8Z" class="g6_168"/>
<path d="M556.2 710l2.7 8l-2.7 -2l-2.7 2l2.7 -8ZM201 708.7v22.9c0 7.7 3.8 11.5 11.4 11.5H415.2m6.9 0h31c7.6 0 11.4 -3.8 11.4 -11.5V716" class="g1_168"/>
<path d="M464.5 710l2.7 8l-2.7 -2l-2.6 2l2.6 -8Z" class="g6_168"/>
<path d="M464.5 710l2.7 8l-2.7 -2l-2.6 2l2.6 -8Zm-91.6 -1.3v11.5c0 7.6 3.8 11.4 11.4 11.4h30.9m6.9 0h39m6.9 0h4c2.6 0 4 -2.6 4 -7.8V716" class="g1_168"/>
<path d="M476 710l2.6 8L476 716l-2.7 2l2.7 -8Z" class="g6_168"/>
<path d="M476 710l2.6 8L476 716l-2.7 2l2.7 -8Z" class="g1_168"/>
</g>
</svg>