<?xml version="1.0" encoding="UTF-8" standalone="no"?>
<!DOCTYPE svg PUBLIC "-//W3C//DTD SVG 1.1//EN"
"http://www.w3.org/Graphics/SVG/1.1/DTD/svg11.dtd">
<svg viewBox="0 0 714 1017" version="1.1" xmlns="http://www.w3.org/2000/svg" xmlns:xlink="http://www.w3.org/1999/xlink">
<defs>
<clipPath id="c0_282"><path d="M195.4 540.6V197.1H540.3V540.6Z"/></clipPath>
<clipPath id="c1_282"><path d="M195.4 540.6V196.9H542.2V540.6Z"/></clipPath>
<style type="text/css"><![CDATA[
.g0_282{
fill: #FFF;
}
.g1_282{
fill: none;
stroke: #000;
stroke-width: 1.145;
stroke-miterlimit: 10;
}
.g2_282{
fill: #000;
}
]]></style>
</defs>
<path d="M0 1017.7H717.2V-3.7H0V1017.7Z" class="g0_282"/>
<g clip-path="url(#c1_282)">
<path clip-path="url(#c0_282)" d="M195.4 197.1H540.3V540.8H195.4V197.1Z" class="g0_282"/>
<path d="M242.8 369.5H492.9" class="g1_282"/>
<path d="M231.6 369.5l14.9 -5l-3.7 5l3.7 5l-14.9 -5Z" class="g2_282"/>
<path d="M231.6 369.5l14.9 -5l-3.7 5l3.7 5l-14.9 -5Z" class="g1_282"/>
<path d="M504.1 369.5l-14.9 5l3.7 -5l-3.7 -5l14.9 5Z" class="g2_282"/>
<path d="M504.1 369.5l-14.9 5l3.7 -5l-3.7 -5l14.9 5Z" class="g1_282"/>
<path d="M389.6 345.4h72.2v50.5H389.6V345.4Z" class="g0_282"/>
<path d="M366.7 244.5V494.6" class="g1_282"/>
<path d="M366.7 233.3l5 14.9l-5 -3.7l-4.9 3.7l4.9 -14.9Z" class="g2_282"/>
<path d="M366.7 233.3l5 14.9l-5 -3.7l-4.9 3.7l4.9 -14.9Z" class="g1_282"/>
<path d="M366.7 505.7l-4.9 -14.9l4.9 3.8l5 -3.8l-5 14.9Z" class="g2_282"/>
<path d="M366.7 505.7l-4.9 -14.9l4.9 3.8l5 -3.8l-5 14.9Z" class="g1_282"/>
<path d="M324.3 260.7h86v83.6h-86V260.7Z" class="g0_282"/>
</g>
</svg>