<?xml version="1.0" encoding="UTF-8" standalone="no"?>
<!DOCTYPE svg PUBLIC "-//W3C//DTD SVG 1.1//EN"
"http://www.w3.org/Graphics/SVG/1.1/DTD/svg11.dtd">
<svg viewBox="0 0 714 1017" version="1.1" xmlns="http://www.w3.org/2000/svg" xmlns:xlink="http://www.w3.org/1999/xlink">
<defs>
<clipPath id="c0_318"><path d="M91.6 398.3V203.5H643.9V398.3Z"/></clipPath>
<clipPath id="c1_318"><path d="M91.6 727.5V532.7H643.9V727.5Z"/></clipPath>
<clipPath id="c2_318"><path d="M91.6 398.9V203.3H644.7V398.9Z"/></clipPath>
<clipPath id="c3_318"><path d="M91.6 728.2V532.6H644.7V728.2Z"/></clipPath>
<style type="text/css"><![CDATA[
.g0_318{
fill: #FFF;
}
.g1_318{
fill: none;
stroke: #000;
stroke-width: 1.145;
stroke-miterlimit: 10;
}
.g2_318{
fill: none;
stroke: #000;
stroke-width: 2.291;
stroke-miterlimit: 10;
}
.g3_318{
fill: #000;
}
.g4_318{
fill: none;
stroke: #000;
stroke-width: 0.81;
stroke-miterlimit: 10;
}
]]></style>
</defs>
<path d="M0 1017.7H717.2V-3.7H0V1017.7Z" class="g0_318"/>
<g clip-path="url(#c2_318)">
<path clip-path="url(#c0_318)" d="M91.6 203.5H643.9V398.3H91.6V203.5Z" class="g0_318"/>
<path d="M156.6 248.7H641.1M156.6 283.1H641.1M156.6 317.5H641.1M156.6 351.9H331.7c7.6 0 15.3 0 22.9 0H641.1" class="g1_318"/>
<path d="M173.2 249.9l48.7 29.2" class="g2_318"/>
<path d="M173.6 248.7c0 .3 -.1 .6 -.2 .9c-.1 .3 -.3 .5 -.5 .7c-.2 .3 -.5 .4 -.7 .5c-.3 .2 -.6 .2 -.9 .2c-.3 0 -.6 0 -.9 -.2c-.3 -.1 -.5 -.2 -.7 -.5c-.3 -.2 -.4 -.4 -.5 -.7c-.2 -.3 -.2 -.6 -.2 -.9c0 -.3 0 -.6 .2 -.8c.1 -.3 .2 -.6 .5 -.8c.2 -.2 .4 -.4 .7 -.5c.3 -.1 .6 -.2 .9 -.2c.3 0 .6 .1 .9 .2c.2 .1 .5 .3 .7 .5c.2 .2 .4 .5 .5 .8c.1 .2 .2 .5 .2 .8Z" class="g3_318"/>
<path d="M173.6 248.7c0 .3 -.1 .6 -.2 .9c-.1 .3 -.3 .5 -.5 .7c-.2 .3 -.5 .4 -.7 .5c-.3 .2 -.6 .2 -.9 .2c-.3 0 -.6 0 -.9 -.2c-.3 -.1 -.5 -.2 -.7 -.5c-.3 -.2 -.4 -.4 -.5 -.7c-.2 -.3 -.2 -.6 -.2 -.9c0 -.3 0 -.6 .2 -.8c.1 -.3 .2 -.6 .5 -.8c.2 -.2 .4 -.4 .7 -.5c.3 -.1 .6 -.2 .9 -.2c.3 0 .6 .1 .9 .2c.2 .1 .5 .3 .7 .5c.2 .2 .4 .5 .5 .8c.1 .2 .2 .5 .2 .8Z" class="g2_318"/>
<path d="M226.4 281.8l-7.1 -1.6l2.6 -1.1l-.2 -2.8l4.7 5.5Z" class="g3_318"/>
<path d="M226.4 281.8l-7.1 -1.6l2.6 -1.1l-.2 -2.8l4.7 5.5ZM172.7 250.5l50.9 61.1" class="g2_318"/>
<path d="M173.6 248.7c0 .3 -.1 .6 -.2 .9c-.1 .3 -.3 .5 -.5 .7c-.2 .3 -.5 .4 -.7 .5c-.3 .2 -.6 .2 -.9 .2c-.3 0 -.6 0 -.9 -.2c-.3 -.1 -.5 -.2 -.7 -.5c-.3 -.2 -.4 -.4 -.5 -.7c-.2 -.3 -.2 -.6 -.2 -.9c0 -.3 0 -.6 .2 -.8c.1 -.3 .2 -.6 .5 -.8c.2 -.2 .4 -.4 .7 -.5c.3 -.1 .6 -.2 .9 -.2c.3 0 .6 .1 .9 .2c.2 .1 .5 .3 .7 .5c.2 .2 .4 .5 .5 .8c.1 .2 .2 .5 .2 .8Z" class="g3_318"/>
<path d="M173.6 248.7c0 .3 -.1 .6 -.2 .9c-.1 .3 -.3 .5 -.5 .7c-.2 .3 -.5 .4 -.7 .5c-.3 .2 -.6 .2 -.9 .2c-.3 0 -.6 0 -.9 -.2c-.3 -.1 -.5 -.2 -.7 -.5c-.3 -.2 -.4 -.4 -.5 -.7c-.2 -.3 -.2 -.6 -.2 -.9c0 -.3 0 -.6 .2 -.8c.1 -.3 .2 -.6 .5 -.8c.2 -.2 .4 -.4 .7 -.5c.3 -.1 .6 -.2 .9 -.2c.3 0 .6 .1 .9 .2c.2 .1 .5 .3 .7 .5c.2 .2 .4 .5 .5 .8c.1 .2 .2 .5 .2 .8Z" class="g2_318"/>
<path d="M226.9 315.5l-6.1 -3.8l2.8 -.1l.7 -2.8l2.6 6.7Z" class="g3_318"/>
<path d="M226.9 315.5l-6.1 -3.8l2.8 -.1l.7 -2.8l2.6 6.7ZM172.4 250.7l52.4 94.4" class="g2_318"/>
<path d="M173.6 248.7c0 .3 -.1 .6 -.2 .9c-.1 .3 -.3 .5 -.5 .7c-.2 .3 -.5 .4 -.7 .5c-.3 .2 -.6 .2 -.9 .2c-.3 0 -.6 0 -.9 -.2c-.3 -.1 -.5 -.2 -.7 -.5c-.3 -.2 -.4 -.4 -.5 -.7c-.2 -.3 -.2 -.6 -.2 -.9c0 -.3 0 -.6 .2 -.8c.1 -.3 .2 -.6 .5 -.8c.2 -.2 .4 -.4 .7 -.5c.3 -.1 .6 -.2 .9 -.2c.3 0 .6 .1 .9 .2c.2 .1 .5 .3 .7 .5c.2 .2 .4 .5 .5 .8c.1 .2 .2 .5 .2 .8Z" class="g3_318"/>
<path d="M173.6 248.7c0 .3 -.1 .6 -.2 .9c-.1 .3 -.3 .5 -.5 .7c-.2 .3 -.5 .4 -.7 .5c-.3 .2 -.6 .2 -.9 .2c-.3 0 -.6 0 -.9 -.2c-.3 -.1 -.5 -.2 -.7 -.5c-.3 -.2 -.4 -.4 -.5 -.7c-.2 -.3 -.2 -.6 -.2 -.9c0 -.3 0 -.6 .2 -.8c.1 -.3 .2 -.6 .5 -.8c.2 -.2 .4 -.4 .7 -.5c.3 -.1 .6 -.2 .9 -.2c.3 0 .6 .1 .9 .2c.2 .1 .5 .3 .7 .5c.2 .2 .4 .5 .5 .8c.1 .2 .2 .5 .2 .8Z" class="g2_318"/>
<path d="M227.3 349.6L222 344.7l2.8 .4l1.2 -2.6l1.3 7.1Z" class="g3_318"/>
<path d="M227.3 349.6L222 344.7l2.8 .4l1.2 -2.6l1.3 7.1Zm2.4 .2l52.4 -94.3" class="g2_318"/>
<path d="M230.9 351.9c0 .3 -.1 .5 -.2 .8c-.1 .3 -.3 .6 -.5 .8c-.2 .2 -.5 .4 -.8 .5c-.2 .1 -.5 .1 -.8 .1c-.3 0 -.6 0 -.9 -.1c-.3 -.1 -.5 -.3 -.7 -.5c-.3 -.2 -.4 -.5 -.5 -.8c-.2 -.3 -.2 -.5 -.2 -.8c0 -.4 0 -.6 .2 -.9c.1 -.3 .2 -.6 .5 -.8c.2 -.2 .4 -.3 .7 -.5c.3 -.1 .6 -.1 .9 -.1c.3 0 .6 0 .8 .1c.3 .2 .6 .3 .8 .5c.2 .2 .4 .5 .5 .8c.1 .3 .2 .5 .2 .9Z" class="g3_318"/>
<path d="M230.9 351.9c0 .3 -.1 .5 -.2 .8c-.1 .3 -.3 .6 -.5 .8c-.2 .2 -.5 .4 -.8 .5c-.2 .1 -.5 .1 -.8 .1c-.3 0 -.6 0 -.9 -.1c-.3 -.1 -.5 -.3 -.7 -.5c-.3 -.2 -.4 -.5 -.5 -.8c-.2 -.3 -.2 -.5 -.2 -.8c0 -.4 0 -.6 .2 -.9c.1 -.3 .2 -.6 .5 -.8c.2 -.2 .4 -.3 .7 -.5c.3 -.1 .6 -.1 .9 -.1c.3 0 .6 0 .8 .1c.3 .2 .6 .3 .8 .5c.2 .2 .4 .5 .5 .8c.1 .3 .2 .5 .2 .9Z" class="g2_318"/>
<path d="M284.6 251l-1.3 7.1l-1.2 -2.6l-2.8 .4l5.3 -4.9Z" class="g3_318"/>
<path d="M284.6 251l-1.3 7.1l-1.2 -2.6l-2.8 .4l5.3 -4.9Zm-54.8 64.6l40.3 -60.5" class="g2_318"/>
<path d="M230.9 317.5c0 .3 -.1 .6 -.2 .9c-.1 .2 -.3 .5 -.5 .7c-.2 .2 -.5 .4 -.8 .5c-.2 .1 -.5 .2 -.8 .2c-.3 0 -.6 -.1 -.9 -.2c-.3 -.1 -.5 -.3 -.7 -.5c-.3 -.2 -.4 -.5 -.5 -.7c-.2 -.3 -.2 -.6 -.2 -.9c0 -.3 0 -.6 .2 -.9c.1 -.3 .2 -.5 .5 -.7c.2 -.3 .4 -.4 .7 -.5c.3 -.2 .6 -.2 .9 -.2c.3 0 .6 0 .8 .2c.3 .1 .6 .2 .8 .5c.2 .2 .4 .4 .5 .7c.1 .3 .2 .6 .2 .9Z" class="g3_318"/>
<path d="M230.9 317.5c0 .3 -.1 .6 -.2 .9c-.1 .2 -.3 .5 -.5 .7c-.2 .2 -.5 .4 -.8 .5c-.2 .1 -.5 .2 -.8 .2c-.3 0 -.6 -.1 -.9 -.2c-.3 -.1 -.5 -.3 -.7 -.5c-.3 -.2 -.4 -.5 -.5 -.7c-.2 -.3 -.2 -.6 -.2 -.9c0 -.3 0 -.6 .2 -.9c.1 -.3 .2 -.5 .5 -.7c.2 -.3 .4 -.4 .7 -.5c.3 -.2 .6 -.2 .9 -.2c.3 0 .6 0 .8 .2c.3 .1 .6 .2 .8 .5c.2 .2 .4 .4 .5 .7c.1 .3 .2 .6 .2 .9Z" class="g2_318"/>
<path d="M273 250.9l-1.9 6.9l-1 -2.7l-2.8 .2l5.7 -4.4Z" class="g3_318"/>
<path d="M273 250.9l-1.9 6.9l-1 -2.7l-2.8 .2l5.7 -4.4Zm-42.8 30.6l27.3 -27.3" class="g2_318"/>
<path d="M230.9 283.1c0 .3 -.1 .6 -.2 .9c-.1 .3 -.3 .5 -.5 .7c-.2 .2 -.5 .4 -.8 .5c-.2 .1 -.5 .2 -.8 .2c-.3 0 -.6 -.1 -.9 -.2c-.3 -.1 -.5 -.3 -.7 -.5c-.3 -.2 -.4 -.4 -.5 -.7c-.2 -.3 -.2 -.6 -.2 -.9c0 -.3 0 -.6 .2 -.9c.1 -.3 .2 -.5 .5 -.7c.2 -.2 .4 -.4 .7 -.5c.3 -.1 .6 -.2 .9 -.2c.3 0 .6 .1 .8 .2c.3 .1 .6 .3 .8 .5c.2 .2 .4 .4 .5 .7c.1 .3 .2 .6 .2 .9Z" class="g3_318"/>
<path d="M230.9 283.1c0 .3 -.1 .6 -.2 .9c-.1 .3 -.3 .5 -.5 .7c-.2 .2 -.5 .4 -.8 .5c-.2 .1 -.5 .2 -.8 .2c-.3 0 -.6 -.1 -.9 -.2c-.3 -.1 -.5 -.3 -.7 -.5c-.3 -.2 -.4 -.4 -.5 -.7c-.2 -.3 -.2 -.6 -.2 -.9c0 -.3 0 -.6 .2 -.9c.1 -.3 .2 -.5 .5 -.7c.2 -.2 .4 -.4 .7 -.5c.3 -.1 .6 -.2 .9 -.2c.3 0 .6 .1 .8 .2c.3 .1 .6 .3 .8 .5c.2 .2 .4 .4 .5 .7c.1 .3 .2 .6 .2 .9Z" class="g2_318"/>
<path d="M261.1 250.5l-3.2 6.5l-.4 -2.8l-2.9 -.4l6.5 -3.3Z" class="g3_318"/>
<path d="M261.1 250.5l-3.2 6.5l-.4 -2.8l-2.9 -.4l6.5 -3.3Zm26.7 -.6l48.7 29.2" class="g2_318"/>
<path d="M288.2 248.7c0 .3 -.1 .6 -.2 .9c-.1 .3 -.3 .5 -.5 .7c-.2 .3 -.5 .4 -.8 .5c-.2 .2 -.5 .2 -.8 .2c-.3 0 -.6 0 -.9 -.2c-.3 -.1 -.5 -.2 -.8 -.5c-.2 -.2 -.3 -.4 -.5 -.7c-.1 -.3 -.1 -.6 -.1 -.9c0 -.3 0 -.6 .1 -.8c.2 -.3 .3 -.6 .5 -.8c.3 -.2 .5 -.4 .8 -.5c.3 -.1 .6 -.2 .9 -.2c.3 0 .6 .1 .8 .2c.3 .1 .6 .3 .8 .5c.2 .2 .4 .5 .5 .8c.1 .2 .2 .5 .2 .8Z" class="g3_318"/>
<path d="M288.2 248.7c0 .3 -.1 .6 -.2 .9c-.1 .3 -.3 .5 -.5 .7c-.2 .3 -.5 .4 -.8 .5c-.2 .2 -.5 .2 -.8 .2c-.3 0 -.6 0 -.9 -.2c-.3 -.1 -.5 -.2 -.8 -.5c-.2 -.2 -.3 -.4 -.5 -.7c-.1 -.3 -.1 -.6 -.1 -.9c0 -.3 0 -.6 .1 -.8c.2 -.3 .3 -.6 .5 -.8c.3 -.2 .5 -.4 .8 -.5c.3 -.1 .6 -.2 .9 -.2c.3 0 .6 .1 .8 .2c.3 .1 .6 .3 .8 .5c.2 .2 .4 .5 .5 .8c.1 .2 .2 .5 .2 .8Z" class="g2_318"/>
<path d="M341 281.8l-7.1 -1.6l2.6 -1.1l-.3 -2.8l4.8 5.5Z" class="g3_318"/>
<path d="M341 281.8l-7.1 -1.6l2.6 -1.1l-.3 -2.8l4.8 5.5ZM287.3 250.5l50.9 61.1" class="g2_318"/>
<path d="M288.2 248.7c0 .3 -.1 .6 -.2 .9c-.1 .3 -.3 .5 -.5 .7c-.2 .3 -.5 .4 -.8 .5c-.2 .2 -.5 .2 -.8 .2c-.3 0 -.6 0 -.9 -.2c-.3 -.1 -.5 -.2 -.8 -.5c-.2 -.2 -.3 -.4 -.5 -.7c-.1 -.3 -.1 -.6 -.1 -.9c0 -.3 0 -.6 .1 -.8c.2 -.3 .3 -.6 .5 -.8c.3 -.2 .5 -.4 .8 -.5c.3 -.1 .6 -.2 .9 -.2c.3 0 .6 .1 .8 .2c.3 .1 .6 .3 .8 .5c.2 .2 .4 .5 .5 .8c.1 .2 .2 .5 .2 .8Z" class="g3_318"/>
<path d="M288.2 248.7c0 .3 -.1 .6 -.2 .9c-.1 .3 -.3 .5 -.5 .7c-.2 .3 -.5 .4 -.8 .5c-.2 .2 -.5 .2 -.8 .2c-.3 0 -.6 0 -.9 -.2c-.3 -.1 -.5 -.2 -.8 -.5c-.2 -.2 -.3 -.4 -.5 -.7c-.1 -.3 -.1 -.6 -.1 -.9c0 -.3 0 -.6 .1 -.8c.2 -.3 .3 -.6 .5 -.8c.3 -.2 .5 -.4 .8 -.5c.3 -.1 .6 -.2 .9 -.2c.3 0 .6 .1 .8 .2c.3 .1 .6 .3 .8 .5c.2 .2 .4 .5 .5 .8c.1 .2 .2 .5 .2 .8Z" class="g2_318"/>
<path d="M341.5 315.5l-6.1 -3.8l2.8 -.1l.7 -2.8l2.6 6.7Z" class="g3_318"/>
<path d="M341.5 315.5l-6.1 -3.8l2.8 -.1l.7 -2.8l2.6 6.7ZM287 250.7l52.4 94.4" class="g2_318"/>
<path d="M288.2 248.7c0 .3 -.1 .6 -.2 .9c-.1 .3 -.3 .5 -.5 .7c-.2 .3 -.5 .4 -.8 .5c-.2 .2 -.5 .2 -.8 .2c-.3 0 -.6 0 -.9 -.2c-.3 -.1 -.5 -.2 -.8 -.5c-.2 -.2 -.3 -.4 -.5 -.7c-.1 -.3 -.1 -.6 -.1 -.9c0 -.3 0 -.6 .1 -.8c.2 -.3 .3 -.6 .5 -.8c.3 -.2 .5 -.4 .8 -.5c.3 -.1 .6 -.2 .9 -.2c.3 0 .6 .1 .8 .2c.3 .1 .6 .3 .8 .5c.2 .2 .4 .5 .5 .8c.1 .2 .2 .5 .2 .8Z" class="g3_318"/>
<path d="M288.2 248.7c0 .3 -.1 .6 -.2 .9c-.1 .3 -.3 .5 -.5 .7c-.2 .3 -.5 .4 -.8 .5c-.2 .2 -.5 .2 -.8 .2c-.3 0 -.6 0 -.9 -.2c-.3 -.1 -.5 -.2 -.8 -.5c-.2 -.2 -.3 -.4 -.5 -.7c-.1 -.3 -.1 -.6 -.1 -.9c0 -.3 0 -.6 .1 -.8c.2 -.3 .3 -.6 .5 -.8c.3 -.2 .5 -.4 .8 -.5c.3 -.1 .6 -.2 .9 -.2c.3 0 .6 .1 .8 .2c.3 .1 .6 .3 .8 .5c.2 .2 .4 .5 .5 .8c.1 .2 .2 .5 .2 .8Z" class="g2_318"/>
<path d="M341.9 349.6l-5.3 -4.9l2.8 .4l1.2 -2.6l1.3 7.1Z" class="g3_318"/>
<path d="M341.9 349.6l-5.3 -4.9l2.8 .4l1.2 -2.6l1.3 7.1Zm2.4 .2l52.4 -94.3" class="g2_318"/>
<path d="M345.4 351.9c0 .3 0 .5 -.1 .8c-.1 .3 -.3 .6 -.5 .8c-.2 .2 -.5 .4 -.8 .5c-.2 .1 -.5 .1 -.8 .1c-.3 0 -.6 0 -.9 -.1c-.3 -.1 -.6 -.3 -.8 -.5c-.2 -.2 -.3 -.5 -.5 -.8c-.1 -.3 -.1 -.5 -.1 -.8c0 -.4 0 -.6 .1 -.9c.2 -.3 .3 -.6 .5 -.8c.2 -.2 .5 -.3 .8 -.5c.3 -.1 .6 -.1 .9 -.1c.3 0 .6 0 .8 .1c.3 .2 .6 .3 .8 .5c.2 .2 .4 .5 .5 .8c.1 .3 .1 .5 .1 .9Z" class="g3_318"/>
<path d="M345.4 351.9c0 .3 0 .5 -.1 .8c-.1 .3 -.3 .6 -.5 .8c-.2 .2 -.5 .4 -.8 .5c-.2 .1 -.5 .1 -.8 .1c-.3 0 -.6 0 -.9 -.1c-.3 -.1 -.6 -.3 -.8 -.5c-.2 -.2 -.3 -.5 -.5 -.8c-.1 -.3 -.1 -.5 -.1 -.8c0 -.4 0 -.6 .1 -.9c.2 -.3 .3 -.6 .5 -.8c.2 -.2 .5 -.3 .8 -.5c.3 -.1 .6 -.1 .9 -.1c.3 0 .6 0 .8 .1c.3 .2 .6 .3 .8 .5c.2 .2 .4 .5 .5 .8c.1 .3 .1 .5 .1 .9Z" class="g2_318"/>
<path d="M399.2 251l-1.3 7.1l-1.2 -2.6l-2.8 .4l5.3 -4.9Z" class="g3_318"/>
<path d="M399.2 251l-1.3 7.1l-1.2 -2.6l-2.8 .4l5.3 -4.9Zm-54.8 64.6l40.3 -60.5" class="g2_318"/>
<path d="M345.4 317.5c0 .3 0 .6 -.1 .9c-.1 .2 -.3 .5 -.5 .7c-.2 .2 -.5 .4 -.8 .5c-.2 .1 -.5 .2 -.8 .2c-.3 0 -.6 -.1 -.9 -.2c-.3 -.1 -.6 -.3 -.8 -.5c-.2 -.2 -.3 -.5 -.5 -.7c-.1 -.3 -.1 -.6 -.1 -.9c0 -.3 0 -.6 .1 -.9c.2 -.3 .3 -.5 .5 -.7c.2 -.3 .5 -.4 .8 -.5c.3 -.2 .6 -.2 .9 -.2c.3 0 .6 0 .8 .2c.3 .1 .6 .2 .8 .5c.2 .2 .4 .4 .5 .7c.1 .3 .1 .6 .1 .9Z" class="g3_318"/>
<path d="M345.4 317.5c0 .3 0 .6 -.1 .9c-.1 .2 -.3 .5 -.5 .7c-.2 .2 -.5 .4 -.8 .5c-.2 .1 -.5 .2 -.8 .2c-.3 0 -.6 -.1 -.9 -.2c-.3 -.1 -.6 -.3 -.8 -.5c-.2 -.2 -.3 -.5 -.5 -.7c-.1 -.3 -.1 -.6 -.1 -.9c0 -.3 0 -.6 .1 -.9c.2 -.3 .3 -.5 .5 -.7c.2 -.3 .5 -.4 .8 -.5c.3 -.2 .6 -.2 .9 -.2c.3 0 .6 0 .8 .2c.3 .1 .6 .2 .8 .5c.2 .2 .4 .4 .5 .7c.1 .3 .1 .6 .1 .9Z" class="g2_318"/>
<path d="M387.6 250.9l-1.9 6.9l-1 -2.7l-2.9 .2l5.8 -4.4Z" class="g3_318"/>
<path d="M387.6 250.9l-1.9 6.9l-1 -2.7l-2.9 .2l5.8 -4.4Zm-42.8 30.6l27.3 -27.3" class="g2_318"/>
<path d="M345.4 283.1c0 .3 0 .6 -.1 .9c-.1 .3 -.3 .5 -.5 .7c-.2 .2 -.5 .4 -.8 .5c-.2 .1 -.5 .2 -.8 .2c-.3 0 -.6 -.1 -.9 -.2c-.3 -.1 -.6 -.3 -.8 -.5c-.2 -.2 -.3 -.4 -.5 -.7c-.1 -.3 -.1 -.6 -.1 -.9c0 -.3 0 -.6 .1 -.9c.2 -.3 .3 -.5 .5 -.7c.2 -.2 .5 -.4 .8 -.5c.3 -.1 .6 -.2 .9 -.2c.3 0 .6 .1 .8 .2c.3 .1 .6 .3 .8 .5c.2 .2 .4 .4 .5 .7c.1 .3 .1 .6 .1 .9Z" class="g3_318"/>
<path d="M345.4 283.1c0 .3 0 .6 -.1 .9c-.1 .3 -.3 .5 -.5 .7c-.2 .2 -.5 .4 -.8 .5c-.2 .1 -.5 .2 -.8 .2c-.3 0 -.6 -.1 -.9 -.2c-.3 -.1 -.6 -.3 -.8 -.5c-.2 -.2 -.3 -.4 -.5 -.7c-.1 -.3 -.1 -.6 -.1 -.9c0 -.3 0 -.6 .1 -.9c.2 -.3 .3 -.5 .5 -.7c.2 -.2 .5 -.4 .8 -.5c.3 -.1 .6 -.2 .9 -.2c.3 0 .6 .1 .8 .2c.3 .1 .6 .3 .8 .5c.2 .2 .4 .4 .5 .7c.1 .3 .1 .6 .1 .9Z" class="g2_318"/>
<path d="M375.7 250.5l-3.2 6.5l-.4 -2.8l-2.9 -.4l6.5 -3.3Z" class="g3_318"/>
<path d="M375.7 250.5l-3.2 6.5l-.4 -2.8l-2.9 -.4l6.5 -3.3Z" class="g2_318"/>
<path d="M156.6 386.2H641.1" class="g1_318"/>
<path d="M345.5 284l1.6 1.8l-1.8 1.5l-1.5 -1.7m4.8 1.9l1.5 1.7l-1.7 1.5L346.9 289m4.7 1.9l1.5 1.7l-1.7 1.5l-1.5 -1.7m4.8 1.9l1.5 1.7l-1.7 1.6L353 295.8m4.7 2l1.5 1.7l-1.7 1.5L356 299.3m4.8 1.9l1.5 1.7l-1.7 1.5L359 302.7m4.8 1.9l1.5 1.7l-1.7 1.5l-1.5 -1.7m4.7 1.9l1.6 1.7l-1.7 1.6l-1.6 -1.7m4.8 1.9l1.5 1.7l-1.7 1.5L368.2 313m4.7 1.9l1.6 1.7l-1.8 1.5l-1.5 -1.7m4.8 1.9l1.5 1.7l-1.7 1.5l-1.5 -1.7m4.7 1.9l1.5 1.7l-1.7 1.6l-1.5 -1.7m4.8 1.9l1.5 1.7l-1.7 1.5l-1.5 -1.7m4.7 1.9l1.5 1.7l-1.7 1.5l-1.5 -1.7m4.8 1.9l1.5 1.7l-1.7 1.5l-1.6 -1.7m4.8 1.9l1.5 1.8l-1.7 1.5L389.5 337m4.7 1.9l1.6 1.7l-1.7 1.5l-1.6 -1.7m4.8 1.9l1.5 1.7l-1.7 1.5l-1.5 -1.7m4.7 1.9l1.6 1.7l-1.8 1.6l-1.5 -1.8m4.8 1.9l1.5 1.8l-1.7 1.5l-1.5 -1.7m4.7 1.9l1.6 1.7l-1.8 1.5l-1.5 -1.7m4.8 1.9l1.5 1.7l-1.7 1.5l-1.5 -1.7m4.7 1.9l1.5 1.7l-1.7 1.6l-1.5 -1.8m4.8 1.9l1.5 1.8l-1.7 1.5l-1.6 -1.7m4.8 1.9l1.5 1.7l-1.7 1.5l-1.5 -1.7m4.8 1.9l1.5 1.7l-1.7 1.5l-1.6 -1.7m4.8 1.9l1.5 1.7l-1.7 1.6L423 374.6m4.7 1.9l1.6 1.8l-1.7 1.5L426 378.1Z" class="g3_318"/>
<path d="M345.4 283.1c0 .3 0 .6 -.1 .9c-.1 .3 -.3 .5 -.5 .7c-.2 .2 -.5 .4 -.8 .5c-.2 .1 -.5 .2 -.8 .2c-.3 0 -.6 -.1 -.9 -.2c-.3 -.1 -.6 -.3 -.8 -.5c-.2 -.2 -.3 -.4 -.5 -.7c-.1 -.3 -.1 -.6 -.1 -.9c0 -.3 0 -.6 .1 -.9c.2 -.3 .3 -.5 .5 -.7c.2 -.2 .5 -.4 .8 -.5c.3 -.1 .6 -.2 .9 -.2c.3 0 .6 .1 .8 .2c.3 .1 .6 .3 .8 .5c.2 .2 .4 .4 .5 .7c.1 .3 .1 .6 .1 .9Z" class="g3_318"/>
<path d="M345.4 283.1c0 .3 0 .6 -.1 .9c-.1 .3 -.3 .5 -.5 .7c-.2 .2 -.5 .4 -.8 .5c-.2 .1 -.5 .2 -.8 .2c-.3 0 -.6 -.1 -.9 -.2c-.3 -.1 -.6 -.3 -.8 -.5c-.2 -.2 -.3 -.4 -.5 -.7c-.1 -.3 -.1 -.6 -.1 -.9c0 -.3 0 -.6 .1 -.9c.2 -.3 .3 -.5 .5 -.7c.2 -.2 .5 -.4 .8 -.5c.3 -.1 .6 -.2 .9 -.2c.3 0 .6 .1 .8 .2c.3 .1 .6 .3 .8 .5c.2 .2 .4 .4 .5 .7c.1 .3 .1 .6 .1 .9Z" class="g2_318"/>
<path d="M433.1 384.3l-6.3 -3.6l2.9 -.2l.6 -2.8l2.8 6.6Z" class="g3_318"/>
<path d="M433.1 384.3l-6.3 -3.6l2.9 -.2l.6 -2.8l2.8 6.6Z" class="g2_318"/>
<path d="M345.7 351.7l2.1 .9l-.9 2.1l-2.1 -.9m5.1 -.3l2.1 .9l-.9 2.1l-2.1 -.9m5.1 -.3l2.1 .9l-.9 2.1l-2.1 -.9m5.2 -.3l2.1 .9l-.9 2.1l-2.2 -.9m5.2 -.3l2.1 .9l-.9 2.1l-2.1 -.9m5.1 -.3l2.1 .9l-.9 2.1l-2.1 -.9m5.1 -.3l2.1 .9l-.9 2.1l-2.1 -.9m5.1 -.3l2.1 .9l-.9 2.2l-2.1 -.9m5.1 -.4l2.1 1l-.9 2.1l-2.1 -.9m5.1 -.3l2.1 .9l-.9 2.1l-2.1 -.9m5.1 -.3l2.1 .9l-.9 2.1l-2.1 -.9m5.2 -.3l2.1 .9l-.9 2.1l-2.1 -.9m5.1 -.3l2.1 .9l-.9 2.1l-2.1 -.9m5.1 -.3l2.1 .9l-.9 2.1l-2.1 -.9m5.1 -.3l2.1 .9l-.9 2.1l-2.1 -.9m5.1 -.3l2.1 .9l-.9 2.1l-2.1 -.9m5.1 -.3l2.1 .9l-.9 2.1l-2.1 -.9Z" class="g3_318"/>
<path d="M345.4 351.9c0 .3 0 .5 -.1 .8c-.1 .3 -.3 .6 -.5 .8c-.2 .2 -.5 .4 -.8 .5c-.2 .1 -.5 .1 -.8 .1c-.3 0 -.6 0 -.9 -.1c-.3 -.1 -.6 -.3 -.8 -.5c-.2 -.2 -.3 -.5 -.5 -.8c-.1 -.3 -.1 -.5 -.1 -.8c0 -.4 0 -.6 .1 -.9c.2 -.3 .3 -.6 .5 -.8c.2 -.2 .5 -.3 .8 -.5c.3 -.1 .6 -.1 .9 -.1c.3 0 .6 0 .8 .1c.3 .2 .6 .3 .8 .5c.2 .2 .4 .5 .5 .8c.1 .3 .1 .5 .1 .9Z" class="g3_318"/>
<path d="M345.4 351.9c0 .3 0 .5 -.1 .8c-.1 .3 -.3 .6 -.5 .8c-.2 .2 -.5 .4 -.8 .5c-.2 .1 -.5 .1 -.8 .1c-.3 0 -.6 0 -.9 -.1c-.3 -.1 -.6 -.3 -.8 -.5c-.2 -.2 -.3 -.5 -.5 -.8c-.1 -.3 -.1 -.5 -.1 -.8c0 -.4 0 -.6 .1 -.9c.2 -.3 .3 -.6 .5 -.8c.2 -.2 .5 -.3 .8 -.5c.3 -.1 .6 -.1 .9 -.1c.3 0 .6 0 .8 .1c.3 .2 .6 .3 .8 .5c.2 .2 .4 .5 .5 .8c.1 .3 .1 .5 .1 .9Z" class="g2_318"/>
<path d="M421 385.2l-7.2 -.6l2.5 -1.4l-.7 -2.8l5.4 4.8Z" class="g3_318"/>
<path d="M421 385.2l-7.2 -.6l2.5 -1.4l-.7 -2.8l5.4 4.8Z" class="g2_318"/>
<path d="M344.5 318.1l1.7 1.5l-1.5 1.7L343 319.8m5 1.3l1.7 1.5l-1.5 1.7l-1.7 -1.5m5 1.3l1.7 1.5l-1.5 1.7L350 325.8m4.9 1.2l1.8 1.5l-1.5 1.8l-1.8 -1.5m5 1.2l1.8 1.5l-1.5 1.8l-1.8 -1.5m5 1.2l1.7 1.5l-1.5 1.7l-1.7 -1.4m5 1.2l1.7 1.5l-1.5 1.7l-1.7 -1.5m5 1.3l1.7 1.5l-1.5 1.7l-1.7 -1.5m4.9 1.3l1.8 1.5l-1.5 1.7l-1.8 -1.5m5 1.2l1.8 1.5l-1.5 1.8l-1.8 -1.5m5 1.2l1.7 1.5l-1.5 1.8l-1.7 -1.5m5 1.2l1.7 1.5l-1.5 1.7l-1.7 -1.5m5 1.3l1.7 1.5l-1.5 1.7l-1.7 -1.5m4.9 1.3l1.8 1.5l-1.5 1.7l-1.8 -1.5m5 1.3l1.8 1.4l-1.5 1.8l-1.8 -1.5m5 1.2l1.7 1.5l-1.5 1.8l-1.7 -1.5m5 1.2l1.7 1.5l-1.5 1.8l-1.7 -1.5m5 1.2l1.7 1.5l-1.5 1.7l-1.7 -1.5m4.9 1.3l1.8 1.5l-1.5 1.7l-1.8 -1.5m5 1.3l1.8 1.5l-1.5 1.7l-1.8 -1.5m5 1.3l1.7 1.4l-1.5 1.8l-1.7 -1.5Z" class="g3_318"/>
<path d="M344.3 317.5c0 .3 -.1 .6 -.2 .9c-.1 .2 -.3 .5 -.5 .7c-.2 .2 -.4 .4 -.7 .5c-.3 .1 -.6 .2 -.9 .2c-.3 0 -.6 -.1 -.9 -.2c-.2 -.1 -.5 -.3 -.7 -.5c-.2 -.2 -.4 -.5 -.5 -.7c-.1 -.3 -.2 -.6 -.2 -.9c0 -.3 .1 -.6 .2 -.9c.1 -.3 .3 -.5 .5 -.7c.2 -.3 .5 -.4 .7 -.5c.3 -.2 .6 -.2 .9 -.2c.3 0 .6 0 .9 .2c.3 .1 .5 .2 .7 .5c.2 .2 .4 .4 .5 .7c.1 .3 .2 .6 .2 .9Z" class="g3_318"/>
<path d="M344.3 317.5c0 .3 -.1 .6 -.2 .9c-.1 .2 -.3 .5 -.5 .7c-.2 .2 -.4 .4 -.7 .5c-.3 .1 -.6 .2 -.9 .2c-.3 0 -.6 -.1 -.9 -.2c-.2 -.1 -.5 -.3 -.7 -.5c-.2 -.2 -.4 -.5 -.5 -.7c-.1 -.3 -.2 -.6 -.2 -.9c0 -.3 .1 -.6 .2 -.9c.1 -.3 .3 -.5 .5 -.7c.2 -.3 .5 -.4 .7 -.5c.3 -.2 .6 -.2 .9 -.2c.3 0 .6 0 .9 .2c.3 .1 .5 .2 .7 .5c.2 .2 .4 .4 .5 .7c.1 .3 .2 .6 .2 .9Z" class="g2_318"/>
<path d="M420.3 384.6l-6.7 -2.8l2.8 -.6l.1 -2.9l3.8 6.3Z" class="g3_318"/>
<path d="M420.3 384.6l-6.7 -2.8l2.8 -.6l.1 -2.9l3.8 6.3Z" class="g2_318"/>
</g>
<g clip-path="url(#c3_318)">
<path clip-path="url(#c1_318)" d="M91.6 532.7H643.9V727.5H91.6V532.7Z" class="g0_318"/>
<path d="M157.5 579.1h75.8m-75.8 34.4H642.2M157.5 647.9H642.2M157.5 682.3H642.2M157.5 716.6H642.2" class="g1_318"/>
<path d="M230.1 569.4l6.5 6.5l6.5 -6.5l3.2 3.2l-6.5 6.5l6.5 6.5l-3.2 3.2l-6.5 -6.4l-6.5 6.4l-3.2 -3.2l6.5 -6.5l-6.5 -6.5l3.2 -3.2Z" class="g0_318"/>
<path d="M230.1 569.4l6.5 6.5l6.5 -6.5l3.2 3.2l-6.5 6.5l6.5 6.5l-3.2 3.2l-6.5 -6.4l-6.5 6.4l-3.2 -3.2l6.5 -6.5l-6.5 -6.5l3.2 -3.2Z" class="g4_318"/>
<path d="M380.3 683.9l27.3 27.3" class="g2_318"/>
<path d="M381 682.3c0 .3 -.1 .5 -.2 .8c-.1 .3 -.3 .6 -.5 .8c-.2 .2 -.5 .4 -.7 .5c-.3 .1 -.6 .1 -.9 .1c-.3 0 -.6 0 -.9 -.1c-.3 -.1 -.5 -.3 -.7 -.5c-.3 -.2 -.4 -.5 -.5 -.8c-.2 -.3 -.2 -.5 -.2 -.8c0 -.4 0 -.6 .2 -.9c.1 -.3 .2 -.6 .5 -.8c.2 -.2 .4 -.3 .7 -.5c.3 -.1 .6 -.1 .9 -.1c.3 0 .6 0 .9 .1c.2 .2 .5 .3 .7 .5c.2 .2 .4 .5 .5 .8c.1 .3 .2 .5 .2 .9Z" class="g3_318"/>
<path d="M381 682.3c0 .3 -.1 .5 -.2 .8c-.1 .3 -.3 .6 -.5 .8c-.2 .2 -.5 .4 -.7 .5c-.3 .1 -.6 .1 -.9 .1c-.3 0 -.6 0 -.9 -.1c-.3 -.1 -.5 -.3 -.7 -.5c-.3 -.2 -.4 -.5 -.5 -.8c-.2 -.3 -.2 -.5 -.2 -.8c0 -.4 0 -.6 .2 -.9c.1 -.3 .2 -.6 .5 -.8c.2 -.2 .4 -.3 .7 -.5c.3 -.1 .6 -.1 .9 -.1c.3 0 .6 0 .9 .1c.2 .2 .5 .3 .7 .5c.2 .2 .4 .5 .5 .8c.1 .3 .2 .5 .2 .9Z" class="g2_318"/>
<path d="M411.2 714.8l-6.4 -3.2l2.8 -.4l.4 -2.9l3.2 6.5Z" class="g3_318"/>
<path d="M411.2 714.8l-6.4 -3.2l2.8 -.4l.4 -2.9l3.2 6.5Zm-31.3 -65l40.3 60.4" class="g2_318"/>
<path d="M381 647.9c0 .3 -.1 .6 -.2 .9c-.1 .2 -.3 .5 -.5 .7c-.2 .2 -.5 .4 -.7 .5c-.3 .1 -.6 .2 -.9 .2c-.3 0 -.6 -.1 -.9 -.2c-.3 -.1 -.5 -.3 -.7 -.5c-.3 -.2 -.4 -.5 -.5 -.7c-.2 -.3 -.2 -.6 -.2 -.9c0 -.3 0 -.6 .2 -.9c.1 -.3 .2 -.5 .5 -.7c.2 -.3 .4 -.4 .7 -.5c.3 -.2 .6 -.2 .9 -.2c.3 0 .6 0 .9 .2c.2 .1 .5 .2 .7 .5c.2 .2 .4 .4 .5 .7c.1 .3 .2 .6 .2 .9Z" class="g3_318"/>
<path d="M381 647.9c0 .3 -.1 .6 -.2 .9c-.1 .2 -.3 .5 -.5 .7c-.2 .2 -.5 .4 -.7 .5c-.3 .1 -.6 .2 -.9 .2c-.3 0 -.6 -.1 -.9 -.2c-.3 -.1 -.5 -.3 -.7 -.5c-.3 -.2 -.4 -.5 -.5 -.7c-.2 -.3 -.2 -.6 -.2 -.9c0 -.3 0 -.6 .2 -.9c.1 -.3 .2 -.5 .5 -.7c.2 -.3 .4 -.4 .7 -.5c.3 -.2 .6 -.2 .9 -.2c.3 0 .6 0 .9 .2c.2 .1 .5 .2 .7 .5c.2 .2 .4 .4 .5 .7c.1 .3 .2 .6 .2 .9Z" class="g2_318"/>
<path d="M423.1 714.5l-5.7 -4.4l2.8 .1l1 -2.7l1.9 7Z" class="g3_318"/>
<path d="M423.1 714.5l-5.7 -4.4l2.8 .1l1 -2.7l1.9 7Zm-43.3 -99l52.4 94.4" class="g2_318"/>
<path d="M381 613.5c0 .3 -.1 .6 -.2 .9c-.1 .3 -.3 .5 -.5 .7c-.2 .2 -.5 .4 -.7 .5c-.3 .1 -.6 .2 -.9 .2c-.3 0 -.6 -.1 -.9 -.2c-.3 -.1 -.5 -.3 -.7 -.5c-.3 -.2 -.4 -.4 -.5 -.7c-.2 -.3 -.2 -.6 -.2 -.9c0 -.3 0 -.6 .2 -.9c.1 -.3 .2 -.5 .5 -.7c.2 -.2 .4 -.4 .7 -.5c.3 -.1 .6 -.2 .9 -.2c.3 0 .6 .1 .9 .2c.2 .1 .5 .3 .7 .5c.2 .2 .4 .4 .5 .7c.1 .3 .2 .6 .2 .9Z" class="g3_318"/>
<path d="M381 613.5c0 .3 -.1 .6 -.2 .9c-.1 .3 -.3 .5 -.5 .7c-.2 .2 -.5 .4 -.7 .5c-.3 .1 -.6 .2 -.9 .2c-.3 0 -.6 -.1 -.9 -.2c-.3 -.1 -.5 -.3 -.7 -.5c-.3 -.2 -.4 -.4 -.5 -.7c-.2 -.3 -.2 -.6 -.2 -.9c0 -.3 0 -.6 .2 -.9c.1 -.3 .2 -.5 .5 -.7c.2 -.2 .4 -.4 .7 -.5c.3 -.1 .6 -.2 .9 -.2c.3 0 .6 .1 .9 .2c.2 .1 .5 .3 .7 .5c.2 .2 .4 .4 .5 .7c.1 .3 .2 .6 .2 .9Z" class="g2_318"/>
<path d="M434.7 714.4l-5.3 -4.9l2.8 .4l1.2 -2.6l1.3 7.1Z" class="g3_318"/>
<path d="M434.7 714.4l-5.3 -4.9l2.8 .4l1.2 -2.6l1.3 7.1Zm2.4 .2l52.4 -94.3" class="g2_318"/>
<path d="M438.3 716.6c0 .3 -.1 .6 -.2 .9c-.1 .3 -.3 .5 -.5 .7c-.2 .3 -.5 .4 -.8 .5c-.2 .2 -.5 .2 -.8 .2c-.3 0 -.6 0 -.9 -.2c-.3 -.1 -.5 -.2 -.8 -.5c-.2 -.2 -.3 -.4 -.5 -.7c-.1 -.3 -.1 -.6 -.1 -.9c0 -.3 0 -.6 .1 -.8c.2 -.3 .3 -.6 .5 -.8c.3 -.2 .5 -.4 .8 -.5c.3 -.1 .6 -.2 .9 -.2c.3 0 .6 .1 .8 .2c.3 .1 .6 .3 .8 .5c.2 .2 .4 .5 .5 .8c.1 .2 .2 .5 .2 .8Z" class="g3_318"/>
<path d="M438.3 716.6c0 .3 -.1 .6 -.2 .9c-.1 .3 -.3 .5 -.5 .7c-.2 .3 -.5 .4 -.8 .5c-.2 .2 -.5 .2 -.8 .2c-.3 0 -.6 0 -.9 -.2c-.3 -.1 -.5 -.2 -.8 -.5c-.2 -.2 -.3 -.4 -.5 -.7c-.1 -.3 -.1 -.6 -.1 -.9c0 -.3 0 -.6 .1 -.8c.2 -.3 .3 -.6 .5 -.8c.3 -.2 .5 -.4 .8 -.5c.3 -.1 .6 -.2 .9 -.2c.3 0 .6 .1 .8 .2c.3 .1 .6 .3 .8 .5c.2 .2 .4 .5 .5 .8c.1 .2 .2 .5 .2 .8Z" class="g2_318"/>
<path d="M492 615.7l-1.3 7.2l-1.2 -2.6l-2.8 .3l5.3 -4.9Z" class="g3_318"/>
<path d="M492 615.7l-1.3 7.2l-1.2 -2.6l-2.8 .3l5.3 -4.9Zm-54.6 99.2l50.9 -61.1" class="g2_318"/>
<path d="M438.3 716.6c0 .3 -.1 .6 -.2 .9c-.1 .3 -.3 .5 -.5 .7c-.2 .3 -.5 .4 -.8 .5c-.2 .2 -.5 .2 -.8 .2c-.3 0 -.6 0 -.9 -.2c-.3 -.1 -.5 -.2 -.8 -.5c-.2 -.2 -.3 -.4 -.5 -.7c-.1 -.3 -.1 -.6 -.1 -.9c0 -.3 0 -.6 .1 -.8c.2 -.3 .3 -.6 .5 -.8c.3 -.2 .5 -.4 .8 -.5c.3 -.1 .6 -.2 .9 -.2c.3 0 .6 .1 .8 .2c.3 .1 .6 .3 .8 .5c.2 .2 .4 .5 .5 .8c.1 .2 .2 .5 .2 .8Z" class="g3_318"/>
<path d="M438.3 716.6c0 .3 -.1 .6 -.2 .9c-.1 .3 -.3 .5 -.5 .7c-.2 .3 -.5 .4 -.8 .5c-.2 .2 -.5 .2 -.8 .2c-.3 0 -.6 0 -.9 -.2c-.3 -.1 -.5 -.2 -.8 -.5c-.2 -.2 -.3 -.4 -.5 -.7c-.1 -.3 -.1 -.6 -.1 -.9c0 -.3 0 -.6 .1 -.8c.2 -.3 .3 -.6 .5 -.8c.3 -.2 .5 -.4 .8 -.5c.3 -.1 .6 -.2 .9 -.2c.3 0 .6 .1 .8 .2c.3 .1 .6 .3 .8 .5c.2 .2 .4 .5 .5 .8c.1 .2 .2 .5 .2 .8Z" class="g2_318"/>
<path d="M491.6 649.8l-2.6 6.8l-.7 -2.8l-2.8 -.1l6.1 -3.9Z" class="g3_318"/>
<path d="M491.6 649.8l-2.6 6.8l-.7 -2.8l-2.8 -.1l6.1 -3.9Zm-53.7 65.6l48.7 -29.2" class="g2_318"/>
<path d="M438.3 716.6c0 .3 -.1 .6 -.2 .9c-.1 .3 -.3 .5 -.5 .7c-.2 .3 -.5 .4 -.8 .5c-.2 .2 -.5 .2 -.8 .2c-.3 0 -.6 0 -.9 -.2c-.3 -.1 -.5 -.2 -.8 -.5c-.2 -.2 -.3 -.4 -.5 -.7c-.1 -.3 -.1 -.6 -.1 -.9c0 -.3 0 -.6 .1 -.8c.2 -.3 .3 -.6 .5 -.8c.3 -.2 .5 -.4 .8 -.5c.3 -.1 .6 -.2 .9 -.2c.3 0 .6 .1 .8 .2c.3 .1 .6 .3 .8 .5c.2 .2 .4 .5 .5 .8c.1 .2 .2 .5 .2 .8Z" class="g3_318"/>
<path d="M438.3 716.6c0 .3 -.1 .6 -.2 .9c-.1 .3 -.3 .5 -.5 .7c-.2 .3 -.5 .4 -.8 .5c-.2 .2 -.5 .2 -.8 .2c-.3 0 -.6 0 -.9 -.2c-.3 -.1 -.5 -.2 -.8 -.5c-.2 -.2 -.3 -.4 -.5 -.7c-.1 -.3 -.1 -.6 -.1 -.9c0 -.3 0 -.6 .1 -.8c.2 -.3 .3 -.6 .5 -.8c.3 -.2 .5 -.4 .8 -.5c.3 -.1 .6 -.2 .9 -.2c.3 0 .6 .1 .8 .2c.3 .1 .6 .3 .8 .5c.2 .2 .4 .5 .5 .8c.1 .2 .2 .5 .2 .8Z" class="g2_318"/>
<path d="M491.1 683.6l-4.8 5.5l.3 -2.9L484 685.1l7.1 -1.5Z" class="g3_318"/>
<path d="M491.1 683.6l-4.8 5.5l.3 -2.9L484 685.1l7.1 -1.5Zm3.8 .3l27.3 27.3" class="g2_318"/>
<path d="M495.5 682.3c0 .3 0 .5 -.1 .8c-.1 .3 -.3 .6 -.5 .8c-.2 .2 -.5 .4 -.8 .5c-.2 .1 -.5 .1 -.8 .1c-.3 0 -.6 0 -.9 -.1c-.3 -.1 -.5 -.3 -.8 -.5c-.2 -.2 -.3 -.5 -.5 -.8c-.1 -.3 -.1 -.5 -.1 -.8c0 -.4 0 -.6 .1 -.9c.2 -.3 .3 -.6 .5 -.8c.3 -.2 .5 -.3 .8 -.5c.3 -.1 .6 -.1 .9 -.1c.3 0 .6 0 .8 .1c.3 .2 .6 .3 .8 .5c.2 .2 .4 .5 .5 .8c.1 .3 .1 .5 .1 .9Z" class="g3_318"/>
<path d="M495.5 682.3c0 .3 0 .5 -.1 .8c-.1 .3 -.3 .6 -.5 .8c-.2 .2 -.5 .4 -.8 .5c-.2 .1 -.5 .1 -.8 .1c-.3 0 -.6 0 -.9 -.1c-.3 -.1 -.5 -.3 -.8 -.5c-.2 -.2 -.3 -.5 -.5 -.8c-.1 -.3 -.1 -.5 -.1 -.8c0 -.4 0 -.6 .1 -.9c.2 -.3 .3 -.6 .5 -.8c.3 -.2 .5 -.3 .8 -.5c.3 -.1 .6 -.1 .9 -.1c.3 0 .6 0 .8 .1c.3 .2 .6 .3 .8 .5c.2 .2 .4 .5 .5 .8c.1 .3 .1 .5 .1 .9Z" class="g2_318"/>
<path d="M525.8 714.8l-6.5 -3.2l2.9 -.4l.4 -2.9l3.2 6.5Z" class="g3_318"/>
<path d="M525.8 714.8l-6.5 -3.2l2.9 -.4l.4 -2.9l3.2 6.5Zm-31.3 -65l40.3 60.4" class="g2_318"/>
<path d="M495.5 647.9c0 .3 0 .6 -.1 .9c-.1 .2 -.3 .5 -.5 .7c-.2 .2 -.5 .4 -.8 .5c-.2 .1 -.5 .2 -.8 .2c-.3 0 -.6 -.1 -.9 -.2c-.3 -.1 -.5 -.3 -.8 -.5c-.2 -.2 -.3 -.5 -.5 -.7c-.1 -.3 -.1 -.6 -.1 -.9c0 -.3 0 -.6 .1 -.9c.2 -.3 .3 -.5 .5 -.7c.3 -.3 .5 -.4 .8 -.5c.3 -.2 .6 -.2 .9 -.2c.3 0 .6 0 .8 .2c.3 .1 .6 .2 .8 .5c.2 .2 .4 .4 .5 .7c.1 .3 .1 .6 .1 .9Z" class="g3_318"/>
<path d="M495.5 647.9c0 .3 0 .6 -.1 .9c-.1 .2 -.3 .5 -.5 .7c-.2 .2 -.5 .4 -.8 .5c-.2 .1 -.5 .2 -.8 .2c-.3 0 -.6 -.1 -.9 -.2c-.3 -.1 -.5 -.3 -.8 -.5c-.2 -.2 -.3 -.5 -.5 -.7c-.1 -.3 -.1 -.6 -.1 -.9c0 -.3 0 -.6 .1 -.9c.2 -.3 .3 -.5 .5 -.7c.3 -.3 .5 -.4 .8 -.5c.3 -.2 .6 -.2 .9 -.2c.3 0 .6 0 .8 .2c.3 .1 .6 .2 .8 .5c.2 .2 .4 .4 .5 .7c.1 .3 .1 .6 .1 .9Z" class="g2_318"/>
<path d="M537.7 714.5L532 710.1l2.8 .1l1 -2.7l1.9 7Z" class="g3_318"/>
<path d="M537.7 714.5L532 710.1l2.8 .1l1 -2.7l1.9 7Zm-43.3 -99l52.4 94.4" class="g2_318"/>
<path d="M495.5 613.5c0 .3 0 .6 -.1 .9c-.1 .3 -.3 .5 -.5 .7c-.2 .2 -.5 .4 -.8 .5c-.2 .1 -.5 .2 -.8 .2c-.3 0 -.6 -.1 -.9 -.2c-.3 -.1 -.5 -.3 -.8 -.5c-.2 -.2 -.3 -.4 -.5 -.7c-.1 -.3 -.1 -.6 -.1 -.9c0 -.3 0 -.6 .1 -.9c.2 -.3 .3 -.5 .5 -.7c.3 -.2 .5 -.4 .8 -.5c.3 -.1 .6 -.2 .9 -.2c.3 0 .6 .1 .8 .2c.3 .1 .6 .3 .8 .5c.2 .2 .4 .4 .5 .7c.1 .3 .1 .6 .1 .9Z" class="g3_318"/>
<path d="M495.5 613.5c0 .3 0 .6 -.1 .9c-.1 .3 -.3 .5 -.5 .7c-.2 .2 -.5 .4 -.8 .5c-.2 .1 -.5 .2 -.8 .2c-.3 0 -.6 -.1 -.9 -.2c-.3 -.1 -.5 -.3 -.8 -.5c-.2 -.2 -.3 -.4 -.5 -.7c-.1 -.3 -.1 -.6 -.1 -.9c0 -.3 0 -.6 .1 -.9c.2 -.3 .3 -.5 .5 -.7c.3 -.2 .5 -.4 .8 -.5c.3 -.1 .6 -.2 .9 -.2c.3 0 .6 .1 .8 .2c.3 .1 .6 .3 .8 .5c.2 .2 .4 .4 .5 .7c.1 .3 .1 .6 .1 .9Z" class="g2_318"/>
<path d="M549.3 714.4L544 709.5l2.8 .4l1.2 -2.6l1.3 7.1Z" class="g3_318"/>
<path d="M549.3 714.4L544 709.5l2.8 .4l1.2 -2.6l1.3 7.1ZM174.4 580.3l48.7 29.2" class="g2_318"/>
<path d="M174.7 579.1c0 .3 0 .6 -.2 .9c-.1 .3 -.2 .5 -.5 .7c-.2 .3 -.4 .4 -.7 .5c-.3 .2 -.6 .2 -.9 .2c-.3 0 -.6 0 -.9 -.2c-.2 -.1 -.5 -.2 -.7 -.5c-.2 -.2 -.4 -.4 -.5 -.7c-.1 -.3 -.2 -.6 -.2 -.9c0 -.3 .1 -.6 .2 -.8c.1 -.3 .3 -.6 .5 -.8c.2 -.2 .5 -.4 .7 -.5c.3 -.1 .6 -.2 .9 -.2c.3 0 .6 .1 .9 .2c.3 .1 .5 .3 .7 .5c.3 .2 .4 .5 .5 .8c.2 .2 .2 .5 .2 .8Z" class="g3_318"/>
<path d="M174.7 579.1c0 .3 0 .6 -.2 .9c-.1 .3 -.2 .5 -.5 .7c-.2 .3 -.4 .4 -.7 .5c-.3 .2 -.6 .2 -.9 .2c-.3 0 -.6 0 -.9 -.2c-.2 -.1 -.5 -.2 -.7 -.5c-.2 -.2 -.4 -.4 -.5 -.7c-.1 -.3 -.2 -.6 -.2 -.9c0 -.3 .1 -.6 .2 -.8c.1 -.3 .3 -.6 .5 -.8c.2 -.2 .5 -.4 .7 -.5c.3 -.1 .6 -.2 .9 -.2c.3 0 .6 .1 .9 .2c.3 .1 .5 .3 .7 .5c.3 .2 .4 .5 .5 .8c.2 .2 .2 .5 .2 .8Z" class="g2_318"/>
<path d="M227.5 612.2l-7.1 -1.6l2.7 -1.1l-.3 -2.8l4.7 5.5Z" class="g3_318"/>
<path d="M227.5 612.2l-7.1 -1.6l2.7 -1.1l-.3 -2.8l4.7 5.5ZM173.9 580.9L224.8 642" class="g2_318"/>
<path d="M174.7 579.1c0 .3 0 .6 -.2 .9c-.1 .3 -.2 .5 -.5 .7c-.2 .3 -.4 .4 -.7 .5c-.3 .2 -.6 .2 -.9 .2c-.3 0 -.6 0 -.9 -.2c-.2 -.1 -.5 -.2 -.7 -.5c-.2 -.2 -.4 -.4 -.5 -.7c-.1 -.3 -.2 -.6 -.2 -.9c0 -.3 .1 -.6 .2 -.8c.1 -.3 .3 -.6 .5 -.8c.2 -.2 .5 -.4 .7 -.5c.3 -.1 .6 -.2 .9 -.2c.3 0 .6 .1 .9 .2c.3 .1 .5 .3 .7 .5c.3 .2 .4 .5 .5 .8c.2 .2 .2 .5 .2 .8Z" class="g3_318"/>
<path d="M174.7 579.1c0 .3 0 .6 -.2 .9c-.1 .3 -.2 .5 -.5 .7c-.2 .3 -.4 .4 -.7 .5c-.3 .2 -.6 .2 -.9 .2c-.3 0 -.6 0 -.9 -.2c-.2 -.1 -.5 -.2 -.7 -.5c-.2 -.2 -.4 -.4 -.5 -.7c-.1 -.3 -.2 -.6 -.2 -.9c0 -.3 .1 -.6 .2 -.8c.1 -.3 .3 -.6 .5 -.8c.2 -.2 .5 -.4 .7 -.5c.3 -.1 .6 -.2 .9 -.2c.3 0 .6 .1 .9 .2c.3 .1 .5 .3 .7 .5c.3 .2 .4 .5 .5 .8c.2 .2 .2 .5 .2 .8Z" class="g2_318"/>
<path d="M228.1 645.9l-6.2 -3.8l2.9 -.1l.6 -2.8l2.7 6.7Z" class="g3_318"/>
<path d="M228.1 645.9l-6.2 -3.8l2.9 -.1l.6 -2.8l2.7 6.7ZM173.5 581.1L226 675.5" class="g2_318"/>
<path d="M174.7 579.1c0 .3 0 .6 -.2 .9c-.1 .3 -.2 .5 -.5 .7c-.2 .3 -.4 .4 -.7 .5c-.3 .2 -.6 .2 -.9 .2c-.3 0 -.6 0 -.9 -.2c-.2 -.1 -.5 -.2 -.7 -.5c-.2 -.2 -.4 -.4 -.5 -.7c-.1 -.3 -.2 -.6 -.2 -.9c0 -.3 .1 -.6 .2 -.8c.1 -.3 .3 -.6 .5 -.8c.2 -.2 .5 -.4 .7 -.5c.3 -.1 .6 -.2 .9 -.2c.3 0 .6 .1 .9 .2c.3 .1 .5 .3 .7 .5c.3 .2 .4 .5 .5 .8c.2 .2 .2 .5 .2 .8Z" class="g3_318"/>
<path d="M174.7 579.1c0 .3 0 .6 -.2 .9c-.1 .3 -.2 .5 -.5 .7c-.2 .3 -.4 .4 -.7 .5c-.3 .2 -.6 .2 -.9 .2c-.3 0 -.6 0 -.9 -.2c-.2 -.1 -.5 -.2 -.7 -.5c-.2 -.2 -.4 -.4 -.5 -.7c-.1 -.3 -.2 -.6 -.2 -.9c0 -.3 .1 -.6 .2 -.8c.1 -.3 .3 -.6 .5 -.8c.2 -.2 .5 -.4 .7 -.5c.3 -.1 .6 -.2 .9 -.2c.3 0 .6 .1 .9 .2c.3 .1 .5 .3 .7 .5c.3 .2 .4 .5 .5 .8c.2 .2 .2 .5 .2 .8Z" class="g2_318"/>
<path d="M228.5 680l-5.4 -4.9l2.9 .4l1.1 -2.6l1.4 7.1Z" class="g3_318"/>
<path d="M228.5 680l-5.4 -4.9l2.9 .4l1.1 -2.6l1.4 7.1Zm2.3 .2l52.5 -94.3" class="g2_318"/>
<path d="M232 682.3c0 .3 0 .5 -.2 .8c-.1 .3 -.2 .6 -.5 .8c-.2 .2 -.4 .4 -.7 .5c-.3 .1 -.6 .1 -.9 .1c-.3 0 -.6 0 -.9 -.1c-.2 -.1 -.5 -.3 -.7 -.5c-.2 -.2 -.4 -.5 -.5 -.8c-.1 -.3 -.2 -.5 -.2 -.8c0 -.4 .1 -.6 .2 -.9c.1 -.3 .3 -.6 .5 -.8c.2 -.2 .5 -.3 .7 -.5c.3 -.1 .6 -.1 .9 -.1c.3 0 .6 0 .9 .1c.3 .2 .5 .3 .7 .5c.3 .2 .4 .5 .5 .8c.2 .3 .2 .5 .2 .9Z" class="g3_318"/>
<path d="M232 682.3c0 .3 0 .5 -.2 .8c-.1 .3 -.2 .6 -.5 .8c-.2 .2 -.4 .4 -.7 .5c-.3 .1 -.6 .1 -.9 .1c-.3 0 -.6 0 -.9 -.1c-.2 -.1 -.5 -.3 -.7 -.5c-.2 -.2 -.4 -.5 -.5 -.8c-.1 -.3 -.2 -.5 -.2 -.8c0 -.4 .1 -.6 .2 -.9c.1 -.3 .3 -.6 .5 -.8c.2 -.2 .5 -.3 .7 -.5c.3 -.1 .6 -.1 .9 -.1c.3 0 .6 0 .9 .1c.3 .2 .5 .3 .7 .5c.3 .2 .4 .5 .5 .8c.2 .3 .2 .5 .2 .9Z" class="g2_318"/>
<path d="M285.8 581.4l-1.4 7.1l-1.1 -2.6l-2.9 .4l5.4 -4.9Z" class="g3_318"/>
<path d="M285.8 581.4l-1.4 7.1l-1.1 -2.6l-2.9 .4l5.4 -4.9ZM231 646l40.3 -60.5" class="g2_318"/>
<path d="M232 647.9c0 .3 0 .6 -.2 .9c-.1 .2 -.2 .5 -.5 .7c-.2 .2 -.4 .4 -.7 .5c-.3 .1 -.6 .2 -.9 .2c-.3 0 -.6 -.1 -.9 -.2c-.2 -.1 -.5 -.3 -.7 -.5c-.2 -.2 -.4 -.5 -.5 -.7c-.1 -.3 -.2 -.6 -.2 -.9c0 -.3 .1 -.6 .2 -.9c.1 -.3 .3 -.5 .5 -.7c.2 -.3 .5 -.4 .7 -.5c.3 -.2 .6 -.2 .9 -.2c.3 0 .6 0 .9 .2c.3 .1 .5 .2 .7 .5c.3 .2 .4 .4 .5 .7c.2 .3 .2 .6 .2 .9Z" class="g3_318"/>
<path d="M232 647.9c0 .3 0 .6 -.2 .9c-.1 .2 -.2 .5 -.5 .7c-.2 .2 -.4 .4 -.7 .5c-.3 .1 -.6 .2 -.9 .2c-.3 0 -.6 -.1 -.9 -.2c-.2 -.1 -.5 -.3 -.7 -.5c-.2 -.2 -.4 -.5 -.5 -.7c-.1 -.3 -.2 -.6 -.2 -.9c0 -.3 .1 -.6 .2 -.9c.1 -.3 .3 -.5 .5 -.7c.2 -.3 .5 -.4 .7 -.5c.3 -.2 .6 -.2 .9 -.2c.3 0 .6 0 .9 .2c.3 .1 .5 .2 .7 .5c.3 .2 .4 .4 .5 .7c.2 .3 .2 .6 .2 .9Z" class="g2_318"/>
<path d="M274.1 581.3l-1.9 6.9l-.9 -2.7l-2.9 .2l5.7 -4.4Z" class="g3_318"/>
<path d="M274.1 581.3l-1.9 6.9l-.9 -2.7l-2.9 .2l5.7 -4.4Zm-42.8 30.6l27.3 -27.3" class="g2_318"/>
<path d="M232 613.5c0 .3 0 .6 -.2 .9c-.1 .3 -.2 .5 -.5 .7c-.2 .2 -.4 .4 -.7 .5c-.3 .1 -.6 .2 -.9 .2c-.3 0 -.6 -.1 -.9 -.2c-.2 -.1 -.5 -.3 -.7 -.5c-.2 -.2 -.4 -.4 -.5 -.7c-.1 -.3 -.2 -.6 -.2 -.9c0 -.3 .1 -.6 .2 -.9c.1 -.3 .3 -.5 .5 -.7c.2 -.2 .5 -.4 .7 -.5c.3 -.1 .6 -.2 .9 -.2c.3 0 .6 .1 .9 .2c.3 .1 .5 .3 .7 .5c.3 .2 .4 .4 .5 .7c.2 .3 .2 .6 .2 .9Z" class="g3_318"/>
<path d="M232 613.5c0 .3 0 .6 -.2 .9c-.1 .3 -.2 .5 -.5 .7c-.2 .2 -.4 .4 -.7 .5c-.3 .1 -.6 .2 -.9 .2c-.3 0 -.6 -.1 -.9 -.2c-.2 -.1 -.5 -.3 -.7 -.5c-.2 -.2 -.4 -.4 -.5 -.7c-.1 -.3 -.2 -.6 -.2 -.9c0 -.3 .1 -.6 .2 -.9c.1 -.3 .3 -.5 .5 -.7c.2 -.2 .5 -.4 .7 -.5c.3 -.1 .6 -.2 .9 -.2c.3 0 .6 .1 .9 .2c.3 .1 .5 .3 .7 .5c.3 .2 .4 .4 .5 .7c.2 .3 .2 .6 .2 .9Z" class="g2_318"/>
<path d="M262.3 580.9l-3.3 6.5l-.4 -2.8l-2.8 -.4l6.5 -3.3Z" class="g3_318"/>
<path d="M262.3 580.9l-3.3 6.5l-.4 -2.8l-2.8 -.4l6.5 -3.3Z" class="g2_318"/>
<path clip-path="url(#c1_318)" d="M241.2 705.2h80.2v22.9H241.2V705.2Z" class="g0_318"/>
<path d="M322.5 714.6l52.4 -94.3" class="g2_318"/>
<path d="M323.7 716.6c0 .3 -.1 .6 -.2 .9c-.1 .3 -.3 .5 -.5 .7c-.2 .3 -.5 .4 -.7 .5c-.3 .2 -.6 .2 -.9 .2c-.3 0 -.6 0 -.9 -.2c-.3 -.1 -.5 -.2 -.7 -.5c-.3 -.2 -.4 -.4 -.5 -.7c-.2 -.3 -.2 -.6 -.2 -.9c0 -.3 0 -.6 .2 -.8c.1 -.3 .2 -.6 .5 -.8c.2 -.2 .4 -.4 .7 -.5c.3 -.1 .6 -.2 .9 -.2c.3 0 .6 .1 .9 .2c.2 .1 .5 .3 .7 .5c.2 .2 .4 .5 .5 .8c.1 .2 .2 .5 .2 .8Z" class="g3_318"/>
<path d="M323.7 716.6c0 .3 -.1 .6 -.2 .9c-.1 .3 -.3 .5 -.5 .7c-.2 .3 -.5 .4 -.7 .5c-.3 .2 -.6 .2 -.9 .2c-.3 0 -.6 0 -.9 -.2c-.3 -.1 -.5 -.2 -.7 -.5c-.3 -.2 -.4 -.4 -.5 -.7c-.2 -.3 -.2 -.6 -.2 -.9c0 -.3 0 -.6 .2 -.8c.1 -.3 .2 -.6 .5 -.8c.2 -.2 .4 -.4 .7 -.5c.3 -.1 .6 -.2 .9 -.2c.3 0 .6 .1 .9 .2c.2 .1 .5 .3 .7 .5c.2 .2 .4 .5 .5 .8c.1 .2 .2 .5 .2 .8Z" class="g2_318"/>
<path d="M377.4 615.7l-1.3 7.2l-1.2 -2.6l-2.8 .3l5.3 -4.9Z" class="g3_318"/>
<path d="M377.4 615.7l-1.3 7.2l-1.2 -2.6l-2.8 .3l5.3 -4.9Zm-54.5 99.2l50.8 -61.1" class="g2_318"/>
<path d="M323.7 716.6c0 .3 -.1 .6 -.2 .9c-.1 .3 -.3 .5 -.5 .7c-.2 .3 -.5 .4 -.7 .5c-.3 .2 -.6 .2 -.9 .2c-.3 0 -.6 0 -.9 -.2c-.3 -.1 -.5 -.2 -.7 -.5c-.3 -.2 -.4 -.4 -.5 -.7c-.2 -.3 -.2 -.6 -.2 -.9c0 -.3 0 -.6 .2 -.8c.1 -.3 .2 -.6 .5 -.8c.2 -.2 .4 -.4 .7 -.5c.3 -.1 .6 -.2 .9 -.2c.3 0 .6 .1 .9 .2c.2 .1 .5 .3 .7 .5c.2 .2 .4 .5 .5 .8c.1 .2 .2 .5 .2 .8Z" class="g3_318"/>
<path d="M323.7 716.6c0 .3 -.1 .6 -.2 .9c-.1 .3 -.3 .5 -.5 .7c-.2 .3 -.5 .4 -.7 .5c-.3 .2 -.6 .2 -.9 .2c-.3 0 -.6 0 -.9 -.2c-.3 -.1 -.5 -.2 -.7 -.5c-.3 -.2 -.4 -.4 -.5 -.7c-.2 -.3 -.2 -.6 -.2 -.9c0 -.3 0 -.6 .2 -.8c.1 -.3 .2 -.6 .5 -.8c.2 -.2 .4 -.4 .7 -.5c.3 -.1 .6 -.2 .9 -.2c.3 0 .6 .1 .9 .2c.2 .1 .5 .3 .7 .5c.2 .2 .4 .5 .5 .8c.1 .2 .2 .5 .2 .8Z" class="g2_318"/>
<path d="M377 649.8l-2.6 6.8l-.7 -2.8l-2.8 -.1l6.1 -3.9Z" class="g3_318"/>
<path d="M377 649.8l-2.6 6.8l-.7 -2.8l-2.8 -.1l6.1 -3.9Zm-53.7 65.6l48.8 -29.2" class="g2_318"/>
<path d="M323.7 716.6c0 .3 -.1 .6 -.2 .9c-.1 .3 -.3 .5 -.5 .7c-.2 .3 -.5 .4 -.7 .5c-.3 .2 -.6 .2 -.9 .2c-.3 0 -.6 0 -.9 -.2c-.3 -.1 -.5 -.2 -.7 -.5c-.3 -.2 -.4 -.4 -.5 -.7c-.2 -.3 -.2 -.6 -.2 -.9c0 -.3 0 -.6 .2 -.8c.1 -.3 .2 -.6 .5 -.8c.2 -.2 .4 -.4 .7 -.5c.3 -.1 .6 -.2 .9 -.2c.3 0 .6 .1 .9 .2c.2 .1 .5 .3 .7 .5c.2 .2 .4 .5 .5 .8c.1 .2 .2 .5 .2 .8Z" class="g3_318"/>
<path d="M323.7 716.6c0 .3 -.1 .6 -.2 .9c-.1 .3 -.3 .5 -.5 .7c-.2 .3 -.5 .4 -.7 .5c-.3 .2 -.6 .2 -.9 .2c-.3 0 -.6 0 -.9 -.2c-.3 -.1 -.5 -.2 -.7 -.5c-.3 -.2 -.4 -.4 -.5 -.7c-.2 -.3 -.2 -.6 -.2 -.9c0 -.3 0 -.6 .2 -.8c.1 -.3 .2 -.6 .5 -.8c.2 -.2 .4 -.4 .7 -.5c.3 -.1 .6 -.2 .9 -.2c.3 0 .6 .1 .9 .2c.2 .1 .5 .3 .7 .5c.2 .2 .4 .5 .5 .8c.1 .2 .2 .5 .2 .8Z" class="g2_318"/>
<path d="M376.5 683.6l-4.7 5.5l.3 -2.9l-2.7 -1.1l7.1 -1.5Z" class="g3_318"/>
<path d="M376.5 683.6l-4.7 5.5l.3 -2.9l-2.7 -1.1l7.1 -1.5Z" class="g2_318"/>
</g>
</svg>