<?xml version="1.0" encoding="UTF-8" standalone="no"?>
<!DOCTYPE svg PUBLIC "-//W3C//DTD SVG 1.1//EN"
"http://www.w3.org/Graphics/SVG/1.1/DTD/svg11.dtd">
<svg viewBox="0 0 714 1017" version="1.1" xmlns="http://www.w3.org/2000/svg" xmlns:xlink="http://www.w3.org/1999/xlink">
<defs>
<clipPath id="c0_167"><path d="M92.9 348.2V162.5H599.4V348.2Z"/></clipPath>
<clipPath id="c1_167"><path d="M92.9 348.8V162.4H600.1V348.8Z"/></clipPath>
<style type="text/css"><![CDATA[
.g0_167{
fill: #FFF;
}
.g1_167{
fill: none;
stroke: #000;
stroke-width: 1.145;
stroke-miterlimit: 10;
}
.g2_167{
fill: #333;
}
.g3_167{
fill: #666;
}
.g4_167{
fill: #999;
}
.g5_167{
fill: #CCC;
}
.g6_167{
fill: #000;
}
.g7_167{
fill: none;
stroke: #000;
stroke-width: 1.217;
stroke-miterlimit: 10;
}
]]></style>
</defs>
<path d="M0 1017.7H717.2V-3.7H0V1017.7Z" class="g0_167"/>
<g clip-path="url(#c1_167)">
<path clip-path="url(#c0_167)" d="M92.9 162.5H599.4V348.2H92.9V162.5Z" class="g0_167"/>
<path d="M162.2 301.1h11.5V347H162.2V301.1Z" class="g0_167"/>
<path d="M162.2 301.1h11.5V347H162.2V301.1Z" class="g1_167"/>
<path d="M208.1 301.1h11.4V347H208.1V301.1Z" class="g2_167"/>
<path d="M208.1 301.1h11.4V347H208.1V301.1Z" class="g1_167"/>
<path d="M196.6 301.1h11.5V347H196.6V301.1Z" class="g3_167"/>
<path d="M196.6 301.1h11.5V347H196.6V301.1Z" class="g1_167"/>
<path d="M185.1 301.1h11.5V347H185.1V301.1Z" class="g4_167"/>
<path d="M185.1 301.1h11.5V347H185.1V301.1Z" class="g1_167"/>
<path d="M173.7 301.1h11.4V347H173.7V301.1Z" class="g5_167"/>
<path d="M173.7 301.1h11.4V347H173.7V301.1Z" class="g1_167"/>
<path d="M219.5 301.1H231V347H219.5V301.1Z" class="g6_167"/>
<path d="M219.5 301.1H231V347H219.5V301.1Z" class="g1_167"/>
<path d="M253.9 301.1h11.5V347H253.9V301.1Z" class="g0_167"/>
<path d="M253.9 301.1h11.5V347H253.9V301.1Z" class="g1_167"/>
<path d="M299.7 301.1h11.5V347H299.7V301.1Z" class="g2_167"/>
<path d="M299.7 301.1h11.5V347H299.7V301.1Z" class="g1_167"/>
<path d="M288.3 301.1h11.4V347H288.3V301.1Z" class="g3_167"/>
<path d="M288.3 301.1h11.4V347H288.3V301.1Z" class="g1_167"/>
<path d="M276.8 301.1h11.5V347H276.8V301.1Z" class="g4_167"/>
<path d="M276.8 301.1h11.5V347H276.8V301.1Z" class="g1_167"/>
<path d="M265.4 301.1h11.4V347H265.4V301.1Z" class="g5_167"/>
<path d="M265.4 301.1h11.4V347H265.4V301.1Z" class="g1_167"/>
<path d="M311.2 301.1h11.4V347H311.2V301.1Z" class="g6_167"/>
<path d="M311.2 301.1h11.4V347H311.2V301.1Z" class="g1_167"/>
<path d="M345.6 301.1h11.5V347H345.6V301.1Z" class="g0_167"/>
<path d="M345.6 301.1h11.5V347H345.6V301.1Z" class="g1_167"/>
<path d="M391.4 301.1h11.5V347H391.4V301.1Z" class="g2_167"/>
<path d="M391.4 301.1h11.5V347H391.4V301.1Z" class="g1_167"/>
<path d="M380 301.1h11.4V347H380V301.1Z" class="g3_167"/>
<path d="M380 301.1h11.4V347H380V301.1Z" class="g1_167"/>
<path d="M368.5 301.1H380V347H368.5V301.1Z" class="g4_167"/>
<path d="M368.5 301.1H380V347H368.5V301.1Z" class="g1_167"/>
<path d="M357.1 301.1h11.4V347H357.1V301.1Z" class="g5_167"/>
<path d="M357.1 301.1h11.4V347H357.1V301.1Z" class="g1_167"/>
<path d="M402.9 301.1h11.5V347H402.9V301.1Z" class="g6_167"/>
<path d="M402.9 301.1h11.5V347H402.9V301.1Z" class="g1_167"/>
<path d="M437.3 301.1h11.4V347H437.3V301.1Z" class="g0_167"/>
<path d="M437.3 301.1h11.4V347H437.3V301.1Z" class="g1_167"/>
<path d="M483.1 301.1h11.5V347H483.1V301.1Z" class="g2_167"/>
<path d="M483.1 301.1h11.5V347H483.1V301.1Z" class="g1_167"/>
<path d="M471.7 301.1h11.4V347H471.7V301.1Z" class="g3_167"/>
<path d="M471.7 301.1h11.4V347H471.7V301.1Z" class="g1_167"/>
<path d="M460.2 301.1h11.5V347H460.2V301.1Z" class="g4_167"/>
<path d="M460.2 301.1h11.5V347H460.2V301.1Z" class="g1_167"/>
<path d="M448.7 301.1h11.5V347H448.7V301.1Z" class="g5_167"/>
<path d="M448.7 301.1h11.5V347H448.7V301.1Z" class="g1_167"/>
<path d="M494.6 301.1H506V347H494.6V301.1Z" class="g6_167"/>
<path d="M494.6 301.1H506V347H494.6V301.1Z" class="g1_167"/>
<path d="M529.8 301.1h11.5V347H529.8V301.1Z" class="g0_167"/>
<path d="M529.8 301.1h11.5V347H529.8V301.1Z" class="g1_167"/>
<path d="M575.6 301.1h11.5V347H575.6V301.1Z" class="g2_167"/>
<path d="M575.6 301.1h11.5V347H575.6V301.1Z" class="g1_167"/>
<path d="M564.2 301.1h11.4V347H564.2V301.1Z" class="g3_167"/>
<path d="M564.2 301.1h11.4V347H564.2V301.1Z" class="g1_167"/>
<path d="M552.7 301.1h11.5V347H552.7V301.1Z" class="g4_167"/>
<path d="M552.7 301.1h11.5V347H552.7V301.1Z" class="g1_167"/>
<path d="M541.3 301.1h11.4V347H541.3V301.1Z" class="g5_167"/>
<path d="M541.3 301.1h11.4V347H541.3V301.1Z" class="g1_167"/>
<path d="M587.1 301.1h11.5V347H587.1V301.1Z" class="g6_167"/>
<path d="M587.1 301.1h11.5V347H587.1V301.1Zm-335 -91H504.2v45.8H252.1V210.1Zm24.7 11.5h65.3c.2 0 .4 0 .6 .1c.2 .1 .4 .2 .6 .4c.1 .1 .3 .3 .4 .5c0 .2 .1 .4 .1 .7v8c0 .2 -.1 .4 -.1 .6c-.1 .3 -.3 .4 -.4 .6c-.2 .2 -.4 .3 -.6 .4c-.2 .1 -.4 .1 -.6 .1H276.8c-.3 0 -.5 0 -.7 -.1c-.2 -.1 -.4 -.2 -.6 -.4c-.1 -.2 -.2 -.3 -.3 -.6c-.1 -.2 -.2 -.4 -.2 -.6v-8c0 -.3 .1 -.5 .2 -.7c.1 -.2 .2 -.4 .3 -.5c.2 -.2 .4 -.3 .6 -.4c.2 -.1 .4 -.1 .7 -.1Zm137.5 0h65.3c.2 0 .4 0 .6 .1c.2 .1 .4 .2 .6 .4c.1 .1 .3 .3 .4 .5c0 .2 .1 .4 .1 .7v8c0 .2 -.1 .4 -.1 .6c-.1 .3 -.3 .4 -.4 .6c-.2 .2 -.4 .3 -.6 .4c-.2 .1 -.4 .1 -.6 .1H414.3c-.3 0 -.5 0 -.7 -.1c-.2 -.1 -.4 -.2 -.6 -.4c-.1 -.2 -.2 -.3 -.3 -.6c-.1 -.2 -.2 -.4 -.2 -.6v-8c0 -.3 .1 -.5 .2 -.7c.1 -.2 .2 -.4 .3 -.5c.2 -.2 .4 -.3 .6 -.4c.2 -.1 .4 -.1 .7 -.1ZM383.9 168.8c0 .8 -.2 1.5 -.4 2.2c-.3 .7 -.7 1.4 -1.3 1.9c-.5 .5 -1.1 .9 -1.8 1.2c-.7 .3 -1.5 .5 -2.2 .5c-.8 0 -1.5 -.2 -2.2 -.5c-.7 -.3 -1.4 -.7 -1.9 -1.2c-.5 -.5 -.9 -1.2 -1.2 -1.9c-.3 -.7 -.5 -1.4 -.5 -2.2c0 -.7 .2 -1.4 .5 -2.2c.3 -.7 .7 -1.3 1.2 -1.8c.5 -.5 1.2 -1 1.9 -1.3c.7 -.2 1.4 -.4 2.2 -.4c.7 0 1.5 .2 2.2 .4c.7 .3 1.3 .8 1.8 1.3c.6 .5 1 1.1 1.3 1.8c.2 .8 .4 1.5 .4 2.2ZM196.6 301.1V278.6c0 -7.6 3.8 -11.4 11.5 -11.4h72.7c7.7 0 11.5 -3.9 11.5 -11.5l-.1 -15.4" class="g1_167"/>
<path d="M292.2 234.3l2.7 8l-2.7 -2l-2.6 2l2.6 -8Z" class="g6_167"/>
<path d="M292.2 234.3l2.7 8l-2.7 -2l-2.6 2l2.6 -8Zm272 66.8V278.6c0 -7.6 -3.8 -11.4 -11.5 -11.4H475.6c-7.6 0 -11.5 -3.9 -11.5 -11.5V240.3" class="g1_167"/>
<path d="M464.1 234.3l2.7 8l-2.7 -2l-2.7 2l2.7 -8Z" class="g6_167"/>
<path d="M464.1 234.3l2.7 8l-2.7 -2l-2.7 2l2.7 -8ZM446.9 221.6V209.5c.1 -7.6 -3.7 -11.4 -11.4 -11.4H393.7c-7.7 0 -11.5 -3 -11.5 -9v-8.9" class="g1_167"/>
<path d="M382.2 174.2l2.7 8l-2.7 -2l-2.7 2l2.7 -8Z" class="g6_167"/>
<path d="M382.2 174.2l2.7 8l-2.7 -2l-2.7 2l2.7 -8ZM288.3 301.1V278.6c0 -7.6 3.5 -11.4 10.6 -11.4h5.3c3.5 0 5.3 -3.9 5.2 -11.5V240.3" class="g1_167"/>
<path d="M309.4 234.3l2.7 8l-2.7 -2l-2.6 2l2.6 -8Z" class="g6_167"/>
<path d="M309.4 234.3l2.7 8l-2.7 -2l-2.6 2l2.6 -8ZM380 301.1l-.1 -22.5c0 -7.6 -3.8 -11.4 -11.4 -11.4H338.1c-7.6 0 -11.5 -3.9 -11.5 -11.5V240.3" class="g1_167"/>
<path d="M326.6 234.3l2.7 8l-2.7 -2l-2.7 2l2.7 -8Z" class="g6_167"/>
<path d="M326.6 234.3l2.7 8l-2.7 -2l-2.7 2l2.7 -8Zm145.1 66.8l-.1 -11.9c0 -7.7 -3.8 -11.5 -11.5 -11.5H441.2c-7.6 0 -11.4 -3.8 -11.4 -11.5l-.1 -25.9" class="g1_167"/>
<path d="M429.7 234.3l2.7 8l-2.7 -2l-2.6 2l2.6 -8Z" class="g6_167"/>
<path d="M429.7 234.3l2.7 8l-2.7 -2l-2.6 2l2.6 -8ZM309.4 221.6V209.5c.1 -7.6 3.9 -11.4 11.5 -11.4h41.7c7.7 0 11.5 -3 11.5 -9v-8.9" class="g1_167"/>
<path d="M374.1 174.2l2.7 8l-2.7 -2l-2.7 2l2.7 -8Z" class="g6_167"/>
<path d="M374.1 174.2l2.7 8l-2.7 -2l-2.7 2l2.7 -8ZM104.9 314.7c0 -4 7.7 -7.2 17.2 -7.2c4.6 0 9 .8 12.2 2.1c3.2 1.4 5 3.2 5 5.1v19.9c0 4 -7.7 7.3 -17.2 7.3c-9.5 0 -17.2 -3.3 -17.2 -7.3V314.7Zm34.4 0c0 4.1 -7.7 7.3 -17.2 7.3c-9.5 0 -17.2 -3.2 -17.2 -7.3m5.8 -93.1h22.9v22.9H110.7V221.6Zm5.7 0v-5.8m5.7 0v5.8m5.8 -5.8v5.8m-11.5 28.6v-5.7m5.7 0v5.7m5.8 -5.7v5.7m5.7 -22.9h5.7m0 5.7h-5.7m5.7 5.7h-5.7M104.9 227.3h5.8m0 5.7h-5.8m5.8 5.7h-5.8" class="g1_167"/>
<path d="M93.5 287.4h1.1v1.2H93.5m5.7 -1.2h1.2v1.2H99.2m5.7 -1.2h1.2v1.2h-1.2m5.8 -1.2h1.1v1.2h-1.1m5.7 -1.2h1.1v1.2h-1.1m5.7 -1.2h1.2v1.2h-1.2m5.8 -1.2H129v1.2h-1.1m5.7 -1.2h1.1v1.2h-1.1m5.7 -1.2h1.2v1.2h-1.2m5.7 -1.2h1.2v1.2H145m5.8 -1.2h1.1v1.2h-1.1m5.7 -1.2h1.1v1.2h-1.1m5.7 -1.2h1.2v1.2h-1.2m5.8 -1.2h1.1v1.2H168m5.7 -1.2h1.1v1.2h-1.1m5.7 -1.2h1.2v1.2h-1.2m5.7 -1.2h1.2v1.2h-1.2m5.8 -1.2H192v1.2h-1.1m5.7 -1.2h1.2v1.2h-1.2m5.7 -1.2h1.2v1.2h-1.2m5.8 -1.2h1.1v1.2h-1.1m5.7 -1.2h1.1v1.2h-1.1m5.7 -1.2h1.2v1.2h-1.2m5.8 -1.2h1.1v1.2h-1.1m5.7 -1.2h1.1v1.2H231m5.7 -1.2h1.2v1.2h-1.2m5.7 -1.2h1.2v1.2h-1.2m5.8 -1.2h1.1v1.2h-1.1m5.7 -1.2H255v1.2h-1.1m5.7 -1.2h1.2v1.2h-1.2m5.8 -1.2h1.1v1.2h-1.1m5.7 -1.2h1.1v1.2h-1.1m5.7 -1.2H278v1.2h-1.2m5.7 -1.2h1.2v1.2h-1.2m5.8 -1.2h1.1v1.2h-1.1m5.7 -1.2h1.1v1.2H294m5.7 -1.2h1.2v1.2h-1.2m5.8 -1.2h1.1v1.2h-1.1m5.7 -1.2h1.1v1.2h-1.1m5.7 -1.2h1.2v1.2h-1.2m5.7 -1.2h1.2v1.2h-1.2m5.8 -1.2h1.1v1.2h-1.1m5.7 -1.2h1.2v1.2h-1.2m5.7 -1.2H341v1.2h-1.2m5.8 -1.2h1.1v1.2h-1.1m5.7 -1.2h1.1v1.2h-1.1m5.7 -1.2h1.2v1.2H357m5.8 -1.2h1.1v1.2h-1.1m5.7 -1.2h1.1v1.2h-1.1m5.7 -1.2h1.2v1.2h-1.2m5.7 -1.2h1.2v1.2h-1.2m5.8 -1.2h1.1v1.2h-1.1m5.7 -1.2h1.1v1.2h-1.1m5.7 -1.2h1.2v1.2h-1.2m5.8 -1.2H404v1.2h-1.1m5.7 -1.2h1.1v1.2h-1.1m5.7 -1.2h1.2v1.2h-1.2m5.7 -1.2h1.2v1.2H420m5.8 -1.2h1.1v1.2h-1.1m5.7 -1.2h1.1v1.2h-1.1m5.7 -1.2h1.2v1.2h-1.2m5.8 -1.2h1.1v1.2H443m5.7 -1.2h1.1v1.2h-1.1m5.7 -1.2h1.2v1.2h-1.2m5.7 -1.2h1.2v1.2h-1.2m5.8 -1.2H467v1.2h-1.1m5.7 -1.2h1.2v1.2h-1.2m5.7 -1.2h1.2v1.2h-1.2m5.8 -1.2h1.1v1.2h-1.1m5.7 -1.2h1.1v1.2h-1.1m5.7 -1.2h1.2v1.2h-1.2m5.8 -1.2h1.1v1.2h-1.1m5.7 -1.2h1.1v1.2H506m5.7 -1.2h1.2v1.2h-1.2m5.7 -1.2h1.2v1.2h-1.2m5.8 -1.2h1.1v1.2h-1.1m5.7 -1.2H530v1.2h-1.1m5.7 -1.2h1.2v1.2h-1.2m5.8 -1.2h1.1v1.2h-1.1m5.7 -1.2h1.1v1.2h-1.1m5.7 -1.2H553v1.2h-1.2m5.7 -1.2h1.2v1.2h-1.2m5.8 -1.2h1.1v1.2h-1.1m5.7 -1.2h1.1v1.2H569m5.7 -1.2h1.2v1.2h-1.2m5.8 -1.2h1.1v1.2h-1.1m5.7 -1.2h1.1v1.2h-1.1m5.7 -1.2h1.2v1.2h-1.2Z" class="g6_167"/>
</g>
<path d="M67.1 866.9V787.8c0 -2.4 2 -4.3 4.4 -4.3h550c2.4 0 4.3 1.9 4.3 4.3v79.1c0 2.4 -1.9 4.3 -4.3 4.3H71.5c-2.4 0 -4.4 -1.9 -4.4 -4.3Z" class="g0_167"/>
<path d="M65 781.3v92.1" class="g7_167"/>
</svg>