<?xml version="1.0" encoding="UTF-8" standalone="no"?>
<!DOCTYPE svg PUBLIC "-//W3C//DTD SVG 1.1//EN"
"http://www.w3.org/Graphics/SVG/1.1/DTD/svg11.dtd">
<svg viewBox="0 0 714 1017" version="1.1" xmlns="http://www.w3.org/2000/svg" xmlns:xlink="http://www.w3.org/1999/xlink">
<defs>
<clipPath id="c0_262"><path d="M96.2 386.3V264.9H640.1V386.3Z"/></clipPath>
<clipPath id="c1_262"><path d="M96.2 387V264.7H640.1V387Z"/></clipPath>
<style type="text/css"><![CDATA[
.g0_262{
fill: #FFF;
}
.g1_262{
fill: none;
stroke: #000;
stroke-width: 1.145;
stroke-miterlimit: 10;
}
.g2_262{
fill: none;
stroke: #000;
stroke-width: 0.608;
stroke-miterlimit: 10;
}
]]></style>
</defs>
<path d="M0 1017.7H717.2V-3.7H0V1017.7Z" class="g0_262"/>
<g clip-path="url(#c1_262)">
<path clip-path="url(#c0_262)" d="M96.2 264.9H640.5V386.3H96.2V264.9Z" class="g0_262"/>
<path d="M509.3 265.4h126v91.7h-126V265.4Zm-412.5 0H280.1v23H96.8v-23Zm0 23H280.1v22.9H96.8V288.4Zm0 22.9H280.1v22.9H96.8V311.3Zm0 22.9H280.1v22.9H96.8V334.2ZM303.1 265.4H486.4v23H303.1v-23Zm0 23H486.4v22.9H303.1V288.4Z" class="g1_262"/>
</g>
<path d="M86.6 849.8H196.2" class="g2_262"/>
</svg>