<?xml version="1.0" encoding="UTF-8" standalone="no"?>
<!DOCTYPE svg PUBLIC "-//W3C//DTD SVG 1.1//EN"
"http://www.w3.org/Graphics/SVG/1.1/DTD/svg11.dtd">
<svg viewBox="0 0 714 1017" version="1.1" xmlns="http://www.w3.org/2000/svg" xmlns:xlink="http://www.w3.org/1999/xlink">
<defs>
<clipPath id="c0_364"><path d="M87.1 883.1V666.6H649.3V883.1Z"/></clipPath>
<clipPath id="c1_364"><path d="M87.1 883.6V665.2H649.3V883.6Z"/></clipPath>
<style type="text/css"><![CDATA[
.g0_364{
fill: #FFF;
}
.g1_364{
fill: none;
stroke: #000;
stroke-width: 1.145;
stroke-miterlimit: 10;
}
.g2_364{
fill: #000;
}
]]></style>
</defs>
<path d="M0 1017.7H717.2V-3.7H0V1017.7Z" class="g0_364"/>
<g clip-path="url(#c1_364)">
<path clip-path="url(#c0_364)" d="M87.1 666.6H649.7V883.1H87.1V666.6Z" class="g0_364"/>
<path d="M87.6 736.5H259.5V861.9H87.6V736.5Z" class="g0_364"/>
<path d="M87.6 736.5H259.5V861.9H87.6V736.5Z" class="g1_364"/>
<path d="M93.4 759.4c0 -15.3 68.7 -15.3 68.7 0v34.4c0 15.2 -68.7 15.2 -68.7 0V759.4Z" class="g0_364"/>
<path d="M93.4 759.4c0 -15.3 68.7 -15.3 68.7 0v34.4c0 15.2 -68.7 15.2 -68.7 0V759.4Zm0 0c0 11.4 68.7 11.4 68.7 0" class="g1_364"/>
<path d="M93.4 667.1h68.7v44.2H93.4V667.1Z" class="g0_364"/>
<path d="M93.4 667.1h68.7v44.2H93.4V667.1Z" class="g1_364"/>
<path d="M185 759.4c0 -15.3 68.8 -15.3 68.8 0v34.4c0 15.2 -68.8 15.2 -68.8 0V759.4Z" class="g0_364"/>
<path d="M185 759.4c0 -15.3 68.8 -15.3 68.8 0v34.4c0 15.2 -68.8 15.2 -68.8 0V759.4Zm0 0c0 11.4 68.8 11.4 68.8 0M127.7 753.6V716" class="g1_364"/>
<path d="M127.7 757.1l-2.3 -4.6l2.3 1.1l2.3 -1.1l-2.3 4.6Z" class="g2_364"/>
<path d="M127.7 757.1l-2.3 -4.6l2.3 1.1l2.3 -1.1l-2.3 4.6Z" class="g1_364"/>
<path d="M127.7 712.5l2.3 4.6L127.7 716l-2.3 1.1l2.3 -4.6Z" class="g2_364"/>
<path d="M127.7 712.5l2.3 4.6L127.7 716l-2.3 1.1l2.3 -4.6Z" class="g1_364"/>
<path d="M281.3 736.5H453.2V861.9H281.3V736.5Z" class="g0_364"/>
<path d="M281.3 736.5H453.2V861.9H281.3V736.5Z" class="g1_364"/>
<path d="M286.5 759.4c0 -15.3 68.6 -15.3 68.6 0v34.4c0 15.2 -68.6 15.2 -68.6 0V759.4Z" class="g0_364"/>
<path d="M286.5 759.4c0 -15.3 68.6 -15.3 68.6 0v34.4c0 15.2 -68.6 15.2 -68.6 0V759.4Zm0 0c0 11.4 68.6 11.4 68.6 0" class="g1_364"/>
<path d="M286.4 667.1h68.8v44.2H286.4V667.1Z" class="g0_364"/>
<path d="M286.4 667.1h68.8v44.2H286.4V667.1Z" class="g1_364"/>
<path d="M378.7 759.4c0 -15.3 68.7 -15.3 68.7 0v34.4c0 15.2 -68.7 15.2 -68.7 0V759.4Z" class="g0_364"/>
<path d="M378.7 759.4c0 -15.3 68.7 -15.3 68.7 0v34.4c0 15.2 -68.7 15.2 -68.7 0V759.4Zm0 0c0 11.4 68.7 11.4 68.7 0M320.8 753.6V716" class="g1_364"/>
<path d="M320.8 757.1l-2.3 -4.6l2.3 1.1l2.3 -1.1l-2.3 4.6Z" class="g2_364"/>
<path d="M320.8 757.1l-2.3 -4.6l2.3 1.1l2.3 -1.1l-2.3 4.6Z" class="g1_364"/>
<path d="M320.8 712.5l2.3 4.6L320.8 716l-2.3 1.1l2.3 -4.6Z" class="g2_364"/>
<path d="M320.8 712.5l2.3 4.6L320.8 716l-2.3 1.1l2.3 -4.6Z" class="g1_364"/>
<path d="M378.7 667.1h68.7v44.2H378.7V667.1Z" class="g0_364"/>
<path d="M378.7 667.1h68.7v44.2H378.7V667.1ZM413 754.7V716" class="g1_364"/>
<path d="M413 758.1l-2.2 -4.6l2.2 1.2l2.3 -1.2l-2.3 4.6Z" class="g2_364"/>
<path d="M413 758.1l-2.2 -4.6l2.2 1.2l2.3 -1.2l-2.3 4.6Z" class="g1_364"/>
<path d="M413 712.5l2.3 4.6L413 716l-2.2 1.1l2.2 -4.6Z" class="g2_364"/>
<path d="M413 712.5l2.3 4.6L413 716l-2.2 1.1l2.2 -4.6Z" class="g1_364"/>
<path d="M185 667.1h68.8v44.2H185V667.1Z" class="g0_364"/>
<path d="M191.9 666.6h3.4v1.1h-3.4v-1.1Zm6.9 0h3.4v1.1h-3.4v-1.1Zm6.9 0h3.4v1.1h-3.4v-1.1Zm6.8 0H216v1.1h-3.5v-1.1Zm6.9 0h3.4v1.1h-3.4v-1.1Zm6.9 0h3.4v1.1h-3.4v-1.1Zm6.9 0h3.4v1.1h-3.4v-1.1Zm6.8 0h3.5v1.1H240v-1.1Zm6.9 0h3.4v1.1h-3.4v-1.1Zm7.5 .5v3.5h-1.2v-3.5h1.2Zm0 6.9v3.5h-1.2V674h1.2Zm0 6.9v3.4h-1.2v-3.4h1.2Zm0 6.9v3.4h-1.2v-3.4h1.2Zm0 6.8v3.5h-1.2v-3.5h1.2Zm0 6.9V705h-1.2v-3.5h1.2Zm0 6.9v3.4h-1.2v-1.1h.6v.6h-.6v-2.9h1.2Zm-4.6 3.4h-3.5v-1.1h3.5v1.1Zm-6.9 0h-3.4v-1.1h3.4v1.1Zm-6.9 0h-3.4v-1.1H236v1.1Zm-6.9 0h-3.4v-1.1h3.4v1.1Zm-6.8 0h-3.5v-1.1h3.5v1.1Zm-6.9 0H212v-1.1h3.4v1.1Zm-6.9 0h-3.4v-1.1h3.4v1.1Zm-6.9 0h-3.4v-1.1h3.4v1.1Zm-6.8 0h-3.5v-1.1h3.5v1.1Zm-6.9 0h-3.4v-1.1h1.1v.6H185v-.6h2.9v1.1Zm-3.4 -4.6v-3.4h1.1v3.4h-1.1Zm0 -6.8v-3.5h1.1v3.5h-1.1Zm0 -6.9v-3.4h1.1v3.4h-1.1Zm0 -6.9v-3.4h1.1v3.4h-1.1Zm0 -6.9v-3.4h1.1v3.4h-1.1Zm0 -6.8v-3.5h1.1v3.5h-1.1Zm.5 -6.3h3.5v1.1H185v-1.1Z" class="g2_364"/>
<path d="M289 828.1h63.6c.3 0 .5 .1 .8 .2c.2 .1 .4 .2 .6 .4c.2 .2 .4 .4 .5 .7c.1 .2 .1 .5 .1 .7v18.4c0 .2 0 .5 -.1 .7c-.1 .3 -.3 .5 -.5 .7c-.2 .2 -.4 .3 -.6 .4c-.3 .1 -.5 .2 -.8 .2H289c-.3 0 -.5 -.1 -.8 -.2c-.2 -.1 -.4 -.2 -.6 -.4c-.2 -.2 -.3 -.4 -.4 -.7c-.1 -.2 -.2 -.5 -.2 -.7V830.1c0 -.2 .1 -.5 .2 -.7c.1 -.3 .2 -.5 .4 -.7c.2 -.2 .4 -.3 .6 -.4c.3 -.1 .5 -.2 .8 -.2Z" class="g0_364"/>
<path d="M289 828.1h63.6c.3 0 .5 .1 .8 .2c.2 .1 .4 .2 .6 .4c.2 .2 .4 .4 .5 .7c.1 .2 .1 .5 .1 .7v18.4c0 .2 0 .5 -.1 .7c-.1 .3 -.3 .5 -.5 .7c-.2 .2 -.4 .3 -.6 .4c-.3 .1 -.5 .2 -.8 .2H289c-.3 0 -.5 -.1 -.8 -.2c-.2 -.1 -.4 -.2 -.6 -.4c-.2 -.2 -.3 -.4 -.4 -.7c-.1 -.2 -.2 -.5 -.2 -.7V830.1c0 -.2 .1 -.5 .2 -.7c.1 -.3 .2 -.5 .4 -.7c.2 -.2 .4 -.3 .6 -.4c.3 -.1 .5 -.2 .8 -.2Z" class="g1_364"/>
<path d="M381.3 828.1h63.5c.3 0 .6 .1 .8 .2c.3 .1 .5 .2 .7 .4c.2 .2 .3 .4 .4 .7c.1 .2 .2 .5 .2 .7v18.4c0 .2 -.1 .5 -.2 .7c-.1 .3 -.2 .5 -.4 .7c-.2 .2 -.4 .3 -.7 .4c-.2 .1 -.5 .2 -.8 .2H381.3c-.3 0 -.6 -.1 -.8 -.2c-.3 -.1 -.5 -.2 -.7 -.4c-.2 -.2 -.3 -.4 -.4 -.7c-.1 -.2 -.2 -.5 -.2 -.7V830.1c0 -.2 .1 -.5 .2 -.7c.1 -.3 .2 -.5 .4 -.7c.2 -.2 .4 -.3 .7 -.4c.2 -.1 .5 -.2 .8 -.2Z" class="g0_364"/>
<path d="M381.3 828.1h63.5c.3 0 .6 .1 .8 .2c.3 .1 .5 .2 .7 .4c.2 .2 .3 .4 .4 .7c.1 .2 .2 .5 .2 .7v18.4c0 .2 -.1 .5 -.2 .7c-.1 .3 -.2 .5 -.4 .7c-.2 .2 -.4 .3 -.7 .4c-.2 .1 -.5 .2 -.8 .2H381.3c-.3 0 -.6 -.1 -.8 -.2c-.3 -.1 -.5 -.2 -.7 -.4c-.2 -.2 -.3 -.4 -.4 -.7c-.1 -.2 -.2 -.5 -.2 -.7V830.1c0 -.2 .1 -.5 .2 -.7c.1 -.3 .2 -.5 .4 -.7c.2 -.2 .4 -.3 .7 -.4c.2 -.1 .5 -.2 .8 -.2Z" class="g1_364"/>
<path d="M477.2 736.5H649.1V861.9H477.2V736.5Z" class="g0_364"/>
<path d="M477.2 736.5H649.1V861.9H477.2V736.5Z" class="g1_364"/>
<path d="M482.9 667.1h68.6v44.2H482.9V667.1Z" class="g0_364"/>
<path d="M482.9 667.1h68.6v44.2H482.9V667.1Z" class="g1_364"/>
<path d="M574.6 759.4c0 -15.3 68.6 -15.3 68.6 0v34.4c0 15.2 -68.6 15.2 -68.6 0V759.4Z" class="g0_364"/>
<path d="M574.6 759.4c0 -15.3 68.6 -15.3 68.6 0v34.4c0 15.2 -68.6 15.2 -68.6 0V759.4Zm0 0c0 11.4 68.6 11.4 68.6 0" class="g1_364"/>
<path d="M485 828.1h64.5c.3 0 .5 .1 .8 .2c.2 .1 .4 .2 .6 .4c.2 .2 .4 .4 .5 .7c.1 .2 .1 .5 .1 .7v18.4c0 .2 0 .5 -.1 .7c-.1 .3 -.3 .5 -.5 .7c-.2 .2 -.4 .3 -.6 .4c-.3 .1 -.5 .2 -.8 .2H485c-.3 0 -.6 -.1 -.8 -.2c-.3 -.1 -.5 -.2 -.7 -.4c-.2 -.2 -.3 -.4 -.4 -.7c-.1 -.2 -.2 -.5 -.2 -.7V830.1c0 -.2 .1 -.5 .2 -.7c.1 -.3 .2 -.5 .4 -.7c.2 -.2 .4 -.3 .7 -.4c.2 -.1 .5 -.2 .8 -.2Z" class="g0_364"/>
<path d="M485 828.1h64.5c.3 0 .5 .1 .8 .2c.2 .1 .4 .2 .6 .4c.2 .2 .4 .4 .5 .7c.1 .2 .1 .5 .1 .7v18.4c0 .2 0 .5 -.1 .7c-.1 .3 -.3 .5 -.5 .7c-.2 .2 -.4 .3 -.6 .4c-.3 .1 -.5 .2 -.8 .2H485c-.3 0 -.6 -.1 -.8 -.2c-.3 -.1 -.5 -.2 -.7 -.4c-.2 -.2 -.3 -.4 -.4 -.7c-.1 -.2 -.2 -.5 -.2 -.7V830.1c0 -.2 .1 -.5 .2 -.7c.1 -.3 .2 -.5 .4 -.7c.2 -.2 .4 -.3 .7 -.4c.2 -.1 .5 -.2 .8 -.2Z" class="g1_364"/>
<path d="M576.6 828.1h64.6c.2 0 .5 .1 .7 .2c.3 .1 .5 .2 .7 .4c.2 .2 .3 .4 .4 .7c.1 .2 .2 .5 .2 .7v18.4c0 .2 -.1 .5 -.2 .7c-.1 .3 -.2 .5 -.4 .7c-.2 .2 -.4 .3 -.7 .4c-.2 .1 -.5 .2 -.7 .2H576.6c-.2 0 -.5 -.1 -.7 -.2c-.3 -.1 -.5 -.2 -.7 -.4c-.2 -.2 -.3 -.4 -.4 -.7c-.1 -.2 -.2 -.5 -.2 -.7V830.1c0 -.2 .1 -.5 .2 -.7c.1 -.3 .2 -.5 .4 -.7c.2 -.2 .4 -.3 .7 -.4c.2 -.1 .5 -.2 .7 -.2Z" class="g0_364"/>
<path d="M576.6 828.1h64.6c.2 0 .5 .1 .7 .2c.3 .1 .5 .2 .7 .4c.2 .2 .3 .4 .4 .7c.1 .2 .2 .5 .2 .7v18.4c0 .2 -.1 .5 -.2 .7c-.1 .3 -.2 .5 -.4 .7c-.2 .2 -.4 .3 -.7 .4c-.2 .1 -.5 .2 -.7 .2H576.6c-.2 0 -.5 -.1 -.7 -.2c-.3 -.1 -.5 -.2 -.7 -.4c-.2 -.2 -.3 -.4 -.4 -.7c-.1 -.2 -.2 -.5 -.2 -.7V830.1c0 -.2 .1 -.5 .2 -.7c.1 -.3 .2 -.5 .4 -.7c.2 -.2 .4 -.3 .7 -.4c.2 -.1 .5 -.2 .7 -.2Z" class="g1_364"/>
<path d="M482.9 759.4c0 -15.3 68.6 -15.3 68.6 0v34.4c0 15.2 -68.6 15.2 -68.6 0V759.4Z" class="g0_364"/>
<path d="M482.9 759.4c0 -15.3 68.6 -15.3 68.6 0v34.4c0 15.2 -68.6 15.2 -68.6 0V759.4Zm0 0c0 11.4 68.6 11.4 68.6 0" class="g1_364"/>
<path d="M561 787.5l17 7.8l-17 7.9v-4.6c-15.9 0 -28.8 19.9 -28.8 44.4c0 -28.1 12.9 -51 28.8 -51v-4.5Z" class="g0_364"/>
<path d="M561 787.5l17 7.8l-17 7.9v-4.6c-15.9 0 -28.8 19.9 -28.8 44.4c0 -28.1 12.9 -51 28.8 -51v-4.5ZM517.2 753.6V716" class="g1_364"/>
<path d="M517.2 757.1l-2.3 -4.6l2.3 1.1l2.3 -1.1l-2.3 4.6Z" class="g2_364"/>
<path d="M517.2 757.1l-2.3 -4.6l2.3 1.1l2.3 -1.1l-2.3 4.6Z" class="g1_364"/>
<path d="M517.2 712.5l2.3 4.6L517.2 716l-2.3 1.1l2.3 -4.6Z" class="g2_364"/>
<path d="M517.2 712.5l2.3 4.6L517.2 716l-2.3 1.1l2.3 -4.6Z" class="g1_364"/>
<path d="M574.6 667.1h68.6v44.2H574.6V667.1Z" class="g0_364"/>
<path d="M581.5 666.6h3.4v1.1h-3.4v-1.1Zm6.9 0h3.4v1.1h-3.4v-1.1Zm6.8 0h3.5v1.1h-3.5v-1.1Zm6.9 0h3.4v1.1h-3.4v-1.1Zm6.9 0h3.4v1.1H609v-1.1Zm6.9 0h3.4v1.1h-3.4v-1.1Zm6.8 0h3.5v1.1h-3.5v-1.1Zm6.9 0H633v1.1h-3.4v-1.1Zm6.9 0h3.4v1.1h-3.4v-1.1Zm7.3 .7v3.5h-1.2v-3.5h1.2Zm0 6.9v3.4h-1.2v-3.4h1.2Zm0 6.9v3.4h-1.2v-3.4h1.2Zm0 6.8v3.5h-1.2v-3.5h1.2Zm0 6.9v3.5h-1.2v-3.5h1.2Zm0 6.9v3.4h-1.2v-3.4h1.2Zm0 6.9v3.2h-1.4v-1.1h.8v.6h-.6v-2.7h1.2Zm-4.8 3.2h-3.5v-1.1H639v1.1Zm-6.9 0h-3.4v-1.1h3.4v1.1Zm-6.9 0h-3.4v-1.1h3.4v1.1Zm-6.8 0h-3.5v-1.1h3.5v1.1Zm-6.9 0H608v-1.1h3.5v1.1Zm-6.9 0h-3.4v-1.1h3.4v1.1Zm-6.9 0h-3.4v-1.1h3.4v1.1Zm-6.8 0h-3.5v-1.1h3.5v1.1Zm-6.9 0h-3.5v-1.1H584v1.1Zm-6.9 0H574v-1.5h1.2v1h-.6v-.6h2.5v1.1ZM574 706.9v-3.5h1.2v3.5H574Zm0 -6.9v-3.4h1.2V700H574Zm0 -6.9v-3.4h1.2v3.4H574Zm0 -6.8v-3.5h1.2v3.5H574Zm0 -6.9v-3.5h1.2v3.5H574Zm0 -6.9v-3.4h1.2v3.4H574Zm.6 -5.9H578v1.1h-3.4v-1.1Z" class="g2_364"/>
<path d="M321.4 805.2v3.4h-1.2v-3.4m1.2 6.9v3.4h-1.2v-3.4m1.2 6.9v3.4h-1.2V819Z" class="g2_364"/>
<path d="M320.8 826.8l-1.5 -4.5l1.5 1.1l1.5 -1.1l-1.5 4.5Z" class="g2_364"/>
<path d="M320.8 826.8l-1.5 -4.5l1.5 1.1l1.5 -1.1l-1.5 4.5Z" class="g1_364"/>
<path d="M413.6 805.2v3.4h-1.1v-3.4m1.1 6.9v3.4h-1.1v-3.4m1.1 6.9v3.4h-1.1V819Z" class="g2_364"/>
<path d="M413 826.8l-1.5 -4.5l1.5 1.1l1.6 -1.1l-1.6 4.5Z" class="g2_364"/>
<path d="M413 826.8l-1.5 -4.5l1.5 1.1l1.6 -1.1l-1.6 4.5Z" class="g1_364"/>
<path d="M159.8 769.8h11.6v-4.7l17.1 11.5L171.4 788v-4.7H159.8V769.8Z" class="g0_364"/>
<path d="M159.8 769.8h11.6v-4.7l17.1 11.5L171.4 788v-4.7H159.8V769.8Z" class="g1_364"/>
<path d="M549.2 769.8h11.6v-4.7l17.1 11.5L560.8 788v-4.7H549.2V769.8Z" class="g0_364"/>
<path d="M549.2 769.8h11.6v-4.7l17.1 11.5L560.8 788v-4.7H549.2V769.8Z" class="g1_364"/>
<path d="M488.6 821.8h1.1V823h-1.1v-1.2Zm3.4 0h1.1V823H492v-1.2Zm3.4 0h1.2V823h-1.2v-1.2Zm3.5 0H500V823h-1.1v-1.2Zm3.4 0h1.2V823h-1.2v-1.2Zm3.4 0h1.2V823h-1.2v-1.2Zm3.5 0h1.1V823h-1.1v-1.2Zm3.4 0h1.2V823h-1.2v-1.2Zm3.5 0h1.1V823h-1.1v-1.2Zm3.4 0h1.1V823h-1.1v-1.2Zm3.4 0h1.2V823h-1.2v-1.2Zm3.5 0h1.1V823h-1.1v-1.2Zm3.4 0H531V823h-1.2v-1.2Zm3.4 0h1.2V823h-1.2v-1.2Zm3.5 0h1.1V823h-1.1v-1.2Zm3.4 0h1.2V823h-1.2v-1.2Zm3.5 0h1.1V823h-1.1v-1.2Zm3.4 0h1.1V823H547v-1.2Zm3.4 0h1.2V823h-1.2v-1.2Zm3.5 0H555V823h-1.1v-1.2Zm3.4 0h1.2V823h-1.2v-1.2Zm3.4 0h1.2V823h-1.2v-1.2Zm3.5 0h1.1V823h-1.1v-1.2Zm3.4 0h1.2V823h-1.2v-1.2Zm3.5 0h1.1V823h-1.1v-1.2Zm3.4 0h1.1V823h-1.1v-1.2Zm3.4 0h1.2V823h-1.2v-1.2Zm3.5 0h1.1V823h-1.1v-1.2Zm3.4 0H586V823h-1.2v-1.2Zm3.4 0h1.2V823h-1.2v-1.2Zm3.5 0h1.1V823h-1.1v-1.2Zm3.4 0h1.2V823h-1.2v-1.2Zm3.5 0h1.1V823h-1.1v-1.2Zm3.4 0h1.1V823H602v-1.2Zm3.4 0h1.2V823h-1.2v-1.2Zm3.5 0H610V823h-1.1v-1.2Zm3.4 0h1.2V823h-1.2v-1.2Zm3.4 0h1.2V823h-1.2v-1.2Zm3.5 0h1.1V823h-1.1v-1.2Zm3.4 0h1.2V823h-1.2v-1.2Zm3.5 0h1.1V823h-1.1v-1.2Zm3.4 0h1.1V823h-1.1v-1.2Zm3.4 0h1.2V823h-1.2v-1.2Zm3.5 0h1.1V823h-1.1v-1.2Zm3.4 0H641V823h-1.2v-1.2Zm3.6 .5c.4 .2 .8 .4 1.2 .7l-.7 .9c-.3 -.2 -.6 -.4 -1 -.6l.5 -1Zm2.9 2.8c.1 .4 .3 .8 .4 1.2l-1.2 .3c0 -.4 -.1 -.7 -.3 -1l1.1 -.5Zm.5 3.6v1.1h-1.2v-1.1h1.2Zm0 3.4v1.2h-1.2v-1.2h1.2Zm0 3.5v1.1h-1.2v-1.1h1.2Zm0 3.4v1.2h-1.2V839h1.2Zm0 3.4v1.2h-1.2v-1.2h1.2Zm0 3.5V847h-1.2v-1.1h1.2Zm0 3.4v1.2h-1.2v-1.2h1.2Zm-.3 3.6c-.1 .4 -.3 .8 -.6 1.2l-.9 -.6c.2 -.3 .3 -.6 .4 -1l1.1 .4ZM644 856c-.4 .2 -.8 .4 -1.2 .5l-.3 -1.1c.3 -.1 .6 -.2 .9 -.4l.6 1Zm-3.6 .8h-1.1v-1.2h1.1v1.2Zm-3.4 0h-1.2v-1.2H637v1.2Zm-3.5 0h-1.1v-1.2h1.1v1.2Zm-3.4 0h-1.2v-1.2h1.2v1.2Zm-3.5 0h-1.1v-1.2h1.1v1.2Zm-3.4 0h-1.1v-1.2h1.1v1.2Zm-3.4 0h-1.2v-1.2h1.2v1.2Zm-3.5 0h-1.1v-1.2h1.1v1.2Zm-3.4 0h-1.1v-1.2h1.1v1.2Zm-3.4 0h-1.2v-1.2h1.2v1.2Zm-3.5 0h-1.1v-1.2H606v1.2Zm-3.4 0h-1.2v-1.2h1.2v1.2Zm-3.5 0H598v-1.2h1.1v1.2Zm-3.4 0h-1.1v-1.2h1.1v1.2Zm-3.4 0h-1.2v-1.2h1.2v1.2Zm-3.5 0h-1.1v-1.2h1.1v1.2Zm-3.4 0h-1.1v-1.2h1.1v1.2Zm-3.4 0h-1.2v-1.2H582v1.2Zm-3.5 0h-1.1v-1.2h1.1v1.2Zm-3.4 0h-1.2v-1.2h1.2v1.2Zm-3.5 0h-1.1v-1.2h1.1v1.2Zm-3.4 0h-1.1v-1.2h1.1v1.2Zm-3.4 0h-1.2v-1.2h1.2v1.2Zm-3.5 0h-1.1v-1.2h1.1v1.2Zm-3.4 0h-1.1v-1.2h1.1v1.2Zm-3.4 0h-1.2v-1.2h1.2v1.2Zm-3.5 0h-1.1v-1.2H551v1.2Zm-3.4 0h-1.2v-1.2h1.2v1.2Zm-3.5 0H543v-1.2h1.1v1.2Zm-3.4 0h-1.1v-1.2h1.1v1.2Zm-3.4 0h-1.2v-1.2h1.2v1.2Zm-3.5 0h-1.1v-1.2h1.1v1.2Zm-3.4 0h-1.1v-1.2h1.1v1.2Zm-3.4 0h-1.2v-1.2H527v1.2Zm-3.5 0h-1.1v-1.2h1.1v1.2Zm-3.4 0h-1.2v-1.2h1.2v1.2Zm-3.5 0h-1.1v-1.2h1.1v1.2Zm-3.4 0h-1.1v-1.2h1.1v1.2Zm-3.4 0h-1.2v-1.2h1.2v1.2Zm-3.5 0h-1.1v-1.2h1.1v1.2Zm-3.4 0h-1.1v-1.2h1.1v1.2Zm-3.4 0h-1.2v-1.2h1.2v1.2Zm-3.5 0h-1.1v-1.2H496v1.2Zm-3.4 0h-1.2v-1.2h1.2v1.2Zm-3.5 0H488v-1.2h1.1v1.2Zm-3.4 0h-.6c-.2 0 -.4 0 -.6 -.1l.2 -1.1c.1 0 .3 0 .4 0h.6v1.2Zm-3.6 -.9c-.4 -.3 -.7 -.5 -1.1 -.9l.9 -.8c.2 .3 .5 .5 .8 .7l-.6 1Zm-2.4 -3.2c-.1 -.4 -.2 -.8 -.2 -1.2l1.1 -.1c.1 .3 .1 .7 .2 1l-1.1 .3Zm-.2 -3.5V848h1.1v1.2h-1.1Zm0 -3.5v-1.1h1.1v1.1h-1.1Zm0 -3.4v-1.2h1.1v1.2h-1.1Zm0 -3.4v-1.2h1.1v1.2h-1.1Zm0 -3.5v-1.1h1.1v1.1h-1.1Zm0 -3.4v-1.2h1.1V832h-1.1Zm0 -3.5v-1q0 -.1 0 -.1h1.1v1.1h-1.1Zm.6 -3.6c.2 -.4 .4 -.7 .7 -1.1l.9 .7c-.2 .3 -.4 .6 -.6 1l-1 -.6Zm2.9 -2.7c.4 -.1 .8 -.2 1.3 -.3l.1 1.1c-.3 .1 -.6 .2 -.9 .3l-.5 -1.1Zm2.1 -.4h1.2V823h-1.2v-1.2Z" class="g2_364"/>
</g>
</svg>