<?xml version="1.0" encoding="UTF-8" standalone="no"?>
<!DOCTYPE svg PUBLIC "-//W3C//DTD SVG 1.1//EN"
"http://www.w3.org/Graphics/SVG/1.1/DTD/svg11.dtd">
<svg viewBox="0 0 714 1017" version="1.1" xmlns="http://www.w3.org/2000/svg" xmlns:xlink="http://www.w3.org/1999/xlink">
<defs>
<clipPath id="c0_111"><path d="M134.2 189.8V97H558.9v92.8Z"/></clipPath>
<clipPath id="c1_111"><path d="M139.5 513.7V441.9H553.1v71.8Z"/></clipPath>
<clipPath id="c2_111"><path d="M134.2 190.1V96.9H558.9v93.2Z"/></clipPath>
<clipPath id="c3_111"><path d="M139.5 513.7V440.4h414v73.3Z"/></clipPath>
<style type="text/css"><![CDATA[
.g0_111{
fill: #FFF;
}
.g1_111{
fill: none;
stroke: #000;
stroke-width: 1.145;
stroke-miterlimit: 10;
}
.g2_111{
fill: #000;
}
.g3_111{
fill: none;
stroke: #000;
stroke-width: 0.608;
stroke-miterlimit: 10;
}
]]></style>
</defs>
<path d="M0 1017.7H717.2V-3.7H0V1017.7Z" class="g0_111"/>
<g clip-path="url(#c2_111)">
<path clip-path="url(#c0_111)" d="M134.2 97H559.3v92.8H134.2V97Z" class="g0_111"/>
<path d="M134.7 97.6h149v22.9h-149V97.6Zm0 22.9h149v22.9h-149V120.5Zm0 22.9h149v22.9h-149V143.4Zm0 22.9h149v22.9h-149V166.3Z" class="g1_111"/>
<path d="M300.9 141.8h21.3V120.5h3.2v21.3h21.3V145H325.4v21.3h-3.2V145H300.9v-3.2Z" class="g2_111"/>
<path d="M300.9 141.8h21.3V120.5h3.2v21.3h21.3V145H325.4v21.3h-3.2V145H300.9v-3.2Zm63 24.5h91.7v22.9H363.9V166.3Zm0 -68.7h80.2v22.9H363.9V97.6Zm0 22.9h80.2v22.9H363.9V120.5Zm0 22.9h91.7v22.9H363.9V143.4Zm114.6 0h68.7v22.9H478.5V143.4Zm0 -22.9h80.2v22.9H478.5V120.5Zm0 45.8h80.2v22.9H478.5V166.3Zm0 -68.7h68.7v22.9H478.5V97.6Z" class="g1_111"/>
</g>
<g clip-path="url(#c3_111)">
<path clip-path="url(#c1_111)" d="M139.5 441.9H553.1V514H139.5V441.9Z" class="g0_111"/>
<path d="M357.8 466.5h91.6v22.9H357.8V466.5ZM140 443.6h91.7v22.9H140V443.6Zm0 22.9h91.7v22.9H140V466.5ZM357.8 443.6h91.6v22.9H357.8V443.6ZM239.5 442.5c4.8 0 8.7 3.8 8.7 8.6v17.4c0 4.8 3.9 8.7 8.7 8.7c-2.3 0 -4.5 .9 -6.2 2.5c-1.6 1.7 -2.5 3.9 -2.5 6.2v17.3c0 4.8 -3.9 8.7 -8.7 8.7M140 489.4h91.7v22.9H140V489.4Zm217.8 0h91.6v22.9H357.8V489.4Zm99.4 -46.2c4.8 0 8.7 3.9 8.7 8.7v17.4c0 4.8 3.9 8.7 8.7 8.7c-2.3 0 -4.5 .9 -6.1 2.5c-1.7 1.6 -2.6 3.8 -2.6 6.1V504c0 4.8 -3.9 8.7 -8.7 8.7" class="g1_111"/>
</g>
<path d="M65 815.1H174.6" class="g3_111"/>
</svg>