<?xml version="1.0" encoding="UTF-8" standalone="no"?>
<!DOCTYPE svg PUBLIC "-//W3C//DTD SVG 1.1//EN"
"http://www.w3.org/Graphics/SVG/1.1/DTD/svg11.dtd">
<svg viewBox="0 0 714 1017" version="1.1" xmlns="http://www.w3.org/2000/svg" xmlns:xlink="http://www.w3.org/1999/xlink">
<defs>
<clipPath id="c0_267"><path d="M65 486.1V324.5H628.7V486.1Z"/></clipPath>
<clipPath id="c1_267"><path d="M65 486.6V323.1H630.2V486.6Z"/></clipPath>
<style type="text/css"><![CDATA[
.g0_267{
fill: #FFF;
}
.g1_267{
fill: none;
stroke: #000;
stroke-width: 1.145;
stroke-miterlimit: 10;
}
.g2_267{
fill: #000;
fill-opacity: 0.05;
}
.g3_267{
fill: #000;
}
]]></style>
</defs>
<path d="M0 1017.7H717.2V-3.7H0V1017.7Z" class="g0_267"/>
<g clip-path="url(#c1_267)">
<path clip-path="url(#c0_267)" d="M65 324.5H628.7V486.1H65V324.5Z" class="g0_267"/>
<path d="M65.5 370.3h8.1l14.9 14.9v20.1h-23v-35Z" class="g0_267"/>
<path d="M65.5 370.3h8.1l14.9 14.9v20.1h-23v-35Z" class="g1_267"/>
<path d="M73.6 370.3v14.9H88.5L73.6 370.3Z" class="g2_267"/>
<path d="M73.6 370.3v14.9H88.5" class="g1_267"/>
<path d="M105.6 325.1h51.6v33.8H105.6V325.1Z" class="g0_267"/>
<path d="M105.6 325.1h51.6v33.8H105.6V325.1Zm5.8 0v33.8m40.1 -33.8v33.8" class="g1_267"/>
<path d="M105.6 370.3h51.6v35H105.6v-35Z" class="g0_267"/>
<path d="M105.6 370.3h51.6v35H105.6v-35Zm5.8 0v35m40.1 -35v35" class="g1_267"/>
<path d="M105.6 417.3h51.6v33.8H105.6V417.3Z" class="g0_267"/>
<path d="M105.6 417.3h51.6v33.8H105.6V417.3Zm5.8 0v33.8m40.1 -33.8v33.8M88.5 342.3l9.8 -.2" class="g1_267"/>
<path d="M104.4 342l-8 2.8l1.9 -2.7l-2 -2.6l8.1 2.5Z" class="g3_267"/>
<path d="M104.4 342l-8 2.8l1.9 -2.7l-2 -2.6l8.1 2.5ZM88.5 387.8h9.8" class="g1_267"/>
<path d="M104.4 387.8l-8.1 2.7l2 -2.7l-2 -2.7l8.1 2.7Z" class="g3_267"/>
<path d="M104.4 387.8l-8.1 2.7l2 -2.7l-2 -2.7l8.1 2.7ZM88.5 434.2h9.8" class="g1_267"/>
<path d="M104.4 434.2l-8.1 2.7l2 -2.7l-2 -2.7l8.1 2.7Z" class="g3_267"/>
<path d="M104.4 434.2l-8.1 2.7l2 -2.7l-2 -2.7l8.1 2.7Z" class="g1_267"/>
<path d="M65.5 417.3h8.1l14.9 14.9v18.9h-23V417.3Z" class="g0_267"/>
<path d="M65.5 417.3h8.1l14.9 14.9v18.9h-23V417.3Z" class="g1_267"/>
<path d="M73.6 417.3v14.9H88.5L73.6 417.3Z" class="g2_267"/>
<path d="M73.6 417.3v14.9H88.5" class="g1_267"/>
<path d="M65.5 325.1h9.2l13.8 13.7V360h-23V325.1Z" class="g0_267"/>
<path d="M65.5 325.1h9.2l13.8 13.7V360h-23V325.1Z" class="g1_267"/>
<path d="M74.7 325.1v13.7H88.5L74.7 325.1Z" class="g2_267"/>
<path d="M74.7 325.1v13.7H88.5" class="g1_267"/>
<path d="M352 325.1h6.9l16 16v110H352v-126Z" class="g0_267"/>
<path d="M352 325.1h6.9l16 16v110H352v-126Z" class="g1_267"/>
<path d="M358.9 325.1v16h16l-16 -16Z" class="g2_267"/>
<path d="M358.9 325.1v16h16" class="g1_267"/>
<path d="M390.1 325.1h51.6V360H390.1V325.1Z" class="g0_267"/>
<path d="M390.1 325.1h51.6V360H390.1V325.1Zm5.7 0V360m40.1 -34.9V360" class="g1_267"/>
<path d="M390.1 371.5h51.6v33.8H390.1V371.5Z" class="g0_267"/>
<path d="M390.1 371.5h51.6v33.8H390.1V371.5Zm5.7 0v33.8m40.1 -33.8v33.8" class="g1_267"/>
<path d="M390.1 417.3h51.6v33.8H390.1V417.3Z" class="g0_267"/>
<path d="M390.1 417.3h51.6v33.8H390.1V417.3Zm5.7 0v33.8m40.1 -33.8v33.8m-61 -107.4l7.9 -.6" class="g1_267"/>
<path d="M388.8 342.7l-7.8 3.2l1.8 -2.8l-2.2 -2.5l8.2 2.1Z" class="g3_267"/>
<path d="M388.8 342.7l-7.8 3.2l1.8 -2.8l-2.2 -2.5l8.2 2.1Zm-13.9 45.5l7.9 .1" class="g1_267"/>
<path d="M388.8 388.4l-8 2.6l2 -2.7l-2 -2.7l8 2.8Z" class="g3_267"/>
<path d="M388.8 388.4l-8 2.6l2 -2.7l-2 -2.7l8 2.8ZM375 433.2l7.8 .5" class="g1_267"/>
<path d="M388.8 434.1l-8.2 2.2l2.2 -2.6L381 430.9l7.8 3.2Z" class="g3_267"/>
<path d="M388.8 434.1l-8.2 2.2l2.2 -2.6L381 430.9l7.8 3.2Z" class="g1_267"/>
<path d="M174.4 325.1h57.3v33.8H174.4V325.1Z" class="g0_267"/>
<path d="M174.4 325.1h57.3v33.8H174.4V325.1Zm3.4 0v33.8m50.4 -33.8v33.8" class="g1_267"/>
<path d="M174.4 370.3h57.3v35H174.4v-35Z" class="g0_267"/>
<path d="M174.4 370.3h57.3v35H174.4v-35Zm3.4 0v35m50.4 -35v35" class="g1_267"/>
<path d="M174.4 417.3h57.3v33.8H174.4V417.3Z" class="g0_267"/>
<path d="M174.4 417.3h57.3v33.8H174.4V417.3Zm3.4 0v33.8m50.4 -33.8v33.8M157.2 342h9.9" class="g1_267"/>
<path d="M173.1 342l-8 2.6l2 -2.6l-2 -2.7l8 2.7Z" class="g3_267"/>
<path d="M173.1 342l-8 2.6l2 -2.6l-2 -2.7l8 2.7Zm-15.9 45.8h9.9" class="g1_267"/>
<path d="M173.1 387.8l-8 2.7l2 -2.7l-2 -2.7l8 2.7Z" class="g3_267"/>
<path d="M173.1 387.8l-8 2.7l2 -2.7l-2 -2.7l8 2.7Zm-15.9 46.4h9.9" class="g1_267"/>
<path d="M173.1 434.2l-8 2.7l2 -2.7l-2 -2.7l8 2.7Z" class="g3_267"/>
<path d="M173.1 434.2l-8 2.7l2 -2.7l-2 -2.7l8 2.7Z" class="g1_267"/>
<path d="M466.3 325.4h57.6v34.9H466.3V325.4Z" class="g0_267"/>
<path d="M466.3 325.4h57.6v34.9H466.3V325.4Zm2.3 0v34.9m53 -34.9v34.9" class="g1_267"/>
<path d="M466.3 371.8h57.6v33.8H466.3V371.8Z" class="g0_267"/>
<path d="M466.3 371.8h57.6v33.8H466.3V371.8Zm2.3 0v33.8m53 -33.8v33.8" class="g1_267"/>
<path d="M466.3 417h57.6v34.4H466.3V417Z" class="g0_267"/>
<path d="M466.3 417h57.6v34.4H466.3V417Zm2.3 0v34.4m53 -34.4v34.4M441.7 333.8L459 334" class="g1_267"/>
<path d="M465 334.1l-8 2.6l2 -2.7l-2 -2.7l8 2.8Z" class="g3_267"/>
<path d="M465 334.1l-8 2.6l2 -2.7l-2 -2.7l8 2.8Zm-23.3 54.3l17.3 .2" class="g1_267"/>
<path d="M465 388.7l-8 2.5l2 -2.6l-2 -2.7l8 2.8Z" class="g3_267"/>
<path d="M465 388.7l-8 2.5l2 -2.6l-2 -2.7l8 2.8Zm-23.3 54l17.3 .1" class="g1_267"/>
<path d="M465 442.8l-8 2.6l2 -2.6l-2 -2.7l8 2.7Z" class="g3_267"/>
<path d="M465 442.8l-8 2.6l2 -2.6l-2 -2.7l8 2.7ZM441.7 342.6l20.6 31.5" class="g1_267"/>
<path d="M465.6 379.1L459 373.9l3.3 .2l1.1 -3.1l2.2 8.1Z" class="g3_267"/>
<path d="M465.6 379.1L459 373.9l3.3 .2l1.1 -3.1l2.2 8.1ZM441.7 351.3L464 418.7" class="g1_267"/>
<path d="M465.9 424.4l-5.1 -6.8l3.2 1.1l1.9 -2.7v8.4Z" class="g3_267"/>
<path d="M465.9 424.4l-5.1 -6.8l3.2 1.1l1.9 -2.7v8.4ZM441.7 379.9l20.6 -31" class="g1_267"/>
<path d="M465.6 343.9l-2.2 8.2l-1.1 -3.2l-3.4 .2l6.7 -5.2Z" class="g3_267"/>
<path d="M465.6 343.9l-2.2 8.2l-1.1 -3.2l-3.4 .2l6.7 -5.2Zm-23.9 52.9l20.6 31.3" class="g1_267"/>
<path d="M465.6 433.2l-6.7 -5.3l3.4 .2l1.1 -3.1l2.2 8.2Z" class="g3_267"/>
<path d="M465.6 433.2l-6.7 -5.3l3.4 .2l1.1 -3.1l2.2 8.2Zm-23.9 -7.4L464 358.5" class="g1_267"/>
<path d="M465.9 352.8v8.4L464 358.5l-3.2 1.1l5.1 -6.8Z" class="g3_267"/>
<path d="M465.9 352.8v8.4L464 358.5l-3.2 1.1l5.1 -6.8Zm-24.2 81.4l20.6 -31" class="g1_267"/>
<path d="M465.6 398.2l-2.2 8.2l-1.1 -3.2l-3.4 .2l6.7 -5.2Z" class="g3_267"/>
<path d="M465.6 398.2l-2.2 8.2l-1.1 -3.2l-3.4 .2l6.7 -5.2Z" class="g1_267"/>
<path d="M352.1 368.7l3.4 .1V370l-3.5 -.1m6.9 -1l3.5 .1v1.1l-3.5 -.1m6.9 -1l3.5 .1l-.1 1.2l-3.4 -.1m6.9 -1h2.5v1.2l-2.5 -.1Z" class="g3_267"/>
<path d="M254.6 370.3H289v35H254.6v-35Z" class="g0_267"/>
<path d="M254.6 370.3H289v35H254.6v-35Zm3.4 0v35m27.5 -35v35M289 387.8h11" class="g1_267"/>
<path d="M306 387.8l-8 2.7l2 -2.7l-2 -2.7l8 2.7Z" class="g3_267"/>
<path d="M306 387.8l-8 2.7l2 -2.7l-2 -2.7l8 2.7Z" class="g1_267"/>
<path d="M321.1 401.3C313.3 401.3 307 395 307 387.2c0 -7.7 6.3 -14 14.1 -14c7.7 0 14 6.3 14 14c0 7.8 -6.3 14.1 -14 14.1Zm8.6 -4.8c-.7 -.4 -1.5 -.6 -2.7 -.9c-1.4 -.3 -3.2 -.6 -3.1 -2.2c-1 1 -2.9 1.4 -4.4 .8c-.4 -.2 -.8 -.6 -1.1 -.6c.1 1.5 -1.8 1.7 -3.1 2c-1.2 .3 -2.1 .5 -2.8 1c2.3 2.1 5.3 3.4 8.6 3.4c3.3 0 6.3 -1.3 8.6 -3.5ZM322 379.4c-4.3 -.4 -6.3 2.5 -5.7 6.8c-.2 .1 -.4 .1 -.5 .3c0 1.2 .3 2.3 1.2 2.6c.5 2.1 2 4.6 4.6 4.3c2.1 -.3 3.3 -2.4 3.8 -4.3c.9 -.3 1.2 -1.5 1.1 -2.7c0 -.2 -.3 -.1 -.4 -.2c.7 -3.4 -1.2 -6.6 -4.1 -6.8Zm-.9 -4.9c-7.1 0 -12.8 5.7 -12.8 12.7c0 3.4 1.3 6.4 3.4 8.6c.2 -.2 .5 -.4 .7 -.5c1.4 -.7 3.2 -.6 4.9 -1.4c0 -.5 0 -1 0 -1.5c-.7 -.6 -.8 -1.6 -1.3 -2.4c-.3 -.5 -.7 -.8 -.9 -1.3c-.3 -.6 -.5 -1.3 -.4 -2.2c0 -.4 .3 -.7 .3 -1.1c.1 -.5 0 -1.1 0 -1.6c.3 -2.9 2.5 -5.2 5.3 -5.6c.6 0 1.2 0 1.8 0c3 .5 5 2.7 5.2 6c.1 .4 -.1 .8 0 1.3c0 .4 .4 .7 .4 1.2c.1 1.3 -.6 2.4 -1.4 3.3c-.2 1 -.7 1.7 -1.2 2.4c0 .5 0 .9 0 1.4c1.4 .8 3.3 .8 4.7 1.4c.3 .2 .5 .4 .7 .5c2 -2.2 3.3 -5.2 3.3 -8.5c0 -7 -5.7 -12.7 -12.7 -12.7Z" class="g3_267"/>
<path d="M231.7 342l19.1 30.9" class="g1_267"/>
<path d="M253.9 378l-6.5 -5.4l3.4 .3l1.2 -3.1l1.9 8.2Z" class="g3_267"/>
<path d="M253.9 378l-6.5 -5.4l3.4 .3l1.2 -3.1l1.9 8.2Zm-22.2 9.8h15.6" class="g1_267"/>
<path d="M253.3 387.8l-8 2.7l2 -2.7l-2 -2.7l8 2.7Z" class="g3_267"/>
<path d="M253.3 387.8l-8 2.7l2 -2.7l-2 -2.7l8 2.7Zm-21.6 46.4l19.1 -31.4" class="g1_267"/>
<path d="M253.9 397.6l-1.9 8.3l-1.2 -3.1l-3.3 .3l6.4 -5.5Z" class="g3_267"/>
<path d="M253.9 397.6l-1.9 8.3l-1.2 -3.1l-3.3 .3l6.4 -5.5Z" class="g1_267"/>
<path d="M543.1 370.6h36.1v35H543.1v-35Z" class="g0_267"/>
<path d="M543.1 370.6h36.1v35H543.1v-35Zm3.4 0v35m29.2 -35v35m3.5 -17.5h13" class="g1_267"/>
<path d="M598.2 388.1l-8 2.7l2 -2.7l-2 -2.7l8 2.7Z" class="g3_267"/>
<path d="M598.2 388.1l-8 2.7l2 -2.7l-2 -2.7l8 2.7Z" class="g1_267"/>
<path d="M613.2 401.6c-7.7 0 -14 -6.3 -14 -14.1c0 -7.7 6.3 -14 14 -14c7.8 0 14.1 6.3 14.1 14c0 7.8 -6.3 14.1 -14.1 14.1Zm8.7 -4.8c-.7 -.4 -1.6 -.6 -2.7 -.9c-1.4 -.3 -3.2 -.6 -3.1 -2.2c-1.1 1 -2.9 1.4 -4.4 .7c-.5 -.1 -.8 -.6 -1.1 -.5c.1 1.5 -1.8 1.7 -3.1 2c-1.2 .3 -2.1 .5 -2.8 1c2.3 2.1 5.3 3.4 8.5 3.4c3.4 0 6.4 -1.4 8.7 -3.5Zm-7.7 -17.1c-4.3 -.4 -6.4 2.5 -5.7 6.8c-.2 .1 -.5 0 -.5 .2c0 1.3 .2 2.4 1.2 2.7c.5 2.1 1.9 4.6 4.6 4.3c2.1 -.3 3.3 -2.4 3.8 -4.3c.9 -.3 1.2 -1.5 1.1 -2.7c0 -.2 -.3 -.1 -.5 -.2c.8 -3.4 -1.1 -6.6 -4 -6.8Zm-1 -4.9c-7 0 -12.7 5.7 -12.7 12.7c0 3.3 1.3 6.4 3.4 8.6c.2 -.2 .5 -.4 .7 -.5c1.4 -.7 3.2 -.6 4.8 -1.5c0 -.4 0 -.9 0 -1.4c-.6 -.6 -.7 -1.6 -1.2 -2.4c-.3 -.5 -.7 -.8 -.9 -1.3c-.3 -.6 -.5 -1.4 -.4 -2.2c0 -.4 .3 -.7 .3 -1.1c.1 -.5 0 -1.1 0 -1.6c.3 -2.9 2.5 -5.2 5.3 -5.6c.6 0 1.2 0 1.8 0c3 .5 5 2.7 5.2 6c.1 .4 -.1 .8 0 1.3c0 .4 .4 .7 .4 1.1c.1 1.4 -.6 2.5 -1.4 3.4c-.2 1 -.7 1.6 -1.2 2.4c0 .5 0 .9 0 1.4c1.4 .8 3.3 .8 4.7 1.4c.2 .2 .5 .3 .7 .5c2 -2.2 3.3 -5.2 3.3 -8.5c0 -7 -5.7 -12.7 -12.8 -12.7Z" class="g3_267"/>
<path d="M523.9 342.8l15.8 30.1" class="g1_267"/>
<path d="M542.5 378.2l-6.1 -5.8l3.3 .5l1.4 -3l1.4 8.3Z" class="g3_267"/>
<path d="M542.5 378.2l-6.1 -5.8l3.3 .5l1.4 -3l1.4 8.3Zm-18.6 10.5l11.9 -.1" class="g1_267"/>
<path d="M541.8 388.6l-8 2.7l2 -2.7l-2.1 -2.7l8.1 2.7Z" class="g3_267"/>
<path d="M541.8 388.6l-8 2.7l2 -2.7l-2.1 -2.7l8.1 2.7Zm-17.9 45.6l15.8 -30.9" class="g1_267"/>
<path d="M542.5 398l-1.3 8.3l-1.5 -3l-3.3 .6l6.1 -5.9Z" class="g3_267"/>
<path d="M542.5 398l-1.3 8.3l-1.5 -3l-3.3 .6l6.1 -5.9Z" class="g1_267"/>
<path d="M352.4 411.3h3.4v1.2h-3.4m6.8 -1.2h3.5v1.1l-3.5 .1m6.9 -1.2h3.4v1.1h-3.4m6.9 -1.2h2.2l.1 1.2H373Z" class="g3_267"/>
</g>
</svg>