<?xml version="1.0" encoding="UTF-8" standalone="no"?>
<!DOCTYPE svg PUBLIC "-//W3C//DTD SVG 1.1//EN"
"http://www.w3.org/Graphics/SVG/1.1/DTD/svg11.dtd">
<svg viewBox="0 0 714 1017" version="1.1" xmlns="http://www.w3.org/2000/svg" xmlns:xlink="http://www.w3.org/1999/xlink">
<defs>
<clipPath id="c0_333"><path d="M67.6 452.7V153.6h558V452.7Z"/></clipPath>
<clipPath id="c1_333"><path d="M67.6 453.2v-301H626.8v301Z"/></clipPath>
<style type="text/css"><![CDATA[
.g0_333{
fill: #FFF;
}
.g1_333{
fill: none;
stroke: #000;
stroke-width: 1.145;
stroke-miterlimit: 10;
}
.g2_333{
fill: #000;
}
.g3_333{
fill: none;
stroke: #000;
stroke-width: 2.291;
stroke-miterlimit: 10;
}
.g4_333{
fill: none;
stroke: #000;
stroke-width: 0.608;
stroke-miterlimit: 10;
}
]]></style>
</defs>
<path d="M0 1017.7H717.2V-3.7H0V1017.7Z" class="g0_333"/>
<g clip-path="url(#c1_333)">
<path clip-path="url(#c0_333)" d="M67.6 153.6h558V452.7H67.6V153.6Z" class="g0_333"/>
<path d="M68.2 245.8h80.2V452.1H68.2V245.8Zm11.5 11.5h57.2c.4 0 .9 .1 1.3 .3c.4 .1 .8 .4 1.1 .7c.3 .3 .6 .7 .8 1.1c.1 .4 .2 .9 .2 1.3v16.1c0 .4 -.1 .9 -.2 1.3c-.2 .4 -.5 .8 -.8 1.1c-.3 .3 -.7 .6 -1.1 .8c-.4 .1 -.9 .2 -1.3 .2H79.7c-.5 0 -.9 -.1 -1.3 -.2c-.4 -.2 -.8 -.5 -1.1 -.8c-.4 -.3 -.6 -.7 -.8 -1.1c-.2 -.4 -.2 -.9 -.2 -1.3V260.7c0 -.4 0 -.9 .2 -1.3c.2 -.4 .4 -.8 .8 -1.1c.3 -.3 .7 -.6 1.1 -.7c.4 -.2 .8 -.3 1.3 -.3ZM85.9 310h44.8c.6 0 1.3 .1 1.9 .2c.6 .1 1.2 .3 1.8 .5c.6 .3 1.1 .6 1.6 .9c.6 .4 1.1 .8 1.5 1.2c.5 .5 .9 1 1.2 1.5c.4 .5 .6 1.1 .9 1.6c.2 .6 .4 1.2 .5 1.9c.2 .6 .2 1.2 .2 1.8v46.2c0 .6 0 1.3 -.2 1.9c-.1 .6 -.3 1.2 -.5 1.8c-.3 .6 -.5 1.1 -.9 1.7c-.3 .5 -.7 1 -1.2 1.4c-.4 .5 -.9 .9 -1.5 1.2c-.5 .4 -1 .7 -1.6 .9c-.6 .2 -1.2 .4 -1.8 .5c-.6 .2 -1.3 .2 -1.9 .2H85.9c-.7 0 -1.3 0 -1.9 -.2c-.6 -.1 -1.2 -.3 -1.8 -.5c-.6 -.2 -1.1 -.5 -1.7 -.9c-.5 -.3 -1 -.7 -1.4 -1.2c-.5 -.4 -.9 -.9 -1.2 -1.4c-.4 -.6 -.7 -1.1 -.9 -1.7c-.3 -.6 -.4 -1.2 -.6 -1.8c-.1 -.6 -.1 -1.3 -.1 -1.9V319.6c0 -.6 0 -1.2 .1 -1.8c.2 -.7 .3 -1.3 .6 -1.9c.2 -.5 .5 -1.1 .9 -1.6c.3 -.5 .7 -1 1.2 -1.5c.4 -.4 .9 -.8 1.4 -1.2c.6 -.3 1.1 -.6 1.7 -.9c.6 -.2 1.2 -.4 1.8 -.5c.6 -.1 1.2 -.2 1.9 -.2Zm-5.7 87.7c0 -4.1 12.6 -7.5 28.1 -7.5c7.4 0 14.6 .8 19.8 2.2c5.3 1.4 8.3 3.4 8.3 5.3v21.7c0 2 -3 3.9 -8.3 5.3c-5.2 1.4 -12.4 2.2 -19.8 2.2c-7.5 0 -14.6 -.8 -19.9 -2.2c-5.2 -1.4 -8.2 -3.3 -8.2 -5.3V397.7Zm56.2 0c0 2 -3 4 -8.3 5.4c-5.2 1.4 -12.4 2.2 -19.8 2.2c-7.5 0 -14.6 -.8 -19.9 -2.2c-5.2 -1.4 -8.2 -3.4 -8.2 -5.4M92.6 385.9c0 -5.1 -.1 -9.7 -.2 -13.7" class="g1_333"/>
<path d="M92.6 390.5l-1.5 -4.6h3l-1.5 4.6Z" class="g2_333"/>
<path d="M92.6 390.5l-1.5 -4.6h3l-1.5 4.6Z" class="g1_333"/>
<path d="M92.3 367.6l1.6 4.5l-3 .1l1.4 -4.6Z" class="g2_333"/>
<path d="M92.3 367.6l1.6 4.5l-3 .1l1.4 -4.6Zm32 18.3c0 0 0 -4.6 0 -13.7" class="g1_333"/>
<path d="M124.3 390.5l-1.5 -4.6h3.1l-1.6 4.6Z" class="g2_333"/>
<path d="M124.3 390.5l-1.5 -4.6h3.1l-1.6 4.6Z" class="g1_333"/>
<path d="M124.3 367.6l1.6 4.6h-3.1l1.5 -4.6Z" class="g2_333"/>
<path d="M124.3 367.6l1.6 4.6h-3.1l1.5 -4.6ZM159.8 245.8h80.3V452.1H159.8V245.8Zm11.6 11.5h57.2c.5 0 .9 .1 1.3 .3c.4 .1 .8 .4 1.1 .7c.3 .3 .6 .7 .8 1.1c.1 .4 .2 .9 .2 1.3v16.1c0 .4 -.1 .9 -.2 1.3c-.2 .4 -.5 .8 -.8 1.1c-.3 .3 -.7 .6 -1.1 .8c-.4 .1 -.8 .2 -1.3 .2H171.4c-.4 0 -.9 -.1 -1.3 -.2c-.4 -.2 -.8 -.5 -1.1 -.8c-.3 -.3 -.6 -.7 -.8 -1.1c-.1 -.4 -.2 -.9 -.2 -1.3V260.7c0 -.4 .1 -.9 .2 -1.3c.2 -.4 .5 -.8 .8 -1.1c.3 -.3 .7 -.6 1.1 -.7c.4 -.2 .9 -.3 1.3 -.3Zm6.2 52.7h44.8c.7 0 1.3 .1 1.9 .2c.6 .1 1.2 .3 1.8 .5c.6 .3 1.1 .6 1.7 .9c.5 .4 1 .8 1.4 1.2c.5 .5 .9 1 1.2 1.5c.4 .5 .7 1.1 .9 1.6c.2 .6 .4 1.2 .5 1.9c.2 .6 .2 1.2 .2 1.8v46.2c0 .6 0 1.3 -.2 1.9c-.1 .6 -.3 1.2 -.5 1.8c-.2 .6 -.5 1.1 -.9 1.7c-.3 .5 -.7 1 -1.2 1.4c-.4 .5 -.9 .9 -1.4 1.2c-.6 .4 -1.1 .7 -1.7 .9c-.6 .2 -1.2 .4 -1.8 .5c-.6 .2 -1.2 .2 -1.9 .2H177.6c-.6 0 -1.3 0 -1.9 -.2c-.6 -.1 -1.2 -.3 -1.8 -.5c-.6 -.2 -1.1 -.5 -1.7 -.9c-.5 -.3 -1 -.7 -1.4 -1.2c-.5 -.4 -.9 -.9 -1.2 -1.4c-.4 -.6 -.7 -1.1 -.9 -1.7c-.2 -.6 -.4 -1.2 -.5 -1.8c-.2 -.6 -.2 -1.3 -.2 -1.9V319.6c0 -.6 0 -1.2 .2 -1.8c.1 -.7 .3 -1.3 .5 -1.9c.2 -.5 .5 -1.1 .9 -1.6c.3 -.5 .7 -1 1.2 -1.5c.4 -.4 .9 -.8 1.4 -1.2c.6 -.3 1.1 -.6 1.7 -.9c.6 -.2 1.2 -.4 1.8 -.5c.6 -.1 1.3 -.2 1.9 -.2ZM172 397.7c0 -4.1 12.6 -7.5 28 -7.5c7.4 0 14.5 .8 19.8 2.2c5.2 1.4 8.2 3.4 8.2 5.3v21.5c0 4.2 -12.6 7.6 -28 7.6c-15.4 0 -28 -3.4 -28 -7.6V397.7Zm56 0c0 4.2 -12.6 7.6 -28 7.6c-15.4 0 -28 -3.4 -28 -7.6m12.3 -12.2c-.1 -4.8 -.1 -9.3 -.2 -13.3" class="g1_333"/>
<path d="M184.3 390.1l-1.6 -4.6h3.1l-1.5 4.6Z" class="g2_333"/>
<path d="M184.3 390.1l-1.6 -4.6h3.1l-1.5 4.6Z" class="g1_333"/>
<path d="M184 367.6l1.6 4.6h-3l1.4 -4.6Z" class="g2_333"/>
<path d="M184 367.6l1.6 4.6h-3l1.4 -4.6Zm32 18.7c0 0 0 -4.7 0 -14.1" class="g1_333"/>
<path d="M216 390.8l-1.5 -4.5h3l-1.5 4.5Z" class="g2_333"/>
<path d="M216 390.8l-1.5 -4.5h3l-1.5 4.5Z" class="g1_333"/>
<path d="M216 367.6l1.6 4.6h-3.1l1.5 -4.6Z" class="g2_333"/>
<path d="M216 367.6l1.6 4.6h-3.1l1.5 -4.6ZM251.5 245.8h80.2V452.1H251.5V245.8ZM263 257.3h57.2c.5 0 .9 .1 1.3 .3c.5 .1 .8 .4 1.1 .7c.4 .3 .6 .7 .8 1.1c.2 .4 .3 .9 .3 1.3v16.1c0 .4 -.1 .9 -.3 1.3c-.2 .4 -.4 .8 -.8 1.1c-.3 .3 -.6 .6 -1.1 .8c-.4 .1 -.8 .2 -1.3 .2H263c-.4 0 -.9 -.1 -1.3 -.2c-.4 -.2 -.8 -.5 -1.1 -.8c-.3 -.3 -.6 -.7 -.7 -1.1c-.2 -.4 -.3 -.9 -.3 -1.3V260.7c0 -.4 .1 -.9 .3 -1.3c.1 -.4 .4 -.8 .7 -1.1c.3 -.3 .7 -.6 1.1 -.7c.4 -.2 .9 -.3 1.3 -.3Zm6.2 52.7H314c.7 0 1.3 .1 1.9 .2c.6 .1 1.2 .3 1.8 .5c.6 .3 1.2 .6 1.7 .9c.5 .4 1 .8 1.4 1.2c.5 .5 .9 1 1.2 1.5c.4 .5 .7 1.1 .9 1.6c.3 .6 .4 1.2 .6 1.9c.1 .6 .2 1.2 .2 1.8v46.2c0 .6 -.1 1.3 -.2 1.9c-.2 .6 -.3 1.2 -.6 1.8c-.2 .6 -.5 1.1 -.9 1.7c-.3 .5 -.7 1 -1.2 1.4c-.4 .5 -.9 .9 -1.4 1.2c-.5 .4 -1.1 .7 -1.7 .9c-.6 .2 -1.2 .4 -1.8 .5c-.6 .2 -1.2 .2 -1.9 .2H269.2c-.6 0 -1.3 0 -1.9 -.2c-.6 -.1 -1.2 -.3 -1.8 -.5c-.6 -.2 -1.1 -.5 -1.6 -.9c-.6 -.3 -1 -.7 -1.5 -1.2c-.4 -.4 -.8 -.9 -1.2 -1.4c-.3 -.6 -.6 -1.1 -.9 -1.7c-.2 -.6 -.4 -1.2 -.5 -1.8c-.1 -.6 -.2 -1.3 -.2 -1.9V319.6c0 -.6 .1 -1.2 .2 -1.8c.1 -.7 .3 -1.3 .5 -1.9c.3 -.5 .6 -1.1 .9 -1.6c.4 -.5 .8 -1 1.2 -1.5c.5 -.4 .9 -.8 1.5 -1.2c.5 -.3 1 -.6 1.6 -.9c.6 -.2 1.2 -.4 1.8 -.5c.6 -.1 1.3 -.2 1.9 -.2Zm-5.6 87.7c0 -4.1 12.6 -7.5 28 -7.5c7.4 0 14.5 .8 19.8 2.2c5.2 1.4 8.2 3.4 8.2 5.3v21.5c0 4.2 -12.5 7.6 -28 7.6c-15.4 0 -28 -3.4 -28 -7.6V397.7Zm56 0c0 4.2 -12.5 7.6 -28 7.6c-15.4 0 -28 -3.4 -28 -7.6m12 -12.6c0 0 0 -4.3 0 -12.9" class="g1_333"/>
<path d="M275.6 389.7L274 385.1h3.1l-1.5 4.6Z" class="g2_333"/>
<path d="M275.6 389.7L274 385.1h3.1l-1.5 4.6Z" class="g1_333"/>
<path d="M275.6 367.6l1.5 4.6H274l1.6 -4.6Z" class="g2_333"/>
<path d="M275.6 367.6l1.5 4.6H274l1.6 -4.6Zm32.1 17.1c0 0 0 -4.2 0 -12.5" class="g1_333"/>
<path d="M307.7 389.3l-1.6 -4.6h3.1l-1.5 4.6Z" class="g2_333"/>
<path d="M307.7 389.3l-1.6 -4.6h3.1l-1.5 4.6Z" class="g1_333"/>
<path d="M307.7 367.6l1.5 4.6h-3.1l1.6 -4.6Z" class="g2_333"/>
<path d="M307.7 367.6l1.5 4.6h-3.1l1.6 -4.6ZM124.3 280.2L271 309.1" class="g1_333"/>
<path d="M274.3 309.8l-4.8 .6l1.5 -1.3l-.9 -1.7l4.2 2.4Z" class="g2_333"/>
<path d="M274.3 309.8l-4.8 .6l1.5 -1.3l-.9 -1.7l4.2 2.4Zm-166 -29.6l71.3 28.1" class="g1_333"/>
<path d="M182.8 309.5l-4.8 -.2l1.6 -1l-.5 -1.9l3.7 3.1Z" class="g2_333"/>
<path d="M182.8 309.5l-4.8 -.2l1.6 -1l-.5 -1.9l3.7 3.1ZM92.3 280.2v25.1" class="g1_333"/>
<path d="M92.3 308.7l-1.6 -4.6l1.6 1.2l1.5 -1.2l-1.5 4.6Z" class="g2_333"/>
<path d="M92.3 308.7l-1.6 -4.6l1.6 1.2l1.5 -1.2l-1.5 4.6ZM200 280.2v25.1" class="g1_333"/>
<path d="M200 308.7l-1.5 -4.6l1.5 1.2l1.5 -1.2l-1.5 4.6Z" class="g2_333"/>
<path d="M200 308.7l-1.5 -4.6l1.5 1.2l1.5 -1.2l-1.5 4.6ZM184 280.2l-71.3 28.1" class="g1_333"/>
<path d="M109.5 309.5l3.7 -3.1l-.5 1.9l1.6 1l-4.8 .2Z" class="g2_333"/>
<path d="M109.5 309.5l3.7 -3.1l-.5 1.9l1.6 1l-4.8 .2ZM216 280.2l71.2 28.1" class="g1_333"/>
<path d="M290.4 309.5l-4.8 -.2l1.6 -1l-.5 -1.9l3.7 3.1Z" class="g2_333"/>
<path d="M290.4 309.5l-4.8 -.2l1.6 -1l-.5 -1.9l3.7 3.1ZM275.6 280.2L128.9 309.1" class="g1_333"/>
<path d="M125.6 309.8l4.2 -2.4l-.9 1.7l1.5 1.3l-4.8 -.6Z" class="g2_333"/>
<path d="M125.6 309.8l4.2 -2.4l-.9 1.7l1.5 1.3l-4.8 -.6Zm166 -29.6l-71.2 28.1" class="g1_333"/>
<path d="M217.2 309.5l3.7 -3.1l-.5 1.9l1.6 1l-4.8 .2Z" class="g2_333"/>
<path d="M217.2 309.5l3.7 -3.1l-.5 1.9l1.6 1l-4.8 .2Zm90.4 -29.3v25.1" class="g1_333"/>
<path d="M307.6 308.7l-1.5 -4.6l1.5 1.2l1.6 -1.2l-1.6 4.6Z" class="g2_333"/>
<path d="M307.6 308.7l-1.5 -4.6l1.5 1.2l1.6 -1.2l-1.6 4.6ZM141.7 326.1h24.8" class="g1_333"/>
<path d="M134.9 326.1l6.8 -2.3v4.6l-6.8 -2.3Z" class="g2_333"/>
<path d="M134.9 326.1l6.8 -2.3v4.6l-6.8 -2.3Z" class="g1_333"/>
<path d="M173.4 326.1l-6.9 2.3v-4.6l6.9 2.3Z" class="g2_333"/>
<path d="M173.4 326.1l-6.9 2.3v-4.6l6.9 2.3Zm-31.7 31h24.8" class="g1_333"/>
<path d="M134.9 357.1l6.8 -2.3v4.6l-6.8 -2.3Z" class="g2_333"/>
<path d="M134.9 357.1l6.8 -2.3v4.6l-6.8 -2.3Z" class="g1_333"/>
<path d="M173.4 357.1l-6.9 2.3v-4.6l6.9 2.3Z" class="g2_333"/>
<path d="M173.4 357.1l-6.9 2.3v-4.6l6.9 2.3Zm60 0h24.8" class="g1_333"/>
<path d="M226.6 357.1l6.8 -2.3v4.6l-6.8 -2.3Z" class="g2_333"/>
<path d="M226.6 357.1l6.8 -2.3v4.6l-6.8 -2.3Z" class="g1_333"/>
<path d="M265 357.1l-6.8 2.3v-4.6l6.8 2.3Z" class="g2_333"/>
<path d="M265 357.1l-6.8 2.3v-4.6l6.8 2.3Zm-31.6 -31h24.8" class="g1_333"/>
<path d="M226.6 326.1l6.8 -2.3v4.6l-6.8 -2.3Z" class="g2_333"/>
<path d="M226.6 326.1l6.8 -2.3v4.6l-6.8 -2.3Z" class="g1_333"/>
<path d="M265 326.1l-6.8 2.3v-4.6l6.8 2.3Z" class="g2_333"/>
<path clip-path="url(#c0_333)" d="M265 326.1l-6.8 2.3v-4.6l6.8 2.3ZM71.6 154.2H145c.5 0 .9 .1 1.3 .2c.4 .2 .8 .5 1.1 .8c.3 .3 .6 .7 .8 1.1c.1 .4 .2 .9 .2 1.3v16.1c0 .4 -.1 .9 -.2 1.3c-.2 .4 -.5 .8 -.8 1.1c-.3 .3 -.7 .6 -1.1 .7c-.4 .2 -.8 .3 -1.3 .3H71.6c-.5 0 -.9 -.1 -1.3 -.3c-.5 -.1 -.8 -.4 -1.2 -.7c-.3 -.3 -.5 -.7 -.7 -1.1c-.2 -.4 -.3 -.9 -.3 -1.3V157.6c0 -.4 .1 -.9 .3 -1.3c.2 -.4 .4 -.8 .7 -1.1c.4 -.3 .7 -.6 1.2 -.8c.4 -.1 .8 -.2 1.3 -.2Zm183.3 0h73.4c.5 0 .9 .1 1.3 .2c.5 .2 .8 .5 1.2 .8c.3 .3 .5 .7 .7 1.1c.2 .4 .3 .9 .3 1.3v16.1c0 .4 -.1 .9 -.3 1.3c-.2 .4 -.4 .8 -.7 1.1c-.4 .3 -.7 .6 -1.2 .7c-.4 .2 -.8 .3 -1.3 .3H254.9c-.5 0 -.9 -.1 -1.3 -.3c-.4 -.1 -.8 -.4 -1.1 -.7c-.3 -.3 -.6 -.7 -.8 -1.1c-.1 -.4 -.2 -.9 -.2 -1.3V157.6c0 -.4 .1 -.9 .2 -1.3c.2 -.4 .5 -.8 .8 -1.1c.3 -.3 .7 -.6 1.1 -.8c.4 -.1 .8 -.2 1.3 -.2Zm-91.6 0h73.4c.5 0 .9 .1 1.3 .2c.4 .2 .8 .5 1.1 .8c.4 .3 .6 .7 .8 1.1c.2 .4 .2 .9 .2 1.3v16.1c0 .4 0 .9 -.2 1.3c-.2 .4 -.4 .8 -.8 1.1c-.3 .3 -.7 .6 -1.1 .7c-.4 .2 -.8 .3 -1.3 .3H163.3c-.5 0 -.9 -.1 -1.3 -.3c-.5 -.1 -.8 -.4 -1.1 -.7c-.4 -.3 -.6 -.7 -.8 -1.1c-.2 -.4 -.3 -.9 -.3 -1.3V157.6c0 -.4 .1 -.9 .3 -1.3c.2 -.4 .4 -.8 .8 -1.1c.3 -.3 .6 -.6 1.1 -.8c.4 -.1 .8 -.2 1.3 -.2Zm-55 98.4V181.8" class="g1_333"/>
<path d="M108.3 256L106 251.4l2.3 1.2l2.3 -1.2l-2.3 4.6Z" class="g2_333"/>
<path d="M108.3 256L106 251.4l2.3 1.2l2.3 -1.2l-2.3 4.6Z" class="g1_333"/>
<path d="M108.3 178.4l2.3 4.6l-2.3 -1.2L106 183l2.3 -4.6Z" class="g2_333"/>
<path d="M108.3 178.4l2.3 4.6l-2.3 -1.2L106 183l2.3 -4.6ZM200 252.6V181.8" class="g1_333"/>
<path d="M200 256l-2.3 -4.6l2.3 1.2l2.3 -1.2L200 256Z" class="g2_333"/>
<path d="M200 256l-2.3 -4.6l2.3 1.2l2.3 -1.2L200 256Z" class="g1_333"/>
<path d="M200 178.4l2.3 4.6L200 181.8l-2.3 1.2l2.3 -4.6Z" class="g2_333"/>
<path d="M200 178.4l2.3 4.6L200 181.8l-2.3 1.2l2.3 -4.6Zm91.6 74.2V181.8" class="g1_333"/>
<path d="M291.6 256l-2.3 -4.6l2.3 1.2l2.3 -1.2l-2.3 4.6Z" class="g2_333"/>
<path d="M291.6 256l-2.3 -4.6l2.3 1.2l2.3 -1.2l-2.3 4.6Z" class="g1_333"/>
<path d="M291.6 178.4l2.3 4.6l-2.3 -1.2l-2.3 1.2l2.3 -4.6Z" class="g2_333"/>
<path d="M291.6 178.4l2.3 4.6l-2.3 -1.2l-2.3 1.2l2.3 -4.6Zm69.9 67.4h80.2V452.1H361.5V245.8ZM373 257.3h57.2c.5 0 .9 .1 1.3 .3c.5 .1 .8 .4 1.1 .7c.4 .3 .6 .7 .8 1.1c.2 .4 .3 .9 .3 1.3v16.1c0 .4 -.1 .9 -.3 1.3c-.2 .4 -.4 .8 -.8 1.1c-.3 .3 -.6 .6 -1.1 .8c-.4 .1 -.8 .2 -1.3 .2H373c-.4 0 -.9 -.1 -1.3 -.2c-.4 -.2 -.8 -.5 -1.1 -.8c-.3 -.3 -.6 -.7 -.7 -1.1c-.2 -.4 -.3 -.9 -.3 -1.3V260.7c0 -.4 .1 -.9 .3 -1.3c.1 -.4 .4 -.8 .7 -1.1c.3 -.3 .7 -.6 1.1 -.7c.4 -.2 .9 -.3 1.3 -.3Zm6.2 52.7H424c.7 0 1.3 .1 1.9 .2c.6 .1 1.2 .3 1.8 .5c.6 .3 1.2 .6 1.7 .9c.5 .4 1 .8 1.4 1.2c.5 .5 .9 1 1.2 1.5c.4 .5 .7 1.1 .9 1.6c.3 .6 .4 1.2 .6 1.9c.1 .6 .2 1.2 .2 1.8v46.2c0 .6 -.1 1.3 -.2 1.9c-.2 .6 -.3 1.2 -.6 1.8c-.2 .6 -.5 1.1 -.9 1.7c-.3 .5 -.7 1 -1.2 1.4c-.4 .5 -.9 .9 -1.4 1.2c-.5 .4 -1.1 .7 -1.7 .9c-.6 .2 -1.2 .4 -1.8 .5c-.6 .2 -1.2 .2 -1.9 .2H379.2c-.6 0 -1.3 0 -1.9 -.2c-.6 -.1 -1.2 -.3 -1.8 -.5c-.6 -.2 -1.1 -.5 -1.6 -.9c-.6 -.3 -1 -.7 -1.5 -1.2c-.4 -.4 -.8 -.9 -1.2 -1.4c-.3 -.6 -.6 -1.1 -.9 -1.7c-.2 -.6 -.4 -1.2 -.5 -1.8c-.1 -.6 -.2 -1.3 -.2 -1.9V319.6c0 -.6 .1 -1.2 .2 -1.8c.1 -.7 .3 -1.3 .5 -1.9c.3 -.5 .6 -1.1 .9 -1.6c.4 -.5 .8 -1 1.2 -1.5c.5 -.4 .9 -.8 1.5 -1.2c.5 -.3 1 -.6 1.6 -.9c.6 -.2 1.2 -.4 1.8 -.5c.6 -.1 1.3 -.2 1.9 -.2Zm-5.6 87.7c0 -4.1 12.6 -7.5 28 -7.5c7.4 0 14.5 .8 19.8 2.2c5.2 1.4 8.2 3.4 8.2 5.3v21.5c0 4.2 -12.5 7.6 -28 7.6c-15.4 0 -28 -3.4 -28 -7.6V397.7Zm56 0c0 4.2 -12.5 7.6 -28 7.6c-15.4 0 -28 -3.4 -28 -7.6m12 -13.3c0 0 0 -4.1 0 -12.2" class="g1_333"/>
<path d="M385.6 388.9L384 384.4h3.1l-1.5 4.5Z" class="g2_333"/>
<path d="M385.6 388.9L384 384.4h3.1l-1.5 4.5Z" class="g1_333"/>
<path d="M385.6 367.6l1.5 4.6H384l1.6 -4.6Z" class="g2_333"/>
<path d="M385.6 367.6l1.5 4.6H384l1.6 -4.6Zm32.1 16.8c0 0 0 -4.1 0 -12.2" class="g1_333"/>
<path d="M417.7 388.9l-1.6 -4.5h3.1l-1.5 4.5Z" class="g2_333"/>
<path d="M417.7 388.9l-1.6 -4.5h3.1l-1.5 4.5Z" class="g1_333"/>
<path d="M417.7 367.6l1.5 4.6h-3.1l1.6 -4.6Z" class="g2_333"/>
<path d="M417.7 367.6l1.5 4.6h-3.1l1.6 -4.6ZM452 245.8h80.3V452.1H452V245.8Zm11.6 11.5h57.2c.4 0 .9 .1 1.3 .3c.4 .1 .8 .4 1.1 .7c.3 .3 .6 .7 .8 1.1c.1 .4 .2 .9 .2 1.3v16.1c0 .4 -.1 .9 -.2 1.3c-.2 .4 -.5 .8 -.8 1.1c-.3 .3 -.7 .6 -1.1 .8c-.4 .1 -.9 .2 -1.3 .2H463.6c-.5 0 -.9 -.1 -1.3 -.2c-.4 -.2 -.8 -.5 -1.1 -.8c-.4 -.3 -.6 -.7 -.8 -1.1c-.2 -.4 -.2 -.9 -.2 -1.3V260.7c0 -.4 0 -.9 .2 -1.3c.2 -.4 .4 -.8 .8 -1.1c.3 -.3 .7 -.6 1.1 -.7c.4 -.2 .8 -.3 1.3 -.3Zm6.2 52.7h44.8c.6 0 1.3 .1 1.9 .2c.6 .1 1.2 .3 1.8 .5c.6 .3 1.1 .6 1.6 .9c.6 .4 1.1 .8 1.5 1.2c.5 .5 .9 1 1.2 1.5c.4 .5 .6 1.1 .9 1.6c.2 .6 .4 1.2 .5 1.9c.2 .6 .2 1.2 .2 1.8v46.2c0 .6 0 1.3 -.2 1.9c-.1 .6 -.3 1.2 -.5 1.8c-.3 .6 -.5 1.1 -.9 1.7c-.3 .5 -.7 1 -1.2 1.4c-.4 .5 -.9 .9 -1.5 1.2c-.5 .4 -1 .7 -1.6 .9c-.6 .2 -1.2 .4 -1.8 .5c-.6 .2 -1.3 .2 -1.9 .2H469.8c-.7 0 -1.3 0 -1.9 -.2c-.6 -.1 -1.2 -.3 -1.8 -.5c-.6 -.2 -1.1 -.5 -1.7 -.9c-.5 -.3 -1 -.7 -1.4 -1.2c-.5 -.4 -.9 -.9 -1.2 -1.4c-.4 -.6 -.7 -1.1 -.9 -1.7c-.3 -.6 -.4 -1.2 -.6 -1.8c-.1 -.6 -.1 -1.3 -.1 -1.9V319.6c0 -.6 0 -1.2 .1 -1.8c.2 -.7 .3 -1.3 .6 -1.9c.2 -.5 .5 -1.1 .9 -1.6c.3 -.5 .7 -1 1.2 -1.5c.4 -.4 .9 -.8 1.4 -1.2c.6 -.3 1.1 -.6 1.7 -.9c.6 -.2 1.2 -.4 1.8 -.5c.6 -.1 1.2 -.2 1.9 -.2Zm-5.6 87.7c0 -4.1 12.5 -7.5 28 -7.5c7.4 0 14.5 .8 19.8 2.2c5.2 1.4 8.2 3.4 8.2 5.3v21.5c0 4.2 -12.6 7.6 -28 7.6c-15.5 0 -28 -3.4 -28 -7.6V397.7Zm56 0c0 4.2 -12.6 7.6 -28 7.6c-15.5 0 -28 -3.4 -28 -7.6m11.5 -13c0 -4.3 .1 -8.5 .2 -12.5" class="g1_333"/>
<path d="M475.7 389.3l-1.5 -4.6h3.1l-1.6 4.6Z" class="g2_333"/>
<path d="M475.7 389.3l-1.5 -4.6h3.1l-1.6 4.6Z" class="g1_333"/>
<path d="M476.1 367.6l1.4 4.6l-3.1 -.1l1.7 -4.5Z" class="g2_333"/>
<path d="M476.1 367.6l1.4 4.6l-3.1 -.1l1.7 -4.5Zm32.1 16.8c0 0 0 -4.1 0 -12.2" class="g1_333"/>
<path d="M508.2 388.9l-1.5 -4.5h3l-1.5 4.5Z" class="g2_333"/>
<path d="M508.2 388.9l-1.5 -4.5h3l-1.5 4.5Z" class="g1_333"/>
<path d="M508.2 367.6l1.5 4.6h-3l1.5 -4.6Z" class="g2_333"/>
<path d="M508.2 367.6l1.5 4.6h-3l1.5 -4.6ZM543.7 245.8h80.2V452.1H543.7V245.8Zm11.5 11.5h57.2c.5 0 .9 .1 1.3 .3c.4 .1 .8 .4 1.1 .7c.4 .3 .6 .7 .8 1.1c.2 .4 .2 .9 .2 1.3v16.1c0 .4 0 .9 -.2 1.3c-.2 .4 -.4 .8 -.8 1.1c-.3 .3 -.7 .6 -1.1 .8c-.4 .1 -.8 .2 -1.3 .2H555.2c-.4 0 -.9 -.1 -1.3 -.2c-.4 -.2 -.8 -.5 -1.1 -.8c-.3 -.3 -.6 -.7 -.8 -1.1c-.1 -.4 -.2 -.9 -.2 -1.3V260.7c0 -.4 .1 -.9 .2 -1.3c.2 -.4 .5 -.8 .8 -1.1c.3 -.3 .7 -.6 1.1 -.7c.4 -.2 .9 -.3 1.3 -.3Zm6.2 52.7h44.8c.7 0 1.3 .1 1.9 .2c.6 .1 1.2 .3 1.8 .5c.6 .3 1.1 .6 1.7 .9c.5 .4 1 .8 1.4 1.2c.5 .5 .9 1 1.2 1.5c.4 .5 .7 1.1 .9 1.6c.3 .6 .4 1.2 .6 1.9c.1 .6 .1 1.2 .1 1.8v46.2c0 .6 0 1.3 -.1 1.9c-.2 .6 -.3 1.2 -.6 1.8c-.2 .6 -.5 1.1 -.9 1.7c-.3 .5 -.7 1 -1.2 1.4c-.4 .5 -.9 .9 -1.4 1.2c-.6 .4 -1.1 .7 -1.7 .9c-.6 .2 -1.2 .4 -1.8 .5c-.6 .2 -1.2 .2 -1.9 .2H561.4c-.6 0 -1.3 0 -1.9 -.2c-.6 -.1 -1.2 -.3 -1.8 -.5c-.6 -.2 -1.1 -.5 -1.6 -.9c-.6 -.3 -1.1 -.7 -1.5 -1.2c-.5 -.4 -.9 -.9 -1.2 -1.4c-.4 -.6 -.6 -1.1 -.9 -1.7c-.2 -.6 -.4 -1.2 -.5 -1.8c-.2 -.6 -.2 -1.3 -.2 -1.9V319.6c0 -.6 0 -1.2 .2 -1.8c.1 -.7 .3 -1.3 .5 -1.9c.3 -.5 .5 -1.1 .9 -1.6c.3 -.5 .7 -1 1.2 -1.5c.4 -.4 .9 -.8 1.5 -1.2c.5 -.3 1 -.6 1.6 -.9c.6 -.2 1.2 -.4 1.8 -.5c.6 -.1 1.3 -.2 1.9 -.2Zm-5.6 87.7c0 -4.1 12.6 -7.5 28 -7.5c7.4 0 14.5 .8 19.8 2.2c5.2 1.4 8.2 3.4 8.2 5.3v21.5c0 4.2 -12.5 7.6 -28 7.6c-15.4 0 -28 -3.4 -28 -7.6V397.7Zm56 0c0 4.2 -12.5 7.6 -28 7.6c-15.4 0 -28 -3.4 -28 -7.6m12.3 -13c0 -4.3 0 -8.5 -.2 -12.5" class="g1_333"/>
<path d="M568.1 389.3l-1.5 -4.6h3.1l-1.6 4.6Z" class="g2_333"/>
<path d="M568.1 389.3l-1.5 -4.6h3.1l-1.6 4.6Z" class="g1_333"/>
<path d="M567.8 367.6l1.7 4.5l-3.1 .1l1.4 -4.6Z" class="g2_333"/>
<path d="M567.8 367.6l1.7 4.5l-3.1 .1l1.4 -4.6Zm32.5 17.1c0 -4.3 0 -8.5 -.2 -12.5" class="g1_333"/>
<path d="M600.3 389.3l-1.5 -4.6h3l-1.5 4.6Z" class="g2_333"/>
<path d="M600.3 389.3l-1.5 -4.6h3l-1.5 4.6Z" class="g1_333"/>
<path d="M599.9 367.6l1.7 4.5l-3 .1l1.3 -4.6Z" class="g2_333"/>
<path d="M599.9 367.6l1.7 4.5l-3 .1l1.3 -4.6ZM417.6 280.2l145.6 28.9" class="g1_333"/>
<path d="M566.5 309.8l-4.8 .6l1.5 -1.3l-.9 -1.7l4.2 2.4Z" class="g2_333"/>
<path d="M566.5 309.8l-4.8 .6l1.5 -1.3l-.9 -1.7l4.2 2.4ZM401.6 280.2l70.2 28.1" class="g1_333"/>
<path d="M475 309.5l-4.8 -.2l1.6 -1l-.5 -1.9l3.7 3.1Z" class="g2_333"/>
<path d="M475 309.5l-4.8 -.2l1.6 -1l-.5 -1.9l3.7 3.1ZM385.6 280.2v25.1" class="g1_333"/>
<path d="M385.6 308.7l-1.5 -4.6l1.5 1.2l1.5 -1.2l-1.5 4.6Z" class="g2_333"/>
<path d="M385.6 308.7l-1.5 -4.6l1.5 1.2l1.5 -1.2l-1.5 4.6ZM492.2 280.2v25.1" class="g1_333"/>
<path d="M492.2 308.7l-1.5 -4.6l1.5 1.2l1.5 -1.2l-1.5 4.6Z" class="g2_333"/>
<path d="M492.2 308.7l-1.5 -4.6l1.5 1.2l1.5 -1.2l-1.5 4.6Zm-16 -28.5L406 308.3" class="g1_333"/>
<path d="M402.8 309.5l3.7 -3.1l-.5 1.9l1.6 1l-4.8 .2Z" class="g2_333"/>
<path d="M402.8 309.5l3.7 -3.1l-.5 1.9l1.6 1l-4.8 .2ZM508.2 280.2l71.2 28.1" class="g1_333"/>
<path d="M582.6 309.5l-4.8 -.2l1.6 -1l-.5 -1.9l3.7 3.1Z" class="g2_333"/>
<path d="M582.6 309.5l-4.8 -.2l1.6 -1l-.5 -1.9l3.7 3.1ZM567.8 280.2L422.3 309.1" class="g1_333"/>
<path d="M418.9 309.8l4.2 -2.4l-.8 1.7l1.4 1.3l-4.8 -.6Z" class="g2_333"/>
<path d="M418.9 309.8l4.2 -2.4l-.8 1.7l1.4 1.3l-4.8 -.6ZM583.8 280.2l-71.2 28.1" class="g1_333"/>
<path d="M509.4 309.5l3.7 -3.1l-.5 1.9l1.6 1l-4.8 .2Z" class="g2_333"/>
<path d="M509.4 309.5l3.7 -3.1l-.5 1.9l1.6 1l-4.8 .2Zm90.4 -29.3v25.1" class="g1_333"/>
<path d="M599.8 308.7l-1.5 -4.6l1.5 1.2l1.5 -1.2l-1.5 4.6Z" class="g2_333"/>
<path d="M599.8 308.7l-1.5 -4.6l1.5 1.2l1.5 -1.2l-1.5 4.6ZM435.1 326.1h23.6" class="g1_333"/>
<path d="M428.2 326.1l6.9 -2.3v4.6l-6.9 -2.3Z" class="g2_333"/>
<path d="M428.2 326.1l6.9 -2.3v4.6l-6.9 -2.3Z" class="g1_333"/>
<path d="M465.6 326.1l-6.9 2.3v-4.6l6.9 2.3Z" class="g2_333"/>
<path d="M465.6 326.1l-6.9 2.3v-4.6l6.9 2.3Zm-30.5 31h23.6" class="g1_333"/>
<path d="M428.2 357.1l6.9 -2.3v4.6l-6.9 -2.3Z" class="g2_333"/>
<path d="M428.2 357.1l6.9 -2.3v4.6l-6.9 -2.3Z" class="g1_333"/>
<path d="M465.6 357.1l-6.9 2.3v-4.6l6.9 2.3Z" class="g2_333"/>
<path d="M465.6 357.1l-6.9 2.3v-4.6l6.9 2.3Zm60 0h24.8" class="g1_333"/>
<path d="M518.8 357.1l6.8 -2.3v4.6l-6.8 -2.3Z" class="g2_333"/>
<path d="M518.8 357.1l6.8 -2.3v4.6l-6.8 -2.3Z" class="g1_333"/>
<path d="M557.2 357.1l-6.8 2.3v-4.6l6.8 2.3Z" class="g2_333"/>
<path d="M557.2 357.1l-6.8 2.3v-4.6l6.8 2.3Zm-31.6 -31h24.8" class="g1_333"/>
<path d="M518.8 326.1l6.8 -2.3v4.6l-6.8 -2.3Z" class="g2_333"/>
<path d="M518.8 326.1l6.8 -2.3v4.6l-6.8 -2.3Z" class="g1_333"/>
<path d="M557.2 326.1l-6.8 2.3v-4.6l6.8 2.3Z" class="g2_333"/>
<path d="M557.2 326.1l-6.8 2.3v-4.6l6.8 2.3ZM364.9 154.2h73.4c.5 0 .9 .1 1.3 .2c.5 .2 .8 .5 1.2 .8c.3 .3 .5 .7 .7 1.1c.2 .4 .3 .9 .3 1.3v16.1c0 .4 -.1 .9 -.3 1.3c-.2 .4 -.4 .8 -.7 1.1c-.4 .3 -.7 .6 -1.2 .7c-.4 .2 -.8 .3 -1.3 .3H364.9c-.5 0 -.9 -.1 -1.3 -.3c-.4 -.1 -.8 -.4 -1.1 -.7c-.3 -.3 -.6 -.7 -.8 -1.1c-.1 -.4 -.2 -.9 -.2 -1.3V157.6c0 -.4 .1 -.9 .2 -1.3c.2 -.4 .5 -.8 .8 -1.1c.3 -.3 .7 -.6 1.1 -.8c.4 -.1 .8 -.2 1.3 -.2Zm182.2 0h73.4c.5 0 .9 .1 1.3 .2c.5 .2 .8 .5 1.1 .8c.4 .3 .6 .7 .8 1.1c.2 .4 .3 .9 .3 1.3v16.1c0 .4 -.1 .9 -.3 1.3c-.2 .4 -.4 .8 -.8 1.1c-.3 .3 -.6 .6 -1.1 .7c-.4 .2 -.8 .3 -1.3 .3H547.1c-.5 0 -.9 -.1 -1.3 -.3c-.4 -.1 -.8 -.4 -1.1 -.7c-.4 -.3 -.6 -.7 -.8 -1.1c-.2 -.4 -.2 -.9 -.2 -1.3V157.6c0 -.4 0 -.9 .2 -1.3c.2 -.4 .4 -.8 .8 -1.1c.3 -.3 .7 -.6 1.1 -.8c.4 -.1 .8 -.2 1.3 -.2Zm-91.6 0h73.4c.5 0 .9 .1 1.3 .2c.4 .2 .8 .5 1.1 .8c.3 .3 .6 .7 .8 1.1c.1 .4 .2 .9 .2 1.3v16.1c0 .4 -.1 .9 -.2 1.3c-.2 .4 -.5 .8 -.8 1.1c-.3 .3 -.7 .6 -1.1 .7c-.4 .2 -.8 .3 -1.3 .3H455.5c-.5 0 -.9 -.1 -1.3 -.3c-.5 -.1 -.8 -.4 -1.2 -.7c-.3 -.3 -.5 -.7 -.7 -1.1c-.2 -.4 -.3 -.9 -.3 -1.3V157.6c0 -.4 .1 -.9 .3 -1.3c.2 -.4 .4 -.8 .7 -1.1c.4 -.3 .7 -.6 1.2 -.8c.4 -.1 .8 -.2 1.3 -.2Zm-53.9 98.4V181.8" class="g1_333"/>
<path d="M401.6 256l-2.3 -4.6l2.3 1.2l2.3 -1.2l-2.3 4.6Z" class="g2_333"/>
<path d="M401.6 256l-2.3 -4.6l2.3 1.2l2.3 -1.2l-2.3 4.6Z" class="g1_333"/>
<path d="M401.6 178.4l2.3 4.6l-2.3 -1.2l-2.3 1.2l2.3 -4.6Z" class="g2_333"/>
<path d="M401.6 178.4l2.3 4.6l-2.3 -1.2l-2.3 1.2l2.3 -4.6Zm90.6 74.2V181.8" class="g1_333"/>
<path d="M492.2 256l-2.3 -4.6l2.3 1.2l2.3 -1.2l-2.3 4.6Z" class="g2_333"/>
<path d="M492.2 256l-2.3 -4.6l2.3 1.2l2.3 -1.2l-2.3 4.6Z" class="g1_333"/>
<path d="M492.2 178.4l2.3 4.6l-2.3 -1.2l-2.3 1.2l2.3 -4.6Z" class="g2_333"/>
<path d="M492.2 178.4l2.3 4.6l-2.3 -1.2l-2.3 1.2l2.3 -4.6Zm91.6 74.2V181.8" class="g1_333"/>
<path d="M583.8 256l-2.3 -4.6l2.3 1.2l2.3 -1.2l-2.3 4.6Z" class="g2_333"/>
<path d="M583.8 256l-2.3 -4.6l2.3 1.2l2.3 -1.2l-2.3 4.6Z" class="g1_333"/>
<path d="M583.8 178.4l2.3 4.6l-2.3 -1.2l-2.3 1.2l2.3 -4.6Z" class="g2_333"/>
<path d="M583.8 178.4l2.3 4.6l-2.3 -1.2l-2.3 1.2l2.3 -4.6Z" class="g1_333"/>
<path d="M124.3 250.4C124.3 216.8 167.9 200 255 200c87 0 130.6 16.8 130.6 50.4" class="g3_333"/>
<path d="M124.3 254.7L121.4 249l2.9 1.4l2.9 -1.4l-2.9 5.7Z" class="g2_333"/>
<path d="M124.3 254.7L121.4 249l2.9 1.4l2.9 -1.4l-2.9 5.7Z" class="g3_333"/>
<path d="M385.6 254.7L382.7 249l2.9 1.4l2.9 -1.4l-2.9 5.7Z" class="g2_333"/>
<path d="M385.6 254.7L382.7 249l2.9 1.4l2.9 -1.4l-2.9 5.7ZM216 250.4C216 216.8 259.4 200 346.1 200c86.7 0 130.1 16.8 130.1 50.4" class="g3_333"/>
<path d="M216 254.7L213.1 249l2.9 1.4l2.9 -1.4l-2.9 5.7Z" class="g2_333"/>
<path d="M216 254.7L213.1 249l2.9 1.4l2.9 -1.4l-2.9 5.7Z" class="g3_333"/>
<path d="M476.2 254.7L473.3 249l2.9 1.4L479 249l-2.8 5.7Z" class="g2_333"/>
<path d="M476.2 254.7L473.3 249l2.9 1.4L479 249l-2.8 5.7ZM307.6 250.4C307.7 216.8 351 200 437.7 200c86.7 0 130.1 16.8 130.1 50.4" class="g3_333"/>
<path d="M307.6 254.7L304.8 249l2.8 1.4l2.9 -1.4l-2.9 5.7Z" class="g2_333"/>
<path d="M307.6 254.7L304.8 249l2.8 1.4l2.9 -1.4l-2.9 5.7Z" class="g3_333"/>
<path d="M567.8 254.7L564.9 249l2.9 1.4l2.9 -1.4l-2.9 5.7Z" class="g2_333"/>
<path d="M567.8 254.7L564.9 249l2.9 1.4l2.9 -1.4l-2.9 5.7Z" class="g3_333"/>
<path d="M83 316.9h18.5v18.5H83V316.9Zm32.1 0h18.5v18.5H115.1V316.9Zm0 30.9h18.5v18.5H115.1V347.8Zm-32.1 0h18.5v18.5H83V347.8Zm18.5 -26.3h13.6M129 347.8V335.4m-27.5 26.3h13.6M87.6 347.8V335.4m87.1 -18.5h18.5v18.5H174.7V316.9Zm32.1 0h18.5v18.5H206.8V316.9Zm0 30.9h18.5v18.5H206.8V347.8Zm-32.1 0h18.5v18.5H174.7V347.8Zm18.5 -26.3h13.6m13.9 26.3V335.4m-27.5 26.3h13.6M179.3 347.8V335.4m87 -18.5h18.5v18.5H266.3V316.9Zm32.1 0h18.5v18.5H298.4V316.9Zm0 30.9h18.5v18.5H298.4V347.8Zm-32.1 0h18.5v18.5H266.3V347.8Zm18.5 -26.3h13.6m13.9 26.3V335.4m-27.5 26.3h13.6M270.9 347.8V335.4M376.3 316.9h18.5v18.5H376.3V316.9Zm32.1 0h18.5v18.5H408.4V316.9Zm0 30.9h18.5v18.5H408.4V347.8Zm-32.1 0h18.5v18.5H376.3V347.8Zm18.5 -26.3h13.6m13.9 26.3V335.4m-27.5 26.3h13.6M380.9 347.8V335.4m86 -18.5h18.5v18.5H466.9V316.9Zm32.1 0h18.5v18.5H499V316.9Zm0 30.9h18.5v18.5H499V347.8Zm-32.1 0h18.5v18.5H466.9V347.8Zm18.5 -26.3H499m13.8 26.3V335.4m-27.4 26.3H499M471.5 347.8V335.4m87 -18.5H577v18.5H558.5V316.9Zm32.1 0h18.5v18.5H590.6V316.9Zm0 30.9h18.5v18.5H590.6V347.8Zm-32.1 0H577v18.5H558.5V347.8ZM577 321.5h13.6m13.9 26.3V335.4M577 361.7h13.6M563.1 347.8V335.4" class="g1_333"/>
</g>
<path d="M65 867.2H174.6" class="g4_333"/>
</svg>