<?xml version="1.0" encoding="UTF-8" standalone="no"?>
<!DOCTYPE svg PUBLIC "-//W3C//DTD SVG 1.1//EN"
"http://www.w3.org/Graphics/SVG/1.1/DTD/svg11.dtd">
<svg viewBox="0 0 714 1017" version="1.1" xmlns="http://www.w3.org/2000/svg" xmlns:xlink="http://www.w3.org/1999/xlink">
<defs>
<clipPath id="c0_138"><path d="M114.6 633.3V367.4H621V633.3Z"/></clipPath>
<clipPath id="c1_138"><path d="M114.6 633.3V367.4H621.8V633.3Z"/></clipPath>
<style type="text/css"><![CDATA[
.g0_138{
fill: #FFF;
}
.g1_138{
fill: #000;
}
.g2_138{
fill: none;
stroke: #000;
stroke-width: 2.291;
stroke-miterlimit: 10;
}
.g3_138{
fill: none;
stroke: #000;
stroke-width: 1.145;
stroke-miterlimit: 10;
}
]]></style>
</defs>
<path d="M0 1017.7H717.2V-3.7H0V1017.7Z" class="g0_138"/>
<g clip-path="url(#c1_138)">
<g clip-path="url(#c0_138)">
<path d="M114.6 367.4H621V633.3H114.6V367.4Z" class="g0_138"/>
<path d="M120.9 368h2.3v2.3h-2.3V368Zm4.5 0h2.3v2.3h-2.3V368Zm4.6 0h2.3v2.3H130V368Zm4.6 0h2.3v2.3h-2.3V368Zm4.6 0h2.3v2.3h-2.3V368Zm4.6 0h2.3v2.3h-2.3V368Zm4.6 0h2.3v2.3h-2.3V368Zm4.5 0h2.3v2.3h-2.3V368Zm4.6 0h2.3v2.3h-2.3V368Zm4.6 0h2.3v2.3h-2.3V368Zm4.6 0H169v2.3h-2.3V368Zm4.6 0h2.3v2.3h-2.3V368Zm4.6 0h2.3v2.3h-2.3V368Zm4.5 0h2.3v2.3h-2.3V368Zm4.6 0h2.3v2.3H185V368Zm4.6 0h2.3v2.3h-2.3V368Zm4.6 0h2.3v2.3h-2.3V368Zm4.6 0h2.3v2.3h-2.3V368Zm4.6 0h2.3v2.3h-2.3V368Zm4.5 0h2.3v2.3h-2.3V368Zm4.6 0h2.3v2.3h-2.3V368Zm4.6 0h2.3v2.3h-2.3V368Zm4.6 0H224v2.3h-2.3V368Zm4.6 0h2.3v2.3h-2.3V368Zm4.6 0h2.3v2.3h-2.3V368Zm4.5 0h2.3v2.3h-2.3V368Zm4.6 0h2.3v2.3H240V368Zm4.6 0h2.3v2.3h-2.3V368Zm4.6 0h2.3v2.3h-2.3V368Zm4.6 0h2.3v2.3h-2.3V368Zm4.6 0h2.3v2.3h-2.3V368Zm4.5 0h2.3v2.3h-2.3V368Zm4.6 0h2.3v2.3h-2.3V368Zm4.6 0h2.3v2.3h-2.3V368Zm4.6 0H279v2.3h-2.3V368Zm4.6 0h2.3v2.3h-2.3V368Zm4.6 0h2.3v2.3h-2.3V368Zm4.5 0h2.3v2.3h-2.3V368Zm4.6 0h2.3v2.3H295V368Zm4.6 0h2.3v2.3h-2.3V368Zm4.6 0h2.3v2.3h-2.3V368Zm4.6 0h2.3v2.3h-2.3V368Zm4.6 0h2.3v2.3h-2.3V368Zm4.5 0h2.3v2.3h-2.3V368Zm4.6 0h2.3v2.3h-2.3V368Zm4.6 0h2.3v2.3h-2.3V368Zm4.6 0H334v2.3h-2.3V368Zm4.6 0h2.3v2.3h-2.3V368Zm4.6 0h2.3v2.3h-2.3V368Zm4.5 0h2.3v2.3h-2.3V368Zm4.6 0h2.3v2.3H350V368Zm4.6 0h2.3v2.3h-2.3V368Zm4.6 0h2.3v2.3h-2.3V368Zm4.6 0h2.3v2.3h-2.3V368Zm4.6 0h2.3v2.3h-2.3V368Zm4.5 0h2.3v2.3h-2.3V368Zm4.6 0h2.3v2.3h-2.3V368Zm4.6 0h2.3v2.3h-2.3V368Zm4.6 0H389v2.3h-2.3V368Zm4.6 0h2.3v2.3h-2.3V368Zm4.6 0h2.3v2.3h-2.3V368Zm4.5 0h2.3v2.3h-2.3V368Zm4.6 0h2.3v2.3H405V368Zm4.6 0h2.3v2.3h-2.3V368Zm4.6 0h2.3v2.3h-2.3V368Zm4.6 0h2.3v2.3h-2.3V368Zm4.6 0h2.3v2.3h-2.3V368Zm4.5 0h2.3v2.3h-2.3V368Zm4.6 0h2.3v2.3h-2.3V368Zm4.6 0h2.3v2.3h-2.3V368Zm4.6 0H444v2.3h-2.3V368Zm4.6 0h2.3v2.3h-2.3V368Zm4.6 0h2.3v2.3h-2.3V368Zm4.5 0h2.3v2.3h-2.3V368Zm4.6 0h2.3v2.3H460V368Zm4.6 0h2.3v2.3h-2.3V368Zm4.6 0h2.3v2.3h-2.3V368Zm4.6 0h2.3v2.3h-2.3V368Zm4.6 0h2.3v2.3h-2.3V368Zm4.5 0h2.3v2.3h-2.3V368Zm4.6 0h2.3v2.3h-2.3V368Zm4.6 0h2.3v2.3h-2.3V368Zm4.6 0H499v2.3h-2.3V368Zm4.6 0h2.3v2.3h-2.3V368Zm4.6 0h2.3v2.3h-2.3V368Zm4.5 0h2.3v2.3h-2.3V368Zm4.6 0h2.3v2.3H515V368Zm4.6 0h2.3v2.3h-2.3V368Zm4.6 0h2.3v2.3h-2.3V368Zm4.6 0h2.3v2.3h-2.3V368Zm4.6 0h2.3v2.3h-2.3V368Zm4.5 0h2.3v2.3h-2.3V368Zm4.6 0h2.3v2.3h-2.3V368Zm4.6 0h2.3v2.3h-2.3V368Zm4.6 0H554v2.3h-2.3V368Zm4.6 0h2.3v2.3h-2.3V368Zm4.6 0h2.3v2.3h-2.3V368Zm4.5 0h2.3v2.3h-2.3V368Zm4.6 0h2.3v2.3H570V368Zm4.6 0h2.3v2.3h-2.3V368Zm4.6 0h2.3v2.3h-2.3V368Zm4.6 0h2.3v2.3h-2.3V368Zm4.6 0h2.3v2.3h-2.3V368Zm4.5 0h2.3v2.3h-2.3V368Zm4.6 0h2.3v2.3h-2.3V368Zm4.6 0h2.3v2.3h-2.3V368Zm4.6 0H609v2.3h-2.3V368Zm4.6 0h2.3v2.3h-2.3V368Zm4.6 0h2.3v2.3h-2.3V368Zm5.7 1.1v2.3h-2.3v-2.3h2.3Zm0 4.6V376h-2.3v-2.3h2.3Zm0 4.6v2.3h-2.3v-2.3h2.3Zm0 4.6v2.3h-2.3v-2.3h2.3Zm0 4.6v2.3h-2.3v-2.3h2.3Zm0 4.6v2.3h-2.3v-2.3h2.3Zm0 4.5v2.3h-2.3v-2.3h2.3Zm0 4.6v2.3h-2.3v-2.3h2.3Zm0 4.6v2.3h-2.3v-2.3h2.3Zm0 4.6v2.3h-2.3v-2.3h2.3Zm0 4.6v2.3h-2.3V415h2.3Zm0 4.6v2.3h-2.3v-2.3h2.3Zm0 4.5v2.3h-2.3v-2.3h2.3Zm0 4.6V431h-2.3v-2.3h2.3Zm0 4.6v2.3h-2.3v-2.3h2.3Zm0 4.6v2.3h-2.3v-2.3h2.3Zm0 4.6v2.3h-2.3v-2.3h2.3Zm0 4.6v2.3h-2.3v-2.3h2.3Zm0 4.5v2.3h-2.3v-2.3h2.3Zm0 4.6v2.3h-2.3v-2.3h2.3Zm0 4.6v2.3h-2.3v-2.3h2.3Zm0 4.6v2.3h-2.3v-2.3h2.3Zm0 4.6v2.3h-2.3V470h2.3Zm0 4.6v2.3h-2.3v-2.3h2.3Zm0 4.5v2.3h-2.3v-2.3h2.3Zm0 4.6V486h-2.3v-2.3h2.3Zm0 4.6v2.3h-2.3v-2.3h2.3Zm0 4.6v2.3h-2.3v-2.3h2.3Zm0 4.6v2.3h-2.3v-2.3h2.3Zm0 4.6v2.3h-2.3v-2.3h2.3Zm0 4.5v2.3h-2.3v-2.3h2.3Zm0 4.6v2.3h-2.3v-2.3h2.3Zm0 4.6v2.3h-2.3v-2.3h2.3Zm0 4.6v2.3h-2.3v-2.3h2.3Zm0 4.6v2.3h-2.3V525h2.3Zm0 4.6v2.3h-2.3v-2.3h2.3Zm0 4.5v2.3h-2.3v-2.3h2.3Zm0 4.6V541h-2.3v-2.3h2.3Zm0 4.6v2.3h-2.3v-2.3h2.3Zm0 4.6v2.3h-2.3v-2.3h2.3Zm0 4.6v2.3h-2.3v-2.3h2.3Zm0 4.6v2.3h-2.3v-2.3h2.3Zm0 4.5v2.3h-2.3v-2.3h2.3Zm0 4.6v2.3h-2.3v-2.3h2.3Zm0 4.6v2.3h-2.3v-2.3h2.3Zm0 4.6v2.3h-2.3v-2.3h2.3Zm0 4.6v2.3h-2.3V580h2.3Zm0 4.6v2.3h-2.3v-2.3h2.3Zm0 4.5v2.3h-2.3v-2.3h2.3Zm0 4.6V596h-2.3v-2.3h2.3Zm0 4.6v2.3h-2.3v-2.3h2.3Zm0 4.6v2.3h-2.3v-2.3h2.3Zm0 4.6v2.3h-2.3v-2.3h2.3Zm0 4.6v2.3h-2.3v-2.3h2.3Zm0 4.5v2.3h-2.3v-2.3h2.3Zm0 4.6v2.3h-2.3v-2.3h2.3Zm0 4.6v2.3h-2.3v-2.3h2.3Zm0 4.6v2.3h-2.3v-2.3h2.3Zm-3.4 3.4h-2.3v-2.3h2.3v2.3Zm-4.6 0h-2.3v-2.3h2.3v2.3Zm-4.6 0h-2.3v-2.3H609v2.3Zm-4.6 0h-2.3v-2.3h2.3v2.3Zm-4.6 0h-2.3v-2.3h2.3v2.3Zm-4.6 0h-2.3v-2.3h2.3v2.3Zm-4.5 0h-2.3v-2.3h2.3v2.3Zm-4.6 0h-2.3v-2.3h2.3v2.3Zm-4.6 0h-2.3v-2.3h2.3v2.3Zm-4.6 0h-2.3v-2.3h2.3v2.3Zm-4.6 0H570v-2.3h2.3v2.3Zm-4.6 0h-2.3v-2.3h2.3v2.3Zm-4.5 0h-2.3v-2.3h2.3v2.3Zm-4.6 0h-2.3v-2.3h2.3v2.3Zm-4.6 0h-2.3v-2.3H554v2.3Zm-4.6 0h-2.3v-2.3h2.3v2.3Zm-4.6 0h-2.3v-2.3h2.3v2.3Zm-4.6 0h-2.3v-2.3h2.3v2.3Zm-4.5 0h-2.3v-2.3h2.3v2.3Zm-4.6 0h-2.3v-2.3h2.3v2.3Zm-4.6 0h-2.3v-2.3h2.3v2.3Zm-4.6 0h-2.3v-2.3h2.3v2.3Zm-4.6 0H515v-2.3h2.3v2.3Zm-4.6 0h-2.3v-2.3h2.3v2.3Zm-4.5 0h-2.3v-2.3h2.3v2.3Zm-4.6 0h-2.3v-2.3h2.3v2.3Zm-4.6 0h-2.3v-2.3H499v2.3Zm-4.6 0h-2.3v-2.3h2.3v2.3Zm-4.6 0h-2.3v-2.3h2.3v2.3Zm-4.6 0h-2.3v-2.3h2.3v2.3Zm-4.5 0h-2.3v-2.3h2.3v2.3Zm-4.6 0h-2.3v-2.3h2.3v2.3Zm-4.6 0h-2.3v-2.3h2.3v2.3Zm-4.6 0h-2.3v-2.3h2.3v2.3Zm-4.6 0H460v-2.3h2.3v2.3Zm-4.6 0h-2.3v-2.3h2.3v2.3Zm-4.5 0h-2.3v-2.3h2.3v2.3Zm-4.6 0h-2.3v-2.3h2.3v2.3Zm-4.6 0h-2.3v-2.3H444v2.3Zm-4.6 0h-2.3v-2.3h2.3v2.3Zm-4.6 0h-2.3v-2.3h2.3v2.3Zm-4.6 0h-2.3v-2.3h2.3v2.3Zm-4.5 0h-2.3v-2.3h2.3v2.3Zm-4.6 0h-2.3v-2.3h2.3v2.3Zm-4.6 0h-2.3v-2.3h2.3v2.3Zm-4.6 0h-2.3v-2.3h2.3v2.3Zm-4.6 0H405v-2.3h2.3v2.3Zm-4.6 0h-2.3v-2.3h2.3v2.3Zm-4.5 0h-2.3v-2.3h2.3v2.3Zm-4.6 0h-2.3v-2.3h2.3v2.3Zm-4.6 0h-2.3v-2.3H389v2.3Zm-4.6 0h-2.3v-2.3h2.3v2.3Zm-4.6 0h-2.3v-2.3h2.3v2.3Zm-4.6 0h-2.3v-2.3h2.3v2.3Zm-4.5 0h-2.3v-2.3h2.3v2.3Zm-4.6 0h-2.3v-2.3h2.3v2.3Zm-4.6 0h-2.3v-2.3h2.3v2.3Zm-4.6 0h-2.3v-2.3h2.3v2.3Zm-4.6 0H350v-2.3h2.3v2.3Zm-4.6 0h-2.3v-2.3h2.3v2.3Zm-4.5 0h-2.3v-2.3h2.3v2.3Zm-4.6 0h-2.3v-2.3h2.3v2.3Zm-4.6 0h-2.3v-2.3H334v2.3Zm-4.6 0h-2.3v-2.3h2.3v2.3Zm-4.6 0h-2.3v-2.3h2.3v2.3Zm-4.6 0h-2.3v-2.3h2.3v2.3Zm-4.5 0h-2.3v-2.3h2.3v2.3Zm-4.6 0h-2.3v-2.3h2.3v2.3Zm-4.6 0h-2.3v-2.3h2.3v2.3Zm-4.6 0h-2.3v-2.3h2.3v2.3Zm-4.6 0H295v-2.3h2.3v2.3Zm-4.6 0h-2.3v-2.3h2.3v2.3Zm-4.5 0h-2.3v-2.3h2.3v2.3Zm-4.6 0h-2.3v-2.3h2.3v2.3Zm-4.6 0h-2.3v-2.3H279v2.3Zm-4.6 0h-2.3v-2.3h2.3v2.3Zm-4.6 0h-2.3v-2.3h2.3v2.3Zm-4.6 0h-2.3v-2.3h2.3v2.3Zm-4.5 0h-2.3v-2.3h2.3v2.3Zm-4.6 0h-2.3v-2.3h2.3v2.3Zm-4.6 0h-2.3v-2.3h2.3v2.3Zm-4.6 0h-2.3v-2.3h2.3v2.3Zm-4.6 0H240v-2.3h2.3v2.3Zm-4.6 0h-2.3v-2.3h2.3v2.3Zm-4.5 0h-2.3v-2.3h2.3v2.3Zm-4.6 0h-2.3v-2.3h2.3v2.3Zm-4.6 0h-2.3v-2.3H224v2.3Zm-4.6 0h-2.3v-2.3h2.3v2.3Zm-4.6 0h-2.3v-2.3h2.3v2.3Zm-4.6 0h-2.3v-2.3h2.3v2.3Zm-4.5 0h-2.3v-2.3h2.3v2.3Zm-4.6 0h-2.3v-2.3h2.3v2.3Zm-4.6 0h-2.3v-2.3h2.3v2.3Zm-4.6 0h-2.3v-2.3h2.3v2.3Zm-4.6 0H185v-2.3h2.3v2.3Zm-4.6 0h-2.3v-2.3h2.3v2.3Zm-4.5 0h-2.3v-2.3h2.3v2.3Zm-4.6 0h-2.3v-2.3h2.3v2.3Zm-4.6 0h-2.3v-2.3H169v2.3Zm-4.6 0h-2.3v-2.3h2.3v2.3Zm-4.6 0h-2.3v-2.3h2.3v2.3Zm-4.6 0h-2.3v-2.3h2.3v2.3Zm-4.5 0h-2.3v-2.3h2.3v2.3Zm-4.6 0h-2.3v-2.3h2.3v2.3Zm-4.6 0h-2.3v-2.3h2.3v2.3Zm-4.6 0h-2.3v-2.3h2.3v2.3Zm-4.6 0H130v-2.3h2.3v2.3Zm-4.6 0h-2.3v-2.3h2.3v2.3Zm-4.5 0h-2.3v-2.3h2.3v2.3Zm-4.6 0h-2.3v-2.3h2.3v2.3Zm-3.5 -3.4v-2.3h2.3v2.3h-2.3Zm0 -4.6v-2.3h2.3v2.3h-2.3Zm0 -4.6v-2.3h2.3v2.3h-2.3Zm0 -4.6v-2.2h2.3v2.2h-2.3Zm0 -4.5v-2.3h2.3v2.3h-2.3Zm0 -4.6v-2.3h2.3v2.3h-2.3Zm0 -4.6v-2.3h2.3v2.3h-2.3Zm0 -4.6V596h2.3v2.3h-2.3Zm0 -4.6v-2.3h2.3v2.3h-2.3Zm0 -4.6v-2.2h2.3v2.2h-2.3Zm0 -4.5v-2.3h2.3v2.3h-2.3Zm0 -4.6v-2.3h2.3V580h-2.3Zm0 -4.6v-2.3h2.3v2.3h-2.3Zm0 -4.6v-2.3h2.3v2.3h-2.3Zm0 -4.6v-2.3h2.3v2.3h-2.3Zm0 -4.6v-2.2h2.3v2.2h-2.3Zm0 -4.5v-2.3h2.3v2.3h-2.3Zm0 -4.6v-2.3h2.3v2.3h-2.3Zm0 -4.6v-2.3h2.3v2.3h-2.3Zm0 -4.6V541h2.3v2.3h-2.3Zm0 -4.6v-2.3h2.3v2.3h-2.3Zm0 -4.6v-2.2h2.3v2.2h-2.3Zm0 -4.5v-2.3h2.3v2.3h-2.3Zm0 -4.6v-2.3h2.3V525h-2.3Zm0 -4.6v-2.3h2.3v2.3h-2.3Zm0 -4.6v-2.3h2.3v2.3h-2.3Zm0 -4.6v-2.3h2.3v2.3h-2.3Zm0 -4.6v-2.2h2.3v2.2h-2.3Zm0 -4.5v-2.3h2.3v2.3h-2.3Zm0 -4.6v-2.3h2.3v2.3h-2.3Zm0 -4.6v-2.3h2.3v2.3h-2.3Zm0 -4.6V486h2.3v2.3h-2.3Zm0 -4.6v-2.3h2.3v2.3h-2.3Zm0 -4.6v-2.2h2.3v2.2h-2.3Zm0 -4.5v-2.3h2.3v2.3h-2.3Zm0 -4.6v-2.3h2.3V470h-2.3Zm0 -4.6v-2.3h2.3v2.3h-2.3Zm0 -4.6v-2.3h2.3v2.3h-2.3Zm0 -4.6v-2.3h2.3v2.3h-2.3Zm0 -4.6v-2.2h2.3v2.2h-2.3Zm0 -4.5v-2.3h2.3v2.3h-2.3Zm0 -4.6v-2.3h2.3v2.3h-2.3Zm0 -4.6v-2.3h2.3v2.3h-2.3Zm0 -4.6V431h2.3v2.3h-2.3Zm0 -4.6v-2.3h2.3v2.3h-2.3Zm0 -4.6v-2.2h2.3v2.2h-2.3Zm0 -4.5v-2.3h2.3v2.3h-2.3Zm0 -4.6v-2.3h2.3V415h-2.3Zm0 -4.6v-2.3h2.3v2.3h-2.3Zm0 -4.6v-2.3h2.3v2.3h-2.3Zm0 -4.6v-2.3h2.3v2.3h-2.3Zm0 -4.6v-2.2h2.3v2.2h-2.3Zm0 -4.5v-2.3h2.3v2.3h-2.3Zm0 -4.6v-2.3h2.3v2.3h-2.3Zm0 -4.6v-2.3h2.3v2.3h-2.3Zm0 -4.6V376h2.3v2.3h-2.3Zm0 -4.6v-2.3h2.3v2.3h-2.3Zm1.2 -5.7h2.3v2.3h-2.3V368Z" class="g1_138"/>
</g>
<path d="M127.7 403.5H471.5V621.2H127.7V403.5Z" class="g2_138"/>
<path d="M144.9 586.9h45.9v22.9H144.9V586.9Z" class="g0_138"/>
<path d="M144.9 586.9h45.9v22.9H144.9V586.9Z" class="g3_138"/>
<path d="M190.8 586.9h45.8v22.9H190.8V586.9Z" class="g0_138"/>
<path d="M190.8 586.9h45.8v22.9H190.8V586.9Z" class="g3_138"/>
<path d="M236.6 586.9h45.8v22.9H236.6V586.9Z" class="g0_138"/>
<path d="M236.6 586.9h45.8v22.9H236.6V586.9Z" class="g3_138"/>
<path d="M144.9 449.4h45.9v22.9H144.9V449.4Z" class="g0_138"/>
<path d="M144.9 449.4h45.9v22.9H144.9V449.4Z" class="g3_138"/>
<path d="M190.8 449.4h45.8v22.9H190.8V449.4Z" class="g0_138"/>
<path d="M190.8 449.4h45.8v22.9H190.8V449.4Z" class="g3_138"/>
<path d="M236.6 449.4h45.8v22.9H236.6V449.4Z" class="g0_138"/>
<path d="M236.6 449.4h45.8v22.9H236.6V449.4Z" class="g3_138"/>
<path d="M144.9 472.3h45.9v22.9H144.9V472.3Z" class="g0_138"/>
<path d="M144.9 472.3h45.9v22.9H144.9V472.3Z" class="g3_138"/>
<path d="M190.8 472.3h45.8v22.9H190.8V472.3Z" class="g0_138"/>
<path d="M190.8 472.3h45.8v22.9H190.8V472.3Z" class="g3_138"/>
<path d="M236.6 472.3h45.8v22.9H236.6V472.3Z" class="g0_138"/>
<path d="M236.6 472.3h45.8v22.9H236.6V472.3Z" class="g3_138"/>
<path d="M144.9 495.2h45.9v22.9H144.9V495.2Z" class="g0_138"/>
<path d="M144.9 495.2h45.9v22.9H144.9V495.2Z" class="g3_138"/>
<path d="M190.8 495.2h45.8v22.9H190.8V495.2Z" class="g0_138"/>
<path d="M190.8 495.2h45.8v22.9H190.8V495.2Z" class="g3_138"/>
<path d="M236.6 495.2h45.8v22.9H236.6V495.2Z" class="g0_138"/>
<path d="M236.6 495.2h45.8v22.9H236.6V495.2Z" class="g3_138"/>
<path d="M144.9 518.1h45.9V541H144.9V518.1Z" class="g0_138"/>
<path d="M144.9 518.1h45.9V541H144.9V518.1Z" class="g3_138"/>
<path d="M190.8 518.1h45.8V541H190.8V518.1Z" class="g0_138"/>
<path d="M190.8 518.1h45.8V541H190.8V518.1Z" class="g3_138"/>
<path d="M236.6 518.1h45.8V541H236.6V518.1Z" class="g0_138"/>
<path d="M236.6 518.1h45.8V541H236.6V518.1Z" class="g3_138"/>
<path d="M144.9 541h45.9v22.9H144.9V541Z" class="g0_138"/>
<path d="M144.9 541h45.9v22.9H144.9V541Z" class="g3_138"/>
<path d="M190.8 541h45.8v22.9H190.8V541Z" class="g0_138"/>
<path d="M190.8 541h45.8v22.9H190.8V541Z" class="g3_138"/>
<path d="M236.6 541h45.8v22.9H236.6V541Z" class="g0_138"/>
<path d="M236.6 541h45.8v22.9H236.6V541Z" class="g3_138"/>
<path d="M144.9 563.9h45.9v23H144.9v-23Z" class="g0_138"/>
<path d="M144.9 563.9h45.9v23H144.9v-23Z" class="g3_138"/>
<path d="M190.8 563.9h45.8v23H190.8v-23Z" class="g0_138"/>
<path d="M190.8 563.9h45.8v23H190.8v-23Z" class="g3_138"/>
<path d="M236.6 563.9h45.8v23H236.6v-23Z" class="g0_138"/>
<path d="M236.6 563.9h45.8v23H236.6v-23Z" class="g3_138"/>
<path d="M313.4 449.4H450.9v80.2H313.4V449.4Z" class="g0_138"/>
<path d="M313.4 449.4H450.9v80.2H313.4V449.4Z" class="g3_138"/>
<path d="M500.1 578.1h80.2V543.3H500.1v34.8Z" class="g0_138"/>
<path d="M500.1 578.1h80.2V543.3H500.1v34.8Zm8.1 0V543.3m64.1 34.8V543.3" class="g2_138"/>
<path d="M513.9 589.2h80.2V554.4H513.9v34.8Z" class="g0_138"/>
<path d="M513.9 589.2h80.2V554.4H513.9v34.8Zm8 0V554.4m64.2 34.8V554.4" class="g2_138"/>
<path d="M500.1 569.4l-210.4 .3" class="g3_138"/>
<path d="M283.7 569.7l8 -2.7l-2 2.7l2 2.6l-8 -2.6Z" class="g1_138"/>
<path d="M283.7 569.7l8 -2.7l-2 2.7l2 2.6l-8 -2.6Z" class="g3_138"/>
<path d="M359.2 561.6h65.3v16.1H359.2V561.6Z" class="g0_138"/>
<path d="M500.1 552H486.4c-7.7 0 -15.3 0 -22.9 .1l-104.3 .3c-7.6 .1 -11.5 -2.5 -11.5 -7.7v-7.8" class="g3_138"/>
<path d="M347.7 530.8l2.7 8.1l-2.7 -2l-2.6 2l2.6 -8.1Z" class="g1_138"/>
<path d="M347.7 530.8l2.7 8.1l-2.7 -2l-2.6 2l2.6 -8.1Z" class="g3_138"/>
<path d="M372.9 543.3h78v16.1h-78V543.3Z" class="g0_138"/>
<path d="M495.5 432.4h80.3V397.6H495.5v34.8Z" class="g0_138"/>
<path d="M495.5 432.4h80.3V397.6H495.5v34.8Zm8.1 0V397.6m64.1 34.8V397.6" class="g2_138"/>
<path d="M507 461.2h80.2V426.4H507v34.8Z" class="g0_138"/>
<path d="M507 461.2h80.2V426.4H507v34.8Zm8 0V426.4m64.2 34.8V426.4" class="g2_138"/>
<path d="M519.6 469.4h80.2V434.6H519.6v34.8Z" class="g0_138"/>
<path d="M519.6 469.4h80.2V434.6H519.6v34.8Zm8 0V434.6m64.2 34.8V434.6" class="g2_138"/>
<path d="M532.2 478.2h80.2V443.5H532.2v34.7Z" class="g0_138"/>
<path d="M532.2 478.2h80.2V443.5H532.2v34.7Zm8 0V443.5m64.2 34.7V443.5" class="g2_138"/>
<path d="M572.3 478.2v19.9c0 7.6 -3.8 11.4 -11.4 11.4H458.2" class="g3_138"/>
<path d="M452.1 509.5l8.1 -2.7l-2 2.7l2 2.7l-8.1 -2.7Z" class="g1_138"/>
<path d="M452.1 509.5l8.1 -2.7l-2 2.7l2 2.7l-8.1 -2.7Z" class="g3_138"/>
<path d="M482.9 502.1H554v16H482.9v-16Z" class="g0_138"/>
<path d="M321.4 463.7h11.4v51.5H321.4V463.7Z" class="g0_138"/>
<path d="M321.4 463.7h11.4v51.5H321.4V463.7Z" class="g3_138"/>
<path d="M343.2 463.7h11.4v51.5H343.2V463.7Z" class="g0_138"/>
<path d="M343.2 463.7h11.4v51.5H343.2V463.7Z" class="g3_138"/>
<path d="M364.9 463.7h11.5v51.5H364.9V463.7Z" class="g0_138"/>
<path d="M364.9 463.7h11.5v51.5H364.9V463.7Z" class="g3_138"/>
<path d="M387.8 463.7h11.5v51.5H387.8V463.7Z" class="g0_138"/>
<path d="M387.8 463.7h11.5v51.5H387.8V463.7Z" class="g3_138"/>
<path d="M409.6 463.7h11.5v51.5H409.6V463.7Z" class="g0_138"/>
<path d="M409.6 463.7h11.5v51.5H409.6V463.7Z" class="g3_138"/>
<path d="M431.4 463.7h11.4v51.5H431.4V463.7Z" class="g0_138"/>
<path d="M431.4 463.7h11.4v51.5H431.4V463.7Z" class="g3_138"/>
</g>
</svg>