<?xml version="1.0" encoding="UTF-8" standalone="no"?>
<!DOCTYPE svg PUBLIC "-//W3C//DTD SVG 1.1//EN"
"http://www.w3.org/Graphics/SVG/1.1/DTD/svg11.dtd">
<svg viewBox="0 0 714 1017" version="1.1" xmlns="http://www.w3.org/2000/svg" xmlns:xlink="http://www.w3.org/1999/xlink">
<defs>
<clipPath id="c0_302"><path d="M305.4 284.4V145.3H432.2V284.4Z"/></clipPath>
<style type="text/css"><![CDATA[
.g0_302{
fill: #FFF;
}
.g1_302{
fill: none;
stroke: #000;
stroke-width: 1.145;
stroke-miterlimit: 10;
}
.g2_302{
fill: none;
stroke: #000;
stroke-width: 1.217;
stroke-miterlimit: 10;
}
.g3_302{
fill: none;
stroke: #000;
stroke-width: 1.156;
stroke-miterlimit: 10;
}
.g4_302{
fill: none;
stroke: #000;
stroke-width: 0.76;
stroke-miterlimit: 10;
}
]]></style>
</defs>
<path d="M0 1017.7H717.2V-3.7H0V1017.7Z" class="g0_302"/>
<g clip-path="url(#c0_302)">
<path d="M305.4 145.4H430.3V284.1H305.4V145.4Z" class="g0_302"/>
<path d="M379.3 157.4c0 .8 -.1 1.5 -.2 2.3c-.2 .7 -.4 1.4 -.7 2.1c-.2 .7 -.6 1.4 -1 2c-.4 .6 -.9 1.2 -1.4 1.7c-.6 .6 -1.2 1 -1.8 1.5c-.6 .4 -1.3 .7 -2 1c-.7 .3 -1.4 .5 -2.1 .7c-.7 .1 -1.5 .2 -2.2 .2c-.8 0 -1.5 -.1 -2.3 -.2c-.7 -.2 -1.4 -.4 -2.1 -.7c-.7 -.3 -1.4 -.6 -2 -1c-.6 -.5 -1.2 -.9 -1.7 -1.5c-.6 -.5 -1.1 -1.1 -1.5 -1.7c-.4 -.6 -.7 -1.3 -1 -2c-.3 -.7 -.5 -1.4 -.7 -2.1c-.1 -.8 -.2 -1.5 -.2 -2.3c0 -.7 .1 -1.5 .2 -2.2c.2 -.7 .4 -1.5 .7 -2.1c.3 -.7 .6 -1.4 1 -2c.4 -.7 .9 -1.2 1.5 -1.8c.5 -.5 1.1 -1 1.7 -1.4c.6 -.4 1.3 -.8 2 -1.1c.7 -.2 1.4 -.5 2.1 -.6c.8 -.1 1.5 -.2 2.3 -.2c.7 0 1.5 .1 2.2 .2c.7 .1 1.4 .4 2.1 .6c.7 .3 1.4 .7 2 1.1c.6 .4 1.2 .9 1.8 1.4c.5 .6 1 1.1 1.4 1.8c.4 .6 .8 1.3 1 2c.3 .6 .5 1.4 .7 2.1c.1 .7 .2 1.5 .2 2.2Z" class="g0_302"/>
<path d="M379.3 157.4c0 .8 -.1 1.5 -.2 2.3c-.2 .7 -.4 1.4 -.7 2.1c-.2 .7 -.6 1.4 -1 2c-.4 .6 -.9 1.2 -1.4 1.7c-.6 .6 -1.2 1 -1.8 1.5c-.6 .4 -1.3 .7 -2 1c-.7 .3 -1.4 .5 -2.1 .7c-.7 .1 -1.5 .2 -2.2 .2c-.8 0 -1.5 -.1 -2.3 -.2c-.7 -.2 -1.4 -.4 -2.1 -.7c-.7 -.3 -1.4 -.6 -2 -1c-.6 -.5 -1.2 -.9 -1.7 -1.5c-.6 -.5 -1.1 -1.1 -1.5 -1.7c-.4 -.6 -.7 -1.3 -1 -2c-.3 -.7 -.5 -1.4 -.7 -2.1c-.1 -.8 -.2 -1.5 -.2 -2.3c0 -.7 .1 -1.5 .2 -2.2c.2 -.7 .4 -1.5 .7 -2.1c.3 -.7 .6 -1.4 1 -2c.4 -.7 .9 -1.2 1.5 -1.8c.5 -.5 1.1 -1 1.7 -1.4c.6 -.4 1.3 -.8 2 -1.1c.7 -.2 1.4 -.5 2.1 -.6c.8 -.1 1.5 -.2 2.3 -.2c.7 0 1.5 .1 2.2 .2c.7 .1 1.4 .4 2.1 .6c.7 .3 1.4 .7 2 1.1c.6 .4 1.2 .9 1.8 1.4c.5 .6 1 1.1 1.4 1.8c.4 .6 .8 1.3 1 2c.3 .6 .5 1.4 .7 2.1c.1 .7 .2 1.5 .2 2.2Z" class="g1_302"/>
<path d="M429.7 189.5c0 .8 0 1.5 -.2 2.3c-.1 .7 -.4 1.4 -.6 2.1c-.3 .7 -.7 1.4 -1.1 2c-.4 .6 -.9 1.2 -1.4 1.7c-.6 .6 -1.1 1 -1.8 1.4c-.6 .5 -1.2 .8 -1.9 1.1c-.7 .3 -1.5 .5 -2.2 .7c-.7 .1 -1.5 .2 -2.2 .2c-.8 0 -1.5 -.1 -2.3 -.2c-.7 -.2 -1.4 -.4 -2.1 -.7c-.7 -.3 -1.4 -.6 -2 -1.1c-.6 -.4 -1.2 -.8 -1.7 -1.4c-.6 -.5 -1 -1.1 -1.5 -1.7c-.4 -.6 -.7 -1.3 -1 -2c-.3 -.7 -.5 -1.4 -.7 -2.1c-.1 -.8 -.2 -1.5 -.2 -2.3c0 -.7 .1 -1.5 .2 -2.2c.2 -.8 .4 -1.5 .7 -2.2c.3 -.7 .6 -1.3 1 -1.9c.5 -.7 .9 -1.3 1.5 -1.8c.5 -.5 1.1 -1 1.7 -1.4c.6 -.4 1.3 -.8 2 -1.1c.7 -.3 1.4 -.5 2.1 -.6c.8 -.2 1.5 -.2 2.3 -.2c.7 0 1.5 0 2.2 .2c.7 .1 1.5 .3 2.2 .6c.7 .3 1.3 .7 1.9 1.1c.7 .4 1.2 .9 1.8 1.4c.5 .5 1 1.1 1.4 1.8c.4 .6 .8 1.2 1.1 1.9c.2 .7 .5 1.4 .6 2.2c.2 .7 .2 1.5 .2 2.2Z" class="g0_302"/>
<path d="M429.7 189.5c0 .8 0 1.5 -.2 2.3c-.1 .7 -.4 1.4 -.6 2.1c-.3 .7 -.7 1.4 -1.1 2c-.4 .6 -.9 1.2 -1.4 1.7c-.6 .6 -1.1 1 -1.8 1.4c-.6 .5 -1.2 .8 -1.9 1.1c-.7 .3 -1.5 .5 -2.2 .7c-.7 .1 -1.5 .2 -2.2 .2c-.8 0 -1.5 -.1 -2.3 -.2c-.7 -.2 -1.4 -.4 -2.1 -.7c-.7 -.3 -1.4 -.6 -2 -1.1c-.6 -.4 -1.2 -.8 -1.7 -1.4c-.6 -.5 -1 -1.1 -1.5 -1.7c-.4 -.6 -.7 -1.3 -1 -2c-.3 -.7 -.5 -1.4 -.7 -2.1c-.1 -.8 -.2 -1.5 -.2 -2.3c0 -.7 .1 -1.5 .2 -2.2c.2 -.8 .4 -1.5 .7 -2.2c.3 -.7 .6 -1.3 1 -1.9c.5 -.7 .9 -1.3 1.5 -1.8c.5 -.5 1.1 -1 1.7 -1.4c.6 -.4 1.3 -.8 2 -1.1c.7 -.3 1.4 -.5 2.1 -.6c.8 -.2 1.5 -.2 2.3 -.2c.7 0 1.5 0 2.2 .2c.7 .1 1.5 .3 2.2 .6c.7 .3 1.3 .7 1.9 1.1c.7 .4 1.2 .9 1.8 1.4c.5 .5 1 1.1 1.4 1.8c.4 .6 .8 1.2 1.1 1.9c.2 .7 .5 1.4 .6 2.2c.2 .7 .2 1.5 .2 2.2Z" class="g1_302"/>
<path d="M328.9 189.5c0 .8 -.1 1.5 -.2 2.3c-.2 .7 -.4 1.4 -.7 2.1c-.3 .7 -.6 1.4 -1 2c-.4 .6 -.9 1.2 -1.5 1.7c-.5 .6 -1.1 1 -1.7 1.4c-.6 .5 -1.3 .8 -2 1.1c-.7 .3 -1.4 .5 -2.1 .7c-.8 .1 -1.5 .2 -2.3 .2c-.7 0 -1.5 -.1 -2.2 -.2c-.7 -.2 -1.4 -.4 -2.1 -.7c-.7 -.3 -1.4 -.6 -2 -1.1c-.6 -.4 -1.2 -.8 -1.8 -1.4c-.5 -.5 -1 -1.1 -1.4 -1.7c-.4 -.6 -.8 -1.3 -1 -2c-.3 -.7 -.5 -1.4 -.7 -2.1c-.1 -.8 -.2 -1.5 -.2 -2.3c0 -.7 .1 -1.5 .2 -2.2c.2 -.8 .4 -1.5 .7 -2.2c.2 -.7 .6 -1.3 1 -1.9c.4 -.7 .9 -1.3 1.4 -1.8c.6 -.5 1.2 -1 1.8 -1.4c.6 -.4 1.3 -.8 2 -1.1c.7 -.3 1.4 -.5 2.1 -.6c.7 -.2 1.5 -.2 2.2 -.2c.8 0 1.5 0 2.3 .2c.7 .1 1.4 .3 2.1 .6c.7 .3 1.4 .7 2 1.1c.6 .4 1.2 .9 1.7 1.4c.6 .5 1.1 1.1 1.5 1.8c.4 .6 .7 1.2 1 1.9c.3 .7 .5 1.4 .7 2.2c.1 .7 .2 1.5 .2 2.2Z" class="g0_302"/>
<path d="M328.9 189.5c0 .8 -.1 1.5 -.2 2.3c-.2 .7 -.4 1.4 -.7 2.1c-.3 .7 -.6 1.4 -1 2c-.4 .6 -.9 1.2 -1.5 1.7c-.5 .6 -1.1 1 -1.7 1.4c-.6 .5 -1.3 .8 -2 1.1c-.7 .3 -1.4 .5 -2.1 .7c-.8 .1 -1.5 .2 -2.3 .2c-.7 0 -1.5 -.1 -2.2 -.2c-.7 -.2 -1.4 -.4 -2.1 -.7c-.7 -.3 -1.4 -.6 -2 -1.1c-.6 -.4 -1.2 -.8 -1.8 -1.4c-.5 -.5 -1 -1.1 -1.4 -1.7c-.4 -.6 -.8 -1.3 -1 -2c-.3 -.7 -.5 -1.4 -.7 -2.1c-.1 -.8 -.2 -1.5 -.2 -2.3c0 -.7 .1 -1.5 .2 -2.2c.2 -.8 .4 -1.5 .7 -2.2c.2 -.7 .6 -1.3 1 -1.9c.4 -.7 .9 -1.3 1.4 -1.8c.6 -.5 1.2 -1 1.8 -1.4c.6 -.4 1.3 -.8 2 -1.1c.7 -.3 1.4 -.5 2.1 -.6c.7 -.2 1.5 -.2 2.2 -.2c.8 0 1.5 0 2.3 .2c.7 .1 1.4 .3 2.1 .6c.7 .3 1.4 .7 2 1.1c.6 .4 1.2 .9 1.7 1.4c.6 .5 1.1 1.1 1.5 1.8c.4 .6 .7 1.2 1 1.9c.3 .7 .5 1.4 .7 2.2c.1 .7 .2 1.5 .2 2.2Z" class="g1_302"/>
<path d="M328.9 241.1c0 .7 -.1 1.5 -.2 2.2c-.2 .8 -.4 1.5 -.7 2.2c-.3 .7 -.6 1.3 -1 1.9c-.4 .7 -.9 1.3 -1.5 1.8c-.5 .5 -1.1 1 -1.7 1.4c-.6 .4 -1.3 .8 -2 1.1c-.7 .3 -1.4 .5 -2.1 .6c-.8 .2 -1.5 .2 -2.3 .2c-.7 0 -1.5 0 -2.2 -.2c-.7 -.1 -1.4 -.3 -2.1 -.6c-.7 -.3 -1.4 -.7 -2 -1.1c-.6 -.4 -1.2 -.9 -1.8 -1.4c-.5 -.5 -1 -1.1 -1.4 -1.8c-.4 -.6 -.8 -1.2 -1 -1.9c-.3 -.7 -.5 -1.4 -.7 -2.2c-.1 -.7 -.2 -1.5 -.2 -2.2c0 -.8 .1 -1.5 .2 -2.3c.2 -.7 .4 -1.4 .7 -2.1c.2 -.7 .6 -1.4 1 -2c.4 -.6 .9 -1.2 1.4 -1.7c.6 -.6 1.2 -1 1.8 -1.4c.6 -.5 1.3 -.8 2 -1.1c.7 -.3 1.4 -.5 2.1 -.7c.7 -.1 1.5 -.2 2.2 -.2c.8 0 1.5 .1 2.3 .2c.7 .2 1.4 .4 2.1 .7c.7 .3 1.4 .6 2 1.1c.6 .4 1.2 .8 1.7 1.4c.6 .5 1.1 1.1 1.5 1.7c.4 .6 .7 1.3 1 2c.3 .7 .5 1.4 .7 2.1c.1 .8 .2 1.5 .2 2.3Z" class="g0_302"/>
<path d="M328.9 241.1c0 .7 -.1 1.5 -.2 2.2c-.2 .8 -.4 1.5 -.7 2.2c-.3 .7 -.6 1.3 -1 1.9c-.4 .7 -.9 1.3 -1.5 1.8c-.5 .5 -1.1 1 -1.7 1.4c-.6 .4 -1.3 .8 -2 1.1c-.7 .3 -1.4 .5 -2.1 .6c-.8 .2 -1.5 .2 -2.3 .2c-.7 0 -1.5 0 -2.2 -.2c-.7 -.1 -1.4 -.3 -2.1 -.6c-.7 -.3 -1.4 -.7 -2 -1.1c-.6 -.4 -1.2 -.9 -1.8 -1.4c-.5 -.5 -1 -1.1 -1.4 -1.8c-.4 -.6 -.8 -1.2 -1 -1.9c-.3 -.7 -.5 -1.4 -.7 -2.2c-.1 -.7 -.2 -1.5 -.2 -2.2c0 -.8 .1 -1.5 .2 -2.3c.2 -.7 .4 -1.4 .7 -2.1c.2 -.7 .6 -1.4 1 -2c.4 -.6 .9 -1.2 1.4 -1.7c.6 -.6 1.2 -1 1.8 -1.4c.6 -.5 1.3 -.8 2 -1.1c.7 -.3 1.4 -.5 2.1 -.7c.7 -.1 1.5 -.2 2.2 -.2c.8 0 1.5 .1 2.3 .2c.7 .2 1.4 .4 2.1 .7c.7 .3 1.4 .6 2 1.1c.6 .4 1.2 .8 1.7 1.4c.6 .5 1.1 1.1 1.5 1.7c.4 .6 .7 1.3 1 2c.3 .7 .5 1.4 .7 2.1c.1 .8 .2 1.5 .2 2.3Z" class="g1_302"/>
<path d="M379.3 272c0 .8 -.1 1.5 -.2 2.3c-.2 .7 -.4 1.4 -.7 2.1c-.2 .7 -.6 1.4 -1 2c-.4 .6 -.9 1.2 -1.4 1.7c-.6 .6 -1.2 1 -1.8 1.4c-.6 .5 -1.3 .8 -2 1.1c-.7 .3 -1.4 .5 -2.1 .7c-.7 .1 -1.5 .2 -2.2 .2c-.8 0 -1.5 -.1 -2.3 -.2c-.7 -.2 -1.4 -.4 -2.1 -.7c-.7 -.3 -1.4 -.6 -2 -1.1c-.6 -.4 -1.2 -.8 -1.7 -1.4c-.6 -.5 -1.1 -1.1 -1.5 -1.7c-.4 -.6 -.7 -1.3 -1 -2c-.3 -.7 -.5 -1.4 -.7 -2.1c-.1 -.8 -.2 -1.5 -.2 -2.3c0 -.7 .1 -1.5 .2 -2.2c.2 -.8 .4 -1.5 .7 -2.2c.3 -.7 .6 -1.3 1 -1.9c.4 -.7 .9 -1.3 1.5 -1.8c.5 -.5 1.1 -1 1.7 -1.4c.6 -.4 1.3 -.8 2 -1.1c.7 -.3 1.4 -.5 2.1 -.6c.8 -.2 1.5 -.2 2.3 -.2c.7 0 1.5 0 2.2 .2c.7 .1 1.4 .3 2.1 .6c.7 .3 1.4 .7 2 1.1c.6 .4 1.2 .9 1.8 1.4c.5 .5 1 1.1 1.4 1.8c.4 .6 .8 1.2 1 1.9c.3 .7 .5 1.4 .7 2.2c.1 .7 .2 1.5 .2 2.2Z" class="g0_302"/>
<path d="M379.3 272c0 .8 -.1 1.5 -.2 2.3c-.2 .7 -.4 1.4 -.7 2.1c-.2 .7 -.6 1.4 -1 2c-.4 .6 -.9 1.2 -1.4 1.7c-.6 .6 -1.2 1 -1.8 1.4c-.6 .5 -1.3 .8 -2 1.1c-.7 .3 -1.4 .5 -2.1 .7c-.7 .1 -1.5 .2 -2.2 .2c-.8 0 -1.5 -.1 -2.3 -.2c-.7 -.2 -1.4 -.4 -2.1 -.7c-.7 -.3 -1.4 -.6 -2 -1.1c-.6 -.4 -1.2 -.8 -1.7 -1.4c-.6 -.5 -1.1 -1.1 -1.5 -1.7c-.4 -.6 -.7 -1.3 -1 -2c-.3 -.7 -.5 -1.4 -.7 -2.1c-.1 -.8 -.2 -1.5 -.2 -2.3c0 -.7 .1 -1.5 .2 -2.2c.2 -.8 .4 -1.5 .7 -2.2c.3 -.7 .6 -1.3 1 -1.9c.4 -.7 .9 -1.3 1.5 -1.8c.5 -.5 1.1 -1 1.7 -1.4c.6 -.4 1.3 -.8 2 -1.1c.7 -.3 1.4 -.5 2.1 -.6c.8 -.2 1.5 -.2 2.3 -.2c.7 0 1.5 0 2.2 .2c.7 .1 1.4 .3 2.1 .6c.7 .3 1.4 .7 2 1.1c.6 .4 1.2 .9 1.8 1.4c.5 .5 1 1.1 1.4 1.8c.4 .6 .8 1.2 1 1.9c.3 .7 .5 1.4 .7 2.2c.1 .7 .2 1.5 .2 2.2Z" class="g1_302"/>
<path d="M429.7 241.1c0 .7 0 1.5 -.2 2.2c-.1 .8 -.4 1.5 -.6 2.2c-.3 .7 -.7 1.3 -1.1 1.9c-.4 .7 -.9 1.3 -1.4 1.8c-.6 .5 -1.1 1 -1.8 1.4c-.6 .4 -1.2 .8 -1.9 1.1c-.7 .3 -1.5 .5 -2.2 .6c-.7 .2 -1.5 .2 -2.2 .2c-.8 0 -1.5 0 -2.3 -.2c-.7 -.1 -1.4 -.3 -2.1 -.6c-.7 -.3 -1.4 -.7 -2 -1.1c-.6 -.4 -1.2 -.9 -1.7 -1.4c-.6 -.5 -1 -1.1 -1.5 -1.8c-.4 -.6 -.7 -1.2 -1 -1.9c-.3 -.7 -.5 -1.4 -.7 -2.2c-.1 -.7 -.2 -1.5 -.2 -2.2c0 -.8 .1 -1.5 .2 -2.3c.2 -.7 .4 -1.4 .7 -2.1c.3 -.7 .6 -1.4 1 -2c.5 -.6 .9 -1.2 1.5 -1.7c.5 -.6 1.1 -1 1.7 -1.4c.6 -.5 1.3 -.8 2 -1.1c.7 -.3 1.4 -.5 2.1 -.7c.8 -.1 1.5 -.2 2.3 -.2c.7 0 1.5 .1 2.2 .2c.7 .2 1.5 .4 2.2 .7c.7 .3 1.3 .6 1.9 1.1c.7 .4 1.2 .8 1.8 1.4c.5 .5 1 1.1 1.4 1.7c.4 .6 .8 1.3 1.1 2c.2 .7 .5 1.4 .6 2.1c.2 .8 .2 1.5 .2 2.3Z" class="g0_302"/>
<path d="M429.7 241.1c0 .7 0 1.5 -.2 2.2c-.1 .8 -.4 1.5 -.6 2.2c-.3 .7 -.7 1.3 -1.1 1.9c-.4 .7 -.9 1.3 -1.4 1.8c-.6 .5 -1.1 1 -1.8 1.4c-.6 .4 -1.2 .8 -1.9 1.1c-.7 .3 -1.5 .5 -2.2 .6c-.7 .2 -1.5 .2 -2.2 .2c-.8 0 -1.5 0 -2.3 -.2c-.7 -.1 -1.4 -.3 -2.1 -.6c-.7 -.3 -1.4 -.7 -2 -1.1c-.6 -.4 -1.2 -.9 -1.7 -1.4c-.6 -.5 -1 -1.1 -1.5 -1.8c-.4 -.6 -.7 -1.2 -1 -1.9c-.3 -.7 -.5 -1.4 -.7 -2.2c-.1 -.7 -.2 -1.5 -.2 -2.2c0 -.8 .1 -1.5 .2 -2.3c.2 -.7 .4 -1.4 .7 -2.1c.3 -.7 .6 -1.4 1 -2c.5 -.6 .9 -1.2 1.5 -1.7c.5 -.6 1.1 -1 1.7 -1.4c.6 -.5 1.3 -.8 2 -1.1c.7 -.3 1.4 -.5 2.1 -.7c.8 -.1 1.5 -.2 2.3 -.2c.7 0 1.5 .1 2.2 .2c.7 .2 1.5 .4 2.2 .7c.7 .3 1.3 .6 1.9 1.1c.7 .4 1.2 .8 1.8 1.4c.5 .5 1 1.1 1.4 1.7c.4 .6 .8 1.3 1.1 2c.2 .7 .5 1.4 .6 2.1c.2 .8 .2 1.5 .2 2.3ZM317.4 229.6V201m9.7 -17.6l31.1 -19.8m50.4 19.8L377.5 163.6m40.8 66V201m-40.6 65.1l30.8 -19m-50.5 19l-30.8 -19" class="g1_302"/>
</g>
<path d="M104.9 484.1h517" class="g2_302"/>
<path d="M104.9 528.4h517" class="g3_302"/>
<path d="M104.9 555.1h517M104.9 599h517m-517 43.9h517m-517 61.2h517" class="g4_302"/>
<path d="M104.9 748.2h517" class="g2_302"/>
</svg>