<?xml version="1.0" encoding="UTF-8" standalone="no"?>
<!DOCTYPE svg PUBLIC "-//W3C//DTD SVG 1.1//EN"
"http://www.w3.org/Graphics/SVG/1.1/DTD/svg11.dtd">
<svg viewBox="0 0 714 1017" version="1.1" xmlns="http://www.w3.org/2000/svg" xmlns:xlink="http://www.w3.org/1999/xlink">
<defs>
<clipPath id="c0_348"><path d="M86.6 288.2V102H206.9V288.2Z"/></clipPath>
<clipPath id="c1_348"><path d="M86.6 288.2V101.8H207.3V288.2Z"/></clipPath>
<style type="text/css"><![CDATA[
.g0_348{
fill: #FFF;
}
.g1_348{
fill: none;
stroke: #000;
stroke-width: 1.145;
stroke-miterlimit: 10;
}
.g2_348{
fill: #000;
}
]]></style>
</defs>
<path d="M0 1017.7H717.2V-3.7H0V1017.7Z" class="g0_348"/>
<g clip-path="url(#c1_348)">
<path clip-path="url(#c0_348)" d="M86.6 102H206.9V288.7H86.6V102Z" class="g0_348"/>
<path d="M99.3 157.5h81.4c.6 0 1.3 .1 1.9 .3c.7 .3 1.2 .7 1.7 1.2c.5 .4 .9 1 1.1 1.6c.3 .7 .4 1.3 .4 2v24.1c0 .7 -.1 1.3 -.4 1.9c-.2 .7 -.6 1.2 -1.1 1.7c-.5 .5 -1 .9 -1.7 1.1c-.6 .3 -1.3 .4 -1.9 .4H99.3c-.7 0 -1.3 -.1 -2 -.4c-.6 -.2 -1.2 -.6 -1.6 -1.1c-.5 -.5 -.9 -1 -1.2 -1.7c-.2 -.6 -.3 -1.2 -.3 -1.9V162.6c0 -.7 .1 -1.3 .3 -2c.3 -.6 .7 -1.2 1.2 -1.6c.4 -.5 1 -.9 1.6 -1.2c.7 -.2 1.3 -.3 2 -.3Z" class="g0_348"/>
<path d="M99.3 157.5h81.4c.6 0 1.3 .1 1.9 .3c.7 .3 1.2 .7 1.7 1.2c.5 .4 .9 1 1.1 1.6c.3 .7 .4 1.3 .4 2v24.1c0 .7 -.1 1.3 -.4 1.9c-.2 .7 -.6 1.2 -1.1 1.7c-.5 .5 -1 .9 -1.7 1.1c-.6 .3 -1.3 .4 -1.9 .4H99.3c-.7 0 -1.3 -.1 -2 -.4c-.6 -.2 -1.2 -.6 -1.6 -1.1c-.5 -.5 -.9 -1 -1.2 -1.7c-.2 -.6 -.3 -1.2 -.3 -1.9V162.6c0 -.7 .1 -1.3 .3 -2c.3 -.6 .7 -1.2 1.2 -1.6c.4 -.5 1 -.9 1.6 -1.2c.7 -.2 1.3 -.3 2 -.3Z" class="g1_348"/>
<path d="M92.4 230.9h81.4c.7 0 1.3 .1 2 .4c.6 .2 1.2 .6 1.6 1.1c.5 .5 .9 1 1.2 1.7c.2 .6 .3 1.3 .3 1.9v24.1c0 .7 -.1 1.3 -.3 2c-.3 .6 -.7 1.2 -1.2 1.6c-.4 .5 -1 .9 -1.6 1.2c-.7 .2 -1.3 .4 -2 .4H92.4c-.6 0 -1.3 -.2 -1.9 -.4c-.7 -.3 -1.2 -.7 -1.7 -1.2c-.5 -.4 -.9 -1 -1.1 -1.6c-.3 -.7 -.4 -1.3 -.4 -2V236c0 -.6 .1 -1.3 .4 -1.9c.2 -.7 .6 -1.2 1.1 -1.7c.5 -.5 1 -.9 1.7 -1.1c.6 -.3 1.3 -.4 1.9 -.4Z" class="g0_348"/>
<path d="M92.4 230.9h81.4c.7 0 1.3 .1 2 .4c.6 .2 1.2 .6 1.6 1.1c.5 .5 .9 1 1.2 1.7c.2 .6 .3 1.3 .3 1.9v24.1c0 .7 -.1 1.3 -.3 2c-.3 .6 -.7 1.2 -1.2 1.6c-.4 .5 -1 .9 -1.6 1.2c-.7 .2 -1.3 .4 -2 .4H92.4c-.6 0 -1.3 -.2 -1.9 -.4c-.7 -.3 -1.2 -.7 -1.7 -1.2c-.5 -.4 -.9 -1 -1.1 -1.6c-.3 -.7 -.4 -1.3 -.4 -2V236c0 -.6 .1 -1.3 .4 -1.9c.2 -.7 .6 -1.2 1.1 -1.7c.5 -.5 1 -.9 1.7 -1.1c.6 -.3 1.3 -.4 1.9 -.4Zm31.5 -33.3c.1 11.1 -2.2 16.7 -6.8 16.7c-4.6 0 -6.9 3.1 -6.9 9.3" class="g1_348"/>
<path d="M110.2 229.6l-2.7 -8l2.7 2l2.7 -2l-2.7 8Z" class="g2_348"/>
<path d="M110.2 229.6l-2.7 -8l2.7 2l2.7 -2l-2.7 8Z" class="g1_348"/>
<path d="M106.2 242.3h81.3c.7 0 1.4 .2 2 .4c.6 .3 1.2 .7 1.7 1.1c.5 .5 .8 1.1 1.1 1.7c.3 .7 .4 1.3 .4 2v24.1c0 .6 -.1 1.3 -.4 1.9c-.3 .7 -.6 1.2 -1.1 1.7c-.5 .5 -1.1 .9 -1.7 1.1c-.6 .3 -1.3 .4 -2 .4H106.2c-.7 0 -1.4 -.1 -2 -.4c-.6 -.2 -1.2 -.6 -1.7 -1.1c-.4 -.5 -.8 -1 -1.1 -1.7c-.2 -.6 -.4 -1.3 -.4 -1.9V247.5c0 -.7 .2 -1.3 .4 -2c.3 -.6 .7 -1.2 1.1 -1.7c.5 -.4 1.1 -.8 1.7 -1.1c.6 -.2 1.3 -.4 2 -.4Z" class="g0_348"/>
<path d="M106.2 242.3h81.3c.7 0 1.4 .2 2 .4c.6 .3 1.2 .7 1.7 1.1c.5 .5 .8 1.1 1.1 1.7c.3 .7 .4 1.3 .4 2v24.1c0 .6 -.1 1.3 -.4 1.9c-.3 .7 -.6 1.2 -1.1 1.7c-.5 .5 -1.1 .9 -1.7 1.1c-.6 .3 -1.3 .4 -2 .4H106.2c-.7 0 -1.4 -.1 -2 -.4c-.6 -.2 -1.2 -.6 -1.7 -1.1c-.4 -.5 -.8 -1 -1.1 -1.7c-.2 -.6 -.4 -1.3 -.4 -1.9V247.5c0 -.7 .2 -1.3 .4 -2c.3 -.6 .7 -1.2 1.1 -1.7c.5 -.4 1.1 -.8 1.7 -1.1c.6 -.2 1.3 -.4 2 -.4Z" class="g1_348"/>
<path d="M119.9 253.8h81.3c.7 0 1.3 .1 2 .4c.6 .2 1.2 .6 1.6 1.1c.5 .5 .9 1 1.2 1.7c.2 .6 .4 1.3 .4 1.9v24c0 .7 -.2 1.4 -.4 2c-.3 .6 -.7 1.2 -1.2 1.7c-.4 .5 -1 .8 -1.6 1.1c-.7 .2 -1.3 .4 -2 .4H119.9c-.7 0 -1.3 -.2 -1.9 -.4c-.7 -.3 -1.2 -.6 -1.7 -1.1c-.5 -.5 -.9 -1.1 -1.1 -1.7c-.3 -.6 -.4 -1.3 -.4 -2v-24c0 -.6 .1 -1.3 .4 -1.9c.2 -.7 .6 -1.2 1.1 -1.7c.5 -.5 1 -.9 1.7 -1.1c.6 -.3 1.2 -.4 1.9 -.4Z" class="g0_348"/>
<path clip-path="url(#c0_348)" d="M119.9 253.8h81.3c.7 0 1.3 .1 2 .4c.6 .2 1.2 .6 1.6 1.1c.5 .5 .9 1 1.2 1.7c.2 .6 .4 1.3 .4 1.9v24c0 .7 -.2 1.4 -.4 2c-.3 .6 -.7 1.2 -1.2 1.7c-.4 .5 -1 .8 -1.6 1.1c-.7 .2 -1.3 .4 -2 .4H119.9c-.7 0 -1.3 -.2 -1.9 -.4c-.7 -.3 -1.2 -.6 -1.7 -1.1c-.5 -.5 -.9 -1.1 -1.1 -1.7c-.3 -.6 -.4 -1.3 -.4 -2v-24c0 -.6 .1 -1.3 .4 -1.9c.2 -.7 .6 -1.2 1.1 -1.7c.5 -.5 1 -.9 1.7 -1.1c.6 -.3 1.2 -.4 1.9 -.4Zm27 -56.2V235" class="g1_348"/>
<path d="M146.9 241.1L144.2 233l2.7 2l2.6 -2l-2.6 8.1Z" class="g2_348"/>
<path d="M146.9 241.1L144.2 233l2.7 2l2.6 -2l-2.6 8.1Zm22.9 -43.5c0 18.7 2.3 28.1 6.8 28.1c4.6 0 6.8 6.9 6.9 20.8" class="g1_348"/>
<path d="M183.5 252.5l-2.7 -8l2.7 2l2.6 -2l-2.6 8Z" class="g2_348"/>
<path d="M183.5 252.5l-2.7 -8l2.7 2l2.6 -2l-2.6 8Z" class="g1_348"/>
<path d="M106.2 163.2h81.3c.7 0 1.4 .1 2 .4c.6 .2 1.2 .6 1.7 1.1c.5 .5 .8 1 1.1 1.7c.3 .6 .4 1.3 .4 1.9v24.1c0 .7 -.1 1.3 -.4 2c-.3 .6 -.6 1.2 -1.1 1.6c-.5 .5 -1.1 .9 -1.7 1.2c-.6 .2 -1.3 .4 -2 .4H106.2c-.7 0 -1.4 -.2 -2 -.4c-.6 -.3 -1.2 -.7 -1.7 -1.2c-.4 -.4 -.8 -1 -1.1 -1.6c-.2 -.7 -.4 -1.3 -.4 -2V168.3c0 -.6 .2 -1.3 .4 -1.9c.3 -.7 .7 -1.2 1.1 -1.7c.5 -.5 1.1 -.9 1.7 -1.1c.6 -.3 1.3 -.4 2 -.4Z" class="g0_348"/>
<path d="M106.2 163.2h81.3c.7 0 1.4 .1 2 .4c.6 .2 1.2 .6 1.7 1.1c.5 .5 .8 1 1.1 1.7c.3 .6 .4 1.3 .4 1.9v24.1c0 .7 -.1 1.3 -.4 2c-.3 .6 -.6 1.2 -1.1 1.6c-.5 .5 -1.1 .9 -1.7 1.2c-.6 .2 -1.3 .4 -2 .4H106.2c-.7 0 -1.4 -.2 -2 -.4c-.6 -.3 -1.2 -.7 -1.7 -1.2c-.4 -.4 -.8 -1 -1.1 -1.6c-.2 -.7 -.4 -1.3 -.4 -2V168.3c0 -.6 .2 -1.3 .4 -1.9c.3 -.7 .7 -1.2 1.1 -1.7c.5 -.5 1.1 -.9 1.7 -1.1c.6 -.3 1.3 -.4 2 -.4Z" class="g1_348"/>
<path d="M106.2 102.5h81.3c.7 0 1.4 .2 2 .4c.6 .3 1.2 .7 1.7 1.2c.5 .4 .8 1 1.1 1.6c.3 .7 .4 1.3 .4 2v24.1c0 .6 -.1 1.3 -.4 1.9c-.3 .7 -.6 1.2 -1.1 1.7c-.5 .5 -1.1 .9 -1.7 1.1c-.6 .3 -1.3 .4 -2 .4H106.2c-.7 0 -1.4 -.1 -2 -.4c-.6 -.2 -1.2 -.6 -1.7 -1.1c-.4 -.5 -.8 -1 -1.1 -1.7c-.2 -.6 -.4 -1.3 -.4 -1.9V107.7c0 -.7 .2 -1.3 .4 -2c.3 -.6 .7 -1.2 1.1 -1.6c.5 -.5 1.1 -.9 1.7 -1.2c.6 -.2 1.3 -.4 2 -.4Z" class="g0_348"/>
<path d="M106.2 102.5h81.3c.7 0 1.4 .2 2 .4c.6 .3 1.2 .7 1.7 1.2c.5 .4 .8 1 1.1 1.6c.3 .7 .4 1.3 .4 2v24.1c0 .6 -.1 1.3 -.4 1.9c-.3 .7 -.6 1.2 -1.1 1.7c-.5 .5 -1.1 .9 -1.7 1.1c-.6 .3 -1.3 .4 -2 .4H106.2c-.7 0 -1.4 -.1 -2 -.4c-.6 -.2 -1.2 -.6 -1.7 -1.1c-.4 -.5 -.8 -1 -1.1 -1.7c-.2 -.6 -.4 -1.3 -.4 -1.9V107.7c0 -.7 .2 -1.3 .4 -2c.3 -.6 .7 -1.2 1.1 -1.6c.5 -.5 1.1 -.9 1.7 -1.2c.6 -.2 1.3 -.4 2 -.4Zm40.7 34.4v19" class="g1_348"/>
<path d="M146.9 161.9l-2.7 -8l2.7 2l2.6 -2l-2.6 8Z" class="g2_348"/>
<path d="M146.9 161.9l-2.7 -8l2.7 2l2.6 -2l-2.6 8Z" class="g1_348"/>
</g>
</svg>