<?xml version="1.0" encoding="UTF-8" standalone="no"?>
<!DOCTYPE svg PUBLIC "-//W3C//DTD SVG 1.1//EN"
"http://www.w3.org/Graphics/SVG/1.1/DTD/svg11.dtd">
<svg viewBox="0 0 714 1017" version="1.1" xmlns="http://www.w3.org/2000/svg" xmlns:xlink="http://www.w3.org/1999/xlink">
<defs>
<clipPath id="c0_418"><path d="M133.6 235.9V147.6H638.9v88.3Z"/></clipPath>
<clipPath id="c1_418"><path d="M133.6 479.3V392.4H638.9v86.9Z"/></clipPath>
<clipPath id="c2_418"><path d="M133.6 236.4V146.2H639.3v90.2Z"/></clipPath>
<clipPath id="c3_418"><path d="M133.6 479.3V392.2H639.3v87.1Z"/></clipPath>
<style type="text/css"><![CDATA[
.g0_418{
fill: #FFF;
}
.g1_418{
fill: none;
stroke: #000;
stroke-width: 1.145;
stroke-miterlimit: 10;
}
]]></style>
</defs>
<path d="M0 1017.7H717.2V-3.7H0V1017.7Z" class="g0_418"/>
<g clip-path="url(#c2_418)">
<path clip-path="url(#c0_418)" d="M133.6 147.6H638.9v88.3H133.6V147.6Z" class="g0_418"/>
<path d="M134.1 207.9c0 -4.8 20.6 -8.7 45.9 -8.7c12.1 0 23.8 .9 32.4 2.5c8.6 1.7 13.4 3.9 13.4 6.2v17.3c0 4.8 -20.5 8.7 -45.8 8.7c-25.3 0 -45.9 -3.9 -45.9 -8.7V207.9Z" class="g0_418"/>
<path d="M134.1 207.9c0 -4.8 20.6 -8.7 45.9 -8.7c12.1 0 23.8 .9 32.4 2.5c8.6 1.7 13.4 3.9 13.4 6.2v17.3c0 4.8 -20.5 8.7 -45.8 8.7c-25.3 0 -45.9 -3.9 -45.9 -8.7V207.9Zm91.7 0c0 4.8 -20.5 8.7 -45.8 8.7c-25.3 0 -45.9 -3.9 -45.9 -8.7" class="g1_418"/>
<path d="M134.1 191.3c0 -4.8 20.6 -8.7 45.9 -8.7c12.1 0 23.8 .9 32.4 2.5c8.6 1.7 13.4 3.9 13.4 6.2v17.3c0 4.8 -20.5 8.7 -45.8 8.7c-25.3 0 -45.9 -3.9 -45.9 -8.7V191.3Z" class="g0_418"/>
<path d="M134.1 191.3c0 -4.8 20.6 -8.7 45.9 -8.7c12.1 0 23.8 .9 32.4 2.5c8.6 1.7 13.4 3.9 13.4 6.2v17.3c0 4.8 -20.5 8.7 -45.8 8.7c-25.3 0 -45.9 -3.9 -45.9 -8.7V191.3Zm91.7 0c0 4.8 -20.5 8.7 -45.8 8.7c-25.3 0 -45.9 -3.9 -45.9 -8.7" class="g1_418"/>
<path d="M134.1 174.1c0 -4.8 20.6 -8.7 45.9 -8.7c12.1 0 23.8 .9 32.4 2.5c8.6 1.7 13.4 3.9 13.4 6.2v17.3c0 4.8 -20.5 8.7 -45.8 8.7c-25.3 0 -45.9 -3.9 -45.9 -8.7V174.1Z" class="g0_418"/>
<path d="M134.1 174.1c0 -4.8 20.6 -8.7 45.9 -8.7c12.1 0 23.8 .9 32.4 2.5c8.6 1.7 13.4 3.9 13.4 6.2v17.3c0 4.8 -20.5 8.7 -45.8 8.7c-25.3 0 -45.9 -3.9 -45.9 -8.7V174.1Zm91.7 0c0 4.8 -20.5 8.8 -45.8 8.8c-25.3 0 -45.9 -4 -45.9 -8.8" class="g1_418"/>
<path d="M134.1 156.9c0 -4.8 20.6 -8.7 45.9 -8.7c12.1 0 23.8 .9 32.4 2.6c8.6 1.6 13.4 3.8 13.4 6.1v17.3c0 4.8 -20.5 8.7 -45.8 8.7c-25.3 0 -45.9 -3.9 -45.9 -8.7V156.9Z" class="g0_418"/>
<path d="M134.1 156.9c0 -4.8 20.6 -8.7 45.9 -8.7c12.1 0 23.8 .9 32.4 2.6c8.6 1.6 13.4 3.8 13.4 6.1v17.3c0 4.8 -20.5 8.7 -45.8 8.7c-25.3 0 -45.9 -3.9 -45.9 -8.7V156.9Zm91.7 0c0 4.9 -20.5 8.8 -45.8 8.8c-25.3 0 -45.9 -3.9 -45.9 -8.8" class="g1_418"/>
<path d="M271.6 207.9c0 -4.8 20.6 -8.7 45.9 -8.7c12.1 0 23.8 .9 32.4 2.5c8.6 1.7 13.4 3.9 13.4 6.2v17.3c0 4.8 -20.5 8.7 -45.8 8.7c-25.3 0 -45.9 -3.9 -45.9 -8.7V207.9Z" class="g0_418"/>
<path d="M271.6 207.9c0 -4.8 20.6 -8.7 45.9 -8.7c12.1 0 23.8 .9 32.4 2.5c8.6 1.7 13.4 3.9 13.4 6.2v17.3c0 4.8 -20.5 8.7 -45.8 8.7c-25.3 0 -45.9 -3.9 -45.9 -8.7V207.9Zm91.7 0c0 4.8 -20.5 8.7 -45.8 8.7c-25.3 0 -45.9 -3.9 -45.9 -8.7" class="g1_418"/>
<path d="M271.6 191.3c0 -4.8 20.6 -8.7 45.9 -8.7c12.1 0 23.8 .9 32.4 2.5c8.6 1.7 13.4 3.9 13.4 6.2v17.3c0 4.8 -20.5 8.7 -45.8 8.7c-25.3 0 -45.9 -3.9 -45.9 -8.7V191.3Z" class="g0_418"/>
<path d="M271.6 191.3c0 -4.8 20.6 -8.7 45.9 -8.7c12.1 0 23.8 .9 32.4 2.5c8.6 1.7 13.4 3.9 13.4 6.2v17.3c0 4.8 -20.5 8.7 -45.8 8.7c-25.3 0 -45.9 -3.9 -45.9 -8.7V191.3Zm91.7 0c0 4.8 -20.5 8.7 -45.8 8.7c-25.3 0 -45.9 -3.9 -45.9 -8.7" class="g1_418"/>
<path d="M271.6 174.1c0 -4.8 20.6 -8.7 45.9 -8.7c12.1 0 23.8 .9 32.4 2.5c8.6 1.7 13.4 3.9 13.4 6.2v17.3c0 4.8 -20.5 8.7 -45.8 8.7c-25.3 0 -45.9 -3.9 -45.9 -8.7V174.1Z" class="g0_418"/>
<path d="M271.6 174.1c0 -4.8 20.6 -8.7 45.9 -8.7c12.1 0 23.8 .9 32.4 2.5c8.6 1.7 13.4 3.9 13.4 6.2v17.3c0 4.8 -20.5 8.7 -45.8 8.7c-25.3 0 -45.9 -3.9 -45.9 -8.7V174.1Zm91.7 0c0 4.8 -20.5 8.8 -45.8 8.8c-25.3 0 -45.9 -4 -45.9 -8.8" class="g1_418"/>
<path d="M271.6 156.9c0 -4.8 20.6 -8.7 45.9 -8.7c12.1 0 23.8 .9 32.4 2.6c8.6 1.6 13.4 3.8 13.4 6.1v17.3c0 4.8 -20.5 8.7 -45.8 8.7c-25.3 0 -45.9 -3.9 -45.9 -8.7V156.9Z" class="g0_418"/>
<path d="M271.6 156.9c0 -4.8 20.6 -8.7 45.9 -8.7c12.1 0 23.8 .9 32.4 2.6c8.6 1.6 13.4 3.8 13.4 6.1v17.3c0 4.8 -20.5 8.7 -45.8 8.7c-25.3 0 -45.9 -3.9 -45.9 -8.7V156.9Zm91.7 0c0 4.9 -20.5 8.8 -45.8 8.8c-25.3 0 -45.9 -3.9 -45.9 -8.8" class="g1_418"/>
<path d="M409.1 207.9c0 -4.8 20.6 -8.7 45.9 -8.7c12.1 0 23.8 .9 32.4 2.5c8.6 1.7 13.4 3.9 13.4 6.2v17.3c0 4.8 -20.5 8.7 -45.8 8.7c-25.3 0 -45.9 -3.9 -45.9 -8.7V207.9Z" class="g0_418"/>
<path d="M409.1 207.9c0 -4.8 20.6 -8.7 45.9 -8.7c12.1 0 23.8 .9 32.4 2.5c8.6 1.7 13.4 3.9 13.4 6.2v17.3c0 4.8 -20.5 8.7 -45.8 8.7c-25.3 0 -45.9 -3.9 -45.9 -8.7V207.9Zm91.7 0c0 4.8 -20.5 8.7 -45.8 8.7c-25.3 0 -45.9 -3.9 -45.9 -8.7" class="g1_418"/>
<path d="M409.1 191.3c0 -4.8 20.6 -8.7 45.9 -8.7c12.1 0 23.8 .9 32.4 2.5c8.6 1.7 13.4 3.9 13.4 6.2v17.3c0 4.8 -20.5 8.7 -45.8 8.7c-25.3 0 -45.9 -3.9 -45.9 -8.7V191.3Z" class="g0_418"/>
<path d="M409.1 191.3c0 -4.8 20.6 -8.7 45.9 -8.7c12.1 0 23.8 .9 32.4 2.5c8.6 1.7 13.4 3.9 13.4 6.2v17.3c0 4.8 -20.5 8.7 -45.8 8.7c-25.3 0 -45.9 -3.9 -45.9 -8.7V191.3Zm91.7 0c0 4.8 -20.5 8.7 -45.8 8.7c-25.3 0 -45.9 -3.9 -45.9 -8.7" class="g1_418"/>
<path d="M409.1 174.1c0 -4.8 20.6 -8.7 45.9 -8.7c12.1 0 23.8 .9 32.4 2.5c8.6 1.7 13.4 3.9 13.4 6.2v17.3c0 4.8 -20.5 8.7 -45.8 8.7c-25.3 0 -45.9 -3.9 -45.9 -8.7V174.1Z" class="g0_418"/>
<path d="M409.1 174.1c0 -4.8 20.6 -8.7 45.9 -8.7c12.1 0 23.8 .9 32.4 2.5c8.6 1.7 13.4 3.9 13.4 6.2v17.3c0 4.8 -20.5 8.7 -45.8 8.7c-25.3 0 -45.9 -3.9 -45.9 -8.7V174.1Zm91.7 0c0 4.8 -20.5 8.8 -45.8 8.8c-25.3 0 -45.9 -4 -45.9 -8.8" class="g1_418"/>
<path d="M409.1 156.9c0 -4.8 20.6 -8.7 45.9 -8.7c12.1 0 23.8 .9 32.4 2.6c8.6 1.6 13.4 3.8 13.4 6.1v17.3c0 4.8 -20.5 8.7 -45.8 8.7c-25.3 0 -45.9 -3.9 -45.9 -8.7V156.9Z" class="g0_418"/>
<path d="M409.1 156.9c0 -4.8 20.6 -8.7 45.9 -8.7c12.1 0 23.8 .9 32.4 2.6c8.6 1.6 13.4 3.8 13.4 6.1v17.3c0 4.8 -20.5 8.7 -45.8 8.7c-25.3 0 -45.9 -3.9 -45.9 -8.7V156.9Zm91.7 0c0 4.9 -20.5 8.8 -45.8 8.8c-25.3 0 -45.9 -3.9 -45.9 -8.8" class="g1_418"/>
<path d="M546.6 207.9c0 -4.8 20.6 -8.7 45.9 -8.7c12.1 0 23.8 .9 32.4 2.5c8.6 1.7 13.4 3.9 13.4 6.2v17.3c0 4.8 -20.5 8.7 -45.8 8.7c-25.3 0 -45.9 -3.9 -45.9 -8.7V207.9Z" class="g0_418"/>
<path d="M546.6 207.9c0 -4.8 20.6 -8.7 45.9 -8.7c12.1 0 23.8 .9 32.4 2.5c8.6 1.7 13.4 3.9 13.4 6.2v17.3c0 4.8 -20.5 8.7 -45.8 8.7c-25.3 0 -45.9 -3.9 -45.9 -8.7V207.9Zm91.7 0c0 4.8 -20.5 8.7 -45.8 8.7c-25.3 0 -45.9 -3.9 -45.9 -8.7" class="g1_418"/>
<path d="M546.6 191.3c0 -4.8 20.6 -8.7 45.9 -8.7c12.1 0 23.8 .9 32.4 2.5c8.6 1.7 13.4 3.9 13.4 6.2v17.3c0 4.8 -20.5 8.7 -45.8 8.7c-25.3 0 -45.9 -3.9 -45.9 -8.7V191.3Z" class="g0_418"/>
<path d="M546.6 191.3c0 -4.8 20.6 -8.7 45.9 -8.7c12.1 0 23.8 .9 32.4 2.5c8.6 1.7 13.4 3.9 13.4 6.2v17.3c0 4.8 -20.5 8.7 -45.8 8.7c-25.3 0 -45.9 -3.9 -45.9 -8.7V191.3Zm91.7 0c0 4.8 -20.5 8.7 -45.8 8.7c-25.3 0 -45.9 -3.9 -45.9 -8.7" class="g1_418"/>
<path d="M546.6 174.1c0 -4.8 20.6 -8.7 45.9 -8.7c12.1 0 23.8 .9 32.4 2.5c8.6 1.7 13.4 3.9 13.4 6.2v17.3c0 4.8 -20.5 8.7 -45.8 8.7c-25.3 0 -45.9 -3.9 -45.9 -8.7V174.1Z" class="g0_418"/>
<path d="M546.6 174.1c0 -4.8 20.6 -8.7 45.9 -8.7c12.1 0 23.8 .9 32.4 2.5c8.6 1.7 13.4 3.9 13.4 6.2v17.3c0 4.8 -20.5 8.7 -45.8 8.7c-25.3 0 -45.9 -3.9 -45.9 -8.7V174.1Zm91.7 0c0 4.8 -20.5 8.8 -45.8 8.8c-25.3 0 -45.9 -4 -45.9 -8.8" class="g1_418"/>
<path d="M546.6 156.9c0 -4.8 20.6 -8.7 45.9 -8.7c12.1 0 23.8 .9 32.4 2.6c8.6 1.6 13.4 3.8 13.4 6.1v17.3c0 4.8 -20.5 8.7 -45.8 8.7c-25.3 0 -45.9 -3.9 -45.9 -8.7V156.9Z" class="g0_418"/>
<path d="M546.6 156.9c0 -4.8 20.6 -8.7 45.9 -8.7c12.1 0 23.8 .9 32.4 2.6c8.6 1.6 13.4 3.8 13.4 6.1v17.3c0 4.8 -20.5 8.7 -45.8 8.7c-25.3 0 -45.9 -3.9 -45.9 -8.7V156.9Zm91.7 0c0 4.9 -20.5 8.8 -45.8 8.8c-25.3 0 -45.9 -3.9 -45.9 -8.8" class="g1_418"/>
</g>
<g clip-path="url(#c3_418)">
<path clip-path="url(#c1_418)" d="M133.6 392.4H638.9v87.1H133.6V392.4Z" class="g0_418"/>
<path d="M134.1 452.4c0 -4.8 20.6 -8.7 45.9 -8.7c12.1 0 23.8 .9 32.4 2.6c8.6 1.6 13.4 3.8 13.4 6.1v17.3c0 4.8 -20.5 8.7 -45.8 8.7c-25.3 0 -45.9 -3.9 -45.9 -8.7V452.4Z" class="g0_418"/>
<path d="M134.1 452.4c0 -4.8 20.6 -8.7 45.9 -8.7c12.1 0 23.8 .9 32.4 2.6c8.6 1.6 13.4 3.8 13.4 6.1v17.3c0 4.8 -20.5 8.7 -45.8 8.7c-25.3 0 -45.9 -3.9 -45.9 -8.7V452.4Zm91.7 0c0 4.9 -20.5 8.8 -45.8 8.8c-25.3 0 -45.9 -3.9 -45.9 -8.8" class="g1_418"/>
<path d="M134.1 436.1c0 -4.9 20.6 -8.8 45.9 -8.8c12.1 0 23.8 .9 32.4 2.6c8.6 1.6 13.4 3.8 13.4 6.2v17.2c0 4.8 -20.5 8.8 -45.8 8.8c-25.3 0 -45.9 -4 -45.9 -8.8V436.1Z" class="g0_418"/>
<path d="M134.1 436.1c0 -4.9 20.6 -8.8 45.9 -8.8c12.1 0 23.8 .9 32.4 2.6c8.6 1.6 13.4 3.8 13.4 6.2v17.2c0 4.8 -20.5 8.8 -45.8 8.8c-25.3 0 -45.9 -4 -45.9 -8.8V436.1Zm91.7 0c0 4.8 -20.5 8.7 -45.8 8.7c-25.3 0 -45.9 -3.9 -45.9 -8.7" class="g1_418"/>
<path d="M134.1 418.9c0 -4.9 20.6 -8.8 45.9 -8.8c12.1 0 23.8 1 32.4 2.6c8.6 1.6 13.4 3.9 13.4 6.2v17.2c0 4.9 -20.5 8.8 -45.8 8.8c-25.3 0 -45.9 -3.9 -45.9 -8.8V418.9Z" class="g0_418"/>
<path d="M134.1 418.9c0 -4.9 20.6 -8.8 45.9 -8.8c12.1 0 23.8 1 32.4 2.6c8.6 1.6 13.4 3.9 13.4 6.2v17.2c0 4.9 -20.5 8.8 -45.8 8.8c-25.3 0 -45.9 -3.9 -45.9 -8.8V418.9Zm91.7 0c0 4.8 -20.5 8.7 -45.8 8.7c-25.3 0 -45.9 -3.9 -45.9 -8.7" class="g1_418"/>
<path d="M134.1 401.7c0 -4.8 20.6 -8.7 45.9 -8.7c12.1 0 23.8 .9 32.4 2.5c8.6 1.6 13.4 3.9 13.4 6.2V419c0 4.8 -20.5 8.7 -45.8 8.7c-25.3 0 -45.9 -3.9 -45.9 -8.7V401.7Z" class="g0_418"/>
<path d="M134.1 401.7c0 -4.8 20.6 -8.7 45.9 -8.7c12.1 0 23.8 .9 32.4 2.5c8.6 1.6 13.4 3.9 13.4 6.2V419c0 4.8 -20.5 8.7 -45.8 8.7c-25.3 0 -45.9 -3.9 -45.9 -8.7V401.7Zm91.7 0c0 4.8 -20.5 8.7 -45.8 8.7c-25.3 0 -45.9 -3.9 -45.9 -8.7" class="g1_418"/>
<path d="M271.6 452.4c0 -4.8 20.6 -8.7 45.9 -8.7c12.1 0 23.8 .9 32.4 2.6c8.6 1.6 13.4 3.8 13.4 6.1v17.3c0 4.8 -20.5 8.7 -45.8 8.7c-25.3 0 -45.9 -3.9 -45.9 -8.7V452.4Z" class="g0_418"/>
<path d="M271.6 452.4c0 -4.8 20.6 -8.7 45.9 -8.7c12.1 0 23.8 .9 32.4 2.6c8.6 1.6 13.4 3.8 13.4 6.1v17.3c0 4.8 -20.5 8.7 -45.8 8.7c-25.3 0 -45.9 -3.9 -45.9 -8.7V452.4Zm91.7 0c0 4.9 -20.5 8.8 -45.8 8.8c-25.3 0 -45.9 -3.9 -45.9 -8.8" class="g1_418"/>
<path d="M271.6 436.1c0 -4.9 20.6 -8.8 45.9 -8.8c12.1 0 23.8 .9 32.4 2.6c8.6 1.6 13.4 3.8 13.4 6.2v17.2c0 4.8 -20.5 8.8 -45.8 8.8c-25.3 0 -45.9 -4 -45.9 -8.8V436.1Z" class="g0_418"/>
<path d="M271.6 436.1c0 -4.9 20.6 -8.8 45.9 -8.8c12.1 0 23.8 .9 32.4 2.6c8.6 1.6 13.4 3.8 13.4 6.2v17.2c0 4.8 -20.5 8.8 -45.8 8.8c-25.3 0 -45.9 -4 -45.9 -8.8V436.1Zm91.7 0c0 4.8 -20.5 8.7 -45.8 8.7c-25.3 0 -45.9 -3.9 -45.9 -8.7" class="g1_418"/>
<path d="M271.6 418.9c0 -4.9 20.6 -8.8 45.9 -8.8c12.1 0 23.8 1 32.4 2.6c8.6 1.6 13.4 3.9 13.4 6.2v17.2c0 4.9 -20.5 8.8 -45.8 8.8c-25.3 0 -45.9 -3.9 -45.9 -8.8V418.9Z" class="g0_418"/>
<path d="M271.6 418.9c0 -4.9 20.6 -8.8 45.9 -8.8c12.1 0 23.8 1 32.4 2.6c8.6 1.6 13.4 3.9 13.4 6.2v17.2c0 4.9 -20.5 8.8 -45.8 8.8c-25.3 0 -45.9 -3.9 -45.9 -8.8V418.9Zm91.7 0c0 4.8 -20.5 8.7 -45.8 8.7c-25.3 0 -45.9 -3.9 -45.9 -8.7" class="g1_418"/>
<path d="M271.6 401.7c0 -4.8 20.6 -8.7 45.9 -8.7c12.1 0 23.8 .9 32.4 2.5c8.6 1.6 13.4 3.9 13.4 6.2V419c0 4.8 -20.5 8.7 -45.8 8.7c-25.3 0 -45.9 -3.9 -45.9 -8.7V401.7Z" class="g0_418"/>
<path d="M271.6 401.7c0 -4.8 20.6 -8.7 45.9 -8.7c12.1 0 23.8 .9 32.4 2.5c8.6 1.6 13.4 3.9 13.4 6.2V419c0 4.8 -20.5 8.7 -45.8 8.7c-25.3 0 -45.9 -3.9 -45.9 -8.7V401.7Zm91.7 0c0 4.8 -20.5 8.7 -45.8 8.7c-25.3 0 -45.9 -3.9 -45.9 -8.7" class="g1_418"/>
<path d="M409.1 452.4c0 -4.8 20.6 -8.7 45.9 -8.7c12.1 0 23.8 .9 32.4 2.6c8.6 1.6 13.4 3.8 13.4 6.1v17.3c0 4.8 -20.5 8.7 -45.8 8.7c-25.3 0 -45.9 -3.9 -45.9 -8.7V452.4Z" class="g0_418"/>
<path d="M409.1 452.4c0 -4.8 20.6 -8.7 45.9 -8.7c12.1 0 23.8 .9 32.4 2.6c8.6 1.6 13.4 3.8 13.4 6.1v17.3c0 4.8 -20.5 8.7 -45.8 8.7c-25.3 0 -45.9 -3.9 -45.9 -8.7V452.4Zm91.7 0c0 4.9 -20.5 8.8 -45.8 8.8c-25.3 0 -45.9 -3.9 -45.9 -8.8" class="g1_418"/>
<path d="M409.1 436.1c0 -4.9 20.6 -8.8 45.9 -8.8c12.1 0 23.8 .9 32.4 2.6c8.6 1.6 13.4 3.8 13.4 6.2v17.2c0 4.8 -20.5 8.8 -45.8 8.8c-25.3 0 -45.9 -4 -45.9 -8.8V436.1Z" class="g0_418"/>
<path d="M409.1 436.1c0 -4.9 20.6 -8.8 45.9 -8.8c12.1 0 23.8 .9 32.4 2.6c8.6 1.6 13.4 3.8 13.4 6.2v17.2c0 4.8 -20.5 8.8 -45.8 8.8c-25.3 0 -45.9 -4 -45.9 -8.8V436.1Zm91.7 0c0 4.8 -20.5 8.7 -45.8 8.7c-25.3 0 -45.9 -3.9 -45.9 -8.7" class="g1_418"/>
<path d="M409.1 418.9c0 -4.9 20.6 -8.8 45.9 -8.8c12.1 0 23.8 1 32.4 2.6c8.6 1.6 13.4 3.9 13.4 6.2v17.2c0 4.9 -20.5 8.8 -45.8 8.8c-25.3 0 -45.9 -3.9 -45.9 -8.8V418.9Z" class="g0_418"/>
<path d="M409.1 418.9c0 -4.9 20.6 -8.8 45.9 -8.8c12.1 0 23.8 1 32.4 2.6c8.6 1.6 13.4 3.9 13.4 6.2v17.2c0 4.9 -20.5 8.8 -45.8 8.8c-25.3 0 -45.9 -3.9 -45.9 -8.8V418.9Zm91.7 0c0 4.8 -20.5 8.7 -45.8 8.7c-25.3 0 -45.9 -3.9 -45.9 -8.7" class="g1_418"/>
<path d="M409.1 401.7c0 -4.8 20.6 -8.7 45.9 -8.7c12.1 0 23.8 .9 32.4 2.5c8.6 1.6 13.4 3.9 13.4 6.2V419c0 4.8 -20.5 8.7 -45.8 8.7c-25.3 0 -45.9 -3.9 -45.9 -8.7V401.7Z" class="g0_418"/>
<path d="M409.1 401.7c0 -4.8 20.6 -8.7 45.9 -8.7c12.1 0 23.8 .9 32.4 2.5c8.6 1.6 13.4 3.9 13.4 6.2V419c0 4.8 -20.5 8.7 -45.8 8.7c-25.3 0 -45.9 -3.9 -45.9 -8.7V401.7Zm91.7 0c0 4.8 -20.5 8.7 -45.8 8.7c-25.3 0 -45.9 -3.9 -45.9 -8.7" class="g1_418"/>
<path d="M546.6 452.4c0 -4.8 20.6 -8.7 45.9 -8.7c12.1 0 23.8 .9 32.4 2.6c8.6 1.6 13.4 3.8 13.4 6.1v17.3c0 4.8 -20.5 8.7 -45.8 8.7c-25.3 0 -45.9 -3.9 -45.9 -8.7V452.4Z" class="g0_418"/>
<path d="M546.6 452.4c0 -4.8 20.6 -8.7 45.9 -8.7c12.1 0 23.8 .9 32.4 2.6c8.6 1.6 13.4 3.8 13.4 6.1v17.3c0 4.8 -20.5 8.7 -45.8 8.7c-25.3 0 -45.9 -3.9 -45.9 -8.7V452.4Zm91.7 0c0 4.9 -20.5 8.8 -45.8 8.8c-25.3 0 -45.9 -3.9 -45.9 -8.8" class="g1_418"/>
<path d="M546.6 436.1c0 -4.9 20.6 -8.8 45.9 -8.8c12.1 0 23.8 .9 32.4 2.6c8.6 1.6 13.4 3.8 13.4 6.2v17.2c0 4.8 -20.5 8.8 -45.8 8.8c-25.3 0 -45.9 -4 -45.9 -8.8V436.1Z" class="g0_418"/>
<path d="M546.6 436.1c0 -4.9 20.6 -8.8 45.9 -8.8c12.1 0 23.8 .9 32.4 2.6c8.6 1.6 13.4 3.8 13.4 6.2v17.2c0 4.8 -20.5 8.8 -45.8 8.8c-25.3 0 -45.9 -4 -45.9 -8.8V436.1Zm91.7 0c0 4.8 -20.5 8.7 -45.8 8.7c-25.3 0 -45.9 -3.9 -45.9 -8.7" class="g1_418"/>
<path d="M546.6 418.9c0 -4.9 20.6 -8.8 45.9 -8.8c12.1 0 23.8 1 32.4 2.6c8.6 1.6 13.4 3.9 13.4 6.2v17.2c0 4.9 -20.5 8.8 -45.8 8.8c-25.3 0 -45.9 -3.9 -45.9 -8.8V418.9Z" class="g0_418"/>
<path d="M546.6 418.9c0 -4.9 20.6 -8.8 45.9 -8.8c12.1 0 23.8 1 32.4 2.6c8.6 1.6 13.4 3.9 13.4 6.2v17.2c0 4.9 -20.5 8.8 -45.8 8.8c-25.3 0 -45.9 -3.9 -45.9 -8.8V418.9Zm91.7 0c0 4.8 -20.5 8.7 -45.8 8.7c-25.3 0 -45.9 -3.9 -45.9 -8.7" class="g1_418"/>
<path d="M546.6 401.7c0 -4.8 20.6 -8.7 45.9 -8.7c12.1 0 23.8 .9 32.4 2.5c8.6 1.6 13.4 3.9 13.4 6.2V419c0 4.8 -20.5 8.7 -45.8 8.7c-25.3 0 -45.9 -3.9 -45.9 -8.7V401.7Z" class="g0_418"/>
<path d="M546.6 401.7c0 -4.8 20.6 -8.7 45.9 -8.7c12.1 0 23.8 .9 32.4 2.5c8.6 1.6 13.4 3.9 13.4 6.2V419c0 4.8 -20.5 8.7 -45.8 8.7c-25.3 0 -45.9 -3.9 -45.9 -8.7V401.7Zm91.7 0c0 4.8 -20.5 8.7 -45.8 8.7c-25.3 0 -45.9 -3.9 -45.9 -8.7" class="g1_418"/>
</g>
</svg>