<?xml version="1.0" encoding="UTF-8" standalone="no"?>
<!DOCTYPE svg PUBLIC "-//W3C//DTD SVG 1.1//EN"
"http://www.w3.org/Graphics/SVG/1.1/DTD/svg11.dtd">
<svg viewBox="0 0 714 1017" version="1.1" xmlns="http://www.w3.org/2000/svg" xmlns:xlink="http://www.w3.org/1999/xlink">
<defs>
<clipPath id="c0_80"><path d="M224.6 397.3V257.5H511.8V397.3Z"/></clipPath>
<clipPath id="c1_80"><path d="M224.6 397.9V257.4H511.8V397.9Z"/></clipPath>
<style type="text/css"><![CDATA[
.g0_80{
fill: #FFF;
}
.g1_80{
fill: none;
stroke: #000;
stroke-width: 2.291;
stroke-miterlimit: 10;
}
.g2_80{
fill: #000;
}
.g3_80{
fill: none;
stroke: #000;
stroke-width: 1.145;
stroke-miterlimit: 10;
}
.g4_80{
fill: none;
stroke: #000;
stroke-width: 1.217;
stroke-miterlimit: 10;
}
.g5_80{
fill: none;
stroke: #000;
stroke-width: 1.156;
stroke-miterlimit: 10;
}
.g6_80{
fill: none;
stroke: #000;
stroke-width: 0.76;
stroke-miterlimit: 10;
}
.g7_80{
fill: none;
stroke: #000;
stroke-width: 0.608;
stroke-miterlimit: 10;
}
]]></style>
</defs>
<path d="M0 1017.7H717.2V-3.7H0V1017.7Z" class="g0_80"/>
<g clip-path="url(#c1_80)">
<g clip-path="url(#c0_80)">
<path d="M224.6 257.5H512.2V397.3H224.6V257.5Z" class="g0_80"/>
<path d="M259.5 259.2H488.7V396.7H259.5V259.2Z" class="g1_80"/>
</g>
<path d="M262.9 262.7h88.3v18H262.9v-18Z" class="g2_80"/>
<path d="M262.9 262.7h88.3v18H262.9v-18Z" class="g3_80"/>
<path d="M355.8 262.7h19.1v18H355.8v-18Z" class="g2_80"/>
<path d="M355.8 262.7h19.1v18H355.8v-18Z" class="g3_80"/>
<path d="M379.8 262.7h19.1v18H379.8v-18Z" class="g2_80"/>
<path d="M379.8 262.7h19.1v18H379.8v-18Z" class="g3_80"/>
<path d="M403.9 262.7H423v18H403.9v-18Z" class="g2_80"/>
<path d="M403.9 262.7H423v18H403.9v-18Z" class="g3_80"/>
<path d="M428.3 262.7h19.2v18H428.3v-18Z" class="g2_80"/>
<path d="M428.3 262.7h19.2v18H428.3v-18ZM264.1 373.8H484.3v18.1H264.1V373.8Zm0 -25.2H385.6v18H264.1v-18Zm41.2 -26.1h179v18.1h-179V322.5Zm96.3 26.1h83v18h-83v-18Z" class="g3_80"/>
<path d="M365.9 280.7c0 .4 -.1 .9 -.2 1.3l-1.1 -.3c.1 -.3 .2 -.7 .2 -1h1.1Zm-.6 2.5c-.2 .3 -.5 .7 -.8 1l-.8 -.7c.2 -.3 .4 -.6 .6 -.9l1 .6Zm-1.5 1.8c-.3 .3 -.6 .6 -.9 .8l-.7 -.9c.3 -.2 .6 -.5 .8 -.7l.8 .8Zm-2 1.5c-.4 .2 -.7 .4 -1.1 .6l-.5 -1c.4 -.2 .7 -.4 1 -.6l.6 1Zm-2 1.1c-.4 .1 -.7 .3 -1.1 .4l-.4 -1c.3 -.2 .7 -.3 1 -.5l.5 1.1Zm-2.2 .8c-.4 .2 -.8 .3 -1.2 .5l-.3 -1.1c.4 -.2 .8 -.3 1.1 -.4l.4 1Zm-2.3 .8c-.4 .1 -.7 .2 -1 .3l-.4 -1.1c.4 -.1 .7 -.2 1 -.3l.4 1.1Zm-2.1 .6c-.4 .1 -.7 .2 -1.1 .3l-.3 -1.2c.4 0 .8 -.1 1.1 -.2l.3 1.1Zm-2.2 .5c-.4 .1 -.8 .2 -1.2 .3l-.3 -1.1c.4 -.1 .8 -.2 1.2 -.3l.3 1.1Zm-2.5 .5c-.3 .1 -.7 .2 -1.1 .2l-.2 -1.1c.4 -.1 .7 -.1 1.1 -.2l.2 1.1Zm-2.2 .4c-.3 .1 -.7 .1 -1 .2l-.2 -1.1c.3 -.1 .7 -.2 1.1 -.2l.1 1.1Zm-2.1 .4l-1.2 .1l-.1 -1.1l1.1 -.2l.2 1.2Zm-2.3 .3l-1.2 .1l-.1 -1.1l1.1 -.2l.2 1.2Zm-2.4 .3l-1.3 .1l-.1 -1.1l1.3 -.2l.1 1.2Zm-2.4 .2l-1 .2l-.1 -1.2l1 -.1l.1 1.1Zm-2.1 .3l-1.1 .1l-.1 -1.2l1.1 -.1l.1 1.2Zm-2.2 .2l-1.2 .1l-.1 -1.2l1.2 -.1l.1 1.2Zm-2.3 .2h-1.2l-.1 -1.1l1.2 -.1l.1 1.2Zm-2.4 .1l-1.3 .1v-1.1l1.2 -.1l.1 1.1Zm-2.5 .2h-1l-.1 -1.1l1.1 -.1v1.2Zm-2.1 .1l-1.1 .1l-.1 -1.2h1.1l.1 1.1Zm-2.2 .1l-1.1 .1l-.1 -1.2h1.1l.1 1.1Zm-2.3 .1l-1.1 .1l-.1 -1.2H319v1.1Zm-2.3 .1l-1.2 .1v-1.2h1.2v1.1Zm-2.4 .1h-1.2v-1.1l1.2 -.1v1.2Zm-2.4 .1h-1.1v-1.2h1.1V294Zm-2.2 0h-1.1v-1.1h1.1V294Zm-2.2 .1h-1.1v-1.2h1.1v1.2Zm-2.2 0h-1.2V293h1.1l.1 1.1Zm-2.3 0h-1.2V293H303v1.1Zm-2.4 .1h-1.1V293h1.1v1.2Zm-2.3 0h-1.2V293h1.2v1.2Zm-2.4 0h-1.3V293h1.3v1.2Zm-2.5 0h-1.2V293h1.2v1.2Zm-2.4 0h-1.1l-.1 -1.1H291v1.1Zm-2.3 .1h-1.2v-1.1l1.2 -.1v1.2Zm-2.3 .1h-1.1l-.1 -1.1l1.2 -.1v1.2Zm-2.2 .1H283v-1.1l1.1 -.1l.1 1.2Zm-2.3 .1l-1.1 .1v-1.1l1.1 -.1v1.1Zm-2.1 .2l-1.1 .1l-.1 -1.2l1.1 -.1l.1 1.2Zm-2.3 .2l-1.2 .1l-.1 -1.1l1.2 -.1l.1 1.1Zm-2.4 .3l-1.2 .1l-.1 -1.1l1.2 -.2l.1 1.2Zm-2.3 .3c-.4 0 -.8 .1 -1.1 .1l-.2 -1.1c.4 -.1 .7 -.1 1.1 -.2l.2 1.2Zm-2.3 .3c-.3 0 -.7 .1 -1.1 .2l-.2 -1.2c.4 0 .8 -.1 1.2 -.2l.1 1.2Zm-2.2 .3c-.3 .1 -.7 .2 -1.1 .2l-.2 -1.1c.4 -.1 .8 -.1 1.1 -.2l.2 1.1Zm-2.1 .4c-.4 .1 -.7 .2 -1.1 .3l-.2 -1.2c.3 0 .7 -.1 1.1 -.2l.2 1.1Zm-2.2 .5c-.4 .1 -.8 .2 -1.2 .3l-.2 -1.2c.4 0 .7 -.1 1.1 -.2l.3 1.1Zm-2.3 .5c-.4 .1 -.8 .2 -1.2 .3l-.3 -1.1c.4 -.1 .8 -.2 1.2 -.3l.3 1.1Zm-2.3 .6c-.4 .1 -.7 .2 -1.1 .3l-.3 -1.1c.4 -.1 .7 -.2 1.1 -.3l.3 1.1Zm-2.2 .7c-.3 .1 -.7 .2 -1 .3l-.4 -1.1c.4 -.1 .7 -.2 1.1 -.3l.3 1.1Zm-2.1 .6c-.3 .2 -.7 .3 -1 .4l-.4 -1.1c.4 -.1 .7 -.2 1 -.3l.4 1Zm-2 .8c-.4 .1 -.7 .2 -1.1 .4l-.4 -1.1c.3 -.1 .7 -.3 1.1 -.4l.4 1.1Zm-2.2 .8c-.4 .2 -.7 .3 -1.1 .5l-.4 -1.1c.3 -.1 .7 -.3 1.1 -.4l.4 1Zm-2.1 1c-.4 .1 -.7 .3 -1.1 .5l-.5 -1.1c.4 -.1 .7 -.3 1.1 -.5l.5 1.1Zm-2.1 1c-.3 .1 -.6 .3 -1 .5l-.5 -1c.3 -.2 .7 -.4 1 -.5l.5 1Zm-1.9 1c-.3 .2 -.6 .4 -1 .6l-.5 -1c.3 -.2 .6 -.4 .9 -.6l.6 1Zm-1.9 1.2c-.3 .2 -.6 .4 -1 .6l-.6 -.9c.3 -.3 .7 -.5 1 -.7l.6 1Zm-1.9 1.3c-.3 .2 -.6 .4 -.9 .7l-.7 -1c.3 -.2 .6 -.4 .9 -.7l.7 1Zm-1.8 1.4c-.3 .2 -.6 .4 -.9 .7l-.7 -.9c.2 -.2 .5 -.5 .8 -.7l.8 .9Zm-1.7 1.4c-.3 .3 -.6 .5 -.8 .8l-.8 -.9c.2 -.2 .5 -.5 .8 -.7l.8 .8Zm-1.6 1.5c-.3 .3 -.5 .6 -.8 .8l-.8 -.7c.2 -.3 .5 -.6 .8 -.9l.8 .8Zm-1.6 1.7c-.2 .3 -.4 .6 -.7 .9l-.9 -.7c.3 -.4 .5 -.7 .8 -.9l.8 .7Zm-1.4 1.8c-.2 .3 -.4 .6 -.6 .9l-1 -.7c.3 -.3 .5 -.6 .7 -.9l.9 .7Zm-1.3 1.8c-.2 .3 -.4 .6 -.6 1l-.9 -.6c.2 -.4 .4 -.7 .6 -1l.9 .6Zm-1.1 1.9c-.2 .4 -.4 .7 -.6 1l-1 -.5c.2 -.3 .4 -.7 .6 -1l1 .5Zm-1.1 2c-.1 .3 -.3 .7 -.4 1l-1.1 -.4c.2 -.4 .3 -.7 .5 -1.1l1 .5Zm-.8 2.1c-.2 .3 -.3 .7 -.4 1l-1.1 -.4c.1 -.4 .2 -.7 .4 -1.1l1.1 .5Zm-.8 2.1c-.1 .3 -.2 .7 -.4 1.1l-1.1 -.4c.2 -.3 .3 -.7 .4 -1.1l1.1 .4Zm-.7 2.2c-.1 .3 -.2 .7 -.2 1.1l-1.2 -.3c.1 -.3 .2 -.7 .3 -1.1l1.1 .3Zm-.5 2.2c-.1 .3 -.1 .7 -.2 1l-1.1 -.2c.1 -.3 .1 -.7 .2 -1l1.1 .2Zm-.4 2.1c0 .4 -.1 .8 -.1 1.1l-1.2 -.1c.1 -.4 .1 -.8 .2 -1.1l1.1 .1Zm-.2 2.3c-.1 .3 -.1 .7 -.1 1.1l-1.2 -.1c0 -.4 .1 -.8 .1 -1.2l1.2 .2Zm-.2 2.2c0 .4 -.1 .8 -.1 1.2h-1.1c0 -.4 0 -.8 0 -1.2h1.2Zm-.1 2.4c0 .2 0 .4 0 .5v.7h-1.1v-.7c0 -.1 0 -.3 0 -.5h1.1Zm0 2.4c0 .4 0 .8 0 1.2h-1.1c0 -.4 0 -.8 0 -1.2h1.1Zm.1 2.4c0 .3 0 .7 0 1.1l-1.1 .1c0 -.4 0 -.8 -.1 -1.2h1.2Zm.1 2.2c0 .4 0 .8 .1 1.1l-1.2 .1c0 -.3 0 -.7 -.1 -1.1l1.2 -.1Zm.1 2.2c.1 .4 .1 .8 .1 1.1l-1.1 .1c0 -.3 -.1 -.7 -.1 -1.1l1.1 -.1Zm.3 2.2c0 .4 0 .8 .1 1.2l-1.1 .2c-.1 -.4 -.1 -.8 -.2 -1.2l1.2 -.2Zm.2 2.4c.1 .4 .1 .8 .2 1.1l-1.1 .2c-.1 -.4 -.1 -.8 -.2 -1.1l1.1 -.2Zm.4 2.3c.1 .3 .1 .7 .2 1.1l-1.1 .2c-.1 -.4 -.2 -.8 -.2 -1.1l1.1 -.2Zm.4 2.2c.1 .3 .2 .7 .2 1l-1.1 .3c-.1 -.4 -.1 -.8 -.2 -1.1l1.1 -.2Zm.5 2.1c.1 .4 .2 .8 .3 1.2l-1.1 .3c-.1 -.4 -.2 -.8 -.3 -1.2l1.1 -.3Zm.6 2.3c.1 .3 .2 .7 .3 1.1l-1.1 .3c-.1 -.3 -.2 -.7 -.3 -1.1l1.1 -.3Zm.7 2.1c.1 .4 .2 .7 .4 1.1l-1.1 .4c-.1 -.4 -.3 -.7 -.4 -1.1l1.1 -.4Zm.8 2.1c.1 .3 .2 .7 .4 1l-1.1 .5c-.1 -.4 -.3 -.7 -.4 -1.1l1.1 -.4Zm.9 2.1c.1 .3 .3 .7 .5 1l-1 .5c-.2 -.3 -.4 -.7 -.6 -1l1.1 -.5Zm1 2c.2 .3 .4 .6 .6 1l-1 .6c-.2 -.4 -.4 -.7 -.6 -1l1 -.6Zm1.2 1.9c.2 .3 .4 .6 .6 .9l-.9 .6c-.2 -.3 -.5 -.6 -.7 -.9l1 -.6Zm1.3 1.8c.2 .3 .5 .6 .7 .9l-.9 .7c-.2 -.3 -.5 -.6 -.7 -.9l.9 -.7Zm1.5 1.7c.2 .3 .5 .6 .7 .8l-.8 .8c-.2 -.2 -.5 -.5 -.8 -.8l.9 -.8Zm1.5 1.6c.3 .2 .6 .5 .9 .7l-.7 .9c-.3 -.3 -.6 -.5 -.9 -.8l.7 -.8Zm1.8 1.4c.3 .2 .6 .4 .9 .6l-.7 1c-.3 -.2 -.6 -.5 -.9 -.7l.7 -.9Zm1.8 1.2c.3 .2 .7 .4 1 .6l-.5 1c-.4 -.2 -.7 -.4 -1.1 -.6l.6 -1Zm2 1.1c.3 .2 .7 .3 1 .5l-.4 1c-.4 -.1 -.8 -.3 -1.1 -.5l.5 -1Zm2 .9c.4 .1 .7 .2 1.1 .3l-.4 1.1c-.4 -.1 -.7 -.2 -1.1 -.4l.4 -1Zm2.1 .7c.4 .1 .8 .2 1.2 .3l-.3 1.1c-.4 -.1 -.8 -.2 -1.2 -.3L247 381Zm2.3 .5c.3 .1 .7 .2 1.1 .2l-.2 1.2c-.4 -.1 -.8 -.2 -1.1 -.2l.2 -1.2Zm2.1 .4c.4 .1 .8 .1 1.1 .1l-.1 1.2c-.4 -.1 -.7 -.1 -1.1 -.2l.1 -1.1Zm2.3 .2c.3 .1 .7 .1 1.1 .1v1.2c-.4 -.1 -.8 -.1 -1.2 -.1l.1 -1.2Zm2.3 .2c.3 0 .5 0 .8 0v1.1c-.3 0 -.6 0 -.8 0v-1.1Z" class="g2_80"/>
<path d="M262.8 382.8l-8 2.7l2 -2.7l-2 -2.6l8 2.6Z" class="g2_80"/>
<path d="M262.8 382.8l-8 2.7l2 -2.7l-2 -2.6l8 2.6Z" class="g3_80"/>
<path clip-path="url(#c0_80)" d="M390 280.7c0 .4 0 .8 0 1.1l-1.1 .1c-.1 -.4 -.1 -.8 -.1 -1.2H390Zm.2 2.2c.1 .3 .2 .7 .3 1l-1 .4c-.2 -.4 -.3 -.8 -.4 -1.1l1.1 -.3Zm.8 1.9c.2 .3 .3 .6 .5 .9l-.9 .7c-.2 -.3 -.4 -.7 -.6 -1l1 -.6Zm1.2 1.8c.2 .3 .5 .5 .8 .8l-.8 .8c-.3 -.3 -.6 -.6 -.9 -.9l.9 -.7Zm1.6 1.5c.3 .3 .6 .5 .8 .7l-.6 .9c-.3 -.2 -.6 -.4 -.9 -.7l.7 -.9Zm1.7 1.3c.4 .2 .7 .4 1 .6l-.6 1c-.3 -.2 -.6 -.4 -1 -.7l.6 -.9Zm2.1 1.1c.3 .2 .6 .4 1 .5l-.5 1.1c-.3 -.2 -.7 -.4 -1 -.5l.5 -1.1Zm2 .9c.3 .2 .6 .3 1 .5l-.5 1c-.3 -.1 -.7 -.3 -1 -.4l.5 -1.1Zm2 .8c.4 .2 .7 .3 1.1 .4l-.3 1.1c-.4 -.1 -.8 -.2 -1.2 -.4l.4 -1.1Zm2.3 .8c.3 .1 .7 .2 1.1 .3l-.3 1.1c-.4 -.1 -.8 -.2 -1.2 -.3l.4 -1.1Zm2.1 .6c.4 .1 .7 .2 1.1 .3l-.3 1.1c-.4 -.1 -.7 -.2 -1.1 -.3l.3 -1.1Zm2.1 .5c.4 .1 .8 .2 1.1 .3l-.2 1.1c-.4 -.1 -.8 -.2 -1.1 -.3l.2 -1.1Zm2.3 .5c.4 .1 .8 .2 1.2 .2l-.3 1.2c-.4 -.1 -.8 -.2 -1.1 -.3l.2 -1.1Zm2.4 .5c.3 0 .7 .1 1.1 .2l-.2 1.1c-.4 -.1 -.8 -.1 -1.1 -.2l.2 -1.1Zm2.1 .3c.4 .1 .7 .1 1.1 .2l-.2 1.1c-.3 0 -.7 -.1 -1 -.1l.1 -1.2Zm2.2 .3l1.1 .2l-.1 1.1l-1.1 -.1l.1 -1.2Zm2.3 .3l1.1 .2l-.1 1.1l-1.2 -.1l.2 -1.2Zm2.3 .3l1.2 .1l-.1 1.2l-1.2 -.1l.1 -1.2Zm2.4 .3h1.1l-.1 1.2l-1.1 -.1l.1 -1.1Zm2.1 .1l1.1 .1V298l-1.1 -.1v-1.2Zm2.3 .2l1.1 .1l-.1 1.1h-1.1l.1 -1.2Zm2.2 .2h1.2l-.1 1.2l-1.1 -.1v-1.1Zm2.4 .1l1.2 .1l-.1 1.1l-1.2 -.1l.1 -1.1Zm2.4 .1l1.1 .1v1.1h-1.2l.1 -1.2Zm2.2 .1h1.1v1.2l-1.1 -.1v-1.1Zm2.2 .1H441v1.1h-1.1v-1.1Zm2.3 0h1.1v1.2h-1.2l.1 -1.2Zm2.2 .1h1.2v1.1h-1.2v-1.1Zm2.4 0H448v1.1h-1.2v-1.1Zm2.4 0h1.2v1.2h-1.2v-1.2Zm2.4 0h1.2v1.2h-1.2v-1.2Zm2.4 0h1.2v1.2H454v-1.2Zm2.4 .1h1.1v1.1h-1.2l.1 -1.1Zm2.3 0l1.1 .1v1.1h-1.2l.1 -1.2Zm2.2 .1H462V299l-1.1 -.1v-1.1Zm2.2 .1h1.1v1.2l-1.1 -.1v-1.1Zm2.3 .1l1.2 .1l-.1 1.1h-1.2l.1 -1.2Zm2.4 .2H469l-.1 1.2l-1.2 -.1l.1 -1.1Zm2.3 .1l1.2 .1l-.1 1.2l-1.2 -.1l.1 -1.2Zm2.3 .2l1.1 .2l-.1 1.1l-1.1 -.1l.1 -1.2Zm2.2 .3l1.1 .1l-.1 1.1l-1.1 -.1l.1 -1.1Zm2.2 .2l1.2 .2l-.2 1.1l-1.1 -.1l.1 -1.2Zm2.4 .3c.4 .1 .8 .2 1.2 .2l-.2 1.1c-.4 0 -.8 -.1 -1.2 -.1l.2 -1.2Zm2.3 .4c.4 .1 .8 .1 1.2 .2l-.2 1.1c-.4 0 -.8 -.1 -1.1 -.2l.1 -1.1Zm2.3 .4c.4 .1 .8 .1 1.1 .2l-.2 1.1c-.4 0 -.7 -.1 -1.1 -.2l.2 -1.1Zm2.2 .4c.4 .1 .7 .2 1.1 .3l-.3 1.1c-.3 -.1 -.7 -.2 -1 -.3l.2 -1.1Zm2.1 .5c.5 .1 .9 .2 1.3 .3l-.3 1.1c-.4 -.1 -.8 -.2 -1.2 -.3l.2 -1.1Zm2.4 .6c.4 .1 .8 .2 1.2 .3l-.3 1.1c-.4 -.1 -.8 -.2 -1.2 -.3l.3 -1.1Zm2.3 .6c.3 .2 .7 .3 1.1 .4l-.4 1.1c-.3 -.1 -.7 -.3 -1.1 -.4l.4 -1.1Zm2.1 .7c.4 .2 .7 .3 1 .4l-.4 1.1c-.3 -.1 -.6 -.3 -1 -.4l.4 -1.1Zm2.1 .8c.4 .2 .8 .3 1.2 .5l-.5 1c-.4 -.1 -.7 -.3 -1.1 -.4l.4 -1.1Zm2.3 1c.3 .1 .7 .3 1 .5l-.5 1c-.3 -.2 -.7 -.3 -1 -.5l.5 -1Zm2 1c.4 .2 .7 .4 1 .6l-.6 .9c-.3 -.1 -.6 -.3 -.9 -.5l.5 -1Zm1.9 1.1c.4 .3 .7 .5 1.1 .7l-.7 1c-.3 -.3 -.7 -.5 -1 -.7l.6 -1Zm2 1.4c.4 .3 .7 .5 1 .8l-.8 .9c-.3 -.3 -.6 -.5 -.9 -.8l.7 -.9Zm1.8 1.6c.3 .2 .5 .5 .8 .8l-.8 .7c-.3 -.2 -.5 -.5 -.8 -.7l.8 -.8Zm1.6 1.6c.2 .4 .5 .7 .7 1l-.9 .7c-.3 -.3 -.5 -.6 -.7 -.9l.9 -.8Zm1.3 2c.3 .4 .4 .7 .6 1.1l-1 .5c-.2 -.4 -.3 -.7 -.5 -1l.9 -.6Zm1.1 2.1c.1 .4 .3 .8 .4 1.1l-1.1 .4c-.1 -.4 -.2 -.7 -.4 -1l1.1 -.5Zm.7 2.3c.1 .3 .2 .7 .2 1.1l-1.1 .2c0 -.4 -.1 -.7 -.2 -1.1l1.1 -.2Zm.4 2.3c0 .4 .1 .8 .1 1.2H511c0 -.3 0 -.7 0 -1.1l1.1 -.1Zm0 2.5c0 .4 0 .8 -.1 1.2l-1.1 -.2c0 -.3 .1 -.7 .1 -1.1l1.1 .1Zm-.3 2.3c0 .4 -.1 .8 -.3 1.2l-1.1 -.3c.1 -.4 .2 -.7 .3 -1.1l1.1 .2Zm-.6 2.3c-.2 .4 -.3 .7 -.5 1.1l-1 -.5c.1 -.3 .3 -.7 .4 -1l1.1 .4Zm-1 2.1c-.2 .4 -.5 .7 -.7 1l-.9 -.6c.2 -.3 .4 -.6 .6 -1l1 .6Zm-1.4 2c-.2 .3 -.5 .6 -.8 .9l-.8 -.8c.2 -.2 .5 -.5 .7 -.8l.9 .7Zm-1.6 1.7c-.2 .3 -.5 .5 -.8 .8l-.8 -.9c.3 -.2 .6 -.5 .8 -.7l.8 .8Zm-1.7 1.5c-.3 .3 -.6 .5 -1 .7l-.6 -.9c.3 -.2 .6 -.4 .9 -.7l.7 .9Zm-2 1.4c-.3 .2 -.7 .5 -1 .7l-.6 -1c.3 -.2 .7 -.4 1 -.6l.6 .9Zm-2 1.2c-.3 .2 -.6 .3 -.9 .5l-.6 -1c.4 -.2 .7 -.3 1 -.5l.5 1Zm-2 1c-.3 .2 -.7 .3 -1 .5l-.5 -1.1c.4 -.1 .7 -.3 1 -.4l.5 1Zm-2.1 1c-.4 .1 -.8 .3 -1.2 .4l-.4 -1.1c.4 -.1 .8 -.3 1.1 -.4l.5 1.1Zm-2.3 .8c-.4 .1 -.7 .2 -1 .4l-.4 -1.1c.3 -.1 .7 -.3 1 -.4l.4 1.1Zm-2.1 .7c-.3 .1 -.7 .2 -1.1 .3l-.3 -1.1c.4 -.1 .7 -.2 1.1 -.3l.3 1.1Zm-2.2 .6c-.3 .1 -.7 .2 -1.1 .3l-.3 -1.1c.4 -.1 .8 -.2 1.1 -.3l.3 1.1Zm-2.2 .6c-.4 .1 -.8 .2 -1.2 .3l-.3 -1.1c.4 -.1 .8 -.2 1.2 -.3l.3 1.1Zm-2.4 .6c-.4 .1 -.8 .1 -1.1 .2l-.2 -1.1c.3 -.1 .7 -.2 1 -.2l.3 1.1Zm-2.2 .4c-.3 .1 -.7 .2 -1.1 .2l-.2 -1.1c.4 -.1 .8 -.1 1.1 -.2l.2 1.1Zm-2.2 .4c-.3 .1 -.7 .1 -1.1 .2l-.2 -1.1c.4 -.1 .8 -.1 1.1 -.2l.2 1.1Zm-2.2 .4l-1.2 .2l-.2 -1.2l1.2 -.1l.2 1.1Zm-2.4 .3l-1.2 .2l-.1 -1.1l1.2 -.2l.1 1.1Zm-2.4 .3l-1.1 .2l-.1 -1.2l1.1 -.1l.1 1.1Zm-2.2 .3l-1.1 .1l-.1 -1.1l1.1 -.2l.1 1.2Zm-2.2 .2l-1.1 .1l-.1 -1.1l1.1 -.1l.1 1.1Zm-2.2 .2L467 345l-.1 -1.1l1.2 -.1l.1 1.1Zm-2.4 .2l-1.1 .1l-.1 -1.2l1.2 -.1v1.2Zm-2.3 .1l-1.2 .1l-.1 -1.1l1.2 -.1l.1 1.1Zm-2.5 .2h-1l-.1 -1.1l1.1 -.1v1.2Zm-2.1 .1h-1.1l-.1 -1.1l1.1 -.1l.1 1.2Zm-2.2 .1h-1.2v-1.2h1.1l.1 1.2Zm-2.3 0l-1.1 .1l-.1 -1.2h1.2v1.1Zm-2.3 .1h-1.2v-1.1l1.2 -.1v1.2Zm-2.3 0h-1.2v-1.1h1.1l.1 1.1Zm-2.4 0h-1.3v-1.1h1.3v1.1Zm-2.5 0h-1.2v-1.1h1.2v1.1Zm-2.4 0h-1.2v-1.1h1.2v1.1Zm-2.3 0l-1.2 .1v-1.2h1.2v1.1Zm-2.4 .1h-1.1v-1.2h1.1v1.2Zm-2.2 0h-1.1l-.1 -1.2h1.2v1.2Zm-2.3 0h-1l-.1 -1.1h1.1v1.1Zm-2.1 0h-1.1v-1.1h1.1v1.1Zm-2.4 .1h-1.2v-1.2h1.2v1.2Zm-2.4 0h-1.1l-.1 -1.1l1.2 -.1v1.2Zm-2.3 0L423 346l-.1 -1.2h1.2v1.1Zm-2.3 .1h-1.1v-1.1l1.1 -.1V346Zm-2.2 0l-1.1 .1v-1.2h1.1V346Zm-2.2 .1h-1.1V345h1.1v1.1Zm-2.3 .1h-1.2l-.1 -1.1L415 345l.1 1.2Zm-2.4 .1h-1.2v-1.1l1.1 -.1l.1 1.2Zm-2.3 .1h-1.1l-.1 -1.1l1.1 -.1l.1 1.2Zm-2.2 .1h-1.1l-.1 -1.1l1.1 -.1l.1 1.2Zm-2.2 .1l-1.2 .1v-1.2l1.2 -.1v1.2Zm-2.4 .1l-1.2 .1l-.1 -1.1l1.2 -.1l.1 1.1Zm-2.4 .2l-1.1 .1l-.1 -1.2l1.2 -.1v1.2Zm-2.2 .2l-1.1 .1l-.1 -1.2l1.1 -.1l.1 1.2Zm-2.1 .1l-1.2 .2l-.1 -1.2l1.2 -.1l.1 1.1Zm-2.4 .3l-1.2 .1l-.1 -1.1l1.2 -.2l.1 1.2Zm-2.4 .3c-.3 0 -.7 0 -1 .1l-.2 -1.1c.4 -.1 .7 -.1 1.1 -.2l.1 1.2ZM390 348c-.3 .1 -.7 .1 -1 .2l-.2 -1.1c.3 -.1 .7 -.1 1.1 -.2l.1 1.1Zm-2.3 .4c-.4 .1 -.8 .2 -1.2 .2l-.2 -1.1c.4 -.1 .8 -.1 1.2 -.2l.2 1.1Zm-2.2 .5c-.4 .1 -.7 .1 -1 .2l-.3 -1.1c.3 -.1 .7 -.2 1 -.2l.3 1.1Zm-2.1 .5c-.4 .2 -.8 .3 -1.1 .5l-.5 -1.1c.4 -.2 .8 -.3 1.2 -.4l.4 1Zm-2 .9c-.3 .2 -.6 .4 -.8 .6l-.9 -.7c.3 -.4 .7 -.6 1.1 -.9l.6 1Zm-1 1.2c0 .4 .1 .7 .1 1l-1.1 .3c-.1 -.4 -.1 -.8 -.2 -1.3h1.2Zm.5 1.9c.2 .3 .4 .5 .6 .8l-.8 .8c-.3 -.3 -.5 -.6 -.7 -1l.9 -.6Zm1.4 1.4c.3 .2 .6 .4 1 .6l-.5 1c-.4 -.2 -.8 -.4 -1.2 -.6l.7 -1Zm1.9 1c.3 .1 .7 .2 1 .3l-.3 1.1c-.4 -.1 -.7 -.2 -1.1 -.3l.4 -1.1Zm2.1 .6c.4 .1 .8 .1 1.2 .2l-.2 1.1c-.4 0 -.8 -.1 -1.2 -.2l.2 -1.1Zm2.3 .4c.3 0 .7 0 1 .1l-.1 1.1c-.3 0 -.7 -.1 -1 -.1l.1 -1.1Zm2.1 .2c.4 0 .8 0 1.2 0l-.1 1.2c-.4 -.1 -.8 -.1 -1.1 -.1V357Zm2.4 0c.4 .1 .8 .1 1.2 .1v1.1c-.4 0 -.8 0 -1.2 0V357Z" class="g2_80"/>
<path d="M400.3 357.6l-8 2.7l2 -2.7l-2 -2.6l8 2.6Z" class="g2_80"/>
<path d="M400.3 357.6l-8 2.7l2 -2.7l-2 -2.6l8 2.6Z" class="g3_80"/>
<path d="M414 280.7c0 .4 0 .8 0 1.2l-1.2 -.1c.1 -.3 .1 -.7 .1 -1.1H414Zm-.2 2.4c-.1 .4 -.2 .8 -.3 1.2l-1.1 -.3c.1 -.4 .2 -.7 .3 -1.1l1.1 .2Zm-.7 2.3c-.1 .4 -.3 .8 -.4 1.1l-1.1 -.5c.2 -.3 .3 -.6 .5 -1l1 .4Zm-1 2.1c-.2 .4 -.4 .7 -.6 1l-1 -.7c.2 -.3 .4 -.6 .6 -.9l1 .6Zm-1.4 1.9c-.2 .3 -.5 .6 -.8 .9l-.8 -.8c.3 -.3 .5 -.5 .8 -.8l.8 .7Zm-1.7 1.8c-.2 .3 -.6 .5 -.9 .8l-.7 -.9c.3 -.3 .6 -.5 .9 -.8l.7 .9Zm-1.7 1.4c-.3 .3 -.6 .5 -.9 .7l-.7 -1c.3 -.2 .6 -.4 .9 -.6l.7 .9Zm-1.9 1.3c-.3 .2 -.6 .4 -1 .6l-.6 -1c.4 -.2 .7 -.4 1 -.6l.6 1Zm-2.1 1.2c-.3 .2 -.7 .4 -1.1 .6l-.5 -1.1c.4 -.1 .8 -.3 1.1 -.5l.5 1Zm-2.2 1.1c-.3 .1 -.6 .3 -.9 .4l-.5 -1c.3 -.2 .6 -.3 .9 -.5l.5 1.1Zm-1.9 .8c-.4 .2 -.7 .3 -1.1 .4l-.4 -1c.4 -.2 .7 -.3 1 -.4l.5 1Zm-2.1 .8c-.4 .2 -.8 .3 -1.1 .4l-.4 -1.1c.4 -.1 .7 -.2 1.1 -.3l.4 1Zm-2.3 .8c-.4 .1 -.7 .2 -1.1 .4l-.4 -1.1c.4 -.1 .8 -.3 1.2 -.4l.3 1.1Zm-2.3 .7c-.4 .1 -.8 .2 -1.2 .3l-.3 -1.1c.4 -.1 .8 -.2 1.1 -.3l.4 1.1Zm-2.2 .6c-.3 .1 -.7 .2 -1 .3l-.3 -1.1c.3 -.1 .7 -.2 1 -.3l.3 1.1Zm-2.1 .5c-.4 .1 -.7 .2 -1.1 .3l-.3 -1.1c.4 -.1 .8 -.2 1.1 -.3l.3 1.1Zm-2.2 .5c-.4 .1 -.8 .2 -1.2 .3l-.2 -1.1c.4 -.1 .8 -.2 1.1 -.3l.3 1.1Zm-2.3 .5c-.4 .1 -.8 .2 -1.2 .2l-.2 -1.1c.4 -.1 .8 -.1 1.2 -.2l.2 1.1Zm-2.4 .5l-1.2 .2l-.2 -1.1l1.2 -.3l.2 1.2Zm-2.4 .4l-1 .1l-.2 -1.1l1 -.2l.2 1.2Zm-2.1 .3l-1.1 .2l-.1 -1.2l1 -.1l.2 1.1Zm-2.2 .3l-1.1 .2l-.1 -1.2l1.1 -.1l.1 1.1Zm-2.2 .3l-1.2 .2l-.1 -1.2l1.1 -.1l.2 1.1Zm-2.3 .3l-1.2 .1l-.1 -1.1l1.1 -.1l.2 1.1Zm-2.4 .3l-1.2 .1l-.1 -1.1l1.2 -.2l.1 1.2Zm-2.4 .2l-1.2 .1L364 303l1.2 -.1l.1 1.1Zm-2.3 .2l-1.1 .1l-.1 -1.1l1.1 -.1l.1 1.1Zm-2.1 .2l-1.1 .1l-.1 -1.1l1.1 -.1l.1 1.1Zm-2.3 .2l-1.1 .1l-.1 -1.2l1.2 -.1v1.2Zm-2.2 .1l-1.2 .1v-1.1l1.1 -.1l.1 1.1Zm-2.3 .2l-1.2 .1v-1.2l1.1 -.1l.1 1.2Zm-2.4 .1l-1.2 .1v-1.2h1.2V305Zm-2.4 .1l-1.2 .1V304h1.2v1.1Zm-2.4 .1l-1.1 .1l-.1 -1.2h1.2v1.1Zm-2.2 .1l-1.1 .1v-1.2h1.1v1.1Zm-2.2 .1h-1.1v-1.1l1.1 -.1v1.2Zm-2.2 .1h-1.1l-.1 -1.2h1.2v1.2Zm-2.3 0h-1.1v-1.1H338v1.1Zm-2.2 .1h-1.2v-1.2h1.1l.1 1.2Zm-2.4 0h-1.1l-.1 -1.1l1.2 -.1v1.2Zm-2.3 0h-1.2v-1.1h1.2v1.1Zm-2.4 0h-1.2v-1.1h1.2v1.1Zm-2.5 0H325v-1.1h1.2v1.1Zm-2.4 0h-1.2v-1.1h1.2v1.1Zm-2.4 .1h-1.2v-1.2h1.2v1.2Zm-2.3 0h-1.2v-1.2h1.2v1.2Zm-2.4 0h-1.1v-1.1h1.1v1.1Zm-2.2 .1h-1.2v-1.2h1.1l.1 1.2Zm-2.3 0h-1.1v-1.1h1.1v1.1Zm-2.2 .1h-1.1l-.1 -1.1l1.1 -.1l.1 1.2Zm-2.2 .1h-1.1v-1.1l1.1 -.1V306Zm-2.2 0l-1.2 .1V305l1.2 -.1V306Zm-2.4 .2H302l-.1 -1.1l1.2 -.1l.1 1.2Zm-2.4 .1l-1.2 .1v-1.2l1.2 -.1v1.2Zm-2.3 .1l-1.2 .1l-.1 -1.1l1.2 -.1l.1 1.1Zm-2.3 .2l-1.2 .1v-1.2l1.1 -.1l.1 1.2Zm-2.3 .1l-1.1 .1l-.1 -1.1l1.1 -.1l.1 1.1Zm-2.2 .2l-1.1 .1l-.1 -1.1l1.1 -.1l.1 1.1Zm-2.1 .2l-1.1 .1l-.1 -1.1l1 -.1l.2 1.1Zm-2.3 .2l-1.2 .2l-.1 -1.2l1.2 -.1l.1 1.1Zm-2.4 .3l-1.2 .1l-.1 -1.1l1.2 -.1l.1 1.1Zm-2.3 .3l-1.2 .1l-.1 -1.1l1.1 -.2l.2 1.2Zm-2.3 .3l-1.2 .1l-.1 -1.1l1.1 -.1l.2 1.1Zm-2.3 .3l-1.1 .2l-.1 -1.2l1.1 -.1l.1 1.1Zm-2.1 .3l-1.1 .2l-.2 -1.1l1.1 -.2l.2 1.1Zm-2.2 .4l-1.1 .2l-.2 -1.1l1.1 -.2l.2 1.1Zm-2.3 .4c-.4 .1 -.8 .2 -1.2 .3l-.2 -1.2c.4 0 .8 -.1 1.2 -.2l.2 1.1Zm-2.3 .5c-.4 .1 -.8 .2 -1.2 .3l-.2 -1.2c.4 0 .7 -.1 1.1 -.2l.3 1.1Zm-2.3 .5c-.4 .1 -.7 .2 -1.1 .3l-.3 -1.1c.4 -.1 .8 -.2 1.1 -.3l.3 1.1Zm-2.2 .5c-.3 .1 -.7 .2 -1 .3l-.3 -1.1c.3 -.1 .7 -.2 1 -.3l.3 1.1Zm-2.1 .6c-.3 .1 -.7 .2 -1 .3l-.3 -1.1c.3 -.1 .7 -.2 1 -.3l.3 1.1Zm-2.1 .6c-.4 .1 -.7 .3 -1.1 .4l-.4 -1.1c.4 -.1 .8 -.3 1.2 -.4l.3 1.1Zm-2.3 .8c-.4 .1 -.7 .2 -1.1 .4l-.4 -1.1c.4 -.2 .8 -.3 1.1 -.4l.4 1.1Zm-2.2 .8c-.3 .1 -.7 .2 -1 .4l-.5 -1.1c.4 -.1 .7 -.3 1.1 -.4l.4 1.1Zm-2 .8c-.4 .1 -.7 .3 -1 .4l-.5 -1c.3 -.2 .7 -.3 1 -.5l.5 1.1Zm-2 .9c-.3 .1 -.6 .3 -1 .5l-.5 -1c.4 -.2 .7 -.4 1 -.6l.5 1.1Zm-2 1.1c-.4 .2 -.7 .4 -1.1 .6l-.6 -1c.4 -.2 .7 -.4 1.1 -.6l.6 1Zm-2 1.2c-.3 .2 -.7 .4 -1 .6l-.6 -.9c.3 -.3 .6 -.5 .9 -.7l.7 1Zm-1.8 1.2c-.3 .3 -.6 .5 -.8 .7l-.8 -.9c.3 -.2 .6 -.4 .9 -.7l.7 .9Zm-1.6 1.4c-.3 .3 -.6 .6 -.9 .8l-.8 -.8c.3 -.3 .6 -.5 .9 -.8l.8 .8Zm-1.6 1.7c-.3 .3 -.5 .6 -.7 .9l-.9 -.7c.2 -.3 .4 -.6 .7 -.9l.9 .7Zm-1.3 1.8c-.2 .3 -.4 .6 -.6 .9l-1 -.6c.2 -.3 .4 -.6 .6 -.9l1 .6Zm-1 1.8c-.2 .4 -.3 .7 -.4 1.1l-1.1 -.4c.1 -.4 .3 -.7 .4 -1.1l1.1 .4Zm-.7 2.1c-.1 .4 -.2 .7 -.3 1.1l-1.1 -.2c.1 -.4 .2 -.8 .3 -1.2l1.1 .3Zm-.4 2.2c0 .4 0 .8 0 1.1h-1.2c0 -.4 0 -.8 .1 -1.2l1.1 .1Zm0 2.4c0 .4 0 .8 0 1.2l-1.1 .1c-.1 -.4 -.1 -.9 -.1 -1.3h1.2Zm0 2.5c.1 .4 .1 .8 .1 1.1l-1.1 .1c0 -.4 -.1 -.8 -.1 -1.2h1.1Zm.2 2.3c.1 .4 .1 .7 .1 1.1l-1.1 .1c0 -.3 -.1 -.7 -.1 -1.1l1.1 -.1Zm.3 2.2c0 .4 .1 .7 .1 1l-1.1 .2c-.1 -.3 -.1 -.7 -.2 -1l1.2 -.2Zm.3 2.1c.1 .3 .1 .6 .2 .9l-1.1 .3c-.1 -.3 -.1 -.7 -.2 -1l1.1 -.2Zm.5 2.1c.1 .4 .2 .8 .3 1.2l-1.1 .3c-.1 -.4 -.2 -.8 -.3 -1.2l1.1 -.3Zm.7 2.3c.1 .4 .3 .7 .4 1.1l-1.1 .4c-.1 -.3 -.2 -.7 -.4 -1.1l1.1 -.4Zm.8 2.1c.2 .3 .4 .6 .5 1l-1 .5c-.2 -.3 -.3 -.7 -.5 -1l1 -.5Zm1 1.9c.2 .3 .4 .5 .6 .8l-1 .7c-.2 -.3 -.4 -.6 -.6 -1l1 -.5Zm1.3 1.7c.2 .3 .5 .6 .7 .9l-.8 .8c-.3 -.3 -.6 -.6 -.8 -.9l.9 -.8Zm1.5 1.7c.3 .2 .6 .5 .8 .7l-.6 .9c-.4 -.3 -.7 -.5 -1 -.8l.8 -.8Zm1.7 1.3c.3 .2 .7 .4 1 .6l-.6 1c-.3 -.2 -.6 -.4 -1 -.6l.6 -1Zm1.9 1c.4 .2 .7 .3 1 .4l-.4 1.1c-.3 -.1 -.7 -.3 -1 -.4l.4 -1.1Zm2 .7c.4 .1 .7 .2 1.1 .3l-.2 1.1c-.4 -.1 -.8 -.2 -1.2 -.3l.3 -1.1Zm2.2 .5c.4 0 .8 .1 1.2 .1l-.1 1.1c-.4 0 -.9 0 -1.3 -.1l.2 -1.1Zm2.4 .2c.1 0 .3 0 .5 0v1.1c-.2 0 -.4 0 -.6 0l.1 -1.1Z" class="g2_80"/>
<path d="M262.8 357.6l-8 2.7l2 -2.7l-2 -2.6l8 2.6Z" class="g2_80"/>
<path d="M262.8 357.6l-8 2.7l2 -2.7l-2 -2.6l8 2.6Z" class="g3_80"/>
<path d="M438.5 280.7c0 .4 0 .8 0 1.2h-1.2c0 -.4 0 -.8 0 -1.2h1.2Zm-.1 2.4c0 .4 -.1 .8 -.1 1.2l-1.2 -.1c.1 -.4 .1 -.8 .1 -1.2l1.2 .1Zm-.3 2.4c-.1 .4 -.2 .7 -.2 1.1l-1.2 -.2c.1 -.4 .2 -.8 .3 -1.1l1.1 .2Zm-.5 2.2c-.1 .4 -.2 .8 -.3 1.1l-1.1 -.3c.1 -.4 .2 -.7 .3 -1.1l1.1 .3Zm-.7 2.2c-.2 .4 -.3 .8 -.5 1.1l-1 -.5c.1 -.3 .3 -.6 .4 -1l1.1 .4Zm-1 2.2c-.1 .3 -.3 .7 -.5 1l-1 -.6c.2 -.3 .3 -.6 .5 -.9l1 .5Zm-1.1 2c-.2 .3 -.4 .7 -.7 1l-.9 -.6c.2 -.4 .4 -.7 .6 -1l1 .6Zm-1.4 2c-.2 .3 -.4 .6 -.7 .9l-.9 -.7c.3 -.3 .5 -.6 .7 -.9l.9 .7Zm-1.4 1.7c-.3 .3 -.5 .6 -.8 .9l-.8 -.8c.2 -.3 .5 -.6 .7 -.8l.9 .7Zm-1.6 1.7c-.3 .2 -.6 .5 -.9 .8l-.7 -.9c.3 -.3 .5 -.5 .8 -.8l.8 .9Zm-1.8 1.5c-.3 .3 -.6 .5 -.9 .8l-.7 -.9c.3 -.3 .6 -.5 .9 -.8l.7 .9Zm-1.9 1.5c-.3 .2 -.6 .5 -1 .7l-.6 -1c.3 -.2 .6 -.4 1 -.6l.6 .9Zm-1.9 1.3c-.3 .2 -.6 .4 -.9 .6l-.6 -1c.3 -.2 .6 -.4 .9 -.6l.6 1Zm-1.9 1.1c-.3 .2 -.6 .4 -1 .6l-.5 -1c.3 -.2 .7 -.4 1 -.6l.5 1Zm-2 1.1c-.3 .2 -.7 .4 -1 .6l-.5 -1.1c.3 -.1 .7 -.3 1 -.5l.5 1Zm-2.1 1.1c-.4 .1 -.8 .3 -1.2 .5l-.4 -1.1c.4 -.1 .7 -.3 1.1 -.5l.5 1.1Zm-2.3 1c-.3 .1 -.7 .2 -1 .4l-.4 -1.1c.3 -.1 .6 -.3 1 -.4l.4 1.1Zm-2 .8c-.4 .1 -.7 .2 -1 .3l-.4 -1c.3 -.2 .6 -.3 1 -.4l.4 1.1Zm-2.1 .7c-.3 .1 -.7 .2 -1.1 .4l-.3 -1.1c.3 -.1 .7 -.3 1 -.4l.4 1.1Zm-2.2 .7c-.3 .1 -.7 .3 -1.1 .4l-.3 -1.1c.4 -.1 .7 -.3 1.1 -.4l.3 1.1ZM408 311c-.4 .1 -.8 .2 -1.2 .3l-.3 -1.1c.4 -.1 .8 -.2 1.2 -.3l.3 1.1Zm-2.4 .6c-.4 .1 -.8 .3 -1.2 .4l-.2 -1.2c.4 -.1 .8 -.2 1.2 -.3l.2 1.1Zm-2.2 .6c-.4 .1 -.7 .2 -1.1 .3l-.2 -1.2c.3 0 .6 -.1 1 -.2l.3 1.1Zm-2.2 .5l-1 .2l-.3 -1.1l1.1 -.2l.2 1.1Zm-2.1 .5l-1.1 .2l-.3 -1.1l1.2 -.3l.2 1.2Zm-2.3 .4l-1.1 .2l-.2 -1.1l1.1 -.2l.2 1.1Zm-2.3 .4l-1.1 .2l-.2 -1.1l1.2 -.2l.1 1.1Zm-2.3 .4l-1.2 .2l-.2 -1.2l1.2 -.1l.2 1.1Zm-2.4 .4l-1.2 .1l-.1 -1.1l1.1 -.2l.2 1.2Zm-2.2 .3l-1.1 .1l-.2 -1.1l1.1 -.2l.2 1.2Zm-2.2 .2l-1.1 .1l-.1 -1.1l1.1 -.1l.1 1.1Zm-2.2 .3l-1.1 .1l-.2 -1.2l1.2 -.1l.1 1.2Zm-2.3 .2l-1.1 .1l-.1 -1.1l1.1 -.1l.1 1.1Zm-2.3 .2l-1.2 .1V315l1.1 -.1l.1 1.1Zm-2.3 .2l-1.2 .1l-.1 -1.2h1.2l.1 1.1Zm-2.4 .2l-1.2 .1l-.1 -1.2l1.2 -.1l.1 1.2Zm-2.5 .1l-1 .1l-.1 -1.2h1.1v1.1Zm-2.1 .1l-1.1 .1l-.1 -1.1l1.1 -.1l.1 1.1Zm-2.2 .2H366l-.1 -1.1l1.1 -.1l.1 1.2Zm-2.3 0l-1.1 .1v-1.2h1.1v1.1Zm-2.2 .1l-1.2 .1v-1.2h1.2v1.1Zm-2.3 .1h-1.2v-1.1l1.2 -.1V317Zm-2.3 0h-1.2v-1.1h1.1l.1 1.1Zm-2.4 .1h-1.2v-1.2h1.2v1.2Zm-2.4 0H352v-1.2h1.2v1.2Zm-2.4 0h-1.3v-1.2h1.3v1.2Zm-2.5 0h-1.2v-1.2h1.2v1.2Zm-2.3 0h-1.2V316H346v1.1Zm-2.4 0h-1.2V316h1.2v1.1Zm-2.3 0h-1.2V316h1.2v1.1Zm-2.3 0h-1.1V316H339v1.1Zm-2.3 0l-1.1 .1V316h1.1v1.1Zm-2.2 .1h-1.1V316h1.1v1.2Zm-2.2 0h-1v-1.1l1 -.1v1.2Zm-2.2 0h-1.2v-1.1h1.2v1.1Zm-2.4 0l-1.2 .1v-1.2h1.2v1.1Zm-2.4 .1h-1.2v-1.1l1.2 -.1v1.2Zm-2.3 0h-1.2v-1.1h1.1l.1 1.1Zm-2.3 .1h-1.2v-1.2h1.1l.1 1.2Zm-2.3 0h-1.1v-1.1h1.1v1.1Zm-2.2 .1h-1.1v-1.1l1.1 -.1v1.2Zm-2.1 0l-1.1 .1v-1.2h1l.1 1.1Zm-2.4 .1h-1.2v-1.1h1.2v1.1Zm-2.4 .1h-1.2v-1.1l1.2 -.1v1.2Zm-2.4 .1h-1.1l-.1 -1.1l1.2 -.1v1.2Zm-2.3 0l-1.1 .1v-1.2h1.1v1.1Zm-2.2 .1l-1.1 .1v-1.2h1.1v1.1Zm-2.2 .1l-1 .1l-.1 -1.2h1.1V318Zm-2.1 .1l-1.2 .1l-.1 -1.1l1.3 -.1v1.1Zm-2.5 .2h-1.2v-1.1l1.2 -.1v1.2Zm-2.4 .1l-1.1 .1l-.1 -1.1l1.2 -.1v1.1Zm-2.3 .2l-1.1 .1l-.1 -1.2l1.2 -.1v1.2Zm-2.2 .1l-1 .1l-.1 -1.1l1 -.1l.1 1.1Zm-2.1 .2l-1.1 .1l-.1 -1.1l1.1 -.1l.1 1.1Zm-2.3 .2l-1.3 .1l-.1 -1.1l1.2 -.1l.2 1.1Zm-2.5 .2l-1.1 .2l-.1 -1.2l1.1 -.1l.1 1.1Zm-2.2 .3l-1.1 .1l-.1 -1.1l1 -.1l.2 1.1Zm-2.1 .3l-1 .1l-.2 -1.1l1 -.2l.2 1.2Zm-2.3 .3c-.4 .1 -.8 .1 -1.2 .2l-.2 -1.1c.4 -.1 .8 -.2 1.2 -.2l.2 1.1Zm-2.4 .4c-.4 .1 -.7 .1 -1.1 .2l-.2 -1.1c.3 -.1 .7 -.1 1.1 -.2l.2 1.1Zm-2.1 .4c-.3 .1 -.6 .2 -.9 .3l-.3 -1.1c.3 -.1 .6 -.2 .9 -.3l.3 1.1Zm-2.2 .6c-.4 .1 -.8 .3 -1.1 .4l-.4 -1.1c.3 -.1 .7 -.2 1.2 -.4l.3 1.1Zm-2.1 .8c-.3 .1 -.5 .3 -.8 .4l-.6 -.9c.3 -.2 .6 -.4 .9 -.5l.5 1Zm-1.6 1.1c-.1 .2 -.1 .4 -.1 .5q0 .1 0 .2h-1.2c0 0 0 -.1 0 -.2c0 -.4 .1 -.7 .4 -1.1l.9 .6Zm.1 1.5c.1 .3 .3 .6 .5 .8l-.9 .8c-.3 -.4 -.5 -.7 -.7 -1.1l1.1 -.5Zm1.3 1.6c.3 .2 .6 .4 .9 .6l-.6 1c-.3 -.2 -.7 -.4 -.9 -.6l.6 -1Zm1.7 1c.3 .1 .6 .2 .9 .4l-.4 1c-.3 -.1 -.7 -.2 -1 -.4l.5 -1Zm2 .8c.4 .1 .8 .2 1.2 .3l-.3 1.1c-.4 -.1 -.8 -.2 -1.2 -.4l.3 -1Zm2.6 .6c.3 .1 .6 .2 1 .3l-.3 1.1c-.3 -.1 -.7 -.2 -1 -.2l.3 -1.2Zm1.9 .4c.3 .1 .7 .2 1 .2l-.2 1.1c-.3 0 -.7 -.1 -1 -.1l.2 -1.2Zm2.1 .4c.4 0 .7 .1 1.1 .1l-.2 1.2c-.3 -.1 -.7 -.1 -1.1 -.2l.2 -1.1Zm2.3 .3c.4 0 .8 .1 1.2 .1l-.2 1.2c-.4 -.1 -.8 -.1 -1.2 -.2l.2 -1.1Zm2.4 .2c.5 .1 .9 .1 1.3 .1l-.1 1.2c-.4 0 -.8 -.1 -1.3 -.1l.1 -1.2Zm2.5 .2l1 .1l-.1 1.1h-1l.1 -1.2Zm2 .2h1.1l-.1 1.2l-1 -.1v-1.1Zm2.2 .1H289l-.1 1.2l-1.1 -.1l.1 -1.1Zm2.2 .1h1.2l-.1 1.1h-1.1v-1.1Zm2.3 0h1.2v1.2h-1.2v-1.2Zm2.5 .1h1.2v1.1h-1.2V331Zm2.5 0h.6v1.1h-.6V331Z" class="g2_80"/>
<path d="M304.1 331.6l-8.1 2.6l2 -2.6l-2 -2.7l8.1 2.7Z" class="g2_80"/>
<path d="M304.1 331.6l-8.1 2.6l2 -2.6l-2 -2.7l8.1 2.7Z" class="g3_80"/>
</g>
<path d="M86.6 758.4H586.2" class="g4_80"/>
<path d="M86.6 785.4H586.2" class="g5_80"/>
<path d="M86.6 812.1H586.2" class="g6_80"/>
<path d="M86.6 867.2H196.2" class="g7_80"/>
</svg>