<?xml version="1.0" encoding="UTF-8" standalone="no"?>
<!DOCTYPE svg PUBLIC "-//W3C//DTD SVG 1.1//EN"
"http://www.w3.org/Graphics/SVG/1.1/DTD/svg11.dtd">
<svg viewBox="0 0 714 1017" version="1.1" xmlns="http://www.w3.org/2000/svg" xmlns:xlink="http://www.w3.org/1999/xlink">
<defs>
<clipPath id="c0_130"><path d="M138.9 743.3V323.1H597.3V743.3Z"/></clipPath>
<clipPath id="c1_130"><path d="M138.9 743.3V321.7H597.3V743.3Z"/></clipPath>
<style type="text/css"><![CDATA[
.g0_130{
fill: #FFF;
}
.g1_130{
fill: #000;
}
.g2_130{
fill: none;
stroke: #000;
stroke-width: 1.145;
stroke-miterlimit: 10;
}
]]></style>
</defs>
<path d="M0 1017.7H717.2V-3.7H0V1017.7Z" class="g0_130"/>
<g clip-path="url(#c1_130)">
<path clip-path="url(#c0_130)" d="M138.9 323.1H597.3V743.6H138.9V323.1Z" class="g0_130"/>
<path d="M542.2 542.5v1.1H541v-.3l.1 -.8h1.1Zm-.3 5.7v1.2l-1.2 -.1l.1 -1.1h1.1Zm-.4 5.8v.6l-.1 .6l-1.1 -.1v-.6l.1 -.6l1.1 .1Zm-.6 5.7l-.1 1.1l-1.1 -.1l.1 -1.1l1.1 .1Zm-.7 5.7l-.2 1.1l-1.1 -.1l.2 -1.2l1.1 .2Zm-.9 5.7l-.2 1.2l-1.2 -.2l.3 -1.2l1.1 .2Zm-1.1 5.6l-.2 1.2l-1.1 -.3l.2 -1.1l1.1 .2Zm-1.2 5.6l-.2 .5l-.1 .6l-1.1 -.2l.1 -.6l.2 -.5l1.1 .2Zm-1.4 5.6l-.3 1.1l-1.2 -.3l.3 -1.1l1.2 .3Zm-1.6 5.6l-.3 1.1l-1.1 -.4l.3 -1.1l1.1 .4Zm-1.7 5.4l-.4 1.1l-1.1 -.4l.4 -1l1.1 .3Zm-1.9 5.5l-.4 .9v.1l-1.1 -.3l.1 -.2l.3 -.9l1.1 .4Zm-2.1 5.4l-.4 1l-1.1 -.4l.5 -1l1 .4Zm-2.2 5.3l-.3 .8l-.1 .2l-1.1 -.5l.1 -.1l.4 -.9l1 .5Zm-2.3 5.2l-.5 1l-1 -.5l.4 -1l1.1 .5Zm-2.5 5.2l-.5 1l-1.1 -.5l.5 -1l1.1 .5Zm-2.7 5.1l-.5 1l-1 -.6l.5 -1l1 .6Zm-2.8 5l-.5 1l-1 -.6l.5 -1l1 .6Zm-2.9 4.9l-.6 1l-1 -.6l.6 -1l1 .6Zm-3.1 4.9l-.7 1l-.9 -.7l.6 -.9l1 .6Zm-3.2 4.8l-.7 .9l-.9 -.7l.6 -.9l1 .7Zm-3.4 4.6l-.7 .9l-.9 -.7l.7 -.9l.9 .7Zm-3.5 4.6l-.7 .9l-.9 -.7l.7 -.9l.9 .7Zm-3.6 4.4l-.8 .9l-.9 -.7l.8 -.9l.9 .7Zm-3.8 4.4l-.8 .8l-.8 -.7l.7 -.9l.9 .8Zm-3.9 4.2l-.8 .9l-.8 -.8l.8 -.9l.8 .8Zm-4 4.2l-.8 .8l-.8 -.8l.8 -.9l.8 .9Zm-4.1 4l-.9 .8l-.7 -.9l.8 -.8l.8 .9Zm-4.3 3.9l-.8 .7l-.8 -.8l.9 -.8l.7 .9Zm-4.3 3.7l-.9 .7l-.7 -.8l.9 -.8l.7 .9Zm-4.5 3.6l-.9 .8l-.7 -.9l.9 -.8l.7 .9Zm-4.5 3.6l-.9 .6l-.7 -.9l.9 -.7l.7 1Zm-4.7 3.3l-.9 .7l-.7 -1l1 -.6l.6 .9Zm-4.7 3.2l-1 .7l-.6 -1l.9 -.6l.7 .9Zm-4.9 3.1l-1 .6l-.6 -.9l1 -.6l.6 .9Zm-4.9 3l-1 .6l-.6 -1l1 -.6l.6 1Zm-5 2.8l-1.1 .5l-.5 -1l1 -.5l.6 1Zm-5.1 2.6l-1.1 .6l-.5 -1.1l1 -.5l.6 1Zm-5.2 2.6l-1.1 .4l-.5 -1l1.1 -.5l.5 1.1Zm-5.3 2.3l-.8 .4l-.2 .1l-.5 -1.1l.3 -.1l.8 -.3l.4 1Zm-5.3 2.2l-1 .4l-.4 -1l1 -.5l.4 1.1Zm-5.4 2.1l-1 .3l-.4 -1l1 -.4l.4 1.1Zm-5.4 1.8l-1.1 .4l-.3 -1.1l1 -.3l.4 1Zm-5.5 1.8l-1 .3l-.4 -1.1l1.1 -.3l.3 1.1Zm-5.5 1.5l-1.1 .3l-.3 -1.1l1.1 -.3l.3 1.1Zm-5.6 1.5l-.7 .1l-.4 .1l-.3 -1.1l.4 -.1l.7 -.2l.3 1.2Zm-5.6 1.2l-1.1 .2l-.2 -1.1l1.1 -.2l.2 1.1Zm-5.6 1.1l-1.2 .2l-.2 -1.2l1.2 -.2l.2 1.2Zm-5.7 .9l-1.2 .2l-.1 -1.2l1.1 -.1l.2 1.1Zm-5.7 .7l-1.2 .2l-.1 -1.2l1.1 -.1l.2 1.1Zm-5.7 .6h-.2l-.9 .1l-.1 -1.1l.9 -.1h.2l.1 1.1Zm-5.8 .4l-1.1 .1l-.1 -1.1l1.2 -.1v1.1Zm-5.7 .3h-1.2v-1.1l1.1 -.1l.1 1.2Zm-5.7 .1h-1.1v-1.2h1.1v1.2Zm-5.7 -.1h-1.1v-1.2h.4l.8 .1l-.1 1.1Zm-5.7 -.2l-1.2 -.1l.1 -1.2l1.1 .1v1.2Zm-5.8 -.5l-1.2 -.1l.1 -1.1l1.2 .1l-.1 1.1Zm-5.7 -.5l-1.1 -.2l.1 -1.1l1.2 .1l-.2 1.2Zm-5.7 -.8l-1.1 -.2l.2 -1.1l1.1 .2l-.2 1.1Zm-5.7 -.9l-1.1 -.2l.2 -1.1l1.1 .2l-.2 1.1Zm-5.6 -1.1l-1.1 -.2l.2 -1.1l1.1 .2l-.2 1.1Zm-5.6 -1.2l-1.1 -.3l.2 -1.1l1.2 .3l-.3 1.1Zm-5.6 -1.4l-1.1 -.3l.3 -1.1l1.1 .3l-.3 1.1ZM288 726.2l-1 -.3l.3 -1.1l1.1 .3l-.4 1.1Zm-5.4 -1.7l-1.1 -.4l.4 -1.1l1.1 .4l-.4 1.1Zm-5.4 -1.9l-1.1 -.4l.4 -1.1l1 .4l-.3 1.1Zm-5.5 -2.1l-1 -.4l.4 -1l1.1 .4l-.5 1Zm-5.2 -2.1l-.4 -.2l-.7 -.3l.5 -1l.7 .3l.3 .1l-.4 1.1ZM261.2 716l-1 -.5l.5 -1l1 .5l-.5 1ZM256 713.5l-1 -.5l.5 -1l1 .5l-.5 1Zm-5.1 -2.6l-1 -.6l.6 -1l1 .5l-.6 1.1Zm-5 -2.8l-1 -.6l.6 -1l1 .6l-.6 1Zm-4.9 -3l-1 -.6l.6 -1l1 .6l-.6 1ZM236.1 702l-.2 -.1l-.8 -.5l.7 -1l.8 .6l.1 .1l-.6 .9Zm-4.7 -3.2l-1 -.7l.7 -.9l.9 .7l-.6 .9Zm-4.7 -3.4l-.9 -.6l.7 -1l.9 .7l-.7 .9Zm-4.6 -3.5l-.9 -.7l.7 -.9l.9 .7l-.7 .9Zm-4.4 -3.6l-.9 -.7l.7 -.9l.9 .7l-.7 .9Zm-4.4 -3.7l-.8 -.8l.7 -.9l.9 .8l-.8 .9Zm-4.2 -3.9l-.1 -.1l-.8 -.7l.8 -.8l.7 .6l.2 .1l-.8 .9Zm-4.2 -4l-.2 -.2l-.6 -.6l.8 -.9l.6 .6l.2 .3l-.8 .8Zm-4 -4.2l-.8 -.8l.9 -.8l.8 .9l-.9 .7ZM197 668.3l-.7 -.9l.8 -.7l.8 .8l-.9 .8ZM193.3 664l-.8 -.9l.9 -.8l.8 .9l-.9 .8Zm-3.7 -4.5l-.7 -.9l.9 -.7l.7 .9l-.9 .7Zm-3.5 -4.6l-.6 -.9l.9 -.7l.7 1l-1 .6Zm-3.3 -4.6l-.7 -1l1 -.6l.6 .9l-.9 .7Zm-3.3 -4.8l-.6 -.9l1 -.7l.6 1l-1 .6Zm-3.1 -4.8l-.6 -1l1 -.6l.6 1l-1 .6Zm-2.9 -5l-.6 -1l1 -.5l.6 1l-1 .5Zm-2.8 -5l-.5 -1l1 -.5l.5 1l-1 .5ZM168 625.6l-.5 -1l1 -.5l.6 1l-1.1 .5Zm-2.5 -5.2l-.5 -1l1.1 -.5l.5 1.1l-1.1 .4Zm-2.3 -5.2l-.5 -1.1l1.1 -.4l.4 1l-1 .5ZM161 609.9l-.4 -1.1l1 -.4l.4 1.1l-1 .4Zm-2.1 -5.4l-.4 -1.1l1.1 -.4l.4 1.1l-1.1 .4ZM157 599.1l-.3 -1.1l1.1 -.4l.3 1.1l-1.1 .4Zm-1.7 -5.5l-.3 -1.1l1.1 -.3l.3 1.1l-1.1 .3Zm-1.6 -5.5l-.3 -1.1l1.1 -.3l.3 1.1l-1.1 .3Zm-1.4 -5.6v-.1l-.3 -1l1.2 -.3l.2 1.1l-1.1 .3Zm-1.2 -5.6l-.3 -1.1l1.2 -.3l.2 1.2l-1.1 .2ZM150 571.3l-.2 -1.2l1.1 -.2l.2 1.2l-1.1 .2Zm-.9 -5.8l-.2 -.8v-.3l1.1 -.2l.1 .4l.1 .8l-1.1 .1Zm-.8 -5.6l-.1 -1.2l1.1 -.1l.1 1.1l-1.1 .2Zm-.6 -5.7l-.1 -1.2l1.2 -.1l.1 1.2l-1.2 .1Zm-.4 -5.8l-.1 -1.2h1.2v1.1l-1.1 .1Zm-.2 -5.7l-.1 -1.2h1.2v1.1l-1.1 .1ZM147 537v-1.2h1.1V537H147Zm0 -5.7l.1 -1.1h1.1v1.1H147Zm.3 -5.7l.1 -1.2l1.1 .1l-.1 1.1h-1.1Zm.4 -5.8l.1 -1.2l1.1 .1l-.1 1.2l-1.1 -.1Zm.6 -5.7l.1 -1.1l1.1 .1l-.1 1.1l-1.1 -.1Zm.7 -5.7l.2 -1.1l1.1 .1l-.1 1.2l-1.2 -.2Zm.9 -5.7l.2 -1.2l1.2 .2l-.2 1.2l-1.2 -.2Zm1.1 -5.6l.2 -1.2l1.2 .3l-.3 1.1l-1.1 -.2Zm1.2 -5.6l.3 -1.2l1.1 .3l-.2 1.1l-1.2 -.2Zm1.4 -5.6l.3 -1.2l1.2 .3l-.3 1.2l-1.2 -.3Zm1.6 -5.6l.1 -.4l.2 -.7l1.1 .4l-.2 .6l-.1 .4l-1.1 -.3Zm1.7 -5.4l.4 -1.1l1.1 .3l-.4 1.1l-1.1 -.3Zm1.9 -5.5l.4 -1.1l1.1 .4l-.4 1.1l-1.1 -.4Zm2.1 -5.4l.4 -1l1.1 .4l-.5 1l-1 -.4Zm2.1 -5.3l.5 -1l1.1 .4l-.5 1.1l-1.1 -.5Zm2.4 -5.2l.5 -1.1l1 .5l-.5 1.1l-1 -.5Zm2.5 -5.2l.5 -1l1 .5l-.5 1l-1 -.5Zm2.6 -5.1l.6 -1l1 .5l-.5 1l-1.1 -.5Zm2.8 -5l.3 -.6l.3 -.4l1 .6l-.3 .4l-.3 .6l-1 -.6Zm3 -5l.6 -.9l1 .6l-.6 .9l-1 -.6Zm3.1 -4.8l.6 -1l1 .6l-.7 1l-.9 -.6Zm3.2 -4.8l.7 -.9l.9 .6l-.7 1l-.9 -.7ZM186 419l.6 -1l1 .7l-.7 .9L186 419Zm3.5 -4.6l.7 -.9l.9 .7l-.7 .9l-.9 -.7Zm3.6 -4.5l.7 -.9l.9 .8l-.7 .9l-.9 -.8Zm3.7 -4.3l.8 -.9l.9 .8l-.8 .8l-.9 -.7Zm3.9 -4.3l.8 -.8l.8 .8l-.8 .8l-.8 -.8Zm4 -4.1l.8 -.8l.8 .8l-.8 .8l-.8 -.8Zm4.1 -4l.1 -.1l.8 -.7l.8 .8l-.8 .7l-.1 .1l-.8 -.8Zm4.3 -3.9l.8 -.8l.8 .9l-.9 .8l-.7 -.9Zm4.3 -3.8l.9 -.7l.7 .9l-.8 .7l-.8 -.9Zm4.5 -3.6l.9 -.7l.7 .9l-.9 .7l-.7 -.9Zm4.5 -3.5l1 -.7l.6 .9l-.9 .7l-.7 -.9Zm4.7 -3.4l.9 -.6l.7 .9l-.9 .7l-.7 -1Zm4.7 -3.2l1 -.6l.6 .9l-.9 .6l-.7 -.9Zm4.9 -3.1l1 -.6l.6 1l-1 .6l-.6 -1Zm4.9 -3l1 -.5l.6 1l-1 .5l-.6 -1Zm5.1 -2.8l1 -.5l.5 1l-1 .5l-.5 -1Zm5 -2.6l1.1 -.5l.5 1l-1 .5l-.6 -1Zm5.2 -2.5l1.1 -.5l.5 1l-1.1 .5l-.5 -1Zm5.3 -2.4l1 -.5l.5 1.1l-1.1 .5l-.4 -1.1Zm5.3 -2.2l1 -.4l.4 1l-1 .5l-.4 -1.1Zm5.4 -2.1l.7 -.2l.3 -.1l.4 1l-.3 .1l-.8 .3l-.3 -1.1Zm5.4 -1.9l.6 -.2l.5 -.1l.3 1.1l-.4 .1l-.6 .2l-.4 -1.1Zm5.5 -1.7l1 -.3l.4 1.1l-1.1 .3l-.3 -1.1Zm5.5 -1.6l1.1 -.2l.3 1.1l-1.1 .3l-.3 -1.2Zm5.6 -1.4l1.1 -.2l.3 1.1l-1.1 .2l-.3 -1.1Zm5.6 -1.2l1.1 -.2l.2 1.1l-1.1 .2l-.2 -1.1Zm5.6 -1.1l1.1 -.2l.2 1.1l-1.1 .2l-.2 -1.1Zm5.7 -.9l1.2 -.2l.1 1.1l-1.1 .2l-.2 -1.1Zm5.7 -.8l1.1 -.1l.2 1.1l-1.2 .2l-.1 -1.2Zm5.7 -.6l1.1 -.1l.1 1.2l-1.1 .1l-.1 -1.2Zm5.8 -.4l1.1 -.1l.1 1.2l-1.2 .1v-1.2Zm5.7 -.2l1.1 -.1l.1 1.2h-1.2v-1.1Zm5.7 -.1h1.1v1.1h-1.1v-1.1Zm5.7 0l1.1 .1v1.1H350l.1 -1.2Zm5.7 .3l1.2 .1l-.1 1.1l-1.2 -.1l.1 -1.1Zm5.8 .4l1.1 .1l-.1 1.1l-1.1 -.1l.1 -1.1Zm5.7 .6l1.1 .1l-.1 1.1l-1.2 -.1l.2 -1.1Zm5.7 .7l1.1 .2l-.2 1.1l-1.1 -.2l.2 -1.1Zm5.7 .9l1.1 .2l-.2 1.2l-1.1 -.3l.2 -1.1Zm5.6 1.1h.2l.9 .2l-.2 1.1l-.9 -.1l-.2 -.1l.2 -1.1Zm5.6 1.2l.3 .1l.8 .2l-.2 1.1l-.8 -.2l-.4 -.1l.3 -1.1Zm5.6 1.4l1.1 .3l-.3 1.1l-1.1 -.3l.3 -1.1Zm5.5 1.6l1.1 .3l-.3 1.1l-1.1 -.3l.3 -1.1Zm5.5 1.7l1.1 .4l-.4 1.1l-1.1 -.4l.4 -1.1Zm5.4 1.9l1.1 .4l-.4 1.1l-1 -.4l.3 -1.1Zm5.5 2l1 .5l-.4 1l-1.1 -.4l.5 -1.1Zm5.2 2.2l1.1 .5l-.5 1l-1 -.4l.4 -1.1Zm5.3 2.4h.1l.9 .4l-.5 1.1l-.9 -.5h-.1l.5 -1Zm5.2 2.5l1 .5l-.5 1l-1 -.5l.5 -1Zm5.1 2.6l1 .6l-.6 1l-1 -.6l.6 -1Zm5 2.8l1 .6l-.6 1l-1 -.6l.6 -1Zm4.9 2.9l1 .6l-.6 1l-1 -.6l.6 -1Zm4.9 3.1l1 .7l-.7 .9l-.9 -.6l.6 -1Zm4.8 3.2l.9 .7l-.7 .9l-.9 -.6l.7 -1Zm4.6 3.4l.9 .7l-.6 .9l-1 -.7l.7 -.9Zm4.6 3.5l.9 .7l-.7 .9l-.9 -.7l.7 -.9Zm4.5 3.6l.8 .8l-.7 .8l-.9 -.7l.8 -.9Zm4.3 3.8l.9 .7l-.8 .9l-.8 -.8l.7 -.8Zm4.3 3.9l.8 .8l-.8 .8l-.8 -.8l.8 -.8Zm4.1 4l.8 .8l-.8 .8l-.8 -.8l.8 -.8Zm4 4.1l.8 .8l-.8 .8l-.8 -.8l.8 -.8Zm3.9 4.2l.8 .9l-.9 .7l-.8 -.8l.9 -.8Zm3.8 4.4l.7 .8l-.9 .8l-.7 -.9l.9 -.7Zm3.6 4.4v0l.7 .9l-.9 .7l-.7 -.9l.9 -.7Zm3.5 4.6l.5 .6l.2 .3l-.9 .7l-.2 -.3l-.5 -.6l.9 -.7Zm3.4 4.6l.6 1l-.9 .6l-.7 -.9l1 -.7Zm3.2 4.8l.6 .9l-.9 .7l-.6 -1l.9 -.6Zm3.1 4.8l.6 1l-1 .6l-.6 -1l1 -.6Zm3 5l.5 1l-1 .5l-.5 -1l1 -.5Zm2.8 5l.5 1l-1 .5l-.5 -1l1 -.5Zm2.6 5.1l.5 1l-1 .5l-.5 -1l1 -.5Zm2.6 5.2l.4 1l-1 .5l-.5 -1l1.1 -.5Zm2.3 5.2l.5 1.1l-1.1 .4l-.4 -1l1 -.5Zm2.2 5.3l.4 1l-1 .5l-.5 -1.1l1.1 -.4Zm2.1 5.4l.4 1.1l-1.1 .4l-.4 -1.1l1.1 -.4Zm1.9 5.4l.3 1.1l-1.1 .4l-.3 -1.1l1.1 -.4Zm1.7 5.5l.3 1.1l-1.1 .3l-.3 -1.1l1.1 -.3Zm1.6 5.5l.1 .6l.2 .5l-1.1 .3l-.2 -.5l-.1 -.6l1.1 -.3Zm1.4 5.6l.3 1.1l-1.2 .3l-.2 -1.1l1.1 -.3Zm1.2 5.6l.3 1.1l-1.2 .2l-.2 -1.1l1.1 -.2Zm1.1 5.6l.2 1.2l-1.1 .2l-.2 -1.2l1.1 -.2Zm1 5.7l.1 1.2l-1.1 .1l-.2 -1.1l1.2 -.2Zm.7 5.7l.1 1.2l-1.1 .1l-.1 -1.1l1.1 -.2Zm.6 5.7l.1 1.2l-1.1 .1l-.1 -1.2l1.1 -.1Zm.4 5.8l.1 1.1l-1.2 .1v-1.1l1.1 -.1Zm.3 5.7V532h-1.1l-.1 -1.1l1.2 -.1Zm.1 5.7V538l-1.2 -.1v-1.4h1.2Z" class="g1_130"/>
<path d="M505.5 542.5v1.2l-1.2 -.1V543l.1 -.5h1.1Zm-.3 5.8l-.1 1.1l-1.1 -.1l.1 -1.1l1.1 .1Zm-.5 5.7l-.1 1.1l-1.2 -.1l.2 -1.1l1.1 .1Zm-.7 5.7l-.2 1.1l-1.1 -.1l.1 -1.2l1.2 .2Zm-.9 5.7l-.3 1.2l-1.1 -.3l.2 -1.1l1.2 .2Zm-1.2 5.6v0l-.2 1.1l-1.1 -.2l.2 -1.1l1.1 .2Zm-1.3 5.6l-.3 1.1l-1.1 -.2l.3 -1.2l1.1 .3Zm-1.5 5.6l-.3 1.1l-1.1 -.3l.3 -1.1l1.1 .3Zm-1.7 5.5h-.1l-.3 1l-1.1 -.3l.4 -1v-.1l1.1 .4Zm-1.9 5.4l-.5 1.1l-1 -.4l.4 -1.1l1.1 .4Zm-2.2 5.4l-.2 .6l-.2 .4l-1.1 -.4l.2 -.4l.3 -.7l1 .5Zm-2.2 5.2l-.5 1.1l-1.1 -.5l.5 -1.1l1.1 .5Zm-2.5 5.2L488 610l-1 -.6l.5 -1l1.1 .5Zm-2.7 5.1l-.6 1l-1 -.5l.6 -1l1 .5Zm-2.8 5l-.6 1l-1 -.6l.6 -1l1 .6Zm-3.1 4.9l-.6 1l-1 -.6l.7 -1l.9 .6Zm-3.2 4.8l-.6 .9l-1 -.6l.7 -1l.9 .7Zm-3.3 4.7c-.3 .3 -.5 .6 -.7 .9l-.9 -.7c.2 -.3 .4 -.6 .6 -.9l1 .7Zm-3.6 4.5c-.2 .3 -.5 .6 -.7 .9l-.9 -.7c.2 -.3 .5 -.6 .7 -.9l.9 .7Zm-3.7 4.4c-.2 .3 -.5 .6 -.7 .9l-.9 -.8c.3 -.3 .5 -.6 .8 -.8l.8 .7Zm-3.8 4.3c-.3 .3 -.5 .6 -.8 .8l-.8 -.8c.2 -.2 .5 -.5 .7 -.8l.9 .8Zm-4 4.1c-.3 .3 -.6 .6 -.8 .8l-.8 -.8c.2 -.2 .5 -.5 .8 -.8l.8 .8Zm-4.2 4c-.2 .3 -.5 .5 -.8 .8l-.8 -.8c.3 -.3 .6 -.6 .9 -.8l.7 .8Zm-4.2 3.9c-.3 .2 -.6 .5 -.9 .7l-.8 -.9c.3 -.2 .6 -.5 .9 -.7l.8 .9Zm-4.5 3.6c-.3 .3 -.6 .5 -.9 .8l-.7 -.9c.3 -.3 .6 -.5 .9 -.7l.7 .8Zm-4.5 3.6l-.7 .5l-.2 .2l-.7 -1l.2 -.1l.7 -.5l.7 .9Zm-4.7 3.3l-.9 .7l-.7 -1l1 -.6l.6 .9Zm-4.8 3.2l-.2 .2l-.7 .4L430 672l.6 -.5l.3 -.1l.6 .9Zm-4.9 3.1l-1 .5l-.5 -.9l.9 -.6l.6 1Zm-5 2.8l-.7 .4l-.3 .1l-.5 -1l.3 -.1l.7 -.4l.5 1Zm-5.1 2.7l-1 .5l-.5 -1.1l1 -.5l.5 1.1Zm-5.2 2.4l-1 .5l-.5 -1l1.1 -.5l.4 1Zm-5.2 2.3l-1.1 .5l-.4 -1.1l1 -.4l.5 1Zm-5.4 2.1l-1.1 .4l-.4 -1.1l1.1 -.3l.4 1Zm-5.4 1.9l-1.1 .4l-.4 -1.1l1.1 -.3l.4 1Zm-5.5 1.7l-1.1 .4l-.3 -1.1l1.1 -.4l.3 1.1Zm-5.6 1.6l-1.1 .2l-.3 -1.1l1.1 -.2l.3 1.1Zm-5.6 1.3l-1.1 .2l-.2 -1.1l1.1 -.2l.2 1.1Zm-5.6 1.1l-1.1 .2l-.2 -1.1l1.1 -.2l.2 1.1Zm-5.7 .9l-1.1 .2l-.2 -1.2l1.1 -.1l.2 1.1Zm-5.7 .7l-1.1 .1l-.1 -1.1l1.1 -.1l.1 1.1Zm-5.7 .5l-1.2 .1l-.1 -1.1l1.2 -.1l.1 1.1Zm-5.8 .3l-1.1 .1l-.1 -1.2h1.2v1.1Zm-5.7 .1h-1.1v-1.1h1.1v1.1Zm-5.7 -.1h-1.1v-1.2l1.2 .1l-.1 1.1Zm-5.7 -.3h-.2l-1 -.1l.1 -1.1H333v1.2Zm-5.8 -.5l-1.1 -.2l.1 -1.1l1.2 .1l-.2 1.2Zm-5.7 -.8l-1.1 -.1l.2 -1.2l1.1 .2l-.2 1.1Zm-5.7 -.9l-.5 -.1l-.6 -.1l.2 -1.1l.6 .1l.5 .1l-.2 1.1Zm-5.6 -1.1l-1.1 -.3l.3 -1.1l1.1 .3l-.3 1.1Zm-5.6 -1.3l-.9 -.3h-.2l.3 -1.1h.1l1 .3l-.3 1.1ZM299 691.2l-1 -.3l.3 -1.1l1.1 .3l-.4 1.1Zm-5.4 -1.7l-1.1 -.4l.4 -1l1.1 .3l-.4 1.1Zm-5.4 -1.9l-1.1 -.4l.4 -1.1l1.1 .4l-.4 1.1Zm-5.4 -2.1l-1.1 -.5l.5 -1l1 .4l-.4 1.1Zm-5.3 -2.3l-1 -.5l.5 -1.1l1 .5l-.5 1.1Zm-5.2 -2.5l-1 -.6l.5 -1l1.1 .5l-.6 1.1ZM267.2 678l-1 -.6l.6 -1l1 .6l-.6 1Zm-4.9 -2.9h-.1l-.9 -.5l.6 -1l.9 .5v.1l-.5 .9Zm-4.9 -3l-1 -.6l.6 -1l1 .6l-.6 1Zm-4.8 -3.2l-1 -.7l.7 -.9l.9 .7l-.6 .9Zm-4.7 -3.4l-.9 -.7l.7 -.9l.9 .7l-.7 .9ZM243.4 662c-.3 -.2 -.6 -.5 -.9 -.7l.7 -.9c.3 .2 .6 .5 .9 .7l-.7 .9ZM239 658.3c-.3 -.3 -.6 -.5 -.9 -.8l.8 -.8c.3 .2 .5 .5 .8 .7l-.7 .9Zm-4.3 -3.9c-.3 -.2 -.6 -.5 -.8 -.7l.8 -.9c.2 .3 .5 .5 .8 .8l-.8 .8Zm-4.1 -4c-.3 -.2 -.6 -.5 -.8 -.8l.8 -.8c.2 .3 .5 .6 .8 .8l-.8 .8Zm-4 -4.1c-.3 -.3 -.5 -.6 -.8 -.9l.8 -.7c.3 .3 .6 .5 .8 .8l-.8 .8ZM222.7 642c-.2 -.3 -.5 -.6 -.7 -.9l.9 -.7c.2 .3 .5 .6 .7 .9l-.9 .7Zm-3.6 -4.4c-.3 -.3 -.5 -.6 -.8 -.9l.9 -.7c.3 .3 .5 .6 .8 .9l-.9 .7ZM215.5 633l-.2 -.4l-.4 -.5l.9 -.7l.4 .6l.3 .3l-1 .7Zm-3.3 -4.6l-.2 -.3l-.5 -.7l1 -.6l.5 .7l.1 .2l-.9 .7ZM209 623.6l-.5 -.8l-.1 -.2l1 -.6l.1 .2l.5 .8l-1 .6Zm-3 -4.9l-.6 -1l1 -.6l.6 1l-1 .6Zm-2.9 -5l-.5 -1l1 -.6l.6 1l-1.1 .6Zm-2.6 -5.1l-.5 -1.1l1 -.5l.5 1l-1 .6ZM198 603.3l-.5 -1l1.1 -.5l.5 1.1l-1.1 .4Zm-2.3 -5.2l-.4 -1.1l1.1 -.4l.4 1l-1.1 .5Zm-2.1 -5.4l-.4 -1.1l1.1 -.4l.4 1.1l-1.1 .4Zm-1.9 -5.4l-.3 -1.1l1.1 -.4l.3 1.1l-1.1 .4ZM190 581.8l-.3 -1.1l1.1 -.3l.3 1.1l-1.1 .3Zm-1.5 -5.6l-.3 -1.1l1.2 -.3l.2 1.1l-1.1 .3Zm-1.3 -5.6l-.1 -.4l-.1 -.7l1.1 -.2l.2 .7v.4l-1.1 .2ZM186.1 565l-.2 -1.1l1.1 -.2l.2 1.1l-1.1 .2Zm-.9 -5.7l-.1 -1.1l1.1 -.2l.1 1.1l-1.1 .2Zm-.7 -5.7l-.1 -1.1l1.1 -.1l.1 1.1l-1.1 .1Zm-.5 -5.7l-.1 -1.2l1.2 -.1l.1 1.2l-1.2 .1Zm-.3 -5.8V541l1.1 -.1l.1 1.2h-1.2Zm-.1 -5.7v-1.1h1.2v1.1h-1.2Zm.1 -5.7l.1 -1.1h1.1v1.2l-1.2 -.1Zm.4 -5.7v-.9l.1 -.3l1.1 .1v.3l-.1 .8h-1.1Zm.5 -5.8l.1 -1.1l1.2 .1l-.2 1.2l-1.1 -.2Zm.7 -5.7l.2 -1.1l1.1 .2l-.1 1.1l-1.2 -.2Zm1 -5.7l.2 -1.1l1.1 .2l-.2 1.1l-1.1 -.2Zm1.1 -5.6l.2 -1.1l1.2 .3l-.3 1.1l-1.1 -.3Zm1.3 -5.6l.3 -1.1l1.1 .3l-.3 1.1l-1.1 -.3Zm1.6 -5.5l.3 -1.1l1.1 .3l-.3 1.1l-1.1 -.3Zm1.7 -5.5l.1 -.3l.3 -.8l1.1 .4l-.3 .8l-.1 .3l-1.1 -.4Zm1.9 -5.4l.4 -1.1l1.1 .4l-.4 1.1l-1.1 -.4Zm2.2 -5.4l.4 -1l1.1 .4l-.5 1.1l-1 -.5Zm2.3 -5.2l.4 -1.1l1.1 .5l-.5 1l-1 -.4Zm2.5 -5.2l.3 -.7l.2 -.4l1 .5l-.2 .4l-.3 .7l-1 -.5Zm2.6 -5.1l.6 -1l1 .5l-.6 1l-1 -.5Zm2.9 -5l.6 -1l1 .6l-.6 1l-1 -.6Zm3 -4.9l.7 -1l.9 .6l-.6 1l-1 -.6Zm3.3 -4.8l.5 -.7l.1 -.2l.9 .6l-.1 .3l-.5 .7l-.9 -.7ZM216 440c.3 -.3 .5 -.6 .7 -1l.9 .7c-.2 .3 -.4 .6 -.7 1L216 440Zm3.6 -4.6c.2 -.3 .5 -.6 .7 -.9l.9 .8c-.3 .3 -.5 .5 -.7 .8l-.9 -.7Zm3.7 -4.4c.2 -.3 .5 -.6 .7 -.8l.9 .7c-.3 .3 -.5 .6 -.8 .9l-.8 -.8Zm3.8 -4.2c.3 -.3 .6 -.6 .8 -.9l.9 .8c-.3 .3 -.6 .6 -.8 .8l-.9 -.7Zm4 -4.2c.3 -.2 .6 -.5 .9 -.8l.8 .8c-.3 .3 -.6 .6 -.8 .8l-.9 -.8Zm4.2 -4c.3 -.2 .6 -.5 .8 -.7l.8 .8c-.3 .3 -.5 .5 -.8 .8l-.8 -.9Zm4.3 -3.8c.3 -.2 .6 -.5 .9 -.7l.7 .8c-.3 .3 -.6 .5 -.9 .8l-.7 -.9Zm4.4 -3.7c.3 -.2 .6 -.4 .9 -.7l.7 .9c-.3 .3 -.6 .5 -.9 .7l-.7 -.9Zm4.6 -3.5l.9 -.7l.7 1l-.9 .6l-.7 -.9Zm4.7 -3.3l.7 -.5l.2 -.2l.6 1l-.2 .1l-.7 .5l-.6 -.9Zm4.7 -3.2l1 -.6l.6 .9l-.9 .7l-.7 -1Zm5 -3l1 -.6l.5 1l-1 .6l-.5 -1Zm5 -2.8v-.1l1 -.5l.5 1l-.9 .5l-.1 .1l-.5 -1Zm5.1 -2.7l1 -.5l.5 1l-1 .5l-.5 -1Zm5.2 -2.5l1 -.4l.5 1l-1 .5l-.5 -1.1Zm5.3 -2.2l1 -.5l.4 1.1l-1 .4l-.4 -1Zm5.3 -2.1l1.1 -.4l.4 1.1l-1.1 .3l-.4 -1Zm5.5 -1.9l1.1 -.4l.3 1.1l-1.1 .4l-.3 -1.1Zm5.4 -1.7l1.1 -.3l.3 1.1l-1.1 .3l-.3 -1.1Zm5.6 -1.5h.1l1 -.3l.3 1.1l-1 .3h-.1l-.3 -1.1Zm5.6 -1.3l1.1 -.3l.3 1.2l-1.1 .2l-.3 -1.1Zm5.6 -1.1l1.2 -.2l.2 1.1l-1.2 .2l-.2 -1.1Zm5.8 -.9l1 -.2h.1l.1 1.2l-1.1 .1l-.1 -1.1Zm5.6 -.7l1.2 -.1l.1 1.1l-1.1 .1l-.2 -1.1Zm5.8 -.5l1.1 -.1l.1 1.2h-1.1l-.1 -1.1Zm5.7 -.3h1.2V377l-1.1 .1l-.1 -1.2Zm5.7 -.1h1.2l-.1 1.2h-1.1v-1.2Zm5.7 .2h1.2l-.1 1.1h-1.1V376Zm5.8 .3l1.2 .1l-.1 1.1l-1.2 -.1l.1 -1.1Zm5.7 .5l1.1 .1l-.1 1.2l-1.1 -.1l.1 -1.2Zm5.7 .8l1.1 .1l-.1 1.2l-1.2 -.2l.2 -1.1Zm5.7 .9l1.1 .2l-.2 1.1l-1.1 -.2l.2 -1.1Zm5.6 1.1l1.1 .3l-.2 1.1l-1.1 -.2l.2 -1.2ZM385 381l1.1 .3l-.3 1.1l-1.1 -.3L385 381Zm5.6 1.5l1.1 .4l-.4 1.1l-1 -.4l.3 -1.1Zm5.4 1.8l.7 .2l.4 .1l-.3 1.1l-.5 -.1l-.6 -.3l.3 -1Zm5.5 1.9l1 .4h.1l-.5 1.1l-1 -.4l.4 -1.1Zm5.3 2.1v0l1.1 .5l-.5 1l-1 -.4l.4 -1.1Zm5.3 2.3l1 .5l-.5 1.1l-1 -.5l.5 -1.1Zm5.2 2.6l1 .5l-.5 1l-1 -.5l.5 -1Zm5.1 2.6l.9 .6l-.5 1l-1 -.6l.6 -1Zm4.9 2.9l1 .6l-.6 1l-1 -.6l.6 -1Zm4.9 3.1l1 .6l-.6 .9l-1 -.6l.6 -.9ZM437 405l.8 .6h.1l-.6 1l-.1 -.1l-.9 -.6l.7 -.9Zm4.6 3.4c.3 .2 .7 .4 1 .6l-.7 1c-.3 -.3 -.6 -.5 -.9 -.7l.6 -.9Zm4.6 3.5c.3 .3 .6 .5 .9 .7l-.8 .9c-.3 -.2 -.5 -.5 -.8 -.7l.7 -.9Zm4.4 3.7c.3 .3 .6 .5 .8 .8l-.7 .8c-.3 -.2 -.6 -.5 -.9 -.7l.8 -.9Zm4.2 3.9c.3 .2 .6 .5 .9 .8l-.8 .8c-.3 -.3 -.6 -.5 -.8 -.8l.7 -.8Zm4.2 4c.2 .3 .5 .5 .8 .8l-.8 .8c-.3 -.3 -.6 -.5 -.9 -.8l.9 -.8Zm3.9 4.2c.3 .2 .6 .5 .8 .8l-.8 .8c-.3 -.3 -.5 -.6 -.8 -.9l.8 -.7Zm3.9 4.2c.2 .3 .5 .6 .7 .9l-.9 .8c-.2 -.3 -.5 -.6 -.7 -.9l.9 -.8Zm3.6 4.5c.3 .3 .5 .6 .7 .9l-.9 .7c-.2 -.3 -.4 -.6 -.7 -.9l.9 -.7Zm3.5 4.5l.5 .6l.2 .4l-.9 .6l-.2 -.3l-.5 -.6l.9 -.7Zm3.4 4.7l.6 1l-.9 .6l-.7 -.9l1 -.7Zm3.2 4.8l.6 1l-1 .6l-.6 -1l1 -.6Zm3 4.9l.5 1l-.9 .6l-.6 -1l1 -.6Zm2.8 5l.2 .4l.3 .7l-1 .5l-.3 -.7l-.2 -.3l1 -.6Zm2.6 5.2l.5 1l-1 .5l-.5 -1l1 -.5Zm2.5 5.2l.5 1l-1.1 .5l-.5 -1.1l1.1 -.4Zm2.3 5.2l.1 .4l.3 .7l-1.1 .4l-.3 -.7l-.1 -.3l1.1 -.5Zm2 5.4l.4 1.1l-1 .4l-.4 -1.1l1 -.4Zm1.9 5.5l.4 1l-1.1 .4l-.4 -1.1l1.1 -.3Zm1.7 5.4l.3 1.1l-1.1 .3l-.3 -1.1l1.1 -.3Zm1.5 5.6l.3 1.1l-1.1 .3l-.3 -1.1l1.1 -.3Zm1.3 5.6l.1 .3l.1 .8l-1.1 .3l-.2 -.9v-.2l1.1 -.3Zm1.1 5.6l.2 1.2l-1.1 .2l-.2 -1.2l1.1 -.2Zm.9 5.8l.1 1.1l-1.1 .1l-.1 -1.1l1.1 -.1Zm.7 5.6l.1 1.2l-1.2 .1l-.1 -1.1l1.2 -.2Zm.5 5.8v1.1l-1.1 .1l-.1 -1.1l1.2 -.1Zm.2 5.7l.1 1.2h-1.2V532l1.1 -.1Zm.1 4.9V538l-1.1 -.1v-1.1h1.1Z" class="g1_130"/>
<path d="M327.4 360.4h34.4v34.3H327.4V360.4Z" class="g0_130"/>
<path d="M327.4 360.4h34.4v34.3H327.4V360.4Z" class="g2_130"/>
<path d="M412.2 387.9h34.4v34.3H412.2V387.9Z" class="g0_130"/>
<path d="M412.2 387.9h34.4v34.3H412.2V387.9Z" class="g2_130"/>
<path d="M473 447.4h34.3v34.4H473V447.4Z" class="g0_130"/>
<path d="M473 447.4h34.3v34.4H473V447.4Z" class="g2_130"/>
<path d="M485.6 519.6h34.3V554H485.6V519.6Z" class="g0_130"/>
<path d="M485.6 519.6h34.3V554H485.6V519.6Z" class="g2_130"/>
<path d="M412.2 652.6h34.4v34.3H412.2V652.6Z" class="g0_130"/>
<path d="M412.2 652.6h34.4v34.3H412.2V652.6Z" class="g2_130"/>
<path d="M327.4 678.9h34.4v34.4H327.4V678.9Z" class="g0_130"/>
<path d="M327.4 678.9h34.4v34.4H327.4V678.9Z" class="g2_130"/>
<path d="M473 591.8h34.3v34.4H473V591.8Z" class="g0_130"/>
<path d="M473 591.8h34.3v34.4H473V591.8Z" class="g2_130"/>
<path d="M184.2 591.8h34.4v34.4H184.2V591.8Z" class="g0_130"/>
<path d="M184.2 591.8h34.4v34.4H184.2V591.8Z" class="g2_130"/>
<path d="M168.2 519.6h34.3V554H168.2V519.6Z" class="g0_130"/>
<path d="M168.2 519.6h34.3V554H168.2V519.6Z" class="g2_130"/>
<path d="M184.2 447.4h34.4v34.4H184.2V447.4Z" class="g0_130"/>
<path d="M184.2 447.4h34.4v34.4H184.2V447.4Z" class="g2_130"/>
<path d="M242.6 387.9H277v34.3H242.6V387.9Z" class="g0_130"/>
<path d="M242.6 387.9H277v34.3H242.6V387.9Z" class="g2_130"/>
<path d="M242.6 652.6H277v34.3H242.6V652.6Z" class="g0_130"/>
<path d="M242.6 652.6H277v34.3H242.6V652.6Z" class="g2_130"/>
<path d="M511.3 450.9h24.1c.7 0 1.3 .1 2 .4c.6 .2 1.2 .6 1.6 1.1c.5 .5 .9 1 1.2 1.7c.2 .6 .4 1.3 .4 1.9v24.1c0 .7 -.2 1.3 -.4 2c-.3 .6 -.7 1.2 -1.2 1.6c-.4 .5 -1 .9 -1.6 1.2c-.7 .2 -1.3 .4 -2 .4H511.3c-.6 0 -1.3 -.2 -1.9 -.4c-.7 -.3 -1.2 -.7 -1.7 -1.2c-.5 -.4 -.9 -1 -1.1 -1.6c-.3 -.7 -.4 -1.3 -.4 -2V456c0 -.6 .1 -1.3 .4 -1.9c.2 -.7 .6 -1.2 1.1 -1.7c.5 -.5 1 -.9 1.7 -1.1c.6 -.3 1.3 -.4 1.9 -.4Z" class="g1_130"/>
<path d="M511.3 450.9h24.1c.7 0 1.3 .1 2 .4c.6 .2 1.2 .6 1.6 1.1c.5 .5 .9 1 1.2 1.7c.2 .6 .4 1.3 .4 1.9v24.1c0 .7 -.2 1.3 -.4 2c-.3 .6 -.7 1.2 -1.2 1.6c-.4 .5 -1 .9 -1.6 1.2c-.7 .2 -1.3 .4 -2 .4H511.3c-.6 0 -1.3 -.2 -1.9 -.4c-.7 -.3 -1.2 -.7 -1.7 -1.2c-.5 -.4 -.9 -1 -1.1 -1.6c-.3 -.7 -.4 -1.3 -.4 -2V456c0 -.6 .1 -1.3 .4 -1.9c.2 -.7 .6 -1.2 1.1 -1.7c.5 -.5 1 -.9 1.7 -1.1c.6 -.3 1.3 -.4 1.9 -.4Z" class="g2_130"/>
<path d="M338.3 323.7h24.1c.7 0 1.3 .1 2 .4c.6 .3 1.1 .6 1.6 1.1c.5 .5 .9 1 1.1 1.7c.3 .6 .4 1.3 .4 2v24c0 .7 -.1 1.4 -.4 2c-.2 .6 -.6 1.2 -1.1 1.7c-.5 .4 -1 .8 -1.6 1.1c-.7 .2 -1.3 .4 -2 .4H338.3c-.7 0 -1.3 -.2 -2 -.4c-.6 -.3 -1.1 -.7 -1.6 -1.1c-.5 -.5 -.9 -1.1 -1.1 -1.7c-.3 -.6 -.4 -1.3 -.4 -2v-24c0 -.7 .1 -1.4 .4 -2c.2 -.7 .6 -1.2 1.1 -1.7c.5 -.5 1 -.8 1.6 -1.1c.7 -.3 1.3 -.4 2 -.4Z" class="g1_130"/>
<path d="M338.3 323.7h24.1c.7 0 1.3 .1 2 .4c.6 .3 1.1 .6 1.6 1.1c.5 .5 .9 1 1.1 1.7c.3 .6 .4 1.3 .4 2v24c0 .7 -.1 1.4 -.4 2c-.2 .6 -.6 1.2 -1.1 1.7c-.5 .4 -1 .8 -1.6 1.1c-.7 .2 -1.3 .4 -2 .4H338.3c-.7 0 -1.3 -.2 -2 -.4c-.6 -.3 -1.1 -.7 -1.6 -1.1c-.5 -.5 -.9 -1.1 -1.1 -1.7c-.3 -.6 -.4 -1.3 -.4 -2v-24c0 -.7 .1 -1.4 .4 -2c.2 -.7 .6 -1.2 1.1 -1.7c.5 -.5 1 -.8 1.6 -1.1c.7 -.3 1.3 -.4 2 -.4Z" class="g2_130"/>
<path d="M459.8 662.9h24c.7 0 1.4 .1 2 .4c.6 .2 1.2 .6 1.7 1.1c.5 .5 .8 1 1.1 1.6c.3 .7 .4 1.3 .4 2v24.1c0 .7 -.1 1.3 -.4 2c-.3 .6 -.6 1.1 -1.1 1.6c-.5 .5 -1.1 .9 -1.7 1.1c-.6 .3 -1.3 .4 -2 .4h-24c-.7 0 -1.4 -.1 -2 -.4c-.6 -.2 -1.2 -.6 -1.7 -1.1c-.5 -.5 -.8 -1 -1.1 -1.6c-.2 -.7 -.4 -1.3 -.4 -2V668c0 -.7 .2 -1.3 .4 -2c.3 -.6 .6 -1.1 1.1 -1.6c.5 -.5 1.1 -.9 1.7 -1.1c.6 -.3 1.3 -.4 2 -.4Z" class="g1_130"/>
<path d="M459.8 662.9h24c.7 0 1.4 .1 2 .4c.6 .2 1.2 .6 1.7 1.1c.5 .5 .8 1 1.1 1.6c.3 .7 .4 1.3 .4 2v24.1c0 .7 -.1 1.3 -.4 2c-.3 .6 -.6 1.1 -1.1 1.6c-.5 .5 -1.1 .9 -1.7 1.1c-.6 .3 -1.3 .4 -2 .4h-24c-.7 0 -1.4 -.1 -2 -.4c-.6 -.2 -1.2 -.6 -1.7 -1.1c-.5 -.5 -.8 -1 -1.1 -1.6c-.2 -.7 -.4 -1.3 -.4 -2V668c0 -.7 .2 -1.3 .4 -2c.3 -.6 .6 -1.1 1.1 -1.6c.5 -.5 1.1 -.9 1.7 -1.1c.6 -.3 1.3 -.4 2 -.4Z" class="g2_130"/>
<path d="M189.9 652.6H214c.7 0 1.3 .1 2 .3c.6 .3 1.2 .7 1.6 1.2c.5 .4 .9 1 1.2 1.6c.2 .7 .4 1.3 .4 2v24.1c0 .7 -.2 1.3 -.4 1.9c-.3 .7 -.7 1.2 -1.2 1.7c-.4 .5 -1 .9 -1.6 1.1c-.7 .3 -1.3 .4 -2 .4H189.9c-.7 0 -1.3 -.1 -1.9 -.4c-.7 -.2 -1.2 -.6 -1.7 -1.1c-.5 -.5 -.9 -1 -1.1 -1.7c-.3 -.6 -.4 -1.2 -.4 -1.9V657.7c0 -.7 .1 -1.3 .4 -2c.2 -.6 .6 -1.2 1.1 -1.6c.5 -.5 1 -.9 1.7 -1.2c.6 -.2 1.2 -.3 1.9 -.3Z" class="g1_130"/>
<path d="M189.9 652.6H214c.7 0 1.3 .1 2 .3c.6 .3 1.2 .7 1.6 1.2c.5 .4 .9 1 1.2 1.6c.2 .7 .4 1.3 .4 2v24.1c0 .7 -.2 1.3 -.4 1.9c-.3 .7 -.7 1.2 -1.2 1.7c-.4 .5 -1 .9 -1.6 1.1c-.7 .3 -1.3 .4 -2 .4H189.9c-.7 0 -1.3 -.1 -1.9 -.4c-.7 -.2 -1.2 -.6 -1.7 -1.1c-.5 -.5 -.9 -1 -1.1 -1.7c-.3 -.6 -.4 -1.2 -.4 -1.9V657.7c0 -.7 .1 -1.3 .4 -2c.2 -.6 .6 -1.2 1.1 -1.6c.5 -.5 1 -.9 1.7 -1.2c.6 -.2 1.2 -.3 1.9 -.3Z" class="g2_130"/>
<path d="M144.7 470.4h24c.7 0 1.4 .1 2 .4c.6 .2 1.2 .6 1.7 1.1c.5 .5 .8 1 1.1 1.6c.3 .7 .4 1.3 .4 2v24.1c0 .7 -.1 1.3 -.4 2c-.3 .6 -.6 1.1 -1.1 1.6c-.5 .5 -1.1 .9 -1.7 1.1c-.6 .3 -1.3 .4 -2 .4h-24c-.7 0 -1.4 -.1 -2 -.4c-.6 -.2 -1.2 -.6 -1.7 -1.1c-.5 -.5 -.8 -1 -1.1 -1.6c-.3 -.7 -.4 -1.3 -.4 -2V475.5c0 -.7 .1 -1.3 .4 -2c.3 -.6 .6 -1.1 1.1 -1.6c.5 -.5 1.1 -.9 1.7 -1.1c.6 -.3 1.3 -.4 2 -.4Z" class="g1_130"/>
<path d="M144.7 470.4h24c.7 0 1.4 .1 2 .4c.6 .2 1.2 .6 1.7 1.1c.5 .5 .8 1 1.1 1.6c.3 .7 .4 1.3 .4 2v24.1c0 .7 -.1 1.3 -.4 2c-.3 .6 -.6 1.1 -1.1 1.6c-.5 .5 -1.1 .9 -1.7 1.1c-.6 .3 -1.3 .4 -2 .4h-24c-.7 0 -1.4 -.1 -2 -.4c-.6 -.2 -1.2 -.6 -1.7 -1.1c-.5 -.5 -.8 -1 -1.1 -1.6c-.3 -.7 -.4 -1.3 -.4 -2V475.5c0 -.7 .1 -1.3 .4 -2c.3 -.6 .6 -1.1 1.1 -1.6c.5 -.5 1.1 -.9 1.7 -1.1c.6 -.3 1.3 -.4 2 -.4Z" class="g2_130"/>
<path d="M507.3 608.4c1.2 0 2.5 0 3.6 0l.1 1.2c-1.2 0 -2.4 0 -3.7 0v-1.2Zm7.2 -.1c1.1 0 2.3 -.1 3.4 -.1l.1 1.1c-1.1 .1 -2.3 .1 -3.5 .2v-1.2Zm6.8 -.4c1.1 0 2.2 -.1 3.3 -.2l.2 1.1c-1.1 .1 -2.3 .2 -3.4 .3l-.1 -1.2Zm6.6 -.6c1.2 -.1 2.4 -.3 3.5 -.4l.2 1.1c-1.2 .2 -2.4 .3 -3.6 .4l-.1 -1.1Zm7 -1c1.1 -.2 2.3 -.4 3.4 -.6l.2 1.1c-1.1 .2 -2.3 .4 -3.4 .6l-.2 -1.1Zm6.7 -1.3c1.1 -.3 2.1 -.5 3.2 -.8l.3 1.1c-1.1 .3 -2.2 .5 -3.3 .8l-.2 -1.1Zm6.5 -1.7c1.1 -.4 2.2 -.7 3.3 -1.1l.4 1.1c-1.1 .4 -2.3 .7 -3.4 1.1l-.3 -1.1Zm6.6 -2.3c1 -.4 2.1 -.8 3.1 -1.3l.4 1.1c-1 .4 -2.1 .9 -3.1 1.3l-.4 -1.1Zm6.1 -2.6c1 -.5 2 -1.1 3 -1.6l.6 1c-1 .5 -2.1 1.1 -3.1 1.6l-.5 -1Zm6 -3.4c1 -.6 2 -1.2 2.9 -1.8l.6 .9c-.9 .7 -1.9 1.3 -2.9 1.9l-.6 -1Zm5.6 -3.8c.9 -.7 1.7 -1.4 2.6 -2.2l.7 .9c-.8 .7 -1.7 1.5 -2.6 2.2l-.7 -.9Zm5.1 -4.5c.8 -.8 1.6 -1.6 2.3 -2.5l.9 .8c-.8 .9 -1.6 1.7 -2.4 2.5l-.8 -.8Zm4.5 -5.1c.7 -.8 1.4 -1.7 2.1 -2.7l.9 .7c-.7 .9 -1.4 1.9 -2.1 2.8l-.9 -.8Zm3.9 -5.5c.6 -.9 1.2 -1.9 1.7 -2.9l1 .5c-.6 1 -1.1 2 -1.7 3l-1 -.6Zm3.2 -6c.5 -1 1 -2.1 1.4 -3.2l1.1 .5c-.5 1.1 -.9 2.1 -1.4 3.2l-1.1 -.5Zm2.6 -6.3c.3 -1 .7 -2.1 1 -3.2l1.1 .4c-.3 1.1 -.7 2.1 -1 3.2l-1.1 -.4Zm1.9 -6.5c.2 -1.1 .5 -2.2 .7 -3.4l1.2 .2c-.3 1.2 -.5 2.4 -.8 3.5l-1.1 -.3Zm1.3 -6.8c.2 -1.1 .4 -2.1 .5 -3.2l1.1 .1c-.1 1.1 -.3 2.2 -.4 3.3l-1.2 -.2Zm.8 -6.6c.1 -1.1 .2 -2.3 .3 -3.4h1.1c-.1 1.2 -.1 2.4 -.2 3.5l-1.2 -.1Zm.4 -6.9c0 -.9 0 -1.8 0 -2.8v-.9h1.2v.9c0 1 0 1.9 -.1 2.8h-1.1Zm0 -7.2c0 -1.2 -.1 -2.4 -.1 -3.5l1.1 -.1c.1 1.2 .1 2.3 .1 3.5l-1.1 .1Zm-.3 -6.9c0 -1.2 -.1 -2.3 -.2 -3.4h1.1c.1 1 .2 2.2 .3 3.3l-1.2 .1Zm-.5 -6.7c-.1 -1.2 -.2 -2.4 -.4 -3.5l1.2 -.2c.1 1.2 .2 2.4 .4 3.6l-1.2 .1Zm-.8 -7c-.2 -1.1 -.4 -2.2 -.6 -3.3l1.2 -.2c.1 1.1 .3 2.2 .5 3.4l-1.1 .1Zm-1.2 -6.5c-.2 -1.2 -.5 -2.3 -.8 -3.4l1.2 -.3c.2 1.1 .5 2.3 .7 3.4l-1.1 .3Zm-1.7 -6.8c-.3 -1.1 -.6 -2.2 -.9 -3.3l1 -.3c.4 1 .7 2.1 1 3.3l-1.1 .3Zm-2 -6.3c-.5 -1.2 -.9 -2.2 -1.4 -3.3l1.1 -.4c.5 1 .9 2.1 1.3 3.3l-1 .4Zm-2.9 -6.4c-.5 -1 -1 -2 -1.6 -2.9l1 -.6c.6 1 1.1 2 1.7 3l-1.1 .5Zm-3.4 -5.7c-.6 -1 -1.3 -1.9 -2 -2.8l.8 -.7c.8 .9 1.5 1.8 2.2 2.8l-1 .7ZM579 472.2c-.7 -.8 -1.5 -1.6 -2.4 -2.3l.8 -.9c.8 .8 1.7 1.5 2.5 2.4l-.9 .8Zm-5 -4.5c-.9 -.6 -1.9 -1.3 -2.8 -1.8l.5 -1c1 .6 2 1.2 2.9 1.9l-.6 .9Zm-5.8 -3.4c-1 -.5 -2 -.9 -3.1 -1.3l.4 -1.1c1.1 .4 2.2 .8 3.2 1.3l-.5 1.1Zm-6.3 -2.4c-1.1 -.3 -2.2 -.6 -3.4 -.8l.3 -1.2c1.1 .3 2.3 .6 3.4 .9l-.3 1.1Zm-6.6 -1.4c-1.1 -.1 -2.2 -.2 -3.4 -.3L552 459c1.2 .1 2.3 .2 3.4 .4l-.1 1.1Zm-6.9 -.4h-.5v-1.2h.5v1.2Z" class="g1_130"/>
<path d="M541.8 459.5l8.1 -2.7l-2 2.7l2 2.6l-8.1 -2.6Z" class="g1_130"/>
<path d="M541.8 459.5l8.1 -2.7l-2 2.7l2 2.6l-8.1 -2.6Z" class="g2_130"/>
<path d="M519.9 536.2c1.2 0 2.4 0 3.6 0v1.1c-1.1 .1 -2.3 .1 -3.6 .1v-1.2Zm7 -.2c1.1 -.1 2.2 -.1 3.3 -.3l.1 1.2c-1.1 .1 -2.2 .2 -3.3 .3l-.1 -1.2Zm6.8 -.7c1.1 -.2 2.2 -.4 3.3 -.6l.2 1.1c-1.1 .2 -2.2 .4 -3.3 .6l-.2 -1.1Zm6.6 -1.4c1.1 -.3 2.2 -.7 3.3 -1.1l.3 1.1c-1 .4 -2.1 .8 -3.3 1.1l-.3 -1.1Zm6.3 -2.3c1.1 -.5 2.1 -1.1 3.1 -1.6l.5 1c-.9 .6 -2 1.1 -3.1 1.6l-.5 -1Zm5.8 -3.5c.9 -.7 1.7 -1.5 2.5 -2.3l.8 .8c-.8 .9 -1.7 1.7 -2.6 2.4l-.7 -.9Zm4.6 -4.8c.7 -.9 1.3 -1.9 1.8 -2.9l1 .6c-.5 1 -1.2 2 -1.8 3l-1 -.7Zm3.1 -5.9c.4 -1.1 .7 -2.2 .9 -3.3l1.1 .2c-.2 1.2 -.5 2.4 -.9 3.5l-1.1 -.4Zm1.4 -6.6c.2 -1.1 .2 -2.2 .3 -3.4h1.1c0 1.2 -.1 2.4 -.2 3.6l-1.2 -.2Zm.2 -7.2c0 -1.2 -.1 -2.4 -.1 -3.5l1.1 -.1c.1 1.2 .1 2.4 .2 3.6h-1.2Zm-.4 -6.8c-.1 -1.1 -.3 -2.1 -.4 -3.1l1.1 -.2c.2 1 .3 2.1 .4 3.1l-1.1 .2Zm-1.2 -6.7c-.2 -1.2 -.6 -2.3 -.9 -3.3l1.1 -.3c.3 1 .7 2.1 .9 3.3l-1.1 .3ZM558 484c-.6 -1.1 -1.2 -2.1 -1.9 -3l.8 -.7c.8 .9 1.5 2 2.1 3.1l-1 .6Zm-4.2 -5c-.9 -.6 -1.9 -1.1 -2.9 -1.4l.3 -1.1c1.1 .3 2.2 .8 3.2 1.5l-.6 1Z" class="g1_130"/>
<path d="M541.8 476.7l8.1 -2.7l-2 2.7l2 2.6l-8.1 -2.6Z" class="g1_130"/>
<path d="M541.8 476.7l8.1 -2.7l-2 2.7l2 2.6l-8.1 -2.6Z" class="g2_130"/>
<path clip-path="url(#c0_130)" d="M260.4 686.9c0 1.2 0 2.4 .1 3.6h-1.1c-.1 -1.1 -.1 -2.4 -.1 -3.6h1.1Zm.5 7c.1 1.1 .3 2.2 .5 3.3l-1.1 .2c-.2 -1.1 -.4 -2.2 -.6 -3.4l1.2 -.1Zm1.3 6.5c.4 1.1 .7 2.2 1.1 3.2l-1 .4c-.5 -1 -.8 -2.2 -1.2 -3.3l1.1 -.3Zm2.5 6.3c.5 1.1 1 2.1 1.6 3l-1 .6c-.6 -1 -1.1 -2 -1.6 -3.1l1 -.5Zm3.4 5.8c.7 .9 1.4 1.8 2.1 2.7l-.9 .7c-.7 -.9 -1.4 -1.8 -2.1 -2.7l.9 -.7Zm4.4 5.2c.8 .8 1.6 1.6 2.5 2.4l-.8 .8c-.9 -.8 -1.7 -1.6 -2.6 -2.4l.9 -.8Zm5 4.5c.9 .7 1.8 1.3 2.7 1.9l-.6 1c-1 -.7 -1.9 -1.3 -2.8 -2l.7 -.9Zm5.6 3.8c1 .6 2 1.2 3.1 1.7l-.6 1.1c-1 -.6 -2.1 -1.2 -3.1 -1.8l.6 -1Zm6.1 3.3c1 .5 2 .9 3 1.3l-.5 1.1c-1 -.4 -2 -.9 -3 -1.4l.5 -1Zm6.1 2.6c1.1 .5 2.1 .9 3.3 1.2l-.4 1.1c-1.1 -.4 -2.2 -.8 -3.3 -1.2l.4 -1.1Zm6.7 2.4c1 .3 2.1 .6 3.2 1l-.3 1.1c-1.1 -.4 -2.2 -.7 -3.3 -1l.4 -1.1Zm6.3 1.8c1.1 .3 2.2 .6 3.3 .8l-.3 1.1c-1.1 -.2 -2.2 -.5 -3.2 -.8l.2 -1.1Zm6.7 1.6c1.1 .2 2.3 .4 3.5 .7l-.2 1.1c-1.2 -.2 -2.4 -.5 -3.6 -.7l.3 -1.1Zm7 1.3c1.1 .2 2.2 .4 3.2 .5l-.1 1.2c-1.1 -.2 -2.2 -.4 -3.2 -.6L322 739Zm6.5 1c1.1 .1 2.2 .3 3.3 .4l-.1 1.2c-1.1 -.2 -2.3 -.3 -3.4 -.5l.2 -1.1Zm6.8 .8c1.1 .1 2.3 .3 3.5 .4l-.1 1.1c-1.2 -.1 -2.4 -.2 -3.6 -.3l.2 -1.2Zm7.1 .7c1.1 .1 2.2 .1 3.4 .2l-.1 1.2c-1.1 -.1 -2.3 -.2 -3.4 -.3l.1 -1.1Zm6.7 .4c1.1 .1 2.2 .2 3.3 .2l-.1 1.1c-1.1 0 -2.2 -.1 -3.3 -.1l.1 -1.2Zm6.7 .3c1.1 .1 2.2 .1 3.4 .2v1.1c-1.2 0 -2.3 -.1 -3.5 -.1l.1 -1.2Zm6.9 .2l3.6 .1v1.1h-3.6v-1.2Zm7.2 .1h3.6v1.1h-3.6v-1.1Zm7.2 0l3.5 -.1v1.2h-3.5v-1.1Zm7 -.2l3.4 -.1v1.2l-3.4 .1v-1.2Zm6.7 -.2l3.3 -.1v1.1l-3.3 .2v-1.2Zm6.7 -.3c1.2 0 2.4 -.1 3.6 -.2l.1 1.2c-1.2 0 -2.4 .1 -3.7 .2v-1.2Zm7.1 -.4c1.2 -.1 2.3 -.2 3.5 -.3l.1 1.1c-1.2 .1 -2.3 .2 -3.5 .3l-.1 -1.1Zm6.8 -.6c1.1 -.1 2.2 -.2 3.3 -.3l.1 1.1c-1 .1 -2.1 .2 -3.3 .4l-.1 -1.2Zm6.5 -.7c1.2 -.1 2.4 -.2 3.6 -.4l.2 1.1c-1.2 .2 -2.4 .3 -3.6 .5l-.2 -1.2Zm7.2 -.9c1.1 -.2 2.3 -.3 3.4 -.5l.2 1.1c-1.2 .2 -2.3 .4 -3.5 .6l-.1 -1.2Zm6.7 -1.1c1.1 -.2 2.2 -.4 3.2 -.6l.2 1.2c-1 .2 -2.1 .4 -3.2 .6l-.2 -1.2Zm6.5 -1.2c1.2 -.3 2.4 -.6 3.5 -.9l.3 1.2c-1.2 .2 -2.4 .5 -3.6 .8l-.2 -1.1Zm6.9 -1.7c1.1 -.3 2.2 -.6 3.3 -.9l.3 1.1c-1.1 .3 -2.2 .6 -3.3 .9l-.3 -1.1Zm6.3 -1.9c1.2 -.4 2.3 -.8 3.3 -1.2l.4 1.1c-1.1 .4 -2.2 .8 -3.3 1.2l-.4 -1.1Zm6.6 -2.5c1.1 -.5 2.1 -1 3.1 -1.4l.5 1c-1 .5 -2.1 1 -3.1 1.4l-.5 -1Zm5.9 -2.9c1.1 -.6 2.1 -1.2 3 -1.9l.6 1c-.9 .6 -2 1.3 -3 1.9l-.6 -1Zm5.8 -3.9c.9 -.7 1.7 -1.4 2.4 -2.1l.8 .8c-.7 .7 -1.6 1.5 -2.5 2.2l-.7 -.9Zm4.7 -4.6c.8 -.9 1.4 -1.8 2 -2.8l1 .6c-.6 1 -1.3 2 -2.1 2.9l-.9 -.7Zm3.5 -5.7c.4 -1 .8 -2.1 1.1 -3.1l1.1 .3c-.3 1.1 -.7 2.2 -1.1 3.2l-1.1 -.4Zm1.7 -6.4c.1 -.9 .1 -1.8 .1 -2.8H481c0 1 -.1 2 -.2 2.9l-1.1 -.1Z" class="g1_130"/>
<path d="M480.4 698.5l2.7 8l-2.7 -2l-2.7 2l2.7 -8Z" class="g1_130"/>
<path d="M480.4 698.5l2.7 8l-2.7 -2l-2.7 2l2.7 -8Z" class="g2_130"/>
<path d="M430 686.9c0 1.3 0 2.6 0 3.8h-1.1c0 -1.2 -.1 -2.5 -.1 -3.8H430Zm.2 7.4c.1 1.1 .2 2.2 .3 3.3l-1.1 .1c-.1 -1.1 -.2 -2.2 -.3 -3.4h1.1Zm.7 6.4c.2 1.2 .4 2.4 .7 3.5l-1.1 .3c-.3 -1.2 -.5 -2.4 -.7 -3.7l1.1 -.1Zm1.6 6.9c.4 1 .7 2 1.1 2.9l-1 .5c-.4 -1 -.8 -2 -1.2 -3.1l1.1 -.3Zm2.8 5.9c.6 1 1.3 1.8 2.1 2.6l-.8 .8c-.9 -.8 -1.6 -1.7 -2.3 -2.8l1 -.6Zm4.6 4.5c.9 .5 1.9 .9 3 1.2l-.3 1.1c-1.2 -.3 -2.3 -.7 -3.3 -1.3l.6 -1Zm6.4 1.6v0c1.3 0 2.5 -.1 3.6 -.2l.1 1.1c-1.1 .2 -2.4 .2 -3.7 .2v-1.1Zm6.7 -.8c1.2 -.3 2.2 -.7 3.2 -1.3l.5 1.1c-1 .5 -2.1 .9 -3.4 1.3l-.3 -1.1Zm5.8 -3.1c.7 -.8 1.4 -1.6 1.9 -2.6l1 .6c-.6 1.1 -1.3 2 -2.2 2.8l-.7 -.8Zm3.2 -5.6c.2 -1 .4 -2.1 .5 -3.2l1.2 .1c-.1 1.2 -.3 2.3 -.6 3.4l-1.1 -.3Z" class="g1_130"/>
<path d="M463.2 698.5l2.7 8l-2.7 -2l-2.7 2l2.7 -8Z" class="g1_130"/>
<path d="M463.2 698.5l2.7 8l-2.7 -2l-2.7 2l2.7 -8Z" class="g2_130"/>
<path d="M345.2 713.3c0 1.1 .2 2.2 .6 3.2l-1.1 .4c-.4 -1.2 -.7 -2.4 -.7 -3.6h1.2Zm2.2 5.9c.6 .8 1.4 1.6 2.3 2.3l-.7 .9c-1 -.8 -1.8 -1.6 -2.5 -2.5l.9 -.7Zm5.2 4.1c.9 .5 1.9 1 3 1.4l-.5 1.1c-1.1 -.5 -2.1 -1 -3.1 -1.5l.6 -1Zm6.2 2.6c1 .3 2.1 .7 3.3 1l-.3 1.1c-1.2 -.3 -2.3 -.7 -3.4 -1l.4 -1.1Zm6.5 1.7c1.1 .3 2.3 .5 3.5 .7l-.2 1.2c-1.2 -.3 -2.4 -.5 -3.6 -.7l.3 -1.2Zm6.8 1.3c1 .1 2.2 .3 3.3 .4l-.1 1.2c-1.2 -.2 -2.3 -.3 -3.4 -.5l.2 -1.1Zm6.8 .8c1.1 .2 2.3 .3 3.4 .4l-.1 1.1c-1.1 -.1 -2.3 -.2 -3.4 -.3l.1 -1.2Zm6.7 .6c1.2 .1 2.3 .2 3.5 .2l-.1 1.2c-1.2 -.1 -2.3 -.1 -3.4 -.2v-1.2Zm7.1 .4c1.1 .1 2.2 .1 3.3 .2V732c-1.2 0 -2.3 -.1 -3.4 -.1l.1 -1.2Zm6.6 .2c1.2 .1 2.3 .1 3.5 .1v1.2c-1.2 -.1 -2.4 -.1 -3.5 -.1v-1.2Zm7 .1H410v1.2h-3.7V731Zm7.2 0c1.2 0 2.3 -.1 3.5 -.1V732c-1.1 .1 -2.3 .1 -3.5 .1V731Zm6.8 -.2c1.1 -.1 2.2 -.1 3.3 -.2l.1 1.1c-1.1 .1 -2.2 .2 -3.3 .2l-.1 -1.1Zm6.9 -.5c1.2 -.1 2.3 -.2 3.4 -.3l.2 1.1c-1.2 .2 -2.3 .3 -3.5 .4l-.1 -1.2Zm6.7 -.7c1.2 -.1 2.3 -.3 3.4 -.4l.2 1.1c-1.1 .2 -2.3 .3 -3.4 .5l-.2 -1.2Zm6.9 -1c1.1 -.2 2.2 -.5 3.3 -.7l.3 1.1c-1.1 .3 -2.2 .5 -3.4 .7l-.2 -1.1Zm6.5 -1.5c1.2 -.3 2.3 -.6 3.4 -1l.4 1.1c-1.1 .4 -2.3 .7 -3.5 1l-.3 -1.1Zm6.6 -2.1c1.1 -.4 2.1 -.8 3.1 -1.3l.5 1.1c-1 .4 -2.1 .9 -3.2 1.3l-.4 -1.1Zm6.2 -2.8c.9 -.6 1.8 -1.2 2.7 -1.8l.7 .9c-.9 .7 -1.9 1.3 -2.9 1.8l-.5 -.9Zm5.3 -4c.8 -.8 1.6 -1.6 2.2 -2.5l.9 .7c-.7 .9 -1.4 1.8 -2.3 2.6l-.8 -.8Zm4 -5.3c.5 -1 .8 -2 1.1 -3.1l1.1 .3c-.3 1.2 -.7 2.3 -1.2 3.3l-1 -.5Zm1.7 -6.3c.1 -.7 .1 -1.4 .1 -2.1h1.2c0 .8 -.1 1.5 -.1 2.2l-1.2 -.1Z" class="g1_130"/>
<path d="M471.8 698.5l2.7 8l-2.7 -2l-2.7 2l2.7 -8Z" class="g1_130"/>
<path d="M471.8 698.5l2.7 8l-2.7 -2l-2.7 2l2.7 -8Z" class="g2_130"/>
</g>
</svg>