<?xml version="1.0" encoding="UTF-8" standalone="no"?>
<!DOCTYPE svg PUBLIC "-//W3C//DTD SVG 1.1//EN"
"http://www.w3.org/Graphics/SVG/1.1/DTD/svg11.dtd">
<svg viewBox="0 0 714 1017" version="1.1" xmlns="http://www.w3.org/2000/svg" xmlns:xlink="http://www.w3.org/1999/xlink">
<defs>
<clipPath id="c0_129"><path d="M92.9 384.6V177.2H599.4V384.6Z"/></clipPath>
<clipPath id="c1_129"><path d="M92.9 385.1V175.8H600.1V385.1Z"/></clipPath>
<style type="text/css"><![CDATA[
.g0_129{
fill: #FFF;
}
.g1_129{
fill: none;
stroke: #000;
stroke-width: 1.145;
stroke-miterlimit: 10;
}
.g2_129{
fill: none;
stroke: #000;
stroke-width: 2.291;
stroke-miterlimit: 10;
}
.g3_129{
fill: #000;
}
]]></style>
</defs>
<path d="M0 1017.7H717.2V-3.7H0V1017.7Z" class="g0_129"/>
<g clip-path="url(#c1_129)">
<path clip-path="url(#c0_129)" d="M92.9 177.2H599.4V384.6H92.9V177.2Z" class="g0_129"/>
<path d="M368.8 177.8H506v68.7H368.8V177.8Zm-183.3 0H322.6v68.7H185.5V177.8Zm-92 137.5H230.6V384H93.5V315.3Zm182.5 0H413.2V384H276V315.3Zm184.5 0H597.6V384H460.5V315.3Z" class="g1_129"/>
<path d="M473.9 239.7V258c0 7.6 3.8 11.5 11.5 11.5H536c7.6 0 11.5 3.8 11.4 11.4v30.7" class="g2_129"/>
<path d="M547.4 318.5l-3 -9.2l3 2.3l3.1 -2.3l-3.1 9.2Z" class="g3_129"/>
<path d="M547.4 318.5l-3 -9.2l3 2.3l3.1 -2.3l-3.1 9.2Z" class="g2_129"/>
<path d="M437.6 239.7v41.2c0 7.7 -3.8 11.5 -11.5 11.5H192.4c-7.7 0 -11.5 3.5 -11.5 10.7v10.6" class="g1_129"/>
<path d="M180.9 319.7l-2.7 -8l2.7 2l2.7 -2l-2.7 8Z" class="g3_129"/>
<path d="M180.9 319.7l-2.7 -8l2.7 2l2.7 -2l-2.7 8Z" class="g1_129"/>
<path d="M253.5 239.7l-.1 29.8c0 7.6 3.9 11.4 11.5 11.4H433m9.2 0h57.1c7.7 0 11.5 3.8 11.5 11.5v19.2" class="g2_129"/>
<path d="M510.7 318.5l-3 -9.2l3.1 2.3l3 -2.3l-3.1 9.2Z" class="g3_129"/>
<path d="M510.7 318.5l-3 -9.2l3.1 2.3l3 -2.3l-3.1 9.2Z" class="g2_129"/>
<path d="M292.4 239.7V258c0 7.6 3.8 11.5 11.5 11.5h48.8c7.6 0 11.4 1.3 11.4 4v4m0 6.9v4.5m0 6.9v17.9" class="g1_129"/>
<path d="M364.1 319.7l-2.7 -8l2.7 2l2.7 -2l-2.7 8Z" class="g3_129"/>
<path d="M364.1 319.7l-2.7 -8l2.7 2l2.7 -2l-2.7 8ZM205.1 205.3h21.1c.6 0 1.2 .1 1.8 .3c.5 .3 1 .6 1.5 1c.4 .4 .7 .9 .9 1.5c.3 .5 .4 1.1 .4 1.7v25.3c0 .6 -.1 1.2 -.4 1.8c-.2 .5 -.5 1 -.9 1.4c-.5 .5 -1 .8 -1.5 1c-.6 .3 -1.2 .4 -1.8 .4H205.1c-.6 0 -1.2 -.1 -1.7 -.4c-.6 -.2 -1.1 -.5 -1.5 -1c-.4 -.4 -.8 -.9 -1 -1.4c-.2 -.6 -.3 -1.2 -.3 -1.8V209.8c0 -.6 .1 -1.2 .3 -1.7c.2 -.6 .6 -1.1 1 -1.5c.4 -.4 .9 -.7 1.5 -1c.5 -.2 1.1 -.3 1.7 -.3Zm37.8 0h21.2c.6 0 1.1 .1 1.7 .3c.6 .3 1 .6 1.5 1c.4 .4 .7 .9 1 1.5c.2 .5 .3 1.1 .3 1.7v25.3c0 .6 -.1 1.2 -.3 1.8c-.3 .5 -.6 1 -1 1.4c-.5 .5 -.9 .8 -1.5 1c-.6 .3 -1.1 .4 -1.7 .4H242.9c-.6 0 -1.2 -.1 -1.7 -.4c-.6 -.2 -1.1 -.5 -1.5 -1c-.4 -.4 -.8 -.9 -1 -1.4c-.2 -.6 -.3 -1.2 -.3 -1.8V209.8c0 -.6 .1 -1.2 .3 -1.7c.2 -.6 .6 -1.1 1 -1.5c.4 -.4 .9 -.7 1.5 -1c.5 -.2 1.1 -.3 1.7 -.3Zm39 0H303c.6 0 1.2 .1 1.8 .3c.5 .3 1 .6 1.4 1c.5 .4 .8 .9 1 1.5c.2 .5 .4 1.1 .4 1.7v25.3c0 .6 -.2 1.2 -.4 1.8c-.2 .5 -.5 1 -1 1.4c-.4 .5 -.9 .8 -1.4 1c-.6 .3 -1.2 .4 -1.8 .4H281.9c-.6 0 -1.2 -.1 -1.8 -.4c-.5 -.2 -1 -.5 -1.4 -1c-.5 -.4 -.8 -.9 -1 -1.4c-.3 -.6 -.4 -1.2 -.4 -1.8V209.8c0 -.6 .1 -1.2 .4 -1.7c.2 -.6 .5 -1.1 1 -1.5c.4 -.4 .9 -.7 1.4 -1c.6 -.2 1.2 -.3 1.8 -.3Zm108.5 0h21.1c.6 0 1.2 .1 1.8 .3c.5 .3 1 .6 1.4 1c.5 .4 .8 .9 1 1.5c.3 .5 .4 1.1 .4 1.7v25.3c0 .6 -.1 1.2 -.4 1.8c-.2 .5 -.5 1 -1 1.4c-.4 .5 -.9 .8 -1.4 1c-.6 .3 -1.2 .4 -1.8 .4H390.4c-.6 0 -1.2 -.1 -1.7 -.4c-.6 -.2 -1.1 -.5 -1.5 -1c-.4 -.4 -.8 -.9 -1 -1.4c-.2 -.6 -.3 -1.2 -.3 -1.8V209.8c0 -.6 .1 -1.2 .3 -1.7c.2 -.6 .6 -1.1 1 -1.5c.4 -.4 .9 -.7 1.5 -1c.5 -.2 1.1 -.3 1.7 -.3Zm36.7 0h21.1c.6 0 1.2 .1 1.7 .3c.6 .3 1.1 .6 1.5 1c.4 .4 .8 .9 1 1.5c.2 .5 .3 1.1 .3 1.7v25.3c0 .6 -.1 1.2 -.3 1.8c-.2 .5 -.6 1 -1 1.4c-.4 .5 -.9 .8 -1.5 1c-.5 .3 -1.1 .4 -1.7 .4H427.1c-.6 0 -1.2 -.1 -1.8 -.4c-.5 -.2 -1 -.5 -1.5 -1c-.4 -.4 -.7 -.9 -.9 -1.4c-.3 -.6 -.4 -1.2 -.4 -1.8V209.8c0 -.6 .1 -1.2 .4 -1.7c.2 -.6 .5 -1.1 .9 -1.5c.5 -.4 1 -.7 1.5 -1c.6 -.2 1.2 -.3 1.8 -.3Zm36.2 0h21.1c.6 0 1.2 .1 1.8 .3c.5 .3 1 .6 1.4 1c.5 .4 .8 .9 1 1.5c.3 .5 .4 1.1 .4 1.7v25.3c0 .6 -.1 1.2 -.4 1.8c-.2 .5 -.5 1 -1 1.4c-.4 .5 -.9 .8 -1.4 1c-.6 .3 -1.2 .4 -1.8 .4H463.3c-.6 0 -1.2 -.1 -1.8 -.4c-.5 -.2 -1 -.5 -1.4 -1c-.4 -.4 -.8 -.9 -1 -1.4c-.2 -.6 -.4 -1.2 -.4 -1.8V209.8c0 -.6 .2 -1.2 .4 -1.7c.2 -.6 .6 -1.1 1 -1.5c.4 -.4 .9 -.7 1.4 -1c.6 -.2 1.2 -.3 1.8 -.3ZM132.6 321h21.2c.6 0 1.2 .1 1.7 .4c.6 .2 1.1 .5 1.5 1c.4 .4 .7 .9 1 1.4c.2 .6 .3 1.2 .3 1.8v25.3c0 .6 -.1 1.1 -.3 1.7c-.3 .6 -.6 1 -1 1.5c-.4 .4 -.9 .7 -1.5 1c-.5 .2 -1.1 .3 -1.7 .3H132.6c-.6 0 -1.1 -.1 -1.7 -.3c-.6 -.3 -1 -.6 -1.5 -1c-.4 -.5 -.7 -.9 -1 -1.5c-.2 -.6 -.3 -1.1 -.3 -1.7V325.6c0 -.6 .1 -1.2 .3 -1.8c.3 -.5 .6 -1 1 -1.4c.5 -.5 .9 -.8 1.5 -1c.6 -.3 1.1 -.4 1.7 -.4Zm37.7 0h21.2c.6 0 1.1 .1 1.7 .4c.6 .2 1 .5 1.5 1c.4 .4 .7 .9 1 1.4c.2 .6 .3 1.2 .3 1.8v25.3c0 .6 -.1 1.1 -.3 1.7c-.3 .6 -.6 1 -1 1.5c-.5 .4 -.9 .7 -1.5 1c-.6 .2 -1.1 .3 -1.7 .3H170.3c-.6 0 -1.2 -.1 -1.7 -.3c-.6 -.3 -1.1 -.6 -1.5 -1c-.4 -.5 -.8 -.9 -1 -1.5c-.2 -.6 -.3 -1.1 -.3 -1.7V325.6c0 -.6 .1 -1.2 .3 -1.8c.2 -.5 .6 -1 1 -1.4c.4 -.5 .9 -.8 1.5 -1c.5 -.3 1.1 -.4 1.7 -.4Zm144.2 0h21.2c.6 0 1.2 .1 1.7 .4c.6 .2 1.1 .5 1.5 1c.4 .4 .8 .9 1 1.4c.2 .6 .3 1.2 .3 1.8v25.3c0 .6 -.1 1.1 -.3 1.7c-.2 .6 -.6 1 -1 1.5c-.4 .4 -.9 .7 -1.5 1c-.5 .2 -1.1 .3 -1.7 .3H314.5c-.6 0 -1.1 -.1 -1.7 -.3c-.5 -.3 -1 -.6 -1.5 -1c-.4 -.5 -.7 -.9 -.9 -1.5c-.3 -.6 -.4 -1.1 -.4 -1.7V325.6c0 -.6 .1 -1.2 .4 -1.8c.2 -.5 .5 -1 .9 -1.4c.5 -.5 1 -.8 1.5 -1c.6 -.3 1.1 -.4 1.7 -.4Zm39 0h21.2c.6 0 1.1 .1 1.7 .4c.5 .2 1 .5 1.5 1c.4 .4 .7 .9 .9 1.4c.3 .6 .4 1.2 .4 1.8v25.3c0 .6 -.1 1.1 -.4 1.7c-.2 .6 -.5 1 -.9 1.5c-.5 .4 -1 .7 -1.5 1c-.6 .2 -1.1 .3 -1.7 .3H353.5c-.6 0 -1.2 -.1 -1.7 -.3c-.6 -.3 -1.1 -.6 -1.5 -1c-.4 -.5 -.8 -.9 -1 -1.5c-.2 -.6 -.3 -1.1 -.3 -1.7V325.6c0 -.6 .1 -1.2 .3 -1.8c.2 -.5 .6 -1 1 -1.4c.4 -.5 .9 -.8 1.5 -1c.5 -.3 1.1 -.4 1.7 -.4Zm146.7 0h21.1c.6 0 1.2 .1 1.8 .4c.5 .2 1 .5 1.4 1c.5 .4 .8 .9 1 1.4c.2 .6 .4 1.2 .4 1.8v25.3c0 .6 -.2 1.1 -.4 1.7c-.2 .6 -.5 1 -1 1.5c-.4 .4 -.9 .7 -1.4 1c-.6 .2 -1.2 .3 -1.8 .3H500.2c-.6 0 -1.2 -.1 -1.8 -.3c-.5 -.3 -1 -.6 -1.4 -1c-.5 -.5 -.8 -.9 -1 -1.5c-.3 -.6 -.4 -1.1 -.4 -1.7V325.6c0 -.6 .1 -1.2 .4 -1.8c.2 -.5 .5 -1 1 -1.4c.4 -.5 .9 -.8 1.4 -1c.6 -.3 1.2 -.4 1.8 -.4Zm36.6 0H558c.6 0 1.2 .1 1.7 .4c.6 .2 1.1 .5 1.5 1c.4 .4 .8 .9 1 1.4c.2 .6 .3 1.2 .3 1.8v25.3c0 .6 -.1 1.1 -.3 1.7c-.2 .6 -.6 1 -1 1.5c-.4 .4 -.9 .7 -1.5 1c-.5 .2 -1.1 .3 -1.7 .3H536.8c-.6 0 -1.1 -.1 -1.7 -.3c-.6 -.3 -1 -.6 -1.5 -1c-.4 -.5 -.7 -.9 -1 -1.5c-.2 -.6 -.3 -1.1 -.3 -1.7V325.6c0 -.6 .1 -1.2 .3 -1.8c.3 -.5 .6 -1 1 -1.4c.5 -.5 .9 -.8 1.5 -1c.6 -.3 1.1 -.4 1.7 -.4Z" class="g1_129"/>
</g>
</svg>