<?xml version="1.0" encoding="UTF-8" standalone="no"?>
<!DOCTYPE svg PUBLIC "-//W3C//DTD SVG 1.1//EN"
"http://www.w3.org/Graphics/SVG/1.1/DTD/svg11.dtd">
<svg viewBox="0 0 714 1017" version="1.1" xmlns="http://www.w3.org/2000/svg" xmlns:xlink="http://www.w3.org/1999/xlink">
<defs>
<clipPath id="c0_441"><path d="M70.7 269.4V109.2H621.9V269.4Z"/></clipPath>
<clipPath id="c1_441"><path d="M70.7 269.4V109H622.3V269.4Z"/></clipPath>
<style type="text/css"><![CDATA[
.g0_441{
fill: #FFF;
}
.g1_441{
fill: none;
stroke: #000;
stroke-width: 1.145;
stroke-miterlimit: 10;
}
.g2_441{
fill: none;
stroke: #000;
stroke-width: 0.608;
stroke-miterlimit: 10;
}
]]></style>
</defs>
<path d="M0 1017.7H717.2V-3.7H0V1017.7Z" class="g0_441"/>
<g clip-path="url(#c1_441)">
<path clip-path="url(#c0_441)" d="M70.7 109.2H621.9V269.6H70.7V109.2Z" class="g0_441"/>
<path d="M392.1 132.1c0 .7 -.1 1.4 -.2 2.2c-.2 .7 -.4 1.4 -.8 2.1c-.3 .7 -.7 1.5 -1.2 2.2c-.5 .7 -1 1.3 -1.7 2c-.6 .7 -1.4 1.4 -2.2 2c-.8 .7 -1.6 1.3 -2.6 1.9c-.9 .6 -1.9 1.2 -3 1.8c-1 .5 -2.2 1.1 -3.4 1.6c-1.2 .5 -2.4 1 -3.7 1.5c-1.3 .4 -2.7 .9 -4.1 1.3c-1.4 .4 -2.8 .7 -4.3 1.1c-1.5 .3 -3 .7 -4.6 .9c-1.6 .3 -3.1 .6 -4.8 .8c-1.6 .2 -3.2 .4 -4.9 .5c-1.6 .2 -3.3 .3 -5 .3c-1.7 .1 -3.3 .1 -5 .1c-1.7 0 -3.4 0 -5.1 -.1c-1.7 0 -3.3 -.1 -5 -.3c-1.6 -.1 -3.3 -.3 -4.9 -.5c-1.6 -.2 -3.2 -.5 -4.8 -.8c-1.5 -.2 -3 -.6 -4.5 -.9c-1.5 -.4 -3 -.7 -4.4 -1.1c-1.4 -.4 -2.7 -.9 -4 -1.3c-1.3 -.5 -2.6 -1 -3.8 -1.5c-1.2 -.5 -2.3 -1.1 -3.4 -1.6c-1.1 -.6 -2.1 -1.2 -3 -1.8c-.9 -.6 -1.8 -1.2 -2.6 -1.9c-.8 -.6 -1.5 -1.3 -2.2 -2c-.6 -.7 -1.2 -1.3 -1.7 -2c-.5 -.7 -.9 -1.5 -1.2 -2.2c-.3 -.7 -.6 -1.4 -.7 -2.1c-.2 -.8 -.3 -1.5 -.3 -2.2c0 -.8 .1 -1.5 .3 -2.2c.1 -.8 .4 -1.5 .7 -2.2c.3 -.7 .7 -1.4 1.2 -2.1c.5 -.7 1.1 -1.4 1.7 -2.1c.7 -.7 1.4 -1.3 2.2 -2c.8 -.6 1.7 -1.3 2.6 -1.9c.9 -.6 1.9 -1.2 3 -1.7c1.1 -.6 2.2 -1.1 3.4 -1.7c1.2 -.5 2.5 -1 3.8 -1.4c1.3 -.5 2.6 -.9 4 -1.3c1.4 -.5 2.9 -.8 4.4 -1.2c1.5 -.3 3 -.6 4.5 -.9c1.6 -.3 3.2 -.5 4.8 -.8c1.6 -.2 3.3 -.3 4.9 -.5c1.7 -.1 3.3 -.2 5 -.3c1.7 -.1 3.4 -.1 5.1 -.1c1.7 0 3.3 0 5 .1c1.7 .1 3.4 .2 5 .3c1.7 .2 3.3 .3 4.9 .5c1.7 .3 3.2 .5 4.8 .8c1.6 .3 3.1 .6 4.6 .9c1.5 .4 2.9 .7 4.3 1.2c1.4 .4 2.8 .8 4.1 1.3c1.3 .4 2.5 .9 3.7 1.4c1.2 .6 2.4 1.1 3.4 1.7c1.1 .5 2.1 1.1 3 1.7c1 .6 1.8 1.3 2.6 1.9c.8 .7 1.6 1.3 2.2 2c.7 .7 1.2 1.4 1.7 2.1c.5 .7 .9 1.4 1.2 2.1c.4 .7 .6 1.4 .8 2.2c.1 .7 .2 1.4 .2 2.2Z" class="g0_441"/>
<path d="M392.1 132.1c0 .7 -.1 1.4 -.2 2.2c-.2 .7 -.4 1.4 -.8 2.1c-.3 .7 -.7 1.5 -1.2 2.2c-.5 .7 -1 1.3 -1.7 2c-.6 .7 -1.4 1.4 -2.2 2c-.8 .7 -1.6 1.3 -2.6 1.9c-.9 .6 -1.9 1.2 -3 1.8c-1 .5 -2.2 1.1 -3.4 1.6c-1.2 .5 -2.4 1 -3.7 1.5c-1.3 .4 -2.7 .9 -4.1 1.3c-1.4 .4 -2.8 .7 -4.3 1.1c-1.5 .3 -3 .7 -4.6 .9c-1.6 .3 -3.1 .6 -4.8 .8c-1.6 .2 -3.2 .4 -4.9 .5c-1.6 .2 -3.3 .3 -5 .3c-1.7 .1 -3.3 .1 -5 .1c-1.7 0 -3.4 0 -5.1 -.1c-1.7 0 -3.3 -.1 -5 -.3c-1.6 -.1 -3.3 -.3 -4.9 -.5c-1.6 -.2 -3.2 -.5 -4.8 -.8c-1.5 -.2 -3 -.6 -4.5 -.9c-1.5 -.4 -3 -.7 -4.4 -1.1c-1.4 -.4 -2.7 -.9 -4 -1.3c-1.3 -.5 -2.6 -1 -3.8 -1.5c-1.2 -.5 -2.3 -1.1 -3.4 -1.6c-1.1 -.6 -2.1 -1.2 -3 -1.8c-.9 -.6 -1.8 -1.2 -2.6 -1.9c-.8 -.6 -1.5 -1.3 -2.2 -2c-.6 -.7 -1.2 -1.3 -1.7 -2c-.5 -.7 -.9 -1.5 -1.2 -2.2c-.3 -.7 -.6 -1.4 -.7 -2.1c-.2 -.8 -.3 -1.5 -.3 -2.2c0 -.8 .1 -1.5 .3 -2.2c.1 -.8 .4 -1.5 .7 -2.2c.3 -.7 .7 -1.4 1.2 -2.1c.5 -.7 1.1 -1.4 1.7 -2.1c.7 -.7 1.4 -1.3 2.2 -2c.8 -.6 1.7 -1.3 2.6 -1.9c.9 -.6 1.9 -1.2 3 -1.7c1.1 -.6 2.2 -1.1 3.4 -1.7c1.2 -.5 2.5 -1 3.8 -1.4c1.3 -.5 2.6 -.9 4 -1.3c1.4 -.5 2.9 -.8 4.4 -1.2c1.5 -.3 3 -.6 4.5 -.9c1.6 -.3 3.2 -.5 4.8 -.8c1.6 -.2 3.3 -.3 4.9 -.5c1.7 -.1 3.3 -.2 5 -.3c1.7 -.1 3.4 -.1 5.1 -.1c1.7 0 3.3 0 5 .1c1.7 .1 3.4 .2 5 .3c1.7 .2 3.3 .3 4.9 .5c1.7 .3 3.2 .5 4.8 .8c1.6 .3 3.1 .6 4.6 .9c1.5 .4 2.9 .7 4.3 1.2c1.4 .4 2.8 .8 4.1 1.3c1.3 .4 2.5 .9 3.7 1.4c1.2 .6 2.4 1.1 3.4 1.7c1.1 .5 2.1 1.1 3 1.7c1 .6 1.8 1.3 2.6 1.9c.8 .7 1.6 1.3 2.2 2c.7 .7 1.2 1.4 1.7 2.1c.5 .7 .9 1.4 1.2 2.1c.4 .7 .6 1.4 .8 2.2c.1 .7 .2 1.4 .2 2.2Z" class="g1_441"/>
<path d="M231.7 179.1c0 .8 -.1 1.6 -.2 2.4c-.2 .8 -.4 1.6 -.7 2.4c-.3 .8 -.6 1.6 -1.1 2.4c-.4 .7 -.9 1.5 -1.5 2.2c-.5 .8 -1.2 1.5 -1.9 2.2c-.7 .7 -1.5 1.4 -2.3 2.1c-.8 .7 -1.7 1.3 -2.7 2c-.9 .6 -1.9 1.2 -3 1.8c-1.1 .5 -2.2 1.1 -3.3 1.6c-1.2 .5 -2.4 1 -3.7 1.4c-1.2 .5 -2.5 .9 -3.8 1.3c-1.3 .3 -2.7 .7 -4.1 1c-1.4 .3 -2.8 .6 -4.2 .8c-1.5 .2 -2.9 .4 -4.4 .6c-1.5 .2 -2.9 .3 -4.4 .4c-1.5 0 -3 .1 -4.5 .1c-1.5 0 -3 -.1 -4.5 -.1c-1.5 -.1 -3 -.2 -4.5 -.4c-1.4 -.2 -2.9 -.4 -4.3 -.6c-1.5 -.2 -2.9 -.5 -4.3 -.8c-1.3 -.3 -2.7 -.7 -4 -1c-1.3 -.4 -2.6 -.8 -3.9 -1.3c-1.2 -.4 -2.4 -.9 -3.6 -1.4c-1.2 -.5 -2.3 -1.1 -3.3 -1.6c-1.1 -.6 -2.1 -1.2 -3 -1.8c-1 -.7 -1.9 -1.3 -2.7 -2c-.9 -.7 -1.6 -1.4 -2.3 -2.1c-.7 -.7 -1.4 -1.4 -2 -2.2c-.5 -.7 -1 -1.5 -1.5 -2.2c-.4 -.8 -.8 -1.6 -1.1 -2.4c-.3 -.8 -.5 -1.6 -.6 -2.4c-.2 -.8 -.3 -1.6 -.3 -2.4c0 -.8 .1 -1.6 .3 -2.4c.1 -.8 .3 -1.6 .6 -2.4c.3 -.8 .7 -1.6 1.1 -2.4c.5 -.7 1 -1.5 1.5 -2.2c.6 -.8 1.3 -1.5 2 -2.2c.7 -.7 1.4 -1.4 2.3 -2.1c.8 -.7 1.7 -1.3 2.7 -1.9c.9 -.7 1.9 -1.3 3 -1.8c1 -.6 2.1 -1.2 3.3 -1.7c1.2 -.5 2.4 -1 3.6 -1.4c1.3 -.5 2.6 -.9 3.9 -1.2c1.3 -.4 2.7 -.8 4 -1.1c1.4 -.3 2.8 -.6 4.3 -.8c1.4 -.2 2.9 -.4 4.3 -.6c1.5 -.1 3 -.3 4.5 -.3c1.5 -.1 3 -.2 4.5 -.2c1.5 0 3 .1 4.5 .2c1.5 0 2.9 .2 4.4 .3c1.5 .2 2.9 .4 4.4 .6c1.4 .2 2.8 .5 4.2 .8c1.4 .3 2.8 .7 4.1 1.1c1.3 .3 2.6 .7 3.8 1.2c1.3 .4 2.5 .9 3.7 1.4c1.1 .5 2.2 1.1 3.3 1.7c1.1 .5 2.1 1.1 3 1.8c1 .6 1.9 1.2 2.7 1.9c.8 .7 1.6 1.4 2.3 2.1c.7 .7 1.4 1.4 1.9 2.2c.6 .7 1.1 1.5 1.5 2.2c.5 .8 .8 1.6 1.1 2.4c.3 .8 .5 1.6 .7 2.4c.1 .8 .2 1.6 .2 2.4Z" class="g0_441"/>
<path d="M231.7 179.1c0 .8 -.1 1.6 -.2 2.4c-.2 .8 -.4 1.6 -.7 2.4c-.3 .8 -.6 1.6 -1.1 2.4c-.4 .7 -.9 1.5 -1.5 2.2c-.5 .8 -1.2 1.5 -1.9 2.2c-.7 .7 -1.5 1.4 -2.3 2.1c-.8 .7 -1.7 1.3 -2.7 2c-.9 .6 -1.9 1.2 -3 1.8c-1.1 .5 -2.2 1.1 -3.3 1.6c-1.2 .5 -2.4 1 -3.7 1.4c-1.2 .5 -2.5 .9 -3.8 1.3c-1.3 .3 -2.7 .7 -4.1 1c-1.4 .3 -2.8 .6 -4.2 .8c-1.5 .2 -2.9 .4 -4.4 .6c-1.5 .2 -2.9 .3 -4.4 .4c-1.5 0 -3 .1 -4.5 .1c-1.5 0 -3 -.1 -4.5 -.1c-1.5 -.1 -3 -.2 -4.5 -.4c-1.4 -.2 -2.9 -.4 -4.3 -.6c-1.5 -.2 -2.9 -.5 -4.3 -.8c-1.3 -.3 -2.7 -.7 -4 -1c-1.3 -.4 -2.6 -.8 -3.9 -1.3c-1.2 -.4 -2.4 -.9 -3.6 -1.4c-1.2 -.5 -2.3 -1.1 -3.3 -1.6c-1.1 -.6 -2.1 -1.2 -3 -1.8c-1 -.7 -1.9 -1.3 -2.7 -2c-.9 -.7 -1.6 -1.4 -2.3 -2.1c-.7 -.7 -1.4 -1.4 -2 -2.2c-.5 -.7 -1 -1.5 -1.5 -2.2c-.4 -.8 -.8 -1.6 -1.1 -2.4c-.3 -.8 -.5 -1.6 -.6 -2.4c-.2 -.8 -.3 -1.6 -.3 -2.4c0 -.8 .1 -1.6 .3 -2.4c.1 -.8 .3 -1.6 .6 -2.4c.3 -.8 .7 -1.6 1.1 -2.4c.5 -.7 1 -1.5 1.5 -2.2c.6 -.8 1.3 -1.5 2 -2.2c.7 -.7 1.4 -1.4 2.3 -2.1c.8 -.7 1.7 -1.3 2.7 -1.9c.9 -.7 1.9 -1.3 3 -1.8c1 -.6 2.1 -1.2 3.3 -1.7c1.2 -.5 2.4 -1 3.6 -1.4c1.3 -.5 2.6 -.9 3.9 -1.2c1.3 -.4 2.7 -.8 4 -1.1c1.4 -.3 2.8 -.6 4.3 -.8c1.4 -.2 2.9 -.4 4.3 -.6c1.5 -.1 3 -.3 4.5 -.3c1.5 -.1 3 -.2 4.5 -.2c1.5 0 3 .1 4.5 .2c1.5 0 2.9 .2 4.4 .3c1.5 .2 2.9 .4 4.4 .6c1.4 .2 2.8 .5 4.2 .8c1.4 .3 2.8 .7 4.1 1.1c1.3 .3 2.6 .7 3.8 1.2c1.3 .4 2.5 .9 3.7 1.4c1.1 .5 2.2 1.1 3.3 1.7c1.1 .5 2.1 1.1 3 1.8c1 .6 1.9 1.2 2.7 1.9c.8 .7 1.6 1.4 2.3 2.1c.7 .7 1.4 1.4 1.9 2.2c.6 .7 1.1 1.5 1.5 2.2c.5 .8 .8 1.6 1.1 2.4c.3 .8 .5 1.6 .7 2.4c.1 .8 .2 1.6 .2 2.4Z" class="g1_441"/>
<path d="M535.4 179.1c0 .8 -.1 1.6 -.3 2.4c-.2 .8 -.4 1.6 -.7 2.4c-.4 .8 -.8 1.6 -1.3 2.4c-.5 .7 -1 1.5 -1.7 2.2c-.6 .8 -1.3 1.5 -2.1 2.2c-.8 .7 -1.7 1.4 -2.6 2.1c-1 .7 -2 1.3 -3 2c-1.1 .6 -2.2 1.2 -3.4 1.8c-1.2 .5 -2.5 1.1 -3.8 1.6c-1.3 .5 -2.7 1 -4.1 1.4c-1.4 .5 -2.8 .9 -4.3 1.3c-1.5 .3 -3 .7 -4.6 1c-1.5 .3 -3.1 .6 -4.7 .8c-1.7 .2 -3.3 .4 -4.9 .6c-1.7 .2 -3.4 .3 -5 .4c-1.7 0 -3.4 .1 -5.1 .1c-1.7 0 -3.4 -.1 -5.1 -.1c-1.6 -.1 -3.3 -.2 -5 -.4c-1.6 -.2 -3.3 -.4 -4.9 -.6c-1.6 -.2 -3.2 -.5 -4.7 -.8c-1.6 -.3 -3.1 -.7 -4.6 -1c-1.5 -.4 -2.9 -.8 -4.3 -1.3c-1.5 -.4 -2.8 -.9 -4.1 -1.4c-1.3 -.5 -2.6 -1.1 -3.8 -1.6c-1.2 -.6 -2.3 -1.2 -3.4 -1.8c-1 -.7 -2 -1.3 -3 -2c-.9 -.7 -1.8 -1.4 -2.6 -2.1c-.8 -.7 -1.5 -1.4 -2.1 -2.2c-.7 -.7 -1.3 -1.5 -1.7 -2.2c-.5 -.8 -.9 -1.6 -1.3 -2.4c-.3 -.8 -.6 -1.6 -.7 -2.4c-.2 -.8 -.3 -1.6 -.3 -2.4c0 -.8 .1 -1.6 .3 -2.4c.1 -.8 .4 -1.6 .7 -2.4c.4 -.8 .8 -1.6 1.3 -2.4c.4 -.7 1 -1.5 1.7 -2.2c.6 -.8 1.3 -1.5 2.1 -2.2c.8 -.7 1.7 -1.4 2.6 -2.1c1 -.7 2 -1.3 3 -1.9c1.1 -.7 2.2 -1.3 3.4 -1.8c1.2 -.6 2.5 -1.2 3.8 -1.7c1.3 -.5 2.6 -1 4.1 -1.4c1.4 -.5 2.8 -.9 4.3 -1.2c1.5 -.4 3 -.8 4.6 -1.1c1.5 -.3 3.1 -.6 4.7 -.8c1.6 -.2 3.3 -.4 4.9 -.6c1.7 -.1 3.4 -.3 5 -.3c1.7 -.1 3.4 -.2 5.1 -.2c1.7 0 3.4 .1 5.1 .2c1.6 0 3.3 .2 5 .3c1.6 .2 3.2 .4 4.9 .6c1.6 .2 3.2 .5 4.7 .8c1.6 .3 3.1 .7 4.6 1.1c1.5 .3 2.9 .7 4.3 1.2c1.4 .4 2.8 .9 4.1 1.4c1.3 .5 2.6 1.1 3.8 1.7c1.2 .5 2.3 1.1 3.4 1.8c1 .6 2 1.2 3 1.9c.9 .7 1.8 1.4 2.6 2.1c.8 .7 1.5 1.4 2.1 2.2c.7 .7 1.2 1.5 1.7 2.2c.5 .8 .9 1.6 1.3 2.4c.3 .8 .5 1.6 .7 2.4c.2 .8 .3 1.6 .3 2.4Z" class="g0_441"/>
<path d="M535.4 179.1c0 .8 -.1 1.6 -.3 2.4c-.2 .8 -.4 1.6 -.7 2.4c-.4 .8 -.8 1.6 -1.3 2.4c-.5 .7 -1 1.5 -1.7 2.2c-.6 .8 -1.3 1.5 -2.1 2.2c-.8 .7 -1.7 1.4 -2.6 2.1c-1 .7 -2 1.3 -3 2c-1.1 .6 -2.2 1.2 -3.4 1.8c-1.2 .5 -2.5 1.1 -3.8 1.6c-1.3 .5 -2.7 1 -4.1 1.4c-1.4 .5 -2.8 .9 -4.3 1.3c-1.5 .3 -3 .7 -4.6 1c-1.5 .3 -3.1 .6 -4.7 .8c-1.7 .2 -3.3 .4 -4.9 .6c-1.7 .2 -3.4 .3 -5 .4c-1.7 0 -3.4 .1 -5.1 .1c-1.7 0 -3.4 -.1 -5.1 -.1c-1.6 -.1 -3.3 -.2 -5 -.4c-1.6 -.2 -3.3 -.4 -4.9 -.6c-1.6 -.2 -3.2 -.5 -4.7 -.8c-1.6 -.3 -3.1 -.7 -4.6 -1c-1.5 -.4 -2.9 -.8 -4.3 -1.3c-1.5 -.4 -2.8 -.9 -4.1 -1.4c-1.3 -.5 -2.6 -1.1 -3.8 -1.6c-1.2 -.6 -2.3 -1.2 -3.4 -1.8c-1 -.7 -2 -1.3 -3 -2c-.9 -.7 -1.8 -1.4 -2.6 -2.1c-.8 -.7 -1.5 -1.4 -2.1 -2.2c-.7 -.7 -1.3 -1.5 -1.7 -2.2c-.5 -.8 -.9 -1.6 -1.3 -2.4c-.3 -.8 -.6 -1.6 -.7 -2.4c-.2 -.8 -.3 -1.6 -.3 -2.4c0 -.8 .1 -1.6 .3 -2.4c.1 -.8 .4 -1.6 .7 -2.4c.4 -.8 .8 -1.6 1.3 -2.4c.4 -.7 1 -1.5 1.7 -2.2c.6 -.8 1.3 -1.5 2.1 -2.2c.8 -.7 1.7 -1.4 2.6 -2.1c1 -.7 2 -1.3 3 -1.9c1.1 -.7 2.2 -1.3 3.4 -1.8c1.2 -.6 2.5 -1.2 3.8 -1.7c1.3 -.5 2.6 -1 4.1 -1.4c1.4 -.5 2.8 -.9 4.3 -1.2c1.5 -.4 3 -.8 4.6 -1.1c1.5 -.3 3.1 -.6 4.7 -.8c1.6 -.2 3.3 -.4 4.9 -.6c1.7 -.1 3.4 -.3 5 -.3c1.7 -.1 3.4 -.2 5.1 -.2c1.7 0 3.4 .1 5.1 .2c1.6 0 3.3 .2 5 .3c1.6 .2 3.2 .4 4.9 .6c1.6 .2 3.2 .5 4.7 .8c1.6 .3 3.1 .7 4.6 1.1c1.5 .3 2.9 .7 4.3 1.2c1.4 .4 2.8 .9 4.1 1.4c1.3 .5 2.6 1.1 3.8 1.7c1.2 .5 2.3 1.1 3.4 1.8c1 .6 2 1.2 3 1.9c.9 .7 1.8 1.4 2.6 2.1c.8 .7 1.5 1.4 2.1 2.2c.7 .7 1.2 1.5 1.7 2.2c.5 .8 .9 1.6 1.3 2.4c.3 .8 .5 1.6 .7 2.4c.2 .8 .3 1.6 .3 2.4Z" class="g1_441"/>
<path d="M140 245.7c0 .8 0 1.5 -.1 2.2c-.1 .8 -.3 1.5 -.5 2.2c-.2 .8 -.5 1.5 -.8 2.2c-.4 .7 -.7 1.4 -1.2 2.1c-.4 .7 -.9 1.3 -1.4 2c-.5 .6 -1.1 1.3 -1.7 1.9c-.7 .6 -1.3 1.2 -2.1 1.7c-.7 .6 -1.4 1.2 -2.2 1.7c-.8 .5 -1.7 1 -2.5 1.5c-.9 .4 -1.8 .9 -2.7 1.3c-1 .4 -1.9 .8 -2.9 1.1c-1 .4 -2 .7 -3.1 1c-1 .3 -2.1 .5 -3.1 .7c-1.1 .2 -2.2 .4 -3.3 .6c-1.1 .1 -2.2 .2 -3.4 .3c-1.1 .1 -2.2 .1 -3.3 .1c-1.2 0 -2.3 0 -3.4 -.1c-1.1 -.1 -2.2 -.2 -3.3 -.3c-1.1 -.2 -2.2 -.4 -3.3 -.6c-1.1 -.2 -2.1 -.4 -3.2 -.7c-1 -.3 -2 -.6 -3 -1c-1 -.3 -2 -.7 -2.9 -1.1c-1 -.4 -1.9 -.9 -2.7 -1.3c-.9 -.5 -1.7 -1 -2.5 -1.5c-.8 -.5 -1.6 -1.1 -2.3 -1.7c-.7 -.5 -1.4 -1.1 -2 -1.7c-.6 -.6 -1.2 -1.3 -1.7 -1.9c-.6 -.7 -1.1 -1.3 -1.5 -2c-.4 -.7 -.8 -1.4 -1.1 -2.1c-.3 -.7 -.6 -1.4 -.8 -2.2c-.3 -.7 -.4 -1.4 -.5 -2.2c-.1 -.7 -.2 -1.4 -.2 -2.2c0 -.7 .1 -1.4 .2 -2.2c.1 -.7 .2 -1.4 .5 -2.2c.2 -.7 .5 -1.4 .8 -2.1c.3 -.7 .7 -1.4 1.1 -2.1c.4 -.7 .9 -1.3 1.5 -2c.5 -.6 1.1 -1.3 1.7 -1.9c.6 -.6 1.3 -1.2 2 -1.8c.7 -.5 1.5 -1.1 2.3 -1.6c.8 -.5 1.6 -1 2.5 -1.5c.8 -.5 1.7 -.9 2.7 -1.3c.9 -.4 1.9 -.8 2.9 -1.2c1 -.3 2 -.6 3 -.9c1.1 -.3 2.1 -.5 3.2 -.7c1.1 -.3 2.2 -.4 3.3 -.6c1.1 -.1 2.2 -.2 3.3 -.3c1.1 -.1 2.2 -.1 3.4 -.1c1.1 0 2.2 0 3.3 .1c1.2 .1 2.3 .2 3.4 .3c1.1 .2 2.2 .3 3.3 .6c1 .2 2.1 .4 3.1 .7c1.1 .3 2.1 .6 3.1 .9c1 .4 1.9 .8 2.9 1.2c.9 .4 1.8 .8 2.7 1.3c.8 .5 1.7 1 2.5 1.5c.8 .5 1.5 1.1 2.2 1.6c.8 .6 1.4 1.2 2.1 1.8c.6 .6 1.2 1.3 1.7 1.9c.5 .7 1 1.3 1.4 2c.5 .7 .8 1.4 1.2 2.1c.3 .7 .6 1.4 .8 2.1c.2 .8 .4 1.5 .5 2.2c.1 .8 .1 1.5 .1 2.2Z" class="g0_441"/>
<path d="M140 245.7c0 .8 0 1.5 -.1 2.2c-.1 .8 -.3 1.5 -.5 2.2c-.2 .8 -.5 1.5 -.8 2.2c-.4 .7 -.7 1.4 -1.2 2.1c-.4 .7 -.9 1.3 -1.4 2c-.5 .6 -1.1 1.3 -1.7 1.9c-.7 .6 -1.3 1.2 -2.1 1.7c-.7 .6 -1.4 1.2 -2.2 1.7c-.8 .5 -1.7 1 -2.5 1.5c-.9 .4 -1.8 .9 -2.7 1.3c-1 .4 -1.9 .8 -2.9 1.1c-1 .4 -2 .7 -3.1 1c-1 .3 -2.1 .5 -3.1 .7c-1.1 .2 -2.2 .4 -3.3 .6c-1.1 .1 -2.2 .2 -3.4 .3c-1.1 .1 -2.2 .1 -3.3 .1c-1.2 0 -2.3 0 -3.4 -.1c-1.1 -.1 -2.2 -.2 -3.3 -.3c-1.1 -.2 -2.2 -.4 -3.3 -.6c-1.1 -.2 -2.1 -.4 -3.2 -.7c-1 -.3 -2 -.6 -3 -1c-1 -.3 -2 -.7 -2.9 -1.1c-1 -.4 -1.9 -.9 -2.7 -1.3c-.9 -.5 -1.7 -1 -2.5 -1.5c-.8 -.5 -1.6 -1.1 -2.3 -1.7c-.7 -.5 -1.4 -1.1 -2 -1.7c-.6 -.6 -1.2 -1.3 -1.7 -1.9c-.6 -.7 -1.1 -1.3 -1.5 -2c-.4 -.7 -.8 -1.4 -1.1 -2.1c-.3 -.7 -.6 -1.4 -.8 -2.2c-.3 -.7 -.4 -1.4 -.5 -2.2c-.1 -.7 -.2 -1.4 -.2 -2.2c0 -.7 .1 -1.4 .2 -2.2c.1 -.7 .2 -1.4 .5 -2.2c.2 -.7 .5 -1.4 .8 -2.1c.3 -.7 .7 -1.4 1.1 -2.1c.4 -.7 .9 -1.3 1.5 -2c.5 -.6 1.1 -1.3 1.7 -1.9c.6 -.6 1.3 -1.2 2 -1.8c.7 -.5 1.5 -1.1 2.3 -1.6c.8 -.5 1.6 -1 2.5 -1.5c.8 -.5 1.7 -.9 2.7 -1.3c.9 -.4 1.9 -.8 2.9 -1.2c1 -.3 2 -.6 3 -.9c1.1 -.3 2.1 -.5 3.2 -.7c1.1 -.3 2.2 -.4 3.3 -.6c1.1 -.1 2.2 -.2 3.3 -.3c1.1 -.1 2.2 -.1 3.4 -.1c1.1 0 2.2 0 3.3 .1c1.2 .1 2.3 .2 3.4 .3c1.1 .2 2.2 .3 3.3 .6c1 .2 2.1 .4 3.1 .7c1.1 .3 2.1 .6 3.1 .9c1 .4 1.9 .8 2.9 1.2c.9 .4 1.8 .8 2.7 1.3c.8 .5 1.7 1 2.5 1.5c.8 .5 1.5 1.1 2.2 1.6c.8 .6 1.4 1.2 2.1 1.8c.6 .6 1.2 1.3 1.7 1.9c.5 .7 1 1.3 1.4 2c.5 .7 .8 1.4 1.2 2.1c.3 .7 .6 1.4 .8 2.1c.2 .8 .4 1.5 .5 2.2c.1 .8 .1 1.5 .1 2.2Z" class="g1_441"/>
<path d="M220.3 245.7c0 .8 -.1 1.5 -.2 2.2c-.1 .8 -.3 1.5 -.5 2.2c-.2 .8 -.5 1.5 -.8 2.2c-.4 .7 -.7 1.4 -1.2 2.1c-.4 .7 -.9 1.3 -1.4 2c-.5 .6 -1.1 1.3 -1.7 1.9c-.7 .6 -1.3 1.2 -2 1.7c-.8 .6 -1.5 1.2 -2.3 1.7c-.8 .5 -1.6 1 -2.5 1.5c-.9 .4 -1.8 .9 -2.7 1.3c-1 .4 -1.9 .8 -2.9 1.1c-1 .4 -2 .7 -3.1 1c-1 .3 -2.1 .5 -3.1 .7c-1.1 .2 -2.2 .4 -3.3 .6c-1.1 .1 -2.2 .2 -3.4 .3c-1.1 .1 -2.2 .1 -3.3 .1c-1.1 0 -2.3 0 -3.4 -.1c-1.1 -.1 -2.2 -.2 -3.3 -.3c-1.1 -.2 -2.2 -.4 -3.3 -.6c-1.1 -.2 -2.1 -.4 -3.2 -.7c-1 -.3 -2 -.6 -3 -1c-1 -.3 -2 -.7 -2.9 -1.1c-1 -.4 -1.9 -.9 -2.7 -1.3c-.9 -.5 -1.7 -1 -2.5 -1.5c-.8 -.5 -1.6 -1.1 -2.3 -1.7c-.7 -.5 -1.4 -1.1 -2 -1.7c-.6 -.6 -1.2 -1.3 -1.7 -1.9c-.6 -.7 -1 -1.3 -1.5 -2c-.4 -.7 -.8 -1.4 -1.1 -2.1c-.3 -.7 -.6 -1.4 -.8 -2.2c-.3 -.7 -.4 -1.4 -.5 -2.2c-.1 -.7 -.2 -1.4 -.2 -2.2c0 -.7 .1 -1.4 .2 -2.2c.1 -.7 .2 -1.4 .5 -2.2c.2 -.7 .5 -1.4 .8 -2.1c.3 -.7 .7 -1.4 1.1 -2.1c.5 -.7 .9 -1.3 1.5 -2c.5 -.6 1.1 -1.3 1.7 -1.9c.6 -.6 1.3 -1.2 2 -1.8c.7 -.5 1.5 -1.1 2.3 -1.6c.8 -.5 1.6 -1 2.5 -1.5c.8 -.5 1.7 -.9 2.7 -1.3c.9 -.4 1.9 -.8 2.9 -1.2c1 -.3 2 -.6 3 -.9c1.1 -.3 2.1 -.5 3.2 -.7c1.1 -.3 2.2 -.4 3.3 -.6c1.1 -.1 2.2 -.2 3.3 -.3c1.1 -.1 2.3 -.1 3.4 -.1c1.1 0 2.2 0 3.3 .1c1.2 .1 2.3 .2 3.4 .3c1.1 .2 2.2 .3 3.3 .6c1 .2 2.1 .4 3.1 .7c1.1 .3 2.1 .6 3.1 .9c1 .4 1.9 .8 2.9 1.2c.9 .4 1.8 .8 2.7 1.3c.9 .5 1.7 1 2.5 1.5c.8 .5 1.5 1.1 2.3 1.6c.7 .6 1.3 1.2 2 1.8c.6 .6 1.2 1.3 1.7 1.9c.5 .7 1 1.3 1.4 2c.5 .7 .8 1.4 1.2 2.1c.3 .7 .6 1.4 .8 2.1c.2 .8 .4 1.5 .5 2.2c.1 .8 .2 1.5 .2 2.2Z" class="g0_441"/>
<path d="M220.3 245.7c0 .8 -.1 1.5 -.2 2.2c-.1 .8 -.3 1.5 -.5 2.2c-.2 .8 -.5 1.5 -.8 2.2c-.4 .7 -.7 1.4 -1.2 2.1c-.4 .7 -.9 1.3 -1.4 2c-.5 .6 -1.1 1.3 -1.7 1.9c-.7 .6 -1.3 1.2 -2 1.7c-.8 .6 -1.5 1.2 -2.3 1.7c-.8 .5 -1.6 1 -2.5 1.5c-.9 .4 -1.8 .9 -2.7 1.3c-1 .4 -1.9 .8 -2.9 1.1c-1 .4 -2 .7 -3.1 1c-1 .3 -2.1 .5 -3.1 .7c-1.1 .2 -2.2 .4 -3.3 .6c-1.1 .1 -2.2 .2 -3.4 .3c-1.1 .1 -2.2 .1 -3.3 .1c-1.1 0 -2.3 0 -3.4 -.1c-1.1 -.1 -2.2 -.2 -3.3 -.3c-1.1 -.2 -2.2 -.4 -3.3 -.6c-1.1 -.2 -2.1 -.4 -3.2 -.7c-1 -.3 -2 -.6 -3 -1c-1 -.3 -2 -.7 -2.9 -1.1c-1 -.4 -1.9 -.9 -2.7 -1.3c-.9 -.5 -1.7 -1 -2.5 -1.5c-.8 -.5 -1.6 -1.1 -2.3 -1.7c-.7 -.5 -1.4 -1.1 -2 -1.7c-.6 -.6 -1.2 -1.3 -1.7 -1.9c-.6 -.7 -1 -1.3 -1.5 -2c-.4 -.7 -.8 -1.4 -1.1 -2.1c-.3 -.7 -.6 -1.4 -.8 -2.2c-.3 -.7 -.4 -1.4 -.5 -2.2c-.1 -.7 -.2 -1.4 -.2 -2.2c0 -.7 .1 -1.4 .2 -2.2c.1 -.7 .2 -1.4 .5 -2.2c.2 -.7 .5 -1.4 .8 -2.1c.3 -.7 .7 -1.4 1.1 -2.1c.5 -.7 .9 -1.3 1.5 -2c.5 -.6 1.1 -1.3 1.7 -1.9c.6 -.6 1.3 -1.2 2 -1.8c.7 -.5 1.5 -1.1 2.3 -1.6c.8 -.5 1.6 -1 2.5 -1.5c.8 -.5 1.7 -.9 2.7 -1.3c.9 -.4 1.9 -.8 2.9 -1.2c1 -.3 2 -.6 3 -.9c1.1 -.3 2.1 -.5 3.2 -.7c1.1 -.3 2.2 -.4 3.3 -.6c1.1 -.1 2.2 -.2 3.3 -.3c1.1 -.1 2.3 -.1 3.4 -.1c1.1 0 2.2 0 3.3 .1c1.2 .1 2.3 .2 3.4 .3c1.1 .2 2.2 .3 3.3 .6c1 .2 2.1 .4 3.1 .7c1.1 .3 2.1 .6 3.1 .9c1 .4 1.9 .8 2.9 1.2c.9 .4 1.8 .8 2.7 1.3c.9 .5 1.7 1 2.5 1.5c.8 .5 1.5 1.1 2.3 1.6c.7 .6 1.3 1.2 2 1.8c.6 .6 1.2 1.3 1.7 1.9c.5 .7 1 1.3 1.4 2c.5 .7 .8 1.4 1.2 2.1c.3 .7 .6 1.4 .8 2.1c.2 .8 .4 1.5 .5 2.2c.1 .8 .2 1.5 .2 2.2Z" class="g1_441"/>
<path d="M323.4 245.7c0 .8 -.1 1.5 -.2 2.2c-.2 .8 -.4 1.5 -.7 2.2c-.3 .8 -.7 1.5 -1.1 2.2c-.4 .7 -.9 1.4 -1.5 2.1c-.6 .7 -1.2 1.3 -1.9 2c-.7 .6 -1.5 1.3 -2.3 1.9c-.9 .6 -1.8 1.2 -2.7 1.7c-1 .6 -2 1.2 -3 1.7c-1.1 .5 -2.2 1 -3.4 1.5c-1.1 .4 -2.3 .9 -3.6 1.3c-1.2 .4 -2.5 .8 -3.8 1.1c-1.4 .4 -2.7 .7 -4.1 1c-1.4 .3 -2.8 .5 -4.2 .7c-1.5 .2 -2.9 .4 -4.4 .6c-1.5 .1 -3 .2 -4.5 .3c-1.5 .1 -3 .1 -4.5 .1c-1.5 0 -3 0 -4.4 -.1c-1.5 -.1 -3 -.2 -4.5 -.3c-1.5 -.2 -2.9 -.4 -4.4 -.6c-1.4 -.2 -2.8 -.4 -4.2 -.7c-1.4 -.3 -2.7 -.6 -4.1 -1c-1.3 -.3 -2.6 -.7 -3.8 -1.1c-1.3 -.4 -2.5 -.9 -3.6 -1.3c-1.2 -.5 -2.3 -1 -3.4 -1.5c-1 -.5 -2 -1.1 -3 -1.7c-.9 -.5 -1.8 -1.1 -2.7 -1.7c-.8 -.6 -1.6 -1.3 -2.3 -1.9c-.7 -.7 -1.3 -1.3 -1.9 -2c-.6 -.7 -1.1 -1.4 -1.5 -2.1c-.4 -.7 -.8 -1.4 -1.1 -2.2c-.3 -.7 -.5 -1.4 -.7 -2.2c-.1 -.7 -.2 -1.4 -.2 -2.2c0 -.7 .1 -1.4 .2 -2.2c.2 -.7 .4 -1.4 .7 -2.2c.3 -.7 .7 -1.4 1.1 -2.1c.4 -.7 .9 -1.4 1.5 -2.1c.6 -.7 1.2 -1.3 1.9 -2c.7 -.6 1.5 -1.3 2.3 -1.9c.9 -.6 1.8 -1.2 2.7 -1.8c1 -.5 2 -1.1 3 -1.6c1.1 -.5 2.2 -1 3.4 -1.5c1.1 -.5 2.3 -.9 3.6 -1.3c1.2 -.4 2.5 -.8 3.8 -1.2c1.4 -.3 2.7 -.6 4.1 -.9c1.4 -.3 2.8 -.5 4.2 -.7c1.5 -.3 2.9 -.4 4.4 -.6c1.5 -.1 3 -.2 4.5 -.3c1.4 -.1 2.9 -.1 4.4 -.1c1.5 0 3 0 4.5 .1c1.5 .1 3 .2 4.5 .3c1.5 .2 2.9 .3 4.4 .6c1.4 .2 2.8 .4 4.2 .7c1.4 .3 2.7 .6 4.1 .9c1.3 .4 2.6 .8 3.8 1.2c1.3 .4 2.5 .8 3.6 1.3c1.2 .5 2.3 1 3.4 1.5c1 .5 2 1.1 3 1.6c.9 .6 1.8 1.2 2.7 1.8c.8 .6 1.6 1.3 2.3 1.9c.7 .7 1.3 1.3 1.9 2c.6 .7 1.1 1.4 1.5 2.1c.4 .7 .8 1.4 1.1 2.1c.3 .8 .5 1.5 .7 2.2c.1 .8 .2 1.5 .2 2.2Z" class="g0_441"/>
<path d="M323.4 245.7c0 .8 -.1 1.5 -.2 2.2c-.2 .8 -.4 1.5 -.7 2.2c-.3 .8 -.7 1.5 -1.1 2.2c-.4 .7 -.9 1.4 -1.5 2.1c-.6 .7 -1.2 1.3 -1.9 2c-.7 .6 -1.5 1.3 -2.3 1.9c-.9 .6 -1.8 1.2 -2.7 1.7c-1 .6 -2 1.2 -3 1.7c-1.1 .5 -2.2 1 -3.4 1.5c-1.1 .4 -2.3 .9 -3.6 1.3c-1.2 .4 -2.5 .8 -3.8 1.1c-1.4 .4 -2.7 .7 -4.1 1c-1.4 .3 -2.8 .5 -4.2 .7c-1.5 .2 -2.9 .4 -4.4 .6c-1.5 .1 -3 .2 -4.5 .3c-1.5 .1 -3 .1 -4.5 .1c-1.5 0 -3 0 -4.4 -.1c-1.5 -.1 -3 -.2 -4.5 -.3c-1.5 -.2 -2.9 -.4 -4.4 -.6c-1.4 -.2 -2.8 -.4 -4.2 -.7c-1.4 -.3 -2.7 -.6 -4.1 -1c-1.3 -.3 -2.6 -.7 -3.8 -1.1c-1.3 -.4 -2.5 -.9 -3.6 -1.3c-1.2 -.5 -2.3 -1 -3.4 -1.5c-1 -.5 -2 -1.1 -3 -1.7c-.9 -.5 -1.8 -1.1 -2.7 -1.7c-.8 -.6 -1.6 -1.3 -2.3 -1.9c-.7 -.7 -1.3 -1.3 -1.9 -2c-.6 -.7 -1.1 -1.4 -1.5 -2.1c-.4 -.7 -.8 -1.4 -1.1 -2.2c-.3 -.7 -.5 -1.4 -.7 -2.2c-.1 -.7 -.2 -1.4 -.2 -2.2c0 -.7 .1 -1.4 .2 -2.2c.2 -.7 .4 -1.4 .7 -2.2c.3 -.7 .7 -1.4 1.1 -2.1c.4 -.7 .9 -1.4 1.5 -2.1c.6 -.7 1.2 -1.3 1.9 -2c.7 -.6 1.5 -1.3 2.3 -1.9c.9 -.6 1.8 -1.2 2.7 -1.8c1 -.5 2 -1.1 3 -1.6c1.1 -.5 2.2 -1 3.4 -1.5c1.1 -.5 2.3 -.9 3.6 -1.3c1.2 -.4 2.5 -.8 3.8 -1.2c1.4 -.3 2.7 -.6 4.1 -.9c1.4 -.3 2.8 -.5 4.2 -.7c1.5 -.3 2.9 -.4 4.4 -.6c1.5 -.1 3 -.2 4.5 -.3c1.4 -.1 2.9 -.1 4.4 -.1c1.5 0 3 0 4.5 .1c1.5 .1 3 .2 4.5 .3c1.5 .2 2.9 .3 4.4 .6c1.4 .2 2.8 .4 4.2 .7c1.4 .3 2.7 .6 4.1 .9c1.3 .4 2.6 .8 3.8 1.2c1.3 .4 2.5 .8 3.6 1.3c1.2 .5 2.3 1 3.4 1.5c1 .5 2 1.1 3 1.6c.9 .6 1.8 1.2 2.7 1.8c.8 .6 1.6 1.3 2.3 1.9c.7 .7 1.3 1.3 1.9 2c.6 .7 1.1 1.4 1.5 2.1c.4 .7 .8 1.4 1.1 2.1c.3 .8 .5 1.5 .7 2.2c.1 .8 .2 1.5 .2 2.2Z" class="g1_441"/>
<path d="M426.5 245.7c0 .8 -.1 1.5 -.2 2.2c-.1 .8 -.3 1.5 -.5 2.2c-.2 .8 -.5 1.5 -.9 2.2c-.4 .7 -.8 1.4 -1.2 2.1c-.5 .7 -1 1.3 -1.6 2c-.6 .6 -1.2 1.3 -1.9 1.9c-.6 .6 -1.4 1.2 -2.1 1.7c-.8 .6 -1.6 1.2 -2.5 1.7c-.9 .5 -1.8 1 -2.7 1.5c-1 .4 -1.9 .9 -2.9 1.3c-1.1 .4 -2.1 .8 -3.2 1.1c-1.1 .4 -2.2 .7 -3.3 1c-1.1 .3 -2.3 .5 -3.4 .7c-1.2 .2 -2.4 .4 -3.6 .6c-1.2 .1 -2.4 .2 -3.6 .3c-1.2 .1 -2.4 .1 -3.6 .1c-1.3 0 -2.5 0 -3.7 -.1c-1.2 -.1 -2.4 -.2 -3.6 -.3c-1.2 -.2 -2.4 -.4 -3.5 -.6c-1.2 -.2 -2.4 -.4 -3.5 -.7c-1.1 -.3 -2.2 -.6 -3.3 -1c-1.1 -.3 -2.1 -.7 -3.1 -1.1c-1 -.4 -2 -.9 -3 -1.3c-.9 -.5 -1.8 -1 -2.7 -1.5c-.8 -.5 -1.6 -1.1 -2.4 -1.7c-.8 -.5 -1.5 -1.1 -2.2 -1.7c-.7 -.6 -1.3 -1.3 -1.9 -1.9c-.6 -.7 -1.1 -1.3 -1.5 -2c-.5 -.7 -.9 -1.4 -1.3 -2.1c-.3 -.7 -.6 -1.4 -.9 -2.2c-.2 -.7 -.4 -1.4 -.5 -2.2c-.1 -.7 -.2 -1.4 -.2 -2.2c0 -.7 .1 -1.4 .2 -2.2c.1 -.7 .3 -1.4 .5 -2.2c.3 -.7 .6 -1.4 .9 -2.1c.4 -.7 .8 -1.4 1.3 -2.1c.4 -.7 .9 -1.3 1.5 -2c.6 -.6 1.2 -1.3 1.9 -1.9c.7 -.6 1.4 -1.2 2.2 -1.8c.8 -.5 1.6 -1.1 2.4 -1.6c.9 -.5 1.8 -1 2.7 -1.5c1 -.5 2 -.9 3 -1.3c1 -.4 2 -.8 3.1 -1.2c1.1 -.3 2.2 -.6 3.3 -.9c1.1 -.3 2.3 -.5 3.5 -.7c1.1 -.3 2.3 -.4 3.5 -.6c1.2 -.1 2.4 -.2 3.6 -.3c1.2 -.1 2.4 -.1 3.7 -.1c1.2 0 2.4 0 3.6 .1c1.2 .1 2.4 .2 3.6 .3c1.2 .2 2.4 .3 3.6 .6c1.1 .2 2.3 .4 3.4 .7c1.1 .3 2.2 .6 3.3 .9c1.1 .4 2.1 .8 3.2 1.2c1 .4 1.9 .8 2.9 1.3c.9 .5 1.8 1 2.7 1.5c.9 .5 1.7 1.1 2.5 1.6c.7 .6 1.5 1.2 2.1 1.8c.7 .6 1.3 1.3 1.9 1.9c.6 .7 1.1 1.3 1.6 2c.4 .7 .8 1.4 1.2 2.1c.4 .7 .7 1.4 .9 2.1c.2 .8 .4 1.5 .5 2.2c.1 .8 .2 1.5 .2 2.2Z" class="g0_441"/>
<path d="M426.5 245.7c0 .8 -.1 1.5 -.2 2.2c-.1 .8 -.3 1.5 -.5 2.2c-.2 .8 -.5 1.5 -.9 2.2c-.4 .7 -.8 1.4 -1.2 2.1c-.5 .7 -1 1.3 -1.6 2c-.6 .6 -1.2 1.3 -1.9 1.9c-.6 .6 -1.4 1.2 -2.1 1.7c-.8 .6 -1.6 1.2 -2.5 1.7c-.9 .5 -1.8 1 -2.7 1.5c-1 .4 -1.9 .9 -2.9 1.3c-1.1 .4 -2.1 .8 -3.2 1.1c-1.1 .4 -2.2 .7 -3.3 1c-1.1 .3 -2.3 .5 -3.4 .7c-1.2 .2 -2.4 .4 -3.6 .6c-1.2 .1 -2.4 .2 -3.6 .3c-1.2 .1 -2.4 .1 -3.6 .1c-1.3 0 -2.5 0 -3.7 -.1c-1.2 -.1 -2.4 -.2 -3.6 -.3c-1.2 -.2 -2.4 -.4 -3.5 -.6c-1.2 -.2 -2.4 -.4 -3.5 -.7c-1.1 -.3 -2.2 -.6 -3.3 -1c-1.1 -.3 -2.1 -.7 -3.1 -1.1c-1 -.4 -2 -.9 -3 -1.3c-.9 -.5 -1.8 -1 -2.7 -1.5c-.8 -.5 -1.6 -1.1 -2.4 -1.7c-.8 -.5 -1.5 -1.1 -2.2 -1.7c-.7 -.6 -1.3 -1.3 -1.9 -1.9c-.6 -.7 -1.1 -1.3 -1.5 -2c-.5 -.7 -.9 -1.4 -1.3 -2.1c-.3 -.7 -.6 -1.4 -.9 -2.2c-.2 -.7 -.4 -1.4 -.5 -2.2c-.1 -.7 -.2 -1.4 -.2 -2.2c0 -.7 .1 -1.4 .2 -2.2c.1 -.7 .3 -1.4 .5 -2.2c.3 -.7 .6 -1.4 .9 -2.1c.4 -.7 .8 -1.4 1.3 -2.1c.4 -.7 .9 -1.3 1.5 -2c.6 -.6 1.2 -1.3 1.9 -1.9c.7 -.6 1.4 -1.2 2.2 -1.8c.8 -.5 1.6 -1.1 2.4 -1.6c.9 -.5 1.8 -1 2.7 -1.5c1 -.5 2 -.9 3 -1.3c1 -.4 2 -.8 3.1 -1.2c1.1 -.3 2.2 -.6 3.3 -.9c1.1 -.3 2.3 -.5 3.5 -.7c1.1 -.3 2.3 -.4 3.5 -.6c1.2 -.1 2.4 -.2 3.6 -.3c1.2 -.1 2.4 -.1 3.7 -.1c1.2 0 2.4 0 3.6 .1c1.2 .1 2.4 .2 3.6 .3c1.2 .2 2.4 .3 3.6 .6c1.1 .2 2.3 .4 3.4 .7c1.1 .3 2.2 .6 3.3 .9c1.1 .4 2.1 .8 3.2 1.2c1 .4 1.9 .8 2.9 1.3c.9 .5 1.8 1 2.7 1.5c.9 .5 1.7 1.1 2.5 1.6c.7 .6 1.5 1.2 2.1 1.8c.7 .6 1.3 1.3 1.9 1.9c.6 .7 1.1 1.3 1.6 2c.4 .7 .8 1.4 1.2 2.1c.4 .7 .7 1.4 .9 2.1c.2 .8 .4 1.5 .5 2.2c.1 .8 .2 1.5 .2 2.2Z" class="g1_441"/>
<path d="M529.6 245.7c0 .8 0 1.5 -.2 2.2c-.1 .8 -.4 1.5 -.7 2.2c-.2 .8 -.6 1.5 -1 2.2c-.5 .7 -1 1.4 -1.6 2.1c-.5 .7 -1.2 1.3 -1.9 2c-.7 .6 -1.5 1.3 -2.3 1.9c-.8 .6 -1.7 1.2 -2.7 1.7c-.9 .6 -1.9 1.2 -3 1.7c-1.1 .5 -2.2 1 -3.3 1.5c-1.2 .4 -2.4 .9 -3.6 1.3c-1.3 .4 -2.6 .8 -3.9 1.1c-1.3 .4 -2.7 .7 -4.1 1c-1.4 .3 -2.8 .5 -4.2 .7c-1.4 .2 -2.9 .4 -4.4 .6c-1.4 .1 -2.9 .2 -4.4 .3c-1.5 .1 -3 .1 -4.5 .1c-1.5 0 -3 0 -4.5 -.1c-1.5 -.1 -3 -.2 -4.4 -.3c-1.5 -.2 -3 -.4 -4.4 -.6c-1.4 -.2 -2.9 -.4 -4.2 -.7c-1.4 -.3 -2.8 -.6 -4.1 -1c-1.3 -.3 -2.6 -.7 -3.9 -1.1c-1.2 -.4 -2.4 -.9 -3.6 -1.3c-1.1 -.5 -2.3 -1 -3.3 -1.5c-1.1 -.5 -2.1 -1.1 -3 -1.7c-1 -.5 -1.9 -1.1 -2.7 -1.7c-.8 -.6 -1.6 -1.3 -2.3 -1.9c-.7 -.7 -1.4 -1.3 -1.9 -2c-.6 -.7 -1.1 -1.4 -1.6 -2.1c-.4 -.7 -.8 -1.4 -1.1 -2.2c-.2 -.7 -.5 -1.4 -.6 -2.2c-.2 -.7 -.2 -1.4 -.2 -2.2c0 -.7 0 -1.4 .2 -2.2c.1 -.7 .4 -1.4 .6 -2.2c.3 -.7 .7 -1.4 1.1 -2.1c.5 -.7 1 -1.4 1.6 -2.1c.5 -.7 1.2 -1.3 1.9 -2c.7 -.6 1.5 -1.3 2.3 -1.9c.8 -.6 1.7 -1.2 2.7 -1.8c.9 -.5 1.9 -1.1 3 -1.6c1 -.5 2.2 -1 3.3 -1.5c1.2 -.5 2.4 -.9 3.6 -1.3c1.3 -.4 2.6 -.8 3.9 -1.2c1.3 -.3 2.7 -.6 4.1 -.9c1.3 -.3 2.8 -.5 4.2 -.7c1.4 -.3 2.9 -.4 4.4 -.6c1.4 -.1 2.9 -.2 4.4 -.3c1.5 -.1 3 -.1 4.5 -.1c1.5 0 3 0 4.5 .1c1.5 .1 3 .2 4.4 .3c1.5 .2 3 .3 4.4 .6c1.4 .2 2.8 .4 4.2 .7c1.4 .3 2.8 .6 4.1 .9c1.3 .4 2.6 .8 3.9 1.2c1.2 .4 2.4 .8 3.6 1.3c1.1 .5 2.2 1 3.3 1.5c1.1 .5 2.1 1.1 3 1.6c1 .6 1.9 1.2 2.7 1.8c.8 .6 1.6 1.3 2.3 1.9c.7 .7 1.4 1.3 1.9 2c.6 .7 1.1 1.4 1.6 2.1c.4 .7 .8 1.4 1 2.1c.3 .8 .6 1.5 .7 2.2c.2 .8 .2 1.5 .2 2.2Z" class="g0_441"/>
<path d="M529.6 245.7c0 .8 0 1.5 -.2 2.2c-.1 .8 -.4 1.5 -.7 2.2c-.2 .8 -.6 1.5 -1 2.2c-.5 .7 -1 1.4 -1.6 2.1c-.5 .7 -1.2 1.3 -1.9 2c-.7 .6 -1.5 1.3 -2.3 1.9c-.8 .6 -1.7 1.2 -2.7 1.7c-.9 .6 -1.9 1.2 -3 1.7c-1.1 .5 -2.2 1 -3.3 1.5c-1.2 .4 -2.4 .9 -3.6 1.3c-1.3 .4 -2.6 .8 -3.9 1.1c-1.3 .4 -2.7 .7 -4.1 1c-1.4 .3 -2.8 .5 -4.2 .7c-1.4 .2 -2.9 .4 -4.4 .6c-1.4 .1 -2.9 .2 -4.4 .3c-1.5 .1 -3 .1 -4.5 .1c-1.5 0 -3 0 -4.5 -.1c-1.5 -.1 -3 -.2 -4.4 -.3c-1.5 -.2 -3 -.4 -4.4 -.6c-1.4 -.2 -2.9 -.4 -4.2 -.7c-1.4 -.3 -2.8 -.6 -4.1 -1c-1.3 -.3 -2.6 -.7 -3.9 -1.1c-1.2 -.4 -2.4 -.9 -3.6 -1.3c-1.1 -.5 -2.3 -1 -3.3 -1.5c-1.1 -.5 -2.1 -1.1 -3 -1.7c-1 -.5 -1.9 -1.1 -2.7 -1.7c-.8 -.6 -1.6 -1.3 -2.3 -1.9c-.7 -.7 -1.4 -1.3 -1.9 -2c-.6 -.7 -1.1 -1.4 -1.6 -2.1c-.4 -.7 -.8 -1.4 -1.1 -2.2c-.2 -.7 -.5 -1.4 -.6 -2.2c-.2 -.7 -.2 -1.4 -.2 -2.2c0 -.7 0 -1.4 .2 -2.2c.1 -.7 .4 -1.4 .6 -2.2c.3 -.7 .7 -1.4 1.1 -2.1c.5 -.7 1 -1.4 1.6 -2.1c.5 -.7 1.2 -1.3 1.9 -2c.7 -.6 1.5 -1.3 2.3 -1.9c.8 -.6 1.7 -1.2 2.7 -1.8c.9 -.5 1.9 -1.1 3 -1.6c1 -.5 2.2 -1 3.3 -1.5c1.2 -.5 2.4 -.9 3.6 -1.3c1.3 -.4 2.6 -.8 3.9 -1.2c1.3 -.3 2.7 -.6 4.1 -.9c1.3 -.3 2.8 -.5 4.2 -.7c1.4 -.3 2.9 -.4 4.4 -.6c1.4 -.1 2.9 -.2 4.4 -.3c1.5 -.1 3 -.1 4.5 -.1c1.5 0 3 0 4.5 .1c1.5 .1 3 .2 4.4 .3c1.5 .2 3 .3 4.4 .6c1.4 .2 2.8 .4 4.2 .7c1.4 .3 2.8 .6 4.1 .9c1.3 .4 2.6 .8 3.9 1.2c1.2 .4 2.4 .8 3.6 1.3c1.1 .5 2.2 1 3.3 1.5c1.1 .5 2.1 1.1 3 1.6c1 .6 1.9 1.2 2.7 1.8c.8 .6 1.6 1.3 2.3 1.9c.7 .7 1.4 1.3 1.9 2c.6 .7 1.1 1.4 1.6 2.1c.4 .7 .8 1.4 1 2.1c.3 .8 .6 1.5 .7 2.2c.2 .8 .2 1.5 .2 2.2Z" class="g1_441"/>
<path d="M621.3 245.7c0 .8 -.1 1.5 -.2 2.2c-.1 .8 -.3 1.5 -.6 2.2c-.3 .8 -.6 1.5 -1 2.2c-.4 .7 -.8 1.4 -1.4 2.1c-.5 .7 -1.1 1.3 -1.7 2c-.6 .6 -1.3 1.3 -2.1 1.9c-.8 .6 -1.6 1.2 -2.4 1.7c-.9 .6 -1.8 1.2 -2.8 1.7c-.9 .5 -1.9 1 -3 1.5c-1 .4 -2.1 .9 -3.2 1.3c-1.2 .4 -2.3 .8 -3.5 1.1c-1.2 .4 -2.5 .7 -3.7 1c-1.3 .3 -2.5 .5 -3.8 .7c-1.4 .2 -2.7 .4 -4 .6c-1.3 .1 -2.7 .2 -4 .3c-1.4 .1 -2.7 .1 -4.1 .1c-1.4 0 -2.7 0 -4.1 -.1c-1.3 -.1 -2.7 -.2 -4 -.3c-1.3 -.2 -2.6 -.4 -3.9 -.6c-1.3 -.2 -2.6 -.4 -3.9 -.7c-1.2 -.3 -2.5 -.6 -3.7 -1c-1.2 -.3 -2.3 -.7 -3.4 -1.1c-1.2 -.4 -2.3 -.9 -3.3 -1.3c-1.1 -.5 -2.1 -1 -3 -1.5c-1 -.5 -1.9 -1.1 -2.8 -1.7c-.8 -.5 -1.6 -1.1 -2.4 -1.7c-.7 -.6 -1.4 -1.3 -2.1 -1.9c-.6 -.7 -1.2 -1.3 -1.7 -2c-.5 -.7 -1 -1.4 -1.4 -2.1c-.4 -.7 -.7 -1.4 -1 -2.2c-.3 -.7 -.5 -1.4 -.6 -2.2c-.1 -.7 -.2 -1.4 -.2 -2.2c0 -.7 .1 -1.4 .2 -2.2c.1 -.7 .3 -1.4 .6 -2.2c.3 -.7 .6 -1.4 1 -2.1c.4 -.7 .9 -1.4 1.4 -2.1c.5 -.7 1.1 -1.3 1.7 -2c.7 -.6 1.4 -1.3 2.1 -1.9c.8 -.6 1.6 -1.2 2.4 -1.8c.9 -.5 1.8 -1.1 2.8 -1.6c.9 -.5 1.9 -1 3 -1.5c1 -.5 2.1 -.9 3.3 -1.3c1.1 -.4 2.2 -.8 3.4 -1.2c1.2 -.3 2.5 -.6 3.7 -.9c1.3 -.3 2.6 -.5 3.9 -.7c1.3 -.3 2.6 -.4 3.9 -.6c1.3 -.1 2.7 -.2 4 -.3c1.4 -.1 2.7 -.1 4.1 -.1c1.4 0 2.7 0 4.1 .1c1.3 .1 2.7 .2 4 .3c1.3 .2 2.6 .3 4 .6c1.3 .2 2.5 .4 3.8 .7c1.2 .3 2.5 .6 3.7 .9c1.2 .4 2.3 .8 3.5 1.2c1.1 .4 2.2 .8 3.2 1.3c1.1 .5 2.1 1 3 1.5c1 .5 1.9 1.1 2.8 1.6c.8 .6 1.6 1.2 2.4 1.8c.8 .6 1.5 1.3 2.1 1.9c.6 .7 1.2 1.3 1.7 2c.6 .7 1 1.4 1.4 2.1c.4 .7 .7 1.4 1 2.1c.3 .8 .5 1.5 .6 2.2c.1 .8 .2 1.5 .2 2.2Z" class="g0_441"/>
<path d="M621.3 245.7c0 .8 -.1 1.5 -.2 2.2c-.1 .8 -.3 1.5 -.6 2.2c-.3 .8 -.6 1.5 -1 2.2c-.4 .7 -.8 1.4 -1.4 2.1c-.5 .7 -1.1 1.3 -1.7 2c-.6 .6 -1.3 1.3 -2.1 1.9c-.8 .6 -1.6 1.2 -2.4 1.7c-.9 .6 -1.8 1.2 -2.8 1.7c-.9 .5 -1.9 1 -3 1.5c-1 .4 -2.1 .9 -3.2 1.3c-1.2 .4 -2.3 .8 -3.5 1.1c-1.2 .4 -2.5 .7 -3.7 1c-1.3 .3 -2.5 .5 -3.8 .7c-1.4 .2 -2.7 .4 -4 .6c-1.3 .1 -2.7 .2 -4 .3c-1.4 .1 -2.7 .1 -4.1 .1c-1.4 0 -2.7 0 -4.1 -.1c-1.3 -.1 -2.7 -.2 -4 -.3c-1.3 -.2 -2.6 -.4 -3.9 -.6c-1.3 -.2 -2.6 -.4 -3.9 -.7c-1.2 -.3 -2.5 -.6 -3.7 -1c-1.2 -.3 -2.3 -.7 -3.4 -1.1c-1.2 -.4 -2.3 -.9 -3.3 -1.3c-1.1 -.5 -2.1 -1 -3 -1.5c-1 -.5 -1.9 -1.1 -2.8 -1.7c-.8 -.5 -1.6 -1.1 -2.4 -1.7c-.7 -.6 -1.4 -1.3 -2.1 -1.9c-.6 -.7 -1.2 -1.3 -1.7 -2c-.5 -.7 -1 -1.4 -1.4 -2.1c-.4 -.7 -.7 -1.4 -1 -2.2c-.3 -.7 -.5 -1.4 -.6 -2.2c-.1 -.7 -.2 -1.4 -.2 -2.2c0 -.7 .1 -1.4 .2 -2.2c.1 -.7 .3 -1.4 .6 -2.2c.3 -.7 .6 -1.4 1 -2.1c.4 -.7 .9 -1.4 1.4 -2.1c.5 -.7 1.1 -1.3 1.7 -2c.7 -.6 1.4 -1.3 2.1 -1.9c.8 -.6 1.6 -1.2 2.4 -1.8c.9 -.5 1.8 -1.1 2.8 -1.6c.9 -.5 1.9 -1 3 -1.5c1 -.5 2.1 -.9 3.3 -1.3c1.1 -.4 2.2 -.8 3.4 -1.2c1.2 -.3 2.5 -.6 3.7 -.9c1.3 -.3 2.6 -.5 3.9 -.7c1.3 -.3 2.6 -.4 3.9 -.6c1.3 -.1 2.7 -.2 4 -.3c1.4 -.1 2.7 -.1 4.1 -.1c1.4 0 2.7 0 4.1 .1c1.3 .1 2.7 .2 4 .3c1.3 .2 2.6 .3 4 .6c1.3 .2 2.5 .4 3.8 .7c1.2 .3 2.5 .6 3.7 .9c1.2 .4 2.3 .8 3.5 1.2c1.1 .4 2.2 .8 3.2 1.3c1.1 .5 2.1 1 3 1.5c1 .5 1.9 1.1 2.8 1.6c.8 .6 1.6 1.2 2.4 1.8c.8 .6 1.5 1.3 2.1 1.9c.6 .7 1.2 1.3 1.7 2c.6 .7 1 1.4 1.4 2.1c.4 .7 .7 1.4 1 2.1c.3 .8 .5 1.5 .6 2.2c.1 .8 .2 1.5 .2 2.2ZM218.7 161.9l84.9 -14.2m143.3 14.2L377.5 147.7M105.7 223.2l47.4 -26.9m32.8 26.9V203.8m91.6 19.4L218.7 196.3m361.1 26.9L520.7 196.3M389.3 223.2l57.6 -26.9m36.9 26.9V203.8" class="g1_441"/>
</g>
<path d="M65 849.8H174.6" class="g2_441"/>
</svg>