<?xml version="1.0" encoding="UTF-8" standalone="no"?>
<!DOCTYPE svg PUBLIC "-//W3C//DTD SVG 1.1//EN"
"http://www.w3.org/Graphics/SVG/1.1/DTD/svg11.dtd">
<svg viewBox="0 0 714 1017" version="1.1" xmlns="http://www.w3.org/2000/svg" xmlns:xlink="http://www.w3.org/1999/xlink">
<defs>
<style type="text/css"><![CDATA[
.g0_203{
fill: #FFF;
}
.g1_203{
fill: none;
stroke: #000;
stroke-width: 1.217;
stroke-miterlimit: 10;
}
.g2_203{
fill: none;
stroke: #000;
stroke-width: 1.156;
stroke-miterlimit: 10;
}
.g3_203{
fill: none;
stroke: #000;
stroke-width: 0.76;
stroke-miterlimit: 10;
}
]]></style>
</defs>
<path d="M0 1017.7H717.2V-3.7H0V1017.7Z" class="g0_203"/>
<path d="M67.1 176.5V97H625.8v79.5c0 2.4 -1.9 4.4 -4.3 4.4H71.5c-2.4 0 -4.4 -2 -4.4 -4.4Z" class="g0_203"/>
<path d="M65 97v86m0 267H623.8" class="g1_203"/>
<path d="M65 476.9H623.8" class="g2_203"/>
<path d="M65 503.7H623.8M65 530.2H623.8M65 556.7H623.8M65 583.2H623.8M65 609.8H623.8M65 636.3H623.8M65 662.8H623.8M65 689.3H623.8" class="g3_203"/>
<path d="M65 716.1H623.8M65 822.1H629.5" class="g1_203"/>
<path d="M65 849H629.5" class="g2_203"/>
</svg>