<?xml version="1.0" encoding="UTF-8" standalone="no"?>
<!DOCTYPE svg PUBLIC "-//W3C//DTD SVG 1.1//EN"
"http://www.w3.org/Graphics/SVG/1.1/DTD/svg11.dtd">
<svg viewBox="0 0 714 1017" version="1.1" xmlns="http://www.w3.org/2000/svg" xmlns:xlink="http://www.w3.org/1999/xlink">
<defs>
<clipPath id="c0_142"><path d="M98.4 518.7V97H638.1V518.7Z"/></clipPath>
<clipPath id="c1_142"><path d="M98.4 518.7V97H639.3V518.7Z"/></clipPath>
<style type="text/css"><![CDATA[
.g0_142{
fill: #FFF;
}
.g1_142{
fill: #DDD;
}
.g2_142{
fill: none;
stroke: #000;
stroke-width: 1.145;
stroke-miterlimit: 10;
}
.g3_142{
fill: #AAA;
}
.g4_142{
fill: none;
stroke: #FFF;
stroke-width: 5.729;
stroke-miterlimit: 10;
}
.g5_142{
fill: #000;
}
]]></style>
</defs>
<path d="M0 1017.7H717.2V-3.7H0V1017.7Z" class="g0_142"/>
<g clip-path="url(#c1_142)">
<path clip-path="url(#c0_142)" d="M98.4 97H638.1V518.7H98.4V97Z" class="g0_142"/>
<path d="M318.9 271.7h45.8v23H318.9v-23Z" class="g1_142"/>
<path d="M318.9 271.7h45.8v23H318.9v-23Z" class="g2_142"/>
<path d="M345.8 283.2c0 .5 -.1 1 -.3 1.5c-.2 .5 -.5 1 -.9 1.3c-.3 .4 -.8 .7 -1.3 .9c-.5 .2 -1 .3 -1.5 .3c-.5 0 -1.1 -.1 -1.5 -.3c-.5 -.2 -1 -.5 -1.3 -.9c-.4 -.3 -.7 -.8 -.9 -1.3c-.2 -.5 -.3 -1 -.3 -1.5c0 -.5 .1 -1 .3 -1.5c.2 -.5 .5 -1 .9 -1.3c.3 -.4 .8 -.7 1.3 -.9c.4 -.2 1 -.3 1.5 -.3c.5 0 1 .1 1.5 .3c.5 .2 1 .5 1.3 .9c.4 .3 .7 .8 .9 1.3c.2 .5 .3 1 .3 1.5Z" class="g1_142"/>
<path d="M345.8 283.2c0 .5 -.1 1 -.3 1.5c-.2 .5 -.5 1 -.9 1.3c-.3 .4 -.8 .7 -1.3 .9c-.5 .2 -1 .3 -1.5 .3c-.5 0 -1.1 -.1 -1.5 -.3c-.5 -.2 -1 -.5 -1.3 -.9c-.4 -.3 -.7 -.8 -.9 -1.3c-.2 -.5 -.3 -1 -.3 -1.5c0 -.5 .1 -1 .3 -1.5c.2 -.5 .5 -1 .9 -1.3c.3 -.4 .8 -.7 1.3 -.9c.4 -.2 1 -.3 1.5 -.3c.5 0 1 .1 1.5 .3c.5 .2 1 .5 1.3 .9c.4 .3 .7 .8 .9 1.3c.2 .5 .3 1 .3 1.5Z" class="g2_142"/>
<path d="M268.1 140h11.3v11.2H268.1V140Z" class="g1_142"/>
<path d="M268.1 140h11.3v11.2H268.1V140Z" class="g2_142"/>
<path d="M189.1 140h11.3v11.2H189.1V140Z" class="g1_142"/>
<path d="M189.1 140h11.3v11.2H189.1V140Z" class="g2_142"/>
<path d="M200.6 140h11.3v11.2H200.6V140Z" class="g1_142"/>
<path d="M200.6 140h11.3v11.2H200.6V140Z" class="g2_142"/>
<path d="M211.7 140H223v11.2H211.7V140Z" class="g1_142"/>
<path d="M211.7 140H223v11.2H211.7V140Z" class="g2_142"/>
<path d="M223 140h11.3v11.2H223V140Z" class="g1_142"/>
<path d="M223 140h11.3v11.2H223V140Z" class="g2_142"/>
<path d="M234.3 140h11.3v11.2H234.3V140Z" class="g1_142"/>
<path d="M234.3 140h11.3v11.2H234.3V140Z" class="g2_142"/>
<path d="M245.6 140h11.2v11.2H245.6V140Z" class="g1_142"/>
<path d="M245.6 140h11.2v11.2H245.6V140Z" class="g2_142"/>
<path d="M256.8 140h11.3v11.2H256.8V140Z" class="g1_142"/>
<path d="M256.8 140h11.3v11.2H256.8V140Z" class="g2_142"/>
<path d="M279.4 140h11.3v11.2H279.4V140Z" class="g1_142"/>
<path d="M279.4 140h11.3v11.2H279.4V140Z" class="g2_142"/>
<path d="M290.7 140H302v11.2H290.7V140Z" class="g1_142"/>
<path d="M290.7 140H302v11.2H290.7V140Z" class="g2_142"/>
<path d="M302 140h11.2v11.2H302V140Z" class="g1_142"/>
<path d="M302 140h11.2v11.2H302V140Z" class="g2_142"/>
<path d="M313.2 140h11.3v11.2H313.2V140Z" class="g0_142"/>
<path d="M313.2 140h11.3v11.2H313.2V140Z" class="g2_142"/>
<path d="M324.5 140h11.3v11.2H324.5V140Z" class="g0_142"/>
<path d="M324.5 140h11.3v11.2H324.5V140Z" class="g2_142"/>
<path d="M335.8 140h11.3v11.2H335.8V140Z" class="g0_142"/>
<path d="M335.8 140h11.3v11.2H335.8V140Z" class="g2_142"/>
<path d="M347.1 140h11.2v11.2H347.1V140Z" class="g0_142"/>
<path d="M347.1 140h11.2v11.2H347.1V140Z" class="g2_142"/>
<path d="M358.3 140h11.3v11.2H358.3V140Z" class="g0_142"/>
<path d="M358.3 140h11.3v11.2H358.3V140Z" class="g2_142"/>
<path d="M369.6 140h11.3v11.2H369.6V140Z" class="g0_142"/>
<path d="M369.6 140h11.3v11.2H369.6V140Z" class="g2_142"/>
<path d="M392.2 140h11.3v11.2H392.2V140Z" class="g0_142"/>
<path d="M392.2 140h11.3v11.2H392.2V140Z" class="g2_142"/>
<path d="M380.9 140h11.3v11.2H380.9V140Z" class="g0_142"/>
<path d="M380.9 140h11.3v11.2H380.9V140Z" class="g2_142"/>
<path d="M403.5 140h11.2v11.2H403.5V140Z" class="g0_142"/>
<path d="M403.5 140h11.2v11.2H403.5V140Z" class="g2_142"/>
<path d="M414.7 140H426v11.2H414.7V140Z" class="g0_142"/>
<path d="M414.7 140H426v11.2H414.7V140Z" class="g2_142"/>
<path d="M516.2 140h11.3v11.2H516.2V140Z" class="g3_142"/>
<path d="M516.2 140h11.3v11.2H516.2V140Z" class="g2_142"/>
<path d="M538.8 140H550v11.2H538.8V140Z" class="g3_142"/>
<path d="M538.8 140H550v11.2H538.8V140Z" class="g2_142"/>
<path d="M426 140h11.3v11.2H426V140Z" class="g0_142"/>
<path d="M426 140h11.3v11.2H426V140Z" class="g2_142"/>
<path d="M437.3 140h11.3v11.2H437.3V140Z" class="g3_142"/>
<path d="M437.3 140h11.3v11.2H437.3V140Z" class="g2_142"/>
<path d="M459.8 140h11.3v11.2H459.8V140Z" class="g3_142"/>
<path d="M459.8 140h11.3v11.2H459.8V140Z" class="g2_142"/>
<path d="M482.4 140h11.3v11.2H482.4V140Z" class="g3_142"/>
<path d="M482.4 140h11.3v11.2H482.4V140Z" class="g2_142"/>
<path d="M504.9 140h11.3v11.2H504.9V140Z" class="g3_142"/>
<path d="M504.9 140h11.3v11.2H504.9V140Z" class="g2_142"/>
<path d="M527.5 140h11.3v11.2H527.5V140Z" class="g3_142"/>
<path d="M527.5 140h11.3v11.2H527.5V140Z" class="g2_142"/>
<path d="M448.6 140h11.2v11.2H448.6V140Z" class="g3_142"/>
<path d="M448.6 140h11.2v11.2H448.6V140Z" class="g2_142"/>
<path d="M471.1 140h11.3v11.2H471.1V140Z" class="g3_142"/>
<path d="M471.1 140h11.3v11.2H471.1V140Z" class="g2_142"/>
<path d="M493.7 140h11.2v11.2H493.7V140Z" class="g3_142"/>
<path d="M493.7 140h11.2v11.2H493.7V140Zm-307.6 0v-5.8c0 -3.8 3.8 -5.7 11.4 -5.7H358c7.6 0 11.4 -1.9 11.4 -5.7v-2.9c0 -1.9 0 -.9 0 2.9v2.8c0 2 3.8 2.9 11.5 2.9H541.3c7.6 0 11.4 1.9 11.4 5.7V140" class="g2_142"/>
<path d="M227.2 225.9H273v22.9H227.2V225.9Z" class="g1_142"/>
<path d="M227.2 225.9H273v22.9H227.2V225.9Zm86 -74.7V157c0 3.8 -3.8 5.7 -11.5 5.7H262.6c-7.6 0 -11.4 1.9 -11.4 5.7v2.9c0 1.9 0 .9 0 -2.9v-2.8c0 -1.9 -3.9 -2.9 -11.5 -2.9H200.6c-7.6 0 -11.5 -1.9 -11.5 -5.7v-5.8m248.1 0V157c0 3.8 -3.8 5.7 -11.4 5.7H386.7c-7.7 0 -11.5 1.9 -11.5 5.7v2.9c0 1.9 0 .9 0 -2.9v-2.8c0 -1.9 -3.8 -2.9 -11.4 -2.9H324.6c-7.6 0 -11.4 -1.9 -11.4 -5.7v-5.8m236.9 0V157c0 3.8 -3.9 5.7 -11.5 5.7H505.1c-7.6 0 -11.4 1.9 -11.4 5.7v2.9c0 1.9 0 .9 0 -2.9v-2.8c0 -1.9 -3.8 -2.9 -11.5 -2.9H448.8c-7.7 0 -11.5 -1.9 -11.5 -5.7v-5.8" class="g2_142"/>
<path d="M273 225.9h45.9v22.9H273V225.9Z" class="g1_142"/>
<path d="M273 225.9h45.9v22.9H273V225.9Z" class="g2_142"/>
<path d="M318.9 225.9h45.8v22.9H318.9V225.9Z" class="g1_142"/>
<path d="M318.9 225.9h45.8v22.9H318.9V225.9Z" class="g2_142"/>
<path d="M364.7 225.9h45.8v22.9H364.7V225.9Z" class="g1_142"/>
<path d="M364.7 225.9h45.8v22.9H364.7V225.9Z" class="g2_142"/>
<path d="M227.2 248.8H273v22.9H227.2V248.8Z" class="g1_142"/>
<path d="M227.2 248.8H273v22.9H227.2V248.8Z" class="g2_142"/>
<path d="M273 248.8h45.9v22.9H273V248.8Z" class="g1_142"/>
<path d="M273 248.8h45.9v22.9H273V248.8Z" class="g2_142"/>
<path d="M318.9 248.8h45.8v22.9H318.9V248.8Z" class="g1_142"/>
<path d="M318.9 248.8h45.8v22.9H318.9V248.8Z" class="g2_142"/>
<path d="M364.7 248.8h45.8v22.9H364.7V248.8Z" class="g1_142"/>
<path d="M364.7 248.8h45.8v22.9H364.7V248.8Z" class="g2_142"/>
<path d="M227.2 271.7H273v23H227.2v-23Z" class="g1_142"/>
<path d="M227.2 271.7H273v23H227.2v-23Z" class="g2_142"/>
<path d="M273 271.7h45.9v23H273v-23Z" class="g1_142"/>
<path d="M273 271.7h45.9v23H273v-23Z" class="g2_142"/>
<path d="M364.7 271.7h45.8v23H364.7v-23Z" class="g1_142"/>
<path d="M364.7 271.7h45.8v23H364.7v-23Z" class="g2_142"/>
<path d="M227.2 294.7H273v22.9H227.2V294.7Z" class="g1_142"/>
<path d="M227.2 294.7H273v22.9H227.2V294.7Z" class="g2_142"/>
<path d="M273 294.7h45.9v22.9H273V294.7Z" class="g1_142"/>
<path d="M273 294.7h45.9v22.9H273V294.7Z" class="g2_142"/>
<path d="M318.9 294.7h45.8v22.9H318.9V294.7Z" class="g1_142"/>
<path d="M318.9 294.7h45.8v22.9H318.9V294.7Z" class="g2_142"/>
<path d="M364.7 294.7h45.8v22.9H364.7V294.7Z" class="g1_142"/>
<path d="M364.7 294.7h45.8v22.9H364.7V294.7Z" class="g2_142"/>
<path d="M250.1 197.1l-.1 29.6c0 7.6 3.8 11.5 11.5 11.5h68.8c7.7 0 11.5 3.8 11.5 11.4v18.9" class="g4_142"/>
<path d="M341.8 272.8l-1.9 -5.7l1.9 1.4l1.9 -1.4l-1.9 5.7Z" class="g0_142"/>
<path d="M341.8 272.8l-1.9 -5.7l1.9 1.4l1.9 -1.4l-1.9 5.7Z" class="g4_142"/>
<path d="M250.1 197.1l-.1 29.6c0 7.6 3.8 11.5 11.5 11.5h68.8c7.7 0 11.5 3.8 11.5 11.4v18" class="g2_142"/>
<path d="M341.8 277.9l-4.6 -13.7l4.6 3.4l4.6 -3.4l-4.6 13.7Z" class="g5_142"/>
<path d="M341.8 277.9l-4.6 -13.7l4.6 3.4l4.6 -3.4l-4.6 13.7Z" class="g2_142"/>
<path d="M238.8 340.5h45.8v22.9H238.8V340.5Z" class="g0_142"/>
<path d="M238.8 340.5h45.8v22.9H238.8V340.5Z" class="g2_142"/>
<path d="M284.6 340.5h45.9v22.9H284.6V340.5Z" class="g0_142"/>
<path d="M284.6 340.5h45.9v22.9H284.6V340.5Z" class="g2_142"/>
<path d="M330.5 340.5h45.8v22.9H330.5V340.5Z" class="g0_142"/>
<path d="M330.5 340.5h45.8v22.9H330.5V340.5Z" class="g2_142"/>
<path d="M376.3 340.5h45.8v22.9H376.3V340.5Z" class="g0_142"/>
<path d="M376.3 340.5h45.8v22.9H376.3V340.5Z" class="g2_142"/>
<path d="M238.8 363.4h45.8v22.9H238.8V363.4Z" class="g0_142"/>
<path d="M238.8 363.4h45.8v22.9H238.8V363.4Z" class="g2_142"/>
<path d="M284.6 363.4h45.9v22.9H284.6V363.4Z" class="g0_142"/>
<path d="M284.6 363.4h45.9v22.9H284.6V363.4Z" class="g2_142"/>
<path d="M330.5 363.4h45.8v22.9H330.5V363.4Z" class="g0_142"/>
<path d="M330.5 363.4h45.8v22.9H330.5V363.4Z" class="g2_142"/>
<path d="M376.3 363.4h45.8v22.9H376.3V363.4Z" class="g0_142"/>
<path d="M376.3 363.4h45.8v22.9H376.3V363.4Z" class="g2_142"/>
<path d="M238.8 386.3h45.8v22.9H238.8V386.3Z" class="g0_142"/>
<path d="M238.8 386.3h45.8v22.9H238.8V386.3Z" class="g2_142"/>
<path d="M284.6 386.3h45.9v22.9H284.6V386.3Z" class="g0_142"/>
<path d="M284.6 386.3h45.9v22.9H284.6V386.3Z" class="g2_142"/>
<path d="M330.5 386.3h45.8v22.9H330.5V386.3Z" class="g0_142"/>
<path d="M330.5 386.3h45.8v22.9H330.5V386.3Z" class="g2_142"/>
<path d="M376.3 386.3h45.8v22.9H376.3V386.3Z" class="g0_142"/>
<path d="M376.3 386.3h45.8v22.9H376.3V386.3Z" class="g2_142"/>
<path d="M238.8 409.2h45.8v23H238.8v-23Z" class="g0_142"/>
<path d="M238.8 409.2h45.8v23H238.8v-23Z" class="g2_142"/>
<path d="M284.6 409.2h45.9v23H284.6v-23Z" class="g0_142"/>
<path d="M284.6 409.2h45.9v23H284.6v-23Z" class="g2_142"/>
<path d="M330.5 409.2h45.8v23H330.5v-23Z" class="g0_142"/>
<path d="M330.5 409.2h45.8v23H330.5v-23Z" class="g2_142"/>
<path d="M376.3 409.2h45.8v23H376.3v-23Z" class="g0_142"/>
<path d="M376.3 409.2h45.8v23H376.3v-23Z" class="g2_142"/>
<path d="M250.3 351.9h45.8v23H250.3v-23Z" class="g0_142"/>
<path d="M250.3 351.9h45.8v23H250.3v-23Z" class="g2_142"/>
<path d="M296.1 351.9h45.8v23H296.1v-23Z" class="g0_142"/>
<path d="M296.1 351.9h45.8v23H296.1v-23Z" class="g2_142"/>
<path d="M341.9 351.9h45.9v23H341.9v-23Z" class="g0_142"/>
<path d="M341.9 351.9h45.9v23H341.9v-23Z" class="g2_142"/>
<path d="M387.8 351.9h45.8v23H387.8v-23Z" class="g0_142"/>
<path d="M387.8 351.9h45.8v23H387.8v-23Z" class="g2_142"/>
<path d="M250.3 374.9h45.8v22.9H250.3V374.9Z" class="g0_142"/>
<path d="M250.3 374.9h45.8v22.9H250.3V374.9Z" class="g2_142"/>
<path d="M296.1 374.9h45.8v22.9H296.1V374.9Z" class="g0_142"/>
<path d="M296.1 374.9h45.8v22.9H296.1V374.9Z" class="g2_142"/>
<path d="M341.9 374.9h45.9v22.9H341.9V374.9Z" class="g0_142"/>
<path d="M341.9 374.9h45.9v22.9H341.9V374.9Z" class="g2_142"/>
<path d="M387.8 374.9h45.8v22.9H387.8V374.9Z" class="g0_142"/>
<path d="M387.8 374.9h45.8v22.9H387.8V374.9Z" class="g2_142"/>
<path d="M250.3 397.8h45.8v22.9H250.3V397.8Z" class="g0_142"/>
<path d="M250.3 397.8h45.8v22.9H250.3V397.8Z" class="g2_142"/>
<path d="M296.1 397.8h45.8v22.9H296.1V397.8Z" class="g0_142"/>
<path d="M296.1 397.8h45.8v22.9H296.1V397.8Z" class="g2_142"/>
<path d="M341.9 397.8h45.9v22.9H341.9V397.8Z" class="g0_142"/>
<path d="M341.9 397.8h45.9v22.9H341.9V397.8Z" class="g2_142"/>
<path d="M387.8 397.8h45.8v22.9H387.8V397.8Z" class="g0_142"/>
<path d="M387.8 397.8h45.8v22.9H387.8V397.8Z" class="g2_142"/>
<path d="M250.3 420.7h45.8v22.9H250.3V420.7Z" class="g0_142"/>
<path d="M250.3 420.7h45.8v22.9H250.3V420.7Z" class="g2_142"/>
<path d="M296.1 420.7h45.8v22.9H296.1V420.7Z" class="g0_142"/>
<path d="M296.1 420.7h45.8v22.9H296.1V420.7Z" class="g2_142"/>
<path d="M341.9 420.7h45.9v22.9H341.9V420.7Z" class="g0_142"/>
<path d="M341.9 420.7h45.9v22.9H341.9V420.7Z" class="g2_142"/>
<path d="M387.8 420.7h45.8v22.9H387.8V420.7Z" class="g0_142"/>
<path d="M387.8 420.7h45.8v22.9H387.8V420.7Z" class="g2_142"/>
<path d="M261.7 363.4h45.8v22.9H261.7V363.4Z" class="g0_142"/>
<path d="M261.7 363.4h45.8v22.9H261.7V363.4Z" class="g2_142"/>
<path d="M307.5 363.4h45.9v22.9H307.5V363.4Z" class="g0_142"/>
<path d="M307.5 363.4h45.9v22.9H307.5V363.4Z" class="g2_142"/>
<path d="M353.4 363.4h45.8v22.9H353.4V363.4Z" class="g0_142"/>
<path d="M353.4 363.4h45.8v22.9H353.4V363.4Z" class="g2_142"/>
<path d="M399.2 363.4H445v22.9H399.2V363.4Z" class="g0_142"/>
<path d="M399.2 363.4H445v22.9H399.2V363.4Z" class="g2_142"/>
<path d="M261.7 386.3h45.8v22.9H261.7V386.3Z" class="g0_142"/>
<path d="M261.7 386.3h45.8v22.9H261.7V386.3Z" class="g2_142"/>
<path d="M307.5 386.3h45.9v22.9H307.5V386.3Z" class="g0_142"/>
<path d="M307.5 386.3h45.9v22.9H307.5V386.3Z" class="g2_142"/>
<path d="M353.4 386.3h45.8v22.9H353.4V386.3Z" class="g0_142"/>
<path d="M353.4 386.3h45.8v22.9H353.4V386.3Z" class="g2_142"/>
<path d="M399.2 386.3H445v22.9H399.2V386.3Z" class="g0_142"/>
<path d="M399.2 386.3H445v22.9H399.2V386.3Z" class="g2_142"/>
<path d="M261.7 409.2h45.8v23H261.7v-23Z" class="g0_142"/>
<path d="M261.7 409.2h45.8v23H261.7v-23Z" class="g2_142"/>
<path d="M307.5 409.2h45.9v23H307.5v-23Z" class="g0_142"/>
<path d="M307.5 409.2h45.9v23H307.5v-23Z" class="g2_142"/>
<path d="M353.4 409.2h45.8v23H353.4v-23Z" class="g0_142"/>
<path d="M353.4 409.2h45.8v23H353.4v-23Z" class="g2_142"/>
<path d="M399.2 409.2H445v23H399.2v-23Z" class="g0_142"/>
<path d="M399.2 409.2H445v23H399.2v-23Z" class="g2_142"/>
<path d="M261.7 432.2h45.8v22.9H261.7V432.2Z" class="g0_142"/>
<path d="M261.7 432.2h45.8v22.9H261.7V432.2Z" class="g2_142"/>
<path d="M307.5 432.2h45.9v22.9H307.5V432.2Z" class="g0_142"/>
<path d="M307.5 432.2h45.9v22.9H307.5V432.2Z" class="g2_142"/>
<path d="M353.4 432.2h45.8v22.9H353.4V432.2Z" class="g0_142"/>
<path d="M353.4 432.2h45.8v22.9H353.4V432.2Z" class="g2_142"/>
<path d="M399.2 432.2H445v22.9H399.2V432.2Z" class="g0_142"/>
<path d="M399.2 432.2H445v22.9H399.2V432.2Z" class="g2_142"/>
<path d="M341.8 287.2v26.7c0 7.6 -3.8 11.5 -11.5 11.5H273.2c-7.7 0 -11.5 3.8 -11.5 11.4V351" class="g4_142"/>
<path d="M261.7 357L259 349l2.7 2l2.7 -2l-2.7 8Z" class="g0_142"/>
<path d="M261.7 357L259 349l2.7 2l2.7 -2l-2.7 8Z" class="g4_142"/>
<path d="M341.8 287.2v26.7c0 7.6 -3.8 11.5 -11.5 11.5H273.2c-7.7 0 -11.5 3.8 -11.5 11.4v19.3" class="g2_142"/>
<path d="M261.7 362.1l-2.7 -8l2.7 2l2.7 -2l-2.7 8Z" class="g5_142"/>
<path d="M261.7 362.1l-2.7 -8l2.7 2l2.7 -2l-2.7 8Z" class="g2_142"/>
<path d="M236.5 483.7h57.3v34.4H236.5V483.7Z" class="g3_142"/>
<path clip-path="url(#c0_142)" d="M236.5 483.7h57.3v34.4H236.5V483.7Z" class="g2_142"/>
<path d="M293.8 483.7h57.3V518H293.8V483.7Z" class="g3_142"/>
<path d="M293.8 483.7h57.3V518H293.8V483.7Z" class="g2_142"/>
<path d="M351.1 483.8h57.3v34.3H351.1V483.8Z" class="g3_142"/>
<path clip-path="url(#c0_142)" d="M351.1 483.8h57.3v34.3H351.1V483.8Z" class="g2_142"/>
<path d="M408.4 483.7h57.3V518H408.4V483.7Z" class="g3_142"/>
<path d="M408.4 483.7h57.3V518H408.4V483.7Z" class="g2_142"/>
<path d="M465.7 483.8H523v34.3H465.7V483.8Z" class="g3_142"/>
<path clip-path="url(#c0_142)" d="M465.7 483.8H523v34.3H465.7V483.8Z" class="g2_142"/>
<path d="M523 483.7h57.2V518H523V483.7Z" class="g3_142"/>
<path d="M523 483.7h57.2V518H523V483.7Z" class="g2_142"/>
<path d="M580.2 483.7h57.3V518H580.2V483.7Z" class="g3_142"/>
<path d="M580.2 483.7h57.3V518H580.2V483.7Z" class="g2_142"/>
<path d="M422.1 401.8v53.3c0 7.6 -3.8 11.4 -11.4 11.4H225c-7.6 0 -11.4 3.8 -11.4 11.5v11.4c0 7.7 .9 11.5 2.7 11.5h2.6" class="g4_142"/>
<path d="M230.1 500.9l-14.9 5l3.7 -5l-3.7 -5l14.9 5Z" class="g0_142"/>
<path d="M230.1 500.9l-14.9 5l3.7 -5l-3.7 -5l14.9 5Z" class="g4_142"/>
<path d="M422.1 401.8v53.3c0 7.6 -3.8 11.4 -11.4 11.4H225c-7.6 0 -11.4 3.8 -11.4 11.5v11.4c0 7.7 2.6 11.5 7.8 11.5h7.8" class="g2_142"/>
<path d="M235.2 500.9l-8 2.7l2 -2.7l-2 -2.7l8 2.7Z" class="g5_142"/>
<path d="M235.2 500.9l-8 2.7l2 -2.7l-2 -2.7l8 2.7Z" class="g2_142"/>
<path d="M498.3 501c0 .5 -.1 1 -.3 1.5c-.2 .5 -.5 .9 -.9 1.3c-.3 .4 -.8 .7 -1.3 .9c-.4 .2 -1 .3 -1.5 .3c-.5 0 -1 -.1 -1.5 -.3c-.5 -.2 -.9 -.5 -1.3 -.9c-.4 -.4 -.7 -.8 -.9 -1.3c-.2 -.5 -.3 -1 -.3 -1.5c0 -.6 .1 -1.1 .3 -1.6c.2 -.5 .5 -.9 .9 -1.3c.4 -.4 .8 -.7 1.3 -.9c.5 -.2 1 -.3 1.5 -.3c.5 0 1.1 .1 1.5 .3c.5 .2 1 .5 1.3 .9c.4 .4 .7 .8 .9 1.3c.2 .5 .3 1 .3 1.6Z" class="g5_142"/>
<path d="M498.3 501c0 .5 -.1 1 -.3 1.5c-.2 .5 -.5 .9 -.9 1.3c-.3 .4 -.8 .7 -1.3 .9c-.4 .2 -1 .3 -1.5 .3c-.5 0 -1 -.1 -1.5 -.3c-.5 -.2 -.9 -.5 -1.3 -.9c-.4 -.4 -.7 -.8 -.9 -1.3c-.2 -.5 -.3 -1 -.3 -1.5c0 -.6 .1 -1.1 .3 -1.6c.2 -.5 .5 -.9 .9 -1.3c.4 -.4 .8 -.7 1.3 -.9c.5 -.2 1 -.3 1.5 -.3c.5 0 1.1 .1 1.5 .3c.5 .2 1 .5 1.3 .9c.4 .4 .7 .8 .9 1.3c.2 .5 .3 1 .3 1.6ZM493.8 197.1l.5 292.5" class="g2_142"/>
<path d="M494.3 495.7l-2.7 -8.1l2.7 2l2.7 -2l-2.7 8.1Z" class="g5_142"/>
<path d="M494.3 495.7l-2.7 -8.1l2.7 2l2.7 -2l-2.7 8.1Z" class="g2_142"/>
<path d="M426.1 397.8c0 .5 -.1 1 -.3 1.5c-.2 .5 -.5 .9 -.8 1.3c-.4 .4 -.8 .7 -1.3 .9c-.5 .2 -1 .3 -1.6 .3c-.5 0 -1 -.1 -1.5 -.3c-.5 -.2 -.9 -.5 -1.3 -.9c-.4 -.4 -.7 -.8 -.9 -1.3c-.2 -.5 -.3 -1 -.3 -1.5c0 -.6 .1 -1.1 .3 -1.6c.2 -.4 .5 -.9 .9 -1.3c.4 -.3 .8 -.6 1.3 -.8c.5 -.2 1 -.3 1.5 -.3c.6 0 1.1 .1 1.6 .3c.5 .2 .9 .5 1.3 .8c.3 .4 .6 .9 .8 1.3c.2 .5 .3 1 .3 1.6Z" class="g5_142"/>
<path d="M426.1 397.8c0 .5 -.1 1 -.3 1.5c-.2 .5 -.5 .9 -.8 1.3c-.4 .4 -.8 .7 -1.3 .9c-.5 .2 -1 .3 -1.6 .3c-.5 0 -1 -.1 -1.5 -.3c-.5 -.2 -.9 -.5 -1.3 -.9c-.4 -.4 -.7 -.8 -.9 -1.3c-.2 -.5 -.3 -1 -.3 -1.5c0 -.6 .1 -1.1 .3 -1.6c.2 -.4 .5 -.9 .9 -1.3c.4 -.3 .8 -.6 1.3 -.8c.5 -.2 1 -.3 1.5 -.3c.6 0 1.1 .1 1.6 .3c.5 .2 .9 .5 1.3 .8c.3 .4 .6 .9 .8 1.3c.2 .5 .3 1 .3 1.6Z" class="g2_142"/>
<path d="M374.3 191.3v5.9c0 3.8 3.9 5.8 11.5 5.8h24.9c7.6 0 11.4 3.8 11.4 11.4V380.2" class="g4_142"/>
<path d="M422.1 391.4l-4.9 -14.9l4.9 3.7l5 -3.7l-5 14.9Z" class="g0_142"/>
<path d="M422.1 391.4l-4.9 -14.9l4.9 3.7l5 -3.7l-5 14.9Z" class="g4_142"/>
<path d="M374.3 191.3v5.9c0 3.8 3.9 5.8 11.5 5.8h24.9c7.6 0 11.4 3.8 11.4 11.4V390.5" class="g2_142"/>
<path d="M422.1 396.5l-2.6 -8l2.6 2l2.7 -2l-2.7 8Z" class="g5_142"/>
<path d="M422.1 396.5l-2.6 -8l2.6 2l2.7 -2l-2.7 8Z" class="g2_142"/>
</g>
</svg>