<?xml version="1.0" encoding="UTF-8" standalone="no"?>
<!DOCTYPE svg PUBLIC "-//W3C//DTD SVG 1.1//EN"
"http://www.w3.org/Graphics/SVG/1.1/DTD/svg11.dtd">
<svg viewBox="0 0 714 1017" version="1.1" xmlns="http://www.w3.org/2000/svg" xmlns:xlink="http://www.w3.org/1999/xlink">
<defs>
<clipPath id="c0_356"><path d="M133.6 315.5V97H602.3V315.5Z"/></clipPath>
<clipPath id="c1_356"><path d="M133.6 315.5V95.5H602.7v220Z"/></clipPath>
<style type="text/css"><![CDATA[
.g0_356{
fill: #FFF;
}
.g1_356{
fill: none;
stroke: #000;
stroke-width: 1.145;
stroke-miterlimit: 10;
}
.g2_356{
fill: none;
stroke: #000;
stroke-width: 2.291;
stroke-miterlimit: 10;
}
.g3_356{
fill: #000;
}
]]></style>
</defs>
<path d="M0 1017.7H717.2V-3.7H0V1017.7Z" class="g0_356"/>
<g clip-path="url(#c1_356)">
<path clip-path="url(#c0_356)" d="M133.6 97H602.3V315.9H133.6V97Z" class="g0_356"/>
<path d="M146.2 97.6H258.5c.8 0 1.6 .1 2.4 .2c.7 .2 1.5 .4 2.2 .7c.8 .3 1.5 .7 2.1 1.1c.7 .4 1.3 .9 1.8 1.5c.6 .6 1.1 1.2 1.5 1.8c.5 .7 .8 1.4 1.1 2.1c.3 .7 .6 1.5 .7 2.3c.2 .7 .3 1.5 .3 2.3v56.2c0 .7 -.1 1.5 -.3 2.3c-.1 .8 -.4 1.5 -.7 2.3c-.3 .7 -.6 1.4 -1.1 2c-.4 .7 -.9 1.3 -1.5 1.9c-.5 .5 -1.1 1 -1.8 1.5c-.6 .4 -1.3 .8 -2.1 1.1c-.7 .3 -1.5 .5 -2.2 .7c-.8 .1 -1.6 .2 -2.4 .2H146.2c-.8 0 -1.5 -.1 -2.3 -.2c-.8 -.2 -1.5 -.4 -2.3 -.7c-.7 -.3 -1.4 -.7 -2.1 -1.1c-.6 -.5 -1.2 -1 -1.8 -1.5c-.5 -.6 -1 -1.2 -1.5 -1.9c-.4 -.6 -.8 -1.3 -1.1 -2c-.3 -.8 -.5 -1.5 -.7 -2.3c-.1 -.8 -.2 -1.6 -.2 -2.3V109.6c0 -.8 .1 -1.6 .2 -2.3c.2 -.8 .4 -1.6 .7 -2.3c.3 -.7 .7 -1.4 1.1 -2.1c.5 -.6 1 -1.2 1.5 -1.8c.6 -.6 1.2 -1.1 1.8 -1.5c.7 -.4 1.4 -.8 2.1 -1.1c.8 -.3 1.5 -.5 2.3 -.7c.8 -.1 1.5 -.2 2.3 -.2Z" class="g0_356"/>
<path d="M146.2 97.6H258.5c.8 0 1.6 .1 2.4 .2c.7 .2 1.5 .4 2.2 .7c.8 .3 1.5 .7 2.1 1.1c.7 .4 1.3 .9 1.8 1.5c.6 .6 1.1 1.2 1.5 1.8c.5 .7 .8 1.4 1.1 2.1c.3 .7 .6 1.5 .7 2.3c.2 .7 .3 1.5 .3 2.3v56.2c0 .7 -.1 1.5 -.3 2.3c-.1 .8 -.4 1.5 -.7 2.3c-.3 .7 -.6 1.4 -1.1 2c-.4 .7 -.9 1.3 -1.5 1.9c-.5 .5 -1.1 1 -1.8 1.5c-.6 .4 -1.3 .8 -2.1 1.1c-.7 .3 -1.5 .5 -2.2 .7c-.8 .1 -1.6 .2 -2.4 .2H146.2c-.8 0 -1.5 -.1 -2.3 -.2c-.8 -.2 -1.5 -.4 -2.3 -.7c-.7 -.3 -1.4 -.7 -2.1 -1.1c-.6 -.5 -1.2 -1 -1.8 -1.5c-.5 -.6 -1 -1.2 -1.5 -1.9c-.4 -.6 -.8 -1.3 -1.1 -2c-.3 -.8 -.5 -1.5 -.7 -2.3c-.1 -.8 -.2 -1.6 -.2 -2.3V109.6c0 -.8 .1 -1.6 .2 -2.3c.2 -.8 .4 -1.6 .7 -2.3c.3 -.7 .7 -1.4 1.1 -2.1c.5 -.6 1 -1.2 1.5 -1.8c.6 -.6 1.2 -1.1 1.8 -1.5c.7 -.4 1.4 -.8 2.1 -1.1c.8 -.3 1.5 -.5 2.3 -.7c.8 -.1 1.5 -.2 2.3 -.2Z" class="g1_356"/>
<path d="M483.7 97.6h80.2v80.2H483.7V97.6Z" class="g0_356"/>
<path d="M483.7 97.6h80.2v80.2H483.7V97.6Z" class="g1_356"/>
<path d="M151.4 246.5h68.7v68.8H151.4V246.5Z" class="g0_356"/>
<path clip-path="url(#c0_356)" d="M151.4 246.5h68.7v68.8H151.4V246.5Z" class="g1_356"/>
<path d="M334.7 246.5h68.8v68.8H334.7V246.5Z" class="g0_356"/>
<path clip-path="url(#c0_356)" d="M334.7 246.5h68.8v68.8H334.7V246.5Z" class="g1_356"/>
<path d="M518.1 246.5h68.7v68.8H518.1V246.5Z" class="g0_356"/>
<path clip-path="url(#c0_356)" d="M518.1 246.5h68.7v68.8H518.1V246.5Z" class="g1_356"/>
<path d="M270.6 117.6H474.2" class="g2_356"/>
<path d="M481.1 117.6l-9.2 3.1l2.3 -3.1l-2.3 -3l9.2 3Z" class="g3_356"/>
<path d="M481.1 117.6l-9.2 3.1l2.3 -3.1l-2.3 -3l9.2 3Z" class="g2_356"/>
<path d="M333.6 110.2h88.2v17.2H333.6V110.2Z" class="g0_356"/>
<path d="M168.3 177.8l.2 59.3" class="g2_356"/>
<path d="M168.6 244l-3.1 -9.2l3 2.3l3.1 -2.3l-3 9.2Z" class="g3_356"/>
<path d="M168.6 244l-3.1 -9.2l3 2.3l3.1 -2.3l-3 9.2Z" class="g2_356"/>
<path d="M142.2 181.2h53.9v17.2H142.2V181.2Z" class="g0_356"/>
<path d="M403.5 263.7H508.6" class="g2_356"/>
<path d="M515.5 263.7l-9.2 3.1l2.3 -3.1l-2.3 -3l9.2 3Z" class="g3_356"/>
<path d="M515.5 263.7l-9.2 3.1l2.3 -3.1l-2.3 -3l9.2 3Z" class="g2_356"/>
<path d="M431 256.8h60.7V274H431V256.8Z" class="g0_356"/>
<path d="M220.1 263.7H325.3" class="g2_356"/>
<path d="M332.2 263.7l-9.2 3.1l2.3 -3.1l-2.3 -3l9.2 3Z" class="g3_356"/>
<path d="M332.2 263.7l-9.2 3.1l2.3 -3.1l-2.3 -3l9.2 3Z" class="g2_356"/>
<path d="M246.5 256.8h64.2V274H246.5V256.8Z" class="g0_356"/>
<path d="M518.1 298.1H412.9" class="g2_356"/>
<path d="M406 298.1l9.2 -3.1l-2.3 3.1l2.3 3.1L406 298.1Z" class="g3_356"/>
<path d="M406 298.1l9.2 -3.1l-2.3 3.1l2.3 3.1L406 298.1Z" class="g2_356"/>
<path d="M432.1 291.2h59.6v17.2H432.1V291.2Z" class="g0_356"/>
<path d="M334.7 298.1H229.6" class="g2_356"/>
<path d="M222.7 298.1l9.2 -3.1l-2.3 3.1l2.3 3.1l-9.2 -3.1Z" class="g3_356"/>
<path d="M222.7 298.1l9.2 -3.1l-2.3 3.1l2.3 3.1l-9.2 -3.1Z" class="g2_356"/>
<path d="M246.5 291.2h63v17.2h-63V291.2Z" class="g0_356"/>
<path d="M202.9 246.5l-.4 -59.3" class="g2_356"/>
<path d="M202.4 180.3l3.1 9.2l-3 -2.3l-3.1 2.3l3 -9.2Z" class="g3_356"/>
<path d="M202.4 180.3l3.1 9.2l-3 -2.3l-3.1 2.3l3 -9.2Z" class="g2_356"/>
<path d="M178.9 216.7h49.3v17.2H178.9V216.7Z" class="g0_356"/>
<path d="M483.7 137.7H280" class="g2_356"/>
<path d="M273.1 137.7l9.2 -3.1l-2.3 3.1l2.3 3l-9.2 -3Z" class="g3_356"/>
<path d="M273.1 137.7l9.2 -3.1l-2.3 3.1l2.3 3l-9.2 -3Z" class="g2_356"/>
<path d="M332.4 130.8h90.5V148H332.4V130.8Z" class="g0_356"/>
<path d="M270.6 157.7H474.2" class="g2_356"/>
<path d="M481.1 157.7l-9.2 3.1l2.3 -3.1l-2.3 -3l9.2 3Z" class="g3_356"/>
<path d="M481.1 157.7l-9.2 3.1l2.3 -3.1l-2.3 -3l9.2 3Z" class="g2_356"/>
<path d="M332.4 150.3h90.5v17.2H332.4V150.3Z" class="g0_356"/>
<path d="M569.1 246.7l-.4 -1l1.1 -.4l.4 1m-1.9 -1.7l-.4 -1.1l1 -.4l.4 1.1m-1.8 -1.8l-.4 -1l1 -.4l.4 1m-1.8 -1.7l-.4 -1.1l1 -.4l.4 1.1m-1.8 -1.8l-.4 -1l1 -.4l.4 1M565.1 236l-.4 -1.1l1 -.4l.4 1.1m-1.8 -1.7l-.4 -1.1l1 -.4l.4 1.1m-1.9 -1.8l-.4 -1.1l1.1 -.4l.4 1.1m-1.9 -1.7l-.4 -1.1l1.1 -.4l.4 1.1m-1.9 -1.8l-.4 -1.1l1.1 -.4l.4 1.1M561 225.3l-.4 -1.1l1.1 -.4l.4 1.1m-1.9 -1.8l-.4 -1l1.1 -.4l.4 1M559.4 221l-.4 -1.1l1.1 -.4l.4 1.1m-1.9 -1.8l-.4 -1l1.1 -.4l.4 1m-1.9 -1.7l-.4 -1.1l1.1 -.4l.4 1.1M557 214.5l-.4 -1l1.1 -.4l.4 1m-1.9 -1.7l-.4 -1.1l1.1 -.4l.4 1.1m-1.9 -1.7l-.4 -1.1l1.1 -.4l.4 1.1m-1.9 -1.8l-.4 -1.1l1.1 -.4l.4 1.1M553.8 206l-.4 -1.1l1.1 -.4l.4 1.1M553 203.8l-.4 -1.1l1.1 -.4l.4 1.1m-1.9 -1.7l-.4 -1.1l1.1 -.4l.4 1.1m-1.9 -1.8l-.4 -1l1.1 -.5l.4 1.1m-1.9 -1.7l-.4 -1.1l1 -.4l.4 1.1m-1.8 -1.8l-.4 -1l1 -.4l.4 1M549 193.1l-.4 -1.1l1 -.4l.4 1.1m-1.8 -1.8l-.4 -1l1 -.4l.4 1m-1.8 -1.7l-.4 -1.1l1 -.4l.4 1.1m-1.8 -1.8l-.4 -1l1 -.4l.4 1Z" class="g3_356"/>
<path d="M544.3 179l5.3 6.6l-3.2 -1l-1.8 2.8l-.3 -8.4Z" class="g3_356"/>
<path d="M544.3 179l5.3 6.6l-3.2 -1l-1.8 2.8l-.3 -8.4Z" class="g1_356"/>
<path d="M515.8 192.7h85.9v17.2H515.8V192.7Z" class="g0_356"/>
<path d="M202.8 246l1.1 -.3l.3 1.1l-1.1 .3m2 -1.6l1.1 -.3l.2 1.1l-1.1 .3m2 -1.6l1.1 -.3l.3 1.1l-1.2 .3m2 -1.7l1.1 -.2l.3 1.1l-1.1 .3m2 -1.7l1.1 -.2l.2 1.1L212 245m2 -1.6l1.1 -.2l.3 1.1l-1.2 .2m2 -1.6l1.1 -.2l.3 1.1l-1.1 .2m2 -1.6l1.1 -.3l.2 1.2l-1.1 .2m2 -1.6l1.1 -.3l.3 1.1L221 243m1.9 -1.6l1.1 -.3l.3 1.1l-1.1 .3m2 -1.6l1.1 -.3l.2 1.1l-1.1 .3m2 -1.6l1.1 -.3l.3 1.1l-1.1 .3m1.9 -1.7l1.1 -.2l.3 1.1l-1.1 .3m2 -1.7l1.1 -.2l.2 1.1l-1.1 .3m2 -1.7l1.1 -.2l.3 1.1l-1.1 .2m1.9 -1.6l1.2 -.2l.2 1.1l-1.1 .2m2 -1.6l1.1 -.3l.2 1.2l-1.1 .2m2 -1.6l1.1 -.3l.3 1.2l-1.1 .2m1.9 -1.6l1.2 -.3l.2 1.1l-1.1 .3m2 -1.6l1.1 -.3l.2 1.1l-1.1 .3m2 -1.6l1.1 -.3l.3 1.1l-1.1 .3m1.9 -1.7l1.2 -.2l.2 1.1l-1.1 .3m2 -1.7l1.1 -.2l.2 1.1l-1.1 .3m2 -1.7l1.1 -.2l.3 1.1l-1.1 .2m1.9 -1.6l1.2 -.2l.2 1.1l-1.1 .2m2 -1.6l1.1 -.2l.2 1.1l-1.1 .2m2 -1.6l1.1 -.3l.3 1.2l-1.1 .2m1.9 -1.6l1.2 -.3l.2 1.1l-1.1 .3m2 -1.6l1.1 -.3l.2 1.1l-1.1 .3m2 -1.6l1.1 -.3l.3 1.1l-1.1 .3m1.9 -1.6l1.2 -.3l.2 1.1l-1.1 .3m2 -1.7l1.1 -.2l.3 1.1l-1.2 .3m2 -1.7l1.1 -.2l.3 1.1l-1.1 .2m1.9 -1.6l1.2 -.2l.2 1.1l-1.1 .2m2 -1.6l1.1 -.2l.3 1.1l-1.2 .2m2 -1.6l1.1 -.3l.3 1.2l-1.1 .2m1.9 -1.6l1.2 -.3l.2 1.2l-1.1 .2m2 -1.6l1.1 -.3l.3 1.1l-1.2 .3m2 -1.6l1.1 -.3l.3 1.1l-1.1 .3m2 -1.6l1.1 -.3l.2 1.1l-1.1 .3m2 -1.7l1.1 -.2l.3 1.1l-1.2 .3m2 -1.7l1.1 -.2l.3 1.1l-1.1 .3m2 -1.7l1.1 -.2l.2 1.1l-1.1 .2m2 -1.6l1.1 -.2l.3 1.1l-1.2 .2m2 -1.6l1.1 -.3l.3 1.2l-1.1 .2m2 -1.6l1.1 -.3l.2 1.2l-1.1 .2m2 -1.6l1.1 -.3l.3 1.1l-1.2 .3m2 -1.6l1.1 -.3l.3 1.1l-1.1 .3m2 -1.6l1.1 -.3l.2 1.1l-1.1 .3m2 -1.6l1.1 -.3l.3 1.1l-1.2 .3m2 -1.7l1.1 -.2l.3 1.1l-1.1 .3m2 -1.7l1.1 -.2l.2 1.1L317 221m2 -1.6l1.1 -.2l.3 1.1l-1.2 .2m2 -1.6l1.1 -.2l.3 1.1l-1.1 .2m2 -1.6l1.1 -.3l.2 1.2l-1.1 .2m2 -1.6l1.1 -.3l.3 1.1L326 219m1.9 -1.6l1.1 -.3l.3 1.1l-1.1 .3m2 -1.6l1.1 -.3l.2 1.1l-1.1 .3m2 -1.6l1.1 -.3l.3 1.1l-1.1 .3m1.9 -1.7l1.1 -.2l.3 1.1l-1.1 .3m2 -1.7l1.1 -.2l.2 1.1l-1.1 .3m2 -1.7l1.1 -.2l.3 1.1l-1.1 .2m1.9 -1.6l1.2 -.2l.2 1.1l-1.1 .2m2 -1.6l1.1 -.3l.2 1.2l-1.1 .2m2 -1.6l1.1 -.3l.3 1.2l-1.1 .2m1.9 -1.6l1.2 -.3l.2 1.1l-1.1 .3m2 -1.6l1.1 -.3l.2 1.1l-1.1 .3m2 -1.6l1.1 -.3l.3 1.1l-1.1 .3m1.9 -1.7l1.2 -.2l.2 1.1l-1.1 .3m2 -1.7l1.1 -.2l.2 1.1l-1.1 .3m2 -1.7l1.1 -.2l.3 1.1l-1.1 .2m1.9 -1.6l1.2 -.2l.2 1.1l-1.1 .2m2 -1.6l1.1 -.2l.2 1.1l-1.1 .2m2 -1.6l1.1 -.3l.3 1.2l-1.1 .2m1.9 -1.6l1.2 -.3l.2 1.1l-1.1 .3m2 -1.6l1.1 -.3l.2 1.1l-1.1 .3m2 -1.6l1.1 -.3l.3 1.1l-1.1 .3m1.9 -1.6l1.2 -.3l.2 1.1l-1.1 .3m2 -1.7l1.1 -.2l.3 1.1l-1.2 .3m2 -1.7l1.1 -.2l.3 1.1l-1.1 .2m1.9 -1.6l1.2 -.2l.2 1.1l-1.1 .2m2 -1.6l1.1 -.2l.3 1.1l-1.2 .2m2 -1.6l1.1 -.3l.3 1.2l-1.1 .2m1.9 -1.6l1.2 -.3l.2 1.2l-1.1 .2m2 -1.6l1.1 -.3l.3 1.1l-1.2 .3m2 -1.6l1.1 -.3l.3 1.1l-1.1 .3m2 -1.6l1.1 -.3l.2 1.1l-1.1 .3m2 -1.7l1.1 -.2l.3 1.1l-1.2 .3m2 -1.7l1.1 -.2l.3 1.1l-1.1 .3m2 -1.7l1.1 -.2l.2 1.1l-1.1 .2m2 -1.6l1.1 -.2l.3 1.1l-1.2 .2m2 -1.6l1.1 -.3l.3 1.2l-1.1 .2m2 -1.6l1.1 -.3l.2 1.2l-1.1 .2m2 -1.6l1.1 -.3l.3 1.1l-1.2 .3m2 -1.6l1.1 -.3l.3 1.1l-1.1 .3m2 -1.6l1.1 -.3l.2 1.1l-1.1 .3m2 -1.6l1.1 -.3l.3 1.1l-1.2 .3m2 -1.7l1.1 -.2l.3 1.1l-1.1 .3m2 -1.7l1.1 -.2l.2 1.1L422 197m2 -1.6l1.1 -.2l.3 1.1l-1.2 .2m2 -1.6l1.1 -.2l.3 1.1l-1.1 .2m2 -1.6l1.1 -.3l.2 1.2l-1.1 .2m2 -1.6l1.1 -.3l.3 1.1L431 195m1.9 -1.6l1.1 -.3l.3 1.1l-1.1 .3m2 -1.6l1.1 -.3l.2 1.1l-1.1 .3m2 -1.6l1.1 -.3l.3 1.1l-1.1 .3m1.9 -1.7l1.1 -.2l.3 1.1l-1.1 .3m2 -1.7l1.1 -.2l.2 1.1l-1.1 .3m2 -1.7l1.1 -.2l.3 1.1l-1.1 .2m1.9 -1.6l1.2 -.2l.2 1.1l-1.1 .2m2 -1.6l1.1 -.3l.2 1.2l-1.1 .2m2 -1.6l1.1 -.3l.3 1.2l-1.1 .2m1.9 -1.6l1.2 -.3l.2 1.1l-1.1 .3m2 -1.6l1.1 -.3l.2 1.1l-1.1 .3m2 -1.6l1.1 -.3l.3 1.1l-1.1 .3m1.9 -1.7l1.2 -.2l.2 1.1l-1.1 .3m2 -1.7l1.1 -.2l.2 1.1l-1.1 .3m2 -1.7l1.1 -.2l.3 1.1l-1.1 .2m1.9 -1.6l1.2 -.2l.2 1.1l-1.1 .2m2 -1.6l1.1 -.2l.2 1.1l-1.1 .2m2 -1.6l1.1 -.3l.3 1.2l-1.1 .2m1.9 -1.6l1.2 -.3l.2 1.1l-1.1 .3m2 -1.6l1.1 -.3l.2 1.1l-1.1 .3m2 -1.6l1.1 -.3l.3 1.1l-1.1 .3m1.9 -1.6l1.2 -.3l.2 1.1l-1.1 .3m2 -1.7l1.1 -.2l.3 1.1l-1.2 .3m2 -1.7l1.1 -.2l.3 1.1l-1.1 .2m1.9 -1.6l1.2 -.2l.2 1.1l-1.1 .2m2 -1.6l1.1 -.2l.3 1.1l-1.2 .2m2 -1.6l1.1 -.3l.3 1.2l-1.1 .2m1.9 -1.6l1.2 -.3l.2 1.2l-1.1 .2m2 -1.6l1 -.3l.2 1.2l-1 .2Z" class="g3_356"/>
<path d="M502.5 178.1l-7.2 4.4l1.3 -3.1l-2.5 -2.2l8.4 .9Z" class="g3_356"/>
<path d="M502.5 178.1l-7.2 4.4l1.3 -3.1l-2.5 -2.2l8.4 .9Z" class="g1_356"/>
<path d="M275.1 216.7h86v17.2h-86V216.7Z" class="g0_356"/>
<path d="M368.9 246l1 -.5l.5 1.1l-1.1 .5m1.7 -2l1 -.5l.5 1.1l-1.1 .4m1.7 -2l1 -.4l.5 1l-1.1 .5m1.6 -2l1.1 -.4l.5 1l-1.1 .5m1.6 -2l1.1 -.5l.5 1.1l-1.1 .4m1.6 -1.9l1.1 -.5l.4 1l-1 .5m1.6 -2l1.1 -.4l.4 1l-1 .5m1.6 -2l1.1 -.5l.4 1.1l-1 .4m1.6 -1.9l1.1 -.5l.4 1l-1 .5m1.6 -2l1.1 -.4l.4 1l-1 .5m1.6 -2l1.1 -.5l.4 1.1l-1 .4m1.6 -1.9l1 -.5l.5 1.1l-1 .4m1.6 -2l1 -.4l.5 1l-1 .5m1.6 -2l1 -.5l.5 1.1l-1 .5m1.6 -2l1 -.5l.5 1.1l-1.1 .4m1.7 -2l1 -.4l.5 1l-1.1 .5m1.7 -2l1 -.4l.5 1l-1.1 .5m1.7 -2l1 -.5l.5 1.1l-1.1 .4m1.7 -1.9l1 -.5l.5 1l-1.1 .5m1.7 -2l1 -.4l.5 1l-1.1 .5m1.6 -2l1.1 -.5l.5 1.1l-1.1 .4m1.6 -1.9l1.1 -.5l.5 1l-1.1 .5m1.6 -2l1.1 -.4l.4 1l-1 .5m1.6 -2l1.1 -.5l.4 1.1l-1 .4m1.6 -1.9l1.1 -.5l.4 1.1l-1 .4m1.6 -2l1.1 -.4l.4 1l-1 .5m1.6 -2l1.1 -.5l.4 1.1l-1 .5m1.6 -2l1.1 -.5l.4 1.1l-1 .4m1.6 -2l1 -.4l.5 1l-1 .5m1.6 -2l1 -.4l.5 1l-1 .5m1.6 -2l1 -.5l.5 1.1l-1 .4m1.6 -1.9l1 -.5l.5 1l-1.1 .5m1.7 -2l1 -.4l.5 1l-1.1 .5m1.7 -2l1 -.5l.5 1.1l-1.1 .4m1.7 -1.9l1 -.5l.5 1l-1.1 .5m1.7 -2l1 -.4l.5 1l-1.1 .5m1.7 -2l1 -.5l.5 1.1l-1.1 .5m1.6 -2l1.1 -.5l.5 1.1l-1.1 .4m1.6 -2l1.1 -.4l.5 1l-1.1 .5m1.6 -2l1.1 -.5l.4 1.1l-1 .5m1.6 -2l1.1 -.5l.4 1.1l-1 .4m1.6 -2l1.1 -.4l.4 1l-1 .5m1.6 -2l1.1 -.4l.4 1l-1 .5m1.6 -2l1.1 -.5l.4 1.1l-1 .4m1.6 -1.9l1.1 -.5l.4 1l-1 .5m1.6 -2l1 -.4l.5 1l-1 .5m1.6 -2l1 -.5l.5 1.1l-1 .4m1.6 -1.9l1 -.5l.5 1l-1 .5m1.6 -2l1 -.4l.5 1l-1.1 .5m1.7 -2l1 -.5l.5 1.1l-1.1 .5m1.7 -2l1 -.5l.5 1.1l-1.1 .4m1.7 -2l1 -.4l.5 1l-1.1 .5m1.7 -2l1 -.5l.5 1.1l-1.1 .5m1.7 -2l1 -.5l.5 1.1l-1.1 .4m1.6 -1.9l1.1 -.5l.5 1l-1.1 .5m1.6 -2l1.1 -.4l.5 1l-1.1 .5m1.6 -2l1.1 -.5l.4 1.1l-1 .4m1.6 -1.9l1.1 -.5l.4 1l-1 .5m1.6 -2l1.1 -.4l.4 1l-1 .5m1.6 -2l1.1 -.5l.4 1.1l-1 .4m1.6 -1.9l1.1 -.5l.4 1l-1 .5m1.6 -2l1.1 -.4l.4 1l-1 .5m1.6 -2l1 -.5l.5 1.1l-1 .5m1.6 -2l1 -.5l.5 1.1l-1 .4m1.6 -2l1 -.4l.5 1l-1 .5m1.6 -2l1 -.5l.5 1.1l-1.1 .5m1.7 -2l1 -.5l.5 1.1l-1.1 .4m1.7 -1.9l1 -.5l.5 1l-1.1 .5m1.7 -2l1 -.4l.5 1l-1.1 .5m1.7 -2l1 -.5l.5 1.1l-1.1 .4m1.7 -1.9l1 -.5l.5 1l-1.1 .5Z" class="g3_356"/>
<path d="M522.6 178.3l-6.2 5.7l.7 -3.3l-2.9 -1.6l8.4 -.8Z" class="g3_356"/>
<path d="M522.6 178.3l-6.2 5.7l.7 -3.3l-2.9 -1.6l8.4 -.8Z" class="g1_356"/>
<path d="M404.6 204.1h86v17.2h-86V204.1Z" class="g0_356"/>
</g>
</svg>