<?xml version="1.0" encoding="UTF-8" standalone="no"?>
<!DOCTYPE svg PUBLIC "-//W3C//DTD SVG 1.1//EN"
"http://www.w3.org/Graphics/SVG/1.1/DTD/svg11.dtd">
<svg viewBox="0 0 714 1017" version="1.1" xmlns="http://www.w3.org/2000/svg" xmlns:xlink="http://www.w3.org/1999/xlink">
<defs>
<clipPath id="c0_164"><path d="M93.1 581.1V387.4h550V581.1Z"/></clipPath>
<clipPath id="c1_164"><path d="M93.1 581.4V387.3h550V581.4Z"/></clipPath>
<style type="text/css"><![CDATA[
.g0_164{
fill: #FFF;
}
.g1_164{
fill: none;
stroke: #000;
stroke-width: 1.145;
stroke-miterlimit: 10;
}
.g2_164{
fill: #000;
}
.g3_164{
fill: none;
stroke: #000;
stroke-width: 3.437;
stroke-miterlimit: 10;
}
.g4_164{
fill: none;
stroke: #000;
stroke-width: 1.217;
stroke-miterlimit: 10;
}
]]></style>
</defs>
<path d="M0 1017.7H717.2V-3.7H0V1017.7Z" class="g0_164"/>
<path d="M88.8 209.1V163.6c0 -2.4 1.9 -4.4 4.3 -4.4h550c2.4 0 4.3 2 4.3 4.4v45.5c0 2.4 -1.9 4.4 -4.3 4.4H93.1c-2.4 0 -4.3 -2 -4.3 -4.4Z" class="g0_164"/>
<path d="M86.6 157.1v58.5" class="g4_164"/>
<g clip-path="url(#c1_164)">
<path clip-path="url(#c0_164)" d="M93.1 387.4h550V581.1H93.1V387.4Z" class="g0_164"/>
<path d="M93.7 410.9H299.9v126H93.7v-126Zm239.5 0H426v91.7H333.2V410.9Zm-29.9 45.8h26.4" class="g1_164"/>
<path d="M303.3 456.7c0 .4 -.1 .9 -.3 1.3c-.1 .4 -.4 .7 -.7 1.1c-.3 .3 -.7 .5 -1.1 .7c-.4 .2 -.8 .3 -1.3 .3c-.4 0 -.9 -.1 -1.3 -.3c-.4 -.2 -.8 -.4 -1.1 -.7c-.3 -.4 -.5 -.7 -.7 -1.1c-.2 -.4 -.3 -.9 -.3 -1.3c0 -.5 .1 -.9 .3 -1.3c.2 -.4 .4 -.8 .7 -1.1c.3 -.3 .7 -.6 1.1 -.8c.4 -.1 .9 -.2 1.3 -.2c.5 0 .9 .1 1.3 .2c.4 .2 .8 .5 1.1 .8c.3 .3 .6 .7 .7 1.1c.2 .4 .3 .8 .3 1.3Z" class="g2_164"/>
<path d="M303.3 456.7c0 .4 -.1 .9 -.3 1.3c-.1 .4 -.4 .7 -.7 1.1c-.3 .3 -.7 .5 -1.1 .7c-.4 .2 -.8 .3 -1.3 .3c-.4 0 -.9 -.1 -1.3 -.3c-.4 -.2 -.8 -.4 -1.1 -.7c-.3 -.4 -.5 -.7 -.7 -1.1c-.2 -.4 -.3 -.9 -.3 -1.3c0 -.5 .1 -.9 .3 -1.3c.2 -.4 .4 -.8 .7 -1.1c.3 -.3 .7 -.6 1.1 -.8c.4 -.1 .9 -.2 1.3 -.2c.5 0 .9 .1 1.3 .2c.4 .2 .8 .5 1.1 .8c.3 .3 .6 .7 .7 1.1c.2 .4 .3 .8 .3 1.3Z" class="g1_164"/>
<path d="M303.3 472.7c0 .5 -.1 .9 -.3 1.3c-.1 .4 -.4 .8 -.7 1.1c-.3 .3 -.7 .6 -1.1 .7c-.4 .2 -.8 .3 -1.3 .3c-.4 0 -.9 -.1 -1.3 -.3c-.4 -.1 -.8 -.4 -1.1 -.7c-.3 -.3 -.5 -.7 -.7 -1.1c-.2 -.4 -.3 -.8 -.3 -1.3c0 -.4 .1 -.9 .3 -1.3c.2 -.4 .4 -.8 .7 -1.1c.3 -.3 .7 -.5 1.1 -.7c.4 -.2 .9 -.3 1.3 -.3c.5 0 .9 .1 1.3 .3c.4 .2 .8 .4 1.1 .7c.3 .3 .6 .7 .7 1.1c.2 .4 .3 .9 .3 1.3Z" class="g2_164"/>
<path d="M303.3 472.7c0 .5 -.1 .9 -.3 1.3c-.1 .4 -.4 .8 -.7 1.1c-.3 .3 -.7 .6 -1.1 .7c-.4 .2 -.8 .3 -1.3 .3c-.4 0 -.9 -.1 -1.3 -.3c-.4 -.1 -.8 -.4 -1.1 -.7c-.3 -.3 -.5 -.7 -.7 -1.1c-.2 -.4 -.3 -.8 -.3 -1.3c0 -.4 .1 -.9 .3 -1.3c.2 -.4 .4 -.8 .7 -1.1c.3 -.3 .7 -.5 1.1 -.7c.4 -.2 .9 -.3 1.3 -.3c.5 0 .9 .1 1.3 .3c.4 .2 .8 .4 1.1 .7c.3 .3 .6 .7 .7 1.1c.2 .4 .3 .9 .3 1.3Z" class="g1_164"/>
<path d="M303.3 488.8c0 .4 -.1 .8 -.3 1.3c-.1 .4 -.4 .7 -.7 1c-.3 .4 -.7 .6 -1.1 .8c-.4 .2 -.8 .2 -1.3 .2c-.4 0 -.9 0 -1.3 -.2c-.4 -.2 -.8 -.4 -1.1 -.8c-.3 -.3 -.5 -.6 -.7 -1c-.2 -.5 -.3 -.9 -.3 -1.3c0 -.5 .1 -.9 .3 -1.3c.2 -.5 .4 -.8 .7 -1.1c.3 -.4 .7 -.6 1.1 -.8c.4 -.1 .9 -.2 1.3 -.2c.5 0 .9 .1 1.3 .2c.4 .2 .8 .4 1.1 .8c.3 .3 .6 .6 .7 1.1c.2 .4 .3 .8 .3 1.3Z" class="g2_164"/>
<path d="M303.3 488.8c0 .4 -.1 .8 -.3 1.3c-.1 .4 -.4 .7 -.7 1c-.3 .4 -.7 .6 -1.1 .8c-.4 .2 -.8 .2 -1.3 .2c-.4 0 -.9 0 -1.3 -.2c-.4 -.2 -.8 -.4 -1.1 -.8c-.3 -.3 -.5 -.6 -.7 -1c-.2 -.5 -.3 -.9 -.3 -1.3c0 -.5 .1 -.9 .3 -1.3c.2 -.5 .4 -.8 .7 -1.1c.3 -.4 .7 -.6 1.1 -.8c.4 -.1 .9 -.2 1.3 -.2c.5 0 .9 .1 1.3 .2c.4 .2 .8 .4 1.1 .8c.3 .3 .6 .6 .7 1.1c.2 .4 .3 .8 .3 1.3Z" class="g1_164"/>
<path d="M303.3 504.8c0 .4 -.1 .9 -.3 1.3c-.1 .4 -.4 .8 -.7 1.1c-.3 .3 -.7 .6 -1.1 .7c-.4 .2 -.8 .3 -1.3 .3c-.4 0 -.9 -.1 -1.3 -.3c-.4 -.1 -.8 -.4 -1.1 -.7c-.3 -.3 -.5 -.7 -.7 -1.1c-.2 -.4 -.3 -.9 -.3 -1.3c0 -.5 .1 -.9 .3 -1.3c.2 -.4 .4 -.8 .7 -1.1c.3 -.3 .7 -.6 1.1 -.7c.4 -.2 .9 -.3 1.3 -.3c.5 0 .9 .1 1.3 .3c.4 .1 .8 .4 1.1 .7c.3 .3 .6 .7 .7 1.1c.2 .4 .3 .8 .3 1.3Z" class="g2_164"/>
<path d="M303.3 504.8c0 .4 -.1 .9 -.3 1.3c-.1 .4 -.4 .8 -.7 1.1c-.3 .3 -.7 .6 -1.1 .7c-.4 .2 -.8 .3 -1.3 .3c-.4 0 -.9 -.1 -1.3 -.3c-.4 -.1 -.8 -.4 -1.1 -.7c-.3 -.3 -.5 -.7 -.7 -1.1c-.2 -.4 -.3 -.9 -.3 -1.3c0 -.5 .1 -.9 .3 -1.3c.2 -.4 .4 -.8 .7 -1.1c.3 -.3 .7 -.6 1.1 -.7c.4 -.2 .9 -.3 1.3 -.3c.5 0 .9 .1 1.3 .3c.4 .1 .8 .4 1.1 .7c.3 .3 .6 .7 .7 1.1c.2 .4 .3 .8 .3 1.3Z" class="g1_164"/>
<path d="M336.5 456.7c0 .4 -.1 .9 -.3 1.3c-.1 .4 -.4 .7 -.7 1.1c-.3 .3 -.7 .5 -1.1 .7c-.4 .2 -.8 .3 -1.3 .3c-.4 0 -.9 -.1 -1.3 -.3c-.4 -.2 -.8 -.4 -1.1 -.7c-.3 -.4 -.5 -.7 -.7 -1.1c-.2 -.4 -.3 -.9 -.3 -1.3c0 -.5 .1 -.9 .3 -1.3c.2 -.4 .4 -.8 .7 -1.1c.3 -.3 .7 -.6 1.1 -.8c.4 -.1 .9 -.2 1.3 -.2c.5 0 .9 .1 1.3 .2c.4 .2 .8 .5 1.1 .8c.3 .3 .6 .7 .7 1.1c.2 .4 .3 .8 .3 1.3Z" class="g2_164"/>
<path d="M336.5 456.7c0 .4 -.1 .9 -.3 1.3c-.1 .4 -.4 .7 -.7 1.1c-.3 .3 -.7 .5 -1.1 .7c-.4 .2 -.8 .3 -1.3 .3c-.4 0 -.9 -.1 -1.3 -.3c-.4 -.2 -.8 -.4 -1.1 -.7c-.3 -.4 -.5 -.7 -.7 -1.1c-.2 -.4 -.3 -.9 -.3 -1.3c0 -.5 .1 -.9 .3 -1.3c.2 -.4 .4 -.8 .7 -1.1c.3 -.3 .7 -.6 1.1 -.8c.4 -.1 .9 -.2 1.3 -.2c.5 0 .9 .1 1.3 .2c.4 .2 .8 .5 1.1 .8c.3 .3 .6 .7 .7 1.1c.2 .4 .3 .8 .3 1.3Z" class="g1_164"/>
<path d="M336.5 472.7c0 .5 -.1 .9 -.3 1.3c-.1 .4 -.4 .8 -.7 1.1c-.3 .3 -.7 .6 -1.1 .7c-.4 .2 -.8 .3 -1.3 .3c-.4 0 -.9 -.1 -1.3 -.3c-.4 -.1 -.8 -.4 -1.1 -.7c-.3 -.3 -.5 -.7 -.7 -1.1c-.2 -.4 -.3 -.8 -.3 -1.3c0 -.4 .1 -.9 .3 -1.3c.2 -.4 .4 -.8 .7 -1.1c.3 -.3 .7 -.5 1.1 -.7c.4 -.2 .9 -.3 1.3 -.3c.5 0 .9 .1 1.3 .3c.4 .2 .8 .4 1.1 .7c.3 .3 .6 .7 .7 1.1c.2 .4 .3 .9 .3 1.3Z" class="g2_164"/>
<path d="M336.5 472.7c0 .5 -.1 .9 -.3 1.3c-.1 .4 -.4 .8 -.7 1.1c-.3 .3 -.7 .6 -1.1 .7c-.4 .2 -.8 .3 -1.3 .3c-.4 0 -.9 -.1 -1.3 -.3c-.4 -.1 -.8 -.4 -1.1 -.7c-.3 -.3 -.5 -.7 -.7 -1.1c-.2 -.4 -.3 -.8 -.3 -1.3c0 -.4 .1 -.9 .3 -1.3c.2 -.4 .4 -.8 .7 -1.1c.3 -.3 .7 -.5 1.1 -.7c.4 -.2 .9 -.3 1.3 -.3c.5 0 .9 .1 1.3 .3c.4 .2 .8 .4 1.1 .7c.3 .3 .6 .7 .7 1.1c.2 .4 .3 .9 .3 1.3Z" class="g1_164"/>
<path d="M336.5 488.8c0 .4 -.1 .8 -.3 1.3c-.1 .4 -.4 .7 -.7 1c-.3 .4 -.7 .6 -1.1 .8c-.4 .2 -.8 .2 -1.3 .2c-.4 0 -.9 0 -1.3 -.2c-.4 -.2 -.8 -.4 -1.1 -.8c-.3 -.3 -.5 -.6 -.7 -1c-.2 -.5 -.3 -.9 -.3 -1.3c0 -.5 .1 -.9 .3 -1.3c.2 -.5 .4 -.8 .7 -1.1c.3 -.4 .7 -.6 1.1 -.8c.4 -.1 .9 -.2 1.3 -.2c.5 0 .9 .1 1.3 .2c.4 .2 .8 .4 1.1 .8c.3 .3 .6 .6 .7 1.1c.2 .4 .3 .8 .3 1.3Z" class="g2_164"/>
<path d="M336.5 488.8c0 .4 -.1 .8 -.3 1.3c-.1 .4 -.4 .7 -.7 1c-.3 .4 -.7 .6 -1.1 .8c-.4 .2 -.8 .2 -1.3 .2c-.4 0 -.9 0 -1.3 -.2c-.4 -.2 -.8 -.4 -1.1 -.8c-.3 -.3 -.5 -.6 -.7 -1c-.2 -.5 -.3 -.9 -.3 -1.3c0 -.5 .1 -.9 .3 -1.3c.2 -.5 .4 -.8 .7 -1.1c.3 -.4 .7 -.6 1.1 -.8c.4 -.1 .9 -.2 1.3 -.2c.5 0 .9 .1 1.3 .2c.4 .2 .8 .4 1.1 .8c.3 .3 .6 .6 .7 1.1c.2 .4 .3 .8 .3 1.3ZM303.3 472.7h26.4m-26.4 16.1l12.5 -13.6m4.6 -5l10.3 -11.1m-27.4 45.7l26.4 -16M487.3 410.9H641.4v126H487.3v-126Z" class="g1_164"/>
<path d="M166 537c0 .4 -.1 .9 -.3 1.3c-.2 .4 -.4 .8 -.7 1.1c-.4 .3 -.7 .5 -1.1 .7c-.4 .2 -.9 .3 -1.3 .3c-.5 0 -.9 -.1 -1.3 -.3c-.4 -.2 -.8 -.4 -1.1 -.7c-.3 -.3 -.6 -.7 -.8 -1.1c-.1 -.4 -.2 -.9 -.2 -1.3c0 -.5 .1 -.9 .2 -1.3c.2 -.4 .5 -.8 .8 -1.1c.3 -.3 .7 -.6 1.1 -.7c.4 -.2 .8 -.3 1.3 -.3c.4 0 .9 .1 1.3 .3c.4 .1 .7 .4 1.1 .7c.3 .3 .5 .7 .7 1.1c.2 .4 .3 .8 .3 1.3Z" class="g2_164"/>
<path d="M166 537c0 .4 -.1 .9 -.3 1.3c-.2 .4 -.4 .8 -.7 1.1c-.4 .3 -.7 .5 -1.1 .7c-.4 .2 -.9 .3 -1.3 .3c-.5 0 -.9 -.1 -1.3 -.3c-.4 -.2 -.8 -.4 -1.1 -.7c-.3 -.3 -.6 -.7 -.8 -1.1c-.1 -.4 -.2 -.9 -.2 -1.3c0 -.5 .1 -.9 .2 -1.3c.2 -.4 .5 -.8 .8 -1.1c.3 -.3 .7 -.6 1.1 -.7c.4 -.2 .8 -.3 1.3 -.3c.4 0 .9 .1 1.3 .3c.4 .1 .7 .4 1.1 .7c.3 .3 .5 .7 .7 1.1c.2 .4 .3 .8 .3 1.3Z" class="g1_164"/>
<path d="M389.3 502.5c0 .5 -.1 .9 -.3 1.3c-.2 .4 -.4 .8 -.7 1.1c-.4 .3 -.7 .6 -1.1 .7c-.4 .2 -.9 .3 -1.3 .3c-.5 0 -.9 -.1 -1.3 -.3c-.4 -.1 -.8 -.4 -1.1 -.7c-.3 -.3 -.6 -.7 -.8 -1.1c-.1 -.4 -.2 -.8 -.2 -1.3c0 -.4 .1 -.9 .2 -1.3c.2 -.4 .5 -.8 .8 -1.1c.3 -.3 .7 -.5 1.1 -.7c.4 -.2 .8 -.3 1.3 -.3c.4 0 .9 .1 1.3 .3c.4 .2 .7 .4 1.1 .7c.3 .3 .5 .7 .7 1.1c.2 .4 .3 .9 .3 1.3Z" class="g2_164"/>
<path d="M389.3 502.5c0 .5 -.1 .9 -.3 1.3c-.2 .4 -.4 .8 -.7 1.1c-.4 .3 -.7 .6 -1.1 .7c-.4 .2 -.9 .3 -1.3 .3c-.5 0 -.9 -.1 -1.3 -.3c-.4 -.1 -.8 -.4 -1.1 -.7c-.3 -.3 -.6 -.7 -.8 -1.1c-.1 -.4 -.2 -.8 -.2 -1.3c0 -.4 .1 -.9 .2 -1.3c.2 -.4 .5 -.8 .8 -1.1c.3 -.3 .7 -.5 1.1 -.7c.4 -.2 .8 -.3 1.3 -.3c.4 0 .9 .1 1.3 .3c.4 .2 .7 .4 1.1 .7c.3 .3 .5 .7 .7 1.1c.2 .4 .3 .9 .3 1.3Z" class="g1_164"/>
<path d="M503.3 537c0 .4 -.1 .9 -.3 1.3c-.2 .4 -.4 .8 -.7 1.1c-.3 .3 -.7 .5 -1.1 .7c-.4 .2 -.9 .3 -1.3 .3c-.5 0 -.9 -.1 -1.3 -.3c-.4 -.2 -.8 -.4 -1.1 -.7c-.3 -.3 -.6 -.7 -.7 -1.1c-.2 -.4 -.3 -.9 -.3 -1.3c0 -.5 .1 -.9 .3 -1.3c.1 -.4 .4 -.8 .7 -1.1c.3 -.3 .7 -.6 1.1 -.7c.4 -.2 .8 -.3 1.3 -.3c.4 0 .9 .1 1.3 .3c.4 .1 .8 .4 1.1 .7c.3 .3 .5 .7 .7 1.1c.2 .4 .3 .8 .3 1.3Z" class="g2_164"/>
<path d="M503.3 537c0 .4 -.1 .9 -.3 1.3c-.2 .4 -.4 .8 -.7 1.1c-.3 .3 -.7 .5 -1.1 .7c-.4 .2 -.9 .3 -1.3 .3c-.5 0 -.9 -.1 -1.3 -.3c-.4 -.2 -.8 -.4 -1.1 -.7c-.3 -.3 -.6 -.7 -.7 -1.1c-.2 -.4 -.3 -.9 -.3 -1.3c0 -.5 .1 -.9 .3 -1.3c.1 -.4 .4 -.8 .7 -1.1c.3 -.3 .7 -.6 1.1 -.7c.4 -.2 .8 -.3 1.3 -.3c.4 0 .9 .1 1.3 .3c.4 .1 .8 .4 1.1 .7c.3 .3 .5 .7 .7 1.1c.2 .4 .3 .8 .3 1.3Z" class="g1_164"/>
<path d="M580 537c0 .4 -.1 .9 -.2 1.3c-.2 .4 -.4 .8 -.8 1.1c-.3 .3 -.6 .5 -1.1 .7c-.4 .2 -.8 .3 -1.2 .3c-.5 0 -.9 -.1 -1.3 -.3c-.5 -.2 -.8 -.4 -1.1 -.7c-.4 -.3 -.6 -.7 -.8 -1.1c-.1 -.4 -.2 -.9 -.2 -1.3c0 -.5 .1 -.9 .2 -1.3c.2 -.4 .4 -.8 .8 -1.1c.3 -.3 .6 -.6 1.1 -.7c.4 -.2 .8 -.3 1.3 -.3c.4 0 .8 .1 1.2 .3c.5 .1 .8 .4 1.1 .7c.4 .3 .6 .7 .8 1.1c.1 .4 .2 .8 .2 1.3Z" class="g2_164"/>
<path d="M580 537c0 .4 -.1 .9 -.2 1.3c-.2 .4 -.4 .8 -.8 1.1c-.3 .3 -.6 .5 -1.1 .7c-.4 .2 -.8 .3 -1.2 .3c-.5 0 -.9 -.1 -1.3 -.3c-.5 -.2 -.8 -.4 -1.1 -.7c-.4 -.3 -.6 -.7 -.8 -1.1c-.1 -.4 -.2 -.9 -.2 -1.3c0 -.5 .1 -.9 .2 -1.3c.2 -.4 .4 -.8 .8 -1.1c.3 -.3 .6 -.6 1.1 -.7c.4 -.2 .8 -.3 1.3 -.3c.4 0 .8 .1 1.2 .3c.5 .1 .8 .4 1.1 .7c.4 .3 .6 .7 .8 1.1c.1 .4 .2 .8 .2 1.3Z" class="g1_164"/>
<path d="M163.1 540.4v3.4H162v-3.4h1.1Zm0 6.9v3.4H162v-3.5l1.1 .1Zm0 6.8v3.5H162v-3.5h1.1Zm.1 7c0 1.2 .2 2.2 .5 3.2l-1.1 .3c-.3 -1 -.5 -2.2 -.6 -3.5h1.2Zm1.9 6.1c.6 .8 1.4 1.5 2.3 2.1l-.5 1c-1.1 -.7 -2 -1.4 -2.7 -2.4l.9 -.7Zm5.3 3.2c1.1 .2 2.2 .3 3.5 .3l-.1 1.2c-1.3 0 -2.5 -.1 -3.6 -.4l.2 -1.1Zm6.9 .3h3.4v1.2h-3.4v-1.2Zm6.9 0h3.4v1.2h-3.4v-1.2Zm6.9 0h3.4v1.2h-3.4v-1.2Zm6.8 0h3.5v1.2h-3.5v-1.2Zm6.9 0h3.4v1.2h-3.4v-1.2Zm6.9 0h3.4v1.2h-3.4v-1.2Zm6.9 0H222v1.2h-3.4v-1.2Zm6.8 0h3.5v1.2h-3.5v-1.2Zm6.9 0h3.4v1.2h-3.4v-1.2Zm6.9 0h3.4v1.2h-3.4v-1.2Zm6.9 0h3.4v1.2h-3.4v-1.2Zm6.8 0h3.5v1.2h-3.5v-1.2Zm6.9 0h3.4v1.2h-3.4v-1.2Zm6.9 0h3.4v1.2h-3.4v-1.2Zm6.9 0H277v1.2h-3.4v-1.2Zm6.8 0h3.5v1.2h-3.5v-1.2Zm6.9 0h3.4v1.2h-3.4v-1.2Zm6.9 0h3.4v1.2h-3.4v-1.2Zm6.9 0h3.4v1.2h-3.4v-1.2Zm6.8 0h3.5v1.2h-3.5v-1.2Zm6.9 0h3.4v1.2h-3.4v-1.2Zm6.9 0h3.4v1.2h-3.4v-1.2Zm6.9 0H332v1.2h-3.4v-1.2Zm6.8 0h3.5v1.2h-3.5v-1.2Zm6.9 0h3.4v1.2h-3.4v-1.2Zm6.9 0h3.4v1.2h-3.4v-1.2Zm6.9 0h3.4v1.2h-3.4v-1.2Zm6.8 0h3.5v1.2h-3.5v-1.2Zm6.9 0h3.4v1.2h-3.4v-1.2Zm6.9 0h3.4v1.2h-3.4v-1.2Zm6.9 0H387v1.2h-3.4v-1.2Zm6.8 0h3.5v1.2h-3.5v-1.2Zm6.9 0h3.4v1.2h-3.4v-1.2Zm6.9 0h3.4v1.2h-3.4v-1.2Zm6.9 0h3.4v1.2h-3.4v-1.2Zm6.8 0h3.5v1.2h-3.5v-1.2Zm6.9 0h3.4v1.2h-3.4v-1.2Zm6.9 0h3.4v1.2h-3.4v-1.2Zm6.9 0H442v1.2h-3.4v-1.2Zm6.8 0h3.5v1.2h-3.5v-1.2Zm6.9 0h3.4v1.2h-3.4v-1.2Zm6.9 0h3.4v1.2h-3.4v-1.2Zm6.9 0h3.4v1.2h-3.4v-1.2Zm6.8 0h3.5v1.2h-3.5v-1.2Zm6.9 0h3.4v1.2h-3.4v-1.2Zm6.9 0h3.4v1.2h-3.4v-1.2Zm6.9 0H497v1.2h-3.4v-1.2Zm6.8 0h3.5v1.2h-3.5v-1.2Zm6.9 0h3.4v1.2h-3.4v-1.2Zm6.9 0h3.4v1.2h-3.4v-1.2Zm6.9 0h3.4v1.2h-3.4v-1.2Zm6.8 0h3.5v1.2h-3.5v-1.2Zm6.9 0h3.4v1.2h-3.4v-1.2Zm6.9 0h3.4v1.2h-3.4v-1.2Zm6.9 0H552v1.2h-3.4v-1.2Zm6.8 0h3.5v1.2h-3.5v-1.2Zm6.9 0h2.9c.2 0 .4 0 .6 0v1.2c-.2 0 -.4 0 -.6 0h-2.9v-1.2Zm6.8 -.4c1.2 -.3 2.1 -.7 3 -1.2l.6 .9c-.9 .7 -2.1 1.1 -3.3 1.4l-.3 -1.1Zm5.2 -3.4c.6 -.8 1 -1.8 1.3 -2.9l1.1 .2c-.3 1.3 -.8 2.4 -1.4 3.4l-1 -.7Zm1.8 -6.2c0 -.3 0 -.6 0 -.8v-2.7h1.1v2.7c0 .2 0 .5 0 .8h-1.1Zm0 -7v-3.4h1.1v3.4h-1.1Z" class="g2_164"/>
<path d="M576.7 541.6l2.6 8.1l-2.6 -2l-2.7 2l2.7 -8.1Z" class="g2_164"/>
<path d="M576.7 541.6l2.6 8.1l-2.6 -2l-2.7 2l2.7 -8.1Z" class="g1_164"/>
<path d="M386.4 505.9v3.4h-1.1v-3.4h1.1Zm0 6.9v3.4h-1.1v-3.4h1.1Zm0 6.8v3.5h-1.1v-3.5h1.1Zm0 6.9V530h-1.1v-3.5h1.1Zm0 6.9v3.4h-1.1v-3.4h1.1Zm0 6.9v3.4h-1.1v-3.4h1.1Zm0 6.8v1.3c0 .8 .1 1.6 .2 2.3l-1.2 .1c-.1 -.8 -.1 -1.6 -.1 -2.4v-1.3h1.1Zm.9 6.7c.4 1 1 1.9 1.7 2.7l-.8 .8c-.8 -.9 -1.5 -1.9 -1.9 -3.1l1 -.4Zm4.3 4.5c.9 .4 2 .6 3.1 .8l-.1 1.1c-1.3 -.1 -2.4 -.4 -3.4 -.9l.4 -1Zm6.6 1h3.5v1.1h-3.5v-1.1Zm6.9 0h3.4v1.1h-3.4v-1.1Zm6.9 0h3.4v1.1H412v-1.1Zm6.9 0h3.4v1.1h-3.4v-1.1Zm6.8 0h3.5v1.1h-3.5v-1.1Zm6.9 0H436v1.1h-3.4v-1.1Zm6.9 0h3.4v1.1h-3.4v-1.1Zm6.9 0h3.4v1.1h-3.4v-1.1Zm6.8 0h3.5v1.1h-3.5v-1.1Zm6.9 0h3.4v1.1h-3.4v-1.1Zm6.9 0h3.4v1.1H467v-1.1Zm6.9 0h3.4v1.1h-3.4v-1.1Zm6.8 0h3.5v1.1h-3.5v-1.1Zm6.9 0h.8c1 0 1.9 -.1 2.8 -.1l.1 1.1c-.9 .1 -1.9 .1 -2.9 .1h-.8v-1.1Zm6.8 -.6c1.2 -.3 2.2 -.7 3 -1.2l.6 .9c-.9 .6 -2 1.1 -3.3 1.4l-.3 -1.1Zm4.7 -3.6c.1 -.4 .2 -.8 .2 -1.3v-2h1.2v2c0 .6 -.1 1.1 -.3 1.7l-1.1 -.4Zm.2 -6.7v-.7h1.2v.7h-1.2Z" class="g2_164"/>
<path d="M499.9 541.6l2.7 8.1l-2.7 -2l-2.7 2l2.7 -8.1Z" class="g2_164"/>
<path d="M499.9 541.6l2.7 8.1l-2.7 -2l-2.7 2l2.7 -8.1Z" class="g1_164"/>
<path d="M93.7 388H299.9v22.9H93.7V388Z" class="g2_164"/>
<path d="M93.7 388H299.9v22.9H93.7V388Z" class="g1_164"/>
<path d="M333.2 388H426v22.9H333.2V388Z" class="g2_164"/>
<path d="M333.2 388H426v22.9H333.2V388ZM300.5 522.7l35 -36.3" class="g1_164"/>
<path d="M303.4 523.1c0 .5 -.1 .9 -.3 1.3c-.2 .4 -.4 .8 -.7 1.1c-.3 .3 -.7 .6 -1.1 .8c-.4 .1 -.9 .2 -1.3 .2c-.5 0 -.9 -.1 -1.3 -.2c-.4 -.2 -.8 -.5 -1.1 -.8c-.3 -.3 -.6 -.7 -.7 -1.1c-.2 -.4 -.3 -.8 -.3 -1.3c0 -.4 .1 -.8 .3 -1.3c.1 -.4 .4 -.7 .7 -1.1c.3 -.3 .7 -.5 1.1 -.7c.4 -.2 .8 -.3 1.3 -.3c.4 0 .9 .1 1.3 .3c.4 .2 .8 .4 1.1 .7c.3 .4 .5 .7 .7 1.1c.2 .5 .3 .9 .3 1.3Z" class="g2_164"/>
<path d="M303.4 523.1c0 .5 -.1 .9 -.3 1.3c-.2 .4 -.4 .8 -.7 1.1c-.3 .3 -.7 .6 -1.1 .8c-.4 .1 -.9 .2 -1.3 .2c-.5 0 -.9 -.1 -1.3 -.2c-.4 -.2 -.8 -.5 -1.1 -.8c-.3 -.3 -.6 -.7 -.7 -1.1c-.2 -.4 -.3 -.8 -.3 -1.3c0 -.4 .1 -.8 .3 -1.3c.1 -.4 .4 -.7 .7 -1.1c.3 -.3 .7 -.5 1.1 -.7c.4 -.2 .8 -.3 1.3 -.3c.4 0 .9 .1 1.3 .3c.4 .2 .8 .4 1.1 .7c.3 .4 .5 .7 .7 1.1c.2 .5 .3 .9 .3 1.3Z" class="g1_164"/>
<path d="M438.6 468.9h26.7m-6.5 5.1l10.3 -5.1l-10.3 -5.2" class="g3_164"/>
</g>
</svg>