<?xml version="1.0" encoding="UTF-8" standalone="no"?>
<!DOCTYPE svg PUBLIC "-//W3C//DTD SVG 1.1//EN"
"http://www.w3.org/Graphics/SVG/1.1/DTD/svg11.dtd">
<svg viewBox="0 0 714 1017" version="1.1" xmlns="http://www.w3.org/2000/svg" xmlns:xlink="http://www.w3.org/1999/xlink">
<defs>
<clipPath id="c0_99"><path d="M99.7 202.4V97H593.5V202.4Z"/></clipPath>
<clipPath id="c1_99"><path d="M82.8 504.4V331.7H609.9V504.4Z"/></clipPath>
<clipPath id="c2_99"><path d="M99.7 202.6V95.7h495V202.6Z"/></clipPath>
<clipPath id="c3_99"><path d="M82.8 504.4V330.2H611.4V504.4Z"/></clipPath>
<style type="text/css"><![CDATA[
.g0_99{
fill: #FFF;
}
.g1_99{
fill: #DDD;
}
.g2_99{
fill: #000;
}
.g3_99{
fill: none;
stroke: #000;
stroke-width: 1.145;
stroke-miterlimit: 10;
}
]]></style>
</defs>
<path d="M0 1017.7H717.2V-3.7H0V1017.7Z" class="g0_99"/>
<g clip-path="url(#c2_99)">
<path clip-path="url(#c0_99)" d="M99.7 97H593.5V202.4H99.7V97Z" class="g0_99"/>
<path d="M190.8 97.6H593V201.8H190.8V97.6Z" class="g1_99"/>
<path clip-path="url(#c0_99)" d="M197.7 97h3.4v1.1h-3.4V97Zm6.8 0H208v1.1h-3.5V97Zm6.9 0h3.4v1.1h-3.4V97Zm6.9 0h3.4v1.1h-3.4V97Zm6.9 0h3.4v1.1h-3.4V97Zm6.8 0h3.5v1.1H232V97Zm6.9 0h3.4v1.1h-3.4V97Zm6.9 0h3.4v1.1h-3.4V97Zm6.9 0h3.4v1.1h-3.4V97Zm6.8 0H263v1.1h-3.5V97Zm6.9 0h3.4v1.1h-3.4V97Zm6.9 0h3.4v1.1h-3.4V97Zm6.9 0h3.4v1.1h-3.4V97Zm6.8 0h3.5v1.1H287V97Zm6.9 0h3.4v1.1h-3.4V97Zm6.9 0h3.4v1.1h-3.4V97Zm6.9 0h3.4v1.1h-3.4V97Zm6.8 0H318v1.1h-3.5V97Zm6.9 0h3.4v1.1h-3.4V97Zm6.9 0h3.4v1.1h-3.4V97Zm6.9 0h3.4v1.1h-3.4V97Zm6.8 0h3.5v1.1H342V97Zm6.9 0h3.4v1.1h-3.4V97Zm6.9 0h3.4v1.1h-3.4V97Zm6.9 0h3.4v1.1h-3.4V97Zm6.8 0H373v1.1h-3.5V97Zm6.9 0h3.4v1.1h-3.4V97Zm6.9 0h3.4v1.1h-3.4V97Zm6.9 0h3.4v1.1h-3.4V97Zm6.8 0h3.5v1.1H397V97Zm6.9 0h3.4v1.1h-3.4V97Zm6.9 0h3.4v1.1h-3.4V97Zm6.9 0h3.4v1.1h-3.4V97Zm6.8 0H428v1.1h-3.5V97Zm6.9 0h3.4v1.1h-3.4V97Zm6.9 0h3.4v1.1h-3.4V97Zm6.9 0h3.4v1.1h-3.4V97Zm6.8 0h3.5v1.1H452V97Zm6.9 0h3.4v1.1h-3.4V97Zm6.9 0h3.4v1.1h-3.4V97Zm6.9 0h3.4v1.1h-3.4V97Zm6.8 0H483v1.1h-3.5V97Zm6.9 0h3.4v1.1h-3.4V97Zm6.9 0h3.4v1.1h-3.4V97Zm6.9 0h3.4v1.1h-3.4V97Zm6.8 0h3.5v1.1H507V97Zm6.9 0h3.4v1.1h-3.4V97Zm6.9 0h3.4v1.1h-3.4V97Zm6.9 0h3.4v1.1h-3.4V97Zm6.8 0H538v1.1h-3.5V97Zm6.9 0h3.4v1.1h-3.4V97Zm6.9 0h3.4v1.1h-3.4V97Zm6.9 0h3.4v1.1h-3.4V97Zm6.8 0h3.5v1.1H562V97Zm6.9 0h3.4v1.1h-3.4V97Zm6.9 0h3.4v1.1h-3.4V97Zm6.9 0h3.4v1.1h-3.4V97Zm6.8 0H593v1.1h-3.5V97Zm4 4v3.4h-1.1V101h1.1Zm0 6.9v3.4h-1.1v-3.4h1.1Zm0 6.9v3.4h-1.1v-3.4h1.1Zm0 6.8v3.5h-1.1v-3.5h1.1Zm0 6.9v3.4h-1.1v-3.4h1.1Zm0 6.9v3.4h-1.1v-3.4h1.1Zm0 6.9v3.4h-1.1v-3.4h1.1Zm0 6.8v3.5h-1.1v-3.5h1.1Zm0 6.9v3.4h-1.1V156h1.1Zm0 6.9v3.4h-1.1v-3.4h1.1Zm0 6.9v3.4h-1.1v-3.4h1.1Zm0 6.8v3.5h-1.1v-3.5h1.1Zm0 6.9v3.4h-1.1v-3.4h1.1Zm0 6.9v3.4h-1.1v-3.4h1.1Zm0 6.9v3.4h-1.1v-3.4h1.1Zm-2.8 5.1h-3.5v-1.1h3.5v1.1Zm-6.9 0h-3.4v-1.1h3.4v1.1Zm-6.9 0h-3.4v-1.1h3.4v1.1Zm-6.8 0h-3.5v-1.1h3.5v1.1Zm-6.9 0h-3.5v-1.1h3.5v1.1Zm-6.9 0h-3.4v-1.1h3.4v1.1Zm-6.9 0H546v-1.1h3.4v1.1Zm-6.8 0h-3.5v-1.1h3.5v1.1Zm-6.9 0h-3.5v-1.1h3.5v1.1Zm-6.9 0h-3.4v-1.1h3.4v1.1Zm-6.9 0h-3.4v-1.1h3.4v1.1Zm-6.8 0h-3.5v-1.1h3.5v1.1Zm-6.9 0h-3.5v-1.1h3.5v1.1Zm-6.9 0h-3.4v-1.1h3.4v1.1Zm-6.9 0H491v-1.1h3.4v1.1Zm-6.8 0h-3.5v-1.1h3.5v1.1Zm-6.9 0h-3.5v-1.1h3.5v1.1Zm-6.9 0h-3.4v-1.1h3.4v1.1Zm-6.9 0h-3.4v-1.1h3.4v1.1Zm-6.8 0h-3.5v-1.1h3.5v1.1Zm-6.9 0h-3.5v-1.1h3.5v1.1Zm-6.9 0h-3.4v-1.1h3.4v1.1Zm-6.9 0H436v-1.1h3.4v1.1Zm-6.8 0h-3.5v-1.1h3.5v1.1Zm-6.9 0h-3.5v-1.1h3.5v1.1Zm-6.9 0h-3.4v-1.1h3.4v1.1Zm-6.9 0h-3.4v-1.1h3.4v1.1Zm-6.8 0h-3.5v-1.1h3.5v1.1Zm-6.9 0h-3.5v-1.1h3.5v1.1Zm-6.9 0h-3.4v-1.1h3.4v1.1Zm-6.9 0H381v-1.1h3.4v1.1Zm-6.8 0h-3.5v-1.1h3.5v1.1Zm-6.9 0h-3.5v-1.1h3.5v1.1Zm-6.9 0h-3.4v-1.1h3.4v1.1Zm-6.9 0h-3.4v-1.1h3.4v1.1Zm-6.8 0h-3.5v-1.1h3.5v1.1Zm-6.9 0h-3.5v-1.1h3.5v1.1Zm-6.9 0h-3.4v-1.1h3.4v1.1Zm-6.9 0H326v-1.1h3.4v1.1Zm-6.8 0h-3.5v-1.1h3.5v1.1Zm-6.9 0h-3.5v-1.1h3.5v1.1Zm-6.9 0h-3.4v-1.1h3.4v1.1Zm-6.9 0h-3.4v-1.1h3.4v1.1Zm-6.8 0h-3.5v-1.1h3.5v1.1Zm-6.9 0h-3.5v-1.1h3.5v1.1Zm-6.9 0h-3.4v-1.1h3.4v1.1Zm-6.9 0H271v-1.1h3.4v1.1Zm-6.8 0h-3.5v-1.1h3.5v1.1Zm-6.9 0h-3.5v-1.1h3.5v1.1Zm-6.9 0h-3.4v-1.1h3.4v1.1Zm-6.9 0h-3.4v-1.1h3.4v1.1Zm-6.8 0h-3.5v-1.1h3.5v1.1Zm-6.9 0h-3.5v-1.1h3.5v1.1Zm-6.9 0h-3.4v-1.1h3.4v1.1Zm-6.9 0H216v-1.1h3.4v1.1Zm-6.8 0h-3.5v-1.1h3.5v1.1Zm-6.9 0h-3.5v-1.1h3.5v1.1Zm-6.9 0h-3.4v-1.1h3.4v1.1Zm-6.9 0h-1.7v-2.8h1.2v2.2h-.6v-.5h1.1v1.1Zm-1.7 -6.3v-3.4h1.2v3.4h-1.2Zm0 -6.9v-3.4h1.2v3.4h-1.2Zm0 -6.8v-3.5h1.2v3.5h-1.2Zm0 -6.9v-3.4h1.2v3.4h-1.2Zm0 -6.9v-3.4h1.2v3.4h-1.2Zm0 -6.9v-3.4h1.2v3.4h-1.2Zm0 -6.8v-3.5h1.2v3.5h-1.2Zm0 -6.9v-3.4h1.2V148h-1.2Zm0 -6.9v-3.4h1.2v3.4h-1.2Zm0 -6.9v-3.4h1.2v3.4h-1.2Zm0 -6.8v-3.5h1.2v3.5h-1.2Zm0 -6.9v-3.4h1.2v3.4h-1.2Zm0 -6.9v-3.4h1.2v3.4h-1.2Zm0 -6.9v-3.4h1.2v3.4h-1.2Zm0 -6.8V97h4v1.1h-3.4v-.5h.6v2.3h-1.2Z" class="g2_99"/>
<path d="M100.3 104.8c0 -4 7.7 -7.2 17.2 -7.2c4.5 0 8.9 .7 12.1 2.1c3.2 1.4 5 3.2 5 5.1v19.9c0 4 -7.7 7.2 -17.1 7.2c-9.5 0 -17.2 -3.2 -17.2 -7.2V104.8Zm34.3 0c0 4 -7.7 7.3 -17.1 7.3c-9.5 0 -17.2 -3.3 -17.2 -7.3" class="g3_99"/>
<path d="M190.8 133.1H318v34.4H190.8V133.1Z" class="g0_99"/>
<path d="M190.8 133.1H318v34.4H190.8V133.1Z" class="g3_99"/>
<path d="M489.8 97.6H593v35.5H489.8V97.6Z" class="g0_99"/>
<path d="M489.8 97.6H593v35.5H489.8V97.6Z" class="g3_99"/>
<path d="M190.8 97.6h92.8v35.5H190.8V97.6Z" class="g0_99"/>
<path d="M190.8 97.6h92.8v35.5H190.8V97.6Z" class="g3_99"/>
<path d="M283.6 97.6h102v35.5h-102V97.6Z" class="g0_99"/>
<path d="M283.6 97.6h102v35.5h-102V97.6Z" class="g3_99"/>
<path d="M385.6 97.6H489.8v35.5H385.6V97.6Z" class="g0_99"/>
<path d="M385.6 97.6H489.8v35.5H385.6V97.6Z" class="g3_99"/>
<path d="M318 167.5H432.6v34.3H318V167.5Z" class="g0_99"/>
<path d="M318 167.5H432.6v34.3H318V167.5Z" class="g3_99"/>
<path d="M318 133.1H432.6v34.4H318V133.1Z" class="g0_99"/>
<path d="M318 133.1H432.6v34.4H318V133.1Z" class="g3_99"/>
<path d="M432.6 133.1H548.3v34.4H432.6V133.1Z" class="g0_99"/>
<path d="M432.6 133.1H548.3v34.4H432.6V133.1Z" class="g3_99"/>
<path d="M190.8 167.5H318v34.3H190.8V167.5Z" class="g0_99"/>
<path d="M190.8 167.5H318v34.3H190.8V167.5Z" class="g3_99"/>
</g>
<g clip-path="url(#c3_99)">
<path clip-path="url(#c1_99)" d="M82.8 331.7H609.9v173H82.8v-173Z" class="g0_99"/>
<path d="M137.3 400.4h3.4v1.2h-3.4v-1.2Zm6.8 0h3.5v1.2h-3.5v-1.2Zm6.9 0h3.4v1.2H151v-1.2Zm6.9 0h3.4v1.2h-3.4v-1.2Zm6.9 0h3.4v1.2h-3.4v-1.2Zm6.8 0h3.5v1.2h-3.5v-1.2Zm6.9 0h3.4v1.2h-3.4v-1.2Zm6.9 0h3.4v1.2h-3.4v-1.2Zm6.9 0h3.4v1.2h-3.4v-1.2Zm6.8 0h3.5v1.2h-3.5v-1.2Zm6.9 0h3.4v1.2H206v-1.2Zm6.9 0h3.4v1.2h-3.4v-1.2Zm6.9 0h3.4v1.2h-3.4v-1.2Zm6.8 0h3.5v1.2h-3.5v-1.2Zm6.9 0h3.4v1.2h-3.4v-1.2Zm6.9 0h3.4v1.2h-3.4v-1.2Zm6.9 0h3.4v1.2h-3.4v-1.2Zm6.8 0h3.5v1.2h-3.5v-1.2Zm6.9 0h3.4v1.2H261v-1.2Zm6.9 0h3.4v1.2h-3.4v-1.2Zm6.9 0h3.4v1.2h-3.4v-1.2Zm6.8 0h3.5v1.2h-3.5v-1.2Zm6.9 0h3.4v1.2h-3.4v-1.2Zm6.9 0h3.4v1.2h-3.4v-1.2Zm6.9 0h3.4v1.2h-3.4v-1.2Zm6.8 0h3.5v1.2h-3.5v-1.2Zm6.9 0h3.4v1.2H316v-1.2Zm6.9 0h3.4v1.2h-3.4v-1.2Zm6.9 0h3.4v1.2h-3.4v-1.2Zm6.8 0h3.5v1.2h-3.5v-1.2Zm6.9 0h3.4v1.2h-3.4v-1.2Zm6.9 0h3.4v1.2h-3.4v-1.2Zm6.9 0h3.4v1.2h-3.4v-1.2Zm6.8 0h3.5v1.2h-3.5v-1.2Zm6.9 0h3.4v1.2H371v-1.2Zm6.9 0h3.4v1.2h-3.4v-1.2Zm6.9 0h3.4v1.2h-3.4v-1.2Zm6.8 0h3.5v1.2h-3.5v-1.2Zm6.9 0h3.4v1.2h-3.4v-1.2Zm6.9 0h3.4v1.2h-3.4v-1.2Zm6.9 0h3.4v1.2h-3.4v-1.2Zm6.9 .6c1.2 .3 2.3 .8 3.3 1.5l-.6 1c-1 -.6 -2 -1.1 -3 -1.5l.3 -1Zm6 4c.7 1 1.3 2.1 1.7 3.2l-1 .4c-.4 -1 -1 -2 -1.6 -2.9l.9 -.7Zm2.5 6.8c0 .2 0 .4 0 .7v2.7h-1.1v-2.7c0 -.3 0 -.5 0 -.7h1.1Zm0 6.8v3.5h-1.1v-3.5h1.1Zm0 6.9v3.4h-1.1v-3.4h1.1Zm0 6.9v3c0 .1 0 .3 0 .4h-1.1c0 -.2 0 -.3 0 -.4v-3h1.1Zm-.7 7c-.4 1.1 -.9 2.2 -1.7 3.2l-.9 -.7c.7 -.9 1.2 -1.9 1.6 -2.9l1 .4Zm-4.3 5.7c-1 .8 -2.1 1.3 -3.2 1.7l-.4 -1.1c1.1 -.3 2 -.8 2.9 -1.5l.7 .9Zm-6.8 2.3c0 0 -.1 0 -.2 0h-3.2v-1.1h3.2q.1 0 .2 0v1.1Zm-6.8 0h-3.5v-1.1h3.5v1.1Zm-6.9 0h-3.5v-1.1h3.5v1.1Zm-6.9 0h-3.4v-1.1h3.4v1.1Zm-6.9 0H385v-1.1h3.4v1.1Zm-6.8 0h-3.5v-1.1h3.5v1.1Zm-6.9 0h-3.5v-1.1h3.5v1.1Zm-6.9 0h-3.4v-1.1h3.4v1.1Zm-6.9 0h-3.4v-1.1h3.4v1.1Zm-6.8 0h-3.5v-1.1h3.5v1.1Zm-6.9 0h-3.5v-1.1h3.5v1.1Zm-6.9 0h-3.4v-1.1h3.4v1.1Zm-6.9 0H330v-1.1h3.4v1.1Zm-6.8 0h-3.5v-1.1h3.5v1.1Zm-6.9 0h-3.5v-1.1h3.5v1.1Zm-6.9 0h-3.4v-1.1h3.4v1.1Zm-6.9 0h-3.4v-1.1h3.4v1.1Zm-6.8 0h-3.5v-1.1h3.5v1.1Zm-6.9 0h-3.5v-1.1h3.5v1.1Zm-6.9 0h-3.4v-1.1h3.4v1.1Zm-6.9 0H275v-1.1h3.4v1.1Zm-6.8 0h-3.5v-1.1h3.5v1.1Zm-6.9 0h-3.5v-1.1h3.5v1.1Zm-6.9 0h-3.4v-1.1h3.4v1.1Zm-6.9 0h-3.4v-1.1h3.4v1.1Zm-6.8 0h-3.5v-1.1h3.5v1.1Zm-6.9 0h-3.5v-1.1h3.5v1.1Zm-6.9 0h-3.4v-1.1h3.4v1.1Zm-6.9 0H220v-1.1h3.4v1.1Zm-6.8 0h-3.5v-1.1h3.5v1.1Zm-6.9 0h-3.5v-1.1h3.5v1.1Zm-6.9 0h-3.4v-1.1h3.4v1.1Zm-6.9 0h-3.4v-1.1h3.4v1.1Zm-6.8 0h-3.5v-1.1h3.5v1.1Zm-6.9 0h-3.5v-1.1h3.5v1.1Zm-6.9 0h-3.4v-1.1h3.4v1.1Zm-6.9 0H165v-1.1h3.4v1.1Zm-6.8 0h-3.5v-1.1h3.5v1.1Zm-6.9 0h-3.5v-1.1h3.5v1.1Zm-6.9 0h-3.4v-1.1h3.4v1.1Zm-6.9 0h-3.4v-1.1h3.4v1.1Zm-6.8 0h-3.5v-1.1h3.5v1.1Zm-7 -.5c-1.2 -.3 -2.3 -.8 -3.3 -1.5l.6 -.9c.9 .6 1.9 1 3 1.3l-.3 1.1Zm-6 -3.9c-.8 -1 -1.4 -2 -1.9 -3.1l1.1 -.5c.4 1.1 1 2 1.6 2.9l-.8 .7Zm-2.7 -6.7c0 -.3 -.1 -.6 -.1 -.9v-2.5h1.2v2.5c0 .3 0 .5 0 .8l-1.1 .1Zm-.1 -6.9V426h1.2v3.4h-1.2Zm0 -6.8v-3.5h1.2v3.5h-1.2Zm0 -6.9v-3.2c0 -.1 0 -.2 0 -.3l1.2 .1c0 0 0 .1 0 .2v3.2h-1.2Zm.6 -7c.4 -1.2 1 -2.2 1.7 -3.2l.9 .6c-.6 .9 -1.1 1.9 -1.5 3l-1.1 -.4Zm4.2 -5.9c1 -.7 2.1 -1.3 3.2 -1.7l.4 1.1c-1 .4 -2 .9 -2.9 1.6l-.7 -1Zm6.8 -2.4c.2 0 .3 0 .5 0h3.4v1.2h-3.4c-.2 0 -.3 0 -.5 0v-1.2Z" class="g2_99"/>
<path d="M134.4 331.7h3.4v1.1h-3.4v-1.1Zm6.9 0h3.4v1.1h-3.4v-1.1Zm6.8 0h3.5v1.1h-3.5v-1.1Zm6.9 0h3.4v1.1H155v-1.1Zm6.9 0h3.4v1.1h-3.4v-1.1Zm6.9 0h3.4v1.1h-3.4v-1.1Zm6.8 0h3.5v1.1h-3.5v-1.1Zm6.9 0h3.4v1.1h-3.4v-1.1Zm6.9 0h3.4v1.1h-3.4v-1.1Zm6.9 0h3.4v1.1h-3.4v-1.1Zm6.8 0h3.5v1.1h-3.5v-1.1Zm6.9 0h3.4v1.1H210v-1.1Zm6.9 0h3.4v1.1h-3.4v-1.1Zm6.9 0h3.4v1.1h-3.4v-1.1Zm6.8 0h3.5v1.1h-3.5v-1.1Zm6.9 0h3.4v1.1h-3.4v-1.1Zm6.9 0h3.4v1.1h-3.4v-1.1Zm6.9 0h3.4v1.1h-3.4v-1.1Zm6.8 0h3.5v1.1h-3.5v-1.1Zm6.9 0h3.4v1.1H265v-1.1Zm6.9 0h3.4v1.1h-3.4v-1.1Zm6.9 0h3.4v1.1h-3.4v-1.1Zm6.8 0h3.5v1.1h-3.5v-1.1Zm6.9 0c1.3 .1 2.4 .4 3.6 .9l-.5 1c-1 -.4 -2.1 -.7 -3.1 -.8v-1.1Zm6.5 3.1c.9 .9 1.5 1.9 2 3l-1.1 .5c-.4 -1.1 -.9 -2 -1.7 -2.8l.8 -.7Zm2.7 6.6v3.5h-1.2v-3.5h1.2Zm0 6.9v3.4h-1.2v-3.4h1.2Zm0 6.9v3.4h-1.2v-3.4h1.2Zm0 6.9v3.4h-1.2v-3.4h1.2Zm0 6.8c0 1.3 -.3 2.5 -.7 3.6l-1.1 -.4c.4 -1 .6 -2.1 .6 -3.2h1.2Zm-2.7 6.7c-.8 .9 -1.8 1.6 -3 2.1l-.4 -1c1 -.5 1.8 -1.1 2.6 -1.9l.8 .8Zm-6.5 3c-.2 0 -.4 .1 -.6 .1H289v-1.2h2.9c.2 0 .4 0 .5 0l.1 1.1Zm-6.9 .1h-3.4v-1.2h3.4v1.2Zm-6.9 0h-3.4v-1.2h3.4v1.2Zm-6.8 0h-3.5v-1.2h3.5v1.2Zm-6.9 0h-3.5v-1.2H265v1.2Zm-6.9 0h-3.4v-1.2h3.4v1.2Zm-6.9 0h-3.4v-1.2h3.4v1.2Zm-6.8 0h-3.5v-1.2h3.5v1.2Zm-6.9 0H234v-1.2h3.5v1.2Zm-6.9 0h-3.4v-1.2h3.4v1.2Zm-6.9 0h-3.4v-1.2h3.4v1.2Zm-6.8 0h-3.5v-1.2h3.5v1.2Zm-6.9 0h-3.5v-1.2H210v1.2Zm-6.9 0h-3.4v-1.2h3.4v1.2Zm-6.9 0h-3.4v-1.2h3.4v1.2Zm-6.8 0h-3.5v-1.2h3.5v1.2Zm-6.9 0H179v-1.2h3.5v1.2Zm-6.9 0h-3.4v-1.2h3.4v1.2Zm-6.9 0h-3.4v-1.2h3.4v1.2Zm-6.8 0h-3.5v-1.2h3.5v1.2Zm-6.9 0h-3.5v-1.2H155v1.2Zm-6.9 0h-3.4v-1.2h3.4v1.2Zm-6.9 0h-3.4v-1.2h3.4v1.2Zm-6.8 0h-3.5v-1.2h3.5v1.2Zm-6.9 0c-1.3 -.1 -2.5 -.3 -3.6 -.7l.4 -1.1c1 .4 2.1 .6 3.2 .6v1.2ZM120.8 376c-.9 -.9 -1.6 -1.9 -2.1 -3l1 -.5c.5 1 1.1 1.9 1.9 2.7l-.8 .8Zm-3 -6.6c0 -.1 0 -.3 0 -.5V366h1.1v2.9c0 .2 0 .3 0 .5h-1.1Zm0 -6.8v-3.5h1.1v3.5h-1.1Zm0 -6.9v-3.5h1.1v3.5h-1.1Zm0 -6.9v-3.4h1.1v3.4h-1.1Zm0 -6.9v-.5c0 -1 .1 -2 .5 -3l1 .3c-.2 .9 -.4 1.8 -.4 2.7v.5h-1.1Zm2.2 -6.7c.8 -1 1.8 -1.8 2.9 -2.4l.5 1c-.9 .6 -1.8 1.3 -2.5 2.1l-.9 -.7Zm6.4 -3.5c.4 0 .7 0 1.1 0h3.4v1.1h-3.4c-.3 0 -.6 0 -1 .1l-.1 -1.2Z" class="g2_99"/>
<path d="M128.1 343.7h24v22.9h-24V343.7Zm34.4 0h24v22.9h-24V343.7Zm35.5 0h24v22.9H198V343.7Zm34.4 0h22.9v22.9H232.4V343.7Zm33.8 0h23.4v22.9H266.2V343.7ZM128.1 412.5H198v22.9H128.1V412.5ZM324 343.7h24.1v22.9H324V343.7Z" class="g3_99"/>
<path d="M205.7 378.7l8 -.1l.1 8.1H474.7c5.3 0 8 2.6 8 8v6h8.8l-12.8 11.2L466 400.7h8.7v-6H213.8c-5.3 0 -8 -2.7 -8.1 -8v-8Z" class="g1_99"/>
<path clip-path="url(#c1_99)" d="M209.4 412.5h44.7v22.9H209.4V412.5Zm56.8 0h67.6v22.9H266.2V412.5Zm79.6 0h69.9v22.9H345.8V412.5Zm104.3 0h57.3v22.9H450.1V412.5Zm-322 68.7H369.9v22.9H128.1V481.2Zm253.2 0H553.2v22.9H381.3V481.2Z" class="g3_99"/>
<path d="M269 447.4h8v8H463.2c5.4 0 8.1 2.7 8.1 8v6.3h9l-13 10.9L454.2 469.7h9v-6.3H277c-5.3 0 -8 -2.6 -8 -8v-8Z" class="g1_99"/>
</g>
</svg>