<?xml version="1.0" encoding="UTF-8" standalone="no"?>
<!DOCTYPE svg PUBLIC "-//W3C//DTD SVG 1.1//EN"
"http://www.w3.org/Graphics/SVG/1.1/DTD/svg11.dtd">
<svg viewBox="0 0 714 1017" version="1.1" xmlns="http://www.w3.org/2000/svg" xmlns:xlink="http://www.w3.org/1999/xlink">
<defs>
<clipPath id="c0_102"><path d="M90 754.4V661.2H647.6v93.2Z"/></clipPath>
<style type="text/css"><![CDATA[
.g0_102{
fill: #FFF;
}
.g1_102{
fill: none;
stroke: #000;
stroke-width: 1.217;
stroke-miterlimit: 10;
}
.g2_102{
fill: none;
stroke: #000;
stroke-width: 1.156;
stroke-miterlimit: 10;
}
.g3_102{
fill: none;
stroke: #000;
stroke-width: 0.76;
stroke-miterlimit: 10;
}
.g4_102{
fill: none;
stroke: #000;
stroke-width: 1.145;
stroke-miterlimit: 10;
}
]]></style>
</defs>
<path d="M0 1017.7H717.2V-3.7H0V1017.7Z" class="g0_102"/>
<path d="M104.9 416.6H276.6" class="g1_102"/>
<path d="M104.9 443.6H276.6" class="g2_102"/>
<path d="M104.9 470.3H276.6M104.9 496.8H276.6M104.9 523.3H276.6M104.9 549.9H276.6M104.9 576.4H276.6" class="g3_102"/>
<path d="M104.9 603.1H276.6M303.3 416.6H475.1" class="g1_102"/>
<path d="M303.3 443.6H475.1" class="g2_102"/>
<path d="M303.3 470.3H475.1M303.3 496.8H475.1M303.3 523.3H475.1M303.3 549.9H475.1M303.3 576.4H475.1" class="g3_102"/>
<path d="M303.3 603.1H475.1" class="g1_102"/>
<g clip-path="url(#c0_102)">
<path d="M90 661.2H645.7v92.9H90V661.2Z" class="g0_102"/>
<path d="M92.9 690.5H110v22.9H92.9V690.5Zm17.1 0h17.2v22.9H110V690.5Zm17.2 0h17.2v22.9H127.2V690.5Zm17.2 0h17.2v22.9H144.4V690.5Zm17.2 0h17.2v22.9H161.6V690.5Zm17.2 0H196v22.9H178.8V690.5Zm17.2 0h17.2v22.9H196V690.5Zm17.2 0h17.2v22.9H213.2V690.5Zm17.2 0h17.1v22.9H230.4V690.5Zm17.1 0h17.2v22.9H247.5V690.5Zm17.2 0h17.2v22.9H264.7V690.5Zm17.2 0h17.2v22.9H281.9V690.5Zm17.2 0h17.2v22.9H299.1V690.5Zm17.2 0h17.2v22.9H316.3V690.5Zm17.2 0h17.2v22.9H333.5V690.5Zm17.2 0h17.2v22.9H350.7V690.5Zm17.2 0H385v22.9H367.9V690.5Zm17.1 0h17.2v22.9H385V690.5Zm17.2 0h17.2v22.9H402.2V690.5Zm17.2 0h17.2v22.9H419.4V690.5Zm17.2 0h17.2v22.9H436.6V690.5Zm17.2 0H471v22.9H453.8V690.5Zm17.2 0h17.2v22.9H471V690.5Zm17.2 0h17.2v22.9H488.2V690.5Zm17.2 0h17.1v22.9H505.4V690.5Zm17.1 0h17.2v22.9H522.5V690.5Zm17.2 0h17.2v22.9H539.7V690.5Zm17.2 0h17.2v22.9H556.9V690.5Zm17.2 0h17.2v22.9H574.1V690.5Zm17.2 0h17.2v22.9H591.3V690.5Zm17.2 0h17.2v22.9H608.5V690.5Zm17.2 0h17.2v22.9H625.7V690.5ZM367.9 713.4c0 6.3 -5.2 11.4 -11.5 11.4H241.8c-6.3 0 -11.4 5.2 -11.4 11.5c0 -6.3 -5.2 -11.5 -11.5 -11.5H104.3c-6.3 0 -11.4 -5.1 -11.4 -11.4m550 0c0 6.3 -5.2 11.4 -11.5 11.4H516.8c-6.3 0 -11.4 5.2 -11.4 11.5c0 -6.3 -5.2 -11.5 -11.5 -11.5H379.3c-6.3 0 -11.4 -5.1 -11.4 -11.4" class="g4_102"/>
</g>
</svg>