<?xml version="1.0" encoding="UTF-8" standalone="no"?>
<!DOCTYPE svg PUBLIC "-//W3C//DTD SVG 1.1//EN"
"http://www.w3.org/Graphics/SVG/1.1/DTD/svg11.dtd">
<svg viewBox="0 0 714 1017" version="1.1" xmlns="http://www.w3.org/2000/svg" xmlns:xlink="http://www.w3.org/1999/xlink">
<defs>
<clipPath id="c0_133"><path d="M76 762.6V601H616.9V762.6Z"/></clipPath>
<clipPath id="c1_133"><path d="M76 763.1V599.6H616.9V763.1Z"/></clipPath>
<style type="text/css"><![CDATA[
.g0_133{
fill: #FFF;
}
.g1_133{
fill: none;
stroke: #000;
stroke-width: 2.291;
stroke-miterlimit: 10;
}
.g2_133{
fill: none;
stroke: #000;
stroke-width: 1.145;
stroke-miterlimit: 10;
}
.g3_133{
fill: #000;
}
]]></style>
</defs>
<path d="M0 1017.7H717.2V-3.7H0V1017.7Z" class="g0_133"/>
<g clip-path="url(#c1_133)">
<path d="M76 601H616.9V762.6H76V601Z" class="g0_133"/>
<path d="M132.6 636h81.9v45.8H132.6V636Z" class="g1_133"/>
<path d="M76.6 712c0 -4 7.7 -7.3 17.2 -7.3c4.6 0 8.9 .8 12.2 2.2c3.2 1.3 5 3.2 5 5.1v19.9c0 4 -7.7 7.2 -17.2 7.2c-9.5 0 -17.2 -3.2 -17.2 -7.2V712Zm34.4 0c0 4 -7.7 7.3 -17.2 7.3C84.3 719.3 76.6 716 76.6 712" class="g2_133"/>
<path d="M133 692.7h3.4v1.1H133m6.8 -1.1h3.5v1.1h-3.5m6.9 -1.1h3.5v1.1h-3.5m6.9 -1.1H157v1.1h-3.4m6.9 -1.1h3.4v1.1h-3.4m6.8 -1.1h3.5v1.1h-3.5m6.9 -1.1h3.5v1.1h-3.5m6.9 -1.1h3.4v1.1h-3.4m6.9 -1.1h3.4v1.1H188m6.8 -1.1h3.5v1.1h-3.5m6.9 -1.1h3.5v1.1h-3.5m6.9 -1.1H212v1.1h-3.4m6.9 -1.1h3.4v1.1h-3.4m6.8 -1.1h3.5v1.1h-3.5m6.9 -1.1h3.5v1.1h-3.5m6.9 -1.1h3.4v1.1h-3.4m6.9 -1.1h3.4v1.1H243m6.8 -1.1h3.5v1.1h-3.5m6.9 -1.1h3.5v1.1h-3.5m6.9 -1.1H267v1.1h-3.4m6.9 -1.1h3.4v1.1h-3.4m6.8 -1.1h3.5v1.1h-3.5m6.9 -1.1h3.5v1.1h-3.5m6.9 -1.1h3.4v1.1h-3.4m6.9 -1.1h3.4v1.1H298m6.8 -1.1h3.5v1.1h-3.5m6.9 -1.1h3.5v1.1h-3.5m6.9 -1.1H322v1.1h-3.4m6.9 -1.1h3.4v1.1h-3.4m6.8 -1.1h3.5v1.1h-3.5m6.9 -1.1h3.5v1.1h-3.5m6.9 -1.1h3.4v1.1h-3.4m6.9 -1.1h3.4v1.1H353m6.8 -1.1h3.5v1.1h-3.5m6.9 -1.1h3.5v1.1h-3.5m6.9 -1.1h1.3v1.1h-1.3Z" class="g3_133"/>
<path d="M82.3 641.7h23v22.9h-23V641.7Zm5.8 0V636m5.7 0v5.7M99.5 636v5.7M88.1 670.4v-5.8m5.7 0v5.8m5.7 -5.8v5.8m5.8 -23H111m0 5.8h-5.7m5.7 5.7h-5.7M76.6 647.4h5.7m0 5.8H76.6m5.7 5.7H76.6" class="g2_133"/>
<path d="M132.6 704.7h82.1v34.4H132.6V704.7Z" class="g0_133"/>
<path d="M132.6 704.7h82.1v34.4H132.6V704.7Z" class="g2_133"/>
<path d="M145.2 716.2h82.1v34.4H145.2V716.2Z" class="g0_133"/>
<path d="M145.2 716.2h82.1v34.4H145.2V716.2Z" class="g2_133"/>
<path d="M156.6 727.7h82.1V762H156.6V727.7Z" class="g0_133"/>
<path d="M156.6 727.7h82.1V762H156.6V727.7Z" class="g2_133"/>
<path d="M248.5 704.7h82.1v34.4H248.5V704.7Z" class="g0_133"/>
<path d="M248.5 704.7h82.1v34.4H248.5V704.7Z" class="g2_133"/>
<path d="M261.1 716.2h82.1v34.4H261.1V716.2Z" class="g0_133"/>
<path d="M261.1 716.2h82.1v34.4H261.1V716.2Z" class="g2_133"/>
<path d="M272.6 727.7h82V762h-82V727.7Z" class="g0_133"/>
<path d="M272.6 727.7h82V762h-82V727.7Z" class="g2_133"/>
<path d="M392.7 692.7h3.4v1.1h-3.4m6.9 -1.1H403v1.1h-3.4m6.8 -1.1h3.5v1.1h-3.5m6.9 -1.1h3.5v1.1h-3.5m6.9 -1.1h3.4v1.1h-3.4m6.9 -1.1h3.4v1.1h-3.4m6.8 -1.1h3.5v1.1h-3.5m6.9 -1.1h3.5v1.1h-3.5m6.9 -1.1h3.4v1.1h-3.4m6.9 -1.1H458v1.1h-3.4m6.8 -1.1h3.5v1.1h-3.5m6.9 -1.1h3.5v1.1h-3.5m6.9 -1.1h3.4v1.1h-3.4m6.9 -1.1h3.4v1.1h-3.4m6.8 -1.1h3.5v1.1h-3.5m6.9 -1.1h3.5v1.1h-3.5m6.9 -1.1h3.4v1.1h-3.4m6.9 -1.1H513v1.1h-3.4m6.8 -1.1h3.5v1.1h-3.5m6.9 -1.1h3.5v1.1h-3.5m6.9 -1.1h3.4v1.1h-3.4m6.9 -1.1h3.4v1.1h-3.4m6.8 -1.1h3.5v1.1h-3.5m6.9 -1.1h3.5v1.1h-3.5m6.9 -1.1h3.4v1.1h-3.4m6.9 -1.1H568v1.1h-3.4m6.8 -1.1h3.5v1.1h-3.5m6.9 -1.1h3.5v1.1h-3.5m6.9 -1.1h3.4v1.1h-3.4m6.9 -1.1h3.4v1.1h-3.4m6.8 -1.1h3.5v1.1h-3.5m6.9 -1.1h3.5v1.1h-3.5m6.9 -1.1h2.5v1.1h-2.5Z" class="g3_133"/>
<path d="M398.8 636h90.3v45.8H398.8V636Z" class="g2_133"/>
<path clip-path="url(#c0_133)" d="M397.8 704.7h91.7V762H397.8V704.7Z" class="g1_133"/>
<path d="M501 704.7h82.1v34.4H501V704.7Z" class="g0_133"/>
<path d="M501 704.7h82.1v34.4H501V704.7Z" class="g2_133"/>
<path d="M513.6 716.2h82.1v34.4H513.6V716.2Z" class="g0_133"/>
<path d="M513.6 716.2h82.1v34.4H513.6V716.2Z" class="g2_133"/>
<path d="M525 727.7h82.1V762H525V727.7Z" class="g0_133"/>
<path d="M525 727.7h82.1V762H525V727.7Z" class="g2_133"/>
</g>
</svg>