<?xml version="1.0" encoding="UTF-8" standalone="no"?>
<!DOCTYPE svg PUBLIC "-//W3C//DTD SVG 1.1//EN"
"http://www.w3.org/Graphics/SVG/1.1/DTD/svg11.dtd">
<svg viewBox="0 0 714 1017" version="1.1" xmlns="http://www.w3.org/2000/svg" xmlns:xlink="http://www.w3.org/1999/xlink">
<defs>
<clipPath id="c0_287"><path d="M70.7 740.9V280.3H621.9V740.9Z"/></clipPath>
<clipPath id="c1_287"><path d="M70.7 741.6V280.2H622.3V741.6Z"/></clipPath>
<style type="text/css"><![CDATA[
.g0_287{
fill: #FFF;
}
.g1_287{
fill: none;
stroke: #000;
stroke-width: 1.145;
stroke-miterlimit: 10;
}
.g2_287{
fill: none;
stroke: #000;
stroke-width: 2.291;
stroke-miterlimit: 10;
}
.g3_287{
fill: #000;
}
]]></style>
</defs>
<path d="M0 1017.7H717.2V-3.7H0V1017.7Z" class="g0_287"/>
<g clip-path="url(#c1_287)">
<g clip-path="url(#c0_287)">
<path d="M70.7 280.3H621.9V740.9H70.7V280.3Z" class="g0_287"/>
<path d="M71.3 621.2c0 -39.7 550 -39.7 550 0v89.4c0 39.7 -550 39.7 -550 0V621.2Z" class="g0_287"/>
<path d="M71.3 621.2c0 -39.7 550 -39.7 550 0v89.4c0 39.7 -550 39.7 -550 0V621.2Zm0 0c0 29.8 550 29.8 550 0" class="g1_287"/>
</g>
<path d="M369.2 406.9H621.3V567.3H369.2V406.9Z" class="g0_287"/>
<path d="M369.2 406.9H621.3V567.3H369.2V406.9Z" class="g1_287"/>
<path d="M71.3 406.9H323.4V567.3H71.3V406.9Z" class="g0_287"/>
<path d="M71.3 406.9H323.4V567.3H71.3V406.9Z" class="g1_287"/>
<path d="M140 687.6c0 .9 0 1.7 -.1 2.5c-.1 .8 -.2 1.7 -.4 2.5c-.2 .8 -.4 1.6 -.7 2.4c-.3 .8 -.6 1.5 -.9 2.3c-.4 .8 -.8 1.5 -1.2 2.2c-.5 .8 -1 1.5 -1.5 2.2c-.5 .6 -1.1 1.3 -1.7 1.9c-.6 .7 -1.2 1.3 -1.8 1.9c-.7 .6 -1.4 1.1 -2.1 1.6c-.8 .6 -1.5 1.1 -2.3 1.5c-.8 .5 -1.6 .9 -2.4 1.3c-.8 .4 -1.7 .7 -2.5 1c-.9 .4 -1.8 .6 -2.7 .9c-.9 .2 -1.8 .4 -2.7 .6c-.9 .1 -1.9 .3 -2.8 .3c-.9 .1 -1.9 .2 -2.8 .2c-.9 0 -1.9 -.1 -2.8 -.2c-.9 0 -1.9 -.2 -2.8 -.3c-.9 -.2 -1.8 -.4 -2.7 -.6c-.9 -.3 -1.8 -.5 -2.7 -.9c-.8 -.3 -1.7 -.6 -2.5 -1c-.8 -.4 -1.6 -.8 -2.4 -1.3c-.8 -.4 -1.5 -.9 -2.3 -1.5c-.7 -.5 -1.4 -1 -2.1 -1.6c-.6 -.6 -1.2 -1.2 -1.8 -1.9c-.6 -.6 -1.2 -1.3 -1.7 -1.9c-.5 -.7 -1 -1.4 -1.5 -2.2c-.4 -.7 -.8 -1.4 -1.2 -2.2c-.3 -.8 -.6 -1.5 -.9 -2.3c-.3 -.8 -.5 -1.6 -.7 -2.4c-.2 -.8 -.3 -1.7 -.4 -2.5c-.1 -.8 -.1 -1.6 -.1 -2.5c0 -.8 0 -1.6 .1 -2.4c.1 -.8 .2 -1.7 .4 -2.5c.2 -.8 .4 -1.6 .7 -2.4c.3 -.8 .6 -1.5 .9 -2.3c.4 -.8 .8 -1.5 1.2 -2.2c.5 -.8 1 -1.5 1.5 -2.2c.5 -.6 1.1 -1.3 1.7 -1.9c.6 -.7 1.2 -1.3 1.8 -1.9c.7 -.6 1.4 -1.1 2.1 -1.6c.8 -.6 1.5 -1.1 2.3 -1.5c.8 -.5 1.6 -.9 2.4 -1.3c.8 -.4 1.7 -.7 2.5 -1c.9 -.4 1.8 -.6 2.7 -.9c.9 -.2 1.8 -.4 2.7 -.6c.9 -.1 1.9 -.3 2.8 -.3c.9 -.1 1.9 -.2 2.8 -.2c.9 0 1.9 .1 2.8 .2c.9 0 1.9 .2 2.8 .3c.9 .2 1.8 .4 2.7 .6c.9 .3 1.8 .5 2.7 .9c.8 .3 1.7 .6 2.5 1c.8 .4 1.6 .8 2.4 1.3c.8 .4 1.5 .9 2.3 1.5c.7 .5 1.4 1 2.1 1.6c.6 .6 1.2 1.2 1.8 1.9c.6 .6 1.2 1.3 1.7 1.9c.5 .7 1 1.4 1.5 2.2c.4 .7 .8 1.4 1.2 2.2c.3 .8 .6 1.5 .9 2.3c.3 .8 .5 1.6 .7 2.4c.2 .8 .3 1.7 .4 2.5c.1 .8 .1 1.6 .1 2.4Z" class="g0_287"/>
<path d="M140 687.6c0 .9 0 1.7 -.1 2.5c-.1 .8 -.2 1.7 -.4 2.5c-.2 .8 -.4 1.6 -.7 2.4c-.3 .8 -.6 1.5 -.9 2.3c-.4 .8 -.8 1.5 -1.2 2.2c-.5 .8 -1 1.5 -1.5 2.2c-.5 .6 -1.1 1.3 -1.7 1.9c-.6 .7 -1.2 1.3 -1.8 1.9c-.7 .6 -1.4 1.1 -2.1 1.6c-.8 .6 -1.5 1.1 -2.3 1.5c-.8 .5 -1.6 .9 -2.4 1.3c-.8 .4 -1.7 .7 -2.5 1c-.9 .4 -1.8 .6 -2.7 .9c-.9 .2 -1.8 .4 -2.7 .6c-.9 .1 -1.9 .3 -2.8 .3c-.9 .1 -1.9 .2 -2.8 .2c-.9 0 -1.9 -.1 -2.8 -.2c-.9 0 -1.9 -.2 -2.8 -.3c-.9 -.2 -1.8 -.4 -2.7 -.6c-.9 -.3 -1.8 -.5 -2.7 -.9c-.8 -.3 -1.7 -.6 -2.5 -1c-.8 -.4 -1.6 -.8 -2.4 -1.3c-.8 -.4 -1.5 -.9 -2.3 -1.5c-.7 -.5 -1.4 -1 -2.1 -1.6c-.6 -.6 -1.2 -1.2 -1.8 -1.9c-.6 -.6 -1.2 -1.3 -1.7 -1.9c-.5 -.7 -1 -1.4 -1.5 -2.2c-.4 -.7 -.8 -1.4 -1.2 -2.2c-.3 -.8 -.6 -1.5 -.9 -2.3c-.3 -.8 -.5 -1.6 -.7 -2.4c-.2 -.8 -.3 -1.7 -.4 -2.5c-.1 -.8 -.1 -1.6 -.1 -2.5c0 -.8 0 -1.6 .1 -2.4c.1 -.8 .2 -1.7 .4 -2.5c.2 -.8 .4 -1.6 .7 -2.4c.3 -.8 .6 -1.5 .9 -2.3c.4 -.8 .8 -1.5 1.2 -2.2c.5 -.8 1 -1.5 1.5 -2.2c.5 -.6 1.1 -1.3 1.7 -1.9c.6 -.7 1.2 -1.3 1.8 -1.9c.7 -.6 1.4 -1.1 2.1 -1.6c.8 -.6 1.5 -1.1 2.3 -1.5c.8 -.5 1.6 -.9 2.4 -1.3c.8 -.4 1.7 -.7 2.5 -1c.9 -.4 1.8 -.6 2.7 -.9c.9 -.2 1.8 -.4 2.7 -.6c.9 -.1 1.9 -.3 2.8 -.3c.9 -.1 1.9 -.2 2.8 -.2c.9 0 1.9 .1 2.8 .2c.9 0 1.9 .2 2.8 .3c.9 .2 1.8 .4 2.7 .6c.9 .3 1.8 .5 2.7 .9c.8 .3 1.7 .6 2.5 1c.8 .4 1.6 .8 2.4 1.3c.8 .4 1.5 .9 2.3 1.5c.7 .5 1.4 1 2.1 1.6c.6 .6 1.2 1.2 1.8 1.9c.6 .6 1.2 1.3 1.7 1.9c.5 .7 1 1.4 1.5 2.2c.4 .7 .8 1.4 1.2 2.2c.3 .8 .6 1.5 .9 2.3c.3 .8 .5 1.6 .7 2.4c.2 .8 .3 1.7 .4 2.5c.1 .8 .1 1.6 .1 2.4Zm-28.6 25.3H140" class="g2_287"/>
<path d="M609.8 687.6c0 .9 0 1.7 -.1 2.5c-.1 .8 -.2 1.7 -.4 2.5c-.2 .8 -.4 1.6 -.7 2.4c-.3 .8 -.6 1.5 -.9 2.3c-.4 .8 -.8 1.5 -1.2 2.2c-.5 .8 -1 1.5 -1.5 2.2c-.5 .6 -1.1 1.3 -1.7 1.9c-.6 .7 -1.2 1.3 -1.9 1.9c-.6 .6 -1.3 1.1 -2 1.6c-.8 .6 -1.5 1.1 -2.3 1.5c-.8 .5 -1.6 .9 -2.4 1.3c-.8 .4 -1.7 .7 -2.5 1c-.9 .4 -1.8 .6 -2.7 .9c-.9 .2 -1.8 .4 -2.7 .6c-.9 .1 -1.9 .3 -2.8 .3c-.9 .1 -1.9 .2 -2.8 .2c-.9 0 -1.9 -.1 -2.8 -.2c-.9 0 -1.9 -.2 -2.8 -.3c-.9 -.2 -1.8 -.4 -2.7 -.6c-.9 -.3 -1.8 -.5 -2.7 -.9c-.8 -.3 -1.7 -.6 -2.5 -1c-.8 -.4 -1.6 -.8 -2.4 -1.3c-.8 -.4 -1.6 -.9 -2.3 -1.5c-.7 -.5 -1.4 -1 -2.1 -1.6c-.6 -.6 -1.3 -1.2 -1.9 -1.9c-.5 -.6 -1.1 -1.3 -1.6 -1.9c-.5 -.7 -1 -1.4 -1.5 -2.2c-.4 -.7 -.8 -1.4 -1.2 -2.2c-.3 -.8 -.6 -1.5 -.9 -2.3c-.3 -.8 -.5 -1.6 -.7 -2.4c-.2 -.8 -.3 -1.7 -.4 -2.5c-.1 -.8 -.2 -1.6 -.2 -2.5c0 -.8 .1 -1.6 .2 -2.4c.1 -.8 .2 -1.7 .4 -2.5c.2 -.8 .4 -1.6 .7 -2.4c.3 -.8 .6 -1.5 .9 -2.3c.4 -.8 .8 -1.5 1.2 -2.2c.5 -.8 1 -1.5 1.5 -2.2c.5 -.6 1.1 -1.3 1.6 -1.9c.6 -.7 1.3 -1.3 1.9 -1.9c.7 -.6 1.4 -1.1 2.1 -1.6c.7 -.6 1.5 -1.1 2.3 -1.5c.8 -.5 1.6 -.9 2.4 -1.3c.8 -.4 1.7 -.7 2.5 -1c.9 -.4 1.8 -.6 2.7 -.9c.9 -.2 1.8 -.4 2.7 -.6c.9 -.1 1.9 -.3 2.8 -.3c.9 -.1 1.9 -.2 2.8 -.2c.9 0 1.9 .1 2.8 .2c.9 0 1.9 .2 2.8 .3c.9 .2 1.8 .4 2.7 .6c.9 .3 1.8 .5 2.7 .9c.8 .3 1.7 .6 2.5 1c.8 .4 1.6 .8 2.4 1.3c.8 .4 1.5 .9 2.3 1.5c.7 .5 1.4 1 2 1.6c.7 .6 1.3 1.2 1.9 1.9c.6 .6 1.2 1.3 1.7 1.9c.5 .7 1 1.4 1.5 2.2c.4 .7 .8 1.4 1.2 2.2c.3 .8 .6 1.5 .9 2.3c.3 .8 .5 1.6 .7 2.4c.2 .8 .3 1.7 .4 2.5c.1 .8 .1 1.6 .1 2.4Z" class="g0_287"/>
<path d="M609.8 687.6c0 .9 0 1.7 -.1 2.5c-.1 .8 -.2 1.7 -.4 2.5c-.2 .8 -.4 1.6 -.7 2.4c-.3 .8 -.6 1.5 -.9 2.3c-.4 .8 -.8 1.5 -1.2 2.2c-.5 .8 -1 1.5 -1.5 2.2c-.5 .6 -1.1 1.3 -1.7 1.9c-.6 .7 -1.2 1.3 -1.9 1.9c-.6 .6 -1.3 1.1 -2 1.6c-.8 .6 -1.5 1.1 -2.3 1.5c-.8 .5 -1.6 .9 -2.4 1.3c-.8 .4 -1.7 .7 -2.5 1c-.9 .4 -1.8 .6 -2.7 .9c-.9 .2 -1.8 .4 -2.7 .6c-.9 .1 -1.9 .3 -2.8 .3c-.9 .1 -1.9 .2 -2.8 .2c-.9 0 -1.9 -.1 -2.8 -.2c-.9 0 -1.9 -.2 -2.8 -.3c-.9 -.2 -1.8 -.4 -2.7 -.6c-.9 -.3 -1.8 -.5 -2.7 -.9c-.8 -.3 -1.7 -.6 -2.5 -1c-.8 -.4 -1.6 -.8 -2.4 -1.3c-.8 -.4 -1.6 -.9 -2.3 -1.5c-.7 -.5 -1.4 -1 -2.1 -1.6c-.6 -.6 -1.3 -1.2 -1.9 -1.9c-.5 -.6 -1.1 -1.3 -1.6 -1.9c-.5 -.7 -1 -1.4 -1.5 -2.2c-.4 -.7 -.8 -1.4 -1.2 -2.2c-.3 -.8 -.6 -1.5 -.9 -2.3c-.3 -.8 -.5 -1.6 -.7 -2.4c-.2 -.8 -.3 -1.7 -.4 -2.5c-.1 -.8 -.2 -1.6 -.2 -2.5c0 -.8 .1 -1.6 .2 -2.4c.1 -.8 .2 -1.7 .4 -2.5c.2 -.8 .4 -1.6 .7 -2.4c.3 -.8 .6 -1.5 .9 -2.3c.4 -.8 .8 -1.5 1.2 -2.2c.5 -.8 1 -1.5 1.5 -2.2c.5 -.6 1.1 -1.3 1.6 -1.9c.6 -.7 1.3 -1.3 1.9 -1.9c.7 -.6 1.4 -1.1 2.1 -1.6c.7 -.6 1.5 -1.1 2.3 -1.5c.8 -.5 1.6 -.9 2.4 -1.3c.8 -.4 1.7 -.7 2.5 -1c.9 -.4 1.8 -.6 2.7 -.9c.9 -.2 1.8 -.4 2.7 -.6c.9 -.1 1.9 -.3 2.8 -.3c.9 -.1 1.9 -.2 2.8 -.2c.9 0 1.9 .1 2.8 .2c.9 0 1.9 .2 2.8 .3c.9 .2 1.8 .4 2.7 .6c.9 .3 1.8 .5 2.7 .9c.8 .3 1.7 .6 2.5 1c.8 .4 1.6 .8 2.4 1.3c.8 .4 1.5 .9 2.3 1.5c.7 .5 1.4 1 2 1.6c.7 .6 1.3 1.2 1.9 1.9c.6 .6 1.2 1.3 1.7 1.9c.5 .7 1 1.4 1.5 2.2c.4 .7 .8 1.4 1.2 2.2c.3 .8 .6 1.5 .9 2.3c.3 .8 .5 1.6 .7 2.4c.2 .8 .3 1.7 .4 2.5c.1 .8 .1 1.6 .1 2.4Zm-28.6 25.3h28.6" class="g2_287"/>
<path d="M220.3 473.4l17.1 11.7h-11v13.3h11L220.3 510L203.1 498.4h11V485.1h-11l17.2 -11.7Z" class="g0_287"/>
<path d="M220.3 473.4l17.1 11.7h-11v13.3h11L220.3 510L203.1 498.4h11V485.1h-11l17.2 -11.7Z" class="g1_287"/>
<path d="M472.3 473.4l17.2 11.7h-11v13.3h11L472.3 510L455.2 498.4h11V485.1h-11l17.1 -11.7Z" class="g0_287"/>
<path d="M472.3 473.4l17.2 11.7h-11v13.3h11L472.3 510L455.2 498.4h11V485.1h-11l17.1 -11.7Z" class="g1_287"/>
<path d="M111.4 555.9V653" class="g2_287"/>
<path d="M111.4 659.9l-3.1 -9.2l3.1 2.3l3.1 -2.3l-3.1 9.2Z" class="g3_287"/>
<path d="M111.4 659.9l-3.1 -9.2l3.1 2.3l3.1 -2.3l-3.1 9.2Z" class="g2_287"/>
<path d="M87.9 521.5h47c.7 0 1.3 .1 2 .4c.6 .3 1.2 .6 1.6 1.1c.5 .5 .9 1.1 1.2 1.7c.2 .6 .3 1.3 .3 2v24c0 .7 -.1 1.4 -.3 2c-.3 .6 -.7 1.2 -1.2 1.7c-.4 .5 -1 .8 -1.6 1.1c-.7 .2 -1.3 .4 -2 .4h-47c-.7 0 -1.3 -.2 -2 -.4c-.6 -.3 -1.2 -.6 -1.6 -1.1c-.5 -.5 -.9 -1.1 -1.2 -1.7c-.2 -.6 -.3 -1.3 -.3 -2v-24c0 -.7 .1 -1.4 .3 -2c.3 -.6 .7 -1.2 1.2 -1.7c.4 -.5 1 -.8 1.6 -1.1c.7 -.3 1.3 -.4 2 -.4Z" class="g0_287"/>
<path d="M87.9 521.5h47c.7 0 1.3 .1 2 .4c.6 .3 1.2 .6 1.6 1.1c.5 .5 .9 1.1 1.2 1.7c.2 .6 .3 1.3 .3 2v24c0 .7 -.1 1.4 -.3 2c-.3 .6 -.7 1.2 -1.2 1.7c-.4 .5 -1 .8 -1.6 1.1c-.7 .2 -1.3 .4 -2 .4h-47c-.7 0 -1.3 -.2 -2 -.4c-.6 -.3 -1.2 -.6 -1.6 -1.1c-.5 -.5 -.9 -1.1 -1.2 -1.7c-.2 -.6 -.3 -1.3 -.3 -2v-24c0 -.7 .1 -1.4 .3 -2c.3 -.6 .7 -1.2 1.2 -1.7c.4 -.5 1 -.8 1.6 -1.1c.7 -.3 1.3 -.4 2 -.4Z" class="g1_287"/>
<path d="M557.7 521.5h47c.7 0 1.3 .1 2 .4c.6 .3 1.1 .6 1.6 1.1c.5 .5 .9 1.1 1.1 1.7c.3 .6 .4 1.3 .4 2v24c0 .7 -.1 1.4 -.4 2c-.2 .6 -.6 1.2 -1.1 1.7c-.5 .5 -1 .8 -1.6 1.1c-.7 .2 -1.3 .4 -2 .4h-47c-.7 0 -1.3 -.2 -2 -.4c-.6 -.3 -1.2 -.6 -1.6 -1.1c-.5 -.5 -.9 -1.1 -1.2 -1.7c-.2 -.6 -.4 -1.3 -.4 -2v-24c0 -.7 .2 -1.4 .4 -2c.3 -.6 .7 -1.2 1.2 -1.7c.4 -.5 1 -.8 1.6 -1.1c.7 -.3 1.3 -.4 2 -.4Z" class="g0_287"/>
<path d="M557.7 521.5h47c.7 0 1.3 .1 2 .4c.6 .3 1.1 .6 1.6 1.1c.5 .5 .9 1.1 1.1 1.7c.3 .6 .4 1.3 .4 2v24c0 .7 -.1 1.4 -.4 2c-.2 .6 -.6 1.2 -1.1 1.7c-.5 .5 -1 .8 -1.6 1.1c-.7 .2 -1.3 .4 -2 .4h-47c-.7 0 -1.3 -.2 -2 -.4c-.6 -.3 -1.2 -.6 -1.6 -1.1c-.5 -.5 -.9 -1.1 -1.2 -1.7c-.2 -.6 -.4 -1.3 -.4 -2v-24c0 -.7 .2 -1.4 .4 -2c.3 -.6 .7 -1.2 1.2 -1.7c.4 -.5 1 -.8 1.6 -1.1c.7 -.3 1.3 -.4 2 -.4Z" class="g1_287"/>
<path d="M581.2 555.9V653" class="g2_287"/>
<path d="M581.2 659.9l-3.1 -9.2l3.1 2.3l3.1 -2.3l-3.1 9.2Z" class="g3_287"/>
<path d="M581.2 659.9l-3.1 -9.2l3.1 2.3l3.1 -2.3l-3.1 9.2Z" class="g2_287"/>
<path d="M151.5 417.2h22.9v22.9H151.5V417.2Z" class="g0_287"/>
<path d="M151.5 417.2h22.9v22.9H151.5V417.2Z" class="g1_287"/>
<path d="M174.4 417.2h22.9v22.9H174.4V417.2Z" class="g0_287"/>
<path d="M174.4 417.2h22.9v22.9H174.4V417.2Z" class="g1_287"/>
<path d="M197.3 417.2h23v22.9h-23V417.2Z" class="g0_287"/>
<path d="M197.3 417.2h23v22.9h-23V417.2Z" class="g1_287"/>
<path d="M220.3 417.2h22.9v22.9H220.3V417.2Z" class="g0_287"/>
<path d="M220.3 417.2h22.9v22.9H220.3V417.2Z" class="g1_287"/>
<path d="M220.3 440.1h22.9v23H220.3v-23Z" class="g0_287"/>
<path d="M220.3 440.1h22.9v23H220.3v-23Z" class="g1_287"/>
<path d="M197.3 440.1h23v23h-23v-23Z" class="g0_287"/>
<path d="M197.3 440.1h23v23h-23v-23Z" class="g1_287"/>
<path d="M174.4 440.1h22.9v23H174.4v-23Z" class="g0_287"/>
<path d="M174.4 440.1h22.9v23H174.4v-23Z" class="g1_287"/>
<path d="M151.5 440.1h22.9v23H151.5v-23Z" class="g0_287"/>
<path d="M151.5 440.1h22.9v23H151.5v-23Z" class="g1_287"/>
<path d="M243.2 417.2h22.9v22.9H243.2V417.2Z" class="g0_287"/>
<path d="M243.2 417.2h22.9v22.9H243.2V417.2Z" class="g1_287"/>
<path d="M266.1 417.2H289v22.9H266.1V417.2Z" class="g0_287"/>
<path d="M266.1 417.2H289v22.9H266.1V417.2Z" class="g1_287"/>
<path d="M266.1 440.1H289v23H266.1v-23Z" class="g0_287"/>
<path d="M266.1 440.1H289v23H266.1v-23Z" class="g1_287"/>
<path d="M243.2 440.1h22.9v23H243.2v-23Z" class="g0_287"/>
<path d="M243.2 440.1h22.9v23H243.2v-23Z" class="g1_287"/>
<path d="M289 417.2h22.9v22.9H289V417.2Z" class="g0_287"/>
<path d="M289 417.2h22.9v22.9H289V417.2Z" class="g1_287"/>
<path d="M289 440.1h22.9v23H289v-23Z" class="g0_287"/>
<path d="M289 440.1h22.9v23H289v-23Z" class="g1_287"/>
<path d="M403.6 417.2h22.9v22.9H403.6V417.2Z" class="g0_287"/>
<path d="M403.6 417.2h22.9v22.9H403.6V417.2Z" class="g1_287"/>
<path d="M426.5 417.2h22.9v22.9H426.5V417.2Z" class="g0_287"/>
<path d="M426.5 417.2h22.9v22.9H426.5V417.2Z" class="g1_287"/>
<path d="M449.4 417.2h22.9v22.9H449.4V417.2Z" class="g0_287"/>
<path d="M449.4 417.2h22.9v22.9H449.4V417.2Z" class="g1_287"/>
<path d="M472.3 417.2h23v22.9h-23V417.2Z" class="g0_287"/>
<path d="M472.3 417.2h23v22.9h-23V417.2Z" class="g1_287"/>
<path d="M472.3 440.1h23v23h-23v-23Z" class="g0_287"/>
<path d="M472.3 440.1h23v23h-23v-23Z" class="g1_287"/>
<path d="M449.4 440.1h22.9v23H449.4v-23Z" class="g0_287"/>
<path d="M449.4 440.1h22.9v23H449.4v-23Z" class="g1_287"/>
<path d="M426.5 440.1h22.9v23H426.5v-23Z" class="g0_287"/>
<path d="M426.5 440.1h22.9v23H426.5v-23Z" class="g1_287"/>
<path d="M403.6 440.1h22.9v23H403.6v-23Z" class="g0_287"/>
<path d="M403.6 440.1h22.9v23H403.6v-23Z" class="g1_287"/>
<path d="M495.3 417.2h22.9v22.9H495.3V417.2Z" class="g0_287"/>
<path d="M495.3 417.2h22.9v22.9H495.3V417.2Z" class="g1_287"/>
<path d="M518.2 417.2h22.9v22.9H518.2V417.2Z" class="g0_287"/>
<path d="M518.2 417.2h22.9v22.9H518.2V417.2Z" class="g1_287"/>
<path d="M518.2 440.1h22.9v23H518.2v-23Z" class="g0_287"/>
<path d="M518.2 440.1h22.9v23H518.2v-23Z" class="g1_287"/>
<path d="M495.3 440.1h22.9v23H495.3v-23Z" class="g0_287"/>
<path d="M495.3 440.1h22.9v23H495.3v-23Z" class="g1_287"/>
<path d="M380.7 417.2h22.9v22.9H380.7V417.2Z" class="g0_287"/>
<path d="M380.7 417.2h22.9v22.9H380.7V417.2Z" class="g1_287"/>
<path d="M380.7 440.1h22.9v23H380.7v-23Z" class="g0_287"/>
<path d="M380.7 440.1h22.9v23H380.7v-23Z" class="g1_287"/>
<path d="M384.7 521.5h47c.6 0 1.3 .1 1.9 .4c.7 .3 1.2 .6 1.7 1.1c.5 .5 .9 1.1 1.1 1.7c.3 .6 .4 1.3 .4 2v24c0 .7 -.1 1.4 -.4 2c-.2 .6 -.6 1.2 -1.1 1.7c-.5 .5 -1 .8 -1.7 1.1c-.6 .2 -1.3 .4 -1.9 .4h-47c-.7 0 -1.4 -.2 -2 -.4c-.6 -.3 -1.2 -.6 -1.7 -1.1c-.4 -.5 -.8 -1.1 -1.1 -1.7c-.2 -.6 -.4 -1.3 -.4 -2v-24c0 -.7 .2 -1.4 .4 -2c.3 -.6 .7 -1.2 1.1 -1.7c.5 -.5 1.1 -.8 1.7 -1.1c.6 -.3 1.3 -.4 2 -.4Z" class="g0_287"/>
<path d="M384.7 521.5h47c.6 0 1.3 .1 1.9 .4c.7 .3 1.2 .6 1.7 1.1c.5 .5 .9 1.1 1.1 1.7c.3 .6 .4 1.3 .4 2v24c0 .7 -.1 1.4 -.4 2c-.2 .6 -.6 1.2 -1.1 1.7c-.5 .5 -1 .8 -1.7 1.1c-.6 .2 -1.3 .4 -1.9 .4h-47c-.7 0 -1.4 -.2 -2 -.4c-.6 -.3 -1.2 -.6 -1.7 -1.1c-.4 -.5 -.8 -1.1 -1.1 -1.7c-.2 -.6 -.4 -1.3 -.4 -2v-24c0 -.7 .2 -1.4 .4 -2c.3 -.6 .7 -1.2 1.1 -1.7c.5 -.5 1.1 -.8 1.7 -1.1c.6 -.3 1.3 -.4 2 -.4Z" class="g1_287"/>
<path d="M396.1 521.5h47c.7 0 1.4 .1 2 .4c.6 .3 1.2 .6 1.7 1.1c.4 .5 .8 1.1 1.1 1.7c.2 .6 .4 1.3 .4 2v24c0 .7 -.2 1.4 -.4 2c-.3 .6 -.7 1.2 -1.1 1.7c-.5 .5 -1.1 .8 -1.7 1.1c-.6 .2 -1.3 .4 -2 .4h-47c-.6 0 -1.3 -.2 -1.9 -.4c-.7 -.3 -1.2 -.6 -1.7 -1.1c-.5 -.5 -.9 -1.1 -1.1 -1.7c-.3 -.6 -.4 -1.3 -.4 -2v-24c0 -.7 .1 -1.4 .4 -2c.2 -.6 .6 -1.2 1.1 -1.7c.5 -.5 1 -.8 1.7 -1.1c.6 -.3 1.3 -.4 1.9 -.4Z" class="g0_287"/>
<path d="M396.1 521.5h47c.7 0 1.4 .1 2 .4c.6 .3 1.2 .6 1.7 1.1c.4 .5 .8 1.1 1.1 1.7c.2 .6 .4 1.3 .4 2v24c0 .7 -.2 1.4 -.4 2c-.3 .6 -.7 1.2 -1.1 1.7c-.5 .5 -1.1 .8 -1.7 1.1c-.6 .2 -1.3 .4 -2 .4h-47c-.6 0 -1.3 -.2 -1.9 -.4c-.7 -.3 -1.2 -.6 -1.7 -1.1c-.5 -.5 -.9 -1.1 -1.1 -1.7c-.3 -.6 -.4 -1.3 -.4 -2v-24c0 -.7 .1 -1.4 .4 -2c.2 -.6 .6 -1.2 1.1 -1.7c.5 -.5 1 -.8 1.7 -1.1c.6 -.3 1.3 -.4 1.9 -.4Z" class="g1_287"/>
<path d="M407.6 521.5h47c.7 0 1.3 .1 2 .4c.6 .3 1.1 .6 1.6 1.1c.5 .5 .9 1.1 1.1 1.7c.3 .6 .4 1.3 .4 2v24c0 .7 -.1 1.4 -.4 2c-.2 .6 -.6 1.2 -1.1 1.7c-.5 .5 -1 .8 -1.6 1.1c-.7 .2 -1.3 .4 -2 .4h-47c-.7 0 -1.3 -.2 -2 -.4c-.6 -.3 -1.2 -.6 -1.6 -1.1c-.5 -.5 -.9 -1.1 -1.2 -1.7c-.2 -.6 -.4 -1.3 -.4 -2v-24c0 -.7 .2 -1.4 .4 -2c.3 -.6 .7 -1.2 1.2 -1.7c.4 -.5 1 -.8 1.6 -1.1c.7 -.3 1.3 -.4 2 -.4Z" class="g0_287"/>
<path d="M407.6 521.5h47c.7 0 1.3 .1 2 .4c.6 .3 1.1 .6 1.6 1.1c.5 .5 .9 1.1 1.1 1.7c.3 .6 .4 1.3 .4 2v24c0 .7 -.1 1.4 -.4 2c-.2 .6 -.6 1.2 -1.1 1.7c-.5 .5 -1 .8 -1.6 1.1c-.7 .2 -1.3 .4 -2 .4h-47c-.7 0 -1.3 -.2 -2 -.4c-.6 -.3 -1.2 -.6 -1.6 -1.1c-.5 -.5 -.9 -1.1 -1.2 -1.7c-.2 -.6 -.4 -1.3 -.4 -2v-24c0 -.7 .2 -1.4 .4 -2c.3 -.6 .7 -1.2 1.2 -1.7c.4 -.5 1 -.8 1.6 -1.1c.7 -.3 1.3 -.4 2 -.4Z" class="g1_287"/>
<path d="M419.1 521.5H466c.7 0 1.4 .1 2 .4c.6 .3 1.2 .6 1.7 1.1c.5 .5 .8 1.1 1.1 1.7c.3 .6 .4 1.3 .4 2v24c0 .7 -.1 1.4 -.4 2c-.3 .6 -.6 1.2 -1.1 1.7c-.5 .5 -1.1 .8 -1.7 1.1c-.6 .2 -1.3 .4 -2 .4H419.1c-.7 0 -1.4 -.2 -2 -.4c-.6 -.3 -1.2 -.6 -1.7 -1.1c-.5 -.5 -.8 -1.1 -1.1 -1.7c-.3 -.6 -.4 -1.3 -.4 -2v-24c0 -.7 .1 -1.4 .4 -2c.3 -.6 .6 -1.2 1.1 -1.7c.5 -.5 1.1 -.8 1.7 -1.1c.6 -.3 1.3 -.4 2 -.4Z" class="g0_287"/>
<path d="M419.1 521.5H466c.7 0 1.4 .1 2 .4c.6 .3 1.2 .6 1.7 1.1c.5 .5 .8 1.1 1.1 1.7c.3 .6 .4 1.3 .4 2v24c0 .7 -.1 1.4 -.4 2c-.3 .6 -.6 1.2 -1.1 1.7c-.5 .5 -1.1 .8 -1.7 1.1c-.6 .2 -1.3 .4 -2 .4H419.1c-.7 0 -1.4 -.2 -2 -.4c-.6 -.3 -1.2 -.6 -1.7 -1.1c-.5 -.5 -.8 -1.1 -1.1 -1.7c-.3 -.6 -.4 -1.3 -.4 -2v-24c0 -.7 .1 -1.4 .4 -2c.3 -.6 .6 -1.2 1.1 -1.7c.5 -.5 1.1 -.8 1.7 -1.1c.6 -.3 1.3 -.4 2 -.4Z" class="g1_287"/>
<path d="M430.5 521.5h47c.7 0 1.3 .1 2 .4c.6 .3 1.2 .6 1.6 1.1c.5 .5 .9 1.1 1.2 1.7c.2 .6 .4 1.3 .4 2v24c0 .7 -.2 1.4 -.4 2c-.3 .6 -.7 1.2 -1.2 1.7c-.4 .5 -1 .8 -1.6 1.1c-.7 .2 -1.3 .4 -2 .4h-47c-.7 0 -1.3 -.2 -2 -.4c-.6 -.3 -1.1 -.6 -1.6 -1.1c-.5 -.5 -.9 -1.1 -1.1 -1.7c-.3 -.6 -.4 -1.3 -.4 -2v-24c0 -.7 .1 -1.4 .4 -2c.2 -.6 .6 -1.2 1.1 -1.7c.5 -.5 1 -.8 1.6 -1.1c.7 -.3 1.3 -.4 2 -.4Z" class="g0_287"/>
<path d="M430.5 521.5h47c.7 0 1.3 .1 2 .4c.6 .3 1.2 .6 1.6 1.1c.5 .5 .9 1.1 1.2 1.7c.2 .6 .4 1.3 .4 2v24c0 .7 -.2 1.4 -.4 2c-.3 .6 -.7 1.2 -1.2 1.7c-.4 .5 -1 .8 -1.6 1.1c-.7 .2 -1.3 .4 -2 .4h-47c-.7 0 -1.3 -.2 -2 -.4c-.6 -.3 -1.1 -.6 -1.6 -1.1c-.5 -.5 -.9 -1.1 -1.1 -1.7c-.3 -.6 -.4 -1.3 -.4 -2v-24c0 -.7 .1 -1.4 .4 -2c.2 -.6 .6 -1.2 1.1 -1.7c.5 -.5 1 -.8 1.6 -1.1c.7 -.3 1.3 -.4 2 -.4Z" class="g1_287"/>
<path d="M489 521.5h46.9c.7 0 1.4 .1 2 .4c.6 .3 1.2 .6 1.7 1.1c.5 .5 .8 1.1 1.1 1.7c.3 .6 .4 1.3 .4 2v24c0 .7 -.1 1.4 -.4 2c-.3 .6 -.6 1.2 -1.1 1.7c-.5 .5 -1.1 .8 -1.7 1.1c-.6 .2 -1.3 .4 -2 .4H489c-.7 0 -1.4 -.2 -2 -.4c-.7 -.3 -1.2 -.6 -1.7 -1.1c-.5 -.5 -.8 -1.1 -1.1 -1.7c-.3 -.6 -.4 -1.3 -.4 -2v-24c0 -.7 .1 -1.4 .4 -2c.3 -.6 .6 -1.2 1.1 -1.7c.5 -.5 1 -.8 1.7 -1.1c.6 -.3 1.3 -.4 2 -.4Z" class="g0_287"/>
<path d="M489 521.5h46.9c.7 0 1.4 .1 2 .4c.6 .3 1.2 .6 1.7 1.1c.5 .5 .8 1.1 1.1 1.7c.3 .6 .4 1.3 .4 2v24c0 .7 -.1 1.4 -.4 2c-.3 .6 -.6 1.2 -1.1 1.7c-.5 .5 -1.1 .8 -1.7 1.1c-.6 .2 -1.3 .4 -2 .4H489c-.7 0 -1.4 -.2 -2 -.4c-.7 -.3 -1.2 -.6 -1.7 -1.1c-.5 -.5 -.8 -1.1 -1.1 -1.7c-.3 -.6 -.4 -1.3 -.4 -2v-24c0 -.7 .1 -1.4 .4 -2c.3 -.6 .6 -1.2 1.1 -1.7c.5 -.5 1 -.8 1.7 -1.1c.6 -.3 1.3 -.4 2 -.4Z" class="g1_287"/>
<path d="M156.7 521.5h46.9c.7 0 1.4 .1 2 .4c.6 .3 1.2 .6 1.7 1.1c.5 .5 .8 1.1 1.1 1.7c.3 .6 .4 1.3 .4 2v24c0 .7 -.1 1.4 -.4 2c-.3 .6 -.6 1.2 -1.1 1.7c-.5 .5 -1.1 .8 -1.7 1.1c-.6 .2 -1.3 .4 -2 .4H156.7c-.7 0 -1.4 -.2 -2 -.4c-.6 -.3 -1.2 -.6 -1.7 -1.1c-.5 -.5 -.8 -1.1 -1.1 -1.7c-.3 -.6 -.4 -1.3 -.4 -2v-24c0 -.7 .1 -1.4 .4 -2c.3 -.6 .6 -1.2 1.1 -1.7c.5 -.5 1.1 -.8 1.7 -1.1c.6 -.3 1.3 -.4 2 -.4Z" class="g0_287"/>
<path d="M156.7 521.5h46.9c.7 0 1.4 .1 2 .4c.6 .3 1.2 .6 1.7 1.1c.5 .5 .8 1.1 1.1 1.7c.3 .6 .4 1.3 .4 2v24c0 .7 -.1 1.4 -.4 2c-.3 .6 -.6 1.2 -1.1 1.7c-.5 .5 -1.1 .8 -1.7 1.1c-.6 .2 -1.3 .4 -2 .4H156.7c-.7 0 -1.4 -.2 -2 -.4c-.6 -.3 -1.2 -.6 -1.7 -1.1c-.5 -.5 -.8 -1.1 -1.1 -1.7c-.3 -.6 -.4 -1.3 -.4 -2v-24c0 -.7 .1 -1.4 .4 -2c.3 -.6 .6 -1.2 1.1 -1.7c.5 -.5 1.1 -.8 1.7 -1.1c.6 -.3 1.3 -.4 2 -.4Z" class="g1_287"/>
<path d="M214 521.5h46.9c.7 0 1.4 .1 2 .4c.6 .3 1.2 .6 1.7 1.1c.5 .5 .8 1.1 1.1 1.7c.3 .6 .4 1.3 .4 2v24c0 .7 -.1 1.4 -.4 2c-.3 .6 -.6 1.2 -1.1 1.7c-.5 .5 -1.1 .8 -1.7 1.1c-.6 .2 -1.3 .4 -2 .4H214c-.7 0 -1.4 -.2 -2 -.4c-.7 -.3 -1.2 -.6 -1.7 -1.1c-.5 -.5 -.8 -1.1 -1.1 -1.7c-.3 -.6 -.4 -1.3 -.4 -2v-24c0 -.7 .1 -1.4 .4 -2c.3 -.6 .6 -1.2 1.1 -1.7c.5 -.5 1 -.8 1.7 -1.1c.6 -.3 1.3 -.4 2 -.4Z" class="g0_287"/>
<path d="M214 521.5h46.9c.7 0 1.4 .1 2 .4c.6 .3 1.2 .6 1.7 1.1c.5 .5 .8 1.1 1.1 1.7c.3 .6 .4 1.3 .4 2v24c0 .7 -.1 1.4 -.4 2c-.3 .6 -.6 1.2 -1.1 1.7c-.5 .5 -1.1 .8 -1.7 1.1c-.6 .2 -1.3 .4 -2 .4H214c-.7 0 -1.4 -.2 -2 -.4c-.7 -.3 -1.2 -.6 -1.7 -1.1c-.5 -.5 -.8 -1.1 -1.1 -1.7c-.3 -.6 -.4 -1.3 -.4 -2v-24c0 -.7 .1 -1.4 .4 -2c.3 -.6 .6 -1.2 1.1 -1.7c.5 -.5 1 -.8 1.7 -1.1c.6 -.3 1.3 -.4 2 -.4Z" class="g1_287"/>
<path d="M225.4 521.5h47c.7 0 1.3 .1 2 .4c.6 .3 1.2 .6 1.6 1.1c.5 .5 .9 1.1 1.2 1.7c.2 .6 .3 1.3 .3 2v24c0 .7 -.1 1.4 -.3 2c-.3 .6 -.7 1.2 -1.2 1.7c-.4 .5 -1 .8 -1.6 1.1c-.7 .2 -1.3 .4 -2 .4h-47c-.7 0 -1.3 -.2 -2 -.4c-.6 -.3 -1.2 -.6 -1.6 -1.1c-.5 -.5 -.9 -1.1 -1.2 -1.7c-.2 -.6 -.3 -1.3 -.3 -2v-24c0 -.7 .1 -1.4 .3 -2c.3 -.6 .7 -1.2 1.2 -1.7c.4 -.5 1 -.8 1.6 -1.1c.7 -.3 1.3 -.4 2 -.4Z" class="g0_287"/>
<path d="M225.4 521.5h47c.7 0 1.3 .1 2 .4c.6 .3 1.2 .6 1.6 1.1c.5 .5 .9 1.1 1.2 1.7c.2 .6 .3 1.3 .3 2v24c0 .7 -.1 1.4 -.3 2c-.3 .6 -.7 1.2 -1.2 1.7c-.4 .5 -1 .8 -1.6 1.1c-.7 .2 -1.3 .4 -2 .4h-47c-.7 0 -1.3 -.2 -2 -.4c-.6 -.3 -1.2 -.6 -1.6 -1.1c-.5 -.5 -.9 -1.1 -1.2 -1.7c-.2 -.6 -.3 -1.3 -.3 -2v-24c0 -.7 .1 -1.4 .3 -2c.3 -.6 .7 -1.2 1.2 -1.7c.4 -.5 1 -.8 1.6 -1.1c.7 -.3 1.3 -.4 2 -.4Z" class="g1_287"/>
<path d="M236.9 521.5h46.9c.7 0 1.4 .1 2 .4c.7 .3 1.2 .6 1.7 1.1c.5 .5 .9 1.1 1.1 1.7c.3 .6 .4 1.3 .4 2v24c0 .7 -.1 1.4 -.4 2c-.2 .6 -.6 1.2 -1.1 1.7c-.5 .5 -1 .8 -1.7 1.1c-.6 .2 -1.3 .4 -2 .4H236.9c-.7 0 -1.4 -.2 -2 -.4c-.6 -.3 -1.2 -.6 -1.7 -1.1c-.5 -.5 -.8 -1.1 -1.1 -1.7c-.3 -.6 -.4 -1.3 -.4 -2v-24c0 -.7 .1 -1.4 .4 -2c.3 -.6 .6 -1.2 1.1 -1.7c.5 -.5 1.1 -.8 1.7 -1.1c.6 -.3 1.3 -.4 2 -.4Z" class="g0_287"/>
<path d="M236.9 521.5h46.9c.7 0 1.4 .1 2 .4c.7 .3 1.2 .6 1.7 1.1c.5 .5 .9 1.1 1.1 1.7c.3 .6 .4 1.3 .4 2v24c0 .7 -.1 1.4 -.4 2c-.2 .6 -.6 1.2 -1.1 1.7c-.5 .5 -1 .8 -1.7 1.1c-.6 .2 -1.3 .4 -2 .4H236.9c-.7 0 -1.4 -.2 -2 -.4c-.6 -.3 -1.2 -.6 -1.7 -1.1c-.5 -.5 -.8 -1.1 -1.1 -1.7c-.3 -.6 -.4 -1.3 -.4 -2v-24c0 -.7 .1 -1.4 .4 -2c.3 -.6 .6 -1.2 1.1 -1.7c.5 -.5 1.1 -.8 1.7 -1.1c.6 -.3 1.3 -.4 2 -.4Z" class="g1_287"/>
<path d="M248.3 521.5h47c.7 0 1.3 .1 2 .4c.6 .3 1.2 .6 1.7 1.1c.4 .5 .8 1.1 1.1 1.7c.2 .6 .4 1.3 .4 2v24c0 .7 -.2 1.4 -.4 2c-.3 .6 -.7 1.2 -1.1 1.7c-.5 .5 -1.1 .8 -1.7 1.1c-.7 .2 -1.3 .4 -2 .4h-47c-.7 0 -1.3 -.2 -1.9 -.4c-.7 -.3 -1.2 -.6 -1.7 -1.1c-.5 -.5 -.9 -1.1 -1.1 -1.7c-.3 -.6 -.4 -1.3 -.4 -2v-24c0 -.7 .1 -1.4 .4 -2c.2 -.6 .6 -1.2 1.1 -1.7c.5 -.5 1 -.8 1.7 -1.1c.6 -.3 1.2 -.4 1.9 -.4Z" class="g0_287"/>
<path d="M248.3 521.5h47c.7 0 1.3 .1 2 .4c.6 .3 1.2 .6 1.7 1.1c.4 .5 .8 1.1 1.1 1.7c.2 .6 .4 1.3 .4 2v24c0 .7 -.2 1.4 -.4 2c-.3 .6 -.7 1.2 -1.1 1.7c-.5 .5 -1.1 .8 -1.7 1.1c-.7 .2 -1.3 .4 -2 .4h-47c-.7 0 -1.3 -.2 -1.9 -.4c-.7 -.3 -1.2 -.6 -1.7 -1.1c-.5 -.5 -.9 -1.1 -1.1 -1.7c-.3 -.6 -.4 -1.3 -.4 -2v-24c0 -.7 .1 -1.4 .4 -2c.2 -.6 .6 -1.2 1.1 -1.7c.5 -.5 1 -.8 1.7 -1.1c.6 -.3 1.2 -.4 1.9 -.4Z" class="g1_287"/>
<path d="M259.8 521.5h47c.6 0 1.3 .1 1.9 .4c.7 .3 1.2 .6 1.7 1.1c.5 .5 .9 1.1 1.1 1.7c.3 .6 .4 1.3 .4 2v24c0 .7 -.1 1.4 -.4 2c-.2 .6 -.6 1.2 -1.1 1.7c-.5 .5 -1 .8 -1.7 1.1c-.6 .2 -1.3 .4 -1.9 .4h-47c-.7 0 -1.4 -.2 -2 -.4c-.6 -.3 -1.2 -.6 -1.7 -1.1c-.4 -.5 -.8 -1.1 -1.1 -1.7c-.2 -.6 -.4 -1.3 -.4 -2v-24c0 -.7 .2 -1.4 .4 -2c.3 -.6 .7 -1.2 1.1 -1.7c.5 -.5 1.1 -.8 1.7 -1.1c.6 -.3 1.3 -.4 2 -.4Z" class="g0_287"/>
<path d="M259.8 521.5h47c.6 0 1.3 .1 1.9 .4c.7 .3 1.2 .6 1.7 1.1c.5 .5 .9 1.1 1.1 1.7c.3 .6 .4 1.3 .4 2v24c0 .7 -.1 1.4 -.4 2c-.2 .6 -.6 1.2 -1.1 1.7c-.5 .5 -1 .8 -1.7 1.1c-.6 .2 -1.3 .4 -1.9 .4h-47c-.7 0 -1.4 -.2 -2 -.4c-.6 -.3 -1.2 -.6 -1.7 -1.1c-.4 -.5 -.8 -1.1 -1.1 -1.7c-.2 -.6 -.4 -1.3 -.4 -2v-24c0 -.7 .2 -1.4 .4 -2c.3 -.6 .7 -1.2 1.1 -1.7c.5 -.5 1.1 -.8 1.7 -1.1c.6 -.3 1.3 -.4 2 -.4Z" class="g1_287"/>
<path d="M163 656.7h22.9v22.9H163V656.7Z" class="g0_287"/>
<path d="M163 656.7h22.9v22.9H163V656.7Z" class="g1_287"/>
<path d="M185.9 656.7h22.9v22.9H185.9V656.7Z" class="g0_287"/>
<path d="M185.9 656.7h22.9v22.9H185.9V656.7Z" class="g1_287"/>
<path d="M185.9 679.6h22.9v22.9H185.9V679.6Z" class="g0_287"/>
<path d="M185.9 679.6h22.9v22.9H185.9V679.6Z" class="g1_287"/>
<path d="M163 679.6h22.9v22.9H163V679.6Z" class="g0_287"/>
<path d="M163 679.6h22.9v22.9H163V679.6Z" class="g1_287"/>
<path d="M163 702.5h22.9v23H163v-23Z" class="g0_287"/>
<path d="M163 702.5h22.9v23H163v-23Z" class="g1_287"/>
<path d="M185.9 702.5h22.9v23H185.9v-23Z" class="g0_287"/>
<path d="M185.9 702.5h22.9v23H185.9v-23Z" class="g1_287"/>
<path d="M483.8 702.5h22.9v23H483.8v-23Z" class="g0_287"/>
<path d="M483.8 702.5h22.9v23H483.8v-23Z" class="g1_287"/>
<path d="M506.7 702.5h22.9v23H506.7v-23Z" class="g0_287"/>
<path d="M506.7 702.5h22.9v23H506.7v-23Z" class="g1_287"/>
<path d="M483.8 656.7h22.9v22.9H483.8V656.7Z" class="g0_287"/>
<path d="M483.8 656.7h22.9v22.9H483.8V656.7Z" class="g1_287"/>
<path d="M506.7 656.7h22.9v22.9H506.7V656.7Z" class="g0_287"/>
<path d="M506.7 656.7h22.9v22.9H506.7V656.7Z" class="g1_287"/>
<path d="M506.7 679.6h22.9v22.9H506.7V679.6Z" class="g0_287"/>
<path d="M506.7 679.6h22.9v22.9H506.7V679.6Z" class="g1_287"/>
<path d="M483.8 679.6h22.9v22.9H483.8V679.6Z" class="g0_287"/>
<path d="M483.8 679.6h22.9v22.9H483.8V679.6Z" class="g1_287"/>
<path d="M208.8 656.7h22.9v22.9H208.8V656.7Z" class="g0_287"/>
<path d="M208.8 656.7h22.9v22.9H208.8V656.7Z" class="g1_287"/>
<path d="M231.7 656.7h22.9v22.9H231.7V656.7Z" class="g0_287"/>
<path d="M231.7 656.7h22.9v22.9H231.7V656.7Z" class="g1_287"/>
<path d="M254.6 656.7h22.9v22.9H254.6V656.7Z" class="g0_287"/>
<path d="M254.6 656.7h22.9v22.9H254.6V656.7Z" class="g1_287"/>
<path d="M277.5 656.7h23v22.9h-23V656.7Z" class="g0_287"/>
<path d="M277.5 656.7h23v22.9h-23V656.7Z" class="g1_287"/>
<path d="M277.5 679.6h23v22.9h-23V679.6Z" class="g0_287"/>
<path d="M277.5 679.6h23v22.9h-23V679.6Z" class="g1_287"/>
<path d="M254.6 679.6h22.9v22.9H254.6V679.6Z" class="g0_287"/>
<path d="M254.6 679.6h22.9v22.9H254.6V679.6Z" class="g1_287"/>
<path d="M231.7 679.6h22.9v22.9H231.7V679.6Z" class="g0_287"/>
<path d="M231.7 679.6h22.9v22.9H231.7V679.6Z" class="g1_287"/>
<path d="M208.8 679.6h22.9v22.9H208.8V679.6Z" class="g0_287"/>
<path d="M208.8 679.6h22.9v22.9H208.8V679.6Z" class="g1_287"/>
<path d="M208.8 702.5h22.9v23H208.8v-23Z" class="g0_287"/>
<path d="M208.8 702.5h22.9v23H208.8v-23Z" class="g1_287"/>
<path d="M231.7 702.5h22.9v23H231.7v-23Z" class="g0_287"/>
<path d="M231.7 702.5h22.9v23H231.7v-23Z" class="g1_287"/>
<path d="M254.6 702.5h22.9v23H254.6v-23Z" class="g0_287"/>
<path d="M254.6 702.5h22.9v23H254.6v-23Z" class="g1_287"/>
<path d="M277.5 702.5h23v23h-23v-23Z" class="g0_287"/>
<path d="M277.5 702.5h23v23h-23v-23Z" class="g1_287"/>
<path d="M300.5 702.5h22.9v23H300.5v-23Z" class="g0_287"/>
<path d="M300.5 702.5h22.9v23H300.5v-23Z" class="g1_287"/>
<path d="M323.4 702.5h22.9v23H323.4v-23Z" class="g0_287"/>
<path d="M323.4 702.5h22.9v23H323.4v-23Z" class="g1_287"/>
<path d="M346.3 702.5h22.9v23H346.3v-23Z" class="g0_287"/>
<path d="M346.3 702.5h22.9v23H346.3v-23Z" class="g1_287"/>
<path d="M369.2 702.5h22.9v23H369.2v-23Z" class="g0_287"/>
<path d="M369.2 702.5h22.9v23H369.2v-23Z" class="g1_287"/>
<path d="M300.5 656.7h22.9v22.9H300.5V656.7Z" class="g0_287"/>
<path d="M300.5 656.7h22.9v22.9H300.5V656.7Z" class="g1_287"/>
<path d="M323.4 656.7h22.9v22.9H323.4V656.7Z" class="g0_287"/>
<path d="M323.4 656.7h22.9v22.9H323.4V656.7Z" class="g1_287"/>
<path d="M346.3 656.7h22.9v22.9H346.3V656.7Z" class="g0_287"/>
<path d="M346.3 656.7h22.9v22.9H346.3V656.7Z" class="g1_287"/>
<path d="M369.2 656.7h22.9v22.9H369.2V656.7Z" class="g0_287"/>
<path d="M369.2 656.7h22.9v22.9H369.2V656.7Z" class="g1_287"/>
<path d="M369.2 679.6h22.9v22.9H369.2V679.6Z" class="g0_287"/>
<path d="M369.2 679.6h22.9v22.9H369.2V679.6Z" class="g1_287"/>
<path d="M346.3 679.6h22.9v22.9H346.3V679.6Z" class="g0_287"/>
<path d="M346.3 679.6h22.9v22.9H346.3V679.6Z" class="g1_287"/>
<path d="M323.4 679.6h22.9v22.9H323.4V679.6Z" class="g0_287"/>
<path d="M323.4 679.6h22.9v22.9H323.4V679.6Z" class="g1_287"/>
<path d="M300.5 679.6h22.9v22.9H300.5V679.6Z" class="g0_287"/>
<path d="M300.5 679.6h22.9v22.9H300.5V679.6Z" class="g1_287"/>
<path d="M392.1 702.5H415v23H392.1v-23Z" class="g0_287"/>
<path d="M392.1 702.5H415v23H392.1v-23Z" class="g1_287"/>
<path d="M415 702.5h23v23H415v-23Z" class="g0_287"/>
<path d="M415 702.5h23v23H415v-23Z" class="g1_287"/>
<path d="M438 702.5h22.9v23H438v-23Z" class="g0_287"/>
<path d="M438 702.5h22.9v23H438v-23Z" class="g1_287"/>
<path d="M460.9 702.5h22.9v23H460.9v-23Z" class="g0_287"/>
<path d="M460.9 702.5h22.9v23H460.9v-23Z" class="g1_287"/>
<path d="M392.1 656.7H415v22.9H392.1V656.7Z" class="g0_287"/>
<path d="M392.1 656.7H415v22.9H392.1V656.7Z" class="g1_287"/>
<path d="M415 656.7h23v22.9H415V656.7Z" class="g0_287"/>
<path d="M415 656.7h23v22.9H415V656.7Z" class="g1_287"/>
<path d="M438 656.7h22.9v22.9H438V656.7Z" class="g0_287"/>
<path d="M438 656.7h22.9v22.9H438V656.7Z" class="g1_287"/>
<path d="M460.9 656.7h22.9v22.9H460.9V656.7Z" class="g0_287"/>
<path d="M460.9 656.7h22.9v22.9H460.9V656.7Z" class="g1_287"/>
<path d="M460.9 679.6h22.9v22.9H460.9V679.6Z" class="g0_287"/>
<path d="M460.9 679.6h22.9v22.9H460.9V679.6Z" class="g1_287"/>
<path d="M438 679.6h22.9v22.9H438V679.6Z" class="g0_287"/>
<path d="M438 679.6h22.9v22.9H438V679.6Z" class="g1_287"/>
<path d="M415 679.6h23v22.9H415V679.6Z" class="g0_287"/>
<path d="M415 679.6h23v22.9H415V679.6Z" class="g1_287"/>
<path d="M392.1 679.6H415v22.9H392.1V679.6Z" class="g0_287"/>
<path d="M392.1 679.6H415v22.9H392.1V679.6Z" class="g1_287"/>
<path d="M512.4 555.9v91.4" class="g2_287"/>
<path d="M512.4 654.1l-3 -9.1l3 2.3l3.1 -2.3l-3.1 9.1Z" class="g3_287"/>
<path d="M512.4 654.1l-3 -9.1l3 2.3l3.1 -2.3l-3.1 9.1ZM180.2 555.9v91.4" class="g2_287"/>
<path d="M180.2 654.1L177.1 645l3.1 2.3l3 -2.3l-3 9.1Z" class="g3_287"/>
<path d="M180.2 654.1L177.1 645l3.1 2.3l3 -2.3l-3 9.1Zm103.1 2.6V565.3" class="g2_287"/>
<path d="M283.3 558.4l3 9.2l-3 -2.3l-3.1 2.3l3.1 -9.2Z" class="g3_287"/>
<path d="M283.3 558.4l3 9.2l-3 -2.3l-3.1 2.3l3.1 -9.2Zm171.9 98.3l-1.1 -91.4" class="g2_287"/>
<path d="M454 558.4l3.2 9.2l-3.1 -2.3l-3 2.3l2.9 -9.2Z" class="g3_287"/>
<path d="M454 558.4l3.2 9.2l-3.1 -2.3l-3 2.3l2.9 -9.2Z" class="g2_287"/>
<path d="M208.8 280.9H482.7V381.7H208.8V280.9Z" class="g0_287"/>
<path d="M208.8 280.9H482.7V381.7H208.8V280.9Z" class="g1_287"/>
<path d="M379.5 321h22.9v22.9H379.5V321Z" class="g0_287"/>
<path d="M379.5 321h22.9v22.9H379.5V321Z" class="g1_287"/>
<path d="M402.4 321h23v22.9h-23V321Z" class="g0_287"/>
<path d="M402.4 321h23v22.9h-23V321Z" class="g1_287"/>
<path d="M402.4 343.9h23v22.9h-23V343.9Z" class="g0_287"/>
<path d="M402.4 343.9h23v22.9h-23V343.9Z" class="g1_287"/>
<path d="M379.5 343.9h22.9v22.9H379.5V343.9Z" class="g0_287"/>
<path d="M379.5 343.9h22.9v22.9H379.5V343.9Z" class="g1_287"/>
<path d="M425.4 321h22.9v22.9H425.4V321Z" class="g0_287"/>
<path d="M425.4 321h22.9v22.9H425.4V321Z" class="g1_287"/>
<path d="M448.3 321h22.9v22.9H448.3V321Z" class="g0_287"/>
<path d="M448.3 321h22.9v22.9H448.3V321Z" class="g1_287"/>
<path d="M448.3 343.9h22.9v22.9H448.3V343.9Z" class="g0_287"/>
<path d="M448.3 343.9h22.9v22.9H448.3V343.9Z" class="g1_287"/>
<path d="M425.4 343.9h22.9v22.9H425.4V343.9Z" class="g0_287"/>
<path d="M425.4 343.9h22.9v22.9H425.4V343.9Z" class="g1_287"/>
<path d="M226.3 295.8h63.5c.7 0 1.4 0 2.1 .2c.7 .1 1.3 .3 2 .6c.6 .3 1.2 .6 1.8 1c.6 .4 1.1 .8 1.6 1.3c.5 .5 1 1 1.4 1.6c.4 .6 .7 1.2 1 1.9c.2 .6 .4 1.3 .6 2c.1 .6 .2 1.3 .2 2v49.8c0 .7 -.1 1.4 -.2 2c-.2 .7 -.4 1.4 -.6 2c-.3 .7 -.6 1.3 -1 1.9c-.4 .6 -.9 1.1 -1.4 1.6c-.5 .5 -1 .9 -1.6 1.3c-.6 .4 -1.2 .7 -1.8 1c-.7 .3 -1.3 .5 -2 .6c-.7 .1 -1.4 .2 -2.1 .2H226.3c-.7 0 -1.4 -.1 -2.1 -.2c-.6 -.1 -1.3 -.3 -1.9 -.6c-.7 -.3 -1.3 -.6 -1.9 -1c-.6 -.4 -1.1 -.8 -1.6 -1.3c-.5 -.5 -.9 -1 -1.3 -1.6c-.4 -.6 -.7 -1.2 -1 -1.9c-.3 -.6 -.5 -1.3 -.6 -2c-.2 -.6 -.2 -1.3 -.2 -2V306.4c0 -.7 0 -1.4 .2 -2c.1 -.7 .3 -1.4 .6 -2c.3 -.7 .6 -1.3 1 -1.9c.4 -.6 .8 -1.1 1.3 -1.6c.5 -.5 1 -.9 1.6 -1.3c.6 -.4 1.2 -.7 1.9 -1c.6 -.3 1.3 -.5 1.9 -.6c.7 -.2 1.4 -.2 2.1 -.2Z" class="g0_287"/>
<path d="M226.3 295.8h63.5c.7 0 1.4 0 2.1 .2c.7 .1 1.3 .3 2 .6c.6 .3 1.2 .6 1.8 1c.6 .4 1.1 .8 1.6 1.3c.5 .5 1 1 1.4 1.6c.4 .6 .7 1.2 1 1.9c.2 .6 .4 1.3 .6 2c.1 .6 .2 1.3 .2 2v49.8c0 .7 -.1 1.4 -.2 2c-.2 .7 -.4 1.4 -.6 2c-.3 .7 -.6 1.3 -1 1.9c-.4 .6 -.9 1.1 -1.4 1.6c-.5 .5 -1 .9 -1.6 1.3c-.6 .4 -1.2 .7 -1.8 1c-.7 .3 -1.3 .5 -2 .6c-.7 .1 -1.4 .2 -2.1 .2H226.3c-.7 0 -1.4 -.1 -2.1 -.2c-.6 -.1 -1.3 -.3 -1.9 -.6c-.7 -.3 -1.3 -.6 -1.9 -1c-.6 -.4 -1.1 -.8 -1.6 -1.3c-.5 -.5 -.9 -1 -1.3 -1.6c-.4 -.6 -.7 -1.2 -1 -1.9c-.3 -.6 -.5 -1.3 -.6 -2c-.2 -.6 -.2 -1.3 -.2 -2V306.4c0 -.7 0 -1.4 .2 -2c.1 -.7 .3 -1.4 .6 -2c.3 -.7 .6 -1.3 1 -1.9c.4 -.6 .8 -1.1 1.3 -1.6c.5 -.5 1 -.9 1.6 -1.3c.6 -.4 1.2 -.7 1.9 -1c.6 -.3 1.3 -.5 1.9 -.6c.7 -.2 1.4 -.2 2.1 -.2Z" class="g1_287"/>
<path d="M220.3 316.4h22.9v22.9H220.3V316.4Z" class="g0_287"/>
<path d="M220.3 316.4h22.9v22.9H220.3V316.4Z" class="g1_287"/>
<path d="M243.2 339.3L220.3 316.4m0 22.9l22.9 -22.9" class="g2_287"/>
<path d="M243.2 316.4h22.9v22.9H243.2V316.4Z" class="g0_287"/>
<path d="M243.2 316.4h22.9v22.9H243.2V316.4Z" class="g1_287"/>
<path d="M266.1 339.3L243.2 316.4m0 22.9l22.9 -22.9" class="g2_287"/>
<path d="M266.1 316.4H289v22.9H266.1V316.4Z" class="g0_287"/>
<path d="M266.1 316.4H289v22.9H266.1V316.4Z" class="g1_287"/>
<path d="M289 339.3L266.1 316.4m0 22.9L289 316.4" class="g2_287"/>
<path d="M266.1 339.3H289v22.9H266.1V339.3Z" class="g0_287"/>
<path d="M266.1 339.3H289v22.9H266.1V339.3Z" class="g1_287"/>
<path d="M289 362.2L266.1 339.3m0 22.9L289 339.3" class="g2_287"/>
<path d="M243.2 339.3h22.9v22.9H243.2V339.3Z" class="g0_287"/>
<path d="M243.2 339.3h22.9v22.9H243.2V339.3Z" class="g1_287"/>
<path d="M266.1 362.2L243.2 339.3m0 22.9l22.9 -22.9" class="g2_287"/>
<path d="M392.1 374.8l17.2 11.7h-11v13.3h11l-17.2 11.7L374.9 399.8h11V386.5h-11l17.2 -11.7Z" class="g0_287"/>
<path d="M392.1 374.8l17.2 11.7h-11v13.3h11l-17.2 11.7L374.9 399.8h11V386.5h-11l17.2 -11.7Z" class="g1_287"/>
<path d="M300.5 374.8l17.2 11.7h-11v13.3h11l-17.2 11.7L283.3 399.8h11V386.5h-11l17.2 -11.7Z" class="g0_287"/>
<path d="M300.5 374.8l17.2 11.7h-11v13.3h11l-17.2 11.7L283.3 399.8h11V386.5h-11l17.2 -11.7Z" class="g1_287"/>
<path d="M557.7 417.2h47c.7 0 1.3 .2 2 .4c.6 .3 1.1 .7 1.6 1.1c.5 .5 .9 1.1 1.1 1.7c.3 .6 .4 1.3 .4 2v24.1c0 .6 -.1 1.3 -.4 1.9c-.2 .7 -.6 1.2 -1.1 1.7c-.5 .5 -1 .9 -1.6 1.1c-.7 .3 -1.3 .4 -2 .4h-47c-.7 0 -1.3 -.1 -2 -.4c-.6 -.2 -1.2 -.6 -1.6 -1.1c-.5 -.5 -.9 -1 -1.2 -1.7c-.2 -.6 -.4 -1.3 -.4 -1.9V422.4c0 -.7 .2 -1.4 .4 -2c.3 -.6 .7 -1.2 1.2 -1.7c.4 -.4 1 -.8 1.6 -1.1c.7 -.2 1.3 -.4 2 -.4Z" class="g0_287"/>
<path d="M557.7 417.2h47c.7 0 1.3 .2 2 .4c.6 .3 1.1 .7 1.6 1.1c.5 .5 .9 1.1 1.1 1.7c.3 .6 .4 1.3 .4 2v24.1c0 .6 -.1 1.3 -.4 1.9c-.2 .7 -.6 1.2 -1.1 1.7c-.5 .5 -1 .9 -1.6 1.1c-.7 .3 -1.3 .4 -2 .4h-47c-.7 0 -1.3 -.1 -2 -.4c-.6 -.2 -1.2 -.6 -1.6 -1.1c-.5 -.5 -.9 -1 -1.2 -1.7c-.2 -.6 -.4 -1.3 -.4 -1.9V422.4c0 -.7 .2 -1.4 .4 -2c.3 -.6 .7 -1.2 1.2 -1.7c.4 -.4 1 -.8 1.6 -1.1c.7 -.2 1.3 -.4 2 -.4Z" class="g1_287"/>
<path d="M110.8 411.7v-1.2H112v1.2h-1.2Zm0 -2.3v-1.2H112v1.2h-1.2Zm0 -2.3v-1.2H112v1.2h-1.2Zm0 -2.3v-1.2H112v1.2h-1.2Zm0 -2.3v-1.2H112v1.2h-1.2Zm0 -2.3V399H112v1.2h-1.2Zm0 -2.3v-1.1H112v1.1h-1.2Zm0 -2.3v-1.1H112v1.1h-1.2Zm0 -2.3v-1.1H112v1.1h-1.2Zm0 -2.3v-1.1H112V391h-1.2Zm0 -2.3v-1.1H112v1.1h-1.2Zm0 -2.3v-1.1H112v1.1h-1.2Zm0 -2.2V383H112v1.2h-1.2Zm0 -2.3v-1.2H112v1.2h-1.2Zm0 -2.3v-1.2H112v1.2h-1.2Zm0 -2.3v-1.2H112v1.2h-1.2Zm0 -2.3v-1.2H112V375h-1.2Zm0 -2.3v-1.2H112v1.2h-1.2Zm0 -2.3v-1.1H112v1.1h-1.2Zm0 -2.3V367H112v1.1h-1.2Zm0 -2.3v-1.1H112v1.1h-1.2Zm0 -2.3v-1.1H112v1.1h-1.2Zm0 -2.3v-1.1H112v1.1h-1.2Zm0 -2.3v-1.1H112v1.1h-1.2Zm0 -2.2v-1.2H112v1.2h-1.2Zm0 -2.3v-1.2H112v1.2h-1.2Zm0 -2.3v-1.2H112v1.2h-1.2Zm0 -2.3v-1.2H112v1.2h-1.2Zm0 -2.3v-1.2H112v1.2h-1.2Zm0 -2.3V344H112v1.2h-1.2Zm0 -2.3v-1.1H112v1.1h-1.2Zm0 -2.3v-1.1H112v1.1h-1.2Zm0 -2.3v-1.1H112v1.1h-1.2Zm0 -2.3v-1.1H112V336h-1.2Zm0 -2.3v-1.1H112v1.1h-1.2Zm0 -2.3v-1.1H112v1.1h-1.2Zm0 -2.2V328H112v1.2h-1.2Zm0 -2.3v-1.2H112v1.2h-1.2Zm0 -2.3v-1.2H112v1.2h-1.2Zm0 -2.3v-1.2H112v1.2h-1.2Zm0 -2.3v-1.2H112V320h-1.2Zm0 -2.3v-1.2H112v1.2h-1.2Zm0 -2.3v-1.1H112v1.1h-1.2Zm1.6 -1.9h1.1v1.2h-1.1v-1.2Zm2.3 0h1.1v1.2h-1.1v-1.2Zm2.3 0h1.1v1.2H117v-1.2Zm2.3 0h1.1v1.2h-1.1v-1.2Zm2.3 0h1.1v1.2h-1.1v-1.2Zm2.3 0H125v1.2h-1.1v-1.2Zm2.2 0h1.2v1.2h-1.2v-1.2Zm2.3 0h1.2v1.2h-1.2v-1.2Zm2.3 0h1.2v1.2h-1.2v-1.2Zm2.3 0h1.2v1.2H133v-1.2Zm2.3 0h1.2v1.2h-1.2v-1.2Zm2.3 0h1.2v1.2h-1.2v-1.2Zm2.3 0H141v1.2h-1.1v-1.2Zm2.3 0h1.1v1.2h-1.1v-1.2Zm2.3 0h1.1v1.2h-1.1v-1.2Zm2.3 0h1.1v1.2h-1.1v-1.2Zm2.3 0h1.1v1.2h-1.1v-1.2Zm2.3 0h1.1v1.2h-1.1v-1.2Zm2.2 0h1.2v1.2h-1.2v-1.2Zm2.3 0h1.2v1.2h-1.2v-1.2Zm2.3 0h1.2v1.2h-1.2v-1.2Zm2.3 0h1.2v1.2h-1.2v-1.2Zm2.3 0H164v1.2h-1.2v-1.2Zm2.3 0h1.2v1.2h-1.2v-1.2Zm2.3 0h1.1v1.2h-1.1v-1.2Zm2.3 0h1.1v1.2h-1.1v-1.2Zm2.3 0h1.1v1.2H172v-1.2Zm2.3 0h1.1v1.2h-1.1v-1.2Zm2.3 0h1.1v1.2h-1.1v-1.2Zm2.3 0H180v1.2h-1.1v-1.2Zm2.2 0h1.2v1.2h-1.2v-1.2Zm2.3 0h1.2v1.2h-1.2v-1.2Zm2.3 0h1.2v1.2h-1.2v-1.2Zm2.3 0h1.2v1.1H188v-1.1Zm2.3 -.1h1.1l.1 1.2h-1.2v-1.2Zm2.3 0h1.1l.1 1.1l-1.2 .1v-1.2Zm2.3 0l1.1 -.1l.1 1.2h-1.2v-1.1Zm2.3 -.1h1.1v1.1l-1.1 .1v-1.2Zm2.3 0l1.1 -.1v1.2h-1.1v-1.1Zm2.3 -.1h1.1v1.2h-1.1v-1.2Zm2.2 0h1.2v1.1h-1.1l-.1 -1.1Zm2.3 -.1h1.2v1.2h-1.1l-.1 -1.2Zm2.3 0h1.2v1.1h-1.1l-.1 -1.1Z" class="g3_287"/>
<path d="M111.4 415.9l-1.9 -5.7l1.9 1.5l1.9 -1.5l-1.9 5.7Z" class="g3_287"/>
<path d="M111.4 415.9l-1.9 -5.7l1.9 1.5l1.9 -1.5l-1.9 5.7Z" class="g1_287"/>
<path d="M214.4 313.6l-5.7 2l1.4 -2l-1.5 -1.8l5.8 1.8Z" class="g3_287"/>
<path d="M214.4 313.6l-5.7 2l1.4 -2l-1.5 -1.8l5.8 1.8Z" class="g1_287"/>
<path d="M87.9 417.2h47c.7 0 1.3 .2 2 .4c.6 .3 1.2 .7 1.6 1.1c.5 .5 .9 1.1 1.2 1.7c.2 .6 .3 1.3 .3 2v24.1c0 .6 -.1 1.3 -.3 1.9c-.3 .7 -.7 1.2 -1.2 1.7c-.4 .5 -1 .9 -1.6 1.1c-.7 .3 -1.3 .4 -2 .4h-47c-.7 0 -1.3 -.1 -2 -.4c-.6 -.2 -1.2 -.6 -1.6 -1.1c-.5 -.5 -.9 -1 -1.2 -1.7c-.2 -.6 -.3 -1.3 -.3 -1.9V422.4c0 -.7 .1 -1.4 .3 -2c.3 -.6 .7 -1.2 1.2 -1.7c.4 -.4 1 -.8 1.6 -1.1c.7 -.2 1.3 -.4 2 -.4Z" class="g0_287"/>
<path d="M87.9 417.2h47c.7 0 1.3 .2 2 .4c.6 .3 1.2 .7 1.6 1.1c.5 .5 .9 1.1 1.2 1.7c.2 .6 .3 1.3 .3 2v24.1c0 .6 -.1 1.3 -.3 1.9c-.3 .7 -.7 1.2 -1.2 1.7c-.4 .5 -1 .9 -1.6 1.1c-.7 .3 -1.3 .4 -2 .4h-47c-.7 0 -1.3 -.1 -2 -.4c-.6 -.2 -1.2 -.6 -1.6 -1.1c-.5 -.5 -.9 -1 -1.2 -1.7c-.2 -.6 -.3 -1.3 -.3 -1.9V422.4c0 -.7 .1 -1.4 .3 -2c.3 -.6 .7 -1.2 1.2 -1.7c.4 -.4 1 -.8 1.6 -1.1c.7 -.2 1.3 -.4 2 -.4Z" class="g1_287"/>
<path d="M580.6 411.7v-1.2h1.2v1.2h-1.2Zm0 -2.3v-1.2h1.2v1.2h-1.2Zm0 -2.3v-1.2h1.2v1.2h-1.2Zm0 -2.3v-1.2h1.2v1.2h-1.2Zm0 -2.3v-1.2h1.2v1.2h-1.2Zm0 -2.3V399h1.2v1.2h-1.2Zm0 -2.3v-1.1h1.2v1.1h-1.2Zm0 -2.3v-1.1h1.2v1.1h-1.2Zm0 -2.3v-1.1h1.2v1.1h-1.2Zm0 -2.3v-1.1h1.2V391h-1.2Zm0 -2.3v-1.1h1.2v1.1h-1.2Zm0 -2.3v-1.1h1.2v1.1h-1.2Zm0 -2.2V383h1.2v1.2h-1.2Zm0 -2.3v-1.2h1.2v1.2h-1.2Zm0 -2.3v-1.2h1.2v1.2h-1.2Zm0 -2.3v-1.2h1.2v1.2h-1.2Zm0 -2.3v-1.2h1.2V375h-1.2Zm0 -2.3v-1.2h1.2v1.2h-1.2Zm0 -2.3v-1.1h1.2v1.1h-1.2Zm0 -2.3V367h1.2v1.1h-1.2Zm0 -2.3v-1.1h1.2v1.1h-1.2Zm0 -2.3v-1.1h1.2v1.1h-1.2Zm0 -2.3v-1.1h1.2v1.1h-1.2Zm0 -2.3v-1.1h1.2v1.1h-1.2Zm0 -2.2v-1.2h1.2v1.2h-1.2Zm0 -2.3v-1.2h1.2v1.2h-1.2Zm0 -2.3v-1.2h1.2v1.2h-1.2Zm0 -2.3v-1.2h1.2v1.2h-1.2Zm0 -2.3v-1.2h1.2v1.2h-1.2Zm0 -2.3V344h1.2v1.2h-1.2Zm0 -2.3v-1.1h1.2v1.1h-1.2Zm0 -2.3v-1.1h1.2v1.1h-1.2Zm0 -2.3v-1.1h1.2v1.1h-1.2Zm0 -2.3v-1.1h1.2V336h-1.2Zm0 -2.3v-1.1h1.2v1.1h-1.2Zm0 -2.3v-1.1h1.2v1.1h-1.2Zm0 -2.2V328h1.2v1.2h-1.2Zm0 -2.3v-1.2h1.2v1.2h-1.2Zm0 -2.3v-1.2h1.2v1.2h-1.2Zm0 -2.3v-1.2h1.2v1.2h-1.2Zm0 -2.3v-1.2h1.2V320h-1.2Zm0 -2.3v-1.2h1.2v1.2h-1.2Zm0 -2.3v-1.1h1.2v1.1h-1.2Zm.2 -1.3h-1.2V313h1.2v1.1Zm-2.3 0h-1.2V313h1.2v1.1Zm-2.3 0H575V313h1.2v1.1Zm-2.3 0h-1.2V313h1.2v1.1Zm-2.3 0h-1.1V313h1.1v1.1Zm-2.3 0h-1.1V313h1.1v1.1Zm-2.3 0h-1.1V313H567v1.1Zm-2.3 0h-1.1V313h1.1v1.1Zm-2.3 0h-1.1V313h1.1v1.1Zm-2.3 0H559V313h1.1v1.1Zm-2.2 0h-1.2V313h1.2v1.1Zm-2.3 0h-1.2V313h1.2v1.1Zm-2.3 0h-1.2V313h1.2v1.1Zm-2.3 0h-1.2V313H551v1.1Zm-2.3 0h-1.2V313h1.2v1.1Zm-2.3 0h-1.2V313h1.2v1.1Zm-2.3 0H543V313h1.1v1.1Zm-2.3 0h-1.1V313h1.1v1.1Zm-2.3 0h-1.1V313h1.1v1.1Zm-2.3 0h-1.1V313h1.1v1.1Zm-2.3 0h-1.1V313h1.1v1.1Zm-2.3 0h-1.1V313h1.1v1.1Zm-2.2 0h-1.2V313h1.2v1.1Zm-2.3 0h-1.2V313h1.2v1.1Zm-2.3 0h-1.2V313h1.2v1.1Zm-2.3 0h-1.2V313h1.2v1.1Zm-2.3 0H520V313h1.2v1.1Zm-2.3 0h-1.2V313h1.2v1.1Zm-2.3 0h-1.1V313h1.1v1.1Zm-2.3 0h-1.1V313h1.1v1.1Zm-2.3 0h-1.1V313H512v1.1Zm-2.3 0h-1.1V313h1.1v1.1Zm-2.3 0h-1.1V313h1.1v1.1Zm-2.3 0H504V313h1.1v1.1Zm-2.2 0h-1.2V313h1.2v1.1Zm-2.3 0h-1.2V313h1.2v1.1Zm-2.3 0h-1.2V313h1.2v1.1Zm-2.3 0h-1.2V313H496v1.1Zm-2.3 0h-1.2V313h1.2v1.1Zm-2.3 0h-1.2V313h1.2v1.1Zm-2.3 0H488V313h1.1v1.1Zm-2.3 0h-1.1V313h1.1v1.1Zm-2.3 0h-1.1V313h1.1v1.1Zm-2.3 0h-1.1V313h1.1v1.1Zm-2.3 0h-1.1V313h1.1v1.1Zm-2.3 0h-1.1V313h1.1v1.1Zm-2.2 0h-1.2V313h1.2v1.1Zm-2.3 0h-1.2V313h1.2v1.1Zm-2.3 0h-1.2V313h1.2v1.1Zm-2.3 0h-1.2V313h1.2v1.1Zm-2.3 0H465V313h1.2v1.1Zm-2.3 0h-1.2V313h1.2v1.1Zm-2.3 0h-1.1V313h1.1v1.1Zm-2.3 0h-1.1V313h1.1v1.1Zm-2.3 0h-1.1V313H457v1.1Zm-2.3 0h-1.1V313h1.1v1.1Zm-2.3 0h-1.1V313h1.1v1.1Zm-2.3 0H449V313h1.1v1.1Zm-2.2 0h-1.2V313h1.2v1.1Zm-2.3 0h-1.2V313h1.2v1.1Zm-2.3 0h-1.2V313h1.2v1.1Zm-2.3 0h-1.2V313H441v1.1Zm-2.3 0h-1.2V313h1.2v1.1Zm-2.3 0h-1.2V313h1.2v1.1Zm-2.3 0H433V313h1.1v1.1Zm-2.3 0h-1.1V313h1.1v1.1Zm-2.3 0h-1.1V313h1.1v1.1Zm-2.3 0h-1.1V313h1.1v1.1Zm-2.3 0h-1.1V313h1.1v1.1Zm-2.3 0h-1.1V313h1.1v1.1Zm-2.2 0h-1.2V313h1.2v1.1Zm-2.3 0h-1.2V313h1.2v1.1Zm-2.3 0h-1.2V313h1.2v1.1Zm-2.3 0h-1.2V313h1.2v1.1Zm-2.3 0H410V313h1.2v1.1Zm-2.3 0h-1.2V313h1.2v1.1Zm-2.3 0h-1.1V313h1.1v1.1Zm-2.3 0h-1.1V313h1.1v1.1Zm-2.3 0h-1.1V313H402v1.1Zm-2.3 0h-1.1V313h1.1v1.1Zm-2.3 0h-1.1V313h1.1v1.1Zm-2.3 0H394V313h1.1v1.1Zm-2.2 0h-1.2V313h1.2v1.1Zm-2.3 0h-1.2V313h1.2v1.1Zm-2.3 0h-1.2V313h1.2v1.1Zm-2.3 0h-1.2V313H386v1.1Zm-2.3 0h-1.2V313h1.2v1.1Zm-2.3 0h-1.2V313h1.2v1.1Zm-2.3 0H378V313h1.1v1.1Zm-2.3 0h-1.1V313h1.1v1.1Zm-2.3 0h-1.1V313h1.1v1.1Zm-2.3 0h-1.1V313h1.1v1.1Zm-2.3 0h-1.1V313h1.1v1.1Zm-2.3 0h-1.1V313h1.1v1.1Zm-2.2 0h-1.2V313h1.2v1.1Zm-2.3 0h-1.2V313h1.2v1.1Zm-2.3 0h-1.2V313h1.2v1.1Zm-2.3 0h-1.2V313h1.2v1.1Zm-2.3 0H355V313h1.2v1.1Zm-2.3 0h-1.2V313h1.2v1.1Zm-2.3 0h-1.1V313h1.1v1.1Zm-2.3 0h-1.1V313h1.1v1.1Zm-2.3 0h-1.1V313H347v1.1Zm-2.3 0h-1.1V313h1.1v1.1Zm-2.3 0h-1.1V313h1.1v1.1Zm-2.3 0H339V313h1.1v1.1Zm-2.2 0h-1.2V313h1.2v1.1Zm-2.3 0h-1.2V313h1.2v1.1Zm-2.3 0h-1.2V313h1.2v1.1Zm-2.3 0h-1.2V313H331v1.1Zm-2.3 0h-1.2V313h1.2v1.1Zm-2.3 0h-1.2V313h1.2v1.1Zm-2.3 0H323V313h1.1v1.1Zm-2.3 0h-1.1V313h1.1v1.1Zm-2.3 0h-1.1V313h1.1v1.1Zm-2.3 0h-1.1V313h1.1v1.1Zm-2.3 0h-1.1V313h1.1v1.1Zm-2.3 0h-1.1V313h1.1v1.1Zm-2.2 0h-1.2V313h1.2v1.1Zm-2.3 0h-1.2V313h1.2v1.1Z" class="g3_287"/>
<path d="M581.2 415.9l-1.9 -5.7l1.9 1.5l1.9 -1.5l-1.9 5.7Z" class="g3_287"/>
<path d="M581.2 415.9l-1.9 -5.7l1.9 1.5l1.9 -1.5l-1.9 5.7Z" class="g1_287"/>
<path d="M301.7 313.5l5.8 -1.9l-1.5 1.9l1.5 1.9l-5.8 -1.9Z" class="g3_287"/>
<path d="M301.7 313.5l5.8 -1.9l-1.5 1.9l1.5 1.9l-5.8 -1.9Z" class="g1_287"/>
<path d="M317.1 327.9h47c.6 0 1.3 .1 1.9 .4c.7 .2 1.2 .6 1.7 1.1c.5 .5 .9 1 1.1 1.6c.3 .7 .4 1.3 .4 2v24.1c0 .7 -.1 1.3 -.4 2c-.2 .6 -.6 1.1 -1.1 1.6c-.5 .5 -1 .9 -1.7 1.1c-.6 .3 -1.3 .4 -1.9 .4h-47c-.7 0 -1.4 -.1 -2 -.4c-.6 -.2 -1.2 -.6 -1.7 -1.1c-.5 -.5 -.8 -1 -1.1 -1.6c-.2 -.7 -.4 -1.3 -.4 -2V333c0 -.7 .2 -1.3 .4 -2c.3 -.6 .6 -1.1 1.1 -1.6c.5 -.5 1.1 -.9 1.7 -1.1c.6 -.3 1.3 -.4 2 -.4Z" class="g0_287"/>
<path d="M317.1 327.9h47c.6 0 1.3 .1 1.9 .4c.7 .2 1.2 .6 1.7 1.1c.5 .5 .9 1 1.1 1.6c.3 .7 .4 1.3 .4 2v24.1c0 .7 -.1 1.3 -.4 2c-.2 .6 -.6 1.1 -1.1 1.6c-.5 .5 -1 .9 -1.7 1.1c-.6 .3 -1.3 .4 -1.9 .4h-47c-.7 0 -1.4 -.1 -2 -.4c-.6 -.2 -1.2 -.6 -1.7 -1.1c-.5 -.5 -.8 -1 -1.1 -1.6c-.2 -.7 -.4 -1.3 -.4 -2V333c0 -.7 .2 -1.3 .4 -2c.3 -.6 .6 -1.1 1.1 -1.6c.5 -.5 1.1 -.9 1.7 -1.1c.6 -.3 1.3 -.4 2 -.4Z" class="g1_287"/>
<path d="M340.6 362.2V647.3" class="g2_287"/>
<path d="M340.6 654.1L337.5 645l3.1 2.3l3 -2.3l-3 9.1Z" class="g3_287"/>
<path d="M340.6 654.1L337.5 645l3.1 2.3l3 -2.3l-3 9.1Z" class="g2_287"/>
</g>
</svg>