<?xml version="1.0" encoding="UTF-8" standalone="no"?>
<!DOCTYPE svg PUBLIC "-//W3C//DTD SVG 1.1//EN"
"http://www.w3.org/Graphics/SVG/1.1/DTD/svg11.dtd">
<svg viewBox="0 0 714 1017" version="1.1" xmlns="http://www.w3.org/2000/svg" xmlns:xlink="http://www.w3.org/1999/xlink">
<defs>
<clipPath id="c0_93"><path d="M120.4 559.7v-204H571.9v204Z"/></clipPath>
<clipPath id="c1_93"><path d="M120.4 560.3V355.6H572.6V560.3Z"/></clipPath>
<style type="text/css"><![CDATA[
.g0_93{
fill: #FFF;
}
.g1_93{
fill: none;
stroke: #000;
stroke-width: 1.217;
stroke-miterlimit: 10;
}
.g2_93{
fill: none;
stroke: #000;
stroke-width: 1.156;
stroke-miterlimit: 10;
}
.g3_93{
fill: none;
stroke: #000;
stroke-width: 0.76;
stroke-miterlimit: 10;
}
.g4_93{
fill: #000;
}
.g5_93{
fill: none;
stroke: #000;
stroke-width: 2.291;
stroke-miterlimit: 10;
}
.g6_93{
fill: none;
stroke: #000;
stroke-width: 1.145;
stroke-miterlimit: 10;
}
]]></style>
</defs>
<path d="M0 1017.7H717.2V-3.7H0V1017.7Z" class="g0_93"/>
<path d="M83.2 165.2H408.5" class="g1_93"/>
<path d="M83.2 192.2H408.5" class="g2_93"/>
<path d="M83.2 218.9H408.5M83.2 245.4H408.5" class="g3_93"/>
<path d="M83.2 272.2H408.5" class="g1_93"/>
<g clip-path="url(#c1_93)">
<path clip-path="url(#c0_93)" d="M120.4 355.7H571.9v204H120.4v-204Z" class="g0_93"/>
<path d="M350.1 453.6v2.2h-2.3v-2.3l2.3 .1Zm0 4.5l-.1 2.3l-2.3 -.1l.1 -2.3l2.3 .1Zm-.1 4.6l-.1 2.3l-2.3 -.1l.1 -2.3l2.3 .1Zm-.2 4.6l-.1 2.3l-2.3 -.1l.1 -2.3l2.3 .1Zm-.2 4.6l-.1 2.4l-2.3 -.1l.1 -2.4l2.3 .1Zm-.2 4.7l-.2 2.3l-2.3 -.1l.2 -2.3l2.3 .1Zm-.3 4.6l-.2 2.4l-2.3 -.2l.2 -2.3l2.3 .1Zm-.4 4.7l-.2 2.3l-2.3 -.2l.2 -2.3l2.3 .2Zm-.4 4.7l-.2 2.2l-2.3 -.2l.2 -2.3l2.3 .3Zm-.5 4.5l-.2 2.2l-2.3 -.2l.3 -2.2l2.2 .2Zm-.5 4.5L347 502l-2.3 -.3l.3 -2.4l2.3 .3Zm-.6 4.8c-.1 .7 -.2 1.5 -.4 2.3l-2.2 -.4c.1 -.7 .2 -1.5 .3 -2.3l2.3 .4Zm-.7 4.5c-.1 .8 -.2 1.5 -.4 2.2l-2.2 -.3c.1 -.8 .2 -1.5 .3 -2.2l2.3 .3Zm-.8 4.4c-.1 .8 -.2 1.6 -.4 2.3l-2.2 -.4c.1 -.8 .3 -1.5 .4 -2.3l2.2 .4Zm-.9 4.8c-.2 .8 -.3 1.5 -.5 2.3l-2.2 -.5c.1 -.8 .3 -1.5 .5 -2.3l2.2 .5Zm-1 4.5c-.2 .7 -.4 1.4 -.6 2.1l-2.2 -.6c.2 -.7 .4 -1.4 .5 -2.1l2.3 .6Zm-1.2 4.2c-.2 .9 -.5 1.7 -.8 2.5l-2.1 -.7c.2 -.8 .5 -1.6 .7 -2.4l2.2 .6Zm-1.5 4.8c-.3 .7 -.6 1.3 -.9 2l-2.1 -.9c.3 -.6 .6 -1.3 .8 -1.9l2.2 .8Zm-1.8 4.1c-.5 .8 -.9 1.6 -1.4 2.2l-1.9 -1.2c.4 -.6 .8 -1.3 1.2 -2.1l2.1 1.1Zm-2.7 4c-.7 .8 -1.5 1.4 -2.3 1.7l-.9 -2c.5 -.3 1 -.7 1.5 -1.2l1.7 1.5Zm-5 2.2c-.8 -.2 -1.7 -.6 -2.6 -1.2l1.5 -1.8c.5 .4 1 .6 1.5 .7l-.4 2.3Zm-4.2 -3c-.5 -.6 -.9 -1.2 -1.4 -2l2 -1.2c.4 .7 .8 1.3 1.2 1.8l-1.8 1.4Zm-2.6 -4.4c-.3 -.6 -.5 -1.2 -.8 -1.9l2.1 -.8c.3 .6 .5 1.2 .8 1.8l-2.1 .9Zm-1.6 -4c-.3 -.8 -.5 -1.5 -.8 -2.4l2.2 -.7c.2 .8 .5 1.6 .7 2.3l-2.1 .8Zm-1.5 -4.8c-.2 -.6 -.4 -1.3 -.6 -2l2.3 -.6c.1 .7 .3 1.3 .5 2l-2.2 .6Zm-1.1 -4.2c-.2 -.7 -.4 -1.5 -.5 -2.2l2.2 -.5c.2 .7 .4 1.5 .5 2.2l-2.2 .5Zm-1 -4.6c-.2 -.8 -.4 -1.6 -.5 -2.5l2.2 -.4c.2 .8 .4 1.6 .5 2.4l-2.2 .5Zm-.9 -4.6c-.1 -.8 -.3 -1.5 -.4 -2.2l2.3 -.4c.1 .7 .2 1.4 .3 2.2l-2.2 .4Zm-.7 -4.5c-.2 -.7 -.3 -1.5 -.4 -2.3l2.3 -.3c.1 .8 .2 1.5 .3 2.3l-2.2 .3Zm-.7 -4.6l-.3 -2.4l2.2 -.3l.4 2.4l-2.3 .3Zm-.6 -4.7l-.3 -2.2l2.3 -.3l.3 2.2l-2.3 .3Zm-.5 -4.5l-.3 -2.3l2.3 -.2l.3 2.3l-2.3 .2Zm-.5 -4.6l-.2 -2.3l2.3 -.2l.2 2.3l-2.3 .2Zm-.4 -4.6l-.1 -2.4l2.2 -.1l.2 2.3l-2.3 .2Zm-.3 -4.7l-.2 -2.3l2.3 -.2l.2 2.4l-2.3 .1Zm-.3 -4.6l-.1 -2.4l2.3 -.1l.1 2.3l-2.3 .2Zm-.2 -4.7l-.1 -2.3l2.3 -.1l.1 2.3l-2.3 .1Zm-.2 -4.6l-.1 -2.3l2.3 -.1l.1 2.3l-2.3 .1Zm-.2 -4.7v-2.2l2.3 -.1v2.3h-2.3Zm-.1 -4.5v-2.3h2.3v2.2l-2.3 .1Zm0 -4.5v-2.3h2.3v2.3h-2.3Zm0 -4.5v-2.2h2.3V448h-2.3Zm0 -4.4v-2.3h2.3v2.3h-2.3Zm.1 -4.6v-2.3l2.3 .1v2.3l-2.3 -.1Zm.1 -4.6l.1 -2.3l2.3 .1l-.1 2.3l-2.3 -.1Zm.2 -4.6l.1 -2.3l2.3 .1l-.1 2.3l-2.3 -.1Zm.2 -4.7l.1 -2.3l2.3 .1l-.1 2.3l-2.3 -.1Zm.2 -4.6l.2 -2.3l2.3 .1l-.2 2.3l-2.3 -.1Zm.3 -4.7l.2 -2.3l2.3 .2l-.2 2.3l-2.3 -.2Zm.4 -4.6l.2 -2.4l2.3 .2l-.2 2.4l-2.3 -.2Zm.4 -4.7l.3 -2.2l2.3 .2l-.3 2.3l-2.3 -.3Zm.5 -4.5l.3 -2.2l2.2 .2l-.2 2.3l-2.3 -.3Zm.6 -4.6l.3 -2.3l2.2 .3l-.3 2.3l-2.2 -.3Zm.6 -4.7c.1 -.8 .2 -1.5 .3 -2.3l2.3 .4c-.1 .7 -.2 1.5 -.3 2.2l-2.3 -.3Zm.7 -4.5c.1 -.7 .3 -1.5 .4 -2.2l2.2 .4c-.1 .7 -.2 1.4 -.3 2.2l-2.3 -.4Zm.8 -4.3c.1 -.9 .3 -1.7 .5 -2.5l2.2 .4c-.2 .8 -.3 1.7 -.5 2.5l-2.2 -.4Zm1 -4.9c.1 -.8 .3 -1.5 .5 -2.3l2.2 .6c-.2 .7 -.3 1.4 -.5 2.2l-2.2 -.5Zm1 -4.4c.2 -.7 .4 -1.4 .6 -2.1l2.2 .7c-.2 .6 -.4 1.3 -.6 2l-2.2 -.6Zm1.3 -4.5c.2 -.8 .5 -1.6 .8 -2.3l2.1 .7c-.2 .8 -.5 1.5 -.7 2.3l-2.2 -.7Zm1.6 -4.5c.2 -.6 .5 -1.3 .8 -1.9l2.1 1c-.3 .6 -.5 1.2 -.8 1.8l-2.1 -.9Zm2 -4.2c.4 -.8 .9 -1.5 1.3 -2.1l1.9 1.4c-.4 .5 -.8 1.1 -1.2 1.8l-2 -1.1Zm3 -3.8c.8 -.7 1.7 -1.1 2.6 -1.2l.4 2.2c-.5 .1 -1 .4 -1.6 .8l-1.4 -1.8Zm5.3 -.9c.8 .4 1.5 1 2.2 1.8l-1.6 1.5c-.6 -.5 -1.1 -.9 -1.6 -1.2l1 -2.1Zm3.6 3.5c.5 .7 .9 1.4 1.3 2.3l-2 1c-.4 -.7 -.8 -1.4 -1.2 -2l1.9 -1.3Zm2.3 4.4c.3 .6 .6 1.3 .8 2l-2.1 .8c-.3 -.7 -.5 -1.3 -.8 -1.9l2.1 -.9Zm1.6 4.2c.3 .8 .5 1.7 .8 2.5l-2.2 .7c-.2 -.9 -.5 -1.7 -.7 -2.4l2.1 -.8Zm1.4 4.7c.2 .7 .4 1.4 .6 2.1l-2.3 .5c-.1 -.7 -.3 -1.4 -.5 -2l2.2 -.6Zm1.1 4.3c.2 .7 .3 1.5 .5 2.3l-2.2 .5c-.2 -.8 -.4 -1.6 -.5 -2.3l2.2 -.5Zm1 4.7c.1 .8 .3 1.6 .4 2.4l-2.2 .4c-.2 -.8 -.3 -1.6 -.5 -2.3l2.3 -.5Zm.8 4.5c.1 .7 .3 1.5 .4 2.2l-2.3 .4c-.1 -.8 -.2 -1.5 -.3 -2.2l2.2 -.4Zm.7 4.5c.2 .7 .3 1.5 .4 2.3l-2.3 .3c-.1 -.8 -.2 -1.5 -.3 -2.3l2.2 -.3Zm.7 4.7l.3 2.4l-2.3 .3l-.3 -2.4l2.3 -.3Zm.6 4.6l.2 2.2l-2.3 .3l-.2 -2.2l2.3 -.3Zm.5 4.5l.2 2.3l-2.3 .2l-.2 -2.3l2.3 -.2Zm.4 4.6l.2 2.3l-2.3 .2l-.2 -2.3l2.3 -.2Zm.4 4.7l.2 2.3l-2.3 .2l-.2 -2.3l2.3 -.2Zm.3 4.6l.2 2.4l-2.3 .1l-.2 -2.3l2.3 -.2Zm.3 4.7l.1 2.3l-2.3 .1l-.1 -2.3l2.3 -.1Zm.2 4.6l.1 2.4l-2.3 .1l-.1 -2.4l2.3 -.1Zm.2 4.7l.1 2.3l-2.3 .1l-.1 -2.3l2.3 -.1Zm.1 4.6l.1 2.3h-2.3l-.1 -2.3H350Zm.1 4.6v2.2h-2.3v-2.2h2.3Zm0 4.4v2.3h-2.2l-.1 -2.3h2.3Zm0 2.3v2.2h-2.2v-2.2h2.2Z" class="g4_93"/>
<path d="M463.6 453.6l-.1 2.2h-2.3l.1 -2.3l2.3 .1Zm-.1 4.5v2.3l-2.3 -.1V458l2.3 .1Zm-.1 4.6l-.1 2.3l-2.3 -.1l.1 -2.3l2.3 .1Zm-.2 4.6l-.1 2.3l-2.2 -.1l.1 -2.3l2.2 .1Zm-.2 4.6l-.1 2.4l-2.3 -.1l.2 -2.4l2.2 .1Zm-.2 4.7l-.1 2.3l-2.3 -.1l.1 -2.3l2.3 .1Zm-.3 4.6l-.2 2.4l-2.3 -.2l.2 -2.3l2.3 .1Zm-.4 4.7l-.2 2.3l-2.2 -.2l.2 -2.3l2.2 .2Zm-.4 4.7l-.2 2.2l-2.3 -.2l.3 -2.3l2.2 .3Zm-.4 4.5l-.3 2.2l-2.3 -.2l.3 -2.2l2.3 .2Zm-.5 4.5l-.4 2.4l-2.2 -.3l.3 -2.4l2.3 .3Zm-.7 4.8c-.1 .7 -.2 1.5 -.3 2.3l-2.3 -.4c.1 -.7 .2 -1.5 .4 -2.3l2.2 .4Zm-.7 4.5c-.1 .8 -.2 1.5 -.3 2.2l-2.3 -.3c.1 -.8 .3 -1.5 .4 -2.2l2.2 .3Zm-.7 4.4c-.2 .8 -.3 1.6 -.5 2.3l-2.2 -.4c.1 -.8 .3 -1.5 .4 -2.3l2.3 .4Zm-1 4.8c-.1 .8 -.3 1.5 -.5 2.3l-2.2 -.5c.2 -.8 .3 -1.5 .5 -2.3l2.2 .5Zm-1 4.5c-.2 .7 -.4 1.4 -.5 2.1l-2.2 -.6c.1 -.7 .3 -1.4 .5 -2.1l2.2 .6Zm-1.1 4.2c-.3 .9 -.6 1.7 -.8 2.5l-2.2 -.7c.3 -.8 .5 -1.6 .8 -2.4l2.2 .6Zm-1.6 4.8c-.3 .7 -.6 1.3 -.8 2l-2.1 -.9c.2 -.6 .5 -1.3 .7 -1.9l2.2 .8Zm-1.8 4.1c-.4 .8 -.9 1.6 -1.3 2.2L449 536.7c.4 -.6 .8 -1.3 1.2 -2.1l2 1.1Zm-2.7 4c-.7 .8 -1.5 1.4 -2.2 1.7l-1 -2c.5 -.3 1 -.7 1.5 -1.2l1.7 1.5Zm-4.9 2.2c-.9 -.2 -1.8 -.6 -2.6 -1.2l1.4 -1.8c.5 .4 1 .6 1.5 .7l-.3 2.3Zm-4.3 -3c-.4 -.6 -.9 -1.2 -1.3 -2l2 -1.2c.3 .7 .7 1.3 1.1 1.8l-1.8 1.4Zm-2.6 -4.4c-.2 -.6 -.5 -1.2 -.8 -1.9l2.2 -.8c.2 .6 .5 1.2 .7 1.8l-2.1 .9Zm-1.6 -4c-.2 -.8 -.5 -1.5 -.8 -2.4l2.2 -.7c.3 .8 .5 1.6 .8 2.3l-2.2 .8Zm-1.5 -4.8c-.2 -.6 -.3 -1.3 -.5 -2l2.2 -.6c.2 .7 .3 1.3 .5 2l-2.2 .6Zm-1.1 -4.2c-.1 -.7 -.3 -1.5 -.5 -2.2l2.3 -.5c.1 .7 .3 1.5 .5 2.2l-2.3 .5Zm-1 -4.6c-.2 -.8 -.3 -1.6 -.5 -2.5l2.3 -.4c.1 .8 .3 1.6 .5 2.4l-2.3 .5Zm-.9 -4.6c-.1 -.8 -.2 -1.5 -.3 -2.2l2.2 -.4c.1 .7 .3 1.4 .4 2.2l-2.3 .4Zm-.7 -4.5c-.1 -.7 -.2 -1.5 -.3 -2.3l2.2 -.3c.1 .8 .2 1.5 .4 2.3l-2.3 .3Zm-.7 -4.6l-.3 -2.4l2.3 -.3l.3 2.4l-2.3 .3Zm-.6 -4.7l-.2 -2.2l2.2 -.3l.3 2.2l-2.3 .3Zm-.5 -4.5l-.2 -2.3l2.3 -.2l.2 2.3l-2.3 .2Zm-.4 -4.6l-.2 -2.3l2.2 -.2l.2 2.3l-2.2 .2Zm-.4 -4.6l-.2 -2.4l2.3 -.1l.2 2.3l-2.3 .2Zm-.4 -4.7l-.1 -2.3l2.3 -.2l.1 2.4l-2.3 .1Zm-.3 -4.6l-.1 -2.4l2.3 -.1l.1 2.3l-2.3 .2Zm-.2 -4.7l-.1 -2.3l2.3 -.1l.1 2.3l-2.3 .1Zm-.2 -4.6l-.1 -2.3l2.3 -.1l.1 2.3l-2.3 .1Zm-.1 -4.7l-.1 -2.2l2.3 -.1l.1 2.3h-2.3ZM427 457l-.1 -2.3h2.3l.1 2.2L427 457Zm-.1 -4.5v-2.3h2.3v2.3h-2.3Zm0 -4.5v-2.2h2.3V448h-2.3Zm0 -4.4l.1 -2.3h2.3l-.1 2.3h-2.3ZM427 439l.1 -2.3l2.3 .1l-.1 2.3L427 439Zm.1 -4.6l.1 -2.3l2.3 .1l-.1 2.3l-2.3 -.1Zm.2 -4.6l.1 -2.3l2.3 .1l-.1 2.3l-2.3 -.1Zm.2 -4.7l.1 -2.3l2.3 .1l-.1 2.3l-2.3 -.1Zm.3 -4.6l.1 -2.3l2.3 .1l-.1 2.3l-2.3 -.1Zm.3 -4.7l.2 -2.3l2.2 .2l-.1 2.3l-2.3 -.2Zm.4 -4.6l.2 -2.4l2.2 .2l-.2 2.4l-2.2 -.2Zm.4 -4.7l.2 -2.2l2.3 .2l-.2 2.3l-2.3 -.3Zm.5 -4.5l.2 -2.2l2.3 .2l-.3 2.3l-2.2 -.3Zm.5 -4.6l.3 -2.3l2.3 .3l-.3 2.3l-2.3 -.3Zm.6 -4.7c.2 -.8 .3 -1.5 .4 -2.3l2.3 .4c-.2 .7 -.3 1.5 -.4 2.2l-2.3 -.3Zm.7 -4.5c.2 -.7 .3 -1.5 .4 -2.2l2.3 .4c-.1 .7 -.3 1.4 -.4 2.2l-2.3 -.4Zm.8 -4.3c.2 -.9 .3 -1.7 .5 -2.5l2.2 .4c-.1 .8 -.3 1.7 -.4 2.5l-2.3 -.4Zm1 -4.9c.2 -.8 .3 -1.5 .5 -2.3l2.3 .6c-.2 .7 -.4 1.4 -.6 2.2L433 379Zm1.1 -4.4c.1 -.7 .3 -1.4 .5 -2.1l2.2 .7c-.2 .6 -.3 1.3 -.5 2l-2.2 -.6Zm1.2 -4.5c.3 -.8 .5 -1.6 .8 -2.3l2.2 .7c-.3 .8 -.5 1.5 -.8 2.3l-2.2 -.7Zm1.6 -4.5c.3 -.6 .6 -1.3 .8 -1.9l2.1 1c-.2 .6 -.5 1.2 -.8 1.8l-2.1 -.9Zm2 -4.2c.5 -.8 .9 -1.5 1.4 -2.1l1.8 1.4c-.4 .5 -.8 1.1 -1.2 1.8l-2 -1.1Zm3 -3.8c.9 -.7 1.7 -1.1 2.6 -1.2l.4 2.2c-.5 .1 -1 .4 -1.5 .8l-1.5 -1.8Zm5.3 -.9c.8 .4 1.6 1 2.3 1.8l-1.7 1.5c-.5 -.5 -1 -.9 -1.5 -1.2l.9 -2.1Zm3.7 3.5c.4 .7 .8 1.4 1.3 2.3l-2.1 1c-.4 -.7 -.8 -1.4 -1.2 -2l2 -1.3Zm2.3 4.4c.2 .6 .5 1.3 .8 2l-2.2 .8c-.2 -.7 -.5 -1.3 -.7 -1.9l2.1 -.9Zm1.6 4.2c.2 .8 .5 1.7 .7 2.5l-2.2 .7c-.2 -.9 -.5 -1.7 -.7 -2.4l2.2 -.8Zm1.4 4.7c.1 .7 .3 1.4 .5 2.1l-2.2 .5c-.2 -.7 -.4 -1.4 -.6 -2l2.3 -.6Zm1 4.3c.2 .7 .4 1.5 .5 2.3l-2.2 .5c-.2 -.8 -.3 -1.6 -.5 -2.3l2.2 -.5Zm1 4.7c.2 .8 .3 1.6 .5 2.4l-2.3 .4c-.1 -.8 -.3 -1.6 -.4 -2.3l2.2 -.5Zm.9 4.5c.1 .7 .2 1.5 .3 2.2l-2.2 .4c-.2 -.8 -.3 -1.5 -.4 -2.2l2.3 -.4Zm.7 4.5c.1 .7 .2 1.5 .3 2.3l-2.3 .3c-.1 -.8 -.2 -1.5 -.3 -2.3l2.3 -.3Zm.6 4.7l.3 2.4l-2.2 .3l-.3 -2.4l2.2 -.3Zm.6 4.6l.3 2.2l-2.3 .3l-.3 -2.2l2.3 -.3Zm.5 4.5l.2 2.3l-2.3 .2l-.2 -2.3l2.3 -.2Zm.4 4.6l.2 2.3l-2.2 .2l-.2 -2.3l2.2 -.2Zm.4 4.7l.2 2.3l-2.3 .2l-.2 -2.3l2.3 -.2Zm.3 4.6l.2 2.4l-2.3 .1l-.1 -2.3l2.2 -.2Zm.3 4.7l.1 2.3l-2.2 .1l-.2 -2.3l2.3 -.1Zm.2 4.6l.1 2.4L461 431l-.1 -2.4l2.2 -.1Zm.2 4.7l.1 2.3l-2.3 .1l-.1 -2.3l2.3 -.1Zm.2 4.6v2.3h-2.3v-2.3h2.3Zm0 4.6l.1 2.2h-2.3l-.1 -2.2h2.3Zm.1 4.4v2.3h-2.3v-2.3h2.3Zm0 2.3v2.2h-2.3v-2.2h2.3Z" class="g4_93"/>
<path d="M273.4 460.6H422.3v68.7H273.4V460.6Zm148.9 0h149v68.7h-149V460.6Z" class="g5_93"/>
<path d="M131.3 380.4H564.4c.5 0 .9 0 1.4 .1c.4 .1 .8 .2 1.2 .4c.5 .2 .9 .4 1.2 .6c.4 .3 .8 .6 1.1 .9c.3 .3 .6 .6 .8 1c.3 .4 .5 .8 .7 1.2c.1 .4 .3 .8 .4 1.3c0 .4 .1 .9 .1 1.3v32.1c0 .5 -.1 .9 -.1 1.4c-.1 .4 -.3 .8 -.4 1.2c-.2 .5 -.4 .9 -.7 1.2c-.2 .4 -.5 .8 -.8 1.1c-.3 .3 -.7 .6 -1.1 .8c-.3 .3 -.7 .5 -1.2 .7c-.4 .1 -.8 .3 -1.2 .4c-.5 0 -.9 .1 -1.4 .1H131.3c-.5 0 -.9 -.1 -1.3 -.1c-.5 -.1 -.9 -.3 -1.3 -.4c-.5 -.2 -.9 -.4 -1.2 -.7c-.4 -.2 -.7 -.5 -1.1 -.8c-.3 -.3 -.6 -.7 -.8 -1.1c-.3 -.3 -.5 -.7 -.7 -1.2c-.1 -.4 -.3 -.8 -.4 -1.2c0 -.5 -.1 -.9 -.1 -1.4V387.2c0 -.4 .1 -.9 .1 -1.3c.1 -.5 .3 -.9 .4 -1.3c.2 -.4 .4 -.8 .7 -1.2c.2 -.4 .5 -.7 .8 -1c.4 -.3 .7 -.6 1.1 -.9c.3 -.2 .7 -.4 1.2 -.6c.4 -.2 .8 -.3 1.3 -.4c.4 -.1 .8 -.1 1.3 -.1Z" class="g6_93"/>
<path d="M159.9 407.8c0 .7 -.1 1.5 -.1 2.3l-2.3 -.1c.1 -.8 .1 -1.5 .1 -2.3l2.3 .1Zm-.2 4.6c0 .8 -.1 1.6 -.1 2.3l-2.3 -.1c0 -.8 .1 -1.5 .1 -2.3l2.3 .1Zm-.3 4.7c-.1 .8 -.1 1.5 -.2 2.3l-2.3 -.2c.1 -.8 .2 -1.5 .2 -2.3l2.3 .2Zm-.4 4.7c-.1 .8 -.2 1.7 -.3 2.5l-2.3 -.3c.1 -.8 .2 -1.6 .3 -2.4l2.3 .2Zm-.7 4.9c-.1 .7 -.2 1.5 -.3 2.3l-2.3 -.4c.1 -.7 .3 -1.5 .4 -2.3l2.2 .4Zm-.7 4.5c-.2 .8 -.3 1.5 -.5 2.2l-2.2 -.5c.1 -.7 .3 -1.4 .4 -2.1l2.3 .4Zm-.9 4.3c-.2 .8 -.4 1.6 -.6 2.3l-2.2 -.6c.2 -.7 .4 -1.5 .5 -2.3l2.3 .6Zm-1.3 4.6c-.3 .7 -.5 1.4 -.8 2l-2.1 -.8c.2 -.6 .5 -1.2 .7 -1.9l2.2 .7Zm-1.8 4.4c-.3 .7 -.7 1.4 -1.1 2l-1.9 -1.3c.3 -.5 .6 -1 1 -1.7l2 1Zm-2.7 4.1c-.8 .7 -1.6 1.2 -2.4 1.5l-.6 -2.2c.4 -.2 .9 -.5 1.4 -.9l1.6 1.6Zm-5.3 1.3c-.7 -.4 -1.4 -.9 -2.1 -1.6l1.7 -1.6c.4 .5 .9 .9 1.3 1.1l-.9 2.1Zm-3.7 -3.8c-.3 -.6 -.7 -1.3 -1 -2l2 -1c.3 .7 .7 1.3 1 1.9l-2 1.1Zm-2 -4.3c-.3 -.7 -.5 -1.4 -.7 -2.1l2.1 -.7c.3 .7 .5 1.3 .7 2l-2.1 .8Zm-1.4 -4.4c-.2 -.8 -.4 -1.5 -.6 -2.3l2.2 -.5c.2 .7 .4 1.5 .6 2.2l-2.2 .6ZM137.4 433c-.1 -.7 -.2 -1.4 -.4 -2.2l2.3 -.4c.1 .7 .2 1.5 .4 2.1l-2.3 .5Zm-.8 -4.4c-.1 -.8 -.2 -1.6 -.3 -2.4l2.2 -.3c.1 .8 .3 1.5 .4 2.3l-2.3 .4Zm-.7 -4.8c-.1 -.8 -.2 -1.6 -.2 -2.4l2.2 -.3c.1 .8 .2 1.6 .3 2.4l-2.3 .3Zm-.5 -4.8c-.1 -.8 -.1 -1.6 -.2 -2.4l2.3 -.1c.1 .7 .1 1.5 .2 2.3l-2.3 .2Zm-.3 -4.7c-.1 -.8 -.1 -1.5 -.2 -2.3l2.3 -.1c.1 .7 .1 1.5 .2 2.3l-2.3 .1Zm-.3 -4.6c0 -.8 0 -1.6 0 -2.3l2.3 -.1c0 .8 0 1.5 0 2.3l-2.3 .1Zm-.1 -4.6c0 -.6 0 -1.2 0 -1.8v-.4H137v.4c0 .6 0 1.2 0 1.8h-2.3Zm0 -4.5c.1 -.7 .1 -1.5 .1 -2.3l2.3 .1c0 .8 0 1.5 -.1 2.3l-2.3 -.1Zm.2 -4.6c0 -.7 0 -1.5 .1 -2.3l2.3 .1c-.1 .8 -.1 1.6 -.1 2.3l-2.3 -.1Zm.2 -4.6c.1 -.8 .1 -1.6 .2 -2.4l2.3 .2c-.1 .8 -.1 1.6 -.2 2.3l-2.3 -.1Zm.4 -4.7c.1 -.8 .2 -1.6 .3 -2.4l2.2 .2c-.1 .8 -.1 1.6 -.2 2.4l-2.3 -.2Zm.6 -4.9c.1 -.8 .2 -1.6 .3 -2.3l2.3 .3c-.2 .8 -.3 1.5 -.4 2.3l-2.2 -.3Zm.7 -4.7c.1 -.7 .2 -1.5 .4 -2.2l2.2 .4c-.1 .7 -.3 1.5 -.4 2.2l-2.2 -.4Zm.8 -4.4c.2 -.7 .3 -1.3 .5 -2l2.2 .6c-.1 .6 -.3 1.3 -.4 1.9l-2.3 -.5Zm1.1 -4.4c.3 -.8 .5 -1.5 .7 -2.2l2.2 .7c-.2 .7 -.4 1.4 -.7 2.1l-2.2 -.6Zm1.5 -4.4c.3 -.8 .7 -1.6 1 -2.3l2.1 1.1c-.3 .6 -.6 1.3 -1 2.1l-2.1 -.9Zm2.2 -4.3c.6 -.8 1.1 -1.4 1.7 -1.9l1.5 1.7c-.4 .4 -.9 .9 -1.3 1.5l-1.9 -1.3Zm4.3 -3.3c.2 0 .4 0 .6 0c.8 0 1.5 .2 2.3 .6l-1.2 2c-.4 -.2 -.7 -.3 -1.1 -.3c-.1 0 -.2 0 -.2 0l-.4 -2.3Zm4.8 2.4c.5 .5 1 1.2 1.4 2.1l-1.9 1.1c-.4 -.7 -.8 -1.3 -1.2 -1.8l1.7 -1.4Zm2.5 4.2c.3 .7 .6 1.4 .9 2.3l-2.1 .7c-.3 -.7 -.6 -1.4 -.9 -2.1l2.1 -.9Zm1.6 4.4c.3 .7 .5 1.5 .7 2.3l-2.2 .6c-.2 -.8 -.4 -1.5 -.7 -2.2l2.2 -.7Zm1.2 4.5c.2 .7 .4 1.4 .5 2.1l-2.2 .5c-.2 -.7 -.3 -1.4 -.5 -2.1l2.2 -.5Zm.9 4.3c.2 .8 .3 1.5 .4 2.3l-2.2 .4c-.2 -.8 -.3 -1.5 -.4 -2.3l2.2 -.4Zm.8 4.7c.1 .8 .2 1.6 .3 2.4l-2.3 .3c-.1 -.8 -.2 -1.6 -.3 -2.4l2.3 -.3Zm.6 4.8c0 .8 .1 1.6 .2 2.4l-2.3 .2c-.1 -.8 -.1 -1.6 -.2 -2.3l2.3 -.3Zm.4 4.7c0 .8 .1 1.6 .1 2.4l-2.3 .1c0 -.8 -.1 -1.5 -.1 -2.3l2.3 -.2Zm.3 4.7c0 .8 0 1.5 0 2.3l-2.2 .1c-.1 -.8 -.1 -1.5 -.1 -2.3l2.3 -.1Zm.1 4.6c0 .8 0 1.5 0 2.3h-2.3c0 -.8 0 -1.5 0 -2.2l2.3 -.1Zm0 3.7c0 .7 0 1.5 0 2.2h-2.3c0 -.8 0 -1.5 0 -2.2h2.3Z" class="g4_93"/>
</g>
</svg>