<?xml version="1.0" encoding="UTF-8" standalone="no"?>
<!DOCTYPE svg PUBLIC "-//W3C//DTD SVG 1.1//EN"
"http://www.w3.org/Graphics/SVG/1.1/DTD/svg11.dtd">
<svg viewBox="0 0 714 1017" version="1.1" xmlns="http://www.w3.org/2000/svg" xmlns:xlink="http://www.w3.org/1999/xlink">
<defs>
<clipPath id="c0_50"><path d="M149.6 349.1V97H586.1V349.1Z"/></clipPath>
<clipPath id="c1_50"><path d="M149.6 349.3V95.7H588V349.3Z"/></clipPath>
<style type="text/css"><![CDATA[
.g0_50{
fill: #FFF;
}
.g1_50{
fill: none;
stroke: #000;
stroke-width: 1.145;
stroke-miterlimit: 10;
}
.g2_50{
fill: none;
stroke: #000;
stroke-width: 2.291;
stroke-miterlimit: 10;
}
.g3_50{
fill: #000;
}
.g4_50{
fill: none;
stroke: #000;
stroke-width: 0.608;
stroke-miterlimit: 10;
}
]]></style>
</defs>
<path d="M0 1017.7H717.2V-3.7H0V1017.7Z" class="g0_50"/>
<g clip-path="url(#c1_50)">
<path d="M149.6 97H586.1V349.1H149.6V97Z" class="g0_50"/>
<path d="M279.6 165.2h45.9v22.9H279.6V165.2Z" class="g0_50"/>
<path d="M279.6 165.2h45.9v22.9H279.6V165.2Z" class="g1_50"/>
<path d="M325.5 165.2h45.8v22.9H325.5V165.2Z" class="g0_50"/>
<path d="M325.5 165.2h45.8v22.9H325.5V165.2Z" class="g1_50"/>
<path d="M371.3 165.2h45.8v22.9H371.3V165.2Z" class="g0_50"/>
<path d="M371.3 165.2h45.8v22.9H371.3V165.2Z" class="g1_50"/>
<path d="M417.1 165.2H463v22.9H417.1V165.2Z" class="g0_50"/>
<path d="M417.1 165.2H463v22.9H417.1V165.2Z" class="g1_50"/>
<path d="M463 165.2h45.8v22.9H463V165.2Z" class="g0_50"/>
<path d="M463 165.2h45.8v22.9H463V165.2Z" class="g1_50"/>
<path d="M279.6 188.1h45.9V211H279.6V188.1Z" class="g0_50"/>
<path d="M279.6 188.1h45.9V211H279.6V188.1Z" class="g1_50"/>
<path d="M325.5 188.1h45.8V211H325.5V188.1Z" class="g0_50"/>
<path d="M325.5 188.1h45.8V211H325.5V188.1Z" class="g1_50"/>
<path d="M371.3 188.1h45.8V211H371.3V188.1Z" class="g0_50"/>
<path d="M371.3 188.1h45.8V211H371.3V188.1Z" class="g1_50"/>
<path d="M417.1 188.1H463V211H417.1V188.1Z" class="g0_50"/>
<path d="M417.1 188.1H463V211H417.1V188.1Z" class="g1_50"/>
<path d="M463 188.1h45.8V211H463V188.1Z" class="g0_50"/>
<path d="M463 188.1h45.8V211H463V188.1Z" class="g1_50"/>
<path d="M279.6 211h45.9v22.9H279.6V211Z" class="g0_50"/>
<path d="M279.6 211h45.9v22.9H279.6V211Z" class="g1_50"/>
<path d="M325.5 211h45.8v22.9H325.5V211Z" class="g0_50"/>
<path d="M325.5 211h45.8v22.9H325.5V211Z" class="g1_50"/>
<path d="M371.3 211h45.8v22.9H371.3V211Z" class="g0_50"/>
<path d="M371.3 211h45.8v22.9H371.3V211Z" class="g1_50"/>
<path d="M417.1 211H463v22.9H417.1V211Z" class="g0_50"/>
<path d="M417.1 211H463v22.9H417.1V211Z" class="g1_50"/>
<path d="M463 211h45.8v22.9H463V211Z" class="g0_50"/>
<path d="M463 211h45.8v22.9H463V211Z" class="g1_50"/>
<path d="M279.6 233.9h45.9v22.9H279.6V233.9Z" class="g0_50"/>
<path d="M279.6 233.9h45.9v22.9H279.6V233.9Z" class="g1_50"/>
<path d="M325.5 233.9h45.8v22.9H325.5V233.9Z" class="g0_50"/>
<path d="M325.5 233.9h45.8v22.9H325.5V233.9Z" class="g1_50"/>
<path d="M371.3 233.9h45.8v22.9H371.3V233.9Z" class="g0_50"/>
<path d="M371.3 233.9h45.8v22.9H371.3V233.9Z" class="g1_50"/>
<path d="M417.1 233.9H463v22.9H417.1V233.9Z" class="g0_50"/>
<path d="M417.1 233.9H463v22.9H417.1V233.9Z" class="g1_50"/>
<path d="M463 233.9h45.8v22.9H463V233.9Z" class="g0_50"/>
<path d="M463 233.9h45.8v22.9H463V233.9Z" class="g1_50"/>
<path d="M279.6 256.8h45.9v23H279.6v-23Z" class="g0_50"/>
<path d="M279.6 256.8h45.9v23H279.6v-23Z" class="g1_50"/>
<path d="M325.5 256.8h45.8v23H325.5v-23Z" class="g0_50"/>
<path d="M325.5 256.8h45.8v23H325.5v-23Z" class="g1_50"/>
<path d="M371.3 256.8h45.8v23H371.3v-23Z" class="g0_50"/>
<path d="M371.3 256.8h45.8v23H371.3v-23Z" class="g1_50"/>
<path d="M417.1 256.8H463v23H417.1v-23Z" class="g0_50"/>
<path d="M417.1 256.8H463v23H417.1v-23Z" class="g1_50"/>
<path d="M463 256.8h45.8v23H463v-23Z" class="g0_50"/>
<path d="M463 256.8h45.8v23H463v-23Z" class="g1_50"/>
<path d="M279.6 279.8h45.9v22.9H279.6V279.8Z" class="g0_50"/>
<path d="M279.6 279.8h45.9v22.9H279.6V279.8Z" class="g1_50"/>
<path d="M325.5 279.8h45.8v22.9H325.5V279.8Z" class="g0_50"/>
<path d="M325.5 279.8h45.8v22.9H325.5V279.8Z" class="g1_50"/>
<path d="M371.3 279.8h45.8v22.9H371.3V279.8Z" class="g0_50"/>
<path d="M371.3 279.8h45.8v22.9H371.3V279.8Z" class="g1_50"/>
<path d="M417.1 279.8H463v22.9H417.1V279.8Z" class="g0_50"/>
<path d="M417.1 279.8H463v22.9H417.1V279.8Z" class="g1_50"/>
<path d="M463 279.8h45.8v22.9H463V279.8Z" class="g0_50"/>
<path d="M463 279.8h45.8v22.9H463V279.8Z" class="g1_50"/>
<path d="M279.6 302.7h45.9v22.9H279.6V302.7Z" class="g0_50"/>
<path d="M279.6 302.7h45.9v22.9H279.6V302.7Z" class="g1_50"/>
<path d="M325.5 302.7h45.8v22.9H325.5V302.7Z" class="g0_50"/>
<path d="M325.5 302.7h45.8v22.9H325.5V302.7Z" class="g1_50"/>
<path d="M371.3 302.7h45.8v22.9H371.3V302.7Z" class="g0_50"/>
<path d="M371.3 302.7h45.8v22.9H371.3V302.7Z" class="g1_50"/>
<path d="M417.1 302.7H463v22.9H417.1V302.7Z" class="g0_50"/>
<path d="M417.1 302.7H463v22.9H417.1V302.7Z" class="g1_50"/>
<path d="M463 302.7h45.8v22.9H463V302.7Z" class="g0_50"/>
<path d="M463 302.7h45.8v22.9H463V302.7Z" class="g1_50"/>
<path d="M279.6 325.6h45.9v22.9H279.6V325.6Z" class="g0_50"/>
<path d="M279.6 325.6h45.9v22.9H279.6V325.6Z" class="g1_50"/>
<path d="M325.5 325.6h45.8v22.9H325.5V325.6Z" class="g0_50"/>
<path d="M325.5 325.6h45.8v22.9H325.5V325.6Z" class="g1_50"/>
<path d="M371.3 325.6h45.8v22.9H371.3V325.6Z" class="g0_50"/>
<path d="M371.3 325.6h45.8v22.9H371.3V325.6Z" class="g1_50"/>
<path d="M417.1 325.6H463v22.9H417.1V325.6Z" class="g0_50"/>
<path d="M417.1 325.6H463v22.9H417.1V325.6Z" class="g1_50"/>
<path d="M463 325.6h45.8v22.9H463V325.6Z" class="g0_50"/>
<path d="M463 325.6h45.8v22.9H463V325.6ZM268.2 256.8c-3.2 0 -5.8 -2.5 -5.8 -5.7V216.7c0 -3.1 -2.5 -5.7 -5.7 -5.7c3.2 0 5.7 -2.6 5.7 -5.7V170.9c0 -3.2 2.6 -5.7 5.8 -5.7m0 183.3c-3.2 0 -5.8 -2.6 -5.8 -5.7V308.4c0 -3.2 -2.5 -5.7 -5.7 -5.7c3.2 0 5.7 -2.6 5.7 -5.8V262.6c0 -3.2 2.6 -5.8 5.8 -5.8" class="g1_50"/>
<path clip-path="url(#c0_50)" d="M279.6 165.2h45.9v91.6H279.6V165.2Zm45.9 0h45.8v91.6H325.5V165.2Zm45.8 0h45.8v91.6H371.3V165.2Zm45.8 0H463v91.6H417.1V165.2Zm45.9 0h45.8v91.6H463V165.2ZM279.6 256.8h45.9v91.7H279.6V256.8Zm45.9 0h45.8v91.7H325.5V256.8Zm45.8 0h45.8v91.7H371.3V256.8Zm45.8 0H463v91.7H417.1V256.8Zm45.9 0h45.8v91.7H463V256.8Z" class="g2_50"/>
<path d="M279.6 131.9c0 -3.1 2.6 -5.7 5.8 -5.7H388.5c3.1 0 5.7 -2.5 5.7 -5.7c0 3.2 2.6 5.7 5.7 5.7H503.1c3.1 0 5.7 2.6 5.7 5.7" class="g1_50"/>
<path d="M296.8 152h3.5v1.1h-3.5V152Zm6.9 0h3.4v1.1h-3.4V152Zm6.9 0H314v1.1h-3.4V152Zm6.8 0h3.5v1.1h-3.5V152Zm6.9 0h3.5v1.1h-3.5V152Zm6.9 0h3.4v1.1h-3.4V152Zm6.9 0h3.4v1.1h-3.4V152Zm6.8 0h3.5v1.1h-3.5V152Zm6.9 0h3.5v1.1h-3.5V152Zm6.9 0h3.4v1.1h-3.4V152Zm6.9 0H369v1.1h-3.4V152Zm6.8 0h3.5v1.1h-3.5V152Zm6.9 0h3.5v1.1h-3.5V152Zm6.9 0h3.4v1.1h-3.4V152Zm6.9 0h3.4v1.1h-3.4V152Zm6.8 0h3.5v1.1h-3.5V152Zm6.9 0h3.5v1.1h-3.5V152Zm6.9 0h3.4v1.1h-3.4V152Zm6.9 0H424v1.1h-3.4V152Zm6.8 0h3.5v1.1h-3.5V152Zm6.9 0h3.5v1.1h-3.5V152Zm6.9 0h3.4v1.1h-3.4V152Zm6.9 0h3.4v1.1h-3.4V152Zm6.8 0h3.5v1.1h-3.5V152Zm6.9 0h3.5v1.1h-3.5V152Zm6.9 0h3.4v1.1h-3.4V152Zm6.9 0H479v1.1h-3.4V152Zm6.8 0h3.5v1.1h-3.5V152Zm6.9 0h3.5v1.1h-3.5V152Zm6.9 0h3.4v1.1h-3.4V152Zm6.9 0c1.1 0 2.3 .1 3.4 .3l-.2 1.2c-1.1 -.2 -2.1 -.4 -3.2 -.4V152Zm6.9 1.4c1.1 .5 2.1 1 3.1 1.7l-.6 1c-.9 -.7 -1.9 -1.2 -2.9 -1.6l.4 -1.1Zm5.9 4.1c.8 .8 1.6 1.8 2.2 2.8l-1 .6c-.6 -.9 -1.3 -1.8 -2.1 -2.6l.9 -.8Zm3.8 6c.4 1.1 .7 2.3 .9 3.5l-1.1 .2c-.2 -1.2 -.5 -2.3 -.9 -3.3l1.1 -.4Zm1.1 6.9v3.5h-1.1v-3.5h1.1Zm0 6.9v3.4h-1.1v-3.4h1.1Zm0 6.9v3.4h-1.1v-3.4h1.1Zm0 6.9v3.4h-1.1v-3.4h1.1Zm0 6.8v3.5h-1.1v-3.5h1.1Zm0 6.9v3.4h-1.1v-3.4h1.1Zm0 6.9v3.4h-1.1v-3.4h1.1Zm0 6.9V222h-1.1v-3.4h1.1Zm0 6.8v3.5h-1.1v-3.5h1.1Zm0 6.9v3.4h-1.1v-3.4h1.1Zm0 6.9v3.4h-1.1v-3.4h1.1Zm0 6.9v3.4h-1.1v-3.4h1.1Zm-.2 6.8c-.2 1.3 -.6 2.4 -1 3.6l-1.1 -.4c.4 -1.1 .8 -2.2 .9 -3.3l1.2 .1Zm-2.6 6.7c-.7 1 -1.4 2 -2.3 2.8l-.8 -.8c.8 -.8 1.5 -1.7 2.1 -2.6l1 .6Zm-5.1 5.1c-.9 .7 -2 1.2 -3.1 1.7l-.4 -1.1c1 -.4 2 -.9 2.9 -1.5l.6 .9Zm-6.6 2.7c-1.1 .2 -2.1 .3 -3.2 .3h-.2v-1.1h.2c1 0 2 -.1 3 -.3l.2 1.1Zm-6.9 .3H496v-1.1h3.4v1.1Zm-6.9 0h-3.4v-1.1h3.4v1.1Zm-6.8 0h-3.5v-1.1h3.5v1.1Zm-6.9 0h-3.4v-1.1h3.4v1.1Zm-6.9 0h-3.4v-1.1h3.4v1.1Zm-6.9 0h-3.4v-1.1H465v1.1Zm-6.8 0h-3.5v-1.1h3.5v1.1Zm-6.9 0h-3.4v-1.1h3.4v1.1Zm-6.9 0H441v-1.1h3.4v1.1Zm-6.9 0h-3.4v-1.1h3.4v1.1Zm-6.8 0h-3.5v-1.1h3.5v1.1Zm-6.9 0h-3.4v-1.1h3.4v1.1Zm-6.9 0h-3.4v-1.1h3.4v1.1Zm-6.9 0h-3.4v-1.1H410v1.1Zm-6.8 0h-3.5v-1.1h3.5v1.1Zm-6.9 0h-3.4v-1.1h3.4v1.1Zm-6.9 0H386v-1.1h3.4v1.1Zm-6.9 0h-3.4v-1.1h3.4v1.1Zm-6.8 0h-3.5v-1.1h3.5v1.1Zm-6.9 0h-3.4v-1.1h3.4v1.1Zm-6.9 0h-3.4v-1.1h3.4v1.1Zm-6.9 0h-3.4v-1.1H355v1.1Zm-6.8 0h-3.5v-1.1h3.5v1.1Zm-6.9 0h-3.4v-1.1h3.4v1.1Zm-6.9 0H331v-1.1h3.4v1.1Zm-6.9 0h-3.4v-1.1h3.4v1.1Zm-6.8 0h-3.5v-1.1h3.5v1.1Zm-6.9 0h-3.4v-1.1h3.4v1.1Zm-6.9 0h-3.4v-1.1h3.4v1.1Zm-6.9 0h-3.4v-1.1H300v1.1Zm-6.8 0h-3.3c0 0 -.1 0 -.2 0l.1 -1.1c0 0 .1 0 .1 0h3.3v1.1Zm-6.9 -.4c-1.2 -.2 -2.4 -.6 -3.5 -1.1l.5 -1c1 .4 2.1 .8 3.2 1l-.2 1.1Zm-6.6 -2.8c-1 -.7 -1.9 -1.5 -2.7 -2.4l.8 -.8c.8 .9 1.6 1.6 2.6 2.2l-.7 1Zm-4.9 -5.2c-.6 -1.1 -1.1 -2.1 -1.5 -3.3l1 -.3c.4 1 .9 2 1.5 3l-1 .6Zm-2.4 -6.8c-.2 -.8 -.2 -1.7 -.2 -2.5v-.9h1.1v.9c0 .8 .1 1.6 .2 2.4l-1.1 .1Zm-.2 -6.9v-3.4h1.1v3.4h-1.1Zm0 -6.8v-3.5h1.1v3.5h-1.1Zm0 -6.9v-3.4h1.1v3.4h-1.1Zm0 -6.9v-3.4h1.1V225h-1.1Zm0 -6.9v-3.4h1.1v3.4h-1.1Zm0 -6.8v-3.5h1.1v3.5h-1.1Zm0 -6.9V201h1.1v3.4h-1.1Zm0 -6.9v-3.4h1.1v3.4h-1.1Zm0 -6.9v-3.4h1.1v3.4h-1.1Zm0 -6.8v-3.5h1.1v3.5h-1.1Zm0 -6.9v-3.4h1.1v3.4h-1.1Zm0 -6.9v-.2c0 -1.1 .1 -2.2 .3 -3.2l1.1 .2c-.2 1 -.3 2 -.3 3v.2h-1.1Zm1.3 -6.9c.4 -1.1 1 -2.2 1.6 -3.2l1 .7c-.6 .9 -1.1 1.9 -1.5 2.9l-1.1 -.4Zm3.9 -6c.9 -.8 1.8 -1.6 2.8 -2.2l.7 .9c-1 .7 -1.9 1.4 -2.7 2.2l-.8 -.9Zm6 -3.8c1.1 -.5 2.3 -.8 3.5 -1l.2 1.1c-1.1 .2 -2.2 .5 -3.3 .9l-.4 -1Zm6.5 -1.3h3.5v1.1h-3.5V152Z" class="g3_50"/>
</g>
<path d="M86.6 832.5H196.2" class="g4_50"/>
</svg>