<?xml version="1.0" encoding="UTF-8" standalone="no"?>
<!DOCTYPE svg PUBLIC "-//W3C//DTD SVG 1.1//EN"
"http://www.w3.org/Graphics/SVG/1.1/DTD/svg11.dtd">
<svg viewBox="0 0 714 1017" version="1.1" xmlns="http://www.w3.org/2000/svg" xmlns:xlink="http://www.w3.org/1999/xlink">
<defs>
<clipPath id="c0_186"><path d="M138.2 278.6V109.2H597.7V278.6Z"/></clipPath>
<clipPath id="c1_186"><path d="M138.2 278.6V109H598.1V278.6Z"/></clipPath>
<style type="text/css"><![CDATA[
.g0_186{
fill: #FFF;
}
.g1_186{
fill: none;
stroke: #000;
stroke-width: 1.145;
stroke-miterlimit: 10;
}
.g2_186{
fill: #000;
}
]]></style>
</defs>
<path d="M0 1017.7H717.2V-3.7H0V1017.7Z" class="g0_186"/>
<g clip-path="url(#c1_186)">
<path clip-path="url(#c0_186)" d="M138.2 109.2H597.7V278.8H138.2V109.2Z" class="g0_186"/>
<path d="M138.8 132.7H219v45.8H138.8V132.7Zm103.1 0h80.2v45.8H241.9V132.7ZM138.8 201.4H219v45.8H138.8V201.4Zm103.1 0h80.2v45.8H241.9V201.4ZM150.2 144.1h23V167h-23V144.1Zm34.4 0h22.9V167H184.6V144.1Zm68.8 0h22.9V167H253.4V144.1Zm34.3 0h23V167h-23V144.1ZM150.2 212.9h23v22.9h-23V212.9Z" class="g1_186"/>
<path d="M158.8 218c0 .4 0 .8 -.2 1.1c-.1 .4 -.3 .7 -.6 1c-.3 .2 -.6 .4 -.9 .6c-.4 .1 -.7 .2 -1.1 .2c-.4 0 -.8 -.1 -1.1 -.2c-.4 -.2 -.7 -.4 -1 -.6c-.2 -.3 -.4 -.6 -.6 -1c-.1 -.3 -.2 -.7 -.2 -1.1c0 -.3 .1 -.7 .2 -1.1c.2 -.3 .4 -.6 .6 -.9c.3 -.3 .6 -.5 1 -.6c.3 -.2 .7 -.2 1.1 -.2c.4 0 .7 0 1.1 .2c.3 .1 .6 .3 .9 .6c.3 .3 .5 .6 .6 .9c.2 .4 .2 .8 .2 1.1Z" class="g2_186"/>
<path d="M166.9 223.2c0 .4 -.1 .7 -.3 1.1c-.1 .3 -.3 .6 -.6 .9c-.3 .3 -.6 .5 -.9 .6c-.4 .2 -.7 .3 -1.1 .3c-.4 0 -.8 -.1 -1.1 -.3c-.4 -.1 -.7 -.3 -.9 -.6c-.3 -.3 -.5 -.6 -.7 -.9c-.1 -.4 -.2 -.7 -.2 -1.1c0 -.4 .1 -.8 .2 -1.1c.2 -.4 .4 -.7 .7 -.9c.2 -.3 .5 -.5 .9 -.7c.3 -.1 .7 -.2 1.1 -.2c.4 0 .7 .1 1.1 .2c.3 .2 .6 .4 .9 .7c.3 .2 .5 .5 .6 .9c.2 .3 .3 .7 .3 1.1Z" class="g2_186"/>
<path d="M166.9 230.6c0 .4 -.1 .8 -.3 1.1c-.1 .4 -.3 .7 -.6 1c-.3 .2 -.6 .4 -.9 .6c-.4 .1 -.7 .2 -1.1 .2c-.4 0 -.8 -.1 -1.1 -.2c-.4 -.2 -.7 -.4 -.9 -.6c-.3 -.3 -.5 -.6 -.7 -1c-.1 -.3 -.2 -.7 -.2 -1.1c0 -.3 .1 -.7 .2 -1.1c.2 -.3 .4 -.6 .7 -.9c.2 -.3 .5 -.5 .9 -.6c.3 -.2 .7 -.2 1.1 -.2c.4 0 .7 0 1.1 .2c.3 .1 .6 .3 .9 .6c.3 .3 .5 .6 .6 .9c.2 .4 .3 .8 .3 1.1Z" class="g2_186"/>
<path d="M156 220.9v2.5h6.2M156 220.9v9.7h5.1m23.5 -17.7h22.9v22.9H184.6V212.9Z" class="g1_186"/>
<path d="M193.2 218c0 .4 -.1 .8 -.2 1.1c-.2 .4 -.4 .7 -.6 1c-.3 .2 -.6 .4 -1 .6c-.3 .1 -.7 .2 -1.1 .2c-.3 0 -.7 -.1 -1.1 -.2c-.3 -.2 -.6 -.4 -.9 -.6c-.2 -.3 -.5 -.6 -.6 -1c-.1 -.3 -.2 -.7 -.2 -1.1c0 -.3 .1 -.7 .2 -1.1c.1 -.3 .4 -.6 .6 -.9c.3 -.3 .6 -.5 .9 -.6c.4 -.2 .8 -.2 1.1 -.2c.4 0 .8 0 1.1 .2c.4 .1 .7 .3 1 .6c.2 .3 .4 .6 .6 .9c.1 .4 .2 .8 .2 1.1Z" class="g2_186"/>
<path d="M201.2 223.2c0 .4 0 .7 -.2 1.1c-.1 .3 -.3 .6 -.6 .9c-.3 .3 -.6 .5 -.9 .6c-.4 .2 -.8 .3 -1.1 .3c-.4 0 -.8 -.1 -1.1 -.3c-.4 -.1 -.7 -.3 -1 -.6c-.2 -.3 -.4 -.6 -.6 -.9c-.1 -.4 -.2 -.7 -.2 -1.1c0 -.4 .1 -.8 .2 -1.1c.2 -.4 .4 -.7 .6 -.9c.3 -.3 .6 -.5 1 -.7c.3 -.1 .7 -.2 1.1 -.2c.3 0 .7 .1 1.1 .2c.3 .2 .6 .4 .9 .7c.3 .2 .5 .5 .6 .9c.2 .3 .2 .7 .2 1.1Z" class="g2_186"/>
<path d="M201.2 230.6c0 .4 0 .8 -.2 1.1c-.1 .4 -.3 .7 -.6 1c-.3 .2 -.6 .4 -.9 .6c-.4 .1 -.8 .2 -1.1 .2c-.4 0 -.8 -.1 -1.1 -.2c-.4 -.2 -.7 -.4 -1 -.6c-.2 -.3 -.4 -.6 -.6 -1c-.1 -.3 -.2 -.7 -.2 -1.1c0 -.3 .1 -.7 .2 -1.1c.2 -.3 .4 -.6 .6 -.9c.3 -.3 .6 -.5 1 -.6c.3 -.2 .7 -.2 1.1 -.2c.3 0 .7 0 1.1 .2c.3 .1 .6 .3 .9 .6c.3 .3 .5 .6 .6 .9c.2 .4 .2 .8 .2 1.1Z" class="g2_186"/>
<path d="M190.3 220.9v2.5h6.2m-6.2 -2.5v9.7h5.2m57.9 -17.7h22.9v22.9H253.4V212.9Z" class="g1_186"/>
<path d="M262 218c0 .4 -.1 .8 -.3 1.1c-.1 .4 -.3 .7 -.6 1c-.2 .2 -.6 .4 -.9 .6c-.4 .1 -.7 .2 -1.1 .2c-.4 0 -.7 -.1 -1.1 -.2c-.4 -.2 -.7 -.4 -.9 -.6c-.3 -.3 -.5 -.6 -.7 -1c-.1 -.3 -.2 -.7 -.2 -1.1c0 -.3 .1 -.7 .2 -1.1c.2 -.3 .4 -.6 .7 -.9c.2 -.3 .5 -.5 .9 -.6c.4 -.2 .7 -.2 1.1 -.2c.4 0 .7 0 1.1 .2c.3 .1 .7 .3 .9 .6c.3 .3 .5 .6 .6 .9c.2 .4 .3 .8 .3 1.1Z" class="g2_186"/>
<path d="M270 223.2c0 .4 -.1 .7 -.2 1.1c-.2 .3 -.4 .6 -.7 .9c-.2 .3 -.5 .5 -.9 .6c-.3 .2 -.7 .3 -1.1 .3c-.4 0 -.7 -.1 -1.1 -.3c-.3 -.1 -.6 -.3 -.9 -.6c-.3 -.3 -.5 -.6 -.6 -.9c-.2 -.4 -.2 -.7 -.2 -1.1c0 -.4 0 -.8 .2 -1.1c.1 -.4 .3 -.7 .6 -.9c.3 -.3 .6 -.5 .9 -.7c.4 -.1 .7 -.2 1.1 -.2c.4 0 .8 .1 1.1 .2c.4 .2 .7 .4 .9 .7c.3 .2 .5 .5 .7 .9c.1 .3 .2 .7 .2 1.1Z" class="g2_186"/>
<path d="M270 230.6c0 .4 -.1 .8 -.2 1.1c-.2 .4 -.4 .7 -.7 1c-.2 .2 -.5 .4 -.9 .6c-.3 .1 -.7 .2 -1.1 .2c-.4 0 -.7 -.1 -1.1 -.2c-.3 -.2 -.6 -.4 -.9 -.6c-.3 -.3 -.5 -.6 -.6 -1c-.2 -.3 -.2 -.7 -.2 -1.1c0 -.3 0 -.7 .2 -1.1c.1 -.3 .3 -.6 .6 -.9c.3 -.3 .6 -.5 .9 -.6c.4 -.2 .7 -.2 1.1 -.2c.4 0 .8 0 1.1 .2c.4 .1 .7 .3 .9 .6c.3 .3 .5 .6 .7 .9c.1 .4 .2 .8 .2 1.1Z" class="g2_186"/>
<path d="M259.1 220.9v2.5h6.2m-6.2 -2.5v9.7h5.2m23.4 -17.7h23v22.9h-23V212.9Z" class="g1_186"/>
<path d="M296.3 218c0 .4 0 .8 -.2 1.1c-.1 .4 -.3 .7 -.6 1c-.3 .2 -.6 .4 -.9 .6c-.4 .1 -.7 .2 -1.1 .2c-.4 0 -.8 -.1 -1.1 -.2c-.4 -.2 -.7 -.4 -1 -.6c-.2 -.3 -.4 -.6 -.6 -1c-.1 -.3 -.2 -.7 -.2 -1.1c0 -.3 .1 -.7 .2 -1.1c.2 -.3 .4 -.6 .6 -.9c.3 -.3 .6 -.5 1 -.6c.3 -.2 .7 -.2 1.1 -.2c.4 0 .7 0 1.1 .2c.3 .1 .6 .3 .9 .6c.3 .3 .5 .6 .6 .9c.2 .4 .2 .8 .2 1.1Z" class="g2_186"/>
<path d="M304.4 223.2c0 .4 -.1 .7 -.3 1.1c-.1 .3 -.3 .6 -.6 .9c-.3 .3 -.6 .5 -.9 .6c-.4 .2 -.7 .3 -1.1 .3c-.4 0 -.8 -.1 -1.1 -.3c-.4 -.1 -.7 -.3 -.9 -.6c-.3 -.3 -.5 -.6 -.7 -.9c-.1 -.4 -.2 -.7 -.2 -1.1c0 -.4 .1 -.8 .2 -1.1c.2 -.4 .4 -.7 .7 -.9c.2 -.3 .5 -.5 .9 -.7c.3 -.1 .7 -.2 1.1 -.2c.4 0 .7 .1 1.1 .2c.3 .2 .6 .4 .9 .7c.3 .2 .5 .5 .6 .9c.2 .3 .3 .7 .3 1.1Z" class="g2_186"/>
<path d="M304.4 230.6c0 .4 -.1 .8 -.3 1.1c-.1 .4 -.3 .7 -.6 1c-.3 .2 -.6 .4 -.9 .6c-.4 .1 -.7 .2 -1.1 .2c-.4 0 -.8 -.1 -1.1 -.2c-.4 -.2 -.7 -.4 -.9 -.6c-.3 -.3 -.5 -.6 -.7 -1c-.1 -.3 -.2 -.7 -.2 -1.1c0 -.3 .1 -.7 .2 -1.1c.2 -.3 .4 -.6 .7 -.9c.2 -.3 .5 -.5 .9 -.6c.3 -.2 .7 -.2 1.1 -.2c.4 0 .7 0 1.1 .2c.3 .1 .6 .3 .9 .6c.3 .3 .5 .6 .6 .9c.2 .4 .3 .8 .3 1.1Z" class="g2_186"/>
<path d="M293.5 220.9v2.5h6.2m-6.2 -2.5v9.7h5.1" class="g1_186"/>
<path d="M161.1 212.9v-3.5h1.2v3.5M161.1 206v-3.4h1.2V206m-1.2 -6.9v-3.4h1.2v3.4m-1.2 -6.9v-3.4h1.2v3.4m-1.2 -6.8v-3.5h1.2v3.5m-1.2 -6.9v-3.4h1.2v3.4m-1.2 -6.9v-3.4h1.2v3.4Z" class="g2_186"/>
<path d="M195.5 212.9v-3.5h1.1v3.5M195.5 206v-3.4h1.1V206m-1.1 -6.9v-3.4h1.1v3.4m-1.1 -6.9v-3.4h1.1v3.4m-1.1 -6.8v-3.5h1.1v3.5m-1.1 -6.9v-3.4h1.1v3.4m-1.1 -6.9v-3.4h1.1v3.4Z" class="g2_186"/>
<path d="M264.3 212.9v-3.5h1.1v3.5M264.3 206v-3.4h1.1V206m-1.1 -6.9v-3.4h1.1v3.4m-1.1 -6.9v-3.4h1.1v3.4m-1.1 -6.8v-3.5h1.1v3.5m-1.1 -6.9v-3.4h1.1v3.4m-1.1 -6.9v-3.4h1.1v3.4Z" class="g2_186"/>
<path d="M298.6 212.9v-3.5h1.2v3.5M298.6 206v-3.4h1.2V206m-1.2 -6.9v-3.4h1.2v3.4m-1.2 -6.9v-3.4h1.2v3.4m-1.2 -6.8v-3.5h1.2v3.5m-1.2 -6.9v-3.4h1.2v3.4m-1.2 -6.9v-3.4h1.2v3.4Z" class="g2_186"/>
<path d="M413.8 132.7H494v45.8H413.8V132.7Zm103.1 0h80.2v45.8H516.9V132.7ZM413.8 201.4H597.1v45.8H413.8V201.4Zm11.4 -57.3h23V167h-23V144.1Zm34.4 0h22.9V167H459.6V144.1Zm68.8 0h22.9V167H528.4V144.1Zm34.3 0h23V167h-23V144.1ZM425.2 212.9h23v22.9h-23V212.9Z" class="g1_186"/>
<path d="M433.8 218c0 .4 0 .8 -.2 1.1c-.1 .4 -.3 .7 -.6 1c-.3 .2 -.6 .4 -.9 .6c-.4 .1 -.7 .2 -1.1 .2c-.4 0 -.8 -.1 -1.1 -.2c-.4 -.2 -.7 -.4 -1 -.6c-.2 -.3 -.4 -.6 -.6 -1c-.1 -.3 -.2 -.7 -.2 -1.1c0 -.3 .1 -.7 .2 -1.1c.2 -.3 .4 -.6 .6 -.9c.3 -.3 .6 -.5 1 -.6c.3 -.2 .7 -.2 1.1 -.2c.4 0 .7 0 1.1 .2c.3 .1 .6 .3 .9 .6c.3 .3 .5 .6 .6 .9c.2 .4 .2 .8 .2 1.1Z" class="g2_186"/>
<path d="M441.9 223.2c0 .4 -.1 .7 -.3 1.1c-.1 .3 -.3 .6 -.6 .9c-.3 .3 -.6 .5 -.9 .6c-.4 .2 -.7 .3 -1.1 .3c-.4 0 -.8 -.1 -1.1 -.3c-.4 -.1 -.7 -.3 -.9 -.6c-.3 -.3 -.5 -.6 -.7 -.9c-.1 -.4 -.2 -.7 -.2 -1.1c0 -.4 .1 -.8 .2 -1.1c.2 -.4 .4 -.7 .7 -.9c.2 -.3 .5 -.5 .9 -.7c.3 -.1 .7 -.2 1.1 -.2c.4 0 .7 .1 1.1 .2c.3 .2 .6 .4 .9 .7c.3 .2 .5 .5 .6 .9c.2 .3 .3 .7 .3 1.1Z" class="g2_186"/>
<path d="M441.9 230.6c0 .4 -.1 .8 -.3 1.1c-.1 .4 -.3 .7 -.6 1c-.3 .2 -.6 .4 -.9 .6c-.4 .1 -.7 .2 -1.1 .2c-.4 0 -.8 -.1 -1.1 -.2c-.4 -.2 -.7 -.4 -.9 -.6c-.3 -.3 -.5 -.6 -.7 -1c-.1 -.3 -.2 -.7 -.2 -1.1c0 -.3 .1 -.7 .2 -1.1c.2 -.3 .4 -.6 .7 -.9c.2 -.3 .5 -.5 .9 -.6c.3 -.2 .7 -.2 1.1 -.2c.4 0 .7 0 1.1 .2c.3 .1 .6 .3 .9 .6c.3 .3 .5 .6 .6 .9c.2 .4 .3 .8 .3 1.1Z" class="g2_186"/>
<path d="M431 220.9v2.5h6.2M431 220.9v9.7h5.1M494 212.9h22.9v22.9H494V212.9Z" class="g1_186"/>
<path d="M502.6 218c0 .4 -.1 .8 -.2 1.1c-.2 .4 -.4 .7 -.7 1c-.2 .2 -.5 .4 -.9 .6c-.3 .1 -.7 .2 -1.1 .2c-.4 0 -.7 -.1 -1.1 -.2c-.3 -.2 -.6 -.4 -.9 -.6c-.3 -.3 -.5 -.6 -.6 -1c-.2 -.3 -.2 -.7 -.2 -1.1c0 -.3 0 -.7 .2 -1.1c.1 -.3 .3 -.6 .6 -.9c.3 -.3 .6 -.5 .9 -.6c.4 -.2 .7 -.2 1.1 -.2c.4 0 .8 0 1.1 .2c.4 .1 .7 .3 .9 .6c.3 .3 .5 .6 .7 .9c.1 .4 .2 .8 .2 1.1Z" class="g2_186"/>
<path d="M510.6 223.2c0 .4 -.1 .7 -.2 1.1c-.2 .3 -.4 .6 -.6 .9c-.3 .3 -.6 .5 -1 .6c-.3 .2 -.7 .3 -1.1 .3c-.3 0 -.7 -.1 -1.1 -.3c-.3 -.1 -.6 -.3 -.9 -.6c-.3 -.3 -.5 -.6 -.6 -.9c-.2 -.4 -.2 -.7 -.2 -1.1c0 -.4 0 -.8 .2 -1.1c.1 -.4 .3 -.7 .6 -.9c.3 -.3 .6 -.5 .9 -.7c.4 -.1 .8 -.2 1.1 -.2c.4 0 .8 .1 1.1 .2c.4 .2 .7 .4 1 .7c.2 .2 .4 .5 .6 .9c.1 .3 .2 .7 .2 1.1Z" class="g2_186"/>
<path d="M510.6 230.6c0 .4 -.1 .8 -.2 1.1c-.2 .4 -.4 .7 -.6 1c-.3 .2 -.6 .4 -1 .6c-.3 .1 -.7 .2 -1.1 .2c-.3 0 -.7 -.1 -1.1 -.2c-.3 -.2 -.6 -.4 -.9 -.6c-.3 -.3 -.5 -.6 -.6 -1c-.2 -.3 -.2 -.7 -.2 -1.1c0 -.3 0 -.7 .2 -1.1c.1 -.3 .3 -.6 .6 -.9c.3 -.3 .6 -.5 .9 -.6c.4 -.2 .8 -.2 1.1 -.2c.4 0 .8 0 1.1 .2c.4 .1 .7 .3 1 .6c.2 .3 .4 .6 .6 .9c.1 .4 .2 .8 .2 1.1Z" class="g2_186"/>
<path d="M499.7 220.9v2.5h6.2m-6.2 -2.5v9.7h5.2m57.8 -17.7h23v22.9h-23V212.9Z" class="g1_186"/>
<path d="M571.3 218c0 .4 0 .8 -.2 1.1c-.1 .4 -.3 .7 -.6 1c-.3 .2 -.6 .4 -.9 .6c-.4 .1 -.7 .2 -1.1 .2c-.4 0 -.8 -.1 -1.1 -.2c-.4 -.2 -.7 -.4 -1 -.6c-.2 -.3 -.4 -.6 -.6 -1c-.1 -.3 -.2 -.7 -.2 -1.1c0 -.3 .1 -.7 .2 -1.1c.2 -.3 .4 -.6 .6 -.9c.3 -.3 .6 -.5 1 -.6c.3 -.2 .7 -.2 1.1 -.2c.4 0 .7 0 1.1 .2c.3 .1 .6 .3 .9 .6c.3 .3 .5 .6 .6 .9c.2 .4 .2 .8 .2 1.1Z" class="g2_186"/>
<path d="M579.4 223.2c0 .4 -.1 .7 -.3 1.1c-.1 .3 -.3 .6 -.6 .9c-.3 .3 -.6 .5 -.9 .6c-.4 .2 -.7 .3 -1.1 .3c-.4 0 -.8 -.1 -1.1 -.3c-.4 -.1 -.7 -.3 -.9 -.6c-.3 -.3 -.5 -.6 -.7 -.9c-.1 -.4 -.2 -.7 -.2 -1.1c0 -.4 .1 -.8 .2 -1.1c.2 -.4 .4 -.7 .7 -.9c.2 -.3 .5 -.5 .9 -.7c.3 -.1 .7 -.2 1.1 -.2c.4 0 .7 .1 1.1 .2c.3 .2 .6 .4 .9 .7c.3 .2 .5 .5 .6 .9c.2 .3 .3 .7 .3 1.1Z" class="g2_186"/>
<path d="M579.4 230.6c0 .4 -.1 .8 -.3 1.1c-.1 .4 -.3 .7 -.6 1c-.3 .2 -.6 .4 -.9 .6c-.4 .1 -.7 .2 -1.1 .2c-.4 0 -.8 -.1 -1.1 -.2c-.4 -.2 -.7 -.4 -.9 -.6c-.3 -.3 -.5 -.6 -.7 -1c-.1 -.3 -.2 -.7 -.2 -1.1c0 -.3 .1 -.7 .2 -1.1c.2 -.3 .4 -.6 .7 -.9c.2 -.3 .5 -.5 .9 -.6c.3 -.2 .7 -.2 1.1 -.2c.4 0 .7 0 1.1 .2c.3 .1 .6 .3 .9 .6c.3 .3 .5 .6 .6 .9c.2 .4 .3 .8 .3 1.1Z" class="g2_186"/>
<path d="M568.5 220.9v2.5h6.2m-6.2 -2.5v9.7h5.1" class="g1_186"/>
<path d="M436.1 212.9v-3.5h1.2v3.5M436.1 206v-3.4h1.2V206m-1.2 -6.9v-3.4h1.2v3.4m-1.2 -6.9v-3.4h1.2v3.4m-1.2 -6.8v-3.5h1.2v3.5m-1.2 -6.9v-3.4h1.2v3.4m-1.2 -6.9v-3.4h1.2v3.4Z" class="g2_186"/>
<path d="M499.2 213.2l-1.8 -2.9l1 -.6l1.8 2.9m-4.6 -5.3l-1.8 -2.9l.9 -.6l1.9 2.9m-4.7 -5.2l-1.8 -2.9l1 -.6l1.8 2.9m-4.6 -5.2l-1.8 -2.9l1 -.6l1.8 2.9m-4.6 -5.2l-1.9 -3l1 -.6l1.8 3M481 184l-1.8 -2.9l1 -.6l1.8 2.9m-4.6 -5.2l-1.8 -2.9l.9 -.6l1.8 2.9m-4.6 -5.2l-1.8 -2.9l1 -.7l1.8 3Z" class="g2_186"/>
<path d="M510.7 212.6l1.8 -2.9l1 .6l-1.8 2.9m2.6 -6.5l1.9 -2.9l.9 .6l-1.8 2.9m2.7 -6.4l1.8 -2.9l1 .6l-1.8 2.9m2.6 -6.4l1.8 -2.9l1 .6l-1.8 2.9m2.7 -6.4l1.8 -3l1 .6l-1.9 3m2.7 -6.5l1.8 -2.9l1 .6l-1.8 2.9m2.7 -6.4l1.8 -2.9l.9 .6l-1.8 2.9m2.7 -6.4l1.8 -3l1 .7l-1.8 2.9Z" class="g2_186"/>
<path d="M573.6 212.9v-3.5h1.2v3.5M573.6 206v-3.4h1.2V206m-1.2 -6.9v-3.4h1.2v3.4m-1.2 -6.9v-3.4h1.2v3.4m-1.2 -6.8v-3.5h1.2v3.5m-1.2 -6.9v-3.4h1.2v3.4m-1.2 -6.9v-3.4h1.2v3.4Z" class="g2_186"/>
</g>
</svg>