<?xml version="1.0" encoding="UTF-8" standalone="no"?>
<!DOCTYPE svg PUBLIC "-//W3C//DTD SVG 1.1//EN"
"http://www.w3.org/Graphics/SVG/1.1/DTD/svg11.dtd">
<svg viewBox="0 0 714 1017" version="1.1" xmlns="http://www.w3.org/2000/svg" xmlns:xlink="http://www.w3.org/1999/xlink">
<defs>
<clipPath id="c0_116"><path d="M119.1 375.1V190.6H616.4V375.1Z"/></clipPath>
<clipPath id="c1_116"><path d="M119.1 375.4V190.5H617.2V375.4Z"/></clipPath>
<style type="text/css"><![CDATA[
.g0_116{
fill: #FFF;
}
.g1_116{
fill: none;
stroke: #000;
stroke-width: 1.145;
stroke-miterlimit: 10;
}
.g2_116{
fill: #000;
}
.g3_116{
fill: none;
stroke: #000;
stroke-width: 3.437;
stroke-miterlimit: 10;
}
]]></style>
</defs>
<path d="M0 1017.7H717.2V-3.7H0V1017.7Z" class="g0_116"/>
<g clip-path="url(#c1_116)">
<path clip-path="url(#c0_116)" d="M119.1 190.6H616.4V375.1H119.1V190.6Z" class="g0_116"/>
<path d="M159.8 259.9h149v22.9h-149V259.9Zm0 -22.9h149v22.9h-149V237Zm0 45.8h149v23h-149v-23Zm0 -68.7h149V237h-149V214.1Zm280 45.8h144v22.9h-144V259.9Zm0 -22.9h144v22.9h-144V237Zm0 45.8h144v23h-144v-23Zm0 -68.7h144V237h-144V214.1Zm0 91.7h144v22.9h-144V305.8Zm0 22.9h144v22.9h-144V328.7Zm0 22.9h144v22.9h-144V351.6Z" class="g1_116"/>
<path d="M583.8 293.7h3.4v1.2h-3.4v-1.2Zm6.9 0h3.4v1.2h-3.4v-1.2Zm7.1 .2c1.2 .1 2.3 .4 3.3 .8l-.4 1.1c-.9 -.4 -1.9 -.6 -3.1 -.8l.2 -1.1Zm6.4 2.8c.8 .8 1.5 1.8 2 3l-1.1 .5c-.4 -1.1 -1 -2 -1.7 -2.7l.8 -.8Zm2.9 6.4c.1 .8 .2 1.7 .2 2.7v1h-1.2v-1c0 -.9 0 -1.8 -.1 -2.6l1.1 -.1Zm.2 7.1v3.4h-1.2v-3.4h1.2Zm0 6.9v3.4h-1.2v-3.4h1.2Zm0 6.8v3.5h-1.2v-3.5h1.2Zm0 6.9v3.5h-1.2v-3.5h1.2Zm0 6.9v3.4h-1.2v-3.4h1.2Zm0 6.9V348h-1.2v-3.4h1.2Zm0 6.8v.2c0 1.3 -.1 2.4 -.2 3.5l-1.2 -.2c.2 -1 .2 -2.1 .2 -3.3v-.2h1.2Zm-1.1 7.1c-.5 1.3 -1.1 2.3 -1.9 3.1l-.8 -.8c.7 -.7 1.2 -1.6 1.7 -2.7l1 .4Zm-5.1 4.9c-.7 .1 -1.4 .2 -2.2 .2h-1.4v-1.1h1.4c.7 0 1.4 -.1 2 -.3l.2 1.2Zm-7 .2h-3v-1.1h3v1.1Z" class="g2_116"/>
<path d="M585.1 363l8 -2.6l-2 2.6l2 2.7l-8 -2.7Z" class="g2_116"/>
<path d="M585.1 363l8 -2.6l-2 2.6l2 2.7l-8 -2.7Z" class="g1_116"/>
<path d="M343.2 259.9h38.1m-6.5 5.2l10.3 -5.2l-10.3 -5.1" class="g3_116"/>
</g>
</svg>