<?xml version="1.0" encoding="UTF-8" standalone="no"?>
<!DOCTYPE svg PUBLIC "-//W3C//DTD SVG 1.1//EN"
"http://www.w3.org/Graphics/SVG/1.1/DTD/svg11.dtd">
<svg viewBox="0 0 714 1017" version="1.1" xmlns="http://www.w3.org/2000/svg" xmlns:xlink="http://www.w3.org/1999/xlink">
<defs>
<clipPath id="c0_328"><path d="M241.2 200.8V97H494.5V200.8Z"/></clipPath>
<clipPath id="c1_328"><path d="M137.5 883.6V714.2H598.1V883.6Z"/></clipPath>
<clipPath id="c2_328"><path d="M241.2 200.8V96.9H496.4V200.8Z"/></clipPath>
<clipPath id="c3_328"><path d="M137.5 883.6V714H598.9V883.6Z"/></clipPath>
<style type="text/css"><![CDATA[
.g0_328{
fill: #FFF;
}
.g1_328{
fill: none;
stroke: #000;
stroke-width: 1.145;
stroke-miterlimit: 10;
}
.g2_328{
fill: #000;
}
.g3_328{
fill: none;
stroke: #000;
stroke-width: 2.291;
stroke-miterlimit: 10;
}
]]></style>
</defs>
<path d="M0 1017.7H717.2V-3.7H0V1017.7Z" class="g0_328"/>
<g clip-path="url(#c2_328)">
<path clip-path="url(#c0_328)" d="M241.2 97H494.5V201.3H241.2V97Z" class="g0_328"/>
<path d="M327.2 97.6h81.3c.7 0 1.4 .1 2 .4c.6 .2 1.2 .6 1.7 1.1c.5 .5 .8 1 1.1 1.7c.3 .6 .4 1.2 .4 1.9v24.1c0 .7 -.1 1.3 -.4 2c-.3 .6 -.6 1.2 -1.1 1.6c-.5 .5 -1.1 .9 -1.7 1.2c-.6 .2 -1.3 .3 -2 .3H327.2c-.7 0 -1.4 -.1 -2 -.3c-.6 -.3 -1.2 -.7 -1.7 -1.2c-.4 -.4 -.8 -1 -1.1 -1.6c-.2 -.7 -.4 -1.3 -.4 -2V102.7c0 -.7 .2 -1.3 .4 -1.9c.3 -.7 .7 -1.2 1.1 -1.7c.5 -.5 1.1 -.9 1.7 -1.1c.6 -.3 1.3 -.4 2 -.4Z" class="g0_328"/>
<path d="M327.2 97.6h81.3c.7 0 1.4 .1 2 .4c.6 .2 1.2 .6 1.7 1.1c.5 .5 .8 1 1.1 1.7c.3 .6 .4 1.2 .4 1.9v24.1c0 .7 -.1 1.3 -.4 2c-.3 .6 -.6 1.2 -1.1 1.6c-.5 .5 -1.1 .9 -1.7 1.2c-.6 .2 -1.3 .3 -2 .3H327.2c-.7 0 -1.4 -.1 -2 -.3c-.6 -.3 -1.2 -.7 -1.7 -1.2c-.4 -.4 -.8 -1 -1.1 -1.6c-.2 -.7 -.4 -1.3 -.4 -2V102.7c0 -.7 .2 -1.3 .4 -1.9c.3 -.7 .7 -1.2 1.1 -1.7c.5 -.5 1.1 -.9 1.7 -1.1c.6 -.3 1.3 -.4 2 -.4Z" class="g1_328"/>
<path d="M247 166.3h81.3c.7 0 1.4 .2 2 .4c.6 .3 1.2 .6 1.7 1.1c.5 .5 .8 1.1 1.1 1.7c.3 .6 .4 1.3 .4 2v24c0 .7 -.1 1.4 -.4 2c-.3 .6 -.6 1.2 -1.1 1.7c-.5 .5 -1.1 .8 -1.7 1.1c-.6 .3 -1.3 .4 -2 .4H247c-.7 0 -1.4 -.1 -2 -.4c-.6 -.3 -1.2 -.6 -1.7 -1.1c-.5 -.5 -.8 -1.1 -1.1 -1.7c-.3 -.6 -.4 -1.3 -.4 -2v-24c0 -.7 .1 -1.4 .4 -2c.3 -.6 .6 -1.2 1.1 -1.7c.5 -.5 1.1 -.8 1.7 -1.1c.6 -.2 1.3 -.4 2 -.4Z" class="g0_328"/>
<path clip-path="url(#c0_328)" d="M247 166.3h81.3c.7 0 1.4 .2 2 .4c.6 .3 1.2 .6 1.7 1.1c.5 .5 .8 1.1 1.1 1.7c.3 .6 .4 1.3 .4 2v24c0 .7 -.1 1.4 -.4 2c-.3 .6 -.6 1.2 -1.1 1.7c-.5 .5 -1.1 .8 -1.7 1.1c-.6 .3 -1.3 .4 -2 .4H247c-.7 0 -1.4 -.1 -2 -.4c-.6 -.3 -1.2 -.6 -1.7 -1.1c-.5 -.5 -.8 -1.1 -1.1 -1.7c-.3 -.6 -.4 -1.3 -.4 -2v-24c0 -.7 .1 -1.4 .4 -2c.3 -.6 .6 -1.2 1.1 -1.7c.5 -.5 1.1 -.8 1.7 -1.1c.6 -.2 1.3 -.4 2 -.4Z" class="g1_328"/>
<path d="M407.4 166.3h81.3c.7 0 1.4 .2 2 .4c.6 .3 1.2 .6 1.7 1.1c.5 .5 .8 1.1 1.1 1.7c.3 .6 .4 1.3 .4 2v24c0 .7 -.1 1.4 -.4 2c-.3 .6 -.6 1.2 -1.1 1.7c-.5 .5 -1.1 .8 -1.7 1.1c-.6 .3 -1.3 .4 -2 .4H407.4c-.7 0 -1.4 -.1 -2 -.4c-.6 -.3 -1.2 -.6 -1.7 -1.1c-.4 -.5 -.8 -1.1 -1.1 -1.7c-.2 -.6 -.4 -1.3 -.4 -2v-24c0 -.7 .2 -1.4 .4 -2c.3 -.6 .7 -1.2 1.1 -1.7c.5 -.5 1.1 -.8 1.7 -1.1c.6 -.2 1.3 -.4 2 -.4Z" class="g0_328"/>
<path clip-path="url(#c0_328)" d="M407.4 166.3h81.3c.7 0 1.4 .2 2 .4c.6 .3 1.2 .6 1.7 1.1c.5 .5 .8 1.1 1.1 1.7c.3 .6 .4 1.3 .4 2v24c0 .7 -.1 1.4 -.4 2c-.3 .6 -.6 1.2 -1.1 1.7c-.5 .5 -1.1 .8 -1.7 1.1c-.6 .3 -1.3 .4 -2 .4H407.4c-.7 0 -1.4 -.1 -2 -.4c-.6 -.3 -1.2 -.6 -1.7 -1.1c-.4 -.5 -.8 -1.1 -1.1 -1.7c-.2 -.6 -.4 -1.3 -.4 -2v-24c0 -.7 .2 -1.4 .4 -2c.3 -.6 .7 -1.2 1.1 -1.7c.5 -.5 1.1 -.8 1.7 -1.1c.6 -.2 1.3 -.4 2 -.4ZM344.9 131.9l-32.7 29.5" class="g1_328"/>
<path d="M307.7 165.5l3.3 -8.4l1.2 4.3l4.1 1.7l-8.6 2.4Z" class="g2_328"/>
<path d="M307.7 165.5l3.3 -8.4l1.2 4.3l4.1 1.7l-8.6 2.4Zm25.8 18h61.4" class="g1_328"/>
<path d="M401 183.5l-8.1 4l2 -4l-2 -4l8.1 4Z" class="g2_328"/>
<path d="M401 183.5l-8.1 4l2 -4l-2 -4l8.1 4ZM390.8 131.9L420 161.2" class="g1_328"/>
<path d="M424.2 165.4l-8.5 -2.8l4.3 -1.4l1.4 -4.3l2.8 8.5Z" class="g2_328"/>
<path d="M424.2 165.4l-8.5 -2.8l4.3 -1.4l1.4 -4.3l2.8 8.5Z" class="g1_328"/>
</g>
<g clip-path="url(#c3_328)">
<path clip-path="url(#c1_328)" d="M137.5 714.2H598.1V883.8H137.5V714.2Z" class="g0_328"/>
<path d="M138.1 742.3H596.4M138.1 772.1H596.4M138.1 800.7H596.4M138.1 829.4H596.4" class="g1_328"/>
<path d="M186.1 743l82.1 26.7" class="g3_328"/>
<path d="M186.2 742.3c0 .3 -.1 .6 -.2 .9c-.1 .3 -.3 .5 -.5 .7c-.2 .2 -.5 .4 -.7 .5c-.3 .1 -.6 .2 -.9 .2c-.3 0 -.6 -.1 -.9 -.2c-.3 -.1 -.5 -.3 -.7 -.5c-.3 -.2 -.4 -.4 -.5 -.7c-.2 -.3 -.2 -.6 -.2 -.9c0 -.3 0 -.6 .2 -.9c.1 -.3 .2 -.5 .5 -.7c.2 -.2 .4 -.4 .7 -.5c.3 -.1 .6 -.2 .9 -.2c.3 0 .6 .1 .9 .2c.2 .1 .5 .3 .7 .5c.2 .2 .4 .4 .5 .7c.1 .3 .2 .6 .2 .9Z" class="g2_328"/>
<path d="M186.2 742.3c0 .3 -.1 .6 -.2 .9c-.1 .3 -.3 .5 -.5 .7c-.2 .2 -.5 .4 -.7 .5c-.3 .1 -.6 .2 -.9 .2c-.3 0 -.6 -.1 -.9 -.2c-.3 -.1 -.5 -.3 -.7 -.5c-.3 -.2 -.4 -.4 -.5 -.7c-.2 -.3 -.2 -.6 -.2 -.9c0 -.3 0 -.6 .2 -.9c.1 -.3 .2 -.5 .5 -.7c.2 -.2 .4 -.4 .7 -.5c.3 -.1 .6 -.2 .9 -.2c.3 0 .6 .1 .9 .2c.2 .1 .5 .3 .7 .5c.2 .2 .4 .4 .5 .7c.1 .3 .2 .6 .2 .9Z" class="g3_328"/>
<path d="M273.1 771.3l-7.2 .1l2.3 -1.7l-.9 -2.7l5.8 4.3Z" class="g2_328"/>
<path d="M273.1 771.3l-7.2 .1l2.3 -1.7l-.9 -2.7l5.8 4.3ZM185.8 743.6l83.3 54.1" class="g3_328"/>
<path d="M186.2 742.3c0 .3 -.1 .6 -.2 .9c-.1 .3 -.3 .5 -.5 .7c-.2 .2 -.5 .4 -.7 .5c-.3 .1 -.6 .2 -.9 .2c-.3 0 -.6 -.1 -.9 -.2c-.3 -.1 -.5 -.3 -.7 -.5c-.3 -.2 -.4 -.4 -.5 -.7c-.2 -.3 -.2 -.6 -.2 -.9c0 -.3 0 -.6 .2 -.9c.1 -.3 .2 -.5 .5 -.7c.2 -.2 .4 -.4 .7 -.5c.3 -.1 .6 -.2 .9 -.2c.3 0 .6 .1 .9 .2c.2 .1 .5 .3 .7 .5c.2 .2 .4 .4 .5 .7c.1 .3 .2 .6 .2 .9Z" class="g2_328"/>
<path d="M186.2 742.3c0 .3 -.1 .6 -.2 .9c-.1 .3 -.3 .5 -.5 .7c-.2 .2 -.5 .4 -.7 .5c-.3 .1 -.6 .2 -.9 .2c-.3 0 -.6 -.1 -.9 -.2c-.3 -.1 -.5 -.3 -.7 -.5c-.3 -.2 -.4 -.4 -.5 -.7c-.2 -.3 -.2 -.6 -.2 -.9c0 -.3 0 -.6 .2 -.9c.1 -.3 .2 -.5 .5 -.7c.2 -.2 .4 -.4 .7 -.5c.3 -.1 .6 -.2 .9 -.2c.3 0 .6 .1 .9 .2c.2 .1 .5 .3 .7 .5c.2 .2 .4 .4 .5 .7c.1 .3 .2 .6 .2 .9Z" class="g3_328"/>
<path d="M273.4 800.5l-7 -1.8l2.7 -1l-.2 -2.9l4.5 5.7Z" class="g2_328"/>
<path d="M273.4 800.5l-7 -1.8l2.7 -1l-.2 -2.9l4.5 5.7ZM185.5 743.9L270 824.1" class="g3_328"/>
<path d="M186.2 742.3c0 .3 -.1 .6 -.2 .9c-.1 .3 -.3 .5 -.5 .7c-.2 .2 -.5 .4 -.7 .5c-.3 .1 -.6 .2 -.9 .2c-.3 0 -.6 -.1 -.9 -.2c-.3 -.1 -.5 -.3 -.7 -.5c-.3 -.2 -.4 -.4 -.5 -.7c-.2 -.3 -.2 -.6 -.2 -.9c0 -.3 0 -.6 .2 -.9c.1 -.3 .2 -.5 .5 -.7c.2 -.2 .4 -.4 .7 -.5c.3 -.1 .6 -.2 .9 -.2c.3 0 .6 .1 .9 .2c.2 .1 .5 .3 .7 .5c.2 .2 .4 .4 .5 .7c.1 .3 .2 .6 .2 .9Z" class="g2_328"/>
<path d="M186.2 742.3c0 .3 -.1 .6 -.2 .9c-.1 .3 -.3 .5 -.5 .7c-.2 .2 -.5 .4 -.7 .5c-.3 .1 -.6 .2 -.9 .2c-.3 0 -.6 -.1 -.9 -.2c-.3 -.1 -.5 -.3 -.7 -.5c-.3 -.2 -.4 -.4 -.5 -.7c-.2 -.3 -.2 -.6 -.2 -.9c0 -.3 0 -.6 .2 -.9c.1 -.3 .2 -.5 .5 -.7c.2 -.2 .4 -.4 .7 -.5c.3 -.1 .6 -.2 .9 -.2c.3 0 .6 .1 .9 .2c.2 .1 .5 .3 .7 .5c.2 .2 .4 .4 .5 .7c.1 .3 .2 .6 .2 .9Z" class="g3_328"/>
<path d="M273.7 827.6l-6.6 -3l2.9 -.5l.3 -2.9l3.4 6.4Z" class="g2_328"/>
<path d="M273.7 827.6l-6.6 -3l2.9 -.5l.3 -2.9l3.4 6.4Zm3.5 .2l84.4 -80.2" class="g3_328"/>
<path d="M277.8 829.4c0 .3 0 .6 -.1 .9c-.1 .2 -.3 .5 -.5 .7c-.2 .2 -.5 .4 -.8 .5c-.3 .1 -.5 .2 -.8 .2c-.4 0 -.6 -.1 -.9 -.2c-.3 -.1 -.6 -.3 -.8 -.5c-.2 -.2 -.4 -.5 -.5 -.7c-.1 -.3 -.1 -.6 -.1 -.9c0 -.3 0 -.6 .1 -.9c.1 -.3 .3 -.5 .5 -.7c.2 -.2 .5 -.4 .8 -.5c.3 -.1 .5 -.2 .9 -.2c.3 0 .5 .1 .8 .2c.3 .1 .6 .3 .8 .5c.2 .2 .4 .4 .5 .7c.1 .3 .1 .6 .1 .9Z" class="g2_328"/>
<path d="M277.8 829.4c0 .3 0 .6 -.1 .9c-.1 .2 -.3 .5 -.5 .7c-.2 .2 -.5 .4 -.8 .5c-.3 .1 -.5 .2 -.8 .2c-.4 0 -.6 -.1 -.9 -.2c-.3 -.1 -.6 -.3 -.8 -.5c-.2 -.2 -.4 -.5 -.5 -.7c-.1 -.3 -.1 -.6 -.1 -.9c0 -.3 0 -.6 .1 -.9c.1 -.3 .3 -.5 .5 -.7c.2 -.2 .5 -.4 .8 -.5c.3 -.1 .5 -.2 .9 -.2c.3 0 .5 .1 .8 .2c.3 .1 .6 .3 .8 .5c.2 .2 .4 .4 .5 .7c.1 .3 .1 .6 .1 .9Z" class="g3_328"/>
<path d="M365.4 744.1l-3.4 6.4l-.4 -2.9l-2.8 -.5l6.6 -3Z" class="g2_328"/>
<path d="M365.4 744.1l-3.4 6.4l-.4 -2.9l-2.8 -.5l6.6 -3Zm-88 56.4l72.2 -53.6" class="g3_328"/>
<path d="M277.8 801.9c0 .3 0 .6 -.1 .9c-.1 .2 -.3 .5 -.5 .7c-.2 .2 -.5 .4 -.8 .5c-.3 .1 -.5 .2 -.8 .2c-.4 0 -.6 -.1 -.9 -.2c-.3 -.1 -.6 -.3 -.8 -.5c-.2 -.2 -.4 -.5 -.5 -.7c-.1 -.3 -.1 -.6 -.1 -.9c0 -.3 0 -.6 .1 -.9c.1 -.3 .3 -.5 .5 -.7c.2 -.2 .5 -.4 .8 -.5c.3 -.1 .5 -.2 .9 -.2c.3 0 .5 .1 .8 .2c.3 .1 .6 .3 .8 .5c.2 .2 .4 .4 .5 .7c.1 .3 .1 .6 .1 .9Z" class="g2_328"/>
<path d="M277.8 801.9c0 .3 0 .6 -.1 .9c-.1 .2 -.3 .5 -.5 .7c-.2 .2 -.5 .4 -.8 .5c-.3 .1 -.5 .2 -.8 .2c-.4 0 -.6 -.1 -.9 -.2c-.3 -.1 -.6 -.3 -.8 -.5c-.2 -.2 -.4 -.5 -.5 -.7c-.1 -.3 -.1 -.6 -.1 -.9c0 -.3 0 -.6 .1 -.9c.1 -.3 .3 -.5 .5 -.7c.2 -.2 .5 -.4 .8 -.5c.3 -.1 .5 -.2 .9 -.2c.3 0 .5 .1 .8 .2c.3 .1 .6 .3 .8 .5c.2 .2 .4 .4 .5 .7c.1 .3 .1 .6 .1 .9Z" class="g3_328"/>
<path d="M353.7 743.8l-4.2 6l.1 -2.9l-2.8 -.8l6.9 -2.3Z" class="g2_328"/>
<path d="M353.7 743.8l-4.2 6l.1 -2.9l-2.8 -.8l6.9 -2.3Zm-76.4 26.8L304 748.4" class="g3_328"/>
<path d="M277.8 772.1c0 .3 0 .6 -.1 .9c-.1 .3 -.3 .5 -.5 .7c-.2 .2 -.5 .4 -.8 .5c-.3 .1 -.5 .2 -.8 .2c-.4 0 -.6 -.1 -.9 -.2c-.3 -.1 -.6 -.3 -.8 -.5c-.2 -.2 -.4 -.4 -.5 -.7c-.1 -.3 -.1 -.6 -.1 -.9c0 -.3 0 -.6 .1 -.9c.1 -.3 .3 -.5 .5 -.7c.2 -.2 .5 -.4 .8 -.5c.3 -.1 .5 -.2 .9 -.2c.3 0 .5 .1 .8 .2c.3 .1 .6 .3 .8 .5c.2 .2 .4 .4 .5 .7c.1 .3 .1 .6 .1 .9Z" class="g2_328"/>
<path d="M277.8 772.1c0 .3 0 .6 -.1 .9c-.1 .3 -.3 .5 -.5 .7c-.2 .2 -.5 .4 -.8 .5c-.3 .1 -.5 .2 -.8 .2c-.4 0 -.6 -.1 -.9 -.2c-.3 -.1 -.6 -.3 -.8 -.5c-.2 -.2 -.4 -.4 -.5 -.7c-.1 -.3 -.1 -.6 -.1 -.9c0 -.3 0 -.6 .1 -.9c.1 -.3 .3 -.5 .5 -.7c.2 -.2 .5 -.4 .8 -.5c.3 -.1 .5 -.2 .9 -.2c.3 0 .5 .1 .8 .2c.3 .1 .6 .3 .8 .5c.2 .2 .4 .4 .5 .7c.1 .3 .1 .6 .1 .9Z" class="g3_328"/>
<path d="M308 745.1l-3.9 6.2l-.1 -2.9l-2.8 -.7l6.8 -2.6Z" class="g2_328"/>
<path d="M308 745.1l-3.9 6.2l-.1 -2.9l-2.8 -.7l6.8 -2.6ZM369.4 743l82.1 26.7" class="g3_328"/>
<path d="M369.5 742.3c0 .3 0 .6 -.2 .9c-.1 .3 -.2 .5 -.5 .7c-.2 .2 -.4 .4 -.7 .5c-.3 .1 -.6 .2 -.9 .2c-.3 0 -.6 -.1 -.9 -.2c-.2 -.1 -.5 -.3 -.7 -.5c-.2 -.2 -.4 -.4 -.5 -.7c-.1 -.3 -.2 -.6 -.2 -.9c0 -.3 .1 -.6 .2 -.9c.1 -.3 .3 -.5 .5 -.7c.2 -.2 .5 -.4 .7 -.5c.3 -.1 .6 -.2 .9 -.2c.3 0 .6 .1 .9 .2c.3 .1 .5 .3 .7 .5c.3 .2 .4 .4 .5 .7c.2 .3 .2 .6 .2 .9Z" class="g2_328"/>
<path d="M369.5 742.3c0 .3 0 .6 -.2 .9c-.1 .3 -.2 .5 -.5 .7c-.2 .2 -.4 .4 -.7 .5c-.3 .1 -.6 .2 -.9 .2c-.3 0 -.6 -.1 -.9 -.2c-.2 -.1 -.5 -.3 -.7 -.5c-.2 -.2 -.4 -.4 -.5 -.7c-.1 -.3 -.2 -.6 -.2 -.9c0 -.3 .1 -.6 .2 -.9c.1 -.3 .3 -.5 .5 -.7c.2 -.2 .5 -.4 .7 -.5c.3 -.1 .6 -.2 .9 -.2c.3 0 .6 .1 .9 .2c.3 .1 .5 .3 .7 .5c.3 .2 .4 .4 .5 .7c.2 .3 .2 .6 .2 .9Z" class="g3_328"/>
<path d="M456.4 771.3l-7.2 .1l2.3 -1.7l-.9 -2.7l5.8 4.3Z" class="g2_328"/>
<path d="M456.4 771.3l-7.2 .1l2.3 -1.7l-.9 -2.7l5.8 4.3ZM369.2 743.5l83.2 53.1" class="g3_328"/>
<path d="M369.5 742.3c0 .3 0 .6 -.2 .9c-.1 .3 -.2 .5 -.5 .7c-.2 .2 -.4 .4 -.7 .5c-.3 .1 -.6 .2 -.9 .2c-.3 0 -.6 -.1 -.9 -.2c-.2 -.1 -.5 -.3 -.7 -.5c-.2 -.2 -.4 -.4 -.5 -.7c-.1 -.3 -.2 -.6 -.2 -.9c0 -.3 .1 -.6 .2 -.9c.1 -.3 .3 -.5 .5 -.7c.2 -.2 .5 -.4 .7 -.5c.3 -.1 .6 -.2 .9 -.2c.3 0 .6 .1 .9 .2c.3 .1 .5 .3 .7 .5c.3 .2 .4 .4 .5 .7c.2 .3 .2 .6 .2 .9Z" class="g2_328"/>
<path d="M369.5 742.3c0 .3 0 .6 -.2 .9c-.1 .3 -.2 .5 -.5 .7c-.2 .2 -.4 .4 -.7 .5c-.3 .1 -.6 .2 -.9 .2c-.3 0 -.6 -.1 -.9 -.2c-.2 -.1 -.5 -.3 -.7 -.5c-.2 -.2 -.4 -.4 -.5 -.7c-.1 -.3 -.2 -.6 -.2 -.9c0 -.3 .1 -.6 .2 -.9c.1 -.3 .3 -.5 .5 -.7c.2 -.2 .5 -.4 .7 -.5c.3 -.1 .6 -.2 .9 -.2c.3 0 .6 .1 .9 .2c.3 .1 .5 .3 .7 .5c.3 .2 .4 .4 .5 .7c.2 .3 .2 .6 .2 .9Z" class="g3_328"/>
<path d="M456.7 799.4l-7 -1.8l2.7 -1l-.2 -2.9l4.5 5.7Z" class="g2_328"/>
<path d="M456.7 799.4l-7 -1.8l2.7 -1l-.2 -2.9l4.5 5.7ZM368.9 743.9l84.4 80.2" class="g3_328"/>
<path d="M369.5 742.3c0 .3 0 .6 -.2 .9c-.1 .3 -.2 .5 -.5 .7c-.2 .2 -.4 .4 -.7 .5c-.3 .1 -.6 .2 -.9 .2c-.3 0 -.6 -.1 -.9 -.2c-.2 -.1 -.5 -.3 -.7 -.5c-.2 -.2 -.4 -.4 -.5 -.7c-.1 -.3 -.2 -.6 -.2 -.9c0 -.3 .1 -.6 .2 -.9c.1 -.3 .3 -.5 .5 -.7c.2 -.2 .5 -.4 .7 -.5c.3 -.1 .6 -.2 .9 -.2c.3 0 .6 .1 .9 .2c.3 .1 .5 .3 .7 .5c.3 .2 .4 .4 .5 .7c.2 .3 .2 .6 .2 .9Z" class="g2_328"/>
<path d="M369.5 742.3c0 .3 0 .6 -.2 .9c-.1 .3 -.2 .5 -.5 .7c-.2 .2 -.4 .4 -.7 .5c-.3 .1 -.6 .2 -.9 .2c-.3 0 -.6 -.1 -.9 -.2c-.2 -.1 -.5 -.3 -.7 -.5c-.2 -.2 -.4 -.4 -.5 -.7c-.1 -.3 -.2 -.6 -.2 -.9c0 -.3 .1 -.6 .2 -.9c.1 -.3 .3 -.5 .5 -.7c.2 -.2 .5 -.4 .7 -.5c.3 -.1 .6 -.2 .9 -.2c.3 0 .6 .1 .9 .2c.3 .1 .5 .3 .7 .5c.3 .2 .4 .4 .5 .7c.2 .3 .2 .6 .2 .9Z" class="g3_328"/>
<path d="M457 827.6l-6.5 -3l2.8 -.5l.3 -2.9l3.4 6.4Z" class="g2_328"/>
<path d="M457 827.6l-6.5 -3l2.8 -.5l.3 -2.9l3.4 6.4Zm3.5 .2L545 747.6" class="g3_328"/>
<path d="M461.2 829.4c0 .3 -.1 .6 -.2 .9c-.1 .2 -.3 .5 -.5 .7c-.2 .2 -.5 .4 -.7 .5c-.3 .1 -.6 .2 -.9 .2c-.3 0 -.6 -.1 -.9 -.2c-.3 -.1 -.5 -.3 -.7 -.5c-.3 -.2 -.4 -.5 -.5 -.7c-.2 -.3 -.2 -.6 -.2 -.9c0 -.3 0 -.6 .2 -.9c.1 -.3 .2 -.5 .5 -.7c.2 -.2 .4 -.4 .7 -.5c.3 -.1 .6 -.2 .9 -.2c.3 0 .6 .1 .9 .2c.2 .1 .5 .3 .7 .5c.2 .2 .4 .4 .5 .7c.1 .3 .2 .6 .2 .9Z" class="g2_328"/>
<path d="M461.2 829.4c0 .3 -.1 .6 -.2 .9c-.1 .2 -.3 .5 -.5 .7c-.2 .2 -.5 .4 -.7 .5c-.3 .1 -.6 .2 -.9 .2c-.3 0 -.6 -.1 -.9 -.2c-.3 -.1 -.5 -.3 -.7 -.5c-.3 -.2 -.4 -.5 -.5 -.7c-.2 -.3 -.2 -.6 -.2 -.9c0 -.3 0 -.6 .2 -.9c.1 -.3 .2 -.5 .5 -.7c.2 -.2 .4 -.4 .7 -.5c.3 -.1 .6 -.2 .9 -.2c.3 0 .6 .1 .9 .2c.2 .1 .5 .3 .7 .5c.2 .2 .4 .4 .5 .7c.1 .3 .2 .6 .2 .9Z" class="g3_328"/>
<path d="M548.7 744.1l-3.4 6.4l-.3 -2.9l-2.9 -.5l6.6 -3Z" class="g2_328"/>
<path d="M548.7 744.1l-3.4 6.4l-.3 -2.9l-2.9 -.5l6.6 -3Zm-88 55.3l72.2 -52.5" class="g3_328"/>
<path d="M461.2 800.7c0 .3 -.1 .6 -.2 .9c-.1 .3 -.3 .5 -.5 .8c-.2 .2 -.5 .3 -.7 .5c-.3 .1 -.6 .1 -.9 .1c-.3 0 -.6 0 -.9 -.1c-.3 -.2 -.5 -.3 -.7 -.5c-.3 -.3 -.4 -.5 -.5 -.8c-.2 -.3 -.2 -.6 -.2 -.9c0 -.3 0 -.6 .2 -.8c.1 -.3 .2 -.6 .5 -.8c.2 -.2 .4 -.4 .7 -.5c.3 -.1 .6 -.1 .9 -.1c.3 0 .6 0 .9 .1c.2 .1 .5 .3 .7 .5c.2 .2 .4 .5 .5 .8c.1 .2 .2 .5 .2 .8Z" class="g2_328"/>
<path d="M461.2 800.7c0 .3 -.1 .6 -.2 .9c-.1 .3 -.3 .5 -.5 .8c-.2 .2 -.5 .3 -.7 .5c-.3 .1 -.6 .1 -.9 .1c-.3 0 -.6 0 -.9 -.1c-.3 -.2 -.5 -.3 -.7 -.5c-.3 -.3 -.4 -.5 -.5 -.8c-.2 -.3 -.2 -.6 -.2 -.9c0 -.3 0 -.6 .2 -.8c.1 -.3 .2 -.6 .5 -.8c.2 -.2 .4 -.4 .7 -.5c.3 -.1 .6 -.1 .9 -.1c.3 0 .6 0 .9 .1c.2 .1 .5 .3 .7 .5c.2 .2 .4 .5 .5 .8c.1 .2 .2 .5 .2 .8Z" class="g3_328"/>
<path d="M537 743.8l-4.2 5.9l.1 -2.8l-2.8 -.9l6.9 -2.2Z" class="g2_328"/>
<path d="M537 743.8l-4.2 5.9l.1 -2.8l-2.8 -.9l6.9 -2.2Zm-76 27.4l59.6 -25.8" class="g3_328"/>
<path d="M461.2 772.1c0 .3 -.1 .6 -.2 .9c-.1 .3 -.3 .5 -.5 .7c-.2 .2 -.5 .4 -.7 .5c-.3 .1 -.6 .2 -.9 .2c-.3 0 -.6 -.1 -.9 -.2c-.3 -.1 -.5 -.3 -.7 -.5c-.3 -.2 -.4 -.4 -.5 -.7c-.2 -.3 -.2 -.6 -.2 -.9c0 -.3 0 -.6 .2 -.9c.1 -.3 .2 -.5 .5 -.7c.2 -.2 .4 -.4 .7 -.5c.3 -.1 .6 -.2 .9 -.2c.3 0 .6 .1 .9 .2c.2 .1 .5 .3 .7 .5c.2 .2 .4 .4 .5 .7c.1 .3 .2 .6 .2 .9Z" class="g2_328"/>
<path d="M461.2 772.1c0 .3 -.1 .6 -.2 .9c-.1 .3 -.3 .5 -.5 .7c-.2 .2 -.5 .4 -.7 .5c-.3 .1 -.6 .2 -.9 .2c-.3 0 -.6 -.1 -.9 -.2c-.3 -.1 -.5 -.3 -.7 -.5c-.3 -.2 -.4 -.4 -.5 -.7c-.2 -.3 -.2 -.6 -.2 -.9c0 -.3 0 -.6 .2 -.9c.1 -.3 .2 -.5 .5 -.7c.2 -.2 .4 -.4 .7 -.5c.3 -.1 .6 -.2 .9 -.2c.3 0 .6 .1 .9 .2c.2 .1 .5 .3 .7 .5c.2 .2 .4 .4 .5 .7c.1 .3 .2 .6 .2 .9Z" class="g3_328"/>
<path d="M525.3 743.3l-5.4 4.9l.7 -2.8L518.1 744l7.2 -.7Z" class="g2_328"/>
<path d="M525.3 743.3l-5.4 4.9l.7 -2.8L518.1 744l7.2 -.7Z" class="g3_328"/>
<path d="M275 852.3v-3.4h1.1v3.4M275 845.4V842h1.1v3.4M275 838.6v-3.5h1.1v3.5M275 831.7v-3.5h1.1v3.5M275 824.8v-3.4h1.1v3.4M275 817.9v-3.4h1.1v3.4M275 811.1v-3.5h1.1v3.5M275 804.2v-3.5h1.1v3.5M275 797.3v-3.4h1.1v3.4M275 790.4V787h1.1v3.4M275 783.6v-3.5h1.1v3.5M275 776.7v-3.5h1.1v3.5M275 769.8v-3.4h1.1v3.4M275 762.9v-3.4h1.1v3.4M275 756.1v-3.5h1.1v3.5M275 749.2v-3.5h1.1v3.5Z" class="g2_328"/>
<path d="M458.3 852.3v-3.4h1.1l.1 3.4m-1.2 -6.9V842h1.1v3.4m-1.1 -6.8v-3.5h1.1v3.5m-1.2 -6.9v-3.5h1.2v3.5m-1.2 -6.9v-3.4h1.2v3.4m-1.2 -6.9v-3.4h1.1l.1 3.4m-1.2 -6.8v-3.5h1.1v3.5m-1.1 -6.9v-3.5h1.1v3.5m-1.2 -6.9v-3.4h1.2v3.4m-1.2 -6.9V787h1.2v3.4m-1.2 -6.8v-3.5h1.1l.1 3.5m-1.2 -6.9v-3.5h1.1v3.5m-1.1 -6.9v-3.4h1.1v3.4M458 762.9v-3.4h1.2v3.4M458 756.1v-3.5h1.2v3.5M458 749.2v-3.5h1.1l.1 3.5Z" class="g2_328"/>
<path d="M281.1 852.3H453.3" class="g1_328"/>
<path d="M276.8 852.3l5.8 -1.9l-1.5 1.9l1.5 1.9l-5.8 -1.9Z" class="g2_328"/>
<path d="M276.8 852.3l5.8 -1.9l-1.5 1.9l1.5 1.9l-5.8 -1.9Z" class="g1_328"/>
<path d="M457.6 852.3l-5.7 1.9l1.4 -1.9l-1.4 -1.9l5.7 1.9Z" class="g2_328"/>
<path d="M457.6 852.3l-5.7 1.9l1.4 -1.9l-1.4 -1.9l5.7 1.9Z" class="g1_328"/>
<path d="M304.2 843.1H432.5v17.2H304.2V843.1Z" class="g0_328"/>
<path d="M183.3 875.2v-3.4h1.2v3.4m-1.2 -6.9v-3.4h1.2v3.4m-1.2 -6.8V858h1.2v3.5m-1.2 -6.9v-3.4h1.2v3.4m-1.2 -6.9v-3.4h1.2v3.4m-1.2 -6.9v-3.4h1.2v3.4M183.3 834v-3.5h1.2V834m-1.2 -6.9v-3.4h1.2v3.4m-1.2 -6.9v-3.4h1.2v3.4m-1.2 -6.9v-3.4h1.2v3.4m-1.2 -6.8V803h1.2v3.5m-1.2 -6.9v-3.4h1.2v3.4m-1.2 -6.9v-3.4h1.2v3.4m-1.2 -6.9v-3.4h1.2v3.4M183.3 779v-3.5h1.2V779m-1.2 -6.9v-3.4h1.2v3.4m-1.2 -6.9v-3.4h1.2v3.4m-1.2 -6.9v-3.4h1.2v3.4m-1.2 -6.8V748h1.2v3.5m-1.2 -6.9v-3.4h1.2v3.4Z" class="g2_328"/>
<path d="M550 875.2v-3.4h1.1v3.4M550 868.3v-3.4h1.1v3.4M550 861.5V858h1.1v3.5M550 854.6v-3.4h1.1v3.4M550 847.7v-3.4h1.1v3.4M550 840.8v-3.4h1.1v3.4M550 834v-3.5h1.1V834M550 827.1v-3.4h1.1v3.4M550 820.2v-3.4h1.1v3.4M550 813.3v-3.4h1.1v3.4M550 806.5V803h1.1v3.5M550 799.6v-3.4h1.1v3.4M550 792.7v-3.4h1.1v3.4M550 785.8v-3.4h1.1v3.4M550 779v-3.5h1.1V779M550 772.1v-3.4h1.1v3.4M550 765.2v-3.4h1.1v3.4M550 758.3v-3.4h1.1v3.4M550 751.5V748h1.1v3.5M550 744.6v-1.1h1.1v1.1Z" class="g2_328"/>
<path d="M189.5 875.2H545" class="g1_328"/>
<path d="M185.2 875.2l5.7 -1.9l-1.4 1.9l1.4 1.9l-5.7 -1.9Z" class="g2_328"/>
<path d="M185.2 875.2l5.7 -1.9l-1.4 1.9l1.4 1.9l-5.7 -1.9Z" class="g1_328"/>
<path d="M549.3 875.2l-5.8 1.9l1.5 -1.9l-1.5 -1.9l5.8 1.9Z" class="g2_328"/>
<path d="M549.3 875.2l-5.8 1.9l1.5 -1.9l-1.5 -1.9l5.8 1.9Z" class="g1_328"/>
<path d="M245.8 866.1h244v17.1h-244V866.1Z" class="g0_328"/>
</g>
</svg>