<?xml version="1.0" encoding="UTF-8" standalone="no"?>
<!DOCTYPE svg PUBLIC "-//W3C//DTD SVG 1.1//EN"
"http://www.w3.org/Graphics/SVG/1.1/DTD/svg11.dtd">
<svg viewBox="0 0 714 1017" version="1.1" xmlns="http://www.w3.org/2000/svg" xmlns:xlink="http://www.w3.org/1999/xlink">
<defs>
<clipPath id="c0_369"><path d="M122.6 415.3V265.7h448V415.3Z"/></clipPath>
<clipPath id="c1_369"><path d="M122.6 415.3V265.6H571.8V415.3Z"/></clipPath>
<style type="text/css"><![CDATA[
.g0_369{
fill: #FFF;
}
.g1_369{
fill: none;
stroke: #000;
stroke-width: 2.291;
stroke-miterlimit: 10;
}
.g2_369{
fill: #000;
}
.g3_369{
fill: none;
stroke: #000;
stroke-width: 1.145;
stroke-miterlimit: 10;
}
]]></style>
</defs>
<path d="M0 1017.7H717.2V-3.7H0V1017.7Z" class="g0_369"/>
<g clip-path="url(#c1_369)">
<path clip-path="url(#c0_369)" d="M122.6 265.7h448V415.8h-448V265.7Z" class="g0_369"/>
<path d="M161 277.8H291.6" class="g1_369"/>
<path d="M161 277.8c0 .4 -.1 .9 -.3 1.3c-.1 .4 -.4 .8 -.7 1.1c-.3 .3 -.7 .6 -1.1 .7c-.5 .2 -.9 .3 -1.3 .3c-.5 0 -.9 -.1 -1.4 -.3c-.4 -.1 -.8 -.4 -1.1 -.7c-.3 -.3 -.5 -.7 -.7 -1.1c-.2 -.4 -.3 -.9 -.3 -1.3c0 -.5 .1 -.9 .3 -1.4c.2 -.4 .4 -.7 .7 -1.1c.3 -.3 .7 -.5 1.1 -.7c.5 -.2 .9 -.3 1.4 -.3c.4 0 .8 .1 1.3 .3c.4 .2 .8 .4 1.1 .7c.3 .4 .6 .7 .7 1.1c.2 .5 .3 .9 .3 1.4Z" class="g2_369"/>
<path d="M161 277.8c0 .4 -.1 .9 -.3 1.3c-.1 .4 -.4 .8 -.7 1.1c-.3 .3 -.7 .6 -1.1 .7c-.5 .2 -.9 .3 -1.3 .3c-.5 0 -.9 -.1 -1.4 -.3c-.4 -.1 -.8 -.4 -1.1 -.7c-.3 -.3 -.5 -.7 -.7 -1.1c-.2 -.4 -.3 -.9 -.3 -1.3c0 -.5 .1 -.9 .3 -1.4c.2 -.4 .4 -.7 .7 -1.1c.3 -.3 .7 -.5 1.1 -.7c.5 -.2 .9 -.3 1.4 -.3c.4 0 .8 .1 1.3 .3c.4 .2 .8 .4 1.1 .7c.3 .4 .6 .7 .7 1.1c.2 .5 .3 .9 .3 1.4Z" class="g1_369"/>
<path d="M298.5 277.8c0 .4 -.1 .9 -.3 1.3c-.1 .4 -.4 .8 -.7 1.1c-.3 .3 -.7 .6 -1.1 .7c-.5 .2 -.9 .3 -1.3 .3c-.5 0 -.9 -.1 -1.4 -.3c-.4 -.1 -.8 -.4 -1.1 -.7c-.3 -.3 -.5 -.7 -.7 -1.1c-.2 -.4 -.3 -.9 -.3 -1.3c0 -.5 .1 -.9 .3 -1.4c.2 -.4 .4 -.7 .7 -1.1c.3 -.3 .7 -.5 1.1 -.7c.5 -.2 .9 -.3 1.4 -.3c.4 0 .8 .1 1.3 .3c.4 .2 .8 .4 1.1 .7c.3 .4 .6 .7 .7 1.1c.2 .5 .3 .9 .3 1.4Z" class="g2_369"/>
<path d="M298.5 277.8c0 .4 -.1 .9 -.3 1.3c-.1 .4 -.4 .8 -.7 1.1c-.3 .3 -.7 .6 -1.1 .7c-.5 .2 -.9 .3 -1.3 .3c-.5 0 -.9 -.1 -1.4 -.3c-.4 -.1 -.8 -.4 -1.1 -.7c-.3 -.3 -.5 -.7 -.7 -1.1c-.2 -.4 -.3 -.9 -.3 -1.3c0 -.5 .1 -.9 .3 -1.4c.2 -.4 .4 -.7 .7 -1.1c.3 -.3 .7 -.5 1.1 -.7c.5 -.2 .9 -.3 1.4 -.3c.4 0 .8 .1 1.3 .3c.4 .2 .8 .4 1.1 .7c.3 .4 .6 .7 .7 1.1c.2 .5 .3 .9 .3 1.4Zm-45.8 45.8h84.8" class="g1_369"/>
<path d="M252.7 323.6c0 .4 -.1 .9 -.3 1.3c-.2 .4 -.4 .8 -.7 1.1c-.4 .3 -.7 .6 -1.2 .8c-.4 .1 -.8 .2 -1.3 .2c-.4 0 -.9 -.1 -1.3 -.2c-.4 -.2 -.8 -.5 -1.1 -.8c-.3 -.3 -.6 -.7 -.8 -1.1c-.1 -.4 -.2 -.9 -.2 -1.3c0 -.5 .1 -.9 .2 -1.3c.2 -.4 .5 -.8 .8 -1.1c.3 -.4 .7 -.6 1.1 -.8c.4 -.2 .9 -.2 1.3 -.2c.5 0 .9 0 1.3 .2c.5 .2 .8 .4 1.2 .8c.3 .3 .5 .7 .7 1.1c.2 .4 .3 .8 .3 1.3Z" class="g2_369"/>
<path d="M252.7 323.6c0 .4 -.1 .9 -.3 1.3c-.2 .4 -.4 .8 -.7 1.1c-.4 .3 -.7 .6 -1.2 .8c-.4 .1 -.8 .2 -1.3 .2c-.4 0 -.9 -.1 -1.3 -.2c-.4 -.2 -.8 -.5 -1.1 -.8c-.3 -.3 -.6 -.7 -.8 -1.1c-.1 -.4 -.2 -.9 -.2 -1.3c0 -.5 .1 -.9 .2 -1.3c.2 -.4 .5 -.8 .8 -1.1c.3 -.4 .7 -.6 1.1 -.8c.4 -.2 .9 -.2 1.3 -.2c.5 0 .9 0 1.3 .2c.5 .2 .8 .4 1.2 .8c.3 .3 .5 .7 .7 1.1c.2 .4 .3 .8 .3 1.3Z" class="g1_369"/>
<path d="M344.3 323.6c0 .4 -.1 .9 -.2 1.3c-.2 .4 -.5 .8 -.8 1.1c-.3 .3 -.7 .6 -1.1 .8c-.4 .1 -.9 .2 -1.3 .2c-.5 0 -.9 -.1 -1.3 -.2c-.4 -.2 -.8 -.5 -1.1 -.8c-.4 -.3 -.6 -.7 -.8 -1.1c-.2 -.4 -.2 -.9 -.2 -1.3c0 -.5 0 -.9 .2 -1.3c.2 -.4 .4 -.8 .8 -1.1c.3 -.4 .7 -.6 1.1 -.8c.4 -.2 .8 -.2 1.3 -.2c.4 0 .9 0 1.3 .2c.4 .2 .8 .4 1.1 .8c.3 .3 .6 .7 .8 1.1c.1 .4 .2 .8 .2 1.3Z" class="g2_369"/>
<path d="M344.3 323.6c0 .4 -.1 .9 -.2 1.3c-.2 .4 -.5 .8 -.8 1.1c-.3 .3 -.7 .6 -1.1 .8c-.4 .1 -.9 .2 -1.3 .2c-.5 0 -.9 -.1 -1.3 -.2c-.4 -.2 -.8 -.5 -1.1 -.8c-.4 -.3 -.6 -.7 -.8 -1.1c-.2 -.4 -.2 -.9 -.2 -1.3c0 -.5 0 -.9 .2 -1.3c.2 -.4 .4 -.8 .8 -1.1c.3 -.4 .7 -.6 1.1 -.8c.4 -.2 .8 -.2 1.3 -.2c.4 0 .9 0 1.3 .2c.4 .2 .8 .4 1.1 .8c.3 .3 .6 .7 .8 1.1c.1 .4 .2 .8 .2 1.3Zm-11.4 45.8h84.8" class="g1_369"/>
<path d="M332.9 369.4c0 .5 -.1 .9 -.3 1.3c-.2 .5 -.4 .8 -.7 1.2c-.4 .3 -.7 .5 -1.2 .7c-.4 .2 -.8 .3 -1.3 .3c-.4 0 -.9 -.1 -1.3 -.3c-.4 -.2 -.8 -.4 -1.1 -.7c-.3 -.4 -.6 -.7 -.7 -1.2c-.2 -.4 -.3 -.8 -.3 -1.3c0 -.4 .1 -.9 .3 -1.3c.1 -.4 .4 -.8 .7 -1.1c.3 -.3 .7 -.6 1.1 -.7c.4 -.2 .9 -.3 1.3 -.3c.5 0 .9 .1 1.3 .3c.5 .1 .8 .4 1.2 .7c.3 .3 .5 .7 .7 1.1c.2 .4 .3 .9 .3 1.3Z" class="g2_369"/>
<path d="M332.9 369.4c0 .5 -.1 .9 -.3 1.3c-.2 .5 -.4 .8 -.7 1.2c-.4 .3 -.7 .5 -1.2 .7c-.4 .2 -.8 .3 -1.3 .3c-.4 0 -.9 -.1 -1.3 -.3c-.4 -.2 -.8 -.4 -1.1 -.7c-.3 -.4 -.6 -.7 -.7 -1.2c-.2 -.4 -.3 -.8 -.3 -1.3c0 -.4 .1 -.9 .3 -1.3c.1 -.4 .4 -.8 .7 -1.1c.3 -.3 .7 -.6 1.1 -.7c.4 -.2 .9 -.3 1.3 -.3c.5 0 .9 .1 1.3 .3c.5 .1 .8 .4 1.2 .7c.3 .3 .5 .7 .7 1.1c.2 .4 .3 .9 .3 1.3Z" class="g1_369"/>
<path d="M424.5 369.4c0 .5 -.1 .9 -.2 1.3c-.2 .5 -.5 .8 -.8 1.2c-.3 .3 -.7 .5 -1.1 .7c-.4 .2 -.8 .3 -1.3 .3c-.5 0 -.9 -.1 -1.3 -.3c-.4 -.2 -.8 -.4 -1.1 -.7c-.4 -.4 -.6 -.7 -.8 -1.2c-.2 -.4 -.2 -.8 -.2 -1.3c0 -.4 0 -.9 .2 -1.3c.2 -.4 .4 -.8 .8 -1.1c.3 -.3 .7 -.6 1.1 -.7c.4 -.2 .8 -.3 1.3 -.3c.5 0 .9 .1 1.3 .3c.4 .1 .8 .4 1.1 .7c.3 .3 .6 .7 .8 1.1c.1 .4 .2 .9 .2 1.3Z" class="g2_369"/>
<path d="M424.5 369.4c0 .5 -.1 .9 -.2 1.3c-.2 .5 -.5 .8 -.8 1.2c-.3 .3 -.7 .5 -1.1 .7c-.4 .2 -.8 .3 -1.3 .3c-.5 0 -.9 -.1 -1.3 -.3c-.4 -.2 -.8 -.4 -1.1 -.7c-.4 -.4 -.6 -.7 -.8 -1.2c-.2 -.4 -.2 -.8 -.2 -1.3c0 -.4 0 -.9 .2 -1.3c.2 -.4 .4 -.8 .8 -1.1c.3 -.3 .7 -.6 1.1 -.7c.4 -.2 .8 -.3 1.3 -.3c.5 0 .9 .1 1.3 .3c.4 .1 .8 .4 1.1 .7c.3 .3 .6 .7 .8 1.1c.1 .4 .2 .9 .2 1.3Z" class="g1_369"/>
<path d="M317.4 392.3v-3.4h1.1v3.4m-1.1 -6.8V382h1.1v3.5m-1.1 -6.9v-3.4h1.1v3.4m-1.1 -6.9v-3.4h1.1v3.4m-1.1 -6.9v-3.4h1.1v3.4M317.4 358v-3.5h1.1V358m-1.1 -6.9v-3.4h1.1v3.4m-1.1 -6.9v-3.4h1.1v3.4m-1.1 -6.9v-3.4h1.1v3.4m-1.1 -6.8V327h1.1v3.5m-1.1 -6.9v-3.4h1.1v3.4m-1.1 -6.9v-3.4h1.1v3.4m-1.1 -6.9v-3.4h1.1v3.4M317.4 303v-3.5h1.1V303m-1.1 -6.9v-3.4h1.1v3.4m-1.1 -6.9v-3.4h1.1v3.4m-1.1 -6.9v-3.4h1.1v3.4m-1.1 -6.8V272h1.1v3.5m-1.1 -6.9v-2.3h1.1v2.3Z" class="g2_369"/>
<path d="M146.1 277.8c0 .7 -.1 1.5 -.2 2.2c-.2 .7 -.4 1.5 -.7 2.1c-.3 .7 -.6 1.4 -1 2c-.5 .7 -.9 1.2 -1.5 1.8c-.5 .5 -1.1 1 -1.7 1.4c-.6 .4 -1.3 .8 -2 1c-.7 .3 -1.4 .6 -2.1 .7c-.8 .1 -1.5 .2 -2.3 .2c-.7 0 -1.5 -.1 -2.2 -.2c-.7 -.1 -1.5 -.4 -2.1 -.7c-.7 -.2 -1.4 -.6 -2 -1c-.7 -.4 -1.2 -.9 -1.8 -1.4c-.5 -.6 -1 -1.1 -1.4 -1.8c-.4 -.6 -.8 -1.3 -1 -2c-.3 -.6 -.6 -1.4 -.7 -2.1c-.1 -.7 -.2 -1.5 -.2 -2.2c0 -.8 .1 -1.5 .2 -2.3c.1 -.7 .4 -1.4 .7 -2.1c.2 -.7 .6 -1.4 1 -2c.4 -.6 .9 -1.2 1.4 -1.7c.6 -.6 1.1 -1 1.8 -1.5c.6 -.4 1.3 -.7 2 -1c.6 -.3 1.4 -.5 2.1 -.7c.7 -.1 1.5 -.2 2.2 -.2c.8 0 1.5 .1 2.3 .2c.7 .2 1.4 .4 2.1 .7c.7 .3 1.4 .6 2 1c.6 .5 1.2 .9 1.7 1.5c.6 .5 1 1.1 1.5 1.7c.4 .6 .7 1.3 1 2c.3 .7 .5 1.4 .7 2.1c.1 .8 .2 1.5 .2 2.3Z" class="g0_369"/>
<path d="M146.1 277.8c0 .7 -.1 1.5 -.2 2.2c-.2 .7 -.4 1.5 -.7 2.1c-.3 .7 -.6 1.4 -1 2c-.5 .7 -.9 1.2 -1.5 1.8c-.5 .5 -1.1 1 -1.7 1.4c-.6 .4 -1.3 .8 -2 1c-.7 .3 -1.4 .6 -2.1 .7c-.8 .1 -1.5 .2 -2.3 .2c-.7 0 -1.5 -.1 -2.2 -.2c-.7 -.1 -1.5 -.4 -2.1 -.7c-.7 -.2 -1.4 -.6 -2 -1c-.7 -.4 -1.2 -.9 -1.8 -1.4c-.5 -.6 -1 -1.1 -1.4 -1.8c-.4 -.6 -.8 -1.3 -1 -2c-.3 -.6 -.6 -1.4 -.7 -2.1c-.1 -.7 -.2 -1.5 -.2 -2.2c0 -.8 .1 -1.5 .2 -2.3c.1 -.7 .4 -1.4 .7 -2.1c.2 -.7 .6 -1.4 1 -2c.4 -.6 .9 -1.2 1.4 -1.7c.6 -.6 1.1 -1 1.8 -1.5c.6 -.4 1.3 -.7 2 -1c.6 -.3 1.4 -.5 2.1 -.7c.7 -.1 1.5 -.2 2.2 -.2c.8 0 1.5 .1 2.3 .2c.7 .2 1.4 .4 2.1 .7c.7 .3 1.4 .6 2 1c.6 .5 1.2 .9 1.7 1.5c.6 .5 1 1.1 1.5 1.7c.4 .6 .7 1.3 1 2c.3 .7 .5 1.4 .7 2.1c.1 .8 .2 1.5 .2 2.3Z" class="g3_369"/>
<path d="M237.8 323.6c0 .7 -.1 1.5 -.3 2.2c-.1 .8 -.3 1.5 -.6 2.2c-.3 .7 -.6 1.3 -1.1 2c-.4 .6 -.9 1.2 -1.4 1.7c-.5 .5 -1.1 1 -1.7 1.4c-.7 .4 -1.3 .8 -2 1.1c-.7 .3 -1.4 .5 -2.2 .6c-.7 .2 -1.4 .3 -2.2 .3c-.7 0 -1.5 -.1 -2.2 -.3c-.8 -.1 -1.5 -.3 -2.2 -.6c-.7 -.3 -1.3 -.7 -2 -1.1c-.6 -.4 -1.2 -.9 -1.7 -1.4c-.5 -.5 -1 -1.1 -1.4 -1.7c-.4 -.7 -.8 -1.3 -1.1 -2c-.3 -.7 -.5 -1.4 -.6 -2.2c-.2 -.7 -.3 -1.5 -.3 -2.2c0 -.8 .1 -1.5 .3 -2.2c.1 -.8 .3 -1.5 .6 -2.2c.3 -.7 .7 -1.3 1.1 -2c.4 -.6 .9 -1.2 1.4 -1.7c.5 -.5 1.1 -1 1.7 -1.4c.7 -.5 1.3 -.8 2 -1.1c.7 -.3 1.4 -.5 2.2 -.6c.7 -.2 1.5 -.3 2.2 -.3c.8 0 1.5 .1 2.2 .3c.8 .1 1.5 .3 2.2 .6c.7 .3 1.3 .6 2 1.1c.6 .4 1.2 .9 1.7 1.4c.5 .5 1 1.1 1.4 1.7c.5 .7 .8 1.3 1.1 2c.3 .7 .5 1.4 .6 2.2c.2 .7 .3 1.4 .3 2.2Z" class="g0_369"/>
<path d="M237.8 323.6c0 .7 -.1 1.5 -.3 2.2c-.1 .8 -.3 1.5 -.6 2.2c-.3 .7 -.6 1.3 -1.1 2c-.4 .6 -.9 1.2 -1.4 1.7c-.5 .5 -1.1 1 -1.7 1.4c-.7 .4 -1.3 .8 -2 1.1c-.7 .3 -1.4 .5 -2.2 .6c-.7 .2 -1.4 .3 -2.2 .3c-.7 0 -1.5 -.1 -2.2 -.3c-.8 -.1 -1.5 -.3 -2.2 -.6c-.7 -.3 -1.3 -.7 -2 -1.1c-.6 -.4 -1.2 -.9 -1.7 -1.4c-.5 -.5 -1 -1.1 -1.4 -1.7c-.4 -.7 -.8 -1.3 -1.1 -2c-.3 -.7 -.5 -1.4 -.6 -2.2c-.2 -.7 -.3 -1.5 -.3 -2.2c0 -.8 .1 -1.5 .3 -2.2c.1 -.8 .3 -1.5 .6 -2.2c.3 -.7 .7 -1.3 1.1 -2c.4 -.6 .9 -1.2 1.4 -1.7c.5 -.5 1.1 -1 1.7 -1.4c.7 -.5 1.3 -.8 2 -1.1c.7 -.3 1.4 -.5 2.2 -.6c.7 -.2 1.5 -.3 2.2 -.3c.8 0 1.5 .1 2.2 .3c.8 .1 1.5 .3 2.2 .6c.7 .3 1.3 .6 2 1.1c.6 .4 1.2 .9 1.7 1.4c.5 .5 1 1.1 1.4 1.7c.5 .7 .8 1.3 1.1 2c.3 .7 .5 1.4 .6 2.2c.2 .7 .3 1.4 .3 2.2Z" class="g3_369"/>
<path d="M306.5 369.4c0 .8 -.1 1.5 -.2 2.3c-.2 .7 -.4 1.4 -.7 2.1c-.2 .7 -.6 1.4 -1 2c-.4 .6 -.9 1.2 -1.4 1.7c-.6 .6 -1.2 1 -1.8 1.5c-.6 .4 -1.3 .7 -2 1c-.7 .3 -1.4 .5 -2.1 .7c-.7 .1 -1.5 .2 -2.2 .2c-.8 0 -1.5 -.1 -2.3 -.2c-.7 -.2 -1.4 -.4 -2.1 -.7c-.7 -.3 -1.4 -.6 -2 -1c-.6 -.5 -1.2 -.9 -1.7 -1.5c-.6 -.5 -1.1 -1.1 -1.5 -1.7c-.4 -.6 -.7 -1.3 -1 -2c-.3 -.7 -.5 -1.4 -.7 -2.1c-.1 -.8 -.2 -1.5 -.2 -2.3c0 -.7 .1 -1.5 .2 -2.2c.2 -.7 .4 -1.5 .7 -2.2c.3 -.7 .6 -1.3 1 -1.9c.4 -.7 .9 -1.2 1.5 -1.8c.5 -.5 1.1 -1 1.7 -1.4c.6 -.4 1.3 -.8 2 -1.1c.7 -.2 1.4 -.5 2.1 -.6c.8 -.2 1.5 -.2 2.3 -.2c.7 0 1.5 0 2.2 .2c.7 .1 1.4 .4 2.1 .6c.7 .3 1.4 .7 2 1.1c.6 .4 1.2 .9 1.8 1.4c.5 .6 1 1.1 1.4 1.8c.4 .6 .8 1.2 1 1.9c.3 .7 .5 1.5 .7 2.2c.1 .7 .2 1.5 .2 2.2Z" class="g0_369"/>
<path d="M306.5 369.4c0 .8 -.1 1.5 -.2 2.3c-.2 .7 -.4 1.4 -.7 2.1c-.2 .7 -.6 1.4 -1 2c-.4 .6 -.9 1.2 -1.4 1.7c-.6 .6 -1.2 1 -1.8 1.5c-.6 .4 -1.3 .7 -2 1c-.7 .3 -1.4 .5 -2.1 .7c-.7 .1 -1.5 .2 -2.2 .2c-.8 0 -1.5 -.1 -2.3 -.2c-.7 -.2 -1.4 -.4 -2.1 -.7c-.7 -.3 -1.4 -.6 -2 -1c-.6 -.5 -1.2 -.9 -1.7 -1.5c-.6 -.5 -1.1 -1.1 -1.5 -1.7c-.4 -.6 -.7 -1.3 -1 -2c-.3 -.7 -.5 -1.4 -.7 -2.1c-.1 -.8 -.2 -1.5 -.2 -2.3c0 -.7 .1 -1.5 .2 -2.2c.2 -.7 .4 -1.5 .7 -2.2c.3 -.7 .6 -1.3 1 -1.9c.4 -.7 .9 -1.2 1.5 -1.8c.5 -.5 1.1 -1 1.7 -1.4c.6 -.4 1.3 -.8 2 -1.1c.7 -.2 1.4 -.5 2.1 -.6c.8 -.2 1.5 -.2 2.3 -.2c.7 0 1.5 0 2.2 .2c.7 .1 1.4 .4 2.1 .6c.7 .3 1.4 .7 2 1.1c.6 .4 1.2 .9 1.8 1.4c.5 .6 1 1.1 1.4 1.8c.4 .6 .8 1.2 1 1.9c.3 .7 .5 1.5 .7 2.2c.1 .7 .2 1.5 .2 2.2Z" class="g3_369"/>
<path d="M441.1 392.3v-3.4h1.2v3.4m-1.2 -6.8V382h1.1l.1 3.5m-1.2 -6.9v-3.4h1.1v3.4m-1.1 -6.9l-.1 -3.4h1.2v3.4M441 364.8v-3.4h1.2v3.4M441 358v-3.5h1.1V358M441 351.1l-.1 -3.4h1.2v3.4m-1.2 -6.9v-3.4h1.2v3.4m-1.2 -6.9v-3.4H442v3.4m-1.1 -6.8V327H442v3.5m-1.2 -6.9v-3.4H442v3.4m-1.2 -6.9v-3.4h1.1l.1 3.4m-1.2 -6.9v-3.4h1.1v3.4M440.7 303v-3.5h1.2V303m-1.2 -6.9v-3.4h1.1l.1 3.4m-1.2 -6.9v-3.4h1.1v3.4m-1.2 -6.9v-3.4h1.2v3.4m-1.2 -6.8V272h1.1l.1 3.5m-1.2 -6.9v-2.3h1.1v2.3Z" class="g2_369"/>
<path d="M378.7 277.8h33.2" class="g1_369"/>
<path d="M378.7 277.8c0 .4 -.1 .9 -.3 1.3c-.1 .4 -.4 .8 -.7 1.1c-.3 .3 -.7 .6 -1.1 .7c-.4 .2 -.9 .3 -1.3 .3c-.5 0 -.9 -.1 -1.4 -.3c-.4 -.1 -.7 -.4 -1.1 -.7c-.3 -.3 -.5 -.7 -.7 -1.1c-.2 -.4 -.3 -.9 -.3 -1.3c0 -.5 .1 -.9 .3 -1.4c.2 -.4 .4 -.7 .7 -1.1c.4 -.3 .7 -.5 1.1 -.7c.5 -.2 .9 -.3 1.4 -.3c.4 0 .9 .1 1.3 .3c.4 .2 .8 .4 1.1 .7c.3 .4 .6 .7 .7 1.1c.2 .5 .3 .9 .3 1.4Z" class="g2_369"/>
<path d="M378.7 277.8c0 .4 -.1 .9 -.3 1.3c-.1 .4 -.4 .8 -.7 1.1c-.3 .3 -.7 .6 -1.1 .7c-.4 .2 -.9 .3 -1.3 .3c-.5 0 -.9 -.1 -1.4 -.3c-.4 -.1 -.7 -.4 -1.1 -.7c-.3 -.3 -.5 -.7 -.7 -1.1c-.2 -.4 -.3 -.9 -.3 -1.3c0 -.5 .1 -.9 .3 -1.4c.2 -.4 .4 -.7 .7 -1.1c.4 -.3 .7 -.5 1.1 -.7c.5 -.2 .9 -.3 1.4 -.3c.4 0 .9 .1 1.3 .3c.4 .2 .8 .4 1.1 .7c.3 .4 .6 .7 .7 1.1c.2 .5 .3 .9 .3 1.4Z" class="g1_369"/>
<path d="M418.8 277.8c0 .4 -.1 .9 -.3 1.3c-.1 .4 -.4 .8 -.7 1.1c-.3 .3 -.7 .6 -1.1 .7c-.4 .2 -.9 .3 -1.3 .3c-.5 0 -.9 -.1 -1.3 -.3c-.5 -.1 -.8 -.4 -1.2 -.7c-.3 -.3 -.5 -.7 -.7 -1.1c-.2 -.4 -.3 -.9 -.3 -1.3c0 -.5 .1 -.9 .3 -1.4c.2 -.4 .4 -.7 .7 -1.1c.4 -.3 .7 -.5 1.2 -.7c.4 -.2 .8 -.3 1.3 -.3c.4 0 .9 .1 1.3 .3c.4 .2 .8 .4 1.1 .7c.3 .4 .6 .7 .7 1.1c.2 .5 .3 .9 .3 1.4Z" class="g2_369"/>
<path d="M418.8 277.8c0 .4 -.1 .9 -.3 1.3c-.1 .4 -.4 .8 -.7 1.1c-.3 .3 -.7 .6 -1.1 .7c-.4 .2 -.9 .3 -1.3 .3c-.5 0 -.9 -.1 -1.3 -.3c-.5 -.1 -.8 -.4 -1.2 -.7c-.3 -.3 -.5 -.7 -.7 -1.1c-.2 -.4 -.3 -.9 -.3 -1.3c0 -.5 .1 -.9 .3 -1.4c.2 -.4 .4 -.7 .7 -1.1c.4 -.3 .7 -.5 1.2 -.7c.4 -.2 .8 -.3 1.3 -.3c.4 0 .9 .1 1.3 .3c.4 .2 .8 .4 1.1 .7c.3 .4 .6 .7 .7 1.1c.2 .5 .3 .9 .3 1.4Z" class="g1_369"/>
<path d="M365 277.8c0 .7 -.1 1.5 -.3 2.2c-.1 .7 -.3 1.5 -.6 2.1c-.3 .7 -.7 1.4 -1.1 2c-.4 .7 -.9 1.2 -1.4 1.8c-.5 .5 -1.1 1 -1.7 1.4c-.7 .4 -1.3 .8 -2 1c-.7 .3 -1.4 .6 -2.2 .7c-.7 .1 -1.5 .2 -2.2 .2c-.8 0 -1.5 -.1 -2.2 -.2c-.8 -.1 -1.5 -.4 -2.2 -.7c-.7 -.2 -1.3 -.6 -2 -1c-.6 -.4 -1.2 -.9 -1.7 -1.4c-.5 -.6 -1 -1.1 -1.4 -1.8c-.5 -.6 -.8 -1.3 -1.1 -2c-.3 -.6 -.5 -1.4 -.6 -2.1c-.2 -.7 -.3 -1.5 -.3 -2.2c0 -.8 .1 -1.5 .3 -2.3c.1 -.7 .3 -1.4 .6 -2.1c.3 -.7 .6 -1.4 1.1 -2c.4 -.6 .9 -1.2 1.4 -1.7c.5 -.6 1.1 -1 1.7 -1.5c.7 -.4 1.3 -.7 2 -1c.7 -.3 1.4 -.5 2.2 -.7c.7 -.1 1.4 -.2 2.2 -.2c.7 0 1.5 .1 2.2 .2c.8 .2 1.5 .4 2.2 .7c.7 .3 1.3 .6 2 1c.6 .5 1.2 .9 1.7 1.5c.5 .5 1 1.1 1.4 1.7c.4 .6 .8 1.3 1.1 2c.3 .7 .5 1.4 .6 2.1c.2 .8 .3 1.5 .3 2.3Z" class="g0_369"/>
<path d="M365 277.8c0 .7 -.1 1.5 -.3 2.2c-.1 .7 -.3 1.5 -.6 2.1c-.3 .7 -.7 1.4 -1.1 2c-.4 .7 -.9 1.2 -1.4 1.8c-.5 .5 -1.1 1 -1.7 1.4c-.7 .4 -1.3 .8 -2 1c-.7 .3 -1.4 .6 -2.2 .7c-.7 .1 -1.5 .2 -2.2 .2c-.8 0 -1.5 -.1 -2.2 -.2c-.8 -.1 -1.5 -.4 -2.2 -.7c-.7 -.2 -1.3 -.6 -2 -1c-.6 -.4 -1.2 -.9 -1.7 -1.4c-.5 -.6 -1 -1.1 -1.4 -1.8c-.5 -.6 -.8 -1.3 -1.1 -2c-.3 -.6 -.5 -1.4 -.6 -2.1c-.2 -.7 -.3 -1.5 -.3 -2.2c0 -.8 .1 -1.5 .3 -2.3c.1 -.7 .3 -1.4 .6 -2.1c.3 -.7 .6 -1.4 1.1 -2c.4 -.6 .9 -1.2 1.4 -1.7c.5 -.6 1.1 -1 1.7 -1.5c.7 -.4 1.3 -.7 2 -1c.7 -.3 1.4 -.5 2.2 -.7c.7 -.1 1.4 -.2 2.2 -.2c.7 0 1.5 .1 2.2 .2c.8 .2 1.5 .4 2.2 .7c.7 .3 1.3 .6 2 1c.6 .5 1.2 .9 1.7 1.5c.5 .5 1 1.1 1.4 1.7c.4 .6 .8 1.3 1.1 2c.3 .7 .5 1.4 .6 2.1c.2 .8 .3 1.5 .3 2.3Z" class="g3_369"/>
<path d="M492.1 277.8h33.3" class="g1_369"/>
<path d="M492.1 277.8c0 .4 0 .9 -.2 1.3c-.2 .4 -.4 .8 -.8 1.1c-.3 .3 -.7 .6 -1.1 .7c-.4 .2 -.8 .3 -1.3 .3c-.5 0 -.9 -.1 -1.3 -.3c-.4 -.1 -.8 -.4 -1.1 -.7c-.4 -.3 -.6 -.7 -.8 -1.1c-.1 -.4 -.2 -.9 -.2 -1.3c0 -.5 .1 -.9 .2 -1.4c.2 -.4 .4 -.7 .8 -1.1c.3 -.3 .7 -.5 1.1 -.7c.4 -.2 .8 -.3 1.3 -.3c.5 0 .9 .1 1.3 .3c.4 .2 .8 .4 1.1 .7c.4 .4 .6 .7 .8 1.1c.2 .5 .2 .9 .2 1.4Z" class="g2_369"/>
<path d="M492.1 277.8c0 .4 0 .9 -.2 1.3c-.2 .4 -.4 .8 -.8 1.1c-.3 .3 -.7 .6 -1.1 .7c-.4 .2 -.8 .3 -1.3 .3c-.5 0 -.9 -.1 -1.3 -.3c-.4 -.1 -.8 -.4 -1.1 -.7c-.4 -.3 -.6 -.7 -.8 -1.1c-.1 -.4 -.2 -.9 -.2 -1.3c0 -.5 .1 -.9 .2 -1.4c.2 -.4 .4 -.7 .8 -1.1c.3 -.3 .7 -.5 1.1 -.7c.4 -.2 .8 -.3 1.3 -.3c.5 0 .9 .1 1.3 .3c.4 .2 .8 .4 1.1 .7c.4 .4 .6 .7 .8 1.1c.2 .5 .2 .9 .2 1.4Z" class="g1_369"/>
<path d="M532.2 277.8c0 .4 0 .9 -.2 1.3c-.2 .4 -.4 .8 -.8 1.1c-.3 .3 -.7 .6 -1.1 .7c-.4 .2 -.8 .3 -1.3 .3c-.5 0 -.9 -.1 -1.3 -.3c-.4 -.1 -.8 -.4 -1.1 -.7c-.3 -.3 -.6 -.7 -.8 -1.1c-.1 -.4 -.2 -.9 -.2 -1.3c0 -.5 .1 -.9 .2 -1.4c.2 -.4 .5 -.7 .8 -1.1c.3 -.3 .7 -.5 1.1 -.7c.4 -.2 .8 -.3 1.3 -.3c.5 0 .9 .1 1.3 .3c.4 .2 .8 .4 1.1 .7c.4 .4 .6 .7 .8 1.1c.2 .5 .2 .9 .2 1.4Z" class="g2_369"/>
<path d="M532.2 277.8c0 .4 0 .9 -.2 1.3c-.2 .4 -.4 .8 -.8 1.1c-.3 .3 -.7 .6 -1.1 .7c-.4 .2 -.8 .3 -1.3 .3c-.5 0 -.9 -.1 -1.3 -.3c-.4 -.1 -.8 -.4 -1.1 -.7c-.3 -.3 -.6 -.7 -.8 -1.1c-.1 -.4 -.2 -.9 -.2 -1.3c0 -.5 .1 -.9 .2 -1.4c.2 -.4 .5 -.7 .8 -1.1c.3 -.3 .7 -.5 1.1 -.7c.4 -.2 .8 -.3 1.3 -.3c.5 0 .9 .1 1.3 .3c.4 .2 .8 .4 1.1 .7c.4 .4 .6 .7 .8 1.1c.2 .5 .2 .9 .2 1.4Z" class="g1_369"/>
<path d="M478.4 277.8c0 .7 -.1 1.5 -.2 2.2c-.2 .7 -.4 1.5 -.7 2.1c-.3 .7 -.6 1.4 -1 2c-.5 .7 -.9 1.2 -1.5 1.8c-.5 .5 -1.1 1 -1.7 1.4c-.6 .4 -1.3 .8 -2 1c-.7 .3 -1.4 .6 -2.1 .7c-.8 .1 -1.5 .2 -2.3 .2c-.7 0 -1.5 -.1 -2.2 -.2c-.7 -.1 -1.5 -.4 -2.2 -.7c-.6 -.2 -1.3 -.6 -1.9 -1c-.7 -.4 -1.2 -.9 -1.8 -1.4c-.5 -.6 -1 -1.1 -1.4 -1.8c-.4 -.6 -.8 -1.3 -1.1 -2c-.2 -.6 -.5 -1.4 -.6 -2.1c-.2 -.7 -.2 -1.5 -.2 -2.2c0 -.8 0 -1.5 .2 -2.3c.1 -.7 .4 -1.4 .6 -2.1c.3 -.7 .7 -1.4 1.1 -2c.4 -.6 .9 -1.2 1.4 -1.7c.6 -.6 1.1 -1 1.8 -1.5c.6 -.4 1.3 -.7 1.9 -1c.7 -.3 1.5 -.5 2.2 -.7c.7 -.1 1.5 -.2 2.2 -.2c.8 0 1.5 .1 2.3 .2c.7 .2 1.4 .4 2.1 .7c.7 .3 1.4 .6 2 1c.6 .5 1.2 .9 1.7 1.5c.6 .5 1 1.1 1.5 1.7c.4 .6 .7 1.3 1 2c.3 .7 .5 1.4 .7 2.1c.1 .8 .2 1.5 .2 2.3Z" class="g0_369"/>
<path d="M478.4 277.8c0 .7 -.1 1.5 -.2 2.2c-.2 .7 -.4 1.5 -.7 2.1c-.3 .7 -.6 1.4 -1 2c-.5 .7 -.9 1.2 -1.5 1.8c-.5 .5 -1.1 1 -1.7 1.4c-.6 .4 -1.3 .8 -2 1c-.7 .3 -1.4 .6 -2.1 .7c-.8 .1 -1.5 .2 -2.3 .2c-.7 0 -1.5 -.1 -2.2 -.2c-.7 -.1 -1.5 -.4 -2.2 -.7c-.6 -.2 -1.3 -.6 -1.9 -1c-.7 -.4 -1.2 -.9 -1.8 -1.4c-.5 -.6 -1 -1.1 -1.4 -1.8c-.4 -.6 -.8 -1.3 -1.1 -2c-.2 -.6 -.5 -1.4 -.6 -2.1c-.2 -.7 -.2 -1.5 -.2 -2.2c0 -.8 0 -1.5 .2 -2.3c.1 -.7 .4 -1.4 .6 -2.1c.3 -.7 .7 -1.4 1.1 -2c.4 -.6 .9 -1.2 1.4 -1.7c.6 -.6 1.1 -1 1.8 -1.5c.6 -.4 1.3 -.7 1.9 -1c.7 -.3 1.5 -.5 2.2 -.7c.7 -.1 1.5 -.2 2.2 -.2c.8 0 1.5 .1 2.3 .2c.7 .2 1.4 .4 2.1 .7c.7 .3 1.4 .6 2 1c.6 .5 1.2 .9 1.7 1.5c.6 .5 1 1.1 1.5 1.7c.4 .6 .7 1.3 1 2c.3 .7 .5 1.4 .7 2.1c.1 .8 .2 1.5 .2 2.3Z" class="g3_369"/>
<path d="M492.1 323.6h63.1" class="g1_369"/>
<path d="M492.1 323.6c0 .4 0 .9 -.2 1.3c-.2 .4 -.4 .8 -.8 1.1c-.3 .3 -.7 .6 -1.1 .8c-.4 .1 -.8 .2 -1.3 .2c-.5 0 -.9 -.1 -1.3 -.2c-.4 -.2 -.8 -.5 -1.1 -.8c-.4 -.3 -.6 -.7 -.8 -1.1c-.1 -.4 -.2 -.9 -.2 -1.3c0 -.5 .1 -.9 .2 -1.3c.2 -.4 .4 -.8 .8 -1.1c.3 -.4 .7 -.6 1.1 -.8c.4 -.2 .8 -.2 1.3 -.2c.5 0 .9 0 1.3 .2c.4 .2 .8 .4 1.1 .8c.4 .3 .6 .7 .8 1.1c.2 .4 .2 .8 .2 1.3Z" class="g2_369"/>
<path d="M492.1 323.6c0 .4 0 .9 -.2 1.3c-.2 .4 -.4 .8 -.8 1.1c-.3 .3 -.7 .6 -1.1 .8c-.4 .1 -.8 .2 -1.3 .2c-.5 0 -.9 -.1 -1.3 -.2c-.4 -.2 -.8 -.5 -1.1 -.8c-.4 -.3 -.6 -.7 -.8 -1.1c-.1 -.4 -.2 -.9 -.2 -1.3c0 -.5 .1 -.9 .2 -1.3c.2 -.4 .4 -.8 .8 -1.1c.3 -.4 .7 -.6 1.1 -.8c.4 -.2 .8 -.2 1.3 -.2c.5 0 .9 0 1.3 .2c.4 .2 .8 .4 1.1 .8c.4 .3 .6 .7 .8 1.1c.2 .4 .2 .8 .2 1.3Z" class="g1_369"/>
<path d="M562 323.6c0 .4 -.1 .9 -.2 1.3c-.2 .4 -.5 .8 -.8 1.1c-.3 .3 -.7 .6 -1.1 .8c-.4 .1 -.8 .2 -1.3 .2c-.5 0 -.9 -.1 -1.3 -.2c-.4 -.2 -.8 -.5 -1.1 -.8c-.4 -.3 -.6 -.7 -.8 -1.1c-.2 -.4 -.2 -.9 -.2 -1.3c0 -.5 0 -.9 .2 -1.3c.2 -.4 .4 -.8 .8 -1.1c.3 -.4 .7 -.6 1.1 -.8c.4 -.2 .8 -.2 1.3 -.2c.5 0 .9 0 1.3 .2c.4 .2 .8 .4 1.1 .8c.3 .3 .6 .7 .8 1.1c.1 .4 .2 .8 .2 1.3Z" class="g2_369"/>
<path d="M562 323.6c0 .4 -.1 .9 -.2 1.3c-.2 .4 -.5 .8 -.8 1.1c-.3 .3 -.7 .6 -1.1 .8c-.4 .1 -.8 .2 -1.3 .2c-.5 0 -.9 -.1 -1.3 -.2c-.4 -.2 -.8 -.5 -1.1 -.8c-.4 -.3 -.6 -.7 -.8 -1.1c-.2 -.4 -.2 -.9 -.2 -1.3c0 -.5 0 -.9 .2 -1.3c.2 -.4 .4 -.8 .8 -1.1c.3 -.4 .7 -.6 1.1 -.8c.4 -.2 .8 -.2 1.3 -.2c.5 0 .9 0 1.3 .2c.4 .2 .8 .4 1.1 .8c.3 .3 .6 .7 .8 1.1c.1 .4 .2 .8 .2 1.3Z" class="g1_369"/>
<path d="M478.4 323.6c0 .7 -.1 1.5 -.2 2.2c-.2 .8 -.4 1.5 -.7 2.2c-.3 .7 -.6 1.3 -1 2c-.5 .6 -.9 1.2 -1.5 1.7c-.5 .5 -1.1 1 -1.7 1.4c-.6 .4 -1.3 .8 -2 1.1c-.7 .3 -1.4 .5 -2.1 .6c-.8 .2 -1.5 .3 -2.3 .3c-.7 0 -1.5 -.1 -2.2 -.3c-.7 -.1 -1.5 -.3 -2.2 -.6c-.6 -.3 -1.3 -.7 -1.9 -1.1c-.7 -.4 -1.2 -.9 -1.8 -1.4c-.5 -.5 -1 -1.1 -1.4 -1.7c-.4 -.7 -.8 -1.3 -1.1 -2c-.2 -.7 -.5 -1.4 -.6 -2.2c-.2 -.7 -.2 -1.5 -.2 -2.2c0 -.8 0 -1.5 .2 -2.2c.1 -.8 .4 -1.5 .6 -2.2c.3 -.7 .7 -1.3 1.1 -2c.4 -.6 .9 -1.2 1.4 -1.7c.6 -.5 1.1 -1 1.8 -1.4c.6 -.5 1.3 -.8 1.9 -1.1c.7 -.3 1.5 -.5 2.2 -.6c.7 -.2 1.5 -.3 2.2 -.3c.8 0 1.5 .1 2.3 .3c.7 .1 1.4 .3 2.1 .6c.7 .3 1.4 .6 2 1.1c.6 .4 1.2 .9 1.7 1.4c.6 .5 1 1.1 1.5 1.7c.4 .7 .7 1.3 1 2c.3 .7 .5 1.4 .7 2.2c.1 .7 .2 1.4 .2 2.2Z" class="g0_369"/>
<path d="M478.4 323.6c0 .7 -.1 1.5 -.2 2.2c-.2 .8 -.4 1.5 -.7 2.2c-.3 .7 -.6 1.3 -1 2c-.5 .6 -.9 1.2 -1.5 1.7c-.5 .5 -1.1 1 -1.7 1.4c-.6 .4 -1.3 .8 -2 1.1c-.7 .3 -1.4 .5 -2.1 .6c-.8 .2 -1.5 .3 -2.3 .3c-.7 0 -1.5 -.1 -2.2 -.3c-.7 -.1 -1.5 -.3 -2.2 -.6c-.6 -.3 -1.3 -.7 -1.9 -1.1c-.7 -.4 -1.2 -.9 -1.8 -1.4c-.5 -.5 -1 -1.1 -1.4 -1.7c-.4 -.7 -.8 -1.3 -1.1 -2c-.2 -.7 -.5 -1.4 -.6 -2.2c-.2 -.7 -.2 -1.5 -.2 -2.2c0 -.8 0 -1.5 .2 -2.2c.1 -.8 .4 -1.5 .6 -2.2c.3 -.7 .7 -1.3 1.1 -2c.4 -.6 .9 -1.2 1.4 -1.7c.6 -.5 1.1 -1 1.8 -1.4c.6 -.5 1.3 -.8 1.9 -1.1c.7 -.3 1.5 -.5 2.2 -.6c.7 -.2 1.5 -.3 2.2 -.3c.8 0 1.5 .1 2.3 .3c.7 .1 1.4 .3 2.1 .6c.7 .3 1.4 .6 2 1.1c.6 .4 1.2 .9 1.7 1.4c.6 .5 1 1.1 1.5 1.7c.4 .7 .7 1.3 1 2c.3 .7 .5 1.4 .7 2.2c.1 .7 .2 1.4 .2 2.2Z" class="g3_369"/>
<path d="M492.1 369.4h17.2" class="g1_369"/>
<path d="M492.1 369.4c0 .5 0 .9 -.2 1.3c-.2 .5 -.4 .8 -.8 1.2c-.3 .3 -.7 .5 -1.1 .7c-.4 .2 -.8 .3 -1.3 .3c-.5 0 -.9 -.1 -1.3 -.3c-.4 -.2 -.8 -.4 -1.1 -.7c-.4 -.4 -.6 -.7 -.8 -1.2c-.1 -.4 -.2 -.8 -.2 -1.3c0 -.4 .1 -.9 .2 -1.3c.2 -.4 .4 -.8 .8 -1.1c.3 -.3 .7 -.6 1.1 -.7c.4 -.2 .8 -.3 1.3 -.3c.5 0 .9 .1 1.3 .3c.4 .1 .8 .4 1.1 .7c.4 .3 .6 .7 .8 1.1c.2 .4 .2 .9 .2 1.3Z" class="g2_369"/>
<path d="M492.1 369.4c0 .5 0 .9 -.2 1.3c-.2 .5 -.4 .8 -.8 1.2c-.3 .3 -.7 .5 -1.1 .7c-.4 .2 -.8 .3 -1.3 .3c-.5 0 -.9 -.1 -1.3 -.3c-.4 -.2 -.8 -.4 -1.1 -.7c-.4 -.4 -.6 -.7 -.8 -1.2c-.1 -.4 -.2 -.8 -.2 -1.3c0 -.4 .1 -.9 .2 -1.3c.2 -.4 .4 -.8 .8 -1.1c.3 -.3 .7 -.6 1.1 -.7c.4 -.2 .8 -.3 1.3 -.3c.5 0 .9 .1 1.3 .3c.4 .1 .8 .4 1.1 .7c.4 .3 .6 .7 .8 1.1c.2 .4 .2 .9 .2 1.3Z" class="g1_369"/>
<path d="M516.2 369.4c0 .5 -.1 .9 -.3 1.3c-.1 .5 -.4 .8 -.7 1.2c-.3 .3 -.7 .5 -1.1 .7c-.4 .2 -.9 .3 -1.3 .3c-.5 0 -.9 -.1 -1.4 -.3c-.4 -.2 -.7 -.4 -1.1 -.7c-.3 -.4 -.5 -.7 -.7 -1.2c-.2 -.4 -.3 -.8 -.3 -1.3c0 -.4 .1 -.9 .3 -1.3c.2 -.4 .4 -.8 .7 -1.1c.4 -.3 .7 -.6 1.1 -.7c.5 -.2 .9 -.3 1.4 -.3c.4 0 .9 .1 1.3 .3c.4 .1 .8 .4 1.1 .7c.3 .3 .6 .7 .7 1.1c.2 .4 .3 .9 .3 1.3Z" class="g2_369"/>
<path d="M516.2 369.4c0 .5 -.1 .9 -.3 1.3c-.1 .5 -.4 .8 -.7 1.2c-.3 .3 -.7 .5 -1.1 .7c-.4 .2 -.9 .3 -1.3 .3c-.5 0 -.9 -.1 -1.4 -.3c-.4 -.2 -.7 -.4 -1.1 -.7c-.3 -.4 -.5 -.7 -.7 -1.2c-.2 -.4 -.3 -.8 -.3 -1.3c0 -.4 .1 -.9 .3 -1.3c.2 -.4 .4 -.8 .7 -1.1c.4 -.3 .7 -.6 1.1 -.7c.5 -.2 .9 -.3 1.4 -.3c.4 0 .9 .1 1.3 .3c.4 .1 .8 .4 1.1 .7c.3 .3 .6 .7 .7 1.1c.2 .4 .3 .9 .3 1.3Z" class="g1_369"/>
<path d="M478.4 369.4c0 .8 -.1 1.5 -.2 2.3c-.2 .7 -.4 1.4 -.7 2.1c-.3 .7 -.6 1.4 -1 2c-.5 .6 -.9 1.2 -1.5 1.7c-.5 .6 -1.1 1 -1.7 1.5c-.6 .4 -1.3 .7 -2 1c-.7 .3 -1.4 .5 -2.1 .7c-.8 .1 -1.5 .2 -2.3 .2c-.7 0 -1.5 -.1 -2.2 -.2c-.7 -.2 -1.5 -.4 -2.2 -.7c-.6 -.3 -1.3 -.6 -1.9 -1c-.7 -.5 -1.2 -.9 -1.8 -1.5c-.5 -.5 -1 -1.1 -1.4 -1.7c-.4 -.6 -.8 -1.3 -1.1 -2c-.2 -.7 -.5 -1.4 -.6 -2.1c-.2 -.8 -.2 -1.5 -.2 -2.3c0 -.7 0 -1.5 .2 -2.2c.1 -.7 .4 -1.5 .6 -2.2c.3 -.7 .7 -1.3 1.1 -1.9c.4 -.7 .9 -1.2 1.4 -1.8c.6 -.5 1.1 -1 1.8 -1.4c.6 -.4 1.3 -.8 1.9 -1.1c.7 -.2 1.5 -.5 2.2 -.6c.7 -.2 1.5 -.2 2.2 -.2c.8 0 1.5 0 2.3 .2c.7 .1 1.4 .4 2.1 .6c.7 .3 1.4 .7 2 1.1c.6 .4 1.2 .9 1.7 1.4c.6 .6 1 1.1 1.5 1.8c.4 .6 .7 1.2 1 1.9c.3 .7 .5 1.5 .7 2.2c.1 .7 .2 1.5 .2 2.2Z" class="g0_369"/>
<path d="M478.4 369.4c0 .8 -.1 1.5 -.2 2.3c-.2 .7 -.4 1.4 -.7 2.1c-.3 .7 -.6 1.4 -1 2c-.5 .6 -.9 1.2 -1.5 1.7c-.5 .6 -1.1 1 -1.7 1.5c-.6 .4 -1.3 .7 -2 1c-.7 .3 -1.4 .5 -2.1 .7c-.8 .1 -1.5 .2 -2.3 .2c-.7 0 -1.5 -.1 -2.2 -.2c-.7 -.2 -1.5 -.4 -2.2 -.7c-.6 -.3 -1.3 -.6 -1.9 -1c-.7 -.5 -1.2 -.9 -1.8 -1.5c-.5 -.5 -1 -1.1 -1.4 -1.7c-.4 -.6 -.8 -1.3 -1.1 -2c-.2 -.7 -.5 -1.4 -.6 -2.1c-.2 -.8 -.2 -1.5 -.2 -2.3c0 -.7 0 -1.5 .2 -2.2c.1 -.7 .4 -1.5 .6 -2.2c.3 -.7 .7 -1.3 1.1 -1.9c.4 -.7 .9 -1.2 1.4 -1.8c.6 -.5 1.1 -1 1.8 -1.4c.6 -.4 1.3 -.8 1.9 -1.1c.7 -.2 1.5 -.5 2.2 -.6c.7 -.2 1.5 -.2 2.2 -.2c.8 0 1.5 0 2.3 .2c.7 .1 1.4 .4 2.1 .6c.7 .3 1.4 .7 2 1.1c.6 .4 1.2 .9 1.7 1.4c.6 .6 1 1.1 1.5 1.8c.4 .6 .7 1.2 1 1.9c.3 .7 .5 1.5 .7 2.2c.1 .7 .2 1.5 .2 2.2Z" class="g3_369"/>
</g>
</svg>