<?xml version="1.0" encoding="UTF-8" standalone="no"?>
<!DOCTYPE svg PUBLIC "-//W3C//DTD SVG 1.1//EN"
"http://www.w3.org/Graphics/SVG/1.1/DTD/svg11.dtd">
<svg viewBox="0 0 714 1017" version="1.1" xmlns="http://www.w3.org/2000/svg" xmlns:xlink="http://www.w3.org/1999/xlink">
<defs>
<clipPath id="c0_84"><path d="M88.5 652V535.1H647.7V652Z"/></clipPath>
<clipPath id="c1_84"><path d="M88.5 652.8V533.7H647.7V652.8Z"/></clipPath>
<style type="text/css"><![CDATA[
.g0_84{
fill: #FFF;
}
.g1_84{
fill: none;
stroke: #000;
stroke-width: 1.145;
stroke-miterlimit: 10;
}
.g2_84{
fill: #DDD;
}
.g3_84{
fill: none;
stroke: #000;
stroke-width: 2.291;
stroke-miterlimit: 10;
}
.g4_84{
fill: #000;
}
.g5_84{
fill: none;
stroke: #000;
stroke-width: 0.608;
stroke-miterlimit: 10;
}
]]></style>
</defs>
<path d="M0 1017.7H717.2V-3.7H0V1017.7Z" class="g0_84"/>
<g clip-path="url(#c1_84)">
<path clip-path="url(#c0_84)" d="M88.5 535.1H647.7V652H88.5V535.1Z" class="g0_84"/>
<path d="M97.1 536.9h34.4v34.3H97.1V536.9Zm34.4 0h34.3v34.3H131.5V536.9Zm34.3 0h34.4v34.3H165.8V536.9Zm34.4 0h34.4v34.3H200.2V536.9Zm34.4 0h34.3v34.3H234.6V536.9Zm34.4 0h34.3v34.3H269V536.9Zm34.3 0h34.4v34.3H303.3V536.9Zm34.4 0h34.4v34.3H337.7V536.9Zm34.4 0h34.4v34.3H372.1V536.9Zm34.3 0h34.4v34.3H406.4V536.9Zm34.4 0h34.4v34.3H440.8V536.9Z" class="g1_84"/>
<path d="M475.2 536.9h34.4v34.3H475.2V536.9Z" class="g2_84"/>
<path d="M475.2 536.9h34.4v34.3H475.2V536.9Z" class="g1_84"/>
<path d="M509.6 536.9h34.3v34.3H509.6V536.9Z" class="g2_84"/>
<path d="M509.6 536.9h34.3v34.3H509.6V536.9Z" class="g1_84"/>
<path d="M543.9 536.9h34.4v34.3H543.9V536.9Z" class="g2_84"/>
<path d="M543.9 536.9h34.4v34.3H543.9V536.9Z" class="g1_84"/>
<path d="M578.3 536.9h34.4v34.3H578.3V536.9Z" class="g2_84"/>
<path d="M578.3 536.9h34.4v34.3H578.3V536.9Z" class="g1_84"/>
<path d="M612.7 536.9h34.4v34.3H612.7V536.9Z" class="g2_84"/>
<path d="M612.7 536.9h34.4v34.3H612.7V536.9Z" class="g1_84"/>
<path clip-path="url(#c0_84)" d="M97.1 536.9H200.2v34.3H97.1V536.9Zm103.1 0h68.7v34.3H200.2V536.9Zm68.8 0H406.5v34.3H269V536.9Zm137.4 0h68.8v34.3H406.4V536.9ZM102.2 617.1H218c.6 0 1.3 .1 1.9 .4c.7 .2 1.2 .6 1.7 1.1c.5 .5 .9 1 1.1 1.6c.3 .7 .4 1.3 .4 2v24.1c0 .7 -.1 1.3 -.4 2c-.2 .6 -.6 1.1 -1.1 1.6c-.5 .5 -1 .9 -1.7 1.1c-.6 .3 -1.3 .4 -1.9 .4H102.2c-.7 0 -1.3 -.1 -1.9 -.4c-.7 -.2 -1.2 -.6 -1.7 -1.1c-.5 -.5 -.9 -1 -1.1 -1.6c-.3 -.7 -.4 -1.3 -.4 -2V622.2c0 -.7 .1 -1.3 .4 -2c.2 -.6 .6 -1.1 1.1 -1.6c.5 -.5 1 -.9 1.7 -1.1c.6 -.3 1.2 -.4 1.9 -.4Z" class="g3_84"/>
<path d="M126.9 634.3c0 .7 -.1 1.4 -.2 2.2c-.2 .7 -.4 1.4 -.7 2.1c-.3 .7 -.6 1.4 -1 2c-.5 .6 -.9 1.2 -1.5 1.8c-.5 .5 -1.1 1 -1.7 1.4c-.6 .4 -1.3 .8 -2 1c-.7 .3 -1.4 .5 -2.1 .7c-.8 .1 -1.5 .2 -2.3 .2c-.7 0 -1.5 -.1 -2.2 -.2c-.7 -.2 -1.5 -.4 -2.2 -.7c-.6 -.2 -1.3 -.6 -1.9 -1c-.7 -.4 -1.2 -.9 -1.8 -1.4c-.5 -.6 -1 -1.2 -1.4 -1.8c-.4 -.6 -.8 -1.3 -1.1 -2c-.2 -.7 -.5 -1.4 -.6 -2.1c-.2 -.8 -.2 -1.5 -.2 -2.2c0 -.8 0 -1.5 .2 -2.3c.1 -.7 .4 -1.4 .6 -2.1c.3 -.7 .7 -1.4 1.1 -2c.4 -.6 .9 -1.2 1.4 -1.7c.6 -.6 1.1 -1.1 1.8 -1.5c.6 -.4 1.3 -.7 1.9 -1c.7 -.3 1.5 -.5 2.2 -.7c.7 -.1 1.5 -.2 2.2 -.2c.8 0 1.5 .1 2.3 .2c.7 .2 1.4 .4 2.1 .7c.7 .3 1.4 .6 2 1c.6 .4 1.2 .9 1.7 1.5c.6 .5 1 1.1 1.5 1.7c.4 .6 .7 1.3 1 2c.3 .7 .5 1.4 .7 2.1c.1 .8 .2 1.5 .2 2.3Z" class="g4_84"/>
<path d="M154.4 634.3c0 .7 -.1 1.4 -.3 2.2c-.1 .7 -.3 1.4 -.6 2.1c-.3 .7 -.6 1.4 -1.1 2c-.4 .6 -.9 1.2 -1.4 1.8c-.5 .5 -1.1 1 -1.7 1.4c-.7 .4 -1.3 .8 -2 1c-.7 .3 -1.4 .5 -2.2 .7c-.7 .1 -1.4 .2 -2.2 .2c-.7 0 -1.5 -.1 -2.2 -.2c-.8 -.2 -1.5 -.4 -2.2 -.7c-.7 -.2 -1.3 -.6 -2 -1c-.6 -.4 -1.2 -.9 -1.7 -1.4c-.5 -.6 -1 -1.2 -1.4 -1.8c-.4 -.6 -.8 -1.3 -1.1 -2c-.3 -.7 -.5 -1.4 -.6 -2.1c-.2 -.8 -.2 -1.5 -.2 -2.2c0 -.8 0 -1.5 .2 -2.3c.1 -.7 .3 -1.4 .6 -2.1c.3 -.7 .7 -1.4 1.1 -2c.4 -.6 .9 -1.2 1.4 -1.7c.5 -.6 1.1 -1.1 1.7 -1.5c.7 -.4 1.3 -.7 2 -1c.7 -.3 1.4 -.5 2.2 -.7c.7 -.1 1.5 -.2 2.2 -.2c.8 0 1.5 .1 2.2 .2c.8 .2 1.5 .4 2.2 .7c.7 .3 1.3 .6 2 1c.6 .4 1.2 .9 1.7 1.5c.5 .5 1 1.1 1.4 1.7c.5 .6 .8 1.3 1.1 2c.3 .7 .5 1.4 .6 2.1c.2 .8 .3 1.5 .3 2.3Z" class="g4_84"/>
<path d="M184.2 634.3c0 .7 -.1 1.4 -.2 2.2c-.2 .7 -.4 1.4 -.7 2.1c-.3 .7 -.6 1.4 -1 2c-.5 .6 -.9 1.2 -1.5 1.8c-.5 .5 -1.1 1 -1.7 1.4c-.6 .4 -1.3 .8 -2 1c-.7 .3 -1.4 .5 -2.1 .7c-.8 .1 -1.5 .2 -2.3 .2c-.7 0 -1.5 -.1 -2.2 -.2c-.8 -.2 -1.5 -.4 -2.2 -.7c-.7 -.2 -1.3 -.6 -1.9 -1c-.7 -.4 -1.2 -.9 -1.8 -1.4c-.5 -.6 -1 -1.2 -1.4 -1.8c-.4 -.6 -.8 -1.3 -1.1 -2c-.3 -.7 -.5 -1.4 -.6 -2.1c-.2 -.8 -.2 -1.5 -.2 -2.2c0 -.8 0 -1.5 .2 -2.3c.1 -.7 .3 -1.4 .6 -2.1c.3 -.7 .7 -1.4 1.1 -2c.4 -.6 .9 -1.2 1.4 -1.7c.6 -.6 1.1 -1.1 1.8 -1.5c.6 -.4 1.2 -.7 1.9 -1c.7 -.3 1.4 -.5 2.2 -.7c.7 -.1 1.5 -.2 2.2 -.2c.8 0 1.5 .1 2.3 .2c.7 .2 1.4 .4 2.1 .7c.7 .3 1.4 .6 2 1c.6 .4 1.2 .9 1.7 1.5c.6 .5 1 1.1 1.5 1.7c.4 .6 .7 1.3 1 2c.3 .7 .5 1.4 .7 2.1c.1 .8 .2 1.5 .2 2.3Z" class="g4_84"/>
<path d="M211.7 634.3c0 .7 -.1 1.4 -.3 2.2c-.1 .7 -.3 1.4 -.6 2.1c-.3 .7 -.7 1.4 -1.1 2c-.4 .6 -.9 1.2 -1.4 1.8c-.5 .5 -1.1 1 -1.7 1.4c-.7 .4 -1.3 .8 -2 1c-.7 .3 -1.4 .5 -2.2 .7c-.7 .1 -1.4 .2 -2.2 .2c-.8 0 -1.5 -.1 -2.2 -.2c-.8 -.2 -1.5 -.4 -2.2 -.7c-.7 -.2 -1.3 -.6 -2 -1c-.6 -.4 -1.2 -.9 -1.7 -1.4c-.5 -.6 -1 -1.2 -1.4 -1.8c-.4 -.6 -.8 -1.3 -1.1 -2c-.3 -.7 -.5 -1.4 -.6 -2.1c-.2 -.8 -.3 -1.5 -.3 -2.2c0 -.8 .1 -1.5 .3 -2.3c.1 -.7 .3 -1.4 .6 -2.1c.3 -.7 .7 -1.4 1.1 -2c.4 -.6 .9 -1.2 1.4 -1.7c.5 -.6 1.1 -1.1 1.7 -1.5c.7 -.4 1.3 -.7 2 -1c.7 -.3 1.4 -.5 2.2 -.7c.7 -.1 1.4 -.2 2.2 -.2c.8 0 1.5 .1 2.2 .2c.8 .2 1.5 .4 2.2 .7c.7 .3 1.3 .6 2 1c.6 .4 1.2 .9 1.7 1.5c.5 .5 1 1.1 1.4 1.7c.4 .6 .8 1.3 1.1 2c.3 .7 .5 1.4 .6 2.1c.2 .8 .3 1.5 .3 2.3Z" class="g4_84"/>
<path d="M115.4 622.8V608.5c.1 -7.7 -3 -11.5 -9.1 -11.5h-4.6c-3.1 0 -4.6 -3.1 -4.6 -9.2v-9.3" class="g1_84"/>
<path d="M97.1 572.5l2.7 8l-2.7 -2l-2.7 2l2.7 -8Z" class="g4_84"/>
<path d="M97.1 572.5l2.7 8l-2.7 -2l-2.7 2l2.7 -8Zm45.8 50.3V605.6c0 -7.6 3.9 -11.5 11.5 -11.5h34.4c7.6 0 11.4 -2.6 11.4 -7.8v-7.8" class="g1_84"/>
<path d="M200.2 572.5l2.7 8l-2.7 -2l-2.7 2l2.7 -8Z" class="g4_84"/>
<path d="M200.2 572.5l2.7 8l-2.7 -2l-2.7 2l2.7 -8Zm-27.5 50.3V608.5c0 -7.7 3.9 -11.5 11.5 -11.5h73.3c7.7 0 11.5 -3.1 11.5 -9.2v-9.3" class="g1_84"/>
<path d="M269 572.5l2.6 8l-2.6 -2l-2.7 2l2.7 -8Z" class="g4_84"/>
<path d="M269 572.5l2.6 8l-2.6 -2l-2.7 2l2.7 -8Zm-68.8 50.3v-8.6c0 -5.7 3.9 -8.6 11.5 -8.6H395c7.7 0 11.5 -3.8 11.5 -11.5V578.5" class="g1_84"/>
<path d="M406.4 572.5l2.7 8l-2.6 -2l-2.7 2l2.6 -8Z" class="g4_84"/>
<path d="M406.4 572.5l2.7 8l-2.6 -2l-2.7 2l2.6 -8Z" class="g1_84"/>
</g>
<path d="M86.6 797.8H196.2" class="g5_84"/>
</svg>